<?xml version="1.0" encoding="UTF-8" standalone="no"?>
<!DOCTYPE svg PUBLIC "-//W3C//DTD SVG 20010904//EN"
"http://www.w3.org/TR/2001/REC-SVG-20010904/DTD/svg10.dtd">
<!-- Created with Inkscape (http://www.inkscape.org/) -->
<svg
   version="1.0"
   x="0"
   y="0"
   width="48pt"
   height="48pt"
   id="svg1"
   sodipodi:version="0.32"
   inkscape:version="0.38"
   sodipodi:docname="gnome-mime-application-x-bzip-compressed-tar.svg"
   sodipodi:docbase="/usr/share/icons/Lila/scalable/mimetypes"
   xmlns="http://www.w3.org/2000/svg"
   xmlns:inkscape="http://www.inkscape.org/namespaces/inkscape"
   xmlns:sodipodi="http://sodipodi.sourceforge.net/DTD/sodipodi-0.dtd"
   xmlns:xml="http://www.w3.org/XML/1998/namespace"
   xmlns:xlink="http://www.w3.org/1999/xlink">
  <sodipodi:namedview
     id="base"
     pagecolor="#ffffff"
     bordercolor="#666666"
     borderopacity="1.0"
     inkscape:pageopacity="0.0"
     inkscape:pageshadow="2"
     inkscape:zoom="5.6400000"
     inkscape:cx="29.853687"
     inkscape:cy="21.920711"
     inkscape:window-width="640"
     inkscape:window-height="503"
     inkscape:window-x="37"
     inkscape:window-y="408"
     showguides="true"
     snaptoguides="true" />
  <defs
     id="defs3">
    <linearGradient
       id="linearGradient570">
      <stop
         style="stop-color:#ffffff;stop-opacity:1;"
         offset="0"
         id="stop571" />
      <stop
         style="stop-color:#ffffff;stop-opacity:0;"
         offset="1"
         id="stop572" />
    </linearGradient>
    <linearGradient
       id="linearGradient563">
      <stop
         style="stop-color:#d9cce6;stop-opacity:1;"
         offset="0.00000000"
         id="stop564" />
      <stop
         style="stop-color:#73667f;stop-opacity:1;"
         offset="1.00000000"
         id="stop565" />
    </linearGradient>
    <linearGradient
       x1="0.01973684"
       y1="0.00000000"
       x2="0.98026317"
       y2="0.96875000"
       id="linearGradient566"
       xlink:href="#linearGradient563" />
    <linearGradient
       x1="0.007275"
       y1="0.062497"
       x2="1.003636"
       y2="0.968750"
       id="linearGradient569"
       xlink:href="#linearGradient570" />
    <linearGradient
       x1="0.017699"
       y1="0.007811"
       x2="0.982301"
       y2="0.992187"
       id="linearGradient573"
       xlink:href="#linearGradient570" />
    <linearGradient
       x1="0.040005"
       y1="0.015624"
       x2="1.000000"
       y2="0.984375"
       id="linearGradient575"
       xlink:href="#linearGradient570" />
    <linearGradient
       id="linearGradient578"
       xlink:href="#linearGradient570" />
  </defs>
  <path
     d="M 4.3319537 47.873335 C 5.5354626 49.08791 32.414949 55.868816 34.128038 55.495694 C 35.62272 55.308702 57.235768 45.549036 58.103536 44.547352 C 59.311466 42.960228 59.076803 14.61038 57.964972 13.3653 C 56.728509 11.783464 29.977412 8.6103101 28.168778 8.6533255 C 26.523477 8.8185403 4.7976325 13.532396 3.9162388 14.751165 C 3.2688576 15.748208 3.1247203 46.794797 4.3319537 47.873335 z "
     style="font-size:12;opacity:0.302675;fill-rule:evenodd;stroke-width:12.5;"
     id="path1168" />
  <path
     d="M 4.010611 45.413592 C 5.1626968 46.576279 30.893688 53.067459 32.533582 52.710287 C 33.964399 52.531272 54.653991 43.188604 55.484682 42.229719 C 56.641001 40.710399 56.416364 13.571863 55.352037 12.37998 C 54.168404 10.865731 28.560298 7.8281654 26.82894 7.8693346 C 25.25394 8.0275058 4.4563917 12.539925 3.6126274 13.706627 C 2.992905 14.661066 2.8549262 44.381133 4.010611 45.413592 z "
     style="font-size:12;fill:url(#linearGradient566);fill-rule:evenodd;stroke:#261933;stroke-width:1.875;stroke-dasharray:none;"
     id="path1164" />
  <path
     d="M 5.0719434 44.352349 C 4.5987439 43.642541 3.9794786 15.751129 4.9392786 14.900626 C 5.5970982 14.332895 29.941467 18.441686 30.410962 19.145973 C 30.825831 19.768334 11.65524 15.004167 7.5926113 18.880586 C 4.3212608 21.995866 5.4831918 44.969189 5.0719434 44.352349 z "
     style="font-size:12;opacity:0.990000;fill:url(#linearGradient573);fill-rule:evenodd;stroke:none;stroke-width:0.105861pt;"
     id="path1165" />
  <path
     d="M 33.197014 50.056975 C 32.832639 49.738123 32.229866 20.05564 32.931619 19.278622 C 33.690219 18.424426 52.862291 14.314057 53.229417 14.635347 C 53.569762 14.933138 36.707895 18.09034 35.05424 21.135954 C 32.494519 25.690205 33.540107 50.357204 33.197014 50.056975 z "
     style="font-size:12;opacity:0.990000;fill:url(#linearGradient575);fill-rule:evenodd;stroke:none;stroke-width:0.105861pt;"
     id="path1166" />
  <path
     d="M 9.3171936 13.44133 C 9.3171936 13.173935 25.266961 9.3573257 27.359729 9.3287384 C 29.067691 9.3036461 46.198125 11.450417 46.198125 11.716647 C 46.198125 11.980994 33.612199 10.628286 27.359729 10.920683 C 21.318556 11.203222 9.3171936 13.70462 9.3171936 13.44133 z "
     style="font-size:12;opacity:0.990000;fill:url(#linearGradient569);fill-rule:evenodd;stroke:none;stroke-width:0.105861pt;"
     id="path1167" />
  <rect
     style="fill:#000000;fill-opacity:0.30000001;fill-rule:evenodd;stroke:none;stroke-width:1.0000000pt;stroke-opacity:1.0000000;"
     id="rect937"
     x="28.640162"
     y="39.164196"
     rx="0.70483023"
     width="30.710464"
     height="12.888113" />
  <rect
     style="fill:#d9cce6;fill-opacity:0.80000001;fill-rule:evenodd;stroke:#261933;stroke-width:1.2500000;stroke-dasharray:none;"
     id="rect862"
     x="26.737149"
     y="37.575356"
     rx="0.69999999"
     width="30.500000"
     height="12.750523" />
  <text
     xml:space="preserve"
     style="fill:black;fill-opacity:1;stroke:none;font-family:helvetica;font-style:normal;font-weight:normal;font-size:12px;stroke-opacity:1;stroke-width:1pt;stroke-linejoin:miter;stroke-linecap:butt;"
     x="32.507458"
     y="45.730038"
     id="text863"><tspan
       id="tspan864"></tspan></text>
  <path
     style="font-size:12.000000;stroke-width:1.0000000pt;font-family:Radio Stars;"
     d="M 54.886592,42.069647 L 50.206592,45.801647 L 54.370592,45.801647 C 54.626592,45.801647 54.826592,45.881647 54.970592,46.041647 C 55.114592,46.201647 55.186592,46.393647 55.186592,46.617647 C 55.186592,46.841647 55.114592,47.033647 54.970592,47.193647 C 54.826592,47.353647 54.626592,47.433647 54.370592,47.433647 L 47.890592,47.433647 C 47.610592,47.433647 47.386592,47.365647 47.218592,47.229647 C 47.050592,47.093647 46.966592,46.925647 46.966592,46.725647 C 46.966592,46.453647 47.110592,46.201647 47.398592,45.969647 L 52.066592,42.249647 L 47.890592,42.249647 C 47.634592,42.249647 47.434592,42.169647 47.290592,42.009647 C 47.146592,41.849647 47.074592,41.657647 47.074592,41.433647 C 47.074592,41.209647 47.146592,41.017647 47.290592,40.857647 C 47.434592,40.697647 47.634592,40.617647 47.890592,40.617647 L 54.370592,40.617647 C 54.658592,40.617647 54.886592,40.685647 55.054592,40.821647 C 55.222592,40.957647 55.306592,41.125647 55.306592,41.325647 C 55.306592,41.597647 55.166592,41.845647 54.886592,42.069647 z M 45.658592,46.617647 C 45.658592,47.161647 45.386592,47.433647 44.842592,47.433647 L 37.558592,47.433647 L 37.558592,40.617647 L 44.842592,40.617647 C 45.386592,40.617647 45.658592,40.889647 45.658592,41.433647 L 45.658592,43.209647 C 45.642592,43.353647 45.606592,43.477647 45.550592,43.581647 C 45.414592,43.837647 45.178592,43.977647 44.842592,44.001647 C 45.346592,44.049647 45.618592,44.329647 45.658592,44.841647 L 45.658592,46.617647 z M 44.038592,43.209647 L 44.038592,42.249647 L 39.178592,42.249647 L 39.178592,43.209647 L 44.038592,43.209647 z M 44.038592,45.801647 L 44.038592,44.841647 L 39.178592,44.841647 L 39.178592,45.801647 L 44.038592,45.801647 z M 35.806592,42.249647 L 33.382592,42.249647 L 33.382592,46.617647 C 33.382592,46.873647 33.302592,47.073647 33.142592,47.217647 C 32.982592,47.353647 32.790592,47.421647 32.566592,47.421647 C 32.350592,47.421647 32.162592,47.353647 32.002592,47.217647 C 31.842592,47.073647 31.762592,46.873647 31.762592,46.617647 L 31.762592,42.249647 L 29.326592,42.249647 C 29.070592,42.249647 28.870592,42.169647 28.726592,42.009647 C 28.582592,41.849647 28.510592,41.657647 28.510592,41.433647 C 28.510592,41.209647 28.582592,41.017647 28.726592,40.857647 C 28.870592,40.697647 29.070592,40.617647 29.326592,40.617647 L 35.806592,40.617647 C 36.062592,40.617647 36.262592,40.697647 36.406592,40.857647 C 36.550592,41.017647 36.622592,41.209647 36.622592,41.433647 C 36.622592,41.657647 36.550592,41.849647 36.406592,42.009647 C 36.262592,42.169647 36.062592,42.249647 35.806592,42.249647 z "
     id="path849" />
</svg>
