<?xml version="1.0" encoding="UTF-8" standalone="no"?>
<!DOCTYPE svg PUBLIC "-//W3C//DTD SVG 20010904//EN"
"http://www.w3.org/TR/2001/REC-SVG-20010904/DTD/svg10.dtd">
<!-- Created with Inkscape (http://www.inkscape.org/) -->
<svg
   id="svg1"
   sodipodi:version="0.32"
   inkscape:version="0.38.1"
   width="48pt"
   height="48pt"
   sodipodi:docbase="/root/Desktop"
   sodipodi:docname="gnome-mime-application-x-backup.svg"
   xmlns="http://www.w3.org/2000/svg"
   xmlns:inkscape="http://www.inkscape.org/namespaces/inkscape"
   xmlns:sodipodi="http://sodipodi.sourceforge.net/DTD/sodipodi-0.dtd"
   xmlns:xml="http://www.w3.org/XML/1998/namespace"
   xmlns:xlink="http://www.w3.org/1999/xlink">
  <defs
     id="defs3">
    <linearGradient
       id="linearGradient642">
      <stop
         style="stop-color:#d9cce6;stop-opacity:1;"
         offset="0.00000000"
         id="stop643" />
      <stop
         style="stop-color:#73667f;stop-opacity:1;"
         offset="1.00000000"
         id="stop644" />
    </linearGradient>
    <linearGradient
       id="linearGradient866">
      <stop
         style="stop-color:#ffffff;stop-opacity:1;"
         offset="0.00000000"
         id="stop867" />
      <stop
         style="stop-color:#d9cce6;stop-opacity:1;"
         offset="1.00000000"
         id="stop868" />
    </linearGradient>
    <linearGradient
       id="linearGradient584">
      <stop
         style="stop-color:#ffffff;stop-opacity:1;"
         offset="0.00000000"
         id="stop585" />
      <stop
         style="stop-color:#ffffff;stop-opacity:0;"
         offset="1.00000000"
         id="stop586" />
    </linearGradient>
    <linearGradient
       xlink:href="#linearGradient866"
       id="linearGradient586"
       x1="-0.00000000"
       y1="0.01562500"
       x2="0.99122804"
       y2="0.98437500" />
    <linearGradient
       xlink:href="#linearGradient584"
       id="linearGradient587"
       x1="0.00000000"
       y1="-0.00000000"
       x2="1.00000000"
       y2="1.00000000" />
    <linearGradient
       xlink:href="#linearGradient584"
       id="linearGradient638"
       x1="-0.00000000"
       y1="0.00000000"
       x2="1.00000000"
       y2="1.01562500" />
    <radialGradient
       xlink:href="#linearGradient866"
       id="radialGradient639" />
    <linearGradient
       xlink:href="#linearGradient584"
       id="linearGradient640"
       x1="-0.00000000"
       y1="0.00000000"
       x2="0.98275864"
       y2="1.00000000" />
    <linearGradient
       xlink:href="#linearGradient642"
       id="linearGradient641"
       x1="0.01515152"
       y1="0.02343750"
       x2="0.98484850"
       y2="0.98437500" />
    <linearGradient
       xlink:href="#linearGradient642"
       id="linearGradient645"
       x1="0.01428571"
       y1="0.01562500"
       x2="1.00000000"
       y2="1.00781250" />
  </defs>
  <sodipodi:namedview
     id="base"
     pagecolor="#ffffff"
     bordercolor="#666666"
     borderopacity="1.0"
     inkscape:pageopacity="0.0"
     inkscape:pageshadow="2"
     inkscape:zoom="5.6423388"
     inkscape:cx="26.602504"
     inkscape:cy="21.626442"
     inkscape:window-width="640"
     inkscape:window-height="516"
     inkscape:window-x="509"
     inkscape:window-y="140"
     showguides="true"
     snaptoguides="true" />
  <path
     d="M 4.4389304 48.086315 C 5.2483181 50.50443 38.765774 61.377487 40.966438 59.55288 C 42.936267 57.902492 57.675565 8.7785888 56.688667 6.8303779 C 55.662821 4.6824777 21.657054 -0.6675724 20.042945 0.80153134 C 18.054709 2.621752 3.5888672 45.311841 4.4389304 48.086315 z "
     style="font-size:12;opacity:0.302675;fill-rule:evenodd;stroke-width:12.5;"
     id="path639" />
  <path
     d="M 4.5541516 46.08493 C 5.3114351 48.34726 36.66955 58.519843 38.728432 56.812781 C 40.571358 55.268717 54.36111 9.3095333 53.437795 7.4867937 C 52.478034 5.477268 20.663028 0.47192513 19.152904 1.8463842 C 17.292759 3.5493405 3.7588508 43.489198 4.5541516 46.08493 z "
     style="font-size:12;fill:url(#linearGradient586);fill-rule:evenodd;stroke:#261933;stroke-width:1.87726;"
     id="path634" />
  <path
     d="M 6.6876568 43.965773 C 6.360392 43.13667 19.363758 4.5872629 20.579427 3.7922731 C 22.09876 2.7554118 46.659814 7.3454032 46.98631 8.172561 C 47.28557 8.9306762 27.823671 5.3906629 23.493845 9.2635774 C 15.189619 16.482895 6.9861475 44.721984 6.6876568 43.965773 z "
     style="font-size:12;opacity:0.699936;fill:url(#linearGradient587);fill-rule:evenodd;stroke:none;stroke-width:0.100121pt;"
     id="path640" />
  <rect
     style="fill:#000000;fill-opacity:0.30000001;fill-rule:evenodd;stroke:none;stroke-width:1.0000000pt;stroke-opacity:1.0000000;"
     id="rect937"
     x="28.448114"
     y="39.284522"
     rx="0.70483023"
     width="30.710464"
     height="12.888113" />
  <rect
     style="fill:#d9cce6;fill-opacity:0.80000001;fill-rule:evenodd;stroke:#261933;stroke-width:1.2500000;stroke-dasharray:none;"
     id="rect862"
     x="26.545103"
     y="37.695678"
     rx="0.69999999"
     width="30.500000"
     height="12.750523" />
  <text
     xml:space="preserve"
     style="fill:black;fill-opacity:1;stroke:none;font-family:helvetica;font-style:normal;font-weight:normal;font-size:12px;stroke-opacity:1;stroke-width:1pt;stroke-linejoin:miter;stroke-linecap:butt;"
     x="32.315414"
     y="43.967276"
     id="text863"><tspan
       id="tspan864"></tspan></text>
  <path
     style="font-size:12.000000;stroke-width:1.0000000pt;font-family:Radio Stars;"
     d="M 55.171495,46.777797 C 55.171495,47.033797 55.091495,47.233797 54.931495,47.377797 C 54.779495,47.513797 54.591495,47.581797 54.367495,47.581797 C 54.151495,47.581797 53.963495,47.513797 53.803495,47.377797 C 53.643495,47.233797 53.563495,47.033797 53.563495,46.777797 L 53.563495,45.001797 L 48.703495,45.001797 L 48.703495,46.777797 C 48.703495,47.033797 48.623495,47.233797 48.463495,47.377797 C 48.303495,47.513797 48.111495,47.581797 47.887495,47.581797 C 47.671495,47.581797 47.483495,47.513797 47.323495,47.377797 C 47.163495,47.233797 47.083495,47.033797 47.083495,46.777797 L 47.083495,41.593797 C 47.083495,41.337797 47.167495,41.133797 47.335495,40.981797 C 47.487495,40.853797 47.671495,40.789797 47.887495,40.789797 C 48.111495,40.789797 48.303495,40.861797 48.463495,41.005797 C 48.623495,41.141797 48.703495,41.337797 48.703495,41.593797 L 48.703495,43.009797 L 54.067495,40.849797 C 54.187495,40.801797 54.299495,40.777797 54.403495,40.777797 C 54.627495,40.777797 54.811495,40.861797 54.955495,41.029797 C 55.107495,41.197797 55.183495,41.393797 55.183495,41.617797 C 55.183495,41.961797 55.011495,42.201797 54.667495,42.337797 L 52.099495,43.369797 L 54.367495,43.369797 C 54.903495,43.369797 55.171495,43.641797 55.171495,44.185797 L 55.171495,46.777797 z M 43.087495,45.781797 L 39.907495,45.781797 L 38.947495,47.221797 C 38.779495,47.477797 38.555495,47.605797 38.275495,47.605797 C 38.059495,47.605797 37.863495,47.529797 37.687495,47.377797 C 37.519495,47.217797 37.435495,47.025797 37.435495,46.801797 C 37.435495,46.649797 37.483495,46.501797 37.579495,46.357797 L 40.423495,41.761797 C 40.791495,41.169797 41.147495,40.873797 41.491495,40.873797 C 41.731495,40.873797 41.947495,40.965797 42.139495,41.149797 C 42.259495,41.261797 42.411495,41.465797 42.595495,41.761797 L 45.427495,46.357797 C 45.515495,46.501797 45.559495,46.649797 45.559495,46.801797 C 45.559495,47.025797 45.475495,47.213797 45.307495,47.365797 C 45.139495,47.517797 44.943495,47.593797 44.719495,47.593797 C 44.447495,47.593797 44.227495,47.469797 44.059495,47.221797 L 43.087495,45.781797 z M 40.735495,44.353797 L 42.259495,44.353797 L 41.491495,43.129797 L 40.735495,44.353797 z M 36.559495,46.777797 C 36.559495,47.321797 36.291495,47.593797 35.755495,47.593797 L 28.471496,47.593797 L 28.471496,40.777797 L 35.755495,40.777797 C 36.291495,40.777797 36.559495,41.049797 36.559495,41.593797 L 36.559495,43.369797 C 36.551495,43.513797 36.519495,43.637797 36.463495,43.741797 C 36.327495,43.997797 36.091495,44.137797 35.755495,44.161797 C 36.259495,44.209797 36.527495,44.489797 36.559495,45.001797 L 36.559495,46.777797 z M 34.951495,43.369797 L 34.951495,42.409797 L 30.079496,42.409797 L 30.079496,43.369797 L 34.951495,43.369797 z M 34.951495,45.961797 L 34.951495,45.001797 L 30.079496,45.001797 L 30.079496,45.961797 L 34.951495,45.961797 z "
     id="path865" />
</svg>
