<?xml version="1.0" encoding="UTF-8" standalone="no"?>
<!DOCTYPE svg PUBLIC "-//W3C//DTD SVG 20010904//EN"
"http://www.w3.org/TR/2001/REC-SVG-20010904/DTD/svg10.dtd">
<!-- Created with Inkscape (http://www.inkscape.org/) -->
<svg
   id="svg1"
   sodipodi:version="0.32"
   inkscape:version="0.38.1"
   width="48pt"
   height="48pt"
   sodipodi:docbase="/home/ed/Desktop/Lila"
   sodipodi:docname="gnome-mime-application-x-lyx.svg"
   xmlns="http://www.w3.org/2000/svg"
   xmlns:inkscape="http://www.inkscape.org/namespaces/inkscape"
   xmlns:sodipodi="http://sodipodi.sourceforge.net/DTD/sodipodi-0.dtd"
   xmlns:xlink="http://www.w3.org/1999/xlink">
  <defs
     id="defs3">
    <linearGradient
       id="linearGradient642">
      <stop
         style="stop-color:#d9cce6;stop-opacity:1;"
         offset="0.00000000"
         id="stop643" />
      <stop
         style="stop-color:#73667f;stop-opacity:1;"
         offset="1.00000000"
         id="stop644" />
    </linearGradient>
    <linearGradient
       id="linearGradient866">
      <stop
         style="stop-color:#ffffff;stop-opacity:1;"
         offset="0.00000000"
         id="stop867" />
      <stop
         style="stop-color:#d9cce6;stop-opacity:1;"
         offset="1.00000000"
         id="stop868" />
    </linearGradient>
    <linearGradient
       id="linearGradient584">
      <stop
         style="stop-color:#ffffff;stop-opacity:1;"
         offset="0.00000000"
         id="stop585" />
      <stop
         style="stop-color:#ffffff;stop-opacity:0;"
         offset="1.00000000"
         id="stop586" />
    </linearGradient>
    <linearGradient
       xlink:href="#linearGradient866"
       id="linearGradient586"
       x1="-0.00000000"
       y1="0.01562500"
       x2="0.99122804"
       y2="0.98437500" />
    <linearGradient
       xlink:href="#linearGradient584"
       id="linearGradient587"
       x1="0.00000000"
       y1="-0.00000000"
       x2="1.00000000"
       y2="1.00000000" />
    <linearGradient
       xlink:href="#linearGradient642"
       id="linearGradient638" />
    <radialGradient
       xlink:href="#linearGradient642"
       id="radialGradient639"
       cx="0.50000000"
       cy="0.50000000"
       r="0.50000000"
       fx="0.50000000"
       fy="0.50000000" />
    <linearGradient
       xlink:href="#linearGradient584"
       id="linearGradient640"
       x1="-0.00000000"
       y1="0.00000000"
       x2="0.98275864"
       y2="1.00000000" />
    <linearGradient
       xlink:href="#linearGradient642"
       id="linearGradient641"
       x1="0.01515152"
       y1="0.02343750"
       x2="0.98484850"
       y2="0.98437500" />
    <linearGradient
       xlink:href="#linearGradient642"
       id="linearGradient645"
       x1="0.01428571"
       y1="0.01562500"
       x2="1.00000000"
       y2="1.00781250" />
    <defs
       id="defs860">
      <linearGradient
         id="linearGradient861">
        <stop
           style="stop-color:#d9cce6;stop-opacity:1;"
           offset="0.00000000"
           id="stop862" />
        <stop
           style="stop-color:#73667f;stop-opacity:1;"
           offset="1.00000000"
           id="stop863" />
      </linearGradient>
      <linearGradient
         id="linearGradient864">
        <stop
           style="stop-color:#ffffff;stop-opacity:1;"
           offset="0.00000000"
           id="stop865" />
        <stop
           style="stop-color:#d9cce6;stop-opacity:1;"
           offset="1.00000000"
           id="stop866" />
      </linearGradient>
      <linearGradient
         id="linearGradient867">
        <stop
           style="stop-color:#ffffff;stop-opacity:1;"
           offset="0.00000000"
           id="stop869" />
        <stop
           style="stop-color:#ffffff;stop-opacity:0;"
           offset="1.00000000"
           id="stop870" />
      </linearGradient>
      <linearGradient
         xlink:href="#linearGradient866"
         id="linearGradient871"
         x1="-0.00000000"
         y1="0.01562500"
         x2="0.99122804"
         y2="0.98437500" />
      <linearGradient
         xlink:href="#linearGradient584"
         id="linearGradient872"
         x1="0.00000000"
         y1="-0.00000000"
         x2="1.00000000"
         y2="1.00000000" />
      <linearGradient
         xlink:href="#linearGradient642"
         id="linearGradient873"
         x1="0.18478261"
         y1="0.18750000"
         x2="0.65217394"
         y2="0.83593750" />
      <radialGradient
         xlink:href="#linearGradient642"
         id="radialGradient874" />
      <linearGradient
         xlink:href="#linearGradient584"
         id="linearGradient875"
         x1="-0.00000000"
         y1="-0.00000000"
         x2="0.99382716"
         y2="1.00781250" />
      <linearGradient
         xlink:href="#linearGradient584"
         id="linearGradient876"
         x1="0.00000000"
         y1="0.00000000"
         x2="0.99583334"
         y2="1.02343750" />
      <linearGradient
         xlink:href="#linearGradient584"
         id="linearGradient877"
         x1="0.01492537"
         y1="0.00781250"
         x2="0.97761196"
         y2="0.97656250" />
      <linearGradient
         xlink:href="#linearGradient584"
         id="linearGradient822"
         x1="-0.00000000"
         y1="-0.00000000"
         x2="0.99270076"
         y2="1.00000000" />
      <linearGradient
         xlink:href="#linearGradient584"
         id="linearGradient823"
         x1="-0.00000000"
         y1="-0.00000000"
         x2="0.98540145"
         y2="1.00000000" />
      <linearGradient
         xlink:href="#linearGradient584"
         id="linearGradient824"
         x1="0.00000000"
         y1="-0.00000000"
         x2="0.98905110"
         y2="0.96551722" />
      <linearGradient
         xlink:href="#linearGradient584"
         id="linearGradient825"
         x1="0.00000000"
         y1="0.01587302"
         x2="0.99635035"
         y2="0.99206346" />
      <linearGradient
         xlink:href="#linearGradient642"
         id="linearGradient826"
         x1="-0.00423729"
         y1="0.00781250"
         x2="0.98728812"
         y2="0.97656250" />
      <linearGradient
         xlink:href="#linearGradient642"
         id="linearGradient827"
         x1="-0.00000000"
         y1="0.00000000"
         x2="0.96666664"
         y2="0.97656250" />
      <linearGradient
         xlink:href="#linearGradient642"
         id="linearGradient828"
         x1="-0.00000000"
         y1="-0.00000000"
         x2="0.99583334"
         y2="1.02343750" />
    </defs>
    <sodipodi:namedview
       id="namedview885"
       pagecolor="#ffffff"
       bordercolor="#666666"
       borderopacity="1.0"
       inkscape:pageopacity="0.0"
       inkscape:pageshadow="2"
       inkscape:zoom="5.6423387"
       inkscape:cx="30.512487"
       inkscape:cy="21.403232"
       inkscape:window-width="704"
       inkscape:window-height="586"
       inkscape:window-x="33"
       inkscape:window-y="252"
       showguides="true"
       snaptoguides="true" />
    <defs
       id="defs950">
      <linearGradient
         id="linearGradient951">
        <stop
           style="stop-color:#ffffff;stop-opacity:1;"
           offset="0.00000000"
           id="stop877" />
        <stop
           style="stop-color:#7f7f7f;stop-opacity:1;"
           offset="1.00000000"
           id="stop878" />
      </linearGradient>
      <linearGradient
         id="linearGradient954">
        <stop
           style="stop-color:#d9cce6;stop-opacity:1;"
           offset="0.00000000"
           id="stop955" />
        <stop
           style="stop-color:#73667f;stop-opacity:1;"
           offset="1.00000000"
           id="stop956" />
      </linearGradient>
      <linearGradient
         id="linearGradient957">
        <stop
           style="stop-color:#ffffff;stop-opacity:1;"
           offset="0.00000000"
           id="stop958" />
        <stop
           style="stop-color:#d9cce6;stop-opacity:1;"
           offset="1.00000000"
           id="stop959" />
      </linearGradient>
      <linearGradient
         id="linearGradient960">
        <stop
           style="stop-color:#ffffff;stop-opacity:1;"
           offset="0.00000000"
           id="stop961" />
        <stop
           style="stop-color:#ffffff;stop-opacity:0;"
           offset="1.00000000"
           id="stop962" />
      </linearGradient>
      <linearGradient
         xlink:href="#linearGradient866"
         id="linearGradient963"
         x1="-0.00000000"
         y1="0.01562500"
         x2="0.99122804"
         y2="0.98437500" />
      <linearGradient
         xlink:href="#linearGradient584"
         id="linearGradient964"
         x1="0.00000000"
         y1="-0.00000000"
         x2="1.00000000"
         y2="1.00000000" />
      <linearGradient
         xlink:href="#linearGradient642"
         id="linearGradient965"
         x1="0.41228071"
         y1="0.37500000"
         x2="0.58771932"
         y2="0.54687500" />
      <radialGradient
         xlink:href="#linearGradient866"
         id="radialGradient966" />
      <linearGradient
         xlink:href="#linearGradient584"
         id="linearGradient967"
         x1="-0.00000000"
         y1="-0.00000000"
         x2="0.99358976"
         y2="0.99218750" />
      <linearGradient
         xlink:href="#linearGradient876"
         id="linearGradient968"
         x1="0.01515152"
         y1="0.02343750"
         x2="0.98484850"
         y2="0.98437500" />
      <linearGradient
         xlink:href="#linearGradient584"
         id="linearGradient969"
         x1="0.00000000"
         y1="-0.00000000"
         x2="0.99494952"
         y2="1.01562500" />
      <linearGradient
         xlink:href="#linearGradient584"
         id="linearGradient970"
         x1="0.00000000"
         y1="-0.00000000"
         x2="0.99166667"
         y2="0.98437500" />
    </defs>
    <sodipodi:namedview
       id="namedview971"
       pagecolor="#ffffff"
       bordercolor="#666666"
       borderopacity="1.0"
       inkscape:pageopacity="0.0"
       inkscape:pageshadow="2"
       inkscape:zoom="5.6423387"
       inkscape:cx="31.809024"
       inkscape:cy="22.530908"
       inkscape:window-width="639"
       inkscape:window-height="515"
       inkscape:window-x="169"
       inkscape:window-y="102" />
  </defs>
  <sodipodi:namedview
     id="base"
     pagecolor="#ffffff"
     bordercolor="#666666"
     borderopacity="1.0"
     inkscape:pageopacity="0.0"
     inkscape:pageshadow="2"
     inkscape:zoom="1.0000000"
     inkscape:cx="47.495575"
     inkscape:cy="96.292938"
     inkscape:window-width="1084"
     inkscape:window-height="678"
     inkscape:window-x="360"
     inkscape:window-y="66"
     showguides="true"
     snaptoguides="true"
     showgrid="false" />
  <path
     d="M 4.4389304 48.086315 C 5.2483181 50.50443 38.765774 61.377487 40.966438 59.55288 C 42.936267 57.902492 57.675565 8.7785888 56.688667 6.8303779 C 55.662821 4.6824777 21.657054 -0.6675724 20.042945 0.80153134 C 18.054709 2.621752 3.5888672 45.311841 4.4389304 48.086315 z "
     style="font-size:12;opacity:0.302675;fill-rule:evenodd;stroke-width:12.5;"
     id="path639" />
  <path
     d="M 4.5541516 46.08493 C 5.3114351 48.34726 36.66955 58.519843 38.728432 56.812781 C 40.571358 55.268717 54.36111 9.3095333 53.437795 7.4867937 C 52.478034 5.477268 20.663028 0.47192513 19.152904 1.8463842 C 17.292759 3.5493405 3.7588508 43.489198 4.5541516 46.08493 z "
     style="font-size:12;fill:url(#linearGradient586);fill-rule:evenodd;stroke:#261933;stroke-width:1.87726;"
     id="path634" />
  <path
     d="M 6.6876568 43.965773 C 6.360392 43.13667 19.363758 4.5872629 20.579427 3.7922731 C 22.09876 2.7554118 46.659814 7.3454032 46.98631 8.172561 C 47.28557 8.9306762 27.823671 5.3906629 23.493845 9.2635774 C 15.189619 16.482895 6.9861475 44.721984 6.6876568 43.965773 z "
     style="font-size:12;opacity:0.699936;fill:url(#linearGradient587);fill-rule:evenodd;stroke:none;stroke-width:0.100121pt;"
     id="path640" />
  <path
     style="font-size:12;fill:#261933;fill-rule:evenodd;stroke-width:1pt;"
     d="M 16.345293 19.250153 C 25.43623 20.92324 36.236006 23.137823 44.872119 25.262816 C 45.472601 25.417991 45.201996 26.358638 44.56955 26.257982 C 35.403599 24.692167 24.792806 22.125359 16.011431 20.092668 C 15.444283 19.954505 15.74909 19.147455 16.345293 19.250153 z "
     id="path627" />
  <path
     d="M 14.931448 22.30803 C 24.022385 23.981019 34.822161 26.195602 43.458274 28.320595 C 44.058747 28.475761 43.788151 29.416417 43.155705 29.315752 C 33.989754 27.749946 23.378962 25.183236 14.597586 23.150447 C 14.030436 23.012284 14.335241 22.205234 14.931448 22.30803 z "
     style="font-size:12;fill:#261933;fill-rule:evenodd;stroke-width:1pt;fill-opacity:1;"
     id="path1233" />
  <path
     d="M 14.065026 26.323567 C 15.049304 25.916151 25.108591 28.358872 25.97666 29.09364 C 26.721814 29.843262 23.7031 40.011371 22.791113 40.728446 C 21.963944 41.495277 11.18807 38.194489 10.463804 37.404146 C 9.8443783 36.836899 13.079677 26.870023 14.065026 26.323567 z "
     style="font-size:12;fill-rule:evenodd;stroke:#261933;stroke-width:1.25;fill:url(#linearGradient645);stroke-dasharray:none;stroke-opacity:1;"
     id="path1236" />
  <path
     d="M 9.2186364 41.618479 C 18.177333 43.895728 28.804842 46.827485 37.279557 49.525267 C 37.868283 49.720187 37.535397 50.640724 36.911107 50.497986 C 27.8704 48.322664 17.455011 45.052193 8.8292194 42.436802 C 8.2726002 42.260935 8.6306044 41.476135 9.2186364 41.618479 z "
     style="font-size:12;fill:#261933;fill-rule:evenodd;stroke-width:1pt;fill-opacity:1;"
     id="path1237" />
  <path
     d="M 28.089161 32.058379 C 32.64143 32.732119 37.927491 33.827072 42.190505 35.036283 C 42.485401 35.120044 42.075944 35.983645 41.762881 35.937203 C 37.227911 35.266077 31.926494 34.097865 27.646191 32.883695 C 27.368585 32.804992 27.793299 32.01456 28.089161 32.058379 z "
     style="font-size:12;fill:#261933;fill-rule:evenodd;stroke-width:1pt;fill-opacity:1;"
     id="path1238" />
  <path
     d="M 27.111162 35.180331 C 31.66343 35.854081 36.949491 36.949025 41.212496 38.158244 C 41.507392 38.241996 41.097944 39.105598 40.784882 39.059156 C 36.249902 38.388039 30.948486 37.219827 26.668182 36.005656 C 26.390585 35.926954 26.81529 35.136513 27.111162 35.180331 z "
     style="font-size:12;fill:#261933;fill-rule:evenodd;stroke-width:1pt;fill-opacity:1;"
     id="path1239" />
  <path
     d="M 12.360267 36.371482 C 12.167784 35.959115 13.931716 28.480721 15.058732 27.82641 C 16.27669 27.182208 23.86507 29.671478 24.053481 30.075097 C 24.21487 30.421002 18.135842 28.98326 16.108112 30.075097 C 14.238077 31.082019 12.517578 36.708639 12.360267 36.371482 z "
     style="font-size:12;opacity:0.699936;fill-rule:evenodd;stroke:none;stroke-width:0.0971644pt;fill:url(#linearGradient640);"
     id="path1240" />
  <g
     id="g608"
     transform="matrix(1.262813,0.000000,0.000000,1.262813,-13.89563,-4.779186)">
    <path
       style="font-size:64;font-weight:normal;fill:#261933;stroke-width:1pt;font-family:Times New Roman;"
       d="M 32.081938 9.4156701 L 32.165179 11.068038 L 31.954303 11.068038 C 31.913608 10.777055 31.858115 10.56921 31.787823 10.444503 C 31.673137 10.243586 31.519605 10.096363 31.327228 10.002832 C 31.13855 9.9058381 30.888829 9.8573411 30.578066 9.8573411 L 29.518142 9.8573411 L 29.518142 15.240526 C 29.518142 15.673537 29.568086 15.943735 29.667974 16.051122 C 29.808557 16.196613 30.024981 16.269359 30.317247 16.269359 L 30.578066 16.269359 L 30.578066 16.461616 L 27.387194 16.461616 L 27.387194 16.269359 L 27.653562 16.269359 C 27.971724 16.269359 28.197398 16.179293 28.330582 15.999161 C 28.411972 15.88831 28.452668 15.635432 28.452668 15.240526 L 28.452668 9.8573411 L 27.548125 9.8573411 C 27.196666 9.8573411 26.946946 9.8815891 26.798963 9.9300871 C 26.606586 9.9959041 26.441955 10.122343 26.305072 10.309404 C 26.168188 10.496464 26.086797 10.749342 26.0609 11.068038 L 25.850025 11.068038 L 25.938815 9.4156701 L 32.081938 9.4156701 z "
       id="path646"
       transform="matrix(1.072733,0.208868,-0.385487,1.027755,4.634625,-6.550565)" />
    <path
       style="font-size:64;font-weight:normal;fill:#261933;stroke-width:1pt;font-family:Times New Roman;"
       d="M 33.096825 11.984062 L 33.096825 14.813121 L 34.573051 14.813121 C 34.956144 14.813121 35.212089 14.751543 35.340887 14.628387 C 35.512618 14.466526 35.608391 14.181509 35.628207 13.773336 L 35.811497 13.773336 L 35.811497 16.264596 L 35.628207 16.264596 C 35.581971 15.916242 35.535737 15.692803 35.489501 15.594279 C 35.430055 15.471123 35.332632 15.374358 35.197228 15.303983 C 35.061824 15.233609 34.853765 15.198421 34.573051 15.198421 L 33.096825 15.198421 L 33.096825 17.557729 C 33.096825 17.874415 33.110035 18.067945 33.136455 18.13832 C 33.162875 18.205176 33.20911 18.259716 33.275161 18.301941 C 33.341211 18.340647 33.466707 18.36 33.651648 18.36 L 34.791018 18.36 C 35.170807 18.36 35.446568 18.33185 35.618299 18.27555 C 35.79003 18.219251 35.955156 18.108411 36.113677 17.94303 C 36.318434 17.724869 36.528143 17.395868 36.742807 16.956027 L 36.940959 16.956027 L 36.361366 18.750579 L 31.184665 18.750579 L 31.184665 18.555289 L 31.422446 18.555289 C 31.580967 18.555289 31.731232 18.514824 31.873241 18.433893 C 31.978921 18.377593 32.049925 18.293144 32.086253 18.180544 C 32.125883 18.067945 32.145699 17.837468 32.145699 17.489114 L 32.145699 12.839114 C 32.145699 12.385198 32.102766 12.105459 32.0169 11.999897 C 31.898009 11.859148 31.699858 11.788773 31.422446 11.788773 L 31.184665 11.788773 L 31.184665 11.593483 L 36.361366 11.593483 L 36.435673 13.161077 L 36.242475 13.161077 C 36.173123 12.784573 36.095514 12.525947 36.009648 12.385198 C 35.927085 12.244448 35.803241 12.137127 35.638114 12.063234 C 35.506014 12.010453 35.273186 11.984062 34.939631 11.984062 L 33.096825 11.984062 z "
       id="path645"
       transform="matrix(1.072733,0.208868,-0.385487,1.027755,4.634625,-6.550565)" />
    <path
       style="font-size:64;font-weight:normal;fill:#261933;stroke-width:1pt;font-family:Times New Roman;"
       d="M 40.063235 12.563264 L 41.406263 14.818383 C 41.778557 15.441918 42.053932 15.836823 42.232388 16.003099 C 42.413919 16.165911 42.643142 16.255977 42.920055 16.273298 L 42.920055 16.465554 L 40.233998 16.465554 L 40.233998 16.273298 C 40.412453 16.269833 40.544755 16.249049 40.630907 16.210944 C 40.69552 16.179767 40.747825 16.133002 40.787824 16.070649 C 40.830899 16.004831 40.852437 15.939013 40.852437 15.873196 C 40.852437 15.793522 40.838592 15.713848 40.8109 15.634174 C 40.789362 15.575285 40.70475 15.422865 40.557063 15.176915 L 39.495563 13.368664 L 38.184841 15.260053 C 38.046384 15.46097 37.96331 15.596069 37.935619 15.665351 C 37.907928 15.731168 37.894082 15.80045 37.894082 15.873196 C 37.894082 15.984046 37.935619 16.075845 38.018693 16.148591 C 38.101767 16.221336 38.260222 16.262905 38.49406 16.273298 L 38.49406 16.465554 L 36.27414 16.465554 L 36.27414 16.273298 C 36.431058 16.255977 36.566437 16.219604 36.680279 16.164179 C 36.871041 16.074113 37.052573 15.95287 37.224875 15.80045 C 37.397176 15.64803 37.594093 15.414205 37.815623 15.098973 L 39.292493 12.999739 L 38.06023 10.968054 C 37.724856 10.417265 37.440252 10.057 37.206414 9.8872601 C 36.972576 9.7140561 36.703356 9.6222571 36.398751 9.6118651 L 36.398751 9.4196091 L 39.292493 9.4196091 L 39.292493 9.6118651 C 39.046348 9.6222571 38.877124 9.6672911 38.784819 9.7469641 C 38.695591 9.8266381 38.650978 9.9149731 38.650978 10.011967 C 38.650978 10.140138 38.724821 10.327198 38.872508 10.573148 L 39.832474 12.189143 L 40.944742 10.604325 C 41.073968 10.417265 41.152426 10.289094 41.180118 10.219812 C 41.210885 10.15053 41.22627 10.079516 41.22627 10.006771 C 41.22627 9.9340251 41.207809 9.8699391 41.170887 9.8145141 C 41.124735 9.7417681 41.066275 9.6915391 40.995509 9.6638261 C 40.924742 9.6326501 40.778594 9.6153291 40.557063 9.6118651 L 40.557063 9.4196091 L 42.776983 9.4196091 L 42.776983 9.6118651 C 42.601605 9.6222571 42.458533 9.6534341 42.347768 9.7053951 C 42.18162 9.7850691 42.029318 9.8924561 41.890861 10.027555 C 41.752405 10.162654 41.557027 10.412068 41.304729 10.775797 L 40.063235 12.563264 z "
       id="path644"
       transform="matrix(1.072733,0.208868,-0.385487,1.027755,4.634625,-6.550565)" />
  </g>
  <path
     d="M 25.87374 38.397631 C 30.426008 39.071381 35.712069 40.166325 39.975074 41.375544 C 40.26997 41.459296 39.860522 42.322898 39.54746 42.276456 C 35.01248 41.605339 29.711064 40.437127 25.43076 39.222956 C 25.153163 39.144254 25.577868 38.353813 25.87374 38.397631 z "
     style="font-size:12;fill:#261933;fill-rule:evenodd;stroke-width:1pt;fill-opacity:1;"
     id="path618" />
  <rect
     style="fill-opacity:0.29999998;fill-rule:evenodd;stroke-width:1.0000000pt;"
     id="rect937"
     x="28.688887"
     y="39.186000"
     rx="0.70483023"
     width="30.710464"
     height="12.888113" />
  <rect
     style="fill:#d9cce6;fill-opacity:0.80000001;fill-rule:evenodd;stroke:#261933;stroke-width:1.2500000;"
     id="rect862"
     x="26.785879"
     y="37.597160"
     rx="0.69999999"
     width="30.500000"
     height="12.750523" />
  <path
     d="M 6.6876568 43.965773 C 6.360392 43.13667 19.363758 4.5872629 20.579427 3.7922731 C 22.09876 2.7554118 46.659814 7.3454032 46.98631 8.172561 C 47.28557 8.9306762 27.823671 5.3906629 23.493845 9.2635774 C 15.189619 16.482895 6.9861475 44.721984 6.6876568 43.965773 z "
     style="font-size:12.000000;opacity:0.69993597;fill:url(#linearGradient587);fill-rule:evenodd;stroke-width:0.10012100pt;"
     id="path974"
     transform="translate(54.81784,0.618711)" />
  <g
     id="g914"
     transform="matrix(1.025911,0.000000,0.000000,1.025911,-1.422738,-1.232340)">
    <path
       style="font-size:12.000000;fill:#261933;stroke-width:3.0000000pt;font-family:Radio Stars;fill-opacity:1.0000000;"
       d="M 36.608198,47.548085 L 30.128198,47.548085 C 29.592198,47.548085 29.324198,47.276085 29.324198,46.732085 L 29.324198,41.548085 C 29.324198,41.292085 29.404198,41.096085 29.564198,40.960085 C 29.724198,40.816085 29.912198,40.744085 30.128198,40.744085 C 30.344198,40.744085 30.532198,40.816085 30.692198,40.960085 C 30.852198,41.096085 30.932198,41.292085 30.932198,41.548085 L 30.932198,45.916085 L 36.608198,45.916085 C 36.848198,45.916085 37.032198,45.996085 37.160198,46.156085 C 37.296198,46.316085 37.364198,46.508085 37.364198,46.732085 C 37.364198,46.956085 37.296198,47.148085 37.160198,47.308085 C 37.032198,47.468085 36.848198,47.548085 36.608198,47.548085 z "
       id="path913" />
    <path
       style="font-size:12.000000;fill:#261933;stroke-width:3.0000000pt;font-family:Radio Stars;fill-opacity:1.0000000;"
       d="M 44.844830,42.184085 L 41.904830,44.524085 L 41.904830,46.732085 C 41.904830,46.980085 41.824830,47.176085 41.664830,47.320085 C 41.512830,47.464085 41.324830,47.536085 41.100830,47.536085 C 40.884830,47.536085 40.696830,47.464085 40.536830,47.320085 C 40.376830,47.176085 40.296830,46.980085 40.296830,46.732085 L 40.296830,44.524085 L 37.356830,42.184085 C 37.148830,42.008085 37.044830,41.800085 37.044830,41.560085 C 37.044830,41.336085 37.124830,41.140085 37.284830,40.972085 C 37.452830,40.796085 37.644830,40.708085 37.860830,40.708085 C 38.036830,40.708085 38.204830,40.772085 38.364830,40.900085 C 39.276830,41.628085 40.184830,42.360085 41.088830,43.096085 L 43.836830,40.900085 C 43.996830,40.772085 44.164830,40.708085 44.340830,40.708085 C 44.556830,40.708085 44.744830,40.796085 44.904830,40.972085 C 45.072830,41.148085 45.156830,41.344085 45.156830,41.560085 C 45.156830,41.808085 45.052830,42.016085 44.844830,42.184085 z "
       id="path912" />
    <path
       style="font-size:12.000000;fill:#261933;stroke-width:3.0000000pt;font-family:Radio Stars;fill-opacity:1.0000000;"
       d="M 54.584198,46.084085 C 54.800198,46.252085 54.908198,46.460085 54.908198,46.708085 C 54.908198,46.932085 54.824198,47.132085 54.656198,47.308085 C 54.496198,47.476085 54.304198,47.560085 54.080198,47.560085 C 53.904198,47.560085 53.736198,47.500085 53.576198,47.380085 L 50.840198,45.184085 C 50.344198,45.576085 49.432198,46.308085 48.104198,47.380085 C 47.952198,47.500085 47.784198,47.560085 47.600198,47.560085 C 47.384198,47.560085 47.192198,47.476085 47.024198,47.308085 C 46.864198,47.132085 46.784198,46.932085 46.784198,46.708085 C 46.784198,46.468085 46.888198,46.260085 47.096198,46.084085 L 49.544198,44.140085 L 47.096198,42.184085 C 46.888198,42.016085 46.784198,41.808085 46.784198,41.560085 C 46.784198,41.344085 46.864198,41.148085 47.024198,40.972085 C 47.192198,40.796085 47.384198,40.708085 47.600198,40.708085 C 47.784198,40.708085 47.952198,40.772085 48.104198,40.900085 C 49.016198,41.636085 49.928198,42.372085 50.840198,43.108085 L 53.576198,40.900085 C 53.736198,40.780085 53.904198,40.720085 54.080198,40.720085 C 54.304198,40.720085 54.496198,40.808085 54.656198,40.984085 C 54.824198,41.152085 54.908198,41.348085 54.908198,41.572085 C 54.908198,41.812085 54.800198,42.016085 54.584198,42.184085 L 52.136198,44.140085 C 52.576198,44.492085 53.392198,45.140085 54.584198,46.084085 z "
       id="path911" />
  </g>
</svg>
