<?xml version="1.0" encoding="UTF-8" standalone="no"?>
<!DOCTYPE svg PUBLIC "-//W3C//DTD SVG 20010904//EN"
"http://www.w3.org/TR/2001/REC-SVG-20010904/DTD/svg10.dtd">
<!-- Created with Inkscape (http://www.inkscape.org/) -->
<svg
   id="svg1"
   sodipodi:version="0.32"
   inkscape:version="0.38.1"
   width="48pt"
   height="48pt"
   sodipodi:docbase="/root/Desktop/mimes"
   sodipodi:docname="gnome-mime-application-x-cd-image.svg"
   xmlns="http://www.w3.org/2000/svg"
   xmlns:inkscape="http://www.inkscape.org/namespaces/inkscape"
   xmlns:sodipodi="http://sodipodi.sourceforge.net/DTD/sodipodi-0.dtd"
   xmlns:xlink="http://www.w3.org/1999/xlink">
  <defs
     id="defs3">
    <linearGradient
       id="linearGradient1006">
      <stop
         offset="0.0000000"
         style="stop-color:#7f7f7f;stop-opacity:1.0000000;"
         id="stop1008" />
      <stop
         offset="1.0000000"
         style="stop-color:#e6e6e6;stop-opacity:1.0000000;"
         id="stop1007" />
    </linearGradient>
    <linearGradient
       id="linearGradient1003">
      <stop
         offset="0.0000000"
         style="stop-color:#ffffff;stop-opacity:1.0000000;"
         id="stop1005" />
      <stop
         offset="1.0000000"
         style="stop-color:#ffffff;stop-opacity:0.0000000;"
         id="stop1004" />
    </linearGradient>
    <linearGradient
       id="linearGradient1000">
      <stop
         offset="0.0000000"
         style="stop-color:#d7a600;stop-opacity:1.0000000;"
         id="stop1002" />
      <stop
         offset="1.0000000"
         style="stop-color:#fff300;stop-opacity:1.0000000;"
         id="stop1001" />
    </linearGradient>
    <linearGradient
       id="linearGradient879">
      <stop
         offset="0.0000000"
         style="stop-color:#ffffff;stop-opacity:1.0000000;"
         id="stop881" />
      <stop
         offset="1.0000000"
         style="stop-color:#d9cce6;stop-opacity:1.0000000;"
         id="stop880" />
    </linearGradient>
    <linearGradient
       id="linearGradient866">
      <stop
         style="stop-color:#ffffff;stop-opacity:1;"
         offset="0.00000000"
         id="stop867" />
      <stop
         style="stop-color:#d9cce6;stop-opacity:1;"
         offset="1.00000000"
         id="stop868" />
    </linearGradient>
    <linearGradient
       id="linearGradient584">
      <stop
         style="stop-color:#ffffff;stop-opacity:1;"
         offset="0.00000000"
         id="stop585" />
      <stop
         style="stop-color:#ffffff;stop-opacity:0;"
         offset="1.00000000"
         id="stop586" />
    </linearGradient>
    <linearGradient
       xlink:href="#linearGradient866"
       id="linearGradient586"
       x1="-0.00000000"
       y1="0.01562500"
       x2="0.99122804"
       y2="0.98437500" />
    <linearGradient
       xlink:href="#linearGradient584"
       id="linearGradient587"
       x1="0.00000000"
       y1="-0.00000000"
       x2="1.00000000"
       y2="1.00000000" />
    <defs
       id="defs840">
      <linearGradient
         id="linearGradient841">
        <stop
           style="stop-color:#ffffff;stop-opacity:1;"
           offset="0.00000000"
           id="stop842" />
        <stop
           style="stop-color:#ffffff;stop-opacity:0;"
           offset="1.00000000"
           id="stop843" />
      </linearGradient>
      <linearGradient
         id="linearGradient578"
         x1="0.0000000"
         y1="0.50000000"
         x2="1.0000000"
         y2="0.50000000"
         gradientUnits="objectBoundingBox"
         spreadMethod="pad"
         xlink:href="#linearGradient879" />
      <linearGradient
         xlink:href="#linearGradient584"
         id="linearGradient581"
         x1="0.01351351"
         y1="0.04687500"
         x2="0.99324322"
         y2="0.96875000" />
      <linearGradient
         xlink:href="#linearGradient584"
         id="linearGradient583" />
      <linearGradient
         xlink:href="#linearGradient584"
         id="linearGradient654" />
      <linearGradient
         xlink:href="#linearGradient578"
         id="linearGradient655"
         x1="0.00000000"
         y1="-0.00000000"
         x2="0.96923077"
         y2="0.99218750" />
      <linearGradient
         xlink:href="#linearGradient584"
         id="linearGradient713" />
    </defs>
    <sodipodi:namedview
       id="namedview852"
       pagecolor="#ffffff"
       bordercolor="#666666"
       borderopacity="1.0"
       inkscape:pageopacity="0.0"
       inkscape:pageshadow="2"
       inkscape:zoom="5.64233871"
       inkscape:cx="23.0963011"
       inkscape:cy="23.9821367"
       inkscape:window-width="640"
       inkscape:window-height="516"
       inkscape:window-x="96"
       inkscape:window-y="127" />
    <defs
       id="defs883">
      <linearGradient
         id="linearGradient884">
        <stop
           style="stop-color:#ffffff;stop-opacity:1;"
           offset="0.00000000"
           id="stop885" />
        <stop
           style="stop-color:#ffffff;stop-opacity:0;"
           offset="1.00000000"
           id="stop886" />
      </linearGradient>
      <linearGradient
         id="linearGradient887">
        <stop
           style="stop-color:#ffffff;stop-opacity:1;"
           offset="0.00000000"
           id="stop579" />
        <stop
           style="stop-color:#d9cce6;stop-opacity:1;"
           offset="1.00000000"
           id="stop580" />
      </linearGradient>
      <linearGradient
         xlink:href="#linearGradient584"
         id="linearGradient890"
         x1="0.01351351"
         y1="0.04687500"
         x2="0.99324322"
         y2="0.96875000" />
      <linearGradient
         xlink:href="#linearGradient584"
         id="linearGradient891" />
      <linearGradient
         xlink:href="#linearGradient584"
         id="linearGradient892" />
      <linearGradient
         xlink:href="#linearGradient578"
         id="linearGradient893"
         x1="0.00000000"
         y1="-0.00000000"
         x2="0.96923077"
         y2="0.99218750" />
      <linearGradient
         xlink:href="#linearGradient584"
         id="linearGradient894" />
    </defs>
    <sodipodi:namedview
       id="namedview895"
       pagecolor="#ffffff"
       bordercolor="#666666"
       borderopacity="1.0"
       inkscape:pageopacity="0.0"
       inkscape:pageshadow="2"
       inkscape:zoom="5.64233871"
       inkscape:cx="33.8331301"
       inkscape:cy="26.9972298"
       inkscape:window-width="640"
       inkscape:window-height="516"
       inkscape:window-x="359"
       inkscape:window-y="101" />
    <sodipodi:namedview
       id="namedview763"
       pagecolor="#ffffff"
       bordercolor="#666666"
       borderopacity="1.0"
       inkscape:pageopacity="0.0"
       inkscape:pageshadow="2"
       inkscape:zoom="6.94653375"
       inkscape:cx="25.5516764"
       inkscape:cy="23.2641839"
       inkscape:window-width="640"
       inkscape:window-height="500"
       inkscape:window-x="163"
       inkscape:window-y="150" />
    <defs
       id="defs1420">
      <linearGradient
         id="linearGradient1439"
         x1="0.0000000"
         y1="0.50000000"
         x2="1.0000000"
         y2="0.50000000"
         gradientUnits="objectBoundingBox"
         spreadMethod="pad"
         xlink:href="#linearGradient1003" />
      <linearGradient
         id="linearGradient1432"
         x1="0.0000000"
         y1="0.50000000"
         x2="1.0000000"
         y2="0.50000000"
         gradientUnits="objectBoundingBox"
         spreadMethod="pad"
         xlink:href="#linearGradient1006" />
      <linearGradient
         id="linearGradient1428">
        <stop
           style="stop-color:#f50000;stop-opacity:1;"
           offset="0.00000000"
           id="stop1429" />
        <stop
           style="stop-color:#a90000;stop-opacity:1;"
           offset="1.00000000"
           id="stop1430" />
      </linearGradient>
      <linearGradient
         id="linearGradient1422"
         x1="0.0000000"
         y1="0.50000000"
         x2="1.0000000"
         y2="0.50000000"
         gradientUnits="objectBoundingBox"
         spreadMethod="pad"
         xlink:href="#linearGradient1000" />
      <linearGradient
         x1="0.64516127"
         y1="0.66406250"
         x2="0.32258064"
         y2="0.32031250"
         id="linearGradient1425"
         xlink:href="#linearGradient1422" />
      <linearGradient
         x1="0.01923077"
         y1="0.00781250"
         x2="0.98076922"
         y2="0.98437500"
         id="linearGradient1427"
         xlink:href="#linearGradient1428" />
      <linearGradient
         x1="0.98101264"
         y1="0.92187500"
         x2="0.01898734"
         y2="0.02343750"
         id="linearGradient1435"
         xlink:href="#linearGradient1432" />
      <linearGradient
         x1="0.015748"
         y1="0.023437"
         x2="0.984252"
         y2="0.984375"
         id="linearGradient1438"
         xlink:href="#linearGradient1439" />
      <linearGradient
         id="linearGradient1443"
         xlink:href="#linearGradient1439" />
    </defs>
  </defs>
  <sodipodi:namedview
     id="base"
     pagecolor="#ffffff"
     bordercolor="#666666"
     borderopacity="1.0"
     inkscape:pageopacity="0.0"
     inkscape:pageshadow="2"
     inkscape:zoom="5.6423387"
     inkscape:cx="29.757189"
     inkscape:cy="23.851863"
     inkscape:window-width="640"
     inkscape:window-height="525"
     inkscape:window-x="108"
     inkscape:window-y="345"
     showguides="true"
     snaptoguides="true" />
  <path
     d="M 6.6543238,48.086315 C 7.4637115,50.504430 40.981167,61.377487 43.181831,59.552880 C 45.151660,57.902492 59.890958,8.7785888 58.904060,6.8303779 C 57.878214,4.6824777 23.872447,-0.66757240 22.258338,0.80153134 C 20.270102,2.6217520 5.8042606,45.311841 6.6543238,48.086315 z "
     style="font-size:12;opacity:0.302675;fill-rule:evenodd;stroke-width:12.5;"
     id="path639" />
  <path
     d="M 6.7695450,46.084930 C 7.5268285,48.347260 38.884943,58.519843 40.943825,56.812781 C 42.786751,55.268717 56.576503,9.3095333 55.653188,7.4867937 C 54.693427,5.4772680 22.878421,0.47192513 21.368297,1.8463842 C 19.508152,3.5493405 5.9742442,43.489198 6.7695450,46.084930 z "
     style="font-size:12;fill:url(#linearGradient586);fill-rule:evenodd;stroke:#261933;stroke-width:1.87726;"
     id="path634" />
  <path
     d="M 8.9030502,43.965773 C 8.5757854,43.136670 21.579151,4.5872629 22.794820,3.7922731 C 24.314153,2.7554118 48.875207,7.3454032 49.201703,8.1725610 C 49.500963,8.9306762 30.039064,5.3906629 25.709238,9.2635774 C 17.405012,16.482895 9.2015409,44.721984 8.9030502,43.965773 z "
     style="font-size:12;opacity:0.699936;fill:url(#linearGradient587);fill-rule:evenodd;stroke:none;stroke-width:0.100121pt;"
     id="path640" />
  <path
     d="M 36.118897 32.546487 C 36.118897 34.871102 34.232321 36.757678 31.907706 36.757678 C 29.583089 36.757678 27.696413 34.871102 27.696413 32.546487 C 27.696413 30.22187 29.583089 28.335194 31.907706 28.335194 C 34.232321 28.335194 36.118897 30.22187 36.118897 32.546487 z M 58.669514 32.138888 C 58.669514 47.061377 46.55843 59.172358 31.635941 59.172358 C 16.713451 59.172358 4.6024598 47.061377 4.6024598 32.138888 C 4.6024598 17.2164 16.713451 5.1053163 31.635941 5.1053163 C 46.55843 5.1053163 58.669514 17.2164 58.669514 32.138888 z "
     style="font-size:12.000000;opacity:0.30267498;fill-rule:evenodd;stroke-width:12.500000;"
     id="path782"
     transform="matrix(0.704045,0.000000,0.000000,0.704045,3.518229,6.435413)" />
  <path
     d="M 34.142707 30.090541 C 34.142707 32.366857 32.295328 34.214238 30.019011 34.214238 C 27.742693 34.214238 25.895215 32.366857 25.895215 30.090541 C 25.895215 27.814224 27.742693 25.966746 30.019011 25.966746 C 32.295328 25.966746 34.142707 27.814224 34.142707 30.090541 z M 56.224788 29.691414 C 56.224788 44.303857 44.365336 56.163209 29.752893 56.163209 C 15.140448 56.163209 3.2810857 44.303857 3.2810857 29.691414 C 3.2810857 15.078969 15.140448 3.2195676 29.752893 3.2195676 C 44.365336 3.2195676 56.224788 15.078969 56.224788 29.691414 z "
     style="font-size:12.000000;fill:url(#linearGradient655);fill-rule:evenodd;stroke:#261933;stroke-width:2.6631820;stroke-dasharray:none;"
     id="path773"
     transform="matrix(0.704045,0.000000,0.000000,0.704045,3.518229,6.435413)" />
  <path
     d="M 9.0011055 43.392896 C 4.1204139 37.981788 1.0217144 15.522169 19.11093 7.210253 C 33.787948 0.52499748 48.148535 11.238426 49.174482 14.260508 C 49.477048 15.112445 36.930363 4.5046413 21.90453 12.265166 C -0.14499078 23.553358 9.6014807 44.077157 9.0011055 43.392896 z "
     style="font-size:12.000000;opacity:0.69999999;fill:url(#linearGradient581);fill-rule:evenodd;stroke-width:0.077858597pt;"
     id="path774"
     transform="matrix(0.704045,0.000000,0.000000,0.704045,3.518229,6.435413)" />
  <path
     d="M 39.82112 30.278517 C 39.82112 35.464806 34.97533 39.8566 29.980089 40.025561 C 24.417649 40.025561 19.766075 35.370817 19.950882 30.184529 C 20.142324 24.810364 24.417649 20.061235 29.980089 20.061235 C 35.166277 20.061235 40.01593 24.90772 39.82112 30.278517 z M 37.202325 30.223452 C 37.202325 34.262073 33.924622 37.539775 29.886001 37.539775 C 25.847379 37.539775 22.569677 34.262073 22.569677 30.223452 C 22.569677 26.184831 25.847379 22.907127 29.886001 22.907127 C 33.924622 22.907127 37.202325 26.184831 37.202325 30.223452 z "
     style="font-size:12.000000;opacity:0.10089196;fill:#3f003f;fill-rule:evenodd;stroke-width:1.0000000pt;"
     id="path779"
     transform="matrix(0.704045,0.000000,0.000000,0.704045,3.518229,6.435413)" />
  <path
     d="M 26.182558,23.446339 C 26.179270,23.682525 27.604698,24.611633 27.807507,24.487925 C 30.975880,21.903904 37.186938,18.032929 37.265295,15.405106 C 37.319455,13.548191 27.980225,9.7620366 27.682496,10.238707 C 26.399575,12.472228 26.253719,19.238858 26.182558,23.446339 z "
     style="font-size:12.000000;fill:url(#linearGradient583);fill-rule:evenodd;stroke-width:1.0000000pt;"
     id="path780" />
  <path
     d="M 23.663782,31.654432 C 23.642577,31.419309 22.129467,30.643316 21.940662,30.787291 C 19.058666,33.683981 13.285252,38.175070 13.479390,40.795342 C 13.617785,42.646874 23.293550,45.443550 23.540144,44.938954 C 24.584185,42.585863 24.028682,35.844299 23.663782,31.654432 z "
     style="font-size:12.000000;fill:url(#linearGradient654);fill-rule:evenodd;stroke-width:1.0000000pt;"
     id="path781" />
  <rect
     style="fill:#000000;fill-opacity:0.30000001;fill-rule:evenodd;stroke:none;stroke-width:1.0000000pt;stroke-opacity:1.0000000;"
     id="rect937"
     x="28.226574"
     y="39.395287"
     rx="0.70483023"
     width="30.710464"
     height="12.888113" />
  <rect
     style="fill:#d9cce6;fill-opacity:0.80000001;fill-rule:evenodd;stroke:#261933;stroke-width:1.2500000;stroke-dasharray:none;"
     id="rect862"
     x="26.323563"
     y="37.806450"
     rx="0.69999999"
     width="30.500000"
     height="12.750523" />
  <text
     xml:space="preserve"
     style="fill:black;fill-opacity:1;stroke:none;font-family:helvetica;font-style:normal;font-weight:normal;font-size:12px;stroke-opacity:1;stroke-width:1pt;stroke-linejoin:miter;stroke-linecap:butt;"
     x="32.536951"
     y="45.961130"
     id="text863"><tspan
       id="tspan864"></tspan></text>
  <path
     style="font-size:12.000000;stroke-width:1.0000000pt;font-family:Radio Stars;"
     d="M 51.246587,46.777796 C 51.246587,47.321796 50.978587,47.593796 50.442587,47.593796 L 43.962587,47.593796 C 43.426587,47.593796 43.158587,47.321796 43.158587,46.777796 L 43.158587,41.593796 C 43.158587,41.049796 43.426587,40.777796 43.962587,40.777796 L 50.442587,40.777796 C 50.978587,40.777796 51.246587,41.049796 51.246587,41.593796 L 51.246587,46.777796 z M 49.638587,45.961796 L 49.638587,42.409796 L 44.766587,42.409796 L 44.766587,45.961796 L 49.638587,45.961796 z M 42.390587,46.777796 C 42.390587,47.321796 42.122587,47.593796 41.586587,47.593796 L 35.106587,47.593796 C 34.850587,47.593796 34.650587,47.513796 34.506587,47.353796 C 34.362587,47.193796 34.290587,47.001796 34.290587,46.777796 C 34.290587,46.553796 34.362587,46.361796 34.506587,46.201796 C 34.650587,46.041796 34.850587,45.961796 35.106587,45.961796 L 40.782587,45.961796 L 40.782587,45.001796 L 35.106587,45.001796 C 34.570587,45.001796 34.302587,44.729796 34.302587,44.185796 L 34.302587,41.593796 C 34.302587,41.049796 34.570587,40.777796 35.106587,40.777796 L 41.586587,40.777796 C 41.842587,40.777796 42.042587,40.857796 42.186587,41.017796 C 42.330587,41.177796 42.402587,41.369796 42.402587,41.593796 C 42.402587,41.817796 42.330587,42.009796 42.186587,42.169796 C 42.042587,42.329796 41.842587,42.409796 41.586587,42.409796 L 35.910587,42.409796 L 35.910587,43.369796 L 41.586587,43.369796 C 42.122587,43.369796 42.390587,43.641796 42.390587,44.185796 L 42.390587,46.777796 z M 33.402587,46.777796 C 33.402587,47.033796 33.322587,47.233796 33.162587,47.377796 C 33.002587,47.513796 32.814587,47.581796 32.598587,47.581796 C 32.382587,47.581796 32.194587,47.513796 32.034587,47.377796 C 31.874587,47.233796 31.794587,47.033796 31.794587,46.777796 L 31.794587,41.593796 C 31.794587,41.337796 31.874587,41.141796 32.034587,41.005796 C 32.194587,40.861796 32.382587,40.789796 32.598587,40.789796 C 32.814587,40.789796 33.002587,40.861796 33.162587,41.005796 C 33.322587,41.141796 33.402587,41.337796 33.402587,41.593796 L 33.402587,46.777796 z "
     id="path933" />
</svg>
