<?xml version="1.0" encoding="UTF-8" standalone="no"?>
<!DOCTYPE svg PUBLIC "-//W3C//DTD SVG 20010904//EN"
"http://www.w3.org/TR/2001/REC-SVG-20010904/DTD/svg10.dtd">
<!-- Created with Sodipodi ("http://www.sodipodi.com/") -->
<svg
   id="svg1"
   sodipodi:version="0.32"
   inkscape:version="0.38.1"
   width="48pt"
   height="48pt"
   sodipodi:docbase="/root/Desktop/iffy"
   sodipodi:docname="gnome-mime-application-x-object.svg"
   xmlns="http://www.w3.org/2000/svg"
   xmlns:inkscape="http://www.inkscape.org/namespaces/inkscape"
   xmlns:sodipodi="http://sodipodi.sourceforge.net/DTD/sodipodi-0.dtd"
   xmlns:xlink="http://www.w3.org/1999/xlink">
  <defs
     id="defs3">
    <linearGradient
       id="linearGradient642">
      <stop
         style="stop-color:#d9cce6;stop-opacity:1;"
         offset="0.00000000"
         id="stop643" />
      <stop
         style="stop-color:#73667f;stop-opacity:1;"
         offset="1.00000000"
         id="stop644" />
    </linearGradient>
    <linearGradient
       id="linearGradient866">
      <stop
         style="stop-color:#ffffff;stop-opacity:1;"
         offset="0.00000000"
         id="stop867" />
      <stop
         style="stop-color:#d9cce6;stop-opacity:1;"
         offset="1.00000000"
         id="stop868" />
    </linearGradient>
    <linearGradient
       id="linearGradient584">
      <stop
         style="stop-color:#ffffff;stop-opacity:1;"
         offset="0.00000000"
         id="stop585" />
      <stop
         style="stop-color:#ffffff;stop-opacity:0;"
         offset="1.00000000"
         id="stop586" />
    </linearGradient>
    <linearGradient
       xlink:href="#linearGradient866"
       id="linearGradient586"
       x1="-0.00000000"
       y1="0.01562500"
       x2="0.99122804"
       y2="0.98437500" />
    <linearGradient
       xlink:href="#linearGradient584"
       id="linearGradient587"
       x1="0.00000000"
       y1="-0.00000000"
       x2="1.00000000"
       y2="1.00000000" />
    <linearGradient
       xlink:href="#linearGradient642"
       id="linearGradient638"
       x1="0.18478261"
       y1="0.18750000"
       x2="0.65217394"
       y2="0.83593750" />
    <radialGradient
       xlink:href="#linearGradient866"
       id="radialGradient639" />
    <linearGradient
       xlink:href="#linearGradient584"
       id="linearGradient640"
       x1="-0.00000000"
       y1="-0.00000000"
       x2="0.99382716"
       y2="1.00781250" />
    <linearGradient
       xlink:href="#linearGradient584"
       id="linearGradient641"
       x1="0.00000000"
       y1="0.00000000"
       x2="0.99583334"
       y2="1.02343750" />
    <linearGradient
       xlink:href="#linearGradient584"
       id="linearGradient645"
       x1="0.01492537"
       y1="0.00781250"
       x2="0.97761196"
       y2="0.97656250" />
    <linearGradient
       xlink:href="#linearGradient866"
       id="linearGradient849"
       x1="0.96093750"
       y1="0.039062500"
       x2="0.023437500"
       y2="0.96093750" />
  </defs>
  <sodipodi:namedview
     id="base"
     pagecolor="#ffffff"
     bordercolor="#666666"
     borderopacity="1.0"
     inkscape:pageopacity="0.0"
     inkscape:pageshadow="2"
     inkscape:zoom="5.6423387"
     inkscape:cx="20.869971"
     inkscape:cy="23.818330"
     inkscape:window-width="704"
     inkscape:window-height="586"
     inkscape:window-x="399"
     inkscape:window-y="152" />
  <path
     d="M 4.4389304 48.086315 C 5.2483181 50.50443 38.765774 61.377487 40.966438 59.55288 C 42.936267 57.902492 57.675565 8.7785888 56.688667 6.8303779 C 55.662821 4.6824777 21.657054 -0.6675724 20.042945 0.80153134 C 18.054709 2.621752 3.5888672 45.311841 4.4389304 48.086315 z "
     style="font-size:12;opacity:0.302675;fill-rule:evenodd;stroke-width:12.5;"
     id="path639" />
  <path
     d="M 4.5541516 46.08493 C 5.3114351 48.34726 36.66955 58.519843 38.728432 56.812781 C 40.571358 55.268717 54.36111 9.3095333 53.437795 7.4867937 C 52.478034 5.477268 20.663028 0.47192513 19.152904 1.8463842 C 17.292759 3.5493405 3.7588508 43.489198 4.5541516 46.08493 z "
     style="font-size:12;fill:url(#linearGradient586);fill-rule:evenodd;stroke:#261933;stroke-width:1.87726;"
     id="path634" />
  <path
     d="M 6.6876568 43.965773 C 6.360392 43.13667 19.363758 4.5872629 20.579427 3.7922731 C 22.09876 2.7554118 46.659814 7.3454032 46.98631 8.172561 C 47.28557 8.9306762 27.823671 5.3906629 23.493845 9.2635774 C 15.189619 16.482895 6.9861475 44.721984 6.6876568 43.965773 z "
     style="font-size:12;opacity:0.699936;fill:url(#linearGradient587);fill-rule:evenodd;stroke:none;stroke-width:0.100121pt;"
     id="path640" />
  <path
     style="font-size:12;fill:url(#linearGradient638);fill-rule:evenodd;stroke:#261933;stroke-width:1.875;stroke-opacity:1;stroke-dasharray:none;"
     d="M 11.035316 36.97803 C 10.595695 35.414793 10.528337 32.106758 13.269887 31.302527 C 15.419426 30.658675 18.185743 32.040203 18.414936 31.495581 C 18.735806 30.733111 15.159337 27.5363 16.470857 26.162786 C 20.29456 22.158337 29.296457 17.502316 34.526121 16.528946 C 36.14071 16.228433 35.706065 21.128458 36.614271 21.198149 C 37.4946 21.265699 39.667529 16.78004 41.664046 16.276052 C 43.50895 15.75549 45.231152 18.450158 45.654492 19.955507 C 46.114532 21.59135 46.342318 24.427125 44.31419 25.69963 C 42.181897 27.114781 38.790272 25.629457 38.483035 26.359529 C 38.056852 27.372247 41.727503 30.257553 40.341615 31.592614 C 36.46611 35.325988 27.010842 39.297646 21.701426 40.057152 C 20.189462 40.273438 20.795553 36.219048 20.072345 36.125111 C 19.385347 36.035877 18.28479 40.283479 15.920032 40.726105 C 13.516186 41.19816 11.479078 38.555986 11.035316 36.97803 z "
     id="path608"
     sodipodi:nodetypes="cssssssssssssss" />
  <path
     style="fill:url(#linearGradient640);fill-rule:evenodd;stroke:none;stroke-opacity:1;stroke-width:1pt;stroke-linejoin:miter;stroke-linecap:butt;fill-opacity:1;"
     d="M 12.532158 36.658856 C 12.360652 36.48735 12.295473 33.754271 13.002114 33.212513 C 13.861992 32.553273 17.059505 32.883649 17.231717 33.055861 C 17.372808 33.196953 14.79837 33.495894 13.942025 34.152425 C 13.23185 34.696892 12.673956 36.800654 12.532158 36.658856 z "
     id="path609"
     sodipodi:nodetypes="cssss" />
  <path
     style="fill:url(#linearGradient641);fill-rule:evenodd;stroke:none;stroke-opacity:1;stroke-width:1pt;stroke-linejoin:miter;stroke-linecap:butt;fill-opacity:1;"
     d="M 17.858325 26.946434 C 18.110914 26.413192 28.943085 19.295122 33.836826 18.330576 C 34.625799 18.200327 33.480133 21.336062 32.426958 21.306963 C 27.558187 21.329093 17.640958 27.405321 17.858325 26.946434 z "
     id="path610"
     sodipodi:nodetypes="csss" />
  <path
     style="fill:url(#linearGradient645);fill-rule:evenodd;stroke:none;stroke-opacity:1;stroke-width:1pt;stroke-linejoin:miter;stroke-linecap:butt;fill-opacity:1;"
     d="M 38.693037 21.776919 C 38.562774 21.646656 40.971898 18.61201 42.13938 17.703968 C 42.381765 17.515446 43.119438 18.254648 42.92264 18.487228 C 41.970657 19.612299 38.82386 21.907742 38.693037 21.776919 z "
     id="path611"
     sodipodi:nodetypes="csss" />
  <path
     style="font-size:12.000000;fill:url(#linearGradient849);stroke:#261933;stroke-width:1.0343980;font-family:helvetica;"
     d="M 28.508024,22.916457 C 24.927935,22.931071 22.725014,25.148104 22.731559,28.765070 C 22.738031,32.339998 24.948995,34.581062 28.455554,34.566752 C 32.133735,34.551733 34.312167,32.355835 34.305530,28.696839 C 34.299050,25.100878 32.088131,22.901871 28.508024,22.916457 z M 28.510773,24.430543 C 30.668642,24.421742 31.750155,25.847307 31.755284,28.686189 C 31.760459,31.546121 30.659725,33.043680 28.526363,33.052362 C 26.343959,33.061283 25.286953,31.635616 25.281714,28.733635 C 25.276584,25.894745 26.352904,24.439363 28.510773,24.430543 z "
     id="path840" />
</svg>
