<?xml version="1.0" encoding="UTF-8" standalone="no"?>
<!DOCTYPE svg PUBLIC "-//W3C//DTD SVG 20010904//EN"
"http://www.w3.org/TR/2001/REC-SVG-20010904/DTD/svg10.dtd">
<!-- Created with Inkscape (http://www.inkscape.org/) -->
<svg
   version="1.0"
   x="0"
   y="0"
   width="48pt"
   height="48pt"
   id="svg1"
   sodipodi:version="0.32"
   inkscape:version="0.38"
   sodipodi:docname="gnome-mime-application-x-zip.svg"
   sodipodi:docbase="/home/dan/Projects/Lila-icons/scalable/mimetypes"
   xmlns="http://www.w3.org/2000/svg"
   xmlns:inkscape="http://www.inkscape.org/namespaces/inkscape"
   xmlns:sodipodi="http://sodipodi.sourceforge.net/DTD/sodipodi-0.dtd"
   xmlns:xml="http://www.w3.org/XML/1998/namespace"
   xmlns:xlink="http://www.w3.org/1999/xlink">
  <sodipodi:namedview
     id="base"
     pagecolor="#ffffff"
     bordercolor="#666666"
     borderopacity="1.0"
     inkscape:pageopacity="0.0"
     inkscape:pageshadow="2"
     inkscape:zoom="3.9880822"
     inkscape:cx="32.520974"
     inkscape:cy="15.883115"
     inkscape:window-width="640"
     inkscape:window-height="503"
     inkscape:window-x="50"
     inkscape:window-y="65"
     showguides="true"
     snaptoguides="true" />
  <defs
     id="defs3">
    <linearGradient
       id="linearGradient570">
      <stop
         style="stop-color:#ffffff;stop-opacity:1;"
         offset="0"
         id="stop571" />
      <stop
         style="stop-color:#ffffff;stop-opacity:0;"
         offset="1"
         id="stop572" />
    </linearGradient>
    <linearGradient
       id="linearGradient563">
      <stop
         style="stop-color:#d9cce6;stop-opacity:1;"
         offset="0.00000000"
         id="stop564" />
      <stop
         style="stop-color:#73667f;stop-opacity:1;"
         offset="1.00000000"
         id="stop565" />
    </linearGradient>
    <linearGradient
       x1="0.01973684"
       y1="0.00000000"
       x2="0.98026317"
       y2="0.96875000"
       id="linearGradient566"
       xlink:href="#linearGradient563" />
    <linearGradient
       x1="0.007275"
       y1="0.062497"
       x2="1.003636"
       y2="0.968750"
       id="linearGradient569"
       xlink:href="#linearGradient570" />
    <linearGradient
       x1="0.017699"
       y1="0.007811"
       x2="0.982301"
       y2="0.992187"
       id="linearGradient573"
       xlink:href="#linearGradient570" />
    <linearGradient
       x1="0.040005"
       y1="0.015624"
       x2="1.000000"
       y2="0.984375"
       id="linearGradient575"
       xlink:href="#linearGradient570" />
    <linearGradient
       id="linearGradient578"
       xlink:href="#linearGradient570" />
  </defs>
  <path
     d="M 4.3319537 47.873335 C 5.5354626 49.08791 32.414949 55.868816 34.128038 55.495694 C 35.62272 55.308702 57.235768 45.549036 58.103536 44.547352 C 59.311466 42.960228 59.076803 14.61038 57.964972 13.3653 C 56.728509 11.783464 29.977412 8.6103101 28.168778 8.6533255 C 26.523477 8.8185403 4.7976325 13.532396 3.9162388 14.751165 C 3.2688576 15.748208 3.1247203 46.794797 4.3319537 47.873335 z "
     style="font-size:12;opacity:0.302675;fill-rule:evenodd;stroke-width:12.5;"
     id="path1168" />
  <path
     d="M 4.010611 45.413592 C 5.1626968 46.576279 30.893688 53.067459 32.533582 52.710287 C 33.964399 52.531272 54.653991 43.188604 55.484682 42.229719 C 56.641001 40.710399 56.416364 13.571863 55.352037 12.37998 C 54.168404 10.865731 28.560298 7.8281654 26.82894 7.8693346 C 25.25394 8.0275058 4.4563917 12.539925 3.6126274 13.706627 C 2.992905 14.661066 2.8549262 44.381133 4.010611 45.413592 z "
     style="font-size:12;fill:url(#linearGradient566);fill-rule:evenodd;stroke:#261933;stroke-width:1.875;stroke-dasharray:none;"
     id="path1164" />
  <path
     d="M 5.0719434 44.352349 C 4.5987439 43.642541 3.9794786 15.751129 4.9392786 14.900626 C 5.5970982 14.332895 29.941467 18.441686 30.410962 19.145973 C 30.825831 19.768334 11.65524 15.004167 7.5926113 18.880586 C 4.3212608 21.995866 5.4831918 44.969189 5.0719434 44.352349 z "
     style="font-size:12;opacity:0.990000;fill:url(#linearGradient573);fill-rule:evenodd;stroke:none;stroke-width:0.105861pt;"
     id="path1165" />
  <path
     d="M 33.197014 50.056975 C 32.832639 49.738123 32.229866 20.05564 32.931619 19.278622 C 33.690219 18.424426 52.862291 14.314057 53.229417 14.635347 C 53.569762 14.933138 36.707895 18.09034 35.05424 21.135954 C 32.494519 25.690205 33.540107 50.357204 33.197014 50.056975 z "
     style="font-size:12;opacity:0.990000;fill:url(#linearGradient575);fill-rule:evenodd;stroke:none;stroke-width:0.105861pt;"
     id="path1166" />
  <path
     d="M 9.3171936 13.44133 C 9.3171936 13.173935 25.266961 9.3573257 27.359729 9.3287384 C 29.067691 9.3036461 46.198125 11.450417 46.198125 11.716647 C 46.198125 11.980994 33.612199 10.628286 27.359729 10.920683 C 21.318556 11.203222 9.3171936 13.70462 9.3171936 13.44133 z "
     style="font-size:12;opacity:0.990000;fill:url(#linearGradient569);fill-rule:evenodd;stroke:none;stroke-width:0.105861pt;"
     id="path1167" />
  <rect
     style="fill:#000000;fill-opacity:0.30000001;fill-rule:evenodd;stroke:none;stroke-width:1.0000000pt;stroke-opacity:1.0000000;"
     id="rect937"
     x="28.640162"
     y="39.164196"
     rx="0.70483023"
     width="30.710464"
     height="12.888113" />
  <rect
     style="fill:#d9cce6;fill-opacity:0.80000001;fill-rule:evenodd;stroke:#261933;stroke-width:1.2500000;stroke-dasharray:none;"
     id="rect862"
     x="26.737149"
     y="37.575356"
     rx="0.69999999"
     width="30.500000"
     height="12.750523" />
  <text
     xml:space="preserve"
     style="fill:black;fill-opacity:1;stroke:none;font-family:helvetica;font-style:normal;font-weight:normal;font-size:12px;stroke-opacity:1;stroke-width:1pt;stroke-linejoin:miter;stroke-linecap:butt;"
     x="32.507458"
     y="45.730038"
     id="text863"><tspan
       id="tspan864"></tspan></text>
  <path
     style="font-size:12.000000;stroke-width:1.0000000pt;font-family:Radio Stars;"
     d="M 53.748058,43.959020 C 53.748058,44.503020 53.476058,44.775020 52.932058,44.775020 L 47.268058,44.775020 L 47.268058,46.551020 C 47.268058,46.807020 47.188058,47.007020 47.028058,47.151020 C 46.868058,47.287020 46.676058,47.355020 46.452058,47.355020 C 46.236058,47.355020 46.048058,47.287020 45.888058,47.151020 C 45.728058,47.007020 45.648058,46.807020 45.648058,46.551020 L 45.648058,40.551020 L 52.932058,40.551020 C 53.476058,40.551020 53.748058,40.823020 53.748058,41.367020 L 53.748058,43.959020 z M 52.128058,43.143020 L 52.128058,42.183020 L 47.268058,42.183020 L 47.268058,43.143020 L 52.128058,43.143020 z M 43.032681,46.551020 C 43.032681,46.807020 42.952681,47.007020 42.792681,47.151020 C 42.632681,47.287020 42.444681,47.355020 42.228681,47.355020 C 42.004681,47.355020 41.812681,47.287020 41.652681,47.151020 C 41.492681,47.007020 41.412681,46.807020 41.412681,46.551020 L 41.412681,41.367020 C 41.412681,41.111020 41.492681,40.915020 41.652681,40.779020 C 41.812681,40.635020 42.004681,40.563020 42.228681,40.563020 C 42.444681,40.563020 42.632681,40.635020 42.792681,40.779020 C 42.952681,40.915020 43.032681,41.111020 43.032681,41.367020 L 43.032681,46.551020 z M 38.855870,42.003020 L 34.175870,45.735020 L 38.339870,45.735020 C 38.595870,45.735020 38.795870,45.815020 38.939870,45.975020 C 39.083870,46.135020 39.155870,46.327020 39.155870,46.551020 C 39.155870,46.775020 39.083870,46.967020 38.939870,47.127020 C 38.795870,47.287020 38.595870,47.367020 38.339870,47.367020 L 31.859870,47.367020 C 31.579870,47.367020 31.355870,47.299020 31.187870,47.163020 C 31.019870,47.027020 30.935870,46.859020 30.935870,46.659020 C 30.935870,46.387020 31.079870,46.135020 31.367870,45.903020 L 36.035870,42.183020 L 31.859870,42.183020 C 31.603870,42.183020 31.403870,42.103020 31.259870,41.943020 C 31.115870,41.783020 31.043870,41.591020 31.043870,41.367020 C 31.043870,41.143020 31.115870,40.951020 31.259870,40.791020 C 31.403870,40.631020 31.603870,40.551020 31.859870,40.551020 L 38.339870,40.551020 C 38.627870,40.551020 38.855870,40.619020 39.023870,40.755020 C 39.191870,40.891020 39.275870,41.059020 39.275870,41.259020 C 39.275870,41.531020 39.135870,41.779020 38.855870,42.003020 z "
     id="path850"
     sodipodi:nodetypes="ccccccccccccccccccccccccccccccccccccccccccccccccc" />
</svg>
