<?xml version="1.0" encoding="UTF-8" standalone="no"?>
<!DOCTYPE svg PUBLIC "-//W3C//DTD SVG 20010904//EN"
"http://www.w3.org/TR/2001/REC-SVG-20010904/DTD/svg10.dtd">
<!-- Created with Sodipodi ("http://www.sodipodi.com/") -->
<svg
   id="svg1"
   sodipodi:version="0.32"
   inkscape:version="0.38.1"
   width="48pt"
   height="48pt"
   sodipodi:docbase="/root/Desktop/mimes"
   sodipodi:docname="gnome-mime-application-x-font-bdf.svg"
   xmlns="http://www.w3.org/2000/svg"
   xmlns:inkscape="http://www.inkscape.org/namespaces/inkscape"
   xmlns:sodipodi="http://sodipodi.sourceforge.net/DTD/sodipodi-0.dtd"
   xmlns:xml="http://www.w3.org/XML/1998/namespace"
   xmlns:xlink="http://www.w3.org/1999/xlink">
  <defs
     id="defs3">
    <linearGradient
       id="linearGradient703">
      <stop
         style="stop-color:#d9cce6;stop-opacity:1;"
         offset="0.00000000"
         id="stop704" />
      <stop
         style="stop-color:#73667f;stop-opacity:1;"
         offset="1.00000000"
         id="stop705" />
    </linearGradient>
    <linearGradient
       id="linearGradient866">
      <stop
         style="stop-color:#ffffff;stop-opacity:1;"
         offset="0.00000000"
         id="stop867" />
      <stop
         style="stop-color:#d9cce6;stop-opacity:1;"
         offset="1.00000000"
         id="stop868" />
    </linearGradient>
    <linearGradient
       id="linearGradient584">
      <stop
         style="stop-color:#ffffff;stop-opacity:1;"
         offset="0.00000000"
         id="stop585" />
      <stop
         style="stop-color:#ffffff;stop-opacity:0;"
         offset="1.00000000"
         id="stop586" />
    </linearGradient>
    <linearGradient
       xlink:href="#linearGradient866"
       id="linearGradient586"
       x1="-0.00000000"
       y1="0.01562500"
       x2="0.99122804"
       y2="0.98437500" />
    <linearGradient
       xlink:href="#linearGradient584"
       id="linearGradient587"
       x1="0.00000000"
       y1="-0.00000000"
       x2="1.00000000"
       y2="1.00000000" />
    <linearGradient
       xlink:href="#linearGradient584"
       id="linearGradient700"
       x1="-1.25369226e-8"
       y1="-9.11080722e-9"
       x2="1"
       y2="-9.11080722e-9" />
    <linearGradient
       xlink:href="#linearGradient584"
       id="linearGradient701"
       x1="6.37902531e-9"
       y1="-7.04388867e-8"
       x2="1"
       y2="-7.04388867e-8" />
    <linearGradient
       xlink:href="#linearGradient584"
       id="linearGradient702"
       x1="2.60090758e-8"
       y1="-3.89247475e-7"
       x2="1"
       y2="-3.89247475e-7" />
    <linearGradient
       xlink:href="#linearGradient584"
       id="linearGradient845"
       x1="-0.00000000"
       y1="-0.00000000"
       x2="0.99635035"
       y2="0.97727275" />
    <radialGradient
       xlink:href="#linearGradient703"
       id="radialGradient846" />
    <linearGradient
       xlink:href="#linearGradient584"
       id="linearGradient847"
       x1="0.00000000"
       y1="-0.00000000"
       x2="0.98540145"
       y2="0.93902439" />
    <linearGradient
       xlink:href="#linearGradient703"
       id="linearGradient848"
       x1="0.01219511"
       y1="0.01562503"
       x2="0.99999994"
       y2="1.00000012" />
    <linearGradient
       xlink:href="#linearGradient584"
       id="linearGradient849"
       x1="0.00000000"
       y1="-0.00000000"
       x2="0.98514849"
       y2="1.02343750" />
    <linearGradient
       xlink:href="#linearGradient703"
       id="linearGradient850"
       x1="-0.00000000"
       y1="0.00000000"
       x2="1.00000000"
       y2="0.95652175" />
    <linearGradient
       xlink:href="#linearGradient584"
       id="linearGradient863"
       x1="-0.00000000"
       y1="-0.00000000"
       x2="0.99635035"
       y2="0.82142860" />
  </defs>
  <sodipodi:namedview
     id="base"
     pagecolor="#ffffff"
     bordercolor="#666666"
     borderopacity="1.0"
     inkscape:pageopacity="0.0"
     inkscape:pageshadow="2"
     inkscape:zoom="7.9794719"
     inkscape:cx="28.639652"
     inkscape:cy="23.727412"
     inkscape:window-width="1274"
     inkscape:window-height="950"
     inkscape:window-x="0"
     inkscape:window-y="25" />
  <path
     d="M 4.4389304 48.086315 C 5.2483181 50.50443 38.765774 61.377487 40.966438 59.55288 C 42.936267 57.902492 57.675565 8.7785888 56.688667 6.8303779 C 55.662821 4.6824777 21.657054 -0.6675724 20.042945 0.80153134 C 18.054709 2.621752 3.5888672 45.311841 4.4389304 48.086315 z "
     style="font-size:12;opacity:0.302675;fill-rule:evenodd;stroke-width:12.5;"
     id="path639" />
  <path
     d="M 4.5541516 46.08493 C 5.3114351 48.34726 36.66955 58.519843 38.728432 56.812781 C 40.571358 55.268717 54.36111 9.3095333 53.437795 7.4867937 C 52.478034 5.477268 20.663028 0.47192513 19.152904 1.8463842 C 17.292759 3.5493405 3.7588508 43.489198 4.5541516 46.08493 z "
     style="font-size:12;fill:url(#linearGradient586);fill-rule:evenodd;stroke:#261933;stroke-width:1.87726;"
     id="path634" />
  <path
     d="M 6.6876568 43.965773 C 6.360392 43.13667 19.363758 4.5872629 20.579427 3.7922731 C 22.09876 2.7554118 46.659814 7.3454032 46.98631 8.172561 C 47.28557 8.9306762 27.823671 5.3906629 23.493845 9.2635774 C 15.189619 16.482895 6.9861475 44.721984 6.6876568 43.965773 z "
     style="font-size:12;opacity:0.699936;fill:url(#linearGradient587);fill-rule:evenodd;stroke:none;stroke-width:0.100121pt;"
     id="path640" />
  <path
     style="font-size:36.000000;font-weight:bold;stroke-width:1.0000000pt;font-family:Bitstream Vera Sans;fill:#261933;fill-opacity:1.0000000;"
     d="M 28.08968 28.97692 C 26.70348 28.59591 25.5837 28.49983 24.73035 28.68861 C 23.88935 28.88082 23.32489 29.3495 23.03689 30.0948 C 22.77218 30.77957 22.84245 31.39494 23.24766 31.9408 C 23.66908 32.4799 24.38104 32.88734 25.38356 33.16287 C 26.63363 33.50648 27.82574 33.43302 28.95994 32.94265 C 30.09811 32.44218 30.8792 31.64309 31.30342 30.54537 L 31.54276 29.92603 L 28.08968 28.97692 z M 39.03291 29.72873 L 35.30248 39.38168 L 28.60053 37.53961 L 29.56961 35.03197 C 28.28147 35.8143 26.98901 36.28901 25.6922 36.45616 C 24.39929 36.61328 22.95455 36.47243 21.35792 36.03362 C 19.2044 35.4417 17.64964 34.45175 16.69363 33.06383 C 15.75394 31.6692 15.59934 30.15612 16.22982 28.52465 C 16.99652 26.54066 18.39431 25.31502 20.42322 24.84775 C 22.46452 24.38383 25.27979 24.64518 28.86902 25.63168 L 32.78622 26.7084 L 32.94967 26.28536 C 33.28055 25.4294 33.10718 24.69101 32.42974 24.07033 C 31.75616 23.43953 30.54067 22.88267 28.78315 22.3996 C 27.35985 22.00842 25.99079 21.76024 24.67595 21.65504 C 23.36113 21.54993 22.0882 21.58442 20.8572 21.7585 L 22.45091 17.63446 C 23.98317 17.74375 25.49445 17.92512 26.98462 18.17873 C 28.47871 18.42226 29.94358 18.74136 31.37929 19.13596 C 35.12941 20.1667 37.60026 21.51422 38.79163 23.17859 C 39.9994 24.83627 40.07979 27.01966 39.03291 29.72873 z "
     id="path858" />
  <path
     style="fill:url(#linearGradient702);fill-rule:evenodd;stroke:none;stroke-opacity:1;stroke-width:1pt;stroke-linejoin:miter;stroke-linecap:butt;fill-opacity:0.75;"
     d="M 22.174100,21.253220 C 22.427100,20.677450 22.909570,19.271170 23.162590,18.695420 C 25.173270,18.701960 26.222760,18.832494 28.163970,19.181759 C 30.172871,19.552997 31.844080,19.989420 33.018690,20.659760 C 30.835049,20.060691 29.705832,19.809829 28.283782,19.543049 C 26.647746,19.279041 24.807679,19.099200 23.767904,19.350520 C 22.989271,19.645719 22.318918,21.058967 22.174100,21.253220 z "
     id="path860"
     sodipodi:nodetypes="ccccccc" />
  <path
     style="fill:url(#linearGradient701);fill-rule:evenodd;stroke:none;stroke-opacity:1;stroke-width:1pt;stroke-linejoin:miter;stroke-linecap:butt;fill-opacity:0.75;"
     d="M 28.836017,26.475946 C 27.209107,26.028846 24.396165,25.578289 22.719321,25.636711 C 21.114187,25.760888 20.414527,25.928264 19.583957,26.419744 C 18.725897,26.903734 17.901136,27.545105 17.528200,28.511709 C 17.109074,29.506847 17.092245,30.028282 17.233577,31.069430 C 17.427147,32.202105 17.983035,33.014941 18.798814,33.862919 C 18.503499,32.992669 18.201672,32.203963 18.190422,30.960553 C 18.257307,29.972619 18.322918,29.663963 18.610688,28.998443 C 18.917278,28.362913 19.078011,28.043584 19.951834,27.307178 C 20.877754,26.568808 21.983229,26.341316 23.319975,26.150259 C 24.855231,25.978464 26.813557,26.342056 28.836017,26.475946 z "
     id="path862"
     sodipodi:nodetypes="ccccccccccc" />
  <rect
     style="fill:#000000;fill-opacity:0.30000001;fill-rule:evenodd;stroke:none;stroke-width:1.0000000pt;stroke-opacity:1.0000000;"
     id="rect937"
     x="28.226574"
     y="39.395287"
     rx="0.70483023"
     width="30.710464"
     height="12.888113" />
  <rect
     style="fill:#d9cce6;fill-opacity:0.80000001;fill-rule:evenodd;stroke:#261933;stroke-width:1.2500000;stroke-dasharray:none;"
     id="rect862"
     x="26.323563"
     y="37.806450"
     rx="0.69999999"
     width="30.500000"
     height="12.750523" />
  <text
     xml:space="preserve"
     style="fill:black;fill-opacity:1;stroke:none;font-family:helvetica;font-style:normal;font-weight:normal;font-size:12px;stroke-opacity:1;stroke-width:1pt;stroke-linejoin:miter;stroke-linecap:butt;"
     x="32.536951"
     y="45.961130"
     id="text863"><tspan
       id="tspan864"></tspan></text>
  <path
     style="font-size:12.000000;stroke-width:1.0000000pt;font-family:Radio Stars;"
     d="M 53.662008,45.032496 L 47.986008,45.032496 L 47.986008,46.808496 C 47.986008,47.064496 47.906008,47.264496 47.746008,47.408496 C 47.586008,47.544496 47.398008,47.612496 47.182008,47.612496 C 46.958008,47.612496 46.766008,47.544496 46.606008,47.408496 C 46.446008,47.264496 46.366008,47.064496 46.366008,46.808496 L 46.366008,41.624496 C 46.366008,41.080496 46.638008,40.808496 47.182008,40.808496 L 53.662008,40.808496 C 53.918008,40.808496 54.114008,40.888496 54.250008,41.048496 C 54.394008,41.208496 54.466008,41.400496 54.466008,41.624496 C 54.466008,41.848496 54.394008,42.040496 54.250008,42.200496 C 54.114008,42.360496 53.918008,42.440496 53.662008,42.440496 L 47.986008,42.440496 L 47.986008,43.400496 L 53.662008,43.400496 C 53.918008,43.400496 54.114008,43.480496 54.250008,43.640496 C 54.394008,43.800496 54.466008,43.992496 54.466008,44.216496 C 54.466008,44.440496 54.394008,44.632496 54.250008,44.792496 C 54.114008,44.952496 53.918008,45.032496 53.662008,45.032496 z M 45.766008,46.808496 C 45.766008,47.352496 45.498008,47.624496 44.962008,47.624496 L 37.678008,47.624496 L 37.678008,40.808496 L 39.286008,40.808496 C 41.230008,40.808496 42.786008,41.332496 43.954008,42.380496 C 45.162008,43.460496 45.766008,44.936496 45.766008,46.808496 z M 44.158008,45.992496 C 44.142008,45.512496 43.974008,45.024496 43.654008,44.528496 C 43.374008,44.104496 43.018008,43.724496 42.586008,43.388496 C 41.746008,42.756496 40.846008,42.440496 39.886008,42.440496 L 39.286008,42.440496 L 39.286008,45.992496 L 44.158008,45.992496 z M 36.778008,46.808496 C 36.778008,47.352496 36.510008,47.624496 35.974008,47.624496 L 28.690008,47.624496 L 28.690008,40.808496 L 35.974008,40.808496 C 36.510008,40.808496 36.778008,41.080496 36.778008,41.624496 L 36.778008,43.400496 C 36.770008,43.544496 36.738008,43.668496 36.682008,43.772496 C 36.546008,44.028496 36.310008,44.168496 35.974008,44.192496 C 36.478008,44.240496 36.746008,44.520496 36.778008,45.032496 L 36.778008,46.808496 z M 35.170008,43.400496 L 35.170008,42.440496 L 30.298008,42.440496 L 30.298008,43.400496 L 35.170008,43.400496 z M 35.170008,45.992496 L 35.170008,45.032496 L 30.298008,45.032496 L 30.298008,45.992496 L 35.170008,45.992496 z "
     id="path887" />
</svg>
