<?xml version="1.0" encoding="UTF-8" standalone="no"?>
<!DOCTYPE svg PUBLIC "-//W3C//DTD SVG 20010904//EN"
"http://www.w3.org/TR/2001/REC-SVG-20010904/DTD/svg10.dtd">
<!-- Created with Inkscape (http://www.inkscape.org/) -->
<svg
   id="svg1"
   sodipodi:version="0.32"
   inkscape:version="0.38.1"
   width="48pt"
   height="48pt"
   sodipodi:docbase="/root/Desktop"
   sodipodi:docname="xwd.svg"
   xmlns="http://www.w3.org/2000/svg"
   xmlns:inkscape="http://www.inkscape.org/namespaces/inkscape"
   xmlns:sodipodi="http://sodipodi.sourceforge.net/DTD/sodipodi-0.dtd"
   xmlns:xml="http://www.w3.org/XML/1998/namespace"
   xmlns:xlink="http://www.w3.org/1999/xlink">
  <defs
     id="defs3">
    <linearGradient
       id="linearGradient642">
      <stop
         style="stop-color:#d9cce6;stop-opacity:1;"
         offset="0.00000000"
         id="stop643" />
      <stop
         style="stop-color:#73667f;stop-opacity:1;"
         offset="1.00000000"
         id="stop644" />
    </linearGradient>
    <linearGradient
       id="linearGradient866">
      <stop
         style="stop-color:#ffffff;stop-opacity:1;"
         offset="0.00000000"
         id="stop867" />
      <stop
         style="stop-color:#d9cce6;stop-opacity:1;"
         offset="1.00000000"
         id="stop868" />
    </linearGradient>
    <linearGradient
       id="linearGradient584">
      <stop
         style="stop-color:#ffffff;stop-opacity:1;"
         offset="0.00000000"
         id="stop585" />
      <stop
         style="stop-color:#ffffff;stop-opacity:0;"
         offset="1.00000000"
         id="stop586" />
    </linearGradient>
    <linearGradient
       xlink:href="#linearGradient866"
       id="linearGradient586"
       x1="-0.00000000"
       y1="0.01562500"
       x2="0.99122804"
       y2="0.98437500" />
    <linearGradient
       xlink:href="#linearGradient584"
       id="linearGradient587"
       x1="0.00000000"
       y1="-0.00000000"
       x2="1.00000000"
       y2="1.00000000" />
    <linearGradient
       xlink:href="#linearGradient866"
       id="linearGradient638"
       x1="0.00000000"
       y1="0.00000000"
       x2="0.98684210"
       y2="1.02343750" />
    <radialGradient
       xlink:href="#linearGradient866"
       id="radialGradient639" />
    <linearGradient
       xlink:href="#linearGradient642"
       id="linearGradient640"
       x1="0.00000000"
       y1="-0.00000000"
       x2="0.98684210"
       y2="1.02343750" />
    <linearGradient
       xlink:href="#linearGradient584"
       id="linearGradient641"
       x1="0.00000000"
       y1="0.00000000"
       x2="0.99270076"
       y2="0.95238096" />
    <linearGradient
       xlink:href="#linearGradient584"
       id="linearGradient645"
       x1="-0.00000000"
       y1="-0.00000000"
       x2="0.99270076"
       y2="0.94999999" />
    <linearGradient
       xlink:href="#linearGradient584"
       id="linearGradient699"
       x1="0.00000000"
       y1="0.00000000"
       x2="0.98701298"
       y2="1.00781250" />
    <linearGradient
       xlink:href="#linearGradient584"
       id="linearGradient700"
       x1="-0.00000000"
       y1="-0.00000000"
       x2="0.96875000"
       y2="0.99218750" />
    <linearGradient
       xlink:href="#linearGradient584"
       id="linearGradient701"
       x1="-0.00000000"
       y1="-0.00000000"
       x2="0.97058821"
       y2="0.97656250" />
    <linearGradient
       xlink:href="#linearGradient584"
       id="linearGradient702"
       x1="-0.00000000"
       y1="0.00000000"
       x2="1.01485145"
       y2="1.02343750" />
    <linearGradient
       xlink:href="#linearGradient584"
       id="linearGradient703"
       x1="0.00000000"
       y1="-0.00000000"
       x2="1.01315784"
       y2="1.00781250" />
    <linearGradient
       xlink:href="#linearGradient642"
       id="linearGradient704"
       x1="0.26760563"
       y1="0.31250000"
       x2="0.65492958"
       y2="0.65625000" />
  </defs>
  <sodipodi:namedview
     id="base"
     pagecolor="#ffffff"
     bordercolor="#666666"
     borderopacity="1.0"
     inkscape:pageopacity="0.0"
     inkscape:pageshadow="2"
     inkscape:zoom="7.9794719"
     inkscape:cx="21.350371"
     inkscape:cy="24.273873"
     inkscape:window-width="1274"
     inkscape:window-height="950"
     inkscape:window-x="0"
     inkscape:window-y="25" />
  <path
     d="M 4.4389304 48.086315 C 5.2483181 50.50443 38.765774 61.377487 40.966438 59.55288 C 42.936267 57.902492 57.675565 8.7785888 56.688667 6.8303779 C 55.662821 4.6824777 21.657054 -0.6675724 20.042945 0.80153134 C 18.054709 2.621752 3.5888672 45.311841 4.4389304 48.086315 z "
     style="font-size:12;opacity:0.302675;fill-rule:evenodd;stroke-width:12.5;"
     id="path639" />
  <path
     d="M 4.5541516 46.08493 C 5.3114351 48.34726 36.66955 58.519843 38.728432 56.812781 C 40.571358 55.268717 54.36111 9.3095333 53.437795 7.4867937 C 52.478034 5.477268 20.663028 0.47192513 19.152904 1.8463842 C 17.292759 3.5493405 3.7588508 43.489198 4.5541516 46.08493 z "
     style="font-size:12;fill:url(#linearGradient586);fill-rule:evenodd;stroke:#261933;stroke-width:1.87726;"
     id="path634" />
  <path
     d="M 6.6876568 43.965773 C 6.360392 43.13667 19.363758 4.5872629 20.579427 3.7922731 C 22.09876 2.7554118 46.659814 7.3454032 46.98631 8.172561 C 47.28557 8.9306762 27.823671 5.3906629 23.493845 9.2635774 C 15.189619 16.482895 6.9861475 44.721984 6.6876568 43.965773 z "
     style="font-size:12;opacity:0.699936;fill:url(#linearGradient587);fill-rule:evenodd;stroke:none;stroke-width:0.100121pt;"
     id="path640" />
  <path
     style="font-size:12;opacity:0.302675;fill-rule:evenodd;stroke-width:1.25;"
     d="M 13.238277,34.236682 C 12.743531,33.405201 18.083166,16.297864 19.396884,15.745502 C 20.382867,15.329137 42.774821,19.495953 43.236213,20.426813 C 43.744898,21.563864 38.454142,40.180226 37.328308,40.601526 C 36.232283,41.052539 13.776956,35.222938 13.238277,34.236682 z "
     id="path627"
     sodipodi:nodetypes="cssss" />
  <path
     style="font-size:12.000000;fill:url(#linearGradient638);fill-rule:evenodd;stroke:#000000;stroke-width:0.97653872;"
     d="M 13.340170,32.330153 C 12.871243,31.542065 17.932221,15.327503 19.177380,14.803966 C 20.111908,14.409329 41.335304,18.358691 41.772617,19.240973 C 42.254758,20.318687 37.240106,37.963524 36.173024,38.362839 C 35.134197,38.790313 13.850737,33.264941 13.340170,32.330153 z "
     id="path628"
     sodipodi:nodetypes="cssss" />
  <path
     style="font-size:12.000000;fill:url(#linearGradient640);fill-rule:evenodd;stroke:#000000;stroke-width:0.97653872;"
     d="M 18.013677,17.528851 C 17.659301,17.338617 18.841748,15.008689 19.177380,14.803966 C 20.003880,14.221393 41.171985,18.456898 41.772617,19.240973 C 42.036307,19.622934 41.480975,21.970696 40.920607,22.259555 C 40.001822,22.899552 18.845109,18.205705 18.013677,17.528851 z "
     id="path629"
     sodipodi:nodetypes="cssss" />
  <path
     style="font-size:12;fill-rule:evenodd;stroke-width:1pt;"
     d="M 38.278654,19.319881 C 38.073857,19.455029 38.596801,20.173570 38.587588,20.303827 C 38.581001,20.421629 37.694421,20.791509 37.809572,20.956450 C 37.902370,21.127613 38.825593,20.584040 38.950120,20.629331 C 39.043962,20.657346 39.346613,21.433952 39.545680,21.345157 C 39.740041,21.244049 39.364577,20.486827 39.380667,20.358252 C 39.417343,20.244244 40.384268,19.942532 40.304114,19.773374 C 40.186668,19.592667 39.152873,20.080011 39.013331,20.012128 C 38.896643,19.942465 38.479785,19.203420 38.278654,19.319881 z "
     id="path633"
     sodipodi:nodetypes="cssssssss" />
  <path
     style="font-size:12;fill:url(#linearGradient645);fill-rule:evenodd;stroke-width:1pt;"
     d="M 19.144153,16.671792 C 19.101807,16.567530 19.369881,15.542792 19.769211,15.597904 C 26.060883,16.466210 39.178855,19.347735 39.217164,19.442052 C 39.254833,19.534802 26.361909,17.037495 19.997144,16.159100 C 19.670906,16.114077 19.177785,16.754596 19.144153,16.671792 z "
     id="path636"
     sodipodi:nodetypes="cssss" />
  <path
     style="font-size:12;opacity:0.302675;fill-rule:evenodd;stroke-width:1.25;"
     d="M 21.719109,39.223413 C 21.360007,38.619897 25.235682,26.202853 26.189222,25.801931 C 26.904878,25.499720 43.157667,28.524126 43.492560,29.199773 C 43.861780,30.025081 40.021581,43.537425 39.204416,43.843219 C 38.408887,44.170577 22.110099,39.939269 21.719109,39.223413 z "
     id="path737"
     sodipodi:nodetypes="cssss" />
  <path
     style="font-size:12.000000;fill:url(#linearGradient638);fill-rule:evenodd;stroke:#000000;stroke-width:0.97653872;"
     d="M 21.793067,37.839594 C 21.452705,37.267575 25.126123,25.498532 26.029898,25.118532 C 26.708208,24.832094 42.112821,27.698665 42.430235,28.339055 C 42.780187,29.121292 39.140394,41.928472 38.365876,42.218309 C 37.611860,42.528583 22.163652,38.518092 21.793067,37.839594 z "
     id="path738"
     sodipodi:nodetypes="cssss" />
  <path
     style="font-size:12.000000;fill:url(#linearGradient640);fill-rule:evenodd;stroke:#000000;stroke-width:0.97653872;"
     d="M 25.185246,27.096341 C 24.928029,26.958263 25.786286,25.267129 26.029898,25.118532 C 26.629799,24.695682 41.994278,27.769949 42.430235,28.339055 C 42.621630,28.616293 42.218553,30.320374 41.811821,30.530035 C 41.144937,30.994565 25.788725,27.587622 25.185246,27.096341 z "
     id="path739"
     sodipodi:nodetypes="cssss" />
  <path
     style="font-size:12;fill-rule:evenodd;stroke-width:1pt;"
     d="M 39.894207,28.396329 C 39.745558,28.494423 40.125130,29.015962 40.118440,29.110505 C 40.113658,29.196010 39.470152,29.464482 39.553731,29.584200 C 39.621088,29.708436 40.291193,29.313893 40.381578,29.346767 C 40.449693,29.367101 40.669366,29.930786 40.813853,29.866336 C 40.954927,29.792948 40.682404,29.243335 40.694084,29.150010 C 40.720704,29.067260 41.422528,28.848267 41.364349,28.725487 C 41.279104,28.594325 40.528743,28.948054 40.427458,28.898782 C 40.342762,28.848218 40.040195,28.311796 39.894207,28.396329 z "
     id="path740"
     sodipodi:nodetypes="cssssssss" />
  <path
     style="font-size:12;fill:url(#linearGradient645);fill-rule:evenodd;stroke-width:1pt;"
     d="M 26.005782,26.474262 C 25.975045,26.398585 26.169622,25.654796 26.459468,25.694798 C 31.026163,26.325044 40.547602,28.416545 40.575407,28.485003 C 40.602749,28.552324 31.244657,26.739701 26.624909,26.102132 C 26.388115,26.069452 26.030192,26.534363 26.005782,26.474262 z "
     id="path741"
     sodipodi:nodetypes="cssss" />
  <text
     xml:space="preserve"
     style="fill:black;fill-opacity:1;stroke:none;font-family:helvetica;font-style:normal;font-weight:normal;font-size:12px;stroke-opacity:1;stroke-width:1pt;stroke-linejoin:miter;stroke-linecap:butt;"
     x="99.286579"
     y="70.380408"
     id="text863"
     transform="scale(0.975075,0.836110)"><tspan
       id="tspan864"></tspan></text>
  <rect
     style="fill:#000000;fill-opacity:0.30000001;fill-rule:evenodd;stroke:none;stroke-width:1.0000000pt;stroke-opacity:1.0000000;"
     id="rect937"
     x="28.226574"
     y="39.395287"
     rx="0.70483023"
     width="30.710464"
     height="12.888113" />
  <rect
     style="fill:#d9cce6;fill-opacity:0.80000001;fill-rule:evenodd;stroke:#261933;stroke-width:1.2500000;stroke-dasharray:none;"
     id="rect862"
     x="26.323563"
     y="37.806450"
     rx="0.69999999"
     width="30.500000"
     height="12.750523" />
  <text
     xml:space="preserve"
     style="fill:black;fill-opacity:1;stroke:none;font-family:helvetica;font-style:normal;font-weight:normal;font-size:12px;stroke-opacity:1;stroke-width:1pt;stroke-linejoin:miter;stroke-linecap:butt;"
     x="32.536951"
     y="45.961130"
     id="text892"><tspan
       id="tspan893"></tspan></text>
  <path
     style="font-size:12.000000;stroke-width:1.0000000pt;font-family:Radio Stars;"
     d="M 54.406007,46.651843 C 54.406007,47.195843 54.138007,47.467843 53.602007,47.467843 L 46.318007,47.467843 L 46.318007,40.651843 L 47.926007,40.651843 C 49.870007,40.651843 51.426007,41.175843 52.594007,42.223843 C 53.802007,43.303843 54.406007,44.779843 54.406007,46.651843 z M 52.798007,45.835843 C 52.782007,45.355843 52.614007,44.867843 52.294007,44.371843 C 52.014007,43.947843 51.658007,43.567843 51.226007,43.231843 C 50.386007,42.599843 49.486007,42.283843 48.526007,42.283843 L 47.926007,42.283843 L 47.926007,45.835843 L 52.798007,45.835843 z M 45.598007,41.707843 L 43.978007,46.891843 C 43.834007,47.363843 43.578007,47.599843 43.210007,47.599843 C 42.842007,47.599843 42.582007,47.363843 42.430007,46.891843 L 41.578007,44.179843 L 40.738007,46.891843 C 40.586007,47.363843 40.330007,47.599843 39.970007,47.599843 C 39.602007,47.599843 39.346007,47.363843 39.202007,46.891843 L 37.570007,41.707843 C 37.546007,41.611843 37.534007,41.519843 37.534007,41.431843 C 37.534007,41.207843 37.618007,41.023843 37.786007,40.879843 C 37.954007,40.735843 38.150007,40.663843 38.374007,40.663843 C 38.750007,40.663843 38.998007,40.851843 39.118007,41.227843 L 39.970007,43.939843 L 40.810007,41.227843 C 40.954007,40.755843 41.210007,40.519843 41.578007,40.519843 C 41.946007,40.519843 42.206007,40.755843 42.358007,41.227843 L 43.210007,43.939843 L 44.050007,41.227843 C 44.170007,40.851843 44.422007,40.663843 44.806007,40.663843 C 45.022007,40.663843 45.214007,40.735843 45.382007,40.879843 C 45.558007,41.023843 45.646007,41.207843 45.646007,41.431843 C 45.646007,41.519843 45.630007,41.611843 45.598007,41.707843 z M 36.478007,46.003843 C 36.686007,46.171843 36.790007,46.379843 36.790007,46.627843 C 36.790007,46.851843 36.706007,47.051843 36.538007,47.227843 C 36.378007,47.395843 36.190007,47.479843 35.974007,47.479843 C 35.798007,47.479843 35.630007,47.419843 35.470007,47.299843 L 32.722007,45.103843 C 32.234007,45.495843 31.326007,46.227843 29.998007,47.299843 C 29.838007,47.419843 29.670007,47.479843 29.494007,47.479843 C 29.270007,47.479843 29.074007,47.395843 28.906007,47.227843 C 28.746007,47.051843 28.666007,46.851843 28.666007,46.627843 C 28.666007,46.387843 28.774007,46.179843 28.990007,46.003843 L 31.426007,44.059843 L 28.990007,42.103843 C 28.782007,41.935843 28.678007,41.727843 28.678007,41.479843 C 28.678007,41.263843 28.758007,41.067843 28.918007,40.891843 C 29.078007,40.715843 29.270007,40.627843 29.494007,40.627843 C 29.670007,40.627843 29.838007,40.691843 29.998007,40.819843 C 30.910007,41.555843 31.818007,42.291843 32.722007,43.027843 L 35.470007,40.819843 C 35.630007,40.699843 35.798007,40.639843 35.974007,40.639843 C 36.190007,40.639843 36.378007,40.727843 36.538007,40.903843 C 36.706007,41.071843 36.790007,41.267843 36.790007,41.491843 C 36.790007,41.731843 36.686007,41.935843 36.478007,42.103843 L 34.030007,44.059843 C 34.470007,44.411843 35.286007,45.059843 36.478007,46.003843 z "
     id="path898" />
</svg>
