<?xml version="1.0" encoding="UTF-8" standalone="no"?>
<!DOCTYPE svg PUBLIC "-//W3C//DTD SVG 20010904//EN"
"http://www.w3.org/TR/2001/REC-SVG-20010904/DTD/svg10.dtd">
<!-- Created with Inkscape (http://www.inkscape.org/) -->
<svg
   version="1.0"
   x="0"
   y="0"
   width="48pt"
   height="48pt"
   id="svg1"
   sodipodi:version="0.32"
   inkscape:version="0.38"
   sodipodi:docname="gnome-mime-application-x-rpm.svg"
   sodipodi:docbase="/home/dan/Projects/Lila-icons/scalable/mimetypes"
   xmlns="http://www.w3.org/2000/svg"
   xmlns:inkscape="http://www.inkscape.org/namespaces/inkscape"
   xmlns:sodipodi="http://sodipodi.sourceforge.net/DTD/sodipodi-0.dtd"
   xmlns:xml="http://www.w3.org/XML/1998/namespace"
   xmlns:xlink="http://www.w3.org/1999/xlink">
  <sodipodi:namedview
     id="base"
     pagecolor="#ffffff"
     bordercolor="#666666"
     borderopacity="1.0"
     inkscape:pageopacity="0.0"
     inkscape:pageshadow="2"
     inkscape:zoom="5.6399999"
     inkscape:cx="21.698531"
     inkscape:cy="24.227218"
     inkscape:window-width="640"
     inkscape:window-height="503"
     inkscape:window-x="50"
     inkscape:window-y="65"
     showguides="true"
     snaptoguides="true" />
  <defs
     id="defs3">
    <linearGradient
       xlink:href="#linearGradient570"
       id="linearGradient689"
       x1="0.00000000"
       y1="0.00000000"
       x2="0.99206346"
       y2="1.00781250" />
    <linearGradient
       xlink:href="#linearGradient570"
       id="linearGradient691"
       x1="-0.08394161"
       y1="-0.61538464"
       x2="0.99635035"
       y2="0.92307693" />
    <linearGradient
       id="linearGradient570">
      <stop
         style="stop-color:#ffffff;stop-opacity:1;"
         offset="0"
         id="stop571" />
      <stop
         style="stop-color:#ffffff;stop-opacity:0;"
         offset="1"
         id="stop572" />
    </linearGradient>
    <linearGradient
       id="linearGradient563">
      <stop
         style="stop-color:#d9cce6;stop-opacity:1;"
         offset="0.00000000"
         id="stop564" />
      <stop
         style="stop-color:#73667f;stop-opacity:1;"
         offset="1.00000000"
         id="stop565" />
    </linearGradient>
    <linearGradient
       x1="0.01973684"
       y1="0.00000000"
       x2="0.98026317"
       y2="0.96875000"
       id="linearGradient566"
       xlink:href="#linearGradient563" />
    <linearGradient
       x1="0.007275"
       y1="0.062497"
       x2="1.003636"
       y2="0.968750"
       id="linearGradient569"
       xlink:href="#linearGradient570" />
    <linearGradient
       x1="0.017699"
       y1="0.007811"
       x2="0.982301"
       y2="0.992187"
       id="linearGradient573"
       xlink:href="#linearGradient570" />
    <linearGradient
       x1="0.040005"
       y1="0.015624"
       x2="1.000000"
       y2="0.984375"
       id="linearGradient575"
       xlink:href="#linearGradient570" />
    <linearGradient
       id="linearGradient578"
       xlink:href="#linearGradient570" />
  </defs>
  <path
     d="M 4.3319537 47.873335 C 5.5354626 49.08791 32.414949 55.868816 34.128038 55.495694 C 35.62272 55.308702 57.235768 45.549036 58.103536 44.547352 C 59.311466 42.960228 59.076803 14.61038 57.964972 13.3653 C 56.728509 11.783464 29.977412 8.6103101 28.168778 8.6533255 C 26.523477 8.8185403 4.7976325 13.532396 3.9162388 14.751165 C 3.2688576 15.748208 3.1247203 46.794797 4.3319537 47.873335 z "
     style="font-size:12;opacity:0.302675;fill-rule:evenodd;stroke-width:12.5;"
     id="path1168" />
  <path
     d="M 4.010611 45.413592 C 5.1626968 46.576279 30.893688 53.067459 32.533582 52.710287 C 33.964399 52.531272 54.653991 43.188604 55.484682 42.229719 C 56.641001 40.710399 56.416364 13.571863 55.352037 12.37998 C 54.168404 10.865731 28.560298 7.8281654 26.82894 7.8693346 C 25.25394 8.0275058 4.4563917 12.539925 3.6126274 13.706627 C 2.992905 14.661066 2.8549262 44.381133 4.010611 45.413592 z "
     style="font-size:12;fill:url(#linearGradient566);fill-rule:evenodd;stroke:#261933;stroke-width:1.875;stroke-dasharray:none;"
     id="path1164" />
  <path
     d="M 5.0719434 44.352349 C 4.5987439 43.642541 3.9794786 15.751129 4.9392786 14.900626 C 5.5970982 14.332895 29.941467 18.441686 30.410962 19.145973 C 30.825831 19.768334 11.65524 15.004167 7.5926113 18.880586 C 4.3212608 21.995866 5.4831918 44.969189 5.0719434 44.352349 z "
     style="font-size:12;opacity:0.990000;fill:url(#linearGradient573);fill-rule:evenodd;stroke:none;stroke-width:0.105861pt;"
     id="path1165" />
  <path
     d="M 33.197014 50.056975 C 32.832639 49.738123 32.229866 20.05564 32.931619 19.278622 C 33.690219 18.424426 52.862291 14.314057 53.229417 14.635347 C 53.569762 14.933138 36.707895 18.09034 35.05424 21.135954 C 32.494519 25.690205 33.540107 50.357204 33.197014 50.056975 z "
     style="font-size:12;opacity:0.990000;fill:url(#linearGradient575);fill-rule:evenodd;stroke:none;stroke-width:0.105861pt;"
     id="path1166" />
  <path
     d="M 9.3171936 13.44133 C 9.3171936 13.173935 25.266961 9.3573257 27.359729 9.3287384 C 29.067691 9.3036461 46.198125 11.450417 46.198125 11.716647 C 46.198125 11.980994 33.612199 10.628286 27.359729 10.920683 C 21.318556 11.203222 9.3171936 13.70462 9.3171936 13.44133 z "
     style="font-size:12;opacity:0.990000;fill:url(#linearGradient569);fill-rule:evenodd;stroke:none;stroke-width:0.105861pt;"
     id="path1167" />
  <rect
     style="fill:#000000;fill-opacity:0.30000001;fill-rule:evenodd;stroke:none;stroke-width:1.0000000pt;stroke-opacity:1.0000000;"
     id="rect937"
     x="28.640162"
     y="39.164196"
     rx="0.70483023"
     width="30.710464"
     height="12.888113" />
  <rect
     style="fill:#d9cce6;fill-opacity:0.80000001;fill-rule:evenodd;stroke:#261933;stroke-width:1.2500000;stroke-dasharray:none;"
     id="rect862"
     x="26.737149"
     y="37.575356"
     rx="0.69999999"
     width="30.500000"
     height="12.750523" />
  <text
     xml:space="preserve"
     style="fill:black;fill-opacity:1;stroke:none;font-family:helvetica;font-style:normal;font-weight:normal;font-size:12px;stroke-opacity:1;stroke-width:1pt;stroke-linejoin:miter;stroke-linecap:butt;"
     x="32.507458"
     y="45.730038"
     id="text863"><tspan
       id="tspan864"></tspan></text>
  <path
     style="font-size:12.000000;stroke-width:1.0000000pt;font-family:Radio Stars;"
     d="M 55.381257,46.725004 C 55.381257,46.981004 55.301257,47.181004 55.141257,47.325004 C 54.981257,47.461004 54.789257,47.529004 54.565257,47.529004 C 54.349257,47.529004 54.161257,47.461004 54.001257,47.325004 C 53.841257,47.181004 53.761257,46.981004 53.761257,46.725004 L 53.761257,44.361004 L 52.021257,47.157004 C 51.813257,47.485004 51.581257,47.649004 51.325257,47.649004 C 51.077257,47.649004 50.849257,47.485004 50.641257,47.157004 L 48.901257,44.361004 L 48.901257,46.725004 C 48.901257,46.981004 48.821257,47.181004 48.661257,47.325004 C 48.501257,47.461004 48.309257,47.529004 48.085257,47.529004 C 47.869257,47.529004 47.681257,47.461004 47.521257,47.325004 C 47.361257,47.181004 47.281257,46.981004 47.281257,46.725004 L 47.281257,41.541004 C 47.281257,41.253004 47.353257,41.025004 47.497257,40.857004 C 47.641257,40.689004 47.813257,40.605004 48.013257,40.605004 C 48.317257,40.605004 48.573257,40.773004 48.781257,41.109004 L 51.325257,45.201004 L 53.893257,41.109004 C 54.101257,40.773004 54.353257,40.605004 54.649257,40.605004 C 54.849257,40.605004 55.021257,40.689004 55.165257,40.857004 C 55.309257,41.025004 55.381257,41.253004 55.381257,41.541004 L 55.381257,46.725004 z M 46.285257,44.133004 C 46.285257,44.677004 46.013257,44.949004 45.469257,44.949004 L 39.805257,44.949004 L 39.805257,46.725004 C 39.805257,46.981004 39.725257,47.181004 39.565257,47.325004 C 39.405257,47.461004 39.213257,47.529004 38.989257,47.529004 C 38.773257,47.529004 38.585257,47.461004 38.425257,47.325004 C 38.265257,47.181004 38.185257,46.981004 38.185257,46.725004 L 38.185257,40.725004 L 45.469257,40.725004 C 46.013257,40.725004 46.285257,40.997004 46.285257,41.541004 L 46.285257,44.133004 z M 44.665257,43.317004 L 44.665257,42.357004 L 39.805257,42.357004 L 39.805257,43.317004 L 44.665257,43.317004 z M 36.781257,44.133004 C 36.781257,44.677004 36.513257,44.949004 35.977257,44.949004 L 33.709257,44.949004 C 34.165257,45.133004 35.021257,45.477004 36.277257,45.981004 C 36.621257,46.117004 36.793257,46.357004 36.793257,46.701004 C 36.793257,46.917004 36.717257,47.113004 36.565257,47.289004 C 36.421257,47.457004 36.237257,47.541004 36.013257,47.541004 C 35.901257,47.541004 35.789257,47.517004 35.677257,47.469004 L 30.301257,45.309004 L 30.301257,46.725004 C 30.301257,46.981004 30.221257,47.181004 30.061257,47.325004 C 29.901257,47.461004 29.713257,47.529004 29.497257,47.529004 C 29.281257,47.529004 29.093257,47.461004 28.933257,47.325004 C 28.773257,47.181004 28.693257,46.981004 28.693257,46.725004 L 28.693257,41.541004 C 28.693257,40.997004 28.961257,40.725004 29.497257,40.725004 L 35.977257,40.725004 C 36.513257,40.725004 36.781257,40.997004 36.781257,41.541004 L 36.781257,44.133004 z M 35.173257,43.317004 L 35.173257,42.357004 L 30.301257,42.357004 L 30.301257,43.317004 L 35.173257,43.317004 z "
     id="path914" />
  <path
     style="font-size:12;fill:#261933;fill-rule:evenodd;stroke:#000000;stroke-width:0.792437;"
     d="M 6.4945230,29.862925 C 6.5618770,26.868493 12.474105,20.854005 20.640017,22.333872 C 30.513044,24.458315 31.544257,32.104332 31.078024,34.483027 C 30.855932,35.492611 27.172692,34.665935 26.572000,33.969681 C 25.823005,33.240088 27.560327,25.420263 20.126674,24.102058 C 13.481015,22.905220 10.969750,29.723312 9.9168200,31.003692 C 9.5910260,31.349945 6.4302060,30.705101 6.4945230,29.862925 z "
     id="path614"
     sodipodi:nodetypes="cssssss" />
  <path
     style="font-size:12;fill:#990000;fill-rule:evenodd;stroke:#660000;stroke-width:0.792437;fill-opacity:1;"
     d="M 23.035626,23.018332 C 30.741197,25.941310 31.544257,32.104332 31.078024,34.483027 C 30.855932,35.492611 27.172692,34.665935 26.572000,33.969681 C 25.823005,33.240088 27.446250,28.158101 22.522283,24.786518 C 21.580453,24.616368 22.170615,22.793307 23.035626,23.018332 z "
     id="path615"
     sodipodi:nodetypes="csscc" />
  <path
     sodipodi:type="arc"
     style="font-size:12;fill:#261933;fill-rule:evenodd;stroke-width:1pt;fill-opacity:1;"
     id="path616"
     sodipodi:cx="16.60000610"
     sodipodi:cy="30.71381187"
     sodipodi:rx="0.85474283"
     sodipodi:ry="0.85474283"
     d="M 17.454749 30.713812 A 0.854743 0.854743 0 1 0 15.745263,30.713812 A 0.854743 0.854743 0 1 0 17.4547 30.7138 L 16.600006 30.713812 z"
     transform="matrix(1.267899,0.000000,0.000000,1.267899,-2.973829,-6.968664)" />
  <path
     style="fill:#261933;fill-rule:evenodd;stroke:none;stroke-opacity:1;stroke-width:1pt;stroke-linejoin:miter;stroke-linecap:butt;fill-opacity:1;"
     d="M 18.358487,32.030380 C 18.321568,32.418020 19.634415,33.247845 20.411865,33.285222 C 23.589070,33.437972 30.184230,33.002079 30.222451,32.600762 C 30.260281,32.203544 23.773527,31.040263 20.640019,30.889614 C 19.818873,30.850135 18.397619,31.619483 18.358487,32.030380 z "
     id="path617"
     sodipodi:nodetypes="cssss" />
  <path
     style="fill:url(#linearGradient578);fill-rule:evenodd;stroke:none;stroke-opacity:1;stroke-width:1pt;stroke-linejoin:miter;stroke-linecap:butt;fill-opacity:1;"
     d="M 7.0273070,29.430561 C 6.9734790,29.247545 9.2610180,23.594896 16.125034,22.623171 C 19.480517,22.157149 23.005511,22.820769 23.059665,23.004894 C 23.111545,23.181285 19.851689,22.701546 16.315895,23.322996 C 8.8193110,24.484800 7.0795130,29.608061 7.0273070,29.430561 z "
     id="path686"
     sodipodi:nodetypes="cssss" />
  <path
     style="fill:url(#linearGradient689);fill-rule:evenodd;stroke:none;stroke-opacity:1;stroke-width:1pt;stroke-linejoin:miter;stroke-linecap:butt;fill-opacity:1;"
     d="M 17.333823,32.229862 C 17.249770,32.246673 17.468282,31.586439 17.651925,31.402796 C 17.786384,31.268337 18.322555,31.186049 18.288130,31.275555 C 18.216521,31.461738 17.461838,32.204259 17.333823,32.229862 z "
     id="path687"
     sodipodi:nodetypes="csss" />
  <path
     style="fill:url(#linearGradient691);fill-rule:evenodd;stroke:none;stroke-opacity:1;stroke-width:1pt;stroke-linejoin:miter;stroke-linecap:butt;fill-opacity:1;"
     d="M 19.306057,31.784519 C 19.031367,31.755604 20.049069,31.334897 20.451226,31.339175 C 22.042510,31.356103 25.457549,31.781574 25.286382,31.848139 C 25.075826,31.930022 20.643086,31.925259 19.306057,31.784519 z "
     id="path690"
     sodipodi:nodetypes="csss" />
</svg>
