<?xml version="1.0" encoding="UTF-8" standalone="no"?>
<!DOCTYPE svg PUBLIC "-//W3C//DTD SVG 20010904//EN"
"http://www.w3.org/TR/2001/REC-SVG-20010904/DTD/svg10.dtd">
<!-- Created with Inkscape (http://www.inkscape.org/) -->
<svg
   id="svg1"
   sodipodi:version="0.32"
   inkscape:version="0.38.1"
   width="48pt"
   height="48pt"
   sodipodi:docbase="/root/Desktop/mimes"
   sodipodi:docname="gnome-mime-application-x-python-bytecode.svg"
   xmlns="http://www.w3.org/2000/svg"
   xmlns:inkscape="http://www.inkscape.org/namespaces/inkscape"
   xmlns:sodipodi="http://sodipodi.sourceforge.net/DTD/sodipodi-0.dtd"
   xmlns:xlink="http://www.w3.org/1999/xlink">
  <defs
     id="defs3">
    <linearGradient
       id="linearGradient708">
      <stop
         style="stop-color:#fdd700;stop-opacity:1;"
         offset="0.00000000"
         id="stop709" />
      <stop
         style="stop-color:#e6ff52;stop-opacity:1;"
         offset="1.00000000"
         id="stop710" />
    </linearGradient>
    <linearGradient
       id="linearGradient642">
      <stop
         style="stop-color:#19cc00;stop-opacity:1;"
         offset="0.00000000"
         id="stop643" />
      <stop
         style="stop-color:#cce6cc;stop-opacity:1;"
         offset="1.00000000"
         id="stop644" />
    </linearGradient>
    <linearGradient
       id="linearGradient866">
      <stop
         style="stop-color:#ffffff;stop-opacity:1;"
         offset="0.00000000"
         id="stop867" />
      <stop
         style="stop-color:#d9cce6;stop-opacity:1;"
         offset="1.00000000"
         id="stop868" />
    </linearGradient>
    <linearGradient
       id="linearGradient584">
      <stop
         style="stop-color:#ffffff;stop-opacity:1;"
         offset="0.00000000"
         id="stop585" />
      <stop
         style="stop-color:#ffffff;stop-opacity:0;"
         offset="1.00000000"
         id="stop586" />
    </linearGradient>
    <linearGradient
       xlink:href="#linearGradient866"
       id="linearGradient586"
       x1="-0.00000000"
       y1="0.01562500"
       x2="0.99122804"
       y2="0.98437500" />
    <linearGradient
       xlink:href="#linearGradient584"
       id="linearGradient587"
       x1="0.00000000"
       y1="-0.00000000"
       x2="1.00000000"
       y2="1.00000000" />
    <linearGradient
       xlink:href="#linearGradient642"
       id="linearGradient638"
       x1="0.96923077"
       y1="0.97656250"
       x2="0.03076923"
       y2="0.00781250" />
    <radialGradient
       xlink:href="#linearGradient866"
       id="radialGradient639" />
    <linearGradient
       xlink:href="#linearGradient584"
       id="linearGradient640"
       x1="-0.00000000"
       y1="0.00000000"
       x2="0.99193549"
       y2="1.00000000" />
    <linearGradient
       xlink:href="#linearGradient584"
       id="linearGradient641"
       x1="0.00000000"
       y1="-0.00000000"
       x2="1.00364959"
       y2="1.03125000" />
    <linearGradient
       xlink:href="#linearGradient708"
       id="linearGradient645"
       x1="0.98235291"
       y1="0.99218750"
       x2="0.00588235"
       y2="0.01562500" />
  </defs>
  <sodipodi:namedview
     id="base"
     pagecolor="#ffffff"
     bordercolor="#666666"
     borderopacity="1.0"
     inkscape:pageopacity="0.0"
     inkscape:pageshadow="2"
     inkscape:zoom="5.6423387"
     inkscape:cx="12.876655"
     inkscape:cy="26.976033"
     inkscape:window-width="640"
     inkscape:window-height="516"
     inkscape:window-x="65"
     inkscape:window-y="123" />
  <path
     d="M 12.899661 26.979691 C 11.141654 27.466572 6.4908998 29.07746 5.8923928 29.905958 C 5.0822258 31.166744 3.9303498 31.422214 3.1741178 31.315467 C 2.4603478 31.126405 3.2763168 30.707354 2.9683028 30.08055 C 2.6404838 29.516422 1.8584698 29.627634 2.0421138 29.051476 C 2.2869248 28.420523 3.2683008 28.291927 4.8206658 28.022302 C 6.7141938 27.699806 12.324417 25.106443 14.637733 25.938071 C 14.949517 26.05201 13.371383 26.84907 12.899661 26.979691 z "
     style="font-size:12;fill:#b33f00;fill-rule:evenodd;stroke:#3f0000;stroke-width:1.25;stroke-dasharray:none;"
     id="path1139" />
  <path
     d="M 4.4389304 48.086315 C 5.2483181 50.50443 38.765774 61.377487 40.966438 59.55288 C 42.936267 57.902492 57.675565 8.7785888 56.688667 6.8303779 C 55.662821 4.6824777 21.657054 -0.6675724 20.042945 0.80153134 C 18.054709 2.621752 3.5888672 45.311841 4.4389304 48.086315 z "
     style="font-size:12;opacity:0.302675;fill-rule:evenodd;stroke-width:12.5;"
     id="path639" />
  <path
     d="M 4.5541516 46.08493 C 5.3114351 48.34726 36.66955 58.519843 38.728432 56.812781 C 40.571358 55.268717 54.36111 9.3095333 53.437795 7.4867937 C 52.478034 5.477268 20.663028 0.47192513 19.152904 1.8463842 C 17.292759 3.5493405 3.7588508 43.489198 4.5541516 46.08493 z "
     style="font-size:12;fill:url(#linearGradient586);fill-rule:evenodd;stroke:#261933;stroke-width:1.87726;"
     id="path634" />
  <path
     d="M 6.6876568 43.965773 C 6.360392 43.13667 19.363758 4.5872629 20.579427 3.7922731 C 22.09876 2.7554118 46.659814 7.3454032 46.98631 8.172561 C 47.28557 8.9306762 27.823671 5.3906629 23.493845 9.2635774 C 15.189619 16.482895 6.9861475 44.721984 6.6876568 43.965773 z "
     style="font-size:12;opacity:0.699936;fill:url(#linearGradient587);fill-rule:evenodd;stroke:none;stroke-width:0.100121pt;"
     id="path640" />
  <path
     d="M 28.970242 40.487753 C 30.314335 35.616861 37.997554 35.077511 37.556769 31.028041 C 37.221327 27.946275 28.58041 27.216356 23.58548 27.244162 C 19.848406 27.264877 14.802825 31.712066 12.088151 32.046693 C 11.261415 32.148602 13.687313 27.219184 12.524792 27.389641 C 10.349939 27.687374 7.7836358 22.090095 9.0319288 20.694956 C 11.907186 17.481464 20.01916 12.475718 24.895201 13.563721 C 31.75892 15.095351 43.11259 22.544934 44.251354 28.553872 C 45.392644 34.575858 37.68951 36.986232 32.754125 41.943141 C 31.471095 43.231332 34.35632 49.028167 33.50993 48.684037 C 32.663542 48.339792 28.291372 42.677827 28.970242 40.487753 z "
     style="font-size:12;opacity:0.296369;fill-rule:evenodd;stroke-width:12.5;"
     id="path1140" />
  <path
     d="M 26.912096 38.429605 C 28.25619 33.558714 35.939408 33.019364 35.498623 28.969894 C 35.163181 25.888128 26.522264 25.158208 21.527334 25.186015 C 17.79026 25.20673 12.744578 29.653919 10.029975 29.98856 C 9.2032188 30.090455 11.629167 25.161037 10.466584 25.331494 C 8.2917428 25.629227 5.7254398 20.031947 6.9737318 18.636809 C 9.8489388 15.423317 17.961014 10.41757 22.837055 11.505573 C 29.700774 13.037204 41.054444 20.486787 42.193208 26.495724 C 43.3345 32.517711 35.631364 34.928085 30.695979 39.885008 C 29.41295 41.173184 32.298174 46.970019 31.451786 46.62589 C 30.605396 46.281659 26.233226 40.61968 26.912096 38.429605 z "
     style="font-size:12;fill:url(#linearGradient638);fill-rule:evenodd;stroke:#003300;stroke-width:1.875;stroke-dasharray:none;"
     id="path1084" />
  <path
     d="M 10.534937 28.334745 C 12.905221 27.770516 20.801858 22.408093 20.801858 21.92081 C 20.801858 21.486398 13.291719 24.323288 10.637844 24.566126 C 10.343054 24.541664 10.169864 28.389841 10.534937 28.334745 z "
     style="font-size:12;fill:#003300;fill-rule:evenodd;stroke-width:1pt;fill-opacity:1;"
     id="path1127" />
  <ellipse
     cx="173.465805"
     cy="188.096481"
     rx="25.192123"
     ry="25.192123"
     transform="matrix(0.119161,-3.292377e-2,1.587395e-2,5.745267e-2,-3.361510,11.03715)"
     style="font-size:12;fill:#003300;fill-rule:evenodd;stroke-width:12.5;fill-opacity:1;"
     id="path1128" />
  <path
     d="M 22.7676 24.600354 C 22.352089 23.840604 27.35824 21.891544 29.456623 22.233449 C 31.98922 22.64614 35.831537 24.859772 36.660336 26.86433 C 37.306553 28.427299 36.701988 31.84441 33.699894 32.935958 C 34.962906 32.022131 37.902825 28.973425 34.790231 26.88829 C 32.780815 25.534394 29.244723 25.067424 22.7676 24.600354 z "
     style="font-size:12;fill:url(#linearGradient645);fill-rule:evenodd;stroke:#003300;stroke-width:1;stroke-dasharray:none;"
     id="path1129" />
  <path
     d="M 24.510827 24.712772 C 24.337445 24.847642 25.015708 24.946006 25.165737 24.785569 C 26.002522 23.815324 29.088527 22.759463 28.986014 22.748036 C 28.870257 22.735202 25.784251 23.657614 24.510827 24.712772 z "
     style="font-size:12;fill:#3f3f00;fill-rule:evenodd;stroke-width:1pt;"
     id="path1133" />
  <path
     d="M 26.437241 25.014553 C 26.275687 25.140106 26.907446 25.231709 27.047163 25.082282 C 27.826525 24.178676 30.700831 23.195296 30.605294 23.184586 C 30.497524 23.172657 27.623319 24.031876 26.437241 25.014553 z "
     style="font-size:12;fill:#3f3f00;fill-rule:evenodd;stroke-width:1pt;"
     id="path1134" />
  <path
     d="M 28.434526 25.363334 C 28.296831 25.470498 28.83548 25.548549 28.954573 25.421158 C 29.619087 24.650799 32.069694 23.812194 31.988311 23.803093 C 31.896413 23.792886 29.445806 24.525433 28.434526 25.363334 z "
     style="font-size:12;fill:#3f3f00;fill-rule:evenodd;stroke-width:1pt;"
     id="path1135" />
  <path
     d="M 30.069781 26.02897 C 29.944015 26.126831 30.436159 26.198207 30.544939 26.081741 C 31.15203 25.377891 33.390939 24.611881 33.316632 24.603584 C 33.23262 24.594181 30.993712 25.263449 30.069781 26.02897 z "
     style="font-size:12;fill:#3f3f00;fill-rule:evenodd;stroke-width:1pt;"
     id="path1136" />
  <path
     d="M 31.269 26.691863 C 31.152132 26.782849 31.609396 26.849171 31.710393 26.740887 C 32.274416 26.086995 34.354501 25.375364 34.285452 25.367684 C 34.207404 25.358884 32.12732 25.980735 31.269 26.691863 z "
     style="font-size:12;fill:#3f3f00;fill-rule:evenodd;stroke-width:1pt;"
     id="path1137" />
  <path
     d="M 33.125861 26.916599 C 33.05661 26.970489 33.327651 27.009809 33.387502 26.945611 C 33.721832 26.558113 34.954718 26.136234 34.913773 26.131683 C 34.867571 26.12653 33.634685 26.495021 33.125861 26.916599 z "
     style="font-size:12;fill:#3f3f00;fill-rule:evenodd;stroke-width:1pt;"
     id="path1138" />
  <ellipse
     cx="85.505646"
     cy="229.027435"
     rx="5.089626"
     ry="5.089622"
     transform="matrix(0.101098,0.000000,0.000000,0.101098,0.740670,-2.677655)"
     style="font-size:12;fill:#003f00;fill-rule:evenodd;stroke-width:1pt;"
     id="path1141" />
  <path
     d="M 8.6647318 21.711282 C 8.2763248 21.605338 7.3672038 19.802561 7.9443608 19.344391 C 12.22908 15.840143 18.454977 11.105945 25.027436 13.272663 C 25.377535 13.391756 18.991604 11.53328 10.208382 19.961893 C 9.6559838 20.498415 9.0309988 21.811167 8.6647318 21.711282 z "
     style="font-size:12;opacity:0.699936;fill-rule:evenodd;stroke:none;stroke-width:0.0704244pt;fill:url(#linearGradient640);"
     id="path1142" />
  <path
     d="M 17.779846 16.853541 C 17.554702 16.454214 18.083949 15.813456 19.380728 15.252759 C 20.877277 14.621505 22.115318 14.87577 22.145951 14.961702 C 22.175977 15.04561 20.962704 15.080293 19.562704 15.762092 C 18.34195 16.339872 17.817455 17.02117 17.779846 16.853541 z "
     style="font-size:12;opacity:0.7;fill-rule:evenodd;stroke:none;stroke-width:0.0704244pt;fill:url(#linearGradient641);"
     id="path1143" />
  <rect
     style="fill:#000000;fill-opacity:0.30000001;fill-rule:evenodd;stroke:none;stroke-width:1.0000000pt;stroke-opacity:1.0000000;"
     id="rect937"
     x="28.226574"
     y="39.395287"
     rx="0.70483023"
     width="30.710464"
     height="12.888113" />
  <rect
     style="fill:#d9cce6;fill-opacity:0.80000001;fill-rule:evenodd;stroke:#261933;stroke-width:1.2500000;stroke-dasharray:none;"
     id="rect862"
     x="26.323563"
     y="37.806450"
     rx="0.69999999"
     width="30.500000"
     height="12.750523" />
  <text
     xml:space="preserve"
     style="fill:black;fill-opacity:1;stroke:none;font-family:helvetica;font-style:normal;font-weight:normal;font-size:12px;stroke-opacity:1;stroke-width:1pt;stroke-linejoin:miter;stroke-linecap:butt;"
     x="32.536951"
     y="45.961130"
     id="text863"><tspan
       id="tspan864"></tspan></text>
  <path
     style="font-size:12.000000;stroke-width:1.0000000pt;font-family:Radio Stars;"
     d="M 53.033653,47.593797 L 46.553653,47.593797 C 46.009653,47.593797 45.737653,47.321797 45.737653,46.777797 L 45.737653,41.593797 C 45.737653,41.049797 46.009653,40.777797 46.553653,40.777797 L 53.033653,40.777797 C 53.289653,40.777797 53.485653,40.857797 53.621653,41.017797 C 53.765653,41.177797 53.837653,41.369797 53.837653,41.593797 C 53.837653,41.817797 53.765653,42.009797 53.621653,42.169797 C 53.485653,42.329797 53.289653,42.409797 53.033653,42.409797 L 47.357653,42.409797 L 47.357653,45.961797 L 53.033653,45.961797 C 53.289653,45.961797 53.485653,46.041797 53.621653,46.201797 C 53.765653,46.361797 53.837653,46.553797 53.837653,46.777797 C 53.837653,47.001797 53.765653,47.193797 53.621653,47.353797 C 53.485653,47.513797 53.289653,47.593797 53.033653,47.593797 z M 44.933653,42.229797 L 41.993653,44.581797 L 41.993653,46.777797 C 41.993653,47.025797 41.913653,47.221797 41.753653,47.365797 C 41.593653,47.509797 41.405653,47.581797 41.189653,47.581797 C 40.965653,47.581797 40.781653,47.513797 40.637653,47.377797 C 40.469653,47.225797 40.385653,47.025797 40.385653,46.777797 L 40.385653,44.581797 L 37.445653,42.229797 C 37.229653,42.053797 37.121653,41.845797 37.121653,41.605797 C 37.121653,41.381797 37.205653,41.185797 37.373653,41.017797 C 37.533653,40.841797 37.725653,40.753797 37.949653,40.753797 C 38.125653,40.753797 38.293653,40.817797 38.453653,40.945797 C 39.357653,41.673797 40.265653,42.405797 41.177653,43.141797 L 43.925653,40.945797 C 44.077653,40.817797 44.245653,40.753797 44.429653,40.753797 C 44.645653,40.753797 44.833653,40.841797 44.993653,41.017797 C 45.161653,41.193797 45.245653,41.389797 45.245653,41.605797 C 45.245653,41.853797 45.141653,42.061797 44.933653,42.229797 z M 37.445653,44.185797 C 37.445653,44.729797 37.177653,45.001797 36.641653,45.001797 L 30.965653,45.001797 L 30.965653,46.777797 C 30.965653,47.033797 30.885653,47.233797 30.725653,47.377797 C 30.573653,47.513797 30.385653,47.581797 30.161653,47.581797 C 29.945653,47.581797 29.757653,47.513797 29.597653,47.377797 C 29.437653,47.233797 29.357653,47.033797 29.357653,46.777797 L 29.357653,40.777797 L 36.641653,40.777797 C 37.177653,40.777797 37.445653,41.049797 37.445653,41.593797 L 37.445653,44.185797 z M 35.837653,43.369797 L 35.837653,42.409797 L 30.965653,42.409797 L 30.965653,43.369797 L 35.837653,43.369797 z "
     id="path897" />
</svg>
