<?xml version="1.0" encoding="UTF-8" standalone="no"?>
<!DOCTYPE svg PUBLIC "-//W3C//DTD SVG 20010904//EN"
"http://www.w3.org/TR/2001/REC-SVG-20010904/DTD/svg10.dtd">
<!-- Created with Inkscape (http://www.inkscape.org/) -->
<svg
   id="svg1"
   sodipodi:version="0.32"
   inkscape:version="0.37"
   width="48pt"
   height="48pt"
   sodipodi:docbase="/home/dan/Projects/Lila-icons/scalable/mimetypes"
   sodipodi:docname="gnome-mime-application-vnd.sun.xml.draw.svg"
   xmlns="http://www.w3.org/2000/svg"
   xmlns:inkscape="http://www.inkscape.org/namespaces/inkscape"
   xmlns:sodipodi="http://sodipodi.sourceforge.net/DTD/sodipodi-0.dtd"
   xmlns:xlink="http://www.w3.org/1999/xlink">
  <defs
     id="defs3">
    <linearGradient
       id="linearGradient703">
      <stop
         style="stop-color:#d9cce6;stop-opacity:1;"
         offset="0.00000000"
         id="stop704" />
      <stop
         style="stop-color:#73667f;stop-opacity:1;"
         offset="1.00000000"
         id="stop705" />
    </linearGradient>
    <linearGradient
       id="linearGradient866">
      <stop
         style="stop-color:#ffffff;stop-opacity:1;"
         offset="0.00000000"
         id="stop867" />
      <stop
         style="stop-color:#d9cce6;stop-opacity:1;"
         offset="1.00000000"
         id="stop868" />
    </linearGradient>
    <linearGradient
       id="linearGradient584">
      <stop
         style="stop-color:#ffffff;stop-opacity:1;"
         offset="0.00000000"
         id="stop585" />
      <stop
         style="stop-color:#ffffff;stop-opacity:0;"
         offset="1.00000000"
         id="stop586" />
    </linearGradient>
    <linearGradient
       xlink:href="#linearGradient866"
       id="linearGradient586"
       x1="-0.00000000"
       y1="0.01562500"
       x2="0.99122804"
       y2="0.98437500" />
    <linearGradient
       xlink:href="#linearGradient584"
       id="linearGradient587"
       x1="0.00000000"
       y1="-0.00000000"
       x2="1.00000000"
       y2="1.00000000" />
    <linearGradient
       xlink:href="#linearGradient584"
       id="linearGradient700"
       x1="0.00000000"
       y1="-0.00000000"
       x2="0.98453611"
       y2="0.99218750" />
    <linearGradient
       xlink:href="#linearGradient584"
       id="linearGradient701"
       x1="0.00367647"
       y1="0.01562500"
       x2="1.01102936"
       y2="1.01562500" />
    <linearGradient
       xlink:href="#linearGradient703"
       id="linearGradient702"
       x1="-0.00000000"
       y1="0.00000000"
       x2="0.97457629"
       y2="0.96093750" />
    <linearGradient
       xlink:href="#linearGradient584"
       id="linearGradient845"
       x1="-0.00000000"
       y1="-0.00000000"
       x2="0.99635035"
       y2="0.97727275" />
    <radialGradient
       xlink:href="#linearGradient703"
       id="radialGradient846" />
    <linearGradient
       xlink:href="#linearGradient584"
       id="linearGradient847"
       x1="0.00000000"
       y1="-0.00000000"
       x2="0.98540145"
       y2="0.93902439" />
    <linearGradient
       xlink:href="#linearGradient584"
       id="linearGradient848"
       x1="-0.00000000"
       y1="0.00000000"
       x2="1.00364959"
       y2="0.97727275" />
    <linearGradient
       xlink:href="#linearGradient584"
       id="linearGradient849"
       x1="-0.00000000"
       y1="0.00000000"
       x2="1.00000000"
       y2="0.98780489" />
    <linearGradient
       xlink:href="#linearGradient703"
       id="linearGradient850"
       x1="-0.00000000"
       y1="0.00000000"
       x2="1.00000000"
       y2="0.95652175" />
  </defs>
  <sodipodi:namedview
     id="base"
     pagecolor="#ffffff"
     bordercolor="#666666"
     borderopacity="1.0"
     inkscape:pageopacity="0.0"
     inkscape:pageshadow="2"
     inkscape:zoom="3.98973596"
     inkscape:cx="15.4982571"
     inkscape:cy="39.8036135"
     inkscape:window-width="640"
     inkscape:window-height="516"
     inkscape:window-x="104"
     inkscape:window-y="95" />
  <path
     d="M 4.4389304 48.086315 C 5.2483181 50.50443 38.765774 61.377487 40.966438 59.55288 C 42.936267 57.902492 57.675565 8.7785888 56.688667 6.8303779 C 55.662821 4.6824777 21.657054 -0.6675724 20.042945 0.80153134 C 18.054709 2.621752 3.5888672 45.311841 4.4389304 48.086315 z "
     style="font-size:12;opacity:0.302675;fill-rule:evenodd;stroke-width:12.5;"
     id="path639" />
  <path
     d="M 4.5541516 46.08493 C 5.3114351 48.34726 36.66955 58.519843 38.728432 56.812781 C 40.571358 55.268717 54.36111 9.3095333 53.437795 7.4867937 C 52.478034 5.477268 20.663028 0.47192513 19.152904 1.8463842 C 17.292759 3.5493405 3.7588508 43.489198 4.5541516 46.08493 z "
     style="font-size:12;fill:url(#linearGradient586);fill-rule:evenodd;stroke:#261933;stroke-width:1.87726;"
     id="path634" />
  <path
     d="M 30.671764 25.919039 C 27.520906 25.374388 21.33222 28.849429 19.958378 31.508602 C 18.925595 33.507425 24.099097 37.708753 23.451809 39.893213 C 22.856952 41.900925 16.421491 42.377681 16.231855 44.085386 C 16.033421 45.871113 19.840542 49.971488 22.287423 50.373599 C 25.507863 50.90305 31.572849 48.883079 33.233806 46.880167 C 34.212474 45.700048 29.47698 42.404338 30.206025 40.824775 C 31.340205 38.367415 38.750945 37.088387 38.823369 34.769209 C 38.906101 32.119809 33.809201 26.461288 30.671764 25.919039 z "
     style="font-size:12;opacity:0.3;fill-rule:evenodd;stroke-width:6.25;"
     id="path1006" />
  <path
     d="M 29.114258 25.649647 C 26.145588 25.136577 20.314671 28.410676 19.020268 30.916086 C 18.047204 32.799331 22.921558 36.75764 22.311698 38.81579 C 21.751237 40.707492 15.687978 41.156597 15.509224 42.765642 C 15.322348 44.44811 18.909246 48.311389 21.21464 48.690248 C 24.248946 49.18909 29.963152 47.285833 31.528067 45.398817 C 32.450145 44.286939 27.988478 41.181796 28.675362 39.693569 C 29.743959 37.378218 36.726188 36.173236 36.794424 33.988155 C 36.872461 31.491956 32.070196 26.160624 29.114258 25.649647 z "
     style="font-size:12;fill:url(#linearGradient702);fill-rule:evenodd;stroke:#261933;stroke-width:1.875;stroke-dasharray:none;"
     id="path999" />
  <path
     d="M 20.110832 32.074277 C 20.447076 30.708877 24.04754 27.47957 27.528022 27.065212 C 28.062024 26.999824 27.371453 28.969224 26.468386 28.895458 C 22.91657 28.613218 20.006007 32.469716 20.110832 32.074277 z "
     style="font-size:12;opacity:0.699936;fill-rule:evenodd;stroke:none;stroke-width:0.143952pt;fill:url(#linearGradient700);"
     id="path1004" />
  <path
     d="M 16.650385 43.344702 C 16.812479 42.93051 21.536711 41.463884 22.719003 40.551104 C 23.095935 40.290882 22.099009 41.994119 21.466882 42.285066 C 20.076111 42.925235 16.523453 43.669052 16.650385 43.344702 z "
     style="font-size:12;opacity:0.7;fill-rule:evenodd;stroke:none;stroke-width:0.143952pt;fill:url(#linearGradient701);"
     id="path1005" />
  <ellipse
     cx="303.921448"
     cy="288.786926"
     rx="11.397049"
     ry="11.397034"
     transform="matrix(0.182569,0.000000,0.000000,0.172681,-26.97321,-24.03771)"
     style="font-size:12;fill:#261933;fill-rule:evenodd;stroke-width:1pt;"
     id="path1000" />
  <path
     d="M 17.973101 25.402112 L 39.429393 24.975081 L 39.469746 26.14614 L 18.013999 26.497611 L 17.973101 25.402112 z "
     style="font-size:12;fill:#261933;fill-rule:evenodd;stroke-width:1pt;"
     id="path1001" />
  <path
     d="M 6.6876568 43.965773 C 6.360392 43.13667 19.363758 4.5872629 20.579427 3.7922731 C 22.09876 2.7554118 46.659814 7.3454032 46.98631 8.172561 C 47.28557 8.9306762 27.823671 5.3906629 23.493845 9.2635774 C 15.189619 16.482895 6.9861475 44.721984 6.6876568 43.965773 z "
     style="font-size:12;opacity:0.699936;fill:url(#linearGradient587);fill-rule:evenodd;stroke:none;stroke-width:0.100121pt;"
     id="path640" />
  <path
     d="M 18.691141 25.879456 C 18.691141 25.274656 17.912108 24.098382 17.522469 24.098382 C 17.13295 24.098382 16.353916 25.274656 16.353916 25.879456 C 16.353916 26.524464 17.13295 27.848389 17.522469 27.848389 C 17.912108 27.848389 18.691141 26.524464 18.691141 25.879456 z "
     style="font-size:12;fill:#261933;fill-rule:evenodd;stroke-width:1pt;"
     id="path1002" />
  <path
     d="M 4.3362804 23.215726 C 4.3362804 22.582911 11.257639 15.467386 15.013523 14.836037 C 18.024289 14.329829 21.747283 16.882155 24.635989 18.202739 C 27.942559 16.261526 31.625857 14.040843 34.390394 14.370791 C 38.332004 14.619945 45.858252 22.342671 45.858252 23.060457 C 45.858252 23.687064 38.112334 19.310281 34.390394 19.337476 C 30.994364 19.361962 27.815416 21.974581 24.504149 23.215726 C 21.488204 21.664268 18.191224 19.337476 15.013523 19.337476 C 11.468681 19.337476 4.3362804 23.77226 4.3362804 23.215726 z "
     style="font-size:12;fill:#000000;fill-rule:evenodd;stroke:none;stroke-width:2.03405;fill-opacity:1;opacity:0.296369;"
     id="path852"
     sodipodi:nodetypes="ccccccccc" />
  <path
     d="M 41.177527 25.500118 C 41.177527 24.866638 40.356481 23.634586 39.945897 23.634586 C 39.53556 23.634586 38.714513 24.866638 38.714513 25.500118 C 38.714513 26.175714 39.53556 27.56227 39.945897 27.56227 C 40.356481 27.56227 41.177527 26.175714 41.177527 25.500118 z "
     style="font-size:12;fill:#261933;fill-rule:evenodd;stroke-width:1pt;"
     id="path1003" />
  <path
     d="M 2.7361857 21.34895 C 2.7361857 20.716134 9.6575448 13.600609 13.413429 12.96926 C 16.424195 12.463052 19.925651 14.23999 22.814356 15.560574 C 26.120925 13.61936 30.025762 12.174066 32.790298 12.504014 C 36.731909 12.753168 44.258157 20.475893 44.258157 21.193679 C 44.258157 21.820287 36.51224 17.443505 32.790298 17.470699 C 29.394269 17.495185 26.215322 20.107803 22.904054 21.34895 C 19.888111 19.797491 16.59113 17.470699 13.413429 17.470699 C 9.8685859 17.470699 2.7361857 21.905483 2.7361857 21.34895 z "
     style="font-size:12;fill:url(#linearGradient850);fill-rule:evenodd;stroke:#261933;stroke-width:1.875;stroke-dasharray:none;"
     id="path674"
     sodipodi:nodetypes="ccccccccc" />
  <path
     d="M 7.7272786 17.604782 C 7.792575 17.424712 11.972795 14.615054 14.158765 14.181946 C 15.266132 13.962371 17.667459 14.948732 17.607435 15.113844 C 17.543097 15.290655 15.0246 14.961772 13.785872 15.20714 C 11.731455 15.614072 7.6683092 17.766443 7.7272786 17.604782 z "
     style="font-size:12;opacity:0.7;fill-rule:evenodd;stroke:none;stroke-width:0.115296pt;fill:url(#linearGradient847);"
     id="path676"
     sodipodi:nodetypes="ccccc" />
  <path
     d="M 23.905244 17.53732 C 23.970733 17.357346 29.828592 14.335264 32.014466 13.902251 C 33.121929 13.682772 35.523255 14.669229 35.46304 14.834342 C 35.398893 15.011056 32.880492 14.681982 31.641571 14.92754 C 29.58725 15.33457 23.846466 17.699172 23.905244 17.53732 z "
     style="font-size:12;opacity:0.7;fill-rule:evenodd;stroke:none;stroke-width:0.115296pt;fill:url(#linearGradient845);"
     id="path677" />
  <path
     d="M 4.2869952 10.659315 C 4.2869952 10.221223 9.0785876 5.2952104 11.678751 4.8581335 C 13.763077 4.5076904 16.340471 6.2746419 18.340294 7.1888699 C 20.629403 5.8449865 23.179314 4.3076278 25.093178 4.5360482 C 27.821918 4.7085347 33.032271 10.054906 33.032271 10.551822 C 33.032271 10.985618 27.669844 7.9556107 25.093178 7.9744376 C 22.742138 7.9913891 20.541383 9.8000814 18.249022 10.659315 C 16.161113 9.5852549 13.878645 7.9744376 11.678751 7.9744376 C 9.2246897 7.9744376 4.2869952 11.044597 4.2869952 10.659315 z "
     style="font-size:12;fill:#000000;fill-rule:evenodd;stroke:none;stroke-width:2.03405;fill-opacity:1;opacity:0.296369;"
     id="path853"
     sodipodi:nodetypes="ccccccccc" />
  <path
     d="M 3.1792644 9.3669621 C 3.1792644 8.9288688 7.970857 4.0028582 10.57102 3.5657812 C 12.655346 3.2153382 15.343511 4.206902 17.343334 5.1211298 C 19.632442 3.7772458 22.071585 3.0152753 23.985447 3.2436955 C 26.714188 3.4161825 31.92454 8.7625534 31.92454 9.2594699 C 31.92454 9.6932648 26.562113 6.6632594 23.985447 6.6820854 C 21.634408 6.6990369 19.433652 8.5077284 17.141292 9.3669621 C 15.053383 8.2929021 12.770913 6.6820854 10.57102 6.6820854 C 8.1169588 6.6820854 3.1792644 9.752246 3.1792644 9.3669621 z "
     style="font-size:12;fill:url(#linearGradient850);fill-rule:evenodd;stroke:#261933;stroke-width:1.875;stroke-dasharray:none;"
     id="path854"
     sodipodi:nodetypes="ccccccccc" />
  <path
     d="M 6.6345515 6.7749097 C 6.6797557 6.6502493 9.5736833 4.7051488 11.08701 4.4053121 C 11.85363 4.2533024 13.516046 4.9361508 13.474492 5.0504568 C 13.429952 5.1728616 11.68642 4.9451783 10.828859 5.1150444 C 9.4066057 5.39676 6.5937276 6.8868266 6.6345515 6.7749097 z "
     style="font-size:12;opacity:0.7;fill-rule:evenodd;stroke:none;stroke-width:0.115296pt;fill:url(#linearGradient847);"
     id="path855"
     sodipodi:nodetypes="ccccc" />
  <path
     d="M 17.834406 6.7282062 C 17.879744 6.6036123 21.935086 4.5114531 23.448346 4.2116818 C 24.215031 4.0597385 25.877447 4.7426542 25.835761 4.8569601 C 25.791354 4.9792977 24.047889 4.7514823 23.190196 4.9214805 C 21.768007 5.2032632 17.793716 6.840255 17.834406 6.7282062 z "
     style="font-size:12;opacity:0.7;fill-rule:evenodd;stroke:none;stroke-width:0.115296pt;fill:url(#linearGradient845);"
     id="path856" />
</svg>
