<?xml version="1.0" encoding="UTF-8" standalone="no"?>
<!DOCTYPE svg PUBLIC "-//W3C//DTD SVG 20010904//EN"
"http://www.w3.org/TR/2001/REC-SVG-20010904/DTD/svg10.dtd">
<!-- Created with Inkscape (http://www.inkscape.org/) -->
<svg
   id="svg1"
   sodipodi:version="0.32"
   inkscape:version="0.38"
   width="48pt"
   height="48pt"
   sodipodi:docbase="/home/dan/Projects/Lila-icons/scalable/mimetypes"
   sodipodi:docname="gnome-mime-video-mpeg.svg"
   xmlns="http://www.w3.org/2000/svg"
   xmlns:inkscape="http://www.inkscape.org/namespaces/inkscape"
   xmlns:sodipodi="http://sodipodi.sourceforge.net/DTD/sodipodi-0.dtd"
   xmlns:xlink="http://www.w3.org/1999/xlink">
  <defs
     id="defs3">
    <linearGradient
       id="linearGradient642">
      <stop
         style="stop-color:#d9cce6;stop-opacity:1;"
         offset="0.00000000"
         id="stop643" />
      <stop
         style="stop-color:#73667f;stop-opacity:1;"
         offset="1.00000000"
         id="stop644" />
    </linearGradient>
    <linearGradient
       id="linearGradient866">
      <stop
         style="stop-color:#ffffff;stop-opacity:1;"
         offset="0.00000000"
         id="stop867" />
      <stop
         style="stop-color:#d9cce6;stop-opacity:1;"
         offset="1.00000000"
         id="stop868" />
    </linearGradient>
    <linearGradient
       id="linearGradient584">
      <stop
         style="stop-color:#ffffff;stop-opacity:1;"
         offset="0.00000000"
         id="stop585" />
      <stop
         style="stop-color:#ffffff;stop-opacity:0;"
         offset="1.00000000"
         id="stop586" />
    </linearGradient>
    <linearGradient
       xlink:href="#linearGradient866"
       id="linearGradient586"
       x1="-0.00000000"
       y1="0.01562500"
       x2="0.99122804"
       y2="0.98437500" />
    <linearGradient
       xlink:href="#linearGradient584"
       id="linearGradient587"
       x1="0.00000000"
       y1="-0.00000000"
       x2="1.00000000"
       y2="1.00000000" />
    <linearGradient
       xlink:href="#linearGradient642"
       id="linearGradient638"
       x1="0.18478261"
       y1="0.18750000"
       x2="0.65217394"
       y2="0.83593750" />
    <radialGradient
       xlink:href="#linearGradient642"
       id="radialGradient639" />
    <linearGradient
       xlink:href="#linearGradient584"
       id="linearGradient640"
       x1="-0.00000000"
       y1="-0.00000000"
       x2="0.99382716"
       y2="1.00781250" />
    <linearGradient
       xlink:href="#linearGradient584"
       id="linearGradient641"
       x1="0.00000000"
       y1="0.00000000"
       x2="0.99583334"
       y2="1.02343750" />
    <linearGradient
       xlink:href="#linearGradient584"
       id="linearGradient645"
       x1="0.01492537"
       y1="0.00781250"
       x2="0.97761196"
       y2="0.97656250" />
    <linearGradient
       xlink:href="#linearGradient584"
       id="linearGradient822"
       x1="-0.00000000"
       y1="-0.00000000"
       x2="0.99270076"
       y2="1.00000000" />
    <linearGradient
       xlink:href="#linearGradient584"
       id="linearGradient823"
       x1="-0.00000000"
       y1="-0.00000000"
       x2="0.98540145"
       y2="1.00000000" />
    <linearGradient
       xlink:href="#linearGradient584"
       id="linearGradient824"
       x1="0.00000000"
       y1="-0.00000000"
       x2="0.98905110"
       y2="0.96551722" />
    <linearGradient
       xlink:href="#linearGradient584"
       id="linearGradient825"
       x1="0.00000000"
       y1="0.01587302"
       x2="0.99635035"
       y2="0.99206346" />
    <linearGradient
       xlink:href="#linearGradient642"
       id="linearGradient826"
       x1="-0.00423729"
       y1="0.00781250"
       x2="0.98728812"
       y2="0.97656250" />
    <linearGradient
       xlink:href="#linearGradient642"
       id="linearGradient827"
       x1="-0.00000000"
       y1="0.00000000"
       x2="0.96666664"
       y2="0.97656250" />
    <linearGradient
       xlink:href="#linearGradient642"
       id="linearGradient828"
       x1="-0.00000000"
       y1="-0.00000000"
       x2="0.99583334"
       y2="1.02343750" />
  </defs>
  <sodipodi:namedview
     id="base"
     pagecolor="#ffffff"
     bordercolor="#666666"
     borderopacity="1.0"
     inkscape:pageopacity="0.0"
     inkscape:pageshadow="2"
     inkscape:zoom="5.6423387"
     inkscape:cx="34.469492"
     inkscape:cy="19.167934"
     inkscape:window-width="704"
     inkscape:window-height="586"
     inkscape:window-x="33"
     inkscape:window-y="252"
     showguides="true"
     snaptoguides="true" />
  <path
     d="M 4.4389304 48.086315 C 5.2483181 50.50443 38.765774 61.377487 40.966438 59.55288 C 42.936267 57.902492 57.675565 8.7785888 56.688667 6.8303779 C 55.662821 4.6824777 21.657054 -0.6675724 20.042945 0.80153134 C 18.054709 2.621752 3.5888672 45.311841 4.4389304 48.086315 z "
     style="font-size:12;opacity:0.302675;fill-rule:evenodd;stroke-width:12.5;"
     id="path639" />
  <path
     d="M 4.5541516 46.08493 C 5.3114351 48.34726 36.66955 58.519843 38.728432 56.812781 C 40.571358 55.268717 54.36111 9.3095333 53.437795 7.4867937 C 52.478034 5.477268 20.663028 0.47192513 19.152904 1.8463842 C 17.292759 3.5493405 3.7588508 43.489198 4.5541516 46.08493 z "
     style="font-size:12;fill:url(#linearGradient586);fill-rule:evenodd;stroke:#261933;stroke-width:1.87726;"
     id="path634" />
  <path
     d="M 6.6876568 43.965773 C 6.360392 43.13667 19.363758 4.5872629 20.579427 3.7922731 C 22.09876 2.7554118 46.659814 7.3454032 46.98631 8.172561 C 47.28557 8.9306762 27.823671 5.3906629 23.493845 9.2635774 C 15.189619 16.482895 6.9861475 44.721984 6.6876568 43.965773 z "
     style="font-size:12;opacity:0.699936;fill:url(#linearGradient587);fill-rule:evenodd;stroke:none;stroke-width:0.100121pt;"
     id="path640" />
  <path
     d="M 13.300606 41.205203 C 12.684725 39.079596 20.472986 36.337729 21.332108 33.218036 C 22.17656 30.151656 16.974067 25.375634 18.411511 22.646924 C 20.624712 18.445673 27.360005 13.876134 32.28421 12.428015 C 33.555628 12.018308 47.676184 16.85689 47.853461 17.845792 C 47.982607 20.41753 37.368741 23.919795 35.197724 27.829736 C 34.042552 29.910124 38.83584 33.531604 37.874829 35.81678 C 36.036988 40.187526 30.729896 45.846196 26.801172 47.797437 C 25.992203 48.259695 13.559684 41.981854 13.300606 41.205203 z M 39.754982 20.407159 C 39.68282 20.689801 40.718711 21.249266 41.16288 21.168629 C 41.79388 21.054156 42.872208 20.246263 42.980676 19.82195 C 43.051761 19.543927 42.115923 18.986671 41.701668 19.06187 C 41.040819 19.181721 39.862309 19.987591 39.754982 20.407159 z M 35.892409 22.793968 C 35.796846 23.06959 36.782268 23.713806 37.231625 23.670609 C 37.870022 23.609324 39.012168 22.894464 39.155734 22.480714 C 39.249841 22.209645 38.363902 21.576055 37.944778 21.61628 C 37.276213 21.68041 36.034459 22.384898 35.892409 22.793968 z M 32.103456 25.897154 C 32.090615 26.188588 33.219099 26.524229 33.637341 26.354418 C 34.231592 26.1132 35.121766 25.101719 35.141057 24.66419 C 35.153769 24.377562 34.123694 24.023642 33.733537 24.181946 C 33.111205 24.434546 32.122619 25.464557 32.103456 25.897154 z M 32.452378 31.135561 C 32.710989 31.270464 33.492635 30.390091 33.515783 29.939281 C 33.548796 29.298795 33.009061 28.06425 32.6208 27.861612 C 32.366493 27.728796 31.609827 28.512216 31.588195 28.932732 C 31.553666 29.603511 32.06848 30.935074 32.452378 31.135561 z M 34.494627 34.919773 C 34.753237 35.054674 35.534887 34.174303 35.558032 33.723491 C 35.591045 33.083007 35.051311 31.848462 34.663051 31.645824 C 34.408741 31.513009 33.652075 32.296428 33.630447 32.716945 C 33.595915 33.387721 34.11073 34.719286 34.494627 34.919773 z M 32.438402 38.463904 C 32.46661 38.754264 33.631015 38.928187 34.021301 38.701326 C 34.575836 38.379157 35.315172 37.25276 35.272861 36.816813 C 35.245222 36.531259 34.175684 36.325333 33.81158 36.536887 C 33.230863 36.874364 32.396661 38.032825 32.438402 38.463904 z M 29.440581 41.578538 C 29.413384 41.869023 30.523971 42.259817 30.950053 42.110811 C 31.555499 41.899193 32.49431 40.932805 32.535231 40.496667 C 32.561981 40.211052 31.550631 39.806727 31.153134 39.945739 C 30.519101 40.167348 29.480995 41.147334 29.440581 41.578538 z M 25.782038 44.549924 C 25.712976 44.833387 26.755129 45.381218 27.198349 45.295582 C 27.828081 45.17409 28.897178 44.354115 29.000901 43.928541 C 29.068827 43.64982 28.126854 43.103063 27.713355 43.182878 C 27.053898 43.310192 25.884621 44.129154 25.782038 44.549924 z M 29.429704 15.196472 C 29.326738 15.469405 30.294833 16.139597 30.745139 16.108392 C 31.384991 16.064182 32.545602 15.379762 32.700047 14.969897 C 32.801238 14.701495 31.932631 14.04455 31.51243 14.073654 C 30.842347 14.120014 29.582441 14.79124 29.429704 15.196472 z M 25.84857 17.702985 C 25.816886 17.992965 26.921463 18.400767 27.349757 18.258341 C 27.958431 18.056083 28.91185 17.104053 28.959348 16.66861 C 28.990466 16.383438 27.985501 15.963724 27.585852 16.096601 C 26.948468 16.308461 25.895499 17.272476 25.84857 17.702985 z M 22.304629 20.646288 C 22.272944 20.936266 23.37752 21.344073 23.805815 21.201643 C 24.414489 20.999386 25.367908 20.047356 25.415405 19.611913 C 25.446523 19.326742 24.441556 18.906982 24.04191 19.039861 C 23.404526 19.251732 22.351557 20.215779 22.304629 20.646288 z M 20.438897 24.790806 C 20.544391 25.062763 21.71259 24.91578 22.027109 24.592027 C 22.474125 24.132046 22.881677 22.847852 22.723251 22.43948 C 22.619462 22.172015 21.534114 22.262519 21.240656 22.564577 C 20.772579 23.046316 20.282177 24.387048 20.438897 24.790806 z M 22.178898 29.587699 C 22.444084 29.709194 23.179373 28.789608 23.179246 28.338229 C 23.179183 27.696795 22.576393 26.49185 22.178202 26.309449 C 21.917316 26.18998 21.202139 27.011345 21.202203 27.432494 C 21.202329 28.104157 21.785134 29.407388 22.178898 29.587699 z M 23.225101 33.902157 C 23.446267 34.092398 24.407532 33.412514 24.532502 32.978779 C 24.710159 32.362455 24.464831 31.207596 24.132793 30.921983 C 23.915231 30.734902 23.000451 31.156053 22.883828 31.560694 C 22.697825 32.206112 22.896731 33.619769 23.225101 33.902157 z M 20.32784 36.662241 C 20.258775 36.945704 21.300928 37.493532 21.744151 37.407901 C 22.373883 37.286407 23.442979 36.466433 23.546701 36.040857 C 23.614627 35.762135 22.672653 35.21538 22.259156 35.295195 C 21.599698 35.422509 20.430422 36.241469 20.32784 36.662241 z M 16.783959 39.485377 C 16.714895 39.768843 17.757049 40.316671 18.200271 40.231038 C 18.82994 40.109542 19.899039 39.289572 20.002758 38.863992 C 20.070684 38.585273 19.12871 38.038516 18.715214 38.118333 C 18.055819 38.245645 16.886542 39.064607 16.783959 39.485377 z "
     style="font-size:12;opacity:0.302675;fill-rule:evenodd;stroke-width:1.25;"
     id="path738" />
  <path
     d="M 12.07077 40.310788 C 11.454888 38.185184 19.243185 35.443317 20.102307 32.323622 C 20.946755 29.257244 15.744234 24.481221 17.181708 21.752508 C 19.394909 17.551259 26.130204 12.981707 31.054408 11.533591 C 32.325825 11.123881 46.446383 15.962478 46.623659 16.95138 C 46.752805 19.523118 36.13894 23.025379 33.967924 26.935323 C 32.81275 29.01571 37.606036 32.637191 36.645026 34.922365 C 34.807185 39.293112 29.500094 44.951782 25.57137 46.903022 C 24.762401 47.365281 12.32985 41.087441 12.07077 40.310788 z M 38.525179 19.512744 C 38.453017 19.795389 39.48891 20.354854 39.933079 20.274218 C 40.564076 20.159744 41.642408 19.351849 41.750871 18.927537 C 41.821959 18.649511 40.886121 18.09226 40.471863 18.167457 C 39.811017 18.287306 38.632505 19.093176 38.525179 19.512744 z M 34.662607 21.899554 C 34.567045 22.175177 35.552467 22.819392 36.001823 22.776194 C 36.64022 22.714912 37.782365 22.00005 37.925932 21.586301 C 38.02004 21.315233 37.134101 20.681643 36.714976 20.721866 C 36.046411 20.785997 34.804657 21.490485 34.662607 21.899554 z M 30.873654 25.002743 C 30.860815 25.294176 31.989296 25.629817 32.407535 25.460003 C 33.001789 25.218785 33.891964 24.207308 33.911255 23.769776 C 33.923967 23.48315 32.893893 23.12923 32.503734 23.287534 C 31.881402 23.540134 30.892815 24.570144 30.873654 25.002743 z M 31.222577 30.241149 C 31.481187 30.37605 32.262832 29.495679 32.28598 29.044865 C 32.318994 28.404382 31.77926 27.169838 31.390999 26.9672 C 31.13669 26.834385 30.380025 27.617802 30.358394 28.038321 C 30.323864 28.709097 30.838679 30.040662 31.222577 30.241149 z M 33.264825 34.025359 C 33.523436 34.160261 34.305081 33.279888 34.328231 32.829076 C 34.361244 32.188593 33.82151 30.954048 33.433247 30.751409 C 33.178939 30.618596 32.422275 31.402013 32.400644 31.822531 C 32.366112 32.493309 32.880928 33.824872 33.264825 34.025359 z M 31.208599 37.569492 C 31.236805 37.859849 32.401213 38.033774 32.7915 37.806914 C 33.346034 37.484744 34.085367 36.358348 34.043058 35.922398 C 34.01542 35.636847 32.945881 35.43092 32.581778 35.642476 C 32.00106 35.979951 31.166857 37.138412 31.208599 37.569492 z M 28.210781 40.684126 C 28.183583 40.974612 29.294168 41.365405 29.720252 41.216397 C 30.325696 41.00478 31.264508 40.038393 31.305429 39.602255 C 31.332181 39.316638 30.320828 38.912312 29.923332 39.051325 C 29.289299 39.272937 28.251194 40.252921 28.210781 40.684126 z M 24.552236 43.655511 C 24.483172 43.938975 25.525325 44.486805 25.968547 44.401171 C 26.598279 44.279676 27.667376 43.459703 27.771099 43.034125 C 27.839023 42.755406 26.89705 42.208652 26.483553 42.288466 C 25.824095 42.415778 24.654819 43.234739 24.552236 43.655511 z M 28.199902 14.302047 C 28.096938 14.57498 29.06503 15.245171 29.515336 15.213965 C 30.155189 15.169757 31.315801 14.485336 31.470245 14.075471 C 31.571436 13.807071 30.702827 13.150124 30.282628 13.17923 C 29.612544 13.225589 28.352637 13.896817 28.199902 14.302047 z M 24.61877 16.808571 C 24.587083 17.098551 25.691661 17.506355 26.119957 17.363926 C 26.728629 17.161671 27.682049 16.209659 27.729545 15.774216 C 27.760664 15.489044 26.755697 15.069298 26.356051 15.202176 C 25.718667 15.414034 24.665698 16.378061 24.61877 16.808571 z M 21.074827 19.751875 C 21.04314 20.041854 22.147718 20.449659 22.576014 20.307231 C 23.184683 20.104972 24.138106 19.152944 24.185604 18.717501 C 24.216719 18.432328 23.211754 18.01257 22.812109 18.145448 C 22.174723 18.357318 21.121755 19.321366 21.074827 19.751875 z M 19.209095 23.896395 C 19.314587 24.168348 20.482789 24.021364 20.797307 23.697615 C 21.244323 23.237632 21.651876 21.953439 21.493446 21.545064 C 21.389661 21.277602 20.304312 21.368104 20.010853 21.670166 C 19.542777 22.151902 19.052372 23.492637 19.209095 23.896395 z M 20.949096 28.693287 C 21.214282 28.814781 21.949573 27.895195 21.949444 27.443815 C 21.949382 26.802384 21.346592 25.597435 20.948402 25.415038 C 20.687512 25.295565 19.972338 26.116932 19.972401 26.538081 C 19.972528 27.209744 20.55533 28.512975 20.949096 28.693287 z M 21.995296 33.007744 C 22.216466 33.197986 23.177731 32.518101 23.302701 32.084365 C 23.480357 31.46804 23.23503 30.313185 22.902992 30.02757 C 22.685431 29.840491 21.770651 30.261639 21.654026 30.666283 C 21.468022 31.311699 21.666927 32.725355 21.995296 33.007744 z M 19.098035 35.767827 C 19.028972 36.051292 20.071126 36.599122 20.51435 36.513488 C 21.144081 36.391994 22.213177 35.57202 22.3169 35.146443 C 22.384825 34.867721 21.442852 34.320967 21.029353 34.400782 C 20.369896 34.528095 19.200619 35.347056 19.098035 35.767827 z M 15.554126 38.590965 C 15.485062 38.874428 16.527215 39.42226 16.970437 39.336624 C 17.600139 39.215132 18.669234 38.395157 18.772956 37.96958 C 18.840882 37.690859 17.898909 37.144105 17.485411 37.223919 C 16.825984 37.351234 15.656709 38.170195 15.554126 38.590965 z "
     style="font-size:12;fill:#261e2e;fill-rule:evenodd;stroke:#261e2e;stroke-width:0.0625;stroke-dasharray:none;stroke-opacity:1;"
     id="path737" />
  <path
     d="M 18.498664 40.0931 C 18.550016 39.077445 23.463851 35.334155 24.437003 35.246432 C 25.437668 35.14461 29.595785 35.462038 29.670413 36.552763 C 29.875962 37.551279 24.213368 42.513051 23.129977 42.782347 C 22.083144 43.162705 18.444333 41.043106 18.498664 40.0931 z "
     style="font-size:12;fill:url(#linearGradient828);fill-rule:evenodd;stroke:#261933;stroke-width:0.7875;stroke-opacity:1;stroke-dasharray:none;"
     id="path648" />
  <path
     d="M 25.267981 32.225843 C 26.065059 32.775824 30.269916 33.81507 30.893134 33.360715 C 31.567831 32.775001 28.770688 29.78142 28.688911 25.581182 C 28.668927 24.534284 23.563904 24.607332 22.963834 25.424459 C 22.653933 25.897597 24.573107 31.654109 25.267981 32.225843 z "
     style="font-size:12;fill:url(#linearGradient827);fill-rule:evenodd;stroke:#261933;stroke-width:0.7875;stroke-dasharray:none;stroke-opacity:1;"
     id="path649" />
  <path
     d="M 24.138676 21.425532 C 24.230318 22.175557 29.573079 23.245663 30.569444 22.985537 C 31.700585 22.656661 38.102954 18.682021 37.998473 17.837888 C 37.882923 16.767083 32.481787 15.345288 31.267924 15.518643 C 30.037616 15.677452 24.011364 20.508984 24.138676 21.425532 z "
     style="font-size:12;fill:url(#linearGradient826);fill-rule:evenodd;stroke:#261933;stroke-width:0.790566;stroke-opacity:1;"
     id="path650" />
  <path
     d="M 19.948874 39.500303 C 19.948874 39.342379 22.537055 36.765518 24.069108 36.152674 C 25.112147 35.735445 27.674271 36.260886 27.674271 36.410144 C 27.674271 36.561364 25.184625 36.607785 24.069108 37.053981 C 22.609534 37.637797 19.948874 39.642857 19.948874 39.500303 z "
     style="font-size:12;opacity:0.699936;fill:url(#linearGradient825);fill-rule:evenodd;stroke:none;stroke-width:0.0632452pt;"
     id="path656" />
  <path
     d="M 24.148163 27.233778 C 23.928576 27.504846 23.564348 25.945601 23.890627 25.817404 C 24.766068 25.473475 27.710447 25.581688 27.753326 25.817404 C 27.796332 26.053812 25.215616 25.946232 24.148163 27.233778 z "
     style="font-size:12;opacity:0.7;fill:url(#linearGradient824);fill-rule:evenodd;stroke:none;stroke-width:0.0632452pt;"
     id="path657" />
  <path
     d="M 26.135072 20.588039 C 26.157905 20.35947 29.462338 17.039037 31.414081 16.467806 C 32.981677 16.009003 36.714468 17.283984 36.693093 17.497881 C 36.67159 17.713167 32.972697 17.261534 31.285316 17.755414 C 29.453356 18.291606 26.115022 20.788653 26.135072 20.588039 z "
     style="font-size:12;opacity:0.699936;fill:url(#linearGradient823);fill-rule:evenodd;stroke:none;stroke-width:0.0632452pt;"
     id="path658" />
  <path
     d="M 17.995546 22.779548 C 17.951718 20.842917 25.488708 14.724959 30.227413 12.994054 C 32.656155 12.106908 39.453682 14.65983 39.497953 14.925403 C 39.539505 15.174863 32.87903 13.664656 30.484948 14.539134 C 25.711582 16.282695 17.983529 23.034994 17.995546 22.779548 z "
     style="font-size:12;opacity:0.7;fill:url(#linearGradient822);fill-rule:evenodd;stroke:none;stroke-width:0.0632452pt;"
     id="path655" />
  <rect
     style="fill:#000000;fill-opacity:0.30000001;fill-rule:evenodd;stroke:none;stroke-width:1.0000000pt;stroke-opacity:1.0000000;"
     id="rect937"
     x="28.688889"
     y="39.186000"
     rx="0.70483023"
     width="30.710464"
     height="12.888113" />
  <rect
     style="fill:#d9cce6;fill-opacity:0.80000001;fill-rule:evenodd;stroke:#261933;stroke-width:1.2500000;stroke-dasharray:none;"
     id="rect862"
     x="26.785880"
     y="37.597160"
     rx="0.69999999"
     width="30.500000"
     height="12.750523" />
  <text
     xml:space="preserve"
     style="fill:black;fill-opacity:1;stroke:none;font-family:helvetica;font-style:normal;font-weight:normal;font-size:12px;stroke-opacity:1;stroke-width:1pt;stroke-linejoin:miter;stroke-linecap:butt;"
     x="32.556187"
     y="45.751842"
     id="text863"><tspan
       id="tspan864"></tspan></text>
  <path
     style="font-size:12.000000;stroke-width:1.0000000pt;font-family:Radio Stars;"
     d="M 55.386516,46.639452 C 55.386516,47.183452 55.118516,47.455452 54.582516,47.455452 L 48.102516,47.455452 C 47.566516,47.455452 47.298516,47.183452 47.298516,46.639452 L 47.298516,41.455452 C 47.298516,40.911452 47.566516,40.639452 48.102516,40.639452 L 54.582516,40.639452 C 54.838516,40.639452 55.038516,40.719452 55.182516,40.879452 C 55.326516,41.039452 55.398516,41.231452 55.398516,41.455452 C 55.398516,41.679452 55.326516,41.871452 55.182516,42.031452 C 55.038516,42.191452 54.838516,42.271452 54.582516,42.271452 L 48.906516,42.271452 L 48.906516,45.823452 L 53.778516,45.823452 L 53.778516,44.863452 L 51.342516,44.863452 C 51.086516,44.863452 50.886516,44.783452 50.742516,44.623452 C 50.598516,44.463452 50.526516,44.271452 50.526516,44.047452 C 50.526516,43.823452 50.598516,43.631452 50.742516,43.471452 C 50.886516,43.311452 51.086516,43.231452 51.342516,43.231452 L 55.386516,43.231452 L 55.386516,46.639452 z M 46.302516,44.047452 C 46.302516,44.591452 46.030516,44.863452 45.486516,44.863452 L 39.822516,44.863452 L 39.822516,46.639452 C 39.822516,46.895452 39.742516,47.095452 39.582516,47.239452 C 39.422516,47.375452 39.230516,47.443452 39.006516,47.443452 C 38.790516,47.443452 38.602516,47.375452 38.442516,47.239452 C 38.282516,47.095452 38.202516,46.895452 38.202516,46.639452 L 38.202516,40.639452 L 45.486516,40.639452 C 46.030516,40.639452 46.302516,40.911452 46.302516,41.455452 L 46.302516,44.047452 z M 44.682516,43.231452 L 44.682516,42.271452 L 39.822516,42.271452 L 39.822516,43.231452 L 44.682516,43.231452 z M 36.786516,46.639452 C 36.786516,46.895452 36.706516,47.095452 36.546516,47.239452 C 36.386516,47.375452 36.194516,47.443452 35.970516,47.443452 C 35.754516,47.443452 35.566516,47.375452 35.406516,47.239452 C 35.246516,47.095452 35.166516,46.895452 35.166516,46.639452 L 35.166516,44.275452 L 33.426516,47.071452 C 33.218516,47.399452 32.986516,47.563452 32.730516,47.563452 C 32.482516,47.563452 32.254516,47.399452 32.046516,47.071452 L 30.306516,44.275452 L 30.306516,46.639452 C 30.306516,46.895452 30.226516,47.095452 30.066516,47.239452 C 29.906516,47.375452 29.714516,47.443452 29.490516,47.443452 C 29.274516,47.443452 29.086516,47.375452 28.926516,47.239452 C 28.766516,47.095452 28.686516,46.895452 28.686516,46.639452 L 28.686516,41.455452 C 28.686516,41.167452 28.758516,40.939452 28.902516,40.771452 C 29.046516,40.603452 29.218516,40.519452 29.418516,40.519452 C 29.722516,40.519452 29.978516,40.687452 30.186516,41.023452 L 32.730516,45.115452 L 35.298516,41.023452 C 35.506516,40.687452 35.758516,40.519452 36.054516,40.519452 C 36.254516,40.519452 36.426516,40.603452 36.570516,40.771452 C 36.714516,40.939452 36.786516,41.167452 36.786516,41.455452 L 36.786516,46.639452 z "
     id="path1049" />
</svg>
