<?xml version="1.0" encoding="UTF-8" standalone="no"?>
<!DOCTYPE svg PUBLIC "-//W3C//DTD SVG 20010904//EN"
"http://www.w3.org/TR/2001/REC-SVG-20010904/DTD/svg10.dtd">
<!-- Created with Inkscape (http://www.inkscape.org/) -->
<svg
   id="svg1"
   sodipodi:version="0.32"
   inkscape:version="0.38.1"
   width="48pt"
   height="48pt"
   sodipodi:docbase="/root/Desktop/mimes"
   sodipodi:docname="gnome-mime-text-x-vcard.svg"
   xmlns="http://www.w3.org/2000/svg"
   xmlns:inkscape="http://www.inkscape.org/namespaces/inkscape"
   xmlns:sodipodi="http://sodipodi.sourceforge.net/DTD/sodipodi-0.dtd"
   xmlns:xlink="http://www.w3.org/1999/xlink">
  <defs
     id="defs3">
    <linearGradient
       id="linearGradient642">
      <stop
         style="stop-color:#d9cce6;stop-opacity:1;"
         offset="0.00000000"
         id="stop643" />
      <stop
         style="stop-color:#73667f;stop-opacity:1;"
         offset="1.00000000"
         id="stop644" />
    </linearGradient>
    <linearGradient
       id="linearGradient866">
      <stop
         style="stop-color:#ffffff;stop-opacity:1;"
         offset="0.00000000"
         id="stop867" />
      <stop
         style="stop-color:#d9cce6;stop-opacity:1;"
         offset="1.00000000"
         id="stop868" />
    </linearGradient>
    <linearGradient
       id="linearGradient584">
      <stop
         style="stop-color:#ffffff;stop-opacity:1;"
         offset="0.00000000"
         id="stop585" />
      <stop
         style="stop-color:#ffffff;stop-opacity:0;"
         offset="1.00000000"
         id="stop586" />
    </linearGradient>
    <linearGradient
       xlink:href="#linearGradient866"
       id="linearGradient586"
       x1="-0.00000000"
       y1="0.01562500"
       x2="0.99122804"
       y2="0.98437500" />
    <linearGradient
       xlink:href="#linearGradient584"
       id="linearGradient587"
       x1="0.00000000"
       y1="-0.00000000"
       x2="1.00000000"
       y2="1.00000000" />
    <linearGradient
       xlink:href="#linearGradient866"
       id="linearGradient638"
       x1="0.00000000"
       y1="0.00000000"
       x2="0.98684210"
       y2="1.02343750" />
    <radialGradient
       xlink:href="#linearGradient866"
       id="radialGradient639" />
    <linearGradient
       xlink:href="#linearGradient642"
       id="linearGradient640"
       x1="0.00000000"
       y1="-0.00000000"
       x2="0.98684210"
       y2="1.02343750" />
    <linearGradient
       xlink:href="#linearGradient584"
       id="linearGradient641"
       x1="0.00000000"
       y1="0.00000000"
       x2="0.99270076"
       y2="0.95238096" />
    <linearGradient
       xlink:href="#linearGradient584"
       id="linearGradient645"
       x1="-0.00000000"
       y1="-0.00000000"
       x2="0.99270076"
       y2="0.94999999" />
    <linearGradient
       xlink:href="#linearGradient584"
       id="linearGradient699"
       x1="0.00000000"
       y1="0.00000000"
       x2="0.98701298"
       y2="1.00781250" />
    <linearGradient
       xlink:href="#linearGradient584"
       id="linearGradient700"
       x1="-0.00000000"
       y1="-0.00000000"
       x2="0.96875000"
       y2="0.99218750" />
    <linearGradient
       xlink:href="#linearGradient584"
       id="linearGradient701"
       x1="-0.00000000"
       y1="-0.00000000"
       x2="0.97058821"
       y2="0.97656250" />
    <linearGradient
       xlink:href="#linearGradient584"
       id="linearGradient702"
       x1="-0.00000000"
       y1="0.00000000"
       x2="1.01485145"
       y2="1.02343750" />
    <linearGradient
       xlink:href="#linearGradient584"
       id="linearGradient703"
       x1="0.00000000"
       y1="-0.00000000"
       x2="1.01315784"
       y2="1.00781250" />
    <linearGradient
       xlink:href="#linearGradient642"
       id="linearGradient704"
       x1="0.26760563"
       y1="0.31250000"
       x2="0.65492958"
       y2="0.65625000" />
  </defs>
  <sodipodi:namedview
     id="base"
     pagecolor="#ffffff"
     bordercolor="#666666"
     borderopacity="1.0"
     inkscape:pageopacity="0.0"
     inkscape:pageshadow="2"
     inkscape:zoom="7.9794719"
     inkscape:cx="21.350367"
     inkscape:cy="24.273873"
     inkscape:window-width="795"
     inkscape:window-height="763"
     inkscape:window-x="0"
     inkscape:window-y="25" />
  <path
     d="M 4.4389304 48.086315 C 5.2483181 50.50443 38.765774 61.377487 40.966438 59.55288 C 42.936267 57.902492 57.675565 8.7785888 56.688667 6.8303779 C 55.662821 4.6824777 21.657054 -0.6675724 20.042945 0.80153134 C 18.054709 2.621752 3.5888672 45.311841 4.4389304 48.086315 z "
     style="font-size:12;opacity:0.302675;fill-rule:evenodd;stroke-width:12.5;"
     id="path639" />
  <path
     d="M 4.5541516 46.08493 C 5.3114351 48.34726 36.66955 58.519843 38.728432 56.812781 C 40.571358 55.268717 54.36111 9.3095333 53.437795 7.4867937 C 52.478034 5.477268 20.663028 0.47192513 19.152904 1.8463842 C 17.292759 3.5493405 3.7588508 43.489198 4.5541516 46.08493 z "
     style="font-size:12;fill:url(#linearGradient586);fill-rule:evenodd;stroke:#261933;stroke-width:1.87726;"
     id="path634" />
  <path
     d="M 6.6876568 43.965773 C 6.360392 43.13667 19.363758 4.5872629 20.579427 3.7922731 C 22.09876 2.7554118 46.659814 7.3454032 46.98631 8.172561 C 47.28557 8.9306762 27.823671 5.3906629 23.493845 9.2635774 C 15.189619 16.482895 6.9861475 44.721984 6.6876568 43.965773 z "
     style="font-size:12;opacity:0.699936;fill:url(#linearGradient587);fill-rule:evenodd;stroke:none;stroke-width:0.100121pt;"
     id="path640" />
  <g
     id="g626"
     transform="matrix(0.999781,-2.092806e-2,2.092806e-2,0.999781,-0.438159,-0.894269)">
    <path
       style="fill:#000000;fill-rule:evenodd;stroke:none;stroke-opacity:1;stroke-width:1.25;stroke-linejoin:miter;stroke-linecap:butt;fill-opacity:1;stroke-dasharray:none;opacity:0.302675;"
       d="M 12.694234 37.074845 C 12.175239 36.142873 18.381131 17.321417 19.82322 16.739702 C 20.90559 16.301113 45.170787 21.42501 45.651191 22.466265 C 46.178271 23.736915 39.990579 44.230437 38.755941 44.671307 C 37.553044 45.145754 13.25744 38.179201 12.694234 37.074845 z "
       id="path627"
       sodipodi:nodetypes="cssss" />
    <path
       style="fill:url(#linearGradient638);fill-rule:evenodd;stroke:black;stroke-opacity:1;stroke-width:1.25;stroke-linejoin:miter;stroke-linecap:butt;fill-opacity:1;stroke-dasharray:none;"
       d="M 12.849282 34.966055 C 12.357371 34.082719 18.239399 16.24349 19.606231 15.692132 C 20.632115 15.276431 43.630996 20.13293 44.086329 21.119846 C 44.585903 22.324185 38.721125 41.748221 37.550918 42.166084 C 36.410796 42.615771 13.383096 36.012778 12.849282 34.966055 z "
       id="path628"
       sodipodi:nodetypes="cssss" />
    <path
       style="fill:url(#linearGradient640);fill-rule:evenodd;stroke:black;stroke-opacity:1;stroke-width:1.25;stroke-linejoin:miter;stroke-linecap:butt;fill-opacity:1;stroke-dasharray:none;"
       d="M 18.276996 18.682913 C 17.895855 18.464195 19.236326 15.911181 19.606231 15.692132 C 20.518941 15.065869 43.451033 20.237956 44.086329 21.119846 C 44.364364 21.548797 43.70576 24.135843 43.089402 24.442936 C 42.074956 25.130684 19.165881 19.451333 18.276996 18.682913 z "
       id="path629"
       sodipodi:nodetypes="cssss" />
    <path
       style="font-size:12;fill:#261933;fill-rule:evenodd;stroke:none;stroke-width:0.799318pt;fill-opacity:1;"
       d="M 29.629557,26.771327 C 29.425920,26.658590 29.771283,26.058048 29.968741,25.945445 C 30.455919,25.623455 39.225951,27.650361 39.565586,28.104558 C 39.714243,28.325467 39.584861,28.729694 39.255820,28.887517 C 38.714335,29.241114 30.104575,27.167219 29.629557,26.771327 z "
       id="path860"
       sodipodi:nodetypes="cssss" />
    <path
       style="font-size:12;fill:#261933;fill-rule:evenodd;stroke:none;stroke-width:0.799318pt;fill-opacity:1;"
       d="M 28.229320,30.535243 C 28.025683,30.422506 28.371046,29.821964 28.568504,29.709361 C 29.055682,29.387371 37.825714,31.414277 38.165349,31.868474 C 38.314006,32.089383 38.184624,32.493610 37.855583,32.651433 C 37.314098,33.005030 28.704338,30.931135 28.229320,30.535243 z "
       id="path631"
       sodipodi:nodetypes="cssss" />
    <path
       style="fill:#000000;fill-rule:evenodd;stroke:none;stroke-opacity:1;stroke-width:1pt;stroke-linejoin:miter;stroke-linecap:butt;fill-opacity:1;"
       d="M 40.283173 21.12765 C 40.057227 21.272636 40.609521 22.080189 40.596477 22.224214 C 40.586579 22.354506 39.613435 22.743887 39.734891 22.929148 C 39.831886 23.120792 40.848926 22.539915 40.983356 22.592903 C 41.084805 22.626061 41.39608 23.492894 41.614715 23.399104 C 41.828518 23.291573 41.437577 22.444546 41.458063 22.30254 C 41.500609 22.177134 42.559585 21.865068 42.476301 21.675932 C 42.352712 21.47316 41.216678 21.989255 41.066433 21.91091 C 40.941096 21.831114 40.504698 21.003271 40.283173 21.12765 z "
       id="path633"
       sodipodi:nodetypes="cssssssss" />
    <path
       style="fill:url(#linearGradient645);fill-rule:evenodd;stroke:none;stroke-opacity:1;stroke-width:1pt;stroke-linejoin:miter;stroke-linecap:butt;fill-opacity:1;"
       d="M 19.526787 17.759633 C 19.483131 17.643218 19.79854 16.514624 20.231721 16.584743 C 27.056748 17.689513 41.26192 21.178993 41.301411 21.284302 C 41.340246 21.387863 27.371013 18.328956 20.466699 17.211351 C 20.112805 17.154066 19.561457 17.852087 19.526787 17.759633 z "
       id="path636"
       sodipodi:nodetypes="cssss" />
    <path
       style="font-size:12.000000;fill:url(#linearGradient638);fill-rule:evenodd;stroke:#000000;stroke-width:0.75000000;stroke-dasharray:none;"
       d="M 16.449864,32.545178 C 16.272300,32.089017 18.971924,22.547120 19.443410,22.244089 C 19.797274,22.015667 27.676962,24.458274 27.842552,24.968953 C 28.025117,25.592749 25.186384,34.395995 24.782329,34.627124 C 24.388973,34.874555 16.643193,33.086247 16.449864,32.545178 z "
       id="path893"
       sodipodi:nodetypes="cssss" />
  </g>
  <rect
     style="fill:#000000;fill-opacity:0.30000001;fill-rule:evenodd;stroke:none;stroke-width:1.0000000pt;stroke-opacity:1.0000000;"
     id="rect937"
     x="28.226574"
     y="39.395287"
     rx="0.70483023"
     width="30.710464"
     height="12.888113" />
  <rect
     style="fill:#d9cce6;fill-opacity:0.80000001;fill-rule:evenodd;stroke:#261933;stroke-width:1.2500000;stroke-dasharray:none;"
     id="rect862"
     x="26.323563"
     y="37.806450"
     rx="0.69999999"
     width="30.500000"
     height="12.750523" />
  <text
     xml:space="preserve"
     style="fill:black;fill-opacity:1;stroke:none;font-family:helvetica;font-style:normal;font-weight:normal;font-size:12px;stroke-opacity:1;stroke-width:1pt;stroke-linejoin:miter;stroke-linecap:butt;"
     x="32.536951"
     y="45.961130"
     id="text863"><tspan
       id="tspan864"></tspan></text>
  <path
     style="font-size:12.000000;stroke-width:1.0000000pt;font-family:Radio Stars;"
     d="M 53.294571,44.875844 L 47.618571,44.875844 L 47.618571,46.651844 C 47.618571,46.907844 47.538571,47.107844 47.378571,47.251844 C 47.218571,47.387844 47.030571,47.455844 46.814571,47.455844 C 46.590571,47.455844 46.398571,47.387844 46.238571,47.251844 C 46.078571,47.107844 45.998571,46.907844 45.998571,46.651844 L 45.998571,41.467844 C 45.998571,40.923844 46.270571,40.651844 46.814571,40.651844 L 53.294571,40.651844 C 53.550571,40.651844 53.746571,40.731844 53.882571,40.891844 C 54.026571,41.051844 54.098571,41.243844 54.098571,41.467844 C 54.098571,41.691844 54.026571,41.883844 53.882571,42.043844 C 53.746571,42.203844 53.550571,42.283844 53.294571,42.283844 L 47.618571,42.283844 L 47.618571,43.243844 L 53.294571,43.243844 C 53.550571,43.243844 53.746571,43.323844 53.882571,43.483844 C 54.026571,43.643844 54.098571,43.835844 54.098571,44.059844 C 54.098571,44.283844 54.026571,44.475844 53.882571,44.635844 C 53.746571,44.795844 53.550571,44.875844 53.294571,44.875844 z M 45.050571,47.467844 L 38.570571,47.467844 C 38.026571,47.467844 37.754571,47.195844 37.754571,46.651844 L 37.754571,41.467844 C 37.754571,40.923844 38.026571,40.651844 38.570571,40.651844 L 45.050571,40.651844 C 45.306571,40.651844 45.502571,40.731844 45.638571,40.891844 C 45.782571,41.051844 45.854571,41.243844 45.854571,41.467844 C 45.854571,41.691844 45.782571,41.883844 45.638571,42.043844 C 45.502571,42.203844 45.306571,42.283844 45.050571,42.283844 L 39.374571,42.283844 L 39.374571,45.835844 L 45.050571,45.835844 C 45.306571,45.835844 45.502571,45.915844 45.638571,46.075844 C 45.782571,46.235844 45.854571,46.427844 45.854571,46.651844 C 45.854571,46.875844 45.782571,47.067844 45.638571,47.227844 C 45.502571,47.387844 45.306571,47.467844 45.050571,47.467844 z M 36.986571,41.899844 L 33.746571,47.095844 C 33.538571,47.423844 33.306571,47.587844 33.050571,47.587844 C 32.802571,47.587844 32.574571,47.423844 32.366571,47.095844 L 29.138571,41.899844 C 29.042571,41.755844 28.994571,41.611844 28.994571,41.467844 C 28.994571,41.243844 29.082571,41.055844 29.258571,40.903844 C 29.434571,40.743844 29.630571,40.663844 29.846571,40.663844 C 30.126571,40.663844 30.346571,40.791844 30.506571,41.047844 L 33.050571,45.139844 L 35.618571,41.047844 C 35.778571,40.791844 35.994571,40.663844 36.266571,40.663844 C 36.490571,40.663844 36.686571,40.743844 36.854571,40.903844 C 37.030571,41.063844 37.118571,41.251844 37.118571,41.467844 C 37.118571,41.611844 37.074571,41.755844 36.986571,41.899844 z "
     id="path895" />
</svg>
