<?xml version="1.0" encoding="UTF-8" standalone="no"?>
<!DOCTYPE svg PUBLIC "-//W3C//DTD SVG 20010904//EN"
"http://www.w3.org/TR/2001/REC-SVG-20010904/DTD/svg10.dtd">
<!-- Created with Inkscape (http://www.inkscape.org/) -->
<svg
   id="svg1"
   sodipodi:version="0.32"
   inkscape:version="0.38.1"
   width="48pt"
   height="48pt"
   sodipodi:docbase="/root/Desktop"
   sodipodi:docname="gnome-mime-application-vnd.sun.xml.writer.svg"
   xmlns="http://www.w3.org/2000/svg"
   xmlns:inkscape="http://www.inkscape.org/namespaces/inkscape"
   xmlns:sodipodi="http://sodipodi.sourceforge.net/DTD/sodipodi-0.dtd"
   xmlns:xml="http://www.w3.org/XML/1998/namespace"
   xmlns:xlink="http://www.w3.org/1999/xlink">
  <defs
     id="defs3">
    <linearGradient
       id="linearGradient703">
      <stop
         style="stop-color:#d9cce6;stop-opacity:1;"
         offset="0.00000000"
         id="stop704" />
      <stop
         style="stop-color:#73667f;stop-opacity:1;"
         offset="1.00000000"
         id="stop705" />
    </linearGradient>
    <linearGradient
       id="linearGradient866">
      <stop
         style="stop-color:#ffffff;stop-opacity:1;"
         offset="0.00000000"
         id="stop867" />
      <stop
         style="stop-color:#d9cce6;stop-opacity:1;"
         offset="1.00000000"
         id="stop868" />
    </linearGradient>
    <linearGradient
       id="linearGradient584">
      <stop
         style="stop-color:#ffffff;stop-opacity:1;"
         offset="0.00000000"
         id="stop585" />
      <stop
         style="stop-color:#ffffff;stop-opacity:0;"
         offset="1.00000000"
         id="stop586" />
    </linearGradient>
    <linearGradient
       xlink:href="#linearGradient866"
       id="linearGradient586"
       x1="-0.00000000"
       y1="0.01562500"
       x2="0.99122804"
       y2="0.98437500" />
    <linearGradient
       xlink:href="#linearGradient584"
       id="linearGradient587"
       x1="0.00000000"
       y1="-0.00000000"
       x2="1.00000000"
       y2="1.00000000" />
    <linearGradient
       xlink:href="#linearGradient584"
       id="linearGradient700"
       x1="0.00574713"
       y1="0.00781250"
       x2="0.98850572"
       y2="0.99218750" />
    <linearGradient
       xlink:href="#linearGradient703"
       id="linearGradient701"
       x1="-0.00000000"
       y1="-0.00000000"
       x2="1.00000000"
       y2="1.02343750" />
    <linearGradient
       xlink:href="#linearGradient703"
       id="linearGradient702"
       x1="-0.00000000"
       y1="0.00000000"
       x2="0.97457629"
       y2="0.96093750" />
    <linearGradient
       xlink:href="#linearGradient584"
       id="linearGradient845"
       x1="-0.00000000"
       y1="-0.00000000"
       x2="0.99635035"
       y2="0.97727275" />
    <radialGradient
       xlink:href="#linearGradient703"
       id="radialGradient846" />
    <linearGradient
       xlink:href="#linearGradient584"
       id="linearGradient847"
       x1="0.00000000"
       y1="-0.00000000"
       x2="0.98540145"
       y2="0.93902439" />
    <linearGradient
       xlink:href="#linearGradient703"
       id="linearGradient848"
       x1="0.01219511"
       y1="0.01562503"
       x2="0.99999994"
       y2="1.00000012" />
    <linearGradient
       xlink:href="#linearGradient584"
       id="linearGradient849"
       x1="0.00000000"
       y1="-0.00000000"
       x2="0.98514849"
       y2="1.02343750" />
    <linearGradient
       xlink:href="#linearGradient703"
       id="linearGradient850"
       x1="-0.00000000"
       y1="0.00000000"
       x2="1.00000000"
       y2="0.95652175" />
    <linearGradient
       xlink:href="#linearGradient584"
       id="linearGradient863"
       x1="-0.00000000"
       y1="-0.00000000"
       x2="0.99635035"
       y2="0.82142860" />
  </defs>
  <sodipodi:namedview
     id="base"
     pagecolor="#ffffff"
     bordercolor="#666666"
     borderopacity="1.0"
     inkscape:pageopacity="0.0"
     inkscape:pageshadow="2"
     inkscape:zoom="7.9794719"
     inkscape:cx="20.793190"
     inkscape:cy="23.278383"
     inkscape:window-width="640"
     inkscape:window-height="516"
     inkscape:window-x="92"
     inkscape:window-y="294" />
  <path
     d="M 4.4389304 48.086315 C 5.2483181 50.50443 38.765774 61.377487 40.966438 59.55288 C 42.936267 57.902492 57.675565 8.7785888 56.688667 6.8303779 C 55.662821 4.6824777 21.657054 -0.6675724 20.042945 0.80153134 C 18.054709 2.621752 3.5888672 45.311841 4.4389304 48.086315 z "
     style="font-size:12;opacity:0.302675;fill-rule:evenodd;stroke-width:12.5;"
     id="path639" />
  <path
     d="M 4.5541516 46.08493 C 5.3114351 48.34726 36.66955 58.519843 38.728432 56.812781 C 40.571358 55.268717 54.36111 9.3095333 53.437795 7.4867937 C 52.478034 5.477268 20.663028 0.47192513 19.152904 1.8463842 C 17.292759 3.5493405 3.7588508 43.489198 4.5541516 46.08493 z "
     style="font-size:12;fill:url(#linearGradient586);fill-rule:evenodd;stroke:#261933;stroke-width:1.87726;"
     id="path634" />
  <path
     d="M 6.6876568 43.965773 C 6.360392 43.13667 19.363758 4.5872629 20.579427 3.7922731 C 22.09876 2.7554118 46.659814 7.3454032 46.98631 8.172561 C 47.28557 8.9306762 27.823671 5.3906629 23.493845 9.2635774 C 15.189619 16.482895 6.9861475 44.721984 6.6876568 43.965773 z "
     style="font-size:12;opacity:0.699936;fill:url(#linearGradient587);fill-rule:evenodd;stroke:none;stroke-width:0.100121pt;"
     id="path640" />
  <path
     d="M 4.3362804 23.215726 C 4.3362804 22.582911 11.257639 15.467386 15.013523 14.836037 C 18.024289 14.329829 21.747283 16.882155 24.635989 18.202739 C 27.942559 16.261526 31.625857 14.040843 34.390394 14.370791 C 38.332004 14.619945 45.858252 22.342671 45.858252 23.060457 C 45.858252 23.687064 38.112334 19.310281 34.390394 19.337476 C 30.994364 19.361962 27.815416 21.974581 24.504149 23.215726 C 21.488204 21.664268 18.191224 19.337476 15.013523 19.337476 C 11.468681 19.337476 4.3362804 23.77226 4.3362804 23.215726 z "
     style="font-size:12;fill:#000000;fill-rule:evenodd;stroke:none;stroke-width:2.03405;fill-opacity:1;opacity:0.296369;"
     id="path852"
     sodipodi:nodetypes="ccccccccc" />
  <path
     d="M 2.7361857 21.34895 C 2.7361857 20.716134 9.6575448 13.600609 13.413429 12.96926 C 16.424195 12.463052 19.925651 14.23999 22.814356 15.560574 C 26.120925 13.61936 30.025762 12.174066 32.790298 12.504014 C 36.731909 12.753168 44.258157 20.475893 44.258157 21.193679 C 44.258157 21.820287 36.51224 17.443505 32.790298 17.470699 C 29.394269 17.495185 26.215322 20.107803 22.904054 21.34895 C 19.888111 19.797491 16.59113 17.470699 13.413429 17.470699 C 9.8685859 17.470699 2.7361857 21.905483 2.7361857 21.34895 z "
     style="font-size:12;fill:url(#linearGradient850);fill-rule:evenodd;stroke:#261933;stroke-width:1.875;stroke-dasharray:none;"
     id="path674"
     sodipodi:nodetypes="ccccccccc" />
  <path
     d="M 7.7272786 17.604782 C 7.792575 17.424712 11.972795 14.615054 14.158765 14.181946 C 15.266132 13.962371 17.667459 14.948732 17.607435 15.113844 C 17.543097 15.290655 15.0246 14.961772 13.785872 15.20714 C 11.731455 15.614072 7.6683092 17.766443 7.7272786 17.604782 z "
     style="font-size:12;opacity:0.7;fill-rule:evenodd;stroke:none;stroke-width:0.115296pt;fill:url(#linearGradient847);"
     id="path676"
     sodipodi:nodetypes="ccccc" />
  <path
     d="M 23.905244 17.53732 C 23.970733 17.357346 29.828592 14.335264 32.014466 13.902251 C 33.121929 13.682772 35.523255 14.669229 35.46304 14.834342 C 35.398893 15.011056 32.880492 14.681982 31.641571 14.92754 C 29.58725 15.33457 23.846466 17.699172 23.905244 17.53732 z "
     style="font-size:12;opacity:0.7;fill-rule:evenodd;stroke:none;stroke-width:0.115296pt;fill:url(#linearGradient845);"
     id="path677" />
  <path
     d="M 4.2869952 10.659315 C 4.2869952 10.221223 9.0785876 5.2952104 11.678751 4.8581335 C 13.763077 4.5076904 16.340471 6.2746419 18.340294 7.1888699 C 20.629403 5.8449865 23.179314 4.3076278 25.093178 4.5360482 C 27.821918 4.7085347 33.032271 10.054906 33.032271 10.551822 C 33.032271 10.985618 27.669844 7.9556107 25.093178 7.9744376 C 22.742138 7.9913891 20.541383 9.8000814 18.249022 10.659315 C 16.161113 9.5852549 13.878645 7.9744376 11.678751 7.9744376 C 9.2246897 7.9744376 4.2869952 11.044597 4.2869952 10.659315 z "
     style="font-size:12;fill:#000000;fill-rule:evenodd;stroke:none;stroke-width:2.03405;fill-opacity:1;opacity:0.296369;"
     id="path853"
     sodipodi:nodetypes="ccccccccc" />
  <path
     d="M 3.1792644 9.3669621 C 3.1792644 8.9288688 7.970857 4.0028582 10.57102 3.5657812 C 12.655346 3.2153382 15.343511 4.206902 17.343334 5.1211298 C 19.632442 3.7772458 22.071585 3.0152753 23.985447 3.2436955 C 26.714188 3.4161825 31.92454 8.7625534 31.92454 9.2594699 C 31.92454 9.6932648 26.562113 6.6632594 23.985447 6.6820854 C 21.634408 6.6990369 19.433652 8.5077284 17.141292 9.3669621 C 15.053383 8.2929021 12.770913 6.6820854 10.57102 6.6820854 C 8.1169588 6.6820854 3.1792644 9.752246 3.1792644 9.3669621 z "
     style="font-size:12;fill:url(#linearGradient850);fill-rule:evenodd;stroke:#261933;stroke-width:1.875;stroke-dasharray:none;"
     id="path854"
     sodipodi:nodetypes="ccccccccc" />
  <path
     d="M 6.6345515 6.7749097 C 6.6797557 6.6502493 9.5736833 4.7051488 11.08701 4.4053121 C 11.85363 4.2533024 13.516046 4.9361508 13.474492 5.0504568 C 13.429952 5.1728616 11.68642 4.9451783 10.828859 5.1150444 C 9.4066057 5.39676 6.5937276 6.8868266 6.6345515 6.7749097 z "
     style="font-size:12;opacity:0.7;fill-rule:evenodd;stroke:none;stroke-width:0.115296pt;fill:url(#linearGradient847);"
     id="path855"
     sodipodi:nodetypes="ccccc" />
  <path
     d="M 17.834406 6.7282062 C 17.879744 6.6036123 21.935086 4.5114531 23.448346 4.2116818 C 24.215031 4.0597385 25.877447 4.7426542 25.835761 4.8569601 C 25.791354 4.9792977 24.047889 4.7514823 23.190196 4.9214805 C 21.768007 5.2032632 17.793716 6.840255 17.834406 6.7282062 z "
     style="font-size:12;opacity:0.7;fill-rule:evenodd;stroke:none;stroke-width:0.115296pt;fill:url(#linearGradient845);"
     id="path856" />
  <path
     d="M 15.235551 24.538775 C 23.952827 26.142997 34.308713 28.266556 42.589859 30.304211 C 43.165656 30.453006 42.906175 31.354998 42.299728 31.258471 C 33.510511 29.757013 23.33585 27.295803 14.915412 25.346574 C 14.371574 25.214083 14.663852 24.440202 15.235551 24.538775 z "
     style="font-size:12;fill:#261933;fill-rule:evenodd;stroke-width:1pt;fill-opacity:1;"
     id="path1233" />
  <path
     d="M 14.40474 28.38926 C 15.348563 27.998598 24.994392 30.340918 25.826785 31.045483 C 26.541308 31.764292 23.646673 41.514476 22.772166 42.202078 C 21.978995 42.937379 11.646035 39.772263 10.951538 39.014412 C 10.357571 38.470481 13.459892 28.913259 14.40474 28.38926 z "
     style="font-size:12;fill-rule:evenodd;stroke:#261933;stroke-width:1.875;fill:url(#linearGradient701);stroke-opacity:1;stroke-dasharray:none;"
     id="path1236" />
  <path
     d="M 9.7575494 43.055524 C 18.348024 45.239178 28.538716 48.050433 36.665105 50.637332 C 37.229627 50.824229 36.910428 51.706931 36.3118 51.570068 C 27.642686 49.484149 17.655391 46.3481 9.3841385 43.84021 C 8.8503976 43.671569 9.193687 42.91903 9.7575494 43.055524 z "
     style="font-size:12;fill:#261933;fill-rule:evenodd;stroke-width:1pt;fill-opacity:1;"
     id="path1237" />
  <path
     d="M 28.208422 34.007022 C 32.573583 34.653067 37.642376 35.703016 41.730169 36.86253 C 42.012943 36.942846 41.620322 37.770946 41.320123 37.726412 C 36.971541 37.082882 31.888034 35.962684 27.783654 34.798415 C 27.517467 34.722948 27.924716 33.965003 28.208422 34.007022 z "
     style="font-size:12;fill:#261933;fill-rule:evenodd;stroke-width:1pt;fill-opacity:1;"
     id="path1238" />
  <path
     d="M 26.914648 36.882 C 31.279808 37.528053 36.348601 38.578001 40.436394 39.737515 C 40.719168 39.817824 40.326547 40.645931 40.026348 40.601397 C 35.677766 39.957859 30.594259 38.837662 26.489879 37.6734 C 26.223692 37.597933 26.630941 36.83998 26.914648 36.882 z "
     style="font-size:12;fill:#261933;fill-rule:evenodd;stroke-width:1pt;fill-opacity:1;"
     id="path1239" />
  <path
     d="M 12.770052 38.02419 C 12.58548 37.628772 14.276912 30.457754 15.357605 29.830341 C 16.525502 29.21262 23.801987 31.599569 23.982647 31.986603 C 24.137404 32.318292 18.308237 30.93964 16.36385 31.986603 C 14.570678 32.952137 12.920897 38.347495 12.770052 38.02419 z "
     style="font-size:12;opacity:0.699936;fill-rule:evenodd;stroke:none;stroke-width:0.093171pt;fill:url(#linearGradient700);"
     id="path1240" />
  <rect
     style="fill:#000000;fill-opacity:0.30000001;fill-rule:evenodd;stroke:none;stroke-width:1.0000000pt;stroke-opacity:1.0000000;"
     id="rect937"
     x="28.226574"
     y="39.395287"
     rx="0.70483023"
     width="30.710464"
     height="12.888113" />
  <rect
     style="fill:#d9cce6;fill-opacity:0.80000001;fill-rule:evenodd;stroke:#261933;stroke-width:1.2500000;stroke-dasharray:none;"
     id="rect862"
     x="26.323563"
     y="37.806450"
     rx="0.69999999"
     width="30.500000"
     height="12.750523" />
  <text
     xml:space="preserve"
     style="fill:black;fill-opacity:1;stroke:none;font-family:helvetica;font-style:normal;font-weight:normal;font-size:12px;stroke-opacity:1;stroke-width:1pt;stroke-linejoin:miter;stroke-linecap:butt;"
     x="32.536951"
     y="45.961130"
     id="text863"><tspan
       id="tspan864"></tspan></text>
  <path
     style="font-size:12.000000;stroke-width:1.0000000pt;font-family:Radio Stars;"
     d="M 54.454008,41.707842 L 52.834008,46.891842 C 52.690008,47.363842 52.434008,47.599842 52.066008,47.599842 C 51.698008,47.599842 51.438008,47.363842 51.286008,46.891842 L 50.434008,44.179842 L 49.594008,46.891842 C 49.442008,47.363842 49.186008,47.599842 48.826008,47.599842 C 48.458008,47.599842 48.202008,47.363842 48.058008,46.891842 L 46.426008,41.707842 C 46.402008,41.611842 46.390008,41.519842 46.390008,41.431842 C 46.390008,41.207842 46.474008,41.023842 46.642008,40.879842 C 46.810008,40.735842 47.006008,40.663842 47.230008,40.663842 C 47.606008,40.663842 47.854008,40.851842 47.974008,41.227842 L 48.826008,43.939842 L 49.666008,41.227842 C 49.810008,40.755842 50.066008,40.519842 50.434008,40.519842 C 50.802008,40.519842 51.062008,40.755842 51.214008,41.227842 L 52.066008,43.939842 L 52.906008,41.227842 C 53.026008,40.851842 53.278008,40.663842 53.662008,40.663842 C 53.878008,40.663842 54.070008,40.735842 54.238008,40.879842 C 54.414008,41.023842 54.502008,41.207842 54.502008,41.431842 C 54.502008,41.519842 54.486008,41.611842 54.454008,41.707842 z M 45.334008,46.003842 C 45.542008,46.171842 45.646008,46.379842 45.646008,46.627842 C 45.646008,46.851842 45.562008,47.051842 45.394008,47.227842 C 45.234008,47.395842 45.046008,47.479842 44.830008,47.479842 C 44.654008,47.479842 44.486008,47.419842 44.326008,47.299842 L 41.578008,45.103842 C 41.090008,45.495842 40.182008,46.227842 38.854008,47.299842 C 38.694008,47.419842 38.526008,47.479842 38.350008,47.479842 C 38.126008,47.479842 37.930008,47.395842 37.762008,47.227842 C 37.602008,47.051842 37.522008,46.851842 37.522008,46.627842 C 37.522008,46.387842 37.630008,46.179842 37.846008,46.003842 L 40.282008,44.059842 L 37.846008,42.103842 C 37.638008,41.935842 37.534008,41.727842 37.534008,41.479842 C 37.534008,41.263842 37.614008,41.067842 37.774008,40.891842 C 37.934008,40.715842 38.126008,40.627842 38.350008,40.627842 C 38.526008,40.627842 38.694008,40.691842 38.854008,40.819842 C 39.766008,41.555842 40.674008,42.291842 41.578008,43.027842 L 44.326008,40.819842 C 44.486008,40.699842 44.654008,40.639842 44.830008,40.639842 C 45.046008,40.639842 45.234008,40.727842 45.394008,40.903842 C 45.562008,41.071842 45.646008,41.267842 45.646008,41.491842 C 45.646008,41.731842 45.542008,41.935842 45.334008,42.103842 L 42.886008,44.059842 C 43.326008,44.411842 44.142008,45.059842 45.334008,46.003842 z M 36.778008,46.651842 C 36.778008,47.195842 36.510008,47.467842 35.974008,47.467842 L 29.494008,47.467842 C 29.238008,47.467842 29.038008,47.387842 28.894008,47.227842 C 28.750008,47.067842 28.678008,46.875842 28.678008,46.651842 C 28.678008,46.427842 28.750008,46.235842 28.894008,46.075842 C 29.038008,45.915842 29.238008,45.835842 29.494008,45.835842 L 35.170008,45.835842 L 35.170008,44.875842 L 29.494008,44.875842 C 28.958008,44.875842 28.690008,44.603842 28.690008,44.059842 L 28.690008,41.467842 C 28.690008,40.923842 28.958008,40.651842 29.494008,40.651842 L 35.974008,40.651842 C 36.230008,40.651842 36.430008,40.731842 36.574008,40.891842 C 36.718008,41.051842 36.790008,41.243842 36.790008,41.467842 C 36.790008,41.691842 36.718008,41.883842 36.574008,42.043842 C 36.430008,42.203842 36.230008,42.283842 35.974008,42.283842 L 30.298008,42.283842 L 30.298008,43.243842 L 35.974008,43.243842 C 36.510008,43.243842 36.778008,43.515842 36.778008,44.059842 L 36.778008,46.651842 z "
     id="path871" />
</svg>
