<?xml version="1.0" encoding="UTF-8" standalone="no"?>
<!DOCTYPE svg PUBLIC "-//W3C//DTD SVG 20010904//EN"
"http://www.w3.org/TR/2001/REC-SVG-20010904/DTD/svg10.dtd">
<!-- Created with Inkscape (http://www.inkscape.org/) -->
<svg
   id="svg1"
   sodipodi:version="0.32"
   inkscape:version="0.38.1"
   width="48pt"
   height="48pt"
   sodipodi:docbase="/root/Desktop/mimes"
   sodipodi:docname="gnome-mime-audio-x-it.svg"
   xmlns="http://www.w3.org/2000/svg"
   xmlns:inkscape="http://www.inkscape.org/namespaces/inkscape"
   xmlns:sodipodi="http://sodipodi.sourceforge.net/DTD/sodipodi-0.dtd"
   xmlns:xml="http://www.w3.org/XML/1998/namespace"
   xmlns:xlink="http://www.w3.org/1999/xlink">
  <defs
     id="defs3">
    <linearGradient
       id="linearGradient642">
      <stop
         style="stop-color:#d9cce6;stop-opacity:1;"
         offset="0.00000000"
         id="stop643" />
      <stop
         style="stop-color:#73667f;stop-opacity:1;"
         offset="1.00000000"
         id="stop644" />
    </linearGradient>
    <linearGradient
       id="linearGradient866">
      <stop
         style="stop-color:#ffffff;stop-opacity:1;"
         offset="0.00000000"
         id="stop867" />
      <stop
         style="stop-color:#d9cce6;stop-opacity:1;"
         offset="1.00000000"
         id="stop868" />
    </linearGradient>
    <linearGradient
       id="linearGradient584">
      <stop
         style="stop-color:#ffffff;stop-opacity:1;"
         offset="0.00000000"
         id="stop585" />
      <stop
         style="stop-color:#ffffff;stop-opacity:0;"
         offset="1.00000000"
         id="stop586" />
    </linearGradient>
    <linearGradient
       xlink:href="#linearGradient866"
       id="linearGradient586"
       x1="-0.00000000"
       y1="0.01562500"
       x2="0.99122804"
       y2="0.98437500" />
    <linearGradient
       xlink:href="#linearGradient584"
       id="linearGradient587"
       x1="0.00000000"
       y1="-0.00000000"
       x2="1.00000000"
       y2="1.00000000" />
    <linearGradient
       xlink:href="#linearGradient584"
       id="linearGradient638"
       x1="0.00000000"
       y1="-0.00000000"
       x2="0.99253732"
       y2="1.00000000" />
    <radialGradient
       xlink:href="#linearGradient866"
       id="radialGradient639" />
    <linearGradient
       xlink:href="#linearGradient584"
       id="linearGradient640"
       x1="-0.00000000"
       y1="0.00000000"
       x2="1.00000000"
       y2="0.99218750" />
    <linearGradient
       xlink:href="#linearGradient642"
       id="linearGradient641"
       x1="0.00000000"
       y1="0.00000000"
       x2="0.96666664"
       y2="0.98437500" />
    <linearGradient
       xlink:href="#linearGradient584"
       id="linearGradient645"
       x1="0.01492537"
       y1="0.00781250"
       x2="0.97761196"
       y2="0.97656250" />
  </defs>
  <sodipodi:namedview
     id="base"
     pagecolor="#ffffff"
     bordercolor="#666666"
     borderopacity="1.0"
     inkscape:pageopacity="0.0"
     inkscape:pageshadow="2"
     inkscape:zoom="5.6423387"
     inkscape:cx="25.584432"
     inkscape:cy="23.892888"
     inkscape:window-width="704"
     inkscape:window-height="586"
     inkscape:window-x="96"
     inkscape:window-y="207"
     showguides="true"
     snaptoguides="true" />
  <path
     d="M 4.4389304 48.086315 C 5.2483181 50.50443 38.765774 61.377487 40.966438 59.55288 C 42.936267 57.902492 57.675565 8.7785888 56.688667 6.8303779 C 55.662821 4.6824777 21.657054 -0.6675724 20.042945 0.80153134 C 18.054709 2.621752 3.5888672 45.311841 4.4389304 48.086315 z "
     style="font-size:12;opacity:0.302675;fill-rule:evenodd;stroke-width:12.5;"
     id="path639" />
  <path
     d="M 4.5541516 46.08493 C 5.3114351 48.34726 36.66955 58.519843 38.728432 56.812781 C 40.571358 55.268717 54.36111 9.3095333 53.437795 7.4867937 C 52.478034 5.477268 20.663028 0.47192513 19.152904 1.8463842 C 17.292759 3.5493405 3.7588508 43.489198 4.5541516 46.08493 z "
     style="font-size:12;fill:url(#linearGradient586);fill-rule:evenodd;stroke:#261933;stroke-width:1.87726;"
     id="path634" />
  <path
     d="M 6.6876568 43.965773 C 6.360392 43.13667 19.363758 4.5872629 20.579427 3.7922731 C 22.09876 2.7554118 46.659814 7.3454032 46.98631 8.172561 C 47.28557 8.9306762 27.823671 5.3906629 23.493845 9.2635774 C 15.189619 16.482895 6.9861475 44.721984 6.6876568 43.965773 z "
     style="font-size:12;opacity:0.699936;fill:url(#linearGradient587);fill-rule:evenodd;stroke:none;stroke-width:0.100121pt;"
     id="path640" />
  <path
     style="font-size:12;fill:#000000;fill-rule:evenodd;stroke:none;stroke-width:1.875;stroke-dasharray:none;fill-opacity:1;opacity:0.302675;"
     d="M 38.672197 27.425876 C 38.962934 24.549151 37.582872 23.643078 35.929987 23.460363 C 32.135663 23.096526 27.879104 22.091818 27.714907 24.471385 C 27.095344 27.705434 26.689459 29.796452 26.067969 35.098139 C 25.772346 37.333912 26.892668 43.833096 21.995267 44.283162 C 16.991947 44.743317 14.332422 41.175518 15.740656 37.748561 C 17.721943 33.053165 22.726954 36.042658 23.239477 34.28681 C 24.752484 28.95246 24.541203 22.814489 25.76433 17.370646 C 25.812297 17.157154 26.45636 16.941726 26.831249 16.890039 C 27.812771 16.65287 39.720367 17.625075 40.48295 18.118197 C 40.857838 18.066511 41.38066 18.515108 41.530549 18.659156 C 42.790403 19.869919 42.031598 24.957836 41.799749 26.031392 C 41.180186 29.26544 40.747967 31.342455 40.126474 36.644142 C 39.830852 38.879915 40.977511 45.393102 36.08011 45.843168 C 31.076789 46.303323 28.417261 42.735525 29.825496 39.308567 C 31.806786 34.613171 36.785459 37.58866 37.297983 35.832814 C 38.054485 33.165638 38.38146 30.3026 38.672197 27.425876 z "
     id="path702"
     sodipodi:nodetypes="csccccccccccccccc" />
  <path
     style="font-size:12;fill-rule:evenodd;stroke:#261933;stroke-width:1.4592;fill:url(#linearGradient641);"
     d="M 36.775674 25.356941 C 37.066411 22.480216 35.686349 21.574143 34.033464 21.391429 C 30.23914 21.027592 25.982581 20.022884 25.818384 22.402451 C 25.198821 25.636499 24.792936 27.727518 24.171446 33.029204 C 23.875823 35.264977 24.996145 41.764162 20.098744 42.214228 C 15.095423 42.674383 12.435898 39.106584 13.844132 35.679627 C 15.82542 30.984231 20.830431 33.973724 21.342954 32.217875 C 22.85596 26.883526 22.64468 20.745555 23.867806 15.301712 C 23.915774 15.08822 24.559837 14.872792 24.934725 14.821105 C 25.916248 14.583936 37.823843 15.556141 38.586427 16.049262 C 38.961315 15.997576 39.484137 16.446174 39.634025 16.590221 C 40.893879 17.800985 40.135075 22.888901 39.903226 23.962457 C 39.283662 27.196505 38.851443 29.27352 38.229951 34.575208 C 37.934329 36.810981 39.080987 43.324168 34.183586 43.774234 C 29.180265 44.234388 26.520738 40.666591 27.928973 37.239633 C 29.910262 32.544237 34.888936 35.519726 35.40146 33.763879 C 36.157962 31.096704 36.484936 28.233665 36.775674 25.356941 z "
     id="path701"
     sodipodi:nodetypes="csccccccccccccccc" />
  <path
     style="fill:url(#linearGradient638);fill-rule:evenodd;stroke:none;stroke-opacity:1;stroke-width:1pt;stroke-linejoin:miter;stroke-linecap:butt;fill-opacity:1;"
     d="M 14.572288 38.741443 C 14.426218 38.568118 14.342065 36.753251 16.087758 35.022297 C 18.168296 33.031516 21.393659 35.137648 21.947269 33.409273 C 23.560369 28.616896 23.799723 21.402349 24.850046 16.070212 C 24.882162 15.907167 33.310888 16.046448 38.065771 17.071632 C 31.739682 16.434847 26.488163 16.732093 25.790216 17.181674 C 24.704667 17.859985 23.906786 29.027534 22.388156 33.773651 C 21.822662 35.502279 19.546455 33.855674 16.727954 35.774006 C 14.471344 37.273195 14.700953 38.894114 14.572288 38.741443 z "
     id="path698"
     sodipodi:nodetypes="cssscssss" />
  <path
     style="fill:url(#linearGradient640);fill-rule:evenodd;stroke:none;stroke-opacity:1;stroke-width:1pt;stroke-linejoin:miter;stroke-linecap:butt;fill-opacity:1;"
     d="M 28.64674 40.175696 C 28.500668 40.002368 28.416517 38.187501 30.162209 36.456547 C 32.242747 34.465767 35.468111 36.571897 36.02172 34.843523 C 37.63482 30.051146 36.962431 28.532719 38.012752 23.200583 C 38.076985 22.874491 38.901255 23.703633 38.741127 24.025166 C 37.245196 26.874926 37.981239 30.461784 36.462607 35.207902 C 35.897112 36.936529 33.620906 35.289925 30.802405 37.208256 C 28.545795 38.707445 28.775404 40.328364 28.64674 40.175696 z "
     id="path700"
     sodipodi:nodetypes="csssssss" />
  <rect
     style="fill:#000000;fill-opacity:0.30000001;fill-rule:evenodd;stroke:none;stroke-width:1.0000000pt;stroke-opacity:1.0000000;"
     id="rect937"
     x="35.745868"
     y="39.395287"
     rx="0.53225629"
     width="23.191170"
     height="12.888113" />
  <rect
     style="fill:#d9cce6;fill-opacity:0.80000001;fill-rule:evenodd;stroke:#261933;stroke-width:1.0813549;"
     id="rect862"
     x="34.155544"
     y="37.806450"
     rx="0.52385905"
     width="22.825287"
     height="12.750523" />
  <text
     xml:space="preserve"
     style="fill:black;fill-opacity:1;stroke:none;font-family:helvetica;font-style:normal;font-weight:normal;font-size:12px;stroke-opacity:1;stroke-width:1pt;stroke-linejoin:miter;stroke-linecap:butt;"
     x="32.536951"
     y="45.961130"
     id="text863"><tspan
       id="tspan864"></tspan></text>
  <path
     style="font-size:12.000000;stroke-width:1.0000000pt;font-family:Radio Stars;"
     d="M 49.889700,42.409797 L 47.465700,42.409797 L 47.465700,46.777797 C 47.465700,47.033797 47.385700,47.233797 47.225700,47.377797 C 47.065700,47.513797 46.873700,47.581797 46.649700,47.581797 C 46.433700,47.581797 46.245700,47.513797 46.085700,47.377797 C 45.925700,47.233797 45.845700,47.033797 45.845700,46.777797 L 45.845700,42.409797 L 43.409700,42.409797 C 43.153700,42.409797 42.953700,42.329797 42.809700,42.169797 C 42.665700,42.009797 42.593700,41.817797 42.593700,41.593797 C 42.593700,41.369797 42.665700,41.177797 42.809700,41.017797 C 42.953700,40.857797 43.153700,40.777797 43.409700,40.777797 L 49.889700,40.777797 C 50.145700,40.777797 50.345700,40.857797 50.489700,41.017797 C 50.633700,41.177797 50.705700,41.369797 50.705700,41.593797 C 50.705700,41.817797 50.633700,42.009797 50.489700,42.169797 C 50.345700,42.329797 50.145700,42.409797 49.889700,42.409797 z M 42.485700,46.777797 C 42.485700,47.033797 42.405700,47.233797 42.245700,47.377797 C 42.085700,47.513797 41.897700,47.581797 41.681700,47.581797 C 41.465700,47.581797 41.277700,47.513797 41.117700,47.377797 C 40.957700,47.233797 40.877700,47.033797 40.877700,46.777797 L 40.877700,41.593797 C 40.877700,41.337797 40.957700,41.141797 41.117700,41.005797 C 41.277700,40.861797 41.465700,40.789797 41.681700,40.789797 C 41.897700,40.789797 42.085700,40.861797 42.245700,41.005797 C 42.405700,41.141797 42.485700,41.337797 42.485700,41.593797 L 42.485700,46.777797 z "
     id="path857" />
</svg>
