<?xml version="1.0" encoding="UTF-8" standalone="no"?>
<!DOCTYPE svg PUBLIC "-//W3C//DTD SVG 20010904//EN"
"http://www.w3.org/TR/2001/REC-SVG-20010904/DTD/svg10.dtd">
<!-- Created with Inkscape (http://www.inkscape.org/) -->
<svg
   version="1.0"
   x="0"
   y="0"
   width="48pt"
   height="48pt"
   id="svg1"
   sodipodi:version="0.32"
   inkscape:version="0.38"
   sodipodi:docname="gnome-mime-application-x-tar.svg"
   sodipodi:docbase="/home/dan/Projects/Lila-icons/scalable/mimetypes"
   xmlns="http://www.w3.org/2000/svg"
   xmlns:inkscape="http://www.inkscape.org/namespaces/inkscape"
   xmlns:sodipodi="http://sodipodi.sourceforge.net/DTD/sodipodi-0.dtd"
   xmlns:xml="http://www.w3.org/XML/1998/namespace"
   xmlns:xlink="http://www.w3.org/1999/xlink">
  <sodipodi:namedview
     id="base"
     pagecolor="#ffffff"
     bordercolor="#666666"
     borderopacity="1.0"
     inkscape:pageopacity="0.0"
     inkscape:pageshadow="2"
     inkscape:zoom="5.6399999"
     inkscape:cx="21.698309"
     inkscape:cy="24.227208"
     inkscape:window-width="640"
     inkscape:window-height="503"
     inkscape:window-x="50"
     inkscape:window-y="65"
     showguides="true"
     snaptoguides="true" />
  <defs
     id="defs3">
    <linearGradient
       id="linearGradient570">
      <stop
         style="stop-color:#ffffff;stop-opacity:1;"
         offset="0"
         id="stop571" />
      <stop
         style="stop-color:#ffffff;stop-opacity:0;"
         offset="1"
         id="stop572" />
    </linearGradient>
    <linearGradient
       id="linearGradient563">
      <stop
         style="stop-color:#d9cce6;stop-opacity:1;"
         offset="0.00000000"
         id="stop564" />
      <stop
         style="stop-color:#73667f;stop-opacity:1;"
         offset="1.00000000"
         id="stop565" />
    </linearGradient>
    <linearGradient
       x1="0.01973684"
       y1="0.00000000"
       x2="0.98026317"
       y2="0.96875000"
       id="linearGradient566"
       xlink:href="#linearGradient563" />
    <linearGradient
       x1="0.007275"
       y1="0.062497"
       x2="1.003636"
       y2="0.968750"
       id="linearGradient569"
       xlink:href="#linearGradient570" />
    <linearGradient
       x1="0.017699"
       y1="0.007811"
       x2="0.982301"
       y2="0.992187"
       id="linearGradient573"
       xlink:href="#linearGradient570" />
    <linearGradient
       x1="0.040005"
       y1="0.015624"
       x2="1.000000"
       y2="0.984375"
       id="linearGradient575"
       xlink:href="#linearGradient570" />
    <linearGradient
       id="linearGradient578"
       xlink:href="#linearGradient570" />
  </defs>
  <path
     d="M 4.3319537 47.873335 C 5.5354626 49.08791 32.414949 55.868816 34.128038 55.495694 C 35.62272 55.308702 57.235768 45.549036 58.103536 44.547352 C 59.311466 42.960228 59.076803 14.61038 57.964972 13.3653 C 56.728509 11.783464 29.977412 8.6103101 28.168778 8.6533255 C 26.523477 8.8185403 4.7976325 13.532396 3.9162388 14.751165 C 3.2688576 15.748208 3.1247203 46.794797 4.3319537 47.873335 z "
     style="font-size:12;opacity:0.302675;fill-rule:evenodd;stroke-width:12.5;"
     id="path1168" />
  <path
     d="M 4.010611 45.413592 C 5.1626968 46.576279 30.893688 53.067459 32.533582 52.710287 C 33.964399 52.531272 54.653991 43.188604 55.484682 42.229719 C 56.641001 40.710399 56.416364 13.571863 55.352037 12.37998 C 54.168404 10.865731 28.560298 7.8281654 26.82894 7.8693346 C 25.25394 8.0275058 4.4563917 12.539925 3.6126274 13.706627 C 2.992905 14.661066 2.8549262 44.381133 4.010611 45.413592 z "
     style="font-size:12;fill:url(#linearGradient566);fill-rule:evenodd;stroke:#261933;stroke-width:1.875;stroke-dasharray:none;"
     id="path1164" />
  <path
     d="M 5.0719434 44.352349 C 4.5987439 43.642541 3.9794786 15.751129 4.9392786 14.900626 C 5.5970982 14.332895 29.941467 18.441686 30.410962 19.145973 C 30.825831 19.768334 11.65524 15.004167 7.5926113 18.880586 C 4.3212608 21.995866 5.4831918 44.969189 5.0719434 44.352349 z "
     style="font-size:12;opacity:0.990000;fill:url(#linearGradient573);fill-rule:evenodd;stroke:none;stroke-width:0.105861pt;"
     id="path1165" />
  <path
     d="M 33.197014 50.056975 C 32.832639 49.738123 32.229866 20.05564 32.931619 19.278622 C 33.690219 18.424426 52.862291 14.314057 53.229417 14.635347 C 53.569762 14.933138 36.707895 18.09034 35.05424 21.135954 C 32.494519 25.690205 33.540107 50.357204 33.197014 50.056975 z "
     style="font-size:12;opacity:0.990000;fill:url(#linearGradient575);fill-rule:evenodd;stroke:none;stroke-width:0.105861pt;"
     id="path1166" />
  <path
     d="M 9.3171936 13.44133 C 9.3171936 13.173935 25.266961 9.3573257 27.359729 9.3287384 C 29.067691 9.3036461 46.198125 11.450417 46.198125 11.716647 C 46.198125 11.980994 33.612199 10.628286 27.359729 10.920683 C 21.318556 11.203222 9.3171936 13.70462 9.3171936 13.44133 z "
     style="font-size:12;opacity:0.990000;fill:url(#linearGradient569);fill-rule:evenodd;stroke:none;stroke-width:0.105861pt;"
     id="path1167" />
  <rect
     style="fill:#000000;fill-opacity:0.30000001;fill-rule:evenodd;stroke:none;stroke-width:1.0000000pt;stroke-opacity:1.0000000;"
     id="rect937"
     x="28.640162"
     y="39.164196"
     rx="0.70483023"
     width="30.710464"
     height="12.888113" />
  <rect
     style="fill:#d9cce6;fill-opacity:0.80000001;fill-rule:evenodd;stroke:#261933;stroke-width:1.2500000;stroke-dasharray:none;"
     id="rect862"
     x="26.737149"
     y="37.575356"
     rx="0.69999999"
     width="30.500000"
     height="12.750523" />
  <text
     xml:space="preserve"
     style="fill:black;fill-opacity:1;stroke:none;font-family:helvetica;font-style:normal;font-weight:normal;font-size:12px;stroke-opacity:1;stroke-width:1pt;stroke-linejoin:miter;stroke-linecap:butt;"
     x="32.507458"
     y="45.730038"
     id="text863"><tspan
       id="tspan864"></tspan></text>
  <path
     style="font-size:12.000000;stroke-width:1.0000000pt;font-family:Radio Stars;"
     d="M 54.732519,44.133004 C 54.732519,44.677004 54.464519,44.949004 53.928519,44.949004 L 51.660519,44.949004 C 52.116519,45.133004 52.972519,45.477004 54.228519,45.981004 C 54.572519,46.117004 54.744519,46.357004 54.744519,46.701004 C 54.744519,46.917004 54.668519,47.113004 54.516519,47.289004 C 54.372519,47.457004 54.188519,47.541004 53.964519,47.541004 C 53.852519,47.541004 53.740519,47.517004 53.628519,47.469004 L 48.252519,45.309004 L 48.252519,46.725004 C 48.252519,46.981004 48.172519,47.181004 48.012519,47.325004 C 47.852519,47.461004 47.664519,47.529004 47.448519,47.529004 C 47.232519,47.529004 47.044519,47.461004 46.884519,47.325004 C 46.724519,47.181004 46.644519,46.981004 46.644519,46.725004 L 46.644519,41.541004 C 46.644519,40.997004 46.912519,40.725004 47.448519,40.725004 L 53.928519,40.725004 C 54.464519,40.725004 54.732519,40.997004 54.732519,41.541004 L 54.732519,44.133004 z M 53.124519,43.317004 L 53.124519,42.357004 L 48.252519,42.357004 L 48.252519,43.317004 L 53.124519,43.317004 z M 43.032519,45.729004 L 39.840519,45.729004 L 38.892519,47.169004 C 38.724519,47.425004 38.500519,47.553004 38.220519,47.553004 C 37.996519,47.553004 37.800519,47.477004 37.632519,47.325004 C 37.464519,47.165004 37.380519,46.973004 37.380519,46.749004 C 37.380519,46.597004 37.424519,46.449004 37.512519,46.305004 L 40.356519,41.709004 C 40.724519,41.117004 41.084519,40.821004 41.436519,40.821004 C 41.676519,40.821004 41.892519,40.913004 42.084519,41.097004 C 42.204519,41.209004 42.356519,41.413004 42.540519,41.709004 L 45.372519,46.305004 C 45.460519,46.449004 45.504519,46.597004 45.504519,46.749004 C 45.504519,46.973004 45.416519,47.161004 45.240519,47.313004 C 45.072519,47.465004 44.880519,47.541004 44.664519,47.541004 C 44.384519,47.541004 44.160519,47.417004 43.992519,47.169004 L 43.032519,45.729004 z M 40.668519,44.301004 L 42.192519,44.301004 L 41.436519,43.077004 L 40.668519,44.301004 z M 35.640519,42.357004 L 33.216519,42.357004 L 33.216519,46.725004 C 33.216519,46.981004 33.136519,47.181004 32.976519,47.325004 C 32.816519,47.461004 32.624519,47.529004 32.400519,47.529004 C 32.184519,47.529004 31.996519,47.461004 31.836519,47.325004 C 31.676519,47.181004 31.596519,46.981004 31.596519,46.725004 L 31.596519,42.357004 L 29.160519,42.357004 C 28.904519,42.357004 28.704519,42.277004 28.560519,42.117004 C 28.416519,41.957004 28.344519,41.765004 28.344519,41.541004 C 28.344519,41.317004 28.416519,41.125004 28.560519,40.965004 C 28.704519,40.805004 28.904519,40.725004 29.160519,40.725004 L 35.640519,40.725004 C 35.896519,40.725004 36.096519,40.805004 36.240519,40.965004 C 36.384519,41.125004 36.456519,41.317004 36.456519,41.541004 C 36.456519,41.765004 36.384519,41.957004 36.240519,42.117004 C 36.096519,42.277004 35.896519,42.357004 35.640519,42.357004 z "
     id="path856" />
</svg>
