<?xml version="1.0" encoding="UTF-8" standalone="no"?>
<!DOCTYPE svg PUBLIC "-//W3C//DTD SVG 20010904//EN"
"http://www.w3.org/TR/2001/REC-SVG-20010904/DTD/svg10.dtd">
<!-- Created with Inkscape (http://www.inkscape.org/) -->
<svg
   id="svg1"
   sodipodi:version="0.32"
   inkscape:version="0.38.1"
   width="48pt"
   height="48pt"
   sodipodi:docbase="/root/Desktop/mimes"
   sodipodi:docname="gnome-mime-application-x-gameboy-rom.svg"
   xmlns="http://www.w3.org/2000/svg"
   xmlns:inkscape="http://www.inkscape.org/namespaces/inkscape"
   xmlns:sodipodi="http://sodipodi.sourceforge.net/DTD/sodipodi-0.dtd"
   xmlns:xml="http://www.w3.org/XML/1998/namespace"
   xmlns:xlink="http://www.w3.org/1999/xlink">
  <defs
     id="defs3">
    <linearGradient
       id="linearGradient703">
      <stop
         style="stop-color:#d9cce6;stop-opacity:1;"
         offset="0.00000000"
         id="stop704" />
      <stop
         style="stop-color:#73667f;stop-opacity:1;"
         offset="1.00000000"
         id="stop705" />
    </linearGradient>
    <linearGradient
       id="linearGradient866">
      <stop
         style="stop-color:#ffffff;stop-opacity:1;"
         offset="0.00000000"
         id="stop867" />
      <stop
         style="stop-color:#d9cce6;stop-opacity:1;"
         offset="1.00000000"
         id="stop868" />
    </linearGradient>
    <linearGradient
       id="linearGradient584">
      <stop
         style="stop-color:#ffffff;stop-opacity:1;"
         offset="0.00000000"
         id="stop585" />
      <stop
         style="stop-color:#ffffff;stop-opacity:0;"
         offset="1.00000000"
         id="stop586" />
    </linearGradient>
    <linearGradient
       xlink:href="#linearGradient866"
       id="linearGradient586"
       x1="-0.00000000"
       y1="0.01562500"
       x2="0.99122804"
       y2="0.98437500" />
    <linearGradient
       xlink:href="#linearGradient584"
       id="linearGradient587"
       x1="0.00000000"
       y1="-0.00000000"
       x2="1.00000000"
       y2="1.00000000" />
    <linearGradient
       xlink:href="#linearGradient584"
       id="linearGradient700"
       x1="0.00000000"
       y1="-0.00000000"
       x2="0.98795182"
       y2="1.00000000" />
    <linearGradient
       xlink:href="#linearGradient703"
       id="linearGradient701"
       x1="-0.00000000"
       y1="-0.00000000"
       x2="0.99264705"
       y2="0.99218750" />
    <linearGradient
       xlink:href="#linearGradient703"
       id="linearGradient702"
       x1="-0.00000000"
       y1="0.00000000"
       x2="0.97457629"
       y2="0.96093750" />
    <linearGradient
       xlink:href="#linearGradient584"
       id="linearGradient845"
       x1="-0.00000000"
       y1="-0.00000000"
       x2="0.99635035"
       y2="0.97727275" />
    <radialGradient
       xlink:href="#linearGradient703"
       id="radialGradient846" />
    <linearGradient
       xlink:href="#linearGradient584"
       id="linearGradient847"
       x1="0.00000000"
       y1="-0.00000000"
       x2="0.98540145"
       y2="0.93902439" />
    <linearGradient
       xlink:href="#linearGradient703"
       id="linearGradient848"
       x1="0.01219511"
       y1="0.01562503"
       x2="0.99999994"
       y2="1.00000012" />
    <linearGradient
       xlink:href="#linearGradient584"
       id="linearGradient849"
       x1="0.00000000"
       y1="-0.00000000"
       x2="0.98514849"
       y2="1.02343750" />
    <linearGradient
       xlink:href="#linearGradient703"
       id="linearGradient850"
       x1="-0.00000000"
       y1="0.00000000"
       x2="1.00000000"
       y2="0.95652175" />
    <linearGradient
       xlink:href="#linearGradient584"
       id="linearGradient863"
       x1="-0.00000000"
       y1="-0.00000000"
       x2="0.99635035"
       y2="0.82142860" />
  </defs>
  <sodipodi:namedview
     id="base"
     pagecolor="#ffffff"
     bordercolor="#666666"
     borderopacity="1.0"
     inkscape:pageopacity="0.0"
     inkscape:pageshadow="2"
     inkscape:zoom="7.9794719"
     inkscape:cx="23.825571"
     inkscape:cy="21.642422"
     inkscape:window-width="640"
     inkscape:window-height="516"
     inkscape:window-x="149"
     inkscape:window-y="290" />
  <path
     d="M 4.4389304 48.086315 C 5.2483181 50.50443 38.765774 61.377487 40.966438 59.55288 C 42.936267 57.902492 57.675565 8.7785888 56.688667 6.8303779 C 55.662821 4.6824777 21.657054 -0.6675724 20.042945 0.80153134 C 18.054709 2.621752 3.5888672 45.311841 4.4389304 48.086315 z "
     style="font-size:12;opacity:0.302675;fill-rule:evenodd;stroke-width:12.5;"
     id="path639" />
  <path
     d="M 4.5541516 46.08493 C 5.3114351 48.34726 36.66955 58.519843 38.728432 56.812781 C 40.571358 55.268717 54.36111 9.3095333 53.437795 7.4867937 C 52.478034 5.477268 20.663028 0.47192513 19.152904 1.8463842 C 17.292759 3.5493405 3.7588508 43.489198 4.5541516 46.08493 z "
     style="font-size:12;fill:url(#linearGradient586);fill-rule:evenodd;stroke:#261933;stroke-width:1.87726;"
     id="path634" />
  <path
     d="M 6.6876568 43.965773 C 6.360392 43.13667 19.363758 4.5872629 20.579427 3.7922731 C 22.09876 2.7554118 46.659814 7.3454032 46.98631 8.172561 C 47.28557 8.9306762 27.823671 5.3906629 23.493845 9.2635774 C 15.189619 16.482895 6.9861475 44.721984 6.6876568 43.965773 z "
     style="font-size:12;opacity:0.699936;fill:url(#linearGradient587);fill-rule:evenodd;stroke:none;stroke-width:0.100121pt;"
     id="path640" />
  <path
     d="M 23.726699 17.435835 C 22.520937 18.188061 17.141348 32.950566 17.704507 34.212128 C 18.136034 35.322111 32.812132 38.98617 33.907239 38.370392 C 34.914047 37.869912 40.49706 21.826756 39.786105 20.733797 C 39.178581 19.67738 24.882594 16.852214 23.726699 17.435835 z "
     style="font-size:12;fill:url(#linearGradient701);fill-rule:evenodd;stroke:#261933;stroke-width:1.875;stroke-dasharray:none;"
     id="path1009" />
  <path
     d="M 19.678716 32.998743 C 19.550867 32.56395 24.106953 20.111085 24.984019 19.376914 C 25.593262 19.010302 37.190986 21.535146 37.315311 21.957902 C 37.429921 22.347643 28.126877 20.060186 25.700994 21.814576 C 23.680499 23.37947 19.789801 33.376533 19.678716 32.998743 z "
     style="font-size:12;opacity:0.699936;fill-rule:evenodd;stroke:none;stroke-width:0.0751066pt;fill:url(#linearGradient700);"
     id="path1010" />
  <g
     id="g1023">
    <path
       d="M 36.909513 19.187029 C 37.092159 18.164964 38.876625 15.603016 39.002514 15.682696 C 39.137023 15.767783 38.868785 18.543757 38.473603 19.445891 C 38.379988 19.659619 36.863484 19.44541 36.909513 19.187029 z "
       style="font-size:12;fill:#261933;fill-rule:evenodd;stroke-width:1pt;fill-opacity:1;"
       id="path1019"
       sodipodi:nodetypes="cccc" />
    <path
       d="M 33.223405 17.840543 C 33.405867 16.818477 34.877212 14.334949 35.003195 14.414535 C 35.13752 14.499625 35.026026 17.43225 34.630751 18.334475 C 34.537136 18.548112 33.177377 18.098926 33.223405 17.840543 z "
       style="font-size:12;fill:#261933;fill-rule:evenodd;stroke-width:1pt;fill-opacity:1;"
       id="path1020"
       sodipodi:nodetypes="cccc" />
    <path
       d="M 28.989428 17.01701 C 29.171983 15.994945 30.72156 13.432998 30.847451 13.512676 C 30.981868 13.597763 30.713723 16.295411 30.31854 17.197545 C 30.224923 17.411275 28.943401 17.27539 28.989428 17.01701 z "
       style="font-size:12;fill:#261933;fill-rule:evenodd;stroke-width:1pt;fill-opacity:1;"
       id="path1021"
       sodipodi:nodetypes="cccc" />
    <path
       d="M 25.03632 16.397668 C 25.218692 15.375696 26.455149 12.735422 26.581039 12.815011 C 26.715364 12.900097 26.682289 15.911049 26.287013 16.813184 C 26.193399 17.02691 24.9902 16.65605 25.03632 16.397668 z "
       style="font-size:12;fill:#261933;fill-rule:evenodd;stroke-width:1pt;fill-opacity:1;"
       id="path1022"
       sodipodi:nodetypes="cccc" />
  </g>
  <g
     id="g1028"
     transform="matrix(-1.000000,0.000000,0.000000,-1.000000,57.09415,55.05427)">
    <path
       d="M 36.909513 19.187029 C 37.092159 18.164964 38.876625 15.603016 39.002514 15.682696 C 39.137023 15.767783 38.868785 18.543757 38.473603 19.445891 C 38.379988 19.659619 36.863484 19.44541 36.909513 19.187029 z "
       style="font-size:12;fill:#261933;fill-rule:evenodd;stroke-width:1pt;fill-opacity:1;"
       id="path1029"
       sodipodi:nodetypes="cccc" />
    <path
       d="M 33.223405 17.840543 C 33.405867 16.818477 34.877212 14.334949 35.003195 14.414535 C 35.13752 14.499625 35.026026 17.43225 34.630751 18.334475 C 34.537136 18.548112 33.177377 18.098926 33.223405 17.840543 z "
       style="font-size:12;fill:#261933;fill-rule:evenodd;stroke-width:1pt;fill-opacity:1;"
       id="path1030"
       sodipodi:nodetypes="cccc" />
    <path
       d="M 28.989428 17.01701 C 29.171983 15.994945 30.72156 13.432998 30.847451 13.512676 C 30.981868 13.597763 30.713723 16.295411 30.31854 17.197545 C 30.224923 17.411275 28.943401 17.27539 28.989428 17.01701 z "
       style="font-size:12;fill:#261933;fill-rule:evenodd;stroke-width:1pt;fill-opacity:1;"
       id="path1031"
       sodipodi:nodetypes="cccc" />
    <path
       d="M 25.03632 16.397668 C 25.218692 15.375696 26.455149 12.735422 26.581039 12.815011 C 26.715364 12.900097 26.682289 15.911049 26.287013 16.813184 C 26.193399 17.02691 24.9902 16.65605 25.03632 16.397668 z "
       style="font-size:12;fill:#261933;fill-rule:evenodd;stroke-width:1pt;fill-opacity:1;"
       id="path1032"
       sodipodi:nodetypes="cccc" />
  </g>
  <g
     id="g1033"
     transform="matrix(-0.567025,0.823701,0.823701,0.567025,22.79302,-11.08083)">
    <path
       d="M 36.909513 19.187029 C 37.092159 18.164964 38.876625 15.603016 39.002514 15.682696 C 39.137023 15.767783 38.868785 18.543757 38.473603 19.445891 C 38.379988 19.659619 36.863484 19.44541 36.909513 19.187029 z "
       style="font-size:12;fill:#261933;fill-rule:evenodd;stroke-width:1pt;fill-opacity:1;"
       id="path1034"
       sodipodi:nodetypes="cccc" />
    <path
       d="M 33.223405 17.840543 C 33.405867 16.818477 34.877212 14.334949 35.003195 14.414535 C 35.13752 14.499625 35.026026 17.43225 34.630751 18.334475 C 34.537136 18.548112 33.177377 18.098926 33.223405 17.840543 z "
       style="font-size:12;fill:#261933;fill-rule:evenodd;stroke-width:1pt;fill-opacity:1;"
       id="path1035"
       sodipodi:nodetypes="cccc" />
    <path
       d="M 28.989428 17.01701 C 29.171983 15.994945 30.72156 13.432998 30.847451 13.512676 C 30.981868 13.597763 30.713723 16.295411 30.31854 17.197545 C 30.224923 17.411275 28.943401 17.27539 28.989428 17.01701 z "
       style="font-size:12;fill:#261933;fill-rule:evenodd;stroke-width:1pt;fill-opacity:1;"
       id="path1036"
       sodipodi:nodetypes="cccc" />
    <path
       d="M 25.03632 16.397668 C 25.218692 15.375696 26.455149 12.735422 26.581039 12.815011 C 26.715364 12.900097 26.682289 15.911049 26.287013 16.813184 C 26.193399 17.02691 24.9902 16.65605 25.03632 16.397668 z "
       style="font-size:12;fill:#261933;fill-rule:evenodd;stroke-width:1pt;fill-opacity:1;"
       id="path1037"
       sodipodi:nodetypes="cccc" />
  </g>
  <g
     id="g1038"
     transform="matrix(0.508740,-0.860921,-0.860921,-0.508740,37.18807,66.56238)">
    <path
       d="M 36.909513 19.187029 C 37.092159 18.164964 38.876625 15.603016 39.002514 15.682696 C 39.137023 15.767783 38.868785 18.543757 38.473603 19.445891 C 38.379988 19.659619 36.863484 19.44541 36.909513 19.187029 z "
       style="font-size:12;fill:#261933;fill-rule:evenodd;stroke-width:1pt;fill-opacity:1;"
       id="path1039"
       sodipodi:nodetypes="cccc" />
    <path
       d="M 33.223405 17.840543 C 33.405867 16.818477 34.877212 14.334949 35.003195 14.414535 C 35.13752 14.499625 35.026026 17.43225 34.630751 18.334475 C 34.537136 18.548112 33.177377 18.098926 33.223405 17.840543 z "
       style="font-size:12;fill:#261933;fill-rule:evenodd;stroke-width:1pt;fill-opacity:1;"
       id="path1040"
       sodipodi:nodetypes="cccc" />
    <path
       d="M 28.989428 17.01701 C 29.171983 15.994945 30.72156 13.432998 30.847451 13.512676 C 30.981868 13.597763 30.713723 16.295411 30.31854 17.197545 C 30.224923 17.411275 28.943401 17.27539 28.989428 17.01701 z "
       style="font-size:12;fill:#261933;fill-rule:evenodd;stroke-width:1pt;fill-opacity:1;"
       id="path1041"
       sodipodi:nodetypes="cccc" />
    <path
       d="M 25.03632 16.397668 C 25.218692 15.375696 26.455149 12.735422 26.581039 12.815011 C 26.715364 12.900097 26.682289 15.911049 26.287013 16.813184 C 26.193399 17.02691 24.9902 16.65605 25.03632 16.397668 z "
       style="font-size:12;fill:#261933;fill-rule:evenodd;stroke-width:1pt;fill-opacity:1;"
       id="path1042"
       sodipodi:nodetypes="cccc" />
  </g>
  <text
     xml:space="preserve"
     style="fill:black;fill-opacity:1;stroke:none;font-family:helvetica;font-style:normal;font-weight:normal;font-size:12px;stroke-opacity:1;stroke-width:1pt;stroke-linejoin:miter;stroke-linecap:butt;"
     x="32.315410"
     y="45.739591"
     id="text863"><tspan
       id="tspan864"></tspan></text>
  <rect
     style="fill:#000000;fill-opacity:0.30000001;fill-rule:evenodd;stroke:none;stroke-width:1.0000000pt;stroke-opacity:1.0000000;"
     id="rect937"
     x="18.921923"
     y="39.838369"
     rx="0.92346412"
     width="40.236656"
     height="12.888113" />
  <rect
     style="fill:#d9cce6;fill-opacity:0.80000001;fill-rule:evenodd;stroke:#261933;stroke-width:1.4254594;"
     id="rect862"
     x="17.200329"
     y="38.249528"
     rx="0.91030651"
     width="39.663361"
     height="12.750523" />
  <text
     xml:space="preserve"
     style="fill:black;fill-opacity:1;stroke:none;font-family:helvetica;font-style:normal;font-weight:normal;font-size:12px;stroke-opacity:1;stroke-width:1pt;stroke-linejoin:miter;stroke-linecap:butt;"
     x="32.315414"
     y="43.967276"
     id="text908"><tspan
       id="tspan909"></tspan></text>
  <path
     style="font-size:12.000000;stroke-width:1.0000000pt;font-family:Radio Stars;"
     d="M 53.769496,42.573799 L 50.829496,44.925799 L 50.829496,47.121799 C 50.829496,47.369799 50.749496,47.565799 50.589496,47.709799 C 50.429496,47.853799 50.241496,47.925799 50.025496,47.925799 C 49.801496,47.925799 49.617496,47.857799 49.473496,47.721799 C 49.305496,47.569799 49.221496,47.369799 49.221496,47.121799 L 49.221496,44.925799 L 46.281496,42.573799 C 46.065496,42.397799 45.957496,42.189799 45.957496,41.949799 C 45.957496,41.725799 46.041496,41.529799 46.209496,41.361799 C 46.369496,41.185799 46.561496,41.097799 46.785496,41.097799 C 46.961496,41.097799 47.129496,41.161799 47.289496,41.289799 C 48.193496,42.017799 49.101496,42.749799 50.013496,43.485799 L 52.761496,41.289799 C 52.913496,41.161799 53.081496,41.097799 53.265496,41.097799 C 53.481496,41.097799 53.669496,41.185799 53.829496,41.361799 C 53.997496,41.537799 54.081496,41.733799 54.081496,41.949799 C 54.081496,42.197799 53.977496,42.405799 53.769496,42.573799 z M 45.849496,47.121799 C 45.849496,47.665799 45.581496,47.937799 45.045496,47.937799 L 38.565496,47.937799 C 38.029496,47.937799 37.761496,47.665799 37.761496,47.121799 L 37.761496,41.937799 C 37.761496,41.393799 38.029496,41.121799 38.565496,41.121799 L 45.045496,41.121799 C 45.581496,41.121799 45.849496,41.393799 45.849496,41.937799 L 45.849496,47.121799 z M 44.241496,46.305799 L 44.241496,42.753799 L 39.369496,42.753799 L 39.369496,46.305799 L 44.241496,46.305799 z M 36.861496,47.121799 C 36.861496,47.665799 36.593496,47.937799 36.057496,47.937799 L 28.773496,47.937799 L 28.773496,41.121799 L 36.057496,41.121799 C 36.593496,41.121799 36.861496,41.393799 36.861496,41.937799 L 36.861496,43.713799 C 36.853496,43.857799 36.821496,43.981799 36.765496,44.085799 C 36.629496,44.341799 36.393496,44.481799 36.057496,44.505799 C 36.561496,44.553799 36.829496,44.833799 36.861496,45.345799 L 36.861496,47.121799 z M 35.253496,43.713799 L 35.253496,42.753799 L 30.381496,42.753799 L 30.381496,43.713799 L 35.253496,43.713799 z M 35.253496,46.305799 L 35.253496,45.345799 L 30.381496,45.345799 L 30.381496,46.305799 L 35.253496,46.305799 z M 28.005496,47.121799 C 28.005496,47.665799 27.737496,47.937799 27.201496,47.937799 L 20.721496,47.937799 C 20.177496,47.937799 19.905496,47.665799 19.905496,47.121799 L 19.905496,41.937799 C 19.905496,41.393799 20.177496,41.121799 20.721496,41.121799 L 27.201496,41.121799 C 27.457496,41.121799 27.653496,41.201799 27.789496,41.361799 C 27.933496,41.521799 28.005496,41.713799 28.005496,41.937799 C 28.005496,42.161799 27.933496,42.353799 27.789496,42.513799 C 27.653496,42.673799 27.457496,42.753799 27.201496,42.753799 L 21.525496,42.753799 L 21.525496,46.305799 L 26.385496,46.305799 L 26.385496,45.345799 L 23.949496,45.345799 C 23.693496,45.345799 23.493496,45.265799 23.349496,45.105799 C 23.213496,44.945799 23.145496,44.753799 23.145496,44.529799 C 23.145496,44.305799 23.213496,44.113799 23.349496,43.953799 C 23.493496,43.793799 23.693496,43.713799 23.949496,43.713799 L 28.005496,43.713799 L 28.005496,47.121799 z "
     id="path914" />
</svg>
