<?xml version="1.0" encoding="UTF-8" standalone="no"?>
<!DOCTYPE svg PUBLIC "-//W3C//DTD SVG 20010904//EN"
"http://www.w3.org/TR/2001/REC-SVG-20010904/DTD/svg10.dtd">
<!-- Created with Inkscape (http://www.inkscape.org/) -->
<svg
   version="1.0"
   x="0.0000000"
   y="0.0000000"
   width="60.000000"
   height="60.000000"
   id="svg1"
   xmlns="http://www.w3.org/2000/svg"
   xmlns:xlink="http://www.w3.org/1999/xlink"
   xmlns:sodipodi="http://sodipodi.sourceforge.net/DTD/sodipodi-0.dtd"
   xmlns:inkscape="http://www.inkscape.org/namespaces/inkscape"
   sodipodi:version="0.32"
   inkscape:version="0.38.1"
   sodipodi:docname="6.svg"
   sodipodi:docbase="/home/freaknl/Projecten/Icons">
  <sodipodi:namedview
     id="base"
     pagecolor="#ffffff"
     bordercolor="#666666"
     borderopacity="1.0"
     inkscape:pageopacity="0.0"
     inkscape:pageshadow="2"
     inkscape:zoom="12.166667"
     inkscape:cx="24.000000"
     inkscape:cy="24.000000"
     inkscape:window-width="1024"
     inkscape:window-height="722"
     inkscape:window-x="800"
     inkscape:window-y="0"
     showguides="true"
     snaptoguides="true" />
  <defs
     id="defs3">
    <linearGradient
       id="linearGradient642">
      <stop
         style="stop-color:#d9cce6;stop-opacity:1.0000000;"
         offset="0.0000000"
         id="stop643" />
      <stop
         style="stop-color:#73667f;stop-opacity:1.0000000;"
         offset="1.0000000"
         id="stop644" />
    </linearGradient>
    <linearGradient
       id="linearGradient866">
      <stop
         style="stop-color:#ffffff;stop-opacity:1.0000000;"
         offset="0.0000000"
         id="stop867" />
      <stop
         style="stop-color:#d9cce6;stop-opacity:1.0000000;"
         offset="1.0000000"
         id="stop868" />
    </linearGradient>
    <linearGradient
       id="linearGradient584">
      <stop
         style="stop-color:#ffffff;stop-opacity:1.0000000;"
         offset="0.0000000"
         id="stop585" />
      <stop
         style="stop-color:#ffffff;stop-opacity:0.0000000;"
         offset="1.0000000"
         id="stop586" />
    </linearGradient>
    <linearGradient
       x1="-0.0000000"
       y1="0.015625000"
       x2="0.99122804"
       y2="0.98437500"
       id="linearGradient586"
       xlink:href="#linearGradient866" />
    <linearGradient
       x1="0.0000000"
       y1="-0.0000000"
       x2="1.0000000"
       y2="1.0000000"
       id="linearGradient587"
       xlink:href="#linearGradient584" />
    <linearGradient
       x1="3.2352593e-16"
       y1="0.50000000"
       x2="1.0000000"
       y2="0.50000000"
       id="linearGradient638"
       xlink:href="#linearGradient866" />
    <radialGradient
       id="radialGradient639"
       xlink:href="#linearGradient866" />
    <linearGradient
       x1="6.6092964e-16"
       y1="0.50000000"
       x2="1.0000000"
       y2="0.50000000"
       id="linearGradient640"
       xlink:href="#linearGradient642" />
    <linearGradient
       id="linearGradient641"
       xlink:href="#linearGradient642" />
    <linearGradient
       id="linearGradient645"
       xlink:href="#linearGradient866"
       x1="-2.9663771e-16"
       y1="0.50000000"
       x2="1.0000000"
       y2="0.50000000" />
    <linearGradient
       xlink:href="#linearGradient866"
       id="linearGradient856"
       x1="-2.6107588e-16"
       y1="0.50000000"
       x2="1.0000000"
       y2="0.50000000" />
  </defs>
  <path
     d="M 34.623284,10.890412 C 34.623284,7.5513711 46.746573,7.8082222 46.746572,10.890412 C 46.849311,13.458903 34.726024,13.613015 34.623284,10.890412 z "
     style="fill:url(#linearGradient638);stroke:#261933;stroke-linejoin:round;"
     id="path867"
     sodipodi:nodetypes="ccc" />
  <path
     d="M 4.4389304,48.086315 C 5.2483181,50.504430 38.765774,61.377487 40.966438,59.552880 C 42.936267,57.902492 57.675565,8.7785888 56.688667,6.8303779 C 55.662821,4.6824777 21.657054,-0.66757240 20.042945,0.80153134 C 18.054709,2.6217520 3.5888672,45.311841 4.4389304,48.086315 z "
     style="font-size:12.000000;opacity:0.30267498;fill-rule:evenodd;stroke-width:12.500000;"
     id="path639" />
  <path
     d="M 4.5541516,46.084930 C 5.3114351,48.347260 36.669550,58.519843 38.728432,56.812781 C 40.571358,55.268717 54.361110,9.3095333 53.437795,7.4867937 C 52.478034,5.4772680 20.663028,0.47192513 19.152904,1.8463842 C 17.292759,3.5493405 3.7588508,43.489198 4.5541516,46.084930 z "
     style="font-size:12.000000;fill:url(#linearGradient586);fill-rule:evenodd;stroke:#261933;stroke-width:1.8772600;"
     id="path634" />
  <path
     d="M 6.6876568,43.965773 C 6.3603920,43.136670 19.363758,4.5872629 20.579427,3.7922731 C 22.098760,2.7554118 46.659814,7.3454032 46.986310,8.1725610 C 47.285570,8.9306762 27.823671,5.3906629 23.493845,9.2635774 C 15.189619,16.482895 6.9861475,44.721984 6.6876568,43.965773 z "
     style="font-size:12.000000;opacity:0.69993597;fill:url(#linearGradient587);fill-rule:evenodd;stroke-width:0.10012100pt;"
     id="path640" />
  <path
     d="M 20.462828,19.277111 C 16.353240,13.523686 25.893124,5.4546947 31.030109,12.132776 C 35.927369,5.6601738 46.056222,16.032820 39.652112,20.347889 C 47.597317,21.272546 44.823344,33.909533 37.186358,32.162957 C 42.734304,38.258847 29.994578,52.162957 25.268550,42.436930 C 17.871290,49.115012 9.1533260,37.852667 19.221818,32.921160 C 11.139625,31.037599 13.339541,19.208618 20.462828,19.277111 z "
     id="path865"
     nodetypes="ccccccc"
     style="fill:#ffffff;fill-opacity:0.50000000;stroke:#261933;stroke-opacity:1.0000000;stroke-linejoin:round;stroke-width:1.2500000;stroke-dasharray:none;" />
  <g
     id="g884"
     transform="translate(4.417808,-4.212329)">
    <path
       style="fill:#ffffff;fill-rule:evenodd;stroke:none;stroke-opacity:1;stroke-width:1pt;stroke-linejoin:miter;stroke-linecap:butt;fill-opacity:1.0000000;"
       d="M 7.6856946,45.077742 L 16.049015,47.070704 C 16.049015,47.070704 21.600837,43.689787 21.565248,43.476255 C 21.529659,43.262724 21.494071,36.002650 21.494071,36.002650 L 13.237516,34.223220 L 7.5077516,36.322947 L 7.6856946,45.077742 z "
       id="path874" />
    <g
       id="g876"
       transform="translate(-3.390411,3.904109)">
      <path
         style="fill:url(#linearGradient641);fill-rule:evenodd;stroke:#261933;stroke-opacity:1.0000000;stroke-width:1pt;stroke-linejoin:round;stroke-linecap:butt;fill-opacity:0.75;"
         d="M 10.949483,32.524909 L 16.728376,30.294459 L 24.798135,32.053578 L 25.041873,39.723180 L 19.465748,43.068855 L 11.152251,41.243942 L 10.949483,32.524909 z "
         id="path870"
         sodipodi:nodetypes="ccccccc" />
      <path
         d="M 12.155371,40.387954 C 12.089562,39.354540 11.971228,33.795096 12.253235,33.609407 C 12.527371,33.444909 17.750820,34.666352 18.593793,34.849088 C 19.018094,34.945120 13.674983,34.163829 12.953564,34.446595 C 12.232508,34.693630 12.185408,41.415114 12.155371,40.387954 z "
         style="font-size:12.000000;opacity:0.69993597;fill:url(#linearGradient587);fill-rule:evenodd;stroke-width:0.10012100pt;"
         id="path871"
         sodipodi:nodetypes="cssss" />
      <path
         d="M 19.515141,41.634480 C 19.449332,40.601066 19.117466,35.183976 19.399473,34.998287 C 19.673609,34.833789 22.441445,33.386087 23.533538,33.034994 C 23.936456,32.870948 20.572101,34.912114 20.028625,35.444000 C 19.467287,35.959604 19.545178,42.661640 19.515141,41.634480 z "
         style="font-size:12.000000;opacity:0.69993597;fill:url(#linearGradient587);fill-rule:evenodd;stroke-width:0.10012100pt;"
         id="path873"
         sodipodi:nodetypes="cssss" />
      <path
         d="M 12.433010,33.164394 C 13.328093,32.664809 16.535724,31.425447 16.872683,31.403839 C 17.217996,31.346107 21.694084,32.282841 22.786178,32.679108 C 23.199265,32.815536 17.664603,31.816208 16.896828,31.920729 C 16.424893,31.989821 11.513369,33.622891 12.433010,33.164394 z "
         style="font-size:12.000000;opacity:0.69993597;fill:url(#linearGradient587);fill-rule:evenodd;stroke-width:0.10012100pt;"
         id="path875"
         sodipodi:nodetypes="cssss" />
    </g>
  </g>
  <rect
     width="32.616184"
     height="12.888113"
     rx="0.74856806"
     x="26.542393"
     y="39.838367"
     style="fill-opacity:0.29999998;fill-rule:evenodd;stroke-width:1.0000000pt;"
     id="rect937" />
  <rect
     width="32.501825"
     height="12.750523"
     rx="0.74594342"
     x="24.446175"
     y="38.249527"
     style="fill:#d9cce6;fill-opacity:0.80000001;fill-rule:evenodd;stroke:#261933;stroke-width:1.2903692;"
     id="rect862" />
  <path
     d="M 54.149589,47.773972 L 47.669589,47.773972 C 47.133589,47.773972 46.865589,47.501972 46.865589,46.957972 L 46.865589,41.773972 C 46.865589,41.517972 46.945589,41.321972 47.105589,41.185972 C 47.265589,41.041972 47.453589,40.969972 47.669589,40.969972 C 47.885589,40.969972 48.073589,41.041972 48.233589,41.185972 C 48.393589,41.321972 48.473589,41.517972 48.473589,41.773972 L 48.473589,46.141972 L 54.149589,46.141972 C 54.389589,46.141972 54.573589,46.221972 54.701589,46.381972 C 54.837589,46.541972 54.905589,46.733972 54.905589,46.957972 C 54.905589,47.181972 54.837589,47.373972 54.701589,47.533972 C 54.573589,47.693972 54.389589,47.773972 54.149589,47.773972 z M 44.885589,47.773972 L 37.145589,47.773972 C 36.601589,47.773972 36.329589,47.501972 36.329589,46.957972 L 36.329589,41.773972 C 36.329589,41.229972 36.601589,40.957972 37.145589,40.957972 L 43.625589,40.957972 C 44.161589,40.957972 44.429589,41.229972 44.429589,41.773972 L 44.429589,46.141972 L 44.885589,46.141972 C 45.149589,46.141972 45.353589,46.221972 45.497589,46.381972 C 45.641589,46.541972 45.713589,46.733972 45.713589,46.957972 C 45.713589,47.181972 45.641589,47.373972 45.497589,47.533972 C 45.353589,47.693972 45.149589,47.773972 44.885589,47.773972 z M 42.809589,46.141972 L 42.809589,42.589972 L 37.949589,42.589972 L 37.949589,46.141972 L 42.809589,46.141972 z M 35.177797,46.957972 C 35.177797,47.501972 34.905797,47.773972 34.361797,47.773972 L 27.881797,47.773972 C 27.625797,47.773972 27.425797,47.693972 27.281797,47.533972 C 27.145797,47.373972 27.077797,47.181972 27.077797,46.957972 C 27.077797,46.733972 27.145797,46.541972 27.281797,46.381972 C 27.425797,46.221972 27.625797,46.141972 27.881797,46.141972 L 33.557797,46.141972 L 33.557797,45.181972 L 27.881797,45.181972 C 27.345797,45.181972 27.077797,44.909972 27.077797,44.365972 L 27.077797,41.773972 C 27.077797,41.229972 27.345797,40.957972 27.881797,40.957972 L 34.361797,40.957972 C 34.617797,40.957972 34.817797,41.037972 34.961797,41.197972 C 35.105797,41.357972 35.177797,41.549972 35.177797,41.773972 C 35.177797,41.997972 35.105797,42.189972 34.961797,42.349972 C 34.817797,42.509972 34.617797,42.589972 34.361797,42.589972 L 28.697797,42.589972 L 28.697797,43.549972 L 34.361797,43.549972 C 34.905797,43.549972 35.177797,43.821972 35.177797,44.365972 L 35.177797,46.957972 z "
     id="path902" />
  <path
     style="fill:none;fill-rule:evenodd;stroke:#261933;stroke-opacity:1.0000000;stroke-width:1pt;stroke-linejoin:round;stroke-linecap:round;fill-opacity:0.75;"
     d="M 25.171233,27.945205 C 26.678082,24.520548 29.006850,22.945206 31.849316,21.986302 L 31.335617,24.863014"
     id="path858"
     sodipodi:nodetypes="ccc" />
  <path
     style="fill:none;fill-rule:evenodd;stroke:#261933;stroke-opacity:1.0000000;stroke-width:1pt;stroke-linejoin:round;stroke-linecap:round;fill-opacity:0.75;"
     d="M 22.243151,22.705479 L 22.564213,26.455480 C 24.462836,22.629311 28.013700,19.691781 30.976029,19.109590"
     id="path859"
     sodipodi:nodetypes="ccc" />
  <g
     id="g881">
    <path
       d="M 34.623284,11.402756 C 34.520545,14.313715 34.419160,18.350744 34.830119,21.467182 C 35.652038,23.556223 46.334256,23.489085 46.950695,20.954838 C 47.224668,17.769906 47.299949,14.217490 47.060224,10.929818 C 45.892674,8.9988748 35.174396,8.8131513 34.623284,11.402756 z "
       style="fill:url(#linearGradient640);stroke:#261933;stroke-linejoin:round;stroke-width:1.2500000;stroke-dasharray:none;"
       id="path869"
       sodipodi:nodetypes="ccccc" />
    <path
       d="M 35.893007,20.559746 C 35.702963,19.675755 35.388567,12.329813 35.670574,12.144124 C 35.944710,11.979626 38.553620,12.918727 40.887037,12.854008 C 43.220454,12.789290 45.290501,11.920189 45.961467,11.853495 C 46.385538,11.752280 43.178608,13.280491 40.973232,13.605516 C 38.767855,13.930542 37.417746,13.482075 36.655612,13.621906 C 36.112499,13.726587 36.301274,21.508066 35.893007,20.559746 z "
       style="font-size:12.000000;opacity:0.69993597;fill:url(#linearGradient587);fill-rule:evenodd;stroke-width:0.10012100pt;"
       id="path864"
       sodipodi:nodetypes="csscssc" />
  </g>
</svg>
