<?xml version="1.0" encoding="UTF-8" standalone="no"?>
<!DOCTYPE svg PUBLIC "-//W3C//DTD SVG 20010904//EN"
"http://www.w3.org/TR/2001/REC-SVG-20010904/DTD/svg10.dtd">
<!-- Created with Inkscape (http://www.inkscape.org/) -->
<svg
   id="svg1"
   sodipodi:version="0.32"
   inkscape:version="0.37"
   width="48pt"
   height="48pt"
   sodipodi:docbase="/home/dan/Projects/Lila-icons/scalable/mimetypes"
   sodipodi:docname="gnome-mime-text-x-install.svg"
   xmlns="http://www.w3.org/2000/svg"
   xmlns:inkscape="http://www.inkscape.org/namespaces/inkscape"
   xmlns:sodipodi="http://sodipodi.sourceforge.net/DTD/sodipodi-0.dtd"
   xmlns:xlink="http://www.w3.org/1999/xlink">
  <defs
     id="defs3">
    <linearGradient
       id="linearGradient679">
      <stop
         style="stop-color:#ffffff;stop-opacity:1;"
         offset="0.000000"
         id="stop680" />
      <stop
         style="stop-color:#d9d1e1;stop-opacity:1;"
         offset="1.000000"
         id="stop681" />
    </linearGradient>
    <linearGradient
       id="linearGradient675">
      <stop
         style="stop-color:#d9cce6;stop-opacity:1;"
         offset="0.000000"
         id="stop676" />
      <stop
         style="stop-color:#73667f;stop-opacity:1;"
         offset="1.000000"
         id="stop677" />
    </linearGradient>
    <linearGradient
       id="linearGradient670">
      <stop
         style="stop-color:#cccccc;stop-opacity:1;"
         offset="0.000000"
         id="stop671" />
      <stop
         style="stop-color:#7f7f7f;stop-opacity:1;"
         offset="1.000000"
         id="stop672" />
    </linearGradient>
    <linearGradient
       id="linearGradient866">
      <stop
         style="stop-color:#ffffff;stop-opacity:1;"
         offset="0.000000"
         id="stop867" />
      <stop
         style="stop-color:#d9cce6;stop-opacity:1;"
         offset="1.000000"
         id="stop868" />
    </linearGradient>
    <linearGradient
       id="linearGradient584">
      <stop
         style="stop-color:#ffffff;stop-opacity:1;"
         offset="0.00000000"
         id="stop585" />
      <stop
         style="stop-color:#ffffff;stop-opacity:0;"
         offset="1.00000000"
         id="stop586" />
    </linearGradient>
    <linearGradient
       xlink:href="#linearGradient866"
       id="linearGradient586"
       x1="-0.00000000"
       y1="0.01562500"
       x2="0.99122804"
       y2="0.98437500" />
    <linearGradient
       xlink:href="#linearGradient584"
       id="linearGradient587"
       x1="0.00000000"
       y1="-0.00000000"
       x2="1.00000000"
       y2="1.00000000" />
    <linearGradient
       xlink:href="#linearGradient866"
       id="linearGradient607"
       x1="0.01538462"
       y1="0.02343754"
       x2="0.96923077"
       y2="0.98437500"
       gradientUnits="objectBoundingBox"
       spreadMethod="pad" />
    <linearGradient
       xlink:href="#linearGradient584"
       id="linearGradient609"
       x1="-0.01351354"
       y1="0.02343817"
       x2="1.00000000"
       y2="0.99218750"
       gradientUnits="objectBoundingBox"
       spreadMethod="pad" />
    <linearGradient
       xlink:href="#linearGradient584"
       id="linearGradient610"
       x1="0.00999962"
       y1="0.53906250"
       x2="0.97999990"
       y2="0.53906250"
       gradientUnits="objectBoundingBox"
       spreadMethod="pad" />
    <linearGradient
       xlink:href="#linearGradient584"
       id="linearGradient611"
       x1="0.02083209"
       y1="0.53125000"
       x2="0.98958343"
       y2="0.55468750"
       gradientUnits="objectBoundingBox"
       spreadMethod="pad" />
    <linearGradient
       xlink:href="#linearGradient584"
       id="linearGradient667"
       x1="0.03246713"
       y1="0.03125072"
       x2="0.96753246"
       y2="0.97656250"
       gradientUnits="objectBoundingBox"
       spreadMethod="pad" />
    <linearGradient
       xlink:href="#linearGradient584"
       id="linearGradient668"
       x1="0.01223368"
       y1="0.01568890"
       x2="1.00000012"
       y2="1.00000095"
       gradientUnits="objectBoundingBox"
       spreadMethod="pad" />
    <linearGradient
       xlink:href="#linearGradient670"
       id="linearGradient669"
       x1="0.01898498"
       y1="0.01562944"
       x2="0.98734170"
       y2="0.98437512"
       gradientUnits="objectBoundingBox"
       spreadMethod="pad" />
    <linearGradient
       xlink:href="#linearGradient584"
       id="linearGradient673"
       x1="0.00780695"
       y1="0.02344192"
       x2="0.97656244"
       y2="0.98437577"
       gradientUnits="objectBoundingBox"
       spreadMethod="pad" />
    <linearGradient
       xlink:href="#linearGradient675"
       id="linearGradient674"
       x1="0.00793687"
       y1="0.00000039"
       x2="0.98412704"
       y2="0.97656238"
       gradientUnits="objectBoundingBox"
       spreadMethod="pad" />
    <linearGradient
       xlink:href="#linearGradient679"
       id="linearGradient678"
       x1="0.01875959"
       y1="0.01564753"
       x2="0.98750019"
       y2="0.99218827"
       gradientUnits="objectBoundingBox"
       spreadMethod="pad" />
    <linearGradient
       xlink:href="#linearGradient679"
       id="linearGradient682" />
  </defs>
  <sodipodi:namedview
     id="base"
     pagecolor="#ffffff"
     bordercolor="#666666"
     borderopacity="1.0"
     inkscape:pageopacity="0.0"
     inkscape:pageshadow="2"
     inkscape:zoom="5.64233870"
     inkscape:cx="27.6610366"
     inkscape:cy="24.7075699"
     inkscape:window-width="640"
     inkscape:window-height="516"
     inkscape:window-x="108"
     inkscape:window-y="345" />
  <path
     d="M 4.4389304 48.086315 C 5.2483181 50.50443 38.765774 61.377487 40.966438 59.55288 C 42.936267 57.902492 57.675565 8.7785888 56.688667 6.8303779 C 55.662821 4.6824777 21.657054 -0.6675724 20.042945 0.80153134 C 18.054709 2.621752 3.5888672 45.311841 4.4389304 48.086315 z "
     style="font-size:12;opacity:0.302675;fill-rule:evenodd;stroke-width:12.5;"
     id="path639" />
  <path
     d="M 4.5541516 46.08493 C 5.3114351 48.34726 36.66955 58.519843 38.728432 56.812781 C 40.571358 55.268717 54.36111 9.3095333 53.437795 7.4867937 C 52.478034 5.477268 20.663028 0.47192513 19.152904 1.8463842 C 17.292759 3.5493405 3.7588508 43.489198 4.5541516 46.08493 z "
     style="font-size:12;fill:url(#linearGradient586);fill-rule:evenodd;stroke:#261933;stroke-width:1.87726;"
     id="path634" />
  <path
     d="M 6.6876568 43.965773 C 6.360392 43.13667 19.363758 4.5872629 20.579427 3.7922731 C 22.09876 2.7554118 46.659814 7.3454032 46.98631 8.172561 C 47.28557 8.9306762 27.823671 5.3906629 23.493845 9.2635774 C 15.189619 16.482895 6.9861475 44.721984 6.6876568 43.965773 z "
     style="font-size:12;opacity:0.699936;fill:url(#linearGradient587);fill-rule:evenodd;stroke:none;stroke-width:0.100121pt;"
     id="path640" />
  <path
     d="M 31.763011 21.667768 C 31.664441 22.776244 30.684846 23.675844 29.576369 23.675844 C 28.467892 23.675844 27.648239 22.776244 27.746808 21.667768 C 27.845378 20.55929 28.825025 19.659642 29.933503 19.659642 C 31.041979 19.659642 31.86158 20.55929 31.763011 21.667768 z M 42.533398 21.473407 C 41.900648 28.589091 35.612028 34.364128 28.496344 34.364128 C 21.380659 34.364128 16.119152 28.589091 16.751901 21.473407 C 17.384651 14.357723 23.673231 8.5826373 30.788916 8.5826373 C 37.9046 8.5826373 43.166147 14.357723 42.533398 21.473407 z "
     style="font-size:12;opacity:0.302675;fill-rule:evenodd;stroke-width:12.5;"
     id="path782" />
  <path
     d="M 30.924816 20.496667 C 30.828295 21.582112 29.869052 22.463023 28.783606 22.463023 C 27.69816 22.463023 26.895536 21.582112 26.992058 20.496667 C 27.088579 19.411221 28.047873 18.530264 29.13332 18.530264 C 30.218765 18.530264 31.021338 19.411221 30.924816 20.496667 z M 41.471426 20.306346 C 40.851823 27.274187 34.693862 32.929236 27.726021 32.929236 C 20.758179 32.929236 15.60599 27.274187 16.225592 20.306346 C 16.845195 13.338504 23.003116 7.6834313 29.970958 7.6834313 C 36.938799 7.6834313 42.091029 13.338504 41.471426 20.306346 z "
     style="font-size:12;fill:url(#linearGradient607);fill-rule:evenodd;stroke:#261933;stroke-width:1.25;"
     id="path773" />
  <path
     d="M 18.372168 26.839802 C 16.274288 24.259553 15.749037 13.549841 24.727198 9.5863617 C 32.009302 6.3985444 38.402772 11.507168 38.763844 12.948226 C 38.871997 13.354467 33.338994 8.2962097 25.844966 11.996762 C 14.85216 17.379457 18.629438 27.166087 18.372168 26.839802 z "
     style="font-size:12;opacity:0.7;fill:url(#linearGradient609);fill-rule:evenodd;stroke-width:0.0778586pt;"
     id="path774" />
  <path
     d="M 33.624557 20.586302 C 33.404646 23.059347 30.907742 25.153544 28.518632 25.234112 C 25.866222 25.234112 23.845524 23.014529 24.153559 20.541484 C 24.472724 17.978851 26.712757 15.714262 29.365168 15.714262 C 31.838165 15.714262 33.945186 18.025275 33.624557 20.586302 z M 32.378138 20.560045 C 32.206891 22.485833 30.504959 24.048782 28.579171 24.048782 C 26.653382 24.048782 25.229415 22.485833 25.400662 20.560045 C 25.57191 18.634256 27.273841 17.071306 29.19963 17.071306 C 31.125418 17.071306 32.549385 18.634256 32.378138 20.560045 z "
     style="font-size:12;opacity:0.100892;fill:#3f003f;fill-rule:evenodd;stroke-width:1pt;"
     id="path779" />
  <path
     d="M 29.735215 18.181358 C 29.716724 18.361148 30.738901 19.068406 30.901658 18.974237 C 33.48841 17.00722 38.478438 14.060545 38.715963 12.060186 C 38.882887 10.64666 32.029936 7.7645518 31.771032 8.1274044 C 30.643254 9.8276117 30.07419 14.978527 29.735215 18.181358 z "
     style="font-size:12;fill:url(#linearGradient610);fill-rule:evenodd;stroke-width:1pt;"
     id="path780" />
  <path
     d="M 28.501885 22.703262 C 28.501659 22.52418 27.401755 21.933145 27.248201 22.042804 C 24.85694 24.249068 20.155445 27.669706 20.125843 29.665436 C 20.10585 31.075656 27.285984 33.205745 27.507977 32.821419 C 28.462542 31.029187 28.496038 25.894475 28.501885 22.703262 z "
     style="font-size:12;fill:url(#linearGradient611);fill-rule:evenodd;stroke-width:1pt;"
     id="path781" />
  <path
     d="M 21.379922 44.391 C 21.842615 45.156985 37.071252 50.500127 37.790006 50.183159 C 38.47949 49.826345 44.009286 32.069956 43.606849 31.346688 C 43.295014 30.757174 26.875811 27.25157 26.329298 27.680836 C 25.754913 28.187982 21.001708 43.674473 21.379922 44.391 z "
     style="font-size:12;opacity:0.302675;fill-rule:evenodd;stroke-width:12.5;"
     id="path1382" />
  <path
     d="M 20.330591 42.923566 C 20.793283 43.68955 36.021921 49.032693 36.740675 48.715725 C 37.430158 48.35891 42.959955 30.602522 42.557517 29.879254 C 42.245683 29.28974 25.82648 25.784136 25.279967 26.213401 C 24.705581 26.720557 19.952376 42.207038 20.330591 42.923566 z "
     style="font-size:12;fill:url(#linearGradient674);fill-rule:evenodd;stroke:#261933;stroke-width:1.25;"
     id="path1289" />
  <path
     d="M 23.194133 43.966901 C 23.641947 41.78707 24.30079 39.855755 25.017029 37.929128 C 28.631934 38.975957 32.122621 40.128327 35.661326 41.400217 C 35.06346 43.529233 34.403463 45.711037 33.642666 47.711106 C 29.943376 46.753725 26.678941 45.42711 23.194133 43.966901 z "
     style="font-size:12;fill:#595161;fill-rule:evenodd;stroke:#261933;stroke-width:0.75;stroke-dasharray:none;"
     id="path1294" />
  <path
     d="M 28.013434 26.725719 C 27.076414 29.231787 26.111256 32.082434 25.562186 34.79364 C 29.097762 36.103836 33.217096 37.346061 36.838296 38.316325 C 37.887843 35.376188 38.836586 32.254357 39.603678 29.233332 C 36.017658 28.304469 31.636935 27.195083 28.013434 26.725719 z "
     style="font-size:12;fill:url(#linearGradient678);fill-rule:evenodd;stroke:#261933;stroke-width:0.75;stroke-dasharray:none;"
     id="path1295" />
  <path
     d="M 25.84735 39.702345 C 25.490362 40.736156 25.133369 41.770009 24.77638 42.80382 C 25.173655 42.945272 25.484812 43.079734 25.882085 43.221186 C 26.18272 42.210025 26.636334 41.095672 26.965688 40.086856 C 26.624767 39.922754 26.250399 39.813699 25.84735 39.702345 z M 23.477179 43.848471 C 23.904556 41.83091 24.579926 40.102232 25.167889 38.242337 C 27.886031 39.001147 30.934359 39.964924 33.602675 40.979859 C 33.03914 42.894637 32.268466 44.895079 31.585365 46.857915 C 28.842791 46.044263 26.155856 45.09056 23.477179 43.848471 z "
     style="font-size:12;fill:url(#linearGradient669);fill-rule:evenodd;stroke-width:6.25;"
     id="path1306"
     sodipodi:nodetypes="cccccccccc" />
  <path
     d="M 21.291785 42.481675 C 21.162446 42.04915 25.010328 27.914347 26.009051 27.197977 C 27.005639 26.474962 40.992725 30.094013 41.118126 30.513335 C 41.234943 30.903981 30.283663 27.385803 26.92678 29.412203 C 23.674855 31.375243 21.404663 42.859117 21.291785 42.481675 z "
     style="font-size:12;opacity:0.7;fill:url(#linearGradient667);fill-rule:evenodd;stroke-width:1pt;"
     id="path1310" />
  <path
     d="M 23.840172 43.379092 C 23.8118 43.296506 25.065134 38.778224 25.382918 38.648272 C 25.858862 38.434982 29.003029 39.557948 29.031229 39.640052 C 29.057506 39.716557 26.521035 38.91136 25.771326 39.384042 C 25.009707 39.870844 23.866315 43.45516 23.840172 43.379092 z "
     style="font-size:12;opacity:0.7;fill:url(#linearGradient673);fill-rule:evenodd;stroke-width:1pt;"
     id="path1315"
     sodipodi:nodetypes="ccccc" />
  <path
     d="M 25.083114 43.13821 C 25.069535 43.094161 25.760147 43.62524 25.923571 43.467037 C 26.283337 43.118712 26.638373 41.572051 26.652688 41.618541 C 26.668818 41.670919 26.436171 43.511874 26.087714 43.849261 C 25.912979 44.018444 25.100026 43.19299 25.083114 43.13821 z "
     style="font-size:12;opacity:0.99;fill:url(#linearGradient668);fill-rule:evenodd;stroke-width:1pt;"
     id="path1316" />
  <path
     d="M 28.542067 29.463122 C 31.389458 30.149541 34.660257 31.106155 37.346078 32.105087 C 37.51946 32.169584 37.301708 32.697357 37.119625 32.653492 C 34.294576 31.972554 31.032423 30.937652 28.324817 29.930606 C 28.173263 29.874227 28.382376 29.424656 28.542067 29.463122 z "
     style="font-size:12;opacity:0.25;fill-rule:evenodd;stroke-width:1pt;"
     id="path1379" />
  <path
     d="M 28.085911 31.042807 C 30.933305 31.729183 34.204062 32.685794 36.889921 33.684773 C 37.063261 33.749266 36.845551 34.277042 36.66347 34.233178 C 33.838423 33.552197 30.576225 32.517334 27.868661 31.510291 C 27.717065 31.453908 27.926222 31.0043 28.085911 31.042807 z "
     style="font-size:12;opacity:0.25;fill-rule:evenodd;stroke-width:1pt;"
     id="path1380" />
  <path
     d="M 27.593183 32.705897 C 30.440581 33.392231 33.71138 34.348845 36.397197 35.347821 C 36.570579 35.412317 36.352785 35.940086 36.170787 35.896229 C 33.345741 35.215248 30.083544 34.180386 27.375937 33.173338 C 27.224382 33.116959 27.43354 32.66735 27.593183 32.705897 z "
     style="font-size:12;opacity:0.25;fill-rule:evenodd;stroke-width:1pt;"
     id="path1381" />
</svg>
