<?xml version="1.0" encoding="UTF-8" standalone="no"?>
<!DOCTYPE svg PUBLIC "-//W3C//DTD SVG 20010904//EN"
"http://www.w3.org/TR/2001/REC-SVG-20010904/DTD/svg10.dtd">
<!-- Created with Inkscape (http://www.inkscape.org/) -->
<svg
   id="svg1"
   sodipodi:version="0.32"
   inkscape:version="0.38.1"
   width="48pt"
   height="48pt"
   sodipodi:docbase="/root/Desktop/mimes"
   sodipodi:docname="gnome-mime-text-x-zsh.svg"
   xmlns="http://www.w3.org/2000/svg"
   xmlns:inkscape="http://www.inkscape.org/namespaces/inkscape"
   xmlns:sodipodi="http://sodipodi.sourceforge.net/DTD/sodipodi-0.dtd"
   xmlns:xlink="http://www.w3.org/1999/xlink">
  <defs
     id="defs3">
    <linearGradient
       id="linearGradient866">
      <stop
         style="stop-color:#ffffff;stop-opacity:1;"
         offset="0.00000000"
         id="stop867" />
      <stop
         style="stop-color:#d9cce6;stop-opacity:1;"
         offset="1.00000000"
         id="stop868" />
    </linearGradient>
    <linearGradient
       id="linearGradient584">
      <stop
         style="stop-color:#ffffff;stop-opacity:1;"
         offset="0.00000000"
         id="stop585" />
      <stop
         style="stop-color:#ffffff;stop-opacity:0;"
         offset="1.00000000"
         id="stop586" />
    </linearGradient>
    <linearGradient
       id="linearGradient578">
      <stop
         style="stop-color:#d9cce6;stop-opacity:1;"
         offset="0.00000000"
         id="stop579" />
      <stop
         style="stop-color:#73667f;stop-opacity:1;"
         offset="1.00000000"
         id="stop580" />
    </linearGradient>
    <linearGradient
       xlink:href="#linearGradient866"
       id="linearGradient581"
       x1="0.02631579"
       y1="0.07031250"
       x2="0.98245615"
       y2="0.96093750" />
    <linearGradient
       xlink:href="#linearGradient584"
       id="linearGradient583"
       x1="0.01094890"
       y1="0.01030928"
       x2="1.01459849"
       y2="0.96907216" />
    <linearGradient
       xlink:href="#linearGradient584"
       id="linearGradient860"
       x1="0.02380952"
       y1="0.04687500"
       x2="1.00793648"
       y2="0.99218750" />
    <linearGradient
       xlink:href="#linearGradient584"
       id="linearGradient861"
       x1="0.04069768"
       y1="0.04687500"
       x2="0.99418604"
       y2="0.96875000" />
    <linearGradient
       xlink:href="#linearGradient584"
       id="linearGradient862"
       x1="0.01824817"
       y1="0.02542373"
       x2="0.98540145"
       y2="0.94915253" />
    <linearGradient
       xlink:href="#linearGradient584"
       id="linearGradient869"
       x1="0.06481481"
       y1="0.04687500"
       x2="0.95370370"
       y2="0.94531250" />
    <radialGradient
       xlink:href="#linearGradient584"
       id="radialGradient975"
       cx="0.50000000"
       cy="0.50000000"
       r="0.50000000"
       fx="0.50000000"
       fy="0.50000000" />
    <linearGradient
       xlink:href="#linearGradient584"
       id="linearGradient983"
       x1="0.00000000"
       y1="0.04687500"
       x2="0.99462366"
       y2="1.00000000" />
    <linearGradient
       xlink:href="#linearGradient578"
       id="linearGradient984"
       x1="0.05303030"
       y1="0.05468750"
       x2="0.96212119"
       y2="0.96875000" />
  </defs>
  <sodipodi:namedview
     id="base"
     pagecolor="#ffffff"
     bordercolor="#666666"
     borderopacity="1.0"
     inkscape:pageopacity="0.0"
     inkscape:pageshadow="2"
     inkscape:zoom="5.6423387"
     inkscape:cx="29.916904"
     inkscape:cy="24.206299"
     inkscape:window-width="640"
     inkscape:window-height="516"
     inkscape:window-x="108"
     inkscape:window-y="345" />
  <path
     d="M 4.4389304 48.086315 C 5.2483181 50.50443 38.765774 61.377487 40.966438 59.55288 C 42.936267 57.902492 57.675565 8.7785888 56.688667 6.8303779 C 55.662821 4.6824777 21.657054 -0.6675724 20.042945 0.80153134 C 18.054709 2.621752 3.5888672 45.311841 4.4389304 48.086315 z "
     style="font-size:12;opacity:0.302675;fill-rule:evenodd;stroke-width:12.5;"
     id="path639" />
  <path
     d="M 4.5541516 46.08493 C 5.3114351 48.34726 36.66955 58.519843 38.728432 56.812781 C 40.571358 55.268717 54.36111 9.3095333 53.437795 7.4867937 C 52.478034 5.477268 20.663028 0.47192513 19.152904 1.8463842 C 17.292759 3.5493405 3.7588508 43.489198 4.5541516 46.08493 z "
     style="font-size:12;fill:url(#linearGradient581);fill-rule:evenodd;stroke:#261933;stroke-width:1.87726;"
     id="path634" />
  <path
     d="M 6.6876568 43.965773 C 6.360392 43.13667 19.363758 4.5872629 20.579427 3.7922731 C 22.09876 2.7554118 46.659814 7.3454032 46.98631 8.172561 C 47.28557 8.9306762 27.823671 5.3906629 23.493845 9.2635774 C 15.189619 16.482895 6.9861475 44.721984 6.6876568 43.965773 z "
     style="font-size:12;opacity:0.699936;fill:url(#linearGradient583);fill-rule:evenodd;stroke:#ffffff;stroke-width:0.100121pt;"
     id="path640" />
  <path
     d="M 25.846157 36.149336 C 28.798819 36.80012 32.145461 36.979138 34.527336 34.08935 C 36.101036 32.241918 35.808081 26.894664 34.311074 24.441502 C 35.794164 25.951325 38.159521 32.493523 35.311283 35.033487 C 31.874734 38.162266 27.837959 37.472733 25.846157 36.149336 z "
     style="font-size:12;opacity:0.699936;fill-rule:evenodd;stroke:#ffffff;stroke-width:0.100121pt;"
     id="path1580" />
  <path
     d="M 34.655389 29.546966 C 34.655389 33.84315 33.003095 35.59767 28.70651 35.59767 C 24.410322 35.59767 22.044466 33.741228 22.044466 29.445043 C 22.044466 25.148655 24.104552 23.190491 28.400738 23.190491 C 32.697327 23.190491 34.655389 25.250579 34.655389 29.546966 z M 43.374718 28.78024 C 43.452914 32.872781 39.887309 30.085216 38.094742 33.119879 C 36.351338 36.149336 41.519273 37.401647 38.740523 40.227358 C 35.884573 43.209459 35.332709 38.136434 32.257596 38.722742 C 28.843073 39.442311 32.088392 43.768633 28.074045 43.768633 C 24.527964 43.69064 27.433973 40.606516 24.124679 38.957126 C 20.735385 37.228639 20.099117 41.890667 17.407569 39.290528 C 14.441086 36.419462 20.167901 36.030393 18.443618 33.198074 C 16.726746 30.327208 13.085551 33.262951 12.929461 29.092517 C 12.851367 25.078072 17.037121 28.264016 18.365626 25.143149 C 19.650276 22.049214 15.074051 20.588949 17.719744 18.42604 C 20.72247 16.060084 21.55167 21.090455 24.202771 19.930556 C 26.789395 18.842743 24.0596 14.104123 28.074045 13.947933 C 32.400668 13.86984 29.200403 18.090835 31.945418 19.618278 C 34.647379 21.078341 36.584118 16.619158 38.896714 18.738216 C 41.287894 20.93597 37.01584 21.868296 37.782464 24.596689 C 38.589037 27.545348 43.062441 24.765894 43.374718 28.78024 z "
     style="font-size:12;fill:url(#linearGradient984);fill-rule:evenodd;stroke:#261933;stroke-width:1.875;stroke-dasharray:none;"
     id="path1579" />
  <path
     d="M 14.135319 30.464772 C 14.030192 30.315493 13.604178 28.637667 14.059325 28.274028 C 14.896437 27.605222 17.920688 27.237476 18.012097 27.367435 C 18.098002 27.489281 15.515984 28.290749 14.59147 29.029341 C 14.223725 29.323195 14.207606 30.567296 14.135319 30.464772 z "
     style="font-size:12;opacity:0.7;fill:url(#linearGradient861);fill-rule:evenodd;stroke:none;stroke-width:1.05154pt;"
     id="path1581" />
  <path
     d="M 17.651863 20.15783 C 17.651863 20.003343 18.717449 18.67354 19.296848 18.646506 C 19.918599 18.617572 21.255113 19.839847 21.255113 19.989828 C 21.255113 20.119783 19.937823 19.456284 19.296848 19.486119 C 18.736673 19.512252 17.651863 20.283282 17.651863 20.15783 z "
     style="font-size:12;opacity:0.699936;fill:url(#linearGradient862);fill-rule:evenodd;stroke:none;stroke-width:1.12535pt;"
     id="path1582" />
  <path
     d="M 26.301004 18.934052 C 26.22992 18.754337 26.232121 16.126663 26.828742 15.439635 C 27.312625 14.882461 29.47824 15.038752 29.542518 15.201346 C 29.60389 15.356434 27.747951 15.768031 27.205698 16.392585 C 26.667446 17.012333 26.355571 19.07192 26.301004 18.934052 z "
     style="font-size:12;opacity:0.699936;fill:url(#linearGradient869);fill-rule:evenodd;stroke:none;stroke-width:1.07368pt;"
     id="path1583" />
  <path
     d="M 34.37235 20.921051 C 34.778138 20.457393 37.073308 19.006742 37.32381 19.006742 C 37.498724 19.006742 36.288061 20.506452 35.648691 20.921051 C 35.304172 21.144521 34.219765 21.095463 34.37235 20.921051 z "
     style="font-size:12;opacity:0.7;fill:url(#linearGradient983);fill-rule:evenodd;stroke:none;stroke-width:1.18334pt;"
     id="path1584" />
  <path
     d="M 17.580078 37.88473 C 17.69942 37.555032 19.602718 35.578147 20.023828 35.36589 C 20.227271 35.263267 19.819779 36.562735 19.453536 36.94019 C 19.005197 37.402348 17.50939 38.079767 17.580078 37.88473 z "
     style="font-size:12;opacity:0.7;fill:url(#linearGradient860);fill-rule:evenodd;stroke:none;stroke-width:1.11113pt;"
     id="path1585" />
  <rect
     style="fill:#000000;fill-opacity:0.30000001;fill-rule:evenodd;stroke:none;stroke-width:1.0000000pt;stroke-opacity:1.0000000;"
     id="rect937"
     x="28.226574"
     y="39.395287"
     rx="0.70483023"
     width="30.710464"
     height="12.888113" />
  <rect
     style="fill:#d9cce6;fill-opacity:0.80000001;fill-rule:evenodd;stroke:#261933;stroke-width:1.2500000;stroke-dasharray:none;"
     id="rect862"
     x="26.323563"
     y="37.806450"
     rx="0.69999999"
     width="30.500000"
     height="12.750523" />
  <text
     xml:space="preserve"
     style="fill:black;fill-opacity:1;stroke:none;font-family:helvetica;font-style:normal;font-weight:normal;font-size:12px;stroke-opacity:1;stroke-width:1pt;stroke-linejoin:miter;stroke-linecap:butt;"
     x="32.536951"
     y="45.961130"
     id="text863"><tspan
       id="tspan864"></tspan></text>
  <path
     style="font-size:12.000000;stroke-width:1.0000000pt;font-family:Radio Stars;"
     d="M 54.361035,46.777800 C 54.361035,47.033800 54.281035,47.233800 54.121035,47.377800 C 53.961035,47.513800 53.773035,47.581800 53.557035,47.581800 C 53.341035,47.581800 53.153035,47.513800 52.993035,47.377800 C 52.833035,47.233800 52.753035,47.033800 52.753035,46.777800 L 52.753035,45.001800 L 47.881035,45.001800 L 47.881035,46.777800 C 47.881035,47.033800 47.801035,47.233800 47.641035,47.377800 C 47.489035,47.513800 47.301035,47.581800 47.077035,47.581800 C 46.861035,47.581800 46.673035,47.513800 46.513035,47.377800 C 46.353035,47.233800 46.273035,47.033800 46.273035,46.777800 L 46.273035,41.593800 C 46.273035,41.337800 46.353035,41.141800 46.513035,41.005800 C 46.673035,40.861800 46.861035,40.789800 47.077035,40.789800 C 47.301035,40.789800 47.489035,40.861800 47.641035,41.005800 C 47.801035,41.141800 47.881035,41.337800 47.881035,41.593800 L 47.881035,43.369800 L 52.753035,43.369800 L 52.753035,41.593800 C 52.753035,41.337800 52.833035,41.141800 52.993035,41.005800 C 53.153035,40.861800 53.341035,40.789800 53.557035,40.789800 C 53.773035,40.789800 53.961035,40.861800 54.121035,41.005800 C 54.281035,41.141800 54.361035,41.337800 54.361035,41.593800 L 54.361035,46.777800 z M 45.505035,46.777800 C 45.505035,47.321800 45.237035,47.593800 44.701035,47.593800 L 38.221035,47.593800 C 37.965035,47.593800 37.765035,47.513800 37.621035,47.353800 C 37.477035,47.193800 37.405035,47.001800 37.405035,46.777800 C 37.405035,46.553800 37.477035,46.361800 37.621035,46.201800 C 37.765035,46.041800 37.965035,45.961800 38.221035,45.961800 L 43.897035,45.961800 L 43.897035,45.001800 L 38.221035,45.001800 C 37.685035,45.001800 37.417035,44.729800 37.417035,44.185800 L 37.417035,41.593800 C 37.417035,41.049800 37.685035,40.777800 38.221035,40.777800 L 44.701035,40.777800 C 44.957035,40.777800 45.157035,40.857800 45.301035,41.017800 C 45.445035,41.177800 45.517035,41.369800 45.517035,41.593800 C 45.517035,41.817800 45.445035,42.009800 45.301035,42.169800 C 45.157035,42.329800 44.957035,42.409800 44.701035,42.409800 L 39.025035,42.409800 L 39.025035,43.369800 L 44.701035,43.369800 C 45.237035,43.369800 45.505035,43.641800 45.505035,44.185800 L 45.505035,46.777800 z M 36.481035,42.229800 L 31.813035,45.961800 L 35.977035,45.961800 C 36.233035,45.961800 36.433035,46.041800 36.577035,46.201800 C 36.721035,46.361800 36.793035,46.553800 36.793035,46.777800 C 36.793035,47.001800 36.721035,47.193800 36.577035,47.353800 C 36.433035,47.513800 36.233035,47.593800 35.977035,47.593800 L 29.497035,47.593800 C 29.209035,47.593800 28.981035,47.525800 28.813035,47.389800 C 28.653035,47.253800 28.573035,47.085800 28.573035,46.885800 C 28.573035,46.613800 28.713035,46.361800 28.993035,46.129800 L 33.673035,42.409800 L 29.497035,42.409800 C 29.241035,42.409800 29.041035,42.329800 28.897035,42.169800 C 28.753035,42.009800 28.681035,41.817800 28.681035,41.593800 C 28.681035,41.369800 28.753035,41.177800 28.897035,41.017800 C 29.041035,40.857800 29.241035,40.777800 29.497035,40.777800 L 35.977035,40.777800 C 36.265035,40.777800 36.493035,40.845800 36.661035,40.981800 C 36.829035,41.117800 36.913035,41.285800 36.913035,41.485800 C 36.913035,41.757800 36.769035,42.005800 36.481035,42.229800 z "
     id="path888" />
</svg>
