<?xml version="1.0" encoding="UTF-8" standalone="no"?>
<!DOCTYPE svg PUBLIC "-//W3C//DTD SVG 20010904//EN"
"http://www.w3.org/TR/2001/REC-SVG-20010904/DTD/svg10.dtd">
<!-- Created with Inkscape (http://www.inkscape.org/) -->
<svg
   id="svg1"
   sodipodi:version="0.32"
   inkscape:version="0.38"
   width="48pt"
   height="48pt"
   sodipodi:docbase="/home/dan/Projects/Lila-icons/scalable/mimetypes"
   sodipodi:docname="gnome-mime-application-x-shellscript.svg"
   xmlns="http://www.w3.org/2000/svg"
   xmlns:inkscape="http://www.inkscape.org/namespaces/inkscape"
   xmlns:sodipodi="http://sodipodi.sourceforge.net/DTD/sodipodi-0.dtd"
   xmlns:xlink="http://www.w3.org/1999/xlink">
  <defs
     id="defs3">
    <linearGradient
       id="linearGradient866">
      <stop
         style="stop-color:#ffffff;stop-opacity:1;"
         offset="0.00000000"
         id="stop867" />
      <stop
         style="stop-color:#d9cce6;stop-opacity:1;"
         offset="1.00000000"
         id="stop868" />
    </linearGradient>
    <linearGradient
       id="linearGradient584">
      <stop
         style="stop-color:#ffffff;stop-opacity:1;"
         offset="0.00000000"
         id="stop585" />
      <stop
         style="stop-color:#ffffff;stop-opacity:0;"
         offset="1.00000000"
         id="stop586" />
    </linearGradient>
    <linearGradient
       id="linearGradient578">
      <stop
         style="stop-color:#d9cce6;stop-opacity:1;"
         offset="0.00000000"
         id="stop579" />
      <stop
         style="stop-color:#73667f;stop-opacity:1;"
         offset="1.00000000"
         id="stop580" />
    </linearGradient>
    <linearGradient
       xlink:href="#linearGradient866"
       id="linearGradient581"
       x1="0.02631579"
       y1="0.07031250"
       x2="0.98245615"
       y2="0.96093750" />
    <linearGradient
       xlink:href="#linearGradient584"
       id="linearGradient583"
       x1="0.01094890"
       y1="0.01030928"
       x2="1.01459849"
       y2="0.96907216" />
    <linearGradient
       xlink:href="#linearGradient584"
       id="linearGradient860"
       x1="0.02380952"
       y1="0.04687500"
       x2="1.00793648"
       y2="0.99218750" />
    <linearGradient
       xlink:href="#linearGradient584"
       id="linearGradient861"
       x1="0.04069768"
       y1="0.04687500"
       x2="0.99418604"
       y2="0.96875000" />
    <linearGradient
       xlink:href="#linearGradient584"
       id="linearGradient862"
       x1="0.01824817"
       y1="0.02542373"
       x2="0.98540145"
       y2="0.94915253" />
    <linearGradient
       xlink:href="#linearGradient584"
       id="linearGradient869"
       x1="0.06481481"
       y1="0.04687500"
       x2="0.95370370"
       y2="0.94531250" />
    <radialGradient
       xlink:href="#linearGradient584"
       id="radialGradient975"
       cx="0.50000000"
       cy="0.50000000"
       r="0.50000000"
       fx="0.50000000"
       fy="0.50000000" />
    <linearGradient
       xlink:href="#linearGradient584"
       id="linearGradient983"
       x1="0.00000000"
       y1="0.04687500"
       x2="0.99462366"
       y2="1.00000000" />
    <linearGradient
       xlink:href="#linearGradient578"
       id="linearGradient984"
       x1="0.05303030"
       y1="0.05468750"
       x2="0.96212119"
       y2="0.96875000" />
  </defs>
  <sodipodi:namedview
     id="base"
     pagecolor="#ffffff"
     bordercolor="#666666"
     borderopacity="1.0"
     inkscape:pageopacity="0.0"
     inkscape:pageshadow="2"
     inkscape:zoom="5.6423387"
     inkscape:cx="25.424655"
     inkscape:cy="21.972013"
     inkscape:window-width="640"
     inkscape:window-height="516"
     inkscape:window-x="74"
     inkscape:window-y="87"
     showguides="true"
     snaptoguides="true" />
  <path
     d="M 4.4389304 48.086315 C 5.2483181 50.50443 38.765774 61.377487 40.966438 59.55288 C 42.936267 57.902492 57.675565 8.7785888 56.688667 6.8303779 C 55.662821 4.6824777 21.657054 -0.6675724 20.042945 0.80153134 C 18.054709 2.621752 3.5888672 45.311841 4.4389304 48.086315 z "
     style="font-size:12;opacity:0.302675;fill-rule:evenodd;stroke-width:12.5;"
     id="path639" />
  <path
     d="M 4.5541516 46.08493 C 5.3114351 48.34726 36.66955 58.519843 38.728432 56.812781 C 40.571358 55.268717 54.36111 9.3095333 53.437795 7.4867937 C 52.478034 5.477268 20.663028 0.47192513 19.152904 1.8463842 C 17.292759 3.5493405 3.7588508 43.489198 4.5541516 46.08493 z "
     style="font-size:12;fill:url(#linearGradient581);fill-rule:evenodd;stroke:#261933;stroke-width:1.87726;"
     id="path634" />
  <path
     d="M 6.6876568 43.965773 C 6.360392 43.13667 19.363758 4.5872629 20.579427 3.7922731 C 22.09876 2.7554118 46.659814 7.3454032 46.98631 8.172561 C 47.28557 8.9306762 27.823671 5.3906629 23.493845 9.2635774 C 15.189619 16.482895 6.9861475 44.721984 6.6876568 43.965773 z "
     style="font-size:12;opacity:0.699936;fill:url(#linearGradient583);fill-rule:evenodd;stroke:#ffffff;stroke-width:0.100121pt;"
     id="path640" />
  <path
     d="M 25.846157 36.149336 C 28.798819 36.80012 32.145461 36.979138 34.527336 34.08935 C 36.101036 32.241918 35.808081 26.894664 34.311074 24.441502 C 35.794164 25.951325 38.159521 32.493523 35.311283 35.033487 C 31.874734 38.162266 27.837959 37.472733 25.846157 36.149336 z "
     style="font-size:12;opacity:0.699936;fill-rule:evenodd;stroke:#ffffff;stroke-width:0.100121pt;"
     id="path1580" />
  <path
     d="M 34.655389 29.546966 C 34.655389 33.84315 33.003095 35.59767 28.70651 35.59767 C 24.410322 35.59767 22.044466 33.741228 22.044466 29.445043 C 22.044466 25.148655 24.104552 23.190491 28.400738 23.190491 C 32.697327 23.190491 34.655389 25.250579 34.655389 29.546966 z M 43.374718 28.78024 C 43.452914 32.872781 39.887309 30.085216 38.094742 33.119879 C 36.351338 36.149336 41.519273 37.401647 38.740523 40.227358 C 35.884573 43.209459 35.332709 38.136434 32.257596 38.722742 C 28.843073 39.442311 32.088392 43.768633 28.074045 43.768633 C 24.527964 43.69064 27.433973 40.606516 24.124679 38.957126 C 20.735385 37.228639 20.099117 41.890667 17.407569 39.290528 C 14.441086 36.419462 20.167901 36.030393 18.443618 33.198074 C 16.726746 30.327208 13.085551 33.262951 12.929461 29.092517 C 12.851367 25.078072 17.037121 28.264016 18.365626 25.143149 C 19.650276 22.049214 15.074051 20.588949 17.719744 18.42604 C 20.72247 16.060084 21.55167 21.090455 24.202771 19.930556 C 26.789395 18.842743 24.0596 14.104123 28.074045 13.947933 C 32.400668 13.86984 29.200403 18.090835 31.945418 19.618278 C 34.647379 21.078341 36.584118 16.619158 38.896714 18.738216 C 41.287894 20.93597 37.01584 21.868296 37.782464 24.596689 C 38.589037 27.545348 43.062441 24.765894 43.374718 28.78024 z "
     style="font-size:12;fill:url(#linearGradient984);fill-rule:evenodd;stroke:#261933;stroke-width:1.875;stroke-dasharray:none;"
     id="path1579" />
  <path
     d="M 14.135319 30.464772 C 14.030192 30.315493 13.604178 28.637667 14.059325 28.274028 C 14.896437 27.605222 17.920688 27.237476 18.012097 27.367435 C 18.098002 27.489281 15.515984 28.290749 14.59147 29.029341 C 14.223725 29.323195 14.207606 30.567296 14.135319 30.464772 z "
     style="font-size:12;opacity:0.7;fill:url(#linearGradient861);fill-rule:evenodd;stroke:none;stroke-width:1.05154pt;"
     id="path1581" />
  <path
     d="M 17.651863 20.15783 C 17.651863 20.003343 18.717449 18.67354 19.296848 18.646506 C 19.918599 18.617572 21.255113 19.839847 21.255113 19.989828 C 21.255113 20.119783 19.937823 19.456284 19.296848 19.486119 C 18.736673 19.512252 17.651863 20.283282 17.651863 20.15783 z "
     style="font-size:12;opacity:0.699936;fill:url(#linearGradient862);fill-rule:evenodd;stroke:none;stroke-width:1.12535pt;"
     id="path1582" />
  <path
     d="M 26.301004 18.934052 C 26.22992 18.754337 26.232121 16.126663 26.828742 15.439635 C 27.312625 14.882461 29.47824 15.038752 29.542518 15.201346 C 29.60389 15.356434 27.747951 15.768031 27.205698 16.392585 C 26.667446 17.012333 26.355571 19.07192 26.301004 18.934052 z "
     style="font-size:12;opacity:0.699936;fill:url(#linearGradient869);fill-rule:evenodd;stroke:none;stroke-width:1.07368pt;"
     id="path1583" />
  <path
     d="M 34.37235 20.921051 C 34.778138 20.457393 37.073308 19.006742 37.32381 19.006742 C 37.498724 19.006742 36.288061 20.506452 35.648691 20.921051 C 35.304172 21.144521 34.219765 21.095463 34.37235 20.921051 z "
     style="font-size:12;opacity:0.7;fill:url(#linearGradient983);fill-rule:evenodd;stroke:none;stroke-width:1.18334pt;"
     id="path1584" />
  <path
     d="M 17.580078 37.88473 C 17.69942 37.555032 19.602718 35.578147 20.023828 35.36589 C 20.227271 35.263267 19.819779 36.562735 19.453536 36.94019 C 19.005197 37.402348 17.50939 38.079767 17.580078 37.88473 z "
     style="font-size:12;opacity:0.7;fill:url(#linearGradient860);fill-rule:evenodd;stroke:none;stroke-width:1.11113pt;"
     id="path1585" />
  <rect
     style="fill:#000000;fill-opacity:0.30000001;fill-rule:evenodd;stroke:none;stroke-width:1.0000000pt;stroke-opacity:1.0000000;"
     id="rect937"
     x="35.537372"
     y="39.173752"
     rx="0.54212593"
     width="23.621207"
     height="12.888113" />
  <rect
     style="fill:#d9cce6;fill-opacity:0.80000001;fill-rule:evenodd;stroke:#261933;stroke-width:1.0966843;"
     id="rect862"
     x="33.711986"
     y="37.584908"
     rx="0.53881705"
     width="23.477029"
     height="12.750523" />
  <text
     xml:space="preserve"
     style="fill:black;fill-opacity:1;stroke:none;font-family:helvetica;font-style:normal;font-weight:normal;font-size:12px;stroke-opacity:1;stroke-width:1pt;stroke-linejoin:miter;stroke-linecap:butt;"
     x="32.315410"
     y="45.739591"
     id="text863"><tspan
       id="tspan864"></tspan></text>
  <path
     style="font-size:12.000000;stroke-width:1.0000000pt;font-family:Radio Stars;"
     d="M 54.827221,46.556257 C 54.827221,46.812257 54.747221,47.012257 54.587221,47.156257 C 54.427221,47.292257 54.235221,47.360257 54.011221,47.360257 C 53.795221,47.360257 53.607221,47.292257 53.447221,47.156257 C 53.287221,47.012257 53.207221,46.812257 53.207221,46.556257 L 53.207221,44.780257 L 48.347221,44.780257 L 48.347221,46.556257 C 48.347221,46.812257 48.267221,47.012257 48.107221,47.156257 C 47.947221,47.292257 47.755221,47.360257 47.531221,47.360257 C 47.315221,47.360257 47.127221,47.292257 46.967221,47.156257 C 46.807221,47.012257 46.727221,46.812257 46.727221,46.556257 L 46.727221,41.372257 C 46.727221,41.116257 46.807221,40.920257 46.967221,40.784257 C 47.127221,40.640257 47.315221,40.568257 47.531221,40.568257 C 47.755221,40.568257 47.947221,40.640257 48.107221,40.784257 C 48.267221,40.920257 48.347221,41.116257 48.347221,41.372257 L 48.347221,43.148257 L 53.207221,43.148257 L 53.207221,41.372257 C 53.207221,41.116257 53.287221,40.920257 53.447221,40.784257 C 53.607221,40.640257 53.795221,40.568257 54.011221,40.568257 C 54.235221,40.568257 54.427221,40.640257 54.587221,40.784257 C 54.747221,40.920257 54.827221,41.116257 54.827221,41.372257 L 54.827221,46.556257 z M 45.086912,46.888566 C 45.086912,47.432566 44.814912,47.704566 44.270912,47.704566 L 37.790912,47.704566 C 37.534912,47.704566 37.334912,47.624566 37.190912,47.464566 C 37.054912,47.304566 36.986912,47.112566 36.986912,46.888566 C 36.986912,46.664566 37.054912,46.472566 37.190912,46.312566 C 37.334912,46.152566 37.534912,46.072566 37.790912,46.072566 L 43.466912,46.072566 L 43.466912,45.112566 L 37.790912,45.112566 C 37.254912,45.112566 36.986912,44.840566 36.986912,44.296566 L 36.986912,41.704566 C 36.986912,41.160566 37.254912,40.888566 37.790912,40.888566 L 44.270912,40.888566 C 44.526912,40.888566 44.726912,40.968566 44.870912,41.128566 C 45.014912,41.288566 45.086912,41.480566 45.086912,41.704566 C 45.086912,41.928566 45.014912,42.120566 44.870912,42.280566 C 44.726912,42.440566 44.526912,42.520566 44.270912,42.520566 L 38.606912,42.520566 L 38.606912,43.480566 L 44.270912,43.480566 C 44.814912,43.480566 45.086912,43.752566 45.086912,44.296566 L 45.086912,46.888566 z "
     id="path906"
     sodipodi:nodetypes="cccccccccccccccccccccccccccccccccccccccccccccccc" />
</svg>
