<?xml version="1.0" encoding="UTF-8" standalone="no"?>
<!DOCTYPE svg PUBLIC "-//W3C//DTD SVG 20010904//EN"
"http://www.w3.org/TR/2001/REC-SVG-20010904/DTD/svg10.dtd">
<!-- Created with Sodipodi ("http://www.sodipodi.com/") -->
<svg
   id="svg1"
   sodipodi:version="0.32"
   inkscape:version="0.38.1"
   width="48pt"
   height="48pt"
   sodipodi:docbase="/root/Desktop/mimes"
   sodipodi:docname="gnome-mime-application-x-font-ttf.svg"
   xmlns="http://www.w3.org/2000/svg"
   xmlns:inkscape="http://www.inkscape.org/namespaces/inkscape"
   xmlns:sodipodi="http://sodipodi.sourceforge.net/DTD/sodipodi-0.dtd"
   xmlns:xml="http://www.w3.org/XML/1998/namespace"
   xmlns:xlink="http://www.w3.org/1999/xlink">
  <defs
     id="defs3">
    <linearGradient
       id="linearGradient703">
      <stop
         style="stop-color:#d9cce6;stop-opacity:1;"
         offset="0.00000000"
         id="stop704" />
      <stop
         style="stop-color:#73667f;stop-opacity:1;"
         offset="1.00000000"
         id="stop705" />
    </linearGradient>
    <linearGradient
       id="linearGradient866">
      <stop
         style="stop-color:#ffffff;stop-opacity:1;"
         offset="0.00000000"
         id="stop867" />
      <stop
         style="stop-color:#d9cce6;stop-opacity:1;"
         offset="1.00000000"
         id="stop868" />
    </linearGradient>
    <linearGradient
       id="linearGradient584">
      <stop
         style="stop-color:#ffffff;stop-opacity:1;"
         offset="0.00000000"
         id="stop585" />
      <stop
         style="stop-color:#ffffff;stop-opacity:0;"
         offset="1.00000000"
         id="stop586" />
    </linearGradient>
    <linearGradient
       xlink:href="#linearGradient866"
       id="linearGradient586"
       x1="-0.00000000"
       y1="0.01562500"
       x2="0.99122804"
       y2="0.98437500" />
    <linearGradient
       xlink:href="#linearGradient584"
       id="linearGradient587"
       x1="0.00000000"
       y1="-0.00000000"
       x2="1.00000000"
       y2="1.00000000" />
    <linearGradient
       xlink:href="#linearGradient584"
       id="linearGradient700"
       x1="4.68746983e-2"
       y1="7.81262293e-3"
       x2="0.92187506"
       y2="0.96093738" />
    <linearGradient
       xlink:href="#linearGradient584"
       id="linearGradient701"
       x1="1.88660454e-2"
       y1="7.80396443e-3"
       x2="0.94339597"
       y2="0.96093744" />
    <linearGradient
       xlink:href="#linearGradient584"
       id="linearGradient702"
       x1="3.74215911e-3"
       y1="8.48163757e-3"
       x2="0.97727233"
       y2="0.94915265" />
    <linearGradient
       xlink:href="#linearGradient584"
       id="linearGradient845"
       x1="-0.00000000"
       y1="-0.00000000"
       x2="0.99635035"
       y2="0.97727275" />
    <radialGradient
       xlink:href="#linearGradient703"
       id="radialGradient846" />
    <linearGradient
       xlink:href="#linearGradient584"
       id="linearGradient847"
       x1="0.00000000"
       y1="-0.00000000"
       x2="0.98540145"
       y2="0.93902439" />
    <linearGradient
       xlink:href="#linearGradient703"
       id="linearGradient848"
       x1="0.01219511"
       y1="0.01562503"
       x2="0.99999994"
       y2="1.00000012" />
    <linearGradient
       xlink:href="#linearGradient584"
       id="linearGradient849"
       x1="0.00000000"
       y1="-0.00000000"
       x2="0.98514849"
       y2="1.02343750" />
    <linearGradient
       xlink:href="#linearGradient703"
       id="linearGradient850"
       x1="-0.00000000"
       y1="0.00000000"
       x2="1.00000000"
       y2="0.95652175" />
    <linearGradient
       xlink:href="#linearGradient584"
       id="linearGradient863"
       x1="-0.00000000"
       y1="-0.00000000"
       x2="0.99635035"
       y2="0.82142860" />
  </defs>
  <sodipodi:namedview
     id="base"
     pagecolor="#ffffff"
     bordercolor="#666666"
     borderopacity="1.0"
     inkscape:pageopacity="0.0"
     inkscape:pageshadow="2"
     inkscape:zoom="7.9794719"
     inkscape:cx="23.825572"
     inkscape:cy="21.680633"
     inkscape:window-width="640"
     inkscape:window-height="516"
     inkscape:window-x="332"
     inkscape:window-y="202" />
  <path
     d="M 4.4389304 48.086315 C 5.2483181 50.50443 38.765774 61.377487 40.966438 59.55288 C 42.936267 57.902492 57.675565 8.7785888 56.688667 6.8303779 C 55.662821 4.6824777 21.657054 -0.6675724 20.042945 0.80153134 C 18.054709 2.621752 3.5888672 45.311841 4.4389304 48.086315 z "
     style="font-size:12;opacity:0.302675;fill-rule:evenodd;stroke-width:12.5;"
     id="path639" />
  <path
     d="M 4.5541516 46.08493 C 5.3114351 48.34726 36.66955 58.519843 38.728432 56.812781 C 40.571358 55.268717 54.36111 9.3095333 53.437795 7.4867937 C 52.478034 5.477268 20.663028 0.47192513 19.152904 1.8463842 C 17.292759 3.5493405 3.7588508 43.489198 4.5541516 46.08493 z "
     style="font-size:12;fill:url(#linearGradient586);fill-rule:evenodd;stroke:#261933;stroke-width:1.87726;"
     id="path634" />
  <path
     d="M 6.6876568 43.965773 C 6.360392 43.13667 19.363758 4.5872629 20.579427 3.7922731 C 22.09876 2.7554118 46.659814 7.3454032 46.98631 8.172561 C 47.28557 8.9306762 27.823671 5.3906629 23.493845 9.2635774 C 15.189619 16.482895 6.9861475 44.721984 6.6876568 43.965773 z "
     style="font-size:12;opacity:0.699936;fill:url(#linearGradient587);fill-rule:evenodd;stroke:none;stroke-width:0.100121pt;"
     id="path640" />
  <path
     style="fill:#261933;fill-rule:evenodd;stroke:none;stroke-opacity:1;stroke-width:1pt;stroke-linejoin:miter;stroke-linecap:butt;fill-opacity:1;"
     d="M 23.640010,6.6865167 L 9.0587735,40.458828 L 13.412910,41.554081 L 16.890599,32.285792 L 20.504039,33.015280 L 19.263320,42.993497 L 23.385331,44.211926 L 28.697679,7.9475386 L 23.640010,6.6865167 z M 24.311517,13.461659 L 21.584963,27.609013 L 19.133083,26.997700 L 24.311517,13.461659 z "
     id="path690"
     sodipodi:nodetypes="ccccccccccccc" />
  <path
     style="fill:url(#linearGradient700);fill-rule:evenodd;stroke:none;stroke-opacity:1;stroke-width:1pt;stroke-linejoin:miter;stroke-linecap:butt;fill-opacity:1;"
     d="M 10.749687,38.700184 L 23.880888,7.7610311 L 27.984302,8.7841272 C 26.434045,9.4869623 24.699789,8.4221649 23.882376,9.9401207 C 20.364480,16.535260 16.138941,29.432688 10.749687,38.700184 z "
     id="path692"
     sodipodi:nodetypes="cccsc" />
  <path
     style="font-size:36.000000;font-weight:bold;stroke-width:1.0000000pt;font-family:Bitstream Vera Sans;fill:#261933;fill-opacity:1.0000000;"
     d="M 34.626606,33.062191 C 33.713003,32.858045 32.957625,32.893151 32.360487,33.167441 C 31.771486,33.443581 31.348309,33.949843 31.090881,34.686376 C 30.854291,35.363102 30.851719,35.936602 31.083149,36.406777 C 31.326179,36.868741 31.778044,37.173652 32.438776,37.321275 C 33.262660,37.505387 34.081245,37.301969 34.894546,36.711166 C 35.711379,36.110376 36.309318,35.267591 36.688498,34.182779 L 36.902430,33.570725 L 34.626606,33.062191 z M 42.023993,32.542302 L 38.689618,42.081738 L 34.272558,41.094764 L 35.138753,38.616613 C 34.196580,39.500565 33.276692,40.094366 32.379060,40.398067 C 31.484911,40.691857 30.511709,40.721195 29.459414,40.486097 C 28.040091,40.168939 27.061537,39.408422 26.523733,38.204590 C 25.997607,36.992584 26.016322,35.580410 26.579866,33.968126 C 27.265171,32.007469 28.318440,30.692355 29.739693,30.022800 C 31.169117,29.355012 33.066608,29.285452 35.432164,29.814010 L 38.013877,30.390933 L 38.159978,29.972875 C 38.455711,29.126969 38.398096,28.448827 37.987248,27.938569 C 37.579859,27.418312 36.797040,27.028833 35.638709,26.770006 C 34.700650,26.560419 33.787835,26.479843 32.900253,26.528260 C 32.012673,26.576760 31.142200,26.752445 30.288857,27.055300 L 31.713373,22.979759 C 32.748819,22.910765 33.764053,22.912231 34.758972,22.984323 C 35.757393,23.046451 36.729694,23.183262 37.675930,23.394678 C 40.147524,23.946947 41.721175,24.942314 42.396730,26.380876 C 43.084007,27.811273 42.959738,29.865098 42.023993,32.542302 z "
     id="path937" />
  <path
     style="fill:url(#linearGradient702);fill-rule:evenodd;stroke:none;stroke-opacity:1;stroke-width:1pt;stroke-linejoin:miter;stroke-linecap:butt;fill-opacity:0.75;"
     d="M 31.227913,26.429872 C 31.447582,25.857444 31.891774,24.474556 32.111453,23.902150 C 33.481420,23.682298 34.186062,23.687644 35.480571,23.799403 C 36.819418,23.924316 37.922743,24.148776 38.668394,24.650065 C 37.229128,24.329546 36.480015,24.219473 35.532605,24.127279 C 34.439115,24.061764 33.199649,24.098703 32.470318,24.453037 C 31.915381,24.819474 31.342555,26.230064 31.227913,26.429872 z "
     id="path938"
     sodipodi:nodetypes="ccccccc" />
  <path
     style="fill:url(#linearGradient701);fill-rule:evenodd;stroke:none;stroke-opacity:1;stroke-width:1pt;stroke-linejoin:miter;stroke-linecap:butt;fill-opacity:0.75;"
     d="M 35.340430,30.615381 C 34.268178,30.375853 32.387789,30.266386 31.240043,30.510087 C 30.135777,30.807854 29.645154,31.044644 29.038716,31.602361 C 28.414161,32.156091 27.799391,32.854775 27.465922,33.809942 C 27.098626,34.797261 27.044390,35.291800 27.055338,36.259588 C 27.094382,37.307976 27.406618,38.013449 27.893118,38.722910 C 27.763201,37.933895 27.622155,37.222662 27.716463,36.049159 C 27.843074,35.108242 27.913110,34.809248 28.163838,34.148119 C 28.424939,33.513207 28.560684,33.193434 29.216688,32.399449 C 29.908360,31.597751 30.680525,31.258543 31.607338,30.927762 C 32.667876,30.592865 33.972876,30.716238 35.340430,30.615381 z "
     id="path939"
     sodipodi:nodetypes="ccccccccccc" />
  <rect
     style="fill:#000000;fill-opacity:0.30000001;fill-rule:evenodd;stroke:none;stroke-width:1.0000000pt;stroke-opacity:1.0000000;"
     id="rect937"
     x="28.226574"
     y="39.395287"
     rx="0.70483023"
     width="30.710464"
     height="12.888113" />
  <rect
     style="fill:#d9cce6;fill-opacity:0.80000001;fill-rule:evenodd;stroke:#261933;stroke-width:1.2500000;stroke-dasharray:none;"
     id="rect862"
     x="26.323563"
     y="37.806450"
     rx="0.69999999"
     width="30.500000"
     height="12.750523" />
  <text
     xml:space="preserve"
     style="fill:black;fill-opacity:1;stroke:none;font-family:helvetica;font-style:normal;font-weight:normal;font-size:12px;stroke-opacity:1;stroke-width:1pt;stroke-linejoin:miter;stroke-linecap:butt;"
     x="32.536951"
     y="45.961130"
     id="text863"><tspan
       id="tspan864"></tspan></text>
  <path
     style="font-size:12.000000;stroke-width:1.0000000pt;font-family:Radio Stars;"
     d="M 52.972526,44.875843 L 47.296526,44.875843 L 47.296526,46.651843 C 47.296526,46.907843 47.216526,47.107843 47.056526,47.251843 C 46.896526,47.387843 46.708526,47.455843 46.492526,47.455843 C 46.268526,47.455843 46.076526,47.387843 45.916526,47.251843 C 45.756526,47.107843 45.676526,46.907843 45.676526,46.651843 L 45.676526,41.467843 C 45.676526,40.923843 45.948526,40.651843 46.492526,40.651843 L 52.972526,40.651843 C 53.228526,40.651843 53.424526,40.731843 53.560526,40.891843 C 53.704526,41.051843 53.776526,41.243843 53.776526,41.467843 C 53.776526,41.691843 53.704526,41.883843 53.560526,42.043843 C 53.424526,42.203843 53.228526,42.283843 52.972526,42.283843 L 47.296526,42.283843 L 47.296526,43.243843 L 52.972526,43.243843 C 53.228526,43.243843 53.424526,43.323843 53.560526,43.483843 C 53.704526,43.643843 53.776526,43.835843 53.776526,44.059843 C 53.776526,44.283843 53.704526,44.475843 53.560526,44.635843 C 53.424526,44.795843 53.228526,44.875843 52.972526,44.875843 z M 44.476526,42.283843 L 42.052526,42.283843 L 42.052526,46.651843 C 42.052526,46.907843 41.972526,47.107843 41.812526,47.251843 C 41.652526,47.387843 41.460526,47.455843 41.236526,47.455843 C 41.020526,47.455843 40.832526,47.387843 40.672526,47.251843 C 40.512526,47.107843 40.432526,46.907843 40.432526,46.651843 L 40.432526,42.283843 L 37.996526,42.283843 C 37.740526,42.283843 37.540526,42.203843 37.396526,42.043843 C 37.252526,41.883843 37.180526,41.691843 37.180526,41.467843 C 37.180526,41.243843 37.252526,41.051843 37.396526,40.891843 C 37.540526,40.731843 37.740526,40.651843 37.996526,40.651843 L 44.476526,40.651843 C 44.732526,40.651843 44.932526,40.731843 45.076526,40.891843 C 45.220526,41.051843 45.292526,41.243843 45.292526,41.467843 C 45.292526,41.691843 45.220526,41.883843 45.076526,42.043843 C 44.932526,42.203843 44.732526,42.283843 44.476526,42.283843 z M 36.760526,42.283843 L 34.336526,42.283843 L 34.336526,46.651843 C 34.336526,46.907843 34.256526,47.107843 34.096526,47.251843 C 33.936526,47.387843 33.744526,47.455843 33.520526,47.455843 C 33.304526,47.455843 33.116526,47.387843 32.956526,47.251843 C 32.796526,47.107843 32.716526,46.907843 32.716526,46.651843 L 32.716526,42.283843 L 30.280526,42.283843 C 30.024526,42.283843 29.824526,42.203843 29.680526,42.043843 C 29.536526,41.883843 29.464526,41.691843 29.464526,41.467843 C 29.464526,41.243843 29.536526,41.051843 29.680526,40.891843 C 29.824526,40.731843 30.024526,40.651843 30.280526,40.651843 L 36.760526,40.651843 C 37.016526,40.651843 37.216526,40.731843 37.360526,40.891843 C 37.504526,41.051843 37.576526,41.243843 37.576526,41.467843 C 37.576526,41.691843 37.504526,41.883843 37.360526,42.043843 C 37.216526,42.203843 37.016526,42.283843 36.760526,42.283843 z "
     id="path896" />
</svg>
