<?xml version="1.0" encoding="UTF-8" standalone="no"?>
<!DOCTYPE svg PUBLIC "-//W3C//DTD SVG 20010904//EN"
"http://www.w3.org/TR/2001/REC-SVG-20010904/DTD/svg10.dtd">
<!-- Created with Inkscape (http://www.inkscape.org/) -->
<svg
   id="svg1"
   sodipodi:version="0.32"
   inkscape:version="0.39"
   width="48pt"
   height="48pt"
   sodipodi:docbase="/home/stefan/software/Lila-themes/lila-gnome/Lila/scalable/mimetypes"
   sodipodi:docname="gnome-mime-application-x-killustrator.svg"
   xmlns="http://www.w3.org/2000/svg"
   xmlns:inkscape="http://www.inkscape.org/namespaces/inkscape"
   xmlns:sodipodi="http://sodipodi.sourceforge.net/DTD/sodipodi-0.dtd"
   xmlns:xml="http://www.w3.org/XML/1998/namespace"
   xmlns:xlink="http://www.w3.org/1999/xlink"
   xmlns:rdf="http://www.w3.org/1999/02/22-rdf-syntax-ns#"
   xmlns:cc="http://web.resource.org/cc/"
   xmlns:dc="http://purl.org/dc/elements/1.1/">
  <defs
     id="defs3">
    <linearGradient
       id="linearGradient703">
      <stop
         style="stop-color:#d9cce6;stop-opacity:1;"
         offset="0.00000000"
         id="stop704" />
      <stop
         style="stop-color:#73667f;stop-opacity:1;"
         offset="1.00000000"
         id="stop705" />
    </linearGradient>
    <linearGradient
       id="linearGradient866">
      <stop
         style="stop-color:#ffffff;stop-opacity:1;"
         offset="0.00000000"
         id="stop867" />
      <stop
         style="stop-color:#d9cce6;stop-opacity:1;"
         offset="1.00000000"
         id="stop868" />
    </linearGradient>
    <linearGradient
       id="linearGradient584">
      <stop
         style="stop-color:#ffffff;stop-opacity:1;"
         offset="0.00000000"
         id="stop585" />
      <stop
         style="stop-color:#ffffff;stop-opacity:0;"
         offset="1.00000000"
         id="stop586" />
    </linearGradient>
    <linearGradient
       xlink:href="#linearGradient866"
       id="linearGradient586"
       x1="-0.00000000"
       y1="0.01562500"
       x2="0.99122804"
       y2="0.98437500" />
    <linearGradient
       xlink:href="#linearGradient584"
       id="linearGradient587"
       x1="0.00000000"
       y1="-0.00000000"
       x2="1.00000000"
       y2="1.00000000" />
    <linearGradient
       xlink:href="#linearGradient584"
       id="linearGradient700"
       x1="0.00000000"
       y1="-0.00000000"
       x2="0.98453611"
       y2="0.99218750" />
    <linearGradient
       xlink:href="#linearGradient584"
       id="linearGradient701"
       x1="0.00367647"
       y1="0.01562500"
       x2="1.01102936"
       y2="1.01562500" />
    <linearGradient
       xlink:href="#linearGradient703"
       id="linearGradient702"
       x1="-0.00000000"
       y1="0.00000000"
       x2="0.97457629"
       y2="0.96093750" />
    <linearGradient
       xlink:href="#linearGradient584"
       id="linearGradient845"
       x1="-0.00000000"
       y1="-0.00000000"
       x2="0.99635035"
       y2="0.97727275" />
    <radialGradient
       xlink:href="#linearGradient703"
       id="radialGradient846" />
    <linearGradient
       xlink:href="#linearGradient584"
       id="linearGradient847"
       x1="0.00000000"
       y1="-0.00000000"
       x2="0.98540145"
       y2="0.93902439" />
    <linearGradient
       xlink:href="#linearGradient584"
       id="linearGradient848"
       x1="-0.00000000"
       y1="0.00000000"
       x2="1.00364959"
       y2="0.97727275" />
    <linearGradient
       xlink:href="#linearGradient584"
       id="linearGradient849"
       x1="-0.00000000"
       y1="0.00000000"
       x2="1.00000000"
       y2="0.98780489" />
    <linearGradient
       xlink:href="#linearGradient703"
       id="linearGradient850"
       x1="-0.00000000"
       y1="0.00000000"
       x2="1.00000000"
       y2="0.95652175" />
    <defs
       id="defs861">
      <linearGradient
         id="linearGradient862">
        <stop
           style="stop-color:#ffffff;stop-opacity:1;"
           offset="0.00000000"
           id="stop863" />
        <stop
           style="stop-color:#d9cce6;stop-opacity:1;"
           offset="1.00000000"
           id="stop864" />
      </linearGradient>
      <linearGradient
         id="linearGradient865">
        <stop
           style="stop-color:#ffffff;stop-opacity:1;"
           offset="0.00000000"
           id="stop866" />
        <stop
           style="stop-color:#ffffff;stop-opacity:0;"
           offset="1.00000000"
           id="stop869" />
      </linearGradient>
      <linearGradient
         id="linearGradient578">
        <stop
           style="stop-color:#d9cce6;stop-opacity:1;"
           offset="0.00000000"
           id="stop579" />
        <stop
           style="stop-color:#73667f;stop-opacity:1;"
           offset="1.00000000"
           id="stop580" />
      </linearGradient>
      <linearGradient
         xlink:href="#linearGradient578"
         id="linearGradient581"
         x1="0.96575344"
         y1="0.96093750"
         x2="0.034246575"
         y2="0.031250000" />
      <linearGradient
         xlink:href="#linearGradient584"
         id="linearGradient583" />
      <linearGradient
         xlink:href="#linearGradient584"
         id="linearGradient860"
         x1="0.02380952"
         y1="0.04687500"
         x2="1.00793648"
         y2="0.99218750" />
      <linearGradient
         xlink:href="#linearGradient584"
         id="linearGradient861" />
      <linearGradient
         xlink:href="#linearGradient578"
         id="linearGradient877"
         x1="2.6752689e-16"
         y1="2.5492304e-17"
         x2="1.0000000"
         y2="2.5492304e-17" />
      <linearGradient
         xlink:href="#linearGradient584"
         id="linearGradient869"
         x1="0.06481481"
         y1="0.04687500"
         x2="0.95370370"
         y2="0.94531250" />
      <radialGradient
         xlink:href="#linearGradient578"
         id="radialGradient975"
         cx="0.50000000"
         cy="0.50000000"
         r="0.50000000"
         fx="0.50000000"
         fy="0.50000000" />
      <linearGradient
         xlink:href="#linearGradient584"
         id="linearGradient983"
         x1="0.00000000"
         y1="0.04687500"
         x2="0.99462366"
         y2="1.00000000" />
      <linearGradient
         xlink:href="#linearGradient578"
         id="linearGradient984"
         x1="0.05303030"
         y1="0.05468750"
         x2="0.96212119"
         y2="0.96875000" />
      <radialGradient
         xlink:href="#linearGradient584"
         id="radialGradient628"
         cx="0.26666674"
         cy="0.15492958"
         r="0.88886154"
         fx="0.26666674"
         fy="0.15492958" />
      <radialGradient
         xlink:href="#linearGradient866"
         id="radialGradient635"
         cx="0.50000000"
         cy="0.50000000"
         r="0.50000000"
         fx="0.50000000"
         fy="0.50000000" />
    </defs>
    <sodipodi:namedview
       id="namedview884"
       pagecolor="#ffffff"
       bordercolor="#666666"
       borderopacity="1.0"
       inkscape:pageopacity="0.0"
       inkscape:pageshadow="2"
       inkscape:zoom="2.0000000"
       inkscape:cx="33.344208"
       inkscape:cy="25.880615"
       inkscape:window-width="1018"
       inkscape:window-height="711"
       inkscape:window-x="0"
       inkscape:window-y="30" />
  </defs>
  <sodipodi:namedview
     id="base"
     pagecolor="#ffffff"
     bordercolor="#666666"
     borderopacity="1.0"
     inkscape:pageopacity="0.0"
     inkscape:pageshadow="2"
     inkscape:zoom="5.6423388"
     inkscape:cx="22.699177"
     inkscape:cy="21.213771"
     inkscape:window-width="640"
     inkscape:window-height="526"
     inkscape:window-x="82"
     inkscape:window-y="255" />
  <path
     d="M 4.4389304 48.086315 C 5.2483181 50.50443 38.765774 61.377487 40.966438 59.55288 C 42.936267 57.902492 57.675565 8.7785888 56.688667 6.8303779 C 55.662821 4.6824777 21.657054 -0.6675724 20.042945 0.80153134 C 18.054709 2.621752 3.5888672 45.311841 4.4389304 48.086315 z "
     style="font-size:12;opacity:0.302675;fill-rule:evenodd;stroke-width:12.5;"
     id="path639" />
  <path
     d="M 4.5541516 46.08493 C 5.3114351 48.34726 36.66955 58.519843 38.728432 56.812781 C 40.571358 55.268717 54.36111 9.3095333 53.437795 7.4867937 C 52.478034 5.477268 20.663028 0.47192513 19.152904 1.8463842 C 17.292759 3.5493405 3.7588508 43.489198 4.5541516 46.08493 z "
     style="font-size:12;fill:url(#linearGradient586);fill-rule:evenodd;stroke:#261933;stroke-width:1.87726;"
     id="path634" />
  <path
     d="M 30.671764 25.919039 C 27.520906 25.374388 21.33222 28.849429 19.958378 31.508602 C 18.925595 33.507425 24.099097 37.708753 23.451809 39.893213 C 22.856952 41.900925 16.421491 42.377681 16.231855 44.085386 C 16.033421 45.871113 19.840542 49.971488 22.287423 50.373599 C 25.507863 50.90305 31.572849 48.883079 33.233806 46.880167 C 34.212474 45.700048 29.47698 42.404338 30.206025 40.824775 C 31.340205 38.367415 38.750945 37.088387 38.823369 34.769209 C 38.906101 32.119809 33.809201 26.461288 30.671764 25.919039 z "
     style="font-size:12;opacity:0.3;fill-rule:evenodd;stroke-width:6.25;"
     id="path1006" />
  <path
     d="M 29.114258 25.649647 C 26.145588 25.136577 20.314671 28.410676 19.020268 30.916086 C 18.047204 32.799331 22.921558 36.75764 22.311698 38.81579 C 21.751237 40.707492 15.687978 41.156597 15.509224 42.765642 C 15.322348 44.44811 18.909246 48.311389 21.21464 48.690248 C 24.248946 49.18909 29.963152 47.285833 31.528067 45.398817 C 32.450145 44.286939 27.988478 41.181796 28.675362 39.693569 C 29.743959 37.378218 36.726188 36.173236 36.794424 33.988155 C 36.872461 31.491956 32.070196 26.160624 29.114258 25.649647 z "
     style="font-size:12;fill:url(#linearGradient702);fill-rule:evenodd;stroke:#261933;stroke-width:1.875;stroke-dasharray:none;"
     id="path999" />
  <path
     d="M 20.110832 32.074277 C 20.447076 30.708877 24.04754 27.47957 27.528022 27.065212 C 28.062024 26.999824 27.371453 28.969224 26.468386 28.895458 C 22.91657 28.613218 20.006007 32.469716 20.110832 32.074277 z "
     style="font-size:12;opacity:0.699936;fill-rule:evenodd;stroke:none;stroke-width:0.143952pt;fill:url(#linearGradient700);"
     id="path1004" />
  <path
     d="M 16.650385 43.344702 C 16.812479 42.93051 21.536711 41.463884 22.719003 40.551104 C 23.095935 40.290882 22.099009 41.994119 21.466882 42.285066 C 20.076111 42.925235 16.523453 43.669052 16.650385 43.344702 z "
     style="font-size:12;opacity:0.7;fill-rule:evenodd;stroke:none;stroke-width:0.143952pt;fill:url(#linearGradient701);"
     id="path1005" />
  <ellipse
     cx="303.921448"
     cy="288.786926"
     rx="11.397049"
     ry="11.397034"
     transform="matrix(0.182569,0.000000,0.000000,0.172681,-26.97321,-24.03771)"
     style="font-size:12;fill:#261933;fill-rule:evenodd;stroke-width:1pt;"
     id="path1000" />
  <path
     d="M 17.973101 25.402112 L 39.429393 24.975081 L 39.469746 26.14614 L 18.013999 26.497611 L 17.973101 25.402112 z "
     style="font-size:12;fill:#261933;fill-rule:evenodd;stroke-width:1pt;"
     id="path1001" />
  <path
     d="M 6.6876568 43.965773 C 6.360392 43.13667 19.363758 4.5872629 20.579427 3.7922731 C 22.09876 2.7554118 46.659814 7.3454032 46.98631 8.172561 C 47.28557 8.9306762 27.823671 5.3906629 23.493845 9.2635774 C 15.189619 16.482895 6.9861475 44.721984 6.6876568 43.965773 z "
     style="font-size:12;opacity:0.699936;fill:url(#linearGradient587);fill-rule:evenodd;stroke:none;stroke-width:0.100121pt;"
     id="path640" />
  <path
     d="M 18.691141 25.879456 C 18.691141 25.274656 17.912108 24.098382 17.522469 24.098382 C 17.13295 24.098382 16.353916 25.274656 16.353916 25.879456 C 16.353916 26.524464 17.13295 27.848389 17.522469 27.848389 C 17.912108 27.848389 18.691141 26.524464 18.691141 25.879456 z "
     style="font-size:12;fill:#261933;fill-rule:evenodd;stroke-width:1pt;"
     id="path1002" />
  <path
     d="M 41.177527 25.500118 C 41.177527 24.866638 40.356481 23.634586 39.945897 23.634586 C 39.53556 23.634586 38.714513 24.866638 38.714513 25.500118 C 38.714513 26.175714 39.53556 27.56227 39.945897 27.56227 C 40.356481 27.56227 41.177527 26.175714 41.177527 25.500118 z "
     style="font-size:12;fill:#261933;fill-rule:evenodd;stroke-width:1pt;"
     id="path1003" />
  <text
     xml:space="preserve"
     style="fill:black;fill-opacity:1;stroke:none;font-family:helvetica;font-style:normal;font-weight:normal;font-size:12px;stroke-opacity:1;stroke-width:1pt;stroke-linejoin:miter;stroke-linecap:butt;"
     x="32.536951"
     y="45.961130"
     id="text863"><tspan
       id="tspan864"></tspan></text>
  <text
     xml:space="preserve"
     style="fill:black;fill-opacity:1;stroke:none;font-family:helvetica;font-style:normal;font-weight:normal;font-size:12px;stroke-opacity:1;stroke-width:1pt;stroke-linejoin:miter;stroke-linecap:butt;"
     x="33.843134"
     y="46.081972"
     id="text1016"
     transform="scale(0.923857,0.960583)"><tspan
       id="tspan1016"></tspan></text>
  <text
     xml:space="preserve"
     style="fill:black;fill-opacity:1;stroke:none;font-family:helvetica;font-style:normal;font-weight:normal;font-size:12px;stroke-opacity:1;stroke-width:1pt;stroke-linejoin:miter;stroke-linecap:butt;"
     x="32.706129"
     y="46.141191"
     id="text1092"
     transform="scale(0.934091,0.942535)"><tspan
       id="tspan1093"></tspan></text>
  <text
     xml:space="preserve"
     style="fill:black;fill-opacity:1;stroke:none;font-family:helvetica;font-style:normal;font-weight:normal;font-size:12px;stroke-opacity:1;stroke-width:1pt;stroke-linejoin:miter;stroke-linecap:butt;"
     x="34.026259"
     y="46.269421"
     id="text941"
     transform="scale(0.862967,0.905383)"><tspan
       id="tspan942"></tspan></text>
  <rect
     style="fill:#000000;fill-opacity:0.30000001;fill-rule:evenodd;stroke:none;stroke-width:1.0000000pt;stroke-opacity:1.0000000;"
     id="rect937"
     x="28.226574"
     y="39.395287"
     rx="0.70483023"
     width="30.710464"
     height="12.888113" />
  <rect
     style="fill:#d9cce6;fill-opacity:0.80000001;fill-rule:evenodd;stroke:#261933;stroke-width:1.2500000;stroke-dasharray:none;"
     id="rect862"
     x="26.323563"
     y="37.806450"
     rx="0.69999999"
     width="30.500000"
     height="12.750523" />
  <text
     xml:space="preserve"
     style="fill:black;fill-opacity:1;stroke:none;font-family:helvetica;font-style:normal;font-weight:normal;font-size:12px;stroke-opacity:1;stroke-width:1pt;stroke-linejoin:miter;stroke-linecap:butt;"
     x="32.536951"
     y="45.961130"
     id="text976"><tspan
       id="tspan977"></tspan></text>
  <path
     style="font-size:12.000000;stroke-width:1.0000000pt;font-family:Radio Stars;"
     d="M 50.360276,47.467842 L 43.880276,47.467842 C 43.344276,47.467842 43.076276,47.195842 43.076276,46.651842 L 43.076276,41.467842 C 43.076276,41.211842 43.156276,41.015842 43.316276,40.879842 C 43.476276,40.735842 43.664276,40.663842 43.880276,40.663842 C 44.096276,40.663842 44.284276,40.735842 44.444276,40.879842 C 44.604276,41.015842 44.684276,41.211842 44.684276,41.467842 L 44.684276,45.835842 L 50.360276,45.835842 C 50.600276,45.835842 50.784276,45.915842 50.912276,46.075842 C 51.048276,46.235842 51.116276,46.427842 51.116276,46.651842 C 51.116276,46.875842 51.048276,47.067842 50.912276,47.227842 C 50.784276,47.387842 50.600276,47.467842 50.360276,47.467842 z M 41.804276,46.651842 C 41.804276,46.907842 41.724276,47.107842 41.564276,47.251842 C 41.404276,47.387842 41.216276,47.455842 41.000276,47.455842 C 40.784276,47.455842 40.596276,47.387842 40.436276,47.251842 C 40.276276,47.107842 40.196276,46.907842 40.196276,46.651842 L 40.196276,41.467842 C 40.196276,41.211842 40.276276,41.015842 40.436276,40.879842 C 40.596276,40.735842 40.784276,40.663842 41.000276,40.663842 C 41.216276,40.663842 41.404276,40.735842 41.564276,40.879842 C 41.724276,41.015842 41.804276,41.211842 41.804276,41.467842 L 41.804276,46.651842 z M 39.932276,46.651842 C 39.932276,46.907842 39.852276,47.107842 39.692276,47.251842 C 39.540276,47.387842 39.352276,47.455842 39.128276,47.455842 C 38.912276,47.455842 38.724276,47.387842 38.564276,47.251842 C 38.404276,47.107842 38.324276,46.907842 38.324276,46.651842 L 38.324276,44.875842 L 33.464276,44.875842 L 33.464276,46.651842 C 33.464276,46.907842 33.384276,47.107842 33.224276,47.251842 C 33.064276,47.387842 32.872276,47.455842 32.648276,47.455842 C 32.432276,47.455842 32.244276,47.387842 32.084276,47.251842 C 31.924276,47.107842 31.844276,46.907842 31.844276,46.651842 L 31.844276,41.467842 C 31.844276,41.211842 31.928276,41.007842 32.096276,40.855842 C 32.248276,40.727842 32.432276,40.663842 32.648276,40.663842 C 32.872276,40.663842 33.064276,40.735842 33.224276,40.879842 C 33.384276,41.015842 33.464276,41.211842 33.464276,41.467842 L 33.464276,42.883842 L 38.828276,40.723842 C 38.948276,40.675842 39.060276,40.651842 39.164276,40.651842 C 39.388276,40.651842 39.572276,40.735842 39.716276,40.903842 C 39.868276,41.071842 39.944276,41.267842 39.944276,41.491842 C 39.944276,41.835842 39.772276,42.075842 39.428276,42.211842 L 36.860276,43.243842 L 39.128276,43.243842 C 39.664276,43.243842 39.932276,43.515842 39.932276,44.059842 L 39.932276,46.651842 z "
     id="path982" />
  <path
     style="fill:#000000;fill-rule:evenodd;stroke:none;stroke-opacity:0.29999998;stroke-width:2.8750000;stroke-linejoin:miter;stroke-linecap:butt;fill-opacity:0.29999998;stroke-dasharray:none;"
     d="M 25.503782 17.330406 C 21.716372 16.400165 17.131613 11.084501 14.141552 14.539683 C 9.9222423 18.825436 17.264505 20.519803 15.237908 26.79893 C 14.639896 31.05146 5.1713693 28.127846 5.6697126 34.174412 C 6.3341704 39.490075 13.975438 37.82893 15.437245 41.15122 C 18.958872 45.702756 9.9222433 48.260918 13.443872 52.41378 C 17.862517 55.802515 23.676523 50.021731 25.503782 51.815768 C 29.656643 53.44369 28.427397 60.45372 32.580258 60.287606 C 37.89592 59.656371 35.238089 52.048328 39.557065 51.217756 C 44.474054 49.124714 48.195017 57.79589 51.31797 53.908811 C 53.610349 49.722726 48.128572 45.935316 49.224927 42.546581 C 50.221614 36.965135 59.989145 37.762484 59.391133 33.5764 C 59.058904 28.626189 50.753181 31.250798 50.022277 27.695948 C 47.597005 23.709201 45.769747 20.121129 40.354415 17.529743 C 35.404204 15.669261 30.453993 16.200828 25.503782 17.330406 z "
     id="path728"
     sodipodi:nodetypes="ccccccccccccccc"
     transform="matrix(0.435300,0.000000,0.000000,0.450672,1.651463,1.217597)" />
  <path
     style="fill:url(#radialGradient975);fill-rule:evenodd;stroke:#261933;stroke-opacity:1.0000000;stroke-width:2.8750000;stroke-linejoin:miter;stroke-linecap:butt;fill-opacity:1.0000000;stroke-dasharray:none;"
     d="M 23.023465 14.850089 C 19.236055 13.919848 14.651296 8.6041851 11.661235 12.059366 C 7.4419278 16.345119 14.784188 18.039486 12.757591 24.318613 C 12.159579 28.571143 2.6910544 25.647529 3.1893977 31.694095 C 3.8538555 37.009758 11.495121 35.348613 12.956928 38.670903 C 16.478555 43.222439 7.4419285 45.780601 10.963555 49.933463 C 15.3822 53.322198 21.196206 47.541414 23.023465 49.335451 C 27.176326 50.963373 25.94708 57.973403 30.099941 57.807289 C 35.415603 57.176054 32.757772 49.568011 37.076748 48.737439 C 41.993737 46.644397 45.7147 55.315573 48.837653 51.428494 C 51.130032 47.242409 45.648255 43.454999 46.74461 40.066264 C 47.741297 34.484818 57.508828 35.282167 56.910816 31.096083 C 56.578587 26.145872 48.272864 28.770481 47.54196 25.215631 C 45.116688 21.228884 43.28943 17.640812 37.874098 15.049426 C 32.923887 13.188944 27.973676 13.720511 23.023465 14.850089 z "
     id="path886"
     sodipodi:nodetypes="ccccccccccccccc"
     transform="matrix(0.435300,0.000000,0.000000,0.450672,1.651463,1.217597)" />
  <path
     d="M 11.471822 47.234441 C 11.682739 46.639624 15.046503 43.073073 15.790745 42.690135 C 16.150298 42.504989 15.430123 44.849394 14.782849 45.530372 C 13.990484 46.364162 11.346893 47.586312 11.471822 47.234441 z "
     style="font-size:12.000000;opacity:0.69999999;fill:url(#linearGradient860);fill-rule:evenodd;stroke:none;stroke-width:1.1111300pt;"
     id="path1585"
     transform="matrix(0.435300,0.000000,0.000000,0.450672,1.651463,1.217597)" />
  <path
     sodipodi:type="arc"
     style="font-size:12.000000;fill:url(#radialGradient635);fill-opacity:1.00000000;fill-rule:evenodd;stroke:#261933;stroke-width:2.8750000;stroke-opacity:1.0000000;stroke-dasharray:none;"
     id="path626"
     sodipodi:cx="30.29927826"
     sodipodi:cy="31.99310112"
     sodipodi:rx="13.55494022"
     sodipodi:ry="13.35560322"
     d="M 43.854218 31.993101 A 13.554940 13.355603 0 1 0 16.744338,31.993101 A 13.5549 13.3556 0 1 0 43.8542 31.9931 L 30.299278 31.993101 z"
     transform="matrix(0.435300,0.000000,0.000000,0.450672,1.651463,1.217597)" />
  <path
     sodipodi:type="arc"
     style="font-size:12.000000;fill:url(#radialGradient628);fill-opacity:1.00000000;fill-rule:evenodd;stroke:none;stroke-width:1.0000000pt;"
     id="path627"
     sodipodi:cx="27.90723038"
     sodipodi:cy="25.36513329"
     sodipodi:rx="9.06984997"
     sodipodi:ry="5.73094893"
     d="M 36.977080 25.365133 A 9.069850 5.730949 0 1 0 18.837380,25.365133 A 9.06985 5.73095 0 1 0 36.9771 25.3651 L 27.907230 25.365133 z"
     transform="matrix(0.435300,0.000000,0.000000,0.450672,2.692721,1.666776)" />
  <path
     d="M 28.133662 6.2523789 C 28.133662 6.2523789 29.897679 29.411633 28.251261 41.634563 C 30.015278 42.277867 34.131312 41.377237 36.13052 40.476601 C 37.071331 34.558111 36.600936 25.680421 36.600936 25.680421 C 39.540955 31.684666 42.951376 36.659615 46.832198 41.763223 C 50.242627 41.505897 52.359447 40.73392 54.593866 39.061306 C 50.752237 34.386568 47.028201 28.939859 44.127377 23.107165 C 48.557006 18.132216 52.163444 13.157267 54.946662 8.1823178 C 52.006643 8.010767 49.301823 7.5818982 46.479402 5.7377274 C 44.205788 10.755568 40.403362 16.030726 36.483331 21.177226 C 37.071338 15.859183 36.600936 10.541113 36.012928 5.6090617 C 33.739307 6.46682 31.230489 6.8099143 28.133662 6.2523789 z "
     style="font-size:12.000000;fill:#000000;fill-rule:evenodd;stroke-width:2.1250000;stroke-linejoin:round;stroke:#000000;stroke-opacity:0.29999998;stroke-dasharray:none;fill-opacity:0.29999998;"
     id="path729"
     transform="matrix(0.435300,0.000000,0.000000,0.450672,1.651463,1.217597)" />
  <path
     d="M 27.425 5.5437175 C 27.425 5.5437175 29.189017 28.702971 27.542599 40.925901 C 29.306616 41.569205 33.42265 40.668575 35.421858 39.767939 C 36.362669 33.849449 35.892274 24.971759 35.892274 24.971759 C 38.832293 30.976004 42.242714 35.950953 46.123536 41.054561 C 49.533965 40.797235 51.650785 40.025258 53.885204 38.352644 C 50.043575 33.677906 46.319539 28.231197 43.418715 22.398503 C 47.848344 17.423554 51.454782 12.448605 54.238 7.4736564 C 51.297981 7.3021056 48.593161 6.8732368 45.77074 5.029066 C 43.497126 10.046906 39.6947 15.322064 35.774669 20.468564 C 36.362676 15.150521 35.892274 9.8324513 35.304266 4.9004003 C 33.030645 5.7581586 30.521827 6.1012529 27.425 5.5437175 z "
     style="font-size:12.000000;fill:url(#linearGradient862);fill-rule:evenodd;stroke-width:2.1250000;stroke-linejoin:round;stroke:#261933;stroke-opacity:1.0000000;stroke-dasharray:none;"
     id="path606"
     transform="matrix(0.435300,0.000000,0.000000,0.450672,1.651463,1.217597)" />
  <path
     d="M 28.988627 7.1071282 C 28.988627 7.1071282 29.767184 22.896497 29.41948 35.227552 C 30.303859 29.154715 30.716613 16.486205 30.372686 9.5759558 C 31.839097 9.6015281 33.028814 8.4879008 34.139961 7.2989035 C 34.124846 7.0112438 34.105945 6.7363638 34.083272 6.4614901 C 32.613079 7.3180759 30.991713 7.6632672 28.988627 7.1071282 z "
     style="font-size:12.000000;fill:url(#linearGradient583);fill-rule:evenodd;stroke-width:12.500000;stroke-linejoin:round;"
     id="path619"
     transform="matrix(0.435300,0.000000,0.000000,0.450672,1.651463,1.217597)" />
  <path
     d="M 51.781143 8.6608807 C 50.261995 8.3284754 47.928582 7.5865623 46.397755 6.5893403 C 44.691635 10.354495 41.353413 15.420208 38.525463 19.306819 C 41.072955 17.632001 45.445363 12.145543 46.982036 9.2433612 C 48.12724 9.6844443 50.565834 9.2042408 51.781143 8.6608807 z "
     style="font-size:12.000000;fill:url(#linearGradient861);fill-rule:evenodd;stroke-width:12.500000;stroke-linejoin:round;"
     id="path631"
     transform="matrix(0.435300,0.000000,0.000000,0.450672,1.651463,1.217597)" />
  <metadata
     id="metadata85">
    <rdf:RDF
       id="RDF86">
      <cc:Work
         rdf:about=""
         id="Work87">
        <dc:format
           id="format88">image/svg+xml</dc:format>
        <dc:type
           id="type90"
           rdf:resource="http://purl.org/dc/dcmitype/StillImage" />
      </cc:Work>
    </rdf:RDF>
  </metadata>
</svg>
