<?xml version="1.0" encoding="UTF-8" standalone="no"?>
<!DOCTYPE svg PUBLIC "-//W3C//DTD SVG 20010904//EN"
"http://www.w3.org/TR/2001/REC-SVG-20010904/DTD/svg10.dtd">
<!-- Created with Inkscape (http://www.inkscape.org/) -->
<svg
   id="svg1"
   sodipodi:version="0.32"
   inkscape:version="0.38"
   width="48pt"
   height="48pt"
   sodipodi:docbase="/home/dan/Projects/Lila-icons/scalable/mimetypes"
   sodipodi:docname="gnome-mime-text-x-perl.svg"
   xmlns="http://www.w3.org/2000/svg"
   xmlns:inkscape="http://www.inkscape.org/namespaces/inkscape"
   xmlns:sodipodi="http://sodipodi.sourceforge.net/DTD/sodipodi-0.dtd"
   xmlns:xlink="http://www.w3.org/1999/xlink">
  <defs
     id="defs3">
    <linearGradient
       id="linearGradient648">
      <stop
         style="stop-color:#fed449;stop-opacity:1;"
         offset="0.00000000"
         id="stop649" />
      <stop
         style="stop-color:#8f330c;stop-opacity:1;"
         offset="1.00000000"
         id="stop650" />
    </linearGradient>
    <linearGradient
       id="linearGradient653">
      <stop
         style="stop-color:#d9cce6;stop-opacity:1;"
         offset="0.00000000"
         id="stop654" />
      <stop
         style="stop-color:#73667f;stop-opacity:1;"
         offset="1.00000000"
         id="stop655" />
    </linearGradient>
    <linearGradient
       id="linearGradient708">
      <stop
         style="stop-color:#fdd700;stop-opacity:1;"
         offset="0.00000000"
         id="stop709" />
      <stop
         style="stop-color:#e6ff52;stop-opacity:1;"
         offset="1.00000000"
         id="stop710" />
    </linearGradient>
    <linearGradient
       id="linearGradient642">
      <stop
         style="stop-color:#19cc00;stop-opacity:1;"
         offset="0.00000000"
         id="stop643" />
      <stop
         style="stop-color:#cce6cc;stop-opacity:1;"
         offset="1.00000000"
         id="stop644" />
    </linearGradient>
    <linearGradient
       id="linearGradient866">
      <stop
         style="stop-color:#ffffff;stop-opacity:1;"
         offset="0.00000000"
         id="stop867" />
      <stop
         style="stop-color:#d9cce6;stop-opacity:1;"
         offset="1.00000000"
         id="stop868" />
    </linearGradient>
    <linearGradient
       id="linearGradient584">
      <stop
         style="stop-color:#ffffff;stop-opacity:1;"
         offset="0.00000000"
         id="stop585" />
      <stop
         style="stop-color:#ffffff;stop-opacity:0;"
         offset="1.00000000"
         id="stop586" />
    </linearGradient>
    <linearGradient
       xlink:href="#linearGradient866"
       id="linearGradient586"
       x1="-0.00000000"
       y1="0.01562500"
       x2="0.99122804"
       y2="0.98437500" />
    <linearGradient
       xlink:href="#linearGradient584"
       id="linearGradient587"
       x1="0.00000000"
       y1="-0.00000000"
       x2="1.00000000"
       y2="1.00000000" />
    <linearGradient
       xlink:href="#linearGradient642"
       id="linearGradient638"
       x1="0.96923077"
       y1="0.97656250"
       x2="0.03076923"
       y2="0.00781250" />
    <radialGradient
       xlink:href="#linearGradient866"
       id="radialGradient639" />
    <linearGradient
       xlink:href="#linearGradient584"
       id="linearGradient640"
       x1="-0.00000000"
       y1="0.00000000"
       x2="0.99193549"
       y2="1.00000000" />
    <linearGradient
       xlink:href="#linearGradient584"
       id="linearGradient641"
       x1="0.00000000"
       y1="-0.00000000"
       x2="1.00364959"
       y2="1.03125000" />
    <linearGradient
       xlink:href="#linearGradient708"
       id="linearGradient645"
       x1="0.98235291"
       y1="0.99218750"
       x2="0.00588235"
       y2="0.01562500" />
    <linearGradient
       xlink:href="#linearGradient653"
       id="linearGradient652"
       x1="-0.00000000"
       y1="0.00000000"
       x2="0.98484850"
       y2="1.00781250" />
    <linearGradient
       xlink:href="#linearGradient584"
       id="linearGradient656"
       x1="0.01851852"
       y1="0.00781250"
       x2="1.00000000"
       y2="0.99218750" />
    <linearGradient
       xlink:href="#linearGradient584"
       id="linearGradient657"
       x1="-0.00000000"
       y1="-0.00000000"
       x2="1.00000000"
       y2="1.00781250" />
    <linearGradient
       xlink:href="#linearGradient584"
       id="linearGradient658"
       x1="0.00000000"
       y1="-0.00000000"
       x2="1.00000000"
       y2="1.00000000" />
    <linearGradient
       xlink:href="#linearGradient584"
       id="linearGradient659"
       x1="0.00000000"
       y1="0.00000000"
       x2="1.00000000"
       y2="0.99218750" />
    <linearGradient
       xlink:href="#linearGradient584"
       id="linearGradient660"
       x1="-0.00000000"
       y1="-0.00000000"
       x2="1.00793648"
       y2="1.01562500" />
    <linearGradient
       xlink:href="#linearGradient648"
       id="linearGradient647"
       x1="0.00000000"
       y1="0.00000000"
       x2="1.00000000"
       y2="0.00000000" />
    <linearGradient
       xlink:href="#linearGradient648"
       id="linearGradient651" />
    <linearGradient
       xlink:href="#linearGradient648"
       id="linearGradient654" />
    <linearGradient
       xlink:href="#linearGradient648"
       id="linearGradient655" />
    <linearGradient
       xlink:href="#linearGradient648"
       id="linearGradient661" />
    <linearGradient
       xlink:href="#linearGradient648"
       id="linearGradient662" />
  </defs>
  <sodipodi:namedview
     id="base"
     pagecolor="#ffffff"
     bordercolor="#666666"
     borderopacity="1.0"
     inkscape:pageopacity="0.0"
     inkscape:pageshadow="2"
     inkscape:zoom="5.6568543"
     inkscape:cx="23.580575"
     inkscape:cy="20.505465"
     inkscape:window-width="1018"
     inkscape:window-height="711"
     inkscape:window-x="0"
     inkscape:window-y="30" />
  <path
     d="M 4.4389304 48.086315 C 5.2483181 50.50443 38.765774 61.377487 40.966438 59.55288 C 42.936267 57.902492 57.675565 8.7785888 56.688667 6.8303779 C 55.662821 4.6824777 21.657054 -0.6675724 20.042945 0.80153134 C 18.054709 2.621752 3.5888672 45.311841 4.4389304 48.086315 z "
     style="font-size:12;opacity:0.302675;fill-rule:evenodd;stroke-width:12.5;"
     id="path639" />
  <path
     d="M 4.5541516 46.08493 C 5.3114351 48.34726 36.66955 58.519843 38.728432 56.812781 C 40.571358 55.268717 54.36111 9.3095333 53.437795 7.4867937 C 52.478034 5.477268 20.663028 0.47192513 19.152904 1.8463842 C 17.292759 3.5493405 3.7588508 43.489198 4.5541516 46.08493 z "
     style="font-size:12;fill:url(#linearGradient586);fill-rule:evenodd;stroke:#261933;stroke-width:1.87726;"
     id="path634" />
  <path
     d="M 6.3973655 43.523831 C 6.0701007 42.694728 19.073467 4.1453212 20.289136 3.3503314 C 21.808469 2.3134701 46.369523 6.9034615 46.696019 7.7306193 C 46.995279 8.4887345 27.53338 4.9487212 23.203554 8.8216357 C 14.899328 16.040953 6.6958562 44.280042 6.3973655 43.523831 z "
     style="font-size:12;opacity:0.699936;fill:url(#linearGradient587);fill-rule:evenodd;stroke:none;stroke-width:0.100121pt;"
     id="path640" />
  <path
     style="font-size:12;fill:url(#linearGradient647);fill-opacity:0.75;fill-rule:evenodd;stroke:#261933;stroke-width:0.82524pt;"
     d="M 34.949858 47.384142 C 34.267732 47.478442 27.583531 38.78629 24.87719 31.854434 C 24.442486 29.465247 24.00778 27.356907 22.862658 24.686875 C 21.874843 23.219127 22.011858 23.225819 20.668835 21.898493 C 20.444998 22.319761 19.510743 21.196378 18.517287 20.283631 C 17.32509 19.042895 14.948863 18.644699 12.691038 18.948614 C 13.026795 18.68315 13.125743 18.979376 13.461499 18.713911 C 18.385915 18.581177 28.520059 15.148508 28.234747 18.315714 C 28.755433 21.235829 29.394522 23.8751 31.928058 27.076061 C 33.929623 29.363276 35.812786 30.66753 38.64317 32.252631 C 40.334918 33.263506 43.540538 33.633101 43.244799 34.161872 C 43.383075 34.735505 35.90993 47.800555 34.949858 47.384142 z "
     id="path631"
     sodipodi:nodetypes="cccccccccccc" />
  <path
     style="font-size:12;fill:url(#linearGradient651);fill-opacity:0.75;fill-rule:evenodd;stroke:#331926;stroke-width:0.82524pt;"
     d="M 28.337708 15.643027 C 28.603216 16.536626 28.395115 17.48129 28.100901 18.170639 C 27.686491 19.013176 26.561663 19.996136 25.436835 20.276982 C 23.542388 21.072711 21.411136 20.745058 20.108703 20.136558 C 18.727336 19.106792 16.872357 18.498292 15.964602 18.73233 C 14.760837 18.5451 13.557075 18.217446 12.70852 18.591907 C 11.445556 19.71529 10.182591 20.69825 8.9196266 21.119519 C 7.2619854 22.172691 6.4331646 22.945016 5.3675384 22.593959 C 4.6176538 22.640767 3.7493647 21.704615 3.4730914 21.049308 C 3.0784157 20.347194 2.8021412 20.066348 2.5258678 18.942964 C 2.0917236 17.866388 1.7759827 16.930237 2.4074654 16.555776 C 5.0517968 14.168587 8.0513376 12.202667 11.406088 10.658015 C 12.787456 10.236746 13.695211 10.096323 14.839773 9.8154783 C 14.385895 9.2537863 13.340003 8.6920953 13.478139 8.1304033 C 13.399204 7.8027503 14.149089 6.772982 14.30696 7.147443 C 14.97791 7.1006354 15.648859 7.3346735 15.964602 7.8495573 C 16.201407 7.9431723 16.438213 8.0367873 16.675019 8.1304033 C 17.030227 6.4453287 17.622242 5.6027914 18.451062 5.6027914 C 18.806271 5.6027914 19.279882 5.7432143 19.635092 5.7432143 C 20.898056 6.0474639 22.042617 6.4921363 22.950373 7.3580775 C 23.226646 7.0772316 23.502921 6.7963859 23.779194 6.5155401 C 24.213339 6.0474639 24.647482 6.4219248 25.081626 6.7963859 C 25.555238 6.9836163 25.910448 7.4516927 25.792044 7.7793457 C 25.792044 8.2006153 25.792044 8.6218833 25.792044 9.0431523 C 26.640598 11.24311 27.61832 13.392005 28.337708 15.643027 z "
     id="path633"
     sodipodi:nodetypes="ccccccccccccccccccccccccc" />
  <path
     style="font-size:12;fill:url(#linearGradient661);fill-opacity:0.75;fill-rule:evenodd;stroke:#261933;stroke-width:0.82524pt;stroke-linecap:round;"
     d="M 10.814073 12.132454 C 11.721829 11.948335 12.681335 11.825587 13.537342 12.132454 C 13.994738 12.368048 14.167512 12.60364 14.366162 13.115414 C 14.532381 13.583491 14.336354 14.051567 14.010953 14.519643 C 13.469376 14.953924 12.746676 15.204083 11.998102 15.362181 C 11.998102 15.362181 11.998102 15.362181 11.998102 15.362181 "
     id="path635"
     sodipodi:nodetypes="cccccc" />
  <path
     style="font-size:12;fill-rule:evenodd;stroke:#261933;stroke-width:0.309465;stroke-linecap:round;"
     d="M 8.5644166 15.221759 C 9.1454616 14.647056 9.7782546 14.256474 10.695671 13.957952 C 11.235936 13.789952 12.345445 13.898133 12.471715 14.098375 C 12.583563 14.240352 12.074417 14.597139 11.642895 14.800489 C 10.694359 15.186407 9.5905756 15.265457 8.5644166 15.221759 z "
     id="path636"
     sodipodi:nodetypes="ccccc" />
  <path
     style="font-size:12;fill:url(#linearGradient655);fill-opacity:0.75;fill-rule:evenodd;stroke:#261933;stroke-width:0.82524pt;stroke-linecap:round;"
     d="M 5.7227468 15.994084 C 5.002669 15.756936 4.4119661 15.304982 4.183509 14.730278 C 3.8458262 14.076526 3.8186399 13.392087 3.9467032 13.045204 C 4.092292 12.764358 4.1343818 12.330078 4.5387184 12.202667 C 4.9890774 11.868221 6.0345552 12.331633 6.4331646 12.764358 C 6.8633761 13.309928 6.93134 13.794125 7.0251792 14.30901 "
     id="path637"
     sodipodi:nodetypes="cccccc" />
  <path
     style="font-size:12;fill:none;fill-opacity:0.75;fill-rule:evenodd;stroke:#261933;stroke-width:0.82524pt;stroke-linecap:round;"
     d="M 5.7227468 16.696198 C 5.0965082 17.102901 4.832518 17.570977 4.7755247 18.100427 C 4.5944004 18.833229 4.5167765 19.995645 4.7755247 20.206771 C 5.2491353 20.687857 5.4859406 21.142924 6.1963584 21.189731 C 6.5910354 21.330154 7.4593236 21.470577 7.3803876 21.610999 "
     id="path638"
     sodipodi:nodetypes="ccccc" />
  <path
     style="font-size:12;fill:url(#linearGradient654);fill-opacity:0.75;fill-rule:evenodd;stroke:#261933;stroke-width:0.82524pt;"
     d="M 26.163216 9.4727493 C 27.312138 9.4129253 28.116614 9.4552263 28.964148 9.9060313 C 30.318498 10.628169 31.371459 11.248181 32.252198 12.072444 C 32.954594 12.677147 33.484769 13.179723 33.713554 13.733362 C 33.971888 14.166644 33.971888 14.702053 33.713554 15.033211 C 33.431864 15.481095 33.193229 15.622603 32.739317 15.610922 C 31.881935 15.616761 31.196775 15.571539 30.425503 15.322065 C 28.951835 14.753117 27.908724 13.87779 26.650334 13.155652 C 26.48796 11.928018 26.325588 10.700383 26.163216 9.4727493 z "
     id="path641"
     sodipodi:nodetypes="ccccccccc" />
  <path
     style="font-size:12;fill:none;fill-opacity:0.75;fill-rule:evenodd;stroke:#261933;stroke-width:0.618929;stroke-linecap:round;"
     d="M 27.320123 10.772597 C 28.707678 11.242341 29.836901 11.865274 31.095292 12.794583 C 31.477866 13.083439 31.559054 13.627608 31.338851 13.661148 C 30.319097 13.774955 29.342396 13.531322 28.537919 13.083439 C 28.537919 13.083439 28.537919 13.083439 28.537919 13.083439 C 28.537919 13.083439 28.537919 13.083439 28.537919 13.083439 "
     id="path642"
     sodipodi:nodetypes="cccccc" />
  <path
     style="font-size:12;fill-rule:evenodd;stroke:#000000;stroke-width:0.82524pt;"
     d="M 24.010619 12.879249 C 23.824044 12.198411 22.776357 11.670761 21.900894 11.449489 C 20.889087 11.023965 19.87728 10.751631 18.865473 10.938861 C 18.420565 11.023965 18.061768 11.364384 18.176582 11.653739 C 18.348805 12.394151 18.607139 12.828186 19.080751 13.415409 C 20.049502 14.257947 21.922421 16.121741 21.987005 15.943022 C 22.108995 15.696218 21.154596 14.734533 20.759919 14.028164 C 21.87219 13.917528 24.103905 13.449452 24.010619 12.879249 z "
     id="path643"
     sodipodi:nodetypes="cccccccc" />
  <path
     style="font-size:12;fill:#ffffff;fill-rule:evenodd;stroke:none;stroke-width:2.08663pt;"
     d="M 19.063219 11.165994 C 20.058557 11.238932 23.021364 11.732568 23.03947 12.870756 C 23.03947 13.803508 22.04882 13.968076 20.768933 13.979752 C 19.489044 13.968076 19.000734 13.604921 19.000734 12.672167 C 19.000734 12.064824 18.347249 11.888864 19.063219 11.165994 z "
     id="path663"
     sodipodi:nodetypes="ccccc" />
  <path
     style="fill:#000000;fill-rule:evenodd;stroke:none;stroke-opacity:1;stroke-width:1pt;stroke-linejoin:miter;stroke-linecap:butt;fill-opacity:1;"
     d="M 20.896246 11.657216 C 21.232932 12.010088 21.745425 12.137463 21.398586 12.848743 C 20.923642 12.848743 20.677529 12.792686 20.393904 12.650156 C 20.393904 11.994882 20.383828 12.134704 20.896246 11.657216 z "
     id="path665" />
</svg>
