<?xml version="1.0" encoding="UTF-8" standalone="no"?>
<!DOCTYPE svg PUBLIC "-//W3C//DTD SVG 20010904//EN"
"http://www.w3.org/TR/2001/REC-SVG-20010904/DTD/svg10.dtd">
<!-- Created with Inkscape (http://www.inkscape.org/) -->
<svg
   id="svg1"
   sodipodi:version="0.32"
   inkscape:version="0.38.1"
   width="48pt"
   height="48pt"
   sodipodi:docbase="/root/Desktop"
   sodipodi:docname="working2.svg"
   xmlns="http://www.w3.org/2000/svg"
   xmlns:inkscape="http://www.inkscape.org/namespaces/inkscape"
   xmlns:sodipodi="http://sodipodi.sourceforge.net/DTD/sodipodi-0.dtd"
   xmlns:xml="http://www.w3.org/XML/1998/namespace"
   xmlns:xlink="http://www.w3.org/1999/xlink">
  <defs
     id="defs3">
    <linearGradient
       id="linearGradient563">
      <stop
         style="stop-color:#d9cce6;stop-opacity:1;"
         offset="0.00000000"
         id="stop564" />
      <stop
         style="stop-color:#73667f;stop-opacity:1;"
         offset="1.00000000"
         id="stop565" />
    </linearGradient>
    <linearGradient
       x1="0.03846154"
       y1="0.07031250"
       x2="0.98461539"
       y2="0.96875000"
       id="linearGradient566"
       xlink:href="#linearGradient563" />
    <linearGradient
       id="linearGradient570">
      <stop
         style="stop-color:#ffffff;stop-opacity:1;"
         offset="0"
         id="stop571" />
      <stop
         style="stop-color:#ffffff;stop-opacity:0;"
         offset="1"
         id="stop572" />
    </linearGradient>
    <linearGradient
       x1="0.006536"
       y1="0.015625"
       x2="0.849673"
       y2="0.867188"
       id="linearGradient569"
       xlink:href="#linearGradient570" />
    <linearGradient
       xlink:href="#linearGradient584"
       id="linearGradient825"
       x1="0.00000000"
       y1="0.01587302"
       x2="0.99635035"
       y2="0.99206346" />
    <linearGradient
       xlink:href="#linearGradient584"
       id="linearGradient824"
       x1="0.00000000"
       y1="-0.00000000"
       x2="0.98905110"
       y2="0.96551722" />
    <linearGradient
       xlink:href="#linearGradient584"
       id="linearGradient823"
       x1="-0.00000000"
       y1="-0.00000000"
       x2="0.98540145"
       y2="1.00000000" />
    <linearGradient
       xlink:href="#linearGradient584"
       id="linearGradient822"
       x1="-0.00000000"
       y1="-0.00000000"
       x2="0.99270076"
       y2="1.00000000" />
    <linearGradient
       id="linearGradient642">
      <stop
         style="stop-color:#d9cce6;stop-opacity:1;"
         offset="0.00000000"
         id="stop643" />
      <stop
         style="stop-color:#73667f;stop-opacity:1;"
         offset="1.00000000"
         id="stop644" />
    </linearGradient>
    <linearGradient
       id="linearGradient866">
      <stop
         style="stop-color:#ffffff;stop-opacity:1;"
         offset="0.00000000"
         id="stop867" />
      <stop
         style="stop-color:#d9cce6;stop-opacity:1;"
         offset="1.00000000"
         id="stop868" />
    </linearGradient>
    <linearGradient
       id="linearGradient584">
      <stop
         style="stop-color:#ffffff;stop-opacity:1;"
         offset="0.00000000"
         id="stop585" />
      <stop
         style="stop-color:#ffffff;stop-opacity:0;"
         offset="1.00000000"
         id="stop586" />
    </linearGradient>
    <linearGradient
       xlink:href="#linearGradient866"
       id="linearGradient586"
       x1="-0.00000000"
       y1="0.01562500"
       x2="0.99122804"
       y2="0.98437500" />
    <linearGradient
       xlink:href="#linearGradient584"
       id="linearGradient587"
       x1="0.00000000"
       y1="-0.00000000"
       x2="1.00000000"
       y2="1.00000000" />
    <linearGradient
       xlink:href="#linearGradient584"
       id="linearGradient638"
       x1="0.00000000"
       y1="-0.00000000"
       x2="0.99253732"
       y2="1.00000000" />
    <radialGradient
       xlink:href="#linearGradient866"
       id="radialGradient639" />
    <linearGradient
       xlink:href="#linearGradient584"
       id="linearGradient640"
       x1="-0.00000000"
       y1="0.00000000"
       x2="1.00000000"
       y2="0.99218750" />
    <linearGradient
       xlink:href="#linearGradient642"
       id="linearGradient641"
       x1="0.00000000"
       y1="0.00000000"
       x2="0.96666664"
       y2="0.98437500" />
    <linearGradient
       xlink:href="#linearGradient584"
       id="linearGradient645"
       x1="0.01492537"
       y1="0.00781250"
       x2="0.97761196"
       y2="0.97656250" />
    <linearGradient
       xlink:href="#linearGradient866"
       id="linearGradient826"
       x1="-0.0042372900"
       y1="0.0078125000"
       x2="0.98728812"
       y2="0.97656250" />
    <linearGradient
       xlink:href="#linearGradient866"
       id="linearGradient827"
       x1="-1.9637070e-15"
       y1="-3.2526065e-18"
       x2="0.96666664"
       y2="0.97656250" />
    <linearGradient
       xlink:href="#linearGradient866"
       id="linearGradient828"
       x1="-1.2813101e-15"
       y1="8.1315163e-17"
       x2="0.99583334"
       y2="1.0234375" />
  </defs>
  <sodipodi:namedview
     id="base"
     pagecolor="#ffffff"
     bordercolor="#666666"
     borderopacity="1.0"
     inkscape:pageopacity="0.0"
     inkscape:pageshadow="2"
     inkscape:zoom="7.9794719"
     inkscape:cx="25.952550"
     inkscape:cy="22.124605"
     inkscape:window-width="1274"
     inkscape:window-height="950"
     inkscape:window-x="0"
     inkscape:window-y="25"
     showguides="true"
     snaptoguides="true" />
  <path
     d="M 4.4389304 48.086315 C 5.2483181 50.50443 38.765774 61.377487 40.966438 59.55288 C 42.936267 57.902492 57.675565 8.7785888 56.688667 6.8303779 C 55.662821 4.6824777 21.657054 -0.6675724 20.042945 0.80153134 C 18.054709 2.621752 3.5888672 45.311841 4.4389304 48.086315 z "
     style="font-size:12;opacity:0.302675;fill-rule:evenodd;stroke-width:12.5;"
     id="path639" />
  <path
     d="M 4.5541516 46.08493 C 5.3114351 48.34726 36.66955 58.519843 38.728432 56.812781 C 40.571358 55.268717 54.36111 9.3095333 53.437795 7.4867937 C 52.478034 5.477268 20.663028 0.47192513 19.152904 1.8463842 C 17.292759 3.5493405 3.7588508 43.489198 4.5541516 46.08493 z "
     style="font-size:12;fill:url(#linearGradient586);fill-rule:evenodd;stroke:#261933;stroke-width:1.87726;"
     id="path634" />
  <path
     d="M 6.6876568 43.965773 C 6.360392 43.13667 19.363758 4.5872629 20.579427 3.7922731 C 22.09876 2.7554118 46.659814 7.3454032 46.98631 8.172561 C 47.28557 8.9306762 27.823671 5.3906629 23.493845 9.2635774 C 15.189619 16.482895 6.9861475 44.721984 6.6876568 43.965773 z "
     style="font-size:12;opacity:0.699936;fill:url(#linearGradient587);fill-rule:evenodd;stroke:none;stroke-width:0.100121pt;"
     id="path640" />
  <text
     xml:space="preserve"
     style="fill:black;fill-opacity:1;stroke:none;font-family:helvetica;font-style:normal;font-weight:normal;font-size:12px;stroke-opacity:1;stroke-width:1pt;stroke-linejoin:miter;stroke-linecap:butt;"
     x="193.85025"
     y="43.407090"
     id="text863"
     transform="scale(0.695116,1.003951)"><tspan
       id="tspan864"></tspan></text>
  <path
     d="M 12.147293,40.604977 C 11.636248,38.140964 18.098785,34.962579 18.811667,31.346219 C 19.512376,27.791658 15.195455,22.255274 16.388216,19.092141 C 18.224684,14.222033 23.813490,8.9250038 27.899493,7.2463382 C 28.954491,6.7714040 40.671433,12.380308 40.818534,13.526648 C 40.925697,16.507818 32.118532,20.567658 30.317067,25.100078 C 29.358529,27.511674 33.335900,31.709708 32.538473,34.358694 C 31.013471,39.425282 26.609755,45.984836 23.349782,48.246723 C 22.678517,48.782574 12.362271,41.505275 12.147293,40.604977 z M 34.098585,16.495795 C 34.038706,16.823435 34.898268,17.471969 35.266830,17.378495 C 35.790420,17.245796 36.685194,16.309284 36.775199,15.817420 C 36.834183,15.495134 36.057645,14.849161 35.713904,14.936331 C 35.165546,15.075263 34.187643,16.009430 34.098585,16.495795 z M 30.893503,19.262595 C 30.814206,19.582097 31.631889,20.328875 32.004756,20.278801 C 32.534484,20.207760 33.482214,19.379091 33.601341,18.899469 C 33.679429,18.585246 32.944296,17.850786 32.596516,17.897415 C 32.041754,17.971754 31.011372,18.788400 30.893503,19.262595 z M 27.749508,22.859822 C 27.738851,23.197653 28.675245,23.586729 29.022293,23.389884 C 29.515391,23.110263 30.254039,21.937749 30.270046,21.430564 C 30.280594,21.098303 29.425859,20.688037 29.102115,20.871545 C 28.585717,21.164361 27.765408,22.358353 27.749508,22.859822 z M 28.039036,28.932204 C 28.253626,29.088585 28.902220,28.068052 28.921428,27.545472 C 28.948821,26.803019 28.500961,25.371928 28.178789,25.137031 C 27.967770,24.983069 27.339904,25.891213 27.321954,26.378677 C 27.293303,27.156246 27.720485,28.699801 28.039036,28.932204 z M 29.733652,33.318879 C 29.948241,33.475257 30.596838,32.454727 30.616043,31.932146 C 30.643437,31.189692 30.195577,29.758603 29.873407,29.523704 C 29.662385,29.369745 29.034520,30.277888 29.016574,30.765353 C 28.987920,31.542918 29.415102,33.086473 29.733652,33.318879 z M 28.027439,37.427252 C 28.050845,37.763839 29.017044,37.965450 29.340895,37.702474 C 29.801038,37.329012 30.414523,36.023286 30.379414,35.517936 C 30.356480,35.186921 29.469000,34.948209 29.166874,35.193444 C 28.685007,35.584648 27.992802,36.927543 28.027439,37.427252 z M 25.539909,41.037749 C 25.517341,41.374480 26.438883,41.827491 26.792437,41.654762 C 27.294824,41.409454 28.073830,40.289212 28.107786,39.783639 C 28.129983,39.452553 27.290785,38.983858 26.960949,39.145002 C 26.434843,39.401892 25.573444,40.537896 25.539909,41.037749 z M 22.504126,44.482192 C 22.446820,44.810785 23.311577,45.445832 23.679352,45.346562 C 24.201890,45.205728 25.089004,44.255209 25.175072,43.761882 C 25.231435,43.438788 24.449805,42.804984 24.106693,42.897506 C 23.559490,43.045090 22.589248,43.994434 22.504126,44.482192 z M 25.530884,10.455545 C 25.445444,10.771930 26.248749,11.548819 26.622404,11.512646 C 27.153339,11.461397 28.116391,10.668017 28.244547,10.192899 C 28.328513,9.8817657 27.607760,9.1202323 27.259087,9.1539698 C 26.703066,9.2077106 25.657621,9.9857986 25.530884,10.455545 z M 22.559333,13.361106 C 22.533043,13.697252 23.449597,14.169978 23.804987,14.004877 C 24.310052,13.770419 25.101179,12.666822 25.140592,12.162055 C 25.166413,11.831482 24.332513,11.344946 24.000893,11.498980 C 23.472005,11.744568 22.598274,12.862058 22.559333,13.361106 z M 19.618644,16.772995 C 19.592353,17.109139 20.508907,17.581871 20.864298,17.416765 C 21.369363,17.182309 22.160490,16.078710 22.199901,15.573944 C 22.225723,15.243373 21.391822,14.756785 21.060204,14.910819 C 20.531316,15.156419 19.657584,16.273947 19.618644,16.772995 z M 18.070499,21.577338 C 18.158035,21.892591 19.127383,21.722208 19.388364,21.346913 C 19.759289,20.813701 20.097467,19.325058 19.966008,18.851671 C 19.879886,18.541625 18.979287,18.646537 18.735782,18.996684 C 18.347382,19.555117 17.940456,21.109299 18.070499,21.577338 z M 19.514316,27.137918 C 19.734361,27.278756 20.344489,26.212766 20.344384,25.689526 C 20.344331,24.945972 19.844149,23.549196 19.513738,23.337757 C 19.297260,23.199268 18.703821,24.151396 18.703874,24.639595 C 18.703979,25.418189 19.187578,26.928900 19.514316,27.137918 z M 20.382433,32.139255 C 20.565952,32.359781 21.363590,31.571659 21.467288,31.068870 C 21.614703,30.354427 21.411135,29.015709 21.135617,28.684625 C 20.955089,28.467759 20.196023,28.955959 20.099251,29.425021 C 19.944910,30.173193 20.109958,31.811909 20.382433,32.139255 z M 17.978346,35.338755 C 17.921037,35.667347 18.785794,36.302392 19.153572,36.203128 C 19.676110,36.062292 20.563224,35.111773 20.649290,34.618444 C 20.705653,34.295347 19.924023,33.661547 19.580912,33.754070 C 19.033707,33.901653 18.063467,34.850995 17.978346,35.338755 z M 15.037707,38.611349 C 14.980400,38.939942 15.845157,39.574987 16.212934,39.475722 C 16.735420,39.334883 17.622536,38.384369 17.708600,37.891035 C 17.764963,37.567943 16.983333,36.934140 16.640223,37.026664 C 16.093071,37.174245 15.122829,38.123589 15.037707,38.611349 z "
     style="font-size:12;opacity:0.302675;fill-rule:evenodd;stroke-width:1.25;"
     id="path738" />
  <path
     d="M 11.126801,39.568168 C 10.615755,37.104158 17.078322,33.925774 17.791203,30.309412 C 18.491909,26.754852 14.174966,21.218465 15.367752,18.055330 C 17.204220,13.185224 22.793027,7.8881803 26.879029,6.2095180 C 27.934024,5.7345804 39.650970,11.343503 39.798070,12.489842 C 39.905233,15.471012 31.098069,19.530849 29.296604,24.063272 C 28.338066,26.474866 32.315435,30.672902 31.518008,33.321884 C 29.993006,38.388473 25.589292,44.948028 22.329319,47.209913 C 21.658052,47.745766 11.341781,40.468466 11.126801,39.568168 z M 33.078120,15.458985 C 33.018242,15.786630 33.877804,16.435164 34.246366,16.341690 C 34.769954,16.208991 35.664732,15.272476 35.754732,14.780613 C 35.813720,14.458323 35.037180,13.812355 34.693438,13.899524 C 34.145082,14.038453 33.167177,14.972622 33.078120,15.458985 z M 29.873038,18.225786 C 29.793742,18.545290 30.611425,19.292066 30.984292,19.241992 C 31.514021,19.170954 32.461748,18.342281 32.580878,17.862663 C 32.658966,17.548440 31.923833,16.813979 31.576051,16.860606 C 31.021290,16.934947 29.990909,17.751592 29.873038,18.225786 z M 26.729043,21.823017 C 26.718389,22.160847 27.654780,22.549924 28.001826,22.353073 C 28.494926,22.073453 29.233574,20.900945 29.249582,20.393757 C 29.260130,20.061498 28.405397,19.651232 28.081650,19.834740 C 27.565251,20.127554 26.744943,21.321546 26.729043,21.823017 z M 27.018572,27.895399 C 27.233161,28.051776 27.881754,27.031247 27.900962,26.508661 C 27.928356,25.766211 27.480496,24.335123 27.158326,24.100222 C 26.947305,23.946264 26.319440,24.854404 26.301492,25.341871 C 26.272839,26.119437 26.700022,27.662993 27.018572,27.895399 z M 28.713187,32.282069 C 28.927777,32.438449 29.576370,31.417918 29.595580,30.895336 C 29.622974,30.152884 29.175114,28.721795 28.852941,28.486895 C 28.641922,28.332937 28.014056,29.241077 27.996107,29.728545 C 27.967454,30.506112 28.394638,32.049667 28.713187,32.282069 z M 27.006973,36.390446 C 27.030379,36.727029 27.996580,36.928644 28.320433,36.665665 C 28.780573,36.292206 29.394057,34.986481 29.358949,34.481126 C 29.336016,34.150115 28.448535,33.911402 28.146410,34.156640 C 27.664541,34.547842 26.972337,35.890735 27.006973,36.390446 z M 24.519447,40.000943 C 24.496879,40.337675 25.418418,40.790684 25.771974,40.617952 C 26.274358,40.372646 27.053366,39.252406 27.087321,38.746833 C 27.109519,38.415745 26.270319,37.947048 25.940486,38.108192 C 25.414378,38.365086 24.552980,39.501088 24.519447,40.000943 z M 21.483662,43.445385 C 21.426354,43.773977 22.291111,44.409024 22.658887,44.309757 C 23.181426,44.168920 24.068541,43.218404 24.154607,42.725072 C 24.210970,42.401980 23.429340,41.768181 23.086228,41.860700 C 22.539024,42.008282 21.568783,42.957624 21.483662,43.445385 z M 24.510419,9.4187241 C 24.424982,9.7351091 25.228285,10.511998 25.601939,10.475823 C 26.132876,10.424577 27.095928,9.6311934 27.224082,9.1560762 C 27.308048,8.8449458 26.587295,8.0834100 26.238622,8.1171497 C 25.682600,8.1708893 24.637156,8.9489797 24.510419,9.4187241 z M 21.538871,12.324297 C 21.512577,12.660444 22.429133,13.133172 22.784525,12.968068 C 23.289587,12.733611 24.080716,11.630036 24.120127,11.125268 C 24.145948,10.794696 23.312048,10.308124 22.980431,10.462158 C 22.451542,10.707745 21.577811,11.825248 21.538871,12.324297 z M 18.598181,15.736188 C 18.571887,16.072333 19.488443,16.545062 19.843834,16.379960 C 20.348895,16.145499 21.140025,15.041904 21.179438,14.537137 C 21.205257,14.206563 20.371357,13.719979 20.039740,13.874011 C 19.510852,14.119612 18.637120,15.237140 18.598181,15.736188 z M 17.050035,20.540534 C 17.137570,20.855782 18.106920,20.685397 18.367900,20.310107 C 18.738825,19.776891 19.077004,18.288250 18.945541,17.814860 C 18.859423,17.504816 17.958824,17.609727 17.715317,17.959878 C 17.326917,18.518310 16.919990,20.072495 17.050035,20.540534 z M 18.493851,26.101110 C 18.713897,26.241947 19.324027,25.175958 19.323919,24.652717 C 19.323867,23.909168 18.823685,22.512385 18.493276,22.300951 C 18.276794,22.162457 17.683358,23.114589 17.683411,23.602787 C 17.683516,24.381382 18.167112,25.892092 18.493851,26.101110 z M 19.361966,31.102448 C 19.545489,31.322977 20.343127,30.534851 20.446824,30.032063 C 20.594239,29.317616 20.390672,27.978903 20.115153,27.647817 C 19.934627,27.430955 19.175560,27.919151 19.078788,28.388215 C 18.924446,29.136385 19.089493,30.775101 19.361966,31.102448 z M 16.957880,34.301947 C 16.900573,34.630539 17.765330,35.265589 18.133108,35.166320 C 18.655646,35.025483 19.542760,34.074966 19.628826,33.581637 C 19.685190,33.258540 18.903560,32.624741 18.560447,32.717262 C 18.013243,32.864845 17.043001,33.814187 16.957880,34.301947 z M 14.017217,37.574541 C 13.959910,37.903132 14.824667,38.538182 15.192443,38.438913 C 15.714957,38.298077 16.602069,37.347561 16.688136,36.854230 C 16.744500,36.531135 15.962869,35.897334 15.619758,35.989856 C 15.072579,36.137440 14.102339,37.086783 14.017217,37.574541 z "
     style="font-size:12.000000;fill:#261e2e;fill-rule:evenodd;stroke:#261e2e;stroke-width:0.061297290;"
     id="path737" />
  <path
     d="M 16.460534,39.315823 C 16.503145,38.138471 20.580542,33.799232 21.388044,33.697543 C 22.218375,33.579511 25.668694,33.947475 25.730619,35.211848 C 25.901179,36.369333 21.202477,42.121040 20.303501,42.433210 C 19.434860,42.874123 16.415452,40.417074 16.460534,39.315823 z "
     style="font-size:12.000000;fill:url(#linearGradient828);fill-rule:evenodd;stroke:#261933;stroke-width:0.77234584;"
     id="path648" />
  <path
     d="M 22.077573,30.196065 C 22.738971,30.833605 26.228074,32.038305 26.745208,31.511613 C 27.305057,30.832652 24.984045,27.362480 24.916189,22.493546 C 24.899606,21.279977 20.663565,21.364654 20.165639,22.311871 C 19.908490,22.860335 21.500980,29.533309 22.077573,30.196065 z "
     style="font-size:12.000000;fill:url(#linearGradient827);fill-rule:evenodd;stroke:#261933;stroke-width:0.77234584;"
     id="path649" />
  <path
     d="M 21.140498,17.676298 C 21.216541,18.545730 25.649853,19.786202 26.476616,19.484663 C 27.415213,19.103428 32.727766,14.496008 32.641070,13.517487 C 32.545190,12.276204 28.063439,10.628054 27.056200,10.829007 C 26.035316,11.013100 21.034858,16.613831 21.140498,17.676298 z "
     style="font-size:12.000000;fill:url(#linearGradient826);fill-rule:evenodd;stroke:#261933;stroke-width:0.77535290;"
     id="path650" />
  <path
     d="M 17.663889,38.628651 C 17.663889,38.445584 19.811507,35.458475 21.082772,34.748063 C 21.948264,34.264409 24.074261,34.873502 24.074261,35.046522 C 24.074261,35.221818 22.008405,35.275630 21.082772,35.792862 C 19.871648,36.469625 17.663889,38.793899 17.663889,38.628651 z "
     style="font-size:12;opacity:0.699936;fill:url(#linearGradient825);fill-rule:evenodd;stroke:none;stroke-width:0.0632452pt;"
     id="path656" />
  <path
     d="M 21.148371,24.409242 C 20.966162,24.723465 20.663934,22.915981 20.934673,22.767375 C 21.661095,22.368690 24.104280,22.494133 24.139860,22.767375 C 24.175545,23.041420 22.034121,22.916712 21.148371,24.409242 z "
     style="font-size:12;opacity:0.7;fill:url(#linearGradient824);fill-rule:evenodd;stroke:none;stroke-width:0.0632452pt;"
     id="path657" />
  <path
     d="M 22.797066,16.705472 C 22.816013,16.440515 25.557962,12.591455 27.177478,11.929281 C 28.478237,11.397435 31.575630,12.875399 31.557894,13.123348 C 31.540051,13.372908 28.470786,12.849374 27.070631,13.421882 C 25.550509,14.043439 22.780429,16.938026 22.797066,16.705472 z "
     style="font-size:12;opacity:0.699936;fill:url(#linearGradient823);fill-rule:evenodd;stroke:none;stroke-width:0.0632452pt;"
     id="path658" />
  <path
     d="M 16.043057,19.245880 C 16.006690,17.000929 22.260727,9.9089653 26.192806,7.9024930 C 28.208126,6.8741095 33.848573,9.8334675 33.885308,10.141321 C 33.919787,10.430496 28.393063,8.6798575 26.406503,9.6935563 C 22.445663,11.714700 16.033086,19.541994 16.043057,19.245880 z "
     style="font-size:12;opacity:0.7;fill:url(#linearGradient822);fill-rule:evenodd;stroke:none;stroke-width:0.0632452pt;"
     id="path655" />
  <text
     xml:space="preserve"
     style="fill:black;fill-opacity:1;stroke:none;font-family:helvetica;font-style:normal;font-weight:normal;font-size:12px;stroke-opacity:1;stroke-width:1pt;stroke-linejoin:miter;stroke-linecap:butt;"
     x="30.391439"
     y="44.312998"
     id="text964"
     transform="scale(1.055477,1.371790)"><tspan
       id="tspan965"></tspan></text>
  <ellipse
     cx="286.926392"
     cy="278.069977"
     rx="278.198608"
     ry="278.198578"
     transform="matrix(4.418616e-2,0.000000,0.000000,4.607035e-2,18.95900,17.19287)"
     style="font-size:12;opacity:0.302675;fill-rule:evenodd;stroke-width:13.2536;"
     id="path1023" />
  <ellipse
     cx="286.926392"
     cy="278.069977"
     rx="278.198608"
     ry="278.198578"
     transform="matrix(4.418616e-2,0.000000,0.000000,4.607035e-2,17.88564,15.80727)"
     style="font-size:12;fill:url(#linearGradient566);fill-rule:evenodd;stroke:#261933;stroke-width:21.704071;stroke-opacity:1;stroke-dasharray:none;"
     id="path983" />
  <path
     d="M 21.737565,20.022985 C 22.185361,19.764285 22.677382,20.678770 23.282924,20.766209 C 23.823763,20.844220 25.138804,19.959042 25.845401,20.380113 C 26.313623,20.589232 25.915209,22.427191 25.772642,23.527592 C 25.593160,24.410766 25.020040,25.675787 24.661540,26.770864 C 24.475169,27.250651 23.180087,28.988911 23.127146,29.099308 C 23.074298,29.209607 23.634675,30.682669 23.285921,30.864579 C 22.922410,31.088891 22.473491,28.932832 21.698633,28.326920 C 21.364261,28.117704 20.593242,28.214716 20.322990,28.437367 C 20.001011,28.619422 20.278107,30.527382 20.746198,31.085275 C 21.226054,31.835534 21.948673,32.412674 22.386488,33.181447 C 22.953893,34.177947 23.303538,35.314594 23.762060,36.381142 C 23.762060,36.381142 23.383650,37.742591 23.436592,37.742591 C 23.489533,37.742591 24.238248,39.304850 24.238248,39.304850 C 22.700901,38.087361 21.463303,36.899423 20.428802,35.443311 C 19.699685,34.416962 19.118169,33.008523 18.947329,31.857515 C 18.888897,31.463896 19.595091,31.227716 19.740988,30.809430 C 20.008493,30.112075 18.605711,28.381289 18.549022,27.815873 C 18.479397,27.207028 18.832630,24.771217 19.635158,23.306945 C 20.209748,22.163167 20.880298,20.518157 21.737565,20.022985 z "
     style="font-size:12.000000;opacity:0.50445902;fill:#261933;fill-rule:evenodd;stroke:#000000;stroke-width:0.054630989pt;"
     id="path565" />
  <path
     d="M 30.851966,24.189582 C 30.565945,24.617835 30.259825,25.384408 30.428627,25.789211 C 30.612561,26.230165 31.408173,26.718108 31.910127,26.727095 C 32.431150,26.736474 32.963041,26.127925 33.497416,25.844459 C 33.968310,25.594699 34.422570,25.211925 34.925975,25.127272 C 35.516056,25.028060 36.351913,24.996797 36.777781,25.292867 C 37.092615,25.511755 37.217940,26.237979 37.148179,26.671995 C 37.000274,27.002941 36.505346,27.287873 36.671945,27.499482 C 36.817793,27.628392 37.829945,26.850828 37.994673,26.396199 C 38.129788,26.023390 37.488641,25.491922 37.571426,25.017021 C 37.638329,24.703319 38.737671,24.782648 39.105821,24.851573 C 39.409506,24.928607 39.704382,25.713839 40.005348,25.679010 C 40.281062,25.679010 40.969341,24.751386 41.043925,24.755732 C 41.330979,24.805168 41.539649,25.679010 41.539649,25.679010 C 41.045753,26.157137 40.647339,26.813410 40.058194,27.113339 C 39.130604,27.585650 38.035853,27.870045 36.989451,27.995975 C 35.284615,28.201088 33.263400,27.479259 31.804293,28.106274 C 30.653180,28.601006 29.175615,30.230141 29.158843,31.361072 C 29.140336,32.602204 29.912524,34.711516 31.297231,34.839107 C 32.973536,35.031422 34.725316,35.424989 35.329309,36.230155 C 35.801186,36.859268 35.251256,39.229867 35.327248,40.013686 C 35.355829,40.273557 36.081258,39.813163 36.513267,39.580696 C 37.174789,39.224786 37.974996,38.521961 38.206296,37.760223 C 38.645191,36.315347 38.694568,34.523304 38.523847,32.960847 C 38.377110,31.618013 37.098379,29.187284 37.254061,29.044108 C 37.398173,28.911534 38.530405,31.598084 39.423232,32.133408 C 39.941303,32.443936 41.130130,31.986182 41.486754,31.581671 C 41.729861,31.305875 41.050061,30.252855 41.222190,30.092243 C 41.385182,29.940178 42.420762,31.005946 42.492024,30.643982 C 43.059751,27.895543 42.526127,25.866099 41.598070,23.321455 C 40.838628,21.379204 38.685810,18.705502 36.387146,17.394897 C 36.063454,17.208698 34.660709,18.032774 33.578279,18.754643 C 32.961214,19.076650 32.320020,20.046285 32.636916,20.278949 C 32.916285,20.508779 33.744411,19.733461 34.330460,19.595808 C 35.381033,19.333982 35.869167,19.475935 36.671945,19.886600 C 36.671945,19.886600 37.809755,20.868302 37.306861,21.596676 C 36.987626,22.037579 35.931243,22.038018 35.931243,22.038018 C 35.701957,21.909401 35.462739,21.603319 35.243386,21.651873 C 34.880815,21.732130 34.574739,22.242301 34.185227,22.424259 C 33.393034,22.794089 32.467178,22.869658 31.698458,23.306945 C 31.263781,23.411529 31.030092,23.907581 30.851966,24.189582 z "
     style="font-size:12.000000;opacity:0.49999997;fill:#261933;fill-rule:evenodd;stroke:#000000;stroke-width:0.054630989pt;"
     id="path566" />
  <path
     d="M 21.031390,35.519412 C 20.867789,35.007779 14.671287,23.436685 26.449302,17.506676 C 31.789394,14.792314 39.678753,19.824369 40.556355,22.835903 C 40.691516,23.291509 35.219026,16.787608 27.420461,20.384460 C 17.267042,25.036952 21.174472,35.967011 21.031390,35.519412 z "
     style="font-size:12;opacity:0.7;fill:url(#linearGradient569);fill-rule:evenodd;stroke:none;stroke-width:0.0998909pt;"
     id="path984" />
  <rect
     style="fill:#000000;fill-opacity:0.30000001;fill-rule:evenodd;stroke:none;stroke-width:1.0000000pt;stroke-opacity:1.0000000;"
     id="rect937"
     x="28.226574"
     y="39.395287"
     rx="0.70483023"
     width="30.710464"
     height="12.888113" />
  <rect
     style="fill:#d9cce6;fill-opacity:0.80000001;fill-rule:evenodd;stroke:#261933;stroke-width:1.2500000;stroke-dasharray:none;"
     id="rect862"
     x="26.323563"
     y="37.806450"
     rx="0.69999999"
     width="30.500000"
     height="12.750523" />
  <text
     xml:space="preserve"
     style="fill:black;fill-opacity:1;stroke:none;font-family:helvetica;font-style:normal;font-weight:normal;font-size:12px;stroke-opacity:1;stroke-width:1pt;stroke-linejoin:miter;stroke-linecap:butt;"
     x="32.536951"
     y="45.961130"
     id="text935"><tspan
       id="tspan936"></tspan></text>
  <path
     style="font-size:12.000000;stroke-width:1.0000000pt;font-family:Radio Stars;"
     d="M 53.758658,44.875845 L 48.082658,44.875845 L 48.082658,46.651845 C 48.082658,46.907845 48.002658,47.107845 47.842658,47.251845 C 47.682658,47.387845 47.494658,47.455845 47.278658,47.455845 C 47.054658,47.455845 46.862658,47.387845 46.702658,47.251845 C 46.542658,47.107845 46.462658,46.907845 46.462658,46.651845 L 46.462658,41.467845 C 46.462658,40.923845 46.734658,40.651845 47.278658,40.651845 L 53.758658,40.651845 C 54.014658,40.651845 54.210658,40.731845 54.346658,40.891845 C 54.490658,41.051845 54.562658,41.243845 54.562658,41.467845 C 54.562658,41.691845 54.490658,41.883845 54.346658,42.043845 C 54.210658,42.203845 54.014658,42.283845 53.758658,42.283845 L 48.082658,42.283845 L 48.082658,43.243845 L 53.758658,43.243845 C 54.014658,43.243845 54.210658,43.323845 54.346658,43.483845 C 54.490658,43.643845 54.562658,43.835845 54.562658,44.059845 C 54.562658,44.283845 54.490658,44.475845 54.346658,44.635845 C 54.210658,44.795845 54.014658,44.875845 53.758658,44.875845 z M 45.754658,41.707845 L 44.134658,46.891845 C 43.990658,47.363845 43.734658,47.599845 43.366658,47.599845 C 42.998658,47.599845 42.738658,47.363845 42.586658,46.891845 L 41.734658,44.179845 L 40.894658,46.891845 C 40.742658,47.363845 40.486658,47.599845 40.126658,47.599845 C 39.758658,47.599845 39.502658,47.363845 39.358658,46.891845 L 37.726658,41.707845 C 37.702658,41.611845 37.690658,41.519845 37.690658,41.431845 C 37.690658,41.207845 37.774658,41.023845 37.942658,40.879845 C 38.110658,40.735845 38.306658,40.663845 38.530658,40.663845 C 38.906658,40.663845 39.154658,40.851845 39.274658,41.227845 L 40.126658,43.939845 L 40.966658,41.227845 C 41.110658,40.755845 41.366658,40.519845 41.734658,40.519845 C 42.102658,40.519845 42.362658,40.755845 42.514658,41.227845 L 43.366658,43.939845 L 44.206658,41.227845 C 44.326658,40.851845 44.578658,40.663845 44.962658,40.663845 C 45.178658,40.663845 45.370658,40.735845 45.538658,40.879845 C 45.714658,41.023845 45.802658,41.207845 45.802658,41.431845 C 45.802658,41.519845 45.786658,41.611845 45.754658,41.707845 z M 36.934658,46.651845 C 36.934658,47.195845 36.666658,47.467845 36.130658,47.467845 L 29.650658,47.467845 C 29.394658,47.467845 29.194658,47.387845 29.050658,47.227845 C 28.906658,47.067845 28.834658,46.875845 28.834658,46.651845 C 28.834658,46.427845 28.906658,46.235845 29.050658,46.075845 C 29.194658,45.915845 29.394658,45.835845 29.650658,45.835845 L 35.326658,45.835845 L 35.326658,44.875845 L 29.650658,44.875845 C 29.114658,44.875845 28.846658,44.603845 28.846658,44.059845 L 28.846658,41.467845 C 28.846658,40.923845 29.114658,40.651845 29.650658,40.651845 L 36.130658,40.651845 C 36.386658,40.651845 36.586658,40.731845 36.730658,40.891845 C 36.874658,41.051845 36.946658,41.243845 36.946658,41.467845 C 36.946658,41.691845 36.874658,41.883845 36.730658,42.043845 C 36.586658,42.203845 36.386658,42.283845 36.130658,42.283845 L 30.454658,42.283845 L 30.454658,43.243845 L 36.130658,43.243845 C 36.666658,43.243845 36.934658,43.515845 36.934658,44.059845 L 36.934658,46.651845 z "
     id="path941" />
</svg>
