<?xml version="1.0" encoding="UTF-8" standalone="no"?>
<!DOCTYPE svg PUBLIC "-//W3C//DTD SVG 20010904//EN"
"http://www.w3.org/TR/2001/REC-SVG-20010904/DTD/svg10.dtd">
<!-- Created with Inkscape (http://www.inkscape.org/) -->
<svg
   id="svg1"
   sodipodi:version="0.32"
   inkscape:version="0.38.1"
   width="48pt"
   height="48pt"
   sodipodi:docbase="/root/Desktop/mimes"
   sodipodi:docname="gnome-mime-text-x-java.svg"
   xmlns="http://www.w3.org/2000/svg"
   xmlns:inkscape="http://www.inkscape.org/namespaces/inkscape"
   xmlns:sodipodi="http://sodipodi.sourceforge.net/DTD/sodipodi-0.dtd"
   xmlns:xml="http://www.w3.org/XML/1998/namespace"
   xmlns:xlink="http://www.w3.org/1999/xlink">
  <defs
     id="defs3">
    <linearGradient
       id="linearGradient589">
      <stop
         style="stop-color:#d9cce6;stop-opacity:1;"
         offset="0.00000000"
         id="stop590" />
      <stop
         style="stop-color:#73667f;stop-opacity:1;"
         offset="1.00000000"
         id="stop591" />
    </linearGradient>
    <linearGradient
       id="linearGradient866">
      <stop
         style="stop-color:#ffffff;stop-opacity:1;"
         offset="0.00000000"
         id="stop867" />
      <stop
         style="stop-color:#d9cce6;stop-opacity:1;"
         offset="1.00000000"
         id="stop868" />
    </linearGradient>
    <linearGradient
       id="linearGradient584">
      <stop
         style="stop-color:#ffffff;stop-opacity:1;"
         offset="0.00000000"
         id="stop585" />
      <stop
         style="stop-color:#ffffff;stop-opacity:0;"
         offset="1.00000000"
         id="stop586" />
    </linearGradient>
    <linearGradient
       xlink:href="#linearGradient866"
       id="linearGradient586"
       x1="-0.00000000"
       y1="0.01562500"
       x2="0.99122804"
       y2="0.98437500" />
    <linearGradient
       xlink:href="#linearGradient584"
       id="linearGradient587"
       x1="0.00000000"
       y1="-0.00000000"
       x2="1.00000000"
       y2="1.00000000" />
    <linearGradient
       xlink:href="#linearGradient589"
       id="linearGradient588"
       x1="0.00000000"
       y1="0.00000000"
       x2="1.00000000"
       y2="0.00000000" />
    <linearGradient
       xlink:href="#linearGradient589"
       id="linearGradient593" />
    <linearGradient
       xlink:href="#linearGradient584"
       id="linearGradient597"
       x1="0.00000000"
       y1="0.00000000"
       x2="1.00000000"
       y2="0.00000000" />
  </defs>
  <sodipodi:namedview
     id="base"
     pagecolor="#ffffff"
     bordercolor="#666666"
     borderopacity="1.0"
     inkscape:pageopacity="0.0"
     inkscape:pageshadow="2"
     inkscape:zoom="8.0000000"
     inkscape:cx="52.270350"
     inkscape:cy="8.9753838"
     inkscape:window-width="1018"
     inkscape:window-height="711"
     inkscape:window-x="0"
     inkscape:window-y="30" />
  <path
     d="M 4.4389304 48.086315 C 5.2483181 50.50443 38.765774 61.377487 40.966438 59.55288 C 42.936267 57.902492 57.675565 8.7785888 56.688667 6.8303779 C 55.662821 4.6824777 21.657054 -0.6675724 20.042945 0.80153134 C 18.054709 2.621752 3.5888672 45.311841 4.4389304 48.086315 z "
     style="font-size:12;opacity:0.302675;fill-rule:evenodd;stroke-width:12.5;"
     id="path639" />
  <path
     d="M 4.5541516 46.08493 C 5.3114351 48.34726 36.66955 58.519843 38.728432 56.812781 C 40.571358 55.268717 54.36111 9.3095333 53.437795 7.4867937 C 52.478034 5.477268 20.663028 0.47192513 19.152904 1.8463842 C 17.292759 3.5493405 3.7588508 43.489198 4.5541516 46.08493 z "
     style="font-size:12;fill:url(#linearGradient586);fill-rule:evenodd;stroke:#261933;stroke-width:1.87726;"
     id="path634" />
  <path
     d="M 6.6876568 43.965773 C 6.360392 43.13667 19.363758 4.5872629 20.579427 3.7922731 C 22.09876 2.7554118 46.659814 7.3454032 46.98631 8.172561 C 47.28557 8.9306762 27.823671 5.3906629 23.493845 9.2635774 C 15.189619 16.482895 6.9861475 44.721984 6.6876568 43.965773 z "
     style="font-size:12;opacity:0.699936;fill:url(#linearGradient587);fill-rule:evenodd;stroke:none;stroke-width:0.100121pt;"
     id="path640" />
  <g
     id="g598"
     transform="matrix(1.090160,0.000000,0.000000,1.103622,-78.38120,-32.30409)">
    <path
       style="fill:url(#linearGradient593);fill-rule:evenodd;stroke:#261933;stroke-opacity:1;stroke-width:1pt;stroke-linejoin:miter;stroke-linecap:butt;fill-opacity:0.75;"
       d="M 108.18367 48.459017 C 108.29579 47.911932 108.84287 47.509834 109.24497 47.107736 C 109.6867 46.745268 110.78087 46.600281 111.80255 46.817762 C 112.73434 46.790698 112.94118 47.488569 113.29302 48.041454 C 114.30793 50.164066 113.43801 53.156603 112.71307 56.004152 C 112.25781 57.95278 109.12029 60.988813 105.47531 60.980114 C 105.87741 59.673296 106.2795 58.366477 106.6816 57.059659 C 107.75354 57.170816 109.18794 56.557037 109.24497 56.305726 C 109.59101 55.284049 109.71956 54.697334 109.84812 53.893138 C 110.31111 52.452931 110.48413 50.650258 110.14969 50.877404 C 109.57458 50.637692 109.14445 50.760448 108.64183 51.028191 C 108.39052 51.581075 108.1392 52.13396 107.88789 52.686844 C 107.93815 51.229239 108.13341 49.916622 108.18367 48.459017 z "
       id="path592"
       sodipodi:nodetypes="ccccccccccccc" />
    <path
       style="fill:url(#linearGradient588);fill-rule:evenodd;stroke:#261933;stroke-opacity:1;stroke-width:1pt;stroke-linejoin:miter;stroke-linecap:butt;fill-opacity:0.75;"
       d="M 86.400343 43.938398 C 91.095143 43.186894 95.789944 43.14997 100.24655 43.827628 C 102.56355 44.117462 104.64234 44.566093 105.84777 45.173519 C 107.07373 45.98583 107.7439 46.639345 107.77889 47.372258 C 108.09093 48.99688 108.08538 50.700899 108.00043 52.246123 C 107.43742 56.477576 105.66009 60.470835 104.06491 63.987708 C 103.35976 65.418547 101.87664 66.460407 100.97264 66.938472 C 96.689548 67.494257 93.088999 67.724442 88.726506 67.089259 C 87.016935 66.764438 85.06917 65.725036 84.07418 64.209247 C 81.808824 61.056055 80.258048 57.347079 79.421854 53.796898 C 79.030416 52.019032 79.035967 49.36779 79.200314 48.701494 C 79.451289 47.11741 80.337446 46.327304 81.858787 45.378403 C 83.372639 44.58081 84.727695 44.100809 86.400343 43.938398 z "
       id="path587"
       sodipodi:nodetypes="ccccccccccccc" />
    <path
       sodipodi:type="arc"
       style="font-size:12;fill:#261933;fill-opacity:0.92;fill-rule:evenodd;stroke:#261933;stroke-width:1pt;stroke-opacity:1;"
       id="path586"
       sodipodi:cx="90.49881744"
       sodipodi:cy="46.09840775"
       sodipodi:rx="13.73543930"
       sodipodi:ry="3.60001421"
       d="M 104.234257 46.098408 A 13.735439 3.600014 0 1 0 76.763378,46.098408 A 13.7354 3.60001 0 1 0 104.234 46.0984 L 90.498817 46.098408 z"
       transform="matrix(0.814516,0.000000,0.000000,0.630769,19.99839,18.79327)" />
    <path
       style="fill:url(#linearGradient597);fill-rule:evenodd;stroke:none;stroke-opacity:1;stroke-width:1pt;stroke-linejoin:miter;stroke-linecap:butt;fill-opacity:1;"
       d="M 86.178639 63.977476 C 87.87275 64.60356 88.020063 64.677217 87.835921 63.756505 C 87.651778 60.810227 87.246665 58.084919 85.847183 55.691068 C 85.184271 54.438899 85.736697 53.186732 86.510095 53.260388 C 92.476308 53.113074 98.111063 52.302848 103.74582 50.498253 C 98.405691 51.345308 92.513136 51.860906 86.731066 50.719223 C 85.18427 50.498253 83.306018 50.277281 81.869707 49.061942 C 81.501422 48.840971 81.464594 48.509515 81.096309 48.288544 C 81.133138 47.551974 80.396568 50.129968 80.543882 51.161165 C 80.838509 53.996957 82.017022 56.501295 83.085047 59.226602 C 83.74796 60.883884 84.742328 62.320194 86.178639 63.977476 z "
       id="path596"
       sodipodi:nodetypes="ccccccccccc" />
  </g>
  <rect
     style="fill:#000000;fill-opacity:0.30000001;fill-rule:evenodd;stroke:none;stroke-width:1.0000000pt;stroke-opacity:1.0000000;"
     id="rect937"
     x="18.921923"
     y="39.838369"
     rx="0.92346412"
     width="40.236656"
     height="12.888113" />
  <rect
     style="fill:#d9cce6;fill-opacity:0.80000001;fill-rule:evenodd;stroke:#261933;stroke-width:1.4254594;"
     id="rect862"
     x="17.200329"
     y="38.249528"
     rx="0.91030651"
     width="39.663361"
     height="12.750523" />
  <text
     xml:space="preserve"
     style="fill:black;fill-opacity:1;stroke:none;font-family:helvetica;font-style:normal;font-weight:normal;font-size:12px;stroke-opacity:1;stroke-width:1pt;stroke-linejoin:miter;stroke-linecap:butt;"
     x="32.315414"
     y="43.967276"
     id="text863"><tspan
       id="tspan864"></tspan></text>
  <path
     style="font-size:12.000000;stroke-width:1.0000000pt;font-family:Radio Stars;"
     d="M 51.584500,46.000500 L 48.404500,46.000500 L 47.444500,47.440500 C 47.276500,47.696500 47.052500,47.824500 46.772500,47.824500 C 46.556500,47.824500 46.360500,47.748500 46.184500,47.596500 C 46.016500,47.436500 45.932500,47.244500 45.932500,47.020500 C 45.932500,46.868500 45.980500,46.720500 46.076500,46.576500 L 48.920500,41.980500 C 49.288500,41.388500 49.644500,41.092500 49.988500,41.092500 C 50.228500,41.092500 50.444500,41.184500 50.636500,41.368500 C 50.756500,41.480500 50.908500,41.684500 51.092500,41.980500 L 53.924500,46.576500 C 54.012500,46.720500 54.056500,46.868500 54.056500,47.020500 C 54.056500,47.244500 53.972500,47.432500 53.804500,47.584500 C 53.636500,47.736500 53.440500,47.812500 53.216500,47.812500 C 52.944500,47.812500 52.724500,47.688500 52.556500,47.440500 L 51.584500,46.000500 z M 49.232500,44.572500 L 50.756500,44.572500 L 49.988500,43.348500 L 49.232500,44.572500 z M 45.176500,42.244500 L 41.936500,47.440500 C 41.728500,47.768500 41.496500,47.932500 41.240500,47.932500 C 40.992500,47.932500 40.764500,47.768500 40.556500,47.440500 L 37.328500,42.244500 C 37.232500,42.100500 37.184500,41.956500 37.184500,41.812500 C 37.184500,41.588500 37.272500,41.400500 37.448500,41.248500 C 37.624500,41.088500 37.820500,41.008500 38.036500,41.008500 C 38.316500,41.008500 38.536500,41.136500 38.696500,41.392500 L 41.240500,45.484500 L 43.808500,41.392500 C 43.968500,41.136500 44.184500,41.008500 44.456500,41.008500 C 44.680500,41.008500 44.876500,41.088500 45.044500,41.248500 C 45.220500,41.408500 45.308500,41.596500 45.308500,41.812500 C 45.308500,41.956500 45.264500,42.100500 45.176500,42.244500 z M 34.892500,46.000500 L 31.712500,46.000500 L 30.752500,47.440500 C 30.584500,47.696500 30.360500,47.824500 30.080500,47.824500 C 29.864500,47.824500 29.668500,47.748500 29.492500,47.596500 C 29.324500,47.436500 29.240500,47.244500 29.240500,47.020500 C 29.240500,46.868500 29.288500,46.720500 29.384500,46.576500 L 32.228500,41.980500 C 32.596500,41.388500 32.952500,41.092500 33.296500,41.092500 C 33.536500,41.092500 33.752500,41.184500 33.944500,41.368500 C 34.064500,41.480500 34.216500,41.684500 34.400500,41.980500 L 37.232500,46.576500 C 37.320500,46.720500 37.364500,46.868500 37.364500,47.020500 C 37.364500,47.244500 37.280500,47.432500 37.112500,47.584500 C 36.944500,47.736500 36.748500,47.812500 36.524500,47.812500 C 36.252500,47.812500 36.032500,47.688500 35.864500,47.440500 L 34.892500,46.000500 z M 32.540500,44.572500 L 34.064500,44.572500 L 33.296500,43.348500 L 32.540500,44.572500 z M 27.956500,46.996500 C 27.956500,47.540500 27.688500,47.812500 27.152500,47.812500 L 20.672500,47.812500 C 20.416500,47.812500 20.216500,47.732500 20.072500,47.572500 C 19.928500,47.412500 19.856500,47.220500 19.856500,46.996500 C 19.856500,46.772500 19.928500,46.580500 20.072500,46.420500 C 20.216500,46.260500 20.416500,46.180500 20.672500,46.180500 L 26.348500,46.180500 L 26.348500,41.812500 C 26.348500,41.556500 26.428500,41.360500 26.588500,41.224500 C 26.748500,41.080500 26.936500,41.008500 27.152500,41.008500 C 27.376500,41.008500 27.564500,41.080500 27.716500,41.224500 C 27.876500,41.360500 27.956500,41.556500 27.956500,41.812500 L 27.956500,46.996500 z "
     id="path855" />
</svg>
