<?xml version="1.0" encoding="UTF-8" standalone="no"?>
<!DOCTYPE svg PUBLIC "-//W3C//DTD SVG 20010904//EN"
"http://www.w3.org/TR/2001/REC-SVG-20010904/DTD/svg10.dtd">
<!-- Created with Inkscape (http://www.inkscape.org/) -->
<svg
   id="svg1"
   sodipodi:version="0.32"
   inkscape:version="0.38.1"
   width="48pt"
   height="48pt"
   sodipodi:docbase="/root/Desktop"
   sodipodi:docname="gnome-mime-application-smil.svg"
   xmlns="http://www.w3.org/2000/svg"
   xmlns:inkscape="http://www.inkscape.org/namespaces/inkscape"
   xmlns:sodipodi="http://sodipodi.sourceforge.net/DTD/sodipodi-0.dtd"
   xmlns:xml="http://www.w3.org/XML/1998/namespace"
   xmlns:xlink="http://www.w3.org/1999/xlink">
  <defs
     id="defs3">
    <linearGradient
       id="linearGradient879">
      <stop
         offset="0.0000000"
         style="stop-color:#ffffff;stop-opacity:1.0000000;"
         id="stop881" />
      <stop
         offset="1.0000000"
         style="stop-color:#d9cce6;stop-opacity:1.0000000;"
         id="stop880" />
    </linearGradient>
    <linearGradient
       id="linearGradient578"
       x1="0.0000000"
       y1="0.50000000"
       x2="1.0000000"
       y2="0.50000000"
       gradientUnits="objectBoundingBox"
       spreadMethod="pad"
       xlink:href="#linearGradient879" />
    <linearGradient
       xlink:href="#linearGradient578"
       id="linearGradient655"
       x1="0.00000000"
       y1="-0.00000000"
       x2="0.96923077"
       y2="0.99218750" />
    <linearGradient
       xlink:href="#linearGradient584"
       id="linearGradient581"
       x1="0.01351351"
       y1="0.04687500"
       x2="0.99324322"
       y2="0.96875000" />
    <linearGradient
       xlink:href="#linearGradient584"
       id="linearGradient583" />
    <linearGradient
       xlink:href="#linearGradient584"
       id="linearGradient654" />
    <linearGradient
       xlink:href="#linearGradient584"
       id="linearGradient825"
       x1="0.00000000"
       y1="0.01587302"
       x2="0.99635035"
       y2="0.99206346" />
    <linearGradient
       xlink:href="#linearGradient584"
       id="linearGradient824"
       x1="0.00000000"
       y1="-0.00000000"
       x2="0.98905110"
       y2="0.96551722" />
    <linearGradient
       xlink:href="#linearGradient584"
       id="linearGradient823"
       x1="-0.00000000"
       y1="-0.00000000"
       x2="0.98540145"
       y2="1.00000000" />
    <linearGradient
       xlink:href="#linearGradient584"
       id="linearGradient822"
       x1="-0.00000000"
       y1="-0.00000000"
       x2="0.99270076"
       y2="1.00000000" />
    <linearGradient
       id="linearGradient642">
      <stop
         style="stop-color:#d9cce6;stop-opacity:1;"
         offset="0.00000000"
         id="stop643" />
      <stop
         style="stop-color:#73667f;stop-opacity:1;"
         offset="1.00000000"
         id="stop644" />
    </linearGradient>
    <linearGradient
       id="linearGradient866">
      <stop
         style="stop-color:#ffffff;stop-opacity:1;"
         offset="0.00000000"
         id="stop867" />
      <stop
         style="stop-color:#d9cce6;stop-opacity:1;"
         offset="1.00000000"
         id="stop868" />
    </linearGradient>
    <linearGradient
       id="linearGradient584">
      <stop
         style="stop-color:#ffffff;stop-opacity:1;"
         offset="0.00000000"
         id="stop585" />
      <stop
         style="stop-color:#ffffff;stop-opacity:0;"
         offset="1.00000000"
         id="stop586" />
    </linearGradient>
    <linearGradient
       xlink:href="#linearGradient866"
       id="linearGradient586"
       x1="-0.00000000"
       y1="0.01562500"
       x2="0.99122804"
       y2="0.98437500" />
    <linearGradient
       xlink:href="#linearGradient584"
       id="linearGradient587"
       x1="0.00000000"
       y1="-0.00000000"
       x2="1.00000000"
       y2="1.00000000" />
    <linearGradient
       xlink:href="#linearGradient584"
       id="linearGradient638"
       x1="0.00000000"
       y1="-0.00000000"
       x2="0.99253732"
       y2="1.00000000" />
    <radialGradient
       xlink:href="#linearGradient866"
       id="radialGradient639" />
    <linearGradient
       xlink:href="#linearGradient584"
       id="linearGradient640"
       x1="-0.00000000"
       y1="0.00000000"
       x2="1.00000000"
       y2="0.99218750" />
    <linearGradient
       xlink:href="#linearGradient642"
       id="linearGradient641"
       x1="0.00000000"
       y1="0.00000000"
       x2="0.96666664"
       y2="0.98437500" />
    <linearGradient
       xlink:href="#linearGradient584"
       id="linearGradient645"
       x1="0.01492537"
       y1="0.00781250"
       x2="0.97761196"
       y2="0.97656250" />
    <linearGradient
       xlink:href="#linearGradient866"
       id="linearGradient826"
       x1="-0.0042372900"
       y1="0.0078125000"
       x2="0.98728812"
       y2="0.97656250" />
    <linearGradient
       xlink:href="#linearGradient866"
       id="linearGradient828"
       x1="1.2620113e-16"
       y1="2.3288663e-16"
       x2="0.99583334"
       y2="1.0234375" />
    <linearGradient
       xlink:href="#linearGradient866"
       id="linearGradient827"
       x1="1.3858272e-15"
       y1="-9.9117763e-16"
       x2="0.96666664"
       y2="0.97656250" />
  </defs>
  <sodipodi:namedview
     id="base"
     pagecolor="#ffffff"
     bordercolor="#666666"
     borderopacity="1.0"
     inkscape:pageopacity="0.0"
     inkscape:pageshadow="2"
     inkscape:zoom="7.9794719"
     inkscape:cx="23.661366"
     inkscape:cy="22.124605"
     inkscape:window-width="1274"
     inkscape:window-height="950"
     inkscape:window-x="0"
     inkscape:window-y="25"
     showguides="true"
     snaptoguides="true" />
  <path
     d="M 4.4389304 48.086315 C 5.2483181 50.50443 38.765774 61.377487 40.966438 59.55288 C 42.936267 57.902492 57.675565 8.7785888 56.688667 6.8303779 C 55.662821 4.6824777 21.657054 -0.6675724 20.042945 0.80153134 C 18.054709 2.621752 3.5888672 45.311841 4.4389304 48.086315 z "
     style="font-size:12;opacity:0.302675;fill-rule:evenodd;stroke-width:12.5;"
     id="path639" />
  <path
     d="M 4.5541516 46.08493 C 5.3114351 48.34726 36.66955 58.519843 38.728432 56.812781 C 40.571358 55.268717 54.36111 9.3095333 53.437795 7.4867937 C 52.478034 5.477268 20.663028 0.47192513 19.152904 1.8463842 C 17.292759 3.5493405 3.7588508 43.489198 4.5541516 46.08493 z "
     style="font-size:12;fill:url(#linearGradient586);fill-rule:evenodd;stroke:#261933;stroke-width:1.87726;"
     id="path634" />
  <path
     d="M 6.6876568 43.965773 C 6.360392 43.13667 19.363758 4.5872629 20.579427 3.7922731 C 22.09876 2.7554118 46.659814 7.3454032 46.98631 8.172561 C 47.28557 8.9306762 27.823671 5.3906629 23.493845 9.2635774 C 15.189619 16.482895 6.9861475 44.721984 6.6876568 43.965773 z "
     style="font-size:12;opacity:0.699936;fill:url(#linearGradient587);fill-rule:evenodd;stroke:none;stroke-width:0.100121pt;"
     id="path640" />
  <path
     d="M 13.467455,31.646821 C 12.996692,29.777401 18.949822,27.365995 19.606512,24.622301 C 20.251988,21.925494 16.275346,17.725098 17.374089,15.325263 C 19.065798,11.630365 24.214069,7.6115651 27.977995,6.3379794 C 28.949831,5.9776519 39.743193,10.233068 39.878699,11.102783 C 39.977414,13.364565 31.864469,16.444722 30.205004,19.883421 C 29.322023,21.713072 32.985879,24.898076 32.251309,26.907834 C 30.846514,30.751800 26.789921,35.728464 23.786913,37.444533 C 23.168559,37.851078 13.665487,32.329867 13.467455,31.646821 z M 33.688446,13.355444 C 33.633287,13.604021 34.425093,14.096057 34.764604,14.025138 C 35.246923,13.924462 36.071166,13.213939 36.154077,12.840767 C 36.208412,12.596252 35.493083,12.106158 35.176439,12.172295 C 34.671304,12.277701 33.770483,12.986444 33.688446,13.355444 z M 30.736002,15.454585 C 30.662956,15.696987 31.416185,16.263560 31.759661,16.225569 C 32.247634,16.171671 33.120659,15.542969 33.230397,15.179085 C 33.302330,14.940687 32.625143,14.383460 32.304776,14.418837 C 31.793743,14.475238 30.844581,15.094817 30.736002,15.454585 z M 27.839831,18.183762 C 27.830016,18.440071 28.692598,18.735259 29.012291,18.585914 C 29.466520,18.373769 30.146944,17.484196 30.161690,17.099400 C 30.171406,16.847317 29.384045,16.536054 29.085820,16.675278 C 28.610127,16.897433 27.854479,17.803303 27.839831,18.183762 z M 28.106538,22.790814 C 28.304213,22.909458 28.901681,22.135192 28.919375,21.738715 C 28.944609,21.175423 28.532051,20.089670 28.235275,19.911455 C 28.040890,19.794647 27.462515,20.483646 27.445980,20.853480 C 27.419587,21.443414 27.813096,22.614491 28.106538,22.790814 z M 29.667576,26.118937 C 29.865251,26.237580 30.462723,25.463315 30.480413,25.066836 C 30.505648,24.503546 30.093090,23.417793 29.796315,23.239579 C 29.601927,23.122771 29.023553,23.811769 29.007021,24.181603 C 28.980626,24.771535 29.374136,25.942614 29.667576,26.118937 z M 28.095855,29.235915 C 28.117417,29.491280 29.007455,29.644241 29.305779,29.444722 C 29.729650,29.161383 30.294778,28.170743 30.262437,27.787339 C 30.241310,27.536201 29.423785,27.355094 29.145474,27.541151 C 28.701590,27.837953 28.063949,28.856791 28.095855,29.235915 z M 25.804404,31.975160 C 25.783615,32.230635 26.632516,32.574329 26.958203,32.443282 C 27.420988,32.257169 28.138590,31.407254 28.169868,31.023681 C 28.190316,30.772490 27.417267,30.416896 27.113432,30.539153 C 26.628795,30.734053 25.835295,31.595927 25.804404,31.975160 z M 23.007915,34.588424 C 22.955126,34.837723 23.751719,35.319526 24.090504,35.244212 C 24.571853,35.137363 25.389041,34.416214 25.468325,34.041933 C 25.520245,33.796804 24.800227,33.315944 24.484160,33.386140 C 23.980089,33.498109 23.086327,34.218366 23.007915,34.588424 z M 25.796090,8.7727704 C 25.717385,9.0128085 26.457371,9.6022261 26.801571,9.5747821 C 27.290657,9.5359004 28.177795,8.9339696 28.295850,8.5735033 C 28.373197,8.3374501 27.709258,7.7596829 27.388067,7.7852792 C 26.875875,7.8260517 25.912838,8.4163787 25.796090,8.7727704 z M 23.058770,10.977188 C 23.034552,11.232218 23.878860,11.590870 24.206236,11.465610 C 24.671489,11.287729 25.400256,10.450442 25.436562,10.067480 C 25.460348,9.8166784 24.692181,9.4475501 24.386700,9.5644122 C 23.899502,9.7507379 23.094641,10.598565 23.058770,10.977188 z M 20.349879,13.565752 C 20.325661,13.820780 21.169968,14.179437 21.497345,14.054173 C 21.962598,13.876293 22.691366,13.039005 22.727671,12.656044 C 22.751456,12.405243 21.983287,12.036074 21.677809,12.152938 C 21.190611,12.339273 20.385750,13.187129 20.349879,13.565752 z M 18.923766,17.210755 C 19.004402,17.449935 19.897342,17.320667 20.137751,17.035935 C 20.479438,16.631392 20.790959,15.501975 20.669863,15.142821 C 20.590530,14.907592 19.760919,14.987188 19.536609,15.252841 C 19.178823,15.676519 18.803974,16.855660 18.923766,17.210755 z M 20.253775,21.429507 C 20.456476,21.536359 21.018510,20.727605 21.018412,20.330629 C 21.018365,19.766502 20.557609,18.706782 20.253242,18.546365 C 20.053829,18.441295 19.507167,19.163666 19.507216,19.534057 C 19.507312,20.124768 19.952792,21.270928 20.253775,21.429507 z M 21.053463,25.223969 C 21.222516,25.391281 21.957281,24.793340 22.052804,24.411880 C 22.188600,23.869838 22.001079,22.854168 21.747278,22.602977 C 21.580980,22.438444 20.881747,22.808836 20.792603,23.164709 C 20.650428,23.732338 20.802466,24.975616 21.053463,25.223969 z M 18.838877,27.651396 C 18.786086,27.900694 19.582679,28.382496 19.921466,28.307186 C 20.402815,28.200335 21.220003,27.479188 21.299285,27.104903 C 21.351206,26.859774 20.631188,26.378916 20.315122,26.449112 C 19.811050,26.561082 18.917288,27.281337 18.838877,27.651396 z M 16.130033,30.134276 C 16.077242,30.383577 16.873836,30.865379 17.212622,30.790067 C 17.693924,30.683214 18.511114,29.962070 18.590393,29.587783 C 18.642315,29.342656 17.922295,28.861797 17.606230,28.931994 C 17.102207,29.043962 16.208445,29.764219 16.130033,30.134276 z "
     style="font-size:12;opacity:0.302675;fill-rule:evenodd;stroke-width:1.25;"
     id="path738" />
  <path
     d="M 12.527402,30.860205 C 12.056639,28.990788 18.009797,26.579382 18.666486,23.835686 C 19.311958,21.138880 15.335296,16.938483 16.434061,14.538646 C 18.125770,10.843749 23.274043,6.8249381 27.037968,5.5513550 C 28.009804,5.1910250 38.803167,9.4464542 38.938672,10.316169 C 39.037388,12.577951 30.924444,15.658105 29.264979,19.096807 C 28.381996,20.926456 32.045851,24.111462 31.311281,26.121217 C 29.906487,29.965184 25.849894,34.941848 22.846887,36.657917 C 22.228533,37.064463 12.725435,31.543253 12.527402,30.860205 z M 32.748419,12.568828 C 32.693260,12.817407 33.485068,13.309443 33.824578,13.238525 C 34.306895,13.137848 35.131142,12.427324 35.214048,12.054152 C 35.268386,11.809635 34.553057,11.319546 34.236409,11.385680 C 33.731278,11.491085 32.830456,12.199828 32.748419,12.568828 z M 29.795975,14.667969 C 29.722931,14.910373 30.476160,15.476945 30.819635,15.438953 C 31.307608,15.385056 32.180632,14.756353 32.290371,14.392471 C 32.362305,14.154073 31.685117,13.596846 31.364750,13.632221 C 30.853717,13.688623 29.904554,14.308203 29.795975,14.667969 z M 26.899805,17.397149 C 26.889991,17.653458 27.752571,17.948646 28.072261,17.799298 C 28.526492,17.587152 29.206917,16.697583 29.221663,16.312784 C 29.231379,16.060704 28.444020,15.749439 28.145792,15.888664 C 27.670100,16.110819 26.914451,17.016688 26.899805,17.397149 z M 27.166512,22.004200 C 27.364187,22.122843 27.961654,21.348578 27.979348,20.952097 C 28.004583,20.388808 27.592025,19.303056 27.295249,19.124842 C 27.100862,19.008034 26.522489,19.697030 26.505954,20.066866 C 26.479560,20.656798 26.873071,21.827877 27.166512,22.004200 z M 28.727550,25.332322 C 28.925224,25.450965 29.522692,24.676698 29.540388,24.280220 C 29.565622,23.716930 29.153064,22.631178 28.856287,22.452962 C 28.661901,22.336156 28.083528,23.025152 28.066994,23.394987 C 28.040598,23.984921 28.434110,25.155998 28.727550,25.332322 z M 27.155828,28.449301 C 27.177387,28.704663 28.067429,28.857627 28.365753,28.658109 C 28.789624,28.374768 29.354749,27.384130 29.322409,27.000722 C 29.301284,26.749587 28.483758,26.568479 28.205448,26.754538 C 27.761562,27.051339 27.123921,28.070176 27.155828,28.449301 z M 24.864378,31.188547 C 24.843590,31.444022 25.692489,31.787715 26.018176,31.656667 C 26.480961,31.470554 27.198563,30.620640 27.229842,30.237067 C 27.250290,29.985874 26.477240,29.630279 26.173406,29.752538 C 25.688768,29.947440 24.895269,30.809312 24.864378,31.188547 z M 22.067888,33.801809 C 22.015098,34.051109 22.811691,34.532912 23.150477,34.457599 C 23.631827,34.350747 24.449015,33.629600 24.528297,33.255314 C 24.580217,33.010188 23.860199,32.529331 23.544133,32.599525 C 23.040062,32.711493 22.146300,33.431750 22.067888,33.801809 z M 24.856063,7.9861453 C 24.777360,8.2261832 25.517343,8.8156000 25.861544,8.7881551 C 26.350630,8.7492753 27.237770,8.1473435 27.355822,7.7868772 C 27.433170,7.5508258 26.769229,6.9730568 26.448041,6.9986548 C 25.935848,7.0394264 24.972809,7.6297552 24.856063,7.9861453 z M 22.118746,10.190572 C 22.094524,10.445603 22.938833,10.804256 23.266211,10.678993 C 23.731462,10.501115 24.460231,9.6638440 24.496535,9.2808824 C 24.520322,9.0300805 23.752153,8.6609240 23.446674,8.7777870 C 22.959476,8.9641110 22.154616,9.8119495 22.118746,10.190572 z M 19.409853,12.779138 C 19.385633,13.034167 20.229941,13.392821 20.557319,13.267559 C 21.022569,13.089678 21.751339,12.252392 21.787645,11.869430 C 21.811429,11.618628 21.043261,11.249460 20.737784,11.366323 C 20.250584,11.552658 19.445724,12.400515 19.409853,12.779138 z M 17.983740,16.424142 C 18.064375,16.663318 18.957315,16.534050 19.197725,16.249321 C 19.539412,15.844777 19.850934,14.715360 19.729834,14.356204 C 19.650503,14.120977 18.820893,14.200572 18.596581,14.466228 C 18.238797,14.889903 17.863945,16.069048 17.983740,16.424142 z M 19.313748,20.642893 C 19.516449,20.749744 20.078485,19.940990 20.078386,19.544013 C 20.078339,18.979889 19.617583,17.920166 19.313218,17.759753 C 19.113801,17.654679 18.567141,18.377052 18.567190,18.747442 C 18.567287,19.338153 19.012764,20.484314 19.313748,20.642893 z M 20.113434,24.437354 C 20.282491,24.604668 21.017254,24.006725 21.112778,23.625264 C 21.248574,23.083222 21.061052,22.067555 20.807252,21.816363 C 20.640954,21.651831 19.941722,22.022221 19.852577,22.378096 C 19.710401,22.945723 19.862438,24.189000 20.113434,24.437354 z M 17.898849,26.864781 C 17.846059,27.114081 18.642652,27.595884 18.981440,27.520572 C 19.462789,27.413721 20.279976,26.692573 20.359260,26.318288 C 20.411180,26.073159 19.691161,25.592302 19.375095,25.662497 C 18.871024,25.774466 17.977261,26.494722 17.898849,26.864781 z M 15.189982,29.347662 C 15.137192,29.596961 15.933784,30.078766 16.272572,30.003451 C 16.753898,29.896602 17.571085,29.175454 17.650367,28.801169 C 17.702287,28.556040 16.982270,28.075183 16.666203,28.145378 C 16.162156,28.257349 15.268394,28.977605 15.189982,29.347662 z "
     style="font-size:12.000000;fill:#261e2e;fill-rule:evenodd;stroke:#261e2e;stroke-width:0.051244166;"
     id="path737" />
  <path
     d="M 17.440706,30.668754 C 17.479958,29.775510 21.235957,26.483376 21.979808,26.406226 C 22.744688,26.316676 25.923037,26.595846 25.980081,27.555112 C 26.137197,28.433284 21.808867,32.797042 20.980753,33.033881 C 20.180583,33.368398 17.399177,31.504261 17.440706,30.668754 z "
     style="font-size:12.000000;fill:url(#linearGradient828);fill-rule:evenodd;stroke:#261933;stroke-width:0.64567655;"
     id="path648" />
  <path
     d="M 22.614984,23.749691 C 23.224248,24.233386 26.438325,25.147378 26.914695,24.747784 C 27.430415,24.232662 25.292356,21.599880 25.229848,17.905872 C 25.214572,16.985151 21.312435,17.049395 20.853758,17.768038 C 20.616878,18.184152 22.083842,23.246865 22.614984,23.749691 z "
     style="font-size:12.000000;fill:url(#linearGradient827);fill-rule:evenodd;stroke:#261933;stroke-width:0.64567655;"
     id="path649" />
  <path
     d="M 21.751774,14.251078 C 21.821823,14.910707 25.905682,15.851839 26.667275,15.623065 C 27.531888,15.333826 32.425681,11.838226 32.345819,11.095832 C 32.257496,10.154085 28.129017,8.9036506 27.201174,9.0561121 C 26.260761,9.1957808 21.654460,13.444996 21.751774,14.251078 z "
     style="font-size:12.000000;fill:url(#linearGradient826);fill-rule:evenodd;stroke:#261933;stroke-width:0.64819038;"
     id="path650" />
  <path
     d="M 18.549206,30.147403 C 18.549206,30.008513 20.527540,27.742226 21.698599,27.203244 C 22.495869,26.836301 24.454285,27.298414 24.454285,27.429683 C 24.454285,27.562677 22.551269,27.603503 21.698599,27.995922 C 20.582941,28.509374 18.549206,30.272776 18.549206,30.147403 z "
     style="font-size:12;opacity:0.699936;fill:url(#linearGradient825);fill-rule:evenodd;stroke:none;stroke-width:0.0632452pt;"
     id="path656" />
  <path
     d="M 21.759026,19.359290 C 21.591180,19.597688 21.312774,18.226370 21.562173,18.113623 C 22.231336,17.811147 24.481938,17.906317 24.514712,18.113623 C 24.547586,18.321538 22.574958,18.226925 21.759026,19.359290 z "
     style="font-size:12;opacity:0.7;fill:url(#linearGradient824);fill-rule:evenodd;stroke:none;stroke-width:0.0632452pt;"
     id="path657" />
  <path
     d="M 23.277764,13.514524 C 23.295217,13.313502 25.821034,10.393261 27.312892,9.8908780 C 28.511119,9.4873718 31.364361,10.608687 31.348023,10.796804 C 31.331586,10.986143 28.504255,10.588942 27.214468,11.023298 C 25.814168,11.494866 23.262439,13.690958 23.277764,13.514524 z "
     style="font-size:12;opacity:0.699936;fill:url(#linearGradient823);fill-rule:evenodd;stroke:none;stroke-width:0.0632452pt;"
     id="path658" />
  <path
     d="M 17.056136,15.441903 C 17.022635,13.738683 22.783702,8.3580861 26.405837,6.8357969 C 28.262299,6.0555735 33.458140,8.3008067 33.491980,8.5343718 C 33.523741,8.7537659 28.432658,7.4255753 26.602689,8.1946575 C 22.954060,9.7280774 17.046950,15.666561 17.056136,15.441903 z "
     style="font-size:12;opacity:0.7;fill:url(#linearGradient822);fill-rule:evenodd;stroke:none;stroke-width:0.0632452pt;"
     id="path655" />
  <path
     d="M 35.540888,28.077383 C 35.540888,29.110086 34.707632,29.948190 33.680905,29.948190 C 32.654171,29.948190 31.820868,29.110086 31.820868,28.077383 C 31.820868,27.044681 32.654171,26.206532 33.680905,26.206532 C 34.707632,26.206532 35.540888,27.044681 35.540888,28.077383 z M 45.500992,27.896309 C 45.500992,34.525573 40.151805,39.905834 33.560868,39.905834 C 26.969941,39.905834 21.620788,34.525573 21.620788,27.896309 C 21.620788,21.267047 26.969941,15.886740 33.560868,15.886740 C 40.151805,15.886740 45.500992,21.267047 45.500992,27.896309 z "
     style="font-size:12.000000;opacity:0.30267498;fill-rule:evenodd;stroke-width:12.500000;"
     id="path782" />
  <path
     d="M 34.668053,26.986339 C 34.668053,27.997584 33.852107,28.818277 32.846708,28.818277 C 31.841309,28.818277 31.025319,27.997584 31.025319,26.986339 C 31.025319,25.975093 31.841309,25.154357 32.846708,25.154357 C 33.852107,25.154357 34.668053,25.975093 34.668053,26.986339 z M 44.421217,26.809027 C 44.421217,33.300554 39.183155,38.569029 32.729169,38.569029 C 26.275180,38.569029 21.037166,33.300554 21.037166,26.809027 C 21.037166,20.317501 26.275180,15.049003 32.729169,15.049003 C 39.183155,15.049003 44.421217,20.317501 44.421217,26.809027 z "
     style="font-size:12.000000;fill:url(#linearGradient655);fill-rule:evenodd;stroke:#261933;stroke-width:1.1796834;"
     id="path773" />
  <path
     d="M 23.563571,32.895863 C 21.407878,30.491997 20.039252,20.514391 28.028854,16.821850 C 34.511362,13.851950 40.854113,18.611353 41.307244,19.953902 C 41.440888,20.332372 35.899295,15.619892 29.262724,19.067479 C 19.523945,24.082218 23.828743,33.199844 23.563571,32.895863 z "
     style="font-size:12.000000;opacity:0.69999999;fill:url(#linearGradient581);fill-rule:evenodd;stroke-width:0.077858597pt;"
     id="path774" />
  <path
     d="M 37.176082,27.069846 C 37.176082,29.373837 35.035802,31.324876 32.829517,31.399936 C 30.372712,31.399936 28.318216,29.332083 28.399841,27.028093 C 28.484397,24.640639 30.372712,22.530855 32.829517,22.530855 C 35.120142,22.530855 37.262122,24.683889 37.176082,27.069846 z M 36.019419,27.045384 C 36.019419,28.839527 34.571731,30.295635 32.787960,30.295635 C 31.004191,30.295635 29.556504,28.839527 29.556504,27.045384 C 29.556504,25.251240 31.004191,23.795132 32.787960,23.795132 C 34.571731,23.795132 36.019419,25.251240 36.019419,27.045384 z "
     style="font-size:12.000000;opacity:0.10089196;fill:#3f003f;fill-rule:evenodd;stroke-width:1.0000000pt;"
     id="path779" />
  <path
     d="M 33.806285,24.352473 C 33.804228,24.501505 34.698454,25.087764 34.825686,25.009705 C 36.813346,23.379210 40.709807,20.936657 40.758961,19.278522 C 40.792942,18.106825 34.934040,15.717793 34.747261,16.018569 C 33.942431,17.427902 33.850933,21.697588 33.806285,24.352473 z "
     style="font-size:12.000000;fill:url(#linearGradient583);fill-rule:evenodd;stroke-width:1.0000000pt;"
     id="path780" />
  <path
     d="M 32.226152,29.531711 C 32.212849,29.383351 31.263610,28.893705 31.145164,28.984552 C 29.337166,30.812339 25.715256,33.646179 25.837046,35.299548 C 25.923868,36.467849 31.993889,38.232529 32.148589,37.914133 C 32.803560,36.429352 32.455069,32.175482 32.226152,29.531711 z "
     style="font-size:12.000000;fill:url(#linearGradient654);fill-rule:evenodd;stroke-width:1.0000000pt;"
     id="path781" />
  <path
     style="font-size:12;fill:#000000;fill-rule:evenodd;stroke:none;stroke-width:1.875;stroke-dasharray:none;fill-opacity:1;opacity:0.302675;"
     d="M 26.698814,33.209277 C 26.912354,31.167904 25.898727,30.524938 24.684718,30.395281 C 21.897865,30.137096 18.771511,29.424137 18.650912,31.112719 C 18.195855,33.407656 17.897741,34.891479 17.441270,38.653648 C 17.224141,40.240191 18.046994,44.852124 14.449954,45.171499 C 10.775119,45.498033 8.8217532,42.966261 9.8560722,40.534433 C 11.311286,37.202499 14.987363,39.323895 15.363801,38.077915 C 16.475073,34.292568 16.319892,29.936957 17.218253,26.073912 C 17.253484,25.922415 17.726535,25.769543 18.001883,25.732865 C 18.722791,25.564566 27.468673,26.254459 28.028775,26.604387 C 28.304122,26.567710 28.688124,26.886042 28.798214,26.988261 C 29.723551,27.847440 29.166225,31.457913 28.995936,32.219727 C 28.540880,34.514664 28.223424,35.988549 27.766950,39.750718 C 27.549822,41.337261 28.392020,45.959132 24.794980,46.278506 C 21.120144,46.605040 19.166776,44.073269 20.201095,41.641440 C 21.656312,38.309506 25.313044,40.420964 25.689482,39.174986 C 26.245117,37.282311 26.485274,35.250650 26.698814,33.209277 z "
     id="path702"
     sodipodi:nodetypes="csccccccccccccccc" />
  <path
     style="font-size:12.000000;fill:url(#linearGradient641);fill-rule:evenodd;stroke:#261933;stroke-width:1.0534568;"
     d="M 25.305857,31.741125 C 25.519398,29.699751 24.505771,29.056786 23.291761,28.927129 C 20.504908,28.668944 17.378554,27.955986 17.257955,29.644568 C 16.802898,31.939504 16.504784,33.423328 16.048313,37.185495 C 15.831184,38.772039 16.654037,43.383973 13.056998,43.703348 C 9.3821622,44.029882 7.4287962,41.498110 8.4631152,39.066282 C 9.9183302,35.734347 13.594406,37.855743 13.970844,36.609762 C 15.082116,32.824416 14.926935,28.468806 15.825295,24.605761 C 15.860527,24.454263 16.333578,24.301392 16.608925,24.264714 C 17.329834,24.096414 26.075716,24.786308 26.635818,25.136235 C 26.911165,25.099558 27.295167,25.417891 27.405257,25.520109 C 28.330594,26.379288 27.773268,29.989761 27.602979,30.751575 C 27.147923,33.046512 26.830467,34.520397 26.373994,38.282567 C 26.156865,39.869110 26.999062,44.490980 23.402022,44.810355 C 19.727187,45.136888 17.773819,42.605118 18.808139,40.173289 C 20.263354,36.841354 23.920087,38.952813 24.296526,37.706833 C 24.852161,35.814160 25.092316,33.782498 25.305857,31.741125 z "
     id="path701"
     sodipodi:nodetypes="csccccccccccccccc" />
  <path
     style="fill:url(#linearGradient638);fill-rule:evenodd;stroke:none;stroke-opacity:1;stroke-width:1pt;stroke-linejoin:miter;stroke-linecap:butt;fill-opacity:1;"
     d="M 8.9979302,41.238999 C 8.8906452,41.116005 8.8288362,39.828144 10.111011,38.599829 C 11.639123,37.187136 14.008086,38.681684 14.414701,37.455199 C 15.599489,34.054446 15.775290,28.934878 16.546730,25.151102 C 16.570319,25.035402 22.761044,25.134238 26.253407,25.861727 C 21.607025,25.409853 17.749893,25.620784 17.237266,25.939814 C 16.439953,26.421156 15.853925,34.345842 14.738523,37.713768 C 14.323180,38.940432 12.651353,37.771973 10.581222,39.133255 C 8.9237892,40.197105 9.0924322,41.347337 8.9979302,41.238999 z "
     id="path698"
     sodipodi:nodetypes="cssscssss" />
  <path
     style="fill:url(#linearGradient640);fill-rule:evenodd;stroke:none;stroke-opacity:1;stroke-width:1pt;stroke-linejoin:miter;stroke-linecap:butt;fill-opacity:1;"
     d="M 19.335324,42.256770 C 19.228037,42.133773 19.166230,40.845912 20.448404,39.617598 C 21.976516,38.204906 24.345479,39.699452 24.752094,38.472968 C 25.936882,35.072214 25.443026,33.994712 26.214465,30.210936 C 26.261643,29.979536 26.867052,30.567909 26.749442,30.796075 C 25.650711,32.818314 26.191320,35.363610 25.075916,38.731537 C 24.660572,39.958201 22.988745,38.789742 20.918615,40.151023 C 19.261182,41.214874 19.429825,42.365106 19.335324,42.256770 z "
     id="path700"
     sodipodi:nodetypes="csssssss" />
  <text
     xml:space="preserve"
     style="fill:black;fill-opacity:1;stroke:none;font-family:helvetica;font-style:normal;font-weight:normal;font-size:12px;stroke-opacity:1;stroke-width:1pt;stroke-linejoin:miter;stroke-linecap:butt;"
     x="179.33813"
     y="130.94738"
     id="text863"
     transform="scale(0.352200,0.393796)"><tspan
       id="tspan864"></tspan></text>
  <text
     xml:space="preserve"
     style="fill:black;fill-opacity:1;stroke:none;font-family:helvetica;font-style:normal;font-weight:normal;font-size:12px;stroke-opacity:1;stroke-width:1pt;stroke-linejoin:miter;stroke-linecap:butt;"
     x="110.80639"
     y="95.027778"
     id="text884"
     transform="scale(0.352200,0.393796)"><tspan
       id="tspan885"></tspan></text>
  <text
     xml:space="preserve"
     style="fill:black;fill-opacity:1;stroke:none;font-family:helvetica;font-style:normal;font-weight:normal;font-size:12px;stroke-opacity:1;stroke-width:1pt;stroke-linejoin:miter;stroke-linecap:butt;"
     x="253.95466"
     y="134.97665"
     id="text1030"
     transform="scale(0.352200,0.393796)"><tspan
       id="tspan1031"></tspan></text>
  <rect
     style="fill:#000000;fill-opacity:0.30000001;fill-rule:evenodd;stroke:none;stroke-width:1.0000000pt;stroke-opacity:1.0000000;"
     id="rect937"
     x="28.226574"
     y="39.395287"
     rx="0.70483023"
     width="30.710464"
     height="12.888113" />
  <rect
     style="fill:#d9cce6;fill-opacity:0.80000001;fill-rule:evenodd;stroke:#261933;stroke-width:1.2500000;stroke-dasharray:none;"
     id="rect862"
     x="26.323563"
     y="37.806450"
     rx="0.69999999"
     width="30.500000"
     height="12.750523" />
  <text
     xml:space="preserve"
     style="fill:black;fill-opacity:1;stroke:none;font-family:helvetica;font-style:normal;font-weight:normal;font-size:12px;stroke-opacity:1;stroke-width:1pt;stroke-linejoin:miter;stroke-linecap:butt;"
     x="32.536951"
     y="45.961130"
     id="text1067"><tspan
       id="tspan1068"></tspan></text>
  <path
     style="font-size:12.000000;stroke-width:1.0000000pt;font-family:Radio Stars;"
     d="M 51.106394,46.651842 C 51.106394,46.907842 51.026394,47.107842 50.866394,47.251842 C 50.706394,47.387842 50.518394,47.455842 50.302394,47.455842 C 50.086394,47.455842 49.898394,47.387842 49.738394,47.251842 C 49.578394,47.107842 49.498394,46.907842 49.498394,46.651842 L 49.498394,41.467842 C 49.498394,41.211842 49.578394,41.015842 49.738394,40.879842 C 49.898394,40.735842 50.086394,40.663842 50.302394,40.663842 C 50.518394,40.663842 50.706394,40.735842 50.866394,40.879842 C 51.026394,41.015842 51.106394,41.211842 51.106394,41.467842 L 51.106394,46.651842 z M 48.610394,46.651842 C 48.610394,46.907842 48.530394,47.107842 48.370394,47.251842 C 48.210394,47.387842 48.022394,47.455842 47.806394,47.455842 C 47.590394,47.455842 47.402394,47.387842 47.242394,47.251842 C 47.082394,47.107842 47.002394,46.907842 47.002394,46.651842 L 47.002394,44.287842 L 45.250394,47.083842 C 45.050394,47.411842 44.822394,47.575842 44.566394,47.575842 C 44.318394,47.575842 44.090394,47.411842 43.882394,47.083842 L 42.130394,44.287842 L 42.130394,46.651842 C 42.130394,46.907842 42.050394,47.107842 41.890394,47.251842 C 41.738394,47.387842 41.550394,47.455842 41.326394,47.455842 C 41.110394,47.455842 40.922394,47.387842 40.762394,47.251842 C 40.602394,47.107842 40.522394,46.907842 40.522394,46.651842 L 40.522394,41.467842 C 40.522394,41.179842 40.594394,40.951842 40.738394,40.783842 C 40.882394,40.615842 41.054394,40.531842 41.254394,40.531842 C 41.558394,40.531842 41.814394,40.699842 42.022394,41.035842 L 44.566394,45.127842 L 47.122394,41.035842 C 47.338394,40.699842 47.594394,40.531842 47.890394,40.531842 C 48.090394,40.531842 48.258394,40.615842 48.394394,40.783842 C 48.538394,40.951842 48.610394,41.179842 48.610394,41.467842 L 48.610394,46.651842 z M 39.754394,46.651842 C 39.754394,47.195842 39.486394,47.467842 38.950394,47.467842 L 32.470394,47.467842 C 32.214394,47.467842 32.014394,47.387842 31.870394,47.227842 C 31.726394,47.067842 31.654394,46.875842 31.654394,46.651842 C 31.654394,46.427842 31.726394,46.235842 31.870394,46.075842 C 32.014394,45.915842 32.214394,45.835842 32.470394,45.835842 L 38.146394,45.835842 L 38.146394,44.875842 L 32.470394,44.875842 C 31.934394,44.875842 31.666394,44.603842 31.666394,44.059842 L 31.666394,41.467842 C 31.666394,40.923842 31.934394,40.651842 32.470394,40.651842 L 38.950394,40.651842 C 39.206394,40.651842 39.406394,40.731842 39.550394,40.891842 C 39.694394,41.051842 39.766394,41.243842 39.766394,41.467842 C 39.766394,41.691842 39.694394,41.883842 39.550394,42.043842 C 39.406394,42.203842 39.206394,42.283842 38.950394,42.283842 L 33.274394,42.283842 L 33.274394,43.243842 L 38.950394,43.243842 C 39.486394,43.243842 39.754394,43.515842 39.754394,44.059842 L 39.754394,46.651842 z "
     id="path895" />
</svg>
