<?xml version="1.0" encoding="UTF-8" standalone="no"?>
<!DOCTYPE svg PUBLIC "-//W3C//DTD SVG 20010904//EN"
"http://www.w3.org/TR/2001/REC-SVG-20010904/DTD/svg10.dtd">
<!-- Created with Inkscape (http://www.inkscape.org/) -->
<svg
   id="svg1"
   sodipodi:version="0.32"
   inkscape:version="0.38"
   width="48pt"
   height="48pt"
   sodipodi:docbase="/home/dan/Projects/Lila-icons/scalable/mimetypes"
   sodipodi:docname="gnome-mime-text-x-readme.svg"
   xmlns="http://www.w3.org/2000/svg"
   xmlns:inkscape="http://www.inkscape.org/namespaces/inkscape"
   xmlns:sodipodi="http://sodipodi.sourceforge.net/DTD/sodipodi-0.dtd"
   xmlns:xml="http://www.w3.org/XML/1998/namespace"
   xmlns:xlink="http://www.w3.org/1999/xlink">
  <defs
     id="defs3">
    <linearGradient
       xlink:href="#linearGradient578"
       id="linearGradient861"
       x1="-0.00000000"
       y1="0.00000000"
       x2="0.98905110"
       y2="0.96808511" />
    <linearGradient
       xlink:href="#linearGradient599"
       id="linearGradient862"
       x1="0.00000000"
       y1="0.00000000"
       x2="1.00458717"
       y2="0.95312500" />
    <linearGradient
       id="linearGradient578">
      <stop
         style="stop-color:#d9cce6;stop-opacity:1;"
         offset="0.00000000"
         id="stop579" />
      <stop
         style="stop-color:#73667f;stop-opacity:1;"
         offset="1.00000000"
         id="stop580" />
    </linearGradient>
    <linearGradient
       xlink:href="#linearGradient578"
       id="linearGradient860"
       x1="0.00000000"
       y1="0.00000000"
       x2="1.00000000"
       y2="0.99218750" />
    <linearGradient
       id="linearGradient599">
      <stop
         style="stop-color:#ffffff;stop-opacity:1;"
         offset="0.00000000"
         id="stop600" />
      <stop
         style="stop-color:#d9cce6;stop-opacity:1;"
         offset="1.00000000"
         id="stop601" />
    </linearGradient>
    <linearGradient
       id="linearGradient812">
      <stop
         style="stop-color:#f50000;stop-opacity:1;"
         offset="0.00000000"
         id="stop813" />
      <stop
         style="stop-color:#a80000;stop-opacity:1;"
         offset="1.00000000"
         id="stop814" />
    </linearGradient>
    <linearGradient
       xlink:href="#linearGradient584"
       id="linearGradient581"
       x1="-0.00000000"
       y1="-0.00000000"
       x2="0.99270076"
       y2="1.00000000" />
    <linearGradient
       xlink:href="#linearGradient584"
       id="linearGradient583"
       x1="0.00000000"
       y1="-0.00000000"
       x2="0.99635035"
       y2="0.97297299" />
    <linearGradient
       id="linearGradient866">
      <stop
         style="stop-color:#ffffff;stop-opacity:1;"
         offset="0.00000000"
         id="stop867" />
      <stop
         style="stop-color:#d9cce6;stop-opacity:1;"
         offset="1.00000000"
         id="stop868" />
    </linearGradient>
    <linearGradient
       id="linearGradient584">
      <stop
         style="stop-color:#ffffff;stop-opacity:1;"
         offset="0.00000000"
         id="stop585" />
      <stop
         style="stop-color:#ffffff;stop-opacity:0;"
         offset="1.00000000"
         id="stop586" />
    </linearGradient>
    <linearGradient
       xlink:href="#linearGradient866"
       id="linearGradient586"
       x1="-0.00000000"
       y1="0.01562500"
       x2="0.99122804"
       y2="0.98437500" />
    <linearGradient
       xlink:href="#linearGradient584"
       id="linearGradient587"
       x1="0.00000000"
       y1="-0.00000000"
       x2="1.00000000"
       y2="1.00000000" />
    <linearGradient
       xlink:href="#linearGradient584"
       id="linearGradient809"
       x1="-7.0993558e-16"
       y1="0.019480519"
       x2="0.93442625"
       y2="0.97402596" />
    <linearGradient
       xlink:href="#linearGradient584"
       id="linearGradient811"
       x1="-0.12121212"
       y1="-0.058441557"
       x2="0.49494949"
       y2="0.64285713" />
  </defs>
  <sodipodi:namedview
     id="base"
     pagecolor="#ffffff"
     bordercolor="#666666"
     borderopacity="1.0"
     inkscape:pageopacity="0.0"
     inkscape:pageshadow="2"
     inkscape:zoom="2.8211694"
     inkscape:cx="24.781338"
     inkscape:cy="31.584035"
     inkscape:window-width="640"
     inkscape:window-height="516"
     inkscape:window-x="108"
     inkscape:window-y="345" />
  <path
     d="M 4.4389304 48.086315 C 5.2483181 50.50443 38.765774 61.377487 40.966438 59.55288 C 42.936267 57.902492 57.675565 8.7785888 56.688667 6.8303779 C 55.662821 4.6824777 21.657054 -0.6675724 20.042945 0.80153134 C 18.054709 2.621752 3.5888672 45.311841 4.4389304 48.086315 z "
     style="font-size:12;opacity:0.302675;fill-rule:evenodd;stroke-width:12.5;"
     id="path639" />
  <path
     d="M 4.5541516 46.08493 C 5.3114351 48.34726 36.66955 58.519843 38.728432 56.812781 C 40.571358 55.268717 54.36111 9.3095333 53.437795 7.4867937 C 52.478034 5.477268 20.663028 0.47192513 19.152904 1.8463842 C 17.292759 3.5493405 3.7588508 43.489198 4.5541516 46.08493 z "
     style="font-size:12;fill:url(#linearGradient586);fill-rule:evenodd;stroke:#261933;stroke-width:1.87726;"
     id="path634" />
  <path
     d="M 38.005775,23.335968 C 38.124420,22.018157 35.949121,9.7177423 35.299871,10.189720 C 34.411395,10.840435 27.327706,32.014061 26.851675,33.313805 C 26.466557,34.213622 29.123958,47.416751 29.664191,46.788886 C 30.312567,46.082166 37.931833,24.189653 38.005775,23.335968 z "
     style="font-size:12.000000;fill:url(#linearGradient861);fill-rule:evenodd;stroke:#000000;stroke-width:1.2500000;stroke-dasharray:none;"
     id="path567" />
  <path
     d="M 36.123017,25.657943 C 36.620411,24.687518 35.183380,14.486395 34.715132,13.770820 C 34.506197,13.398543 33.689649,14.227193 33.253849,14.159077 C 32.895915,14.103151 32.685176,13.424556 32.333928,13.398616 C 31.883610,13.365780 31.280975,14.033352 30.849153,13.983134 C 30.516743,13.944347 30.336714,13.123170 30.041389,13.131827 C 29.694230,13.142183 29.237343,14.063427 28.921953,14.040169 C 28.636272,14.019229 28.514601,13.020278 28.237677,12.999936 C 27.946949,12.978828 27.288749,13.492941 27.218740,13.915750 C 26.993039,14.693055 27.281786,24.653458 27.683547,25.238513 C 28.050513,25.796455 35.794787,26.346852 36.123017,25.657943 z "
     style="font-size:12.000000;fill:url(#linearGradient862);fill-rule:evenodd;stroke:#000000;stroke-width:0.87500000;stroke-dasharray:none;"
     id="path569" />
  <path
     d="M 21.266672,46.263713 C 21.759027,46.809790 27.573802,47.124521 28.595087,47.156286 C 29.042609,47.172012 29.716747,47.089727 29.889900,46.706368 C 30.345088,45.770999 37.748932,24.383417 37.985451,23.235471 C 38.036312,22.780949 37.206407,24.244882 36.679433,24.229146 C 35.521639,24.199611 29.487369,23.413038 28.673250,23.138389 C 28.225182,22.950842 28.209199,22.270974 28.076991,21.807540 C 27.898892,21.044580 26.734595,9.7890143 26.031236,10.403085 C 25.201150,11.040530 19.392990,31.893192 19.286264,33.047475 C 19.185968,34.163011 20.668541,45.600807 21.266672,46.263713 z "
     style="font-size:12.000000;fill:url(#linearGradient860);fill-rule:evenodd;stroke:#261933;stroke-width:1.2500000;stroke-dasharray:none;"
     id="path562" />
  <g
     transform="matrix(8.992085e-3,-7.517110e-2,8.191890e-2,5.992429e-3,-2.966396,51.21307)"
     style="font-size:12;opacity:0.800828;fill:#261933;fill-opacity:1;"
     id="g577">
    <path
       d="M 413.504 351.895 C 445.005 344.928 481.657 338.879 512.552 335.547 C 514.352 335.353 513.427 340.911 511.591 341.317 C 480.09 348.284 443.437 354.333 412.542 357.665 C 410.742 357.859 411.668 352.301 413.504 351.895 z "
       style="fill-rule:evenodd;stroke-width:1pt;fill:#261933;fill-opacity:1;"
       id="path574" />
    <path
       d="M 410.809 380.354 C 442.076 372.404 478.521 365.211 509.296 360.913 C 511.089 360.663 510.339 366.247 508.516 366.71 C 477.249 374.66 440.803 381.853 410.028 386.151 C 408.235 386.401 408.986 380.817 410.809 380.354 z "
       style="fill-rule:evenodd;stroke-width:1pt;fill:#261933;fill-opacity:1;"
       id="path575" />
    <path
       d="M 409.946 406.99 C 441.101 398.611 477.443 390.915 508.157 386.194 C 509.946 385.919 509.273 391.513 507.457 392.002 C 476.302 400.382 439.959 408.077 409.245 412.798 C 407.456 413.073 408.13 407.479 409.946 406.99 z "
       style="fill-rule:evenodd;stroke-width:1pt;fill:#261933;fill-opacity:1;"
       id="path576" />
  </g>
  <path
     style="fill:url(#linearGradient809);fill-rule:evenodd;stroke:none;stroke-opacity:1;stroke-width:1pt;stroke-linejoin:miter;stroke-linecap:butt;fill-opacity:1;"
     d="M 20.381619,32.750661 C 20.400081,32.178351 25.161681,15.333521 25.698564,15.802901 C 26.313773,16.272281 27.235357,23.212727 26.903591,23.667548 C 26.571825,24.200695 27.013818,19.424770 25.587794,19.236761 C 24.083444,18.970426 20.363157,33.322971 20.381619,32.750661 z "
     id="path1337"
     sodipodi:nodetypes="czzzz" />
  <path
     style="fill:url(#linearGradient811);fill-rule:evenodd;stroke:none;stroke-opacity:1;stroke-width:1pt;stroke-linejoin:miter;stroke-linecap:butt;fill-opacity:1.0000000;"
     d="M 22.676526,44.831636 C 22.467657,44.440006 26.671151,25.850639 27.689389,25.093488 C 28.707627,24.492989 35.156466,25.798421 35.365335,26.190051 C 35.574204,26.581681 31.997317,25.432900 28.942604,27.443267 C 26.044543,29.453634 22.885395,45.223266 22.676526,44.831636 z "
     id="path1338"
     sodipodi:nodetypes="czzzz" />
  <path
     d="M 6.6876568 43.965773 C 6.360392 43.13667 19.363758 4.5872629 20.579427 3.7922731 C 22.09876 2.7554118 46.659814 7.3454032 46.98631 8.172561 C 47.28557 8.9306762 27.823671 5.3906629 23.493845 9.2635774 C 15.189619 16.482895 6.9861475 44.721984 6.6876568 43.965773 z "
     style="font-size:12;opacity:0.699936;fill:url(#linearGradient587);fill-rule:evenodd;stroke:none;stroke-width:0.100121pt;"
     id="path640" />
  <path
     transform="matrix(9.543670e-2,-0.317785,0.317785,9.543670e-2,0.000000,0.000000)"
     style="font-size:12.000000;fill:#261933;stroke-width:1.0000000pt;font-family:Radio Stars;"
     d="M -52.812287,118.37558 L -59.292287,118.37558 C -59.828287,118.37558 -60.096287,118.10358 -60.096287,117.55958 L -60.096287,112.37558 C -60.096287,111.83158 -59.828287,111.55958 -59.292287,111.55958 L -52.812287,111.55958 C -52.556287,111.55958 -52.356287,111.63958 -52.212287,111.79958 C -52.068287,111.95958 -51.996287,112.15158 -51.996287,112.37558 C -51.996287,112.59958 -52.068287,112.79158 -52.212287,112.95158 C -52.356287,113.11158 -52.556287,113.19158 -52.812287,113.19158 L -58.488287,113.19158 L -58.488287,114.15158 L -52.812287,114.15158 C -52.556287,114.15158 -52.356287,114.23158 -52.212287,114.39158 C -52.068287,114.55158 -51.996287,114.74358 -51.996287,114.96758 C -51.996287,115.19158 -52.068287,115.38358 -52.212287,115.54358 C -52.356287,115.70358 -52.556287,115.78358 -52.812287,115.78358 L -58.488287,115.78358 L -58.488287,116.74358 L -52.812287,116.74358 C -52.556287,116.74358 -52.356287,116.82358 -52.212287,116.98358 C -52.068287,117.14358 -51.996287,117.33558 -51.996287,117.55958 C -51.996287,117.78358 -52.068287,117.97558 -52.212287,118.13558 C -52.356287,118.29558 -52.556287,118.37558 -52.812287,118.37558 z M -61.512287,117.55958 C -61.512287,117.81558 -61.592287,118.01558 -61.752287,118.15958 C -61.912287,118.29558 -62.104287,118.36358 -62.328287,118.36358 C -62.544287,118.36358 -62.732287,118.29558 -62.892287,118.15958 C -63.052287,118.01558 -63.132287,117.81558 -63.132287,117.55958 L -63.132287,115.19558 L -64.872287,117.99158 C -65.080287,118.31958 -65.312287,118.48358 -65.568287,118.48358 C -65.816287,118.48358 -66.044287,118.31958 -66.252287,117.99158 L -67.992287,115.19558 L -67.992287,117.55958 C -67.992287,117.81558 -68.072287,118.01558 -68.232287,118.15958 C -68.392287,118.29558 -68.584287,118.36358 -68.808287,118.36358 C -69.024287,118.36358 -69.212287,118.29558 -69.372287,118.15958 C -69.532287,118.01558 -69.612287,117.81558 -69.612287,117.55958 L -69.612287,112.37558 C -69.612287,112.08758 -69.540287,111.85958 -69.396287,111.69158 C -69.252287,111.52358 -69.080287,111.43958 -68.880287,111.43958 C -68.576287,111.43958 -68.320287,111.60758 -68.112287,111.94358 L -65.568287,116.03558 L -63.000287,111.94358 C -62.792287,111.60758 -62.540287,111.43958 -62.244287,111.43958 C -62.044287,111.43958 -61.872287,111.52358 -61.728287,111.69158 C -61.584287,111.85958 -61.512287,112.08758 -61.512287,112.37558 L -61.512287,117.55958 z M -70.752287,117.55958 C -70.752287,118.10358 -71.024287,118.37558 -71.568287,118.37558 L -78.852287,118.37558 L -78.852287,111.55958 L -77.232287,111.55958 C -75.296287,111.55958 -73.740287,112.08358 -72.564287,113.13158 C -71.356287,114.21158 -70.752287,115.68758 -70.752287,117.55958 z M -72.372287,116.74358 C -72.388287,116.26358 -72.556287,115.77558 -72.876287,115.27958 C -73.156287,114.85558 -73.512287,114.47558 -73.944287,114.13958 C -74.784287,113.50758 -75.684287,113.19158 -76.644287,113.19158 L -77.232287,113.19158 L -77.232287,116.74358 L -72.372287,116.74358 z M -82.464287,116.56358 L -85.656287,116.56358 L -86.604287,118.00358 C -86.772287,118.25958 -86.996287,118.38758 -87.276287,118.38758 C -87.500287,118.38758 -87.696287,118.31158 -87.864287,118.15958 C -88.032287,117.99958 -88.116287,117.80758 -88.116287,117.58358 C -88.116287,117.43158 -88.072287,117.28358 -87.984287,117.13958 L -85.140287,112.54358 C -84.772287,111.95158 -84.412287,111.65558 -84.060287,111.65558 C -83.820287,111.65558 -83.604287,111.74758 -83.412287,111.93158 C -83.292287,112.04358 -83.140287,112.24758 -82.956287,112.54358 L -80.124287,117.13958 C -80.036287,117.28358 -79.992287,117.43158 -79.992287,117.58358 C -79.992287,117.80758 -80.080287,117.99558 -80.256287,118.14758 C -80.424287,118.29958 -80.616287,118.37558 -80.832287,118.37558 C -81.112287,118.37558 -81.336287,118.25158 -81.504287,118.00358 L -82.464287,116.56358 z M -84.828287,115.13558 L -83.304287,115.13558 L -84.060287,113.91158 L -84.828287,115.13558 z M -90.048287,118.37558 L -96.528287,118.37558 C -97.064287,118.37558 -97.332287,118.10358 -97.332287,117.55958 L -97.332287,112.37558 C -97.332287,111.83158 -97.064287,111.55958 -96.528287,111.55958 L -90.048287,111.55958 C -89.792287,111.55958 -89.592287,111.63958 -89.448287,111.79958 C -89.304287,111.95958 -89.232287,112.15158 -89.232287,112.37558 C -89.232287,112.59958 -89.304287,112.79158 -89.448287,112.95158 C -89.592287,113.11158 -89.792287,113.19158 -90.048287,113.19158 L -95.724287,113.19158 L -95.724287,114.15158 L -90.048287,114.15158 C -89.792287,114.15158 -89.592287,114.23158 -89.448287,114.39158 C -89.304287,114.55158 -89.232287,114.74358 -89.232287,114.96758 C -89.232287,115.19158 -89.304287,115.38358 -89.448287,115.54358 C -89.592287,115.70358 -89.792287,115.78358 -90.048287,115.78358 L -95.724287,115.78358 L -95.724287,116.74358 L -90.048287,116.74358 C -89.792287,116.74358 -89.592287,116.82358 -89.448287,116.98358 C -89.304287,117.14358 -89.232287,117.33558 -89.232287,117.55958 C -89.232287,117.78358 -89.304287,117.97558 -89.448287,118.13558 C -89.592287,118.29558 -89.792287,118.37558 -90.048287,118.37558 z M -98.736287,114.96758 C -98.736287,115.51158 -99.004287,115.78358 -99.540287,115.78358 L -101.80829,115.78358 C -101.35229,115.96758 -100.49629,116.31158 -99.240287,116.81558 C -98.896287,116.95158 -98.724287,117.19158 -98.724287,117.53558 C -98.724287,117.75158 -98.800287,117.94758 -98.952287,118.12358 C -99.096287,118.29158 -99.280287,118.37558 -99.504287,118.37558 C -99.616287,118.37558 -99.728287,118.35158 -99.840287,118.30358 L -105.21629,116.14358 L -105.21629,117.55958 C -105.21629,117.81558 -105.29629,118.01558 -105.45629,118.15958 C -105.61629,118.29558 -105.80429,118.36358 -106.02029,118.36358 C -106.23629,118.36358 -106.42429,118.29558 -106.58429,118.15958 C -106.74429,118.01558 -106.82429,117.81558 -106.82429,117.55958 L -106.82429,112.37558 C -106.82429,111.83158 -106.55629,111.55958 -106.02029,111.55958 L -99.540287,111.55958 C -99.004287,111.55958 -98.736287,111.83158 -98.736287,112.37558 L -98.736287,114.96758 z M -100.34429,114.15158 L -100.34429,113.19158 L -105.21629,113.19158 L -105.21629,114.15158 L -100.34429,114.15158 z "
     id="path864" />
</svg>
