<?xml version="1.0" encoding="UTF-8" standalone="no"?>
<!DOCTYPE svg PUBLIC "-//W3C//DTD SVG 20010904//EN"
"http://www.w3.org/TR/2001/REC-SVG-20010904/DTD/svg10.dtd">
<!-- Created with Inkscape (http://www.inkscape.org/) -->
<svg
   id="svg1"
   sodipodi:version="0.32"
   inkscape:version="0.38.1"
   width="48pt"
   height="48pt"
   sodipodi:docbase="/root/Desktop/mimes"
   sodipodi:docname="gnome-mime-application-vnd.ms-excel.svg"
   xmlns="http://www.w3.org/2000/svg"
   xmlns:inkscape="http://www.inkscape.org/namespaces/inkscape"
   xmlns:sodipodi="http://sodipodi.sourceforge.net/DTD/sodipodi-0.dtd"
   xmlns:xml="http://www.w3.org/XML/1998/namespace"
   xmlns:xlink="http://www.w3.org/1999/xlink">
  <defs
     id="defs3">
    <linearGradient
       id="linearGradient958">
      <stop
         style="stop-color:#f50000;stop-opacity:1.0000000;"
         offset="0.0000000"
         id="stop959" />
      <stop
         style="stop-color:#a80000;stop-opacity:1.0000000;"
         offset="1.0000000"
         id="stop960" />
    </linearGradient>
    <linearGradient
       xlink:href="#linearGradient958"
       id="linearGradient961"
       x1="0.0071428572"
       y1="0.023437500"
       x2="0.98571426"
       y2="0.99218750" />
    <linearGradient
       id="linearGradient1059">
      <stop
         style="stop-color:#0000ff;stop-opacity:1.0000000;"
         offset="0.0000000"
         id="stop1060" />
      <stop
         style="stop-color:#00007f;stop-opacity:1.0000000;"
         offset="1.0000000"
         id="stop1061" />
    </linearGradient>
    <linearGradient
       xlink:href="#linearGradient1059"
       id="linearGradient1062"
       x1="0.0071428572"
       y1="0.023437500"
       x2="1.9600000"
       y2="1.9687500" />
    <linearGradient
       xlink:href="#linearGradient964"
       id="linearGradient963"
       x1="-0.0064935065"
       y1="0.031250000"
       x2="0.55844158"
       y2="0.50781250" />
    <linearGradient
       id="linearGradient1065">
      <stop
         style="stop-color:#00ff00;stop-opacity:1.0000000;"
         offset="0.0000000"
         id="stop1066" />
      <stop
         style="stop-color:#008700;stop-opacity:1.0000000;"
         offset="1.0000000"
         id="stop1067" />
    </linearGradient>
    <linearGradient
       xlink:href="#linearGradient1065"
       id="linearGradient1064"
       x1="0.0071428572"
       y1="0.023437500"
       x2="0.98571426"
       y2="0.99218750" />
    <linearGradient
       id="linearGradient1107">
      <stop
         style="stop-color:#d7a600;stop-opacity:1.0000000;"
         offset="0.0000000"
         id="stop1108" />
      <stop
         style="stop-color:#fff300;stop-opacity:1.0000000;"
         offset="1.0000000"
         id="stop1109" />
    </linearGradient>
    <linearGradient
       xlink:href="#linearGradient1107"
       id="linearGradient1110"
       x1="0.0071428572"
       y1="0.023437500"
       x2="0.98571426"
       y2="0.99218750" />
    <linearGradient
       xlink:href="#linearGradient964"
       id="linearGradient862"
       x1="-0.11538462"
       y1="-1.8333859e-16"
       x2="0.39743590"
       y2="0.54687500" />
    <linearGradient
       xlink:href="#linearGradient964"
       id="linearGradient1071"
       x1="0.98305082"
       y1="0.99218750"
       x2="0.65254235"
       y2="0.63281250" />
    <linearGradient
       id="linearGradient964">
      <stop
         style="stop-color:#ffffff;stop-opacity:1.0000000;"
         offset="0.0000000"
         id="stop965" />
      <stop
         style="stop-color:#ffffff;stop-opacity:0.0000000;"
         offset="1.0000000"
         id="stop966" />
    </linearGradient>
    <linearGradient
       xlink:href="#linearGradient964"
       id="linearGradient868"
       x1="1.0897436"
       y1="1.0625000"
       x2="0.55128205"
       y2="0.45312500" />
    <linearGradient
       id="linearGradient703">
      <stop
         style="stop-color:#d9cce6;stop-opacity:1;"
         offset="0.00000000"
         id="stop704" />
      <stop
         style="stop-color:#73667f;stop-opacity:1;"
         offset="1.00000000"
         id="stop705" />
    </linearGradient>
    <linearGradient
       id="linearGradient866">
      <stop
         style="stop-color:#ffffff;stop-opacity:1;"
         offset="0.00000000"
         id="stop867" />
      <stop
         style="stop-color:#d9cce6;stop-opacity:1;"
         offset="1.00000000"
         id="stop868" />
    </linearGradient>
    <linearGradient
       id="linearGradient584">
      <stop
         style="stop-color:#ffffff;stop-opacity:1;"
         offset="0.00000000"
         id="stop585" />
      <stop
         style="stop-color:#ffffff;stop-opacity:0;"
         offset="1.00000000"
         id="stop586" />
    </linearGradient>
    <linearGradient
       xlink:href="#linearGradient866"
       id="linearGradient586"
       x1="-0.00000000"
       y1="0.01562500"
       x2="0.99122804"
       y2="0.98437500" />
    <linearGradient
       xlink:href="#linearGradient584"
       id="linearGradient587"
       x1="0.00000000"
       y1="-0.00000000"
       x2="1.00000000"
       y2="1.00000000" />
    <linearGradient
       xlink:href="#linearGradient584"
       id="linearGradient700"
       x1="0.00000000"
       y1="-0.00000000"
       x2="0.98453611"
       y2="0.99218750" />
    <linearGradient
       xlink:href="#linearGradient584"
       id="linearGradient701"
       x1="0.00367647"
       y1="0.01562500"
       x2="1.01102936"
       y2="1.01562500" />
    <linearGradient
       xlink:href="#linearGradient703"
       id="linearGradient702"
       x1="-0.00000000"
       y1="0.00000000"
       x2="0.97457629"
       y2="0.96093750" />
    <linearGradient
       xlink:href="#linearGradient584"
       id="linearGradient845"
       x1="-0.00000000"
       y1="-0.00000000"
       x2="0.99635035"
       y2="0.97727275" />
    <radialGradient
       xlink:href="#linearGradient703"
       id="radialGradient846" />
    <linearGradient
       xlink:href="#linearGradient584"
       id="linearGradient847"
       x1="0.00000000"
       y1="-0.00000000"
       x2="0.98540145"
       y2="0.93902439" />
    <linearGradient
       xlink:href="#linearGradient703"
       id="linearGradient848"
       x1="0.01219511"
       y1="0.01562503"
       x2="0.99999994"
       y2="1.00000012" />
    <linearGradient
       xlink:href="#linearGradient584"
       id="linearGradient849"
       x1="0.00000000"
       y1="-0.00000000"
       x2="0.98514849"
       y2="1.02343750" />
    <linearGradient
       xlink:href="#linearGradient703"
       id="linearGradient850"
       x1="-0.00000000"
       y1="0.00000000"
       x2="1.00000000"
       y2="0.95652175" />
    <linearGradient
       xlink:href="#linearGradient584"
       id="linearGradient863"
       x1="-0.00000000"
       y1="-0.00000000"
       x2="0.99635035"
       y2="0.82142860" />
  </defs>
  <sodipodi:namedview
     id="base"
     pagecolor="#ffffff"
     bordercolor="#666666"
     borderopacity="1.0"
     inkscape:pageopacity="0.0"
     inkscape:pageshadow="2"
     inkscape:zoom="5.6423387"
     inkscape:cx="28.531705"
     inkscape:cy="26.519552"
     inkscape:window-width="640"
     inkscape:window-height="516"
     inkscape:window-x="104"
     inkscape:window-y="95" />
  <path
     d="M 4.4389304 48.086315 C 5.2483181 50.50443 38.765774 61.377487 40.966438 59.55288 C 42.936267 57.902492 57.675565 8.7785888 56.688667 6.8303779 C 55.662821 4.6824777 21.657054 -0.6675724 20.042945 0.80153134 C 18.054709 2.621752 3.5888672 45.311841 4.4389304 48.086315 z "
     style="font-size:12;opacity:0.302675;fill-rule:evenodd;stroke-width:12.5;"
     id="path639" />
  <path
     d="M 4.5541516 46.08493 C 5.3114351 48.34726 36.66955 58.519843 38.728432 56.812781 C 40.571358 55.268717 54.36111 9.3095333 53.437795 7.4867937 C 52.478034 5.477268 20.663028 0.47192513 19.152904 1.8463842 C 17.292759 3.5493405 3.7588508 43.489198 4.5541516 46.08493 z "
     style="font-size:12;fill:url(#linearGradient586);fill-rule:evenodd;stroke:#261933;stroke-width:1.87726;"
     id="path634" />
  <path
     d="M 6.6876568 43.965773 C 6.360392 43.13667 19.363758 4.5872629 20.579427 3.7922731 C 22.09876 2.7554118 46.659814 7.3454032 46.98631 8.172561 C 47.28557 8.9306762 27.823671 5.3906629 23.493845 9.2635774 C 15.189619 16.482895 6.9861475 44.721984 6.6876568 43.965773 z "
     style="font-size:12;opacity:0.699936;fill:url(#linearGradient587);fill-rule:evenodd;stroke:none;stroke-width:0.100121pt;"
     id="path640" />
  <path
     sodipodi:type="arc"
     style="font-size:12;fill:#000000;fill-rule:evenodd;stroke-width:12.5;stroke:none;stroke-opacity:1;stroke-dasharray:none;fill-opacity:1;opacity:0.302675;"
     id="path697"
     d="M 451.954407,413.273621 A 100.773605,79.397400 0 1 1 414.001740,351.191742 L 351.180786,413.273621 z"
     sodipodi:cx="351.180786"
     sodipodi:cy="413.273621"
     sodipodi:rx="100.773605"
     sodipodi:ry="79.397400"
     transform="matrix(0.114145,0.000000,0.000000,0.114145,-10.83417,-6.021431)"
     sodipodi:start="0.000000"
     sodipodi:end="5.385456" />
  <path
     sodipodi:type="arc"
     style="font-size:12;fill:url(#linearGradient848);fill-rule:evenodd;stroke-width:16.4265;stroke:#261933;stroke-opacity:1;stroke-dasharray:none;"
     id="path696"
     d="M 451.954407,413.273621 A 100.773605,79.397400 0 1 1 414.001740,351.191742 L 351.180786,413.273621 z"
     sodipodi:cx="351.180786"
     sodipodi:cy="413.273621"
     sodipodi:rx="100.773605"
     sodipodi:ry="79.397400"
     transform="matrix(0.114145,0.000000,0.000000,0.114145,-11.82583,-7.806338)"
     sodipodi:start="0.000000"
     sodipodi:end="5.385456" />
  <path
     style="font-size:12;opacity:0.7;fill-rule:evenodd;stroke:none;stroke-width:0.135329pt;fill:url(#linearGradient863);"
     d="M 27.99467 41.008821 C 29.816074 40.795479 37.41097 40.847303 37.951538 41.008821 C 38.345881 41.126597 33.130966 41.846601 30.799397 41.846601 C 29.81198 41.846601 27.432088 41.074673 27.99467 41.008821 z "
     id="path699"
     sodipodi:nodetypes="csss" />
  <path
     style="fill:#261933;fill-rule:evenodd;stroke:none;stroke-opacity:1;stroke-width:1pt;stroke-linejoin:miter;stroke-linecap:butt;fill-opacity:1;"
     d="M 27.863059 39.405539 L 21.318413 32.265866 L 20.227637 33.158398 L 26.573945 40.099725 L 27.863059 39.405539 z "
     id="path700"
     sodipodi:nodetypes="ccccc" />
  <path
     style="fill:#261933;fill-rule:evenodd;stroke:none;stroke-opacity:1;stroke-width:1pt;stroke-linejoin:miter;stroke-linecap:butt;fill-opacity:1;"
     d="M 26.685393 39.269834 L 22.552291 47.276806 L 23.940284 47.729213 L 28.019316 39.749611 L 26.685393 39.269834 z "
     id="path701"
     sodipodi:nodetypes="ccccc" />
  <path
     style="font-size:12;opacity:0.699936;fill-rule:evenodd;stroke:none;stroke-width:0.166097pt;fill:url(#linearGradient849);"
     d="M 18.178183 41.010188 C 18.056313 40.766448 18.112818 35.769946 22.805967 33.156938 C 26.609798 31.117126 32.221971 32.355977 32.341987 32.59601 C 32.455676 32.82348 28.425353 31.463151 23.507168 34.559347 C 18.180037 37.772831 18.290019 41.233951 18.178183 41.010188 z "
     id="path698"
     sodipodi:nodetypes="cssss" />
  <rect
     style="fill:#000000;fill-opacity:0.30000001;fill-rule:evenodd;stroke:none;stroke-width:1.0000000pt;stroke-opacity:1.0000000;"
     id="rect937"
     x="28.226574"
     y="39.395287"
     rx="0.70483023"
     width="30.710464"
     height="12.888113" />
  <rect
     style="fill:#d9cce6;fill-opacity:0.80000001;fill-rule:evenodd;stroke:#261933;stroke-width:1.2500000;stroke-dasharray:none;"
     id="rect862"
     x="26.323563"
     y="37.806450"
     rx="0.69999999"
     width="30.500000"
     height="12.750523" />
  <path
     style="font-size:12.000000;stroke-width:1.0000000pt;font-family:Radio Stars;"
     d="M 54.690575,46.777798 C 54.690575,47.321798 54.422575,47.593798 53.886575,47.593798 L 47.406575,47.593798 C 47.150575,47.593798 46.950575,47.513798 46.806575,47.353798 C 46.662575,47.193798 46.590575,47.001798 46.590575,46.777798 C 46.590575,46.553798 46.662575,46.361798 46.806575,46.201798 C 46.950575,46.041798 47.150575,45.961798 47.406575,45.961798 L 53.082575,45.961798 L 53.082575,45.001798 L 47.406575,45.001798 C 46.870575,45.001798 46.602575,44.729798 46.602575,44.185798 L 46.602575,41.593798 C 46.602575,41.049798 46.870575,40.777798 47.406575,40.777798 L 53.886575,40.777798 C 54.142575,40.777798 54.342575,40.857798 54.486575,41.017798 C 54.630575,41.177798 54.702575,41.369798 54.702575,41.593798 C 54.702575,41.817798 54.630575,42.009798 54.486575,42.169798 C 54.342575,42.329798 54.142575,42.409798 53.886575,42.409798 L 48.210575,42.409798 L 48.210575,43.369798 L 53.886575,43.369798 C 54.422575,43.369798 54.690575,43.641798 54.690575,44.185798 L 54.690575,46.777798 z M 45.426575,47.593798 L 38.946575,47.593798 C 38.410575,47.593798 38.142575,47.321798 38.142575,46.777798 L 38.142575,41.593798 C 38.142575,41.337798 38.222575,41.141798 38.382575,41.005798 C 38.542575,40.861798 38.730575,40.789798 38.946575,40.789798 C 39.162575,40.789798 39.350575,40.861798 39.510575,41.005798 C 39.670575,41.141798 39.750575,41.337798 39.750575,41.593798 L 39.750575,45.961798 L 45.426575,45.961798 C 45.666575,45.961798 45.850575,46.041798 45.978575,46.201798 C 46.114575,46.361798 46.182575,46.553798 46.182575,46.777798 C 46.182575,47.001798 46.114575,47.193798 45.978575,47.353798 C 45.850575,47.513798 45.666575,47.593798 45.426575,47.593798 z M 36.702575,46.129798 C 36.910575,46.297798 37.014575,46.505798 37.014575,46.753798 C 37.014575,46.977798 36.930575,47.177798 36.762575,47.353798 C 36.602575,47.521798 36.414575,47.605798 36.198575,47.605798 C 36.022575,47.605798 35.854575,47.545798 35.694575,47.425798 L 32.946575,45.229798 C 32.458575,45.621798 31.550575,46.353798 30.222575,47.425798 C 30.062575,47.545798 29.894575,47.605798 29.718575,47.605798 C 29.494575,47.605798 29.298575,47.521798 29.130575,47.353798 C 28.970575,47.177798 28.890575,46.977798 28.890575,46.753798 C 28.890575,46.513798 28.998575,46.305798 29.214575,46.129798 L 31.650575,44.185798 L 29.214575,42.229798 C 29.006575,42.061798 28.902575,41.853798 28.902575,41.605798 C 28.902575,41.389798 28.982575,41.193798 29.142575,41.017798 C 29.302575,40.841798 29.494575,40.753798 29.718575,40.753798 C 29.894575,40.753798 30.062575,40.817798 30.222575,40.945798 C 31.134575,41.681798 32.042575,42.417798 32.946575,43.153798 L 35.694575,40.945798 C 35.854575,40.825798 36.022575,40.765798 36.198575,40.765798 C 36.414575,40.765798 36.602575,40.853798 36.762575,41.029798 C 36.930575,41.197798 37.014575,41.393798 37.014575,41.617798 C 37.014575,41.857798 36.910575,42.061798 36.702575,42.229798 L 34.254575,44.185798 C 34.694575,44.537798 35.510575,45.185798 36.702575,46.129798 z "
     id="path872" />
  <text
     xml:space="preserve"
     style="fill:black;fill-opacity:1;stroke:none;font-family:helvetica;font-style:normal;font-weight:normal;font-size:12px;stroke-opacity:1;stroke-width:1pt;stroke-linejoin:miter;stroke-linecap:butt;"
     x="33.885081"
     y="47.172743"
     id="text863"
     transform="scale(0.906078,0.911747)"><tspan
       id="tspan864"></tspan></text>
  <g
     id="g1040"
     style="opacity:0.30000000;"
     transform="matrix(0.438555,0.000000,0.000000,0.408871,4.582113,3.079181)">
    <path
       style="fill:#000000;fill-opacity:1.0000000;fill-rule:evenodd;stroke:none;stroke-width:1.8750000;stroke-dasharray:none;"
       d="M 10.420991,7.4518677 C 8.8072103,14.893187 8.4037654,18.031092 6.6555032,27.624116 C 12.079598,23.589667 21.538141,23.724149 28.979458,27.624116 C 30.593238,18.569019 31.265647,15.700077 32.744945,7.4518677 C 26.244998,2.4760464 16.248529,2.6105279 10.420991,7.4518677 z "
       id="path1036"
       sodipodi:nodetypes="ccccc" />
    <path
       style="fill:#000000;fill-opacity:1.0000000;fill-rule:evenodd;stroke:none;stroke-width:1.8750000;stroke-dasharray:none;"
       d="M 6.1741408,31.263390 C 4.5603610,38.704709 4.1569162,41.842613 2.4086547,51.435637 C 7.8327472,47.401187 17.291292,47.535669 24.732610,51.435637 C 26.346389,42.380539 27.018798,39.511599 28.498096,31.263390 C 21.998149,26.287569 12.001680,26.422050 6.1741408,31.263390 z "
       id="path1037"
       sodipodi:nodetypes="ccccc" />
    <path
       style="fill:#000000;fill-opacity:1.0000000;fill-rule:evenodd;stroke:none;stroke-width:1.8750000;stroke-dasharray:none;"
       d="M 54.428495,29.110432 C 56.042274,21.669114 56.445719,18.531209 58.193981,8.9381846 C 52.769887,12.972634 43.311345,12.838152 35.870027,8.9381846 C 34.256247,17.993282 33.583838,20.862224 32.104540,29.110432 C 38.604487,34.086253 48.600956,33.951772 54.428495,29.110432 z "
       id="path1038"
       sodipodi:nodetypes="ccccc" />
    <path
       style="fill:#000000;fill-opacity:1.0000000;fill-rule:evenodd;stroke:none;stroke-width:1.8750000;stroke-dasharray:none;stroke-opacity:1.0000000;"
       d="M 50.064499,52.987700 C 51.678278,45.546381 52.081723,42.408476 53.829985,32.815453 C 48.405891,36.849902 38.947349,36.715419 31.506031,32.815453 C 29.892252,41.870550 29.219843,44.739491 27.740545,52.987700 C 34.240491,57.963520 44.236960,57.829040 50.064499,52.987700 z "
       id="path1039"
       sodipodi:nodetypes="ccccc" />
  </g>
  <path
     style="fill:url(#linearGradient961);fill-rule:evenodd;stroke:#330000;stroke-width:0.79397470;stroke-linecap:round;stroke-linejoin:round;"
     d="M 8.3663488,5.2658606 C 7.6586167,8.3084014 7.4816841,9.5914002 6.7149744,13.513711 C 9.0937401,11.864141 13.241833,11.919127 16.505263,13.513711 C 17.212994,9.8113431 17.507882,8.6383155 18.156637,5.2658606 C 15.306050,3.2313907 10.922046,3.2863763 8.3663488,5.2658606 z "
     id="path957"
     sodipodi:nodetypes="ccccc" />
  <path
     style="fill:url(#linearGradient963);fill-rule:evenodd;stroke:none;stroke-opacity:1;stroke-width:1pt;stroke-linejoin:miter;stroke-linecap:butt;"
     d="M 15.148777,4.6610187 C 15.020992,4.5235537 12.092538,3.3836506 9.1920360,5.4308174 C 8.5560797,5.8676171 7.7749707,9.4929686 7.7175942,11.369270 C 7.7193420,13.417366 7.7046110,7.5217344 10.194656,5.8157177 C 12.802904,3.9853624 15.276562,4.7984828 15.148777,4.6610187 z "
     id="path962"
     sodipodi:nodetypes="cssss" />
  <path
     style="fill:url(#linearGradient1062);fill-rule:evenodd;stroke:#010033;stroke-width:0.79397470;stroke-linecap:round;stroke-linejoin:round;"
     d="M 6.5038700,15.001705 C 5.7961379,18.044245 5.6192053,19.327244 4.8524965,23.249554 C 7.2312604,21.599985 11.379355,21.654970 14.642785,23.249554 C 15.350516,19.547186 15.645405,18.374160 16.294158,15.001705 C 13.443572,12.967235 9.0595683,13.022221 6.5038700,15.001705 z "
     id="path968"
     sodipodi:nodetypes="ccccc" />
  <path
     style="fill:url(#linearGradient963);fill-rule:evenodd;stroke:none;stroke-opacity:1;stroke-width:1pt;stroke-linejoin:miter;stroke-linecap:butt;"
     d="M 13.286299,14.396863 C 13.158514,14.259398 10.230059,13.119495 7.3295563,15.166662 C 6.6936009,15.603462 5.9124919,19.228812 5.8551163,21.105114 C 5.8568641,23.153209 5.8421331,17.257578 8.3321779,15.551562 C 10.940426,13.721207 13.414083,14.534327 13.286299,14.396863 z "
     id="path969"
     sodipodi:nodetypes="cssss" />
  <path
     style="fill:url(#linearGradient1064);fill-rule:evenodd;stroke:#003300;stroke-width:0.79397470;stroke-linejoin:round;"
     d="M 27.666072,14.121423 C 28.373803,11.078882 28.550737,9.7958836 29.317447,5.8735726 C 26.938681,7.5231431 22.790588,7.4681566 19.527158,5.8735726 C 18.819426,9.5759408 18.524537,10.748969 17.875784,14.121423 C 20.726370,16.155892 25.110374,16.100907 27.666072,14.121423 z "
     id="path1063"
     sodipodi:nodetypes="ccccc" />
  <path
     style="fill:url(#linearGradient862);fill-rule:evenodd;stroke:none;stroke-opacity:1.0000000;stroke-width:1pt;stroke-linejoin:miter;stroke-linecap:butt;"
     d="M 18.898370,12.226805 C 19.519698,8.9880421 19.629930,6.6094470 20.500530,6.8621294 C 24.650801,8.0915643 25.064707,7.4143945 26.440555,7.6562098 C 23.490150,8.0627194 22.927805,8.0010479 20.735160,7.6185528 C 19.983811,7.4890593 18.842201,14.299921 18.898370,12.226805 z "
     id="path1069"
     sodipodi:nodetypes="cscsc" />
  <path
     style="fill:url(#linearGradient1110);fill-rule:evenodd;stroke:#333300;stroke-width:0.79397470;stroke-linecap:round;stroke-linejoin:round;"
     d="M 25.752219,23.884148 C 26.459950,20.841607 26.636883,19.558609 27.403593,15.636298 C 25.024827,17.285869 20.876734,17.230882 17.613305,15.636298 C 16.905573,19.338667 16.610685,20.511694 15.961930,23.884148 C 18.812516,25.918617 23.196520,25.863632 25.752219,23.884148 z "
     id="path1072"
     sodipodi:nodetypes="ccccc" />
  <path
     style="fill:url(#linearGradient862);fill-rule:evenodd;stroke:none;stroke-opacity:1.0000000;stroke-width:1pt;stroke-linejoin:miter;stroke-linecap:butt;"
     d="M 17.011609,21.981397 C 17.632938,18.742635 17.743170,16.364039 18.613769,16.616722 C 22.764040,17.846157 23.177946,17.168987 24.553795,17.410803 C 21.603390,17.817312 21.041044,17.755641 18.848400,17.373146 C 18.097051,17.243652 16.955440,24.054513 17.011609,21.981397 z "
     id="path864"
     sodipodi:nodetypes="cscsc" />
  <path
     style="fill:url(#linearGradient1071);fill-rule:evenodd;stroke:none;stroke-opacity:1;stroke-width:1pt;stroke-linejoin:miter;stroke-linecap:butt;opacity:0.50000000;"
     d="M 20.811010,14.692546 C 20.938795,14.830011 23.867250,15.969914 26.767752,13.922747 C 27.403707,13.485947 28.184816,9.8605964 28.242193,7.9842946 C 28.240445,5.9361986 28.255176,11.831831 25.765131,13.537848 C 23.156883,15.368202 20.683225,14.555082 20.811010,14.692546 z "
     id="path865"
     sodipodi:nodetypes="cssss" />
  <path
     style="fill:url(#linearGradient1071);fill-rule:evenodd;stroke:none;stroke-opacity:1;stroke-width:1pt;stroke-linejoin:miter;stroke-linecap:butt;opacity:0.71649485;"
     d="M 18.911589,24.473251 C 19.039374,24.610715 21.967828,25.750619 24.868330,23.703452 C 25.504286,23.266652 26.285395,19.641302 26.342771,17.765001 C 26.341023,15.716904 26.355755,21.612536 23.865710,23.318552 C 21.257461,25.148907 18.783803,24.335787 18.911589,24.473251 z "
     id="path866"
     sodipodi:nodetypes="cssss" />
  <path
     style="fill:url(#linearGradient868);fill-rule:evenodd;stroke:none;stroke-opacity:1.0000000;stroke-width:1pt;stroke-linejoin:miter;stroke-linecap:butt;opacity:0.50000000;"
     d="M 17.135063,7.1807165 C 16.513735,10.419479 16.403503,12.798074 15.532903,12.545391 C 11.382632,11.315956 10.968727,11.993126 9.5928777,11.751312 C 12.543283,11.344801 13.105628,11.406474 15.298272,11.788968 C 16.049621,11.918461 17.191232,5.1075996 17.135063,7.1807165 z "
     id="path867"
     sodipodi:nodetypes="cscsc" />
  <path
     style="fill:url(#linearGradient868);fill-rule:evenodd;stroke:none;stroke-opacity:1.0000000;stroke-width:1pt;stroke-linejoin:miter;stroke-linecap:butt;opacity:0.50000000;"
     d="M 15.288972,16.885587 C 14.667644,20.124350 14.557412,22.502945 13.686814,22.250262 C 9.5365414,21.020828 9.1226367,21.697997 7.7467871,21.456182 C 10.697192,21.049672 11.259538,21.111344 13.452182,21.493839 C 14.203531,21.623333 15.345141,14.812471 15.288972,16.885587 z "
     id="path869"
     sodipodi:nodetypes="cscsc" />
</svg>
