<?xml version="1.0" encoding="UTF-8" standalone="no"?>
<!DOCTYPE svg PUBLIC "-//W3C//DTD SVG 20010904//EN"
"http://www.w3.org/TR/2001/REC-SVG-20010904/DTD/svg10.dtd">
<!-- Created with Inkscape (http://www.inkscape.org/) -->
<svg
   id="svg1"
   sodipodi:version="0.32"
   inkscape:version="0.38.1"
   width="48pt"
   height="48pt"
   sodipodi:docbase="/root/Desktop/mimes"
   sodipodi:docname="gnome-mime-application-vnd.ms-powerpoint.svg"
   xmlns="http://www.w3.org/2000/svg"
   xmlns:inkscape="http://www.inkscape.org/namespaces/inkscape"
   xmlns:sodipodi="http://sodipodi.sourceforge.net/DTD/sodipodi-0.dtd"
   xmlns:xml="http://www.w3.org/XML/1998/namespace"
   xmlns:xlink="http://www.w3.org/1999/xlink">
  <defs
     id="defs3">
    <linearGradient
       id="linearGradient958">
      <stop
         style="stop-color:#f50000;stop-opacity:1.0000000;"
         offset="0.0000000"
         id="stop959" />
      <stop
         style="stop-color:#a80000;stop-opacity:1.0000000;"
         offset="1.0000000"
         id="stop960" />
    </linearGradient>
    <linearGradient
       xlink:href="#linearGradient958"
       id="linearGradient961"
       x1="0.0071428572"
       y1="0.023437500"
       x2="0.98571426"
       y2="0.99218750" />
    <linearGradient
       id="linearGradient1059">
      <stop
         style="stop-color:#0000ff;stop-opacity:1.0000000;"
         offset="0.0000000"
         id="stop1060" />
      <stop
         style="stop-color:#00007f;stop-opacity:1.0000000;"
         offset="1.0000000"
         id="stop1061" />
    </linearGradient>
    <linearGradient
       xlink:href="#linearGradient1059"
       id="linearGradient1062"
       x1="0.0071428572"
       y1="0.023437500"
       x2="1.9733334"
       y2="1.9296875" />
    <linearGradient
       xlink:href="#linearGradient964"
       id="linearGradient963"
       x1="-0.0064935065"
       y1="0.031250000"
       x2="0.55844158"
       y2="0.50781250" />
    <linearGradient
       id="linearGradient1065">
      <stop
         style="stop-color:#00ff00;stop-opacity:1.0000000;"
         offset="0.0000000"
         id="stop1066" />
      <stop
         style="stop-color:#008700;stop-opacity:1.0000000;"
         offset="1.0000000"
         id="stop1067" />
    </linearGradient>
    <linearGradient
       xlink:href="#linearGradient1065"
       id="linearGradient1064"
       x1="0.0071428572"
       y1="0.023437500"
       x2="0.98571426"
       y2="0.99218750" />
    <linearGradient
       id="linearGradient1107">
      <stop
         style="stop-color:#d7a600;stop-opacity:1.0000000;"
         offset="0.0000000"
         id="stop1108" />
      <stop
         style="stop-color:#fff300;stop-opacity:1.0000000;"
         offset="1.0000000"
         id="stop1109" />
    </linearGradient>
    <linearGradient
       xlink:href="#linearGradient1107"
       id="linearGradient1110"
       x1="0.0071428572"
       y1="0.023437500"
       x2="0.98571426"
       y2="0.99218750" />
    <linearGradient
       xlink:href="#linearGradient964"
       id="linearGradient862"
       x1="-0.11538462"
       y1="-1.8333859e-16"
       x2="0.39743590"
       y2="0.54687500" />
    <linearGradient
       xlink:href="#linearGradient964"
       id="linearGradient1071"
       x1="0.98305082"
       y1="0.99218750"
       x2="0.65254235"
       y2="0.63281250" />
    <linearGradient
       id="linearGradient964">
      <stop
         style="stop-color:#ffffff;stop-opacity:1.0000000;"
         offset="0.0000000"
         id="stop965" />
      <stop
         style="stop-color:#ffffff;stop-opacity:0.0000000;"
         offset="1.0000000"
         id="stop966" />
    </linearGradient>
    <linearGradient
       xlink:href="#linearGradient964"
       id="linearGradient868"
       x1="1.0897436"
       y1="1.0625000"
       x2="0.55128205"
       y2="0.45312500" />
    <linearGradient
       xlink:href="#linearGradient866"
       id="linearGradient638"
       x1="0.00000000"
       y1="0.00000000"
       x2="0.98684210"
       y2="1.02343750" />
    <linearGradient
       id="linearGradient642">
      <stop
         style="stop-color:#d9cce6;stop-opacity:1;"
         offset="0.00000000"
         id="stop643" />
      <stop
         style="stop-color:#73667f;stop-opacity:1;"
         offset="1.00000000"
         id="stop644" />
    </linearGradient>
    <linearGradient
       xlink:href="#linearGradient642"
       id="linearGradient640"
       x1="0.00000000"
       y1="-0.00000000"
       x2="0.98684210"
       y2="1.02343750" />
    <linearGradient
       xlink:href="#linearGradient584"
       id="linearGradient645"
       x1="-0.00000000"
       y1="-0.00000000"
       x2="0.99270076"
       y2="0.94999999" />
    <linearGradient
       id="linearGradient703">
      <stop
         style="stop-color:#d9cce6;stop-opacity:1;"
         offset="0.00000000"
         id="stop704" />
      <stop
         style="stop-color:#73667f;stop-opacity:1;"
         offset="1.00000000"
         id="stop705" />
    </linearGradient>
    <linearGradient
       id="linearGradient866">
      <stop
         style="stop-color:#ffffff;stop-opacity:1;"
         offset="0.00000000"
         id="stop867" />
      <stop
         style="stop-color:#d9cce6;stop-opacity:1;"
         offset="1.00000000"
         id="stop868" />
    </linearGradient>
    <linearGradient
       id="linearGradient584">
      <stop
         style="stop-color:#ffffff;stop-opacity:1;"
         offset="0.00000000"
         id="stop585" />
      <stop
         style="stop-color:#ffffff;stop-opacity:0;"
         offset="1.00000000"
         id="stop586" />
    </linearGradient>
    <linearGradient
       xlink:href="#linearGradient866"
       id="linearGradient586"
       x1="-0.00000000"
       y1="0.01562500"
       x2="0.99122804"
       y2="0.98437500" />
    <linearGradient
       xlink:href="#linearGradient584"
       id="linearGradient587"
       x1="0.00000000"
       y1="-0.00000000"
       x2="1.00000000"
       y2="1.00000000" />
    <linearGradient
       xlink:href="#linearGradient584"
       id="linearGradient700"
       x1="0.00000000"
       y1="-0.00000000"
       x2="0.98453611"
       y2="0.99218750" />
    <linearGradient
       xlink:href="#linearGradient584"
       id="linearGradient701"
       x1="0.00367647"
       y1="0.01562500"
       x2="1.01102936"
       y2="1.01562500" />
    <linearGradient
       xlink:href="#linearGradient703"
       id="linearGradient702"
       x1="-0.00000000"
       y1="0.00000000"
       x2="0.97457629"
       y2="0.96093750" />
    <linearGradient
       xlink:href="#linearGradient584"
       id="linearGradient845"
       x1="-0.00000000"
       y1="-0.00000000"
       x2="0.99635035"
       y2="0.97727275" />
    <radialGradient
       xlink:href="#linearGradient703"
       id="radialGradient846" />
    <linearGradient
       xlink:href="#linearGradient584"
       id="linearGradient847"
       x1="0.00000000"
       y1="-0.00000000"
       x2="0.98540145"
       y2="0.93902439" />
    <linearGradient
       xlink:href="#linearGradient703"
       id="linearGradient848"
       x1="0.01219511"
       y1="0.01562503"
       x2="0.99999994"
       y2="1.00000012" />
    <linearGradient
       xlink:href="#linearGradient584"
       id="linearGradient849"
       x1="0.00000000"
       y1="-0.00000000"
       x2="0.98514849"
       y2="1.02343750" />
    <linearGradient
       xlink:href="#linearGradient703"
       id="linearGradient850"
       x1="-0.00000000"
       y1="0.00000000"
       x2="1.00000000"
       y2="0.95652175" />
    <linearGradient
       xlink:href="#linearGradient584"
       id="linearGradient863"
       x1="-0.00000000"
       y1="-0.00000000"
       x2="0.99635035"
       y2="0.82142860" />
  </defs>
  <sodipodi:namedview
     id="base"
     pagecolor="#ffffff"
     bordercolor="#666666"
     borderopacity="1.0"
     inkscape:pageopacity="0.0"
     inkscape:pageshadow="2"
     inkscape:zoom="5.6423387"
     inkscape:cx="46.287558"
     inkscape:cy="19.374524"
     inkscape:window-width="689"
     inkscape:window-height="580"
     inkscape:window-x="49"
     inkscape:window-y="55" />
  <path
     d="M 4.4389304 48.086315 C 5.2483181 50.50443 38.765774 61.377487 40.966438 59.55288 C 42.936267 57.902492 57.675565 8.7785888 56.688667 6.8303779 C 55.662821 4.6824777 21.657054 -0.6675724 20.042945 0.80153134 C 18.054709 2.621752 3.5888672 45.311841 4.4389304 48.086315 z "
     style="font-size:12;opacity:0.302675;fill-rule:evenodd;stroke-width:12.5;"
     id="path639" />
  <path
     d="M 4.5541516 46.08493 C 5.3114351 48.34726 36.66955 58.519843 38.728432 56.812781 C 40.571358 55.268717 54.36111 9.3095333 53.437795 7.4867937 C 52.478034 5.477268 20.663028 0.47192513 19.152904 1.8463842 C 17.292759 3.5493405 3.7588508 43.489198 4.5541516 46.08493 z "
     style="font-size:12;fill:url(#linearGradient586);fill-rule:evenodd;stroke:#261933;stroke-width:1.87726;"
     id="path634" />
  <path
     d="M 6.6876568 43.965773 C 6.360392 43.13667 19.363758 4.5872629 20.579427 3.7922731 C 22.09876 2.7554118 46.659814 7.3454032 46.98631 8.172561 C 47.28557 8.9306762 27.823671 5.3906629 23.493845 9.2635774 C 15.189619 16.482895 6.9861475 44.721984 6.6876568 43.965773 z "
     style="font-size:12;opacity:0.699936;fill:url(#linearGradient587);fill-rule:evenodd;stroke:none;stroke-width:0.100121pt;"
     id="path640" />
  <path
     d="M 22.934993,41.605736 C 23.220990,42.460175 35.064353,46.302160 35.841953,45.657437 C 36.537993,45.074274 41.746113,27.716387 41.397383,27.027988 C 41.034903,26.269029 29.019003,24.378594 28.448663,24.897701 C 27.746117,25.540875 22.634626,40.625379 22.934993,41.605736 z "
     style="font-size:12;opacity:0.302675;fill-rule:evenodd;stroke-width:12.5;"
     id="path588" />
  <path
     d="M 23.060432,40.898549 C 23.328017,41.697941 34.408383,45.292415 35.135883,44.689225 C 35.787083,44.143632 40.659663,27.903996 40.333423,27.259933 C 39.994283,26.549869 28.752483,24.781235 28.218887,25.266898 C 27.561607,25.868636 22.779413,39.981350 23.060432,40.898549 z "
     style="font-size:12.000000;fill:url(#linearGradient586);fill-rule:evenodd;stroke:#261933;stroke-width:0.87331557;"
     id="path589" />
  <path
     d="M 23.814304,40.149747 C 23.698665,39.856784 28.293393,26.235385 28.722953,25.954477 C 29.259803,25.588103 37.938433,27.209972 38.053793,27.502247 C 38.159543,27.770128 31.282693,26.519267 29.752753,27.887757 C 26.818465,30.438696 23.919776,40.416953 23.814304,40.149747 z "
     style="font-size:12;opacity:0.699936;fill:url(#linearGradient587);fill-rule:evenodd;stroke-width:0.100121pt;"
     id="path590" />
  <path
     d="M 19.568935,44.002114 C 19.854933,44.856552 31.698293,48.698537 32.475893,48.053814 C 33.171933,47.470651 38.380053,30.112764 38.031333,29.424366 C 37.668853,28.665407 25.652944,26.774972 25.082600,27.294077 C 24.380058,27.937252 19.268566,43.021756 19.568935,44.002114 z "
     style="font-size:12;opacity:0.302675;fill-rule:evenodd;stroke-width:12.5;"
     id="path591" />
  <path
     d="M 19.609648,43.294926 C 19.877234,44.094319 30.957603,47.688791 31.685103,47.085602 C 32.336303,46.540009 37.208893,30.300373 36.882643,29.656309 C 36.543513,28.946245 25.301706,27.177612 24.768104,27.663277 C 24.110824,28.265014 19.328630,42.377727 19.609648,43.294926 z "
     style="font-size:12.000000;fill:url(#linearGradient586);fill-rule:evenodd;stroke:#261933;stroke-width:0.87331557;"
     id="path592" />
  <path
     d="M 20.363521,42.546124 C 20.247882,42.253161 24.842610,28.631763 25.272166,28.350853 C 25.809020,27.984480 34.487653,29.606349 34.603013,29.898625 C 34.708763,30.166505 27.831912,28.915643 26.301973,30.284135 C 23.367682,32.835074 20.468992,42.813330 20.363521,42.546124 z "
     style="font-size:12;opacity:0.699936;fill:url(#linearGradient587);fill-rule:evenodd;stroke-width:0.100121pt;"
     id="path593" />
  <path
     d="M 15.926443,46.398488 C 16.212440,47.252928 28.055803,51.094912 28.833403,50.450190 C 29.529443,49.867027 34.737553,32.509141 34.388843,31.820742 C 34.026353,31.061782 22.010452,29.171347 21.440108,29.690454 C 20.737567,30.333627 15.626074,45.418132 15.926443,46.398488 z "
     style="font-size:12;opacity:0.302675;fill-rule:evenodd;stroke-width:12.5;"
     id="path1774" />
  <path
     d="M 15.967156,45.691302 C 16.234743,46.490694 27.315104,50.085167 28.042607,49.481978 C 28.693803,48.936384 33.566403,32.696749 33.240153,32.052685 C 32.901023,31.342622 21.659214,29.573989 21.125612,30.059652 C 20.468333,30.661389 15.686138,44.774102 15.967156,45.691302 z "
     style="font-size:12.000000;fill:url(#linearGradient586);fill-rule:evenodd;stroke:#261933;stroke-width:0.87331557;"
     id="path1775" />
  <path
     d="M 16.721029,44.942500 C 16.605390,44.649537 21.200117,31.028138 21.629674,30.747231 C 22.166528,30.380856 30.845153,32.002725 30.960523,32.295000 C 31.066263,32.562881 24.189420,31.312020 22.659481,32.680511 C 19.725190,35.231449 16.826500,45.209706 16.721029,44.942500 z "
     style="font-size:12;opacity:0.699936;fill:url(#linearGradient587);fill-rule:evenodd;stroke-width:0.100121pt;"
     id="path1776" />
  <rect
     style="fill:#000000;fill-opacity:0.30000001;fill-rule:evenodd;stroke:none;stroke-width:1.0000000pt;stroke-opacity:1.0000000;"
     id="rect937"
     x="28.226574"
     y="39.395287"
     rx="0.70483023"
     width="30.710464"
     height="12.888113" />
  <rect
     style="fill:#d9cce6;fill-opacity:0.80000001;fill-rule:evenodd;stroke:#261933;stroke-width:1.2500000;stroke-dasharray:none;"
     id="rect862"
     x="26.323563"
     y="37.806450"
     rx="0.69999999"
     width="30.500000"
     height="12.750523" />
  <text
     xml:space="preserve"
     style="fill:black;fill-opacity:1;stroke:none;font-family:helvetica;font-style:normal;font-weight:normal;font-size:12px;stroke-opacity:1;stroke-width:1pt;stroke-linejoin:miter;stroke-linecap:butt;"
     x="33.885081"
     y="47.172743"
     id="text863"
     transform="scale(0.906078,0.911747)"><tspan
       id="tspan864"></tspan></text>
  <g
     id="g1040"
     style="opacity:0.30000000;"
     transform="matrix(0.438555,0.000000,0.000000,0.408871,4.582113,3.079181)">
    <path
       style="fill:#000000;fill-opacity:1.0000000;fill-rule:evenodd;stroke:none;stroke-width:1.8750000;stroke-dasharray:none;"
       d="M 10.420991,7.4518677 C 8.8072103,14.893187 8.4037654,18.031092 6.6555032,27.624116 C 12.079598,23.589667 21.538141,23.724149 28.979458,27.624116 C 30.593238,18.569019 31.265647,15.700077 32.744945,7.4518677 C 26.244998,2.4760464 16.248529,2.6105279 10.420991,7.4518677 z "
       id="path1036"
       sodipodi:nodetypes="ccccc" />
    <path
       style="fill:#000000;fill-opacity:1.0000000;fill-rule:evenodd;stroke:none;stroke-width:1.8750000;stroke-dasharray:none;"
       d="M 6.1741408,31.263390 C 4.5603610,38.704709 4.1569162,41.842613 2.4086547,51.435637 C 7.8327472,47.401187 17.291292,47.535669 24.732610,51.435637 C 26.346389,42.380539 27.018798,39.511599 28.498096,31.263390 C 21.998149,26.287569 12.001680,26.422050 6.1741408,31.263390 z "
       id="path1037"
       sodipodi:nodetypes="ccccc" />
    <path
       style="fill:#000000;fill-opacity:1.0000000;fill-rule:evenodd;stroke:none;stroke-width:1.8750000;stroke-dasharray:none;"
       d="M 54.428495,29.110432 C 56.042274,21.669114 56.445719,18.531209 58.193981,8.9381846 C 52.769887,12.972634 43.311345,12.838152 35.870027,8.9381846 C 34.256247,17.993282 33.583838,20.862224 32.104540,29.110432 C 38.604487,34.086253 48.600956,33.951772 54.428495,29.110432 z "
       id="path1038"
       sodipodi:nodetypes="ccccc" />
    <path
       style="fill:#000000;fill-opacity:1.0000000;fill-rule:evenodd;stroke:none;stroke-width:1.8750000;stroke-dasharray:none;stroke-opacity:1.0000000;"
       d="M 50.064499,52.987700 C 51.678278,45.546381 52.081723,42.408476 53.829985,32.815453 C 48.405891,36.849902 38.947349,36.715419 31.506031,32.815453 C 29.892252,41.870550 29.219843,44.739491 27.740545,52.987700 C 34.240491,57.963520 44.236960,57.829040 50.064499,52.987700 z "
       id="path1039"
       sodipodi:nodetypes="ccccc" />
  </g>
  <path
     style="fill:url(#linearGradient961);fill-rule:evenodd;stroke:#330000;stroke-width:0.79397470;stroke-linecap:round;stroke-linejoin:round;"
     d="M 8.3663488,5.2658606 C 7.6586167,8.3084014 7.4816841,9.5914002 6.7149744,13.513711 C 9.0937401,11.864141 13.241833,11.919127 16.505263,13.513711 C 17.212994,9.8113431 17.507882,8.6383155 18.156637,5.2658606 C 15.306050,3.2313907 10.922046,3.2863763 8.3663488,5.2658606 z "
     id="path957"
     sodipodi:nodetypes="ccccc" />
  <path
     style="fill:url(#linearGradient963);fill-rule:evenodd;stroke:none;stroke-opacity:1;stroke-width:1pt;stroke-linejoin:miter;stroke-linecap:butt;"
     d="M 15.148777,4.6610187 C 15.020992,4.5235537 12.092538,3.3836506 9.1920360,5.4308174 C 8.5560797,5.8676171 7.7749707,9.4929686 7.7175942,11.369270 C 7.7193420,13.417366 7.7046110,7.5217344 10.194656,5.8157177 C 12.802904,3.9853624 15.276562,4.7984828 15.148777,4.6610187 z "
     id="path962"
     sodipodi:nodetypes="cssss" />
  <path
     style="fill:url(#linearGradient1062);fill-rule:evenodd;stroke:#010033;stroke-width:0.79397470;stroke-linecap:round;stroke-linejoin:round;"
     d="M 6.5038700,15.001705 C 5.7961379,18.044245 5.6192053,19.327244 4.8524965,23.249554 C 7.2312604,21.599985 11.379355,21.654970 14.642785,23.249554 C 15.350516,19.547186 15.645405,18.374160 16.294158,15.001705 C 13.443572,12.967235 9.0595683,13.022221 6.5038700,15.001705 z "
     id="path968"
     sodipodi:nodetypes="ccccc" />
  <path
     style="fill:url(#linearGradient963);fill-rule:evenodd;stroke:none;stroke-opacity:1;stroke-width:1pt;stroke-linejoin:miter;stroke-linecap:butt;"
     d="M 13.286299,14.396863 C 13.158514,14.259398 10.230059,13.119495 7.3295563,15.166662 C 6.6936009,15.603462 5.9124919,19.228812 5.8551163,21.105114 C 5.8568641,23.153209 5.8421331,17.257578 8.3321779,15.551562 C 10.940426,13.721207 13.414083,14.534327 13.286299,14.396863 z "
     id="path969"
     sodipodi:nodetypes="cssss" />
  <path
     style="fill:url(#linearGradient1064);fill-rule:evenodd;stroke:#003300;stroke-width:0.79397470;stroke-linejoin:round;"
     d="M 27.666072,14.121423 C 28.373803,11.078882 28.550737,9.7958836 29.317447,5.8735726 C 26.938681,7.5231431 22.790588,7.4681566 19.527158,5.8735726 C 18.819426,9.5759408 18.524537,10.748969 17.875784,14.121423 C 20.726370,16.155892 25.110374,16.100907 27.666072,14.121423 z "
     id="path1063"
     sodipodi:nodetypes="ccccc" />
  <path
     style="fill:url(#linearGradient862);fill-rule:evenodd;stroke:none;stroke-opacity:1.0000000;stroke-width:1pt;stroke-linejoin:miter;stroke-linecap:butt;"
     d="M 18.898370,12.226805 C 19.519698,8.9880421 19.629930,6.6094470 20.500530,6.8621294 C 24.650801,8.0915643 25.064707,7.4143945 26.440555,7.6562098 C 23.490150,8.0627194 22.927805,8.0010479 20.735160,7.6185528 C 19.983811,7.4890593 18.842201,14.299921 18.898370,12.226805 z "
     id="path1069"
     sodipodi:nodetypes="cscsc" />
  <path
     style="fill:url(#linearGradient1110);fill-rule:evenodd;stroke:#333300;stroke-width:0.79397470;stroke-linecap:round;stroke-linejoin:round;"
     d="M 25.752219,23.884148 C 26.459950,20.841607 26.636883,19.558609 27.403593,15.636298 C 25.024827,17.285869 20.876734,17.230882 17.613305,15.636298 C 16.905573,19.338667 16.610685,20.511694 15.961930,23.884148 C 18.812516,25.918617 23.196520,25.863632 25.752219,23.884148 z "
     id="path1072"
     sodipodi:nodetypes="ccccc" />
  <path
     style="fill:url(#linearGradient862);fill-rule:evenodd;stroke:none;stroke-opacity:1.0000000;stroke-width:1pt;stroke-linejoin:miter;stroke-linecap:butt;"
     d="M 17.011609,21.981397 C 17.632938,18.742635 17.743170,16.364039 18.613769,16.616722 C 22.764040,17.846157 23.177946,17.168987 24.553795,17.410803 C 21.603390,17.817312 21.041044,17.755641 18.848400,17.373146 C 18.097051,17.243652 16.955440,24.054513 17.011609,21.981397 z "
     id="path864"
     sodipodi:nodetypes="cscsc" />
  <path
     style="fill:url(#linearGradient1071);fill-rule:evenodd;stroke:none;stroke-opacity:1;stroke-width:1pt;stroke-linejoin:miter;stroke-linecap:butt;opacity:0.50000000;"
     d="M 20.811010,14.692546 C 20.938795,14.830011 23.867250,15.969914 26.767752,13.922747 C 27.403707,13.485947 28.184816,9.8605964 28.242193,7.9842946 C 28.240445,5.9361986 28.255176,11.831831 25.765131,13.537848 C 23.156883,15.368202 20.683225,14.555082 20.811010,14.692546 z "
     id="path865"
     sodipodi:nodetypes="cssss" />
  <path
     style="fill:url(#linearGradient1071);fill-rule:evenodd;stroke:none;stroke-opacity:1;stroke-width:1pt;stroke-linejoin:miter;stroke-linecap:butt;opacity:0.71649485;"
     d="M 18.911589,24.473251 C 19.039374,24.610715 21.967828,25.750619 24.868330,23.703452 C 25.504286,23.266652 26.285395,19.641302 26.342771,17.765001 C 26.341023,15.716904 26.355755,21.612536 23.865710,23.318552 C 21.257461,25.148907 18.783803,24.335787 18.911589,24.473251 z "
     id="path866"
     sodipodi:nodetypes="cssss" />
  <path
     style="fill:url(#linearGradient868);fill-rule:evenodd;stroke:none;stroke-opacity:1.0000000;stroke-width:1pt;stroke-linejoin:miter;stroke-linecap:butt;opacity:0.50000000;"
     d="M 17.135063,7.1807165 C 16.513735,10.419479 16.403503,12.798074 15.532903,12.545391 C 11.382632,11.315956 10.968727,11.993126 9.5928777,11.751312 C 12.543283,11.344801 13.105628,11.406474 15.298272,11.788968 C 16.049621,11.918461 17.191232,5.1075996 17.135063,7.1807165 z "
     id="path867"
     sodipodi:nodetypes="cscsc" />
  <path
     style="fill:url(#linearGradient868);fill-rule:evenodd;stroke:none;stroke-opacity:1.0000000;stroke-width:1pt;stroke-linejoin:miter;stroke-linecap:butt;opacity:0.50000000;"
     d="M 15.288972,16.885587 C 14.667644,20.124350 14.557412,22.502945 13.686814,22.250262 C 9.5365414,21.020828 9.1226367,21.697997 7.7467871,21.456182 C 10.697192,21.049672 11.259538,21.111344 13.452182,21.493839 C 14.203531,21.623333 15.345141,14.812471 15.288972,16.885587 z "
     id="path869"
     sodipodi:nodetypes="cscsc" />
  <path
     style="font-size:12.000000;stroke-width:1.0000000pt;font-family:Radio Stars;"
     d="M 52.752116,42.188258 L 50.328116,42.188258 L 50.328116,46.556258 C 50.328116,46.812258 50.248116,47.012258 50.088116,47.156258 C 49.928116,47.292258 49.736116,47.360258 49.512116,47.360258 C 49.296116,47.360258 49.108116,47.292258 48.948116,47.156258 C 48.788116,47.012258 48.708116,46.812258 48.708116,46.556258 L 48.708116,42.188258 L 46.272116,42.188258 C 46.016116,42.188258 45.816116,42.108258 45.672116,41.948258 C 45.528116,41.788258 45.456116,41.596258 45.456116,41.372258 C 45.456116,41.148258 45.528116,40.956258 45.672116,40.796258 C 45.816116,40.636258 46.016116,40.556258 46.272116,40.556258 L 52.752116,40.556258 C 53.008116,40.556258 53.208116,40.636258 53.352116,40.796258 C 53.496116,40.956258 53.568116,41.148258 53.568116,41.372258 C 53.568116,41.596258 53.496116,41.788258 53.352116,41.948258 C 53.208116,42.108258 53.008116,42.188258 52.752116,42.188258 z M 45.780116,43.964258 C 45.780116,44.508258 45.512116,44.780258 44.976116,44.780258 L 39.300116,44.780258 L 39.300116,46.556258 C 39.300116,46.812258 39.220116,47.012258 39.060116,47.156258 C 38.908116,47.292258 38.720116,47.360258 38.496116,47.360258 C 38.280116,47.360258 38.092116,47.292258 37.932116,47.156258 C 37.772116,47.012258 37.692116,46.812258 37.692116,46.556258 L 37.692116,40.556258 L 44.976116,40.556258 C 45.512116,40.556258 45.780116,40.828258 45.780116,41.372258 L 45.780116,43.964258 z M 44.172116,43.148258 L 44.172116,42.188258 L 39.300116,42.188258 L 39.300116,43.148258 L 44.172116,43.148258 z M 37.224116,43.964258 C 37.224116,44.508258 36.956116,44.780258 36.420116,44.780258 L 30.744116,44.780258 L 30.744116,46.556258 C 30.744116,46.812258 30.664116,47.012258 30.504116,47.156258 C 30.352116,47.292258 30.164116,47.360258 29.940116,47.360258 C 29.724116,47.360258 29.536116,47.292258 29.376116,47.156258 C 29.216116,47.012258 29.136116,46.812258 29.136116,46.556258 L 29.136116,40.556258 L 36.420116,40.556258 C 36.956116,40.556258 37.224116,40.828258 37.224116,41.372258 L 37.224116,43.964258 z M 35.616116,43.148258 L 35.616116,42.188258 L 30.744116,42.188258 L 30.744116,43.148258 L 35.616116,43.148258 z "
     id="path1055" />
</svg>
