<?xml version="1.0" encoding="UTF-8" standalone="no"?>
<!DOCTYPE svg PUBLIC "-//W3C//DTD SVG 20010904//EN"
"http://www.w3.org/TR/2001/REC-SVG-20010904/DTD/svg10.dtd">
<!-- Created with Inkscape (http://www.inkscape.org/) -->
<svg
   version="1.0"
   x="0"
   y="0"
   width="48pt"
   height="48pt"
   id="svg1"
   sodipodi:version="0.32"
   inkscape:version="0.38"
   sodipodi:docname="gnome-mime-application-x-deb.svg"
   sodipodi:docbase="/home/dan/Projects/Lila-icons/scalable/mimetypes"
   xmlns="http://www.w3.org/2000/svg"
   xmlns:inkscape="http://www.inkscape.org/namespaces/inkscape"
   xmlns:sodipodi="http://sodipodi.sourceforge.net/DTD/sodipodi-0.dtd"
   xmlns:xml="http://www.w3.org/XML/1998/namespace"
   xmlns:xlink="http://www.w3.org/1999/xlink">
  <sodipodi:namedview
     id="base"
     pagecolor="#ffffff"
     bordercolor="#666666"
     borderopacity="1.0"
     inkscape:pageopacity="0.0"
     inkscape:pageshadow="2"
     inkscape:zoom="5.6399999"
     inkscape:cx="21.698531"
     inkscape:cy="24.227218"
     inkscape:window-width="640"
     inkscape:window-height="503"
     inkscape:window-x="50"
     inkscape:window-y="65"
     showguides="true"
     snaptoguides="true" />
  <defs
     id="defs3">
    <linearGradient
       xlink:href="#linearGradient570"
       id="linearGradient682"
       x1="0.00000000"
       y1="0.00000000"
       x2="0.99230766"
       y2="0.99218750" />
    <linearGradient
       xlink:href="#linearGradient570"
       id="linearGradient685"
       x1="-0.00000000"
       y1="0.00000000"
       x2="1.39999998"
       y2="1.32031250" />
    <linearGradient
       xlink:href="#linearGradient570"
       id="linearGradient689"
       x1="0.00000000"
       y1="0.00000000"
       x2="0.99206346"
       y2="1.00781250" />
    <linearGradient
       xlink:href="#linearGradient570"
       id="linearGradient691"
       x1="-0.08394161"
       y1="-0.61538464"
       x2="0.99635035"
       y2="0.92307693" />
    <linearGradient
       id="linearGradient570">
      <stop
         style="stop-color:#ffffff;stop-opacity:1;"
         offset="0"
         id="stop571" />
      <stop
         style="stop-color:#ffffff;stop-opacity:0;"
         offset="1"
         id="stop572" />
    </linearGradient>
    <linearGradient
       id="linearGradient563">
      <stop
         style="stop-color:#d9cce6;stop-opacity:1;"
         offset="0.00000000"
         id="stop564" />
      <stop
         style="stop-color:#73667f;stop-opacity:1;"
         offset="1.00000000"
         id="stop565" />
    </linearGradient>
    <linearGradient
       x1="0.01973684"
       y1="0.00000000"
       x2="0.98026317"
       y2="0.96875000"
       id="linearGradient566"
       xlink:href="#linearGradient563" />
    <linearGradient
       x1="0.007275"
       y1="0.062497"
       x2="1.003636"
       y2="0.968750"
       id="linearGradient569"
       xlink:href="#linearGradient570" />
    <linearGradient
       x1="0.017699"
       y1="0.007811"
       x2="0.982301"
       y2="0.992187"
       id="linearGradient573"
       xlink:href="#linearGradient570" />
    <linearGradient
       x1="0.040005"
       y1="0.015624"
       x2="1.000000"
       y2="0.984375"
       id="linearGradient575"
       xlink:href="#linearGradient570" />
    <linearGradient
       id="linearGradient578"
       xlink:href="#linearGradient570" />
  </defs>
  <path
     d="M 4.3319537 47.873335 C 5.5354626 49.08791 32.414949 55.868816 34.128038 55.495694 C 35.62272 55.308702 57.235768 45.549036 58.103536 44.547352 C 59.311466 42.960228 59.076803 14.61038 57.964972 13.3653 C 56.728509 11.783464 29.977412 8.6103101 28.168778 8.6533255 C 26.523477 8.8185403 4.7976325 13.532396 3.9162388 14.751165 C 3.2688576 15.748208 3.1247203 46.794797 4.3319537 47.873335 z "
     style="font-size:12;opacity:0.302675;fill-rule:evenodd;stroke-width:12.5;"
     id="path1168" />
  <path
     d="M 4.010611 45.413592 C 5.1626968 46.576279 30.893688 53.067459 32.533582 52.710287 C 33.964399 52.531272 54.653991 43.188604 55.484682 42.229719 C 56.641001 40.710399 56.416364 13.571863 55.352037 12.37998 C 54.168404 10.865731 28.560298 7.8281654 26.82894 7.8693346 C 25.25394 8.0275058 4.4563917 12.539925 3.6126274 13.706627 C 2.992905 14.661066 2.8549262 44.381133 4.010611 45.413592 z "
     style="font-size:12;fill:url(#linearGradient566);fill-rule:evenodd;stroke:#261933;stroke-width:1.875;stroke-dasharray:none;"
     id="path1164" />
  <path
     d="M 5.0719434 44.352349 C 4.5987439 43.642541 3.9794786 15.751129 4.9392786 14.900626 C 5.5970982 14.332895 29.941467 18.441686 30.410962 19.145973 C 30.825831 19.768334 11.65524 15.004167 7.5926113 18.880586 C 4.3212608 21.995866 5.4831918 44.969189 5.0719434 44.352349 z "
     style="font-size:12;opacity:0.990000;fill:url(#linearGradient573);fill-rule:evenodd;stroke:none;stroke-width:0.105861pt;"
     id="path1165" />
  <path
     d="M 33.197014 50.056975 C 32.832639 49.738123 32.229866 20.05564 32.931619 19.278622 C 33.690219 18.424426 52.862291 14.314057 53.229417 14.635347 C 53.569762 14.933138 36.707895 18.09034 35.05424 21.135954 C 32.494519 25.690205 33.540107 50.357204 33.197014 50.056975 z "
     style="font-size:12;opacity:0.990000;fill:url(#linearGradient575);fill-rule:evenodd;stroke:none;stroke-width:0.105861pt;"
     id="path1166" />
  <path
     d="M 9.3171936 13.44133 C 9.3171936 13.173935 25.266961 9.3573257 27.359729 9.3287384 C 29.067691 9.3036461 46.198125 11.450417 46.198125 11.716647 C 46.198125 11.980994 33.612199 10.628286 27.359729 10.920683 C 21.318556 11.203222 9.3171936 13.70462 9.3171936 13.44133 z "
     style="font-size:12;opacity:0.990000;fill:url(#linearGradient569);fill-rule:evenodd;stroke:none;stroke-width:0.105861pt;"
     id="path1167" />
  <rect
     style="fill:#000000;fill-opacity:0.30000001;fill-rule:evenodd;stroke:none;stroke-width:1.0000000pt;stroke-opacity:1.0000000;"
     id="rect937"
     x="28.640162"
     y="39.164196"
     rx="0.70483023"
     width="30.710464"
     height="12.888113" />
  <rect
     style="fill:#d9cce6;fill-opacity:0.80000001;fill-rule:evenodd;stroke:#261933;stroke-width:1.2500000;stroke-dasharray:none;"
     id="rect862"
     x="26.737149"
     y="37.575356"
     rx="0.69999999"
     width="30.500000"
     height="12.750523" />
  <text
     xml:space="preserve"
     style="fill:black;fill-opacity:1;stroke:none;font-family:helvetica;font-style:normal;font-weight:normal;font-size:12px;stroke-opacity:1;stroke-width:1pt;stroke-linejoin:miter;stroke-linecap:butt;"
     x="32.507458"
     y="45.730038"
     id="text863"><tspan
       id="tspan864"></tspan></text>
  <path
     style="font-size:12.000000;stroke-width:1.0000000pt;font-family:Radio Stars;"
     d="M 55.261257,46.725004 C 55.261257,47.269004 54.989257,47.541004 54.445257,47.541004 L 47.161257,47.541004 L 47.161257,40.725004 L 54.445257,40.725004 C 54.989257,40.725004 55.261257,40.997004 55.261257,41.541004 L 55.261257,43.317004 C 55.245257,43.461004 55.209257,43.585004 55.153257,43.689004 C 55.017257,43.945004 54.781257,44.085004 54.445257,44.109004 C 54.949257,44.157004 55.221257,44.437004 55.261257,44.949004 L 55.261257,46.725004 z M 53.641257,43.317004 L 53.641257,42.357004 L 48.781257,42.357004 L 48.781257,43.317004 L 53.641257,43.317004 z M 53.641257,45.909004 L 53.641257,44.949004 L 48.781257,44.949004 L 48.781257,45.909004 L 53.641257,45.909004 z M 45.217257,47.541004 L 38.737257,47.541004 C 38.201257,47.541004 37.933257,47.269004 37.933257,46.725004 L 37.933257,41.541004 C 37.933257,40.997004 38.201257,40.725004 38.737257,40.725004 L 45.217257,40.725004 C 45.473257,40.725004 45.673257,40.805004 45.817257,40.965004 C 45.961257,41.125004 46.033257,41.317004 46.033257,41.541004 C 46.033257,41.765004 45.961257,41.957004 45.817257,42.117004 C 45.673257,42.277004 45.473257,42.357004 45.217257,42.357004 L 39.541257,42.357004 L 39.541257,43.317004 L 45.217257,43.317004 C 45.473257,43.317004 45.673257,43.397004 45.817257,43.557004 C 45.961257,43.717004 46.033257,43.909004 46.033257,44.133004 C 46.033257,44.357004 45.961257,44.549004 45.817257,44.709004 C 45.673257,44.869004 45.473257,44.949004 45.217257,44.949004 L 39.541257,44.949004 L 39.541257,45.909004 L 45.217257,45.909004 C 45.473257,45.909004 45.673257,45.989004 45.817257,46.149004 C 45.961257,46.309004 46.033257,46.501004 46.033257,46.725004 C 46.033257,46.949004 45.961257,47.141004 45.817257,47.301004 C 45.673257,47.461004 45.473257,47.541004 45.217257,47.541004 z M 36.793257,46.725004 C 36.793257,47.269004 36.521257,47.541004 35.977257,47.541004 L 28.693257,47.541004 L 28.693257,40.725004 L 30.313257,40.725004 C 32.249257,40.725004 33.805257,41.249004 34.981257,42.297004 C 36.189257,43.377004 36.793257,44.853004 36.793257,46.725004 z M 35.173257,45.909004 C 35.157257,45.429004 34.989257,44.941004 34.669257,44.445004 C 34.389257,44.021004 34.033257,43.641004 33.601257,43.305004 C 32.761257,42.673004 31.861257,42.357004 30.901257,42.357004 L 30.313257,42.357004 L 30.313257,45.909004 L 35.173257,45.909004 z "
     id="path952" />
  <path
     style="fill:#bf004c;fill-rule:evenodd;stroke:#7f0033;stroke-opacity:1;stroke-width:0.625;stroke-linejoin:miter;stroke-linecap:butt;fill-opacity:1;stroke-dasharray:none;"
     d="M 20.298157,31.560030 C 17.799098,28.253816 16.639065,31.750001 16.845573,32.730911 C 17.064541,33.771010 17.688449,37.184942 20.674857,35.283766 C 23.598935,33.242324 23.861252,32.051914 23.506033,30.022089 C 23.116669,27.797156 22.652388,23.514971 18.081217,23.959057 C 14.015678,24.339062 11.970818,28.207058 11.060866,30.979409 C 10.397011,32.822031 11.141245,36.738296 11.535940,38.213318 C 12.180378,40.441713 14.493102,42.808005 16.315371,44.561843 C 13.814103,43.806111 10.941746,41.352596 10.398673,39.048284 C 9.7188029,36.881496 8.3177459,33.454468 8.8271179,30.979409 C 9.5364249,27.282282 12.927905,21.904999 17.443003,21.406202 C 23.083048,20.842766 25.240377,25.579955 25.739781,28.426553 C 26.304067,31.642987 24.838385,35.777626 20.993964,38.155727 C 18.178548,39.765520 14.581395,35.304814 14.292720,33.688232 C 14.049551,32.326483 18.699533,24.556802 20.298157,31.560030 z "
     id="path613"
     sodipodi:nodetypes="csssssscssssssc" />
  <path
     style="fill:url(#linearGradient578);fill-rule:evenodd;stroke:none;stroke-opacity:1;stroke-width:1pt;stroke-linejoin:miter;stroke-linecap:butt;fill-opacity:1;"
     d="M 9.4574389,32.240428 C 9.3606579,32.122141 9.8139309,26.389762 14.610697,23.142701 C 17.610283,21.091646 21.255685,22.385763 21.354467,22.506496 C 21.446547,22.619038 19.089453,21.583067 15.183281,23.842526 C 9.9014899,26.961309 9.5515199,32.355416 9.4574389,32.240428 z "
     id="path680"
     sodipodi:nodetypes="cssss" />
  <path
     style="fill:url(#linearGradient682);fill-rule:evenodd;stroke:none;stroke-opacity:1;stroke-width:1pt;stroke-linejoin:miter;stroke-linecap:butt;fill-opacity:1;"
     d="M 15.056041,32.685771 C 14.889782,32.685771 16.636122,30.164228 17.600860,29.250266 C 17.844911,29.019060 18.926391,29.180946 18.682407,29.250266 C 16.776319,29.809897 15.250297,32.685771 15.056041,32.685771 z "
     id="path681"
     sodipodi:nodetypes="csss" />
  <path
     style="fill:url(#linearGradient685);fill-rule:evenodd;stroke:none;stroke-opacity:1;stroke-width:1pt;stroke-linejoin:miter;stroke-linecap:butt;fill-opacity:1;"
     d="M 19.064130,36.503000 C 18.969775,36.419129 22.280947,36.271749 24.090147,32.240428 C 24.875822,30.553379 23.427219,26.943244 23.517563,27.023550 C 23.618081,27.112899 25.539142,31.156585 24.662732,32.749392 C 22.887595,36.089145 19.160637,36.588784 19.064130,36.503000 z "
     id="path683"
     sodipodi:nodetypes="cssss" />
</svg>
