<?xml version="1.0" encoding="UTF-8" standalone="no"?>
<!DOCTYPE svg PUBLIC "-//W3C//DTD SVG 20010904//EN"
"http://www.w3.org/TR/2001/REC-SVG-20010904/DTD/svg10.dtd">
<!-- Created with Inkscape (http://www.inkscape.org/) -->
<svg
   version="1.0"
   x="0"
   y="0"
   width="48pt"
   height="48pt"
   id="svg1"
   sodipodi:version="0.32"
   inkscape:version="0.38"
   sodipodi:docname="gnome-mime-application-x-jar.svg"
   sodipodi:docbase="/home/dan/Projects/Lila-icons/scalable/mimetypes"
   xmlns="http://www.w3.org/2000/svg"
   xmlns:inkscape="http://www.inkscape.org/namespaces/inkscape"
   xmlns:sodipodi="http://sodipodi.sourceforge.net/DTD/sodipodi-0.dtd"
   xmlns:xlink="http://www.w3.org/1999/xlink">
  <sodipodi:namedview
     id="base"
     pagecolor="#ffffff"
     bordercolor="#666666"
     borderopacity="1.0"
     inkscape:pageopacity="0.0"
     inkscape:pageshadow="2"
     inkscape:zoom="5.6400000"
     inkscape:cx="29.853687"
     inkscape:cy="21.920706"
     inkscape:window-width="640"
     inkscape:window-height="503"
     inkscape:window-x="37"
     inkscape:window-y="408"
     showguides="true"
     snaptoguides="true" />
  <defs
     id="defs3">
    <linearGradient
       id="linearGradient570">
      <stop
         style="stop-color:#ffffff;stop-opacity:1;"
         offset="0"
         id="stop571" />
      <stop
         style="stop-color:#ffffff;stop-opacity:0;"
         offset="1"
         id="stop572" />
    </linearGradient>
    <linearGradient
       id="linearGradient563">
      <stop
         style="stop-color:#d9cce6;stop-opacity:1;"
         offset="0.00000000"
         id="stop564" />
      <stop
         style="stop-color:#73667f;stop-opacity:1;"
         offset="1.00000000"
         id="stop565" />
    </linearGradient>
    <linearGradient
       x1="0.01973684"
       y1="0.00000000"
       x2="0.98026317"
       y2="0.96875000"
       id="linearGradient566"
       xlink:href="#linearGradient563" />
    <linearGradient
       x1="0.007275"
       y1="0.062497"
       x2="1.003636"
       y2="0.968750"
       id="linearGradient569"
       xlink:href="#linearGradient570" />
    <linearGradient
       x1="0.017699"
       y1="0.007811"
       x2="0.982301"
       y2="0.992187"
       id="linearGradient573"
       xlink:href="#linearGradient570" />
    <linearGradient
       x1="0.040005"
       y1="0.015624"
       x2="1.000000"
       y2="0.984375"
       id="linearGradient575"
       xlink:href="#linearGradient570" />
    <linearGradient
       id="linearGradient578"
       xlink:href="#linearGradient570" />
  </defs>
  <path
     d="M 4.3319537 47.873335 C 5.5354626 49.08791 32.414949 55.868816 34.128038 55.495694 C 35.62272 55.308702 57.235768 45.549036 58.103536 44.547352 C 59.311466 42.960228 59.076803 14.61038 57.964972 13.3653 C 56.728509 11.783464 29.977412 8.6103101 28.168778 8.6533255 C 26.523477 8.8185403 4.7976325 13.532396 3.9162388 14.751165 C 3.2688576 15.748208 3.1247203 46.794797 4.3319537 47.873335 z "
     style="font-size:12;opacity:0.302675;fill-rule:evenodd;stroke-width:12.5;"
     id="path1168" />
  <path
     d="M 4.010611 45.413592 C 5.1626968 46.576279 30.893688 53.067459 32.533582 52.710287 C 33.964399 52.531272 54.653991 43.188604 55.484682 42.229719 C 56.641001 40.710399 56.416364 13.571863 55.352037 12.37998 C 54.168404 10.865731 28.560298 7.8281654 26.82894 7.8693346 C 25.25394 8.0275058 4.4563917 12.539925 3.6126274 13.706627 C 2.992905 14.661066 2.8549262 44.381133 4.010611 45.413592 z "
     style="font-size:12;fill:url(#linearGradient566);fill-rule:evenodd;stroke:#261933;stroke-width:1.875;stroke-dasharray:none;"
     id="path1164" />
  <path
     d="M 5.0719434 44.352349 C 4.5987439 43.642541 3.9794786 15.751129 4.9392786 14.900626 C 5.5970982 14.332895 29.941467 18.441686 30.410962 19.145973 C 30.825831 19.768334 11.65524 15.004167 7.5926113 18.880586 C 4.3212608 21.995866 5.4831918 44.969189 5.0719434 44.352349 z "
     style="font-size:12;opacity:0.990000;fill:url(#linearGradient573);fill-rule:evenodd;stroke:none;stroke-width:0.105861pt;"
     id="path1165" />
  <path
     d="M 33.197014 50.056975 C 32.832639 49.738123 32.229866 20.05564 32.931619 19.278622 C 33.690219 18.424426 52.862291 14.314057 53.229417 14.635347 C 53.569762 14.933138 36.707895 18.09034 35.05424 21.135954 C 32.494519 25.690205 33.540107 50.357204 33.197014 50.056975 z "
     style="font-size:12;opacity:0.990000;fill:url(#linearGradient575);fill-rule:evenodd;stroke:none;stroke-width:0.105861pt;"
     id="path1166" />
  <path
     d="M 9.3171936 13.44133 C 9.3171936 13.173935 25.266961 9.3573257 27.359729 9.3287384 C 29.067691 9.3036461 46.198125 11.450417 46.198125 11.716647 C 46.198125 11.980994 33.612199 10.628286 27.359729 10.920683 C 21.318556 11.203222 9.3171936 13.70462 9.3171936 13.44133 z "
     style="font-size:12;opacity:0.990000;fill:url(#linearGradient569);fill-rule:evenodd;stroke:none;stroke-width:0.105861pt;"
     id="path1167" />
  <rect
     style="fill:#000000;fill-opacity:0.30000001;fill-rule:evenodd;stroke:none;stroke-width:1.0000000pt;stroke-opacity:1.0000000;"
     id="rect937"
     x="28.640162"
     y="39.164196"
     rx="0.70483023"
     width="30.710464"
     height="12.888113" />
  <rect
     style="fill:#d9cce6;fill-opacity:0.80000001;fill-rule:evenodd;stroke:#261933;stroke-width:1.2500000;stroke-dasharray:none;"
     id="rect862"
     x="26.737149"
     y="37.575356"
     rx="0.69999999"
     width="30.500000"
     height="12.750523" />
  <text
     xml:space="preserve"
     style="fill:black;fill-opacity:1;stroke:none;font-family:helvetica;font-style:normal;font-weight:normal;font-size:12px;stroke-opacity:1;stroke-width:1pt;stroke-linejoin:miter;stroke-linecap:butt;"
     x="32.507458"
     y="45.730038"
     id="text863"><tspan
       id="tspan864"></tspan></text>
  <path
     style="font-size:12.000000;stroke-width:1.0000000pt;font-family:Radio Stars;"
     d="M 55.283330,44.025647 C 55.283330,44.569647 55.015330,44.841647 54.479330,44.841647 L 52.211330,44.841647 C 52.667330,45.025647 53.523330,45.369647 54.779330,45.873647 C 55.123330,46.009647 55.295330,46.249647 55.295330,46.593647 C 55.295330,46.809647 55.219330,47.005647 55.067330,47.181647 C 54.923330,47.349647 54.739330,47.433647 54.515330,47.433647 C 54.403330,47.433647 54.291330,47.409647 54.179330,47.361647 L 48.803330,45.201647 L 48.803330,46.617647 C 48.803330,46.873647 48.723330,47.073647 48.563330,47.217647 C 48.403330,47.353647 48.215330,47.421647 47.999330,47.421647 C 47.783330,47.421647 47.595330,47.353647 47.435330,47.217647 C 47.275330,47.073647 47.195330,46.873647 47.195330,46.617647 L 47.195330,41.433647 C 47.195330,40.889647 47.463330,40.617647 47.999330,40.617647 L 54.479330,40.617647 C 55.015330,40.617647 55.283330,40.889647 55.283330,41.433647 L 55.283330,44.025647 z M 53.675330,43.209647 L 53.675330,42.249647 L 48.803330,42.249647 L 48.803330,43.209647 L 53.675330,43.209647 z M 43.583330,45.621647 L 40.391330,45.621647 L 39.443330,47.061647 C 39.275330,47.317647 39.051330,47.445647 38.771330,47.445647 C 38.547330,47.445647 38.351330,47.369647 38.183330,47.217647 C 38.015330,47.057647 37.931330,46.865647 37.931330,46.641647 C 37.931330,46.489647 37.975330,46.341647 38.063330,46.197647 L 40.907330,41.601647 C 41.275330,41.009647 41.635330,40.713647 41.987330,40.713647 C 42.227330,40.713647 42.443330,40.805647 42.635330,40.989647 C 42.755330,41.101647 42.907330,41.305647 43.091330,41.601647 L 45.923330,46.197647 C 46.011330,46.341647 46.055330,46.489647 46.055330,46.641647 C 46.055330,46.865647 45.967330,47.053647 45.791330,47.205647 C 45.623330,47.357647 45.431330,47.433647 45.215330,47.433647 C 44.935330,47.433647 44.711330,47.309647 44.543330,47.061647 L 43.583330,45.621647 z M 41.219330,44.193647 L 42.743330,44.193647 L 41.987330,42.969647 L 41.219330,44.193647 z M 36.167330,46.617647 C 36.167330,47.161647 35.899330,47.433647 35.363330,47.433647 L 28.883330,47.433647 C 28.627330,47.433647 28.427330,47.353647 28.283330,47.193647 C 28.139330,47.033647 28.067330,46.841647 28.067330,46.617647 C 28.067330,46.393647 28.139330,46.201647 28.283330,46.041647 C 28.427330,45.881647 28.627330,45.801647 28.883330,45.801647 L 34.559330,45.801647 L 34.559330,41.433647 C 34.559330,41.177647 34.639330,40.981647 34.799330,40.845647 C 34.959330,40.701647 35.147330,40.629647 35.363330,40.629647 C 35.579330,40.629647 35.767330,40.701647 35.927330,40.845647 C 36.087330,40.981647 36.167330,41.177647 36.167330,41.433647 L 36.167330,46.617647 z "
     id="path1115" />
</svg>
