<?xml version="1.0" encoding="UTF-8" standalone="no"?>
<!DOCTYPE svg PUBLIC "-//W3C//DTD SVG 20010904//EN"
"http://www.w3.org/TR/2001/REC-SVG-20010904/DTD/svg10.dtd">
<!-- Created with Inkscape (http://www.inkscape.org/) -->
<svg
   version="1.0"
   x="0"
   y="0"
   width="48pt"
   height="48pt"
   id="svg1"
   sodipodi:version="0.32"
   inkscape:version="0.38.1"
   sodipodi:docname="gnome-mime-x-directory-smb-workgroup.svg"
   sodipodi:docbase="/root/Desktop"
   xmlns="http://www.w3.org/2000/svg"
   xmlns:inkscape="http://www.inkscape.org/namespaces/inkscape"
   xmlns:sodipodi="http://sodipodi.sourceforge.net/DTD/sodipodi-0.dtd"
   xmlns:xlink="http://www.w3.org/1999/xlink">
  <sodipodi:namedview
     id="base"
     pagecolor="#ffffff"
     bordercolor="#666666"
     borderopacity="1.0"
     inkscape:pageopacity="0.0"
     inkscape:pageshadow="2"
     inkscape:zoom="6.9465337"
     inkscape:cx="33.840735"
     inkscape:cy="24.909248"
     inkscape:window-width="939"
     inkscape:window-height="694"
     inkscape:window-x="292"
     inkscape:window-y="75" />
  <defs
     id="defs3">
    <linearGradient
       id="linearGradient1021">
      <stop
         offset="0.0000000"
         style="stop-color:#0000ff;stop-opacity:1.0000000;"
         id="stop1023" />
      <stop
         offset="1.0000000"
         style="stop-color:#00007f;stop-opacity:1.0000000;"
         id="stop1022" />
    </linearGradient>
    <linearGradient
       id="linearGradient1018">
      <stop
         offset="0.0000000"
         style="stop-color:#00ff00;stop-opacity:1.0000000;"
         id="stop1020" />
      <stop
         offset="1.0000000"
         style="stop-color:#008700;stop-opacity:1.0000000;"
         id="stop1019" />
    </linearGradient>
    <linearGradient
       id="linearGradient1015">
      <stop
         offset="0.0000000"
         style="stop-color:#d7a600;stop-opacity:1.0000000;"
         id="stop1017" />
      <stop
         offset="1.0000000"
         style="stop-color:#fff300;stop-opacity:1.0000000;"
         id="stop1016" />
    </linearGradient>
    <linearGradient
       id="linearGradient1012">
      <stop
         offset="0.0000000"
         style="stop-color:#ffffff;stop-opacity:1.0000000;"
         id="stop1014" />
      <stop
         offset="1.0000000"
         style="stop-color:#ffffff;stop-opacity:0.0000000;"
         id="stop1013" />
    </linearGradient>
    <linearGradient
       id="linearGradient1152">
      <stop
         offset="0.00000000"
         style="stop-color:#ffffff;stop-opacity:1;"
         id="stop1154" />
      <stop
         offset="1.00000000"
         style="stop-color:#ffffff;stop-opacity:0;"
         id="stop1153" />
    </linearGradient>
    <linearGradient
       id="linearGradient1149">
      <stop
         offset="0.00000000"
         style="stop-color:#ffffff;stop-opacity:1;"
         id="stop1151" />
      <stop
         offset="1.00000000"
         style="stop-color:#ffffff;stop-opacity:0;"
         id="stop1150" />
    </linearGradient>
    <linearGradient
       id="linearGradient1146">
      <stop
         offset="0.00000000"
         style="stop-color:#ffffff;stop-opacity:1;"
         id="stop1148" />
      <stop
         offset="1.00000000"
         style="stop-color:#d9cce6;stop-opacity:1;"
         id="stop1147" />
    </linearGradient>
    <linearGradient
       id="linearGradient778">
      <stop
         style="stop-color:#d9cce6;stop-opacity:1;"
         offset="0.00000000"
         id="stop780" />
      <stop
         style="stop-color:#73667f;stop-opacity:1;"
         offset="1.00000000"
         id="stop779" />
    </linearGradient>
    <linearGradient
       id="linearGradient570">
      <stop
         style="stop-color:#ffffff;stop-opacity:1;"
         offset="0"
         id="stop571" />
      <stop
         style="stop-color:#ffffff;stop-opacity:0;"
         offset="1"
         id="stop572" />
    </linearGradient>
    <linearGradient
       id="linearGradient563">
      <stop
         style="stop-color:#cac5fa;stop-opacity:1;"
         offset="0"
         id="stop564" />
      <stop
         style="stop-color:#9500ed;stop-opacity:1;"
         offset="1"
         id="stop565" />
    </linearGradient>
    <linearGradient
       x1="0.02542373"
       y1="0.00781250"
       x2="0.97457629"
       y2="0.98437500"
       id="linearGradient566"
       xlink:href="#linearGradient778" />
    <linearGradient
       x1="0.000005"
       y1="0.000006"
       x2="0.981818"
       y2="0.850001"
       id="linearGradient569"
       xlink:href="#linearGradient570" />
    <linearGradient
       x1="0.007752"
       y1="0.015627"
       x2="0.976744"
       y2="0.992188"
       id="linearGradient573"
       xlink:href="#linearGradient570" />
    <linearGradient
       x1="-0.146345"
       y1="0.000002"
       x2="0.975610"
       y2="0.703125"
       id="linearGradient575"
       xlink:href="#linearGradient570" />
    <linearGradient
       x1="0.00520833"
       y1="0.03125007"
       x2="1.00520825"
       y2="0.98437488"
       id="linearGradient578"
       xlink:href="#linearGradient778" />
    <linearGradient
       x1="0.018434"
       y1="0.031280"
       x2="1.009217"
       y2="1.007813"
       id="linearGradient583"
       xlink:href="#linearGradient570" />
    <linearGradient
       id="linearGradient637"
       xlink:href="#linearGradient778"
       x1="0.00833333"
       y1="0.00781250"
       x2="0.98333329"
       y2="0.96875006" />
    <linearGradient
       id="linearGradient640"
       xlink:href="#linearGradient1146"
       x1="0.03378378"
       y1="0.02580645"
       x2="0.98648649"
       y2="0.95483869" />
    <linearGradient
       id="linearGradient645"
       xlink:href="#linearGradient1021"
       x1="0.0071428572"
       y1="0.023437500"
       x2="1.9659106"
       y2="1.9486017" />
    <linearGradient
       x1="0.056578"
       y1="0.023450"
       x2="0.867923"
       y2="0.976563"
       id="linearGradient646"
       xlink:href="#linearGradient570" />
    <linearGradient
       x1="0.000007"
       y1="0.000000"
       x2="0.951807"
       y2="0.984375"
       id="linearGradient647"
       xlink:href="#linearGradient570" />
    <linearGradient
       x1="0.056605"
       y1="0.015625"
       x2="0.943396"
       y2="0.984375"
       id="linearGradient675"
       xlink:href="#linearGradient570" />
    <linearGradient
       x1="0.011765"
       y1="-0.000000"
       x2="1.011765"
       y2="1.015625"
       id="linearGradient676"
       xlink:href="#linearGradient570" />
    <defs
       id="defs613">
      <linearGradient
         id="linearGradient1535"
         x1="0.00000000"
         y1="0.00000000"
         x2="1.00000000"
         y2="0.00000000"
         gradientUnits="objectBoundingBox"
         spreadMethod="pad"
         xlink:href="#linearGradient1149" />
      <linearGradient
         x1="0.000000"
         y1="0.000000"
         x2="1.000000"
         y2="0.000000"
         id="linearGradient1528"
         xlink:href="#linearGradient778"
         gradientUnits="objectBoundingBox"
         spreadMethod="pad" />
      <linearGradient
         id="linearGradient642"
         x1="0.00000000"
         y1="0.00000000"
         x2="1.00000000"
         y2="0.00000000"
         gradientUnits="objectBoundingBox"
         spreadMethod="pad"
         xlink:href="#linearGradient1152" />
      <linearGradient
         id="linearGradient635"
         x1="0.00000000"
         y1="0.00000000"
         x2="1.00000000"
         y2="0.00000000"
         gradientUnits="objectBoundingBox"
         spreadMethod="pad"
         xlink:href="#linearGradient1146" />
      <linearGradient
         x1="0.984000"
         y1="0.960938"
         x2="-0.008000"
         y2="0.007813"
         id="linearGradient638"
         xlink:href="#linearGradient1528" />
      <linearGradient
         x1="0.027523"
         y1="0.023438"
         x2="1.000000"
         y2="1.015625"
         id="linearGradient641"
         xlink:href="#linearGradient642" />
      <linearGradient
         x1="-0.000009"
         y1="0.015624"
         x2="0.727272"
         y2="0.984375"
         id="linearGradient1522"
         xlink:href="#linearGradient642" />
      <linearGradient
         x1="0.027523"
         y1="0.007813"
         x2="1.009174"
         y2="0.992188"
         id="linearGradient1527"
         xlink:href="#linearGradient1535" />
      <linearGradient
         x1="0.010743"
         y1="0.031251"
         x2="0.967741"
         y2="0.992187"
         id="linearGradient1532"
         xlink:href="#linearGradient635" />
      <linearGradient
         x1="0.007275"
         y1="-0.012819"
         x2="0.996364"
         y2="0.974359"
         id="linearGradient1534"
         xlink:href="#linearGradient635" />
      <linearGradient
         x1="0.017094"
         y1="0.000000"
         x2="0.974359"
         y2="0.984375"
         id="linearGradient1539"
         xlink:href="#linearGradient1535" />
      <linearGradient
         id="linearGradient1567"
         xlink:href="#linearGradient1535" />
    </defs>
  </defs>
  <path
     d="M 11.118912,50.550149 C 11.637950,51.254459 22.373752,55.907558 23.174620,56.003635 C 24.060400,56.100629 29.025846,53.671167 29.358993,53.078009 C 29.848828,52.264305 29.740903,35.947270 29.294647,35.215138 C 28.883329,34.399558 18.693370,32.821505 18.050339,32.835498 C 17.370020,32.848694 11.519547,33.684903 11.195935,34.245665 C 10.942956,34.752909 10.465349,49.855888 11.118912,50.550149 z "
     style="font-size:12;opacity:0.296369;fill-rule:evenodd;stroke-width:12.5;"
     id="path707"
     sodipodi:nodetypes="ccccccc" />
  <path
     d="M 10.732389,49.517061 C 11.229311,50.191359 21.664076,54.646184 22.430818,54.738173 C 23.278854,54.831034 27.962183,52.675381 28.281132,52.107503 C 28.750097,51.328472 28.560896,35.536409 28.133653,34.835473 C 27.739864,34.054639 18.205319,32.121968 17.589687,32.135366 C 16.938355,32.148000 11.115953,33.370440 10.806130,33.907312 C 10.563929,34.392940 10.106675,48.852381 10.732389,49.517061 z "
     style="font-size:12.000000;fill:url(#linearGradient566);fill-rule:evenodd;stroke:#261933;stroke-width:0.99979138;"
     id="path677"
     sodipodi:nodetypes="ccccccc" />
  <path
     d="M 11.248522,48.757662 C 11.078533,48.458407 10.995330,35.274015 11.617174,34.919858 C 12.090297,34.692741 21.802014,37.043409 21.969519,37.338280 C 22.121540,37.605926 14.007394,35.661809 12.741100,36.891195 C 11.521307,38.156674 11.398056,49.020928 11.248522,48.757662 z "
     style="font-size:12;opacity:0.7;fill:url(#linearGradient573);fill-rule:evenodd;stroke:none;stroke-width:0.0958748pt;"
     id="path678"
     sodipodi:nodetypes="ccccc" />
  <path
     d="M 22.677368,53.820290 C 22.487594,53.632106 22.404152,37.769260 22.754788,37.234745 C 23.036032,36.777879 27.331976,35.442508 27.531116,35.639990 C 27.700628,35.808156 23.982467,36.611686 23.652191,37.914022 C 22.384892,42.911849 22.856293,53.997699 22.677368,53.820290 z "
     style="font-size:12;opacity:0.7;fill:url(#linearGradient575);fill-rule:evenodd;stroke:none;stroke-width:0.0958748pt;"
     id="path679"
     sodipodi:nodetypes="ccccc" />
  <path
     d="M 12.575700,34.244844 C 12.563463,34.174788 15.838899,32.958965 17.294728,32.979147 C 19.894266,33.015186 24.729472,34.342791 24.741849,34.413554 C 24.754036,34.483392 19.779524,33.784592 17.199386,33.748826 C 15.724156,33.728370 12.588029,34.315445 12.575700,34.244844 z "
     style="font-size:12;opacity:0.7;fill:url(#linearGradient569);fill-rule:evenodd;stroke:none;stroke-width:0.0958748pt;"
     id="path680" />
  <ellipse
     cx="410.204895"
     cy="422.408997"
     rx="11.720139"
     ry="11.720139"
     transform="matrix(6.951385e-2,0.000000,0.000000,7.954733e-2,-2.857881,16.18128)"
     style="font-size:12;fill:#80ff80;fill-rule:evenodd;stroke:#003f00;stroke-width:6.25;stroke-linecap:round;stroke-linejoin:round;"
     id="path722" />
  <path
     d="M 11.686437,48.441931 C 9.5143145,48.553446 4.3585772,53.246659 5.2405233,54.988392 C 5.5263933,55.609730 8.2223132,58.134156 11.444748,58.123397 C 14.283185,58.113656 17.463215,55.316483 17.810081,54.342975 C 18.041432,53.559687 13.704135,48.338307 11.686437,48.441931 z "
     style="font-size:12;opacity:0.296369;fill-rule:evenodd;stroke-width:12.5;"
     id="path748" />
  <path
     d="M 11.395958,48.251280 C 9.4082331,48.353327 4.6902059,52.648119 5.4972570,54.241992 C 5.7588587,54.810582 8.2259148,57.120702 11.174786,57.110857 C 13.772261,57.101943 16.682328,54.542229 16.999748,53.651366 C 17.211457,52.934574 13.242366,48.156451 11.395958,48.251280 z "
     style="font-size:12.000000;fill:url(#linearGradient578);fill-rule:evenodd;stroke:#261933;stroke-width:0.99978918;"
     id="path746" />
  <path
     d="M 6.3082987,53.651366 C 6.3082987,53.505676 8.1487817,50.341172 11.174786,49.095058 C 11.761837,48.864056 13.091875,49.876820 13.091875,50.023163 C 13.091875,50.158077 11.774644,49.776029 11.174786,49.938779 C 8.3660816,50.765057 6.3082987,53.786882 6.3082987,53.651366 z "
     style="font-size:12;opacity:0.7;fill:url(#linearGradient583);fill-rule:evenodd;stroke:none;stroke-width:1pt;"
     id="path747" />
  <path
     d="M 3.0532419,53.103031 C 3.2740991,53.270731 4.2125924,53.727556 4.6770842,53.613620 C 5.0656891,53.469790 18.479721,48.456889 18.809805,47.868321 C 19.155074,47.225645 18.709374,34.721010 18.301524,34.296788 C 17.861501,33.834673 3.5682123,32.186349 3.1287153,32.171563 C 2.7304131,32.114211 1.7583554,32.506909 1.5707621,32.745709 C 1.1973833,33.216080 2.6416718,52.757433 3.0532419,53.103031 z "
     style="font-size:12;opacity:0.3;fill-rule:evenodd;stroke-width:12.5;"
     id="path839" />
  <path
     d="M 2.9917943,52.033684 C 3.2002514,52.191848 4.0854940,52.622763 4.5237183,52.515359 C 4.8903886,52.379633 17.544751,47.650601 17.856108,47.095361 C 18.181822,46.489076 17.761400,34.692546 17.376646,34.292304 C 16.961575,33.856399 3.4776032,32.301439 3.0630293,32.287478 C 2.6872818,32.233373 1.7702868,32.603807 1.5932950,32.829089 C 1.2410704,33.272836 2.6035301,51.707656 2.9917943,52.033684 z "
     style="font-size:12.000000;fill:url(#linearGradient637);fill-rule:evenodd;stroke:#261933;stroke-width:0.99979138;"
     id="path834" />
  <path
     d="M 4.2704778,51.713581 C 4.1616220,51.589012 2.8536149,33.427026 3.0317909,32.920541 C 3.1411077,32.769181 16.787973,34.533162 16.897113,34.658055 C 17.001040,34.777064 4.2507276,32.872630 3.7111291,33.789326 C 3.1253643,34.738597 4.3746886,51.832834 4.2704778,51.713581 z "
     style="font-size:12;opacity:0.7;fill:url(#linearGradient641);fill-rule:evenodd;stroke:none;stroke-width:1.03294pt;"
     id="path835" />
  <path
     d="M 3.2715573,51.439248 C 3.2311353,51.369824 2.0502802,39.009043 1.9928846,33.194878 C 1.9894415,32.988387 2.6664680,32.842245 2.7121023,32.920541 C 2.7463901,32.979418 2.2298924,33.446125 2.2326368,33.606403 C 2.2921211,39.421050 3.3110219,51.507008 3.2715573,51.439248 z "
     style="font-size:12;opacity:0.699936;fill:url(#linearGradient1522);fill-rule:evenodd;stroke:none;stroke-width:1.03294pt;"
     id="path836" />
  <path
     d="M 4.5470142,34.700011 C 4.3316426,35.013743 4.9639283,49.599538 5.2919141,49.872858 C 5.6306081,50.124104 16.274189,46.220790 16.539732,45.823957 C 16.790170,45.492292 16.447648,36.189429 16.279046,35.850822 C 16.062042,35.489780 4.7822774,34.399992 4.5470142,34.700011 z "
     style="font-size:12.000000;fill:#261933;fill-rule:evenodd;stroke:#261933;stroke-width:0.24661529;"
     id="path837" />
  <path
     d="M 5.4408728,49.063086 C 5.3581496,48.946471 4.6060870,35.484910 4.8077717,35.168865 C 5.0746989,34.808835 15.078936,35.904789 15.161660,36.021282 C 15.240377,36.132014 6.0949650,34.963591 5.2919141,35.850783 C 4.7445502,36.456377 5.5195185,49.173777 5.4408728,49.063086 z "
     style="font-size:12;opacity:0.699936;fill:url(#linearGradient1527);fill-rule:evenodd;stroke:none;stroke-width:0.962798pt;"
     id="path838" />
  <g
     id="g1305"
     style="opacity:0.650000;"
     transform="matrix(0.498459,0.000000,0.000000,0.570408,0.265643,26.50902)">
    <path
       d="M 17.272691 27.252745 C 17.079373 26.841056 14.203512 26.431351 13.725357 24.451189 C 13.241459 22.430942 15.836261 19.04623 18.768315 18.646001 C 22.697259 18.07773 28.347052 22.164601 29.009715 24.774806 C 29.751611 27.677994 20.665797 35.158075 17.848149 35.133412 C 15.113523 35.140955 14.168131 32.967056 14.331646 31.367743 C 14.507193 29.785358 17.387213 27.641809 17.272691 27.252745 z M 19.712331 22.661292 C 20.504876 21.733204 22.169508 22.919646 21.817621 23.756714 C 21.397421 24.675809 18.932136 23.574926 19.712331 22.661292 z "
       style="font-size:12;opacity:0.200000;fill:none;fill-rule:evenodd;stroke:url(#linearGradient640);stroke-width:0.537549;stroke-linejoin:round;"
       id="path594"
       transform="translate(0.000000,-0.179946)" />
    <path
       d="M 17.091377 27.225119 C 16.887315 26.790549 13.851613 26.358072 13.346882 24.267853 C 12.83609 22.13532 15.575111 18.562485 18.670129 18.140012 C 22.817444 17.540156 28.781253 21.854176 29.480746 24.609456 C 30.263877 27.674003 20.673073 35.569828 17.69882 35.543794 C 14.812203 35.551756 13.814267 33.257032 13.986869 31.568829 C 14.172173 29.898494 17.212265 27.635807 17.091377 27.225119 z M 19.666613 22.378473 C 20.503208 21.398802 22.26036 22.651186 21.888915 23.534778 C 21.445361 24.504956 18.843055 23.342886 19.666613 22.378473 z "
       style="font-size:12;opacity:0.201783;fill:none;fill-rule:evenodd;stroke:url(#linearGradient640);stroke-width:1.25;stroke-linejoin:round;"
       id="path1293"
       transform="translate(0.000000,-0.179946)" />
    <path
       d="M 17.091377 27.225119 C 16.887315 26.790549 13.851613 26.358072 13.346882 24.267853 C 12.83609 22.13532 15.575111 18.562485 18.670129 18.140012 C 22.817444 17.540156 28.781253 21.854176 29.480746 24.609456 C 30.263877 27.674003 20.673073 35.569828 17.69882 35.543794 C 14.812203 35.551756 13.814267 33.257032 13.986869 31.568829 C 14.172173 29.898494 17.212265 27.635807 17.091377 27.225119 z M 19.666613 22.378473 C 20.503208 21.398802 22.26036 22.651186 21.888915 23.534778 C 21.445361 24.504956 18.843055 23.342886 19.666613 22.378473 z "
       style="font-size:12;opacity:0.15;fill:none;fill-rule:evenodd;stroke:url(#linearGradient640);stroke-width:3.75;stroke-linejoin:round;"
       id="path1294"
       transform="translate(0.000000,-0.179946)" />
    <path
       d="M 17.091377 27.225119 C 16.887315 26.790549 13.851613 26.358072 13.346882 24.267853 C 12.83609 22.13532 15.575111 18.562485 18.670129 18.140012 C 22.817444 17.540156 28.781253 21.854176 29.480746 24.609456 C 30.263877 27.674003 20.673073 35.569828 17.69882 35.543794 C 14.812203 35.551756 13.814267 33.257032 13.986869 31.568829 C 14.172173 29.898494 17.212265 27.635807 17.091377 27.225119 z M 19.666613 22.378473 C 20.503208 21.398802 22.26036 22.651186 21.888915 23.534778 C 21.445361 24.504956 18.843055 23.342886 19.666613 22.378473 z "
       style="font-size:12;opacity:0.05;fill:none;fill-rule:evenodd;stroke:url(#linearGradient640);stroke-width:5;stroke-linejoin:round;"
       id="path1295"
       transform="translate(0.000000,-0.179946)" />
  </g>
  <path
     d="M 40.502339,50.518315 C 41.018119,51.217837 51.686557,55.839305 52.482400,55.934729 C 53.362620,56.031064 58.296909,53.618116 58.627965,53.028992 C 59.114727,52.220818 59.007480,36.014704 58.564024,35.287550 C 58.155287,34.477513 48.029268,32.910187 47.390272,32.924086 C 46.714223,32.937192 40.900460,33.767716 40.578878,34.324667 C 40.327486,34.828462 39.852878,49.828773 40.502339,50.518315 z "
     style="font-size:12;opacity:0.296369;fill-rule:evenodd;stroke-width:12.5;"
     id="path929"
     sodipodi:nodetypes="ccccccc" />
  <path
     d="M 40.118241,49.492249 C 40.612044,50.161963 50.981333,54.586507 51.743265,54.677870 C 52.585978,54.770099 57.239920,52.629101 57.556869,52.065083 C 58.022891,51.291347 57.834876,35.606637 57.410315,34.910465 C 57.018996,34.134939 47.544280,32.215405 46.932511,32.228712 C 46.285266,32.241260 40.499398,33.455392 40.191519,33.988614 C 39.950838,34.470940 39.496453,48.832088 40.118241,49.492249 z "
     style="font-size:12.000000;fill:url(#linearGradient566);fill-rule:evenodd;stroke:#261933;stroke-width:0.99325639;"
     id="path930"
     sodipodi:nodetypes="ccccccc" />
  <path
     d="M 40.631135,48.738013 C 40.462212,48.440792 40.379531,35.346027 40.997473,34.994277 C 41.467627,34.768703 51.118407,37.103391 51.284860,37.396258 C 51.435927,37.662085 43.372695,35.731184 42.114348,36.952212 C 40.902209,38.209089 40.779732,48.999489 40.631135,48.738013 z "
     style="font-size:12;opacity:0.7;fill:url(#linearGradient573);fill-rule:evenodd;stroke:none;stroke-width:0.0958748pt;"
     id="path931"
     sodipodi:nodetypes="ccccc" />
  <path
     d="M 51.988268,53.766226 C 51.799683,53.579321 51.716767,37.824308 52.065201,37.293428 C 52.344682,36.839667 56.613669,35.513374 56.811559,35.709513 C 56.980007,35.876535 53.285176,36.674605 52.956973,37.968087 C 51.697628,42.931939 52.166069,53.942429 51.988268,53.766226 z "
     style="font-size:12;opacity:0.7;fill:url(#linearGradient575);fill-rule:evenodd;stroke:none;stroke-width:0.0958748pt;"
     id="path932"
     sodipodi:nodetypes="ccccc" />
  <path
     d="M 41.949985,34.323851 C 41.937826,34.254271 45.192708,33.046713 46.639403,33.066759 C 49.222629,33.102553 54.027495,34.421131 54.039794,34.491414 C 54.051905,34.560777 49.108606,33.866727 46.544659,33.831204 C 45.078686,33.810889 41.962236,34.393972 41.949985,34.323851 z "
     style="font-size:12;opacity:0.7;fill:url(#linearGradient569);fill-rule:evenodd;stroke:none;stroke-width:0.0958748pt;"
     id="path933" />
  <ellipse
     cx="410.204895"
     cy="422.408997"
     rx="11.720139"
     ry="11.720139"
     transform="matrix(6.907767e-2,0.000000,0.000000,7.900658e-2,26.61324,16.38307)"
     style="font-size:12;fill:#80ff80;fill-rule:evenodd;stroke:#003f00;stroke-width:6.25;stroke-linecap:round;stroke-linejoin:round;"
     id="ellipse934" />
  <path
     d="M 41.066303,48.424428 C 38.907810,48.535186 33.784424,53.196495 34.660836,54.926389 C 34.944912,55.543502 37.623915,58.050767 40.826130,58.040082 C 43.646756,58.030407 46.806832,55.252248 47.151521,54.285358 C 47.381420,53.507394 43.071339,48.321509 41.066303,48.424428 z "
     style="font-size:12;opacity:0.296369;fill-rule:evenodd;stroke-width:12.5;"
     id="path935" />
  <path
     d="M 40.777646,48.235074 C 38.802394,48.336427 34.113971,52.602023 34.915958,54.185061 C 35.175918,54.749787 37.627494,57.044202 40.557862,57.034425 C 43.139038,57.025572 46.030846,54.483257 46.346274,53.598450 C 46.556654,52.886530 42.612469,48.140890 40.777646,48.235074 z "
     style="font-size:12.000000;fill:url(#linearGradient578);fill-rule:evenodd;stroke:#261933;stroke-width:0.99325418;"
     id="path936" />
  <path
     d="M 35.721910,53.598450 C 35.721910,53.453751 37.550846,50.310759 40.557862,49.073116 C 41.141230,48.843683 42.462922,49.849562 42.462922,49.994911 C 42.462922,50.128908 41.153956,49.749457 40.557862,49.911101 C 37.766782,50.731762 35.721910,53.733046 35.721910,53.598450 z "
     style="font-size:12;opacity:0.7;fill:url(#linearGradient583);fill-rule:evenodd;stroke:none;stroke-width:1pt;"
     id="path937" />
  <path
     d="M 32.487280,53.053843 C 32.706750,53.220404 33.639354,53.674122 34.100931,53.560961 C 34.487099,53.418108 47.816961,48.439286 48.144973,47.854718 C 48.488074,47.216410 48.045172,34.796779 47.639881,34.375442 C 47.202620,33.916468 32.999018,32.279349 32.562278,32.264664 C 32.166476,32.207701 31.200517,32.597731 31.014102,32.834907 C 30.643066,33.302082 32.078292,52.710595 32.487280,53.053843 z "
     style="font-size:12;opacity:0.3;fill-rule:evenodd;stroke-width:12.5;"
     id="path938" />
  <path
     d="M 32.426216,51.991765 C 32.633366,52.148855 33.513054,52.576839 33.948528,52.470167 C 34.312898,52.335363 46.887857,47.638479 47.197259,47.087012 C 47.520930,46.484849 47.103145,34.768510 46.720806,34.370989 C 46.308340,33.938047 32.908978,32.393657 32.497005,32.379791 C 32.123615,32.326054 31.212374,32.693970 31.036492,32.917719 C 30.686478,33.358451 32.040389,51.667953 32.426216,51.991765 z "
     style="font-size:12.000000;fill:url(#linearGradient637);fill-rule:evenodd;stroke:#261933;stroke-width:0.99325639;"
     id="path939" />
  <path
     d="M 33.696877,51.673838 C 33.588704,51.550116 32.288904,33.511592 32.465963,33.008551 C 32.574594,32.858219 46.135828,34.610209 46.244282,34.734254 C 46.347557,34.852454 33.677251,32.960965 33.141038,33.871431 C 32.558949,34.814248 33.800433,51.792281 33.696877,51.673838 z "
     style="font-size:12;opacity:0.7;fill:url(#linearGradient641);fill-rule:evenodd;stroke:none;stroke-width:1.03294pt;"
     id="path940" />
  <path
     d="M 32.704224,51.401369 C 32.664055,51.332417 31.490610,39.055665 31.433576,33.281024 C 31.430154,33.075936 32.102932,32.930788 32.148280,33.008551 C 32.182352,33.067027 31.669096,33.530562 31.671823,33.689750 C 31.730934,39.464871 32.743442,51.468670 32.704224,51.401369 z "
     style="font-size:12;opacity:0.699936;fill:url(#linearGradient1522);fill-rule:evenodd;stroke:none;stroke-width:1.03294pt;"
     id="path941" />
  <path
     d="M 33.971678,34.775925 C 33.757658,35.087524 34.385977,49.574167 34.711903,49.845628 C 35.048472,50.095166 45.625266,46.218386 45.889143,45.824251 C 46.138011,45.494841 45.797638,36.255216 45.630093,35.918912 C 45.414452,35.560324 34.205465,34.477945 33.971678,34.775925 z "
     style="font-size:12.000000;fill:#261933;fill-rule:evenodd;stroke:#261933;stroke-width:0.24500330;"
     id="path942" />
  <path
     d="M 34.859928,49.041361 C 34.777724,48.925539 34.030380,35.555488 34.230799,35.241591 C 34.496051,34.884008 44.437514,35.972512 44.519718,36.088213 C 44.597942,36.198193 35.509916,35.037711 34.711903,35.918872 C 34.167975,36.520351 34.938080,49.151299 34.859928,49.041361 z "
     style="font-size:12;opacity:0.699936;fill:url(#linearGradient1527);fill-rule:evenodd;stroke:none;stroke-width:0.962798pt;"
     id="path943" />
  <g
     id="g944"
     style="opacity:0.650000;"
     transform="matrix(0.495332,0.000000,0.000000,0.566530,29.71716,26.64061)">
    <path
       d="M 17.272691 27.252745 C 17.079373 26.841056 14.203512 26.431351 13.725357 24.451189 C 13.241459 22.430942 15.836261 19.04623 18.768315 18.646001 C 22.697259 18.07773 28.347052 22.164601 29.009715 24.774806 C 29.751611 27.677994 20.665797 35.158075 17.848149 35.133412 C 15.113523 35.140955 14.168131 32.967056 14.331646 31.367743 C 14.507193 29.785358 17.387213 27.641809 17.272691 27.252745 z M 19.712331 22.661292 C 20.504876 21.733204 22.169508 22.919646 21.817621 23.756714 C 21.397421 24.675809 18.932136 23.574926 19.712331 22.661292 z "
       style="font-size:12;opacity:0.200000;fill:none;fill-rule:evenodd;stroke:url(#linearGradient640);stroke-width:0.537549;stroke-linejoin:round;"
       id="path945"
       transform="translate(0.000000,-0.179946)" />
    <path
       d="M 17.091377 27.225119 C 16.887315 26.790549 13.851613 26.358072 13.346882 24.267853 C 12.83609 22.13532 15.575111 18.562485 18.670129 18.140012 C 22.817444 17.540156 28.781253 21.854176 29.480746 24.609456 C 30.263877 27.674003 20.673073 35.569828 17.69882 35.543794 C 14.812203 35.551756 13.814267 33.257032 13.986869 31.568829 C 14.172173 29.898494 17.212265 27.635807 17.091377 27.225119 z M 19.666613 22.378473 C 20.503208 21.398802 22.26036 22.651186 21.888915 23.534778 C 21.445361 24.504956 18.843055 23.342886 19.666613 22.378473 z "
       style="font-size:12;opacity:0.201783;fill:none;fill-rule:evenodd;stroke:url(#linearGradient640);stroke-width:1.25;stroke-linejoin:round;"
       id="path946"
       transform="translate(0.000000,-0.179946)" />
    <path
       d="M 17.091377 27.225119 C 16.887315 26.790549 13.851613 26.358072 13.346882 24.267853 C 12.83609 22.13532 15.575111 18.562485 18.670129 18.140012 C 22.817444 17.540156 28.781253 21.854176 29.480746 24.609456 C 30.263877 27.674003 20.673073 35.569828 17.69882 35.543794 C 14.812203 35.551756 13.814267 33.257032 13.986869 31.568829 C 14.172173 29.898494 17.212265 27.635807 17.091377 27.225119 z M 19.666613 22.378473 C 20.503208 21.398802 22.26036 22.651186 21.888915 23.534778 C 21.445361 24.504956 18.843055 23.342886 19.666613 22.378473 z "
       style="font-size:12;opacity:0.15;fill:none;fill-rule:evenodd;stroke:url(#linearGradient640);stroke-width:3.75;stroke-linejoin:round;"
       id="path947"
       transform="translate(0.000000,-0.179946)" />
    <path
       d="M 17.091377 27.225119 C 16.887315 26.790549 13.851613 26.358072 13.346882 24.267853 C 12.83609 22.13532 15.575111 18.562485 18.670129 18.140012 C 22.817444 17.540156 28.781253 21.854176 29.480746 24.609456 C 30.263877 27.674003 20.673073 35.569828 17.69882 35.543794 C 14.812203 35.551756 13.814267 33.257032 13.986869 31.568829 C 14.172173 29.898494 17.212265 27.635807 17.091377 27.225119 z M 19.666613 22.378473 C 20.503208 21.398802 22.26036 22.651186 21.888915 23.534778 C 21.445361 24.504956 18.843055 23.342886 19.666613 22.378473 z "
       style="font-size:12;opacity:0.05;fill:none;fill-rule:evenodd;stroke:url(#linearGradient640);stroke-width:5;stroke-linejoin:round;"
       id="path948"
       transform="translate(0.000000,-0.179946)" />
  </g>
  <path
     d="M 25.083724,23.397452 C 25.713647,24.192644 38.743041,29.446162 39.715007,29.554638 C 40.790025,29.664145 46.816287,26.921196 47.220606,26.251499 C 47.815091,25.332797 47.684108,6.9102719 47.142515,6.0836692 C 46.643324,5.1628481 34.276385,3.3811700 33.495978,3.3969690 C 32.670314,3.4118673 25.569949,4.3559769 25.177201,4.9890982 C 24.870174,5.5617953 24.290534,22.613607 25.083724,23.397452 z "
     style="font-size:12;opacity:0.296369;fill-rule:evenodd;stroke-width:12.5;"
     id="path949"
     sodipodi:nodetypes="ccccccc" />
  <path
     d="M 24.614623,22.231059 C 25.217706,22.992366 37.881751,28.022026 38.812301,28.125884 C 39.841509,28.230728 45.525382,25.796918 45.912473,25.155763 C 46.481627,24.276208 46.252004,6.4463956 45.733487,5.6550130 C 45.255567,4.7734228 33.684067,2.5913663 32.936914,2.6064931 C 32.146429,2.6207578 25.080132,4.0009382 24.704118,4.6070853 C 24.410171,5.1553767 23.855232,21.480611 24.614623,22.231059 z "
     style="font-size:12.000000;fill:url(#linearGradient566);fill-rule:evenodd;stroke:#261933;stroke-width:1.1703296;"
     id="path950"
     sodipodi:nodetypes="ccccccc" />
  <path
     d="M 25.241022,21.373670 C 25.034717,21.035799 24.933737,6.1501435 25.688433,5.7502872 C 26.262633,5.4938634 38.049161,8.1478520 38.252448,8.4807721 C 38.436948,8.7829551 28.589300,6.5879763 27.052475,7.9759973 C 25.572085,9.4047690 25.422503,21.670907 25.241022,21.373670 z "
     style="font-size:12;opacity:0.7;fill:url(#linearGradient573);fill-rule:evenodd;stroke:none;stroke-width:0.0958748pt;"
     id="path951"
     sodipodi:nodetypes="ccccc" />
  <path
     d="M 39.111522,27.089561 C 38.881205,26.877094 38.779938,8.9673645 39.205482,8.3638786 C 39.546813,7.8480596 44.760538,6.3403780 45.002225,6.5633421 C 45.207949,6.7532072 40.695442,7.6604226 40.294606,9.1308061 C 38.756562,14.773535 39.328674,27.289863 39.111522,27.089561 z "
     style="font-size:12;opacity:0.7;fill:url(#linearGradient575);fill-rule:evenodd;stroke:none;stroke-width:0.0958748pt;"
     id="path952"
     sodipodi:nodetypes="ccccc" />
  <path
     d="M 26.851738,4.9881710 C 26.836889,4.9090760 30.812086,3.5363670 32.578938,3.5591539 C 35.733839,3.5998434 41.602037,5.0987560 41.617059,5.1786508 C 41.631850,5.2575006 35.594583,4.4685292 32.463227,4.4281488 C 30.672831,4.4050539 26.866700,5.0678820 26.851738,4.9881710 z "
     style="font-size:12;opacity:0.7;fill:url(#linearGradient569);fill-rule:evenodd;stroke:none;stroke-width:0.0958748pt;"
     id="path953" />
  <ellipse
     cx="410.204895"
     cy="422.408997"
     rx="11.720139"
     ry="11.720139"
     transform="matrix(8.436477e-2,0.000000,0.000000,8.981182e-2,8.120940,-15.40625)"
     style="font-size:12;fill:#80ff80;fill-rule:evenodd;stroke:#003f00;stroke-width:6.25;stroke-linecap:round;stroke-linejoin:round;"
     id="ellipse954" />
  <path
     d="M 25.772495,21.017199 C 23.136320,21.143103 16.879113,26.441911 17.949477,28.408391 C 18.296421,29.109904 21.568296,31.960073 25.479169,31.947926 C 28.924008,31.936928 32.783420,28.778817 33.204389,27.679691 C 33.485167,26.795330 28.221251,20.900203 25.772495,21.017199 z "
     style="font-size:12;opacity:0.296369;fill-rule:evenodd;stroke-width:12.5;"
     id="path955" />
  <path
     d="M 25.419956,20.801947 C 23.007575,20.917161 17.281591,25.766137 18.261061,27.565679 C 18.578550,28.207637 21.572665,30.815847 25.151532,30.804731 C 28.303930,30.794667 31.835706,27.904654 32.220938,26.898840 C 32.477876,26.089555 27.660830,20.694882 25.419956,20.801947 z "
     style="font-size:12.000000;fill:url(#linearGradient578);fill-rule:evenodd;stroke:#261933;stroke-width:1.1703272;"
     id="path956" />
  <path
     d="M 19.245373,26.898840 C 19.245373,26.734350 21.479056,23.161510 25.151532,21.754601 C 25.864002,21.493791 27.478189,22.637240 27.478189,22.802466 C 27.478189,22.954789 25.879544,22.523444 25.151532,22.707194 C 21.742778,23.640091 19.245373,27.051842 19.245373,26.898840 z "
     style="font-size:12;opacity:0.7;fill:url(#linearGradient583);fill-rule:evenodd;stroke:none;stroke-width:1pt;"
     id="path957" />
  <path
     d="M 15.294905,26.279750 C 15.562947,26.469089 16.701939,26.984860 17.265666,26.856222 C 17.737292,26.693832 34.017093,21.034087 34.417696,20.369572 C 34.836727,19.643967 34.295808,5.5257792 33.800824,5.0468180 C 33.266795,4.5250729 15.919894,2.6640554 15.386505,2.6473617 C 14.903110,2.5826095 13.723382,3.0259798 13.495711,3.2955931 C 13.042564,3.8266604 14.795409,25.889558 15.294905,26.279750 z "
     style="font-size:12;opacity:0.3;fill-rule:evenodd;stroke-width:12.5;"
     id="path958" />
  <path
     d="M 15.220332,25.072419 C 15.473323,25.250992 16.547688,25.737510 17.079534,25.616247 C 17.524539,25.463008 32.882376,20.123758 33.260250,19.496871 C 33.655551,18.812354 33.145307,5.4936434 32.678356,5.0417554 C 32.174611,4.5496025 15.809928,2.7939966 15.306785,2.7782336 C 14.850762,2.7171479 13.737860,3.1353814 13.523058,3.3897321 C 13.095583,3.8907393 14.749118,24.704320 15.220332,25.072419 z "
     style="font-size:12.000000;fill:url(#linearGradient637);fill-rule:evenodd;stroke:#261933;stroke-width:1.1703296;"
     id="path959" />
  <path
     d="M 16.772191,24.711009 C 16.640081,24.570367 15.052632,4.0648247 15.268873,3.4929851 C 15.401545,3.3220937 31.963919,5.3136932 32.096375,5.4547025 C 32.222505,5.5890677 16.748222,3.4388922 16.093344,4.4738758 C 15.382438,5.5456367 16.898666,24.845650 16.772191,24.711009 z "
     style="font-size:12;opacity:0.7;fill:url(#linearGradient641);fill-rule:evenodd;stroke:none;stroke-width:1.03294pt;"
     id="path960" />
  <path
     d="M 15.559862,24.401277 C 15.510804,24.322895 14.077671,10.367126 14.008015,3.8027225 C 14.003837,3.5695861 14.825501,3.4045871 14.880885,3.4929851 C 14.922498,3.5594594 14.295657,4.0863887 14.298986,4.2673479 C 14.371180,10.832296 15.607759,24.477782 15.559862,24.401277 z "
     style="font-size:12;opacity:0.699936;fill:url(#linearGradient1522);fill-rule:evenodd;stroke:none;stroke-width:1.03294pt;"
     id="path961" />
  <path
     d="M 17.107808,5.5020719 C 16.846424,5.8562868 17.613791,22.324178 18.011847,22.632767 C 18.422900,22.916433 31.340368,18.509449 31.662643,18.061410 C 31.966586,17.686949 31.550886,7.1836780 31.346267,6.8013788 C 31.082901,6.3937493 17.393333,5.1633400 17.107808,5.5020719 z "
     style="font-size:12.000000;fill:#261933;fill-rule:evenodd;stroke:#261933;stroke-width:0.28868139;"
     id="path962" />
  <path
     d="M 18.192627,21.718505 C 18.092234,21.586843 17.179501,6.3882513 17.424273,6.0314245 C 17.748226,5.6249374 29.889765,6.8623096 29.990161,6.9938344 C 30.085697,7.1188547 18.986462,5.7996625 18.011847,6.8013344 C 17.347545,7.4850733 18.288078,21.843480 18.192627,21.718505 z "
     style="font-size:12;opacity:0.699936;fill:url(#linearGradient1527);fill-rule:evenodd;stroke:none;stroke-width:0.962798pt;"
     id="path963" />
  <g
     id="g969"
     transform="matrix(0.199492,0.000000,0.000000,0.220611,18.63108,6.439947)">
    <defs
       id="defs955">
      <linearGradient
         id="linearGradient1107"
         x1="0.0000000"
         y1="0.50000000"
         x2="1.0000000"
         y2="0.50000000"
         gradientUnits="objectBoundingBox"
         spreadMethod="pad"
         xlink:href="#linearGradient1015" />
      <linearGradient
         id="linearGradient1065"
         x1="0.0000000"
         y1="0.50000000"
         x2="1.0000000"
         y2="0.50000000"
         gradientUnits="objectBoundingBox"
         spreadMethod="pad"
         xlink:href="#linearGradient1018" />
      <linearGradient
         id="linearGradient1059"
         x1="0.0000000"
         y1="0.50000000"
         x2="1.0000000"
         y2="0.50000000"
         gradientUnits="objectBoundingBox"
         spreadMethod="pad"
         xlink:href="#linearGradient1021" />
      <linearGradient
         id="linearGradient964"
         x1="0.0000000"
         y1="0.50000000"
         x2="1.0000000"
         y2="0.50000000"
         gradientUnits="objectBoundingBox"
         spreadMethod="pad"
         xlink:href="#linearGradient1012" />
      <linearGradient
         id="linearGradient958">
        <stop
           style="stop-color:#f50000;stop-opacity:1.0000000;"
           offset="0.0000000"
           id="stop959" />
        <stop
           style="stop-color:#a80000;stop-opacity:1.0000000;"
           offset="1.0000000"
           id="stop960" />
      </linearGradient>
      <linearGradient
         xlink:href="#linearGradient958"
         id="linearGradient961"
         x1="0.0071428572"
         y1="0.023437500"
         x2="0.98571426"
         y2="0.99218750" />
      <linearGradient
         xlink:href="#linearGradient964"
         id="linearGradient963"
         x1="-0.0064935065"
         y1="0.031250000"
         x2="0.55844158"
         y2="0.50781250" />
      <linearGradient
         xlink:href="#linearGradient1059"
         id="linearGradient1062"
         x1="0.0071428572"
         y1="0.023437500"
         x2="0.98571426"
         y2="0.99218750" />
      <linearGradient
         xlink:href="#linearGradient1065"
         id="linearGradient1064"
         x1="0.0071428572"
         y1="0.023437500"
         x2="0.98571426"
         y2="0.99218750" />
      <linearGradient
         xlink:href="#linearGradient964"
         id="linearGradient1071"
         x1="0.98305082"
         y1="0.99218750"
         x2="0.65254235"
         y2="0.63281250" />
      <linearGradient
         xlink:href="#linearGradient1107"
         id="linearGradient1110"
         x1="0.0071428572"
         y1="0.023437500"
         x2="0.98571426"
         y2="0.99218750" />
      <linearGradient
         xlink:href="#linearGradient964"
         id="linearGradient862"
         x1="-0.11538462"
         y1="-1.8333859e-16"
         x2="0.39743590"
         y2="0.54687500" />
      <linearGradient
         xlink:href="#linearGradient964"
         id="linearGradient868"
         x1="1.0897436"
         y1="1.0625000"
         x2="0.55128205"
         y2="0.45312500" />
    </defs>
    <sodipodi:namedview
       id="namedview994"
       pagecolor="#ffffff"
       bordercolor="#666666"
       borderopacity="1.0"
       inkscape:pageopacity="0.0"
       inkscape:pageshadow="2"
       inkscape:zoom="5.6718750"
       inkscape:cx="25.367144"
       inkscape:cy="23.026429"
       inkscape:window-width="668"
       inkscape:window-height="525"
       inkscape:window-x="71"
       inkscape:window-y="274" />
    <g
       id="g1040"
       style="opacity:0.30000000;"
       transform="translate(1.480442,2.103786)">
      <path
         style="fill:#000000;fill-opacity:1.0000000;fill-rule:evenodd;stroke:none;stroke-width:1.8750000;stroke-dasharray:none;"
         d="M 10.420991,7.4518677 C 8.8072103,14.893187 8.4037654,18.031092 6.6555032,27.624116 C 12.079598,23.589667 21.538141,23.724149 28.979458,27.624116 C 30.593238,18.569019 31.265647,15.700077 32.744945,7.4518677 C 26.244998,2.4760464 16.248529,2.6105279 10.420991,7.4518677 z "
         id="path1036"
         sodipodi:nodetypes="ccccc" />
      <path
         style="fill:#000000;fill-opacity:1.0000000;fill-rule:evenodd;stroke:none;stroke-width:1.8750000;stroke-dasharray:none;"
         d="M 6.1741408,31.263390 C 4.5603610,38.704709 4.1569162,41.842613 2.4086547,51.435637 C 7.8327472,47.401187 17.291292,47.535669 24.732610,51.435637 C 26.346389,42.380539 27.018798,39.511599 28.498096,31.263390 C 21.998149,26.287569 12.001680,26.422050 6.1741408,31.263390 z "
         id="path1037"
         sodipodi:nodetypes="ccccc" />
      <path
         style="fill:#000000;fill-opacity:1.0000000;fill-rule:evenodd;stroke:none;stroke-width:1.8750000;stroke-dasharray:none;"
         d="M 54.428495,29.110432 C 56.042274,21.669114 56.445719,18.531209 58.193981,8.9381846 C 52.769887,12.972634 43.311345,12.838152 35.870027,8.9381846 C 34.256247,17.993282 33.583838,20.862224 32.104540,29.110432 C 38.604487,34.086253 48.600956,33.951772 54.428495,29.110432 z "
         id="path1038"
         sodipodi:nodetypes="ccccc" />
      <path
         style="fill:#000000;fill-opacity:1.0000000;fill-rule:evenodd;stroke:none;stroke-width:1.8750000;stroke-dasharray:none;stroke-opacity:1.0000000;"
         d="M 50.064499,52.987700 C 51.678278,45.546381 52.081723,42.408476 53.829985,32.815453 C 48.405891,36.849902 38.947349,36.715419 31.506031,32.815453 C 29.892252,41.870550 29.219843,44.739491 27.740545,52.987700 C 34.240491,57.963520 44.236960,57.829040 50.064499,52.987700 z "
         id="path1039"
         sodipodi:nodetypes="ccccc" />
    </g>
    <path
       style="fill:url(#linearGradient961);fill-rule:evenodd;stroke:#330000;stroke-width:1.8750000;stroke-dasharray:none;stroke-linejoin:round;stroke-linecap:round;"
       d="M 10.109319,7.4518677 C 8.4955379,14.893187 8.0920930,18.031092 6.3438308,27.624116 C 11.767926,23.589667 21.226469,23.724149 28.667786,27.624116 C 30.281566,18.569019 30.953975,15.700077 32.433273,7.4518677 C 25.933326,2.4760464 15.936857,2.6105279 10.109319,7.4518677 z "
       id="path1000"
       sodipodi:nodetypes="ccccc" />
    <path
       style="fill:url(#linearGradient963);fill-rule:evenodd;stroke:none;stroke-opacity:1;stroke-width:1pt;stroke-linejoin:miter;stroke-linecap:butt;"
       d="M 25.574709,5.9725696 C 25.283331,5.6363651 18.605827,2.8484370 11.992062,7.8553126 C 10.541946,8.9236191 8.7608492,17.790352 8.6300196,22.379332 C 8.6340056,27.388479 8.6004146,12.969189 14.278250,8.7966842 C 20.225616,4.3200787 25.866085,6.3087733 25.574709,5.9725696 z "
       id="path1001"
       sodipodi:nodetypes="cssss" />
    <path
       style="fill:url(#linearGradient645);fill-rule:evenodd;stroke:#010033;stroke-width:1.8750000;stroke-dasharray:none;stroke-linejoin:round;stroke-linecap:round;"
       d="M 5.8624684,31.263390 C 4.2486886,38.704709 3.8452438,41.842613 2.0969823,51.435637 C 7.5210748,47.401187 16.979620,47.535669 24.420938,51.435637 C 26.034717,42.380539 26.707126,39.511599 28.186424,31.263390 C 21.686477,26.287569 11.690008,26.422050 5.8624684,31.263390 z "
       id="path968"
       sodipodi:nodetypes="ccccc" />
    <path
       style="fill:url(#linearGradient963);fill-rule:evenodd;stroke:none;stroke-opacity:1;stroke-width:1pt;stroke-linejoin:miter;stroke-linecap:butt;"
       d="M 21.327859,29.784092 C 21.036482,29.447888 14.358977,26.659960 7.7452108,31.666835 C 6.2950963,32.735142 4.5140004,41.601873 4.3831706,46.190853 C 4.3871558,51.200000 4.3535656,36.780710 10.031401,32.608207 C 15.978766,28.131601 21.619236,30.120296 21.327859,29.784092 z "
       id="path969"
       sodipodi:nodetypes="cssss" />
    <path
       style="fill:url(#linearGradient1064);fill-rule:evenodd;stroke:#003300;stroke-width:1.8750000;stroke-dasharray:none;stroke-linejoin:round;"
       d="M 54.116823,29.110432 C 55.730602,21.669114 56.134047,18.531209 57.882309,8.9381846 C 52.458215,12.972634 42.999673,12.838152 35.558355,8.9381846 C 33.944575,17.993282 33.272166,20.862224 31.792868,29.110432 C 38.292815,34.086253 48.289284,33.951772 54.116823,29.110432 z "
       id="path1063"
       sodipodi:nodetypes="ccccc" />
    <path
       style="fill:url(#linearGradient862);fill-rule:evenodd;stroke:none;stroke-opacity:1.0000000;stroke-width:1pt;stroke-linejoin:miter;stroke-linecap:butt;"
       d="M 34.124583,24.476654 C 35.541345,16.555424 35.792697,10.737955 37.777850,11.355955 C 47.241359,14.362857 48.185151,12.706663 51.322382,13.298084 C 44.594826,14.292308 43.312558,14.141474 38.312859,13.205984 C 36.599623,12.889274 33.996507,29.546995 34.124583,24.476654 z "
       id="path1069"
       sodipodi:nodetypes="cscsc" />
    <path
       style="fill:url(#linearGradient1110);fill-rule:evenodd;stroke:#333300;stroke-width:1.8750000;stroke-dasharray:none;stroke-opacity:1.0000000;stroke-linejoin:round;stroke-linecap:round;"
       d="M 49.752827,52.987700 C 51.366606,45.546381 51.770051,42.408476 53.518313,32.815453 C 48.094219,36.849902 38.635677,36.715419 31.194359,32.815453 C 29.580580,41.870550 28.908171,44.739491 27.428873,52.987700 C 33.928819,57.963520 43.925288,57.829040 49.752827,52.987700 z "
       id="path1072"
       sodipodi:nodetypes="ccccc" />
    <path
       style="fill:url(#linearGradient862);fill-rule:evenodd;stroke:none;stroke-opacity:1.0000000;stroke-width:1pt;stroke-linejoin:miter;stroke-linecap:butt;"
       d="M 29.822365,48.334030 C 31.239127,40.412800 31.490480,34.595331 33.475633,35.213332 C 42.939141,38.220233 43.882933,36.564040 47.020164,37.155460 C 40.292608,38.149685 39.010340,37.998851 34.010641,37.063361 C 32.297405,36.746651 29.694289,53.404372 29.822365,48.334030 z "
       id="path864"
       sodipodi:nodetypes="cscsc" />
    <path
       style="fill:url(#linearGradient1071);fill-rule:evenodd;stroke:none;stroke-opacity:1;stroke-width:1pt;stroke-linejoin:miter;stroke-linecap:butt;opacity:0.50000000;"
       d="M 38.485813,30.507262 C 38.777190,30.843467 45.454695,33.631395 52.068460,28.624519 C 53.518575,27.556213 55.299671,18.689481 55.430501,14.100501 C 55.426515,9.0913533 55.460106,23.510644 49.782271,27.683148 C 43.834906,32.159753 38.194436,30.171058 38.485813,30.507262 z "
       id="path865"
       sodipodi:nodetypes="cssss" />
    <path
       style="fill:url(#linearGradient1071);fill-rule:evenodd;stroke:none;stroke-opacity:1;stroke-width:1pt;stroke-linejoin:miter;stroke-linecap:butt;opacity:0.71649485;"
       d="M 34.154724,54.428504 C 34.446102,54.764708 41.123606,57.552636 47.737371,52.545761 C 49.187486,51.477454 50.968583,42.610723 51.099412,38.021743 C 51.095426,33.012595 51.129017,47.431885 45.451182,51.604389 C 39.503817,56.080994 33.863348,54.092300 34.154724,54.428504 z "
       id="path866"
       sodipodi:nodetypes="cssss" />
    <path
       style="fill:url(#linearGradient868);fill-rule:evenodd;stroke:none;stroke-opacity:1.0000000;stroke-width:1pt;stroke-linejoin:miter;stroke-linecap:butt;opacity:0.50000000;"
       d="M 30.103867,12.135142 C 28.687105,20.056373 28.435752,25.873842 26.450599,25.255841 C 16.987091,22.248940 16.043299,23.905133 12.906068,23.313713 C 19.633624,22.319488 20.915892,22.470322 25.915591,23.405812 C 27.628827,23.722522 30.231943,7.0648000 30.103867,12.135142 z "
       id="path867"
       sodipodi:nodetypes="cscsc" />
    <path
       style="fill:url(#linearGradient868);fill-rule:evenodd;stroke:none;stroke-opacity:1.0000000;stroke-width:1pt;stroke-linejoin:miter;stroke-linecap:butt;opacity:0.50000000;"
       d="M 25.894385,35.870912 C 24.477623,43.792142 24.226271,49.609611 22.241118,48.991611 C 12.777609,45.984709 11.833817,47.640902 8.6965849,47.049482 C 15.424141,46.055257 16.706410,46.206091 21.706109,47.141581 C 23.419345,47.458292 26.022461,30.800571 25.894385,35.870912 z "
       id="path869"
       sodipodi:nodetypes="cscsc" />
  </g>
  <path
     d="M 44.209758,9.1767613 C 44.489831,9.2025616 44.450291,10.177912 44.163934,10.337901 C 43.258915,10.843627 41.529308,11.256288 40.635712,11.173953 C 40.353219,11.147938 40.352211,10.171228 40.635712,10.012813 C 41.543545,9.5055111 43.313726,9.0942120 44.209758,9.1767613 z "
     style="font-size:12.000000;opacity:0.49815300;fill:none;fill-rule:evenodd;stroke:#261933;stroke-width:0.77245271;"
     id="path712" />
  <path
     d="M 44.301401,12.056450 C 44.581475,12.082249 44.541954,13.057600 44.255579,13.217589 C 43.350560,13.723316 41.620951,14.135976 40.727356,14.053640 C 40.444864,14.027628 40.443855,13.050916 40.727356,12.892501 C 41.635190,12.385200 43.405370,11.973900 44.301401,12.056450 z "
     style="font-size:12.000000;opacity:0.49815300;fill:none;fill-rule:evenodd;stroke:#261933;stroke-width:0.77245271;"
     id="path713" />
  <path
     d="M 44.347224,14.796754 C 44.627297,14.822553 44.587776,15.797902 44.301401,15.957893 C 43.396382,16.463619 41.666773,16.876279 40.773179,16.793944 C 40.490686,16.767932 40.489677,15.791220 40.773179,15.632805 C 41.681012,15.125503 43.451192,14.714203 44.347224,14.796754 z "
     style="font-size:12.000000;opacity:0.49815300;fill:none;fill-rule:evenodd;stroke:#261933;stroke-width:0.77245271;"
     id="path714" />
  <path
     d="M 44.438868,17.676441 C 44.718942,17.702240 44.679419,18.677589 44.393046,18.837581 C 43.488027,19.343306 41.758418,19.755965 40.864822,19.673630 C 40.582330,19.647618 40.581322,18.670906 40.864822,18.512492 C 41.772657,18.005189 43.542836,17.593892 44.438868,17.676441 z "
     style="font-size:12.000000;opacity:0.49815300;fill:none;fill-rule:evenodd;stroke:#261933;stroke-width:0.77245271;"
     id="path715" />
</svg>
