<?xml version="1.0" encoding="UTF-8" standalone="no"?>
<!DOCTYPE svg PUBLIC "-//W3C//DTD SVG 20010904//EN"
"http://www.w3.org/TR/2001/REC-SVG-20010904/DTD/svg10.dtd">
<!-- Created with Inkscape (http://www.inkscape.org/) -->
<svg
   id="svg1"
   sodipodi:version="0.32"
   inkscape:version="0.39"
   width="48pt"
   height="48pt"
   sodipodi:docbase="/home/stefan/software/Lila-themes/icons"
   sodipodi:docname="gnome-mime-application-x-ipod-firmware-1.svg"
   xmlns="http://www.w3.org/2000/svg"
   xmlns:cc="http://web.resource.org/cc/"
   xmlns:inkscape="http://www.inkscape.org/namespaces/inkscape"
   xmlns:sodipodi="http://sodipodi.sourceforge.net/DTD/sodipodi-0.dtd"
   xmlns:rdf="http://www.w3.org/1999/02/22-rdf-syntax-ns#"
   xmlns:xml="http://www.w3.org/XML/1998/namespace"
   xmlns:dc="http://purl.org/dc/elements/1.1/"
   xmlns:xlink="http://www.w3.org/1999/xlink">
  <defs
     id="defs3">
    <linearGradient
       id="linearGradient1657">
      <stop
         offset="0.0000000"
         style="stop-color:#ffffff;stop-opacity:1.0000000;"
         id="stop1659" />
      <stop
         offset="1.0000000"
         style="stop-color:#d9cce6;stop-opacity:1.0000000;"
         id="stop1658" />
    </linearGradient>
    <linearGradient
       id="linearGradient1653">
      <stop
         offset="0.0000000"
         style="stop-color:#d9cce6;stop-opacity:1.0000000;"
         id="stop1655" />
      <stop
         offset="1.0000000"
         style="stop-color:#736680;stop-opacity:1.0000000;"
         id="stop1654" />
    </linearGradient>
    <linearGradient
       id="linearGradient589">
      <stop
         style="stop-color:#d9cce6;stop-opacity:1;"
         offset="0.00000000"
         id="stop590" />
      <stop
         style="stop-color:#73667f;stop-opacity:1;"
         offset="1.00000000"
         id="stop591" />
    </linearGradient>
    <linearGradient
       id="linearGradient866">
      <stop
         style="stop-color:#ffffff;stop-opacity:1;"
         offset="0.00000000"
         id="stop867" />
      <stop
         style="stop-color:#d9cce6;stop-opacity:1;"
         offset="1.00000000"
         id="stop868" />
    </linearGradient>
    <linearGradient
       id="linearGradient584">
      <stop
         style="stop-color:#ffffff;stop-opacity:1;"
         offset="0.00000000"
         id="stop585" />
      <stop
         style="stop-color:#ffffff;stop-opacity:0;"
         offset="1.00000000"
         id="stop586" />
    </linearGradient>
    <linearGradient
       xlink:href="#linearGradient866"
       id="linearGradient586"
       x1="-0.00000000"
       y1="0.01562500"
       x2="0.99122804"
       y2="0.98437500" />
    <linearGradient
       xlink:href="#linearGradient584"
       id="linearGradient587"
       x1="0.00000000"
       y1="-0.00000000"
       x2="1.00000000"
       y2="1.00000000" />
    <linearGradient
       xlink:href="#linearGradient589"
       id="linearGradient588"
       y2="0.00000000"
       x2="1.00000000"
       y1="0.00000000"
       x1="0.00000000" />
    <linearGradient
       xlink:href="#linearGradient866"
       id="linearGradient593"
       x1="2.5944958e-16"
       y1="0.0037878789"
       x2="0.97309417"
       y2="0.99242425" />
    <linearGradient
       xlink:href="#linearGradient589"
       id="linearGradient597"
       x1="2.5635960e-16"
       y1="0.011363637"
       x2="0.99703264"
       y2="0.99621212" />
    <defs
       id="defs945">
      <linearGradient
         id="linearGradient1564"
         x1="0.0000000"
         y1="0.50000000"
         x2="1.0000000"
         y2="0.50000000"
         gradientUnits="objectBoundingBox"
         spreadMethod="pad"
         xlink:href="#linearGradient1653" />
      <linearGradient
         id="linearGradient646">
        <stop
           offset="0.00000000"
           style="stop-color:#000000;stop-opacity:1;"
           id="stop648" />
        <stop
           offset="1.00000000"
           style="stop-color:#ffffff;stop-opacity:1;"
           id="stop647" />
      </linearGradient>
      <linearGradient
         id="linearGradient952"
         x1="0.0000000"
         y1="0.50000000"
         x2="1.0000000"
         y2="0.50000000"
         gradientUnits="objectBoundingBox"
         spreadMethod="pad"
         xlink:href="#linearGradient1657" />
      <linearGradient
         id="linearGradient955">
        <stop
           style="stop-color:#ffffff;stop-opacity:1;"
           offset="0.00000000"
           id="stop956" />
        <stop
           style="stop-color:#ffffff;stop-opacity:0;"
           offset="1.00000000"
           id="stop957" />
      </linearGradient>
      <linearGradient
         xlink:href="#linearGradient866"
         id="linearGradient958"
         x1="-0.0000000"
         y1="0.015625000"
         x2="0.99122804"
         y2="0.98437500" />
      <linearGradient
         xlink:href="#linearGradient1564"
         id="linearGradient959"
         x1="0.0041152299"
         y1="0.0041322298"
         x2="0.99176955"
         y2="0.98347110" />
      <linearGradient
         xlink:href="#linearGradient866"
         id="linearGradient960"
         x1="0.0041152299"
         y1="0.0041322298"
         x2="0.99176955"
         y2="0.98347110" />
      <defs
         id="defs565">
        <linearGradient
           id="linearGradient585"
           x1="0.0000000"
           y1="0.0000000"
           x2="1.0000000"
           y2="0.0000000"
           gradientUnits="objectBoundingBox"
           spreadMethod="pad"
           xlink:href="#linearGradient646" />
        <radialGradient
           xlink:href="#linearGradient585"
           id="radialGradient588"
           cx="0.51811594"
           cy="-0.56000000"
           r="1.3729882"
           fx="0.52173913"
           fy="-0.60000002" />
        <linearGradient
           xlink:href="#linearGradient585"
           id="linearGradient615"
           x1="-6.2058806"
           y1="-11.057673"
           x2="11.833383"
           y2="27.039511"
           gradientUnits="userSpaceOnUse"
           gradientTransform="scale(2.375574,0.420951)" />
      </defs>
      <sodipodi:namedview
         id="namedview571"
         pagecolor="#ffffff"
         bordercolor="#666666"
         borderopacity="1.0"
         inkscape:pageopacity="0.0"
         inkscape:pageshadow="2"
         inkscape:zoom="11.3137085"
         inkscape:cx="37.8278795"
         inkscape:cy="20.7337463"
         inkscape:window-width="1271"
         inkscape:window-height="970"
         inkscape:window-x="0"
         inkscape:window-y="0" />
      <linearGradient
         xlink:href="#linearGradient1564"
         id="linearGradient644"
         x1="3.0140820e-17"
         y1="0.015625000"
         x2="0.99122804"
         y2="0.98437500" />
      <linearGradient
         inkscape:collect="always"
         xlink:href="#linearGradient584"
         id="linearGradient1569"
         x1="-7.4246165e-16"
         y1="0.50000000"
         x2="1.0000000"
         y2="0.50000000" />
    </defs>
    <sodipodi:namedview
       id="namedview968"
       pagecolor="#ffffff"
       bordercolor="#666666"
       borderopacity="1.0"
       inkscape:pageopacity="0.0"
       inkscape:pageshadow="2"
       inkscape:zoom="11.313708"
       inkscape:cx="28.472361"
       inkscape:cy="20.217081"
       inkscape:window-width="1269"
       inkscape:window-height="970"
       inkscape:window-x="0"
       inkscape:window-y="0"
       showgrid="true" />
    <metadata
       id="metadata35">
      <rdf:RDF
         id="RDF36">
        <cc:Work
           rdf:about=""
           id="Work37">
          <dc:format
             id="format38">image/svg+xml</dc:format>
          <dc:type
             id="type40"
             rdf:resource="http://purl.org/dc/dcmitype/StillImage" />
        </cc:Work>
      </rdf:RDF>
    </metadata>
    <linearGradient
       inkscape:collect="always"
       xlink:href="#linearGradient589"
       id="linearGradient1656"
       x1="-0.0036101083"
       y1="-1.6026611e-15"
       x2="0.99277979"
       y2="0.99621212" />
    <linearGradient
       inkscape:collect="always"
       xlink:href="#linearGradient1657"
       id="linearGradient1660"
       x1="0.010989011"
       y1="0.99621212"
       x2="1.0000000"
       y2="3.6862874e-15" />
  </defs>
  <sodipodi:namedview
     id="base"
     pagecolor="#ffffff"
     bordercolor="#666666"
     borderopacity="1.0"
     inkscape:pageopacity="0.0"
     inkscape:pageshadow="2"
     inkscape:zoom="7.9999999"
     inkscape:cx="42.593624"
     inkscape:cy="9.9959107"
     inkscape:window-width="1018"
     inkscape:window-height="711"
     inkscape:window-x="84"
     inkscape:window-y="257" />
  <path
     d="M 4.4389304 48.086315 C 5.2483181 50.50443 38.765774 61.377487 40.966438 59.55288 C 42.936267 57.902492 57.675565 8.7785888 56.688667 6.8303779 C 55.662821 4.6824777 21.657054 -0.6675724 20.042945 0.80153134 C 18.054709 2.621752 3.5888672 45.311841 4.4389304 48.086315 z "
     style="font-size:12;opacity:0.302675;fill-rule:evenodd;stroke-width:12.5;"
     id="path639" />
  <path
     d="M 4.5541516 46.08493 C 5.3114351 48.34726 36.66955 58.519843 38.728432 56.812781 C 40.571358 55.268717 54.36111 9.3095333 53.437795 7.4867937 C 52.478034 5.477268 20.663028 0.47192513 19.152904 1.8463842 C 17.292759 3.5493405 3.7588508 43.489198 4.5541516 46.08493 z "
     style="font-size:12;fill:url(#linearGradient586);fill-rule:evenodd;stroke:#261933;stroke-width:1.87726;"
     id="path634" />
  <path
     d="M 6.6876568 43.965773 C 6.360392 43.13667 19.363758 4.5872629 20.579427 3.7922731 C 22.09876 2.7554118 46.659814 7.3454032 46.98631 8.172561 C 47.28557 8.9306762 27.823671 5.3906629 23.493845 9.2635774 C 15.189619 16.482895 6.9861475 44.721984 6.6876568 43.965773 z "
     style="font-size:12;opacity:0.699936;fill:url(#linearGradient587);fill-rule:evenodd;stroke:none;stroke-width:0.100121pt;"
     id="path640" />
  <text
     xml:space="preserve"
     style="font-size:12.000000;font-style:normal;font-weight:normal;fill:#000000;fill-opacity:1.0000000;stroke:none;stroke-width:1.0000000pt;stroke-linecap:butt;stroke-linejoin:miter;stroke-opacity:1.0000000;font-family:helvetica;"
     x="81.479042"
     y="67.006859"
     id="text863"
     transform="matrix(0.760698,0.000000,0.000000,0.760698,-93.75577,-21.81060)"><tspan
       id="tspan864"></tspan></text>
  <path
     d="M 41.014702,42.288570 C 40.353756,44.383601 38.273317,44.749720 29.795143,47.608038 C 20.760958,50.653812 18.581884,51.272756 16.768747,49.994339 C 14.924903,48.679941 14.532829,46.374496 10.282173,32.408459 C 5.8210499,17.750884 5.0368344,15.808394 6.3327549,13.411121 C 7.4310789,11.262950 9.4882510,11.143801 18.848628,9.5963340 C 27.922276,8.0962681 29.254744,8.1767949 30.657182,9.4690800 C 32.003271,10.716675 32.999056,13.341510 37.039915,24.882369 C 41.866132,38.666234 41.605930,40.237393 41.014702,42.288570 z "
     style="font-size:12.000000;fill:#000000;fill-opacity:0.28999999;fill-rule:evenodd;stroke:none;stroke-width:1.8750000;"
     id="path969"
     sodipodi:nodetypes="cscscscsc" />
  <path
     d="M 125.99314,58.895948 C 125.39645,60.800066 123.51824,61.132073 115.86421,63.727037 C 107.70821,66.492185 105.74096,67.053971 104.10407,65.891209 C 102.43946,64.695729 102.08550,62.599945 98.248038,49.903299 C 94.220567,36.577969 93.512583,34.811959 94.682530,32.633348 C 95.674090,30.681094 97.531290,30.573572 105.98177,29.170498 C 114.17339,27.810403 115.37634,27.884108 116.64245,29.059321 C 117.85769,30.193888 118.75667,32.580224 122.40473,43.072322 C 126.76181,55.603595 126.52690,57.031668 125.99314,58.895948 z "
     style="font-size:12.000000;fill:url(#linearGradient593);fill-rule:evenodd;stroke:#261933;stroke-width:0.90262616;stroke-miterlimit:4.0000000;"
     id="path970"
     sodipodi:nodetypes="cscscscsc"
     transform="matrix(1.053451,0.000000,0.000000,1.053451,-93.75577,-21.81060)" />
  <path
     d="M 117.72522,41.581060 C 117.18081,42.336891 115.92137,42.564193 110.68927,43.962531 C 105.11404,45.452576 103.77771,45.772004 102.79658,45.418191 C 101.79987,45.053434 101.73567,44.275934 100.23543,39.656849 C 98.660900,34.809047 98.337873,34.175945 99.280573,33.284925 C 100.08803,32.489541 101.31567,32.348691 106.97492,31.360484 C 112.46082,30.402546 113.24449,30.365799 113.98125,30.744306 C 114.68789,31.110103 115.08652,31.968693 116.63931,35.760081 C 118.49388,40.288339 118.22513,40.843761 117.72522,41.581060 z "
     style="font-size:12.000000;fill:url(#linearGradient597);fill-rule:evenodd;stroke:#261933;stroke-width:0.90262616;stroke-miterlimit:4.0000000;"
     id="path971"
     sodipodi:nodetypes="cscscscsc"
     transform="matrix(1.053451,0.000000,0.000000,1.053451,-93.75577,-21.81060)" />
  <path
     transform="matrix(7.591606e-2,-1.831472e-2,2.056442e-2,7.691172e-2,10.95182,5.351492)"
     style="fill-rule:evenodd;stroke:none;stroke-width:0.11693100;stroke-linejoin:round;font-size:12.000000;fill:#261933;fill-opacity:1.0000000;"
     d="M 114.37046,184.70178 C 114.37046,192.63678 121.97744,208.66250 133.38008,211.60058 C 126.26609,231.66340 113.43428,248.78006 100.91278,247.89658 C 95.214731,247.49918 86.974519,242.20178 78.651395,242.20178 C 65.225714,243.95305 61.163399,253.85823 46.257722,243.56018 C 36.155153,236.51129 25.951148,218.81417 20.827516,195.50127 C 15.405554,175.32849 28.268328,150.17575 41.177918,145.88452 C 63.534849,138.45293 70.348762,148.25824 79.236953,148.36295 C 89.243556,148.65483 92.651484,142.72638 102.71313,143.11373 C 112.13205,143.47632 122.11383,145.88528 130.07570,155.79738 C 123.86470,160.76864 114.37046,168.83178 114.37046,184.70178 z "
     id="path973"
     sodipodi:nodetypes="ccscscscscc" />
  <path
     transform="matrix(6.086977e-2,2.986049e-2,-2.801539e-2,6.017323e-2,18.69281,4.190409)"
     style="fill-rule:evenodd;stroke:none;stroke-width:0.12500000;stroke-linejoin:round;font-size:12.000000;fill:#261933;fill-opacity:1.0000000;"
     d="M 82.916984,137.43358 C 71.750474,123.33649 70.528099,101.14962 83.312297,87.949251 C 97.624321,102.33114 96.910996,124.34274 82.916984,137.43358 z "
     id="path974"
     sodipodi:nodetypes="ccc" />
  <path
     d="M 125.79658,57.504985 C 125.74438,60.387257 124.02597,60.624346 116.37194,63.219310 C 108.21594,65.984458 105.82206,66.814245 104.18517,65.651483 C 102.77985,64.376221 102.37979,62.487847 98.542336,49.791201 C 94.514865,36.465871 93.540396,34.761702 94.710343,32.836955 C 94.883898,32.661746 95.642651,31.828863 96.931187,31.339059 C 94.781933,32.543432 94.680821,32.580139 99.758260,48.169136 C 105.42038,66.904972 104.75254,65.739921 113.09745,63.045732 C 124.64289,58.921791 125.64926,59.094664 125.79658,57.504985 z "
     style="font-size:12.000000;fill:#261933;fill-opacity:1.0000000;fill-rule:evenodd;stroke:none;stroke-width:1.7000000;"
     id="path975"
     sodipodi:nodetypes="cscsccccc"
     transform="matrix(1.053451,0.000000,0.000000,1.053451,-93.75577,-21.81060)" />
  <path
     style="font-size:12.000000;fill:url(#linearGradient1656);fill-rule:evenodd;stroke:#261933;stroke-width:0.90262616;stroke-linejoin:round;stroke-miterlimit:4.0000000;"
     d="M 106.25595,55.047691 C 107.19837,58.910946 111.27023,61.268184 115.34492,60.309384 C 119.41962,59.350584 121.96176,55.437033 121.01934,51.573778 C 120.07692,47.710523 116.00506,45.353284 111.93037,46.312084 C 107.85567,47.270885 105.31353,51.184436 106.25595,55.047691 z "
     id="path976"
     transform="matrix(1.053451,0.000000,0.000000,1.053451,-93.75577,-21.81060)" />
  <path
     style="font-size:12.000000;fill:url(#linearGradient1660);fill-rule:evenodd;stroke:#261933;stroke-width:0.90262616;stroke-linejoin:round;stroke-miterlimit:4.0000000;"
     d="M 111.03150,53.935138 C 111.36423,55.323899 112.80183,56.171278 114.24042,55.826609 C 115.67902,55.481940 116.57654,54.075099 116.24382,52.686338 C 115.91109,51.297577 114.47349,50.450198 113.03489,50.794867 C 111.59629,51.139536 110.69877,52.546377 111.03150,53.935138 z "
     id="path977"
     transform="matrix(1.053451,0.000000,0.000000,1.053451,-93.75577,-21.81060)" />
  <path
     style="fill:url(#linearGradient1569);fill-opacity:1.00000000;fill-rule:evenodd;stroke:none;stroke-width:1.0000000pt;stroke-linecap:butt;stroke-linejoin:miter;stroke-opacity:1.0000000;"
     d="M 25.331769,27.759440 C 25.638518,27.724437 25.869456,28.343961 25.603856,28.501372 C 24.362018,29.237377 24.031445,29.359992 22.597195,29.523651 C 22.290436,29.558654 22.059498,28.939130 22.325098,28.781718 C 23.566936,28.045714 23.897509,27.923099 25.331769,27.759440 z "
     id="rect1567"
     sodipodi:nodetypes="cssss" />
  <path
     style="fill:url(#linearGradient1569);fill-opacity:1.00000000;fill-rule:evenodd;stroke:none;stroke-width:1.0000000pt;stroke-linecap:butt;stroke-linejoin:miter;stroke-opacity:1.0000000;"
     d="M 29.551085,39.141210 C 29.858538,39.113061 30.075594,39.737584 29.806548,39.889029 C 28.548596,40.597139 28.215379,40.712348 26.777824,40.843961 C 26.470371,40.872110 26.253304,40.247587 26.522350,40.096141 C 27.780313,39.388031 28.113530,39.272823 29.551085,39.141210 z "
     id="path1571"
     sodipodi:nodetypes="cssss" />
  <path
     style="fill:url(#linearGradient1569);fill-opacity:1.00000000;fill-rule:evenodd;stroke:none;stroke-width:1.0000000pt;stroke-linecap:butt;stroke-linejoin:miter;stroke-opacity:1.0000000;"
     d="M 32.527463,31.636357 C 32.833812,31.598015 33.071485,32.214986 32.807626,32.375281 C 31.573869,33.124770 31.244661,33.250979 29.812269,33.430252 C 29.505920,33.468595 29.268247,32.851622 29.532106,32.691327 C 30.765863,31.941839 31.095071,31.815629 32.527463,31.636357 z "
     id="path1572"
     sodipodi:nodetypes="cssss" />
  <path
     style="fill:url(#linearGradient1569);fill-opacity:1.00000000;fill-rule:evenodd;stroke:none;stroke-width:1.0000000pt;stroke-linecap:butt;stroke-linejoin:miter;stroke-opacity:1.0000000;"
     d="M 22.225717,35.156327 C 22.533864,35.137206 22.732513,35.767825 22.459141,35.911316 C 21.180964,36.582231 20.844501,36.687618 19.403715,36.777018 C 19.095569,36.796139 18.896910,36.165518 19.170282,36.022028 C 20.448469,35.351113 20.784921,35.245726 22.225717,35.156327 z "
     id="path1573"
     sodipodi:nodetypes="cssss" />
  <rect
     style="fill:#000000;fill-opacity:0.30000001;fill-rule:evenodd;stroke:none;stroke-width:1.0000000pt;stroke-opacity:1.0000000;"
     id="rect937"
     x="18.921923"
     y="39.838369"
     rx="0.92346412"
     width="40.236656"
     height="12.888113" />
  <rect
     style="fill:#d9cce6;fill-opacity:0.80000001;fill-rule:evenodd;stroke:#261933;stroke-width:1.4254594;"
     id="rect862"
     x="17.200329"
     y="38.249528"
     rx="0.91030651"
     width="39.663361"
     height="12.750523" />
  <path
     style="font-size:12.000000;stroke-width:1.0000000pt;font-family:Radio Stars;"
     d="M 50.919131,47.015456 C 50.919131,47.559456 50.651131,47.831456 50.115131,47.831456 L 42.831131,47.831456 L 42.831131,41.015456 L 44.439131,41.015456 C 46.383131,41.015456 47.939131,41.539456 49.107131,42.587456 C 50.315131,43.667456 50.919131,45.143456 50.919131,47.015456 z M 49.311131,46.199456 C 49.295131,45.719456 49.127131,45.231456 48.807131,44.735456 C 48.527131,44.311456 48.171131,43.931456 47.739131,43.595456 C 46.899131,42.963456 45.999131,42.647456 45.039131,42.647456 L 44.439131,42.647456 L 44.439131,46.199456 L 49.311131,46.199456 z M 41.931131,47.015456 C 41.931131,47.559456 41.663131,47.831456 41.127131,47.831456 L 34.647131,47.831456 C 34.111131,47.831456 33.843131,47.559456 33.843131,47.015456 L 33.843131,41.831456 C 33.843131,41.287456 34.111131,41.015456 34.647131,41.015456 L 41.127131,41.015456 C 41.663131,41.015456 41.931131,41.287456 41.931131,41.831456 L 41.931131,47.015456 z M 40.323131,46.199456 L 40.323131,42.647456 L 35.451131,42.647456 L 35.451131,46.199456 L 40.323131,46.199456 z M 33.375131,44.423456 C 33.375131,44.967456 33.107131,45.239456 32.571131,45.239456 L 26.895131,45.239456 L 26.895131,47.015456 C 26.895131,47.271456 26.815131,47.471456 26.655131,47.615456 C 26.503131,47.751456 26.315131,47.819456 26.091131,47.819456 C 25.875131,47.819456 25.687131,47.751456 25.527131,47.615456 C 25.367131,47.471456 25.287131,47.271456 25.287131,47.015456 L 25.287131,41.015456 L 32.571131,41.015456 C 33.107131,41.015456 33.375131,41.287456 33.375131,41.831456 L 33.375131,44.423456 z M 31.767131,43.607456 L 31.767131,42.647456 L 26.895131,42.647456 L 26.895131,43.607456 L 31.767131,43.607456 z M 24.387131,47.015456 C 24.387131,47.271456 24.307131,47.471456 24.147131,47.615456 C 23.987131,47.751456 23.799131,47.819456 23.583131,47.819456 C 23.367131,47.819456 23.179131,47.751456 23.019131,47.615456 C 22.859131,47.471456 22.779131,47.271456 22.779131,47.015456 L 22.779131,41.831456 C 22.779131,41.575456 22.859131,41.379456 23.019131,41.243456 C 23.179131,41.099456 23.367131,41.027456 23.583131,41.027456 C 23.799131,41.027456 23.987131,41.099456 24.147131,41.243456 C 24.307131,41.379456 24.387131,41.575456 24.387131,41.831456 L 24.387131,47.015456 z "
     id="path917" />
  <metadata
     id="metadata40">
    <rdf:RDF
       id="RDF41">
      <cc:Work
         rdf:about=""
         id="Work42">
        <dc:format
           id="format43">image/svg+xml</dc:format>
        <dc:type
           id="type45"
           rdf:resource="http://purl.org/dc/dcmitype/StillImage" />
      </cc:Work>
    </rdf:RDF>
  </metadata>
</svg>
