<?xml version="1.0" encoding="UTF-8" standalone="no"?>
<!DOCTYPE svg PUBLIC "-//W3C//DTD SVG 20010904//EN"
"http://www.w3.org/TR/2001/REC-SVG-20010904/DTD/svg10.dtd">
<!-- Created with Inkscape (http://www.inkscape.org/) -->
<svg
   id="svg1"
   sodipodi:version="0.32"
   inkscape:version="0.38.1"
   width="48pt"
   height="48pt"
   sodipodi:docbase="/root/Desktop/mimes"
   sodipodi:docname="gnome-mime-image-x-applix-graphic.svg"
   xmlns="http://www.w3.org/2000/svg"
   xmlns:inkscape="http://www.inkscape.org/namespaces/inkscape"
   xmlns:sodipodi="http://sodipodi.sourceforge.net/DTD/sodipodi-0.dtd"
   xmlns:xml="http://www.w3.org/XML/1998/namespace"
   xmlns:xlink="http://www.w3.org/1999/xlink">
  <defs
     id="defs3">
    <linearGradient
       id="linearGradient876">
      <stop
         style="stop-color:#ffffff;stop-opacity:1;"
         offset="0.00000000"
         id="stop877" />
      <stop
         style="stop-color:#7f7f7f;stop-opacity:1;"
         offset="1.00000000"
         id="stop878" />
    </linearGradient>
    <linearGradient
       id="linearGradient642">
      <stop
         style="stop-color:#d9cce6;stop-opacity:1;"
         offset="0.00000000"
         id="stop643" />
      <stop
         style="stop-color:#73667f;stop-opacity:1;"
         offset="1.00000000"
         id="stop644" />
    </linearGradient>
    <linearGradient
       id="linearGradient866">
      <stop
         style="stop-color:#ffffff;stop-opacity:1;"
         offset="0.00000000"
         id="stop867" />
      <stop
         style="stop-color:#d9cce6;stop-opacity:1;"
         offset="1.00000000"
         id="stop868" />
    </linearGradient>
    <linearGradient
       id="linearGradient584">
      <stop
         style="stop-color:#ffffff;stop-opacity:1;"
         offset="0.00000000"
         id="stop585" />
      <stop
         style="stop-color:#ffffff;stop-opacity:0;"
         offset="1.00000000"
         id="stop586" />
    </linearGradient>
    <linearGradient
       xlink:href="#linearGradient866"
       id="linearGradient586"
       x1="-0.00000000"
       y1="0.01562500"
       x2="0.99122804"
       y2="0.98437500" />
    <linearGradient
       xlink:href="#linearGradient584"
       id="linearGradient587"
       x1="0.00000000"
       y1="-0.00000000"
       x2="1.00000000"
       y2="1.00000000" />
    <linearGradient
       xlink:href="#linearGradient642"
       id="linearGradient638"
       x1="0.41228071"
       y1="0.37500000"
       x2="0.58771932"
       y2="0.54687500" />
    <radialGradient
       xlink:href="#linearGradient866"
       id="radialGradient639" />
    <linearGradient
       xlink:href="#linearGradient584"
       id="linearGradient640"
       x1="-0.00000000"
       y1="-0.00000000"
       x2="0.99358976"
       y2="0.99218750" />
    <linearGradient
       xlink:href="#linearGradient876"
       id="linearGradient641"
       x1="0.01515152"
       y1="0.02343750"
       x2="0.98484850"
       y2="0.98437500" />
    <linearGradient
       xlink:href="#linearGradient584"
       id="linearGradient645"
       x1="0.00000000"
       y1="-0.00000000"
       x2="0.99494952"
       y2="1.01562500" />
    <linearGradient
       xlink:href="#linearGradient584"
       id="linearGradient875"
       x1="0.00000000"
       y1="-0.00000000"
       x2="0.99166667"
       y2="0.98437500" />
  </defs>
  <sodipodi:namedview
     id="base"
     pagecolor="#ffffff"
     bordercolor="#666666"
     borderopacity="1.0"
     inkscape:pageopacity="0.0"
     inkscape:pageshadow="2"
     inkscape:zoom="11.284677"
     inkscape:cx="32.752492"
     inkscape:cy="17.542151"
     inkscape:window-width="639"
     inkscape:window-height="515"
     inkscape:window-x="169"
     inkscape:window-y="102" />
  <path
     d="M 4.4389304 48.086315 C 5.2483181 50.50443 38.765774 61.377487 40.966438 59.55288 C 42.936267 57.902492 57.675565 8.7785888 56.688667 6.8303779 C 55.662821 4.6824777 21.657054 -0.6675724 20.042945 0.80153134 C 18.054709 2.621752 3.5888672 45.311841 4.4389304 48.086315 z "
     style="font-size:12;opacity:0.302675;fill-rule:evenodd;stroke-width:12.5;"
     id="path639" />
  <path
     d="M 4.5541516 46.08493 C 5.3114351 48.34726 36.66955 58.519843 38.728432 56.812781 C 40.571358 55.268717 54.36111 9.3095333 53.437795 7.4867937 C 52.478034 5.477268 20.663028 0.47192513 19.152904 1.8463842 C 17.292759 3.5493405 3.7588508 43.489198 4.5541516 46.08493 z "
     style="font-size:12;fill:url(#linearGradient586);fill-rule:evenodd;stroke:#261933;stroke-width:1.87726;"
     id="path634" />
  <path
     d="M 6.6876568 43.965773 C 6.360392 43.13667 19.363758 4.5872629 20.579427 3.7922731 C 22.09876 2.7554118 46.659814 7.3454032 46.98631 8.172561 C 47.28557 8.9306762 27.823671 5.3906629 23.493845 9.2635774 C 15.189619 16.482895 6.9861475 44.721984 6.6876568 43.965773 z "
     style="font-size:12;opacity:0.699936;fill:url(#linearGradient587);fill-rule:evenodd;stroke:none;stroke-width:0.100121pt;"
     id="path640" />
  <g
     transform="matrix(6.197960e-2,0.000000,0.000000,6.197960e-2,8.856374,7.896787)"
     style="font-size:12;opacity:0.302675;"
     id="g1288">
    <path
       d="M 193.828 467.434 C 178.941 468.948 161.154 486.272 148.606 498.444 C 130.468 516.075 92.7478 564.2 104.676 592.765 C 111.698 552.141 185.106 555.496 205.456 535.914 C 216.415 526.066 227.005 503.459 224.837 490.691 C 223.129 480.633 204.352 466.364 193.828 467.434 z "
       style="fill-rule:evenodd;stroke-width:0.961965pt;"
       id="path1282" />
    <path
       d="M 229.409 417.471 C 221.482 419.905 190.897 456.406 190.623 463.082 C 190.082 475.91 220.297 500.47 232.768 498.042 C 237.828 496.761 268.98 456.842 269.182 451.097 C 269.654 438.55 241.337 414.372 229.409 417.471 z "
       style="fill-rule:evenodd;stroke-width:11.3244;"
       id="path1283" />
    <path
       d="M 221.358 423.625 C 228.067 386.292 264.417 333.237 298.019 298.291 C 375.96 217.232 538.735 66.7744 555.987 75.6109 C 571.994 83.8099 456.882 263.285 391.15 343.699 C 355.597 386.031 313.676 435.685 270.031 454.046 C 254.863 460.427 218.737 438.21 221.358 423.625 z "
       style="fill-rule:evenodd;stroke-width:11.3244;"
       id="path1284" />
  </g>
  <path
     d="M 19.48725 36.093999 C 18.564561 36.187852 17.462114 37.261603 16.684421 38.016001 C 15.560194 39.108801 13.222349 42.091508 13.961639 43.861965 C 14.396887 41.344146 18.946645 41.552059 20.207916 40.338407 C 20.887148 39.728036 21.54357 38.326861 21.409191 37.535455 C 21.303327 36.912097 20.139545 36.027691 19.48725 36.093999 z "
     style="font-size:12;fill-rule:evenodd;stroke:#000000;stroke-width:0.721836;"
     id="path1047" />
  <path
     d="M 21.692568 32.997358 C 21.201223 33.148177 19.305552 35.410521 19.288626 35.824272 C 19.255077 36.619378 21.127756 38.141582 21.900717 37.991066 C 22.214367 37.911713 24.145106 35.437518 24.157664 35.081462 C 24.186905 34.303827 22.4318 32.805284 21.692568 32.997358 z "
     style="font-size:12;fill:url(#linearGradient641);fill-rule:evenodd;stroke:#333333;stroke-width:1.14511;"
     id="path1046" />
  <path
     d="M 21.193518 33.378773 C 21.609333 31.064861 23.862334 27.77657 25.944923 25.610626 C 30.775679 20.586644 40.864411 11.261349 41.933671 11.809029 C 42.925769 12.317203 35.791229 23.44098 31.717176 28.424983 C 29.513616 31.048723 26.915357 34.126255 24.210262 35.264253 C 23.270161 35.659744 21.031112 34.282717 21.193518 33.378773 z "
     style="font-size:12;fill:url(#linearGradient638);fill-rule:evenodd;stroke:#261933;stroke-width:1.15;stroke-dasharray:none;"
     id="path1045" />
  <path
     d="M 22.125612 33.289471 C 21.203651 34.514161 24.20098 29.115984 27.286945 25.630585 C 31.325751 21.177847 41.502633 12.467555 40.689875 13.393132 C 39.408033 14.758152 24.961626 29.328198 22.125612 33.289471 z "
     style="font-size:12;opacity:0.7;fill:url(#linearGradient875);fill-rule:evenodd;stroke:none;stroke-width:1.02162pt;"
     id="path1051" />
  <path
     d="M 19.961123 35.953373 C 19.961123 35.825851 20.648665 34.716124 21.043367 34.621421 C 21.342396 34.549591 22.042376 35.329106 22.042376 35.453899 C 22.042376 35.551088 21.351011 35.213534 21.043367 35.287367 C 20.65728 35.380005 19.961123 36.047832 19.961123 35.953373 z "
     style="font-size:12;opacity:0.699936;fill:url(#linearGradient645);fill-rule:evenodd;stroke:none;stroke-width:1.02162pt;"
     id="path1265" />
  <path
     d="M 14.300237 42.113716 C 14.354516 41.440367 16.553015 37.994404 18.878938 37.035617 C 19.398737 36.832685 20.428019 38.172098 20.460657 38.367568 C 20.48359 38.50504 19.43259 37.799054 19.045411 38.034565 C 17.379061 39.047831 14.307177 42.274845 14.300237 42.113716 z "
     style="font-size:12;opacity:0.7;fill:url(#linearGradient640);fill-rule:evenodd;stroke:none;stroke-width:1.02162pt;"
     id="path1266" />
  <text
     xml:space="preserve"
     style="fill:black;fill-opacity:1;stroke:none;font-family:helvetica;font-style:normal;font-weight:normal;font-size:12px;stroke-opacity:1;stroke-width:1pt;stroke-linejoin:miter;stroke-linecap:butt;"
     x="32.583610"
     y="46.057975"
     id="text863"><tspan
       id="tspan864"></tspan></text>
  <rect
     style="fill:#000000;fill-opacity:0.30000001;fill-rule:evenodd;stroke:none;stroke-width:1.0000000pt;stroke-opacity:1.0000000;"
     id="rect937"
     x="35.537372"
     y="39.173752"
     rx="0.54212593"
     width="23.621207"
     height="12.888113" />
  <rect
     style="fill:#d9cce6;fill-opacity:0.80000001;fill-rule:evenodd;stroke:#261933;stroke-width:1.0966843;"
     id="rect862"
     x="33.711986"
     y="37.584908"
     rx="0.53881705"
     width="23.477029"
     height="12.750523" />
  <text
     xml:space="preserve"
     style="fill:black;fill-opacity:1;stroke:none;font-family:helvetica;font-style:normal;font-weight:normal;font-size:12px;stroke-opacity:1;stroke-width:1pt;stroke-linejoin:miter;stroke-linecap:butt;"
     x="32.315410"
     y="45.739591"
     id="text973"><tspan
       id="tspan974"></tspan></text>
  <path
     style="font-size:12.000000;stroke-width:1.0000000pt;font-family:Radio Stars;"
     d="M 53.800758,46.556259 C 53.800758,47.100259 53.532758,47.372259 52.996758,47.372259 L 46.516758,47.372259 C 45.972758,47.372259 45.700758,47.100259 45.700758,46.556259 L 45.700758,41.372259 C 45.700758,40.828259 45.972758,40.556259 46.516758,40.556259 L 52.996758,40.556259 C 53.252758,40.556259 53.448758,40.636259 53.584758,40.796259 C 53.728758,40.956259 53.800758,41.148259 53.800758,41.372259 C 53.800758,41.596259 53.728758,41.788259 53.584758,41.948259 C 53.448758,42.108259 53.252758,42.188259 52.996758,42.188259 L 47.320758,42.188259 L 47.320758,45.740259 L 52.180758,45.740259 L 52.180758,44.780259 L 49.744758,44.780259 C 49.488758,44.780259 49.288758,44.700259 49.144758,44.540259 C 49.008758,44.380259 48.940758,44.188259 48.940758,43.964259 C 48.940758,43.740259 49.008758,43.548259 49.144758,43.388259 C 49.288758,43.228259 49.488758,43.148259 49.744758,43.148259 L 53.800758,43.148259 L 53.800758,46.556259 z M 42.628758,45.560259 L 39.448758,45.560259 L 38.488758,47.000259 C 38.320758,47.256259 38.096758,47.384259 37.816758,47.384259 C 37.600758,47.384259 37.404758,47.308259 37.228758,47.156259 C 37.060758,46.996259 36.976758,46.804259 36.976758,46.580259 C 36.976758,46.428259 37.024758,46.280259 37.120758,46.136259 L 39.964758,41.540259 C 40.332758,40.948259 40.688758,40.652259 41.032758,40.652259 C 41.272758,40.652259 41.488758,40.744259 41.680758,40.928259 C 41.800758,41.040259 41.952758,41.244259 42.136758,41.540259 L 44.968758,46.136259 C 45.056758,46.280259 45.100758,46.428259 45.100758,46.580259 C 45.100758,46.804259 45.016758,46.992259 44.848758,47.144259 C 44.680758,47.296259 44.484758,47.372259 44.260758,47.372259 C 43.988758,47.372259 43.768758,47.248259 43.600758,47.000259 L 42.628758,45.560259 z M 40.276758,44.132259 L 41.800758,44.132259 L 41.032758,42.908259 L 40.276758,44.132259 z "
     id="path979" />
</svg>
