<?xml version="1.0" encoding="UTF-8" standalone="no"?>
<!DOCTYPE svg PUBLIC "-//W3C//DTD SVG 20010904//EN"
"http://www.w3.org/TR/2001/REC-SVG-20010904/DTD/svg10.dtd">
<!-- Created with Inkscape (http://www.inkscape.org/) -->
<svg
   id="svg1"
   sodipodi:version="0.32"
   inkscape:version="0.38.1"
   width="48pt"
   height="48pt"
   sodipodi:docbase="/root/Desktop/mimes"
   sodipodi:docname="gnome-mime-text-x-haskell.svg"
   xmlns="http://www.w3.org/2000/svg"
   xmlns:inkscape="http://www.inkscape.org/namespaces/inkscape"
   xmlns:sodipodi="http://sodipodi.sourceforge.net/DTD/sodipodi-0.dtd"
   xmlns:xml="http://www.w3.org/XML/1998/namespace"
   xmlns:xlink="http://www.w3.org/1999/xlink">
  <defs
     id="defs3">
    <linearGradient
       id="linearGradient578">
      <stop
         style="stop-color:#d9cce6;stop-opacity:1;"
         offset="0.00000000"
         id="stop579" />
      <stop
         style="stop-color:#73667f;stop-opacity:1;"
         offset="1.00000000"
         id="stop580" />
    </linearGradient>
    <linearGradient
       xlink:href="#linearGradient578"
       id="linearGradient878"
       x1="2.3418767e-17"
       y1="0.50000000"
       x2="1.0000000"
       y2="0.50000000" />
    <linearGradient
       xlink:href="#linearGradient584"
       id="linearGradient861"
       x1="0.04069768"
       y1="0.04687500"
       x2="0.99418604"
       y2="0.96875000" />
    <linearGradient
       xlink:href="#linearGradient584"
       id="linearGradient869"
       x1="0.06481481"
       y1="0.04687500"
       x2="0.95370370"
       y2="0.94531250" />
    <linearGradient
       xlink:href="#linearGradient584"
       id="linearGradient983"
       x1="0.00000000"
       y1="0.04687500"
       x2="0.99462366"
       y2="1.00000000" />
    <linearGradient
       xlink:href="#linearGradient584"
       id="linearGradient860"
       x1="0.02380952"
       y1="0.04687500"
       x2="1.00793648"
       y2="0.99218750" />
    <linearGradient
       xlink:href="#linearGradient584"
       id="linearGradient893"
       x1="-6.9666495e-15"
       y1="0.015625000"
       x2="0.96103895"
       y2="0.89843750" />
    <linearGradient
       xlink:href="#linearGradient584"
       id="linearGradient874"
       x1="0.0083333338"
       y1="0.015625000"
       x2="0.95833331"
       y2="0.97656250" />
    <linearGradient
       id="linearGradient866">
      <stop
         style="stop-color:#ffffff;stop-opacity:1;"
         offset="0.00000000"
         id="stop867" />
      <stop
         style="stop-color:#d9cce6;stop-opacity:1;"
         offset="1.00000000"
         id="stop868" />
    </linearGradient>
    <linearGradient
       id="linearGradient584">
      <stop
         style="stop-color:#ffffff;stop-opacity:1;"
         offset="0.00000000"
         id="stop585" />
      <stop
         style="stop-color:#ffffff;stop-opacity:0;"
         offset="1.00000000"
         id="stop586" />
    </linearGradient>
    <linearGradient
       xlink:href="#linearGradient866"
       id="linearGradient586"
       x1="-0.00000000"
       y1="0.01562500"
       x2="0.99122804"
       y2="0.98437500" />
    <linearGradient
       xlink:href="#linearGradient584"
       id="linearGradient587"
       x1="0.00000000"
       y1="-0.00000000"
       x2="1.00000000"
       y2="1.00000000" />
  </defs>
  <sodipodi:namedview
     id="base"
     pagecolor="#ffffff"
     bordercolor="#666666"
     borderopacity="1.0"
     inkscape:pageopacity="0.0"
     inkscape:pageshadow="2"
     inkscape:zoom="7.9794719"
     inkscape:cx="27.525824"
     inkscape:cy="23.357023"
     inkscape:window-width="859"
     inkscape:window-height="728"
     inkscape:window-x="0"
     inkscape:window-y="25" />
  <path
     d="M 4.4389304 48.086315 C 5.2483181 50.50443 38.765774 61.377487 40.966438 59.55288 C 42.936267 57.902492 57.675565 8.7785888 56.688667 6.8303779 C 55.662821 4.6824777 21.657054 -0.6675724 20.042945 0.80153134 C 18.054709 2.621752 3.5888672 45.311841 4.4389304 48.086315 z "
     style="font-size:12;opacity:0.302675;fill-rule:evenodd;stroke-width:12.5;"
     id="path639" />
  <path
     d="M 4.5541516 46.08493 C 5.3114351 48.34726 36.66955 58.519843 38.728432 56.812781 C 40.571358 55.268717 54.36111 9.3095333 53.437795 7.4867937 C 52.478034 5.477268 20.663028 0.47192513 19.152904 1.8463842 C 17.292759 3.5493405 3.7588508 43.489198 4.5541516 46.08493 z "
     style="font-size:12;fill:url(#linearGradient586);fill-rule:evenodd;stroke:#261933;stroke-width:1.87726;"
     id="path634" />
  <path
     d="M 6.6876568 43.965773 C 6.360392 43.13667 19.363758 4.5872629 20.579427 3.7922731 C 22.09876 2.7554118 46.659814 7.3454032 46.98631 8.172561 C 47.28557 8.9306762 27.823671 5.3906629 23.493845 9.2635774 C 15.189619 16.482895 6.9861475 44.721984 6.6876568 43.965773 z "
     style="font-size:12;opacity:0.699936;fill:url(#linearGradient587);fill-rule:evenodd;stroke:none;stroke-width:0.100121pt;"
     id="path640" />
  <path
     d="M 24.319183 12.075836 C 33.553995 13.741297 27.793973 12.331291 36.712712 14.778718 C 37.091462 14.88268 36.706422 16.14629 36.317177 16.076038 C 27.101877 14.4141 32.735099 15.689891 23.793648 13.23621 C 23.437609 13.138503 23.94945 12.009106 24.319183 12.075836 z "
     style="font-size:12;fill:#261933;fill-rule:evenodd;stroke-width:1pt;opacity:0.50000000;"
     id="path644"
     sodipodi:nodetypes="ccccc" />
  <path
     d="M 22.350757 7.8910116 C 25.547252 8.2602629 26.114034 8.184496 29.03475 8.924669 C 29.416544 9.0166356 29.096255 10.291416 28.703836 10.240577 C 25.657509 9.8683203 25.401722 9.7353733 21.882829 9.0783212 C 21.40019 8.9636684 21.976856 7.8501295 22.350757 7.8910116 z "
     style="font-size:12;fill:#261933;fill-rule:evenodd;stroke-width:1pt;opacity:0.50000000;"
     id="path647" />
  <path
     d="M 26.199007 17.245351 C 35.433819 18.910812 35.626572 18.910674 44.545311 21.358101 C 44.924061 21.462063 44.539021 22.725673 44.149776 22.655421 C 34.934476 20.993483 34.614923 20.859406 25.673472 18.405725 C 25.317433 18.308018 25.829274 17.178621 26.199007 17.245351 z "
     style="font-size:12;fill:#261933;fill-rule:evenodd;stroke-width:1pt;opacity:0.50000000;"
     id="path703"
     sodipodi:nodetypes="ccccc" />
  <path
     d="M 21.499448 21.16165 C 30.73426 22.827111 24.974238 21.417105 33.892977 23.864532 C 34.271727 23.968494 33.886687 25.232104 33.497442 25.161852 C 24.282142 23.499914 29.915364 24.775705 20.973913 22.322024 C 20.617874 22.224317 21.129715 21.09492 21.499448 21.16165 z "
     style="font-size:12;fill:#261933;fill-rule:evenodd;stroke-width:1pt;opacity:0.50000000;"
     id="path704"
     sodipodi:nodetypes="ccccc" />
  <path
     d="M 22.143388 31.130954 C 31.368821 32.84761 31.71384 33.019083 40.618867 35.515941 C 40.997034 35.622002 40.604992 36.883457 40.216142 36.811047 C 31.010202 35.098022 30.539129 34.791632 21.611425 32.288396 C 21.255934 32.188715 21.774031 31.062175 22.143388 31.130954 z "
     style="font-size:12;fill:#261933;fill-rule:evenodd;stroke-width:1pt;opacity:0.50000000;"
     id="path705"
     sodipodi:nodetypes="ccccc" />
  <path
     d="M 20.246232 25.704557 C 29.481044 27.370018 23.721022 25.960012 32.639761 28.407439 C 33.018511 28.511401 32.633471 29.775011 32.244226 29.704759 C 23.028926 28.042821 28.662148 29.318612 19.720697 26.864931 C 19.364658 26.767224 19.876499 25.637827 20.246232 25.704557 z "
     style="font-size:12;fill:#261933;fill-rule:evenodd;stroke-width:1pt;opacity:0.50000000;"
     id="path706"
     sodipodi:nodetypes="ccccc" />
  <path
     d="M 16.93665 35.163866 C 26.187807 36.736003 20.413843 35.384225 29.356837 37.741479 C 29.736618 37.841612 29.364355 39.109045 28.974421 39.042727 C 19.742811 37.473915 25.388627 38.692766 16.422858 36.329487 C 16.065851 36.23538 16.566263 35.100872 16.93665 35.163866 z "
     style="font-size:12;fill:#261933;fill-rule:evenodd;stroke-width:1pt;opacity:0.50000000;"
     id="path707"
     sodipodi:nodetypes="ccccc" />
  <path
     d="M 12.255366 38.54345 C 15.419391 39.129001 15.990011 39.091913 18.853696 40.028793 C 19.22836 40.146485 18.822209 41.396561 18.434151 41.319182 C 15.42015 40.740834 15.173986 40.590817 11.707859 39.696229 C 11.234125 39.549053 11.885106 38.477262 12.255366 38.54345 z "
     style="font-size:12;fill:#261933;fill-rule:evenodd;stroke-width:1pt;opacity:0.50000000;"
     id="path708" />
  <path
     style="fill:#261933;fill-rule:evenodd;stroke:none;stroke-opacity:1;stroke-width:1pt;stroke-linejoin:miter;stroke-linecap:butt;fill-opacity:1;opacity:0.50000000;"
     d="M 30.070957 8.8365601 C 29.91057 8.7980218 31.261154 9.7815567 31.176691 10.120504 C 31.085295 10.487278 29.378159 10.914026 29.543383 10.953726 C 29.811958 11.01826 32.388778 10.791597 32.478085 10.433206 C 32.564636 10.085875 30.344368 8.902256 30.070957 8.8365601 z "
     id="path709"
     sodipodi:nodetypes="cssss" />
  <path
     style="fill:#261933;fill-rule:evenodd;stroke:none;stroke-opacity:1;stroke-width:1pt;stroke-linejoin:miter;stroke-linecap:butt;fill-opacity:1;opacity:0.50000000;"
     d="M 20.923204 9.4013327 C 21.078828 9.4560179 19.835526 8.3399452 19.954097 8.0113722 C 20.082401 7.655824 21.824143 7.4053007 21.663826 7.3489668 C 21.403227 7.257394 18.816725 7.2202306 18.691353 7.5676524 C 18.569851 7.9043526 20.657913 9.3081111 20.923204 9.4013327 z "
     id="path710"
     sodipodi:nodetypes="cssss" />
  <path
     style="fill:#261933;fill-rule:evenodd;stroke:none;stroke-opacity:1;stroke-width:1pt;stroke-linejoin:miter;stroke-linecap:butt;fill-opacity:1;opacity:0.50000000;"
     d="M 23.114334 13.609258 C 23.269958 13.663943 22.026656 12.54787 22.145227 12.219297 C 22.273531 11.863749 24.015273 11.613226 23.854956 11.556892 C 23.594357 11.465319 21.007855 11.428156 20.882483 11.775578 C 20.760981 12.112278 22.849043 13.516036 23.114334 13.609258 z "
     id="path711"
     sodipodi:nodetypes="cssss" />
  <path
     style="fill:#261933;fill-rule:evenodd;stroke:none;stroke-opacity:1;stroke-width:1pt;stroke-linejoin:miter;stroke-linecap:butt;fill-opacity:1;opacity:0.50000000;"
     d="M 37.505964 14.596583 C 37.345577 14.558045 38.696161 15.54158 38.611698 15.880527 C 38.520302 16.247301 36.813166 16.674049 36.97839 16.713749 C 37.246965 16.778283 39.823785 16.55162 39.913092 16.193229 C 39.999643 15.845898 37.779375 14.662279 37.505964 14.596583 z "
     id="path712"
     sodipodi:nodetypes="cssss" />
  <path
     style="fill:#261933;fill-rule:evenodd;stroke:none;stroke-opacity:1;stroke-width:1pt;stroke-linejoin:miter;stroke-linecap:butt;fill-opacity:1;opacity:0.50000000;"
     d="M 20.201879 22.581601 C 20.357503 22.636286 19.114201 21.520213 19.232772 21.19164 C 19.361076 20.836092 21.102818 20.585569 20.942501 20.529235 C 20.681902 20.437662 18.0954 20.400499 17.970028 20.747921 C 17.848526 21.084621 19.936588 22.488379 20.201879 22.581601 z "
     id="path713"
     sodipodi:nodetypes="cssss" />
  <path
     style="fill:#261933;fill-rule:evenodd;stroke:none;stroke-opacity:1;stroke-width:1pt;stroke-linejoin:miter;stroke-linecap:butt;fill-opacity:1;opacity:0.50000000;"
     d="M 34.593509 23.568926 C 34.433122 23.530388 35.783706 24.513923 35.699243 24.85287 C 35.607847 25.219644 33.900711 25.646392 34.065935 25.686092 C 34.33451 25.750626 36.91133 25.523963 37.000637 25.165572 C 37.087188 24.818241 34.86692 23.634622 34.593509 23.568926 z "
     id="path714"
     sodipodi:nodetypes="cssss" />
  <path
     style="fill:#261933;fill-rule:evenodd;stroke:none;stroke-opacity:1;stroke-width:1pt;stroke-linejoin:miter;stroke-linecap:butt;fill-opacity:1;opacity:0.50000000;"
     d="M 19.153504 27.256869 C 19.309128 27.311554 18.065826 26.195481 18.184397 25.866908 C 18.312701 25.51136 20.054443 25.260837 19.894126 25.204503 C 19.633527 25.11293 17.047025 25.075767 16.921653 25.423189 C 16.800151 25.759889 18.888213 27.163647 19.153504 27.256869 z "
     id="path715"
     sodipodi:nodetypes="cssss" />
  <path
     style="fill:#261933;fill-rule:evenodd;stroke:none;stroke-opacity:1;stroke-width:1pt;stroke-linejoin:miter;stroke-linecap:butt;fill-opacity:1;opacity:0.50000000;"
     d="M 33.237396 28.198312 C 33.077009 28.159774 34.427593 29.143309 34.34313 29.482256 C 34.251734 29.84903 32.544598 30.275778 32.709822 30.315478 C 32.978397 30.380012 35.555217 30.153349 35.644524 29.794958 C 35.731075 29.447627 33.510807 28.264008 33.237396 28.198312 z "
     id="path716"
     sodipodi:nodetypes="cssss" />
  <path
     style="fill:#261933;fill-rule:evenodd;stroke:none;stroke-opacity:1;stroke-width:1pt;stroke-linejoin:miter;stroke-linecap:butt;fill-opacity:1;opacity:0.50000000;"
     d="M 15.719644 36.616906 C 15.875268 36.671591 14.631966 35.555518 14.750537 35.226945 C 14.878841 34.871397 16.620583 34.620874 16.460266 34.56454 C 16.199667 34.472967 13.613165 34.435804 13.487793 34.783226 C 13.366291 35.119926 15.454353 36.523684 15.719644 36.616906 z "
     id="path717"
     sodipodi:nodetypes="cssss" />
  <path
     style="fill:#261933;fill-rule:evenodd;stroke:none;stroke-opacity:1;stroke-width:1pt;stroke-linejoin:miter;stroke-linecap:butt;fill-opacity:1;opacity:0.50000000;"
     d="M 30.135846 37.558349 C 29.975459 37.519811 31.326043 38.503346 31.24158 38.842293 C 31.150184 39.209067 29.443048 39.635815 29.608272 39.675515 C 29.876847 39.740049 32.453667 39.513386 32.542974 39.154995 C 32.629525 38.807664 30.409257 37.624045 30.135846 37.558349 z "
     id="path718"
     sodipodi:nodetypes="cssss" />
  <path
     style="fill:#261933;fill-rule:evenodd;stroke:none;stroke-opacity:1;stroke-width:1pt;stroke-linejoin:miter;stroke-linecap:butt;fill-opacity:1;opacity:0.50000000;"
     d="M 11.067318 40.050765 C 11.222942 40.10545 9.9796396 38.989377 10.098211 38.660804 C 10.226515 38.305256 11.968257 38.054733 11.80794 37.998399 C 11.547341 37.906826 8.9608389 37.869663 8.8354669 38.217085 C 8.7139649 38.553785 10.802027 39.957543 11.067318 40.050765 z "
     id="path719"
     sodipodi:nodetypes="cssss" />
  <path
     style="fill:#261933;fill-rule:evenodd;stroke:none;stroke-opacity:1;stroke-width:1pt;stroke-linejoin:miter;stroke-linecap:butt;fill-opacity:1;opacity:0.50000000;"
     d="M 19.501957 39.773742 C 19.34157 39.735204 20.692154 40.718739 20.607691 41.057686 C 20.516295 41.42446 18.809159 41.851208 18.974383 41.890908 C 19.242958 41.955442 21.819778 41.728779 21.909085 41.370388 C 21.995636 41.023057 19.775368 39.839438 19.501957 39.773742 z "
     id="path720"
     sodipodi:nodetypes="cssss" />
  <path
     style="fill:none;fill-opacity:1.00000000;fill-rule:evenodd;stroke:#261933;stroke-width:1.2500000;stroke-dasharray:none;stroke-opacity:0.30000001;"
     d="M 29.619156,6.7636148 C 27.845249,5.6961396 28.136610,8.5239293 26.495814,8.2803953 C 24.855026,8.0368653 25.973069,5.4085981 23.964735,5.9114793 C 21.956405,6.4143595 24.182380,8.2214603 22.861200,9.2011443 C 21.540017,10.180829 20.443622,7.5520078 19.379102,9.3277043 C 18.314596,11.103399 21.179134,10.802674 20.935960,12.441009 C 20.692797,14.079337 18.031596,12.961264 18.534477,14.969596 C 19.037361,16.977924 20.837609,14.742731 21.824140,16.073130 C 22.810663,17.403537 20.182999,18.484095 21.950702,19.555229 C 23.718400,20.626368 23.415723,17.767365 25.056498,18.010899 C 26.697288,18.254431 25.581615,20.887653 27.600104,20.387325 C 29.618586,19.886994 27.363998,18.091032 28.703640,17.097662 C 30.043275,16.104306 31.112532,18.754588 32.178226,16.983630 C 33.243913,15.212679 30.403266,15.523675 30.646426,13.885345 C 30.889588,12.247019 33.505695,13.355084 33.002813,11.346756 C 32.499935,9.3384253 30.719715,11.568610 29.733188,10.238204 C 28.746665,8.9077963 31.393081,7.8310933 29.619156,6.7636148 z M 27.315856,10.577302 C 27.937348,10.949881 28.408373,11.581059 28.621730,12.433121 C 29.048438,14.137245 28.192805,15.564510 26.488681,15.991221 C 24.784555,16.417929 23.357291,15.562297 22.930583,13.858174 C 22.503873,12.154048 23.359505,10.726782 25.063631,10.300074 C 25.915692,10.086719 26.694362,10.204722 27.315856,10.577302 z "
     id="path892" />
  <path
     style="fill:url(#linearGradient878);fill-opacity:1.00000000;fill-rule:evenodd;stroke:#261933;"
     d="M 28.925169,6.0409886 C 27.151262,4.9735132 27.442623,7.8013023 25.801827,7.5577685 C 24.161039,7.3142388 25.279082,4.6859717 23.270748,5.1888529 C 21.262418,5.6917331 23.488393,7.4988336 22.167213,8.4785173 C 20.846030,9.4582023 19.749635,6.8293809 18.685115,8.6050773 C 17.620609,10.380772 20.485147,10.080047 20.241973,11.718382 C 19.998810,13.356710 17.337609,12.238637 17.840490,14.246969 C 18.343374,16.255297 20.143622,14.020104 21.130153,15.350503 C 22.116676,16.680910 19.489012,17.761468 21.256715,18.832602 C 23.024413,19.903741 22.721736,17.044738 24.362511,17.288272 C 26.003301,17.531804 24.887628,20.165026 26.906117,19.664698 C 28.924599,19.164367 26.670011,17.368405 28.009653,16.375035 C 29.349288,15.381679 30.418545,18.031961 31.484239,16.261003 C 32.549926,14.490052 29.709279,14.801048 29.952439,13.162718 C 30.195601,11.524392 32.811708,12.632457 32.308826,10.624129 C 31.805948,8.6157983 30.025728,10.845983 29.039201,9.5155773 C 28.052678,8.1851693 30.699094,7.1084662 28.925169,6.0409886 z M 26.621869,9.8546753 C 27.243361,10.227254 27.714386,10.858432 27.927743,11.710494 C 28.354451,13.414618 27.498818,14.841883 25.794694,15.268594 C 24.090568,15.695302 22.663304,14.839670 22.236596,13.135547 C 21.809886,11.431421 22.665518,10.004155 24.369644,9.5774473 C 25.221705,9.3640923 26.000375,9.4820953 26.621869,9.8546753 z "
     id="path877" />
  <path
     style="fill:none;fill-opacity:1.00000000;fill-rule:evenodd;stroke:#261933;stroke-width:1.0000000;stroke-dasharray:none;stroke-dashoffset:0.0000000;stroke-opacity:0.40000001;"
     d="M 31.716797,19.604644 C 29.930399,19.921287 31.449724,23.216175 30.353598,23.728760 C 29.257472,24.241349 27.746307,21.012612 26.332913,22.160261 C 24.919521,23.307901 27.844583,25.330926 27.151598,26.322906 C 26.458621,27.314884 23.560130,25.252694 22.916753,26.985389 C 22.273371,28.718080 25.887811,29.048234 25.783669,30.253800 C 25.679510,31.459372 22.124132,31.173994 22.421792,32.962674 C 22.719443,34.751350 25.903890,33.239993 26.416480,34.336117 C 26.929063,35.432252 23.776797,36.889772 24.936714,38.321618 C 26.096626,39.753444 28.153582,36.771096 29.145562,37.464080 C 30.137539,38.157060 28.144619,41.147055 29.823800,41.764555 C 31.502985,42.382054 31.861700,38.834189 33.067271,38.938332 C 34.272839,39.042490 33.902741,42.512781 35.717862,42.230904 C 37.532971,41.949023 36.000689,38.685012 37.096816,38.172419 C 38.192942,37.659834 39.742213,40.940027 41.136926,39.764023 C 42.531641,38.588027 39.570654,36.481519 40.263634,35.489542 C 40.956612,34.497562 43.866019,36.549116 44.517906,34.850162 C 45.169792,33.151206 41.670750,32.840870 41.774906,31.635303 C 41.879057,30.429728 45.352812,30.795592 45.048048,28.961609 C 44.743293,27.127630 41.438363,28.673270 40.925771,27.577145 C 40.413187,26.481010 43.640502,24.893972 42.497945,23.513930 C 41.355393,22.133899 39.327283,25.025604 38.335300,24.332616 C 37.343325,23.639640 39.331361,20.822273 37.624777,20.157890 C 35.918188,19.493511 35.606642,23.107418 34.400733,23.007216 C 33.194819,22.907038 33.503204,19.287972 31.716797,19.604644 z "
     id="path889"
     sodipodi:nodetypes="ccccccccccccccccccccccccc" />
  <path
     style="fill:none;fill-opacity:1.00000000;fill-rule:evenodd;stroke:#261933;stroke-opacity:0.30000001;stroke-width:1.2500000;stroke-dasharray:none;"
     d="M 11.232195,35.710057 C 9.8574082,37.258028 12.690657,37.490376 12.150249,39.058649 C 11.609846,40.626913 9.2312912,39.045684 9.3572042,41.112189 C 9.4831182,43.178689 11.667910,41.322009 12.388592,42.800491 C 13.109278,44.278978 10.323935,44.874503 11.874207,46.246711 C 13.424480,47.618907 13.654365,44.747815 15.220284,45.287419 C 16.786198,45.827009 15.198898,48.237933 17.265400,48.112020 C 19.331899,47.986103 17.464900,45.806356 18.953702,45.080632 C 20.442508,44.354917 21.022677,47.136218 22.399922,45.595018 C 23.777171,44.053822 20.911162,43.826871 21.451566,42.258621 C 21.991972,40.690352 24.375832,42.270162 24.254292,40.194143 C 24.132747,38.118130 21.953656,40.004982 21.222905,38.505840 C 20.492167,37.006707 23.293627,36.441796 21.748228,35.069303 C 20.202836,33.696818 19.987431,36.546307 18.421514,36.006718 C 16.855601,35.467129 18.424791,33.098698 16.358291,33.224613 C 14.291792,33.350523 16.157542,35.509663 14.668733,36.235383 C 13.179926,36.961096 12.606986,34.162069 11.232195,35.710057 z M 14.558612,38.673897 C 15.038882,38.131303 15.745759,37.784062 16.622501,37.730640 C 18.375984,37.623799 19.622059,38.726745 19.728902,40.480229 C 19.835744,42.233713 18.732799,43.479788 16.979315,43.586629 C 15.225829,43.693471 13.979755,42.590525 13.872914,40.837040 C 13.819493,39.960300 14.078341,39.216492 14.558612,38.673897 z "
     id="path891" />
  <path
     style="fill:url(#linearGradient878);fill-opacity:1.00000000;fill-rule:evenodd;stroke:#261933;"
     d="M 10.605063,34.893830 C 9.2302762,36.441801 12.063525,36.674149 11.523117,38.242422 C 10.982714,39.810686 8.6041592,38.229457 8.7300722,40.295962 C 8.8559862,42.362462 11.040778,40.505782 11.761460,41.984264 C 12.482146,43.462751 9.6968032,44.058276 11.247075,45.430484 C 12.797348,46.802680 13.027233,43.931588 14.593152,44.471192 C 16.159066,45.010782 14.571766,47.421706 16.638268,47.295793 C 18.704767,47.169876 16.837768,44.990129 18.326570,44.264405 C 19.815376,43.538690 20.395545,46.319991 21.772790,44.778791 C 23.150039,43.237595 20.284030,43.010644 20.824434,41.442394 C 21.364840,39.874125 23.748700,41.453935 23.627160,39.377916 C 23.505615,37.301903 21.326524,39.188755 20.595773,37.689613 C 19.865035,36.190480 22.666495,35.625569 21.121096,34.253076 C 19.575704,32.880591 19.360299,35.730080 17.794382,35.190491 C 16.228469,34.650902 17.797659,32.282471 15.731159,32.408386 C 13.664660,32.534296 15.530410,34.693436 14.041601,35.419156 C 12.552794,36.144869 11.979854,33.345842 10.605063,34.893830 z M 13.931480,37.857670 C 14.411750,37.315076 15.118627,36.967835 15.995369,36.914413 C 17.748852,36.807572 18.994927,37.910518 19.101770,39.664002 C 19.208612,41.417486 18.105667,42.663561 16.352183,42.770402 C 14.598697,42.877244 13.352623,41.774298 13.245782,40.020813 C 13.192361,39.144073 13.451209,38.400265 13.931480,37.857670 z "
     id="path890" />
  <path
     d="M 9.3946562,40.766670 C 9.3463092,40.698016 9.1503862,39.926390 9.3597072,39.759154 C 9.7446922,39.451572 11.135535,39.282447 11.177574,39.342215 C 11.217081,39.398251 10.029619,39.766844 9.6044392,40.106520 C 9.4353142,40.241662 9.4279012,40.813820 9.3946562,40.766670 z "
     style="font-size:12;opacity:0.7;fill:url(#linearGradient861);fill-rule:evenodd;stroke:none;stroke-width:1.05154pt;"
     id="path868" />
  <path
     d="M 15.071161,34.770584 C 15.038469,34.687933 15.039481,33.479475 15.313866,33.163513 C 15.536401,32.907271 16.532361,32.979148 16.561922,33.053924 C 16.590147,33.125249 15.736607,33.314541 15.487227,33.601772 C 15.239686,33.886791 15.096256,34.833989 15.071161,34.770584 z "
     style="font-size:12;opacity:0.699936;fill:url(#linearGradient869);fill-rule:evenodd;stroke:none;stroke-width:1.07368pt;"
     id="path869" />
  <path
     d="M 19.162896,35.467739 C 19.349517,35.254504 20.405057,34.587355 20.520263,34.587355 C 20.600705,34.587355 20.043926,35.277067 19.749881,35.467739 C 19.591438,35.570512 19.092723,35.547951 19.162896,35.467739 z "
     style="font-size:12;opacity:0.7;fill:url(#linearGradient983);fill-rule:evenodd;stroke:none;stroke-width:1.18334pt;"
     id="path870" />
  <path
     d="M 11.365635,44.464496 C 11.420521,44.312869 12.295841,43.403706 12.489508,43.306090 C 12.583070,43.258894 12.395666,43.856515 12.227232,44.030106 C 12.021043,44.242650 11.333126,44.554193 11.365635,44.464496 z "
     style="font-size:12;opacity:0.7;fill:url(#linearGradient860);fill-rule:evenodd;stroke:none;stroke-width:1.11113pt;"
     id="path871" />
  <path
     style="fill:url(#linearGradient893);fill-rule:evenodd;stroke:none;stroke-opacity:1;stroke-width:1pt;stroke-linejoin:miter;stroke-linecap:butt;fill-opacity:1;"
     d="M 11.028131,35.924530 C 10.963428,35.948058 10.742381,35.725449 10.783491,35.639117 C 10.878292,35.440035 11.214697,35.130217 11.435864,35.068290 C 11.554474,35.035079 11.832949,35.293452 11.802824,35.353703 C 11.764994,35.429363 11.372042,35.372832 11.231997,35.476023 C 11.113811,35.563108 11.112930,35.893694 11.028131,35.924530 z "
     id="path872"
     sodipodi:nodetypes="csssss" />
  <path
     style="fill:url(#linearGradient874);fill-rule:evenodd;stroke:none;stroke-opacity:1;stroke-width:1pt;stroke-linejoin:miter;stroke-linecap:butt;fill-opacity:1;"
     d="M 14.983146,43.304508 C 14.888116,43.196807 17.241445,44.030155 18.734295,42.570587 C 20.525886,40.898668 19.414152,38.385770 19.508989,38.493252 C 19.618019,38.616819 20.809694,41.430544 19.142028,42.896774 C 17.599692,44.221890 15.091982,43.427856 14.983146,43.304508 z "
     id="path873"
     sodipodi:nodetypes="cssss" />
  <path
     d="M 18.562494,14.639354 C 18.500764,14.582432 18.146609,13.869433 18.315981,13.661836 C 18.627490,13.280022 19.951444,12.821554 20.005135,12.871119 C 20.055566,12.917569 18.972465,13.528159 18.628428,13.949818 C 18.491585,14.117570 18.604930,14.678438 18.562494,14.639354 z "
     style="font-size:12;opacity:0.7;fill:url(#linearGradient861);fill-rule:evenodd;stroke:none;stroke-width:1.05154pt;"
     id="path875" />
  <path
     d="M 23.049533,7.6392093 C 23.000156,7.5653053 22.746443,6.3837801 22.948071,6.0170847 C 23.111600,5.7196960 24.100336,5.5800440 24.144993,5.6469098 C 24.187617,5.7106837 23.393147,6.0756207 23.209907,6.4089603 C 23.027999,6.7397500 23.087428,7.6959008 23.049533,7.6392093 z "
     style="font-size:12;opacity:0.699936;fill:url(#linearGradient869);fill-rule:evenodd;stroke:none;stroke-width:1.07368pt;"
     id="path876" />
  <path
     d="M 27.196290,7.5736297 C 27.333777,7.3258514 28.224993,6.4512173 28.337611,6.4269358 C 28.416246,6.4099814 28.017342,7.2015498 27.770090,7.4499133 C 27.636867,7.5837721 27.144600,7.6668300 27.196290,7.5736297 z "
     style="font-size:12;opacity:0.7;fill:url(#linearGradient983);fill-rule:evenodd;stroke:none;stroke-width:1.18334pt;"
     id="path878" />
  <path
     d="M 21.095588,17.954023 C 21.117283,17.794234 21.781320,16.721006 21.950063,16.584764 C 22.031576,16.518909 21.974339,17.142604 21.846276,17.347795 C 21.689516,17.599023 21.082714,18.048557 21.095588,17.954023 z "
     style="font-size:12;opacity:0.7;fill:url(#linearGradient860);fill-rule:evenodd;stroke:none;stroke-width:1.11113pt;"
     id="path879" />
  <path
     style="fill:url(#linearGradient893);fill-rule:evenodd;stroke:none;stroke-opacity:1;stroke-width:1pt;stroke-linejoin:miter;stroke-linecap:butt;fill-opacity:1;"
     d="M 19.282874,9.4752103 C 19.224583,9.5118473 18.961584,9.3408273 18.983574,9.2477703 C 19.034286,9.0331793 19.297835,8.6594193 19.500982,8.5522683 C 19.609928,8.4948043 19.936603,8.6886803 19.919854,8.7539273 C 19.898820,8.8358613 19.502781,8.8634203 19.387631,8.9938103 C 19.290454,9.1038483 19.359269,9.4271943 19.282874,9.4752103 z "
     id="path880"
     sodipodi:nodetypes="csssss" />
  <path
     style="fill:url(#linearGradient874);fill-rule:evenodd;stroke:none;stroke-opacity:1;stroke-width:1pt;stroke-linejoin:miter;stroke-linecap:butt;fill-opacity:1;"
     d="M 24.184346,15.972064 C 24.079790,15.873585 26.499933,16.486396 27.851845,14.895399 C 29.481647,13.065410 28.142950,10.665723 28.247293,10.764003 C 28.367251,10.876991 29.813288,13.568852 28.287917,15.182602 C 26.874333,16.644283 24.304092,16.084851 24.184346,15.972064 z "
     id="path881"
     sodipodi:nodetypes="cssss" />
  <rect
     style="fill:#000000;fill-opacity:0.30000001;fill-rule:evenodd;stroke:none;stroke-width:1.0000000pt;stroke-opacity:1.0000000;"
     id="rect937"
     x="35.537372"
     y="39.173752"
     rx="0.54212593"
     width="23.621207"
     height="12.888113" />
  <rect
     style="fill:#d9cce6;fill-opacity:0.80000001;fill-rule:evenodd;stroke:#261933;stroke-width:1.0966843;"
     id="rect862"
     x="33.711986"
     y="37.584908"
     rx="0.53881705"
     width="23.477029"
     height="12.750523" />
  <text
     xml:space="preserve"
     style="fill:black;fill-opacity:1;stroke:none;font-family:helvetica;font-style:normal;font-weight:normal;font-size:12px;stroke-opacity:1;stroke-width:1pt;stroke-linejoin:miter;stroke-linecap:butt;"
     x="32.315410"
     y="45.739591"
     id="text863"><tspan
       id="tspan864"></tspan></text>
  <path
     style="font-size:12.000000;stroke-width:1.0000000pt;font-family:Radio Stars;"
     d="M 54.068562,46.651844 C 54.068562,47.195844 53.800562,47.467844 53.264562,47.467844 L 46.784562,47.467844 C 46.528562,47.467844 46.328562,47.387844 46.184562,47.227844 C 46.040562,47.067844 45.968562,46.875844 45.968562,46.651844 C 45.968562,46.427844 46.040562,46.235844 46.184562,46.075844 C 46.328562,45.915844 46.528562,45.835844 46.784562,45.835844 L 52.460562,45.835844 L 52.460562,44.875844 L 46.784562,44.875844 C 46.248562,44.875844 45.980562,44.603844 45.980562,44.059844 L 45.980562,41.467844 C 45.980562,40.923844 46.248562,40.651844 46.784562,40.651844 L 53.264562,40.651844 C 53.520562,40.651844 53.720562,40.731844 53.864562,40.891844 C 54.008562,41.051844 54.080562,41.243844 54.080562,41.467844 C 54.080562,41.691844 54.008562,41.883844 53.864562,42.043844 C 53.720562,42.203844 53.520562,42.283844 53.264562,42.283844 L 47.588562,42.283844 L 47.588562,43.243844 L 53.264562,43.243844 C 53.800562,43.243844 54.068562,43.515844 54.068562,44.059844 L 54.068562,46.651844 z M 45.080562,46.651844 C 45.080562,46.907844 45.000562,47.107844 44.840562,47.251844 C 44.680562,47.387844 44.492562,47.455844 44.276562,47.455844 C 44.060562,47.455844 43.872562,47.387844 43.712562,47.251844 C 43.552562,47.107844 43.472562,46.907844 43.472562,46.651844 L 43.472562,44.875844 L 38.600562,44.875844 L 38.600562,46.651844 C 38.600562,46.907844 38.520562,47.107844 38.360562,47.251844 C 38.208562,47.387844 38.020562,47.455844 37.796562,47.455844 C 37.580562,47.455844 37.392562,47.387844 37.232562,47.251844 C 37.072562,47.107844 36.992562,46.907844 36.992562,46.651844 L 36.992562,41.467844 C 36.992562,41.211844 37.072562,41.015844 37.232562,40.879844 C 37.392562,40.735844 37.580562,40.663844 37.796562,40.663844 C 38.020562,40.663844 38.208562,40.735844 38.360562,40.879844 C 38.520562,41.015844 38.600562,41.211844 38.600562,41.467844 L 38.600562,43.243844 L 43.472562,43.243844 L 43.472562,41.467844 C 43.472562,41.211844 43.552562,41.015844 43.712562,40.879844 C 43.872562,40.735844 44.060562,40.663844 44.276562,40.663844 C 44.492562,40.663844 44.680562,40.735844 44.840562,40.879844 C 45.000562,41.015844 45.080562,41.211844 45.080562,41.467844 L 45.080562,46.651844 z "
     id="path893" />
</svg>
