<?xml version="1.0" encoding="UTF-8" standalone="no"?>
<!DOCTYPE svg PUBLIC "-//W3C//DTD SVG 20010904//EN"
"http://www.w3.org/TR/2001/REC-SVG-20010904/DTD/svg10.dtd">
<!-- Created with Inkscape (http://www.inkscape.org/) -->
<svg
   version="1.0"
   x="0"
   y="0"
   width="48pt"
   height="48pt"
   id="svg1"
   sodipodi:version="0.32"
   inkscape:version="0.38.1"
   sodipodi:docname="gnome-mime-x-directory-smb-server.svg"
   sodipodi:docbase="/home/scaba/files/lila-artwork/devel/lila-gnome-0.5.1_pre1/Lila/scalable/mimetypes"
   xmlns="http://www.w3.org/2000/svg"
   xmlns:inkscape="http://www.inkscape.org/namespaces/inkscape"
   xmlns:sodipodi="http://sodipodi.sourceforge.net/DTD/sodipodi-0.dtd"
   xmlns:xlink="http://www.w3.org/1999/xlink">
  <sodipodi:namedview
     id="base"
     pagecolor="#ffffff"
     bordercolor="#666666"
     borderopacity="1.0"
     inkscape:pageopacity="0.0"
     inkscape:pageshadow="2"
     inkscape:zoom="4.9119411"
     inkscape:cx="51.109397"
     inkscape:cy="24.010179"
     inkscape:window-width="640"
     inkscape:window-height="501"
     inkscape:window-x="36"
     inkscape:window-y="167" />
  <defs
     id="defs3">
    <linearGradient
       id="linearGradient570">
      <stop
         style="stop-color:#ffffff;stop-opacity:1;"
         offset="0"
         id="stop571" />
      <stop
         style="stop-color:#ffffff;stop-opacity:0;"
         offset="1"
         id="stop572" />
    </linearGradient>
    <linearGradient
       id="linearGradient563">
      <stop
         style="stop-color:#d9cce6;stop-opacity:1;"
         offset="0.00000000"
         id="stop564" />
      <stop
         style="stop-color:#73667f;stop-opacity:1;"
         offset="1.00000000"
         id="stop565" />
    </linearGradient>
    <linearGradient
       x1="0.00000000"
       y1="0.01562500"
       x2="0.98275864"
       y2="0.99218750"
       id="linearGradient566"
       xlink:href="#linearGradient563" />
    <linearGradient
       x1="-0.000000"
       y1="0.027779"
       x2="0.992727"
       y2="0.972222"
       id="linearGradient569"
       xlink:href="#linearGradient570" />
    <linearGradient
       x1="0.027027"
       y1="0.015625"
       x2="0.864865"
       y2="0.984375"
       id="linearGradient573"
       xlink:href="#linearGradient570" />
    <linearGradient
       x1="-0.023529"
       y1="0.000000"
       x2="0.917647"
       y2="0.960938"
       id="linearGradient575"
       xlink:href="#linearGradient570" />
    <linearGradient
       id="linearGradient578"
       xlink:href="#linearGradient570" />
  </defs>
  <path
     d="M 9.6630593 55.19794 C 10.501536 56.430664 18.62755 60.295829 22.988578 59.453143 C 34.080621 57.309787 55.031362 47.718156 56.022367 46.239608 C 56.95292 44.963159 57.15481 9.6538053 56.470299 8.3907007 C 55.958321 7.2611019 41.570566 5.6558734 40.345336 5.8151316 C 38.770407 6.0404294 9.843811 10.731439 9.1031495 11.862033 C 8.3323749 13.110666 9.0264771 54.209608 9.6630593 55.19794 z "
     style="font-size:12;opacity:0.302675;fill-rule:evenodd;stroke-width:12.5;"
     id="path716" />
  <path
     d="M 7.1798002 52.657523 C 8.0182784 53.890246 16.144334 57.755411 20.505361 56.912726 C 31.597403 54.769368 52.548156 45.177738 53.539147 43.699189 C 54.469701 42.42274 54.671589 7.1134289 53.987079 5.8502835 C 53.4751 4.7207344 39.087349 3.1155061 37.862119 3.2747643 C 36.28719 3.5000621 7.3605518 8.1911019 6.6198605 9.3216147 C 5.8491892 10.570248 6.5432809 51.669189 7.1798002 52.657523 z "
     style="font-size:12;fill:url(#linearGradient566);fill-rule:evenodd;stroke:#261933;stroke-width:1.875;stroke-opacity:1;stroke-dasharray:none;"
     id="path616" />
  <path
     d="M 20.953288 55.00914 C 20.610157 54.704089 21.106839 15.749738 21.737159 14.584654 C 22.294604 13.459295 50.955154 7.7836558 51.299619 8.0898463 C 51.627053 8.3809064 25.233637 13.428502 23.752728 16.37626 C 21.84329 20.043944 21.282047 55.30136 20.953288 55.00914 z "
     style="font-size:12;opacity:0.990000;fill:url(#linearGradient575);fill-rule:evenodd;stroke:none;stroke-width:0.102641pt;"
     id="path618" />
  <path
     d="M 9.867301 10.105488 C 9.9427422 9.8789568 28.737199 5.7341754 38.198065 4.954429 C 42.324043 4.614368 50.701426 6.5250161 50.627735 6.7460961 C 50.552081 6.9729339 42.017349 5.9464888 37.750138 6.2981786 C 28.430506 7.0662853 9.7935013 10.326885 9.867301 10.105488 z "
     style="font-size:12;opacity:0.990000;fill:url(#linearGradient569);fill-rule:evenodd;stroke:none;stroke-width:0.102641pt;"
     id="path619" />
  <ellipse
     cx="410.204895"
     cy="422.408997"
     rx="11.720139"
     ry="11.720139"
     transform="matrix(0.149299,0.000000,0.000000,0.149299,-47.89606,-15.96460)"
     style="font-size:12;fill:#80ff80;fill-rule:evenodd;stroke:#003f00;stroke-width:6.25;stroke-linecap:round;stroke-linejoin:round;"
     id="path722" />
  <path
     d="M 9.6433377 16.37626 C 8.9588828 16.438461 9.0555105 18.789974 9.7553193 19.175701 C 11.967036 20.394978 16.193909 21.38988 18.377707 21.191372 C 19.068073 21.128657 19.070536 18.77386 18.377707 18.391931 C 16.159114 17.168857 11.833089 16.177238 9.6433377 16.37626 z "
     style="font-size:12;opacity:0.498153;fill:none;fill-rule:evenodd;stroke:#261933;stroke-width:1.875;stroke-opacity:1;stroke-dasharray:none;"
     id="path712" />
  <path
     d="M 9.4193744 23.319024 C 8.7349196 23.381225 8.8315052 25.732739 9.5313561 26.118466 C 11.743072 27.337743 15.969945 28.332645 18.153743 28.134137 C 18.844108 28.071422 18.846572 25.716624 18.153743 25.334696 C 15.93515 24.111622 11.609125 23.120004 9.4193744 23.319024 z "
     style="font-size:12;opacity:0.498153;fill:none;fill-rule:evenodd;stroke:#261933;stroke-width:1.875;stroke-dasharray:none;stroke-opacity:1;"
     id="path713" />
  <path
     d="M 9.3073913 29.925743 C 8.6229379 29.987944 8.7195237 32.339456 9.4193744 32.725183 C 11.63109 33.94446 15.857964 34.939362 18.041762 34.740855 C 18.732127 34.678141 18.734591 32.323343 18.041762 31.941414 C 15.823168 30.718339 11.497143 29.726721 9.3073913 29.925743 z "
     style="font-size:12;opacity:0.498153;fill:none;fill-rule:evenodd;stroke:#261933;stroke-width:1.875;stroke-dasharray:none;stroke-opacity:1;"
     id="path714" />
  <path
     d="M 9.083428 36.868507 C 8.3989747 36.930708 8.4955604 39.282222 9.1954097 39.66795 C 11.407126 40.887225 15.634001 41.882128 17.817799 41.68362 C 18.508164 41.620906 18.510628 39.266107 17.817799 38.88418 C 15.599206 37.661104 11.273179 36.669486 9.083428 36.868507 z "
     style="font-size:12;opacity:0.498153;fill:none;fill-rule:evenodd;stroke:#261933;stroke-width:1.875;stroke-dasharray:none;stroke-opacity:1;"
     id="path715" />
  <path
     d="M 8.4114978 51.649688 C 8.1572549 50.984776 7.3111813 11.89658 7.9636731 11.001341 C 8.3923035 10.259551 19.120831 14.22818 19.385543 14.920599 C 19.606016 15.49724 10.20571 12.066245 9.4193744 14.808618 C 8.0927955 19.546954 8.6425427 52.253834 8.4114978 51.649688 z "
     style="font-size:12;opacity:0.990000;fill:url(#linearGradient573);fill-rule:evenodd;stroke:none;stroke-width:0.102641pt;"
     id="path617" />
  <g
     id="g846"
     transform="matrix(0.412123,-6.159197e-2,6.517594e-2,0.436102,32.99544,34.51835)">
    <defs
       id="defs955">
      <linearGradient
         id="linearGradient1107">
        <stop
           style="stop-color:#d7a600;stop-opacity:1.0000000;"
           offset="0.0000000"
           id="stop1108" />
        <stop
           style="stop-color:#fff300;stop-opacity:1.0000000;"
           offset="1.0000000"
           id="stop1109" />
      </linearGradient>
      <linearGradient
         id="linearGradient1065">
        <stop
           style="stop-color:#00ff00;stop-opacity:1.0000000;"
           offset="0.0000000"
           id="stop1066" />
        <stop
           style="stop-color:#008700;stop-opacity:1.0000000;"
           offset="1.0000000"
           id="stop1067" />
      </linearGradient>
      <linearGradient
         id="linearGradient1059">
        <stop
           style="stop-color:#0000ff;stop-opacity:1.0000000;"
           offset="0.0000000"
           id="stop1060" />
        <stop
           style="stop-color:#00007f;stop-opacity:1.0000000;"
           offset="1.0000000"
           id="stop1061" />
      </linearGradient>
      <linearGradient
         id="linearGradient964">
        <stop
           style="stop-color:#ffffff;stop-opacity:1.0000000;"
           offset="0.0000000"
           id="stop965" />
        <stop
           style="stop-color:#ffffff;stop-opacity:0.0000000;"
           offset="1.0000000"
           id="stop966" />
      </linearGradient>
      <linearGradient
         id="linearGradient958">
        <stop
           style="stop-color:#f50000;stop-opacity:1.0000000;"
           offset="0.0000000"
           id="stop959" />
        <stop
           style="stop-color:#a80000;stop-opacity:1.0000000;"
           offset="1.0000000"
           id="stop960" />
      </linearGradient>
      <linearGradient
         xlink:href="#linearGradient958"
         id="linearGradient961"
         x1="0.0071428572"
         y1="0.023437500"
         x2="0.98571426"
         y2="0.99218750" />
      <linearGradient
         xlink:href="#linearGradient964"
         id="linearGradient963"
         x1="-0.0064935065"
         y1="0.031250000"
         x2="0.55844158"
         y2="0.50781250" />
      <linearGradient
         xlink:href="#linearGradient1059"
         id="linearGradient1062"
         x1="0.0071428572"
         y1="0.023437500"
         x2="0.98571426"
         y2="0.99218750" />
      <linearGradient
         xlink:href="#linearGradient1065"
         id="linearGradient1064"
         x1="0.0071428572"
         y1="0.023437500"
         x2="0.98571426"
         y2="0.99218750" />
      <linearGradient
         xlink:href="#linearGradient964"
         id="linearGradient1071"
         x1="0.98305082"
         y1="0.99218750"
         x2="0.65254235"
         y2="0.63281250" />
      <linearGradient
         xlink:href="#linearGradient1107"
         id="linearGradient1110"
         x1="0.0071428572"
         y1="0.023437500"
         x2="0.98571426"
         y2="0.99218750" />
      <linearGradient
         xlink:href="#linearGradient964"
         id="linearGradient862"
         x1="-0.11538462"
         y1="-1.8333859e-16"
         x2="0.39743590"
         y2="0.54687500" />
      <linearGradient
         xlink:href="#linearGradient964"
         id="linearGradient868"
         x1="1.0897436"
         y1="1.0625000"
         x2="0.55128205"
         y2="0.45312500" />
    </defs>
    <sodipodi:namedview
       id="namedview871"
       pagecolor="#ffffff"
       bordercolor="#666666"
       borderopacity="1.0"
       inkscape:pageopacity="0.0"
       inkscape:pageshadow="2"
       inkscape:zoom="5.6718750"
       inkscape:cx="25.367144"
       inkscape:cy="23.026429"
       inkscape:window-width="668"
       inkscape:window-height="525"
       inkscape:window-x="71"
       inkscape:window-y="274" />
    <g
       id="g1040"
       style="opacity:0.30000000;"
       transform="translate(1.480442,2.103786)">
      <path
         style="fill:#000000;fill-opacity:1.0000000;fill-rule:evenodd;stroke:none;stroke-width:1.8750000;stroke-dasharray:none;"
         d="M 10.420991,7.4518677 C 8.8072103,14.893187 8.4037654,18.031092 6.6555032,27.624116 C 12.079598,23.589667 21.538141,23.724149 28.979458,27.624116 C 30.593238,18.569019 31.265647,15.700077 32.744945,7.4518677 C 26.244998,2.4760464 16.248529,2.6105279 10.420991,7.4518677 z "
         id="path1036"
         sodipodi:nodetypes="ccccc" />
      <path
         style="fill:#000000;fill-opacity:1.0000000;fill-rule:evenodd;stroke:none;stroke-width:1.8750000;stroke-dasharray:none;"
         d="M 6.1741408,31.263390 C 4.5603610,38.704709 4.1569162,41.842613 2.4086547,51.435637 C 7.8327472,47.401187 17.291292,47.535669 24.732610,51.435637 C 26.346389,42.380539 27.018798,39.511599 28.498096,31.263390 C 21.998149,26.287569 12.001680,26.422050 6.1741408,31.263390 z "
         id="path1037"
         sodipodi:nodetypes="ccccc" />
      <path
         style="fill:#000000;fill-opacity:1.0000000;fill-rule:evenodd;stroke:none;stroke-width:1.8750000;stroke-dasharray:none;"
         d="M 54.428495,29.110432 C 56.042274,21.669114 56.445719,18.531209 58.193981,8.9381846 C 52.769887,12.972634 43.311345,12.838152 35.870027,8.9381846 C 34.256247,17.993282 33.583838,20.862224 32.104540,29.110432 C 38.604487,34.086253 48.600956,33.951772 54.428495,29.110432 z "
         id="path1038"
         sodipodi:nodetypes="ccccc" />
      <path
         style="fill:#000000;fill-opacity:1.0000000;fill-rule:evenodd;stroke:none;stroke-width:1.8750000;stroke-dasharray:none;stroke-opacity:1.0000000;"
         d="M 50.064499,52.987700 C 51.678278,45.546381 52.081723,42.408476 53.829985,32.815453 C 48.405891,36.849902 38.947349,36.715419 31.506031,32.815453 C 29.892252,41.870550 29.219843,44.739491 27.740545,52.987700 C 34.240491,57.963520 44.236960,57.829040 50.064499,52.987700 z "
         id="path1039"
         sodipodi:nodetypes="ccccc" />
    </g>
    <path
       style="fill:url(#linearGradient961);fill-rule:evenodd;stroke:#330000;stroke-width:1.8750000;stroke-dasharray:none;stroke-linejoin:round;stroke-linecap:round;"
       d="M 10.109319,7.4518677 C 8.4955379,14.893187 8.0920930,18.031092 6.3438308,27.624116 C 11.767926,23.589667 21.226469,23.724149 28.667786,27.624116 C 30.281566,18.569019 30.953975,15.700077 32.433273,7.4518677 C 25.933326,2.4760464 15.936857,2.6105279 10.109319,7.4518677 z "
       id="path957"
       sodipodi:nodetypes="ccccc" />
    <path
       style="fill:url(#linearGradient963);fill-rule:evenodd;stroke:none;stroke-opacity:1;stroke-width:1pt;stroke-linejoin:miter;stroke-linecap:butt;"
       d="M 25.574709,5.9725696 C 25.283331,5.6363651 18.605827,2.8484370 11.992062,7.8553126 C 10.541946,8.9236191 8.7608492,17.790352 8.6300196,22.379332 C 8.6340056,27.388479 8.6004146,12.969189 14.278250,8.7966842 C 20.225616,4.3200787 25.866085,6.3087733 25.574709,5.9725696 z "
       id="path962"
       sodipodi:nodetypes="cssss" />
    <path
       style="fill:url(#linearGradient1062);fill-rule:evenodd;stroke:#010033;stroke-width:1.8750000;stroke-dasharray:none;stroke-linejoin:round;stroke-linecap:round;"
       d="M 5.8624684,31.263390 C 4.2486886,38.704709 3.8452438,41.842613 2.0969823,51.435637 C 7.5210748,47.401187 16.979620,47.535669 24.420938,51.435637 C 26.034717,42.380539 26.707126,39.511599 28.186424,31.263390 C 21.686477,26.287569 11.690008,26.422050 5.8624684,31.263390 z "
       id="path968"
       sodipodi:nodetypes="ccccc" />
    <path
       style="fill:url(#linearGradient963);fill-rule:evenodd;stroke:none;stroke-opacity:1;stroke-width:1pt;stroke-linejoin:miter;stroke-linecap:butt;"
       d="M 21.327859,29.784092 C 21.036482,29.447888 14.358977,26.659960 7.7452108,31.666835 C 6.2950963,32.735142 4.5140004,41.601873 4.3831706,46.190853 C 4.3871558,51.200000 4.3535656,36.780710 10.031401,32.608207 C 15.978766,28.131601 21.619236,30.120296 21.327859,29.784092 z "
       id="path969"
       sodipodi:nodetypes="cssss" />
    <path
       style="fill:url(#linearGradient1064);fill-rule:evenodd;stroke:#003300;stroke-width:1.8750000;stroke-dasharray:none;stroke-linejoin:round;"
       d="M 54.116823,29.110432 C 55.730602,21.669114 56.134047,18.531209 57.882309,8.9381846 C 52.458215,12.972634 42.999673,12.838152 35.558355,8.9381846 C 33.944575,17.993282 33.272166,20.862224 31.792868,29.110432 C 38.292815,34.086253 48.289284,33.951772 54.116823,29.110432 z "
       id="path1063"
       sodipodi:nodetypes="ccccc" />
    <path
       style="fill:url(#linearGradient862);fill-rule:evenodd;stroke:none;stroke-opacity:1.0000000;stroke-width:1pt;stroke-linejoin:miter;stroke-linecap:butt;"
       d="M 34.124583,24.476654 C 35.541345,16.555424 35.792697,10.737955 37.777850,11.355955 C 47.241359,14.362857 48.185151,12.706663 51.322382,13.298084 C 44.594826,14.292308 43.312558,14.141474 38.312859,13.205984 C 36.599623,12.889274 33.996507,29.546995 34.124583,24.476654 z "
       id="path1069"
       sodipodi:nodetypes="cscsc" />
    <path
       style="fill:url(#linearGradient1110);fill-rule:evenodd;stroke:#333300;stroke-width:1.8750000;stroke-dasharray:none;stroke-opacity:1.0000000;stroke-linejoin:round;stroke-linecap:round;"
       d="M 49.752827,52.987700 C 51.366606,45.546381 51.770051,42.408476 53.518313,32.815453 C 48.094219,36.849902 38.635677,36.715419 31.194359,32.815453 C 29.580580,41.870550 28.908171,44.739491 27.428873,52.987700 C 33.928819,57.963520 43.925288,57.829040 49.752827,52.987700 z "
       id="path1072"
       sodipodi:nodetypes="ccccc" />
    <path
       style="fill:url(#linearGradient862);fill-rule:evenodd;stroke:none;stroke-opacity:1.0000000;stroke-width:1pt;stroke-linejoin:miter;stroke-linecap:butt;"
       d="M 29.822365,48.334030 C 31.239127,40.412800 31.490480,34.595331 33.475633,35.213332 C 42.939141,38.220233 43.882933,36.564040 47.020164,37.155460 C 40.292608,38.149685 39.010340,37.998851 34.010641,37.063361 C 32.297405,36.746651 29.694289,53.404372 29.822365,48.334030 z "
       id="path864"
       sodipodi:nodetypes="cscsc" />
    <path
       style="fill:url(#linearGradient1071);fill-rule:evenodd;stroke:none;stroke-opacity:1;stroke-width:1pt;stroke-linejoin:miter;stroke-linecap:butt;opacity:0.50000000;"
       d="M 38.485813,30.507262 C 38.777190,30.843467 45.454695,33.631395 52.068460,28.624519 C 53.518575,27.556213 55.299671,18.689481 55.430501,14.100501 C 55.426515,9.0913533 55.460106,23.510644 49.782271,27.683148 C 43.834906,32.159753 38.194436,30.171058 38.485813,30.507262 z "
       id="path865"
       sodipodi:nodetypes="cssss" />
    <path
       style="fill:url(#linearGradient1071);fill-rule:evenodd;stroke:none;stroke-opacity:1;stroke-width:1pt;stroke-linejoin:miter;stroke-linecap:butt;opacity:0.71649485;"
       d="M 34.154724,54.428504 C 34.446102,54.764708 41.123606,57.552636 47.737371,52.545761 C 49.187486,51.477454 50.968583,42.610723 51.099412,38.021743 C 51.095426,33.012595 51.129017,47.431885 45.451182,51.604389 C 39.503817,56.080994 33.863348,54.092300 34.154724,54.428504 z "
       id="path866"
       sodipodi:nodetypes="cssss" />
    <path
       style="fill:url(#linearGradient868);fill-rule:evenodd;stroke:none;stroke-opacity:1.0000000;stroke-width:1pt;stroke-linejoin:miter;stroke-linecap:butt;opacity:0.50000000;"
       d="M 30.103867,12.135142 C 28.687105,20.056373 28.435752,25.873842 26.450599,25.255841 C 16.987091,22.248940 16.043299,23.905133 12.906068,23.313713 C 19.633624,22.319488 20.915892,22.470322 25.915591,23.405812 C 27.628827,23.722522 30.231943,7.0648000 30.103867,12.135142 z "
       id="path867"
       sodipodi:nodetypes="cscsc" />
    <path
       style="fill:url(#linearGradient868);fill-rule:evenodd;stroke:none;stroke-opacity:1.0000000;stroke-width:1pt;stroke-linejoin:miter;stroke-linecap:butt;opacity:0.50000000;"
       d="M 25.894385,35.870912 C 24.477623,43.792142 24.226271,49.609611 22.241118,48.991611 C 12.777609,45.984709 11.833817,47.640902 8.6965849,47.049482 C 15.424141,46.055257 16.706410,46.206091 21.706109,47.141581 C 23.419345,47.458292 26.022461,30.800571 25.894385,35.870912 z "
       id="path869"
       sodipodi:nodetypes="cscsc" />
  </g>
</svg>
