<?xml version="1.0" encoding="UTF-8" standalone="no"?>
<!DOCTYPE svg PUBLIC "-//W3C//DTD SVG 20010904//EN"
"http://www.w3.org/TR/2001/REC-SVG-20010904/DTD/svg10.dtd">
<!-- Created with Inkscape (http://www.inkscape.org/) -->
<svg
   id="svg1"
   sodipodi:version="0.32"
   inkscape:version="0.38.1"
   width="48pt"
   height="48pt"
   sodipodi:docbase="/root/Desktop/mimes"
   sodipodi:docname="gnome-mime-application-magicpoint.svg"
   xmlns="http://www.w3.org/2000/svg"
   xmlns:inkscape="http://www.inkscape.org/namespaces/inkscape"
   xmlns:sodipodi="http://sodipodi.sourceforge.net/DTD/sodipodi-0.dtd"
   xmlns:xml="http://www.w3.org/XML/1998/namespace"
   xmlns:xlink="http://www.w3.org/1999/xlink">
  <defs
     id="defs3">
    <linearGradient
       id="linearGradient578">
      <stop
         style="stop-color:#ffffff;stop-opacity:1;"
         offset="0.00000000"
         id="stop579" />
      <stop
         style="stop-color:#d9cce6;stop-opacity:1;"
         offset="1.00000000"
         id="stop580" />
    </linearGradient>
    <linearGradient
       xlink:href="#linearGradient578"
       id="linearGradient581"
       x1="0.01724138"
       y1="0.02325581"
       x2="0.97413790"
       y2="0.98449612" />
    <linearGradient
       xlink:href="#linearGradient584"
       id="linearGradient583"
       x1="0.01538462"
       y1="0.02325581"
       x2="0.97692305"
       y2="0.93798447" />
    <linearGradient
       xlink:href="#linearGradient1108"
       id="linearGradient1107"
       x1="0.0066889632"
       y1="0.026666667"
       x2="0.98996657"
       y2="0.99333334" />
    <linearGradient
       id="linearGradient1108">
      <stop
         style="stop-color:#d9cce6;stop-opacity:1.0000000;"
         offset="0.0000000"
         id="stop1109" />
      <stop
         style="stop-color:#73667f;stop-opacity:1.0000000;"
         offset="1.0000000"
         id="stop1110" />
    </linearGradient>
    <linearGradient
       xlink:href="#linearGradient1108"
       id="linearGradient1111"
       x1="0.026548672"
       y1="0.0064935065"
       x2="1.0000000"
       y2="1.0000000" />
    <linearGradient
       xlink:href="#linearGradient584"
       id="linearGradient1113"
       x1="0.0097087380"
       y1="0.025974026"
       x2="0.53398061"
       y2="0.61688310" />
    <linearGradient
       xlink:href="#linearGradient584"
       id="linearGradient1115"
       x1="8.4977898e-16"
       y1="-2.9545593e-15"
       x2="0.27424750"
       y2="0.98484850" />
    <linearGradient
       id="linearGradient642">
      <stop
         style="stop-color:#d9cce6;stop-opacity:1;"
         offset="0.00000000"
         id="stop643" />
      <stop
         style="stop-color:#73667f;stop-opacity:1;"
         offset="1.00000000"
         id="stop644" />
    </linearGradient>
    <linearGradient
       id="linearGradient866">
      <stop
         style="stop-color:#ffffff;stop-opacity:1;"
         offset="0.00000000"
         id="stop867" />
      <stop
         style="stop-color:#d9cce6;stop-opacity:1;"
         offset="1.00000000"
         id="stop868" />
    </linearGradient>
    <linearGradient
       id="linearGradient584">
      <stop
         style="stop-color:#ffffff;stop-opacity:1;"
         offset="0.00000000"
         id="stop585" />
      <stop
         style="stop-color:#ffffff;stop-opacity:0;"
         offset="1.00000000"
         id="stop586" />
    </linearGradient>
    <linearGradient
       xlink:href="#linearGradient866"
       id="linearGradient586"
       x1="-0.00000000"
       y1="0.01562500"
       x2="0.99122804"
       y2="0.98437500" />
    <linearGradient
       xlink:href="#linearGradient584"
       id="linearGradient587"
       x1="0.00000000"
       y1="-0.00000000"
       x2="1.00000000"
       y2="1.00000000" />
    <linearGradient
       xlink:href="#linearGradient584"
       id="linearGradient638"
       x1="0.00000000"
       y1="-0.00000000"
       x2="0.99253732"
       y2="1.00000000" />
    <radialGradient
       xlink:href="#linearGradient866"
       id="radialGradient639" />
    <linearGradient
       xlink:href="#linearGradient584"
       id="linearGradient640"
       x1="-0.00000000"
       y1="0.00000000"
       x2="1.00000000"
       y2="0.99218750" />
    <linearGradient
       xlink:href="#linearGradient642"
       id="linearGradient641"
       x1="0.00000000"
       y1="0.00000000"
       x2="0.96666664"
       y2="0.98437500" />
    <linearGradient
       xlink:href="#linearGradient584"
       id="linearGradient645"
       x1="0.01492537"
       y1="0.00781250"
       x2="0.97761196"
       y2="0.97656250" />
  </defs>
  <sodipodi:namedview
     id="base"
     pagecolor="#ffffff"
     bordercolor="#666666"
     borderopacity="1.0"
     inkscape:pageopacity="0.0"
     inkscape:pageshadow="2"
     inkscape:zoom="7.9794719"
     inkscape:cx="23.847215"
     inkscape:cy="25.906572"
     inkscape:window-width="619"
     inkscape:window-height="691"
     inkscape:window-x="394"
     inkscape:window-y="182"
     showguides="true"
     snaptoguides="true" />
  <path
     d="M 4.4389304 48.086315 C 5.2483181 50.50443 38.765774 61.377487 40.966438 59.55288 C 42.936267 57.902492 57.675565 8.7785888 56.688667 6.8303779 C 55.662821 4.6824777 21.657054 -0.6675724 20.042945 0.80153134 C 18.054709 2.621752 3.5888672 45.311841 4.4389304 48.086315 z "
     style="font-size:12;opacity:0.302675;fill-rule:evenodd;stroke-width:12.5;"
     id="path639" />
  <path
     d="M 4.5541516 46.08493 C 5.3114351 48.34726 36.66955 58.519843 38.728432 56.812781 C 40.571358 55.268717 54.36111 9.3095333 53.437795 7.4867937 C 52.478034 5.477268 20.663028 0.47192513 19.152904 1.8463842 C 17.292759 3.5493405 3.7588508 43.489198 4.5541516 46.08493 z "
     style="font-size:12;fill:url(#linearGradient586);fill-rule:evenodd;stroke:#261933;stroke-width:1.87726;"
     id="path634" />
  <path
     d="M 6.6876568 43.965773 C 6.360392 43.13667 19.363758 4.5872629 20.579427 3.7922731 C 22.09876 2.7554118 46.659814 7.3454032 46.98631 8.172561 C 47.28557 8.9306762 27.823671 5.3906629 23.493845 9.2635774 C 15.189619 16.482895 6.9861475 44.721984 6.6876568 43.965773 z "
     style="font-size:12;opacity:0.699936;fill:url(#linearGradient587);fill-rule:evenodd;stroke:none;stroke-width:0.100121pt;"
     id="path640" />
  <path
     d="M 16.806579,37.809106 C 17.316615,39.405415 38.437633,46.583223 39.824382,45.378716 C 41.065670,44.289218 50.353635,11.860259 49.731741,10.574153 C 49.085304,9.1562251 27.656575,5.6244103 26.639445,6.5942337 C 25.386557,7.7958435 16.270912,35.977548 16.806579,37.809106 z "
     style="font-size:12;opacity:0.302675;fill-rule:evenodd;stroke-width:12.5;"
     id="path934" />
  <path
     d="M 16.879184,36.487899 C 17.356386,37.981367 37.116700,44.696762 38.414105,43.569850 C 39.575422,42.550541 48.265032,12.210759 47.683204,11.007482 C 47.078413,9.6809038 27.030190,6.3766446 26.078586,7.2839886 C 24.906416,8.4081889 16.378027,34.774337 16.879184,36.487899 z "
     style="font-size:12.000000;fill:url(#linearGradient586);fill-rule:evenodd;stroke:#261933;stroke-width:1.2107830;"
     id="path935" />
  <path
     style="fill:url(#linearGradient1107);fill-rule:evenodd;stroke:#261933;stroke-width:0.64497366pt;"
     d="M 28.248893,10.281777 C 28.770524,9.9072832 42.921402,12.885480 43.326014,13.499239 C 43.730624,14.164707 42.599686,18.036616 41.929985,18.617934 C 41.260280,19.147547 26.879555,15.584357 26.573656,14.815474 C 26.267756,14.098302 27.677902,10.656269 28.248893,10.281777 z "
     id="path1100"
     sodipodi:nodetypes="czzzz" />
  <path
     style="fill:url(#linearGradient1111);fill-rule:evenodd;stroke:#261933;stroke-width:0.63428402pt;"
     d="M 25.721761,17.501174 C 26.327257,16.924336 29.161884,17.938483 29.367136,18.671162 C 29.524651,19.403839 27.224618,26.439351 26.666857,26.861070 C 26.061362,27.334497 23.361748,26.432631 23.156497,25.544836 C 22.951245,24.708747 25.164001,18.026308 25.721761,17.501174 z "
     id="path1101"
     sodipodi:nodetypes="czzzz" />
  <path
     style="fill:#261933;fill-rule:evenodd;stroke-width:1.0000000pt;fill-opacity:1.0000000;"
     d="M 31.542408,19.977230 C 31.385014,19.943488 31.232372,20.049064 31.200163,20.213952 L 31.039366,21.037081 C 31.007155,21.201968 31.107935,21.361876 31.265329,21.395620 L 40.922445,23.774600 C 41.079839,23.808343 41.232479,23.702766 41.264691,23.537882 L 41.425487,22.714751 C 41.457698,22.549865 41.356916,22.389955 41.199525,22.356212 L 31.542408,19.977230 z "
     id="path1103"
     sodipodi:nodetypes="ccccccccc" />
  <path
     style="fill:#261933;fill-rule:evenodd;stroke-width:1.0000000pt;fill-opacity:1.0000000;"
     d="M 30.376636,23.423855 C 30.219807,23.387345 30.065491,23.490218 30.030639,23.654514 L 29.856653,24.474694 C 29.821801,24.638991 29.919999,24.800654 30.076831,24.837163 L 39.694392,27.385928 C 39.851224,27.422440 40.005539,27.319565 40.040391,27.155271 L 40.214376,26.335089 C 40.249229,26.170794 40.151030,26.009132 39.994198,25.972619 L 30.376636,23.423855 z "
     id="path1104"
     sodipodi:nodetypes="ccccccccc" />
  <path
     style="fill:#261933;fill-rule:evenodd;stroke-width:1.0000000pt;fill-opacity:1.0000000;"
     d="M 29.198694,26.851719 C 29.042761,26.811211 28.886098,26.910109 28.847430,27.073467 L 28.654396,27.888956 C 28.615727,28.052313 28.710134,28.216435 28.866066,28.256942 L 38.421417,31.050741 C 38.577349,31.091248 38.734013,30.992352 38.772681,30.828994 L 38.965714,30.013502 C 39.004382,29.850148 38.909977,29.686025 38.754042,29.645514 L 29.198694,26.851719 z "
     id="path1105"
     sodipodi:nodetypes="ccccccccc" />
  <path
     style="fill:#261933;fill-rule:evenodd;stroke-width:1.0000000pt;fill-opacity:1.0000000;"
     d="M 28.045424,30.500700 C 27.890103,30.457692 27.732009,30.554061 27.690954,30.716775 L 27.485996,31.529065 C 27.444938,31.691782 27.536929,31.857403 27.692249,31.900413 L 37.205545,34.847509 C 37.360868,34.890520 37.518960,34.794151 37.560019,34.631435 L 37.764977,33.819143 C 37.806033,33.656429 37.714041,33.490808 37.558720,33.447797 L 28.045424,30.500700 z "
     id="path1106"
     sodipodi:nodetypes="ccccccccc" />
  <path
     d="M 18.223614,35.088944 C 18.017388,34.541616 26.211456,9.0933698 26.977511,8.5685625 C 27.934917,7.8840805 43.412063,10.914145 43.617803,11.460190 C 43.806382,11.960657 31.542471,9.6237304 28.814030,12.180422 C 23.581124,16.946226 18.411706,35.588155 18.223614,35.088944 z "
     style="font-size:12;opacity:0.699936;fill:url(#linearGradient587);fill-rule:evenodd;stroke:none;stroke-width:0.100121pt;"
     id="path942" />
  <path
     style="fill:url(#linearGradient1113);fill-rule:evenodd;stroke:none;stroke-opacity:1;stroke-width:1pt;stroke-linejoin:miter;stroke-linecap:butt;fill-opacity:1.0000000;"
     d="M 24.114781,25.404891 C 24.083927,25.284243 25.873397,18.622710 26.428750,18.321087 C 27.030381,18.019464 28.526748,18.820915 28.557601,18.941565 C 28.588455,19.062214 27.308057,18.639945 26.613868,19.044979 C 25.965958,19.398309 24.145635,25.525541 24.114781,25.404891 z "
     id="path1112"
     sodipodi:nodetypes="czzzz" />
  <path
     style="fill:url(#linearGradient1115);fill-rule:evenodd;stroke:none;stroke-opacity:1;stroke-width:1pt;stroke-linejoin:miter;stroke-linecap:butt;fill-opacity:1;"
     d="M 27.335807,14.443092 C 27.261770,14.296588 28.133747,11.452726 28.767163,11.082162 C 29.351224,10.763304 42.315689,13.934643 42.389726,14.081144 C 42.463760,14.227646 30.831933,11.332077 29.211374,11.961173 C 27.590820,12.641976 27.409840,14.589593 27.335807,14.443092 z "
     id="path1114"
     sodipodi:nodetypes="czzzz" />
  <path
     style="fill:#261933;fill-rule:evenodd;stroke-width:1.0000000pt;fill-opacity:1.0000000;"
     d="M 26.809897,34.067458 C 26.654577,34.024445 26.496483,34.120815 26.455426,34.283530 L 26.250467,35.095820 C 26.209413,35.258538 26.301401,35.424157 26.456725,35.467168 L 35.970018,38.414266 C 36.125340,38.457277 36.283435,38.360907 36.324491,38.198192 L 36.529450,37.385899 C 36.570505,37.223186 36.478516,37.057564 36.323192,37.014553 L 26.809897,34.067458 z "
     id="path1116"
     sodipodi:nodetypes="ccccccccc" />
  <path
     d="M 12.302702,40.025118 C 12.762311,41.445802 31.795137,47.833896 33.044783,46.761910 C 34.163344,45.792280 42.533030,16.931205 41.972622,15.786597 C 41.390097,14.524673 22.079982,11.381433 21.163415,12.244557 C 20.034397,13.313961 11.819996,38.395073 12.302702,40.025118 z "
     style="font-size:12;opacity:0.302675;fill-rule:evenodd;stroke-width:12.5;"
     id="path949" />
  <path
     d="M 12.368130,38.849276 C 12.798153,40.178428 30.604801,46.154984 31.773935,45.152056 C 32.820437,44.244897 40.650923,17.243143 40.126619,16.172251 C 39.581622,14.991623 21.515526,12.050907 20.658004,12.858423 C 19.601724,13.858938 11.916520,37.324241 12.368130,38.849276 z "
     style="font-size:12.000000;fill:url(#linearGradient586);fill-rule:evenodd;stroke:#261933;stroke-width:1.0843022;"
     id="path950" />
  <path
     style="fill:url(#linearGradient1107);fill-rule:evenodd;stroke:#261933;stroke-width:0.57759838pt;"
     d="M 22.613737,15.526390 C 23.083795,15.193099 35.835606,17.843627 36.200215,18.389861 C 36.564821,18.982114 35.545698,22.428029 34.942209,22.945390 C 34.338716,23.416732 21.379782,20.245569 21.104131,19.561285 C 20.828473,18.923014 22.099199,15.859680 22.613737,15.526390 z "
     id="path951"
     sodipodi:nodetypes="czzzz" />
  <path
     style="fill:url(#linearGradient1111);fill-rule:evenodd;stroke:#261933;stroke-width:0.55930004pt;"
     d="M 20.926101,21.951500 C 21.455095,21.438124 23.931598,22.340696 24.110919,22.992762 C 24.248535,23.644828 22.239086,29.906284 21.751791,30.281605 C 21.222797,30.702941 18.864248,29.900303 18.684930,29.110182 C 18.505611,28.366083 20.438807,22.418855 20.926101,21.951500 z "
     id="path952"
     sodipodi:nodetypes="czzzz" />
  <path
     style="fill:#261933;fill-rule:evenodd;stroke-width:1.0000000pt;fill-opacity:1.0000000;"
     d="M 25.581628,24.155133 C 25.439798,24.125106 25.302245,24.219065 25.273222,24.365809 L 25.128321,25.098377 C 25.099297,25.245126 25.190114,25.387438 25.331944,25.417470 L 34.034282,27.534713 C 34.176115,27.564743 34.313663,27.470782 34.342690,27.324038 L 34.487591,26.591467 C 34.516615,26.444724 34.425799,26.302408 34.283966,26.272376 L 25.581628,24.155133 z "
     id="path953"
     sodipodi:nodetypes="ccccccccc" />
  <path
     style="fill:#261933;fill-rule:evenodd;stroke-width:1.0000000pt;fill-opacity:1.0000000;"
     d="M 24.801567,27.222557 C 24.664551,27.190065 24.529733,27.281619 24.499283,27.427839 L 24.347279,28.157780 C 24.316831,28.304003 24.402621,28.447877 24.539639,28.480370 L 32.942122,30.748717 C 33.079139,30.781210 33.213957,30.689655 33.244406,30.543437 L 33.396411,29.813491 C 33.426860,29.667273 33.341069,29.523399 33.204050,29.490902 L 24.801567,27.222557 z "
     id="path954"
     sodipodi:nodetypes="ccccccccc" />
  <path
     style="fill:#261933;fill-rule:evenodd;stroke-width:1.0000000pt;fill-opacity:1.0000000;"
     d="M 24.053202,30.273281 C 23.921447,30.237230 23.789076,30.325248 23.756403,30.470630 L 23.593301,31.196401 C 23.560629,31.341784 23.640396,31.487849 23.772152,31.523901 L 31.845855,34.010320 C 31.977606,34.046371 32.109980,33.958355 32.142651,33.812970 L 32.305753,33.087198 C 32.338427,32.941819 32.258658,32.795754 32.126903,32.759699 L 24.053202,30.273281 z "
     id="path955"
     sodipodi:nodetypes="ccccccccc" />
  <path
     style="fill:#261933;fill-rule:evenodd;stroke-width:1.0000000pt;fill-opacity:1.0000000;"
     d="M 23.078756,33.520797 C 22.947520,33.482519 22.813941,33.568285 22.779251,33.713097 L 22.606073,34.436019 C 22.571380,34.580834 22.649108,34.728232 22.780345,34.766510 L 30.818515,37.389363 C 30.949754,37.427642 31.083332,37.341874 31.118025,37.197060 L 31.291202,36.474141 C 31.325889,36.329328 31.248164,36.181928 31.116926,36.143649 L 23.078756,33.520797 z "
     id="path956"
     sodipodi:nodetypes="ccccccccc" />
  <path
     d="M 13.579637,37.604236 C 13.393801,37.117124 20.777739,14.468732 21.468053,14.001667 C 22.330804,13.392492 36.277757,16.089184 36.463156,16.575153 C 36.633090,17.020557 25.581686,14.940744 23.123000,17.216143 C 18.407460,21.457606 13.749133,38.048522 13.579637,37.604236 z "
     style="font-size:12;opacity:0.699936;fill:url(#linearGradient587);fill-rule:evenodd;stroke:none;stroke-width:0.100121pt;"
     id="path957" />
  <path
     style="fill:url(#linearGradient1113);fill-rule:evenodd;stroke:none;stroke-opacity:1;stroke-width:1pt;stroke-linejoin:miter;stroke-linecap:butt;fill-opacity:1.0000000;"
     d="M 19.267977,28.985635 C 19.240174,28.878262 20.852723,22.949638 21.353169,22.681203 C 21.895320,22.412766 23.243741,23.126040 23.271544,23.233414 C 23.299345,23.340790 22.145542,22.964977 21.519984,23.325451 C 20.936131,23.639907 19.295780,29.093011 19.267977,28.985635 z "
     id="path958"
     sodipodi:nodetypes="czzzz" />
  <path
     style="fill:url(#linearGradient1115);fill-rule:evenodd;stroke:none;stroke-opacity:1;stroke-width:1pt;stroke-linejoin:miter;stroke-linecap:butt;fill-opacity:1;"
     d="M 21.790927,19.229870 C 21.724209,19.099486 22.509975,16.568509 23.080768,16.238716 C 23.607082,15.954939 35.289779,18.777361 35.356495,18.907746 C 35.423211,19.038129 24.941399,16.461135 23.481061,17.021014 C 22.020725,17.626916 21.857641,19.360255 21.790927,19.229870 z "
     id="path959"
     sodipodi:nodetypes="czzzz" />
  <path
     style="fill:#261933;fill-rule:evenodd;stroke-width:1.0000000pt;fill-opacity:1.0000000;"
     d="M 22.034811,36.695134 C 21.903573,36.656854 21.769994,36.742621 21.735303,36.887433 L 21.562126,37.610353 C 21.527436,37.755169 21.605162,37.902568 21.736400,37.940846 L 29.774569,40.563697 C 29.905805,40.601978 30.039386,40.516211 30.074076,40.371398 L 30.247255,39.648476 C 30.281943,39.503664 30.204218,39.356262 30.072980,39.317984 L 22.034811,36.695134 z "
     id="path960"
     sodipodi:nodetypes="ccccccccc" />
  <path
     d="M 8.9088096,43.766351 C 9.2848788,45.019386 24.858249,50.653666 25.880755,49.708178 C 26.796006,48.852968 33.644396,23.397599 33.185848,22.388060 C 32.709203,21.275046 16.908946,18.502720 16.158976,19.263993 C 15.235172,20.207204 8.5138423,42.328654 8.9088096,43.766351 z "
     style="font-size:12;opacity:0.302675;fill-rule:evenodd;stroke-width:12.5;"
     id="path964" />
  <path
     d="M 9.7299512,42.729261 C 10.070244,43.901570 24.161353,49.172873 25.086535,48.288292 C 25.914671,47.488182 32.111245,23.672729 31.696342,22.728206 C 31.265061,21.686897 16.968647,19.093193 16.290056,19.805419 C 15.454180,20.687869 9.3725731,41.384187 9.7299512,42.729261 z "
     style="font-size:12.000000;fill:url(#linearGradient586);fill-rule:evenodd;stroke:#261933;stroke-width:0.90586865;"
     id="path965" />
  <path
     style="fill:url(#linearGradient1107);fill-rule:evenodd;stroke:#261933;stroke-width:0.48254843pt;"
     d="M 17.837705,22.158558 C 18.209681,21.864596 28.300692,24.202353 28.589225,24.684131 C 28.877751,25.206491 28.071279,28.245780 27.593713,28.702091 C 27.116146,29.117811 16.861228,26.320858 16.643093,25.717320 C 16.424956,25.154369 17.430531,22.452520 17.837705,22.158558 z "
     id="path966"
     sodipodi:nodetypes="czzzz" />
  <path
     style="fill:url(#linearGradient1111);fill-rule:evenodd;stroke:#261933;stroke-width:0.48254843pt;"
     d="M 15.875841,27.825482 C 16.322296,27.372687 18.412381,28.168749 18.563722,28.743869 C 18.679864,29.318992 16.983959,34.841574 16.572699,35.172604 C 16.126244,35.544223 14.135709,34.836299 13.984368,34.139417 C 13.833031,33.483120 15.464583,28.237687 15.875841,27.825482 z "
     id="path967"
     sodipodi:nodetypes="czzzz" />
  <path
     style="fill:#261933;fill-rule:evenodd;stroke-width:1.0000000pt;fill-opacity:1.0000000;"
     d="M 20.186316,29.769078 C 20.074079,29.742594 19.965227,29.825466 19.942262,29.954896 L 19.827596,30.601016 C 19.804627,30.730449 19.876495,30.855968 19.988731,30.882456 L 26.875233,32.749856 C 26.987472,32.776344 27.096320,32.693468 27.119290,32.564041 L 27.233956,31.917917 C 27.256922,31.788491 27.185056,31.662968 27.072818,31.636481 L 20.186316,29.769078 z "
     id="path968"
     sodipodi:nodetypes="ccccccccc" />
  <path
     style="fill:#261933;fill-rule:evenodd;stroke-width:1.0000000pt;fill-opacity:1.0000000;"
     d="M 19.355003,32.474535 C 19.243167,32.445879 19.133124,32.526626 19.108272,32.655595 L 18.984203,33.299401 C 18.959350,33.428366 19.029372,33.555264 19.141211,33.583924 L 25.999507,35.584595 C 26.111345,35.613256 26.221386,35.532504 26.246238,35.403539 L 26.370309,34.759732 C 26.395164,34.630768 26.325137,34.503869 26.213301,34.475208 L 19.355003,32.474535 z "
     id="path969"
     sodipodi:nodetypes="ccccccccc" />
  <path
     style="fill:#261933;fill-rule:evenodd;stroke-width:1.0000000pt;fill-opacity:1.0000000;"
     d="M 18.515010,35.165264 C 18.403814,35.133468 18.292096,35.211097 18.264523,35.339326 L 18.126869,35.979452 C 18.099296,36.107680 18.166617,36.236510 18.277815,36.268306 L 25.091748,38.461319 C 25.202942,38.493117 25.314661,38.415485 25.342234,38.287257 L 25.479886,37.647128 C 25.507462,37.518904 25.440141,37.390074 25.328945,37.358280 L 18.515010,35.165264 z "
     id="path970"
     sodipodi:nodetypes="ccccccccc" />
  <path
     style="fill:#261933;fill-rule:evenodd;stroke-width:1.0000000pt;fill-opacity:1.0000000;"
     d="M 17.692612,38.029564 C 17.581851,37.995803 17.469118,38.071445 17.439837,38.199168 L 17.293682,38.836785 C 17.264403,38.964510 17.330003,39.094516 17.440762,39.128275 L 24.224709,41.441623 C 24.335468,41.475384 24.448206,41.399739 24.477483,41.272014 L 24.623638,40.634401 C 24.652915,40.506675 24.587317,40.376669 24.476555,40.342907 L 17.692612,38.029564 z "
     id="path971"
     sodipodi:nodetypes="ccccccccc" />
  <path
     d="M 10.688665,41.631143 C 10.541605,41.201510 16.384805,21.225709 16.931081,20.813755 C 17.613810,20.276467 28.650585,22.654940 28.797298,23.083563 C 28.931773,23.476407 20.186360,21.642019 18.240706,23.648913 C 14.509111,27.389869 10.822793,42.022996 10.688665,41.631143 z "
     style="font-size:12;opacity:0.699936;fill:url(#linearGradient587);fill-rule:evenodd;stroke:none;stroke-width:0.100121pt;"
     id="path972" />
  <path
     style="fill:url(#linearGradient1113);fill-rule:evenodd;stroke:none;stroke-opacity:1;stroke-width:1pt;stroke-linejoin:miter;stroke-linecap:butt;fill-opacity:1.0000000;"
     d="M 14.476442,34.029566 C 14.452977,33.934862 15.813914,28.705836 16.236275,28.469076 C 16.693830,28.232317 17.831852,28.861422 17.855318,28.956126 C 17.878782,29.050830 16.905008,28.719366 16.377060,29.037301 C 15.884305,29.314650 14.499906,34.124271 14.476442,34.029566 z "
     id="path973"
     sodipodi:nodetypes="czzzz" />
  <path
     style="fill:url(#linearGradient1115);fill-rule:evenodd;stroke:none;stroke-opacity:1;stroke-width:1pt;stroke-linejoin:miter;stroke-linecap:butt;fill-opacity:1;"
     d="M 17.186584,25.425012 C 17.133784,25.310015 17.755594,23.077702 18.207285,22.786826 C 18.623777,22.536536 27.868759,25.025903 27.921554,25.140901 C 27.974351,25.255898 19.679675,22.982997 18.524055,23.476812 C 17.368431,24.011216 17.239376,25.540011 17.186584,25.425012 z "
     id="path974"
     sodipodi:nodetypes="czzzz" />
  <path
     style="fill:#261933;fill-rule:evenodd;stroke-width:1.0000000pt;fill-opacity:1.0000000;"
     d="M 16.811558,40.829316 C 16.700798,40.795553 16.588061,40.871199 16.558783,40.998924 L 16.412625,41.636536 C 16.383349,41.764262 16.448946,41.894268 16.559708,41.928029 L 23.343652,44.241379 C 23.454411,44.275138 23.567149,44.199494 23.596425,44.071769 L 23.742583,43.434151 C 23.771860,43.306429 23.706261,43.176423 23.595501,43.142663 L 16.811558,40.829316 z "
     id="path975"
     sodipodi:nodetypes="ccccccccc" />
  <rect
     style="fill:#000000;fill-opacity:0.30000001;fill-rule:evenodd;stroke:none;stroke-width:1.0000000pt;stroke-opacity:1.0000000;"
     id="rect937"
     x="28.226574"
     y="39.395287"
     rx="0.70483023"
     width="30.710464"
     height="12.888113" />
  <rect
     style="fill:#d9cce6;fill-opacity:0.80000001;fill-rule:evenodd;stroke:#261933;stroke-width:1.2500000;stroke-dasharray:none;"
     id="rect862"
     x="26.323563"
     y="37.806450"
     rx="0.69999999"
     width="30.500000"
     height="12.750523" />
  <text
     xml:space="preserve"
     style="fill:black;fill-opacity:1;stroke:none;font-family:helvetica;font-style:normal;font-weight:normal;font-size:12px;stroke-opacity:1;stroke-width:1pt;stroke-linejoin:miter;stroke-linecap:butt;"
     x="34.720138"
     y="45.961128"
     id="text863"
     transform="scale(0.937643,1.000000)"><tspan
       id="tspan864"></tspan></text>
  <path
     style="font-size:12.000000;stroke-width:1.0000000pt;font-family:Radio Stars;"
     d="M 54.453355,44.059842 C 54.453355,44.603842 54.185355,44.875842 53.649355,44.875842 L 47.973355,44.875842 L 47.973355,46.651842 C 47.973355,46.907842 47.893355,47.107842 47.733355,47.251842 C 47.581355,47.387842 47.393355,47.455842 47.169355,47.455842 C 46.953355,47.455842 46.765355,47.387842 46.605355,47.251842 C 46.445355,47.107842 46.365355,46.907842 46.365355,46.651842 L 46.365355,40.651842 L 53.649355,40.651842 C 54.185355,40.651842 54.453355,40.923842 54.453355,41.467842 L 54.453355,44.059842 z M 52.845355,43.243842 L 52.845355,42.283842 L 47.973355,42.283842 L 47.973355,43.243842 L 52.845355,43.243842 z M 45.597355,46.651842 C 45.597355,47.195842 45.329355,47.467842 44.793355,47.467842 L 38.313355,47.467842 C 37.769355,47.467842 37.497355,47.195842 37.497355,46.651842 L 37.497355,41.467842 C 37.497355,40.923842 37.769355,40.651842 38.313355,40.651842 L 44.793355,40.651842 C 45.049355,40.651842 45.245355,40.731842 45.381355,40.891842 C 45.525355,41.051842 45.597355,41.243842 45.597355,41.467842 C 45.597355,41.691842 45.525355,41.883842 45.381355,42.043842 C 45.245355,42.203842 45.049355,42.283842 44.793355,42.283842 L 39.117355,42.283842 L 39.117355,45.835842 L 43.977355,45.835842 L 43.977355,44.875842 L 41.541355,44.875842 C 41.285355,44.875842 41.085355,44.795842 40.941355,44.635842 C 40.805355,44.475842 40.737355,44.283842 40.737355,44.059842 C 40.737355,43.835842 40.805355,43.643842 40.941355,43.483842 C 41.085355,43.323842 41.285355,43.243842 41.541355,43.243842 L 45.597355,43.243842 L 45.597355,46.651842 z M 36.621355,46.651842 C 36.621355,46.907842 36.541355,47.107842 36.381355,47.251842 C 36.221355,47.387842 36.033355,47.455842 35.817355,47.455842 C 35.601355,47.455842 35.413355,47.387842 35.253355,47.251842 C 35.093355,47.107842 35.013355,46.907842 35.013355,46.651842 L 35.013355,44.287842 L 33.261355,47.083842 C 33.061355,47.411842 32.833355,47.575842 32.577355,47.575842 C 32.329355,47.575842 32.101355,47.411842 31.893355,47.083842 L 30.141355,44.287842 L 30.141355,46.651842 C 30.141355,46.907842 30.061355,47.107842 29.901355,47.251842 C 29.749355,47.387842 29.561355,47.455842 29.337355,47.455842 C 29.121355,47.455842 28.933355,47.387842 28.773355,47.251842 C 28.613355,47.107842 28.533355,46.907842 28.533355,46.651842 L 28.533355,41.467842 C 28.533355,41.179842 28.605355,40.951842 28.749355,40.783842 C 28.893355,40.615842 29.065355,40.531842 29.265355,40.531842 C 29.569355,40.531842 29.825355,40.699842 30.033355,41.035842 L 32.577355,45.127842 L 35.133355,41.035842 C 35.349355,40.699842 35.605355,40.531842 35.901355,40.531842 C 36.101355,40.531842 36.269355,40.615842 36.405355,40.783842 C 36.549355,40.951842 36.621355,41.179842 36.621355,41.467842 L 36.621355,46.651842 z "
     id="path901" />
</svg>
