<?xml version="1.0" encoding="UTF-8" standalone="no"?>
<!DOCTYPE svg PUBLIC "-//W3C//DTD SVG 20010904//EN"
"http://www.w3.org/TR/2001/REC-SVG-20010904/DTD/svg10.dtd">
<!-- Created with Inkscape (http://www.inkscape.org/) -->
<svg
   id="svg1"
   sodipodi:version="0.32"
   inkscape:version="0.38.1"
   width="48pt"
   height="48pt"
   sodipodi:docbase="/root/Desktop/mimes"
   sodipodi:docname="gnome-mime-application-x-class-file.svg"
   xmlns="http://www.w3.org/2000/svg"
   xmlns:inkscape="http://www.inkscape.org/namespaces/inkscape"
   xmlns:sodipodi="http://sodipodi.sourceforge.net/DTD/sodipodi-0.dtd"
   xmlns:xml="http://www.w3.org/XML/1998/namespace"
   xmlns:xlink="http://www.w3.org/1999/xlink">
  <defs
     id="defs3">
    <linearGradient
       id="linearGradient589">
      <stop
         style="stop-color:#d9cce6;stop-opacity:1;"
         offset="0.00000000"
         id="stop590" />
      <stop
         style="stop-color:#73667f;stop-opacity:1;"
         offset="1.00000000"
         id="stop591" />
    </linearGradient>
    <linearGradient
       id="linearGradient866">
      <stop
         style="stop-color:#ffffff;stop-opacity:1;"
         offset="0.00000000"
         id="stop867" />
      <stop
         style="stop-color:#d9cce6;stop-opacity:1;"
         offset="1.00000000"
         id="stop868" />
    </linearGradient>
    <linearGradient
       id="linearGradient584">
      <stop
         style="stop-color:#ffffff;stop-opacity:1;"
         offset="0.00000000"
         id="stop585" />
      <stop
         style="stop-color:#ffffff;stop-opacity:0;"
         offset="1.00000000"
         id="stop586" />
    </linearGradient>
    <linearGradient
       xlink:href="#linearGradient866"
       id="linearGradient586"
       x1="-0.00000000"
       y1="0.01562500"
       x2="0.99122804"
       y2="0.98437500" />
    <linearGradient
       xlink:href="#linearGradient584"
       id="linearGradient587"
       x1="0.00000000"
       y1="-0.00000000"
       x2="1.00000000"
       y2="1.00000000" />
    <linearGradient
       xlink:href="#linearGradient589"
       id="linearGradient588"
       x1="0.00000000"
       y1="0.00000000"
       x2="1.00000000"
       y2="0.00000000" />
    <linearGradient
       xlink:href="#linearGradient589"
       id="linearGradient593" />
    <linearGradient
       xlink:href="#linearGradient584"
       id="linearGradient597"
       x1="0.00000000"
       y1="0.00000000"
       x2="1.00000000"
       y2="0.00000000" />
  </defs>
  <sodipodi:namedview
     id="base"
     pagecolor="#ffffff"
     bordercolor="#666666"
     borderopacity="1.0"
     inkscape:pageopacity="0.0"
     inkscape:pageshadow="2"
     inkscape:zoom="11.313708"
     inkscape:cx="30.655512"
     inkscape:cy="21.236720"
     inkscape:window-width="1018"
     inkscape:window-height="711"
     inkscape:window-x="0"
     inkscape:window-y="30" />
  <path
     d="M 4.4389304 48.086315 C 5.2483181 50.50443 38.765774 61.377487 40.966438 59.55288 C 42.936267 57.902492 57.675565 8.7785888 56.688667 6.8303779 C 55.662821 4.6824777 21.657054 -0.6675724 20.042945 0.80153134 C 18.054709 2.621752 3.5888672 45.311841 4.4389304 48.086315 z "
     style="font-size:12;opacity:0.302675;fill-rule:evenodd;stroke-width:12.5;"
     id="path639" />
  <path
     d="M 4.5541516 46.08493 C 5.3114351 48.34726 36.66955 58.519843 38.728432 56.812781 C 40.571358 55.268717 54.36111 9.3095333 53.437795 7.4867937 C 52.478034 5.477268 20.663028 0.47192513 19.152904 1.8463842 C 17.292759 3.5493405 3.7588508 43.489198 4.5541516 46.08493 z "
     style="font-size:12;fill:url(#linearGradient586);fill-rule:evenodd;stroke:#261933;stroke-width:1.87726;"
     id="path634" />
  <path
     d="M 6.6876568 43.965773 C 6.360392 43.13667 19.363758 4.5872629 20.579427 3.7922731 C 22.09876 2.7554118 46.659814 7.3454032 46.98631 8.172561 C 47.28557 8.9306762 27.823671 5.3906629 23.493845 9.2635774 C 15.189619 16.482895 6.9861475 44.721984 6.6876568 43.965773 z "
     style="font-size:12;opacity:0.699936;fill:url(#linearGradient587);fill-rule:evenodd;stroke:none;stroke-width:0.100121pt;"
     id="path640" />
  <g
     id="g598"
     transform="matrix(1.090160,0.000000,0.000000,1.103622,-78.38120,-32.30409)">
    <path
       style="fill:url(#linearGradient593);fill-rule:evenodd;stroke:#261933;stroke-opacity:1;stroke-width:1pt;stroke-linejoin:miter;stroke-linecap:butt;fill-opacity:0.75;"
       d="M 108.18367 48.459017 C 108.29579 47.911932 108.84287 47.509834 109.24497 47.107736 C 109.6867 46.745268 110.78087 46.600281 111.80255 46.817762 C 112.73434 46.790698 112.94118 47.488569 113.29302 48.041454 C 114.30793 50.164066 113.43801 53.156603 112.71307 56.004152 C 112.25781 57.95278 109.12029 60.988813 105.47531 60.980114 C 105.87741 59.673296 106.2795 58.366477 106.6816 57.059659 C 107.75354 57.170816 109.18794 56.557037 109.24497 56.305726 C 109.59101 55.284049 109.71956 54.697334 109.84812 53.893138 C 110.31111 52.452931 110.48413 50.650258 110.14969 50.877404 C 109.57458 50.637692 109.14445 50.760448 108.64183 51.028191 C 108.39052 51.581075 108.1392 52.13396 107.88789 52.686844 C 107.93815 51.229239 108.13341 49.916622 108.18367 48.459017 z "
       id="path592"
       sodipodi:nodetypes="ccccccccccccc" />
    <path
       style="fill:url(#linearGradient588);fill-rule:evenodd;stroke:#261933;stroke-opacity:1;stroke-width:1pt;stroke-linejoin:miter;stroke-linecap:butt;fill-opacity:0.75;"
       d="M 86.400343 43.938398 C 91.095143 43.186894 95.789944 43.14997 100.24655 43.827628 C 102.56355 44.117462 104.64234 44.566093 105.84777 45.173519 C 107.07373 45.98583 107.7439 46.639345 107.77889 47.372258 C 108.09093 48.99688 108.08538 50.700899 108.00043 52.246123 C 107.43742 56.477576 105.66009 60.470835 104.06491 63.987708 C 103.35976 65.418547 101.87664 66.460407 100.97264 66.938472 C 96.689548 67.494257 93.088999 67.724442 88.726506 67.089259 C 87.016935 66.764438 85.06917 65.725036 84.07418 64.209247 C 81.808824 61.056055 80.258048 57.347079 79.421854 53.796898 C 79.030416 52.019032 79.035967 49.36779 79.200314 48.701494 C 79.451289 47.11741 80.337446 46.327304 81.858787 45.378403 C 83.372639 44.58081 84.727695 44.100809 86.400343 43.938398 z "
       id="path587"
       sodipodi:nodetypes="ccccccccccccc" />
    <path
       sodipodi:type="arc"
       style="font-size:12;fill:#261933;fill-opacity:0.92;fill-rule:evenodd;stroke:#261933;stroke-width:1pt;stroke-opacity:1;"
       id="path586"
       sodipodi:cx="90.49881744"
       sodipodi:cy="46.09840775"
       sodipodi:rx="13.73543930"
       sodipodi:ry="3.60001421"
       d="M 104.234257 46.098408 A 13.735439 3.600014 0 1 0 76.763378,46.098408 A 13.7354 3.60001 0 1 0 104.234 46.0984 L 90.498817 46.098408 z"
       transform="matrix(0.814516,0.000000,0.000000,0.630769,19.99839,18.79327)" />
    <path
       style="fill:url(#linearGradient597);fill-rule:evenodd;stroke:none;stroke-opacity:1;stroke-width:1pt;stroke-linejoin:miter;stroke-linecap:butt;fill-opacity:1;"
       d="M 86.178639 63.977476 C 87.87275 64.60356 88.020063 64.677217 87.835921 63.756505 C 87.651778 60.810227 87.246665 58.084919 85.847183 55.691068 C 85.184271 54.438899 85.736697 53.186732 86.510095 53.260388 C 92.476308 53.113074 98.111063 52.302848 103.74582 50.498253 C 98.405691 51.345308 92.513136 51.860906 86.731066 50.719223 C 85.18427 50.498253 83.306018 50.277281 81.869707 49.061942 C 81.501422 48.840971 81.464594 48.509515 81.096309 48.288544 C 81.133138 47.551974 80.396568 50.129968 80.543882 51.161165 C 80.838509 53.996957 82.017022 56.501295 83.085047 59.226602 C 83.74796 60.883884 84.742328 62.320194 86.178639 63.977476 z "
       id="path596"
       sodipodi:nodetypes="ccccccccccc" />
  </g>
  <text
     xml:space="preserve"
     style="fill:black;fill-opacity:1;stroke:none;font-family:helvetica;font-style:normal;font-weight:normal;font-size:12px;stroke-opacity:1;stroke-width:1pt;stroke-linejoin:miter;stroke-linecap:butt;"
     x="32.315414"
     y="43.967276"
     id="text863"><tspan
       id="tspan864"></tspan></text>
  <rect
     style="fill:#000000;fill-opacity:0.30000001;fill-rule:evenodd;stroke:none;stroke-width:1.0000000pt;stroke-opacity:1.0000000;"
     id="rect937"
     x="10.649873"
     y="39.838367"
     rx="1.1133144"
     width="48.508707"
     height="12.888113" />
  <rect
     style="fill:#d9cce6;fill-opacity:0.80000001;fill-rule:evenodd;stroke:#261933;stroke-width:1.2500000;stroke-dasharray:none;"
     id="rect862"
     x="9.2372573"
     y="38.249527"
     rx="1.0974518"
     width="47.817551"
     height="12.750523" />
  <text
     xml:space="preserve"
     style="fill:black;fill-opacity:1;stroke:none;font-family:helvetica;font-style:normal;font-weight:normal;font-size:12px;stroke-opacity:1;stroke-width:1pt;stroke-linejoin:miter;stroke-linecap:butt;"
     x="22.227272"
     y="43.967278"
     id="text898"
     transform="scale(1.205585,1.000000)"><tspan
       id="tspan899"></tspan></text>
  <path
     style="font-size:12.000000;stroke-width:1.0000000pt;font-family:Radio Stars;"
     d="M 54.493732,47.011313 C 54.493732,47.555313 54.225732,47.827313 53.689732,47.827313 L 47.209732,47.827313 C 46.953732,47.827313 46.753732,47.747313 46.609732,47.587313 C 46.465732,47.427313 46.393732,47.235313 46.393732,47.011313 C 46.393732,46.787313 46.465732,46.595313 46.609732,46.435313 C 46.753732,46.275313 46.953732,46.195313 47.209732,46.195313 L 52.885732,46.195313 L 52.885732,45.235313 L 47.209732,45.235313 C 46.673732,45.235313 46.405732,44.963313 46.405732,44.419313 L 46.405732,41.827313 C 46.405732,41.283313 46.673732,41.011313 47.209732,41.011313 L 53.689732,41.011313 C 53.945732,41.011313 54.145732,41.091313 54.289732,41.251313 C 54.433732,41.411313 54.505732,41.603313 54.505732,41.827313 C 54.505732,42.051313 54.433732,42.243313 54.289732,42.403313 C 54.145732,42.563313 53.945732,42.643313 53.689732,42.643313 L 48.013732,42.643313 L 48.013732,43.603313 L 53.689732,43.603313 C 54.225732,43.603313 54.493732,43.875313 54.493732,44.419313 L 54.493732,47.011313 z M 45.637732,47.011313 C 45.637732,47.555313 45.369732,47.827313 44.833732,47.827313 L 38.353732,47.827313 C 38.097732,47.827313 37.897732,47.747313 37.753732,47.587313 C 37.609732,47.427313 37.537732,47.235313 37.537732,47.011313 C 37.537732,46.787313 37.609732,46.595313 37.753732,46.435313 C 37.897732,46.275313 38.097732,46.195313 38.353732,46.195313 L 44.029732,46.195313 L 44.029732,45.235313 L 38.353732,45.235313 C 37.817732,45.235313 37.549732,44.963313 37.549732,44.419313 L 37.549732,41.827313 C 37.549732,41.283313 37.817732,41.011313 38.353732,41.011313 L 44.833732,41.011313 C 45.089732,41.011313 45.289732,41.091313 45.433732,41.251313 C 45.577732,41.411313 45.649732,41.603313 45.649732,41.827313 C 45.649732,42.051313 45.577732,42.243313 45.433732,42.403313 C 45.289732,42.563313 45.089732,42.643313 44.833732,42.643313 L 39.157732,42.643313 L 39.157732,43.603313 L 44.833732,43.603313 C 45.369732,43.603313 45.637732,43.875313 45.637732,44.419313 L 45.637732,47.011313 z M 34.465732,46.015313 L 31.285732,46.015313 L 30.325732,47.455313 C 30.157732,47.711313 29.933732,47.839313 29.653732,47.839313 C 29.437732,47.839313 29.241732,47.763313 29.065732,47.611313 C 28.897732,47.451313 28.813732,47.259313 28.813732,47.035313 C 28.813732,46.883313 28.861732,46.735313 28.957732,46.591313 L 31.801732,41.995313 C 32.169732,41.403313 32.525732,41.107313 32.869732,41.107313 C 33.109732,41.107313 33.325732,41.199313 33.517732,41.383313 C 33.637732,41.495313 33.789732,41.699313 33.973732,41.995313 L 36.805732,46.591313 C 36.893732,46.735313 36.937732,46.883313 36.937732,47.035313 C 36.937732,47.259313 36.853732,47.447313 36.685732,47.599313 C 36.517732,47.751313 36.321732,47.827313 36.097732,47.827313 C 35.825732,47.827313 35.605732,47.703313 35.437732,47.455313 L 34.465732,46.015313 z M 32.113732,44.587313 L 33.637732,44.587313 L 32.869732,43.363313 L 32.113732,44.587313 z M 27.661732,47.827313 L 21.181732,47.827313 C 20.645732,47.827313 20.377732,47.555313 20.377732,47.011313 L 20.377732,41.827313 C 20.377732,41.571313 20.457732,41.375313 20.617732,41.239313 C 20.777732,41.095313 20.965732,41.023313 21.181732,41.023313 C 21.397732,41.023313 21.585732,41.095313 21.745732,41.239313 C 21.905732,41.375313 21.985732,41.571313 21.985732,41.827313 L 21.985732,46.195313 L 27.661732,46.195313 C 27.901732,46.195313 28.085732,46.275313 28.213732,46.435313 C 28.349732,46.595313 28.417732,46.787313 28.417732,47.011313 C 28.417732,47.235313 28.349732,47.427313 28.213732,47.587313 C 28.085732,47.747313 27.901732,47.827313 27.661732,47.827313 z M 19.045732,47.827313 L 12.565732,47.827313 C 12.021732,47.827313 11.749732,47.555313 11.749732,47.011313 L 11.749732,41.827313 C 11.749732,41.283313 12.021732,41.011313 12.565732,41.011313 L 19.045732,41.011313 C 19.301732,41.011313 19.497732,41.091313 19.633732,41.251313 C 19.777732,41.411313 19.849732,41.603313 19.849732,41.827313 C 19.849732,42.051313 19.777732,42.243313 19.633732,42.403313 C 19.497732,42.563313 19.301732,42.643313 19.045732,42.643313 L 13.369732,42.643313 L 13.369732,46.195313 L 19.045732,46.195313 C 19.301732,46.195313 19.497732,46.275313 19.633732,46.435313 C 19.777732,46.595313 19.849732,46.787313 19.849732,47.011313 C 19.849732,47.235313 19.777732,47.427313 19.633732,47.587313 C 19.497732,47.747313 19.301732,47.827313 19.045732,47.827313 z "
     id="path865" />
</svg>
