<?xml version="1.0" encoding="UTF-8" standalone="no"?>
<!DOCTYPE svg PUBLIC "-//W3C//DTD SVG 20010904//EN"
"http://www.w3.org/TR/2001/REC-SVG-20010904/DTD/svg10.dtd">
<!-- Created with Inkscape (http://www.inkscape.org/) -->
<svg
   id="svg1"
   sodipodi:version="0.32"
   inkscape:version="0.38.1"
   width="48pt"
   height="48pt"
   sodipodi:docbase="/home/freaknl/Projecten/Icons"
   sodipodi:docname="gnome-mime-application-x-dia-diagram.svg"
   xmlns="http://www.w3.org/2000/svg"
   xmlns:inkscape="http://www.inkscape.org/namespaces/inkscape"
   xmlns:sodipodi="http://sodipodi.sourceforge.net/DTD/sodipodi-0.dtd"
   xmlns:xml="http://www.w3.org/XML/1998/namespace"
   xmlns:xlink="http://www.w3.org/1999/xlink">
  <defs
     id="defs3">
    <linearGradient
       id="linearGradient642">
      <stop
         style="stop-color:#d9cce6;stop-opacity:1;"
         offset="0.00000000"
         id="stop643" />
      <stop
         style="stop-color:#73667f;stop-opacity:1;"
         offset="1.00000000"
         id="stop644" />
    </linearGradient>
    <linearGradient
       id="linearGradient866">
      <stop
         style="stop-color:#ffffff;stop-opacity:1;"
         offset="0.00000000"
         id="stop867" />
      <stop
         style="stop-color:#d9cce6;stop-opacity:1;"
         offset="1.00000000"
         id="stop868" />
    </linearGradient>
    <linearGradient
       id="linearGradient584">
      <stop
         style="stop-color:#ffffff;stop-opacity:1;"
         offset="0.00000000"
         id="stop585" />
      <stop
         style="stop-color:#ffffff;stop-opacity:0;"
         offset="1.00000000"
         id="stop586" />
    </linearGradient>
    <linearGradient
       xlink:href="#linearGradient866"
       id="linearGradient586"
       x1="-0.00000000"
       y1="0.01562500"
       x2="0.99122804"
       y2="0.98437500" />
    <linearGradient
       xlink:href="#linearGradient584"
       id="linearGradient587"
       x1="0.00000000"
       y1="-0.00000000"
       x2="1.00000000"
       y2="1.00000000" />
    <linearGradient
       xlink:href="#linearGradient584"
       id="linearGradient638"
       x1="-0.00000000"
       y1="0.00000000"
       x2="1.00000000"
       y2="1.01562500" />
    <radialGradient
       xlink:href="#linearGradient866"
       id="radialGradient639" />
    <linearGradient
       xlink:href="#linearGradient584"
       id="linearGradient640"
       x1="-0.00000000"
       y1="0.00000000"
       x2="0.98275864"
       y2="1.00000000" />
    <linearGradient
       xlink:href="#linearGradient642"
       id="linearGradient641"
       x1="0.01515152"
       y1="0.02343750"
       x2="0.98484850"
       y2="0.98437500" />
    <linearGradient
       xlink:href="#linearGradient642"
       id="linearGradient645"
       x1="0.01428571"
       y1="0.01562500"
       x2="1.00000000"
       y2="1.00781250" />
  </defs>
  <sodipodi:namedview
     id="base"
     pagecolor="#ffffff"
     bordercolor="#666666"
     borderopacity="1.0"
     inkscape:pageopacity="0.0"
     inkscape:pageshadow="2"
     inkscape:zoom="12.166667"
     inkscape:cx="24.000000"
     inkscape:cy="24.000000"
     inkscape:window-width="1024"
     inkscape:window-height="722"
     inkscape:window-x="800"
     inkscape:window-y="0"
     showguides="true"
     snaptoguides="true" />
  <path
     d="M 4.4389304 48.086315 C 5.2483181 50.50443 38.765774 61.377487 40.966438 59.55288 C 42.936267 57.902492 57.675565 8.7785888 56.688667 6.8303779 C 55.662821 4.6824777 21.657054 -0.6675724 20.042945 0.80153134 C 18.054709 2.621752 3.5888672 45.311841 4.4389304 48.086315 z "
     style="font-size:12;opacity:0.302675;fill-rule:evenodd;stroke-width:12.5;"
     id="path639" />
  <path
     d="M 4.5541516 46.08493 C 5.3114351 48.34726 36.66955 58.519843 38.728432 56.812781 C 40.571358 55.268717 54.36111 9.3095333 53.437795 7.4867937 C 52.478034 5.477268 20.663028 0.47192513 19.152904 1.8463842 C 17.292759 3.5493405 3.7588508 43.489198 4.5541516 46.08493 z "
     style="font-size:12;fill:url(#linearGradient586);fill-rule:evenodd;stroke:#261933;stroke-width:1.87726;"
     id="path634" />
  <path
     style="fill:none;fill-rule:evenodd;stroke:#261933;stroke-opacity:1.0000000;stroke-width:1.2500000;stroke-linejoin:miter;stroke-linecap:round;fill-opacity:0.75;stroke-dasharray:none;"
     d="M 31.722214,44.721636 C 37.098926,46.536704 38.708517,47.581224 41.482489,39.173690 C 44.256462,30.868896 42.646872,30.166840 36.448242,28.694239"
     id="path874"
     sodipodi:nodetypes="czz" />
  <path
     d="M 6.6876568 43.965773 C 6.360392 43.13667 19.363758 4.5872629 20.579427 3.7922731 C 22.09876 2.7554118 46.659814 7.3454032 46.98631 8.172561 C 47.28557 8.9306762 27.823671 5.3906629 23.493845 9.2635774 C 15.189619 16.482895 6.9861475 44.721984 6.6876568 43.965773 z "
     style="font-size:12;opacity:0.699936;fill:url(#linearGradient587);fill-rule:evenodd;stroke:none;stroke-width:0.100121pt;"
     id="path640" />
  <path
     d="M 28.057388,7.5536646 C 29.041666,7.1462486 40.128350,9.2807502 40.996419,10.015518 C 41.741573,10.765140 40.161215,15.488044 39.249228,16.205119 C 38.422059,16.971950 26.927007,14.493080 26.202741,13.702737 C 25.583315,13.135490 27.072039,8.1001206 28.057388,7.5536646 z "
     style="font-size:12;fill-rule:evenodd;stroke:#261933;stroke-width:1.25;fill:url(#linearGradient645);stroke-dasharray:none;stroke-opacity:1;"
     id="path1236"
     sodipodi:nodetypes="ccccc" />
  <path
     d="M 27.736366,12.629770 C 27.543883,12.217403 28.279096,9.5469637 29.051093,9.0565077 C 29.859414,8.6580882 34.537275,9.7519470 34.998777,10.046329 C 35.160166,10.392234 31.239995,9.6372224 29.813067,10.319421 C 28.516524,11.053251 27.893677,12.966927 27.736366,12.629770 z "
     style="font-size:12;opacity:0.699936;fill-rule:evenodd;stroke:none;stroke-width:0.0971644pt;fill:url(#linearGradient640);"
     id="path1240"
     sodipodi:nodetypes="ccccc" />
  <rect
     style="fill:#000000;fill-opacity:0.30000001;fill-rule:evenodd;stroke:none;stroke-width:1.0000000pt;stroke-opacity:1.0000000;"
     id="rect937"
     x="34.556093"
     y="39.838367"
     rx="0.56464716"
     width="24.602486"
     height="12.888113" />
  <rect
     style="fill:#d9cce6;fill-opacity:0.80000001;fill-rule:evenodd;stroke:#261933;stroke-width:1.1212676;"
     id="rect862"
     x="32.587376"
     y="38.249527"
     rx="0.56324388"
     width="24.541342"
     height="12.750523" />
  <text
     xml:space="preserve"
     style="fill:black;fill-opacity:1;stroke:none;font-family:helvetica;font-style:normal;font-weight:normal;font-size:12px;stroke-opacity:1;stroke-width:1pt;stroke-linejoin:miter;stroke-linecap:butt;"
     x="-6.0077754"
     y="46.704648"
     id="text863"><tspan
       id="tspan864"></tspan></text>
  <path
     style="font-size:12.000000;stroke-width:1.0000000pt;font-family:Radio Stars;"
     d="M 52.574985,46.147751 L 49.394985,46.147751 L 48.434985,47.587751 C 48.266985,47.843751 48.042985,47.971751 47.762985,47.971751 C 47.546985,47.971751 47.350985,47.895751 47.174985,47.743751 C 47.006985,47.583751 46.922985,47.391751 46.922985,47.167751 C 46.922985,47.015751 46.970985,46.867751 47.066985,46.723751 L 49.910985,42.127751 C 50.278985,41.535751 50.634985,41.239751 50.978985,41.239751 C 51.218985,41.239751 51.434985,41.331751 51.626985,41.515751 C 51.746985,41.627751 51.898985,41.831751 52.082985,42.127751 L 54.914985,46.723751 C 55.002985,46.867751 55.046985,47.015751 55.046985,47.167751 C 55.046985,47.391751 54.962985,47.579751 54.794985,47.731751 C 54.626985,47.883751 54.430985,47.959751 54.206985,47.959751 C 53.934985,47.959751 53.714985,47.835751 53.546985,47.587751 L 52.574985,46.147751 z M 50.222985,44.719751 L 51.746985,44.719751 L 50.978985,43.495751 L 50.222985,44.719751 z M 45.930497,47.143751 C 45.930497,47.399751 45.850497,47.599751 45.690497,47.743751 C 45.530497,47.879751 45.342497,47.947751 45.126497,47.947751 C 44.910497,47.947751 44.722497,47.879751 44.562497,47.743751 C 44.402497,47.599751 44.322497,47.399751 44.322497,47.143751 L 44.322497,41.959751 C 44.322497,41.703751 44.402497,41.507751 44.562497,41.371751 C 44.722497,41.227751 44.910497,41.155751 45.126497,41.155751 C 45.342497,41.155751 45.530497,41.227751 45.690497,41.371751 C 45.850497,41.507751 45.930497,41.703751 45.930497,41.959751 L 45.930497,47.143751 z M 43.157176,47.114629 C 43.157176,47.658629 42.889176,47.930629 42.353176,47.930629 L 35.069176,47.930629 L 35.069176,41.114629 L 36.677176,41.114629 C 38.621176,41.114629 40.177176,41.638629 41.345176,42.686629 C 42.553176,43.766629 43.157176,45.242629 43.157176,47.114629 z M 41.549176,46.298629 C 41.533176,45.818629 41.365176,45.330629 41.045176,44.834629 C 40.765176,44.410629 40.409176,44.030629 39.977176,43.694629 C 39.137176,43.062629 38.237176,42.746629 37.277176,42.746629 L 36.677176,42.746629 L 36.677176,46.298629 L 41.549176,46.298629 z "
     id="path866"
     sodipodi:nodetypes="cccccccccccccccccccccccccccccccccccccccccccccc" />
  <path
     d="M 30.298345,22.551891 C 30.966847,22.721653 36.624917,27.744646 36.398149,28.609636 C 36.171381,29.496793 28.323781,31.438581 27.628416,31.225512 C 26.910885,31.012443 20.942810,25.781757 21.223770,24.871446 C 21.504729,23.983301 29.629844,22.359963 30.298345,22.551891 z "
     style="font-size:12;fill-rule:evenodd;stroke:#261933;stroke-width:1.25;fill:url(#linearGradient645);stroke-dasharray:none;stroke-opacity:1;"
     id="path867"
     sodipodi:nodetypes="czzzz" />
  <path
     d="M 25.517010,38.454132 C 29.271925,39.462349 32.336173,42.234994 31.705480,44.409841 C 31.086051,46.646751 27.068318,47.232453 23.230595,46.285429 C 19.392872,45.235666 15.879292,42.707877 16.613433,40.328247 C 17.347574,38.051357 21.864834,37.445915 25.517010,38.454132 z "
     style="font-size:12;fill-rule:evenodd;stroke:#261933;stroke-width:1.25;fill:url(#linearGradient645);stroke-dasharray:none;stroke-opacity:1;"
     id="path872"
     sodipodi:nodetypes="cszzz" />
  <path
     style="fill:none;fill-rule:evenodd;stroke:#261933;stroke-opacity:1.0000000;stroke-width:1.2500000;stroke-linejoin:miter;stroke-linecap:round;fill-opacity:0.75;stroke-dasharray:none;"
     d="M 26.095891,10.582192 C 20.513699,8.5616442 19.828767,8.4417828 17.465753,15.821919 C 15.102739,23.304795 15.684932,23.390412 21.164383,24.863014"
     id="path873"
     sodipodi:nodetypes="czz" />
  <path
     style="fill:#261933;fill-rule:evenodd;stroke:#261933;stroke-opacity:1.0000000;stroke-width:1.2500000;stroke-linejoin:round;stroke-linecap:butt;fill-opacity:1.0000000;stroke-dasharray:none;"
     d="M 36.575343,28.767124 L 40.890410,27.226027 L 39.246576,32.157535 L 36.575343,28.767124 z "
     id="path876"
     sodipodi:nodetypes="cccc" />
  <path
     style="fill:#261933;fill-rule:evenodd;stroke:#261933;stroke-opacity:1.0000000;stroke-width:1.2500000;stroke-linejoin:round;stroke-linecap:butt;fill-opacity:1.0000000;stroke-dasharray:none;"
     d="M 26.301370,10.582190 L 22.191783,12.123286 L 23.732877,6.9863001 L 26.301370,10.582190 z "
     id="path877"
     sodipodi:nodetypes="cccc" />
  <path
     d="M 24.844209,27.006281 C 24.609221,26.976463 22.964132,25.751207 23.544855,25.282004 C 23.949015,25.082794 28.626663,24.056082 29.542255,24.032563 C 30.476858,24.258272 31.251746,25.150392 31.435240,25.339011 C 31.563191,25.470536 30.369779,24.826719 29.660788,24.768320 C 28.808277,24.776882 25.431648,25.503630 24.718184,25.844729 C 24.059221,26.259769 25.171541,27.024647 24.844209,27.006281 z "
     style="font-size:12;opacity:0.699936;fill-rule:evenodd;stroke:none;stroke-width:0.0971644pt;fill:url(#linearGradient640);"
     id="path878"
     sodipodi:nodetypes="cccsccc" />
  <path
     d="M 18.850067,42.772699 C 17.594949,41.419047 17.943987,40.268682 19.615087,39.659068 C 21.313716,39.049453 23.779858,39.280860 24.516654,39.547713 C 23.411690,39.563265 21.929741,39.784728 20.568005,40.244977 C 19.206270,40.732756 18.952319,41.843503 18.850067,42.772699 z "
     style="font-size:12;opacity:0.699936;fill-rule:evenodd;stroke:none;stroke-width:0.0971644pt;fill:url(#linearGradient640);"
     id="path879"
     sodipodi:nodetypes="czczc" />
</svg>
