<?xml version="1.0" encoding="UTF-8" standalone="no"?>
<!DOCTYPE svg PUBLIC "-//W3C//DTD SVG 20010904//EN"
"http://www.w3.org/TR/2001/REC-SVG-20010904/DTD/svg10.dtd">
<!-- Created with Inkscape (http://www.inkscape.org/) -->
<svg
   id="svg1"
   sodipodi:version="0.32"
   inkscape:version="0.38.1"
   width="48pt"
   height="48pt"
   sodipodi:docbase="/root/Desktop"
   sodipodi:docname="gnome-mime-application-x-glade.svg"
   xmlns="http://www.w3.org/2000/svg"
   xmlns:inkscape="http://www.inkscape.org/namespaces/inkscape"
   xmlns:sodipodi="http://sodipodi.sourceforge.net/DTD/sodipodi-0.dtd"
   xmlns:xlink="http://www.w3.org/1999/xlink">
  <defs
     id="defs3">
    <linearGradient
       id="linearGradient642">
      <stop
         style="stop-color:#d9cce6;stop-opacity:1;"
         offset="0.00000000"
         id="stop643" />
      <stop
         style="stop-color:#73667f;stop-opacity:1;"
         offset="1.00000000"
         id="stop644" />
    </linearGradient>
    <linearGradient
       id="linearGradient866">
      <stop
         style="stop-color:#ffffff;stop-opacity:1;"
         offset="0.00000000"
         id="stop867" />
      <stop
         style="stop-color:#d9cce6;stop-opacity:1;"
         offset="1.00000000"
         id="stop868" />
    </linearGradient>
    <linearGradient
       id="linearGradient584">
      <stop
         style="stop-color:#ffffff;stop-opacity:1;"
         offset="0.00000000"
         id="stop585" />
      <stop
         style="stop-color:#ffffff;stop-opacity:0;"
         offset="1.00000000"
         id="stop586" />
    </linearGradient>
    <linearGradient
       xlink:href="#linearGradient866"
       id="linearGradient586"
       x1="-0.00000000"
       y1="0.01562500"
       x2="0.99122804"
       y2="0.98437500" />
    <linearGradient
       xlink:href="#linearGradient584"
       id="linearGradient587"
       x1="0.00000000"
       y1="-0.00000000"
       x2="1.00000000"
       y2="1.00000000" />
    <linearGradient
       xlink:href="#linearGradient866"
       id="linearGradient638"
       x1="0.00000000"
       y1="0.00000000"
       x2="0.98684210"
       y2="1.02343750" />
    <radialGradient
       xlink:href="#linearGradient866"
       id="radialGradient639" />
    <linearGradient
       xlink:href="#linearGradient642"
       id="linearGradient640"
       x1="0.00000000"
       y1="-0.00000000"
       x2="0.98684210"
       y2="1.02343750" />
    <linearGradient
       xlink:href="#linearGradient584"
       id="linearGradient641"
       x1="0.00000000"
       y1="0.00000000"
       x2="0.99270076"
       y2="0.95238096" />
    <linearGradient
       xlink:href="#linearGradient584"
       id="linearGradient645"
       x1="-0.00000000"
       y1="-0.00000000"
       x2="0.99270076"
       y2="0.94999999" />
    <linearGradient
       xlink:href="#linearGradient584"
       id="linearGradient699"
       x1="0.00000000"
       y1="0.00000000"
       x2="0.98701298"
       y2="1.00781250" />
    <linearGradient
       xlink:href="#linearGradient584"
       id="linearGradient700"
       x1="-0.00000000"
       y1="-0.00000000"
       x2="0.96875000"
       y2="0.99218750" />
    <linearGradient
       xlink:href="#linearGradient584"
       id="linearGradient701"
       x1="-0.00000000"
       y1="-0.00000000"
       x2="0.97058821"
       y2="0.97656250" />
    <linearGradient
       xlink:href="#linearGradient584"
       id="linearGradient702"
       x1="-0.00000000"
       y1="0.00000000"
       x2="1.01485145"
       y2="1.02343750" />
    <linearGradient
       xlink:href="#linearGradient584"
       id="linearGradient703"
       x1="0.00000000"
       y1="-0.00000000"
       x2="1.01315784"
       y2="1.00781250" />
    <linearGradient
       xlink:href="#linearGradient642"
       id="linearGradient704"
       x1="0.26760563"
       y1="0.31250000"
       x2="0.65492958"
       y2="0.65625000" />
  </defs>
  <sodipodi:namedview
     id="base"
     pagecolor="#ffffff"
     bordercolor="#666666"
     borderopacity="1.0"
     inkscape:pageopacity="0.0"
     inkscape:pageshadow="2"
     inkscape:zoom="7.9794719"
     inkscape:cx="21.350369"
     inkscape:cy="24.273877"
     inkscape:window-width="771"
     inkscape:window-height="689"
     inkscape:window-x="117"
     inkscape:window-y="104" />
  <path
     d="M 4.4389304 48.086315 C 5.2483181 50.50443 38.765774 61.377487 40.966438 59.55288 C 42.936267 57.902492 57.675565 8.7785888 56.688667 6.8303779 C 55.662821 4.6824777 21.657054 -0.6675724 20.042945 0.80153134 C 18.054709 2.621752 3.5888672 45.311841 4.4389304 48.086315 z "
     style="font-size:12;opacity:0.302675;fill-rule:evenodd;stroke-width:12.5;"
     id="path639" />
  <path
     d="M 4.5541516 46.08493 C 5.3114351 48.34726 36.66955 58.519843 38.728432 56.812781 C 40.571358 55.268717 54.36111 9.3095333 53.437795 7.4867937 C 52.478034 5.477268 20.663028 0.47192513 19.152904 1.8463842 C 17.292759 3.5493405 3.7588508 43.489198 4.5541516 46.08493 z "
     style="font-size:12;fill:url(#linearGradient586);fill-rule:evenodd;stroke:#261933;stroke-width:1.87726;"
     id="path634" />
  <path
     d="M 6.6876568 43.965773 C 6.360392 43.13667 19.363758 4.5872629 20.579427 3.7922731 C 22.09876 2.7554118 46.659814 7.3454032 46.98631 8.172561 C 47.28557 8.9306762 27.823671 5.3906629 23.493845 9.2635774 C 15.189619 16.482895 6.9861475 44.721984 6.6876568 43.965773 z "
     style="font-size:12;opacity:0.699936;fill:url(#linearGradient587);fill-rule:evenodd;stroke:none;stroke-width:0.100121pt;"
     id="path640" />
  <g
     id="g626"
     transform="matrix(0.999781,-2.092806e-2,2.092806e-2,0.999781,-0.438159,-0.894269)">
    <path
       style="fill:#000000;fill-rule:evenodd;stroke:none;stroke-opacity:1;stroke-width:1.25;stroke-linejoin:miter;stroke-linecap:butt;fill-opacity:1;stroke-dasharray:none;opacity:0.302675;"
       d="M 12.694234 37.074845 C 12.175239 36.142873 18.381131 17.321417 19.82322 16.739702 C 20.90559 16.301113 45.170787 21.42501 45.651191 22.466265 C 46.178271 23.736915 39.990579 44.230437 38.755941 44.671307 C 37.553044 45.145754 13.25744 38.179201 12.694234 37.074845 z "
       id="path627"
       sodipodi:nodetypes="cssss" />
    <path
       style="fill:url(#linearGradient638);fill-rule:evenodd;stroke:black;stroke-opacity:1;stroke-width:1.25;stroke-linejoin:miter;stroke-linecap:butt;fill-opacity:1;stroke-dasharray:none;"
       d="M 12.849282 34.966055 C 12.357371 34.082719 18.239399 16.24349 19.606231 15.692132 C 20.632115 15.276431 43.630996 20.13293 44.086329 21.119846 C 44.585903 22.324185 38.721125 41.748221 37.550918 42.166084 C 36.410796 42.615771 13.383096 36.012778 12.849282 34.966055 z "
       id="path628"
       sodipodi:nodetypes="cssss" />
    <path
       style="fill:url(#linearGradient640);fill-rule:evenodd;stroke:black;stroke-opacity:1;stroke-width:1.25;stroke-linejoin:miter;stroke-linecap:butt;fill-opacity:1;stroke-dasharray:none;"
       d="M 18.276996 18.682913 C 17.895855 18.464195 19.236326 15.911181 19.606231 15.692132 C 20.518941 15.065869 43.451033 20.237956 44.086329 21.119846 C 44.364364 21.548797 43.70576 24.135843 43.089402 24.442936 C 42.074956 25.130684 19.165881 19.451333 18.276996 18.682913 z "
       id="path629"
       sodipodi:nodetypes="cssss" />
    <path
       style="font-size:12;fill:#261933;fill-rule:evenodd;stroke:none;stroke-width:0.799318pt;fill-opacity:1;"
       d="M 19.260373 24.167477 C 18.95572 23.992651 19.473335 23.059679 19.769007 22.884589 C 20.498552 22.384006 38.828583 26.518147 39.336386 27.223058 C 39.558624 27.565926 39.3645 28.193792 38.871834 28.439257 C 38.060969 28.988986 19.970875 24.781688 19.260373 24.167477 z "
       id="path630"
       sodipodi:nodetypes="cssss" />
    <path
       style="font-size:12;fill:#261933;fill-rule:evenodd;stroke:none;stroke-width:0.799318pt;fill-opacity:1;"
       d="M 17.820368 27.822877 C 17.515715 27.648051 18.03333 26.715079 18.329002 26.539989 C 19.058547 26.039406 32.182403 29.176619 32.690206 29.88153 C 32.912444 30.224398 32.71832 30.852264 32.225654 31.097729 C 31.414789 31.647458 18.53087 28.437088 17.820368 27.822877 z "
       id="path631"
       sodipodi:nodetypes="cssss" />
    <path
       style="font-size:12;fill:url(#linearGradient640);fill-rule:evenodd;stroke:#000000;stroke-width:1.25;stroke-dasharray:none;"
       d="M 29.604536 37.395008 C 29.451659 37.165626 30.570608 34.325008 30.81423 34.261011 C 31.066588 34.156063 36.950228 35.399154 37.165029 35.623958 C 37.383433 35.869855 36.299305 38.689747 36.017622 38.812178 C 35.812079 38.901484 29.74933 37.653812 29.604536 37.395008 z "
       id="path632"
       sodipodi:nodetypes="cssss" />
    <path
       style="fill:#000000;fill-rule:evenodd;stroke:none;stroke-opacity:1;stroke-width:1pt;stroke-linejoin:miter;stroke-linecap:butt;fill-opacity:1;"
       d="M 40.283173 21.12765 C 40.057227 21.272636 40.609521 22.080189 40.596477 22.224214 C 40.586579 22.354506 39.613435 22.743887 39.734891 22.929148 C 39.831886 23.120792 40.848926 22.539915 40.983356 22.592903 C 41.084805 22.626061 41.39608 23.492894 41.614715 23.399104 C 41.828518 23.291573 41.437577 22.444546 41.458063 22.30254 C 41.500609 22.177134 42.559585 21.865068 42.476301 21.675932 C 42.352712 21.47316 41.216678 21.989255 41.066433 21.91091 C 40.941096 21.831114 40.504698 21.003271 40.283173 21.12765 z "
       id="path633"
       sodipodi:nodetypes="cssssssss" />
    <path
       style="fill:url(#linearGradient641);fill-rule:evenodd;stroke:none;stroke-opacity:1;stroke-width:1pt;stroke-linejoin:miter;stroke-linecap:butt;fill-opacity:1;"
       d="M 30.805729 36.636195 C 30.734184 36.536031 30.894705 35.338073 31.275685 35.304654 C 32.382899 35.20753 35.200988 36.147516 35.27031 36.244566 C 35.331532 36.330276 32.79364 35.754136 31.667315 35.852936 C 31.305446 35.884679 30.864727 36.718792 30.805729 36.636195 z "
       id="path635"
       sodipodi:nodetypes="cssss" />
    <path
       style="fill:url(#linearGradient645);fill-rule:evenodd;stroke:none;stroke-opacity:1;stroke-width:1pt;stroke-linejoin:miter;stroke-linecap:butt;fill-opacity:1;"
       d="M 19.526787 17.759633 C 19.483131 17.643218 19.79854 16.514624 20.231721 16.584743 C 27.056748 17.689513 41.26192 21.178993 41.301411 21.284302 C 41.340246 21.387863 27.371013 18.328956 20.466699 17.211351 C 20.112805 17.154066 19.561457 17.852087 19.526787 17.759633 z "
       id="path636"
       sodipodi:nodetypes="cssss" />
  </g>
  <text
     xml:space="preserve"
     style="fill:black;fill-opacity:1;stroke:none;font-family:helvetica;font-style:normal;font-weight:normal;font-size:12px;stroke-opacity:1;stroke-width:1pt;stroke-linejoin:miter;stroke-linecap:butt;"
     x="32.315414"
     y="43.967276"
     id="text863"><tspan
       id="tspan864"></tspan></text>
  <rect
     style="fill:#000000;fill-opacity:0.30000001;fill-rule:evenodd;stroke:none;stroke-width:1.0000000pt;stroke-opacity:1.0000000;"
     id="rect937"
     x="10.649873"
     y="39.838367"
     rx="1.1133144"
     width="48.508707"
     height="12.888113" />
  <rect
     style="fill:#d9cce6;fill-opacity:0.80000001;fill-rule:evenodd;stroke:#261933;stroke-width:1.2500000;stroke-dasharray:none;"
     id="rect862"
     x="9.2372573"
     y="38.249527"
     rx="1.0974518"
     width="47.817551"
     height="12.750523" />
  <text
     xml:space="preserve"
     style="fill:black;fill-opacity:1;stroke:none;font-family:helvetica;font-style:normal;font-weight:normal;font-size:12px;stroke-opacity:1;stroke-width:1pt;stroke-linejoin:miter;stroke-linecap:butt;"
     x="22.227272"
     y="43.967278"
     id="text898"
     transform="scale(1.205585,1.000000)"><tspan
       id="tspan899"></tspan></text>
  <path
     style="font-size:12.000000;stroke-width:1.0000000pt;font-family:Radio Stars;"
     d="M 53.842290,47.937797 L 47.362290,47.937797 C 46.818290,47.937797 46.546290,47.665797 46.546290,47.121797 L 46.546290,41.937797 C 46.546290,41.393797 46.818290,41.121797 47.362290,41.121797 L 53.842290,41.121797 C 54.098290,41.121797 54.294290,41.201797 54.430290,41.361797 C 54.574290,41.521797 54.646290,41.713797 54.646290,41.937797 C 54.646290,42.161797 54.574290,42.353797 54.430290,42.513797 C 54.294290,42.673797 54.098290,42.753797 53.842290,42.753797 L 48.166290,42.753797 L 48.166290,43.713797 L 53.842290,43.713797 C 54.098290,43.713797 54.294290,43.793797 54.430290,43.953797 C 54.574290,44.113797 54.646290,44.305797 54.646290,44.529797 C 54.646290,44.753797 54.574290,44.945797 54.430290,45.105797 C 54.294290,45.265797 54.098290,45.345797 53.842290,45.345797 L 48.166290,45.345797 L 48.166290,46.305797 L 53.842290,46.305797 C 54.098290,46.305797 54.294290,46.385797 54.430290,46.545797 C 54.574290,46.705797 54.646290,46.897797 54.646290,47.121797 C 54.646290,47.345797 54.574290,47.537797 54.430290,47.697797 C 54.294290,47.857797 54.098290,47.937797 53.842290,47.937797 z M 45.946290,47.121797 C 45.946290,47.665797 45.678290,47.937797 45.142290,47.937797 L 37.858290,47.937797 L 37.858290,41.121797 L 39.466290,41.121797 C 41.410290,41.121797 42.966290,41.645797 44.134290,42.693797 C 45.342290,43.773797 45.946290,45.249797 45.946290,47.121797 z M 44.338290,46.305797 C 44.322290,45.825797 44.154290,45.337797 43.834290,44.841797 C 43.554290,44.417797 43.198290,44.037797 42.766290,43.701797 C 41.926290,43.069797 41.026290,42.753797 40.066290,42.753797 L 39.466290,42.753797 L 39.466290,46.305797 L 44.338290,46.305797 z M 34.774290,46.125797 L 31.594290,46.125797 L 30.634290,47.565797 C 30.466290,47.821797 30.242290,47.949797 29.962290,47.949797 C 29.746290,47.949797 29.550290,47.873797 29.374290,47.721797 C 29.206290,47.561797 29.122290,47.369797 29.122290,47.145797 C 29.122290,46.993797 29.170290,46.845797 29.266290,46.701797 L 32.110290,42.105797 C 32.478290,41.513797 32.834290,41.217797 33.178290,41.217797 C 33.418290,41.217797 33.634290,41.309797 33.826290,41.493797 C 33.946290,41.605797 34.098290,41.809797 34.282290,42.105797 L 37.114290,46.701797 C 37.202290,46.845797 37.246290,46.993797 37.246290,47.145797 C 37.246290,47.369797 37.162290,47.557797 36.994290,47.709797 C 36.826290,47.861797 36.630290,47.937797 36.406290,47.937797 C 36.134290,47.937797 35.914290,47.813797 35.746290,47.565797 L 34.774290,46.125797 z M 32.422290,44.697797 L 33.946290,44.697797 L 33.178290,43.473797 L 32.422290,44.697797 z M 27.970290,47.937797 L 21.490290,47.937797 C 20.954290,47.937797 20.686290,47.665797 20.686290,47.121797 L 20.686290,41.937797 C 20.686290,41.681797 20.766290,41.485797 20.926290,41.349797 C 21.086290,41.205797 21.274290,41.133797 21.490290,41.133797 C 21.706290,41.133797 21.894290,41.205797 22.054290,41.349797 C 22.214290,41.485797 22.294290,41.681797 22.294290,41.937797 L 22.294290,46.305797 L 27.970290,46.305797 C 28.210290,46.305797 28.394290,46.385797 28.522290,46.545797 C 28.658290,46.705797 28.726290,46.897797 28.726290,47.121797 C 28.726290,47.345797 28.658290,47.537797 28.522290,47.697797 C 28.394290,47.857797 28.210290,47.937797 27.970290,47.937797 z M 19.546290,47.121797 C 19.546290,47.665797 19.278290,47.937797 18.742290,47.937797 L 12.262290,47.937797 C 11.718290,47.937797 11.446290,47.665797 11.446290,47.121797 L 11.446290,41.937797 C 11.446290,41.393797 11.718290,41.121797 12.262290,41.121797 L 18.742290,41.121797 C 18.998290,41.121797 19.194290,41.201797 19.330290,41.361797 C 19.474290,41.521797 19.546290,41.713797 19.546290,41.937797 C 19.546290,42.161797 19.474290,42.353797 19.330290,42.513797 C 19.194290,42.673797 18.998290,42.753797 18.742290,42.753797 L 13.066290,42.753797 L 13.066290,46.305797 L 17.926290,46.305797 L 17.926290,45.345797 L 15.490290,45.345797 C 15.234290,45.345797 15.034290,45.265797 14.890290,45.105797 C 14.754290,44.945797 14.686290,44.753797 14.686290,44.529797 C 14.686290,44.305797 14.754290,44.113797 14.890290,43.953797 C 15.034290,43.793797 15.234290,43.713797 15.490290,43.713797 L 19.546290,43.713797 L 19.546290,47.121797 z "
     id="path943" />
</svg>
