<?xml version="1.0" encoding="UTF-8" standalone="no"?>
<!DOCTYPE svg PUBLIC "-//W3C//DTD SVG 20010904//EN"
"http://www.w3.org/TR/2001/REC-SVG-20010904/DTD/svg10.dtd">
<!-- Created with Inkscape (http://www.inkscape.org/) -->
<svg
   id="svg1"
   sodipodi:version="0.32"
   inkscape:version="0.38"
   width="48pt"
   height="48pt"
   sodipodi:docbase="/home/dan/Projects/Lila-icons/scalable/mimetypes"
   sodipodi:docname="gnome-mime-text-x-authors.svg"
   xmlns="http://www.w3.org/2000/svg"
   xmlns:inkscape="http://www.inkscape.org/namespaces/inkscape"
   xmlns:sodipodi="http://sodipodi.sourceforge.net/DTD/sodipodi-0.dtd"
   xmlns:xlink="http://www.w3.org/1999/xlink">
  <defs
     id="defs3">
    <linearGradient
       id="linearGradient1134">
      <stop
         style="stop-color:#d9cce6;stop-opacity:1.0000000;"
         offset="0.0000000"
         id="stop1135" />
      <stop
         style="stop-color:#73667f;stop-opacity:1.0000000;"
         offset="1.0000000"
         id="stop1136" />
    </linearGradient>
    <linearGradient
       id="linearGradient866">
      <stop
         style="stop-color:#ffffff;stop-opacity:1;"
         offset="0.00000000"
         id="stop867" />
      <stop
         style="stop-color:#d9cce6;stop-opacity:1;"
         offset="1.00000000"
         id="stop868" />
    </linearGradient>
    <linearGradient
       id="linearGradient584">
      <stop
         style="stop-color:#ffffff;stop-opacity:1;"
         offset="0.00000000"
         id="stop585" />
      <stop
         style="stop-color:#ffffff;stop-opacity:0;"
         offset="1.00000000"
         id="stop586" />
    </linearGradient>
    <linearGradient
       xlink:href="#linearGradient866"
       id="linearGradient586"
       x1="-0.00000000"
       y1="0.01562500"
       x2="0.99122804"
       y2="0.98437500" />
    <linearGradient
       xlink:href="#linearGradient584"
       id="linearGradient587"
       x1="0.00000000"
       y1="-0.00000000"
       x2="1.00000000"
       y2="1.00000000" />
    <linearGradient
       xlink:href="#linearGradient1134"
       id="linearGradient1133"
       x1="-0.0073234546"
       y1="0.068255626"
       x2="1.0312263"
       y2="0.96859711" />
    <linearGradient
       xlink:href="#linearGradient584"
       id="linearGradient1138"
       x1="0.020942409"
       y1="0.0064935065"
       x2="1.3089005"
       y2="1.4870130" />
    <linearGradient
       xlink:href="#linearGradient584"
       id="linearGradient1140"
       x1="0.010033445"
       y1="9.1975039e-15"
       x2="0.97658861"
       y2="0.93902439" />
    <linearGradient
       xlink:href="#linearGradient584"
       id="linearGradient1142"
       x1="-2.7159264e-16"
       y1="0.012987013"
       x2="0.97714287"
       y2="0.97402596" />
    <radialGradient
       xlink:href="#linearGradient1134"
       id="radialGradient1144" />
    <linearGradient
       xlink:href="#linearGradient584"
       id="linearGradient1145"
       x1="0.012987013"
       y1="-6.3439343e-16"
       x2="0.97402596"
       y2="0.99350649" />
  </defs>
  <sodipodi:namedview
     id="base"
     pagecolor="#ffffff"
     bordercolor="#666666"
     borderopacity="1.0"
     inkscape:pageopacity="0.0"
     inkscape:pageshadow="2"
     inkscape:zoom="5.6423387"
     inkscape:cx="24.153237"
     inkscape:cy="24.614254"
     inkscape:window-width="640"
     inkscape:window-height="516"
     inkscape:window-x="108"
     inkscape:window-y="345" />
  <path
     d="M 4.4389304 48.086315 C 5.2483181 50.50443 38.765774 61.377487 40.966438 59.55288 C 42.936267 57.902492 57.675565 8.7785888 56.688667 6.8303779 C 55.662821 4.6824777 21.657054 -0.6675724 20.042945 0.80153134 C 18.054709 2.621752 3.5888672 45.311841 4.4389304 48.086315 z "
     style="font-size:12;opacity:0.302675;fill-rule:evenodd;stroke-width:12.5;"
     id="path639" />
  <path
     d="M 4.5541516 46.08493 C 5.3114351 48.34726 36.66955 58.519843 38.728432 56.812781 C 40.571358 55.268717 54.36111 9.3095333 53.437795 7.4867937 C 52.478034 5.477268 20.663028 0.47192513 19.152904 1.8463842 C 17.292759 3.5493405 3.7588508 43.489198 4.5541516 46.08493 z "
     style="font-size:12;fill:url(#linearGradient586);fill-rule:evenodd;stroke:#261933;stroke-width:1.87726;"
     id="path634" />
  <path
     d="M 6.6876568 43.965773 C 6.360392 43.13667 19.363758 4.5872629 20.579427 3.7922731 C 22.09876 2.7554118 46.659814 7.3454032 46.98631 8.172561 C 47.28557 8.9306762 27.823671 5.3906629 23.493845 9.2635774 C 15.189619 16.482895 6.9861475 44.721984 6.6876568 43.965773 z "
     style="font-size:12;opacity:0.699936;fill:url(#linearGradient587);fill-rule:evenodd;stroke:none;stroke-width:0.100121pt;"
     id="path640" />
  <path
     transform="matrix(0.812879,5.957801e-2,-5.957801e-2,0.812879,14.62176,2.364672)"
     style="fill:url(#linearGradient1133);fill-rule:evenodd;stroke:#261933;stroke-width:1.5336306;stroke-dasharray:none;stroke-linejoin:round;stroke-linecap:round;"
     d="M 37.440149,29.870650 L 27.208295,36.396893 L 26.783864,48.525476 L 17.415222,40.811125 L 5.7490970,44.155405 L 10.190811,32.861431 L 3.4051812,22.799726 L 15.518954,23.534018 L 22.991328,13.971262 L 26.036337,25.719053 L 37.440149,29.870650 z "
     id="path1146" />
  <path
     style="fill:url(#linearGradient1138);fill-rule:evenodd;stroke:none;stroke-opacity:1;stroke-width:1pt;stroke-linejoin:miter;stroke-linecap:butt;fill-opacity:1;"
     d="M 17.171581,21.868684 L 28.197355,28.568339 L 32.035328,16.607404 L 26.082553,23.108461 L 17.171581,21.868684 z "
     id="path1137"
     sodipodi:nodetypes="ccccc" />
  <path
     style="fill:url(#linearGradient1140);fill-rule:evenodd;stroke:none;stroke-opacity:1;stroke-width:1pt;stroke-linejoin:miter;stroke-linecap:butt;fill-opacity:1;"
     d="M 28.215545,28.623724 L 33.763251,25.273897 L 41.591098,28.904584 L 28.215545,28.623724 z "
     id="path1139"
     sodipodi:nodetypes="cccc" />
  <path
     style="fill:url(#linearGradient1142);fill-rule:evenodd;stroke:none;stroke-opacity:1;stroke-width:1pt;stroke-linejoin:miter;stroke-linecap:butt;fill-opacity:1;"
     d="M 28.229799,28.591280 L 21.617972,29.766170 L 17.779999,37.755420 L 28.229799,28.591280 z "
     id="path1141"
     sodipodi:nodetypes="cccc" />
  <path
     style="fill:url(#linearGradient1145);fill-rule:evenodd;stroke:none;stroke-opacity:1;stroke-width:1pt;stroke-linejoin:miter;stroke-linecap:butt;fill-opacity:1;opacity:0.39690722;"
     d="M 26.473951,35.962981 L 28.218573,28.596798 L 32.898592,41.944544 L 26.473951,35.962981 z "
     id="path1143"
     sodipodi:nodetypes="cccc" />
</svg>
