<?xml version="1.0" encoding="UTF-8" standalone="no"?>
<!DOCTYPE svg PUBLIC "-//W3C//DTD SVG 20010904//EN"
"http://www.w3.org/TR/2001/REC-SVG-20010904/DTD/svg10.dtd">
<!-- Created with Inkscape (http://www.inkscape.org/) -->
<svg
   id="svg1"
   sodipodi:version="0.32"
   inkscape:version="0.37"
   width="48pt"
   height="48pt"
   sodipodi:docbase="/home/stefan/temp2"
   sodipodi:docname="gnome-mime-application-pgp-keys_alt.svg"
   xmlns="http://www.w3.org/2000/svg"
   xmlns:inkscape="http://www.inkscape.org/namespaces/inkscape"
   xmlns:sodipodi="http://sodipodi.sourceforge.net/DTD/sodipodi-0.dtd"
   xmlns:xml="http://www.w3.org/XML/1998/namespace"
   xmlns:xlink="http://www.w3.org/1999/xlink">
  <defs
     id="defs3">
    <linearGradient
       id="linearGradient884">
      <stop
         style="stop-color:#7f7f7f;stop-opacity:1.0000000;"
         offset="0.0000000"
         id="stop885" />
      <stop
         style="stop-color:#e6e6e6;stop-opacity:1.0000000;"
         offset="1.0000000"
         id="stop886" />
    </linearGradient>
    <linearGradient
       xlink:href="#linearGradient584"
       id="linearGradient860"
       x1="-0.00000000"
       y1="-0.00000000"
       x2="0.97972971"
       y2="1.00000000" />
    <linearGradient
       id="linearGradient642">
      <stop
         style="stop-color:#d9cce6;stop-opacity:1;"
         offset="0.00000000"
         id="stop643" />
      <stop
         style="stop-color:#73667f;stop-opacity:1;"
         offset="1.00000000"
         id="stop644" />
    </linearGradient>
    <linearGradient
       id="linearGradient866">
      <stop
         style="stop-color:#ffffff;stop-opacity:1;"
         offset="0.00000000"
         id="stop867" />
      <stop
         style="stop-color:#d9cce6;stop-opacity:1;"
         offset="1.00000000"
         id="stop868" />
    </linearGradient>
    <linearGradient
       id="linearGradient584">
      <stop
         style="stop-color:#ffffff;stop-opacity:1;"
         offset="0.00000000"
         id="stop585" />
      <stop
         style="stop-color:#ffffff;stop-opacity:0;"
         offset="1.00000000"
         id="stop586" />
    </linearGradient>
    <linearGradient
       xlink:href="#linearGradient866"
       id="linearGradient586"
       x1="-0.00000000"
       y1="0.01562500"
       x2="0.99122804"
       y2="0.98437500" />
    <linearGradient
       xlink:href="#linearGradient584"
       id="linearGradient587"
       x1="0.00000000"
       y1="-0.00000000"
       x2="1.00000000"
       y2="1.00000000" />
    <linearGradient
       xlink:href="#linearGradient884"
       id="linearGradient638"
       x1="0.080645159"
       y1="0.046875000"
       x2="0.91935486"
       y2="0.96875000" />
    <radialGradient
       xlink:href="#linearGradient866"
       id="radialGradient639" />
    <linearGradient
       xlink:href="#linearGradient584"
       id="linearGradient640"
       x1="-0.00000000"
       y1="0.00000000"
       x2="1.00000000"
       y2="0.99218750" />
    <linearGradient
       xlink:href="#linearGradient642"
       id="linearGradient641"
       x1="0.00000000"
       y1="0.00000000"
       x2="0.96666664"
       y2="0.98437500" />
    <linearGradient
       xlink:href="#linearGradient584"
       id="linearGradient645"
       x1="0.01492537"
       y1="0.00781250"
       x2="0.97761196"
       y2="0.97656250" />
  </defs>
  <sodipodi:namedview
     id="base"
     pagecolor="#ffffff"
     bordercolor="#666666"
     borderopacity="1.0"
     inkscape:pageopacity="0.0"
     inkscape:pageshadow="2"
     inkscape:zoom="7.97947190"
     inkscape:cx="49.4537274"
     inkscape:cy="24.3731076"
     inkscape:window-width="883"
     inkscape:window-height="606"
     inkscape:window-x="391"
     inkscape:window-y="369"
     showguides="true"
     snaptoguides="true" />
  <path
     d="M 4.4389304 48.086315 C 5.2483181 50.50443 38.765774 61.377487 40.966438 59.55288 C 42.936267 57.902492 57.675565 8.7785888 56.688667 6.8303779 C 55.662821 4.6824777 21.657054 -0.6675724 20.042945 0.80153134 C 18.054709 2.621752 3.5888672 45.311841 4.4389304 48.086315 z "
     style="font-size:12;opacity:0.302675;fill-rule:evenodd;stroke-width:12.5;"
     id="path639" />
  <path
     d="M 4.5541516 46.08493 C 5.3114351 48.34726 36.66955 58.519843 38.728432 56.812781 C 40.571358 55.268717 54.36111 9.3095333 53.437795 7.4867937 C 52.478034 5.477268 20.663028 0.47192513 19.152904 1.8463842 C 17.292759 3.5493405 3.7588508 43.489198 4.5541516 46.08493 z "
     style="font-size:12;fill:url(#linearGradient586);fill-rule:evenodd;stroke:#261933;stroke-width:1.87726;"
     id="path634" />
  <path
     d="M 6.6876568 43.965773 C 6.360392 43.13667 19.363758 4.5872629 20.579427 3.7922731 C 22.09876 2.7554118 46.659814 7.3454032 46.98631 8.172561 C 47.28557 8.9306762 27.823671 5.3906629 23.493845 9.2635774 C 15.189619 16.482895 6.9861475 44.721984 6.6876568 43.965773 z "
     style="font-size:12;opacity:0.699936;fill:url(#linearGradient587);fill-rule:evenodd;stroke:none;stroke-width:0.100121pt;"
     id="path640" />
  <g
     id="g626"
     style="fill:#261933;fill-opacity:1;"
     transform="matrix(1.005217,-4.210047e-2,-3.563547e-3,1.096472,-0.353062,-0.388612)">
    <path
       d="M 17.007036 17.956608 C 26.200556 19.828531 36.291137 22.262589 45.172716 24.8357 C 45.549883 24.944998 45.17088 26.082883 44.783369 26.003928 C 35.60928 24.135963 25.3921 21.574639 16.487909 18.994955 C 16.133354 18.89223 16.63895 17.881616 17.007036 17.956608 z "
       style="font-size:12;fill:#261933;fill-rule:evenodd;stroke-width:1pt;fill-opacity:1;"
       id="path643" />
    <path
       d="M 21.679653 15.230906 C 30.873173 17.10283 37.459271 18.498539 46.340844 21.071651 C 46.718016 21.180948 46.339008 22.318828 45.951503 22.239878 C 36.777408 20.371913 30.064717 18.848937 21.160526 16.269253 C 20.805971 16.166529 21.311573 15.155914 21.679653 15.230906 z "
       style="font-size:12;fill:#261933;fill-rule:evenodd;stroke-width:1pt;fill-opacity:1;"
       id="path644" />
    <path
       d="M 15.579248 21.720657 C 24.772763 23.592581 34.863349 26.026638 43.744928 28.599756 C 44.122095 28.709047 43.743092 29.846933 43.355581 29.767977 C 34.181486 27.900018 23.964312 25.338689 15.060121 22.759005 C 14.705566 22.65628 15.211162 21.645666 15.579248 21.720657 z "
       style="font-size:12;fill:#261933;fill-rule:evenodd;stroke-width:1pt;fill-opacity:1;"
       id="path645" />
    <path
       d="M 12.645102 29.625444 C 21.795715 31.697116 17.373479 30.530047 26.196884 33.295949 C 26.571636 33.413456 26.167893 34.542839 25.782219 34.455382 C 16.650937 32.388153 20.949381 33.42515 12.103463 30.652196 C 11.751224 30.541835 12.278759 29.54243 12.645102 29.625444 z "
       style="font-size:12;fill:#261933;fill-rule:evenodd;stroke-width:1pt;fill-opacity:1;"
       id="path646" />
    <path
       d="M 20.137738 8.3243638 C 23.31927 8.783286 23.882942 8.7358283 26.791289 9.5225477 C 27.17145 9.6210194 26.856902 10.771562 26.466303 10.710199 C 23.434169 10.254272 23.179245 10.123234 19.676014 9.3894807 C 19.195444 9.2664634 19.765594 8.2727897 20.137738 8.3243638 z "
       style="font-size:12;fill:#261933;fill-rule:evenodd;stroke-width:1pt;fill-opacity:1;"
       id="path647" />
    <path
       d="M 14.055594 25.629661 C 23.233169 27.577833 33.303266 30.095477 42.163193 32.742229 C 42.5394 32.854713 42.151019 33.989407 41.764093 33.907264 C 32.605844 31.96315 22.410317 29.317176 13.527866 26.663658 C 13.174182 26.55794 13.688093 25.551577 14.055594 25.629661 z "
       style="font-size:12;fill:#261933;fill-rule:evenodd;stroke-width:1pt;fill-opacity:1;"
       id="path648" />
  </g>
  <rect
     style="fill:#000000;fill-opacity:0.30000001;fill-rule:evenodd;stroke:none;stroke-width:1.0000000pt;stroke-opacity:1.0000000;"
     id="rect937"
     x="28.226574"
     y="39.395287"
     rx="0.70483023"
     width="30.710464"
     height="12.888113" />
  <rect
     style="fill:#d9cce6;fill-opacity:0.80000001;fill-rule:evenodd;stroke:#261933;stroke-width:1.2500000;stroke-dasharray:none;"
     id="rect862"
     x="26.323563"
     y="37.806450"
     rx="0.69999999"
     width="30.500000"
     height="12.750523" />
  <text
     xml:space="preserve"
     style="fill:black;fill-opacity:1;stroke:none;font-family:helvetica;font-style:normal;font-weight:normal;font-size:12px;stroke-opacity:1;stroke-width:1pt;stroke-linejoin:miter;stroke-linecap:butt;"
     x="93.3044196"
     y="32.7041467"
     id="text863"
     transform="matrix(0.945513,0.325565,-0.325565,0.945513,0,0)"><tspan
       id="tspan864"></tspan></text>
  <path
     style="font-size:12.000000;stroke-width:1.0000000pt;font-family:Radio Stars;"
     d="M 54.346659,44.529797 C 54.346659,45.073797 54.078659,45.345797 53.542659,45.345797 L 47.866659,45.345797 L 47.866659,47.121797 C 47.866659,47.377797 47.786659,47.577797 47.626659,47.721797 C 47.474659,47.857797 47.286659,47.925797 47.062659,47.925797 C 46.846659,47.925797 46.658659,47.857797 46.498659,47.721797 C 46.338659,47.577797 46.258659,47.377797 46.258659,47.121797 L 46.258659,41.121797 L 53.542659,41.121797 C 54.078659,41.121797 54.346659,41.393797 54.346659,41.937797 L 54.346659,44.529797 z M 52.738659,43.713797 L 52.738659,42.753797 L 47.866659,42.753797 L 47.866659,43.713797 L 52.738659,43.713797 z M 45.490659,47.121797 C 45.490659,47.665797 45.222659,47.937797 44.686659,47.937797 L 38.206659,47.937797 C 37.662659,47.937797 37.390659,47.665797 37.390659,47.121797 L 37.390659,41.937797 C 37.390659,41.393797 37.662659,41.121797 38.206659,41.121797 L 44.686659,41.121797 C 44.942659,41.121797 45.138659,41.201797 45.274659,41.361797 C 45.418659,41.521797 45.490659,41.713797 45.490659,41.937797 C 45.490659,42.161797 45.418659,42.353797 45.274659,42.513797 C 45.138659,42.673797 44.942659,42.753797 44.686659,42.753797 L 39.010659,42.753797 L 39.010659,46.305797 L 43.870659,46.305797 L 43.870659,45.345797 L 41.434659,45.345797 C 41.178659,45.345797 40.978659,45.265797 40.834659,45.105797 C 40.698659,44.945797 40.630659,44.753797 40.630659,44.529797 C 40.630659,44.305797 40.698659,44.113797 40.834659,43.953797 C 40.978659,43.793797 41.178659,43.713797 41.434659,43.713797 L 45.490659,43.713797 L 45.490659,47.121797 z M 36.934659,44.529797 C 36.934659,45.073797 36.666659,45.345797 36.130659,45.345797 L 30.454659,45.345797 L 30.454659,47.121797 C 30.454659,47.377797 30.374659,47.577797 30.214659,47.721797 C 30.062659,47.857797 29.874659,47.925797 29.650659,47.925797 C 29.434659,47.925797 29.246659,47.857797 29.086659,47.721797 C 28.926659,47.577797 28.846659,47.377797 28.846659,47.121797 L 28.846659,41.121797 L 36.130659,41.121797 C 36.666659,41.121797 36.934659,41.393797 36.934659,41.937797 L 36.934659,44.529797 z M 35.326659,43.713797 L 35.326659,42.753797 L 30.454659,42.753797 L 30.454659,43.713797 L 35.326659,43.713797 z "
     id="path857" />
  <path
     style="font-size:12;fill:url(#linearGradient638);fill-rule:evenodd;stroke:#000000;stroke-width:1.37937;"
     d="M 17.599752 40.597618 C 17.837445 35.83818 23.398056 27.245604 23.491298 24.19927 C 23.59882 22.241058 20.135927 18.253334 21.914094 13.051282 C 23.692261 8.0842073 28.599712 5.5491365 33.937722 7.2951859 C 39.275732 8.9629093 41.825783 14.496409 40.247324 19.237944 C 38.506941 24.552244 33.300018 24.916153 30.37238 25.893726 C 29.121908 26.311273 30.139979 28.184125 29.310206 29.403414 C 28.804409 30.146645 26.647428 30.20254 26.672454 31.006736 C 26.707588 32.13573 27.628873 34.192995 27.55796 35.204086 C 27.519183 35.756985 24.967603 35.68769 24.509044 36.349914 C 24.245803 36.73007 24.908347 39.183287 24.99317 39.773276 C 25.063827 40.264737 23.122896 40.451703 23.259858 41.058842 C 23.514656 42.188333 23.5652 44.224001 22.543468 44.347412 C 21.865672 44.444105 17.438368 43.907426 17.599752 40.597618 z M 31.341288 13.847556 C 32.503143 14.247629 33.75781 13.64935 34.141268 12.535636 C 34.52472 11.42194 33.896635 10.200474 32.734798 9.80042 C 31.572995 9.4003779 30.326002 9.976231 29.942538 11.089906 C 29.559062 12.203617 30.179453 13.447489 31.341288 13.847556 z "
     id="path854"
     sodipodi:nodetypes="cszzsssssssssscssss" />
  <path
     d="M 22.471739 18.052373 C 23.644575 13.702232 24.165565 12.346228 25.809004 11.00054 C 27.452442 9.6548525 30.531632 8.0845043 34.392761 8.3968661 C 29.709063 6.4915687 27.536138 7.5553117 24.591968 10.035282 C 20.575519 14.675937 22.878869 18.438003 22.471739 18.052373 z "
     style="font-size:12.000000;opacity:0.69993597;fill:url(#linearGradient860);fill-rule:evenodd;stroke-width:0.19545500pt;"
     id="path671"
     sodipodi:nodetypes="csccc" />
</svg>
