<?xml version="1.0" encoding="UTF-8" standalone="no"?>
<!DOCTYPE svg PUBLIC "-//W3C//DTD SVG 20010904//EN"
"http://www.w3.org/TR/2001/REC-SVG-20010904/DTD/svg10.dtd">
<!-- Created with Sodipodi ("http://www.sodipodi.com/") -->
<svg
   xmlns="http://www.w3.org/2000/svg"
   xmlns:inkscape="http://www.inkscape.org/namespaces/inkscape"
   xmlns:sodipodi="http://sodipodi.sourceforge.net/DTD/sodipodi-0.dtd"
   xmlns:xlink="http://www.w3.org/1999/xlink"
   version="1.0"
   x="0"
   y="0"
   width="48pt"
   height="48pt"
   id="svg1"
   sodipodi:version="0.34"
   inkscape:version="0.38.1"
   sodipodi:docname="/root/work3"
   sodipodi:docbase="/root">
  <sodipodi:namedview
     id="base"
     inkscape:zoom="4.9440000"
     inkscape:cx="-15.238370"
     inkscape:cy="24.915516"
     inkscape:window-width="1274"
     inkscape:window-height="950"
     inkscape:window-x="0"
     inkscape:window-y="25" />
  <defs
     id="defs3">
    <linearGradient
       id="linearGradient866">
      <stop
         style="stop-color:#ffffff;stop-opacity:1;"
         offset="0.00000000"
         id="stop867" />
      <stop
         style="stop-color:#d9cce6;stop-opacity:1;"
         offset="1.00000000"
         id="stop868" />
    </linearGradient>
    <linearGradient
       xlink:href="#linearGradient866"
       id="linearGradient586"
       x1="-0.00000000"
       y1="0.01562500"
       x2="0.99122804"
       y2="0.98437500" />
    <linearGradient
       id="linearGradient595">
      <stop
         style="stop-color:#7f7f7f;stop-opacity:1;"
         offset="0"
         id="stop596" />
      <stop
         style="stop-color:#e6e6e6;stop-opacity:1;"
         offset="1"
         id="stop597" />
    </linearGradient>
    <linearGradient
       id="linearGradient590">
      <stop
         style="stop-color:#ffffff;stop-opacity:1;"
         offset="0"
         id="stop591" />
      <stop
         style="stop-color:#ffffff;stop-opacity:0;"
         offset="1"
         id="stop592" />
    </linearGradient>
    <linearGradient
       id="linearGradient584">
      <stop
         style="stop-color:#d9cce6;stop-opacity:1;"
         offset="0.00000000"
         id="stop585" />
      <stop
         style="stop-color:#73667f;stop-opacity:1;"
         offset="1.00000000"
         id="stop586" />
    </linearGradient>
    <linearGradient
       x1="0.01204819"
       y1="0.01562500"
       x2="0.98795182"
       y2="1.00000000"
       id="linearGradient587"
       xlink:href="#linearGradient584" />
    <linearGradient
       x1="0.011696"
       y1="0.000001"
       x2="0.842105"
       y2="0.906250"
       id="linearGradient589"
       xlink:href="#linearGradient590" />
    <linearGradient
       x1="0.99218750"
       y1="0.98437500"
       x2="0.01562500"
       y2="0.00781250"
       id="linearGradient594"
       xlink:href="#linearGradient595" />
    <linearGradient
       x1="0.000001"
       y1="0.023434"
       x2="0.952381"
       y2="0.976562"
       id="linearGradient599"
       xlink:href="#linearGradient590" />
    <linearGradient
       id="linearGradient601"
       xlink:href="#linearGradient590"
       x1="0.012048190"
       y1="0.015625000"
       x2="0.98795182"
       y2="1.0000000" />
  </defs>
  <path
     d="M 4.4389304 48.086315 C 5.2483181 50.50443 38.765774 61.377487 40.966438 59.55288 C 42.936267 57.902492 57.675565 8.7785888 56.688667 6.8303779 C 55.662821 4.6824777 21.657054 -0.6675724 20.042945 0.80153134 C 18.054709 2.621752 3.5888672 45.311841 4.4389304 48.086315 z "
     style="font-size:12;opacity:0.302675;fill-rule:evenodd;stroke-width:12.5;"
     id="path639" />
  <path
     d="M 4.5541516 46.08493 C 5.3114351 48.34726 36.66955 58.519843 38.728432 56.812781 C 40.571358 55.268717 54.36111 9.3095333 53.437795 7.4867937 C 52.478034 5.477268 20.663028 0.47192513 19.152904 1.8463842 C 17.292759 3.5493405 3.7588508 43.489198 4.5541516 46.08493 z "
     style="font-size:12;fill:url(#linearGradient586);fill-rule:evenodd;stroke:#261933;stroke-width:1.87726;"
     id="path634" />
  <path
     d="M 6.6876568 43.965773 C 6.360392 43.13667 19.363758 4.5872629 20.579427 3.7922731 C 22.09876 2.7554118 46.659814 7.3454032 46.98631 8.172561 C 47.28557 8.9306762 27.823671 5.3906629 23.493845 9.2635774 C 15.189619 16.482895 6.9861475 44.721984 6.6876568 43.965773 z "
     style="font-size:12;opacity:0.699936;fill:url(#linearGradient601);fill-rule:evenodd;stroke:none;stroke-width:0.100121pt;"
     id="path640" />
  <path
     d="M 13.26923 24.50902 C 10.41621 18.67398 8.032653 9.159146 14.1811 6.323678 C 20.75769 3.291845 26.7487 12.13358 29.04715 17.41318 C 30.16718 19.99005 25.49294 21.57762 24.59271 19.51879 C 23.23404 16.76857 20.81617 9.830162 16.55812 11.84292 C 12.27132 13.7485 16.44221 20.09593 17.67412 22.78918 C 18.48452 24.31224 14.24689 26.59297 13.26923 24.50902 z "
     style="font-size:12;opacity:0.302675;fill-rule:evenodd;stroke-width:12.5;"
     id="path602" />
  <path
     d="M 17.82353 46.89149 C 19.11044 47.23346 42.04543 36.89941 42.37741 35.78767 C 42.69234 34.43806 34.12867 16.88625 32.95407 16.36291 C 31.80515 15.85923 9.146093 26.39959 8.841743 27.63506 C 8.502723 28.71355 16.51625 46.47135 17.82353 46.89149 z "
     style="font-size:12;opacity:0.296369;fill-rule:evenodd;stroke-width:12.5;"
     id="path600" />
  <path
     d="M 11.44792 23.87992 C 8.635593 18.12809 6.286007 8.748949 12.34679 5.953913 C 18.82958 2.965321 24.73517 11.68096 27.00083 16.88528 C 28.10488 19.4254 23.4973 20.99032 22.60992 18.96085 C 21.27061 16.24986 18.88724 9.41039 14.6899 11.39445 C 10.46423 13.27285 14.57564 19.52977 15.78999 22.18461 C 16.58883 23.68595 12.41164 25.93415 11.44792 23.87992 z "
     style="font-size:12;fill:url(#linearGradient594);fill-rule:evenodd;stroke:#333333;stroke-width:1.431163;"
     id="path593" />
  <path
     d="M 16.49103 45.1881 C 17.71011 45.51205 39.43624 35.72269 39.75072 34.66954 C 40.04904 33.39108 31.93676 16.76439 30.82406 16.26864 C 29.7357 15.7915 8.270983 25.7763 7.982653 26.94666 C 7.661513 27.96829 15.25266 44.7901 16.49103 45.1881 z "
     style="font-size:12;fill:url(#linearGradient587);fill-rule:evenodd;stroke:#261933;stroke-width:1.431163;"
     id="path583" />
  <path
     d="M 17.33903 43.59675 C 16.77711 43.28169 9.348263 28.68669 9.888633 27.59346 C 10.62484 26.14969 29.99089 18.00767 30.53241 18.31135 C 31.0277 18.5891 15.59837 24.35592 12.99903 29.33761 C 11.20059 32.78435 17.81396 43.86302 17.33903 43.59675 z "
     style="font-size:12;opacity:0.7;fill:url(#linearGradient589);fill-rule:evenodd;stroke:none;stroke-width:0.110046pt;"
     id="path588" />
  <path
     d="M 10.68302 19.36024 C 9.371893 15.0219 9.460273 11.35434 10.74716 8.614931 C 11.47329 7.069243 14.83543 5.781394 17.14032 6.664397 C 14.7823 6.878008 12.52139 7.954427 11.76627 9.561858 C 10.50839 12.23955 10.25303 15.67692 10.68302 19.36024 z "
     style="font-size:12;opacity:0.7;fill:url(#linearGradient599);fill-rule:evenodd;stroke:none;stroke-width:0.110046pt;"
     id="path598" />
  <path
     d="M 21.76017 25.43979 C 22.91062 25.0103 25.9237 26.11384 26.40999 27.14259 C 26.84473 28.06228 24.31041 30.08167 24.52324 31.28511 C 24.90006 33.4149 27.94752 35.38287 28.17889 37.14203 C 28.25173 37.6951 25.83237 38.65269 25.43589 38.22197 C 24.21083 36.89095 24.48998 33.68263 23.31439 31.85654 C 22.63584 30.80276 20.13119 30.64773 19.87314 29.58245 C 19.61315 28.50879 20.73162 25.82364 21.76017 25.43979 z "
     style="font-size:12;fill:#261933;fill-rule:evenodd;stroke-width:1.28711pt;fill-opacity:1;"
     id="path603" />
  <text
     xml:space="preserve"
     style="fill:black;fill-opacity:1;stroke:none;font-family:helvetica;font-style:normal;font-weight:normal;font-size:12px;stroke-opacity:1;stroke-width:1pt;stroke-linejoin:miter;stroke-linecap:butt;"
     x="134.168124"
     y="55.64887"
     id="text863"
     transform="matrix(0.676148,-0.319613,0.332915,0.704287,0,0)"><tspan
   id="tspan864"></tspan></text>
  <rect
     style="fill:#000000;fill-opacity:0.30000001;fill-rule:evenodd;stroke:none;stroke-width:1.0000000pt;stroke-opacity:1.0000000;"
     id="rect937"
     x="28.226574"
     y="39.395287"
     rx="0.70483023"
     width="30.710464"
     height="12.888113" />
  <rect
     style="fill:#d9cce6;fill-opacity:0.80000001;fill-rule:evenodd;stroke:#261933;stroke-width:1.2500000;stroke-dasharray:none;"
     id="rect862"
     x="26.323563"
     y="37.806450"
     rx="0.69999999"
     width="30.500000"
     height="12.750523" />
  <path
     style="font-size:12.000000;stroke-width:1.0000000pt;font-family:Radio Stars;"
     d="M 54.346659,44.529797 C 54.346659,45.073797 54.078659,45.345797 53.542659,45.345797 L 47.866659,45.345797 L 47.866659,47.121797 C 47.866659,47.377797 47.786659,47.577797 47.626659,47.721797 C 47.474659,47.857797 47.286659,47.925797 47.062659,47.925797 C 46.846659,47.925797 46.658659,47.857797 46.498659,47.721797 C 46.338659,47.577797 46.258659,47.377797 46.258659,47.121797 L 46.258659,41.121797 L 53.542659,41.121797 C 54.078659,41.121797 54.346659,41.393797 54.346659,41.937797 L 54.346659,44.529797 z M 52.738659,43.713797 L 52.738659,42.753797 L 47.866659,42.753797 L 47.866659,43.713797 L 52.738659,43.713797 z M 45.490659,47.121797 C 45.490659,47.665797 45.222659,47.937797 44.686659,47.937797 L 38.206659,47.937797 C 37.662659,47.937797 37.390659,47.665797 37.390659,47.121797 L 37.390659,41.937797 C 37.390659,41.393797 37.662659,41.121797 38.206659,41.121797 L 44.686659,41.121797 C 44.942659,41.121797 45.138659,41.201797 45.274659,41.361797 C 45.418659,41.521797 45.490659,41.713797 45.490659,41.937797 C 45.490659,42.161797 45.418659,42.353797 45.274659,42.513797 C 45.138659,42.673797 44.942659,42.753797 44.686659,42.753797 L 39.010659,42.753797 L 39.010659,46.305797 L 43.870659,46.305797 L 43.870659,45.345797 L 41.434659,45.345797 C 41.178659,45.345797 40.978659,45.265797 40.834659,45.105797 C 40.698659,44.945797 40.630659,44.753797 40.630659,44.529797 C 40.630659,44.305797 40.698659,44.113797 40.834659,43.953797 C 40.978659,43.793797 41.178659,43.713797 41.434659,43.713797 L 45.490659,43.713797 L 45.490659,47.121797 z M 36.934659,44.529797 C 36.934659,45.073797 36.666659,45.345797 36.130659,45.345797 L 30.454659,45.345797 L 30.454659,47.121797 C 30.454659,47.377797 30.374659,47.577797 30.214659,47.721797 C 30.062659,47.857797 29.874659,47.925797 29.650659,47.925797 C 29.434659,47.925797 29.246659,47.857797 29.086659,47.721797 C 28.926659,47.577797 28.846659,47.377797 28.846659,47.121797 L 28.846659,41.121797 L 36.130659,41.121797 C 36.666659,41.121797 36.934659,41.393797 36.934659,41.937797 L 36.934659,44.529797 z M 35.326659,43.713797 L 35.326659,42.753797 L 30.454659,42.753797 L 30.454659,43.713797 L 35.326659,43.713797 z "
     id="path857" />
</svg>
