<?xml version="1.0" encoding="UTF-8" standalone="no"?>
<!DOCTYPE svg PUBLIC "-//W3C//DTD SVG 20010904//EN"
"http://www.w3.org/TR/2001/REC-SVG-20010904/DTD/svg10.dtd">
<!-- Created with Inkscape (http://www.inkscape.org/) -->
<svg
   version="1.0"
   x="0"
   y="0"
   width="48pt"
   height="48pt"
   id="svg1"
   sodipodi:version="0.32"
   inkscape:version="0.38.1"
   sodipodi:docname="gnome-mime-application-x-bzip-compressed-arj.svg"
   sodipodi:docbase="/root/Desktop"
   xmlns="http://www.w3.org/2000/svg"
   xmlns:inkscape="http://www.inkscape.org/namespaces/inkscape"
   xmlns:sodipodi="http://sodipodi.sourceforge.net/DTD/sodipodi-0.dtd"
   xmlns:xml="http://www.w3.org/XML/1998/namespace"
   xmlns:xlink="http://www.w3.org/1999/xlink">
  <sodipodi:namedview
     id="base"
     pagecolor="#ffffff"
     bordercolor="#666666"
     borderopacity="1.0"
     inkscape:pageopacity="0.0"
     inkscape:pageshadow="2"
     inkscape:zoom="5.6400000"
     inkscape:cx="29.853687"
     inkscape:cy="21.920711"
     inkscape:window-width="640"
     inkscape:window-height="503"
     inkscape:window-x="37"
     inkscape:window-y="408"
     showguides="true"
     snaptoguides="true" />
  <defs
     id="defs3">
    <linearGradient
       id="linearGradient570">
      <stop
         style="stop-color:#ffffff;stop-opacity:1;"
         offset="0"
         id="stop571" />
      <stop
         style="stop-color:#ffffff;stop-opacity:0;"
         offset="1"
         id="stop572" />
    </linearGradient>
    <linearGradient
       id="linearGradient563">
      <stop
         style="stop-color:#d9cce6;stop-opacity:1;"
         offset="0.00000000"
         id="stop564" />
      <stop
         style="stop-color:#73667f;stop-opacity:1;"
         offset="1.00000000"
         id="stop565" />
    </linearGradient>
    <linearGradient
       x1="0.01973684"
       y1="0.00000000"
       x2="0.98026317"
       y2="0.96875000"
       id="linearGradient566"
       xlink:href="#linearGradient563" />
    <linearGradient
       x1="0.007275"
       y1="0.062497"
       x2="1.003636"
       y2="0.968750"
       id="linearGradient569"
       xlink:href="#linearGradient570" />
    <linearGradient
       x1="0.017699"
       y1="0.007811"
       x2="0.982301"
       y2="0.992187"
       id="linearGradient573"
       xlink:href="#linearGradient570" />
    <linearGradient
       x1="0.040005"
       y1="0.015624"
       x2="1.000000"
       y2="0.984375"
       id="linearGradient575"
       xlink:href="#linearGradient570" />
    <linearGradient
       id="linearGradient578"
       xlink:href="#linearGradient570" />
  </defs>
  <path
     d="M 4.3319537 47.873335 C 5.5354626 49.08791 32.414949 55.868816 34.128038 55.495694 C 35.62272 55.308702 57.235768 45.549036 58.103536 44.547352 C 59.311466 42.960228 59.076803 14.61038 57.964972 13.3653 C 56.728509 11.783464 29.977412 8.6103101 28.168778 8.6533255 C 26.523477 8.8185403 4.7976325 13.532396 3.9162388 14.751165 C 3.2688576 15.748208 3.1247203 46.794797 4.3319537 47.873335 z "
     style="font-size:12;opacity:0.302675;fill-rule:evenodd;stroke-width:12.5;"
     id="path1168" />
  <path
     d="M 4.010611 45.413592 C 5.1626968 46.576279 30.893688 53.067459 32.533582 52.710287 C 33.964399 52.531272 54.653991 43.188604 55.484682 42.229719 C 56.641001 40.710399 56.416364 13.571863 55.352037 12.37998 C 54.168404 10.865731 28.560298 7.8281654 26.82894 7.8693346 C 25.25394 8.0275058 4.4563917 12.539925 3.6126274 13.706627 C 2.992905 14.661066 2.8549262 44.381133 4.010611 45.413592 z "
     style="font-size:12;fill:url(#linearGradient566);fill-rule:evenodd;stroke:#261933;stroke-width:1.875;stroke-dasharray:none;"
     id="path1164" />
  <path
     d="M 5.0719434 44.352349 C 4.5987439 43.642541 3.9794786 15.751129 4.9392786 14.900626 C 5.5970982 14.332895 29.941467 18.441686 30.410962 19.145973 C 30.825831 19.768334 11.65524 15.004167 7.5926113 18.880586 C 4.3212608 21.995866 5.4831918 44.969189 5.0719434 44.352349 z "
     style="font-size:12;opacity:0.990000;fill:url(#linearGradient573);fill-rule:evenodd;stroke:none;stroke-width:0.105861pt;"
     id="path1165" />
  <path
     d="M 33.197014 50.056975 C 32.832639 49.738123 32.229866 20.05564 32.931619 19.278622 C 33.690219 18.424426 52.862291 14.314057 53.229417 14.635347 C 53.569762 14.933138 36.707895 18.09034 35.05424 21.135954 C 32.494519 25.690205 33.540107 50.357204 33.197014 50.056975 z "
     style="font-size:12;opacity:0.990000;fill:url(#linearGradient575);fill-rule:evenodd;stroke:none;stroke-width:0.105861pt;"
     id="path1166" />
  <path
     d="M 9.3171936 13.44133 C 9.3171936 13.173935 25.266961 9.3573257 27.359729 9.3287384 C 29.067691 9.3036461 46.198125 11.450417 46.198125 11.716647 C 46.198125 11.980994 33.612199 10.628286 27.359729 10.920683 C 21.318556 11.203222 9.3171936 13.70462 9.3171936 13.44133 z "
     style="font-size:12;opacity:0.990000;fill:url(#linearGradient569);fill-rule:evenodd;stroke:none;stroke-width:0.105861pt;"
     id="path1167" />
  <rect
     style="fill:#000000;fill-opacity:0.30000001;fill-rule:evenodd;stroke:none;stroke-width:1.0000000pt;stroke-opacity:1.0000000;"
     id="rect937"
     x="28.640162"
     y="39.164196"
     rx="0.70483023"
     width="30.710464"
     height="12.888113" />
  <rect
     style="fill:#d9cce6;fill-opacity:0.80000001;fill-rule:evenodd;stroke:#261933;stroke-width:1.2500000;stroke-dasharray:none;"
     id="rect862"
     x="26.737149"
     y="37.575356"
     rx="0.69999999"
     width="30.500000"
     height="12.750523" />
  <text
     xml:space="preserve"
     style="fill:black;fill-opacity:1;stroke:none;font-family:helvetica;font-style:normal;font-weight:normal;font-size:12px;stroke-opacity:1;stroke-width:1pt;stroke-linejoin:miter;stroke-linecap:butt;"
     x="32.507458"
     y="45.730038"
     id="text863"><tspan
       id="tspan864"></tspan></text>
  <path
     style="font-size:12.000000;stroke-width:1.0000000pt;font-family:Radio Stars;"
     d="M 54.329688,46.772652 C 54.329688,47.316652 54.061688,47.588652 53.525688,47.588652 L 47.045688,47.588652 C 46.789688,47.588652 46.589688,47.508652 46.445688,47.348652 C 46.301688,47.188652 46.229688,46.996652 46.229688,46.772652 C 46.229688,46.548652 46.301688,46.356652 46.445688,46.196652 C 46.589688,46.036652 46.789688,45.956652 47.045688,45.956652 L 52.721688,45.956652 L 52.721688,41.588652 C 52.721688,41.332652 52.801688,41.136652 52.961688,41.000652 C 53.121688,40.856652 53.309688,40.784652 53.525688,40.784652 C 53.749688,40.784652 53.937688,40.856652 54.089688,41.000652 C 54.249688,41.136652 54.329688,41.332652 54.329688,41.588652 L 54.329688,46.772652 z M 46.169688,44.180652 C 46.169688,44.724652 45.901688,44.996652 45.365688,44.996652 L 43.085688,44.996652 C 43.549688,45.180652 44.409688,45.524652 45.665688,46.028652 C 46.001688,46.164652 46.169688,46.404652 46.169688,46.748652 C 46.169688,46.964652 46.093688,47.160652 45.941688,47.336652 C 45.797688,47.504652 45.617688,47.588652 45.401688,47.588652 C 45.289688,47.588652 45.177688,47.564652 45.065688,47.516652 L 39.689688,45.356652 L 39.689688,46.772652 C 39.689688,47.028652 39.609688,47.228652 39.449688,47.372652 C 39.289688,47.508652 39.101688,47.576652 38.885688,47.576652 C 38.661688,47.576652 38.477688,47.508652 38.333688,47.372652 C 38.165688,47.228652 38.081688,47.028652 38.081688,46.772652 L 38.081688,41.588652 C 38.081688,41.044652 38.349688,40.772652 38.885688,40.772652 L 45.365688,40.772652 C 45.901688,40.772652 46.169688,41.044652 46.169688,41.588652 L 46.169688,44.180652 z M 44.561688,43.364652 L 44.561688,42.404652 L 39.689688,42.404652 L 39.689688,43.364652 L 44.561688,43.364652 z M 34.997688,45.776652 L 31.817688,45.776652 L 30.857688,47.216652 C 30.689688,47.472652 30.465688,47.600652 30.185688,47.600652 C 29.969688,47.600652 29.773688,47.524652 29.597688,47.372652 C 29.429688,47.212652 29.345688,47.020652 29.345688,46.796652 C 29.345688,46.644652 29.393688,46.496652 29.489688,46.352652 L 32.333688,41.756652 C 32.701688,41.164652 33.057688,40.868652 33.401688,40.868652 C 33.641688,40.868652 33.857688,40.960652 34.049688,41.144652 C 34.169688,41.256652 34.321688,41.460652 34.505688,41.756652 L 37.337688,46.352652 C 37.425688,46.496652 37.469688,46.644652 37.469688,46.796652 C 37.469688,47.020652 37.385688,47.208652 37.217688,47.360652 C 37.049688,47.512652 36.853688,47.588652 36.629688,47.588652 C 36.357688,47.588652 36.137688,47.464652 35.969688,47.216652 L 34.997688,45.776652 z M 32.645688,44.348652 L 34.169688,44.348652 L 33.401688,43.124652 L 32.645688,44.348652 z "
     id="path850" />
</svg>
