<?xml version="1.0" encoding="UTF-8" standalone="no"?>
<!DOCTYPE svg PUBLIC "-//W3C//DTD SVG 20010904//EN"
"http://www.w3.org/TR/2001/REC-SVG-20010904/DTD/svg10.dtd">
<!-- Created with Inkscape (http://www.inkscape.org/) -->
<svg
   version="1.0"
   x="0"
   y="0"
   width="48pt"
   height="48pt"
   id="svg1"
   sodipodi:version="0.32"
   inkscape:version="0.38"
   sodipodi:docname="gnome-mime-application-x-rar.svg"
   sodipodi:docbase="/home/dan/Projects/Lila-icons/scalable/mimetypes"
   xmlns="http://www.w3.org/2000/svg"
   xmlns:inkscape="http://www.inkscape.org/namespaces/inkscape"
   xmlns:sodipodi="http://sodipodi.sourceforge.net/DTD/sodipodi-0.dtd"
   xmlns:xml="http://www.w3.org/XML/1998/namespace"
   xmlns:xlink="http://www.w3.org/1999/xlink">
  <sodipodi:namedview
     id="base"
     pagecolor="#ffffff"
     bordercolor="#666666"
     borderopacity="1.0"
     inkscape:pageopacity="0.0"
     inkscape:pageshadow="2"
     inkscape:zoom="5.6399999"
     inkscape:cx="21.698301"
     inkscape:cy="24.227191"
     inkscape:window-width="640"
     inkscape:window-height="503"
     inkscape:window-x="50"
     inkscape:window-y="65"
     showguides="true"
     snaptoguides="true" />
  <defs
     id="defs3">
    <linearGradient
       id="linearGradient570">
      <stop
         style="stop-color:#ffffff;stop-opacity:1;"
         offset="0"
         id="stop571" />
      <stop
         style="stop-color:#ffffff;stop-opacity:0;"
         offset="1"
         id="stop572" />
    </linearGradient>
    <linearGradient
       id="linearGradient563">
      <stop
         style="stop-color:#d9cce6;stop-opacity:1;"
         offset="0.00000000"
         id="stop564" />
      <stop
         style="stop-color:#73667f;stop-opacity:1;"
         offset="1.00000000"
         id="stop565" />
    </linearGradient>
    <linearGradient
       x1="0.01973684"
       y1="0.00000000"
       x2="0.98026317"
       y2="0.96875000"
       id="linearGradient566"
       xlink:href="#linearGradient563" />
    <linearGradient
       x1="0.007275"
       y1="0.062497"
       x2="1.003636"
       y2="0.968750"
       id="linearGradient569"
       xlink:href="#linearGradient570" />
    <linearGradient
       x1="0.017699"
       y1="0.007811"
       x2="0.982301"
       y2="0.992187"
       id="linearGradient573"
       xlink:href="#linearGradient570" />
    <linearGradient
       x1="0.040005"
       y1="0.015624"
       x2="1.000000"
       y2="0.984375"
       id="linearGradient575"
       xlink:href="#linearGradient570" />
    <linearGradient
       id="linearGradient578"
       xlink:href="#linearGradient570" />
  </defs>
  <path
     d="M 4.3319537 47.873335 C 5.5354626 49.08791 32.414949 55.868816 34.128038 55.495694 C 35.62272 55.308702 57.235768 45.549036 58.103536 44.547352 C 59.311466 42.960228 59.076803 14.61038 57.964972 13.3653 C 56.728509 11.783464 29.977412 8.6103101 28.168778 8.6533255 C 26.523477 8.8185403 4.7976325 13.532396 3.9162388 14.751165 C 3.2688576 15.748208 3.1247203 46.794797 4.3319537 47.873335 z "
     style="font-size:12;opacity:0.302675;fill-rule:evenodd;stroke-width:12.5;"
     id="path1168" />
  <path
     d="M 4.010611 45.413592 C 5.1626968 46.576279 30.893688 53.067459 32.533582 52.710287 C 33.964399 52.531272 54.653991 43.188604 55.484682 42.229719 C 56.641001 40.710399 56.416364 13.571863 55.352037 12.37998 C 54.168404 10.865731 28.560298 7.8281654 26.82894 7.8693346 C 25.25394 8.0275058 4.4563917 12.539925 3.6126274 13.706627 C 2.992905 14.661066 2.8549262 44.381133 4.010611 45.413592 z "
     style="font-size:12;fill:url(#linearGradient566);fill-rule:evenodd;stroke:#261933;stroke-width:1.875;stroke-dasharray:none;"
     id="path1164" />
  <path
     d="M 5.0719434 44.352349 C 4.5987439 43.642541 3.9794786 15.751129 4.9392786 14.900626 C 5.5970982 14.332895 29.941467 18.441686 30.410962 19.145973 C 30.825831 19.768334 11.65524 15.004167 7.5926113 18.880586 C 4.3212608 21.995866 5.4831918 44.969189 5.0719434 44.352349 z "
     style="font-size:12;opacity:0.990000;fill:url(#linearGradient573);fill-rule:evenodd;stroke:none;stroke-width:0.105861pt;"
     id="path1165" />
  <path
     d="M 33.197014 50.056975 C 32.832639 49.738123 32.229866 20.05564 32.931619 19.278622 C 33.690219 18.424426 52.862291 14.314057 53.229417 14.635347 C 53.569762 14.933138 36.707895 18.09034 35.05424 21.135954 C 32.494519 25.690205 33.540107 50.357204 33.197014 50.056975 z "
     style="font-size:12;opacity:0.990000;fill:url(#linearGradient575);fill-rule:evenodd;stroke:none;stroke-width:0.105861pt;"
     id="path1166" />
  <path
     d="M 9.3171936 13.44133 C 9.3171936 13.173935 25.266961 9.3573257 27.359729 9.3287384 C 29.067691 9.3036461 46.198125 11.450417 46.198125 11.716647 C 46.198125 11.980994 33.612199 10.628286 27.359729 10.920683 C 21.318556 11.203222 9.3171936 13.70462 9.3171936 13.44133 z "
     style="font-size:12;opacity:0.990000;fill:url(#linearGradient569);fill-rule:evenodd;stroke:none;stroke-width:0.105861pt;"
     id="path1167" />
  <rect
     style="fill:#000000;fill-opacity:0.30000001;fill-rule:evenodd;stroke:none;stroke-width:1.0000000pt;stroke-opacity:1.0000000;"
     id="rect937"
     x="28.640162"
     y="39.164196"
     rx="0.70483023"
     width="30.710464"
     height="12.888113" />
  <rect
     style="fill:#d9cce6;fill-opacity:0.80000001;fill-rule:evenodd;stroke:#261933;stroke-width:1.2500000;stroke-dasharray:none;"
     id="rect862"
     x="26.737149"
     y="37.575356"
     rx="0.69999999"
     width="30.500000"
     height="12.750523" />
  <text
     xml:space="preserve"
     style="fill:black;fill-opacity:1;stroke:none;font-family:helvetica;font-style:normal;font-weight:normal;font-size:12px;stroke-opacity:1;stroke-width:1pt;stroke-linejoin:miter;stroke-linecap:butt;"
     x="32.507458"
     y="45.730038"
     id="text863"><tspan
       id="tspan864"></tspan></text>
  <path
     style="font-size:12.000000;stroke-width:1.0000000pt;font-family:Radio Stars;"
     d="M 55.525257,44.133004 C 55.525257,44.677004 55.257257,44.949004 54.721257,44.949004 L 52.453257,44.949004 C 52.909257,45.133004 53.765257,45.477004 55.021257,45.981004 C 55.365257,46.117004 55.537257,46.357004 55.537257,46.701004 C 55.537257,46.917004 55.461257,47.113004 55.309257,47.289004 C 55.165257,47.457004 54.981257,47.541004 54.757257,47.541004 C 54.645257,47.541004 54.533257,47.517004 54.421257,47.469004 L 49.045257,45.309004 L 49.045257,46.725004 C 49.045257,46.981004 48.965257,47.181004 48.805257,47.325004 C 48.645257,47.461004 48.457257,47.529004 48.241257,47.529004 C 48.025257,47.529004 47.837257,47.461004 47.677257,47.325004 C 47.517257,47.181004 47.437257,46.981004 47.437257,46.725004 L 47.437257,41.541004 C 47.437257,40.997004 47.705257,40.725004 48.241257,40.725004 L 54.721257,40.725004 C 55.257257,40.725004 55.525257,40.997004 55.525257,41.541004 L 55.525257,44.133004 z M 53.917257,43.317004 L 53.917257,42.357004 L 49.045257,42.357004 L 49.045257,43.317004 L 53.917257,43.317004 z M 43.825257,45.729004 L 40.633257,45.729004 L 39.685257,47.169004 C 39.517257,47.425004 39.293257,47.553004 39.013257,47.553004 C 38.789257,47.553004 38.593257,47.477004 38.425257,47.325004 C 38.257257,47.165004 38.173257,46.973004 38.173257,46.749004 C 38.173257,46.597004 38.217257,46.449004 38.305257,46.305004 L 41.149257,41.709004 C 41.517257,41.117004 41.877257,40.821004 42.229257,40.821004 C 42.469257,40.821004 42.685257,40.913004 42.877257,41.097004 C 42.997257,41.209004 43.149257,41.413004 43.333257,41.709004 L 46.165257,46.305004 C 46.253257,46.449004 46.297257,46.597004 46.297257,46.749004 C 46.297257,46.973004 46.209257,47.161004 46.033257,47.313004 C 45.865257,47.465004 45.673257,47.541004 45.457257,47.541004 C 45.177257,47.541004 44.953257,47.417004 44.785257,47.169004 L 43.825257,45.729004 z M 41.461257,44.301004 L 42.985257,44.301004 L 42.229257,43.077004 L 41.461257,44.301004 z M 36.781257,44.133004 C 36.781257,44.677004 36.513257,44.949004 35.977257,44.949004 L 33.709257,44.949004 C 34.165257,45.133004 35.021257,45.477004 36.277257,45.981004 C 36.621257,46.117004 36.793257,46.357004 36.793257,46.701004 C 36.793257,46.917004 36.717257,47.113004 36.565257,47.289004 C 36.421257,47.457004 36.237257,47.541004 36.013257,47.541004 C 35.901257,47.541004 35.789257,47.517004 35.677257,47.469004 L 30.301257,45.309004 L 30.301257,46.725004 C 30.301257,46.981004 30.221257,47.181004 30.061257,47.325004 C 29.901257,47.461004 29.713257,47.529004 29.497257,47.529004 C 29.281257,47.529004 29.093257,47.461004 28.933257,47.325004 C 28.773257,47.181004 28.693257,46.981004 28.693257,46.725004 L 28.693257,41.541004 C 28.693257,40.997004 28.961257,40.725004 29.497257,40.725004 L 35.977257,40.725004 C 36.513257,40.725004 36.781257,40.997004 36.781257,41.541004 L 36.781257,44.133004 z M 35.173257,43.317004 L 35.173257,42.357004 L 30.301257,42.357004 L 30.301257,43.317004 L 35.173257,43.317004 z "
     id="path850" />
</svg>
