<?xml version="1.0" encoding="UTF-8" standalone="no"?>
<!DOCTYPE svg PUBLIC "-//W3C//DTD SVG 20010904//EN"
"http://www.w3.org/TR/2001/REC-SVG-20010904/DTD/svg10.dtd">
<!-- Created with Inkscape (http://www.inkscape.org/) -->
<svg
   id="svg1"
   sodipodi:version="0.32"
   inkscape:version="0.38.1"
   width="48pt"
   height="48pt"
   sodipodi:docbase="/home/dan/svg-icons/lila/gnome/scalable/mimetypes"
   sodipodi:docname="gnome-mime-application-x-bittorrent.svg"
   xmlns="http://www.w3.org/2000/svg"
   xmlns:inkscape="http://www.inkscape.org/namespaces/inkscape"
   xmlns:sodipodi="http://sodipodi.sourceforge.net/DTD/sodipodi-0.dtd"
   xmlns:xml="http://www.w3.org/XML/1998/namespace"
   xmlns:xlink="http://www.w3.org/1999/xlink">
  <defs
     id="defs3">
    <linearGradient
       id="linearGradient642">
      <stop
         style="stop-color:#d9cce6;stop-opacity:1;"
         offset="0.00000000"
         id="stop643" />
      <stop
         style="stop-color:#73667f;stop-opacity:1;"
         offset="1.00000000"
         id="stop644" />
    </linearGradient>
    <linearGradient
       id="linearGradient866">
      <stop
         style="stop-color:#ffffff;stop-opacity:1;"
         offset="0.00000000"
         id="stop867" />
      <stop
         style="stop-color:#d9cce6;stop-opacity:1;"
         offset="1.00000000"
         id="stop868" />
    </linearGradient>
    <linearGradient
       id="linearGradient584">
      <stop
         style="stop-color:#ffffff;stop-opacity:1;"
         offset="0.00000000"
         id="stop585" />
      <stop
         style="stop-color:#ffffff;stop-opacity:0;"
         offset="1.00000000"
         id="stop586" />
    </linearGradient>
    <linearGradient
       xlink:href="#linearGradient866"
       id="linearGradient586"
       x1="-0.00000000"
       y1="0.01562500"
       x2="0.99122804"
       y2="0.98437500" />
    <linearGradient
       xlink:href="#linearGradient584"
       id="linearGradient587"
       x1="0.00000000"
       y1="-0.00000000"
       x2="1.00000000"
       y2="1.00000000" />
    <linearGradient
       xlink:href="#linearGradient866"
       id="linearGradient638"
       x1="0.93859649"
       y1="0.94531250"
       x2="0.35087720"
       y2="0.28125000" />
    <radialGradient
       xlink:href="#linearGradient866"
       id="radialGradient639" />
    <linearGradient
       xlink:href="#linearGradient584"
       id="linearGradient640"
       x1="-0.00000000"
       y1="0.00000000"
       x2="0.98275864"
       y2="1.00000000" />
    <linearGradient
       xlink:href="#linearGradient642"
       id="linearGradient641"
       x1="0.01515152"
       y1="0.02343750"
       x2="0.98484850"
       y2="0.98437500" />
    <linearGradient
       xlink:href="#linearGradient642"
       id="linearGradient645"
       x1="0.01428571"
       y1="0.01562500"
       x2="1.00000000"
       y2="1.00781250" />
  </defs>
  <sodipodi:namedview
     id="base"
     pagecolor="#ffffff"
     bordercolor="#666666"
     borderopacity="1.0"
     inkscape:pageopacity="0.0"
     inkscape:pageshadow="2"
     inkscape:zoom="6.0833335"
     inkscape:cx="24.689598"
     inkscape:cy="23.999999"
     inkscape:window-width="623"
     inkscape:window-height="623"
     inkscape:window-x="92"
     inkscape:window-y="162"
     showguides="true"
     snaptoguides="true"
     showgrid="false"
     snaptogrid="false" />
  <path
     d="M 4.4389304 48.086315 C 5.2483181 50.50443 38.765774 61.377487 40.966438 59.55288 C 42.936267 57.902492 57.675565 8.7785888 56.688667 6.8303779 C 55.662821 4.6824777 21.657054 -0.6675724 20.042945 0.80153134 C 18.054709 2.621752 3.5888672 45.311841 4.4389304 48.086315 z "
     style="font-size:12;opacity:0.302675;fill-rule:evenodd;stroke-width:12.5;"
     id="path639" />
  <path
     d="M 4.5541516 46.08493 C 5.3114351 48.34726 36.66955 58.519843 38.728432 56.812781 C 40.571358 55.268717 54.36111 9.3095333 53.437795 7.4867937 C 52.478034 5.477268 20.663028 0.47192513 19.152904 1.8463842 C 17.292759 3.5493405 3.7588508 43.489198 4.5541516 46.08493 z "
     style="font-size:12;fill:url(#linearGradient586);fill-rule:evenodd;stroke:#261933;stroke-width:1.8750000;stroke-dasharray:none;"
     id="path634" />
  <path
     d="M 6.6876568 43.965773 C 6.360392 43.13667 19.363758 4.5872629 20.579427 3.7922731 C 22.09876 2.7554118 46.659814 7.3454032 46.98631 8.172561 C 47.28557 8.9306762 27.823671 5.3906629 23.493845 9.2635774 C 15.189619 16.482895 6.9861475 44.721984 6.6876568 43.965773 z "
     style="font-size:12;opacity:0.699936;fill:url(#linearGradient587);fill-rule:evenodd;stroke:none;stroke-width:0.100121pt;"
     id="path640" />
  <text
     xml:space="preserve"
     style="fill:black;fill-opacity:1;stroke:none;font-family:helvetica;font-style:normal;font-weight:normal;font-size:12px;stroke-opacity:1;stroke-width:1pt;stroke-linejoin:miter;stroke-linecap:butt;"
     x="1.8428929"
     y="35.148373"
     id="text863"
     transform="matrix(0.962417,0.271574,-0.271574,0.962417,0.000000,0.000000)"><tspan
       id="tspan864"></tspan></text>
  <path
     style="font-size:12.000000;stroke-width:1.0000000pt;font-family:Radio Stars;fill:#261933;fill-opacity:0.40000001;"
     d="M 33.882558,16.535577 C 33.833948,16.728521 33.735676,16.864068 33.587743,16.942217 C 33.447359,17.015857 33.292753,17.031410 33.123928,16.988876 C 32.961131,16.947861 32.832350,16.860913 32.737584,16.728030 C 32.644336,16.589118 32.622018,16.423190 32.670628,16.230246 L 33.285849,13.788298 C 33.079046,13.896502 32.888216,13.928577 32.713361,13.884524 C 32.556594,13.845029 32.439136,13.751315 32.360986,13.603381 C 32.288866,13.456967 32.273313,13.302362 32.314327,13.139565 C 32.361419,12.952651 32.475547,12.805068 32.656712,12.696818 L 33.933915,11.941343 C 34.152823,11.810541 34.352720,11.767925 34.533605,11.813496 C 34.684342,11.851473 34.789742,11.942150 34.849804,12.085525 C 34.915894,12.230420 34.921596,12.411398 34.866910,12.628461 L 33.882558,16.535577 z "
     id="path1008" />
  <path
     style="font-size:12.000000;stroke-width:1.0000000pt;font-family:Radio Stars;fill:#261933;fill-opacity:0.60000002;"
     d="M 35.734636,25.038419 C 35.611132,25.506895 35.315143,25.679381 34.846669,25.555878 L 29.266304,24.084739 C 28.804718,23.963052 28.635677,23.667972 28.759180,23.199496 L 29.936091,18.735204 C 30.059594,18.266730 30.352138,18.093336 30.813724,18.215022 L 36.394089,19.686161 C 36.862564,19.809663 37.035050,20.105652 36.911547,20.574128 L 35.734636,25.038419 z M 34.524799,23.967922 L 35.331200,20.909056 L 31.145928,19.805702 L 30.339526,22.864569 L 34.524799,23.967922 z M 27.521823,22.862243 C 27.463704,23.082701 27.349405,23.236773 27.178927,23.324456 C 27.017153,23.407067 26.839816,23.422946 26.646915,23.372091 C 26.460903,23.323053 26.314441,23.221813 26.207530,23.068370 C 26.102435,22.908037 26.078946,22.717641 26.137066,22.497181 L 26.872635,19.707000 C 26.634329,19.828379 26.415280,19.862734 26.215489,19.810063 C 26.036366,19.762841 25.902963,19.653991 25.815279,19.483513 C 25.734484,19.314849 25.718606,19.137513 25.767644,18.951500 C 25.823948,18.737931 25.956566,18.570268 26.165499,18.448513 L 27.638367,17.598954 C 27.890828,17.451834 28.120399,17.405517 28.327080,17.460004 C 28.499313,17.505409 28.618937,17.610628 28.685953,17.775657 C 28.759858,17.942503 28.764118,18.149934 28.698734,18.397952 L 27.521823,22.862243 z "
     id="path1007" />
  <path
     style="font-size:12.000000;stroke-width:1.0000000pt;font-family:Radio Stars;fill:#261933;fill-opacity:0.80000001;"
     d="M 38.967074,34.993749 C 38.820634,35.522845 38.482866,35.714174 37.953770,35.567735 L 31.651305,33.823387 C 31.129989,33.679102 30.942551,33.342410 31.088990,32.813314 L 32.484468,27.771341 C 32.630908,27.242246 32.964785,27.049841 33.486099,27.194126 L 39.788565,28.938473 C 40.317661,29.084913 40.508991,29.422680 40.362552,29.951776 L 38.967074,34.993749 z M 37.611115,33.764018 L 38.567276,30.309332 L 33.840426,29.001072 L 32.884266,32.455757 L 37.611115,33.764018 z M 29.691672,32.414010 C 29.622760,32.662997 29.491113,32.835982 29.296733,32.932966 C 29.112290,33.024323 28.911135,33.039853 28.693272,32.979555 C 28.483189,32.921409 28.318645,32.804665 28.199638,32.629322 C 28.082784,32.446195 28.058815,32.230139 28.127727,31.981153 L 28.999901,28.829919 C 28.728200,28.964143 28.479528,29.000027 28.253884,28.937576 C 28.051582,28.881585 27.901939,28.756398 27.804955,28.562020 C 27.715751,28.369793 27.700223,28.168639 27.758367,27.958556 C 27.825126,27.717350 27.977717,27.529220 28.216141,27.394165 L 29.896782,26.452007 C 30.184878,26.288815 30.445637,26.239523 30.679063,26.304128 C 30.873584,26.357966 31.007665,26.478844 31.081307,26.666764 C 31.162729,26.856837 31.164677,27.091927 31.087150,27.372037 L 29.691672,32.414010 z M 25.708552,31.324158 C 25.562113,31.853254 25.224345,32.044582 24.695249,31.898143 L 18.392784,30.153796 C 17.871467,30.009510 17.684030,29.672819 17.830468,29.143723 L 19.225946,24.101750 C 19.372387,23.572654 19.706262,23.380250 20.227577,23.524536 L 26.530044,25.268882 C 27.059140,25.415322 27.250468,25.753090 27.104030,26.282186 L 25.708552,31.324158 z M 24.352593,30.094427 L 25.308755,26.639742 L 20.581905,25.331481 L 19.625744,28.786167 L 24.352593,30.094427 z "
     id="path1006" />
  <path
     style="font-size:12.000000;stroke-width:1.0000000pt;font-family:Radio Stars;fill:#261933;fill-opacity:1.0000000;"
     d="M 38.918357,45.501212 C 38.835304,45.793654 38.679032,45.996170 38.449540,46.108762 C 38.231781,46.214809 37.994960,46.231498 37.739073,46.158827 C 37.492326,46.088751 37.299625,45.950082 37.160970,45.742815 C 37.024910,45.526409 36.998406,45.271986 37.081458,44.979544 L 38.132582,41.278333 C 37.811812,41.434134 37.518914,41.474399 37.253889,41.399135 C 37.016280,41.331655 36.841180,41.183169 36.728589,40.953676 C 36.625137,40.726779 36.608449,40.489956 36.678524,40.243209 C 36.758980,39.959906 36.940018,39.739734 37.221638,39.582691 L 39.206685,38.487290 C 39.546975,38.297529 39.854202,38.241581 40.128367,38.319442 C 40.356836,38.384327 40.513658,38.527622 40.598833,38.749327 C 40.693146,38.973629 40.693585,39.250278 40.600153,39.579275 L 38.918357,45.501212 z M 34.230154,44.169790 C 34.147104,44.462232 33.990833,44.664748 33.761340,44.777339 C 33.543581,44.883386 33.306759,44.900075 33.050872,44.827405 C 32.804125,44.757329 32.611423,44.618658 32.472770,44.411392 C 32.336710,44.194987 32.310207,43.940563 32.393258,43.648121 L 33.444381,39.946910 C 33.123610,40.102711 32.830713,40.142977 32.565688,40.067712 C 32.328079,40.000232 32.152980,39.851747 32.040389,39.622252 C 31.936937,39.395357 31.920248,39.158534 31.990323,38.911787 C 32.070779,38.628484 32.251817,38.408312 32.533438,38.251269 L 34.518484,37.155866 C 34.858774,36.966107 35.166003,36.910158 35.440166,36.988019 C 35.668636,37.052903 35.825457,37.196198 35.910633,37.417905 C 36.004946,37.642206 36.005385,37.918855 35.911953,38.247853 L 34.230154,44.169790 z M 29.551769,42.855969 C 29.375285,43.477407 28.976324,43.699883 28.354886,43.523398 L 20.952464,41.421151 C 20.340164,41.247262 20.122258,40.849598 20.298742,40.228160 L 21.980539,34.306222 C 22.157023,33.684785 22.551417,33.461010 23.163715,33.634900 L 30.566138,35.737146 C 31.187575,35.913632 31.410052,36.312593 31.233567,36.934031 L 29.551769,42.855969 z M 27.965892,41.398249 L 29.118234,37.340626 L 23.566418,35.763941 L 22.414075,39.821564 L 27.965892,41.398249 z M 18.657652,39.747287 C 18.574602,40.039728 18.418329,40.242245 18.188835,40.354835 C 17.971078,40.460883 17.734255,40.477571 17.478370,40.404901 C 17.231622,40.334826 17.038921,40.196154 16.900267,39.988889 C 16.764208,39.772482 16.737704,39.518059 16.820756,39.225618 L 17.871879,35.524407 C 17.551108,35.680206 17.258210,35.720473 16.993186,35.645208 C 16.755577,35.577728 16.580478,35.429243 16.467887,35.199750 C 16.364435,34.972853 16.347745,34.736030 16.417819,34.489283 C 16.498276,34.205981 16.679314,33.985807 16.960935,33.828766 L 18.945981,32.733363 C 19.286272,32.543604 19.593499,32.487655 19.867663,32.565516 C 20.096133,32.630399 20.252954,32.773695 20.338129,32.995401 C 20.432443,33.219703 20.432883,33.496353 20.339449,33.825349 L 18.657652,39.747287 z M 13.969452,38.415864 C 13.886400,38.708305 13.730129,38.910822 13.500636,39.023411 C 13.282878,39.129461 13.046055,39.146148 12.790169,39.073478 C 12.543421,39.003404 12.350721,38.864732 12.212066,38.657466 C 12.076007,38.441061 12.049504,38.186637 12.132555,37.894196 L 13.183678,34.192985 C 12.862907,34.348783 12.570011,34.389050 12.304986,34.313784 C 12.067376,34.246306 11.892277,34.097819 11.779687,33.868327 C 11.676234,33.641430 11.659545,33.404607 11.729619,33.157860 C 11.810077,32.874558 11.991114,32.654385 12.272734,32.497343 L 14.257780,31.401940 C 14.598071,31.212181 14.905298,31.156232 15.179461,31.234093 C 15.407932,31.298977 15.564755,31.442272 15.649929,31.663979 C 15.744242,31.888281 15.744682,32.164930 15.651249,32.493926 L 13.969452,38.415864 z "
     id="path1005" />
</svg>
