<?xml version="1.0" encoding="UTF-8" standalone="no"?>
<!DOCTYPE svg PUBLIC "-//W3C//DTD SVG 20010904//EN"
"http://www.w3.org/TR/2001/REC-SVG-20010904/DTD/svg10.dtd">
<!-- Created with Inkscape (http://www.inkscape.org/) -->
<svg
   id="svg1"
   sodipodi:version="0.32"
   inkscape:version="0.38.1"
   width="48pt"
   height="48pt"
   sodipodi:docbase="/home/dan/svg-icons/lila/gnome/scalable/mimetypes"
   sodipodi:docname="gnome-mime-application-pdf.svg"
   xmlns="http://www.w3.org/2000/svg"
   xmlns:inkscape="http://www.inkscape.org/namespaces/inkscape"
   xmlns:sodipodi="http://sodipodi.sourceforge.net/DTD/sodipodi-0.dtd"
   xmlns:xlink="http://www.w3.org/1999/xlink">
  <defs
     id="defs3">
    <linearGradient
       id="linearGradient880">
      <stop
         style="stop-color:#ffa8a8;stop-opacity:1.0000000;"
         offset="0.0000000"
         id="stop881" />
      <stop
         style="stop-color:#d90000;stop-opacity:1.0000000;"
         offset="1.0000000"
         id="stop882" />
    </linearGradient>
    <linearGradient
       id="linearGradient642">
      <stop
         style="stop-color:#d9cce6;stop-opacity:1;"
         offset="0.00000000"
         id="stop643" />
      <stop
         style="stop-color:#73667f;stop-opacity:1;"
         offset="1.00000000"
         id="stop644" />
    </linearGradient>
    <linearGradient
       id="linearGradient866">
      <stop
         style="stop-color:#ffffff;stop-opacity:1;"
         offset="0.00000000"
         id="stop867" />
      <stop
         style="stop-color:#d9cce6;stop-opacity:1;"
         offset="1.00000000"
         id="stop868" />
    </linearGradient>
    <linearGradient
       id="linearGradient584">
      <stop
         style="stop-color:#ffffff;stop-opacity:1;"
         offset="0.00000000"
         id="stop585" />
      <stop
         style="stop-color:#ffffff;stop-opacity:0;"
         offset="1.00000000"
         id="stop586" />
    </linearGradient>
    <linearGradient
       xlink:href="#linearGradient866"
       id="linearGradient586"
       x1="-1.3145951e-17"
       y1="0.015625000"
       x2="0.99122804"
       y2="0.98437500" />
    <linearGradient
       xlink:href="#linearGradient584"
       id="linearGradient587"
       x1="0.00000000"
       y1="-0.00000000"
       x2="1.00000000"
       y2="1.00000000" />
    <linearGradient
       xlink:href="#linearGradient880"
       id="linearGradient638"
       x1="5.1174343e-17"
       y1="0.50000000"
       x2="1.0000000"
       y2="0.50000000" />
    <radialGradient
       xlink:href="#linearGradient866"
       id="radialGradient639" />
    <linearGradient
       xlink:href="#linearGradient584"
       id="linearGradient640"
       x1="-0.00000000"
       y1="0.00000000"
       x2="0.98275864"
       y2="1.00000000" />
    <linearGradient
       xlink:href="#linearGradient642"
       id="linearGradient641"
       x1="0.01515152"
       y1="0.02343750"
       x2="0.98484850"
       y2="0.98437500" />
    <linearGradient
       xlink:href="#linearGradient642"
       id="linearGradient645"
       x1="0.01428571"
       y1="0.01562500"
       x2="1.00000000"
       y2="1.00781250" />
  </defs>
  <sodipodi:namedview
     id="base"
     pagecolor="#ffffff"
     bordercolor="#666666"
     borderopacity="1.0"
     inkscape:pageopacity="0.0"
     inkscape:pageshadow="2"
     inkscape:zoom="6.0520835"
     inkscape:cx="25.613948"
     inkscape:cy="24.003131"
     inkscape:window-width="564"
     inkscape:window-height="569"
     inkscape:window-x="160"
     inkscape:window-y="140"
     showguides="true"
     snaptoguides="true" />
  <path
     d="M 4.4389304 48.086315 C 5.2483181 50.50443 38.765774 61.377487 40.966438 59.55288 C 42.936267 57.902492 57.675565 8.7785888 56.688667 6.8303779 C 55.662821 4.6824777 21.657054 -0.6675724 20.042945 0.80153134 C 18.054709 2.621752 3.5888672 45.311841 4.4389304 48.086315 z "
     style="font-size:12;opacity:0.302675;fill-rule:evenodd;stroke-width:12.5;"
     id="path639" />
  <path
     d="M 4.5541516 46.08493 C 5.3114351 48.34726 36.66955 58.519843 38.728432 56.812781 C 40.571358 55.268717 54.36111 9.3095333 53.437795 7.4867937 C 52.478034 5.477268 20.663028 0.47192513 19.152904 1.8463842 C 17.292759 3.5493405 3.7588508 43.489198 4.5541516 46.08493 z "
     style="font-size:12;fill:url(#linearGradient586);fill-rule:evenodd;stroke:#261933;stroke-width:1.87726;"
     id="path634" />
  <path
     d="M 13.263748,29.839880 C 22.288888,31.837599 33.002359,34.437805 41.556768,36.870938 C 42.151295,37.047524 41.847161,37.977878 41.218729,37.854612 C 32.114782,35.961319 21.602793,33.015984 12.899910,30.669791 C 12.338076,30.511391 12.671609,29.715783 13.263748,29.839880 z "
     style="font-size:12;fill:#261933;fill-rule:evenodd;stroke-width:1pt;fill-opacity:1;"
     id="path1233" />
  <path
     d="M 11.258335,35.744603 C 20.251964,37.879706 30.924541,40.642970 39.440855,43.206258 C 40.032620,43.391889 39.714335,44.317497 39.087856,44.184663 C 30.013836,42.152772 19.547980,39.047493 10.881884,36.568870 C 10.322531,36.401921 10.668156,35.611492 11.258335,35.744603 z "
     style="font-size:12;fill:#261933;fill-rule:evenodd;stroke-width:1pt;fill-opacity:1;"
     id="path862" />
  <path
     d="M 9.2186364 41.618479 C 18.177333 43.895728 28.804842 46.827485 37.279557 49.525267 C 37.868283 49.720187 37.535397 50.640724 36.911107 50.497986 C 27.8704 48.322664 17.455011 45.052193 8.8292194 42.436802 C 8.2726002 42.260935 8.6306044 41.476135 9.2186364 41.618479 z "
     style="font-size:12;fill:#261933;fill-rule:evenodd;stroke-width:1pt;fill-opacity:1;"
     id="path1237" />
  <path
     d="M 10.179926,38.637002 C 19.151043,40.864805 29.794535,43.738063 38.283942,46.389102 C 38.873760,46.580831 38.545940,47.503105 37.920864,47.363813 C 28.868298,45.238386 18.435046,42.025265 9.7949896,39.457339 C 9.2373880,39.284627 9.5911523,38.497807 10.179926,38.637002 z "
     style="font-size:12;fill:#261933;fill-rule:evenodd;stroke-width:1pt;fill-opacity:1;"
     id="path861" />
  <path
     d="M 6.6876568 43.965773 C 6.360392 43.13667 19.363758 4.5872629 20.579427 3.7922731 C 22.09876 2.7554118 46.659814 7.3454032 46.98631 8.172561 C 47.28557 8.9306762 27.823671 5.3906629 23.493845 9.2635774 C 15.189619 16.482895 6.9861475 44.721984 6.6876568 43.965773 z "
     style="font-size:12;opacity:0.699936;fill:url(#linearGradient587);fill-rule:evenodd;stroke:none;stroke-width:0.100121pt;"
     id="path640" />
  <path
     d="M 39.238089,12.203768 C 43.311069,12.703486 44.644589,13.115596 48.950544,14.161475 C 49.248448,14.233767 49.055593,15.266459 48.740973,15.232068 C 44.764507,14.602281 42.990570,14.196791 39.010261,13.199536 C 38.729843,13.131426 38.940767,12.171311 39.238089,12.203768 z "
     style="font-size:12;fill:#261933;fill-rule:evenodd;stroke-width:1pt;fill-opacity:1;"
     id="path1230"
     sodipodi:nodetypes="ccccc" />
  <path
     d="M 34.315026,27.982697 C 38.643379,28.689187 39.700264,29.013886 44.027905,30.168190 C 44.325809,30.240580 43.949587,31.119143 43.634967,31.084743 C 39.414530,30.274291 38.075577,30.026190 33.903832,28.824335 C 33.623414,28.756225 34.017704,27.950240 34.315026,27.982697 z "
     style="font-size:12;fill:#261933;fill-rule:evenodd;stroke-width:1pt;fill-opacity:1;"
     id="path1231"
     sodipodi:nodetypes="ccccc" />
  <path
     d="M 14.315330,27.048189 C 23.370117,28.907002 34.122302,31.342175 42.713110,33.643491 C 43.310290,33.810924 43.020488,34.745835 42.390235,34.632255 C 33.258254,32.879156 22.702223,30.095699 13.964293,27.883693 C 13.400092,27.733951 13.721354,26.933309 14.315330,27.048189 z "
     style="font-size:12;fill:#261933;fill-rule:evenodd;stroke-width:1pt;fill-opacity:1;"
     id="path1232" />
  <rect
     style="fill:#000000;fill-opacity:0.30000001;fill-rule:evenodd;stroke:none;stroke-width:1.0000000pt;stroke-opacity:1.0000000;"
     id="rect937"
     x="28.448114"
     y="39.616829"
     rx="0.70483023"
     width="30.710464"
     height="12.888113" />
  <rect
     style="fill:#d9cce6;fill-opacity:0.80000001;fill-rule:evenodd;stroke:#261933;stroke-width:1.2500000;stroke-dasharray:none;"
     id="rect862"
     x="26.545103"
     y="38.027989"
     rx="0.69999999"
     width="30.500000"
     height="12.750523" />
  <path
     style="font-size:12.000000;stroke-width:1.0000000pt;font-family:Radio Stars;"
     d="M 54.377516,45.145007 L 48.701516,45.145007 L 48.701516,46.921007 C 48.701516,47.177007 48.621516,47.377007 48.461516,47.521007 C 48.301516,47.657007 48.113516,47.725007 47.897516,47.725007 C 47.681516,47.725007 47.493516,47.657007 47.333516,47.521007 C 47.173516,47.377007 47.093516,47.177007 47.093516,46.921007 L 47.093516,41.737007 C 47.093516,41.193007 47.361516,40.921007 47.897516,40.921007 L 54.377516,40.921007 C 54.633516,40.921007 54.833516,41.001007 54.977516,41.161007 C 55.121516,41.321007 55.193516,41.513007 55.193516,41.737007 C 55.193516,41.961007 55.121516,42.153007 54.977516,42.313007 C 54.833516,42.473007 54.633516,42.553007 54.377516,42.553007 L 48.701516,42.553007 L 48.701516,43.513007 L 54.377516,43.513007 C 54.633516,43.513007 54.833516,43.593007 54.977516,43.753007 C 55.121516,43.913007 55.193516,44.105007 55.193516,44.329007 C 55.193516,44.553007 55.121516,44.745007 54.977516,44.905007 C 54.833516,45.065007 54.633516,45.145007 54.377516,45.145007 z M 45.953516,46.921007 C 45.953516,47.465007 45.681516,47.737007 45.137516,47.737007 L 37.853516,47.737007 L 37.853516,40.921007 L 39.473516,40.921007 C 41.409516,40.921007 42.965516,41.445007 44.141516,42.493007 C 45.349516,43.573007 45.953516,45.049007 45.953516,46.921007 z M 44.333516,46.105007 C 44.317516,45.625007 44.149516,45.137007 43.829516,44.641007 C 43.549516,44.217007 43.193516,43.837007 42.761516,43.501007 C 41.921516,42.869007 41.021516,42.553007 40.061516,42.553007 L 39.473516,42.553007 L 39.473516,46.105007 L 44.333516,46.105007 z M 36.857516,44.329007 C 36.857516,44.873007 36.585516,45.145007 36.041516,45.145007 L 30.377516,45.145007 L 30.377516,46.921007 C 30.377516,47.177007 30.297516,47.377007 30.137516,47.521007 C 29.977516,47.657007 29.785516,47.725007 29.561516,47.725007 C 29.345516,47.725007 29.157516,47.657007 28.997516,47.521007 C 28.837516,47.377007 28.757516,47.177007 28.757516,46.921007 L 28.757516,40.921007 L 36.041516,40.921007 C 36.585516,40.921007 36.857516,41.193007 36.857516,41.737007 L 36.857516,44.329007 z M 35.237516,43.513007 L 35.237516,42.553007 L 30.377516,42.553007 L 30.377516,43.513007 L 35.237516,43.513007 z "
     id="path956" />
  <path
     d="M 38.284466,15.106073 C 40.188771,15.295981 41.573926,15.759725 43.556301,16.237618 C 43.854205,16.309910 43.588327,17.269579 43.273707,17.235188 C 41.414281,16.966847 39.691979,16.509722 37.983615,16.028818 C 37.703197,15.960708 37.987144,15.073616 38.284466,15.106073 z "
     style="font-size:12;fill:#261933;fill-rule:evenodd;stroke-width:1pt;fill-opacity:1;"
     id="path863"
     sodipodi:nodetypes="ccccc" />
  <path
     style="font-size:12.000000;stroke-width:1.0000000pt;font-family:helvetica;fill:url(#linearGradient638);"
     d="M 20.640715,21.453190 C 22.706120,21.212226 26.620789,21.429134 28.996003,22.220873 C 30.372940,24.630512 32.422851,27.071701 33.300648,24.679274 C 34.075175,22.390117 33.335072,21.443473 30.099272,20.445194 C 28.515795,17.002853 27.183650,16.007891 25.812934,12.448594 C 27.344984,10.025269 29.865180,5.2988941 25.658651,5.3677409 C 21.361471,5.4365877 23.500346,10.318075 24.257662,12.142516 C 22.440272,15.340575 20.853416,17.711408 19.642851,19.561087 C 17.171831,19.609848 15.399587,20.738651 15.664368,23.643727 C 15.883824,26.548802 19.126441,24.241368 20.640715,21.453190 z M 28.137137,20.032112 C 26.691354,19.825571 23.642484,19.534247 21.577080,19.637517 C 22.160559,18.452784 23.687333,16.357991 24.935759,14.042439 C 25.789708,16.131899 27.138858,18.001131 28.137137,20.032112 z M 25.111195,11.137188 L 23.967758,8.4310097 C 24.621802,7.2610286 26.082101,6.9420935 27.004896,8.0564994 L 25.111195,11.137188 z "
     id="path879"
     sodipodi:nodetypes="ccccczcczccccccccc" />
</svg>
