<?xml version="1.0" encoding="UTF-8" standalone="no"?>
<!DOCTYPE svg PUBLIC "-//W3C//DTD SVG 20010904//EN"
"http://www.w3.org/TR/2001/REC-SVG-20010904/DTD/svg10.dtd">
<!-- Created with Inkscape (http://www.inkscape.org/) -->
<svg
   id="svg1"
   sodipodi:version="0.32"
   inkscape:version="0.38.1"
   width="48pt"
   height="48pt"
   sodipodi:docbase="/root/Desktop/mimes"
   sodipodi:docname="gnome-mime-image-x-cmu-raster.svg"
   xmlns="http://www.w3.org/2000/svg"
   xmlns:inkscape="http://www.inkscape.org/namespaces/inkscape"
   xmlns:sodipodi="http://sodipodi.sourceforge.net/DTD/sodipodi-0.dtd"
   xmlns:xml="http://www.w3.org/XML/1998/namespace"
   xmlns:xlink="http://www.w3.org/1999/xlink">
  <defs
     id="defs3">
    <linearGradient
       id="linearGradient876">
      <stop
         style="stop-color:#ffffff;stop-opacity:1;"
         offset="0.00000000"
         id="stop877" />
      <stop
         style="stop-color:#7f7f7f;stop-opacity:1;"
         offset="1.00000000"
         id="stop878" />
    </linearGradient>
    <linearGradient
       id="linearGradient642">
      <stop
         style="stop-color:#d9cce6;stop-opacity:1;"
         offset="0.00000000"
         id="stop643" />
      <stop
         style="stop-color:#73667f;stop-opacity:1;"
         offset="1.00000000"
         id="stop644" />
    </linearGradient>
    <linearGradient
       id="linearGradient866">
      <stop
         style="stop-color:#ffffff;stop-opacity:1;"
         offset="0.00000000"
         id="stop867" />
      <stop
         style="stop-color:#d9cce6;stop-opacity:1;"
         offset="1.00000000"
         id="stop868" />
    </linearGradient>
    <linearGradient
       id="linearGradient584">
      <stop
         style="stop-color:#ffffff;stop-opacity:1;"
         offset="0.00000000"
         id="stop585" />
      <stop
         style="stop-color:#ffffff;stop-opacity:0;"
         offset="1.00000000"
         id="stop586" />
    </linearGradient>
    <linearGradient
       xlink:href="#linearGradient866"
       id="linearGradient586"
       x1="-0.00000000"
       y1="0.01562500"
       x2="0.99122804"
       y2="0.98437500" />
    <linearGradient
       xlink:href="#linearGradient584"
       id="linearGradient587"
       x1="0.00000000"
       y1="-0.00000000"
       x2="1.00000000"
       y2="1.00000000" />
    <linearGradient
       xlink:href="#linearGradient642"
       id="linearGradient638"
       x1="0.41228071"
       y1="0.37500000"
       x2="0.58771932"
       y2="0.54687500" />
    <radialGradient
       xlink:href="#linearGradient866"
       id="radialGradient639" />
    <linearGradient
       xlink:href="#linearGradient584"
       id="linearGradient640"
       x1="-0.00000000"
       y1="-0.00000000"
       x2="0.99358976"
       y2="0.99218750" />
    <linearGradient
       xlink:href="#linearGradient876"
       id="linearGradient641"
       x1="0.01515152"
       y1="0.02343750"
       x2="0.98484850"
       y2="0.98437500" />
    <linearGradient
       xlink:href="#linearGradient584"
       id="linearGradient645"
       x1="0.00000000"
       y1="-0.00000000"
       x2="0.99494952"
       y2="1.01562500" />
    <linearGradient
       xlink:href="#linearGradient584"
       id="linearGradient875"
       x1="0.00000000"
       y1="-0.00000000"
       x2="0.99166667"
       y2="0.98437500" />
  </defs>
  <sodipodi:namedview
     id="base"
     pagecolor="#ffffff"
     bordercolor="#666666"
     borderopacity="1.0"
     inkscape:pageopacity="0.0"
     inkscape:pageshadow="2"
     inkscape:zoom="7.9794719"
     inkscape:cx="34.172103"
     inkscape:cy="18.475344"
     inkscape:window-width="639"
     inkscape:window-height="515"
     inkscape:window-x="169"
     inkscape:window-y="102" />
  <path
     d="M 4.4389304 48.086315 C 5.2483181 50.50443 38.765774 61.377487 40.966438 59.55288 C 42.936267 57.902492 57.675565 8.7785888 56.688667 6.8303779 C 55.662821 4.6824777 21.657054 -0.6675724 20.042945 0.80153134 C 18.054709 2.621752 3.5888672 45.311841 4.4389304 48.086315 z "
     style="font-size:12;opacity:0.302675;fill-rule:evenodd;stroke-width:12.5;"
     id="path639" />
  <path
     d="M 4.5541516 46.08493 C 5.3114351 48.34726 36.66955 58.519843 38.728432 56.812781 C 40.571358 55.268717 54.36111 9.3095333 53.437795 7.4867937 C 52.478034 5.477268 20.663028 0.47192513 19.152904 1.8463842 C 17.292759 3.5493405 3.7588508 43.489198 4.5541516 46.08493 z "
     style="font-size:12;fill:url(#linearGradient586);fill-rule:evenodd;stroke:#261933;stroke-width:1.87726;"
     id="path634" />
  <path
     d="M 6.6876568 43.965773 C 6.360392 43.13667 19.363758 4.5872629 20.579427 3.7922731 C 22.09876 2.7554118 46.659814 7.3454032 46.98631 8.172561 C 47.28557 8.9306762 27.823671 5.3906629 23.493845 9.2635774 C 15.189619 16.482895 6.9861475 44.721984 6.6876568 43.965773 z "
     style="font-size:12;opacity:0.699936;fill:url(#linearGradient587);fill-rule:evenodd;stroke:none;stroke-width:0.100121pt;"
     id="path640" />
  <g
     transform="matrix(6.197960e-2,0.000000,0.000000,6.197960e-2,8.856374,7.896787)"
     style="font-size:12;opacity:0.302675;"
     id="g1288">
    <path
       d="M 193.828 467.434 C 178.941 468.948 161.154 486.272 148.606 498.444 C 130.468 516.075 92.7478 564.2 104.676 592.765 C 111.698 552.141 185.106 555.496 205.456 535.914 C 216.415 526.066 227.005 503.459 224.837 490.691 C 223.129 480.633 204.352 466.364 193.828 467.434 z "
       style="fill-rule:evenodd;stroke-width:0.961965pt;"
       id="path1282" />
    <path
       d="M 229.409 417.471 C 221.482 419.905 190.897 456.406 190.623 463.082 C 190.082 475.91 220.297 500.47 232.768 498.042 C 237.828 496.761 268.98 456.842 269.182 451.097 C 269.654 438.55 241.337 414.372 229.409 417.471 z "
       style="fill-rule:evenodd;stroke-width:11.3244;"
       id="path1283" />
    <path
       d="M 221.358 423.625 C 228.067 386.292 264.417 333.237 298.019 298.291 C 375.96 217.232 538.735 66.7744 555.987 75.6109 C 571.994 83.8099 456.882 263.285 391.15 343.699 C 355.597 386.031 313.676 435.685 270.031 454.046 C 254.863 460.427 218.737 438.21 221.358 423.625 z "
       style="fill-rule:evenodd;stroke-width:11.3244;"
       id="path1284" />
  </g>
  <path
     d="M 19.48725 36.093999 C 18.564561 36.187852 17.462114 37.261603 16.684421 38.016001 C 15.560194 39.108801 13.222349 42.091508 13.961639 43.861965 C 14.396887 41.344146 18.946645 41.552059 20.207916 40.338407 C 20.887148 39.728036 21.54357 38.326861 21.409191 37.535455 C 21.303327 36.912097 20.139545 36.027691 19.48725 36.093999 z "
     style="font-size:12;fill-rule:evenodd;stroke:#000000;stroke-width:0.721836;"
     id="path1047" />
  <path
     d="M 21.692568 32.997358 C 21.201223 33.148177 19.305552 35.410521 19.288626 35.824272 C 19.255077 36.619378 21.127756 38.141582 21.900717 37.991066 C 22.214367 37.911713 24.145106 35.437518 24.157664 35.081462 C 24.186905 34.303827 22.4318 32.805284 21.692568 32.997358 z "
     style="font-size:12;fill:url(#linearGradient641);fill-rule:evenodd;stroke:#333333;stroke-width:1.14511;"
     id="path1046" />
  <path
     d="M 21.193518 33.378773 C 21.609333 31.064861 23.862334 27.77657 25.944923 25.610626 C 30.775679 20.586644 40.864411 11.261349 41.933671 11.809029 C 42.925769 12.317203 35.791229 23.44098 31.717176 28.424983 C 29.513616 31.048723 26.915357 34.126255 24.210262 35.264253 C 23.270161 35.659744 21.031112 34.282717 21.193518 33.378773 z "
     style="font-size:12;fill:url(#linearGradient638);fill-rule:evenodd;stroke:#261933;stroke-width:1.15;stroke-dasharray:none;"
     id="path1045" />
  <path
     d="M 22.125612 33.289471 C 21.203651 34.514161 24.20098 29.115984 27.286945 25.630585 C 31.325751 21.177847 41.502633 12.467555 40.689875 13.393132 C 39.408033 14.758152 24.961626 29.328198 22.125612 33.289471 z "
     style="font-size:12;opacity:0.7;fill:url(#linearGradient875);fill-rule:evenodd;stroke:none;stroke-width:1.02162pt;"
     id="path1051" />
  <path
     d="M 19.961123 35.953373 C 19.961123 35.825851 20.648665 34.716124 21.043367 34.621421 C 21.342396 34.549591 22.042376 35.329106 22.042376 35.453899 C 22.042376 35.551088 21.351011 35.213534 21.043367 35.287367 C 20.65728 35.380005 19.961123 36.047832 19.961123 35.953373 z "
     style="font-size:12;opacity:0.699936;fill:url(#linearGradient645);fill-rule:evenodd;stroke:none;stroke-width:1.02162pt;"
     id="path1265" />
  <path
     d="M 14.300237 42.113716 C 14.354516 41.440367 16.553015 37.994404 18.878938 37.035617 C 19.398737 36.832685 20.428019 38.172098 20.460657 38.367568 C 20.48359 38.50504 19.43259 37.799054 19.045411 38.034565 C 17.379061 39.047831 14.307177 42.274845 14.300237 42.113716 z "
     style="font-size:12;opacity:0.7;fill:url(#linearGradient640);fill-rule:evenodd;stroke:none;stroke-width:1.02162pt;"
     id="path1266" />
  <rect
     style="fill:#000000;fill-opacity:0.30000001;fill-rule:evenodd;stroke:none;stroke-width:1.0000000pt;stroke-opacity:1.0000000;"
     id="rect937"
     x="28.716310"
     y="39.492133"
     rx="0.70483023"
     width="30.710464"
     height="12.888113" />
  <rect
     style="fill:#d9cce6;fill-opacity:0.80000001;fill-rule:evenodd;stroke:#261933;stroke-width:1.2500000;stroke-dasharray:none;"
     id="rect862"
     x="26.813300"
     y="37.903293"
     rx="0.69999999"
     width="30.500000"
     height="12.750523" />
  <text
     xml:space="preserve"
     style="fill:black;fill-opacity:1;stroke:none;font-family:helvetica;font-style:normal;font-weight:normal;font-size:12px;stroke-opacity:1;stroke-width:1pt;stroke-linejoin:miter;stroke-linecap:butt;"
     x="32.583610"
     y="46.057975"
     id="text863"><tspan
       id="tspan864"></tspan></text>
  <path
     style="font-size:12.000000;stroke-width:1.0000000pt;font-family:Radio Stars;"
     d="M 54.654577,46.777797 C 54.654577,47.321797 54.386577,47.593797 53.850577,47.593797 L 47.370577,47.593797 C 47.114577,47.593797 46.914577,47.513797 46.770577,47.353797 C 46.626577,47.193797 46.554577,47.001797 46.554577,46.777797 C 46.554577,46.553797 46.626577,46.361797 46.770577,46.201797 C 46.914577,46.041797 47.114577,45.961797 47.370577,45.961797 L 53.046577,45.961797 L 53.046577,45.001797 L 47.370577,45.001797 C 46.834577,45.001797 46.566577,44.729797 46.566577,44.185797 L 46.566577,41.593797 C 46.566577,41.049797 46.834577,40.777797 47.370577,40.777797 L 53.850577,40.777797 C 54.106577,40.777797 54.306577,40.857797 54.450577,41.017797 C 54.594577,41.177797 54.666577,41.369797 54.666577,41.593797 C 54.666577,41.817797 54.594577,42.009797 54.450577,42.169797 C 54.306577,42.329797 54.106577,42.409797 53.850577,42.409797 L 48.174577,42.409797 L 48.174577,43.369797 L 53.850577,43.369797 C 54.386577,43.369797 54.654577,43.641797 54.654577,44.185797 L 54.654577,46.777797 z M 43.482577,45.781797 L 40.302577,45.781797 L 39.342577,47.221797 C 39.174577,47.477797 38.950577,47.605797 38.670577,47.605797 C 38.454577,47.605797 38.258577,47.529797 38.082577,47.377797 C 37.914577,47.217797 37.830577,47.025797 37.830577,46.801797 C 37.830577,46.649797 37.878577,46.501797 37.974577,46.357797 L 40.818577,41.761797 C 41.186577,41.169797 41.542577,40.873797 41.886577,40.873797 C 42.126577,40.873797 42.342577,40.965797 42.534577,41.149797 C 42.654577,41.261797 42.806577,41.465797 42.990577,41.761797 L 45.822577,46.357797 C 45.910577,46.501797 45.954577,46.649797 45.954577,46.801797 C 45.954577,47.025797 45.870577,47.213797 45.702577,47.365797 C 45.534577,47.517797 45.338577,47.593797 45.114577,47.593797 C 44.842577,47.593797 44.622577,47.469797 44.454577,47.221797 L 43.482577,45.781797 z M 41.130577,44.353797 L 42.654577,44.353797 L 41.886577,43.129797 L 41.130577,44.353797 z M 37.002577,44.185797 C 37.002577,44.729797 36.734577,45.001797 36.198577,45.001797 L 33.918577,45.001797 C 34.382577,45.185797 35.242577,45.529797 36.498577,46.033797 C 36.834577,46.169797 37.002577,46.409797 37.002577,46.753797 C 37.002577,46.969797 36.926577,47.165797 36.774577,47.341797 C 36.630577,47.509797 36.450577,47.593797 36.234577,47.593797 C 36.122577,47.593797 36.010577,47.569797 35.898577,47.521797 L 30.522577,45.361797 L 30.522577,46.777797 C 30.522577,47.033797 30.442577,47.233797 30.282577,47.377797 C 30.122577,47.513797 29.934577,47.581797 29.718577,47.581797 C 29.494577,47.581797 29.310577,47.513797 29.166577,47.377797 C 28.998577,47.233797 28.914577,47.033797 28.914577,46.777797 L 28.914577,41.593797 C 28.914577,41.049797 29.182577,40.777797 29.718577,40.777797 L 36.198577,40.777797 C 36.734577,40.777797 37.002577,41.049797 37.002577,41.593797 L 37.002577,44.185797 z M 35.394577,43.369797 L 35.394577,42.409797 L 30.522577,42.409797 L 30.522577,43.369797 L 35.394577,43.369797 z "
     id="path867" />
</svg>
