<?xml version="1.0" encoding="UTF-8" standalone="no"?>
<!DOCTYPE svg PUBLIC "-//W3C//DTD SVG 20010904//EN"
"http://www.w3.org/TR/2001/REC-SVG-20010904/DTD/svg10.dtd">
<!-- Created with Inkscape (http://www.inkscape.org/) -->
<svg
   id="svg1"
   sodipodi:version="0.32"
   inkscape:version="0.38.1"
   width="48pt"
   height="48pt"
   sodipodi:docbase="/root/Desktop/mimes"
   sodipodi:docname="gnome-mime-application-x-gnucash.svg"
   xmlns="http://www.w3.org/2000/svg"
   xmlns:inkscape="http://www.inkscape.org/namespaces/inkscape"
   xmlns:sodipodi="http://sodipodi.sourceforge.net/DTD/sodipodi-0.dtd"
   xmlns:xml="http://www.w3.org/XML/1998/namespace"
   xmlns:xlink="http://www.w3.org/1999/xlink">
  <defs
     id="defs3">
    <linearGradient
       id="linearGradient1305">
      <stop
         offset="0.0000000"
         style="stop-color:#ffffff;stop-opacity:1.0000000;"
         id="stop1307" />
      <stop
         offset="1.0000000"
         style="stop-color:#d9cce6;stop-opacity:1.0000000;"
         id="stop1306" />
    </linearGradient>
    <linearGradient
       id="linearGradient635"
       x1="0.0000000"
       y1="0.50000000"
       x2="1.0000000"
       y2="0.50000000"
       gradientUnits="objectBoundingBox"
       spreadMethod="pad"
       xlink:href="#linearGradient1305" />
    <linearGradient
       id="linearGradient703">
      <stop
         style="stop-color:#d9cce6;stop-opacity:1;"
         offset="0.00000000"
         id="stop704" />
      <stop
         style="stop-color:#73667f;stop-opacity:1;"
         offset="1.00000000"
         id="stop705" />
    </linearGradient>
    <linearGradient
       id="linearGradient866">
      <stop
         style="stop-color:#ffffff;stop-opacity:1;"
         offset="0.00000000"
         id="stop867" />
      <stop
         style="stop-color:#d9cce6;stop-opacity:1;"
         offset="1.00000000"
         id="stop868" />
    </linearGradient>
    <linearGradient
       id="linearGradient584">
      <stop
         style="stop-color:#ffffff;stop-opacity:1;"
         offset="0.00000000"
         id="stop585" />
      <stop
         style="stop-color:#ffffff;stop-opacity:0;"
         offset="1.00000000"
         id="stop586" />
    </linearGradient>
    <linearGradient
       xlink:href="#linearGradient866"
       id="linearGradient586"
       x1="-0.00000000"
       y1="0.01562500"
       x2="0.99122804"
       y2="0.98437500" />
    <linearGradient
       xlink:href="#linearGradient584"
       id="linearGradient587"
       x1="0.00000000"
       y1="-0.00000000"
       x2="1.00000000"
       y2="1.00000000" />
    <linearGradient
       xlink:href="#linearGradient584"
       id="linearGradient700"
       x1="0.00000000"
       y1="-0.00000000"
       x2="0.98795182"
       y2="1.00000000" />
    <linearGradient
       xlink:href="#linearGradient703"
       id="linearGradient701"
       x1="-0.00000000"
       y1="-0.00000000"
       x2="0.99264705"
       y2="0.99218750" />
    <linearGradient
       xlink:href="#linearGradient703"
       id="linearGradient702"
       x1="-0.00000000"
       y1="0.00000000"
       x2="0.97457629"
       y2="0.96093750" />
    <linearGradient
       xlink:href="#linearGradient584"
       id="linearGradient845"
       x1="-0.00000000"
       y1="-0.00000000"
       x2="0.99635035"
       y2="0.97727275" />
    <radialGradient
       xlink:href="#linearGradient703"
       id="radialGradient846" />
    <linearGradient
       xlink:href="#linearGradient584"
       id="linearGradient847"
       x1="0.00000000"
       y1="-0.00000000"
       x2="0.98540145"
       y2="0.93902439" />
    <linearGradient
       xlink:href="#linearGradient703"
       id="linearGradient848"
       x1="0.01219511"
       y1="0.01562503"
       x2="0.99999994"
       y2="1.00000012" />
    <linearGradient
       xlink:href="#linearGradient584"
       id="linearGradient849"
       x1="0.00000000"
       y1="-0.00000000"
       x2="0.98514849"
       y2="1.02343750" />
    <linearGradient
       xlink:href="#linearGradient703"
       id="linearGradient850"
       x1="-0.00000000"
       y1="0.00000000"
       x2="1.00000000"
       y2="0.95652175" />
    <linearGradient
       xlink:href="#linearGradient584"
       id="linearGradient863"
       x1="-0.00000000"
       y1="-0.00000000"
       x2="0.99635035"
       y2="0.82142860" />
    <linearGradient
       id="linearGradient1522"
       xlink:href="#linearGradient866"
       x1="1.0342205e-15"
       y1="0.50000000"
       x2="1.0000000"
       y2="0.50000000" />
    <linearGradient
       id="linearGradient1534"
       xlink:href="#linearGradient866"
       x1="-1.9374693e-16"
       y1="0.50000000"
       x2="1.0000000"
       y2="0.50000000" />
    <linearGradient
       id="linearGradient1532"
       xlink:href="#linearGradient866"
       x1="-8.4155773e-16"
       y1="0.50000000"
       x2="1.0000000"
       y2="0.50000000" />
    <linearGradient
       id="linearGradient1527"
       xlink:href="#linearGradient866"
       x1="-2.3496829e-15"
       y1="0.50000000"
       x2="1.0000000"
       y2="0.50000000" />
    <linearGradient
       id="linearGradient1539"
       xlink:href="#linearGradient866"
       x1="9.4542429e-16"
       y1="0.50000000"
       x2="1.0000000"
       y2="0.50000000" />
    <linearGradient
       xlink:href="#linearGradient866"
       id="linearGradient896"
       x1="-2.9446931e-16"
       y1="0.50000000"
       x2="1.0000000"
       y2="0.50000000" />
    <linearGradient
       id="linearGradient1567"
       xlink:href="#linearGradient866"
       x1="-4.7835000e-16"
       y1="0.50000000"
       x2="1.0000000"
       y2="0.50000000" />
  </defs>
  <sodipodi:namedview
     id="base"
     pagecolor="#ffffff"
     bordercolor="#666666"
     borderopacity="1.0"
     inkscape:pageopacity="0.0"
     inkscape:pageshadow="2"
     inkscape:zoom="7.9794719"
     inkscape:cx="30.464007"
     inkscape:cy="21.642422"
     inkscape:window-width="640"
     inkscape:window-height="516"
     inkscape:window-x="223"
     inkscape:window-y="339" />
  <path
     d="M 4.4389304 48.086315 C 5.2483181 50.50443 38.765774 61.377487 40.966438 59.55288 C 42.936267 57.902492 57.675565 8.7785888 56.688667 6.8303779 C 55.662821 4.6824777 21.657054 -0.6675724 20.042945 0.80153134 C 18.054709 2.621752 3.5888672 45.311841 4.4389304 48.086315 z "
     style="font-size:12;opacity:0.302675;fill-rule:evenodd;stroke-width:12.5;"
     id="path639" />
  <path
     d="M 4.5541516 46.08493 C 5.3114351 48.34726 36.66955 58.519843 38.728432 56.812781 C 40.571358 55.268717 54.36111 9.3095333 53.437795 7.4867937 C 52.478034 5.477268 20.663028 0.47192513 19.152904 1.8463842 C 17.292759 3.5493405 3.7588508 43.489198 4.5541516 46.08493 z "
     style="font-size:12;fill:url(#linearGradient586);fill-rule:evenodd;stroke:#261933;stroke-width:1.87726;"
     id="path634" />
  <path
     d="M 6.6876568 43.965773 C 6.360392 43.13667 19.363758 4.5872629 20.579427 3.7922731 C 22.09876 2.7554118 46.659814 7.3454032 46.98631 8.172561 C 47.28557 8.9306762 27.823671 5.3906629 23.493845 9.2635774 C 15.189619 16.482895 6.9861475 44.721984 6.6876568 43.965773 z "
     style="font-size:12;opacity:0.699936;fill:url(#linearGradient587);fill-rule:evenodd;stroke:none;stroke-width:0.100121pt;"
     id="path640" />
  <text
     xml:space="preserve"
     style="fill:black;fill-opacity:1;stroke:none;font-family:helvetica;font-style:normal;font-weight:normal;font-size:12px;stroke-opacity:1;stroke-width:1pt;stroke-linejoin:miter;stroke-linecap:butt;"
     x="89.609169"
     y="26.134503"
     id="text863"
     transform="matrix(0.882949,0.469471,-0.469471,0.882949,0.000000,0.000000)"><tspan
       id="tspan864"></tspan></text>
  <path
     style="fill-opacity:0.29999998;stroke-width:0.62500000;"
     d="M 38.883594,14.834066 C 38.761934,14.808209 38.657510,15.003589 38.649225,15.340897 C 38.632584,16.015489 37.506503,18.455836 37.101520,19.110337 C 36.696473,19.764793 35.486636,20.859212 35.128540,21.103725 C 34.770505,21.348279 34.769510,21.233386 34.477096,21.140044 C 34.184617,21.046660 33.944183,20.861424 33.392072,20.505723 C 32.840025,20.150065 32.154712,19.718812 31.410736,19.509631 C 30.666768,19.300443 30.804515,19.254162 30.722700,19.086390 C 30.640879,18.918628 30.768352,18.487985 30.862257,17.668079 C 30.956094,16.848144 31.858940,14.719283 31.852295,13.659528 C 31.845644,12.599769 31.793685,12.811208 31.051801,13.348706 C 30.309918,13.886209 28.508594,17.149152 28.180876,17.658339 C 27.853142,18.167556 27.866631,18.371657 27.096893,18.210934 C 26.327192,18.050136 26.818546,18.365419 25.864232,17.325896 C 25.387063,16.806131 24.604496,16.268968 24.010567,15.957587 C 23.416684,15.646143 23.111438,15.661689 22.356882,15.633219 C 20.847722,15.576354 21.093121,15.608786 19.020226,16.327483 C 18.177791,16.625123 18.146305,16.494755 18.607009,17.236730 C 19.067670,17.978776 20.001808,19.222126 20.801885,19.647534 C 21.601954,20.072939 22.440037,20.466972 23.900986,20.357745 C 25.361903,20.248595 24.952771,20.202675 24.804984,21.431591 C 24.657202,22.660507 23.601931,26.287275 22.220295,29.529042 C 20.838729,32.770845 21.030244,35.302657 21.481436,36.598775 C 21.932559,37.894856 22.081282,39.525531 22.375874,40.365553 C 22.670363,41.205608 24.504065,41.310072 25.491477,41.275888 C 26.478854,41.241782 26.547964,41.387664 27.502617,41.522429 C 28.457156,41.657230 28.331236,42.029395 29.211059,41.875915 C 30.090884,41.722434 29.920112,41.946076 30.318071,41.412104 C 30.716036,40.878138 31.105192,40.905790 31.711637,39.550741 C 32.318128,38.195619 32.781997,37.008965 33.273796,35.655048 C 33.765669,34.301164 34.959724,31.278728 35.334376,30.359632 C 35.709059,29.440455 36.452457,26.968205 36.586157,25.858805 C 36.719928,24.749442 37.100371,25.759283 37.360033,26.021529 C 37.619668,26.283859 39.936969,27.401083 40.432914,27.540600 C 40.928906,27.680047 41.888764,27.816689 42.405928,27.594656 C 42.923093,27.372625 43.507604,27.868600 44.427292,27.425669 C 45.347007,26.982689 44.922663,26.071593 44.602405,25.279999 C 44.282083,24.488373 44.147199,24.731565 43.805744,24.301496 C 43.464293,23.871416 43.290574,23.649832 42.146546,23.227937 C 41.002525,22.806047 39.258506,22.879154 38.519086,22.983051 C 37.779670,23.086938 37.353156,23.358327 36.716746,23.268496 C 36.080335,23.178664 36.283653,22.597628 36.845309,22.399244 C 37.406909,22.200804 38.154208,21.539404 38.732452,20.666368 C 39.310692,19.793346 39.201963,19.791090 39.314532,19.043250 C 39.427097,18.295412 39.389896,16.728821 39.224166,15.646603 C 39.141302,15.105495 39.005260,14.859923 38.883594,14.834066 z "
     id="path1012" />
  <path
     style="fill:#261933;stroke-width:0.62500000;"
     d="M 38.227654,13.209160 C 38.105992,13.183301 38.001569,13.378684 37.993283,13.715993 C 37.976641,14.390584 36.850563,16.830928 36.445579,17.485431 C 36.040531,18.139889 34.830692,19.234307 34.472595,19.478818 C 34.114563,19.723374 34.113567,19.608476 33.821154,19.515136 C 33.528677,19.421753 33.288242,19.236517 32.736132,18.880816 C 32.184083,18.525156 31.498768,18.093906 30.754793,17.884723 C 30.010828,17.675537 30.148573,17.629256 30.066759,17.461486 C 29.984937,17.293720 30.112408,16.863076 30.206313,16.043171 C 30.300153,15.223238 31.203000,13.094379 31.196353,12.034622 C 31.189703,10.974863 31.137740,11.186301 30.395861,11.723801 C 29.653979,12.261300 27.852653,15.524248 27.524934,16.033435 C 27.197201,16.542652 27.210689,16.746748 26.440950,16.586027 C 25.671250,16.425228 26.162604,16.740513 25.208291,15.700990 C 24.731122,15.181223 23.948557,14.644062 23.354628,14.332684 C 22.760745,14.021239 22.455499,14.036782 21.700941,14.008312 C 20.191781,13.951447 20.437180,13.983877 18.364286,14.702579 C 17.521850,15.000215 17.490364,14.869850 17.951068,15.611825 C 18.411732,16.353869 19.345869,17.597218 20.145945,18.022626 C 20.946014,18.448032 21.784093,18.842063 23.245043,18.732839 C 24.705961,18.623688 24.296827,18.577768 24.149043,19.806682 C 24.001258,21.035602 22.945987,24.662370 21.564354,27.904132 C 20.182789,31.145935 20.374303,33.677755 20.825495,34.973870 C 21.276618,36.269947 21.425340,37.900626 21.719933,38.740645 C 22.014419,39.580703 23.848122,39.685162 24.835538,39.650982 C 25.822911,39.616874 25.892021,39.762759 26.846676,39.897521 C 27.801216,40.032325 27.675292,40.404486 28.555121,40.251009 C 29.434946,40.097529 29.264174,40.321171 29.662131,39.787200 C 30.060087,39.253229 30.449245,39.280882 31.055699,37.925834 C 31.662188,36.570713 32.126058,35.384056 32.617858,34.030139 C 33.109730,32.676260 34.303783,29.653824 34.678437,28.734725 C 35.053123,27.815552 35.796513,25.343295 35.930213,24.233897 C 36.063987,23.124534 36.444427,24.134373 36.704092,24.396624 C 36.963722,24.658948 39.281029,25.776178 39.776976,25.915695 C 40.272961,26.055138 41.232818,26.191782 41.749982,25.969751 C 42.267149,25.747717 42.851666,26.243695 43.771347,25.800759 C 44.691062,25.357779 44.266725,24.446686 43.946466,23.655094 C 43.626144,22.863467 43.491261,23.106663 43.149805,22.676592 C 42.808355,22.246513 42.634630,22.024920 41.490605,21.603032 C 40.346577,21.181138 38.602558,21.254246 37.863142,21.358144 C 37.123731,21.462034 36.697215,21.733420 36.060806,21.643590 C 35.424392,21.553755 35.627710,20.972722 36.189367,20.774338 C 36.750968,20.575895 37.498266,19.914499 38.076509,19.041464 C 38.654751,18.168438 38.546020,18.166188 38.658593,17.418344 C 38.771157,16.670506 38.733951,15.103918 38.568225,14.021696 C 38.485361,13.480589 38.349314,13.235018 38.227654,13.209160 z "
     id="path1002" />
  <path
     style="fill:url(#linearGradient1522);stroke-width:0.62500000;"
     d="M 32.190376,19.643051 C 32.717433,19.901665 33.203177,20.241779 33.624665,20.941453 C 34.467606,22.340873 35.060167,22.185011 34.616708,23.765113 C 34.173313,25.345247 32.801119,28.845473 32.431149,29.989085 C 32.061115,31.132665 30.541665,34.961520 30.414459,35.499184 C 30.287256,36.036844 30.341691,36.230798 29.524421,35.753065 C 28.707192,35.275259 27.655700,34.640943 25.998146,34.624370 C 24.340633,34.607726 22.786662,34.904623 22.262333,35.144672 C 21.737937,35.384683 21.850650,35.171813 21.645683,34.587173 C 21.440738,34.002639 21.310964,32.296037 21.716770,31.085019 C 22.122643,29.874041 22.877776,27.424040 23.151500,26.834549 C 23.425224,26.245062 23.631744,25.700166 23.864715,25.262016 C 24.391096,23.898922 24.738855,23.191276 24.939457,22.216981 C 25.140085,21.242795 25.511881,18.888714 25.582147,18.234229 C 25.652378,17.579815 25.858888,17.501965 26.456445,17.646682 C 27.053964,17.791475 29.374269,18.173956 30.513780,18.866398 C 31.083556,19.212582 31.663318,19.384432 32.190376,19.643051 z "
     id="path1007" />
  <path
     style="fill:#261933;stroke-width:0.62500000;"
     d="M 27.050395,24.127864 C 26.842980,24.029858 26.543927,23.985527 26.065129,23.952260 C 25.424224,24.054224 24.881120,24.469077 24.767998,24.851564 C 24.654879,25.234050 24.604555,25.503946 24.769319,25.788254 C 24.934082,26.072560 25.278014,26.452242 25.828229,26.351284 C 26.378368,26.250289 26.545594,26.332126 27.101358,26.135769 C 27.657079,25.939495 27.621929,25.179125 27.453529,24.646953 C 27.369331,24.380867 27.257809,24.225864 27.050395,24.127864 z "
     id="path1011" />
  <path
     style="fill:#261933;stroke-width:0.62500000;"
     d="M 32.026634,23.999370 C 31.210096,23.546304 30.771138,23.964535 30.628645,24.493291 C 30.486335,25.021980 30.691842,25.596945 31.070216,25.798129 C 31.448587,25.999312 32.274672,25.956751 32.587816,25.367809 C 32.901033,24.778739 32.767771,24.431086 32.026634,23.999370 z "
     id="path1010" />
  <path
     style="fill:url(#linearGradient1534);stroke-width:0.62500000;"
     d="M 24.461935,17.236769 C 24.793227,17.434556 24.742605,17.468461 24.626081,17.687609 C 24.509598,17.906686 24.578494,17.874496 24.283731,17.869140 C 23.989002,17.863801 22.491463,17.678362 21.915917,17.566894 C 21.340369,17.455419 20.827151,17.387315 20.632601,17.305508 C 20.438080,17.223624 20.058905,16.872937 19.477847,16.174874 C 19.123024,15.834839 18.973058,15.648505 19.209946,15.688002 C 19.446841,15.727502 19.490992,15.704193 19.980241,15.791418 C 20.469487,15.878641 22.179768,16.363536 22.759374,16.541986 C 23.338986,16.720435 24.130658,17.038989 24.461935,17.236769 z "
     id="path1009" />
  <path
     style="fill:url(#linearGradient1532);stroke-width:0.62500000;"
     d="M 23.134589,15.076757 C 24.150368,15.679041 24.275451,15.937098 24.553783,16.271458 C 24.832121,16.605819 24.545191,16.501292 24.126482,16.216472 C 23.707733,15.931728 22.231304,15.189654 21.875713,15.000580 C 21.520129,14.811514 21.567403,14.697725 21.955799,14.717869 C 22.344225,14.737938 22.734550,14.864053 23.134589,15.076757 z "
     id="path1008" />
  <path
     style="fill:url(#linearGradient896);stroke-width:0.62500000;"
     d="M 41.909755,24.447371 C 42.320864,24.644325 42.330357,24.730217 42.205803,24.815268 C 42.081202,24.900388 41.648285,25.020549 41.300665,24.965447 C 40.953043,24.910347 40.736084,24.776157 40.212577,24.865273 C 39.689037,24.954464 39.057272,24.770128 38.432110,24.416089 C 37.806974,24.062152 37.289049,23.947963 37.053857,23.606717 C 36.818730,23.265509 36.768785,23.112213 37.175129,22.982346 C 37.581408,22.852443 37.776897,22.972714 38.310044,23.126553 C 38.843221,23.280316 39.083644,23.348942 39.355527,23.471962 C 40.211091,23.840323 40.716832,24.040901 41.166195,24.128555 C 41.615604,24.216137 41.498716,24.250459 41.909755,24.447371 z "
     id="path1006" />
  <path
     style="fill:url(#linearGradient1567);stroke-width:0.62500000;"
     d="M 41.325201,22.739717 C 41.934892,23.085515 42.141506,23.306955 42.348181,23.589800 C 42.554923,23.872670 42.659252,23.974882 42.221272,23.828482 C 41.783349,23.682110 40.731566,23.239432 40.070549,22.952808 C 39.409596,22.666230 38.840367,22.446081 38.441422,22.450149 C 38.042478,22.454217 37.775749,22.333942 38.044437,22.239070 C 38.313095,22.144086 38.588847,22.005184 38.881130,22.052495 C 39.644726,22.220705 39.793915,22.273158 40.152931,22.269489 C 40.511948,22.265816 40.715511,22.393917 41.325201,22.739717 z "
     id="path1005" />
  <path
     style="fill:url(#linearGradient1527);stroke-width:0.62500000;"
     d="M 29.917931,14.339908 C 29.936646,14.360670 29.910368,14.469103 29.900533,14.636819 C 29.880861,14.972244 29.677579,15.765544 29.613979,16.034376 C 29.550373,16.303212 29.474165,16.870324 29.452920,17.096832 C 29.431686,17.323333 29.427309,17.556673 29.115563,17.434097 C 28.803778,17.311594 28.652998,17.302958 28.451965,17.196066 C 28.250926,17.089169 28.165160,16.839493 28.341930,16.544378 C 28.518718,16.249238 28.618357,16.053195 28.678648,15.977154 C 29.160036,15.108974 29.436854,14.822636 29.708887,14.534918 C 29.844903,14.391058 29.899218,14.319151 29.917931,14.339908 z "
     id="path1004" />
  <path
     style="fill:url(#linearGradient1539);stroke-width:0.62500000;"
     d="M 38.053821,15.814745 C 38.076311,15.805085 38.082453,15.885909 38.024147,16.200795 C 37.907537,16.830568 37.869989,17.154151 37.709447,17.717337 C 37.548840,18.280476 37.108497,18.781507 36.992005,19.000599 C 36.875511,19.219695 36.713520,19.397793 36.332382,19.778827 C 35.951249,20.159869 35.631361,20.302942 35.390404,20.196441 C 35.149517,20.089977 35.074457,20.124124 34.857940,20.009002 C 34.641425,19.893876 34.680553,19.870427 34.951714,19.733568 C 35.222873,19.596708 36.246728,18.853239 36.838853,18.000693 C 37.127244,17.570345 37.274915,17.147563 37.364526,16.979025 C 37.454136,16.810499 37.684574,16.707343 37.747301,16.589371 C 37.810028,16.471398 37.861101,16.177205 37.950708,16.008673 C 37.995515,15.924410 38.031332,15.824402 38.053821,15.814745 z "
     id="path1003" />
  <rect
     style="fill:#000000;fill-opacity:0.30000001;fill-rule:evenodd;stroke:none;stroke-width:1.0000000pt;stroke-opacity:1.0000000;"
     id="rect937"
     x="28.226574"
     y="39.395287"
     rx="0.70483023"
     width="30.710464"
     height="12.888113" />
  <rect
     style="fill:#d9cce6;fill-opacity:0.80000001;fill-rule:evenodd;stroke:#261933;stroke-width:1.2500000;stroke-dasharray:none;"
     id="rect862"
     x="26.323563"
     y="37.806450"
     rx="0.69999999"
     width="30.500000"
     height="12.750523" />
  <text
     xml:space="preserve"
     style="fill:black;fill-opacity:1;stroke:none;font-family:helvetica;font-style:normal;font-weight:normal;font-size:12px;stroke-opacity:1;stroke-width:1pt;stroke-linejoin:miter;stroke-linecap:butt;"
     x="32.536951"
     y="45.961130"
     id="text903"><tspan
       id="tspan904"></tspan></text>
  <path
     style="font-size:12.000000;stroke-width:1.0000000pt;font-family:Radio Stars;"
     d="M 53.542007,47.467841 L 47.062007,47.467841 C 46.518007,47.467841 46.246007,47.195841 46.246007,46.651841 L 46.246007,41.467841 C 46.246007,40.923841 46.518007,40.651841 47.062007,40.651841 L 53.542007,40.651841 C 53.798007,40.651841 53.994007,40.731841 54.130007,40.891841 C 54.274007,41.051841 54.346007,41.243841 54.346007,41.467841 C 54.346007,41.691841 54.274007,41.883841 54.130007,42.043841 C 53.994007,42.203841 53.798007,42.283841 53.542007,42.283841 L 47.866007,42.283841 L 47.866007,45.835841 L 53.542007,45.835841 C 53.798007,45.835841 53.994007,45.915841 54.130007,46.075841 C 54.274007,46.235841 54.346007,46.427841 54.346007,46.651841 C 54.346007,46.875841 54.274007,47.067841 54.130007,47.227841 C 53.994007,47.387841 53.798007,47.467841 53.542007,47.467841 z M 43.174007,45.655841 L 39.994007,45.655841 L 39.034007,47.095841 C 38.866007,47.351841 38.642007,47.479841 38.362007,47.479841 C 38.146007,47.479841 37.950007,47.403841 37.774007,47.251841 C 37.606007,47.091841 37.522007,46.899841 37.522007,46.675841 C 37.522007,46.523841 37.570007,46.375841 37.666007,46.231841 L 40.510007,41.635841 C 40.878007,41.043841 41.234007,40.747841 41.578007,40.747841 C 41.818007,40.747841 42.034007,40.839841 42.226007,41.023841 C 42.346007,41.135841 42.498007,41.339841 42.682007,41.635841 L 45.514007,46.231841 C 45.602007,46.375841 45.646007,46.523841 45.646007,46.675841 C 45.646007,46.899841 45.562007,47.087841 45.394007,47.239841 C 45.226007,47.391841 45.030007,47.467841 44.806007,47.467841 C 44.534007,47.467841 44.314007,47.343841 44.146007,47.095841 L 43.174007,45.655841 z M 40.822007,44.227841 L 42.346007,44.227841 L 41.578007,43.003841 L 40.822007,44.227841 z M 36.478007,46.003841 C 36.686007,46.171841 36.790007,46.379841 36.790007,46.627841 C 36.790007,46.851841 36.706007,47.051841 36.538007,47.227841 C 36.378007,47.395841 36.190007,47.479841 35.974007,47.479841 C 35.798007,47.479841 35.630007,47.419841 35.470007,47.299841 L 32.722007,45.103841 C 32.234007,45.495841 31.326007,46.227841 29.998007,47.299841 C 29.838007,47.419841 29.670007,47.479841 29.494007,47.479841 C 29.270007,47.479841 29.074007,47.395841 28.906007,47.227841 C 28.746007,47.051841 28.666007,46.851841 28.666007,46.627841 C 28.666007,46.387841 28.774007,46.179841 28.990007,46.003841 L 31.426007,44.059841 L 28.990007,42.103841 C 28.782007,41.935841 28.678007,41.727841 28.678007,41.479841 C 28.678007,41.263841 28.758007,41.067841 28.918007,40.891841 C 29.078007,40.715841 29.270007,40.627841 29.494007,40.627841 C 29.670007,40.627841 29.838007,40.691841 29.998007,40.819841 C 30.910007,41.555841 31.818007,42.291841 32.722007,43.027841 L 35.470007,40.819841 C 35.630007,40.699841 35.798007,40.639841 35.974007,40.639841 C 36.190007,40.639841 36.378007,40.727841 36.538007,40.903841 C 36.706007,41.071841 36.790007,41.267841 36.790007,41.491841 C 36.790007,41.731841 36.686007,41.935841 36.478007,42.103841 L 34.030007,44.059841 C 34.470007,44.411841 35.286007,45.059841 36.478007,46.003841 z "
     id="path882" />
</svg>
