<?xml version="1.0" encoding="UTF-8" standalone="no"?>
<!DOCTYPE svg PUBLIC "-//W3C//DTD SVG 20010904//EN"
"http://www.w3.org/TR/2001/REC-SVG-20010904/DTD/svg10.dtd">
<!-- Created with Inkscape (http://www.inkscape.org/) -->
<svg
   id="svg1"
   sodipodi:version="0.32"
   inkscape:version="0.38.1"
   width="48pt"
   height="48pt"
   sodipodi:docbase="/root/Desktop/mimes"
   sodipodi:docname="gnome-mime-image-x-xbitmap.svg"
   xmlns="http://www.w3.org/2000/svg"
   xmlns:inkscape="http://www.inkscape.org/namespaces/inkscape"
   xmlns:sodipodi="http://sodipodi.sourceforge.net/DTD/sodipodi-0.dtd"
   xmlns:xml="http://www.w3.org/XML/1998/namespace"
   xmlns:xlink="http://www.w3.org/1999/xlink">
  <defs
     id="defs3">
    <linearGradient
       id="linearGradient876">
      <stop
         style="stop-color:#ffffff;stop-opacity:1;"
         offset="0.00000000"
         id="stop877" />
      <stop
         style="stop-color:#7f7f7f;stop-opacity:1;"
         offset="1.00000000"
         id="stop878" />
    </linearGradient>
    <linearGradient
       id="linearGradient642">
      <stop
         style="stop-color:#d9cce6;stop-opacity:1;"
         offset="0.00000000"
         id="stop643" />
      <stop
         style="stop-color:#73667f;stop-opacity:1;"
         offset="1.00000000"
         id="stop644" />
    </linearGradient>
    <linearGradient
       id="linearGradient866">
      <stop
         style="stop-color:#ffffff;stop-opacity:1;"
         offset="0.00000000"
         id="stop867" />
      <stop
         style="stop-color:#d9cce6;stop-opacity:1;"
         offset="1.00000000"
         id="stop868" />
    </linearGradient>
    <linearGradient
       id="linearGradient584">
      <stop
         style="stop-color:#ffffff;stop-opacity:1;"
         offset="0.00000000"
         id="stop585" />
      <stop
         style="stop-color:#ffffff;stop-opacity:0;"
         offset="1.00000000"
         id="stop586" />
    </linearGradient>
    <linearGradient
       xlink:href="#linearGradient866"
       id="linearGradient586"
       x1="-0.00000000"
       y1="0.01562500"
       x2="0.99122804"
       y2="0.98437500" />
    <linearGradient
       xlink:href="#linearGradient584"
       id="linearGradient587"
       x1="0.00000000"
       y1="-0.00000000"
       x2="1.00000000"
       y2="1.00000000" />
    <linearGradient
       xlink:href="#linearGradient642"
       id="linearGradient638"
       x1="0.41228071"
       y1="0.37500000"
       x2="0.58771932"
       y2="0.54687500" />
    <radialGradient
       xlink:href="#linearGradient866"
       id="radialGradient639" />
    <linearGradient
       xlink:href="#linearGradient584"
       id="linearGradient640"
       x1="-0.00000000"
       y1="-0.00000000"
       x2="0.99358976"
       y2="0.99218750" />
    <linearGradient
       xlink:href="#linearGradient876"
       id="linearGradient641"
       x1="0.01515152"
       y1="0.02343750"
       x2="0.98484850"
       y2="0.98437500" />
    <linearGradient
       xlink:href="#linearGradient584"
       id="linearGradient645"
       x1="0.00000000"
       y1="-0.00000000"
       x2="0.99494952"
       y2="1.01562500" />
    <linearGradient
       xlink:href="#linearGradient584"
       id="linearGradient875"
       x1="0.00000000"
       y1="-0.00000000"
       x2="0.99166667"
       y2="0.98437500" />
  </defs>
  <sodipodi:namedview
     id="base"
     pagecolor="#ffffff"
     bordercolor="#666666"
     borderopacity="1.0"
     inkscape:pageopacity="0.0"
     inkscape:pageshadow="2"
     inkscape:zoom="7.9794719"
     inkscape:cx="34.172103"
     inkscape:cy="18.475344"
     inkscape:window-width="639"
     inkscape:window-height="515"
     inkscape:window-x="169"
     inkscape:window-y="102" />
  <path
     d="M 4.4389304 48.086315 C 5.2483181 50.50443 38.765774 61.377487 40.966438 59.55288 C 42.936267 57.902492 57.675565 8.7785888 56.688667 6.8303779 C 55.662821 4.6824777 21.657054 -0.6675724 20.042945 0.80153134 C 18.054709 2.621752 3.5888672 45.311841 4.4389304 48.086315 z "
     style="font-size:12;opacity:0.302675;fill-rule:evenodd;stroke-width:12.5;"
     id="path639" />
  <path
     d="M 4.5541516 46.08493 C 5.3114351 48.34726 36.66955 58.519843 38.728432 56.812781 C 40.571358 55.268717 54.36111 9.3095333 53.437795 7.4867937 C 52.478034 5.477268 20.663028 0.47192513 19.152904 1.8463842 C 17.292759 3.5493405 3.7588508 43.489198 4.5541516 46.08493 z "
     style="font-size:12;fill:url(#linearGradient586);fill-rule:evenodd;stroke:#261933;stroke-width:1.87726;"
     id="path634" />
  <path
     d="M 6.6876568 43.965773 C 6.360392 43.13667 19.363758 4.5872629 20.579427 3.7922731 C 22.09876 2.7554118 46.659814 7.3454032 46.98631 8.172561 C 47.28557 8.9306762 27.823671 5.3906629 23.493845 9.2635774 C 15.189619 16.482895 6.9861475 44.721984 6.6876568 43.965773 z "
     style="font-size:12;opacity:0.699936;fill:url(#linearGradient587);fill-rule:evenodd;stroke:none;stroke-width:0.100121pt;"
     id="path640" />
  <g
     transform="matrix(6.197960e-2,0.000000,0.000000,6.197960e-2,8.856374,7.896787)"
     style="font-size:12;opacity:0.302675;"
     id="g1288">
    <path
       d="M 193.828 467.434 C 178.941 468.948 161.154 486.272 148.606 498.444 C 130.468 516.075 92.7478 564.2 104.676 592.765 C 111.698 552.141 185.106 555.496 205.456 535.914 C 216.415 526.066 227.005 503.459 224.837 490.691 C 223.129 480.633 204.352 466.364 193.828 467.434 z "
       style="fill-rule:evenodd;stroke-width:0.961965pt;"
       id="path1282" />
    <path
       d="M 229.409 417.471 C 221.482 419.905 190.897 456.406 190.623 463.082 C 190.082 475.91 220.297 500.47 232.768 498.042 C 237.828 496.761 268.98 456.842 269.182 451.097 C 269.654 438.55 241.337 414.372 229.409 417.471 z "
       style="fill-rule:evenodd;stroke-width:11.3244;"
       id="path1283" />
    <path
       d="M 221.358 423.625 C 228.067 386.292 264.417 333.237 298.019 298.291 C 375.96 217.232 538.735 66.7744 555.987 75.6109 C 571.994 83.8099 456.882 263.285 391.15 343.699 C 355.597 386.031 313.676 435.685 270.031 454.046 C 254.863 460.427 218.737 438.21 221.358 423.625 z "
       style="fill-rule:evenodd;stroke-width:11.3244;"
       id="path1284" />
  </g>
  <path
     d="M 19.48725 36.093999 C 18.564561 36.187852 17.462114 37.261603 16.684421 38.016001 C 15.560194 39.108801 13.222349 42.091508 13.961639 43.861965 C 14.396887 41.344146 18.946645 41.552059 20.207916 40.338407 C 20.887148 39.728036 21.54357 38.326861 21.409191 37.535455 C 21.303327 36.912097 20.139545 36.027691 19.48725 36.093999 z "
     style="font-size:12;fill-rule:evenodd;stroke:#000000;stroke-width:0.721836;"
     id="path1047" />
  <path
     d="M 21.692568 32.997358 C 21.201223 33.148177 19.305552 35.410521 19.288626 35.824272 C 19.255077 36.619378 21.127756 38.141582 21.900717 37.991066 C 22.214367 37.911713 24.145106 35.437518 24.157664 35.081462 C 24.186905 34.303827 22.4318 32.805284 21.692568 32.997358 z "
     style="font-size:12;fill:url(#linearGradient641);fill-rule:evenodd;stroke:#333333;stroke-width:1.14511;"
     id="path1046" />
  <path
     d="M 21.193518 33.378773 C 21.609333 31.064861 23.862334 27.77657 25.944923 25.610626 C 30.775679 20.586644 40.864411 11.261349 41.933671 11.809029 C 42.925769 12.317203 35.791229 23.44098 31.717176 28.424983 C 29.513616 31.048723 26.915357 34.126255 24.210262 35.264253 C 23.270161 35.659744 21.031112 34.282717 21.193518 33.378773 z "
     style="font-size:12;fill:url(#linearGradient638);fill-rule:evenodd;stroke:#261933;stroke-width:1.15;stroke-dasharray:none;"
     id="path1045" />
  <path
     d="M 22.125612 33.289471 C 21.203651 34.514161 24.20098 29.115984 27.286945 25.630585 C 31.325751 21.177847 41.502633 12.467555 40.689875 13.393132 C 39.408033 14.758152 24.961626 29.328198 22.125612 33.289471 z "
     style="font-size:12;opacity:0.7;fill:url(#linearGradient875);fill-rule:evenodd;stroke:none;stroke-width:1.02162pt;"
     id="path1051" />
  <path
     d="M 19.961123 35.953373 C 19.961123 35.825851 20.648665 34.716124 21.043367 34.621421 C 21.342396 34.549591 22.042376 35.329106 22.042376 35.453899 C 22.042376 35.551088 21.351011 35.213534 21.043367 35.287367 C 20.65728 35.380005 19.961123 36.047832 19.961123 35.953373 z "
     style="font-size:12;opacity:0.699936;fill:url(#linearGradient645);fill-rule:evenodd;stroke:none;stroke-width:1.02162pt;"
     id="path1265" />
  <path
     d="M 14.300237 42.113716 C 14.354516 41.440367 16.553015 37.994404 18.878938 37.035617 C 19.398737 36.832685 20.428019 38.172098 20.460657 38.367568 C 20.48359 38.50504 19.43259 37.799054 19.045411 38.034565 C 17.379061 39.047831 14.307177 42.274845 14.300237 42.113716 z "
     style="font-size:12;opacity:0.7;fill:url(#linearGradient640);fill-rule:evenodd;stroke:none;stroke-width:1.02162pt;"
     id="path1266" />
  <rect
     style="fill:#000000;fill-opacity:0.30000001;fill-rule:evenodd;stroke:none;stroke-width:1.0000000pt;stroke-opacity:1.0000000;"
     id="rect937"
     x="28.716310"
     y="39.492133"
     rx="0.70483023"
     width="30.710464"
     height="12.888113" />
  <rect
     style="fill:#d9cce6;fill-opacity:0.80000001;fill-rule:evenodd;stroke:#261933;stroke-width:1.2500000;stroke-dasharray:none;"
     id="rect862"
     x="26.813300"
     y="37.903293"
     rx="0.69999999"
     width="30.500000"
     height="12.750523" />
  <text
     xml:space="preserve"
     style="fill:black;fill-opacity:1;stroke:none;font-family:helvetica;font-style:normal;font-weight:normal;font-size:12px;stroke-opacity:1;stroke-width:1pt;stroke-linejoin:miter;stroke-linecap:butt;"
     x="32.583610"
     y="46.057975"
     id="text863"><tspan
       id="tspan864"></tspan></text>
  <path
     style="font-size:12.000000;stroke-width:1.0000000pt;font-family:Radio Stars;"
     d="M 54.935310,46.651842 C 54.935310,46.907842 54.855310,47.107842 54.695310,47.251842 C 54.535310,47.387842 54.347310,47.455842 54.131310,47.455842 C 53.915310,47.455842 53.727310,47.387842 53.567310,47.251842 C 53.407310,47.107842 53.327310,46.907842 53.327310,46.651842 L 53.327310,44.287842 L 51.575310,47.083842 C 51.375310,47.411842 51.147310,47.575842 50.891310,47.575842 C 50.643310,47.575842 50.415310,47.411842 50.207310,47.083842 L 48.455310,44.287842 L 48.455310,46.651842 C 48.455310,46.907842 48.375310,47.107842 48.215310,47.251842 C 48.063310,47.387842 47.875310,47.455842 47.651310,47.455842 C 47.435310,47.455842 47.247310,47.387842 47.087310,47.251842 C 46.927310,47.107842 46.847310,46.907842 46.847310,46.651842 L 46.847310,41.467842 C 46.847310,41.179842 46.919310,40.951842 47.063310,40.783842 C 47.207310,40.615842 47.379310,40.531842 47.579310,40.531842 C 47.883310,40.531842 48.139310,40.699842 48.347310,41.035842 L 50.891310,45.127842 L 53.447310,41.035842 C 53.663310,40.699842 53.919310,40.531842 54.215310,40.531842 C 54.415310,40.531842 54.583310,40.615842 54.719310,40.783842 C 54.863310,40.951842 54.935310,41.179842 54.935310,41.467842 L 54.935310,46.651842 z M 45.947310,46.651842 C 45.947310,47.195842 45.679310,47.467842 45.143310,47.467842 L 37.859310,47.467842 L 37.859310,40.651842 L 45.143310,40.651842 C 45.679310,40.651842 45.947310,40.923842 45.947310,41.467842 L 45.947310,43.243842 C 45.939310,43.387842 45.907310,43.511842 45.851310,43.615842 C 45.715310,43.871842 45.479310,44.011842 45.143310,44.035842 C 45.647310,44.083842 45.915310,44.363842 45.947310,44.875842 L 45.947310,46.651842 z M 44.339310,43.243842 L 44.339310,42.283842 L 39.467310,42.283842 L 39.467310,43.243842 L 44.339310,43.243842 z M 44.339310,45.835842 L 44.339310,44.875842 L 39.467310,44.875842 L 39.467310,45.835842 L 44.339310,45.835842 z M 36.791310,46.003842 C 36.999310,46.171842 37.103310,46.379842 37.103310,46.627842 C 37.103310,46.851842 37.019310,47.051842 36.851310,47.227842 C 36.691310,47.395842 36.503310,47.479842 36.287310,47.479842 C 36.111310,47.479842 35.943310,47.419842 35.783310,47.299842 L 33.035310,45.103842 C 32.547310,45.495842 31.639310,46.227842 30.311310,47.299842 C 30.151310,47.419842 29.983310,47.479842 29.807310,47.479842 C 29.583310,47.479842 29.387310,47.395842 29.219310,47.227842 C 29.059310,47.051842 28.979310,46.851842 28.979310,46.627842 C 28.979310,46.387842 29.087310,46.179842 29.303310,46.003842 L 31.739310,44.059842 L 29.303310,42.103842 C 29.095310,41.935842 28.991310,41.727842 28.991310,41.479842 C 28.991310,41.263842 29.071310,41.067842 29.231310,40.891842 C 29.391310,40.715842 29.583310,40.627842 29.807310,40.627842 C 29.983310,40.627842 30.151310,40.691842 30.311310,40.819842 C 31.223310,41.555842 32.131310,42.291842 33.035310,43.027842 L 35.783310,40.819842 C 35.943310,40.699842 36.111310,40.639842 36.287310,40.639842 C 36.503310,40.639842 36.691310,40.727842 36.851310,40.903842 C 37.019310,41.071842 37.103310,41.267842 37.103310,41.491842 C 37.103310,41.731842 36.999310,41.935842 36.791310,42.103842 L 34.343310,44.059842 C 34.783310,44.411842 35.599310,45.059842 36.791310,46.003842 z "
     id="path887" />
</svg>
