<?xml version="1.0" encoding="UTF-8" standalone="no"?>
<!DOCTYPE svg PUBLIC "-//W3C//DTD SVG 20010904//EN"
"http://www.w3.org/TR/2001/REC-SVG-20010904/DTD/svg10.dtd">
<!-- Created with Inkscape (http://www.inkscape.org/) -->
<svg
   id="svg1"
   sodipodi:version="0.32"
   inkscape:version="0.38.1"
   width="48pt"
   height="48pt"
   sodipodi:docbase="/root/Desktop/mimes"
   sodipodi:docname="gnome-mime-text-x-tex.svg"
   xmlns="http://www.w3.org/2000/svg"
   xmlns:inkscape="http://www.inkscape.org/namespaces/inkscape"
   xmlns:sodipodi="http://sodipodi.sourceforge.net/DTD/sodipodi-0.dtd"
   xmlns:xml="http://www.w3.org/XML/1998/namespace"
   xmlns:xlink="http://www.w3.org/1999/xlink">
  <defs
     id="defs3">
    <linearGradient
       id="linearGradient642">
      <stop
         style="stop-color:#d9cce6;stop-opacity:1;"
         offset="0.00000000"
         id="stop643" />
      <stop
         style="stop-color:#73667f;stop-opacity:1;"
         offset="1.00000000"
         id="stop644" />
    </linearGradient>
    <linearGradient
       id="linearGradient866">
      <stop
         style="stop-color:#ffffff;stop-opacity:1;"
         offset="0.00000000"
         id="stop867" />
      <stop
         style="stop-color:#d9cce6;stop-opacity:1;"
         offset="1.00000000"
         id="stop868" />
    </linearGradient>
    <linearGradient
       id="linearGradient584">
      <stop
         style="stop-color:#ffffff;stop-opacity:1;"
         offset="0.00000000"
         id="stop585" />
      <stop
         style="stop-color:#ffffff;stop-opacity:0;"
         offset="1.00000000"
         id="stop586" />
    </linearGradient>
    <linearGradient
       xlink:href="#linearGradient866"
       id="linearGradient586"
       x1="-0.00000000"
       y1="0.01562500"
       x2="0.99122804"
       y2="0.98437500" />
    <linearGradient
       xlink:href="#linearGradient584"
       id="linearGradient587"
       x1="0.00000000"
       y1="-0.00000000"
       x2="1.00000000"
       y2="1.00000000" />
    <linearGradient
       xlink:href="#linearGradient642"
       id="linearGradient638"
       x1="0.00000000"
       y1="0.00000000"
       x2="1.00000000"
       y2="0.00000000" />
    <radialGradient
       xlink:href="#linearGradient642"
       id="radialGradient639"
       cx="0.50000000"
       cy="0.50000000"
       r="0.50000000"
       fx="0.50000000"
       fy="0.50000000" />
    <linearGradient
       xlink:href="#linearGradient584"
       id="linearGradient640"
       x1="-0.00000000"
       y1="0.00000000"
       x2="0.98275864"
       y2="1.00000000" />
    <linearGradient
       xlink:href="#linearGradient642"
       id="linearGradient641"
       x1="0.01515152"
       y1="0.02343750"
       x2="0.98484850"
       y2="0.98437500" />
    <linearGradient
       xlink:href="#linearGradient642"
       id="linearGradient645"
       x1="0.01428571"
       y1="0.01562500"
       x2="1.00000000"
       y2="1.00781250" />
  </defs>
  <sodipodi:namedview
     id="base"
     pagecolor="#ffffff"
     bordercolor="#666666"
     borderopacity="1.0"
     inkscape:pageopacity="0.0"
     inkscape:pageshadow="2"
     inkscape:zoom="10.101639"
     inkscape:cx="22.549482"
     inkscape:cy="24.366767"
     inkscape:window-width="765"
     inkscape:window-height="678"
     inkscape:window-x="36"
     inkscape:window-y="117"
     showguides="true"
     snaptoguides="true"
     showgrid="false" />
  <path
     d="M 4.4389304 48.086315 C 5.2483181 50.50443 38.765774 61.377487 40.966438 59.55288 C 42.936267 57.902492 57.675565 8.7785888 56.688667 6.8303779 C 55.662821 4.6824777 21.657054 -0.6675724 20.042945 0.80153134 C 18.054709 2.621752 3.5888672 45.311841 4.4389304 48.086315 z "
     style="font-size:12;opacity:0.302675;fill-rule:evenodd;stroke-width:12.5;"
     id="path639" />
  <path
     d="M 4.5541516 46.08493 C 5.3114351 48.34726 36.66955 58.519843 38.728432 56.812781 C 40.571358 55.268717 54.36111 9.3095333 53.437795 7.4867937 C 52.478034 5.477268 20.663028 0.47192513 19.152904 1.8463842 C 17.292759 3.5493405 3.7588508 43.489198 4.5541516 46.08493 z "
     style="font-size:12;fill:url(#linearGradient586);fill-rule:evenodd;stroke:#261933;stroke-width:1.87726;"
     id="path634" />
  <path
     d="M 6.6876568 43.965773 C 6.360392 43.13667 19.363758 4.5872629 20.579427 3.7922731 C 22.09876 2.7554118 46.659814 7.3454032 46.98631 8.172561 C 47.28557 8.9306762 27.823671 5.3906629 23.493845 9.2635774 C 15.189619 16.482895 6.9861475 44.721984 6.6876568 43.965773 z "
     style="font-size:12;opacity:0.699936;fill:url(#linearGradient587);fill-rule:evenodd;stroke:none;stroke-width:0.100121pt;"
     id="path640" />
  <path
     style="font-size:12;fill:#261933;fill-rule:evenodd;stroke-width:1pt;"
     d="M 16.345293 19.250153 C 25.43623 20.92324 36.236006 23.137823 44.872119 25.262816 C 45.472601 25.417991 45.201996 26.358638 44.56955 26.257982 C 35.403599 24.692167 24.792806 22.125359 16.011431 20.092668 C 15.444283 19.954505 15.74909 19.147455 16.345293 19.250153 z "
     id="path627" />
  <path
     d="M 14.931448 22.30803 C 24.022385 23.981019 34.822161 26.195602 43.458274 28.320595 C 44.058747 28.475761 43.788151 29.416417 43.155705 29.315752 C 33.989754 27.749946 23.378962 25.183236 14.597586 23.150447 C 14.030436 23.012284 14.335241 22.205234 14.931448 22.30803 z "
     style="font-size:12;fill:#261933;fill-rule:evenodd;stroke-width:1pt;fill-opacity:1;"
     id="path1233" />
  <path
     d="M 14.065026 26.323567 C 15.049304 25.916151 25.108591 28.358872 25.97666 29.09364 C 26.721814 29.843262 23.7031 40.011371 22.791113 40.728446 C 21.963944 41.495277 11.18807 38.194489 10.463804 37.404146 C 9.8443783 36.836899 13.079677 26.870023 14.065026 26.323567 z "
     style="font-size:12;fill-rule:evenodd;stroke:#261933;stroke-width:1.25;fill:url(#linearGradient645);stroke-dasharray:none;stroke-opacity:1;"
     id="path1236" />
  <path
     d="M 9.2186364 41.618479 C 18.177333 43.895728 28.804842 46.827485 37.279557 49.525267 C 37.868283 49.720187 37.535397 50.640724 36.911107 50.497986 C 27.8704 48.322664 17.455011 45.052193 8.8292194 42.436802 C 8.2726002 42.260935 8.6306044 41.476135 9.2186364 41.618479 z "
     style="font-size:12;fill:#261933;fill-rule:evenodd;stroke-width:1pt;fill-opacity:1;"
     id="path1237" />
  <path
     d="M 28.089161 32.058379 C 32.64143 32.732119 37.927491 33.827072 42.190505 35.036283 C 42.485401 35.120044 42.075944 35.983645 41.762881 35.937203 C 37.227911 35.266077 31.926494 34.097865 27.646191 32.883695 C 27.368585 32.804992 27.793299 32.01456 28.089161 32.058379 z "
     style="font-size:12;fill:#261933;fill-rule:evenodd;stroke-width:1pt;fill-opacity:1;"
     id="path1238" />
  <path
     d="M 27.111162 35.180331 C 31.66343 35.854081 36.949491 36.949025 41.212496 38.158244 C 41.507392 38.241996 41.097944 39.105598 40.784882 39.059156 C 36.249902 38.388039 30.948486 37.219827 26.668182 36.005656 C 26.390585 35.926954 26.81529 35.136513 27.111162 35.180331 z "
     style="font-size:12;fill:#261933;fill-rule:evenodd;stroke-width:1pt;fill-opacity:1;"
     id="path1239" />
  <path
     d="M 12.360267 36.371482 C 12.167784 35.959115 13.931716 28.480721 15.058732 27.82641 C 16.27669 27.182208 23.86507 29.671478 24.053481 30.075097 C 24.21487 30.421002 18.135842 28.98326 16.108112 30.075097 C 14.238077 31.082019 12.517578 36.708639 12.360267 36.371482 z "
     style="font-size:12;opacity:0.699936;fill-rule:evenodd;stroke:none;stroke-width:0.0971644pt;fill:url(#linearGradient640);"
     id="path1240" />
  <text
     xml:space="preserve"
     style="fill:black;fill-opacity:1;stroke:none;font-family:helvetica;font-style:normal;font-weight:normal;font-size:12px;stroke-opacity:1;stroke-width:1pt;stroke-linejoin:miter;stroke-linecap:butt;"
     x="32.315414"
     y="43.967276"
     id="text863"><tspan
       id="tspan864"></tspan></text>
  <g
     id="g608"
     transform="matrix(1.262813,0.000000,0.000000,1.262813,-13.89563,-4.779186)">
    <path
       style="font-size:64;font-weight:normal;fill:#261933;stroke-width:1pt;font-family:Times New Roman;"
       d="M 32.081938 9.4156701 L 32.165179 11.068038 L 31.954303 11.068038 C 31.913608 10.777055 31.858115 10.56921 31.787823 10.444503 C 31.673137 10.243586 31.519605 10.096363 31.327228 10.002832 C 31.13855 9.9058381 30.888829 9.8573411 30.578066 9.8573411 L 29.518142 9.8573411 L 29.518142 15.240526 C 29.518142 15.673537 29.568086 15.943735 29.667974 16.051122 C 29.808557 16.196613 30.024981 16.269359 30.317247 16.269359 L 30.578066 16.269359 L 30.578066 16.461616 L 27.387194 16.461616 L 27.387194 16.269359 L 27.653562 16.269359 C 27.971724 16.269359 28.197398 16.179293 28.330582 15.999161 C 28.411972 15.88831 28.452668 15.635432 28.452668 15.240526 L 28.452668 9.8573411 L 27.548125 9.8573411 C 27.196666 9.8573411 26.946946 9.8815891 26.798963 9.9300871 C 26.606586 9.9959041 26.441955 10.122343 26.305072 10.309404 C 26.168188 10.496464 26.086797 10.749342 26.0609 11.068038 L 25.850025 11.068038 L 25.938815 9.4156701 L 32.081938 9.4156701 z "
       id="path646"
       transform="matrix(1.072733,0.208868,-0.385487,1.027755,4.634625,-6.550565)" />
    <path
       style="font-size:64;font-weight:normal;fill:#261933;stroke-width:1pt;font-family:Times New Roman;"
       d="M 33.096825 11.984062 L 33.096825 14.813121 L 34.573051 14.813121 C 34.956144 14.813121 35.212089 14.751543 35.340887 14.628387 C 35.512618 14.466526 35.608391 14.181509 35.628207 13.773336 L 35.811497 13.773336 L 35.811497 16.264596 L 35.628207 16.264596 C 35.581971 15.916242 35.535737 15.692803 35.489501 15.594279 C 35.430055 15.471123 35.332632 15.374358 35.197228 15.303983 C 35.061824 15.233609 34.853765 15.198421 34.573051 15.198421 L 33.096825 15.198421 L 33.096825 17.557729 C 33.096825 17.874415 33.110035 18.067945 33.136455 18.13832 C 33.162875 18.205176 33.20911 18.259716 33.275161 18.301941 C 33.341211 18.340647 33.466707 18.36 33.651648 18.36 L 34.791018 18.36 C 35.170807 18.36 35.446568 18.33185 35.618299 18.27555 C 35.79003 18.219251 35.955156 18.108411 36.113677 17.94303 C 36.318434 17.724869 36.528143 17.395868 36.742807 16.956027 L 36.940959 16.956027 L 36.361366 18.750579 L 31.184665 18.750579 L 31.184665 18.555289 L 31.422446 18.555289 C 31.580967 18.555289 31.731232 18.514824 31.873241 18.433893 C 31.978921 18.377593 32.049925 18.293144 32.086253 18.180544 C 32.125883 18.067945 32.145699 17.837468 32.145699 17.489114 L 32.145699 12.839114 C 32.145699 12.385198 32.102766 12.105459 32.0169 11.999897 C 31.898009 11.859148 31.699858 11.788773 31.422446 11.788773 L 31.184665 11.788773 L 31.184665 11.593483 L 36.361366 11.593483 L 36.435673 13.161077 L 36.242475 13.161077 C 36.173123 12.784573 36.095514 12.525947 36.009648 12.385198 C 35.927085 12.244448 35.803241 12.137127 35.638114 12.063234 C 35.506014 12.010453 35.273186 11.984062 34.939631 11.984062 L 33.096825 11.984062 z "
       id="path645"
       transform="matrix(1.072733,0.208868,-0.385487,1.027755,4.634625,-6.550565)" />
    <path
       style="font-size:64;font-weight:normal;fill:#261933;stroke-width:1pt;font-family:Times New Roman;"
       d="M 40.063235 12.563264 L 41.406263 14.818383 C 41.778557 15.441918 42.053932 15.836823 42.232388 16.003099 C 42.413919 16.165911 42.643142 16.255977 42.920055 16.273298 L 42.920055 16.465554 L 40.233998 16.465554 L 40.233998 16.273298 C 40.412453 16.269833 40.544755 16.249049 40.630907 16.210944 C 40.69552 16.179767 40.747825 16.133002 40.787824 16.070649 C 40.830899 16.004831 40.852437 15.939013 40.852437 15.873196 C 40.852437 15.793522 40.838592 15.713848 40.8109 15.634174 C 40.789362 15.575285 40.70475 15.422865 40.557063 15.176915 L 39.495563 13.368664 L 38.184841 15.260053 C 38.046384 15.46097 37.96331 15.596069 37.935619 15.665351 C 37.907928 15.731168 37.894082 15.80045 37.894082 15.873196 C 37.894082 15.984046 37.935619 16.075845 38.018693 16.148591 C 38.101767 16.221336 38.260222 16.262905 38.49406 16.273298 L 38.49406 16.465554 L 36.27414 16.465554 L 36.27414 16.273298 C 36.431058 16.255977 36.566437 16.219604 36.680279 16.164179 C 36.871041 16.074113 37.052573 15.95287 37.224875 15.80045 C 37.397176 15.64803 37.594093 15.414205 37.815623 15.098973 L 39.292493 12.999739 L 38.06023 10.968054 C 37.724856 10.417265 37.440252 10.057 37.206414 9.8872601 C 36.972576 9.7140561 36.703356 9.6222571 36.398751 9.6118651 L 36.398751 9.4196091 L 39.292493 9.4196091 L 39.292493 9.6118651 C 39.046348 9.6222571 38.877124 9.6672911 38.784819 9.7469641 C 38.695591 9.8266381 38.650978 9.9149731 38.650978 10.011967 C 38.650978 10.140138 38.724821 10.327198 38.872508 10.573148 L 39.832474 12.189143 L 40.944742 10.604325 C 41.073968 10.417265 41.152426 10.289094 41.180118 10.219812 C 41.210885 10.15053 41.22627 10.079516 41.22627 10.006771 C 41.22627 9.9340251 41.207809 9.8699391 41.170887 9.8145141 C 41.124735 9.7417681 41.066275 9.6915391 40.995509 9.6638261 C 40.924742 9.6326501 40.778594 9.6153291 40.557063 9.6118651 L 40.557063 9.4196091 L 42.776983 9.4196091 L 42.776983 9.6118651 C 42.601605 9.6222571 42.458533 9.6534341 42.347768 9.7053951 C 42.18162 9.7850691 42.029318 9.8924561 41.890861 10.027555 C 41.752405 10.162654 41.557027 10.412068 41.304729 10.775797 L 40.063235 12.563264 z "
       id="path644"
       transform="matrix(1.072733,0.208868,-0.385487,1.027755,4.634625,-6.550565)" />
  </g>
  <path
     d="M 25.87374 38.397631 C 30.426008 39.071381 35.712069 40.166325 39.975074 41.375544 C 40.26997 41.459296 39.860522 42.322898 39.54746 42.276456 C 35.01248 41.605339 29.711064 40.437127 25.43076 39.222956 C 25.153163 39.144254 25.577868 38.353813 25.87374 38.397631 z "
     style="font-size:12;fill:#261933;fill-rule:evenodd;stroke-width:1pt;fill-opacity:1;"
     id="path618" />
  <rect
     style="fill:#000000;fill-opacity:0.30000001;fill-rule:evenodd;stroke:none;stroke-width:1.0000000pt;stroke-opacity:1.0000000;"
     id="rect937"
     x="28.226574"
     y="39.395287"
     rx="0.70483023"
     width="30.710464"
     height="12.888113" />
  <rect
     style="fill:#d9cce6;fill-opacity:0.80000001;fill-rule:evenodd;stroke:#261933;stroke-width:1.2500000;stroke-dasharray:none;"
     id="rect862"
     x="26.323563"
     y="37.806450"
     rx="0.69999999"
     width="30.500000"
     height="12.750523" />
  <text
     xml:space="preserve"
     style="fill:black;fill-opacity:1;stroke:none;font-family:helvetica;font-style:normal;font-weight:normal;font-size:12px;stroke-opacity:1;stroke-width:1pt;stroke-linejoin:miter;stroke-linecap:butt;"
     x="32.536951"
     y="45.961130"
     id="text888"><tspan
       id="tspan889"></tspan></text>
  <path
     style="font-size:12.000000;stroke-width:1.0000000pt;font-family:Radio Stars;"
     d="M 53.854923,46.161771 C 54.062923,46.329771 54.166923,46.537771 54.166923,46.785771 C 54.166923,47.009771 54.082923,47.209771 53.914923,47.385771 C 53.754923,47.553771 53.566923,47.637771 53.350923,47.637771 C 53.174923,47.637771 53.006923,47.577771 52.846923,47.457771 L 50.098923,45.261771 C 49.610923,45.653771 48.702923,46.385771 47.374923,47.457771 C 47.214923,47.577771 47.046923,47.637771 46.870923,47.637771 C 46.646923,47.637771 46.450923,47.553771 46.282923,47.385771 C 46.122923,47.209771 46.042923,47.009771 46.042923,46.785771 C 46.042923,46.545771 46.150923,46.337771 46.366923,46.161771 L 48.802923,44.217771 L 46.366923,42.261771 C 46.158923,42.093771 46.054923,41.885771 46.054923,41.637771 C 46.054923,41.421771 46.134923,41.225771 46.294923,41.049771 C 46.454923,40.873771 46.646923,40.785771 46.870923,40.785771 C 47.046923,40.785771 47.214923,40.849771 47.374923,40.977771 C 48.286923,41.713771 49.194923,42.449771 50.098923,43.185771 L 52.846923,40.977771 C 53.006923,40.857771 53.174923,40.797771 53.350923,40.797771 C 53.566923,40.797771 53.754923,40.885771 53.914923,41.061771 C 54.082923,41.229771 54.166923,41.425771 54.166923,41.649771 C 54.166923,41.889771 54.062923,42.093771 53.854923,42.261771 L 51.406923,44.217771 C 51.846923,44.569771 52.662923,45.217771 53.854923,46.161771 z M 44.662923,47.625771 L 38.182923,47.625771 C 37.638923,47.625771 37.366923,47.353771 37.366923,46.809771 L 37.366923,41.625771 C 37.366923,41.081771 37.638923,40.809771 38.182923,40.809771 L 44.662923,40.809771 C 44.918923,40.809771 45.114923,40.889771 45.250923,41.049771 C 45.394923,41.209771 45.466923,41.401771 45.466923,41.625771 C 45.466923,41.849771 45.394923,42.041771 45.250923,42.201771 C 45.114923,42.361771 44.918923,42.441771 44.662923,42.441771 L 38.986923,42.441771 L 38.986923,43.401771 L 44.662923,43.401771 C 44.918923,43.401771 45.114923,43.481771 45.250923,43.641771 C 45.394923,43.801771 45.466923,43.993771 45.466923,44.217771 C 45.466923,44.441771 45.394923,44.633771 45.250923,44.793771 C 45.114923,44.953771 44.918923,45.033771 44.662923,45.033771 L 38.986923,45.033771 L 38.986923,45.993771 L 44.662923,45.993771 C 44.918923,45.993771 45.114923,46.073771 45.250923,46.233771 C 45.394923,46.393771 45.466923,46.585771 45.466923,46.809771 C 45.466923,47.033771 45.394923,47.225771 45.250923,47.385771 C 45.114923,47.545771 44.918923,47.625771 44.662923,47.625771 z M 36.166923,42.441771 L 33.742923,42.441771 L 33.742923,46.809771 C 33.742923,47.065771 33.662923,47.265771 33.502923,47.409771 C 33.342923,47.545771 33.150923,47.613771 32.926923,47.613771 C 32.710923,47.613771 32.522923,47.545771 32.362923,47.409771 C 32.202923,47.265771 32.122923,47.065771 32.122923,46.809771 L 32.122923,42.441771 L 29.686923,42.441771 C 29.430923,42.441771 29.230923,42.361771 29.086923,42.201771 C 28.942923,42.041771 28.870923,41.849771 28.870923,41.625771 C 28.870923,41.401771 28.942923,41.209771 29.086923,41.049771 C 29.230923,40.889771 29.430923,40.809771 29.686923,40.809771 L 36.166923,40.809771 C 36.422923,40.809771 36.622923,40.889771 36.766923,41.049771 C 36.910923,41.209771 36.982923,41.401771 36.982923,41.625771 C 36.982923,41.849771 36.910923,42.041771 36.766923,42.201771 C 36.622923,42.361771 36.422923,42.441771 36.166923,42.441771 z "
     id="path867" />
</svg>
