<?xml version="1.0" encoding="UTF-8" standalone="no"?>
<!DOCTYPE svg PUBLIC "-//W3C//DTD SVG 20010904//EN"
"http://www.w3.org/TR/2001/REC-SVG-20010904/DTD/svg10.dtd">
<!-- Created with Inkscape (http://www.inkscape.org/) -->
<svg
   version="1.0"
   x="0"
   y="0"
   width="48pt"
   height="48pt"
   id="svg1"
   xmlns="http://www.w3.org/2000/svg"
   xmlns:xlink="http://www.w3.org/1999/xlink"
   xmlns:sodipodi="http://sodipodi.sourceforge.net/DTD/sodipodi-0.dtd"
   xmlns:inkscape="http://www.inkscape.org/namespaces/inkscape"
   sodipodi:version="0.32"
   inkscape:version="0.37"
   sodipodi:docname="gnome-fs-server.svg"
   sodipodi:docbase="/home/dan/Projects/Lila-icons/scalable/filesystems">
  <sodipodi:namedview
     id="base"
     pagecolor="#ffffff"
     bordercolor="#666666"
     borderopacity="1.0"
     inkscape:pageopacity="0.0"
     inkscape:pageshadow="2"
     inkscape:zoom="4.91194112"
     inkscape:cx="28.2477742"
     inkscape:cy="24.0101788"
     inkscape:window-width="640"
     inkscape:window-height="500"
     inkscape:window-x="36"
     inkscape:window-y="167" />
  <defs
     id="defs3">
    <linearGradient
       id="linearGradient570">
      <stop
         style="stop-color:#ffffff;stop-opacity:1;"
         offset="0"
         id="stop571" />
      <stop
         style="stop-color:#ffffff;stop-opacity:0;"
         offset="1"
         id="stop572" />
    </linearGradient>
    <linearGradient
       id="linearGradient563">
      <stop
         style="stop-color:#d9cce6;stop-opacity:1;"
         offset="0.00000000"
         id="stop564" />
      <stop
         style="stop-color:#73667f;stop-opacity:1;"
         offset="1.00000000"
         id="stop565" />
    </linearGradient>
    <linearGradient
       x1="0.00000000"
       y1="0.01562500"
       x2="0.98275864"
       y2="0.99218750"
       id="linearGradient566"
       xlink:href="#linearGradient563" />
    <linearGradient
       x1="-0.000000"
       y1="0.027779"
       x2="0.992727"
       y2="0.972222"
       id="linearGradient569"
       xlink:href="#linearGradient570" />
    <linearGradient
       x1="0.027027"
       y1="0.015625"
       x2="0.864865"
       y2="0.984375"
       id="linearGradient573"
       xlink:href="#linearGradient570" />
    <linearGradient
       x1="-0.023529"
       y1="0.000000"
       x2="0.917647"
       y2="0.960938"
       id="linearGradient575"
       xlink:href="#linearGradient570" />
    <linearGradient
       id="linearGradient578"
       xlink:href="#linearGradient570" />
  </defs>
  <path
     d="M 9.6630593 55.19794 C 10.501536 56.430664 18.62755 60.295829 22.988578 59.453143 C 34.080621 57.309787 55.031362 47.718156 56.022367 46.239608 C 56.95292 44.963159 57.15481 9.6538053 56.470299 8.3907007 C 55.958321 7.2611019 41.570566 5.6558734 40.345336 5.8151316 C 38.770407 6.0404294 9.843811 10.731439 9.1031495 11.862033 C 8.3323749 13.110666 9.0264771 54.209608 9.6630593 55.19794 z "
     style="font-size:12;opacity:0.302675;fill-rule:evenodd;stroke-width:12.5;"
     id="path716" />
  <path
     d="M 7.1798002 52.657523 C 8.0182784 53.890246 16.144334 57.755411 20.505361 56.912726 C 31.597403 54.769368 52.548156 45.177738 53.539147 43.699189 C 54.469701 42.42274 54.671589 7.1134289 53.987079 5.8502835 C 53.4751 4.7207344 39.087349 3.1155061 37.862119 3.2747643 C 36.28719 3.5000621 7.3605518 8.1911019 6.6198605 9.3216147 C 5.8491892 10.570248 6.5432809 51.669189 7.1798002 52.657523 z "
     style="font-size:12;fill:url(#linearGradient566);fill-rule:evenodd;stroke:#261933;stroke-width:1.875;stroke-opacity:1;stroke-dasharray:none;"
     id="path616" />
  <path
     d="M 20.953288 55.00914 C 20.610157 54.704089 21.106839 15.749738 21.737159 14.584654 C 22.294604 13.459295 50.955154 7.7836558 51.299619 8.0898463 C 51.627053 8.3809064 25.233637 13.428502 23.752728 16.37626 C 21.84329 20.043944 21.282047 55.30136 20.953288 55.00914 z "
     style="font-size:12;opacity:0.990000;fill:url(#linearGradient575);fill-rule:evenodd;stroke:none;stroke-width:0.102641pt;"
     id="path618" />
  <path
     d="M 9.867301 10.105488 C 9.9427422 9.8789568 28.737199 5.7341754 38.198065 4.954429 C 42.324043 4.614368 50.701426 6.5250161 50.627735 6.7460961 C 50.552081 6.9729339 42.017349 5.9464888 37.750138 6.2981786 C 28.430506 7.0662853 9.7935013 10.326885 9.867301 10.105488 z "
     style="font-size:12;opacity:0.990000;fill:url(#linearGradient569);fill-rule:evenodd;stroke:none;stroke-width:0.102641pt;"
     id="path619" />
  <ellipse
     cx="410.204895"
     cy="422.408997"
     rx="11.720139"
     ry="11.720139"
     transform="matrix(0.149299,0.000000,0.000000,0.149299,-47.89606,-15.96460)"
     style="font-size:12;fill:#80ff80;fill-rule:evenodd;stroke:#003f00;stroke-width:6.25;stroke-linecap:round;stroke-linejoin:round;"
     id="path722" />
  <path
     d="M 9.6433377 16.37626 C 8.9588828 16.438461 9.0555105 18.789974 9.7553193 19.175701 C 11.967036 20.394978 16.193909 21.38988 18.377707 21.191372 C 19.068073 21.128657 19.070536 18.77386 18.377707 18.391931 C 16.159114 17.168857 11.833089 16.177238 9.6433377 16.37626 z "
     style="font-size:12;opacity:0.498153;fill:none;fill-rule:evenodd;stroke:#261933;stroke-width:1.875;stroke-opacity:1;stroke-dasharray:none;"
     id="path712" />
  <path
     d="M 9.4193744 23.319024 C 8.7349196 23.381225 8.8315052 25.732739 9.5313561 26.118466 C 11.743072 27.337743 15.969945 28.332645 18.153743 28.134137 C 18.844108 28.071422 18.846572 25.716624 18.153743 25.334696 C 15.93515 24.111622 11.609125 23.120004 9.4193744 23.319024 z "
     style="font-size:12;opacity:0.498153;fill:none;fill-rule:evenodd;stroke:#261933;stroke-width:1.875;stroke-dasharray:none;stroke-opacity:1;"
     id="path713" />
  <path
     d="M 9.3073913 29.925743 C 8.6229379 29.987944 8.7195237 32.339456 9.4193744 32.725183 C 11.63109 33.94446 15.857964 34.939362 18.041762 34.740855 C 18.732127 34.678141 18.734591 32.323343 18.041762 31.941414 C 15.823168 30.718339 11.497143 29.726721 9.3073913 29.925743 z "
     style="font-size:12;opacity:0.498153;fill:none;fill-rule:evenodd;stroke:#261933;stroke-width:1.875;stroke-dasharray:none;stroke-opacity:1;"
     id="path714" />
  <path
     d="M 9.083428 36.868507 C 8.3989747 36.930708 8.4955604 39.282222 9.1954097 39.66795 C 11.407126 40.887225 15.634001 41.882128 17.817799 41.68362 C 18.508164 41.620906 18.510628 39.266107 17.817799 38.88418 C 15.599206 37.661104 11.273179 36.669486 9.083428 36.868507 z "
     style="font-size:12;opacity:0.498153;fill:none;fill-rule:evenodd;stroke:#261933;stroke-width:1.875;stroke-dasharray:none;stroke-opacity:1;"
     id="path715" />
  <path
     d="M 8.4114978 51.649688 C 8.1572549 50.984776 7.3111813 11.89658 7.9636731 11.001341 C 8.3923035 10.259551 19.120831 14.22818 19.385543 14.920599 C 19.606016 15.49724 10.20571 12.066245 9.4193744 14.808618 C 8.0927955 19.546954 8.6425427 52.253834 8.4114978 51.649688 z "
     style="font-size:12;opacity:0.990000;fill:url(#linearGradient573);fill-rule:evenodd;stroke:none;stroke-width:0.102641pt;"
     id="path617" />
</svg>
