<?xml version="1.0" encoding="UTF-8" standalone="no"?>
<!DOCTYPE svg PUBLIC "-//W3C//DTD SVG 20010904//EN"
"http://www.w3.org/TR/2001/REC-SVG-20010904/DTD/svg10.dtd">
<!-- Created with Inkscape (http://www.inkscape.org/) -->
<svg
   id="svg1"
   sodipodi:version="0.32"
   inkscape:version="0.38.1"
   width="48pt"
   height="48pt"
   sodipodi:docbase="/root/Desktop/mimes"
   sodipodi:docname="gnome-mime-audio-midi.svg"
   xmlns="http://www.w3.org/2000/svg"
   xmlns:inkscape="http://www.inkscape.org/namespaces/inkscape"
   xmlns:sodipodi="http://sodipodi.sourceforge.net/DTD/sodipodi-0.dtd"
   xmlns:xlink="http://www.w3.org/1999/xlink">
  <defs
     id="defs3">
    <linearGradient
       id="linearGradient596">
      <stop
         style="stop-color:#d9cce6;stop-opacity:1;"
         offset="0.00000000"
         id="stop597" />
      <stop
         style="stop-color:#73667f;stop-opacity:1;"
         offset="1.00000000"
         id="stop598" />
    </linearGradient>
    <linearGradient
       id="linearGradient866">
      <stop
         style="stop-color:#ffffff;stop-opacity:1;"
         offset="0.00000000"
         id="stop867" />
      <stop
         style="stop-color:#d9cce6;stop-opacity:1;"
         offset="1.00000000"
         id="stop868" />
    </linearGradient>
    <linearGradient
       id="linearGradient584">
      <stop
         style="stop-color:#ffffff;stop-opacity:1;"
         offset="0.00000000"
         id="stop585" />
      <stop
         style="stop-color:#ffffff;stop-opacity:0;"
         offset="1.00000000"
         id="stop586" />
    </linearGradient>
    <linearGradient
       xlink:href="#linearGradient866"
       id="linearGradient586"
       x1="-0.00000000"
       y1="0.01562500"
       x2="0.99122804"
       y2="0.98437500" />
    <linearGradient
       xlink:href="#linearGradient584"
       id="linearGradient587"
       x1="0.00000000"
       y1="-0.00000000"
       x2="1.00000000"
       y2="1.00000000" />
    <linearGradient
       xlink:href="#linearGradient866"
       id="linearGradient588" />
    <linearGradient
       xlink:href="#linearGradient596"
       id="linearGradient599"
       x1="-0.00000000"
       y1="0.00000000"
       x2="1.00000000"
       y2="0.00000000" />
    <linearGradient
       xlink:href="#linearGradient596"
       id="linearGradient602" />
  </defs>
  <sodipodi:namedview
     id="base"
     pagecolor="#ffffff"
     bordercolor="#666666"
     borderopacity="1.0"
     inkscape:pageopacity="0.0"
     inkscape:pageshadow="2"
     inkscape:zoom="8.2898551"
     inkscape:cx="42.384916"
     inkscape:cy="29.499985"
     inkscape:window-width="1018"
     inkscape:window-height="711"
     inkscape:window-x="0"
     inkscape:window-y="30" />
  <path
     d="M 4.4389304 48.086315 C 5.2483181 50.50443 38.765774 61.377487 40.966438 59.55288 C 42.936267 57.902492 57.675565 8.7785888 56.688667 6.8303779 C 55.662821 4.6824777 21.657054 -0.6675724 20.042945 0.80153134 C 18.054709 2.621752 3.5888672 45.311841 4.4389304 48.086315 z "
     style="font-size:12;opacity:0.302675;fill-rule:evenodd;stroke-width:12.5;"
     id="path639" />
  <path
     d="M 4.5541516 46.08493 C 5.3114351 48.34726 36.66955 58.519843 38.728432 56.812781 C 40.571358 55.268717 54.36111 9.3095333 53.437795 7.4867937 C 52.478034 5.477268 20.663028 0.47192513 19.152904 1.8463842 C 17.292759 3.5493405 3.7588508 43.489198 4.5541516 46.08493 z "
     style="font-size:12;fill:url(#linearGradient586);fill-rule:evenodd;stroke:#261933;stroke-width:1.87726;"
     id="path634" />
  <path
     d="M 6.6876568 43.965773 C 6.360392 43.13667 19.363758 4.5872629 20.579427 3.7922731 C 22.09876 2.7554118 46.659814 7.3454032 46.98631 8.172561 C 47.28557 8.9306762 27.823671 5.3906629 23.493845 9.2635774 C 15.189619 16.482895 6.9861475 44.721984 6.6876568 43.965773 z "
     style="font-size:12;opacity:0.699936;fill:url(#linearGradient587);fill-rule:evenodd;stroke:none;stroke-width:0.100121pt;"
     id="path640" />
  <rect
     style="font-size:12;fill:url(#linearGradient588);fill-opacity:0.75;fill-rule:evenodd;stroke:#261933;stroke-width:0.946154;"
     id="rect585"
     width="4.75975267"
     height="26.04225611"
     x="26.67350679"
     y="5.86900826"
     ry="0.86807520"
     transform="matrix(0.963560,0.267492,-0.295816,0.955245,0.000000,0.000000)" />
  <rect
     style="font-size:12;fill:url(#linearGradient588);fill-opacity:0.75;fill-rule:evenodd;stroke:#261933;stroke-width:0.946154;"
     id="rect589"
     width="4.75975267"
     height="26.04225611"
     x="31.43325565"
     y="5.86900826"
     ry="0.86807520"
     transform="matrix(0.963560,0.267492,-0.295816,0.955245,0.000000,0.000000)" />
  <rect
     style="font-size:12;fill:url(#linearGradient588);fill-opacity:0.75;fill-rule:evenodd;stroke:#261933;stroke-width:0.946154;"
     id="rect590"
     width="4.75975267"
     height="26.04225611"
     x="36.19301404"
     y="5.86900826"
     ry="0.86807520"
     transform="matrix(0.963560,0.267492,-0.295816,0.955245,0.000000,0.000000)" />
  <rect
     style="font-size:12;fill:url(#linearGradient588);fill-opacity:0.75;fill-rule:evenodd;stroke:#261933;stroke-width:0.946154;"
     id="rect591"
     width="4.75975267"
     height="26.04225611"
     x="40.95276291"
     y="5.86900826"
     ry="0.86807520"
     transform="matrix(0.963560,0.267492,-0.295816,0.955245,0.000000,0.000000)" />
  <rect
     style="font-size:12;fill:url(#linearGradient588);fill-opacity:0.75;fill-rule:evenodd;stroke:#261933;stroke-width:0.946154;"
     id="rect592"
     width="4.75975267"
     height="26.04225611"
     x="45.71251558"
     y="5.86900826"
     ry="0.86807520"
     transform="matrix(0.963560,0.267492,-0.295816,0.955245,0.000000,0.000000)" />
  <rect
     style="font-size:12;fill:url(#linearGradient588);fill-opacity:0.75;fill-rule:evenodd;stroke:#261933;stroke-width:0.946154;"
     id="rect593"
     width="4.75975267"
     height="26.04225611"
     x="21.91375601"
     y="5.86900826"
     ry="0.86807520"
     transform="matrix(0.963560,0.267492,-0.295816,0.955245,0.000000,0.000000)" />
  <rect
     style="font-size:12;fill-rule:evenodd;stroke:#261933;stroke-width:0.973187;"
     id="rect595"
     width="4.75975267"
     height="14.32324067"
     x="24.02919594"
     y="5.86900733"
     ry="0.47744140"
     transform="matrix(0.963560,0.267492,-0.295816,0.955245,0.000000,0.000000)" />
  <rect
     style="font-size:12;fill-rule:evenodd;stroke:#261933;stroke-width:0.973187;"
     id="rect600"
     width="4.75975267"
     height="14.32324067"
     x="34.07756079"
     y="5.86900733"
     ry="0.47744140"
     transform="matrix(0.963560,0.267492,-0.295816,0.955245,0.000000,0.000000)" />
  <rect
     style="font-size:12;fill-rule:evenodd;stroke:#261933;stroke-width:0.973187;"
     id="rect601"
     width="4.75975267"
     height="14.32324067"
     x="43.59706995"
     y="5.86900733"
     ry="0.47744140"
     transform="matrix(0.963560,0.267492,-0.295816,0.955245,0.000000,0.000000)" />
  <rect
     style="fill:#000000;fill-opacity:0.30000001;fill-rule:evenodd;stroke:none;stroke-width:1.0000000pt;stroke-opacity:1.0000000;"
     id="rect937"
     x="28.226574"
     y="39.395287"
     rx="0.70483023"
     width="30.710464"
     height="12.888113" />
  <rect
     style="fill:#d9cce6;fill-opacity:0.80000001;fill-rule:evenodd;stroke:#261933;stroke-width:1.2500000;stroke-dasharray:none;"
     id="rect862"
     x="26.323563"
     y="37.806450"
     rx="0.69999999"
     width="30.500000"
     height="12.750523" />
  <text
     xml:space="preserve"
     style="fill:black;fill-opacity:1;stroke:none;font-family:helvetica;font-style:normal;font-weight:normal;font-size:12px;stroke-opacity:1;stroke-width:1pt;stroke-linejoin:miter;stroke-linecap:butt;"
     x="32.536951"
     y="45.961130"
     id="text863"><tspan
       id="tspan864"></tspan></text>
  <path
     style="font-size:12.000000;stroke-width:1.0000000pt;font-family:Radio Stars;"
     d="M 51.422423,46.668703 C 51.422423,47.212703 51.154423,47.484703 50.618423,47.484703 L 43.334423,47.484703 L 43.334423,40.668703 L 44.942423,40.668703 C 46.886423,40.668703 48.442423,41.192703 49.610423,42.240703 C 50.818423,43.320703 51.422423,44.796703 51.422423,46.668703 z M 49.814423,45.852703 C 49.798423,45.372703 49.630423,44.884703 49.310423,44.388703 C 49.030423,43.964703 48.674423,43.584703 48.242423,43.248703 C 47.402423,42.616703 46.502423,42.300703 45.542423,42.300703 L 44.942423,42.300703 L 44.942423,45.852703 L 49.814423,45.852703 z M 42.434423,46.668703 C 42.434423,46.924703 42.354423,47.124703 42.194423,47.268703 C 42.034423,47.404703 41.846423,47.472703 41.630423,47.472703 C 41.414423,47.472703 41.226423,47.404703 41.066423,47.268703 C 40.906423,47.124703 40.826423,46.924703 40.826423,46.668703 L 40.826423,41.484703 C 40.826423,41.228703 40.906423,41.032703 41.066423,40.896703 C 41.226423,40.752703 41.414423,40.680703 41.630423,40.680703 C 41.846423,40.680703 42.034423,40.752703 42.194423,40.896703 C 42.354423,41.032703 42.434423,41.228703 42.434423,41.484703 L 42.434423,46.668703 z M 39.938423,46.668703 C 39.938423,46.924703 39.858423,47.124703 39.698423,47.268703 C 39.538423,47.404703 39.350423,47.472703 39.134423,47.472703 C 38.918423,47.472703 38.730423,47.404703 38.570423,47.268703 C 38.410423,47.124703 38.330423,46.924703 38.330423,46.668703 L 38.330423,44.304703 L 36.578423,47.100703 C 36.378423,47.428703 36.150423,47.592703 35.894423,47.592703 C 35.646423,47.592703 35.418423,47.428703 35.210423,47.100703 L 33.458423,44.304703 L 33.458423,46.668703 C 33.458423,46.924703 33.378423,47.124703 33.218423,47.268703 C 33.066423,47.404703 32.878423,47.472703 32.654423,47.472703 C 32.438423,47.472703 32.250423,47.404703 32.090423,47.268703 C 31.930423,47.124703 31.850423,46.924703 31.850423,46.668703 L 31.850423,41.484703 C 31.850423,41.196703 31.922423,40.968703 32.066423,40.800703 C 32.210423,40.632703 32.382423,40.548703 32.582423,40.548703 C 32.886423,40.548703 33.142423,40.716703 33.350423,41.052703 L 35.894423,45.144703 L 38.450423,41.052703 C 38.666423,40.716703 38.922423,40.548703 39.218423,40.548703 C 39.418423,40.548703 39.586423,40.632703 39.722423,40.800703 C 39.866423,40.968703 39.938423,41.196703 39.938423,41.484703 L 39.938423,46.668703 z "
     id="path890" />
</svg>
