<?xml version="1.0" encoding="UTF-8" standalone="no"?>
<!DOCTYPE svg PUBLIC "-//W3C//DTD SVG 20010904//EN"
"http://www.w3.org/TR/2001/REC-SVG-20010904/DTD/svg10.dtd">
<!-- Created with Inkscape (http://www.inkscape.org/) -->
<svg
   id="svg1"
   sodipodi:version="0.32"
   inkscape:version="0.38.1"
   width="48pt"
   height="48pt"
   sodipodi:docbase="/root/Desktop/mimes"
   sodipodi:docname="gnome-mime-application-x-nes-rom.svg"
   xmlns="http://www.w3.org/2000/svg"
   xmlns:inkscape="http://www.inkscape.org/namespaces/inkscape"
   xmlns:sodipodi="http://sodipodi.sourceforge.net/DTD/sodipodi-0.dtd"
   xmlns:xml="http://www.w3.org/XML/1998/namespace"
   xmlns:xlink="http://www.w3.org/1999/xlink">
  <defs
     id="defs3">
    <linearGradient
       id="linearGradient703">
      <stop
         style="stop-color:#d9cce6;stop-opacity:1;"
         offset="0.00000000"
         id="stop704" />
      <stop
         style="stop-color:#73667f;stop-opacity:1;"
         offset="1.00000000"
         id="stop705" />
    </linearGradient>
    <linearGradient
       id="linearGradient866">
      <stop
         style="stop-color:#ffffff;stop-opacity:1;"
         offset="0.00000000"
         id="stop867" />
      <stop
         style="stop-color:#d9cce6;stop-opacity:1;"
         offset="1.00000000"
         id="stop868" />
    </linearGradient>
    <linearGradient
       id="linearGradient584">
      <stop
         style="stop-color:#ffffff;stop-opacity:1;"
         offset="0.00000000"
         id="stop585" />
      <stop
         style="stop-color:#ffffff;stop-opacity:0;"
         offset="1.00000000"
         id="stop586" />
    </linearGradient>
    <linearGradient
       xlink:href="#linearGradient866"
       id="linearGradient586"
       x1="-0.00000000"
       y1="0.01562500"
       x2="0.99122804"
       y2="0.98437500" />
    <linearGradient
       xlink:href="#linearGradient584"
       id="linearGradient587"
       x1="0.00000000"
       y1="-0.00000000"
       x2="1.00000000"
       y2="1.00000000" />
    <linearGradient
       xlink:href="#linearGradient584"
       id="linearGradient700"
       x1="0.00000000"
       y1="-0.00000000"
       x2="0.98795182"
       y2="1.00000000" />
    <linearGradient
       xlink:href="#linearGradient703"
       id="linearGradient701"
       x1="-0.00000000"
       y1="-0.00000000"
       x2="0.99264705"
       y2="0.99218750" />
    <linearGradient
       xlink:href="#linearGradient703"
       id="linearGradient702"
       x1="-0.00000000"
       y1="0.00000000"
       x2="0.97457629"
       y2="0.96093750" />
    <linearGradient
       xlink:href="#linearGradient584"
       id="linearGradient845"
       x1="-0.00000000"
       y1="-0.00000000"
       x2="0.99635035"
       y2="0.97727275" />
    <radialGradient
       xlink:href="#linearGradient703"
       id="radialGradient846" />
    <linearGradient
       xlink:href="#linearGradient584"
       id="linearGradient847"
       x1="0.00000000"
       y1="-0.00000000"
       x2="0.98540145"
       y2="0.93902439" />
    <linearGradient
       xlink:href="#linearGradient703"
       id="linearGradient848"
       x1="0.01219511"
       y1="0.01562503"
       x2="0.99999994"
       y2="1.00000012" />
    <linearGradient
       xlink:href="#linearGradient584"
       id="linearGradient849"
       x1="0.00000000"
       y1="-0.00000000"
       x2="0.98514849"
       y2="1.02343750" />
    <linearGradient
       xlink:href="#linearGradient703"
       id="linearGradient850"
       x1="-0.00000000"
       y1="0.00000000"
       x2="1.00000000"
       y2="0.95652175" />
    <linearGradient
       xlink:href="#linearGradient584"
       id="linearGradient863"
       x1="-0.00000000"
       y1="-0.00000000"
       x2="0.99635035"
       y2="0.82142860" />
  </defs>
  <sodipodi:namedview
     id="base"
     pagecolor="#ffffff"
     bordercolor="#666666"
     borderopacity="1.0"
     inkscape:pageopacity="0.0"
     inkscape:pageshadow="2"
     inkscape:zoom="7.9794719"
     inkscape:cx="23.825571"
     inkscape:cy="25.500275"
     inkscape:window-width="640"
     inkscape:window-height="516"
     inkscape:window-x="24"
     inkscape:window-y="167" />
  <path
     d="M 4.4389304 48.086315 C 5.2483181 50.50443 38.765774 61.377487 40.966438 59.55288 C 42.936267 57.902492 57.675565 8.7785888 56.688667 6.8303779 C 55.662821 4.6824777 21.657054 -0.6675724 20.042945 0.80153134 C 18.054709 2.621752 3.5888672 45.311841 4.4389304 48.086315 z "
     style="font-size:12;opacity:0.302675;fill-rule:evenodd;stroke-width:12.5;"
     id="path639" />
  <path
     d="M 4.5541516 46.08493 C 5.3114351 48.34726 36.66955 58.519843 38.728432 56.812781 C 40.571358 55.268717 54.36111 9.3095333 53.437795 7.4867937 C 52.478034 5.477268 20.663028 0.47192513 19.152904 1.8463842 C 17.292759 3.5493405 3.7588508 43.489198 4.5541516 46.08493 z "
     style="font-size:12;fill:url(#linearGradient586);fill-rule:evenodd;stroke:#261933;stroke-width:1.87726;"
     id="path634" />
  <path
     d="M 6.6876568 43.965773 C 6.360392 43.13667 19.363758 4.5872629 20.579427 3.7922731 C 22.09876 2.7554118 46.659814 7.3454032 46.98631 8.172561 C 47.28557 8.9306762 27.823671 5.3906629 23.493845 9.2635774 C 15.189619 16.482895 6.9861475 44.721984 6.6876568 43.965773 z "
     style="font-size:12;opacity:0.699936;fill:url(#linearGradient587);fill-rule:evenodd;stroke:none;stroke-width:0.100121pt;"
     id="path640" />
  <path
     d="M 23.726699 17.435835 C 22.520937 18.188061 17.141348 32.950566 17.704507 34.212128 C 18.136034 35.322111 32.812132 38.98617 33.907239 38.370392 C 34.914047 37.869912 40.49706 21.826756 39.786105 20.733797 C 39.178581 19.67738 24.882594 16.852214 23.726699 17.435835 z "
     style="font-size:12;fill:url(#linearGradient701);fill-rule:evenodd;stroke:#261933;stroke-width:1.875;stroke-dasharray:none;"
     id="path1009" />
  <path
     d="M 19.678716 32.998743 C 19.550867 32.56395 24.106953 20.111085 24.984019 19.376914 C 25.593262 19.010302 37.190986 21.535146 37.315311 21.957902 C 37.429921 22.347643 28.126877 20.060186 25.700994 21.814576 C 23.680499 23.37947 19.789801 33.376533 19.678716 32.998743 z "
     style="font-size:12;opacity:0.699936;fill-rule:evenodd;stroke:none;stroke-width:0.0751066pt;fill:url(#linearGradient700);"
     id="path1010" />
  <g
     id="g1023">
    <path
       d="M 36.909513 19.187029 C 37.092159 18.164964 38.876625 15.603016 39.002514 15.682696 C 39.137023 15.767783 38.868785 18.543757 38.473603 19.445891 C 38.379988 19.659619 36.863484 19.44541 36.909513 19.187029 z "
       style="font-size:12;fill:#261933;fill-rule:evenodd;stroke-width:1pt;fill-opacity:1;"
       id="path1019"
       sodipodi:nodetypes="cccc" />
    <path
       d="M 33.223405 17.840543 C 33.405867 16.818477 34.877212 14.334949 35.003195 14.414535 C 35.13752 14.499625 35.026026 17.43225 34.630751 18.334475 C 34.537136 18.548112 33.177377 18.098926 33.223405 17.840543 z "
       style="font-size:12;fill:#261933;fill-rule:evenodd;stroke-width:1pt;fill-opacity:1;"
       id="path1020"
       sodipodi:nodetypes="cccc" />
    <path
       d="M 28.989428 17.01701 C 29.171983 15.994945 30.72156 13.432998 30.847451 13.512676 C 30.981868 13.597763 30.713723 16.295411 30.31854 17.197545 C 30.224923 17.411275 28.943401 17.27539 28.989428 17.01701 z "
       style="font-size:12;fill:#261933;fill-rule:evenodd;stroke-width:1pt;fill-opacity:1;"
       id="path1021"
       sodipodi:nodetypes="cccc" />
    <path
       d="M 25.03632 16.397668 C 25.218692 15.375696 26.455149 12.735422 26.581039 12.815011 C 26.715364 12.900097 26.682289 15.911049 26.287013 16.813184 C 26.193399 17.02691 24.9902 16.65605 25.03632 16.397668 z "
       style="font-size:12;fill:#261933;fill-rule:evenodd;stroke-width:1pt;fill-opacity:1;"
       id="path1022"
       sodipodi:nodetypes="cccc" />
  </g>
  <g
     id="g1028"
     transform="matrix(-1.000000,0.000000,0.000000,-1.000000,57.09415,55.05427)">
    <path
       d="M 36.909513 19.187029 C 37.092159 18.164964 38.876625 15.603016 39.002514 15.682696 C 39.137023 15.767783 38.868785 18.543757 38.473603 19.445891 C 38.379988 19.659619 36.863484 19.44541 36.909513 19.187029 z "
       style="font-size:12;fill:#261933;fill-rule:evenodd;stroke-width:1pt;fill-opacity:1;"
       id="path1029"
       sodipodi:nodetypes="cccc" />
    <path
       d="M 33.223405 17.840543 C 33.405867 16.818477 34.877212 14.334949 35.003195 14.414535 C 35.13752 14.499625 35.026026 17.43225 34.630751 18.334475 C 34.537136 18.548112 33.177377 18.098926 33.223405 17.840543 z "
       style="font-size:12;fill:#261933;fill-rule:evenodd;stroke-width:1pt;fill-opacity:1;"
       id="path1030"
       sodipodi:nodetypes="cccc" />
    <path
       d="M 28.989428 17.01701 C 29.171983 15.994945 30.72156 13.432998 30.847451 13.512676 C 30.981868 13.597763 30.713723 16.295411 30.31854 17.197545 C 30.224923 17.411275 28.943401 17.27539 28.989428 17.01701 z "
       style="font-size:12;fill:#261933;fill-rule:evenodd;stroke-width:1pt;fill-opacity:1;"
       id="path1031"
       sodipodi:nodetypes="cccc" />
    <path
       d="M 25.03632 16.397668 C 25.218692 15.375696 26.455149 12.735422 26.581039 12.815011 C 26.715364 12.900097 26.682289 15.911049 26.287013 16.813184 C 26.193399 17.02691 24.9902 16.65605 25.03632 16.397668 z "
       style="font-size:12;fill:#261933;fill-rule:evenodd;stroke-width:1pt;fill-opacity:1;"
       id="path1032"
       sodipodi:nodetypes="cccc" />
  </g>
  <g
     id="g1033"
     transform="matrix(-0.567025,0.823701,0.823701,0.567025,22.79302,-11.08083)">
    <path
       d="M 36.909513 19.187029 C 37.092159 18.164964 38.876625 15.603016 39.002514 15.682696 C 39.137023 15.767783 38.868785 18.543757 38.473603 19.445891 C 38.379988 19.659619 36.863484 19.44541 36.909513 19.187029 z "
       style="font-size:12;fill:#261933;fill-rule:evenodd;stroke-width:1pt;fill-opacity:1;"
       id="path1034"
       sodipodi:nodetypes="cccc" />
    <path
       d="M 33.223405 17.840543 C 33.405867 16.818477 34.877212 14.334949 35.003195 14.414535 C 35.13752 14.499625 35.026026 17.43225 34.630751 18.334475 C 34.537136 18.548112 33.177377 18.098926 33.223405 17.840543 z "
       style="font-size:12;fill:#261933;fill-rule:evenodd;stroke-width:1pt;fill-opacity:1;"
       id="path1035"
       sodipodi:nodetypes="cccc" />
    <path
       d="M 28.989428 17.01701 C 29.171983 15.994945 30.72156 13.432998 30.847451 13.512676 C 30.981868 13.597763 30.713723 16.295411 30.31854 17.197545 C 30.224923 17.411275 28.943401 17.27539 28.989428 17.01701 z "
       style="font-size:12;fill:#261933;fill-rule:evenodd;stroke-width:1pt;fill-opacity:1;"
       id="path1036"
       sodipodi:nodetypes="cccc" />
    <path
       d="M 25.03632 16.397668 C 25.218692 15.375696 26.455149 12.735422 26.581039 12.815011 C 26.715364 12.900097 26.682289 15.911049 26.287013 16.813184 C 26.193399 17.02691 24.9902 16.65605 25.03632 16.397668 z "
       style="font-size:12;fill:#261933;fill-rule:evenodd;stroke-width:1pt;fill-opacity:1;"
       id="path1037"
       sodipodi:nodetypes="cccc" />
  </g>
  <g
     id="g1038"
     transform="matrix(0.508740,-0.860921,-0.860921,-0.508740,37.18807,66.56238)">
    <path
       d="M 36.909513 19.187029 C 37.092159 18.164964 38.876625 15.603016 39.002514 15.682696 C 39.137023 15.767783 38.868785 18.543757 38.473603 19.445891 C 38.379988 19.659619 36.863484 19.44541 36.909513 19.187029 z "
       style="font-size:12;fill:#261933;fill-rule:evenodd;stroke-width:1pt;fill-opacity:1;"
       id="path1039"
       sodipodi:nodetypes="cccc" />
    <path
       d="M 33.223405 17.840543 C 33.405867 16.818477 34.877212 14.334949 35.003195 14.414535 C 35.13752 14.499625 35.026026 17.43225 34.630751 18.334475 C 34.537136 18.548112 33.177377 18.098926 33.223405 17.840543 z "
       style="font-size:12;fill:#261933;fill-rule:evenodd;stroke-width:1pt;fill-opacity:1;"
       id="path1040"
       sodipodi:nodetypes="cccc" />
    <path
       d="M 28.989428 17.01701 C 29.171983 15.994945 30.72156 13.432998 30.847451 13.512676 C 30.981868 13.597763 30.713723 16.295411 30.31854 17.197545 C 30.224923 17.411275 28.943401 17.27539 28.989428 17.01701 z "
       style="font-size:12;fill:#261933;fill-rule:evenodd;stroke-width:1pt;fill-opacity:1;"
       id="path1041"
       sodipodi:nodetypes="cccc" />
    <path
       d="M 25.03632 16.397668 C 25.218692 15.375696 26.455149 12.735422 26.581039 12.815011 C 26.715364 12.900097 26.682289 15.911049 26.287013 16.813184 C 26.193399 17.02691 24.9902 16.65605 25.03632 16.397668 z "
       style="font-size:12;fill:#261933;fill-rule:evenodd;stroke-width:1pt;fill-opacity:1;"
       id="path1042"
       sodipodi:nodetypes="cccc" />
  </g>
  <rect
     style="fill:#000000;fill-opacity:0.30000001;fill-rule:evenodd;stroke:none;stroke-width:1.0000000pt;stroke-opacity:1.0000000;"
     id="rect937"
     x="28.226574"
     y="39.395287"
     rx="0.70483023"
     width="30.710464"
     height="12.888113" />
  <rect
     style="fill:#d9cce6;fill-opacity:0.80000001;fill-rule:evenodd;stroke:#261933;stroke-width:1.2500000;stroke-dasharray:none;"
     id="rect862"
     x="26.323563"
     y="37.806450"
     rx="0.69999999"
     width="30.500000"
     height="12.750523" />
  <text
     xml:space="preserve"
     style="fill:black;fill-opacity:1;stroke:none;font-family:helvetica;font-style:normal;font-weight:normal;font-size:12px;stroke-opacity:1;stroke-width:1pt;stroke-linejoin:miter;stroke-linecap:butt;"
     x="32.536951"
     y="45.961130"
     id="text863"><tspan
       id="tspan864"></tspan></text>
  <path
     style="font-size:12.000000;stroke-width:1.0000000pt;font-family:Radio Stars;"
     d="M 54.454005,46.651843 C 54.454005,47.195843 54.186005,47.467843 53.650005,47.467843 L 47.170005,47.467843 C 46.914005,47.467843 46.714005,47.387843 46.570005,47.227843 C 46.426005,47.067843 46.354005,46.875843 46.354005,46.651843 C 46.354005,46.427843 46.426005,46.235843 46.570005,46.075843 C 46.714005,45.915843 46.914005,45.835843 47.170005,45.835843 L 52.846005,45.835843 L 52.846005,44.875843 L 47.170005,44.875843 C 46.634005,44.875843 46.366005,44.603843 46.366005,44.059843 L 46.366005,41.467843 C 46.366005,40.923843 46.634005,40.651843 47.170005,40.651843 L 53.650005,40.651843 C 53.906005,40.651843 54.106005,40.731843 54.250005,40.891843 C 54.394005,41.051843 54.466005,41.243843 54.466005,41.467843 C 54.466005,41.691843 54.394005,41.883843 54.250005,42.043843 C 54.106005,42.203843 53.906005,42.283843 53.650005,42.283843 L 47.974005,42.283843 L 47.974005,43.243843 L 53.650005,43.243843 C 54.186005,43.243843 54.454005,43.515843 54.454005,44.059843 L 54.454005,46.651843 z M 44.962005,47.467843 L 38.482005,47.467843 C 37.938005,47.467843 37.666005,47.195843 37.666005,46.651843 L 37.666005,41.467843 C 37.666005,40.923843 37.938005,40.651843 38.482005,40.651843 L 44.962005,40.651843 C 45.218005,40.651843 45.414005,40.731843 45.550005,40.891843 C 45.694005,41.051843 45.766005,41.243843 45.766005,41.467843 C 45.766005,41.691843 45.694005,41.883843 45.550005,42.043843 C 45.414005,42.203843 45.218005,42.283843 44.962005,42.283843 L 39.286005,42.283843 L 39.286005,43.243843 L 44.962005,43.243843 C 45.218005,43.243843 45.414005,43.323843 45.550005,43.483843 C 45.694005,43.643843 45.766005,43.835843 45.766005,44.059843 C 45.766005,44.283843 45.694005,44.475843 45.550005,44.635843 C 45.414005,44.795843 45.218005,44.875843 44.962005,44.875843 L 39.286005,44.875843 L 39.286005,45.835843 L 44.962005,45.835843 C 45.218005,45.835843 45.414005,45.915843 45.550005,46.075843 C 45.694005,46.235843 45.766005,46.427843 45.766005,46.651843 C 45.766005,46.875843 45.694005,47.067843 45.550005,47.227843 C 45.414005,47.387843 45.218005,47.467843 44.962005,47.467843 z M 36.778005,46.651843 C 36.778005,47.259843 36.562005,47.563843 36.130005,47.563843 C 35.922005,47.563843 35.706005,47.475843 35.482005,47.299843 L 30.298005,43.159843 L 30.298005,46.651843 C 30.298005,46.907843 30.218005,47.107843 30.058005,47.251843 C 29.906005,47.387843 29.718005,47.455843 29.494005,47.455843 C 29.278005,47.455843 29.090005,47.387843 28.930005,47.251843 C 28.770005,47.107843 28.690005,46.907843 28.690005,46.651843 L 28.690005,41.467843 C 28.690005,40.859843 28.910005,40.555843 29.350005,40.555843 C 29.558005,40.555843 29.778005,40.643843 30.010005,40.819843 L 35.170005,44.971843 L 35.170005,41.467843 C 35.170005,41.211843 35.250005,41.015843 35.410005,40.879843 C 35.570005,40.735843 35.758005,40.663843 35.974005,40.663843 C 36.190005,40.663843 36.378005,40.735843 36.538005,40.879843 C 36.698005,41.015843 36.778005,41.211843 36.778005,41.467843 L 36.778005,46.651843 z "
     id="path887" />
</svg>
