<?xml version="1.0" encoding="UTF-8" standalone="no"?>
<!DOCTYPE svg PUBLIC "-//W3C//DTD SVG 20010904//EN"
"http://www.w3.org/TR/2001/REC-SVG-20010904/DTD/svg10.dtd">
<!-- Created with Sodipodi ("http://www.sodipodi.com/") -->
<svg
   id="svg1"
   sodipodi:version="0.32"
   inkscape:version="0.38.1"
   width="48pt"
   height="48pt"
   sodipodi:docbase="/root/Desktop/mimes"
   sodipodi:docname="gnome-mime-text-x-lyx.svg"
   xmlns="http://www.w3.org/2000/svg"
   xmlns:inkscape="http://www.inkscape.org/namespaces/inkscape"
   xmlns:sodipodi="http://sodipodi.sourceforge.net/DTD/sodipodi-0.dtd"
   xmlns:xlink="http://www.w3.org/1999/xlink">
  <defs
     id="defs3">
    <linearGradient
       id="linearGradient642">
      <stop
         style="stop-color:#d9cce6;stop-opacity:1;"
         offset="0.00000000"
         id="stop643" />
      <stop
         style="stop-color:#73667f;stop-opacity:1;"
         offset="1.00000000"
         id="stop644" />
    </linearGradient>
    <linearGradient
       id="linearGradient866">
      <stop
         style="stop-color:#ffffff;stop-opacity:1;"
         offset="0.00000000"
         id="stop867" />
      <stop
         style="stop-color:#d9cce6;stop-opacity:1;"
         offset="1.00000000"
         id="stop868" />
    </linearGradient>
    <linearGradient
       id="linearGradient584">
      <stop
         style="stop-color:#ffffff;stop-opacity:1;"
         offset="0.00000000"
         id="stop585" />
      <stop
         style="stop-color:#ffffff;stop-opacity:0;"
         offset="1.00000000"
         id="stop586" />
    </linearGradient>
    <linearGradient
       xlink:href="#linearGradient866"
       id="linearGradient586"
       x1="-0.00000000"
       y1="0.01562500"
       x2="0.99122804"
       y2="0.98437500" />
    <linearGradient
       xlink:href="#linearGradient584"
       id="linearGradient587"
       x1="0.00000000"
       y1="-0.00000000"
       x2="1.00000000"
       y2="1.00000000" />
    <linearGradient
       xlink:href="#linearGradient642"
       id="linearGradient638"
       x1="0.00000000"
       y1="0.00000000"
       x2="1.00000000"
       y2="0.00000000" />
    <radialGradient
       xlink:href="#linearGradient642"
       id="radialGradient639"
       cx="0.50000000"
       cy="0.50000000"
       r="0.50000000"
       fx="0.50000000"
       fy="0.50000000" />
    <linearGradient
       xlink:href="#linearGradient584"
       id="linearGradient640"
       x1="-0.00000000"
       y1="0.00000000"
       x2="0.98275864"
       y2="1.00000000" />
    <linearGradient
       xlink:href="#linearGradient642"
       id="linearGradient641"
       x1="0.01515152"
       y1="0.02343750"
       x2="0.98484850"
       y2="0.98437500" />
    <linearGradient
       xlink:href="#linearGradient642"
       id="linearGradient645"
       x1="0.01428571"
       y1="0.01562500"
       x2="1.00000000"
       y2="1.00781250" />
  </defs>
  <sodipodi:namedview
     id="base"
     pagecolor="#ffffff"
     bordercolor="#666666"
     borderopacity="1.0"
     inkscape:pageopacity="0.0"
     inkscape:pageshadow="2"
     inkscape:zoom="10.101639"
     inkscape:cx="22.549482"
     inkscape:cy="34.881606"
     inkscape:window-width="987"
     inkscape:window-height="835"
     inkscape:window-x="36"
     inkscape:window-y="117"
     showguides="true"
     snaptoguides="true"
     showgrid="false" />
  <path
     d="M 4.4389304 48.086315 C 5.2483181 50.50443 38.765774 61.377487 40.966438 59.55288 C 42.936267 57.902492 57.675565 8.7785888 56.688667 6.8303779 C 55.662821 4.6824777 21.657054 -0.6675724 20.042945 0.80153134 C 18.054709 2.621752 3.5888672 45.311841 4.4389304 48.086315 z "
     style="font-size:12;opacity:0.302675;fill-rule:evenodd;stroke-width:12.5;"
     id="path639" />
  <path
     d="M 4.5541516 46.08493 C 5.3114351 48.34726 36.66955 58.519843 38.728432 56.812781 C 40.571358 55.268717 54.36111 9.3095333 53.437795 7.4867937 C 52.478034 5.477268 20.663028 0.47192513 19.152904 1.8463842 C 17.292759 3.5493405 3.7588508 43.489198 4.5541516 46.08493 z "
     style="font-size:12;fill:url(#linearGradient586);fill-rule:evenodd;stroke:#261933;stroke-width:1.87726;"
     id="path634" />
  <path
     d="M 6.6876568 43.965773 C 6.360392 43.13667 19.363758 4.5872629 20.579427 3.7922731 C 22.09876 2.7554118 46.659814 7.3454032 46.98631 8.172561 C 47.28557 8.9306762 27.823671 5.3906629 23.493845 9.2635774 C 15.189619 16.482895 6.9861475 44.721984 6.6876568 43.965773 z "
     style="font-size:12;opacity:0.699936;fill:url(#linearGradient587);fill-rule:evenodd;stroke:none;stroke-width:0.100121pt;"
     id="path640" />
  <path
     style="font-size:12;fill:#261933;fill-rule:evenodd;stroke-width:1pt;"
     d="M 21.171243,4.4010775 C 30.262180,6.0741645 41.061956,8.2887475 49.698069,10.413741 C 50.298551,10.568916 50.027946,11.509563 49.395500,11.408907 C 40.229549,9.8430915 29.618756,7.2762835 20.837381,5.2435925 C 20.270233,5.1054295 20.575040,4.2983795 21.171243,4.4010775 z "
     id="path627" />
  <path
     d="M 19.881140,7.8301814 C 28.972077,9.5031704 39.771853,11.717753 48.407966,13.842746 C 49.008439,13.997912 48.737843,14.938568 48.105397,14.837903 C 38.939446,13.272097 28.328654,10.705387 19.547278,8.6725984 C 18.980128,8.5344354 19.284933,7.7273854 19.881140,7.8301814 z "
     style="font-size:12;fill:#261933;fill-rule:evenodd;stroke-width:1pt;fill-opacity:1;"
     id="path1233" />
  <path
     d="M 14.065026 26.323567 C 15.049304 25.916151 25.108591 28.358872 25.97666 29.09364 C 26.721814 29.843262 23.7031 40.011371 22.791113 40.728446 C 21.963944 41.495277 11.18807 38.194489 10.463804 37.404146 C 9.8443783 36.836899 13.079677 26.870023 14.065026 26.323567 z "
     style="font-size:12;fill-rule:evenodd;stroke:#261933;stroke-width:1.25;fill:url(#linearGradient645);stroke-dasharray:none;stroke-opacity:1;"
     id="path1236" />
  <path
     d="M 9.2186364 41.618479 C 18.177333 43.895728 28.804842 46.827485 37.279557 49.525267 C 37.868283 49.720187 37.535397 50.640724 36.911107 50.497986 C 27.8704 48.322664 17.455011 45.052193 8.8292194 42.436802 C 8.2726002 42.260935 8.6306044 41.476135 9.2186364 41.618479 z "
     style="font-size:12;fill:#261933;fill-rule:evenodd;stroke-width:1pt;fill-opacity:1;"
     id="path1237" />
  <path
     d="M 28.089161 32.058379 C 32.64143 32.732119 37.927491 33.827072 42.190505 35.036283 C 42.485401 35.120044 42.075944 35.983645 41.762881 35.937203 C 37.227911 35.266077 31.926494 34.097865 27.646191 32.883695 C 27.368585 32.804992 27.793299 32.01456 28.089161 32.058379 z "
     style="font-size:12;fill:#261933;fill-rule:evenodd;stroke-width:1pt;fill-opacity:1;"
     id="path1238" />
  <path
     d="M 27.111162 35.180331 C 31.66343 35.854081 36.949491 36.949025 41.212496 38.158244 C 41.507392 38.241996 41.097944 39.105598 40.784882 39.059156 C 36.249902 38.388039 30.948486 37.219827 26.668182 36.005656 C 26.390585 35.926954 26.81529 35.136513 27.111162 35.180331 z "
     style="font-size:12;fill:#261933;fill-rule:evenodd;stroke-width:1pt;fill-opacity:1;"
     id="path1239" />
  <path
     d="M 12.360267 36.371482 C 12.167784 35.959115 13.931716 28.480721 15.058732 27.82641 C 16.27669 27.182208 23.86507 29.671478 24.053481 30.075097 C 24.21487 30.421002 18.135842 28.98326 16.108112 30.075097 C 14.238077 31.082019 12.517578 36.708639 12.360267 36.371482 z "
     style="font-size:12;opacity:0.699936;fill-rule:evenodd;stroke:none;stroke-width:0.0971644pt;fill:url(#linearGradient640);"
     id="path1240" />
  <path
     style="font-size:12.000000;stroke-width:1.0000000pt;font-family:helvetica;"
     d=""
     id="path936" />
  <path
     d="M 25.87374 38.397631 C 30.426008 39.071381 35.712069 40.166325 39.975074 41.375544 C 40.26997 41.459296 39.860522 42.322898 39.54746 42.276456 C 35.01248 41.605339 29.711064 40.437127 25.43076 39.222956 C 25.153163 39.144254 25.577868 38.353813 25.87374 38.397631 z "
     style="font-size:12;fill:#261933;fill-rule:evenodd;stroke-width:1pt;fill-opacity:1;"
     id="path618" />
  <path
     style="font-size:12.000000;stroke-width:1.0000000pt;font-family:helvetica;"
     d=""
     id="path935" />
  <rect
     style="fill:#000000;fill-opacity:0.30000001;fill-rule:evenodd;stroke:none;stroke-width:1.0000000pt;stroke-opacity:1.0000000;"
     id="rect937"
     x="28.226574"
     y="39.395287"
     rx="0.70483023"
     width="30.710464"
     height="12.888113" />
  <rect
     style="fill:#d9cce6;fill-opacity:0.80000001;fill-rule:evenodd;stroke:#261933;stroke-width:1.2500000;stroke-dasharray:none;"
     id="rect862"
     x="26.323563"
     y="37.806450"
     rx="0.69999999"
     width="30.500000"
     height="12.750523" />
  <path
     style="font-size:12.000000;stroke-width:1.0000000pt;font-family:helvetica;"
     d=""
     id="path934" />
  <path
     style="font-size:12.000000;stroke-width:1.0000000pt;font-family:Radio Stars;"
     d="M 53.376470,46.038028 C 53.584470,46.206028 53.688470,46.414028 53.688470,46.662028 C 53.688470,46.886028 53.604470,47.086028 53.436470,47.262028 C 53.276470,47.430028 53.088470,47.514028 52.872470,47.514028 C 52.696470,47.514028 52.528470,47.454028 52.368470,47.334028 L 49.620470,45.138028 C 49.132470,45.530028 48.224470,46.262028 46.896470,47.334028 C 46.736470,47.454028 46.568470,47.514028 46.392470,47.514028 C 46.168470,47.514028 45.972470,47.430028 45.804470,47.262028 C 45.644470,47.086028 45.564470,46.886028 45.564470,46.662028 C 45.564470,46.422028 45.672470,46.214028 45.888470,46.038028 L 48.324470,44.094028 L 45.888470,42.138028 C 45.680470,41.970028 45.576470,41.762028 45.576470,41.514028 C 45.576470,41.298028 45.656470,41.102028 45.816470,40.926028 C 45.976470,40.750028 46.168470,40.662028 46.392470,40.662028 C 46.568470,40.662028 46.736470,40.726028 46.896470,40.854028 C 47.808470,41.590028 48.716470,42.326028 49.620470,43.062028 L 52.368470,40.854028 C 52.528470,40.734028 52.696470,40.674028 52.872470,40.674028 C 53.088470,40.674028 53.276470,40.762028 53.436470,40.938028 C 53.604470,41.106028 53.688470,41.302028 53.688470,41.526028 C 53.688470,41.766028 53.584470,41.970028 53.376470,42.138028 L 50.928470,44.094028 C 51.368470,44.446028 52.184470,45.094028 53.376470,46.038028 z M 44.772470,42.138028 L 41.832470,44.490028 L 41.832470,46.686028 C 41.832470,46.934028 41.752470,47.130028 41.592470,47.274028 C 41.432470,47.418028 41.244470,47.490028 41.028470,47.490028 C 40.804470,47.490028 40.620470,47.422028 40.476470,47.286028 C 40.308470,47.134028 40.224470,46.934028 40.224470,46.686028 L 40.224470,44.490028 L 37.284470,42.138028 C 37.068470,41.962028 36.960470,41.754028 36.960470,41.514028 C 36.960470,41.290028 37.044470,41.094028 37.212470,40.926028 C 37.372470,40.750028 37.564470,40.662028 37.788470,40.662028 C 37.964470,40.662028 38.132470,40.726028 38.292470,40.854028 C 39.196470,41.582028 40.104470,42.314028 41.016470,43.050028 L 43.764470,40.854028 C 43.916470,40.726028 44.084470,40.662028 44.268470,40.662028 C 44.484470,40.662028 44.672470,40.750028 44.832470,40.926028 C 45.000470,41.102028 45.084470,41.298028 45.084470,41.514028 C 45.084470,41.762028 44.980470,41.970028 44.772470,42.138028 z M 36.576470,47.502028 L 30.096470,47.502028 C 29.560470,47.502028 29.292470,47.230028 29.292470,46.686028 L 29.292470,41.502028 C 29.292470,41.246028 29.372470,41.050028 29.532470,40.914028 C 29.692470,40.770028 29.880470,40.698028 30.096470,40.698028 C 30.312470,40.698028 30.500470,40.770028 30.660470,40.914028 C 30.820470,41.050028 30.900470,41.246028 30.900470,41.502028 L 30.900470,45.870028 L 36.576470,45.870028 C 36.816470,45.870028 37.000470,45.950028 37.128470,46.110028 C 37.264470,46.270028 37.332470,46.462028 37.332470,46.686028 C 37.332470,46.910028 37.264470,47.102028 37.128470,47.262028 C 37.000470,47.422028 36.816470,47.502028 36.576470,47.502028 z "
     id="path893" />
  <path
     style="font-size:14.000000;stroke-width:1.0000000pt;font-family:Times New Roman;"
     d="M 25.272530,21.139080 L 25.505360,21.259928 L 23.841079,23.717707 L 15.952528,21.507058 L 16.032241,21.235368 L 16.415376,21.342755 C 16.846146,21.463457 17.194369,21.412719 17.460121,21.190530 C 17.611260,21.063381 17.770130,20.715899 17.936741,20.148063 L 19.821726,13.723462 C 20.004151,13.101795 20.048194,12.693012 19.953896,12.497053 C 19.821758,12.226952 19.562871,12.037842 19.177213,11.929775 L 18.794035,11.822399 L 18.873748,11.550730 L 23.486675,12.843432 L 23.406962,13.115111 C 22.867471,12.958626 22.472457,12.900895 22.221920,12.941937 C 21.976388,12.984382 21.790562,13.072686 21.664476,13.206870 C 21.538379,13.341034 21.388449,13.704298 21.214652,14.296568 L 19.379227,20.552307 C 19.259994,20.958583 19.218208,21.248839 19.253814,21.423034 C 19.283774,21.542674 19.354163,21.644512 19.465023,21.728546 C 19.575884,21.812590 19.959360,21.946547 20.615486,22.130407 L 21.359269,22.338857 C 22.140614,22.557807 22.705575,22.655209 23.054162,22.631062 C 23.402728,22.606905 23.748899,22.489369 24.092621,22.278433 C 24.437818,22.062629 24.831100,21.682831 25.272530,21.139080 z "
     id="path933" />
  <path
     style="font-size:14.000000;stroke-width:1.0000000pt;font-family:Times New Roman;"
     d="M 32.753035,18.009879 L 36.213719,19.027919 L 36.136104,19.305612 L 35.945860,19.249669 C 35.819056,19.212371 35.617626,19.215371 35.341562,19.258731 C 35.065509,19.302051 34.797430,19.401925 34.537294,19.558252 C 34.277179,19.714579 33.932954,19.992405 33.504619,20.391708 L 30.031679,23.553427 L 29.318372,26.105420 C 29.143542,26.730912 29.102746,27.141308 29.195953,27.336607 C 29.322559,27.601289 29.585843,27.792455 29.985815,27.910106 L 30.307743,28.004797 L 30.230128,28.282520 L 26.015834,27.042832 L 26.093449,26.765109 L 26.444641,26.868422 C 26.864120,26.991808 27.198020,26.949234 27.446352,26.740678 C 27.598412,26.612118 27.754167,26.262625 27.913614,25.692187 L 28.587060,23.282796 L 27.056966,18.218833 C 26.874896,17.623730 26.742834,17.246439 26.660739,17.086887 C 26.583502,16.928784 26.388893,16.709075 26.076912,16.427759 C 25.993348,16.349050 25.858884,16.282382 25.673540,16.227878 L 25.751176,15.950175 L 29.994703,17.198497 L 29.917088,17.476200 L 29.697590,17.411654 C 29.468355,17.344201 29.240778,17.336802 29.014912,17.389500 C 28.793913,17.443636 28.652639,17.580788 28.591099,17.800967 C 28.540745,17.981092 28.598591,18.350117 28.764660,18.908003 L 29.918431,22.797160 L 32.741556,20.232227 C 33.165683,19.847946 33.409922,19.540700 33.474264,19.310531 C 33.513423,19.170419 33.511817,19.034552 33.469406,18.902982 C 33.431894,18.772769 33.355685,18.658292 33.240769,18.559509 C 33.127258,18.455716 32.938809,18.365077 32.675399,18.287603 L 32.753035,18.009879 z "
     id="path932" />
  <path
     style="font-size:14.000000;stroke-width:1.0000000pt;font-family:Times New Roman;"
     d="M 40.849402,21.825675 L 42.061197,25.517938 C 42.397742,26.539271 42.673299,27.203655 42.887869,27.511110 C 43.108674,27.815178 43.433870,28.040475 43.863455,28.187031 L 43.786264,28.451040 L 39.551811,27.260219 L 39.629012,26.996200 C 39.911720,27.070564 40.128638,27.100667 40.279757,27.086539 C 40.394114,27.072380 40.495365,27.031342 40.583448,26.963444 C 40.677788,26.892171 40.738163,26.811319 40.764593,26.720929 C 40.796584,26.611524 40.806738,26.495968 40.795076,26.374282 C 40.784766,26.283861 40.712585,26.037051 40.578512,25.633810 L 39.631122,22.680020 L 36.805416,24.696277 C 36.506495,24.910812 36.321276,25.059520 36.249812,25.142392 C 36.179730,25.220490 36.130091,25.309493 36.100876,25.409390 C 36.056361,25.561608 36.084995,25.706093 36.186735,25.842816 C 36.288506,25.979538 36.521606,26.106896 36.886078,26.224819 L 36.808877,26.488848 L 33.309270,25.504666 L 33.386461,25.240657 C 33.640795,25.286418 33.868813,25.296497 34.070537,25.270862 C 34.407425,25.231742 34.742276,25.145728 35.075110,25.012810 C 35.407914,24.879882 35.812244,24.646078 36.288038,24.311397 L 39.459103,22.083370 L 38.332231,18.747037 C 38.024673,17.841973 37.720659,17.221056 37.420179,16.884283 C 37.121091,16.542768 36.733525,16.297355 36.257503,16.148034 L 36.334683,15.884035 L 40.896557,17.166920 L 40.819355,17.430959 C 40.427144,17.336101 40.142295,17.322922 39.964798,17.391410 C 39.792135,17.461246 39.686352,17.562785 39.647398,17.695978 C 39.595930,17.871984 39.637244,18.161608 39.771307,18.564839 L 40.635820,21.209603 L 43.025569,19.526344 C 43.304400,19.326764 43.479559,19.185543 43.551023,19.102671 C 43.627341,19.021176 43.680107,18.930469 43.709313,18.830572 C 43.738528,18.730665 43.735161,18.634480 43.699200,18.541999 C 43.655652,18.421639 43.583668,18.326750 43.483227,18.257313 C 43.384179,18.183142 43.160744,18.094537 42.812892,17.991580 L 42.890082,17.727571 L 46.389689,18.711742 L 46.312509,18.975741 C 46.031859,18.912281 45.793801,18.891665 45.598324,18.913913 C 45.304401,18.949657 45.021184,19.029612 44.748672,19.153757 C 44.476160,19.277902 44.068016,19.533781 43.524250,19.921425 L 40.849402,21.825675 z "
     id="path931" />
</svg>
