<?xml version="1.0" encoding="UTF-8" standalone="no"?>
<!DOCTYPE svg PUBLIC "-//W3C//DTD SVG 20010904//EN"
"http://www.w3.org/TR/2001/REC-SVG-20010904/DTD/svg10.dtd">
<!-- Created with Inkscape (http://www.inkscape.org/) -->
<svg
   id="svg1"
   sodipodi:version="0.32"
   inkscape:version="0.38"
   width="48pt"
   height="48pt"
   sodipodi:docbase="/home/dan/Projects/Lila-icons/scalable/mimetypes"
   sodipodi:docname="gnome-mime-audio-x-wav.svg"
   xmlns="http://www.w3.org/2000/svg"
   xmlns:inkscape="http://www.inkscape.org/namespaces/inkscape"
   xmlns:sodipodi="http://sodipodi.sourceforge.net/DTD/sodipodi-0.dtd"
   xmlns:xlink="http://www.w3.org/1999/xlink">
  <defs
     id="defs3">
    <linearGradient
       id="linearGradient642">
      <stop
         style="stop-color:#d9cce6;stop-opacity:1;"
         offset="0.00000000"
         id="stop643" />
      <stop
         style="stop-color:#73667f;stop-opacity:1;"
         offset="1.00000000"
         id="stop644" />
    </linearGradient>
    <linearGradient
       id="linearGradient866">
      <stop
         style="stop-color:#ffffff;stop-opacity:1;"
         offset="0.00000000"
         id="stop867" />
      <stop
         style="stop-color:#d9cce6;stop-opacity:1;"
         offset="1.00000000"
         id="stop868" />
    </linearGradient>
    <linearGradient
       id="linearGradient584">
      <stop
         style="stop-color:#ffffff;stop-opacity:1;"
         offset="0.00000000"
         id="stop585" />
      <stop
         style="stop-color:#ffffff;stop-opacity:0;"
         offset="1.00000000"
         id="stop586" />
    </linearGradient>
    <linearGradient
       xlink:href="#linearGradient866"
       id="linearGradient586"
       x1="-0.00000000"
       y1="0.01562500"
       x2="0.99122804"
       y2="0.98437500" />
    <linearGradient
       xlink:href="#linearGradient584"
       id="linearGradient587"
       x1="0.00000000"
       y1="-0.00000000"
       x2="1.00000000"
       y2="1.00000000" />
    <linearGradient
       xlink:href="#linearGradient584"
       id="linearGradient638"
       x1="0.00000000"
       y1="-0.00000000"
       x2="0.99253732"
       y2="1.00000000" />
    <radialGradient
       xlink:href="#linearGradient866"
       id="radialGradient639" />
    <linearGradient
       xlink:href="#linearGradient584"
       id="linearGradient640"
       x1="-0.00000000"
       y1="0.00000000"
       x2="1.00000000"
       y2="0.99218750" />
    <linearGradient
       xlink:href="#linearGradient642"
       id="linearGradient641"
       x1="0.00000000"
       y1="0.00000000"
       x2="0.96666664"
       y2="0.98437500" />
    <linearGradient
       xlink:href="#linearGradient584"
       id="linearGradient645"
       x1="0.01492537"
       y1="0.00781250"
       x2="0.97761196"
       y2="0.97656250" />
  </defs>
  <sodipodi:namedview
     id="base"
     pagecolor="#ffffff"
     bordercolor="#666666"
     borderopacity="1.0"
     inkscape:pageopacity="0.0"
     inkscape:pageshadow="2"
     inkscape:zoom="7.9794719"
     inkscape:cx="25.584432"
     inkscape:cy="23.892887"
     inkscape:window-width="704"
     inkscape:window-height="586"
     inkscape:window-x="96"
     inkscape:window-y="207"
     showguides="true"
     snaptoguides="true" />
  <path
     d="M 4.4389304 48.086315 C 5.2483181 50.50443 38.765774 61.377487 40.966438 59.55288 C 42.936267 57.902492 57.675565 8.7785888 56.688667 6.8303779 C 55.662821 4.6824777 21.657054 -0.6675724 20.042945 0.80153134 C 18.054709 2.621752 3.5888672 45.311841 4.4389304 48.086315 z "
     style="font-size:12;opacity:0.302675;fill-rule:evenodd;stroke-width:12.5;"
     id="path639" />
  <path
     d="M 4.5541516 46.08493 C 5.3114351 48.34726 36.66955 58.519843 38.728432 56.812781 C 40.571358 55.268717 54.36111 9.3095333 53.437795 7.4867937 C 52.478034 5.477268 20.663028 0.47192513 19.152904 1.8463842 C 17.292759 3.5493405 3.7588508 43.489198 4.5541516 46.08493 z "
     style="font-size:12;fill:url(#linearGradient586);fill-rule:evenodd;stroke:#261933;stroke-width:1.87726;"
     id="path634" />
  <path
     d="M 6.6876568 43.965773 C 6.360392 43.13667 19.363758 4.5872629 20.579427 3.7922731 C 22.09876 2.7554118 46.659814 7.3454032 46.98631 8.172561 C 47.28557 8.9306762 27.823671 5.3906629 23.493845 9.2635774 C 15.189619 16.482895 6.9861475 44.721984 6.6876568 43.965773 z "
     style="font-size:12;opacity:0.699936;fill:url(#linearGradient587);fill-rule:evenodd;stroke:none;stroke-width:0.100121pt;"
     id="path640" />
  <path
     style="font-size:12;fill:#000000;fill-rule:evenodd;stroke:none;stroke-width:1.875;stroke-dasharray:none;fill-opacity:1;opacity:0.302675;"
     d="M 38.672197 27.425876 C 38.962934 24.549151 37.582872 23.643078 35.929987 23.460363 C 32.135663 23.096526 27.879104 22.091818 27.714907 24.471385 C 27.095344 27.705434 26.689459 29.796452 26.067969 35.098139 C 25.772346 37.333912 26.892668 43.833096 21.995267 44.283162 C 16.991947 44.743317 14.332422 41.175518 15.740656 37.748561 C 17.721943 33.053165 22.726954 36.042658 23.239477 34.28681 C 24.752484 28.95246 24.541203 22.814489 25.76433 17.370646 C 25.812297 17.157154 26.45636 16.941726 26.831249 16.890039 C 27.812771 16.65287 39.720367 17.625075 40.48295 18.118197 C 40.857838 18.066511 41.38066 18.515108 41.530549 18.659156 C 42.790403 19.869919 42.031598 24.957836 41.799749 26.031392 C 41.180186 29.26544 40.747967 31.342455 40.126474 36.644142 C 39.830852 38.879915 40.977511 45.393102 36.08011 45.843168 C 31.076789 46.303323 28.417261 42.735525 29.825496 39.308567 C 31.806786 34.613171 36.785459 37.58866 37.297983 35.832814 C 38.054485 33.165638 38.38146 30.3026 38.672197 27.425876 z "
     id="path702"
     sodipodi:nodetypes="csccccccccccccccc" />
  <path
     style="font-size:12;fill-rule:evenodd;stroke:#261933;stroke-width:1.4592;fill:url(#linearGradient641);"
     d="M 36.775674 25.356941 C 37.066411 22.480216 35.686349 21.574143 34.033464 21.391429 C 30.23914 21.027592 25.982581 20.022884 25.818384 22.402451 C 25.198821 25.636499 24.792936 27.727518 24.171446 33.029204 C 23.875823 35.264977 24.996145 41.764162 20.098744 42.214228 C 15.095423 42.674383 12.435898 39.106584 13.844132 35.679627 C 15.82542 30.984231 20.830431 33.973724 21.342954 32.217875 C 22.85596 26.883526 22.64468 20.745555 23.867806 15.301712 C 23.915774 15.08822 24.559837 14.872792 24.934725 14.821105 C 25.916248 14.583936 37.823843 15.556141 38.586427 16.049262 C 38.961315 15.997576 39.484137 16.446174 39.634025 16.590221 C 40.893879 17.800985 40.135075 22.888901 39.903226 23.962457 C 39.283662 27.196505 38.851443 29.27352 38.229951 34.575208 C 37.934329 36.810981 39.080987 43.324168 34.183586 43.774234 C 29.180265 44.234388 26.520738 40.666591 27.928973 37.239633 C 29.910262 32.544237 34.888936 35.519726 35.40146 33.763879 C 36.157962 31.096704 36.484936 28.233665 36.775674 25.356941 z "
     id="path701"
     sodipodi:nodetypes="csccccccccccccccc" />
  <path
     style="fill:url(#linearGradient638);fill-rule:evenodd;stroke:none;stroke-opacity:1;stroke-width:1pt;stroke-linejoin:miter;stroke-linecap:butt;fill-opacity:1;"
     d="M 14.572288 38.741443 C 14.426218 38.568118 14.342065 36.753251 16.087758 35.022297 C 18.168296 33.031516 21.393659 35.137648 21.947269 33.409273 C 23.560369 28.616896 23.799723 21.402349 24.850046 16.070212 C 24.882162 15.907167 33.310888 16.046448 38.065771 17.071632 C 31.739682 16.434847 26.488163 16.732093 25.790216 17.181674 C 24.704667 17.859985 23.906786 29.027534 22.388156 33.773651 C 21.822662 35.502279 19.546455 33.855674 16.727954 35.774006 C 14.471344 37.273195 14.700953 38.894114 14.572288 38.741443 z "
     id="path698"
     sodipodi:nodetypes="cssscssss" />
  <path
     style="fill:url(#linearGradient640);fill-rule:evenodd;stroke:none;stroke-opacity:1;stroke-width:1pt;stroke-linejoin:miter;stroke-linecap:butt;fill-opacity:1;"
     d="M 28.64674 40.175696 C 28.500668 40.002368 28.416517 38.187501 30.162209 36.456547 C 32.242747 34.465767 35.468111 36.571897 36.02172 34.843523 C 37.63482 30.051146 36.962431 28.532719 38.012752 23.200583 C 38.076985 22.874491 38.901255 23.703633 38.741127 24.025166 C 37.245196 26.874926 37.981239 30.461784 36.462607 35.207902 C 35.897112 36.936529 33.620906 35.289925 30.802405 37.208256 C 28.545795 38.707445 28.775404 40.328364 28.64674 40.175696 z "
     id="path700"
     sodipodi:nodetypes="csssssss" />
  <rect
     style="fill:#000000;fill-opacity:0.30000001;fill-rule:evenodd;stroke:none;stroke-width:1.0000000pt;stroke-opacity:1.0000000;"
     id="rect937"
     x="28.226574"
     y="39.395287"
     rx="0.70483023"
     width="30.710464"
     height="12.888113" />
  <rect
     style="fill:#d9cce6;fill-opacity:0.80000001;fill-rule:evenodd;stroke:#261933;stroke-width:1.2500000;stroke-dasharray:none;"
     id="rect862"
     x="26.323563"
     y="37.806450"
     rx="0.69999999"
     width="30.500000"
     height="12.750523" />
  <text
     xml:space="preserve"
     style="fill:black;fill-opacity:1;stroke:none;font-family:helvetica;font-style:normal;font-weight:normal;font-size:12px;stroke-opacity:1;stroke-width:1pt;stroke-linejoin:miter;stroke-linecap:butt;"
     x="32.536951"
     y="45.961130"
     id="text863"><tspan
       id="tspan864"></tspan></text>
  <path
     style="font-size:12.000000;stroke-width:1.0000000pt;font-family:Radio Stars;"
     d="M 54.210745,41.955228 L 50.970745,47.151228 C 50.770745,47.479228 50.542745,47.643228 50.286745,47.643228 C 50.030745,47.643228 49.802745,47.479228 49.602745,47.151228 L 46.362745,41.955228 C 46.274745,41.811228 46.230745,41.667228 46.230745,41.523228 C 46.230745,41.299228 46.314745,41.111228 46.482745,40.959228 C 46.658745,40.799228 46.858745,40.719228 47.082745,40.719228 C 47.354745,40.719228 47.574745,40.847228 47.742745,41.103228 L 50.286745,45.195228 L 52.842745,41.103228 C 53.002745,40.847228 53.222745,40.719228 53.502745,40.719228 C 53.718745,40.719228 53.914745,40.799228 54.090745,40.959228 C 54.266745,41.119228 54.354745,41.307228 54.354745,41.523228 C 54.354745,41.667228 54.306745,41.811228 54.210745,41.955228 z M 43.398745,45.711228 L 40.206745,45.711228 L 39.258745,47.151228 C 39.090745,47.407228 38.866745,47.535228 38.586745,47.535228 C 38.362745,47.535228 38.166745,47.459228 37.998745,47.307228 C 37.830745,47.147228 37.746745,46.955228 37.746745,46.731228 C 37.746745,46.579228 37.790745,46.431228 37.878745,46.287228 L 40.722745,41.691228 C 41.090745,41.099228 41.450745,40.803228 41.802745,40.803228 C 42.042745,40.803228 42.258745,40.895228 42.450745,41.079228 C 42.570745,41.191228 42.722745,41.395228 42.906745,41.691228 L 45.738745,46.287228 C 45.826745,46.431228 45.870745,46.579228 45.870745,46.731228 C 45.870745,46.955228 45.782745,47.143228 45.606745,47.295228 C 45.438745,47.447228 45.246745,47.523228 45.030745,47.523228 C 44.750745,47.523228 44.526745,47.399228 44.358745,47.151228 L 43.398745,45.711228 z M 41.034745,44.283228 L 42.558745,44.283228 L 41.802745,43.059228 L 41.034745,44.283228 z M 36.510745,41.763228 L 34.890745,46.947228 C 34.738745,47.419228 34.478745,47.655228 34.110745,47.655228 C 33.742745,47.655228 33.486745,47.419228 33.342745,46.947228 L 32.490745,44.235228 L 31.638745,46.947228 C 31.494745,47.419228 31.238745,47.655228 30.870745,47.655228 C 30.510745,47.655228 30.254745,47.419228 30.102745,46.947228 L 28.482745,41.763228 C 28.450745,41.667228 28.434745,41.575228 28.434745,41.487228 C 28.434745,41.263228 28.518745,41.079228 28.686745,40.935228 C 28.862745,40.791228 29.058745,40.719228 29.274745,40.719228 C 29.658745,40.719228 29.910745,40.907228 30.030745,41.283228 L 30.870745,43.995228 L 31.722745,41.283228 C 31.866745,40.811228 32.122745,40.575228 32.490745,40.575228 C 32.858745,40.575228 33.114745,40.811228 33.258745,41.283228 L 34.122745,43.995228 L 34.962745,41.283228 C 35.082745,40.907228 35.330745,40.719228 35.706745,40.719228 C 35.930745,40.719228 36.126745,40.791228 36.294745,40.935228 C 36.462745,41.079228 36.546745,41.263228 36.546745,41.487228 C 36.546745,41.575228 36.534745,41.667228 36.510745,41.763228 z "
     id="path1242" />
</svg>
