<?xml version="1.0" encoding="UTF-8" standalone="no"?>
<!DOCTYPE svg PUBLIC "-//W3C//DTD SVG 20010904//EN"
"http://www.w3.org/TR/2001/REC-SVG-20010904/DTD/svg10.dtd">
<!-- Created with Inkscape (http://www.inkscape.org/) -->
<svg
   version="1.0"
   x="0"
   y="0"
   width="24.000000pt"
   height="24.000000pt"
   id="svg1"
   sodipodi:version="0.32"
   inkscape:version="0.37"
   sodipodi:docname="emblem-cvs-controlled.svg"
   sodipodi:docbase="/home/stefan/software/Lila-themes"
   xmlns="http://www.w3.org/2000/svg"
   xmlns:inkscape="http://www.inkscape.org/namespaces/inkscape"
   xmlns:sodipodi="http://sodipodi.sourceforge.net/DTD/sodipodi-0.dtd"
   xmlns:xlink="http://www.w3.org/1999/xlink">
  <sodipodi:namedview
     id="base"
     pagecolor="#ffffff"
     bordercolor="#666666"
     borderopacity="1.0"
     inkscape:pageopacity="0.0"
     inkscape:pageshadow="2"
     inkscape:zoom="22.6274169"
     inkscape:cx="15.6303659"
     inkscape:cy="6.18735700"
     inkscape:window-width="1269"
     inkscape:window-height="970"
     inkscape:window-x="0"
     inkscape:window-y="0"
     showgrid="false"
     snaptogrid="false"
     gridspacingx="1pt"
     gridspacingy="1pt"
     gridtolerance="1px" />
  <defs
     id="defs3">
    <linearGradient
       id="linearGradient1809">
      <stop
         style="stop-color:#d9cce6;stop-opacity:1.0000000;"
         offset="0.0000000"
         id="stop1810" />
      <stop
         style="stop-color:#ffffff;stop-opacity:1.0000000;"
         offset="1.0000000"
         id="stop1811" />
    </linearGradient>
    <linearGradient
       id="linearGradient570">
      <stop
         style="stop-color:#ffffff;stop-opacity:1;"
         offset="0"
         id="stop571" />
      <stop
         style="stop-color:#ffffff;stop-opacity:0;"
         offset="1"
         id="stop572" />
    </linearGradient>
    <linearGradient
       id="linearGradient563">
      <stop
         style="stop-color:#d9cce6;stop-opacity:1.0000000;"
         offset="0.0000000"
         id="stop564" />
      <stop
         style="stop-color:#73667f;stop-opacity:1.0000000;"
         offset="1.0000000"
         id="stop565" />
    </linearGradient>
    <linearGradient
       id="linearGradient566"
       xlink:href="#linearGradient1809"
       x1="-0.00000000"
       y1="0.00000000"
       x2="0.99616855"
       y2="0.99173552" />
    <linearGradient
       id="linearGradient569"
       xlink:href="#linearGradient563"
       x1="-0.00000000"
       y1="-0.00000000"
       x2="0.98974359"
       y2="0.99586779" />
    <linearGradient
       id="linearGradient573"
       xlink:href="#linearGradient570"
       x1="0.00000000"
       y1="0.00413223"
       x2="1.00000000"
       y2="0.99173552" />
    <linearGradient
       id="linearGradient578"
       xlink:href="#linearGradient570"
       x1="0.0073529412"
       y1="0.0078125000"
       x2="0.60740739"
       y2="0.67968750" />
    <radialGradient
       xlink:href="#linearGradient1809"
       id="radialGradient1812"
       cx="0.96874994"
       cy="0.96093750"
       r="1.3589708"
       fx="0.96874994"
       fy="0.96093750" />
    <linearGradient
       xlink:href="#linearGradient1809"
       id="linearGradient630"
       x1="-0.00000000"
       y1="-0.00000000"
       x2="0.99616855"
       y2="0.99173552" />
    <linearGradient
       xlink:href="#linearGradient563"
       id="linearGradient631"
       x1="-0.00000000"
       y1="-0.00000000"
       x2="0.99221790"
       y2="0.99586779" />
  </defs>
  <path
     style="font-size:12;fill:#000000;fill-opacity:1;fill-rule:evenodd;stroke:none;stroke-width:1pt;stroke-opacity:1;opacity:0.300000;"
     d="M 7.2166938 12.59183 C 9.4772629 10.163434 24.821084 12.537396 25.690382 15.223769 C 26.620181 18.097109 15.910873 29.740676 12.613985 29.27097 C 9.7529776 28.863364 5.1184638 14.845834 7.2166938 12.59183 z "
     id="path634"
     sodipodi:nodetypes="csss" />
  <path
     style="font-size:12;fill:url(#linearGradient566);fill-opacity:0.75;fill-rule:evenodd;stroke:#261933;stroke-width:1pt;stroke-opacity:1;"
     d="M 5.7038933 10.164901 C 7.9644624 7.7365063 23.308284 10.110468 24.177582 12.796841 C 25.107381 15.670181 14.398073 27.313748 11.101184 26.844042 C 8.2401771 26.436436 3.6056633 12.418906 5.7038933 10.164901 z "
     id="path632"
     sodipodi:nodetypes="csss" />
  <path
     style="font-size:12;fill:#000000;fill-opacity:1;fill-rule:evenodd;stroke:none;stroke-width:1pt;stroke-opacity:1;opacity:0.300000;"
     d="M 7.8792227 7.2320456 C 10.140109 4.80365 25.486087 7.1776117 26.355507 9.8639849 C 27.285436 12.737324 16.574624 24.380891 13.277272 23.911184 C 10.415862 23.503578 5.7806979 9.4860498 7.8792227 7.2320456 z "
     id="path633"
     sodipodi:nodetypes="csss" />
  <path
     style="font-size:12;fill:url(#linearGradient630);fill-opacity:0.75;fill-rule:evenodd;stroke:#261933;stroke-width:1.00007pt;"
     d="M 6.2286631 5.3463293 C 8.4895498 2.9179337 23.835527 5.2918954 24.704947 7.9782686 C 25.634876 10.851608 14.924065 22.495175 11.626713 22.025469 C 8.7653032 21.617862 4.1301383 7.6003335 6.2286631 5.3463293 z "
     id="path628"
     sodipodi:nodetypes="csss" />
  <path
     style="font-size:12;fill:#000000;fill-rule:evenodd;stroke:none;stroke-width:0.625;fill-opacity:1;opacity:0.300000;"
     d="M 8.7992103 7.630717 C 8.8114836 9.1500267 12.01428 19.081245 13.913983 18.370078 C 16.933702 17.23962 23.568462 3.4650754 23.557483 2.1058433 C 23.549682 1.1403463 17.509072 10.989189 14.161392 12.242419 C 12.589648 12.830814 8.7927046 6.825298 8.7992103 7.630717 z "
     id="path631"
     sodipodi:nodetypes="cssss" />
  <path
     style="fill:url(#linearGradient578);fill-rule:evenodd;stroke:none;stroke-opacity:1;stroke-width:1pt;stroke-linejoin:miter;stroke-linecap:butt;fill-opacity:0.75;"
     d="M 7.7892231 13.979612 C 7.4819972 13.722751 5.5346497 7.0653463 6.9053397 5.8313111 C 8.5822061 4.3216246 16.627503 5.4939581 16.931892 5.748447 C 17.189138 5.9635212 10.282454 5.7164981 8.5902425 7.2400004 C 7.2348982 8.4602198 8.0436315 14.192314 7.7892231 13.979612 z "
     id="path670"
     sodipodi:nodetypes="cssss" />
  <path
     style="font-size:12;fill:url(#linearGradient569);fill-rule:evenodd;stroke:#261933;stroke-width:0.8125;stroke-dasharray:none;"
     d="M 8.1549579 6.107114 C 8.1672317 7.6264237 11.370028 17.557642 13.26973 16.846475 C 16.28945 15.716017 22.92421 1.9414725 22.913231 0.58224038 C 22.90543 -0.38325667 16.86482 9.4655859 13.517139 10.718816 C 11.945395 11.307211 8.1484515 5.3016951 8.1549579 6.107114 z "
     id="path577"
     sodipodi:nodetypes="cssss" />
  <path
     style="fill:url(#linearGradient573);fill-rule:evenodd;stroke-width:1.0000000pt;"
     d="M 9.3474528 9.0044326 C 9.1735504 8.6961532 8.8628193 7.6810612 9.0819477 7.8384156 C 10.08135 8.5560757 11.661419 11.937666 13.003045 11.629477 C 16.100706 11.023492 19.431701 5.3848944 21.182519 3.5347203 C 21.554338 3.1270674 20.502967 5.3500715 20.176837 5.8448385 C 20.106986 5.9508052 20.163163 5.4669922 20.045776 5.5860992 C 17.734785 7.9308747 16.167949 12.25584 12.891696 13.236483 C 11.759036 13.560035 10.895494 10.429311 9.8171272 9.141672 C 9.7140802 9.0186281 9.4186094 9.1305713 9.3474528 9.0044326 z "
     id="path582"
     sodipodi:nodetypes="cssssssss" />
</svg>
