<?xml version="1.0" encoding="UTF-8" standalone="no"?>
<!DOCTYPE svg PUBLIC "-//W3C//DTD SVG 20010904//EN"
"http://www.w3.org/TR/2001/REC-SVG-20010904/DTD/svg10.dtd">
<!-- Created with Inkscape (http://www.inkscape.org/) -->
<svg
   version="1.0"
   x="0"
   y="0"
   width="24.000000pt"
   height="24.000000pt"
   id="svg611"
   sodipodi:version="0.32"
   inkscape:version="0.38.1"
   sodipodi:docname="emblem-multimedia.svg"
   sodipodi:docbase="/home/dan/svg-icons/lila/gnome/scalable/emblems"
   xmlns="http://www.w3.org/2000/svg"
   xmlns:inkscape="http://www.inkscape.org/namespaces/inkscape"
   xmlns:sodipodi="http://sodipodi.sourceforge.net/DTD/sodipodi-0.dtd"
   xmlns:xlink="http://www.w3.org/1999/xlink">
  <sodipodi:namedview
     id="base"
     pagecolor="#ffffff"
     bordercolor="#666666"
     borderopacity="1.0"
     inkscape:pageopacity="0.0"
     inkscape:pageshadow="2"
     inkscape:zoom="9.8238822"
     inkscape:cx="11.817906"
     inkscape:cy="13.609745"
     inkscape:window-width="640"
     inkscape:window-height="525"
     inkscape:window-x="132"
     inkscape:window-y="207" />
  <defs
     id="defs613">
    <linearGradient
       id="linearGradient923">
      <stop
         style="stop-color:#d9cce6;stop-opacity:1;"
         offset="0.00000000"
         id="stop925" />
      <stop
         style="stop-color:#f3e6ff;stop-opacity:1;"
         offset="1.00000000"
         id="stop924" />
    </linearGradient>
    <linearGradient
       id="linearGradient1535">
      <stop
         style="stop-color:#ffffff;stop-opacity:1;"
         offset="0"
         id="stop1537" />
      <stop
         style="stop-color:#ffffff;stop-opacity:0;"
         offset="1"
         id="stop1536" />
    </linearGradient>
    <linearGradient
       id="linearGradient1528">
      <stop
         style="stop-color:#d9cce6;stop-opacity:1;"
         offset="0.00000000"
         id="stop1530" />
      <stop
         style="stop-color:#73667f;stop-opacity:1;"
         offset="1.00000000"
         id="stop1529" />
    </linearGradient>
    <linearGradient
       id="linearGradient642">
      <stop
         style="stop-color:#ffffff;stop-opacity:1;"
         offset="0"
         id="stop643" />
      <stop
         style="stop-color:#ffffff;stop-opacity:0;"
         offset="1"
         id="stop644" />
    </linearGradient>
    <linearGradient
       id="linearGradient635">
      <stop
         style="stop-color:#e6cfff;stop-opacity:1;"
         offset="0"
         id="stop636" />
      <stop
         style="stop-color:#ffffff;stop-opacity:1;"
         offset="1"
         id="stop637" />
    </linearGradient>
    <linearGradient
       x1="0.87692308"
       y1="0.91406256"
       x2="0.00000000"
       y2="0.00781250"
       id="linearGradient638"
       xlink:href="#linearGradient923" />
    <linearGradient
       x1="0.02105273"
       y1="0.07031248"
       x2="0.99473679"
       y2="0.99218792"
       id="linearGradient641"
       xlink:href="#linearGradient1528" />
    <linearGradient
       x1="0.05833339"
       y1="0.07812505"
       x2="0.95833349"
       y2="0.97656256"
       id="linearGradient1522"
       xlink:href="#linearGradient1528" />
    <linearGradient
       x1="0.00847454"
       y1="0.03906249"
       x2="0.98305082"
       y2="0.98437500"
       id="linearGradient1527"
       xlink:href="#linearGradient1528" />
    <linearGradient
       x1="0.003637"
       y1="0.007812"
       x2="0.985455"
       y2="0.984375"
       id="linearGradient1532"
       xlink:href="#linearGradient1535" />
    <linearGradient
       x1="0.003639"
       y1="0.023751"
       x2="1.007273"
       y2="1.015872"
       id="linearGradient1534"
       xlink:href="#linearGradient642" />
    <linearGradient
       x1="0.010934"
       y1="0.000020"
       x2="1.000000"
       y2="0.991380"
       id="linearGradient1539"
       xlink:href="#linearGradient1535" />
    <linearGradient
       x1="0.007274"
       y1="0.026786"
       x2="0.978182"
       y2="0.964286"
       id="linearGradient1567"
       xlink:href="#linearGradient1535" />
    <linearGradient
       x1="0.973546"
       y1="0.953124"
       x2="0.005291"
       y2="-0.015625"
       id="linearGradient1042"
       xlink:href="#linearGradient1535" />
    <linearGradient
       x1="0.950420"
       y1="0.945312"
       x2="0.024794"
       y2="0.015625"
       id="linearGradient1044"
       xlink:href="#linearGradient1535" />
    <defs
       id="defs839">
      <linearGradient
         id="linearGradient983">
        <stop
           style="stop-color:#2ad700;stop-opacity:1;"
           offset="0"
           id="stop984" />
        <stop
           style="stop-color:#e5ffe5;stop-opacity:1;"
           offset="1"
           id="stop985" />
      </linearGradient>
      <linearGradient
         id="linearGradient843">
        <stop
           style="stop-color:#ffffff;stop-opacity:1;"
           offset="0"
           id="stop844" />
        <stop
           style="stop-color:#ffffff;stop-opacity:0;"
           offset="1"
           id="stop845" />
      </linearGradient>
      <linearGradient
         id="linearGradient846">
        <stop
           style="stop-color:#a673f3;stop-opacity:1;"
           offset="0"
           id="stop847" />
        <stop
           style="stop-color:#4c3f8c;stop-opacity:1;"
           offset="1"
           id="stop848" />
      </linearGradient>
      <linearGradient
         id="linearGradient849">
        <stop
           style="stop-color:#ffffff;stop-opacity:1;"
           offset="0"
           id="stop850" />
        <stop
           style="stop-color:#ffffff;stop-opacity:0;"
           offset="1"
           id="stop851" />
      </linearGradient>
      <linearGradient
         x1="0.000000"
         y1="0.000000"
         x2="1.000000"
         y2="0.000000"
         id="linearGradient852"
         xlink:href="#linearGradient923"
         gradientUnits="objectBoundingBox"
         spreadMethod="pad" />
      <linearGradient
         x1="0.015504"
         y1="0.015625"
         x2="1.015504"
         y2="0.984375"
         id="linearGradient855"
         xlink:href="#linearGradient635" />
      <linearGradient
         x1="-0.006803"
         y1="0.023438"
         x2="0.986395"
         y2="0.992188"
         id="linearGradient856"
         xlink:href="#linearGradient642" />
      <linearGradient
         x1="-0.000000"
         y1="0.000000"
         x2="1.000000"
         y2="0.000000"
         id="linearGradient857"
         xlink:href="#linearGradient642" />
      <linearGradient
         x1="0.010309"
         y1="0.023436"
         x2="1.000000"
         y2="0.992188"
         id="linearGradient858"
         xlink:href="#linearGradient642" />
      <linearGradient
         id="linearGradient859"
         xlink:href="#linearGradient1535" />
      <linearGradient
         x1="0.014564"
         y1="-0.000001"
         x2="0.989091"
         y2="1.000000"
         id="linearGradient860"
         xlink:href="#linearGradient1535" />
      <linearGradient
         x1="0.003631"
         y1="0.000003"
         x2="1.003636"
         y2="1.041666"
         id="linearGradient861"
         xlink:href="#linearGradient1535" />
      <linearGradient
         x1="0.003633"
         y1="0.008073"
         x2="0.996364"
         y2="0.975806"
         id="linearGradient862"
         xlink:href="#linearGradient1535" />
    </defs>
    <linearGradient
       x1="0.978904"
       y1="0.968750"
       x2="0.008439"
       y2="0.023437"
       id="linearGradient899"
       xlink:href="#linearGradient642" />
  </defs>
  <path
     d="M 2.1272934,24.584680 C 1.6313344,22.872964 7.9030952,20.664982 8.5949322,18.152744 C 9.2749559,15.683438 5.0854727,11.837385 6.2430227,9.6399986 C 8.0252773,6.2568000 13.449100,2.5770237 17.414483,1.4108769 C 18.438334,1.0809465 29.809389,4.9773788 29.952147,5.7737254 C 30.056146,7.8447049 21.508972,10.665022 19.760688,13.813633 C 18.830447,15.488937 22.690404,18.405256 21.916517,20.245471 C 20.436534,23.765162 16.162818,28.321996 12.999080,29.893300 C 12.347631,30.265548 2.3359247,25.210104 2.1272934,24.584680 z M 23.430574,7.8363524 C 23.372463,8.0639598 24.206649,8.5144880 24.564331,8.4495524 C 25.072466,8.3573683 25.940825,7.7067858 26.028173,7.3650939 C 26.085417,7.1412061 25.331801,6.6924565 24.998208,6.7530131 C 24.466037,6.8495274 23.517003,7.4984816 23.430574,7.8363524 z M 20.320107,9.7584113 C 20.243151,9.9803651 21.036696,10.499142 21.398555,10.464356 C 21.912646,10.415004 22.832398,9.8393389 22.948009,9.5061529 C 23.023792,9.2878660 22.310359,8.7776455 21.972846,8.8100386 C 21.434461,8.8616812 20.434496,9.4289937 20.320107,9.7584113 z M 17.268924,12.257356 C 17.258583,12.492043 18.167333,12.762329 18.504136,12.625583 C 18.982677,12.431334 19.699521,11.616805 19.715054,11.264470 C 19.725291,11.033654 18.895789,10.748648 18.581601,10.876127 C 18.080447,11.079543 17.284355,11.908993 17.268924,12.257356 z M 17.549905,16.475760 C 17.758160,16.584396 18.387607,15.875445 18.406248,15.512415 C 18.432832,14.996643 17.998192,14.002483 17.685532,13.839303 C 17.480744,13.732348 16.871412,14.363224 16.853993,14.701858 C 16.826187,15.242025 17.240758,16.314312 17.549905,16.475760 z M 19.194496,19.523125 C 19.402750,19.631758 20.032200,18.922811 20.050838,18.559779 C 20.077423,18.044008 19.642784,17.049848 19.330124,16.886667 C 19.125332,16.779713 18.516002,17.410588 18.498585,17.749224 C 18.470776,18.289389 18.885349,19.361676 19.194496,19.523125 z M 17.538650,22.377157 C 17.561366,22.610978 18.499043,22.751037 18.813334,22.568349 C 19.259891,22.308912 19.855266,21.401842 19.821195,21.050781 C 19.798937,20.820829 18.937656,20.655000 18.644449,20.825362 C 18.176806,21.097125 17.505037,22.030015 17.538650,22.377157 z M 15.124554,24.885321 C 15.102652,25.119244 15.996990,25.433943 16.340107,25.313951 C 16.827663,25.143539 17.583672,24.365322 17.616625,24.014108 C 17.638166,23.784106 16.823743,23.458510 16.503645,23.570454 C 15.993068,23.748912 15.157098,24.538079 15.124554,24.885321 z M 12.178388,27.278130 C 12.122774,27.506398 12.962003,27.947558 13.318921,27.878597 C 13.826033,27.780760 14.686960,27.120448 14.770486,26.777740 C 14.825186,26.553291 14.066631,26.112996 13.733647,26.177270 C 13.202596,26.279794 12.260997,26.939290 12.178388,27.278130 z M 15.115795,3.6402704 C 15.032878,3.8600590 15.812469,4.3997538 16.175093,4.3746246 C 16.690356,4.3390234 17.624977,3.7878709 17.749349,3.4578132 C 17.830836,3.2416735 17.131361,2.7126463 16.792980,2.7360833 C 16.253373,2.7734162 15.238791,3.3139436 15.115795,3.6402704 z M 12.231966,5.6587253 C 12.206451,5.8922412 13.095949,6.2206377 13.440847,6.1059441 C 13.931002,5.9430693 14.698775,5.1764148 14.737024,4.8257598 C 14.762083,4.5961150 13.952801,4.2581259 13.630970,4.3651297 C 13.117695,4.5357369 12.269756,5.3120434 12.231966,5.6587253 z M 9.3780877,8.0289187 C 9.3525722,8.2624337 10.242069,8.5908344 10.586968,8.4761375 C 11.077123,8.3132635 11.844896,7.5466088 11.883145,7.1959537 C 11.908204,6.9663104 11.098920,6.6282843 10.777092,6.7352897 C 10.263817,6.9059058 9.4158776,7.6822373 9.3780877,8.0289187 z M 7.8756437,11.366433 C 7.9605965,11.585435 8.9013280,11.467072 9.1546053,11.206359 C 9.5145797,10.835943 9.8427740,9.8018030 9.7151970,9.4729480 C 9.6316171,9.2575632 8.7576049,9.3304440 8.5212875,9.5736857 C 8.1443522,9.9616221 7.7494401,11.041293 7.8756437,11.366433 z M 9.2768382,15.229293 C 9.4903887,15.327130 10.082504,14.586603 10.082402,14.223115 C 10.082351,13.706578 9.5969353,12.736255 9.2762785,12.589371 C 9.0661907,12.493165 8.4902697,13.154596 8.4903215,13.493741 C 8.4904231,14.034621 8.9597465,15.084091 9.2768382,15.229293 z M 10.119328,18.703656 C 10.297430,18.856854 11.071521,18.309354 11.172157,17.960074 C 11.315222,17.463758 11.117662,16.533770 10.850278,16.303769 C 10.675078,16.153117 9.9384217,16.492262 9.8445068,16.818114 C 9.6947222,17.337858 9.8548978,18.476253 10.119328,18.703656 z M 7.7862122,20.926306 C 7.7305941,21.154575 8.5698230,21.595732 8.9267439,21.526774 C 9.4338563,21.428937 10.294782,20.768625 10.378308,20.425916 C 10.433008,20.201466 9.6744510,19.761172 9.3414691,19.825447 C 8.8104187,19.927971 7.8688189,20.587466 7.7862122,20.926306 z M 4.9323816,23.199732 C 4.8767653,23.428003 5.7159952,23.869160 6.0729147,23.800201 C 6.5799771,23.702362 7.4409051,23.042053 7.5244281,22.699341 C 7.5791280,22.474893 6.8205718,22.034598 6.4875899,22.098874 C 5.9565898,22.201396 5.0149902,22.860894 4.9323816,23.199732 z "
     style="font-size:12;opacity:0.302675;fill-rule:evenodd;stroke-width:1.25;"
     id="path738" />
  <path
     d="M 1.1369264,23.864422 C 0.64096668,22.152708 6.9127568,19.944727 7.6045937,17.432487 C 8.2846136,14.963182 4.0951074,11.117128 5.2526824,8.9197403 C 7.0349369,5.5365429 12.458761,1.8567561 16.424142,0.69061178 C 17.447994,0.36067889 28.819051,4.2571229 28.961808,5.0534699 C 29.065807,7.1244489 20.518633,9.9447631 18.770349,13.093377 C 17.840107,14.768679 21.700062,17.684999 20.926176,19.525212 C 19.446193,23.044904 15.172479,27.601740 12.008741,29.173041 C 11.357291,29.545291 1.3455593,24.489848 1.1369264,23.864422 z M 22.440233,7.1160946 C 22.382123,7.3437043 23.216310,7.7942325 23.573992,7.7292968 C 24.082124,7.6371128 24.950488,6.9865286 25.037831,6.6448369 C 25.095077,6.4209475 24.341461,5.9722019 24.007866,6.0327570 C 23.475697,6.1292693 22.526661,6.7782235 22.440233,7.1160946 z M 19.329767,9.0381539 C 19.252812,9.2601087 20.046356,9.7788847 20.408216,9.7440985 C 20.922306,9.6947484 21.842057,9.1190815 21.957670,8.7858964 C 22.033452,8.5676104 21.320021,8.0573899 20.982506,8.0897811 C 20.444121,8.1414247 19.444157,8.7087372 19.329767,9.0381539 z M 16.278585,11.537102 C 16.268245,11.771788 17.176993,12.042074 17.513794,11.905326 C 17.992337,11.711077 18.709180,10.896551 18.724715,10.544213 C 18.734952,10.313399 17.905450,10.028392 17.591261,10.155872 C 17.090107,10.359286 16.294014,11.188737 16.278585,11.537102 z M 16.559567,15.755505 C 16.767821,15.864139 17.397267,15.155190 17.415908,14.792157 C 17.442493,14.276386 17.007854,13.282228 16.695194,13.119047 C 16.490403,13.012093 15.881072,13.642966 15.863653,13.981604 C 15.835847,14.521768 16.250419,15.594056 16.559567,15.755505 z M 18.204155,18.802869 C 18.412411,18.911503 19.041856,18.202552 19.060499,17.839521 C 19.087083,17.323750 18.652445,16.329591 18.339783,16.166409 C 18.134993,16.059457 17.525663,16.690331 17.508245,17.028966 C 17.480436,17.569133 17.895010,18.641420 18.204155,18.802869 z M 16.548310,21.656901 C 16.571023,21.890721 17.508702,22.030780 17.822994,21.848093 C 18.269552,21.588654 18.864925,20.681587 18.830853,20.330522 C 18.808597,20.100574 17.947316,19.934744 17.654108,20.105106 C 17.186466,20.376869 16.514696,21.309760 16.548310,21.656901 z M 14.134215,24.165065 C 14.112314,24.398988 15.006650,24.713688 15.349768,24.593695 C 15.837322,24.423283 16.593333,23.645067 16.626286,23.293852 C 16.647829,23.063849 15.833402,22.738252 15.513305,22.850197 C 15.002729,23.028657 14.166759,23.817823 14.134215,24.165065 z M 11.188049,26.557874 C 11.132432,26.786142 11.971661,27.227301 12.328581,27.158341 C 12.835694,27.060504 13.696621,26.400192 13.780148,26.057482 C 13.834845,25.833033 13.076289,25.392742 12.743306,25.457014 C 12.212256,25.559536 11.270657,26.219033 11.188049,26.557874 z M 14.125455,2.9200044 C 14.042539,3.1397930 14.822129,3.6794870 15.184753,3.6543572 C 15.700016,3.6187572 16.634637,3.0676041 16.759009,2.7375466 C 16.840497,2.5214084 16.141020,1.9923796 15.802641,2.0158181 C 15.263033,2.0531504 14.248450,2.5936793 14.125455,2.9200044 z M 11.241627,4.9384682 C 11.216111,5.1719841 12.105610,5.5003821 12.450509,5.3856865 C 12.940663,5.2228137 13.708436,4.4561734 13.746684,4.1055184 C 13.771743,3.8758740 12.962460,3.5378593 12.640632,3.6448638 C 12.127357,3.8154696 11.279418,4.5917847 11.241627,4.9384682 z M 8.3877483,7.3086630 C 8.3622309,7.5421781 9.2517299,7.8705770 9.5966296,7.7558820 C 10.086781,7.5930070 10.854557,6.8263537 10.892806,6.4756987 C 10.917862,6.2460533 10.108580,5.9080287 9.7867524,6.0150337 C 9.2734761,6.1856492 8.4255382,6.9619812 8.3877483,7.3086630 z M 6.8853043,10.646177 C 6.9702552,10.865177 7.9109896,10.746814 8.1642659,10.486103 C 8.5242403,10.115687 8.8524360,9.0815466 8.7248553,8.7526896 C 8.6412786,8.5373067 7.7672645,8.6101865 7.5309471,8.8534322 C 7.1540128,9.2413652 6.7590979,10.321038 6.8853043,10.646177 z M 8.2864988,14.509037 C 8.5000483,14.606875 9.0921663,13.866346 9.0920628,13.502857 C 9.0920129,12.986324 8.6065959,12.015998 8.2859400,11.869117 C 8.0758494,11.772906 7.4999313,12.434340 7.4999821,12.773484 C 7.5000846,13.314364 7.9694052,14.363835 8.2864988,14.509037 z M 9.1289872,17.983399 C 9.3070911,18.136598 10.081183,17.589098 10.181818,17.239817 C 10.324882,16.743501 10.127324,15.813514 9.8599390,15.583514 C 9.6847414,15.432861 8.9480837,15.772006 8.8541679,16.097858 C 8.7043818,16.617601 8.8645560,17.755996 9.1289872,17.983399 z M 6.7958689,20.206050 C 6.7402539,20.434319 7.5794836,20.875477 7.9364045,20.806518 C 8.4435169,20.708681 9.3044431,20.048369 9.3879698,19.705659 C 9.4426678,19.481209 8.6841126,19.040917 8.3511287,19.105190 C 7.8200783,19.207714 6.8784785,19.867209 6.7958689,20.206050 z M 3.9420164,22.479477 C 3.8864004,22.707745 4.7256298,23.148905 5.0825494,23.079943 C 5.5896382,22.982109 6.4505631,22.321795 6.5340888,21.979086 C 6.5887885,21.754636 5.8302329,21.314344 5.4972496,21.378617 C 4.9662234,21.481141 4.0246249,22.140638 3.9420164,22.479477 z "
     style="font-size:12.000000;fill:#261e2e;fill-rule:evenodd;stroke:#261e2e;stroke-width:0.050330259;"
     id="path737" />
  <path
     d="M 6.3132059,23.689122 C 6.3545588,22.871231 10.311590,19.856820 11.095253,19.786179 C 11.901072,19.704183 15.249537,19.959802 15.309634,20.838146 C 15.475159,21.642234 10.915164,25.637869 10.042727,25.854728 C 9.1997298,26.161025 6.2694539,24.454146 6.3132059,23.689122 z "
     style="font-size:12.000000;fill:url(#linearGradient641);fill-rule:evenodd;stroke:#261933;stroke-width:0.63663095;"
     id="path648" />
  <path
     d="M 11.764427,17.353747 C 12.406300,17.796638 15.792404,18.633525 16.294271,18.267641 C 16.837594,17.795976 14.585099,15.385293 14.519246,12.002910 C 14.503153,11.159860 10.392161,11.218684 9.9089345,11.876703 C 9.6593763,12.257713 11.204856,16.893339 11.764427,17.353747 z "
     style="font-size:12.000000;fill:url(#linearGradient1522);fill-rule:evenodd;stroke:#261933;stroke-width:0.63663095;"
     id="path649" />
  <path
     d="M 10.855015,8.6564324 C 10.928814,9.2604144 15.231253,10.122154 16.033608,9.9126791 C 16.944499,9.6478403 22.100223,6.4471271 22.016085,5.7673605 C 21.923035,4.9050583 17.573587,3.7601096 16.596084,3.8997096 C 15.605336,4.0275956 10.752494,7.9183505 10.855015,8.6564324 z "
     style="font-size:12.000000;fill:url(#linearGradient1527);fill-rule:evenodd;stroke:#261933;stroke-width:0.63663095;"
     id="path650" />
  <path
     d="M 7.4810364,23.211752 C 7.4810364,23.084578 9.5652563,21.009474 10.798993,20.515960 C 11.638936,20.179973 13.702173,20.603102 13.702173,20.723297 C 13.702173,20.845072 11.697301,20.882454 10.798993,21.241769 C 9.6236230,21.711906 7.4810364,23.326548 7.4810364,23.211752 z "
     style="font-size:12.000000;opacity:0.69993597;fill:url(#linearGradient1534);fill-rule:evenodd;stroke:#ffffff;stroke-width:0.050930315pt;"
     id="path656" />
  <path
     d="M 10.862655,13.333718 C 10.685826,13.552005 10.392518,12.296370 10.655265,12.193136 C 11.360244,11.916174 13.731304,12.003317 13.765835,12.193136 C 13.800467,12.383511 11.722258,12.296878 10.862655,13.333718 z "
     style="font-size:12.000000;opacity:0.69999999;fill:url(#linearGradient1539);fill-rule:evenodd;stroke:#ffffff;stroke-width:0.050930315pt;"
     id="path657" />
  <path
     d="M 12.462681,7.9820125 C 12.481068,7.7979492 15.142074,5.1240585 16.713781,4.6640551 C 17.976141,4.2945884 20.982097,5.3213102 20.964884,5.4935581 C 20.947568,5.6669245 17.968909,5.3032319 16.610089,5.7009454 C 15.134841,6.1327323 12.446535,8.1435638 12.462681,7.9820125 z "
     style="font-size:12.000000;opacity:0.69993597;fill:url(#linearGradient1567);fill-rule:evenodd;stroke:#ffffff;stroke-width:0.050930315pt;"
     id="path658" />
  <path
     d="M 5.9080531,9.7467993 C 5.8727591,8.1872613 11.942174,3.2605686 15.758177,1.8666989 C 17.714003,1.1522946 23.187941,3.2081213 23.223592,3.4219829 C 23.257054,3.6228691 17.893481,2.4067238 15.965565,3.1109268 C 12.121651,4.5149883 5.8983756,9.9525051 5.9080531,9.7467993 z "
     style="font-size:12;opacity:0.7;fill:url(#linearGradient1532);fill-rule:evenodd;stroke:none;stroke-width:0.0978445pt;"
     id="path655" />
</svg>
