<?xml version="1.0" encoding="UTF-8" standalone="no"?>
<!DOCTYPE svg PUBLIC "-//W3C//DTD SVG 20010904//EN"
"http://www.w3.org/TR/2001/REC-SVG-20010904/DTD/svg10.dtd">
<!-- Created with Inkscape (http://www.inkscape.org/) -->
<svg
   version="1.0"
   x="0"
   y="0"
   width="24.000000pt"
   height="24.000000pt"
   id="svg1"
   sodipodi:version="0.32"
   inkscape:version="0.38.1"
   sodipodi:docname="emblem-trash.svg"
   sodipodi:docbase="/home/dan/svg-icons/lila/gnome/scalable/emblems"
   xmlns="http://www.w3.org/2000/svg"
   xmlns:inkscape="http://www.inkscape.org/namespaces/inkscape"
   xmlns:sodipodi="http://sodipodi.sourceforge.net/DTD/sodipodi-0.dtd"
   xmlns:xlink="http://www.w3.org/1999/xlink">
  <sodipodi:namedview
     id="base"
     inkscape:zoom="9.8880000"
     inkscape:cx="14.773381"
     inkscape:cy="11.359110"
     inkscape:window-width="530"
     inkscape:window-height="540"
     inkscape:window-x="243"
     inkscape:window-y="293" />
  <defs
     id="defs3">
    <linearGradient
       id="linearGradient570">
      <stop
         style="stop-color:#ffffff;stop-opacity:1;"
         offset="0"
         id="stop571" />
      <stop
         style="stop-color:#ffffff;stop-opacity:0;"
         offset="1"
         id="stop572" />
    </linearGradient>
    <linearGradient
       id="linearGradient563">
      <stop
         style="stop-color:#d9cce6;stop-opacity:1;"
         offset="0.00000000"
         id="stop564" />
      <stop
         style="stop-color:#73667f;stop-opacity:1;"
         offset="1.00000000"
         id="stop565" />
    </linearGradient>
    <linearGradient
       id="linearGradient566"
       xlink:href="#linearGradient570"
       x1="-0.00000000"
       y1="0.01562500"
       x2="0.93421054"
       y2="0.93750000" />
    <linearGradient
       id="linearGradient569"
       xlink:href="#linearGradient570"
       x1="0.00000000"
       y1="0.00000000"
       x2="0.99635035"
       y2="1.00000000" />
    <linearGradient
       id="linearGradient573"
       xlink:href="#linearGradient570"
       x1="0.00000000"
       y1="-0.00000000"
       x2="0.98387098"
       y2="0.99218750" />
    <linearGradient
       id="linearGradient575"
       xlink:href="#linearGradient563"
       x1="-0.00000000"
       y1="-0.00000000"
       x2="0.98473281"
       y2="0.99218750" />
    <linearGradient
       id="linearGradient578"
       xlink:href="#linearGradient563"
       x1="-0.00000000"
       y1="-0.00000000"
       x2="0.98909092"
       y2="0.95833331" />
  </defs>
  <path
     d="M 4.2959184,25.332443 C 4.8443356,26.061388 9.3955468,29.467396 10.757764,29.709641 C 11.961865,29.937082 24.229810,26.508953 24.718508,25.860713 C 25.163753,25.338865 29.121776,5.3090779 28.467985,4.8802447 C 27.996270,4.5164277 14.062934,8.2675147 12.672365,8.2009024 C 11.327687,8.0610134 2.5070621,4.6149776 2.0622474,5.1820917 C 1.6617016,5.7606837 3.7235448,24.647150 4.2959184,25.332443 z "
     style="font-size:12;opacity:0.302675;fill-rule:evenodd;stroke-width:12.5;"
     id="path1009" />
  <path
     d="M 3.1853221,4.8669079 C 6.0590373,5.9530539 9.5296847,7.9114513 12.763160,7.8914709 C 17.307130,7.8634343 25.814768,5.8669617 26.517777,4.7228660 C 27.039001,3.8745746 17.980059,1.8422820 16.435852,1.9143062 C 14.923539,1.9143062 3.0104626,4.8008446 3.1853221,4.8669079 z "
     style="font-size:12.000000;fill:url(#linearGradient578);fill-rule:evenodd;stroke:#261933;stroke-width:1.0625000;stroke-linecap:round;stroke-linejoin:round;stroke-dasharray:none;"
     id="path1004" />
  <path
     d="M 4.8416141,24.166569 C 5.3366774,24.862143 9.4450636,28.112189 10.674742,28.343347 C 11.761687,28.560370 22.836005,25.289213 23.277148,24.670656 C 23.679077,24.172697 27.251998,5.0600403 26.661813,4.6508484 C 26.235994,4.3036839 13.658335,7.8830160 12.403057,7.8194522 C 11.189213,7.6859681 3.2268071,4.3977263 2.8252770,4.9388681 C 2.4637033,5.4909676 4.3249303,23.512654 4.8416141,24.166569 z "
     style="font-size:12.000000;fill:url(#linearGradient575);fill-rule:evenodd;stroke:#261933;stroke-width:1.0625000;stroke-dasharray:none;"
     id="path994" />
  <path
     d="M 5.6344045,24.095848 C 5.4130622,23.802603 3.4996775,7.2473723 3.8340652,6.3804601 C 4.0520024,5.8623581 11.962817,8.9171755 12.187675,9.2610442 C 12.370879,9.5412929 5.9072696,7.3103826 5.3111316,8.8848975 C 4.3316192,11.400097 5.8163528,24.396077 5.6344045,24.095848 z "
     style="font-size:12;opacity:0.699936;fill-rule:evenodd;stroke:none;stroke-width:0.0991903pt;fill:url(#linearGradient573);"
     id="path999"
     sodipodi:nodetypes="ccccc" />
  <path
     d="M 11.420564,27.101374 C 11.248942,26.954268 12.148999,10.616632 12.980153,9.2606742 C 13.456030,8.4388840 23.032964,6.5918996 23.206063,6.7402512 C 23.369003,6.8799204 15.725024,8.6728709 14.493984,10.630527 C 12.690870,13.540393 11.584981,27.242295 11.420564,27.101374 z "
     style="font-size:12;opacity:0.703631;fill-rule:evenodd;stroke:none;stroke-width:0.0991903pt;fill:url(#linearGradient566);"
     id="path1006"
     sodipodi:nodetypes="ccccc" />
  <path
     d="M 6.5231681,5.0855465 C 6.5577267,4.9299846 13.032399,3.1294818 16.300097,2.9468510 C 18.497988,2.8239768 22.953596,4.0173364 22.919884,4.1689772 C 22.885662,4.3228359 18.235081,3.8632144 15.969992,3.9898361 C 12.769492,4.1687205 6.4898498,5.2355482 6.5231681,5.0855465 z "
     style="font-size:12;opacity:0.699936;fill-rule:evenodd;stroke:none;stroke-width:0.0991903pt;fill:url(#linearGradient569);"
     id="path1010"
     sodipodi:nodetypes="ccccc" />
</svg>
