<?xml version="1.0" encoding="UTF-8" standalone="no"?>
<!DOCTYPE svg PUBLIC "-//W3C//DTD SVG 20010904//EN"
"http://www.w3.org/TR/2001/REC-SVG-20010904/DTD/svg10.dtd">
<!-- Created with Inkscape (http://www.inkscape.org/) -->
<svg
   id="svg1"
   sodipodi:version="0.32"
   inkscape:version="0.38.1"
   width="24.000000pt"
   height="24.000000pt"
   sodipodi:docbase="/home/dan/svg-icons/lila/gnome/scalable/emblems"
   sodipodi:docname="emblem-cool.svg"
   xmlns="http://www.w3.org/2000/svg"
   xmlns:inkscape="http://www.inkscape.org/namespaces/inkscape"
   xmlns:sodipodi="http://sodipodi.sourceforge.net/DTD/sodipodi-0.dtd"
   xmlns:xlink="http://www.w3.org/1999/xlink">
  <defs
     id="defs3">
    <linearGradient
       id="linearGradient878">
      <stop
         offset="0.0000000"
         style="stop-color:#d9cce6;stop-opacity:1.0000000;"
         id="stop880" />
      <stop
         offset="1.0000000"
         style="stop-color:#73667f;stop-opacity:1.0000000;"
         id="stop879" />
    </linearGradient>
    <linearGradient
       id="linearGradient841">
      <stop
         style="stop-color:#ffffff;stop-opacity:1.0000000;"
         offset="0.0000000"
         id="stop842" />
      <stop
         style="stop-color:#d9cce6;stop-opacity:1.0000000;"
         offset="1.0000000"
         id="stop843" />
    </linearGradient>
    <linearGradient
       id="linearGradient832">
      <stop
         style="stop-color:#ffffff;stop-opacity:1.0000000;"
         offset="0.0000000"
         id="stop833" />
      <stop
         style="stop-color:#ffffff;stop-opacity:0.0000000;"
         offset="1.0000000"
         id="stop834" />
    </linearGradient>
    <linearGradient
       id="linearGradient826">
      <stop
         style="stop-color:#d9cce6;stop-opacity:1.0000000;"
         offset="0.0000000"
         id="stop827" />
      <stop
         style="stop-color:#73667f;stop-opacity:1.0000000;"
         offset="1.0000000"
         id="stop828" />
    </linearGradient>
    <linearGradient
       xlink:href="#linearGradient832"
       id="linearGradient829"
       x1="-0.22666667"
       y1="-0.15503876"
       x2="0.57333332"
       y2="0.69767439" />
    <radialGradient
       xlink:href="#linearGradient826"
       id="radialGradient830"
       cx="0.29999998"
       cy="0.25581393"
       r="0.78461540"
       fx="0.29999998"
       fy="0.25968978"
       spreadMethod="pad"
       gradientUnits="objectBoundingBox" />
    <radialGradient
       xlink:href="#linearGradient841"
       id="radialGradient836"
       cx="0.29999998"
       cy="0.25581393"
       r="0.78461540"
       fx="0.29999998"
       fy="0.25968978" />
    <defs
       id="defs845">
      <linearGradient
         id="linearGradient584">
        <stop
           style="stop-color:#ffffff;stop-opacity:1;"
           offset="0.00000000"
           id="stop585" />
        <stop
           style="stop-color:#ffffff;stop-opacity:0;"
           offset="1.00000000"
           id="stop586" />
      </linearGradient>
      <linearGradient
         id="linearGradient578"
         x1="0.0000000"
         y1="0.50000000"
         x2="1.0000000"
         y2="0.50000000"
         gradientUnits="objectBoundingBox"
         spreadMethod="pad"
         xlink:href="#linearGradient878" />
      <linearGradient
         xlink:href="#linearGradient578"
         id="linearGradient581"
         x1="0.00877193"
         y1="0.02857143"
         x2="0.99122804"
         y2="0.97142857" />
      <linearGradient
         xlink:href="#linearGradient584"
         id="linearGradient583"
         x1="0.01298701"
         y1="0.00714286"
         x2="0.97402596"
         y2="0.99285716" />
    </defs>
    <sodipodi:namedview
       id="namedview854"
       pagecolor="#ffffff"
       bordercolor="#666666"
       borderopacity="1.0"
       inkscape:pageopacity="0.0"
       inkscape:pageshadow="2"
       inkscape:zoom="7.97947193"
       inkscape:cx="29.4003546"
       inkscape:cy="24.0932681"
       inkscape:window-width="640"
       inkscape:window-height="516"
       inkscape:window-x="99"
       inkscape:window-y="57" />
    <linearGradient
       xlink:href="#linearGradient832"
       id="linearGradient861"
       x1="0.0085836910"
       y1="0.015625000"
       x2="0.79399139"
       y2="0.85937500" />
    <linearGradient
       xlink:href="#linearGradient832"
       id="linearGradient865"
       x1="0.0041493778"
       y1="-2.1877465e-14"
       x2="1.0746888"
       y2="1.0156250" />
  </defs>
  <sodipodi:namedview
     id="base"
     pagecolor="#ffffff"
     bordercolor="#666666"
     borderopacity="1.0"
     inkscape:pageopacity="0.0"
     inkscape:pageshadow="2"
     inkscape:zoom="13.893067"
     inkscape:cx="12.046903"
     inkscape:cy="12.064925"
     inkscape:window-width="640"
     inkscape:window-height="525"
     showguides="true"
     snaptoguides="true"
     inkscape:window-x="32"
     inkscape:window-y="59" />
  <path
     style="fill-opacity:0.29999998;fill-rule:evenodd;stroke-width:1.8750000;"
     d="M 29.794540,15.653326 C 29.794540,23.478738 23.443481,29.829796 15.618070,29.829796 C 7.7926573,29.829796 1.4415987,23.478738 1.4415987,15.653326 C 1.4415987,7.8279135 7.7926573,1.4768551 15.618070,1.4768551 C 23.443481,1.4768551 29.794540,7.8279135 29.794540,15.653326 z "
     id="path837" />
  <path
     style="fill:url(#radialGradient830);fill-rule:evenodd;stroke:#261933;stroke-width:1.0625000;stroke-dasharray:none;"
     d="M 28.470097,14.623203 C 28.470097,22.069529 22.426702,28.112925 14.980375,28.112925 C 7.5340483,28.112925 1.4906522,22.069529 1.4906522,14.623203 C 1.4906522,7.1768755 7.5340483,1.1334800 14.980375,1.1334800 C 22.426702,1.1334800 28.470097,7.1768755 28.470097,14.623203 z "
     id="path838" />
  <path
     style="fill:#261933;fill-rule:evenodd;stroke:#261933;stroke-opacity:1.0000000;stroke-width:1pt;stroke-linejoin:miter;stroke-linecap:butt;fill-opacity:1.0000000;"
     d="M 2.6991880,10.115982 C 3.0934528,10.040884 3.8001742,10.850616 4.2287279,10.655819 C 5.1197772,10.250796 5.6518378,8.4027651 6.6579971,8.3165229 C 8.8008905,8.1328464 11.759190,8.9595912 13.675886,9.8460628 C 14.158469,10.069257 13.544955,11.412363 13.855832,11.645521 C 14.144774,11.862228 14.946673,11.179136 15.475345,11.195657 C 15.906385,11.209127 16.540615,11.916888 16.734966,11.735494 C 16.990480,11.497014 16.397490,10.252937 16.824939,9.9360357 C 18.136967,8.9633255 20.303906,7.9033135 21.953396,7.8666582 C 23.003094,7.8433316 23.898544,9.4750033 24.922503,9.7560899 C 25.428084,9.8948770 26.127880,9.0103213 26.542016,9.1262793 C 26.877654,9.2202580 27.312491,10.118637 27.171826,10.385900 C 27.012581,10.688466 25.898837,10.441072 25.642286,10.835765 C 25.119071,11.640711 25.676866,13.712168 24.832530,13.984818 C 22.797732,14.641888 19.343148,14.087440 17.004885,13.624926 C 16.613969,13.547602 16.905570,12.656538 16.644993,12.365305 C 16.395723,12.086710 15.871313,11.915440 15.475345,11.915440 C 14.971584,11.915440 14.294484,12.048324 13.945805,12.365305 C 13.634683,12.648144 13.920377,13.608790 13.495940,13.714899 C 11.041243,14.328573 7.5828227,15.056061 5.3084031,14.524655 C 4.3737881,14.306287 4.5413840,12.260405 3.8688362,11.465576 C 3.5516818,11.090757 2.5817902,11.295512 2.3392963,11.015711 C 2.1919074,10.845647 2.4636423,10.160848 2.6991880,10.115982 z "
     id="path860"
     sodipodi:nodetypes="cssssssssssssssssssssss" />
  <path
     style="fill:url(#linearGradient829);fill-rule:evenodd;stroke:none;stroke-opacity:1;stroke-width:1pt;stroke-linejoin:miter;stroke-linecap:butt;fill-opacity:1;"
     d="M 5.0225064,22.520822 C 2.1774011,19.724770 0.11715249,8.7204265 9.0448963,3.9785839 C 18.070748,-0.76325810 23.859066,5.0087079 26.213635,8.7858305 C 23.859066,6.3822073 17.972641,1.9837404 10.222181,6.6274751 C 2.4717225,11.369317 3.7471146,19.626663 5.0225064,22.520822 z "
     id="path831"
     sodipodi:nodetypes="czczc" />
  <path
     style="fill:#261933;fill-rule:evenodd;stroke:#261933;stroke-opacity:1.0000000;stroke-width:1pt;stroke-linejoin:round;stroke-linecap:round;fill-opacity:1.0000000;"
     d="M 9.4471581,20.282924 C 12.146346,21.933153 15.038045,22.130586 16.734965,21.542545 C 18.067134,21.080902 19.031885,18.693703 20.063964,18.483465 C 20.651398,18.363803 21.707789,19.892530 21.593504,20.552842 C 21.437870,21.452061 18.761659,22.510668 16.734965,22.442274 C 14.801650,22.379804 10.526833,21.693224 9.4471581,20.282924 z "
     id="path862"
     sodipodi:nodetypes="cssssc" />
  <path
     style="fill:url(#linearGradient861);fill-rule:evenodd;stroke:none;stroke-opacity:1;stroke-width:1pt;stroke-linejoin:miter;stroke-linecap:butt;fill-opacity:1;"
     d="M 4.6785925,13.444980 C 4.5519610,13.381664 4.3177024,11.605740 4.5886196,10.835765 C 4.8875310,9.9862271 5.5435088,8.6822176 6.3880783,8.5864417 C 8.4526335,8.3523169 13.285370,9.6623188 13.315994,9.8460631 C 13.345352,10.022210 8.6315194,9.3183368 6.5680241,9.6661169 C 5.9623224,9.7682015 5.5974593,10.617545 5.3084031,11.195657 C 4.9676488,11.877166 4.7918888,13.501628 4.6785925,13.444980 z "
     id="path863"
     sodipodi:nodetypes="cssssss" />
  <path
     style="fill:url(#linearGradient865);fill-rule:evenodd;stroke:none;stroke-opacity:1;stroke-width:1pt;stroke-linejoin:miter;stroke-linecap:butt;fill-opacity:1;"
     d="M 16.745881,10.846680 C 16.519048,10.935107 16.724630,10.153729 16.925827,9.9469513 C 18.374280,8.5219427 22.262858,7.7344337 22.234230,7.8775738 C 22.202876,8.0343434 18.288515,10.245314 16.745881,10.846680 z "
     id="path864"
     sodipodi:nodetypes="csss" />
</svg>
