<?xml version="1.0" encoding="UTF-8" standalone="no"?>
<!DOCTYPE svg PUBLIC "-//W3C//DTD SVG 20010904//EN"
"http://www.w3.org/TR/2001/REC-SVG-20010904/DTD/svg10.dtd">
<!-- Created with Inkscape (http://www.inkscape.org/) -->
<svg
   id="svg1"
   sodipodi:version="0.32"
   inkscape:version="0.37"
   width="24.000000pt"
   height="24.000000pt"
   sodipodi:docbase="/home/stefan/software/Lila-themes"
   sodipodi:docname="emblem-danger.svg"
   xmlns="http://www.w3.org/2000/svg"
   xmlns:inkscape="http://www.inkscape.org/namespaces/inkscape"
   xmlns:sodipodi="http://sodipodi.sourceforge.net/DTD/sodipodi-0.dtd"
   xmlns:xlink="http://www.w3.org/1999/xlink">
  <defs
     id="defs3">
    <linearGradient
       id="linearGradient878">
      <stop
         offset="0.00000000"
         style="stop-color:#ffff00;stop-opacity:1;"
         id="stop880" />
      <stop
         offset="1.00000000"
         style="stop-color:#ff0000;stop-opacity:1;"
         id="stop879" />
    </linearGradient>
    <linearGradient
       id="linearGradient841">
      <stop
         style="stop-color:#ffffff;stop-opacity:1.0000000;"
         offset="0.0000000"
         id="stop842" />
      <stop
         style="stop-color:#d9cce6;stop-opacity:1.0000000;"
         offset="1.0000000"
         id="stop843" />
    </linearGradient>
    <linearGradient
       id="linearGradient832">
      <stop
         style="stop-color:#ffffff;stop-opacity:1.0000000;"
         offset="0.0000000"
         id="stop833" />
      <stop
         style="stop-color:#ffffff;stop-opacity:0.0000000;"
         offset="1.0000000"
         id="stop834" />
    </linearGradient>
    <linearGradient
       id="linearGradient826">
      <stop
         style="stop-color:#d9cce6;stop-opacity:1.0000000;"
         offset="0.0000000"
         id="stop827" />
      <stop
         style="stop-color:#73667f;stop-opacity:1.0000000;"
         offset="1.0000000"
         id="stop828" />
    </linearGradient>
    <linearGradient
       xlink:href="#linearGradient832"
       id="linearGradient829"
       x1="-0.22666667"
       y1="-0.15503876"
       x2="0.57333332"
       y2="0.69767439" />
    <radialGradient
       xlink:href="#linearGradient826"
       id="radialGradient830"
       cx="0.29999998"
       cy="0.25581393"
       r="0.78461540"
       fx="0.29999998"
       fy="0.25968978"
       spreadMethod="pad"
       gradientUnits="objectBoundingBox" />
    <radialGradient
       xlink:href="#linearGradient841"
       id="radialGradient836"
       cx="0.29999998"
       cy="0.25581393"
       r="0.78461540"
       fx="0.29999998"
       fy="0.25968978" />
    <defs
       id="defs845">
      <linearGradient
         id="linearGradient584">
        <stop
           style="stop-color:#ffffff;stop-opacity:1;"
           offset="0.00000000"
           id="stop585" />
        <stop
           style="stop-color:#ffffff;stop-opacity:0;"
           offset="1.00000000"
           id="stop586" />
      </linearGradient>
      <linearGradient
         id="linearGradient578"
         x1="0.0000000"
         y1="0.50000000"
         x2="1.0000000"
         y2="0.50000000"
         gradientUnits="objectBoundingBox"
         spreadMethod="pad"
         xlink:href="#linearGradient878" />
      <linearGradient
         xlink:href="#linearGradient578"
         id="linearGradient581"
         x1="0.00877193"
         y1="0.02857143"
         x2="0.99122804"
         y2="0.97142857" />
      <linearGradient
         xlink:href="#linearGradient584"
         id="linearGradient583"
         x1="0.01298701"
         y1="0.00714286"
         x2="0.97402596"
         y2="0.99285716" />
    </defs>
    <sodipodi:namedview
       id="namedview854"
       pagecolor="#ffffff"
       bordercolor="#666666"
       borderopacity="1.0"
       inkscape:pageopacity="0.0"
       inkscape:pageshadow="2"
       inkscape:zoom="7.97947193"
       inkscape:cx="29.4003546"
       inkscape:cy="24.0932681"
       inkscape:window-width="640"
       inkscape:window-height="516"
       inkscape:window-x="99"
       inkscape:window-y="57" />
    <linearGradient
       xlink:href="#linearGradient826"
       id="linearGradient607"
       x1="-0.00000000"
       y1="0.47520661"
       x2="1.00000000"
       y2="0.46694216" />
    <radialGradient
       xlink:href="#linearGradient826"
       id="radialGradient608"
       cx="0.38271606"
       cy="0.36363637"
       r="0.35359073"
       fx="0.37448561"
       fy="0.36776865" />
    <linearGradient
       xlink:href="#linearGradient878"
       id="linearGradient613"
       x1="0.00000000"
       y1="0.99586779"
       x2="0.55212355"
       y2="0.38016528" />
  </defs>
  <sodipodi:namedview
     id="base"
     pagecolor="#ffffff"
     bordercolor="#666666"
     borderopacity="1.0"
     inkscape:pageopacity="0.0"
     inkscape:pageshadow="2"
     inkscape:zoom="31.9999999"
     inkscape:cx="21.1659084"
     inkscape:cy="12.8085060"
     inkscape:window-width="1269"
     inkscape:window-height="970"
     showguides="true"
     snaptoguides="true"
     inkscape:window-x="0"
     inkscape:window-y="0" />
  <g
     id="g610"
     style="opacity:0.300000;"
     transform="translate(-17.46094,0.546874)">
    <path
       style="font-size:12;fill:#000000;fill-opacity:1;fill-rule:evenodd;stroke:none;stroke-width:1.12094;"
       d="M 30.831093 8.171626 L 30.831093 11.451639 L 35.113333 11.451639 L 35.113333 8.171626 L 30.831093 8.171626 z "
       id="path605" />
    <path
       style="font-size:12;fill:#000000;fill-opacity:1;fill-rule:evenodd;stroke:none;stroke-width:1.12094;"
       d="M 42.126546 19.915942 C 42.126546 24.945297 38.044751 29.027093 33.015395 29.027093 C 27.986039 29.027093 23.904243 24.945297 23.904243 19.915942 C 23.904243 14.886586 27.986039 10.804791 33.015395 10.804791 C 38.044751 10.804791 42.126546 14.886586 42.126546 19.915942 z "
       id="path607" />
    <path
       style="font-size:12;fill:none;fill-opacity:0.75;fill-rule:evenodd;stroke:#000000;stroke-width:1.0625;stroke-dasharray:none;stroke-opacity:1;"
       d="M 32.669948 8.429847 C 32.698735 6.2995939 32.953032 3.6493806 35.606243 2.816342 C 38.188802 1.9783711 37.394017 7.0175111 39.578877 7.3935077 C 41.584218 7.7534727 41.70913 5.3208289 42.774256 4.2844895 "
       id="path608"
       sodipodi:nodetypes="csss" />
    <path
       style="fill:#000000;fill-rule:evenodd;stroke:none;stroke-opacity:1;stroke-width:1pt;stroke-linejoin:miter;stroke-linecap:butt;fill-opacity:1;"
       d="M 42.220315 0.5814174 C 41.708429 0.536446 41.851386 3.7533158 42.560522 4.4624514 C 43.204385 5.1063144 46.347619 4.3576584 46.309845 3.9686776 C 46.239838 3.562196 45.029373 3.9870075 44.578272 3.3554666 C 44.309692 2.9794553 44.495254 1.8997099 44.303471 1.7398906 C 44.149808 1.6118379 43.240649 2.3524955 42.99233 2.2170494 C 42.607331 2.007049 42.603079 0.6123623 42.220315 0.5814174 z "
       id="path609"
       sodipodi:nodetypes="cssssss" />
  </g>
  <path
     style="font-size:12;fill:url(#linearGradient607);fill-opacity:0.75;fill-rule:evenodd;stroke:#261933;stroke-width:1.0625;stroke-dasharray:none;"
     d="M 12.231778 7.9055616 L 12.231778 11.014579 L 16.290774 11.014579 L 16.290774 7.9055616 L 12.231778 7.9055616 z "
     id="path610" />
  <path
     style="font-size:12;fill:url(#radialGradient608);fill-opacity:0.75;fill-rule:evenodd;stroke:#261933;stroke-width:1.0625;stroke-dasharray:none;"
     d="M 22.94062 19.56438 C 22.94062 24.331541 19.07162 28.200542 14.304458 28.200542 C 9.5372965 28.200542 5.6682955 24.331541 5.6682955 19.56438 C 5.6682955 14.797218 9.5372965 10.928218 14.304458 10.928218 C 19.07162 10.928218 22.94062 14.797218 22.94062 19.56438 z "
     id="path606" />
  <path
     style="font-size:12;fill:none;fill-opacity:0.75;fill-rule:evenodd;stroke:#261933;stroke-width:1.0625;stroke-dasharray:none;"
     d="M 13.959011 8.0782846 C 13.987798 5.9480314 14.242095 3.2978181 16.895306 2.4647795 C 19.477865 1.6268086 18.68308 6.6659486 20.86794 7.0419452 C 22.873281 7.4019102 22.998193 4.9692664 24.063319 3.932927 "
     id="path611"
     sodipodi:nodetypes="csss" />
  <path
     style="fill:url(#linearGradient613);fill-rule:evenodd;stroke:none;stroke-opacity:1;stroke-width:1pt;stroke-linejoin:miter;stroke-linecap:butt;fill-opacity:0.75;"
     d="M 23.509378 0.22985492 C 22.997492 0.18488352 23.140449 3.4017533 23.849585 4.1108889 C 24.493448 4.7547519 27.636682 4.0060959 27.598908 3.6171151 C 27.528901 3.2106335 26.318436 3.635445 25.867335 3.0039041 C 25.598755 2.6278928 25.784317 1.5481474 25.592534 1.3883281 C 25.438871 1.2602754 24.529712 2.000933 24.281393 1.8654869 C 23.896394 1.6554865 23.892142 0.26079982 23.509378 0.22985492 z "
     id="path612"
     sodipodi:nodetypes="cssssss" />
</svg>
