<?xml version="1.0" encoding="UTF-8" standalone="no"?>
<!DOCTYPE svg PUBLIC "-//W3C//DTD SVG 20010904//EN"
"http://www.w3.org/TR/2001/REC-SVG-20010904/DTD/svg10.dtd">
<!-- Created with Inkscape (http://www.inkscape.org/) -->
<svg
   version="1.0"
   x="0"
   y="0"
   width="24.000000pt"
   height="24.000000pt"
   id="svg1"
   sodipodi:version="0.32"
   inkscape:version="0.37"
   sodipodi:docname="emblem-cvs-sticky.svg"
   sodipodi:docbase="/home/stefan/software/Lila-themes"
   xmlns="http://www.w3.org/2000/svg"
   xmlns:inkscape="http://www.inkscape.org/namespaces/inkscape"
   xmlns:sodipodi="http://sodipodi.sourceforge.net/DTD/sodipodi-0.dtd"
   xmlns:xlink="http://www.w3.org/1999/xlink">
  <sodipodi:namedview
     id="base"
     pagecolor="#ffffff"
     bordercolor="#666666"
     borderopacity="1.0"
     inkscape:pageopacity="0.0"
     inkscape:pageshadow="2"
     inkscape:zoom="27.8576180"
     inkscape:cx="22.8015554"
     inkscape:cy="9.37193456"
     inkscape:window-width="1269"
     inkscape:window-height="970"
     inkscape:window-x="0"
     inkscape:window-y="0"
     showgrid="false"
     snaptogrid="false"
     gridspacingx="1pt"
     gridspacingy="1pt"
     gridtolerance="1px" />
  <defs
     id="defs3">
    <linearGradient
       id="linearGradient1809">
      <stop
         style="stop-color:#d9cce6;stop-opacity:1.0000000;"
         offset="0.0000000"
         id="stop1810" />
      <stop
         style="stop-color:#ffffff;stop-opacity:1.0000000;"
         offset="1.0000000"
         id="stop1811" />
    </linearGradient>
    <linearGradient
       id="linearGradient570">
      <stop
         style="stop-color:#ffffff;stop-opacity:1;"
         offset="0"
         id="stop571" />
      <stop
         style="stop-color:#ffffff;stop-opacity:0;"
         offset="1"
         id="stop572" />
    </linearGradient>
    <linearGradient
       id="linearGradient563">
      <stop
         style="stop-color:#d9cce6;stop-opacity:1.0000000;"
         offset="0.0000000"
         id="stop564" />
      <stop
         style="stop-color:#73667f;stop-opacity:1.0000000;"
         offset="1.0000000"
         id="stop565" />
    </linearGradient>
    <linearGradient
       id="linearGradient566"
       xlink:href="#linearGradient1809"
       x1="-0.00000000"
       y1="0.00000000"
       x2="0.99616855"
       y2="0.99173552" />
    <linearGradient
       id="linearGradient569"
       xlink:href="#linearGradient563"
       x1="-0.00000000"
       y1="0.00413223"
       x2="0.98892987"
       y2="0.99586779" />
    <linearGradient
       id="linearGradient573"
       xlink:href="#linearGradient570"
       x1="0.00432900"
       y1="-0.00000000"
       x2="0.99134201"
       y2="0.99586779" />
    <linearGradient
       id="linearGradient578"
       xlink:href="#linearGradient570"
       x1="0.00338983"
       y1="0.01239669"
       x2="0.98644066"
       y2="0.99173552" />
    <radialGradient
       xlink:href="#linearGradient1809"
       id="radialGradient1812"
       cx="0.96874994"
       cy="0.96093750"
       r="1.3589708"
       fx="0.96874994"
       fy="0.96093750" />
    <linearGradient
       xlink:href="#linearGradient1809"
       id="linearGradient630"
       x1="-0.00000000"
       y1="-0.00000000"
       x2="0.99616855"
       y2="0.99173552" />
    <linearGradient
       xlink:href="#linearGradient563"
       id="linearGradient631"
       x1="-0.00000000"
       y1="-0.00000000"
       x2="0.99221790"
       y2="0.99586779" />
  </defs>
  <path
     style="font-size:12;fill:#000000;fill-opacity:1;fill-rule:evenodd;stroke:none;stroke-width:1pt;stroke-opacity:1;opacity:0.300000;"
     d="M 7.2166938 12.59183 C 9.4772629 10.163434 24.821084 12.537396 25.690382 15.223769 C 26.620181 18.097109 15.910873 29.740676 12.613985 29.27097 C 9.7529776 28.863364 5.1184638 14.845834 7.2166938 12.59183 z "
     id="path634"
     sodipodi:nodetypes="csss" />
  <path
     style="font-size:12;fill:url(#linearGradient566);fill-opacity:0.75;fill-rule:evenodd;stroke:#261933;stroke-width:1pt;stroke-opacity:1;"
     d="M 5.7038933 10.164901 C 7.9644624 7.7365063 23.308284 10.110468 24.177582 12.796841 C 25.107381 15.670181 14.398073 27.313748 11.101184 26.844042 C 8.2401771 26.436436 3.6056633 12.418906 5.7038933 10.164901 z "
     id="path632"
     sodipodi:nodetypes="csss" />
  <path
     style="font-size:12;fill:#000000;fill-opacity:1;fill-rule:evenodd;stroke:none;stroke-width:1pt;stroke-opacity:1;opacity:0.300000;"
     d="M 7.8792227 7.2320454 C 10.140109 4.8036498 25.486087 7.1776115 26.355507 9.8639848 C 27.285436 12.737324 16.574624 24.380891 13.277272 23.911184 C 10.415862 23.503578 5.7806979 9.4860496 7.8792227 7.2320454 z "
     id="path633"
     sodipodi:nodetypes="csss" />
  <path
     style="font-size:12;fill:url(#linearGradient630);fill-opacity:0.75;fill-rule:evenodd;stroke:#261933;stroke-width:1.00007pt;"
     d="M 6.2286631 5.3463291 C 8.4895498 2.9179335 23.835527 5.2918952 24.704947 7.9782684 C 25.634876 10.851608 14.924065 22.495175 11.626713 22.025469 C 8.7653032 21.617862 4.1301383 7.6003333 6.2286631 5.3463291 z "
     id="path628"
     sodipodi:nodetypes="csss" />
  <path
     style="fill:url(#linearGradient578);fill-rule:evenodd;stroke:none;stroke-opacity:1;stroke-width:1pt;stroke-linejoin:miter;stroke-linecap:butt;fill-opacity:0.75;"
     d="M 7.7892231 13.979612 C 7.4819972 13.722751 5.5346497 7.0653463 6.9053397 5.8313111 C 8.5822061 4.3216246 16.627503 5.4939581 16.931892 5.748447 C 17.189138 5.9635212 10.282454 5.7164981 8.5902425 7.2400004 C 7.2348982 8.4602198 8.0436315 14.192314 7.7892231 13.979612 z "
     id="path670"
     sodipodi:nodetypes="cssss" />
  <path
     style="font-size:12;fill:#000000;fill-opacity:1;fill-rule:evenodd;stroke:none;stroke-width:0.8125;stroke-dasharray:none;opacity:0.300000;"
     d="M 21.592152 7.5644064 C 21.592152 9.6598727 24.306847 10.588715 22.776708 11.962916 C 21.24657 13.337117 18.092098 14.115657 15.758848 14.115657 C 13.425598 14.115657 10.342921 13.444809 8.8127826 12.070608 C 7.2826439 10.696407 10.955093 8.4380607 12.833222 7.6003036 C 15.895293 6.2543208 13.520712 3.7657665 16.51269 2.4849436 C 20.64107 0.66811206 21.592152 3.3734729 21.592152 7.5644064 z "
     id="path672"
     sodipodi:nodetypes="cscsssc" />
  <path
     style="font-size:12;fill:url(#linearGradient569);fill-opacity:0.75;fill-rule:evenodd;stroke:#261933;stroke-width:0.8125;stroke-dasharray:none;"
     d="M 20.20115 6.4426307 C 20.20115 8.538097 22.915845 9.466939 21.385706 10.84114 C 19.855568 12.215341 16.701096 12.993881 14.367846 12.993881 C 12.034596 12.993881 8.9519192 12.323033 7.4217806 10.948832 C 5.8916419 9.574631 9.5640914 7.316285 11.44222 6.4785279 C 14.504291 5.1325451 12.12971 2.6439908 15.121688 1.3631679 C 19.250068 -0.45366368 20.20115 2.2516972 20.20115 6.4426307 z "
     id="path669"
     sodipodi:nodetypes="cscsssc" />
  <path
     style="fill:url(#linearGradient573);fill-rule:evenodd;stroke:none;stroke-opacity:1;stroke-width:1pt;stroke-linejoin:miter;stroke-linecap:butt;fill-opacity:0.75;"
     d="M 7.6012108 10.265688 C 7.4858893 8.51279 12.650913 6.5603841 13.165286 5.850325 C 13.751762 5.0407336 13.418209 3.5275527 14.062718 2.7631602 C 15.109132 1.486206 16.454602 1.0986533 16.575526 1.2195784 C 16.693916 1.3379685 15.887791 1.200505 14.780663 3.4811058 C 14.299966 4.5044871 14.708879 6.4781527 13.775539 6.783654 C 12.621873 7.18542 10.209661 8.407824 9.2337334 9.484657 C 8.6907568 10.063802 9.8623864 11.086131 9.7558014 11.312236 C 9.6408104 11.594896 8.7109483 11.239413 8.3928852 10.992189 C 8.0047213 10.734285 7.6186334 10.3941 7.6012108 10.265688 z "
     id="path671"
     sodipodi:nodetypes="csssssssss" />
</svg>
