<?xml version="1.0" encoding="UTF-8" standalone="no"?>
<!DOCTYPE svg PUBLIC "-//W3C//DTD SVG 20010904//EN"
"http://www.w3.org/TR/2001/REC-SVG-20010904/DTD/svg10.dtd">
<!-- Created with Inkscape (http://www.inkscape.org/) -->
<svg
   version="1.0"
   x="0"
   y="0"
   width="24.000000pt"
   height="24.000000pt"
   id="svg1"
   sodipodi:version="0.32"
   inkscape:version="0.39"
   sodipodi:docname="emblem-nowrite2.svg"
   sodipodi:docbase="/home/scaba/files/lila/work/lila-gnome/Lila/scalable/emblems"
   xmlns="http://www.w3.org/2000/svg"
   xmlns:cc="http://web.resource.org/cc/"
   xmlns:inkscape="http://www.inkscape.org/namespaces/inkscape"
   xmlns:sodipodi="http://sodipodi.sourceforge.net/DTD/sodipodi-0.dtd"
   xmlns:rdf="http://www.w3.org/1999/02/22-rdf-syntax-ns#"
   xmlns:dc="http://purl.org/dc/elements/1.1/"
   xmlns:xlink="http://www.w3.org/1999/xlink">
  <sodipodi:namedview
     id="base"
     inkscape:zoom="13.983744"
     inkscape:cx="21.681933"
     inkscape:cy="13.229750"
     inkscape:window-width="794"
     inkscape:window-height="526"
     inkscape:window-x="301"
     inkscape:window-y="111" />
  <defs
     id="defs3">
    <linearGradient
       id="linearGradient595">
      <stop
         style="stop-color:#7f7f7f;stop-opacity:1;"
         offset="0"
         id="stop596" />
      <stop
         style="stop-color:#e6e6e6;stop-opacity:1;"
         offset="1"
         id="stop597" />
    </linearGradient>
    <linearGradient
       id="linearGradient590">
      <stop
         style="stop-color:#ffffff;stop-opacity:1;"
         offset="0"
         id="stop591" />
      <stop
         style="stop-color:#ffffff;stop-opacity:0;"
         offset="1"
         id="stop592" />
    </linearGradient>
    <linearGradient
       id="linearGradient584">
      <stop
         style="stop-color:#d9cce6;stop-opacity:1;"
         offset="0.00000000"
         id="stop585" />
      <stop
         style="stop-color:#73667f;stop-opacity:1;"
         offset="1.00000000"
         id="stop586" />
    </linearGradient>
    <linearGradient
       x1="0.01204819"
       y1="0.01562500"
       x2="0.98795182"
       y2="1.00000000"
       id="linearGradient587"
       xlink:href="#linearGradient584" />
    <linearGradient
       x1="0.011696"
       y1="0.000001"
       x2="0.842105"
       y2="0.906250"
       id="linearGradient589"
       xlink:href="#linearGradient590" />
    <linearGradient
       x1="0.99218750"
       y1="0.98437500"
       x2="0.01562500"
       y2="0.00781250"
       id="linearGradient594"
       xlink:href="#linearGradient595" />
    <linearGradient
       x1="0.000001"
       y1="0.023434"
       x2="0.952381"
       y2="0.976562"
       id="linearGradient599"
       xlink:href="#linearGradient590" />
    <linearGradient
       id="linearGradient601"
       xlink:href="#linearGradient595" />
  </defs>
  <path
     d="M 10.185130,13.702837 C 10.124456,9.2894353 11.477317,2.7516163 16.269655,2.7951683 C 21.395363,2.8424183 22.554637,10.014345 22.428436,13.925451 C 22.365691,15.833861 18.894245,15.451764 18.940948,13.925451 C 18.903410,11.841240 19.454975,6.8763253 16.121246,6.8763253 C 12.801537,6.8021223 13.550561,11.913044 13.524210,13.925451 C 13.582099,15.096512 10.180381,15.267073 10.185130,13.702837 z "
     style="font-size:12.000000;opacity:0.30267498;fill-rule:evenodd;stroke-width:12.500000;"
     id="path602" />
  <path
     d="M 6.3289776,28.776513 C 7.0490726,29.360343 24.851996,29.671989 25.400743,29.085377 C 26.010520,28.347679 25.839677,15.077443 25.246310,14.414805 C 24.663443,13.771699 6.9746926,13.666946 6.4061926,14.337589 C 5.8630106,14.901720 5.6194986,28.138742 6.3289776,28.776513 z "
     style="font-size:12.000000;opacity:0.29636899;fill-rule:evenodd;stroke-width:12.500000;"
     id="path600" />
  <path
     d="M 9.2099013,12.787415 C 9.1500963,8.4369493 10.483665,1.9923633 15.207657,2.0352943 C 20.260271,2.0818703 21.403017,9.1515223 21.278612,13.006853 C 21.216761,14.888049 17.794821,14.511401 17.840858,13.006853 C 17.803854,10.952365 18.347558,6.0582523 15.061365,6.0582523 C 11.788997,5.9851073 12.527340,11.023145 12.501363,13.006853 C 12.558428,14.161215 9.2052253,14.329343 9.2099013,12.787415 z "
     style="font-size:12.000000;fill:url(#linearGradient594);fill-rule:evenodd;stroke:#333333;stroke-width:0.99257451;"
     id="path593" />
  <path
     d="M 5.9915316,27.343034 C 6.6736716,27.896097 23.538234,28.191316 24.058052,27.635618 C 24.635690,26.936809 24.473856,14.366024 23.911760,13.738312 C 23.359615,13.129103 6.6032176,13.029872 6.0646776,13.665167 C 5.5501296,14.199563 5.3194486,26.738884 5.9915316,27.343034 z "
     style="font-size:12.000000;fill:url(#linearGradient587);fill-rule:evenodd;stroke:#261933;stroke-width:0.99257451;"
     id="path583" />
  <path
     d="M 7.0155786,26.611629 C 6.7512836,26.254880 6.4122276,15.130775 7.0887246,14.616064 C 7.9965916,13.942853 22.852542,14.564754 23.107209,14.908594 C 23.340148,15.223069 11.721929,14.285187 8.5515906,16.590899 C 6.3580706,18.186181 7.2389426,26.913142 7.0155786,26.611629 z "
     style="font-size:12.000000;opacity:0.69999999;fill:url(#linearGradient589);fill-rule:evenodd;stroke:none;stroke-width:0.11004601pt;"
     id="path588" />
  <path
     d="M 10.087598,9.7885373 C 10.560896,6.7424373 11.726878,4.5148723 13.379060,3.2055923 C 14.311295,2.4668493 16.852418,2.6520333 18.060296,3.8638843 C 16.486692,3.3103253 14.714246,3.3150523 13.744791,4.0833113 C 12.129823,5.3630973 10.926626,7.4007513 10.087598,9.7885373 z "
     style="font-size:12.000000;opacity:0.69999999;fill:url(#linearGradient599);fill-rule:evenodd;stroke:none;stroke-width:0.11004601pt;"
     id="path598" />
  <path
     d="M 15.337222,16.740525 C 16.203356,16.810767 17.797723,18.363772 17.797723,19.137025 C 17.797723,19.828307 15.565053,20.332961 15.337222,21.134126 C 14.934114,22.552027 16.288983,24.646099 15.904913,25.794062 C 15.784219,26.155006 13.946321,26.040716 13.822886,25.660948 C 13.441557,24.487440 14.590701,22.597423 14.390788,21.134126 C 14.275316,20.289665 12.719401,19.467042 12.876506,18.737628 C 13.034901,18.002508 14.562899,16.677652 15.337222,16.740525 z "
     style="font-size:12.000000;fill:#261933;fill-opacity:1.0000000;fill-rule:evenodd;stroke-width:1.2871100pt;"
     id="path603" />
  <metadata
     id="metadata25">
    <rdf:RDF
       id="RDF26">
      <cc:Work
         rdf:about=""
         id="Work27">
        <dc:format
           id="format28">image/svg+xml</dc:format>
        <dc:type
           id="type30"
           rdf:resource="http://purl.org/dc/dcmitype/StillImage" />
      </cc:Work>
    </rdf:RDF>
  </metadata>
</svg>
