<?xml version="1.0" encoding="UTF-8" standalone="no"?>
<!DOCTYPE svg PUBLIC "-//W3C//DTD SVG 20010904//EN"
"http://www.w3.org/TR/2001/REC-SVG-20010904/DTD/svg10.dtd">
<!-- Created with Inkscape (http://www.inkscape.org/) -->
<svg
   version="1"
   x="0.00000000"
   y="0.00000000"
   width="24.000000pt"
   height="24.000000pt"
   id="svg548"
   sodipodi:version="0.32"
   inkscape:version="0.39"
   sodipodi:docname="emblem-paused.svg"
   sodipodi:docbase="/home/scaba/files/lila/work/lila-gnome/Lila/scalable/emblems"
   xmlns="http://www.w3.org/2000/svg"
   xmlns:cc="http://web.resource.org/cc/"
   xmlns:inkscape="http://www.inkscape.org/namespaces/inkscape"
   xmlns:sodipodi="http://sodipodi.sourceforge.net/DTD/sodipodi-0.dtd"
   xmlns:rdf="http://www.w3.org/1999/02/22-rdf-syntax-ns#"
   xmlns:dc="http://purl.org/dc/elements/1.1/"
   xmlns:xlink="http://www.w3.org/1999/xlink">
  <sodipodi:namedview
     id="base"
     inkscape:zoom="16.000000"
     inkscape:cx="22.081238"
     inkscape:cy="13.059639"
     inkscape:window-width="1022"
     inkscape:window-height="695"
     inkscape:window-x="-1"
     inkscape:window-y="26" />
  <defs
     id="defs550">
    <linearGradient
       x1="0.00000000"
       y1="0.00000000"
       x2="1.00000000"
       y2="0.00000000"
       id="linearGradient596"
       gradientUnits="objectBoundingBox"
       spreadMethod="pad">
      <stop
         style="stop-color:#ffffff;stop-opacity:1;"
         offset="0.00000000"
         id="stop597" />
      <stop
         style="stop-color:#ffffff;stop-opacity:0;"
         offset="1.00000000"
         id="stop598" />
    </linearGradient>
    <linearGradient
       x1="0.00000000"
       y1="0.00000000"
       x2="1.00000000"
       y2="0.00000000"
       id="linearGradient613"
       gradientUnits="objectBoundingBox"
       spreadMethod="pad">
      <stop
         style="stop-color:#ffffff;stop-opacity:1;"
         offset="0.00000000"
         id="stop614" />
      <stop
         style="stop-color:#d9cce6;stop-opacity:1;"
         offset="1.00000000"
         id="stop615" />
    </linearGradient>
    <linearGradient
       x1="0.00000000"
       y1="0.00000000"
       x2="1.00000000"
       y2="0.00000000"
       id="linearGradient576"
       gradientUnits="objectBoundingBox"
       spreadMethod="pad">
      <stop
         style="stop-color:#f3ffb7;stop-opacity:0.854902;"
         offset="0.00000000"
         id="stop577" />
      <stop
         style="stop-color:#edca2a;stop-opacity:0.952941;"
         offset="1.00000000"
         id="stop578" />
    </linearGradient>
    <linearGradient
       x1="0.00000000"
       y1="0.00000000"
       x2="1.00000000"
       y2="0.00000000"
       id="linearGradient553"
       gradientUnits="objectBoundingBox"
       spreadMethod="pad">
      <stop
         style="stop-color:#d9cce6;stop-opacity:1;"
         offset="0.00000000"
         id="stop554" />
      <stop
         style="stop-color:#73667f;stop-opacity:1;"
         offset="1.00000000"
         id="stop555" />
    </linearGradient>
    <linearGradient
       x1="-0.14718680"
       y1="0.15963815"
       x2="1.06099808"
       y2="0.80974162"
       id="linearGradient556"
       xlink:href="#linearGradient613"
       gradientUnits="objectBoundingBox"
       spreadMethod="pad" />
    <linearGradient
       x1="0.00000320"
       y1="-0.00000338"
       x2="0.77868861"
       y2="0.83593744"
       id="linearGradient558"
       xlink:href="#linearGradient596"
       gradientUnits="objectBoundingBox"
       spreadMethod="pad" />
    <linearGradient
       x1="0.01012245"
       y1="0.01567149"
       x2="0.87000453"
       y2="0.90625161"
       id="linearGradient560"
       xlink:href="#linearGradient596"
       gradientUnits="objectBoundingBox"
       gradientTransform="translate(1.608839e-6,6.124947e-7)"
       spreadMethod="pad" />
    <linearGradient
       x1="0.02271967"
       y1="0.01562500"
       x2="0.96590889"
       y2="0.96093738"
       id="linearGradient562"
       xlink:href="#linearGradient613"
       gradientUnits="objectBoundingBox"
       spreadMethod="pad" />
    <linearGradient
       x1="-0.12717241"
       y1="0.29160193"
       x2="1.28247404"
       y2="0.70541745"
       id="linearGradient564"
       xlink:href="#linearGradient553"
       gradientUnits="objectBoundingBox"
       spreadMethod="pad" />
    <linearGradient
       x1="0.01136383"
       y1="0.00781196"
       x2="0.97727299"
       y2="0.97656238"
       id="linearGradient575"
       xlink:href="#linearGradient613"
       gradientUnits="objectBoundingBox"
       spreadMethod="pad" />
    <linearGradient
       x1="0.00000093"
       y1="0.02343896"
       x2="0.59259260"
       y2="0.53125006"
       id="linearGradient623"
       xlink:href="#linearGradient596"
       gradientUnits="objectBoundingBox"
       spreadMethod="pad" />
    <radialGradient
       cx="0.54163635"
       cy="0.48528421"
       fx="0.54163635"
       fy="0.48528421"
       r="0.44431308"
       id="radialGradient599"
       xlink:href="#linearGradient613"
       gradientUnits="objectBoundingBox"
       spreadMethod="pad" />
    <linearGradient
       x1="0.00791449"
       y1="0.02343800"
       x2="0.49206322"
       y2="0.57812494"
       id="linearGradient600"
       xlink:href="#linearGradient596"
       gradientUnits="objectBoundingBox"
       spreadMethod="pad" />
    <linearGradient
       x1="-0.00000316"
       y1="0.01563059"
       x2="0.65306103"
       y2="0.78906244"
       id="linearGradient601"
       xlink:href="#linearGradient596"
       gradientUnits="objectBoundingBox"
       spreadMethod="pad" />
    <linearGradient
       x1="0.00000000"
       y1="0.00000000"
       x2="1.00000000"
       y2="0.00000000"
       id="linearGradient605"
       xlink:href="#linearGradient596"
       gradientUnits="objectBoundingBox"
       spreadMethod="pad" />
  </defs>
  <metadata
     id="metadata952">
    <rdf:RDF
       id="RDF953">
      <cc:Work
         rdf:about=""
         id="Work954">
        <dc:format
           id="format955">image/svg+xml</dc:format>
        <dc:type
           id="type957"
           rdf:resource="http://purl.org/dc/dcmitype/StillImage" />
      </cc:Work>
    </rdf:RDF>
  </metadata>
  <path
     d="M 28.503732,13.035226 C 29.581108,23.901840 12.112561,29.437910 3.2611990,29.441426 C 15.555621,21.052390 7.5997790,23.913967 5.1058620,15.507021 C 4.4568630,9.4230340 8.1557780,4.0586300 14.974818,3.3311730 C 21.793804,2.6038450 27.854733,6.9512370 28.503732,13.035226 z "
     style="font-size:12.000000;opacity:0.30267498;fill:#000000;fill-opacity:1.0000000;fill-rule:evenodd;stroke-width:26.185499;"
     id="path1117"
     sodipodi:nodetypes="ccccc" />
  <path
     d="M 26.493954,10.694783 C 28.091499,20.694024 13.497716,26.635004 5.3045780,27.127179 C 16.221600,18.682689 5.4295640,22.589404 3.7697640,14.498882 C 2.8330040,8.9030420 7.1629360,3.5093820 13.434840,2.4594460 C 19.706709,1.4095170 25.557184,5.0989450 26.493954,10.694783 z "
     style="font-size:12.000000;fill:url(#linearGradient556);fill-rule:evenodd;stroke:#333333;stroke-width:2.1775398;stroke-opacity:1.0000000;"
     id="path864" />
  <path
     d="M 9.7799890,18.577872 C 9.0153570,18.421832 3.6286310,16.786434 5.8806360,10.217301 C 7.2777030,6.0068280 11.092614,4.0240170 16.996914,4.0013580 C 10.135674,5.4339990 8.2240610,8.9223820 7.5301620,11.247762 C 6.9920260,13.227119 7.9822090,16.322443 9.7799890,18.577872 z "
     style="font-size:12.000000;opacity:0.85000002;fill:url(#linearGradient558);fill-rule:evenodd;stroke:#ffffff;stroke-width:0.044823059pt;"
     id="path873" />
  <path
     d="M 9.6383790,25.217619 C 9.6383790,25.217619 11.357589,23.946028 11.718529,23.051518 C 12.086064,22.268340 11.758178,21.531864 11.716819,20.665846 C 12.091320,21.482820 12.629953,22.387664 12.418654,23.161549 C 12.207355,23.935433 9.8134070,25.245126 9.6383790,25.217619 z "
     style="font-size:12.000000;opacity:0.85000002;fill:url(#linearGradient560);fill-rule:evenodd;stroke:#ffffff;stroke-width:0.044823059pt;"
     id="path874" />
  <path
     style="font-size:12.000000;font-weight:normal;stroke-width:1.0000000pt;font-family:Radio Stars;"
     d="M 13.721068,12.842194 L 10.222526,15.567727 L 13.307431,15.602716 C 13.497091,15.604868 13.644588,15.665815 13.749926,15.785561 C 13.855265,15.905305 13.906990,16.048157 13.905106,16.214108 C 13.903226,16.380055 13.848271,16.521699 13.740244,16.639024 C 13.632219,16.756346 13.483374,16.813935 13.293716,16.811782 L 8.4930009,16.757334 C 8.2855601,16.754983 8.1201823,16.702721 7.9968634,16.600552 C 7.8735435,16.498387 7.8127236,16.373216 7.8144055,16.225047 C 7.8166912,16.023536 7.9254881,15.838049 8.1408052,15.668592 L 11.630356,12.951852 L 8.5365629,12.916762 C 8.3469025,12.914612 8.1994056,12.853661 8.0940672,12.733914 C 7.9887289,12.614170 7.9370018,12.471321 7.9388840,12.305371 C 7.9407673,12.139420 7.9957221,11.997780 8.1037486,11.880458 C 8.2117741,11.763128 8.3606175,11.705543 8.5502760,11.707694 L 13.350993,11.762142 C 13.564357,11.764562 13.732698,11.816856 13.856019,11.919025 C 13.979339,12.021192 14.040159,12.146360 14.038476,12.294533 C 14.036194,12.496042 13.930387,12.678599 13.721068,12.842194 z "
     id="path615" />
  <path
     style="font-size:12.000000;font-weight:normal;stroke-width:1.0000000pt;font-family:Radio Stars;"
     d="M 22.007455,9.0299268 L 17.460726,12.572048 L 21.469885,12.617522 C 21.716364,12.620316 21.908057,12.699527 22.044955,12.855148 C 22.181855,13.010771 22.249078,13.196419 22.246632,13.412089 C 22.244187,13.627760 22.172768,13.811837 22.032375,13.964314 C 21.891981,14.116791 21.698545,14.191633 21.452064,14.188836 L 15.213017,14.118071 C 14.943430,14.115016 14.728502,14.047093 14.568235,13.914321 C 14.407965,13.781539 14.328924,13.618870 14.331106,13.426305 C 14.334078,13.164423 14.475476,12.923366 14.755299,12.703139 L 19.290349,9.1724357 L 15.269629,9.1268298 C 15.023148,9.1240350 14.831460,9.0448269 14.694562,8.8892067 C 14.557664,8.7335804 14.490438,8.5479354 14.492885,8.3322655 C 14.495332,8.1165967 14.566751,7.9325178 14.707145,7.7800421 C 14.847534,7.6275663 15.040971,7.5527264 15.287451,7.5555212 L 21.526496,7.6262858 C 21.803790,7.6294302 22.022569,7.6973908 22.182836,7.8301674 C 22.343104,7.9629441 22.422146,8.1256165 22.419960,8.3181785 C 22.416991,8.5800650 22.279490,8.8173141 22.007455,9.0299268 z "
     id="path618" />
</svg>
