<?xml version="1.0" encoding="UTF-8" standalone="no"?>
<!DOCTYPE svg PUBLIC "-//W3C//DTD SVG 20010904//EN"
"http://www.w3.org/TR/2001/REC-SVG-20010904/DTD/svg10.dtd">
<!-- Created with Inkscape (http://www.inkscape.org/) -->
<svg
   version="1.0"
   x="0"
   y="0"
   width="24.000000pt"
   height="24.000000pt"
   id="svg611"
   sodipodi:version="0.32"
   inkscape:version="0.38.1"
   sodipodi:docname="emblem-art.svg"
   sodipodi:docbase="/home/dan/svg-icons/lila/gnome/scalable/emblems"
   xmlns="http://www.w3.org/2000/svg"
   xmlns:inkscape="http://www.inkscape.org/namespaces/inkscape"
   xmlns:sodipodi="http://sodipodi.sourceforge.net/DTD/sodipodi-0.dtd"
   xmlns:xlink="http://www.w3.org/1999/xlink">
  <sodipodi:namedview
     id="base"
     pagecolor="#ffffff"
     bordercolor="#666666"
     borderopacity="1.0"
     inkscape:pageopacity="0.0"
     inkscape:pageshadow="2"
     inkscape:zoom="9.8238822"
     inkscape:cx="12.583066"
     inkscape:cy="9.3653463"
     inkscape:window-width="640"
     inkscape:window-height="525"
     inkscape:window-x="20"
     inkscape:window-y="46" />
  <defs
     id="defs613">
    <linearGradient
       id="linearGradient1272">
      <stop
         style="stop-color:#0000ff;stop-opacity:1;"
         offset="0"
         id="stop1273" />
      <stop
         style="stop-color:#00008d;stop-opacity:1;"
         offset="1"
         id="stop1274" />
    </linearGradient>
    <linearGradient
       id="linearGradient1269">
      <stop
         style="stop-color:#00ff00;stop-opacity:1;"
         offset="0"
         id="stop1270" />
      <stop
         style="stop-color:#008700;stop-opacity:1;"
         offset="1"
         id="stop1271" />
    </linearGradient>
    <linearGradient
       id="linearGradient1256">
      <stop
         style="stop-color:#ffffff;stop-opacity:1;"
         offset="0"
         id="stop1258" />
      <stop
         style="stop-color:#ffffff;stop-opacity:0;"
         offset="1"
         id="stop1257" />
    </linearGradient>
    <linearGradient
       id="linearGradient1253">
      <stop
         style="stop-color:#c7b397;stop-opacity:1.0000000;"
         offset="0.0000000"
         id="stop1255" />
      <stop
         style="stop-color:#faebdc;stop-opacity:1.0000000;"
         offset="1.0000000"
         id="stop1254" />
    </linearGradient>
    <linearGradient
       id="linearGradient1048">
      <stop
         style="stop-color:#ffffff;stop-opacity:1;"
         offset="0"
         id="stop1049" />
      <stop
         style="stop-color:#7f7f7f;stop-opacity:1;"
         offset="1"
         id="stop1050" />
    </linearGradient>
    <linearGradient
       id="linearGradient1535">
      <stop
         style="stop-color:#ffffff;stop-opacity:1;"
         offset="0"
         id="stop1537" />
      <stop
         style="stop-color:#ffffff;stop-opacity:0;"
         offset="1"
         id="stop1536" />
    </linearGradient>
    <linearGradient
       id="linearGradient1528">
      <stop
         style="stop-color:#d9cce6;stop-opacity:1;"
         offset="0.00000000"
         id="stop1530" />
      <stop
         style="stop-color:#73667f;stop-opacity:1;"
         offset="1.00000000"
         id="stop1529" />
    </linearGradient>
    <linearGradient
       id="linearGradient642">
      <stop
         style="stop-color:#ffffff;stop-opacity:1;"
         offset="0"
         id="stop643" />
      <stop
         style="stop-color:#ffffff;stop-opacity:0;"
         offset="1"
         id="stop644" />
    </linearGradient>
    <linearGradient
       id="linearGradient635">
      <stop
         style="stop-color:#ff0000;stop-opacity:1;"
         offset="0"
         id="stop636" />
      <stop
         style="stop-color:#870000;stop-opacity:1;"
         offset="1"
         id="stop637" />
    </linearGradient>
    <linearGradient
       x1="0.30701753"
       y1="0.32031250"
       x2="0.56140351"
       y2="0.56250000"
       id="linearGradient638"
       xlink:href="#linearGradient1528" />
    <linearGradient
       x1="0.00793651"
       y1="0.01562500"
       x2="0.98412699"
       y2="0.98437500"
       id="linearGradient641"
       xlink:href="#linearGradient1048" />
    <linearGradient
       x1="-0.016529"
       y1="0.007812"
       x2="1.008265"
       y2="1.000000"
       id="linearGradient1522"
       xlink:href="#linearGradient642" />
    <linearGradient
       x1="0.98666668"
       y1="0.98437500"
       x2="0.02000000"
       y2="0.03125000"
       id="linearGradient1527"
       xlink:href="#linearGradient1253" />
    <linearGradient
       x1="0.018182"
       y1="0.020408"
       x2="0.981818"
       y2="0.969388"
       id="linearGradient1532"
       xlink:href="#linearGradient1256" />
    <linearGradient
       x1="0.02307700"
       y1="0.02343756"
       x2="0.99230766"
       y2="1.00781238"
       id="linearGradient1534"
       xlink:href="#linearGradient635" />
    <linearGradient
       x1="0.020099"
       y1="0.023282"
       x2="0.989950"
       y2="1.023435"
       id="linearGradient1539"
       xlink:href="#linearGradient1256"
       gradientTransform="translate(-3.303398e-8,-1.426085e-6)" />
    <linearGradient
       x1="0.006447"
       y1="0.039037"
       x2="0.980645"
       y2="0.984374"
       id="linearGradient1567"
       xlink:href="#linearGradient1256" />
    <linearGradient
       x1="0.00781253"
       y1="0.02343748"
       x2="1.00000000"
       y2="0.99218750"
       id="linearGradient1042"
       xlink:href="#linearGradient1269" />
    <linearGradient
       x1="0.00781262"
       y1="0.03124999"
       x2="0.97656244"
       y2="0.96875000"
       id="linearGradient1044"
       xlink:href="#linearGradient1272" />
    <defs
       id="defs1121">
      <linearGradient
         x1="0.000000"
         y1="0.000000"
         x2="1.000000"
         y2="0.000000"
         id="linearGradient1231"
         xlink:href="#linearGradient1256"
         gradientUnits="objectBoundingBox"
         spreadMethod="pad" />
      <linearGradient
         id="linearGradient1226">
        <stop
           style="stop-color:#e6e6e6;stop-opacity:1;"
           offset="0"
           id="stop1227" />
        <stop
           style="stop-color:#7f7f7f;stop-opacity:1;"
           offset="1"
           id="stop1228" />
      </linearGradient>
      <linearGradient
         id="linearGradient1223">
        <stop
           style="stop-color:#000000;stop-opacity:1;"
           offset="0"
           id="stop1225" />
        <stop
           style="stop-color:#000000;stop-opacity:0;"
           offset="1"
           id="stop1224" />
      </linearGradient>
      <linearGradient
         x1="0.000000"
         y1="0.000000"
         x2="1.000000"
         y2="0.000000"
         id="linearGradient1218"
         xlink:href="#linearGradient1253"
         gradientUnits="objectBoundingBox"
         spreadMethod="pad" />
      <linearGradient
         id="linearGradient1215">
        <stop
           style="stop-color:#7f7366;stop-opacity:1;"
           offset="0"
           id="stop1217" />
        <stop
           style="stop-color:#7f7366;stop-opacity:0;"
           offset="1"
           id="stop1216" />
      </linearGradient>
      <linearGradient
         id="linearGradient1137">
        <stop
           style="stop-color:#ffffff;stop-opacity:1;"
           offset="0"
           id="stop1138" />
        <stop
           style="stop-color:#ffffff;stop-opacity:0;"
           offset="1"
           id="stop1139" />
      </linearGradient>
      <linearGradient
         id="linearGradient1140">
        <stop
           style="stop-color:#e6cfff;stop-opacity:1;"
           offset="0"
           id="stop1141" />
        <stop
           style="stop-color:#ffffff;stop-opacity:1;"
           offset="1"
           id="stop1142" />
      </linearGradient>
      <linearGradient
         x1="0.008696"
         y1="0.000000"
         x2="0.965218"
         y2="0.968750"
         id="linearGradient1143"
         xlink:href="#linearGradient635" />
      <linearGradient
         x1="0.015504"
         y1="0.007812"
         x2="0.697674"
         y2="0.882812"
         id="linearGradient1144"
         xlink:href="#linearGradient642" />
      <linearGradient
         x1="0.030302"
         y1="0.023437"
         x2="0.979798"
         y2="0.976562"
         id="linearGradient1214"
         xlink:href="#linearGradient1218" />
      <linearGradient
         x1="0.977528"
         y1="0.953125"
         x2="0.011236"
         y2="0.039063"
         id="linearGradient1222"
         xlink:href="#linearGradient1226" />
      <linearGradient
         x1="0.003630"
         y1="-0.000003"
         x2="0.960000"
         y2="0.991228"
         id="linearGradient1230"
         xlink:href="#linearGradient1231" />
      <linearGradient
         x1="0.011765"
         y1="0.015625"
         x2="0.705882"
         y2="0.828125"
         id="linearGradient1235"
         xlink:href="#linearGradient1231" />
    </defs>
    <linearGradient
       x1="0.005816"
       y1="0.015632"
       x2="0.994152"
       y2="0.976562"
       id="linearGradient1276"
       xlink:href="#linearGradient1256" />
    <linearGradient
       id="linearGradient1281"
       xlink:href="#linearGradient1272" />
    <radialGradient
       id="radialGradient1285"
       xlink:href="#linearGradient1272" />
    <radialGradient
       id="radialGradient1286"
       xlink:href="#linearGradient1272" />
    <radialGradient
       id="radialGradient1287"
       xlink:href="#linearGradient1272" />
  </defs>
  <path
     d="M 13.036934,4.3881878 C 8.9244081,5.0300013 1.9560406,9.1380920 1.5508409,12.451263 C 1.0939665,16.187005 6.8280115,23.374448 10.450668,25.534758 C 12.355542,26.670710 16.203981,21.883388 18.133411,22.339997 C 19.525577,22.669384 19.089922,27.911595 20.415403,27.892803 C 22.665131,27.860872 28.150697,24.891505 28.858807,22.187774 C 29.824189,18.501867 28.146650,11.773640 25.435823,8.7239465 C 22.872673,5.8404437 16.886095,3.7875617 13.036934,4.3881878 z M 25.055493,22.149803 C 25.055493,23.430435 24.016109,24.469819 22.735477,24.469819 C 21.454786,24.469819 20.415403,23.430435 20.415403,22.149803 C 20.415403,20.869115 21.454786,19.829729 22.735477,19.829729 C 24.016109,19.829729 25.055493,20.869115 25.055493,22.149803 z "
     style="font-size:12;opacity:0.302675;fill-rule:evenodd;stroke-width:12.5;"
     id="path1280" />
  <path
     d="M 12.799575,4.3615535 C 8.9395063,4.9639158 2.3989410,8.8199264 2.0186105,11.929658 C 1.5897767,15.436072 6.9718541,22.182296 10.372073,24.209992 C 12.160064,25.276210 15.772258,20.782769 17.583245,21.211347 C 18.889897,21.520515 18.481039,26.440975 19.725099,26.423283 C 21.836722,26.393314 26.985542,23.606225 27.650240,21.068522 C 28.556357,17.608831 26.981798,11.293632 24.437330,8.4311502 C 22.031576,5.7246593 16.412447,3.7978091 12.799575,4.3615535 z M 24.080347,21.032829 C 24.080347,22.234847 23.104767,23.210426 21.902747,23.210426 C 20.700680,23.210426 19.725099,22.234847 19.725099,21.032829 C 19.725099,19.830759 20.700680,18.855180 21.902747,18.855180 C 23.104767,18.855180 24.080347,19.830759 24.080347,21.032829 z "
     style="font-size:12.000000;fill:url(#linearGradient1527);fill-rule:evenodd;stroke:#333300;stroke-width:1.0625000;stroke-dasharray:none;"
     id="path1263" />
  <ellipse
     cx="177.968323"
     cy="277.793854"
     rx="43.652611"
     ry="43.652618"
     transform="matrix(5.315638e-2,0.000000,0.000000,5.315638e-2,-2.550811,-2.158570)"
     style="font-size:12;fill:url(#linearGradient1534);fill-rule:evenodd;stroke:#330000;stroke-width:14.109313;stroke-opacity:1;stroke-dasharray:none;"
     id="path1264" />
  <ellipse
     cx="177.968323"
     cy="277.793854"
     rx="43.652611"
     ry="43.652618"
     transform="matrix(5.315638e-2,0.000000,0.000000,5.315638e-2,3.946343,-4.871674)"
     style="font-size:12;fill:url(#linearGradient1042);fill-rule:evenodd;stroke:#003300;stroke-width:14.109313;stroke-opacity:1;stroke-dasharray:none;"
     id="path1267" />
  <ellipse
     cx="177.968323"
     cy="277.793854"
     rx="43.652611"
     ry="43.652618"
     transform="matrix(5.315638e-2,0.000000,0.000000,5.315638e-2,12.58540,-0.587836)"
     style="font-size:12;fill:url(#linearGradient1044);fill-rule:evenodd;stroke:#000033;stroke-width:14.109313;stroke-opacity:1;stroke-dasharray:none;"
     id="path1268" />
  <path
     d="M 2.8753776,13.071996 C 2.9126890,12.761008 5.5123354,6.4193766 13.727755,5.3611197 C 17.009969,4.8761392 23.902451,7.7001682 24.722924,10.144737 C 24.687804,10.437099 20.150139,6.0256057 13.442210,6.9318285 C 5.7993380,7.6439235 2.8413025,13.355980 2.8753776,13.071996 z "
     style="font-size:12;opacity:0.7;fill:url(#linearGradient1532);fill-rule:evenodd;stroke:none;stroke-width:1.02162pt;"
     id="path1259" />
  <g
     transform="matrix(5.315638e-2,0.000000,0.000000,5.315638e-2,-2.550811,-2.015778)"
     style="font-size:12;opacity:0.302675;"
     id="g1288">
    <path
       d="M 193.828 467.434 C 178.941 468.948 161.154 486.272 148.606 498.444 C 130.468 516.075 92.7478 564.2 104.676 592.765 C 111.698 552.141 185.106 555.496 205.456 535.914 C 216.415 526.066 227.005 503.459 224.837 490.691 C 223.129 480.633 204.352 466.364 193.828 467.434 z "
       style="fill-rule:evenodd;stroke-width:0.961965pt;"
       id="path1282" />
    <path
       d="M 229.409 417.471 C 221.482 419.905 190.897 456.406 190.623 463.082 C 190.082 475.91 220.297 500.47 232.768 498.042 C 237.828 496.761 268.98 456.842 269.182 451.097 C 269.654 438.55 241.337 414.372 229.409 417.471 z "
       style="fill-rule:evenodd;stroke-width:11.3244;"
       id="path1283" />
    <path
       d="M 221.358 423.625 C 228.067 386.292 264.417 333.237 298.019 298.291 C 375.96 217.232 538.735 66.7744 555.987 75.6109 C 571.994 83.8099 456.882 263.285 391.15 343.699 C 355.597 386.031 313.676 435.685 270.031 454.046 C 254.863 460.427 218.737 438.21 221.358 423.625 z "
       style="fill-rule:evenodd;stroke-width:11.3244;"
       id="path1284" />
  </g>
  <path
     d="M 7.1097878,22.331468 C 6.3184504,22.411960 5.3729441,23.332855 4.7059599,23.979859 C 3.7417756,24.917092 1.7367383,27.475190 2.3707867,28.993610 C 2.7440725,26.834220 6.6461412,27.012535 7.7278627,25.971655 C 8.3104013,25.448174 8.8733754,24.246466 8.7581281,23.567723 C 8.6673338,23.033105 7.6692249,22.274599 7.1097878,22.331468 z "
     style="font-size:12.000000;fill-rule:evenodd;stroke:#000000;stroke-width:0.61907792;"
     id="path1047" />
  <path
     d="M 9.0011630,19.675654 C 8.5797653,19.805004 6.9539559,21.745289 6.9394392,22.100138 C 6.9106660,22.782056 8.5167566,24.087563 9.1796816,23.958474 C 9.4486817,23.890418 11.104565,21.768442 11.115335,21.463072 C 11.140415,20.796140 9.6351606,19.510924 9.0011630,19.675654 z "
     style="font-size:12.000000;fill:url(#linearGradient641);fill-rule:evenodd;stroke:#333333;stroke-width:1.0625000;stroke-dasharray:none;"
     id="path1046" />
  <path
     d="M 8.5731569,20.002773 C 8.9297778,18.018262 10.862049,15.198082 12.648166,13.340476 C 16.791231,9.0316918 25.443761,1.0339169 26.360805,1.5036310 C 27.211671,1.9394631 21.092783,11.479693 17.598699,15.754189 C 15.708832,18.004422 13.480453,20.643846 11.160447,21.619842 C 10.354175,21.959031 8.4338705,20.778034 8.5731569,20.002773 z "
     style="font-size:12.000000;fill:url(#linearGradient638);fill-rule:evenodd;stroke:#261933;stroke-width:1.0625000;stroke-dasharray:none;"
     id="path1045" />
  <path
     d="M 9.3725608,19.926183 C 8.5818461,20.976531 11.152486,16.346821 13.799142,13.357594 C 17.262995,9.5387331 25.991128,2.0684114 25.294072,2.8622258 C 24.194710,4.0329265 11.804849,16.528825 9.3725608,19.926183 z "
     style="font-size:12;opacity:0.7;fill:url(#linearGradient1522);fill-rule:evenodd;stroke:none;stroke-width:1.02162pt;"
     id="path1051" />
  <path
     d="M 7.5162015,22.210860 C 7.5162015,22.101491 8.1058678,21.149742 8.4443812,21.068522 C 8.7008421,21.006917 9.3011735,21.675463 9.3011735,21.782490 C 9.3011735,21.865844 8.7082294,21.576343 8.4443812,21.639665 C 8.1132563,21.719117 7.5162015,22.291873 7.5162015,22.210860 z "
     style="font-size:12;opacity:0.699936;fill:url(#linearGradient1539);fill-rule:evenodd;stroke:none;stroke-width:1.02162pt;"
     id="path1265" />
  <path
     d="M 2.6611820,27.494236 C 2.7077337,26.916743 4.5932612,23.961337 6.5880738,23.139040 C 7.0338756,22.964997 7.9166314,24.113734 7.9446240,24.281378 C 7.9642917,24.399281 7.0629084,23.793796 6.7308472,23.995781 C 5.3017139,24.864801 2.6671339,27.632428 2.6611820,27.494236 z "
     style="font-size:12;opacity:0.7;fill:url(#linearGradient1567);fill-rule:evenodd;stroke:none;stroke-width:1.02162pt;"
     id="path1266" />
  <path
     d="M 18.654197,20.997083 C 18.562051,20.852333 18.133994,18.800599 19.296782,18.141159 C 20.623463,17.366990 22.778896,17.860452 22.866622,17.998385 C 22.945446,18.122272 21.134303,17.832251 19.796536,18.926566 C 18.612989,19.850061 18.728655,21.114102 18.654197,20.997083 z "
     style="font-size:12;opacity:0.699936;fill:url(#linearGradient1276);fill-rule:evenodd;stroke:none;stroke-width:1.02162pt;"
     id="path1275" />
  <path
     d="M 5.1861008,13.375649 C 5.1173686,13.267684 4.7981590,11.737715 5.6653060,11.245971 C 6.6546213,10.668688 8.2619606,11.036651 8.3273624,11.139464 C 8.3861583,11.231870 7.0355915,11.015578 6.0380040,11.831632 C 5.1554033,12.520261 5.2416184,13.462956 5.1861008,13.375649 z "
     style="font-size:12;opacity:0.699936;fill:url(#linearGradient1276);fill-rule:evenodd;stroke:none;stroke-width:0.761844pt;"
     id="path1277" />
  <path
     d="M 11.698759,10.750428 C 11.630025,10.642465 11.310815,9.1124961 12.177963,8.6206991 C 13.167279,8.0434692 14.774617,8.4113795 14.840020,8.5142445 C 14.898815,8.6066511 13.548248,8.3903592 12.550660,9.2064116 C 11.668060,9.8950402 11.754274,10.837736 11.698759,10.750428 z "
     style="font-size:12;opacity:0.699936;fill:url(#linearGradient1276);fill-rule:evenodd;stroke:none;stroke-width:0.761844pt;"
     id="path1278" />
  <path
     d="M 20.382249,15.041678 C 20.313569,14.933713 19.994357,13.403745 20.861455,12.912001 C 21.850771,12.334719 23.458106,12.702629 23.523565,12.805493 C 23.582360,12.897901 22.231740,12.681608 21.234152,13.497661 C 20.351552,14.186290 20.437765,15.128986 20.382249,15.041678 z "
     style="font-size:12;opacity:0.699936;fill:url(#linearGradient1276);fill-rule:evenodd;stroke:none;stroke-width:0.761844pt;"
     id="path1279" />
</svg>
