<?xml version="1.0" encoding="UTF-8" standalone="no"?>
<!DOCTYPE svg PUBLIC "-//W3C//DTD SVG 20010904//EN"
"http://www.w3.org/TR/2001/REC-SVG-20010904/DTD/svg10.dtd">
<!-- Created with Inkscape (http://www.inkscape.org/) -->
<svg
   id="svg1"
   sodipodi:version="0.32"
   inkscape:version="0.38.1"
   width="24.000000pt"
   height="24.000000pt"
   sodipodi:docbase="/home/dan/svg-icons/lila/gnome/scalable/emblems"
   sodipodi:docname="emblem-bin.svg"
   xmlns="http://www.w3.org/2000/svg"
   xmlns:inkscape="http://www.inkscape.org/namespaces/inkscape"
   xmlns:sodipodi="http://sodipodi.sourceforge.net/DTD/sodipodi-0.dtd"
   xmlns:xlink="http://www.w3.org/1999/xlink">
  <defs
     id="defs3">
    <linearGradient
       id="linearGradient866">
      <stop
         style="stop-color:#ffffff;stop-opacity:1.0000000;"
         offset="0.0000000"
         id="stop867" />
      <stop
         style="stop-color:#d9cce6;stop-opacity:1;"
         offset="1.00000000"
         id="stop868" />
    </linearGradient>
    <linearGradient
       id="linearGradient584">
      <stop
         style="stop-color:#ffffff;stop-opacity:1.0000000;"
         offset="0.0000000"
         id="stop585" />
      <stop
         style="stop-color:#ffffff;stop-opacity:0;"
         offset="1.00000000"
         id="stop586" />
    </linearGradient>
    <linearGradient
       id="linearGradient578">
      <stop
         style="stop-color:#d9cce6;stop-opacity:1;"
         offset="0.00000000"
         id="stop579" />
      <stop
         style="stop-color:#73667f;stop-opacity:1;"
         offset="1.00000000"
         id="stop580" />
    </linearGradient>
    <linearGradient
       xlink:href="#linearGradient584"
       id="linearGradient581"
       x1="-0.0086206896"
       y1="-1.2294853e-16"
       x2="0.94827586"
       y2="0.96093750" />
    <linearGradient
       xlink:href="#linearGradient584"
       id="linearGradient583"
       x1="0.01094890"
       y1="0.01030928"
       x2="1.01459849"
       y2="0.96907216" />
    <linearGradient
       xlink:href="#linearGradient584"
       id="linearGradient860"
       x1="0.02380952"
       y1="0.04687500"
       x2="1.00793648"
       y2="0.99218750" />
    <linearGradient
       xlink:href="#linearGradient584"
       id="linearGradient861"
       x1="0.04069768"
       y1="0.04687500"
       x2="0.99418604"
       y2="0.96875000" />
    <linearGradient
       xlink:href="#linearGradient584"
       id="linearGradient862"
       x1="0.01824817"
       y1="0.02542373"
       x2="0.98540145"
       y2="0.94915253" />
    <linearGradient
       xlink:href="#linearGradient584"
       id="linearGradient869"
       x1="0.06481481"
       y1="0.04687500"
       x2="0.95370370"
       y2="0.94531250" />
    <radialGradient
       xlink:href="#linearGradient584"
       id="radialGradient975"
       cx="0.50000000"
       cy="0.50000000"
       r="0.50000000"
       fx="0.50000000"
       fy="0.50000000" />
    <linearGradient
       xlink:href="#linearGradient584"
       id="linearGradient983"
       x1="0.00000000"
       y1="0.04687500"
       x2="0.99462366"
       y2="1.00000000" />
    <linearGradient
       xlink:href="#linearGradient578"
       id="linearGradient984"
       x1="0.05303030"
       y1="0.05468750"
       x2="0.96212119"
       y2="0.96875000" />
  </defs>
  <sodipodi:namedview
     id="base"
     pagecolor="#ffffff"
     bordercolor="#666666"
     borderopacity="1.0"
     inkscape:pageopacity="0.0"
     inkscape:pageshadow="2"
     inkscape:zoom="11.284677"
     inkscape:cx="14.320531"
     inkscape:cy="11.932995"
     inkscape:window-width="640"
     inkscape:window-height="525"
     inkscape:window-x="108"
     inkscape:window-y="345"
     showguides="true"
     snaptoguides="true" />
  <path
     d="M 22.084828,17.112709 C 22.084828,21.018630 20.582628,22.613769 16.676344,22.613769 C 12.770420,22.613769 10.619478,20.925966 10.619478,17.020046 C 10.619478,13.113940 12.492426,11.333655 16.398348,11.333655 C 20.304636,11.333655 22.084828,13.206605 22.084828,17.112709 z M 30.012096,16.415633 C 30.083188,20.136408 26.841483,17.602065 25.211752,20.361060 C 23.626718,23.115323 28.325199,24.253873 25.798870,26.822897 C 23.202354,29.534105 22.700621,24.921913 19.904850,25.454961 C 16.800502,26.109164 19.751016,30.042484 16.101332,30.042484 C 12.877376,29.971577 15.519403,27.167613 12.510726,25.668053 C 9.4293130,24.096581 8.8508440,28.335112 6.4037950,25.971169 C 3.7067870,23.360910 8.9133790,23.007184 7.3457300,20.432152 C 5.7848180,17.822075 2.4743880,20.491136 2.3324770,16.699543 C 2.2614770,13.049769 6.0669980,15.946302 7.2748220,13.108934 C 8.4427750,10.296052 4.2822530,8.9684357 6.6876120,7.0020047 C 9.4175710,4.8509717 10.171447,9.4243857 12.581723,8.3698517 C 14.933379,7.3808547 12.451558,3.0726897 16.101332,2.9306877 C 20.034925,2.8596887 17.125372,6.6972497 19.621030,8.0859407 C 22.077546,9.4133717 23.838352,5.3592597 25.940873,7.2858237 C 28.114838,9.2839337 24.230857,10.131568 24.927841,12.612114 C 25.661145,15.292918 29.728186,12.765948 30.012096,16.415633 z "
     style="font-size:12.000000;fill:#000000;fill-rule:evenodd;stroke:none;stroke-width:1.0625000;stroke-dasharray:none;fill-opacity:0.29770991;"
     id="path1234" />
  <path
     d="M 12.830304,21.846985 C 15.514747,22.438651 18.557381,22.601407 20.722886,19.974126 C 22.153632,18.294515 21.887289,13.433004 20.526270,11.202686 C 21.874637,12.575358 24.025125,18.523265 21.435620,20.832498 C 18.311246,23.677060 14.641170,23.050164 12.830304,21.846985 z "
     style="font-size:12.000000;opacity:0.69993597;fill-rule:evenodd;stroke:#ffffff;stroke-width:0.091026038pt;"
     id="path1580" />
  <path
     d="M 20.839307,15.844371 C 20.839307,19.750292 19.337107,21.345431 15.430823,21.345431 C 11.524899,21.345431 9.3739574,19.657628 9.3739574,15.751708 C 9.3739574,11.845602 11.246905,10.065317 15.152827,10.065317 C 19.059115,10.065317 20.839307,11.938267 20.839307,15.844371 z M 28.766575,15.147295 C 28.837667,18.868070 25.595962,16.333727 23.966231,19.092722 C 22.381197,21.846985 27.079678,22.985535 24.553349,25.554559 C 21.956833,28.265767 21.455100,23.653575 18.659329,24.186623 C 15.554981,24.840826 18.505495,28.774146 14.855811,28.774146 C 11.631855,28.703239 14.273882,25.899275 11.265205,24.399715 C 8.1837926,22.828243 7.6053230,27.066774 5.1582745,24.702831 C 2.4612660,22.092572 7.6678587,21.738846 6.1002090,19.163814 C 4.5392973,16.553737 1.2288674,19.222798 1.0869565,15.431205 C 1.0159566,11.781431 4.8214779,14.677964 6.0293019,11.840596 C 7.1972546,9.0277137 3.0367326,7.7000986 5.4420916,5.7336676 C 8.1720508,3.5826344 8.9259268,8.1560479 11.336202,7.1015138 C 13.687858,6.1125175 11.206037,1.8043523 14.855811,1.6623506 C 18.789404,1.5913516 15.879851,5.4289126 18.375509,6.8176031 C 20.832025,8.1450343 22.592831,4.0909223 24.695352,6.0174857 C 26.869317,8.0155963 22.985336,8.8632302 23.682320,11.343776 C 24.415624,14.024580 28.482665,11.497610 28.766575,15.147295 z "
     style="font-size:12.000000;fill:url(#linearGradient984);fill-rule:evenodd;stroke:#261933;stroke-width:1.0625000;stroke-dasharray:none;"
     id="path1579" />
  <path
     d="M 2.1832747,16.678804 C 2.0876975,16.543086 1.7003825,15.017673 2.1141841,14.687067 C 2.8752531,14.079015 5.6247819,13.744675 5.7078873,13.862829 C 5.7859887,13.973606 3.4385205,14.702269 2.5979891,15.373767 C 2.2636499,15.640928 2.2489953,16.772016 2.1832747,16.678804 z "
     style="font-size:12;opacity:0.7;fill:url(#linearGradient861);fill-rule:evenodd;stroke:none;stroke-width:1.05154pt;"
     id="path1581" />
  <path
     d="M 5.3803768,7.3081423 C 5.3803768,7.1676888 6.3491653,5.9586848 6.8759319,5.9341066 C 7.4412032,5.9078009 8.6563086,7.0190448 8.6563086,7.1554016 C 8.6563086,7.2735515 7.4586809,6.6703246 6.8759319,6.6974494 C 6.3666430,6.7212084 5.3803768,7.4221983 5.3803768,7.3081423 z "
     style="font-size:12;opacity:0.699936;fill:url(#linearGradient862);fill-rule:evenodd;stroke:none;stroke-width:1.12535pt;"
     id="path1582" />
  <path
     d="M 13.243832,6.1955320 C 13.179206,6.0321423 13.181206,3.6431654 13.723631,3.0185468 C 14.163558,2.5119863 16.132449,2.6540799 16.190888,2.8019040 C 16.246685,2.9429038 14.559339,3.3171114 14.066344,3.8849312 C 13.576987,4.4483814 13.293443,6.3208761 13.243832,6.1955320 z "
     style="font-size:12;opacity:0.699936;fill:url(#linearGradient869);fill-rule:evenodd;stroke:none;stroke-width:1.07368pt;"
     id="path1583" />
  <path
     d="M 20.581979,8.0020326 C 20.950906,7.5804931 23.037583,6.2616188 23.265330,6.2616188 C 23.424355,6.2616188 22.323668,7.6250956 21.742378,8.0020326 C 21.429155,8.2052026 20.443256,8.1606010 20.581979,8.0020326 z "
     style="font-size:12;opacity:0.7;fill:url(#linearGradient983);fill-rule:evenodd;stroke:none;stroke-width:1.18334pt;"
     id="path1584" />
  <path
     d="M 5.3151128,23.424736 C 5.4236138,23.124987 7.1540168,21.327682 7.5368733,21.134706 C 7.7218355,21.041405 7.3513600,22.222830 7.0183864,22.565997 C 6.6107743,22.986173 5.2508461,23.602055 5.3151128,23.424736 z "
     style="font-size:12;opacity:0.7;fill:url(#linearGradient860);fill-rule:evenodd;stroke:none;stroke-width:1.11113pt;"
     id="path1585" />
  <path
     style="fill:url(#linearGradient581);fill-rule:evenodd;stroke:none;stroke-opacity:1;stroke-width:1pt;stroke-linejoin:miter;stroke-linecap:butt;fill-opacity:1;"
     d="M 15.175445,22.578432 C 15.019136,22.422123 19.296419,22.568083 20.824698,20.695348 C 22.506893,18.658972 21.777473,14.448094 21.932395,14.603016 C 22.109782,14.780403 22.979223,20.325930 21.821625,21.692275 C 20.726906,22.984402 15.351445,22.754432 15.175445,22.578432 z "
     id="path1233"
     sodipodi:nodetypes="cssss" />
</svg>
