<?xml version="1.0" encoding="UTF-8" standalone="no"?>
<!DOCTYPE svg PUBLIC "-//W3C//DTD SVG 20010904//EN"
"http://www.w3.org/TR/2001/REC-SVG-20010904/DTD/svg10.dtd">
<!-- Created with Inkscape (http://www.inkscape.org/) -->
<svg
   version="1.0"
   x="0"
   y="0"
   width="24.000000pt"
   height="24.000000pt"
   id="svg1"
   sodipodi:version="0.32"
   inkscape:version="0.37"
   sodipodi:docname="emblem-cvs-new-file.svg"
   sodipodi:docbase="/home/stefan/software/Lila-themes"
   xmlns="http://www.w3.org/2000/svg"
   xmlns:inkscape="http://www.inkscape.org/namespaces/inkscape"
   xmlns:sodipodi="http://sodipodi.sourceforge.net/DTD/sodipodi-0.dtd"
   xmlns:xlink="http://www.w3.org/1999/xlink">
  <sodipodi:namedview
     id="base"
     pagecolor="#ffffff"
     bordercolor="#666666"
     borderopacity="1.0"
     inkscape:pageopacity="0.0"
     inkscape:pageshadow="2"
     inkscape:zoom="11.3137085"
     inkscape:cx="42.8920157"
     inkscape:cy="2.68785492"
     inkscape:window-width="1269"
     inkscape:window-height="970"
     inkscape:window-x="0"
     inkscape:window-y="0"
     showgrid="false"
     snaptogrid="false"
     gridspacingx="1pt"
     gridspacingy="1pt"
     gridtolerance="1px" />
  <defs
     id="defs3">
    <linearGradient
       id="linearGradient613">
      <stop
         offset="0.00000000"
         style="stop-color:#faf8fd;stop-opacity:1;"
         id="stop615" />
      <stop
         offset="1.00000000"
         style="stop-color:#d9cce6;stop-opacity:1;"
         id="stop614" />
    </linearGradient>
    <linearGradient
       id="linearGradient1809">
      <stop
         style="stop-color:#d9cce6;stop-opacity:1.0000000;"
         offset="0.0000000"
         id="stop1810" />
      <stop
         style="stop-color:#ffffff;stop-opacity:1.0000000;"
         offset="1.0000000"
         id="stop1811" />
    </linearGradient>
    <linearGradient
       id="linearGradient570">
      <stop
         style="stop-color:#ffffff;stop-opacity:1;"
         offset="0"
         id="stop571" />
      <stop
         style="stop-color:#ffffff;stop-opacity:0;"
         offset="1"
         id="stop572" />
    </linearGradient>
    <linearGradient
       id="linearGradient563">
      <stop
         style="stop-color:#d9cce6;stop-opacity:1.0000000;"
         offset="0.0000000"
         id="stop564" />
      <stop
         style="stop-color:#73667f;stop-opacity:1.0000000;"
         offset="1.0000000"
         id="stop565" />
    </linearGradient>
    <linearGradient
       id="linearGradient566"
       xlink:href="#linearGradient563"
       x1="0.01724138"
       y1="0.02325581"
       x2="0.97413790"
       y2="0.98449612" />
    <linearGradient
       id="linearGradient569"
       xlink:href="#linearGradient563"
       x1="0.01010101"
       y1="0.00413223"
       x2="0.98989898"
       y2="0.98760331" />
    <linearGradient
       id="linearGradient573"
       xlink:href="#linearGradient563"
       x1="0.01941748"
       y1="0.01239669"
       x2="0.98058254"
       y2="0.99173552" />
    <linearGradient
       id="linearGradient578"
       xlink:href="#linearGradient570"
       x1="0.00579710"
       y1="0.00515464"
       x2="1.00289857"
       y2="1.00000000" />
    <radialGradient
       xlink:href="#linearGradient1809"
       id="radialGradient1812"
       cx="0.96874994"
       cy="0.96093750"
       r="1.3589708"
       fx="0.96874994"
       fy="0.96093750" />
    <linearGradient
       xlink:href="#linearGradient1809"
       id="linearGradient630"
       x1="-0.00000000"
       y1="-0.00000000"
       x2="0.99616855"
       y2="0.99173552" />
    <linearGradient
       xlink:href="#linearGradient570"
       id="linearGradient631"
       x1="0.01010101"
       y1="0.00826446"
       x2="1.01010096"
       y2="0.99173552" />
    <defs
       id="defs603">
      <linearGradient
         id="linearGradient584">
        <stop
           style="stop-color:#ffffff;stop-opacity:1;"
           offset="0.00000000"
           id="stop585" />
        <stop
           style="stop-color:#ffffff;stop-opacity:0;"
           offset="1.00000000"
           id="stop586" />
      </linearGradient>
      <linearGradient
         id="linearGradient607"
         x1="0.00000000"
         y1="0.00000000"
         x2="1.00000000"
         y2="0.00000000"
         gradientUnits="objectBoundingBox"
         spreadMethod="pad"
         xlink:href="#linearGradient613" />
      <linearGradient
         xlink:href="#linearGradient578"
         id="linearGradient581"
         x1="0.01724138"
         y1="0.02325581"
         x2="0.97413790"
         y2="0.98449612" />
      <linearGradient
         xlink:href="#linearGradient584"
         id="linearGradient583"
         x1="0.01538462"
         y1="0.02325581"
         x2="0.97692305"
         y2="0.93798447" />
      <linearGradient
         xlink:href="#linearGradient584"
         id="linearGradient654"
         x1="0.00729927"
         y1="0.04081633"
         x2="0.98175180"
         y2="0.91836733" />
      <linearGradient
         xlink:href="#linearGradient584"
         id="linearGradient655"
         x1="-0.06250000"
         y1="0.00775194"
         x2="0.93750000"
         y2="0.98449612" />
    </defs>
    <sodipodi:namedview
       id="namedview614"
       pagecolor="#ffffff"
       bordercolor="#666666"
       borderopacity="1.0"
       inkscape:pageopacity="0.0"
       inkscape:pageshadow="2"
       inkscape:zoom="7.97947193"
       inkscape:cx="29.5742972"
       inkscape:cy="23.5624757"
       inkscape:window-width="640"
       inkscape:window-height="516"
       inkscape:window-x="186"
       inkscape:window-y="87" />
  </defs>
  <path
     style="font-size:12;fill:#000000;fill-opacity:1;fill-rule:evenodd;stroke:none;stroke-width:1pt;stroke-opacity:1;opacity:0.300000;"
     d="M 7.2166938 12.59183 C 9.4772629 10.163434 24.821084 12.537396 25.690382 15.223769 C 26.620181 18.097109 15.910873 29.740676 12.613985 29.27097 C 9.7529776 28.863364 5.1184638 14.845834 7.2166938 12.59183 z "
     id="path634"
     sodipodi:nodetypes="csss" />
  <path
     style="font-size:12;fill:url(#linearGradient630);fill-opacity:0.75;fill-rule:evenodd;stroke:#261933;stroke-width:1pt;stroke-opacity:1;"
     d="M 5.7038933 10.164901 C 7.9644624 7.7365063 23.308284 10.110468 24.177582 12.796841 C 25.107381 15.670181 14.398073 27.313748 11.101184 26.844042 C 8.2401771 26.436436 3.6056633 12.418906 5.7038933 10.164901 z "
     id="path632"
     sodipodi:nodetypes="csss" />
  <path
     style="font-size:12;fill:#000000;fill-opacity:1;fill-rule:evenodd;stroke:none;stroke-width:1pt;stroke-opacity:1;opacity:0.300000;"
     d="M 7.8761295 7.2333556 C 10.136698 4.80496 25.48052 7.1789217 26.349818 9.8652949 C 27.279617 12.738634 16.570309 24.382201 13.273421 23.912494 C 10.412413 23.504888 5.7778995 9.4873598 7.8761295 7.2333556 z "
     id="path633"
     sodipodi:nodetypes="csss" />
  <path
     style="font-size:12;fill:url(#linearGradient630);fill-opacity:0.75;fill-rule:evenodd;stroke:#261933;stroke-width:1pt;stroke-opacity:1;"
     d="M 6.2258017 5.3476393 C 8.4863708 2.9192437 23.830192 5.2932054 24.69949 7.9795786 C 25.629289 10.852919 14.919982 22.496485 11.623093 22.026779 C 8.7620855 21.619172 4.1275717 7.6016435 6.2258017 5.3476393 z "
     id="path628"
     sodipodi:nodetypes="csss" />
  <path
     style="fill:url(#linearGradient578);fill-rule:evenodd;stroke:none;stroke-opacity:1;stroke-width:1pt;stroke-linejoin:miter;stroke-linecap:butt;fill-opacity:0.75;"
     d="M 7.7892231 13.979612 C 7.4819972 13.722751 5.5346497 7.0653463 6.9053397 5.8313111 C 8.5822061 4.3216246 16.627503 5.4939581 16.931892 5.748447 C 17.189138 5.9635212 10.282454 5.7164981 8.5902425 7.2400004 C 7.2348982 8.4602198 8.0436315 14.192314 7.7892231 13.979612 z "
     id="path670"
     sodipodi:nodetypes="cssss" />
  <path
     d="M 8.0654662 13.783904 C 8.287214 14.446395 17.470004 17.42529 18.072919 16.925403 C 18.612592 16.473246 22.650724 3.0147527 22.380343 2.4810016 C 22.099292 1.8925396 12.782721 0.42678609 12.340503 0.82927677 C 11.795786 1.3279629 7.8325739 13.02378 8.0654662 13.783904 z "
     style="font-size:12;opacity:0.302675;fill-rule:evenodd;stroke-width:12.5;"
     id="path639" />
  <path
     d="M 8.097033 12.904127 C 8.3045065 13.523939 16.895699 16.310925 17.459773 15.843241 C 17.96468 15.420213 21.74266 2.82876 21.489699 2.3293828 C 21.226755 1.7788326 12.510386 0.4075175 12.096658 0.78407838 C 11.587033 1.2506373 7.8791444 12.192974 8.097033 12.904127 z "
     style="font-size:12;fill:url(#linearGradient566);fill-rule:evenodd;stroke:#261933;stroke-width:0.8125;stroke-dasharray:none;"
     id="path616" />
  <path
     d="M 8.6815504 12.32354 C 8.5918891 12.096392 12.154426 1.5349975 12.487483 1.3171938 C 12.903735 1.033125 19.632735 2.2906459 19.722183 2.5172635 C 19.804173 2.7249645 14.472192 1.7551057 13.285947 2.8161701 C 11.010835 4.7940479 8.7633276 12.530721 8.6815504 12.32354 z "
     style="font-size:12;opacity:0.699936;fill:url(#linearGradient583);fill-rule:evenodd;stroke:#ffffff;stroke-width:0.0274302pt;"
     id="path640" />
</svg>
