<?xml version="1.0" encoding="UTF-8" standalone="no"?>
<!DOCTYPE svg PUBLIC "-//W3C//DTD SVG 20010904//EN"
"http://www.w3.org/TR/2001/REC-SVG-20010904/DTD/svg10.dtd">
<!-- Created with Inkscape (http://www.inkscape.org/) -->
<svg
   version="1.0"
   x="0"
   y="0"
   width="24.000000pt"
   height="24.000000pt"
   id="svg1"
   sodipodi:version="0.32"
   inkscape:version="0.37"
   sodipodi:docname="emblem-cvs-removed.svg"
   sodipodi:docbase="/home/stefan/software/Lila-themes"
   xmlns="http://www.w3.org/2000/svg"
   xmlns:inkscape="http://www.inkscape.org/namespaces/inkscape"
   xmlns:sodipodi="http://sodipodi.sourceforge.net/DTD/sodipodi-0.dtd"
   xmlns:xlink="http://www.w3.org/1999/xlink">
  <sodipodi:namedview
     id="base"
     pagecolor="#ffffff"
     bordercolor="#666666"
     borderopacity="1.0"
     inkscape:pageopacity="0.0"
     inkscape:pageshadow="2"
     inkscape:zoom="27.8576180"
     inkscape:cx="22.8015554"
     inkscape:cy="9.37193456"
     inkscape:window-width="1269"
     inkscape:window-height="970"
     inkscape:window-x="0"
     inkscape:window-y="0"
     showgrid="false"
     snaptogrid="false"
     gridspacingx="1pt"
     gridspacingy="1pt"
     gridtolerance="1px" />
  <defs
     id="defs3">
    <linearGradient
       id="linearGradient635">
      <stop
         style="stop-color:#ffffff;stop-opacity:1;"
         offset="0.00000000"
         id="stop636" />
      <stop
         style="stop-color:#7f7f7f;stop-opacity:1;"
         offset="1.00000000"
         id="stop637" />
    </linearGradient>
    <linearGradient
       id="linearGradient632">
      <stop
         style="stop-color:#f50000;stop-opacity:1;"
         offset="0.00000000"
         id="stop633" />
      <stop
         style="stop-color:#a80000;stop-opacity:1;"
         offset="1.00000000"
         id="stop634" />
    </linearGradient>
    <linearGradient
       id="linearGradient1809">
      <stop
         style="stop-color:#d9cce6;stop-opacity:1.0000000;"
         offset="0.0000000"
         id="stop1810" />
      <stop
         style="stop-color:#ffffff;stop-opacity:1.0000000;"
         offset="1.0000000"
         id="stop1811" />
    </linearGradient>
    <linearGradient
       id="linearGradient570">
      <stop
         style="stop-color:#ffffff;stop-opacity:1;"
         offset="0"
         id="stop571" />
      <stop
         style="stop-color:#ffffff;stop-opacity:0;"
         offset="1"
         id="stop572" />
    </linearGradient>
    <linearGradient
       id="linearGradient563">
      <stop
         style="stop-color:#d9cce6;stop-opacity:1.0000000;"
         offset="0.0000000"
         id="stop564" />
      <stop
         style="stop-color:#73667f;stop-opacity:1.0000000;"
         offset="1.0000000"
         id="stop565" />
    </linearGradient>
    <linearGradient
       id="linearGradient566"
       xlink:href="#linearGradient1809"
       x1="-0.00000000"
       y1="0.00000000"
       x2="0.99616855"
       y2="0.99173552" />
    <linearGradient
       id="linearGradient569"
       xlink:href="#linearGradient635"
       x1="0.00000000"
       y1="0.00000000"
       x2="1.00000000"
       y2="0.00000000" />
    <linearGradient
       id="linearGradient573"
       xlink:href="#linearGradient570"
       x1="0.00586510"
       y1="0.00826446"
       x2="0.99413490"
       y2="1.00000000" />
    <linearGradient
       id="linearGradient578"
       xlink:href="#linearGradient570"
       x1="0.00338983"
       y1="0.01239669"
       x2="0.98644066"
       y2="0.99173552" />
    <radialGradient
       xlink:href="#linearGradient632"
       id="radialGradient1812"
       cx="0.33744857"
       cy="0.31818181"
       r="0.50000000"
       fx="0.34362140"
       fy="0.31818181" />
    <linearGradient
       xlink:href="#linearGradient1809"
       id="linearGradient630"
       x1="-0.00000000"
       y1="-0.00000000"
       x2="0.99616855"
       y2="0.99173552" />
    <linearGradient
       xlink:href="#linearGradient570"
       id="linearGradient631"
       x1="0.00358423"
       y1="0.00826446"
       x2="0.99641579"
       y2="0.99173552" />
    <linearGradient
       xlink:href="#linearGradient570"
       id="linearGradient638"
       x1="-0.00507614"
       y1="0.01239669"
       x2="1.00000000"
       y2="0.99173552" />
    <linearGradient
       xlink:href="#linearGradient570"
       id="linearGradient639"
       x1="-0.00000000"
       y1="0.00413223"
       x2="0.99303138"
       y2="0.99586779" />
  </defs>
  <path
     style="font-size:12;fill:#000000;fill-opacity:1;fill-rule:evenodd;stroke:none;stroke-width:1pt;stroke-opacity:1;opacity:0.300000;"
     d="M 7.2166938 12.59183 C 9.4772629 10.163434 24.821084 12.537396 25.690382 15.223769 C 26.620181 18.097109 15.910873 29.740676 12.613985 29.27097 C 9.7529776 28.863364 5.1184638 14.845834 7.2166938 12.59183 z "
     id="path634"
     sodipodi:nodetypes="csss" />
  <path
     style="font-size:12;fill:url(#linearGradient566);fill-opacity:0.75;fill-rule:evenodd;stroke:#261933;stroke-width:1pt;stroke-opacity:1;"
     d="M 5.7038933 10.164901 C 7.9644624 7.7365063 23.308284 10.110468 24.177582 12.796841 C 25.107381 15.670181 14.398073 27.313748 11.101184 26.844042 C 8.2401771 26.436436 3.6056633 12.418906 5.7038933 10.164901 z "
     id="path632"
     sodipodi:nodetypes="csss" />
  <path
     style="font-size:12;fill:#000000;fill-opacity:1;fill-rule:evenodd;stroke:none;stroke-width:1pt;stroke-opacity:1;opacity:0.300000;"
     d="M 7.8792227 7.2320454 C 10.140109 4.8036498 25.486087 7.1776115 26.355507 9.8639848 C 27.285436 12.737324 16.574624 24.380891 13.277272 23.911184 C 10.415862 23.503578 5.7806979 9.4860496 7.8792227 7.2320454 z "
     id="path633"
     sodipodi:nodetypes="csss" />
  <path
     style="font-size:12;fill:url(#linearGradient630);fill-opacity:0.75;fill-rule:evenodd;stroke:#261933;stroke-width:1.00007pt;"
     d="M 6.2286631 5.3463291 C 8.4895498 2.9179335 23.835527 5.2918952 24.704947 7.9782684 C 25.634876 10.851608 14.924065 22.495175 11.626713 22.025469 C 8.7653032 21.617862 4.1301383 7.6003333 6.2286631 5.3463291 z "
     id="path628"
     sodipodi:nodetypes="csss" />
  <path
     style="fill:url(#linearGradient578);fill-rule:evenodd;stroke:none;stroke-opacity:1;stroke-width:1pt;stroke-linejoin:miter;stroke-linecap:butt;fill-opacity:0.75;"
     d="M 7.7892231 13.979612 C 7.4819972 13.722751 5.5346497 7.0653463 6.9053397 5.8313111 C 8.5822061 4.3216246 16.627503 5.4939581 16.931892 5.748447 C 17.189138 5.9635212 10.282454 5.7164981 8.5902425 7.2400004 C 7.2348982 8.4602198 8.0436315 14.192314 7.7892231 13.979612 z "
     id="path670"
     sodipodi:nodetypes="cssss" />
  <path
     style="font-size:12;opacity:0.3;fill-rule:evenodd;stroke-width:2.07367;"
     d="M 22.792245 8.4362525 C 22.792245 12.814622 19.238786 16.368081 14.860419 16.368081 C 10.482052 16.368081 6.9285932 12.814622 6.9285932 8.4362525 C 6.9285932 4.0578858 10.482052 0.50442862 14.860419 0.50442862 C 19.238786 0.50442862 22.792245 4.0578858 22.792245 8.4362525 z "
     id="path952" />
  <path
     style="font-size:12;fill-rule:evenodd;stroke:#330000;stroke-width:0.8125;fill:url(#radialGradient1812);stroke-dasharray:none;"
     d="M 21.797814 8.0337475 C 21.797814 11.980817 18.594397 15.184233 14.647329 15.184233 C 10.700262 15.184233 7.4968451 11.980817 7.4968451 8.0337475 C 7.4968451 4.0866796 10.700262 0.88326352 14.647329 0.88326352 C 18.594397 0.88326352 21.797814 4.0866796 21.797814 8.0337475 z "
     id="path951" />
  <path
     style="font-size:12;fill-rule:evenodd;stroke:#333333;stroke-width:0.566793;fill:url(#linearGradient569);"
     d="M 11.234677 11.66552 C 11.468873 11.901399 14.393328 9.6725985 14.774231 9.6499385 C 15.089095 9.6499385 17.83617 11.884944 18.043404 11.66552 C 18.254034 11.442499 16.027514 8.6283645 16.027824 8.3226065 C 16.028153 8.0241335 18.280058 5.1429759 18.067983 4.9059517 C 17.862193 4.6759509 15.063422 6.921862 14.774231 6.921533 C 14.454302 6.8961342 11.503339 4.6415466 11.283838 4.8813724 C 11.060895 5.1249579 13.44609 8.0081405 13.446899 8.3717665 C 13.423041 8.6962545 11.010137 11.414608 11.234677 11.66552 z "
     id="path589"
     sodipodi:nodetypes="cssssssss" />
  <path
     style="fill:url(#linearGradient639);fill-rule:evenodd;stroke:none;stroke-opacity:1;stroke-width:1pt;stroke-linejoin:miter;stroke-linecap:butt;fill-opacity:1;opacity:0.800000;"
     d="M 8.8726649 11.157389 C 8.5048784 10.615355 6.6359947 5.4648202 11.149608 2.4514263 C 15.037847 -0.21142158 19.220154 3.048271 19.654661 3.9917116 C 19.765507 4.2494751 16.057777 1.2478117 12.087173 3.9917116 C 7.6695646 7.096888 9.0183074 11.396659 8.8726649 11.157389 z "
     id="path918"
     sodipodi:nodetypes="cssss" />
  <path
     style="font-size:12;fill:url(#linearGradient638);fill-rule:evenodd;stroke:none;stroke-width:1pt;"
     d="M 12.421352 10.517708 C 12.449246 10.431848 13.720968 8.8003775 14.138056 8.3799235 C 14.218272 8.2990575 14.090361 8.9443485 13.986675 9.0687975 C 13.542162 9.6023215 12.398352 10.588501 12.421352 10.517708 z "
     id="path596"
     sodipodi:nodetypes="csss" />
  <path
     style="fill:url(#linearGradient631);fill-rule:evenodd;stroke:none;stroke-opacity:1;stroke-width:1pt;stroke-linejoin:miter;stroke-linecap:butt;fill-opacity:1;opacity:0.750382;"
     d="M 13.390315 7.3846128 C 13.28027 7.2783618 12.364587 6.0590139 12.435649 6.0260201 C 12.517931 5.9878179 13.89186 6.95924 13.997165 7.0609143 C 14.050682 7.1125852 12.892615 6.3979935 12.857059 6.4126488 C 12.836668 6.4221159 13.439092 7.4317081 13.390315 7.3846128 z "
     id="path597"
     sodipodi:nodetypes="cssss" />
  <path
     style="fill:url(#linearGradient573);fill-rule:evenodd;stroke:none;stroke-opacity:1;stroke-width:1pt;stroke-linejoin:miter;stroke-linecap:butt;fill-opacity:1;"
     d="M 14.854716 7.5481052 C 15.233198 7.1847623 16.772979 6.1296909 16.859136 6.1363182 C 16.932028 6.1419262 16.050109 7.0602516 15.556156 7.4025949 C 15.432264 7.4884606 14.774403 7.6252069 14.854716 7.5481052 z "
     id="path598"
     sodipodi:nodetypes="csss" />
</svg>
