<?xml version="1.0" encoding="UTF-8" standalone="no"?>
<!DOCTYPE svg PUBLIC "-//W3C//DTD SVG 20010904//EN"
"http://www.w3.org/TR/2001/REC-SVG-20010904/DTD/svg10.dtd">
<!-- Created with Inkscape (http://www.inkscape.org/) -->
<svg
   id="svg1"
   sodipodi:version="0.32"
   inkscape:version="0.38.1"
   width="24.000000pt"
   height="24.000000pt"
   sodipodi:docbase="/home/dan/svg-icons/lila/gnome/scalable/emblems"
   sodipodi:docname="emblem-mail.svg"
   xmlns="http://www.w3.org/2000/svg"
   xmlns:inkscape="http://www.inkscape.org/namespaces/inkscape"
   xmlns:sodipodi="http://sodipodi.sourceforge.net/DTD/sodipodi-0.dtd"
   xmlns:xlink="http://www.w3.org/1999/xlink">
  <defs
     id="defs3">
    <linearGradient
       id="linearGradient599">
      <stop
         style="stop-color:#ffffff;stop-opacity:1;"
         offset="0.00000000"
         id="stop600" />
      <stop
         style="stop-color:#d9cce6;stop-opacity:1;"
         offset="1.00000000"
         id="stop601" />
    </linearGradient>
    <linearGradient
       id="linearGradient584">
      <stop
         style="stop-color:#ffffff;stop-opacity:1;"
         offset="0.00000000"
         id="stop585" />
      <stop
         style="stop-color:#ffffff;stop-opacity:0;"
         offset="1.00000000"
         id="stop586" />
    </linearGradient>
    <linearGradient
       id="linearGradient578">
      <stop
         style="stop-color:#d9cce6;stop-opacity:1;"
         offset="0.00000000"
         id="stop579" />
      <stop
         style="stop-color:#73667f;stop-opacity:1;"
         offset="1.00000000"
         id="stop580" />
    </linearGradient>
    <linearGradient
       xlink:href="#linearGradient599"
       id="linearGradient581"
       x1="0.00000000"
       y1="-0.00000000"
       x2="0.98888886"
       y2="0.98437500" />
    <linearGradient
       xlink:href="#linearGradient599"
       id="linearGradient583"
       x1="-0.00000000"
       y1="0.00000000"
       x2="0.97500002"
       y2="0.98437500" />
    <linearGradient
       xlink:href="#linearGradient599"
       id="linearGradient860"
       x1="0.00000000"
       y1="0.00000000"
       x2="0.98905110"
       y2="0.97457629" />
    <linearGradient
       xlink:href="#linearGradient584"
       id="linearGradient861"
       x1="-0.36956522"
       y1="-0.37500000"
       x2="0.81159419"
       y2="0.76562500" />
    <linearGradient
       xlink:href="#linearGradient584"
       id="linearGradient862"
       x1="-0.08500000"
       y1="-0.13281250"
       x2="0.99500000"
       y2="0.96875000" />
    <radialGradient
       xlink:href="#linearGradient578"
       id="radialGradient595"
       cx="0.33846155"
       cy="0.34375000"
       r="0.66501766"
       fx="0.33076921"
       fy="0.33593750" />
  </defs>
  <sodipodi:namedview
     id="base"
     pagecolor="#ffffff"
     bordercolor="#666666"
     borderopacity="1.0"
     inkscape:pageopacity="0.0"
     inkscape:pageshadow="2"
     inkscape:zoom="7.9794719"
     inkscape:cx="14.196187"
     inkscape:cy="10.671078"
     inkscape:window-width="640"
     inkscape:window-height="535"
     inkscape:window-x="160"
     inkscape:window-y="106" />
  <path
     style="font-size:12.000000;fill:#000000;fill-rule:evenodd;stroke:none;stroke-width:1.4514248;fill-opacity:0.30000001;"
     d="M 1.5270214,21.050941 C 2.1486486,22.265374 22.256083,29.302837 23.633580,28.556483 C 25.024647,27.891831 30.186303,14.474746 29.258403,13.082196 C 28.348618,11.582128 8.7046886,5.0603573 7.0833969,5.4326072 C 5.5399625,5.7314170 0.86188166,19.906638 1.5270214,21.050941 z "
     id="path1435"
     sodipodi:nodetypes="cssss" />
  <path
     style="font-size:12.000000;fill:url(#linearGradient581);fill-rule:evenodd;stroke:#261933;stroke-width:1.0625000;"
     d="M 1.5928059,19.186357 C 2.1848241,20.342945 21.334508,27.045202 22.646391,26.334398 C 23.971201,25.701404 28.886998,12.923398 28.003296,11.597177 C 27.136845,10.168560 8.4285886,3.9574319 6.8845223,4.3119513 C 5.4146041,4.5965278 0.95934761,18.096559 1.5928059,19.186357 z "
     id="path596"
     sodipodi:nodetypes="cssss" />
  <path
     style="font-size:12.000000;fill:url(#linearGradient860);fill-rule:evenodd;stroke:#261933;stroke-width:1.0625000;"
     d="M 1.4916193,19.150359 C 0.95459984,18.145131 11.912091,13.321529 15.544779,14.574488 C 18.917954,15.737938 23.743434,25.863708 22.509207,26.399586 C 21.371607,26.973763 1.5551732,20.051530 1.4916193,19.150359 z "
     id="path597"
     sodipodi:nodetypes="csss" />
  <path
     style="font-size:12.000000;fill:url(#linearGradient583);fill-rule:evenodd;stroke:#261933;stroke-width:1.0625000;"
     d="M 6.7473378,4.3771391 C 5.6898254,5.0346975 10.191179,17.286613 13.700110,18.477953 C 17.209041,19.669293 28.294585,12.684290 27.800923,11.525181 C 27.389314,10.347314 7.8583621,3.4700121 6.7473378,4.3771391 z "
     id="path598"
     sodipodi:nodetypes="csss" />
  <path
     style="fill:url(#linearGradient862);fill-rule:evenodd;stroke-width:1.0000000pt;"
     d="M 3.0142647,17.754172 C 2.8238069,17.384598 6.4143912,6.2685315 7.5724036,5.5826101 C 8.5980888,5.0710043 26.509191,12.022513 26.696639,12.386245 C 26.868862,12.720434 10.640594,6.9404988 8.6514163,7.6763759 C 6.7286882,8.4007261 3.1834775,18.082520 3.0142647,17.754172 z "
     id="path603"
     sodipodi:nodetypes="cssss" />
</svg>
