<?xml version="1.0" encoding="UTF-8" standalone="no"?>
<!DOCTYPE svg PUBLIC "-//W3C//DTD SVG 20010904//EN"
"http://www.w3.org/TR/2001/REC-SVG-20010904/DTD/svg10.dtd">
<!-- Created with Inkscape (http://www.inkscape.org/) -->
<svg
   version="1.0"
   x="0"
   y="0"
   width="24.000000pt"
   height="24.000000pt"
   id="svg1"
   sodipodi:version="0.32"
   inkscape:version="0.39"
   sodipodi:docname="emblem-web.svg"
   sodipodi:docbase="/home/scaba/files/lila/work/lila-gnome/Lila/scalable/emblems"
   xmlns="http://www.w3.org/2000/svg"
   xmlns:inkscape="http://www.inkscape.org/namespaces/inkscape"
   xmlns:sodipodi="http://sodipodi.sourceforge.net/DTD/sodipodi-0.dtd"
   xmlns:xlink="http://www.w3.org/1999/xlink"
   xmlns:rdf="http://www.w3.org/1999/02/22-rdf-syntax-ns#"
   xmlns:cc="http://web.resource.org/cc/"
   xmlns:dc="http://purl.org/dc/elements/1.1/">
  <sodipodi:namedview
     id="base"
     pagecolor="#ffffff"
     bordercolor="#666666"
     borderopacity="1.0"
     inkscape:pageopacity="0.0"
     inkscape:pageshadow="2"
     inkscape:zoom="13.893067"
     inkscape:cx="20.567603"
     inkscape:cy="9.8439744"
     inkscape:window-width="734"
     inkscape:window-height="627"
     inkscape:window-x="98"
     inkscape:window-y="104" />
  <defs
     id="defs3">
    <linearGradient
       id="linearGradient570">
      <stop
         style="stop-color:#ffffff;stop-opacity:1;"
         offset="0"
         id="stop571" />
      <stop
         style="stop-color:#ffffff;stop-opacity:0;"
         offset="1"
         id="stop572" />
    </linearGradient>
    <linearGradient
       id="linearGradient563">
      <stop
         style="stop-color:#d9cce6;stop-opacity:1;"
         offset="0.00000000"
         id="stop564" />
      <stop
         style="stop-color:#73667f;stop-opacity:1;"
         offset="1.00000000"
         id="stop565" />
    </linearGradient>
    <linearGradient
       x1="0.03846154"
       y1="0.07031250"
       x2="0.98461539"
       y2="0.96875000"
       id="linearGradient566"
       xlink:href="#linearGradient563" />
    <linearGradient
       x1="0.006536"
       y1="0.015625"
       x2="0.849673"
       y2="0.867188"
       id="linearGradient569"
       xlink:href="#linearGradient570" />
    <linearGradient
       x1="0.007280"
       y1="0.021274"
       x2="0.960000"
       y2="0.946808"
       id="linearGradient573"
       xlink:href="#linearGradient570" />
    <linearGradient
       x1="0.980392"
       y1="0.976562"
       x2="0.006536"
       y2="0.007812"
       id="linearGradient575"
       xlink:href="#linearGradient563" />
    <linearGradient
       x1="-0.006622"
       y1="0.007813"
       x2="0.920530"
       y2="0.921875"
       id="linearGradient578"
       xlink:href="#linearGradient570" />
  </defs>
  <ellipse
     cx="286.92639"
     cy="278.06998"
     rx="278.19861"
     ry="278.19858"
     transform="matrix(4.710549e-2,0.000000,0.000000,4.710549e-2,2.695288,3.392583)"
     style="font-size:12.000000;opacity:0.30267498;fill-rule:evenodd;stroke-width:13.253600;"
     id="path1023"
     d="M 565.12500 278.06998 A 278.19861 278.19858 0 1 0 8.7277832,278.06998 A 278.19861 278.19858 0 1 0 565.12500 278.06998 z"
     sodipodi:cx="286.92639"
     sodipodi:cy="278.06998"
     sodipodi:rx="278.19861"
     sodipodi:ry="278.19858" />
  <ellipse
     cx="286.92639"
     cy="278.06998"
     rx="278.19861"
     ry="278.19858"
     transform="matrix(4.710549e-2,0.000000,0.000000,4.710549e-2,1.550998,1.975853)"
     style="font-size:12.000000;fill:url(#linearGradient566);fill-rule:evenodd;stroke:#261933;stroke-width:19.880501;stroke-opacity:1.0000000;"
     id="path983"
     d="M 565.12500 278.06998 A 278.19861 278.19858 0 1 0 8.7277832,278.06998 A 278.19861 278.19858 0 1 0 565.12500 278.06998 z"
     sodipodi:cx="286.92639"
     sodipodi:cy="278.06998"
     sodipodi:rx="278.19861"
     sodipodi:ry="278.19858" />
  <path
     d="M 5.6574168,6.2862889 C 6.1347978,6.0217769 6.6593268,6.9568099 7.3048748,7.0462129 C 7.8814468,7.1259759 9.2833718,6.2209099 10.036652,6.6514419 C 10.535809,6.8652589 10.111071,8.7445149 9.9590863,9.8696409 C 9.7677453,10.772658 9.1567598,12.066102 8.7745758,13.185784 C 8.5758918,13.676350 7.1952438,15.453666 7.1388048,15.566544 C 7.0824658,15.679321 7.6798658,17.185482 7.3080708,17.371480 C 6.9205418,17.600831 6.4419628,15.396329 5.6159118,14.776803 C 5.2594498,14.562885 4.4374898,14.662078 4.1493828,14.889731 C 3.8061308,15.075877 4.1015348,17.026705 4.6005518,17.597135 C 5.1121108,18.364250 5.8824718,18.954358 6.3492138,19.740404 C 6.9541058,20.759294 7.3268508,21.921480 7.8156688,23.011992 C 7.8156688,23.011992 7.4122568,24.404030 7.4686958,24.404030 C 7.5251348,24.404030 8.3233168,26.001391 8.3233168,26.001391 C 6.6843988,24.756547 5.3650348,23.541918 4.2621848,22.053089 C 3.4848948,21.003680 2.8649598,19.563595 2.6828328,18.386726 C 2.6205408,17.984263 3.3733918,17.742776 3.5289278,17.315091 C 3.8141068,16.602067 2.3186438,14.832393 2.2582098,14.254271 C 2.1839858,13.631749 2.5605558,11.141208 3.4161058,9.6440369 C 4.0286588,8.4745589 4.7435108,6.7925889 5.6574168,6.2862889 z "
     style="font-size:12.000000;opacity:0.50445902;fill:#261933;fill-rule:evenodd;stroke:#000000;stroke-width:0.057037002pt;"
     id="path565" />
  <path
     d="M 15.373996,10.546504 C 15.069078,10.984379 14.742732,11.768175 14.922686,12.182075 C 15.118773,12.632936 15.966951,13.131842 16.502068,13.141032 C 17.057514,13.150622 17.624547,12.528399 18.194227,12.238564 C 18.696232,11.983192 19.180504,11.591817 19.717170,11.505262 C 20.346236,11.403823 21.237317,11.371857 21.691323,11.674578 C 22.026957,11.898384 22.160561,12.640927 22.086192,13.084693 C 21.928515,13.423075 21.400888,13.714409 21.578494,13.930773 C 21.733977,14.062580 22.813001,13.267545 22.988613,12.802700 C 23.132655,12.421515 22.449147,11.878106 22.537402,11.392534 C 22.608725,11.071784 23.780700,11.152895 24.173174,11.223368 C 24.496922,11.302133 24.811279,12.105010 25.132131,12.069398 C 25.426061,12.069398 26.159813,11.120930 26.239325,11.125375 C 26.545344,11.175920 26.767802,12.069398 26.767802,12.069398 C 26.241274,12.558266 25.816536,13.229286 25.188468,13.535953 C 24.199593,14.018877 23.032513,14.309661 21.916976,14.438421 C 20.099504,14.648143 17.944749,13.910096 16.389242,14.551198 C 15.162076,15.057047 13.586889,16.722786 13.569009,17.879128 C 13.549280,19.148147 14.372485,21.304852 15.848679,21.435309 C 17.635735,21.631946 19.503253,22.034356 20.147151,22.857613 C 20.650204,23.500861 20.063942,25.924724 20.144954,26.726154 C 20.175423,26.991865 20.948780,26.521126 21.409331,26.283435 C 22.114561,25.919530 22.967635,25.200913 23.214218,24.422059 C 23.682109,22.944719 23.734749,21.112411 23.552749,19.514847 C 23.396318,18.141842 22.033102,15.656497 22.199070,15.510105 C 22.352703,15.374552 23.559740,18.121464 24.511555,18.668819 C 25.063855,18.986323 26.331225,18.518283 26.711411,18.104683 C 26.970580,17.822690 26.245867,16.746010 26.429368,16.581789 C 26.603129,16.426308 27.707128,17.516022 27.783098,17.145926 C 28.388335,14.335732 27.819454,12.260690 26.830082,9.6588709 C 26.020464,7.6729809 23.725411,4.9392049 21.274877,3.5991519 C 20.929801,3.4087689 19.434378,4.2513619 18.280433,4.9894499 C 17.622599,5.3186919 16.939042,6.3101129 17.276875,6.5480049 C 17.574701,6.7829989 18.457541,5.9902619 19.082311,5.8495149 C 20.202292,5.5818059 20.722677,5.7269479 21.578494,6.1468409 C 21.578494,6.1468409 22.791477,7.1505989 22.255357,7.8953389 C 21.915031,8.3461479 20.788854,8.3465979 20.788854,8.3465979 C 20.544420,8.2150909 20.289397,7.9021319 20.055551,7.9517769 C 19.669024,8.0338379 19.342728,8.5554709 18.927480,8.7415179 C 18.082949,9.1196569 17.095922,9.1969229 16.276414,9.6440369 C 15.813018,9.7509699 15.563889,10.258168 15.373996,10.546504 z "
     style="font-size:12.000000;opacity:0.49999997;fill:#261933;fill-rule:evenodd;stroke:#000000;stroke-width:0.057037002pt;"
     id="path566" />
  <path
     d="M 4.9045858,22.130901 C 4.7301758,21.607772 -1.8757232,9.7766919 10.680451,3.7134429 C 16.373358,0.93809196 24.783958,6.0832109 25.719542,9.1624109 C 25.863633,9.6282529 20.029581,2.9782179 11.715775,6.6558869 C 0.89153185,11.412913 5.0571208,22.588556 4.9045858,22.130901 z "
     style="font-size:12.000000;opacity:0.69999999;fill:url(#linearGradient569);fill-rule:evenodd;stroke:none;stroke-width:0.099890900pt;"
     id="path984" />
  <metadata
     id="metadata1683">
    <rdf:RDF
       id="RDF1684">
      <cc:Work
         rdf:about=""
         id="Work1685">
        <dc:format
           id="format1686">image/svg+xml</dc:format>
        <dc:type
           id="type1688"
           rdf:resource="http://purl.org/dc/dcmitype/StillImage" />
      </cc:Work>
    </rdf:RDF>
  </metadata>
</svg>
