<?xml version="1.0" encoding="UTF-8" standalone="no"?>
<!DOCTYPE svg PUBLIC "-//W3C//DTD SVG 20010904//EN"
"http://www.w3.org/TR/2001/REC-SVG-20010904/DTD/svg10.dtd">
<!-- Created with Inkscape (http://www.inkscape.org/) -->
<svg
   id="svg1"
   sodipodi:version="0.32"
   inkscape:version="0.38.1"
   width="24.000000pt"
   height="24.000000pt"
   sodipodi:docbase="/home/dan/svg-icons/lila/gnome/scalable/emblems"
   sodipodi:docname="emblem-important.svg"
   xmlns="http://www.w3.org/2000/svg"
   xmlns:inkscape="http://www.inkscape.org/namespaces/inkscape"
   xmlns:sodipodi="http://sodipodi.sourceforge.net/DTD/sodipodi-0.dtd"
   xmlns:xlink="http://www.w3.org/1999/xlink">
  <defs
     id="defs3">
    <linearGradient
       id="linearGradient890">
      <stop
         offset="0.0000000"
         style="stop-color:#ffffff;stop-opacity:1.0000000;"
         id="stop892" />
      <stop
         offset="1.0000000"
         style="stop-color:#ffffff;stop-opacity:0.0000000;"
         id="stop891" />
    </linearGradient>
    <linearGradient
       id="linearGradient878">
      <stop
         offset="0.0000000"
         style="stop-color:#d9cce6;stop-opacity:1.0000000;"
         id="stop880" />
      <stop
         offset="1.0000000"
         style="stop-color:#73667f;stop-opacity:1.0000000;"
         id="stop879" />
    </linearGradient>
    <linearGradient
       id="linearGradient841">
      <stop
         style="stop-color:#ffffff;stop-opacity:1.0000000;"
         offset="0.0000000"
         id="stop842" />
      <stop
         style="stop-color:#d9cce6;stop-opacity:1.0000000;"
         offset="1.0000000"
         id="stop843" />
    </linearGradient>
    <linearGradient
       id="linearGradient832">
      <stop
         style="stop-color:#ffffff;stop-opacity:1.0000000;"
         offset="0.0000000"
         id="stop833" />
      <stop
         style="stop-color:#ffffff;stop-opacity:0.0000000;"
         offset="1.0000000"
         id="stop834" />
    </linearGradient>
    <linearGradient
       id="linearGradient826">
      <stop
         style="stop-color:#d9cce6;stop-opacity:1.0000000;"
         offset="0.0000000"
         id="stop827" />
      <stop
         style="stop-color:#73667f;stop-opacity:1.0000000;"
         offset="1.0000000"
         id="stop828" />
    </linearGradient>
    <linearGradient
       xlink:href="#linearGradient832"
       id="linearGradient829"
       x1="-0.22666667"
       y1="-0.15503876"
       x2="0.57333332"
       y2="0.69767439" />
    <radialGradient
       xlink:href="#linearGradient826"
       id="radialGradient830"
       cx="0.29999998"
       cy="0.25581393"
       r="0.78461540"
       fx="0.29999998"
       fy="0.25968978"
       spreadMethod="pad"
       gradientUnits="objectBoundingBox" />
    <radialGradient
       xlink:href="#linearGradient841"
       id="radialGradient836"
       cx="0.29999998"
       cy="0.25581393"
       r="0.78461540"
       fx="0.29999998"
       fy="0.25968978" />
    <defs
       id="defs845">
      <linearGradient
         id="linearGradient584"
         x1="0.0000000"
         y1="0.50000000"
         x2="1.0000000"
         y2="0.50000000"
         gradientUnits="objectBoundingBox"
         spreadMethod="pad"
         xlink:href="#linearGradient890" />
      <linearGradient
         id="linearGradient578"
         x1="0.0000000"
         y1="0.50000000"
         x2="1.0000000"
         y2="0.50000000"
         gradientUnits="objectBoundingBox"
         spreadMethod="pad"
         xlink:href="#linearGradient878" />
      <linearGradient
         xlink:href="#linearGradient578"
         id="linearGradient581"
         x1="0.00877193"
         y1="0.02857143"
         x2="0.99122804"
         y2="0.97142857" />
      <linearGradient
         xlink:href="#linearGradient584"
         id="linearGradient583"
         x1="0.01298701"
         y1="0.00714286"
         x2="0.97402596"
         y2="0.99285716" />
    </defs>
    <sodipodi:namedview
       id="namedview854"
       pagecolor="#ffffff"
       bordercolor="#666666"
       borderopacity="1.0"
       inkscape:pageopacity="0.0"
       inkscape:pageshadow="2"
       inkscape:zoom="7.97947193"
       inkscape:cx="29.4003546"
       inkscape:cy="24.0932681"
       inkscape:window-width="640"
       inkscape:window-height="516"
       inkscape:window-x="99"
       inkscape:window-y="57" />
    <linearGradient
       xlink:href="#linearGradient890"
       id="linearGradient884"
       x1="0.031250000"
       y1="0.023437500"
       x2="0.70588237"
       y2="0.69531250" />
    <linearGradient
       xlink:href="#linearGradient878"
       id="linearGradient888"
       x1="0.031250000"
       y1="0.023437500"
       x2="0.96875000"
       y2="0.98437500" />
    <linearGradient
       xlink:href="#linearGradient890"
       id="linearGradient894"
       x1="-0.0051546390"
       y1="0.0078125000"
       x2="0.92268044"
       y2="0.88281250" />
  </defs>
  <sodipodi:namedview
     id="base"
     pagecolor="#ffffff"
     bordercolor="#666666"
     borderopacity="1.0"
     inkscape:pageopacity="0.0"
     inkscape:pageshadow="2"
     inkscape:zoom="13.893067"
     inkscape:cx="12.046903"
     inkscape:cy="12.028931"
     inkscape:window-width="640"
     inkscape:window-height="526"
     showguides="true"
     snaptoguides="true"
     inkscape:window-x="38"
     inkscape:window-y="64" />
  <path
     style="fill-opacity:0.29999998;fill-rule:evenodd;stroke-width:1.8750000;"
     d="M 29.794540,15.653326 C 29.794540,23.478738 23.443481,29.829796 15.618070,29.829796 C 7.7926573,29.829796 1.4415987,23.478738 1.4415987,15.653326 C 1.4415987,7.8279135 7.7926573,1.4768551 15.618070,1.4768551 C 23.443481,1.4768551 29.794540,7.8279135 29.794540,15.653326 z "
     id="path837" />
  <path
     style="fill:url(#radialGradient830);fill-rule:evenodd;stroke:#261933;stroke-width:1.0625000;stroke-dasharray:none;"
     d="M 28.470097,14.623203 C 28.470097,22.069529 22.426702,28.112925 14.980375,28.112925 C 7.5340483,28.112925 1.4906522,22.069529 1.4906522,14.623203 C 1.4906522,7.1768755 7.5340483,1.1334800 14.980375,1.1334800 C 22.426702,1.1334800 28.470097,7.1768755 28.470097,14.623203 z "
     id="path838" />
  <path
     style="fill:url(#radialGradient836);fill-rule:evenodd;stroke:none;stroke-width:1.8750000;stroke-opacity:1.0000000;"
     d="M 24.914189,14.672255 C 24.914189,20.128643 20.485817,24.557015 15.029429,24.557015 C 9.5730407,24.557015 5.1446680,20.128643 5.1446680,14.672255 C 5.1446680,9.2158678 9.5730407,4.7874945 15.029429,4.7874945 C 20.485817,4.7874945 24.914189,9.2158678 24.914189,14.672255 z "
     id="path840" />
  <path
     style="fill:url(#linearGradient829);fill-rule:evenodd;stroke:none;stroke-opacity:1;stroke-width:1pt;stroke-linejoin:miter;stroke-linecap:butt;fill-opacity:1;"
     d="M 5.0225064,22.520822 C 2.1774011,19.724770 0.11715249,8.7204265 9.0448963,3.9785839 C 18.070748,-0.76325810 23.859066,5.0087079 26.213635,8.7858305 C 23.859066,6.3822073 17.972641,1.9837404 10.222181,6.6274751 C 2.4717225,11.369317 3.7471146,19.626663 5.0225064,22.520822 z "
     id="path831"
     sodipodi:nodetypes="czczc" />
  <path
     transform="scale(1.161473,1.000000)"
     style="font-size:20.000000;fill:url(#linearGradient888);stroke:#261933;stroke-width:0.62500000;font-family:Arabolical;"
     d="M 14.429446,21.179487 C 14.429446,21.659487 14.269446,22.026153 13.949446,22.279487 C 13.642779,22.532820 13.242779,22.659487 12.749446,22.659487 C 12.282779,22.659487 11.902779,22.526153 11.609446,22.259487 C 11.329446,21.979487 11.189446,21.606153 11.189446,21.139487 C 11.189446,20.712820 11.376113,20.366153 11.749446,20.099487 C 12.122779,19.819487 12.529446,19.679487 12.969446,19.679487 C 13.342779,19.679487 13.676113,19.839487 13.969446,20.159487 C 14.276113,20.466153 14.429446,20.806153 14.429446,21.179487 z M 15.129446,8.6394868 C 15.129446,8.2128201 14.936113,7.7928201 14.549446,7.3794868 C 14.176113,6.9528201 13.782779,6.7394868 13.369446,6.7394868 C 12.102779,6.7394868 11.469446,8.6861534 11.469446,12.579487 C 11.469446,13.019487 11.489446,13.686153 11.529446,14.579487 C 11.569446,15.472820 11.589446,16.139487 11.589446,16.579487 C 11.589446,17.619487 11.856113,18.139487 12.389446,18.139487 C 12.576113,18.139487 12.862779,18.046153 13.249446,17.859487 C 13.289446,17.579487 13.409446,16.646153 13.609446,15.059487 C 13.836113,14.086153 14.022779,13.039487 14.169446,11.919487 C 14.236113,11.426153 14.409446,10.812820 14.689446,10.079487 C 14.982779,9.3461534 15.129446,8.8661534 15.129446,8.6394868 z "
     id="path1013" />
  <path
     style="fill:url(#linearGradient884);fill-rule:evenodd;stroke:none;stroke-opacity:1;stroke-width:1pt;stroke-linejoin:miter;stroke-linecap:butt;fill-opacity:1;"
     d="M 14.123744,17.403147 C 14.070219,17.381737 13.759822,12.944594 13.996503,10.786618 C 14.120338,9.6575360 14.597927,8.2404442 15.205292,7.5419741 C 15.446200,7.2649304 16.494187,7.7658071 16.541322,7.8600765 C 16.579015,7.9354617 15.654711,7.7835961 15.459774,8.0509379 C 14.912472,8.8015235 14.458013,9.9100123 14.314606,10.913859 C 14.012669,13.027415 14.176253,17.424151 14.123744,17.403147 z "
     id="path889"
     sodipodi:nodetypes="cssssss" />
  <path
     style="fill:url(#linearGradient894);fill-rule:evenodd;stroke:none;stroke-opacity:1;stroke-width:1pt;stroke-linejoin:miter;stroke-linecap:butt;fill-opacity:1;"
     d="M 13.614781,21.792959 C 13.581139,21.725675 13.426008,20.738100 14.505468,20.266068 C 15.327387,19.942455 15.933885,20.705325 15.968738,20.775031 C 15.997505,20.832566 15.700010,20.285219 14.696329,20.647790 C 13.575874,21.004108 13.644759,21.852915 13.614781,21.792959 z "
     id="path893"
     sodipodi:nodetypes="cssss" />
</svg>
