<?xml version="1.0" encoding="UTF-8" standalone="no"?>
<!DOCTYPE svg PUBLIC "-//W3C//DTD SVG 20010904//EN"
"http://www.w3.org/TR/2001/REC-SVG-20010904/DTD/svg10.dtd">
<!-- Created with Inkscape (http://www.inkscape.org/) -->
<svg
   version="1.0"
   x="0"
   y="0"
   width="24.000000pt"
   height="24.000000pt"
   id="svg1"
   sodipodi:version="0.32"
   inkscape:version="0.37"
   sodipodi:docname="emblem-cvs-modified.svg"
   sodipodi:docbase="/home/stefan/software/Lila-themes"
   xmlns="http://www.w3.org/2000/svg"
   xmlns:inkscape="http://www.inkscape.org/namespaces/inkscape"
   xmlns:sodipodi="http://sodipodi.sourceforge.net/DTD/sodipodi-0.dtd"
   xmlns:xlink="http://www.w3.org/1999/xlink">
  <sodipodi:namedview
     id="base"
     pagecolor="#ffffff"
     bordercolor="#666666"
     borderopacity="1.0"
     inkscape:pageopacity="0.0"
     inkscape:pageshadow="2"
     inkscape:zoom="9.84915531"
     inkscape:cx="64.0492204"
     inkscape:cy="-18.2683912"
     inkscape:window-width="1269"
     inkscape:window-height="970"
     inkscape:window-x="0"
     inkscape:window-y="0"
     showgrid="false"
     snaptogrid="false"
     gridspacingx="1pt"
     gridspacingy="1pt"
     gridtolerance="1px" />
  <defs
     id="defs3">
    <linearGradient
       id="linearGradient644">
      <stop
         offset="0.00000000"
         style="stop-color:#cccccc;stop-opacity:1;"
         id="stop646" />
      <stop
         offset="1.00000000"
         style="stop-color:#7f7f7f;stop-opacity:1;"
         id="stop645" />
    </linearGradient>
    <linearGradient
       id="linearGradient641">
      <stop
         offset="0.00000000"
         style="stop-color:#ffffff;stop-opacity:1;"
         id="stop643" />
      <stop
         offset="1.00000000"
         style="stop-color:#ffffff;stop-opacity:0;"
         id="stop642" />
    </linearGradient>
    <linearGradient
       id="linearGradient638">
      <stop
         offset="0.00000000"
         style="stop-color:#ffffff;stop-opacity:1;"
         id="stop640" />
      <stop
         offset="1.00000000"
         style="stop-color:#d9d1e1;stop-opacity:1;"
         id="stop639" />
    </linearGradient>
    <linearGradient
       id="linearGradient634">
      <stop
         offset="0.00000000"
         style="stop-color:#d9cce6;stop-opacity:1;"
         id="stop636" />
      <stop
         offset="1.00000000"
         style="stop-color:#73667f;stop-opacity:1;"
         id="stop635" />
    </linearGradient>
    <linearGradient
       id="linearGradient1809">
      <stop
         style="stop-color:#d9cce6;stop-opacity:1.0000000;"
         offset="0.0000000"
         id="stop1810" />
      <stop
         style="stop-color:#ffffff;stop-opacity:1.0000000;"
         offset="1.0000000"
         id="stop1811" />
    </linearGradient>
    <linearGradient
       id="linearGradient570">
      <stop
         style="stop-color:#ffffff;stop-opacity:1;"
         offset="0"
         id="stop571" />
      <stop
         style="stop-color:#ffffff;stop-opacity:0;"
         offset="1"
         id="stop572" />
    </linearGradient>
    <linearGradient
       id="linearGradient563">
      <stop
         style="stop-color:#d9cce6;stop-opacity:1.0000000;"
         offset="0.0000000"
         id="stop564" />
      <stop
         style="stop-color:#73667f;stop-opacity:1.0000000;"
         offset="1.0000000"
         id="stop565" />
    </linearGradient>
    <linearGradient
       id="linearGradient566"
       xlink:href="#linearGradient1809"
       x1="-0.00000000"
       y1="0.00000000"
       x2="0.99616855"
       y2="0.99173552" />
    <linearGradient
       id="linearGradient569"
       xlink:href="#linearGradient570"
       x1="0.00303951"
       y1="0.00826446"
       x2="1.00303948"
       y2="0.99586779" />
    <linearGradient
       id="linearGradient573"
       xlink:href="#linearGradient570"
       x1="0.00289855"
       y1="0.00769231"
       x2="0.99420291"
       y2="1.00000000" />
    <linearGradient
       id="linearGradient578"
       xlink:href="#linearGradient570"
       x1="0.00338983"
       y1="0.01239669"
       x2="0.98644066"
       y2="0.99173552" />
    <radialGradient
       xlink:href="#linearGradient1809"
       id="radialGradient1812"
       cx="0.96874994"
       cy="0.96093750"
       r="1.3589708"
       fx="0.96874994"
       fy="0.96093750" />
    <linearGradient
       xlink:href="#linearGradient1809"
       id="linearGradient630"
       x1="-0.00000000"
       y1="-0.00000000"
       x2="0.99616855"
       y2="0.99173552" />
    <linearGradient
       xlink:href="#linearGradient563"
       id="linearGradient631"
       x1="-0.00000000"
       y1="-0.00000000"
       x2="0.99221790"
       y2="0.99586779" />
    <defs
       id="defs603">
      <linearGradient
         id="linearGradient916"
         x1="0.00000000"
         y1="0.00000000"
         x2="1.00000000"
         y2="0.00000000"
         gradientUnits="objectBoundingBox"
         spreadMethod="pad"
         xlink:href="#linearGradient644" />
      <linearGradient
         id="linearGradient866"
         x1="0.00000000"
         y1="0.00000000"
         x2="1.00000000"
         y2="0.00000000"
         gradientUnits="objectBoundingBox"
         spreadMethod="pad"
         xlink:href="#linearGradient638" />
      <linearGradient
         id="linearGradient584"
         x1="0.00000000"
         y1="0.00000000"
         x2="1.00000000"
         y2="0.00000000"
         gradientUnits="objectBoundingBox"
         spreadMethod="pad"
         xlink:href="#linearGradient641" />
      <linearGradient
         id="linearGradient613"
         x1="0.00000000"
         y1="0.00000000"
         x2="1.00000000"
         y2="0.00000000"
         gradientUnits="objectBoundingBox"
         spreadMethod="pad"
         xlink:href="#linearGradient634" />
      <linearGradient
         xlink:href="#linearGradient584"
         id="linearGradient581"
         x1="0.00649351"
         y1="0.00000000"
         x2="0.96753246"
         y2="0.97674417" />
      <linearGradient
         xlink:href="#linearGradient584"
         id="linearGradient583"
         x1="-0.03076923"
         y1="0.02325581"
         x2="0.97692305"
         y2="1.03100777" />
      <linearGradient
         xlink:href="#linearGradient584"
         id="linearGradient860"
         x1="-0.01219512"
         y1="0.00775194"
         x2="0.98780489"
         y2="0.99224806" />
      <linearGradient
         xlink:href="#linearGradient578"
         id="linearGradient861"
         x1="0.01562500"
         y1="0.01550388"
         x2="0.98437500"
         y2="0.97674417" />
      <linearGradient
         xlink:href="#linearGradient866"
         id="linearGradient862"
         x1="0.00617284"
         y1="0.01550388"
         x2="1.00000000"
         y2="0.96899223" />
      <linearGradient
         xlink:href="#linearGradient916"
         id="linearGradient869"
         x1="0.00641026"
         y1="0.01550388"
         x2="0.97435898"
         y2="0.95348835" />
      <linearGradient
         xlink:href="#linearGradient578"
         id="linearGradient915"
         x1="0.97727275"
         y1="0.98449612"
         x2="-0.01136364"
         y2="0.01550388" />
    </defs>
    <sodipodi:namedview
       id="namedview623"
       pagecolor="#ffffff"
       bordercolor="#666666"
       borderopacity="1.0"
       inkscape:pageopacity="0.0"
       inkscape:pageshadow="2"
       inkscape:zoom="7.97947193"
       inkscape:cx="26.4570195"
       inkscape:cy="23.7684983"
       inkscape:window-width="640"
       inkscape:window-height="516"
       inkscape:window-x="153"
       inkscape:window-y="351" />
    <linearGradient
       xlink:href="#linearGradient634"
       id="linearGradient637"
       x1="0.01562500"
       y1="0.01550388"
       x2="0.98437500"
       y2="0.97674417" />
  </defs>
  <path
     style="font-size:12;fill:#000000;fill-opacity:1;fill-rule:evenodd;stroke:none;stroke-width:1pt;stroke-opacity:1;opacity:0.300000;"
     d="M 7.2166938 12.59183 C 9.4772629 10.163434 24.821084 12.537396 25.690382 15.223769 C 26.620181 18.097109 15.910873 29.740676 12.613985 29.27097 C 9.7529776 28.863364 5.1184638 14.845834 7.2166938 12.59183 z "
     id="path634"
     sodipodi:nodetypes="csss" />
  <path
     style="font-size:12;fill:url(#linearGradient566);fill-opacity:0.75;fill-rule:evenodd;stroke:#261933;stroke-width:1pt;stroke-opacity:1;"
     d="M 5.7038933 10.164901 C 7.9644624 7.7365063 23.308284 10.110468 24.177582 12.796841 C 25.107381 15.670181 14.398073 27.313748 11.101184 26.844042 C 8.2401771 26.436436 3.6056633 12.418906 5.7038933 10.164901 z "
     id="path632"
     sodipodi:nodetypes="csss" />
  <path
     style="font-size:12;fill:#000000;fill-opacity:1;fill-rule:evenodd;stroke:none;stroke-width:1pt;stroke-opacity:1;opacity:0.300000;"
     d="M 7.8792227 7.2320454 C 10.140109 4.8036498 25.486087 7.1776115 26.355507 9.8639848 C 27.285436 12.737324 16.574624 24.380891 13.277272 23.911184 C 10.415862 23.503578 5.7806979 9.4860496 7.8792227 7.2320454 z "
     id="path633"
     sodipodi:nodetypes="csss" />
  <path
     style="font-size:12;fill:url(#linearGradient630);fill-opacity:0.75;fill-rule:evenodd;stroke:#261933;stroke-width:1.00007pt;"
     d="M 6.2286631 5.3463291 C 8.4895498 2.9179335 23.835527 5.2918952 24.704947 7.9782684 C 25.634876 10.851608 14.924065 22.495175 11.626713 22.025469 C 8.7653032 21.617862 4.1301383 7.6003333 6.2286631 5.3463291 z "
     id="path628"
     sodipodi:nodetypes="csss" />
  <path
     style="fill:url(#linearGradient578);fill-rule:evenodd;stroke:none;stroke-opacity:1;stroke-width:1pt;stroke-linejoin:miter;stroke-linecap:butt;fill-opacity:0.75;"
     d="M 7.7892231 13.979612 C 7.4819972 13.722751 5.5346497 7.0653463 6.9053397 5.8313111 C 8.5822061 4.3216246 16.627503 5.4939581 16.931892 5.748447 C 17.189138 5.9635212 10.282454 5.7164981 8.5902425 7.2400004 C 7.2348982 8.4602198 8.0436315 14.192314 7.7892231 13.979612 z "
     id="path670"
     sodipodi:nodetypes="cssss" />
  <path
     d="M 8.5847278 13.542891 C 8.9296768 14.02113 19.217491 16.713451 19.672527 16.466738 C 20.106202 16.195426 22.78554 4.2375252 22.482454 3.7841102 C 22.246043 3.4136752 11.274885 1.9919912 10.938991 2.3032172 C 10.588967 2.6670862 8.2979108 13.092604 8.5847278 13.542891 z "
     style="font-size:12;opacity:0.302675;fill-rule:evenodd;stroke-width:12.5;"
     id="path1382" />
  <path
     d="M 7.6899748 12.254704 C 8.0349238 12.732941 18.32274 15.425264 18.777774 15.178549 C 19.211448 14.907237 21.890787 2.9493372 21.587701 2.4959212 C 21.351291 2.1254882 10.380133 0.70380218 10.044238 1.0150292 C 9.6942158 1.3789042 7.4031578 11.804415 7.6899748 12.254704 z "
     style="font-size:12;fill:url(#linearGradient637);fill-rule:evenodd;stroke:#261933;stroke-width:0.8125;stroke-dasharray:none;"
     id="path1289" />
  <path
     d="M 9.6265328 12.786327 C 9.8037228 11.330728 10.132832 10.027022 10.499888 8.7233152 C 12.930082 9.2169372 15.28436 9.7865352 17.676581 10.432049 C 17.398122 11.862324 17.081688 13.330599 16.689309 14.684927 C 14.208493 14.254575 11.993459 13.55841 9.6265328 12.786327 z "
     style="font-size:12;fill:#595161;fill-rule:evenodd;stroke:#261933;stroke-width:0.456156;stroke-dasharray:none;"
     id="path1294" />
  <path
     d="M 11.86689 1.2048882 C 11.385918 2.9009772 10.904944 4.8248742 10.689753 6.6348792 C 13.081975 7.3057182 15.853929 7.9006122 18.284152 8.3436122 C 18.815747 6.3564192 19.271397 4.2553052 19.613154 2.2301372 C 17.208257 1.8124392 14.271762 1.3188052 11.86689 1.2048882 z "
     style="font-size:12;fill:url(#linearGradient862);fill-rule:evenodd;stroke:#261933;stroke-width:0.45;stroke-dasharray:none;"
     id="path1295" />
  <path
     d="M 11.140292 9.8433272 C 10.961289 10.541418 10.782285 11.239537 10.60328 11.937628 C 10.871773 12.009218 11.083332 12.080837 11.351825 12.152427 C 11.495034 11.472234 11.733175 10.716067 11.895372 10.035872 C 11.662673 9.9463842 11.410963 9.8948422 11.140292 9.8433272 z M 9.8060698 12.69337 C 9.9785388 11.345436 10.329372 10.173923 10.615761 8.9209222 C 12.44157 9.2734852 14.495216 9.7429492 16.302038 10.266392 C 16.034636 11.554126 15.63579 12.90923 15.292441 14.234937 C 13.447644 13.847668 11.631878 13.365437 9.8060698 12.69337 z "
     style="font-size:12;fill:url(#linearGradient869);fill-rule:evenodd;stroke-width:6.25;"
     id="path1306"
     sodipodi:nodetypes="cccccccccc" />
  <path
     d="M 8.2975298 11.912946 C 8.1893908 11.635826 9.9583808 2.1465682 10.575862 1.6225372 C 11.191584 1.0942552 20.571557 2.7208842 20.676402 2.9895432 C 20.774071 3.2398312 13.393243 1.5166372 11.297322 3.0274892 C 9.2669328 4.4911002 8.3919048 12.154773 8.2975298 11.912946 z "
     style="font-size:12;opacity:0.7;fill:url(#linearGradient581);fill-rule:evenodd;stroke-width:1pt;"
     id="path1310" />
  <path
     d="M 10.019287 12.365641 C 9.9962248 12.312926 10.577017 9.2783712 10.778751 9.1759842 C 11.079882 9.0103812 13.205009 9.5792522 13.227932 9.6316612 C 13.249293 9.6804972 11.540307 9.2877252 11.073293 9.6383632 C 10.599216 9.9989122 10.040536 12.414196 10.019287 12.365641 z "
     style="font-size:12;opacity:0.7;fill:url(#linearGradient583);fill-rule:evenodd;stroke-width:1pt;"
     id="path1315"
     sodipodi:nodetypes="ccccc" />
  <path
     d="M 10.822659 12.140784 C 10.811377 12.112583 11.293413 12.424325 11.392255 12.311663 C 11.609848 12.063609 11.760063 11.028814 11.771959 11.058578 C 11.785361 11.092112 11.731304 12.313618 11.520555 12.553881 C 11.414872 12.674362 10.836704 12.175853 10.822659 12.140784 z "
     style="font-size:12;opacity:0.99;fill:url(#linearGradient860);fill-rule:evenodd;stroke-width:1pt;"
     id="path1316" />
  <path
     d="M 12.360877 2.9742992 C 14.267686 3.2723872 16.467054 3.7252162 18.284516 4.2372112 C 18.401842 4.2702702 18.287139 4.6285582 18.165205 4.6095152 C 16.273364 4.3138282 14.075475 3.8091202 12.243272 3.2929662 C 12.140717 3.2640682 12.253938 2.9576012 12.360877 2.9742992 z "
     style="font-size:12;opacity:0.25;fill-rule:evenodd;stroke-width:1pt;"
     id="path1379" />
  <path
     d="M 12.146023 4.0362052 C 14.052831 4.3342662 16.25217 4.7870952 18.069659 5.2991182 C 18.186957 5.3321772 18.072284 5.6904652 17.950351 5.6714222 C 16.05851 5.3757082 13.86059 4.8710272 12.028417 4.3548712 C 11.925833 4.3259742 12.039082 4.0194802 12.146023 4.0362052 z "
     style="font-size:12;opacity:0.25;fill-rule:evenodd;stroke-width:1pt;"
     id="path1380" />
  <path
     d="M 11.911621 5.1548492 C 13.81843 5.4528822 16.0178 5.9057112 17.835259 6.4177342 C 17.952585 6.4507922 17.837856 6.8090802 17.715979 6.7900382 C 15.824137 6.4943222 13.62622 5.9896422 11.794018 5.4734882 C 11.691461 5.4445892 11.80471 5.1380962 11.911621 5.1548492 z "
     style="font-size:12;opacity:0.25;fill-rule:evenodd;stroke-width:1pt;"
     id="path1381" />
</svg>
