<?xml version="1.0" encoding="UTF-8" standalone="no"?>
<!DOCTYPE svg PUBLIC "-//W3C//DTD SVG 20010904//EN"
"http://www.w3.org/TR/2001/REC-SVG-20010904/DTD/svg10.dtd">
<!-- Created with Inkscape (http://www.inkscape.org/) -->
<svg
   id="svg1"
   sodipodi:version="0.32"
   inkscape:version="0.39"
   width="24.000000pt"
   height="24.000000pt"
   sodipodi:docbase="/home/stefan/software/Lila-themes/drawn_icons"
   sodipodi:docname="emblem-sound.svg"
   xmlns="http://www.w3.org/2000/svg"
   xmlns:cc="http://web.resource.org/cc/"
   xmlns:inkscape="http://www.inkscape.org/namespaces/inkscape"
   xmlns:sodipodi="http://sodipodi.sourceforge.net/DTD/sodipodi-0.dtd"
   xmlns:rdf="http://www.w3.org/1999/02/22-rdf-syntax-ns#"
   xmlns:dc="http://purl.org/dc/elements/1.1/"
   xmlns:xlink="http://www.w3.org/1999/xlink">
  <defs
     id="defs3">
    <linearGradient
       id="linearGradient758">
      <stop
         style="stop-color:#d9cce6;stop-opacity:1;"
         offset="0.00000000"
         id="stop759" />
      <stop
         style="stop-color:#73667f;stop-opacity:1;"
         offset="1.00000000"
         id="stop760" />
    </linearGradient>
    <linearGradient
       id="linearGradient745">
      <stop
         style="stop-color:#d9cce6;stop-opacity:1;"
         offset="0.00000000"
         id="stop746" />
      <stop
         style="stop-color:#73667f;stop-opacity:1;"
         offset="1.00000000"
         id="stop747" />
    </linearGradient>
    <linearGradient
       id="linearGradient742">
      <stop
         offset="0.00000000"
         style="stop-color:#d9cce6;stop-opacity:1;"
         id="stop744" />
      <stop
         offset="1.00000000"
         style="stop-color:#73667f;stop-opacity:1;"
         id="stop743" />
    </linearGradient>
    <linearGradient
       id="linearGradient711">
      <stop
         offset="0.00000000"
         style="stop-color:#ffffff;stop-opacity:1;"
         id="stop713" />
      <stop
         offset="1.00000000"
         style="stop-color:#ffffff;stop-opacity:0;"
         id="stop712" />
    </linearGradient>
    <linearGradient
       id="linearGradient599">
      <stop
         style="stop-color:#ffffff;stop-opacity:1;"
         offset="0.00000000"
         id="stop600" />
      <stop
         style="stop-color:#d9cce6;stop-opacity:1;"
         offset="1.00000000"
         id="stop601" />
    </linearGradient>
    <linearGradient
       id="linearGradient584">
      <stop
         style="stop-color:#ffffff;stop-opacity:1;"
         offset="0.00000000"
         id="stop585" />
      <stop
         style="stop-color:#ffffff;stop-opacity:0;"
         offset="1.00000000"
         id="stop586" />
    </linearGradient>
    <linearGradient
       id="linearGradient578">
      <stop
         style="stop-color:#d9cce6;stop-opacity:1;"
         offset="0.00000000"
         id="stop579" />
      <stop
         style="stop-color:#73667f;stop-opacity:1;"
         offset="1.00000000"
         id="stop580" />
    </linearGradient>
    <linearGradient
       xlink:href="#linearGradient578"
       id="linearGradient581"
       x1="-0.00000000"
       y1="0.00000000"
       x2="0.97916669"
       y2="0.97656250" />
    <linearGradient
       xlink:href="#linearGradient578"
       id="linearGradient583"
       x1="0.98979592"
       y1="0.99218750"
       x2="0.03061225"
       y2="-0.00000000" />
    <linearGradient
       xlink:href="#linearGradient578"
       id="linearGradient860"
       x1="-0.00000000"
       y1="-0.00000000"
       x2="0.98076922"
       y2="1.00781250" />
    <linearGradient
       xlink:href="#linearGradient599"
       id="linearGradient861"
       x1="0.98979592"
       y1="0.99218750"
       x2="0.03061225"
       y2="0.00000000" />
    <linearGradient
       xlink:href="#linearGradient584"
       id="linearGradient862"
       x1="-0.00000000"
       y1="0.00000000"
       x2="0.97457629"
       y2="0.99218750" />
    <radialGradient
       xlink:href="#linearGradient578"
       id="radialGradient595"
       cx="0.33846155"
       cy="0.34375000"
       r="0.66501766"
       fx="0.33076921"
       fy="0.33593750" />
    <linearGradient
       xlink:href="#linearGradient584"
       id="linearGradient652"
       x1="-0.00000000"
       y1="-0.00000000"
       x2="0.99637681"
       y2="0.96052629" />
    <linearGradient
       xlink:href="#linearGradient584"
       id="linearGradient654"
       x1="0.01098901"
       y1="0.01562500"
       x2="0.97802198"
       y2="0.98437500" />
    <linearGradient
       xlink:href="#linearGradient758"
       id="linearGradient661"
       x1="0.00000000"
       y1="0.03125000"
       x2="0.96629214"
       y2="0.95312500" />
    <linearGradient
       xlink:href="#linearGradient578"
       id="linearGradient616"
       x1="0.02439024"
       y1="0.03125000"
       x2="0.96747965"
       y2="0.96875000" />
    <linearGradient
       xlink:href="#linearGradient584"
       id="linearGradient618"
       x1="0.00000000"
       y1="-0.00000000"
       x2="1.00000000"
       y2="1.00781250" />
    <linearGradient
       xlink:href="#linearGradient584"
       id="linearGradient620"
       x1="-0.00000000"
       y1="0.00000000"
       x2="1.00000000"
       y2="0.99218750" />
    <linearGradient
       xlink:href="#linearGradient584"
       id="linearGradient633"
       x1="0.00000000"
       y1="0.00000000"
       x2="1.00000000"
       y2="0.00000000" />
  </defs>
  <sodipodi:namedview
     id="base"
     pagecolor="#ffffff"
     bordercolor="#666666"
     borderopacity="1.0"
     inkscape:pageopacity="0.0"
     inkscape:pageshadow="2"
     inkscape:zoom="16.000000"
     inkscape:cx="23.132135"
     inkscape:cy="8.9901161"
     inkscape:window-width="1022"
     inkscape:window-height="695"
     inkscape:window-x="0"
     inkscape:window-y="26"
     showborder="true"
     showgrid="false"
     gridspacingx="1pt"
     gridspacingy="1pt"
     snaptogrid="false"
     inkscape:grid-bbox="false" />
  <g
     id="g650"
     style="font-size:12.000000;opacity:0.29636899;"
     transform="matrix(-0.324028,0.136284,0.154008,0.366169,15.94325,3.727970)">
    <path
       style="fill-rule:evenodd;stroke-width:1.8750000;"
       d="M 40.181906,49.683924 C 43.741420,46.987630 55.413093,36.819956 56.782923,33.597578 C 58.501012,29.555960 56.258798,19.433555 53.192815,16.716700 C 50.944448,14.724357 36.640091,12.559718 32.521925,12.563247 C 28.414485,12.566766 34.838722,53.731330 40.181906,49.683924 z "
       id="path643"
       sodipodi:nodetypes="cssss" />
    <path
       style="fill-rule:evenodd;stroke-width:1.8750000;"
       d="M 46.995589,33.682468 C 46.995589,44.404983 40.468842,53.107313 32.426956,53.107313 C 24.385071,53.107313 17.858323,44.404983 17.858323,33.682468 C 17.858323,22.959954 24.385071,14.257624 32.426956,14.257624 C 40.468842,14.257624 46.995589,22.959954 46.995589,33.682468 z "
       id="path644"
       transform="matrix(1.373487,0.000000,0.000000,1.373487,-17.61598,-13.82184)" />
  </g>
  <path
     style="font-size:12.000000;fill:url(#linearGradient860);fill-rule:evenodd;stroke:#000000;stroke-width:0.70065433;"
     d="M 9.7351010,26.841727 C 8.2650460,26.324502 3.2634510,24.165917 2.3991460,23.204987 C 1.3151060,21.999752 0.62565100,18.203292 1.2031910,16.891452 C 1.6267160,15.929452 5.7576810,13.474507 7.0326210,12.986292 C 8.3042410,12.499352 11.941796,27.618137 9.7351010,26.841727 z "
     id="path637"
     sodipodi:nodetypes="cssss" />
  <path
     style="font-size:12.000000;fill:url(#linearGradient652);fill-rule:evenodd;stroke-width:1.0000000pt;"
     d="M 1.9159610,17.261052 C 1.9565260,17.132152 4.9041510,14.645517 6.2073960,14.212267 C 6.5483260,14.098927 6.8926760,15.480852 6.8484860,15.621277 C 6.8159510,15.724662 6.2693310,14.846592 5.9772260,14.943697 C 4.6251560,15.393182 1.8798010,17.375962 1.9159610,17.261052 z "
     id="path642"
     sodipodi:nodetypes="cssss" />
  <path
     style="font-size:12.000000;fill:url(#linearGradient581);fill-rule:evenodd;stroke:#261933;stroke-width:0.70065433;"
     d="M 5.3124660,21.647337 C 7.4512310,26.732432 11.926086,29.707437 15.300986,28.287972 C 18.675891,26.868507 19.679131,21.589447 17.540371,16.504352 C 15.401606,11.419257 10.926746,8.4442520 7.5518460,9.8637170 C 4.1769460,11.283182 3.1737060,16.562247 5.3124660,21.647337 z "
     id="path635" />
  <path
     style="font-size:12.000000;fill:url(#linearGradient583);fill-rule:evenodd;stroke-width:0.37500000;"
     d="M 7.6791560,20.651922 C 8.9900110,23.768592 11.732666,25.591982 13.801156,24.721987 C 15.869641,23.851992 16.484536,20.616437 15.173681,17.499767 C 13.862821,14.383097 11.120171,12.559707 9.0516810,13.429702 C 6.9831910,14.299697 6.3683010,17.535252 7.6791560,20.651922 z "
     id="path636" />
  <path
     style="font-size:12.000000;fill:url(#linearGradient861);fill-rule:evenodd;stroke:#261933;stroke-width:0.18149017;"
     d="M 10.193766,19.594292 C 10.624971,20.619512 11.527156,21.219312 12.207581,20.933127 C 12.888006,20.646947 13.090271,19.582617 12.659066,18.557397 C 12.227866,17.532177 11.325676,16.932377 10.645251,17.218562 C 9.9648310,17.504742 9.7625610,18.569072 10.193766,19.594292 z "
     id="path638" />
  <path
     style="font-size:12.000000;fill:url(#linearGradient862);fill-rule:evenodd;stroke-width:1.0000000pt;"
     d="M 7.1651210,23.439287 C 6.9873060,23.266067 3.6064410,17.356332 5.9155710,12.403602 C 7.4112810,9.2756770 11.696036,10.527717 11.874116,10.701192 C 12.035881,10.858772 8.3974410,10.059677 6.9350960,13.396767 C 4.7716960,18.488317 7.3271460,23.597122 7.1651210,23.439287 z "
     id="path639"
     sodipodi:nodetypes="cssss" />
  <path
     style="font-size:12.000000;fill:url(#linearGradient862);fill-rule:evenodd;stroke-width:1.0000000pt;"
     d="M 10.645411,20.013647 C 10.609571,19.978732 9.9280810,18.787497 10.393536,17.789167 C 10.695031,17.158662 11.558716,17.411042 11.594611,17.446007 C 11.627221,17.477772 10.893811,17.316697 10.599046,17.989357 C 10.162961,19.015672 10.678071,20.045462 10.645411,20.013647 z "
     id="path640"
     sodipodi:nodetypes="cssss" />
  <path
     style="font-size:12.000000;fill:url(#linearGradient862);fill-rule:evenodd;stroke-width:1.0000000pt;"
     d="M 14.105151,16.630457 C 14.211101,16.733672 16.225616,20.255032 14.849706,23.206152 C 13.958471,25.069947 11.405371,24.323912 11.299261,24.220542 C 11.202871,24.126647 13.370861,24.602797 14.242211,22.614367 C 15.531291,19.580527 14.008606,16.536412 14.105151,16.630457 z "
     id="path641"
     sodipodi:nodetypes="cssss" />
  <path
     style="fill:#000000;fill-opacity:1.00000000;fill-rule:nonzero;stroke:none;stroke-width:1.0000000pt;stroke-linecap:butt;stroke-linejoin:miter;stroke-opacity:1.0000000;"
     id="path683"
     d="M -9.5078241,-0.25638252 C -9.5095341,-0.25658252 -9.5112341,-0.25678252 -9.5129441,-0.25698252 L -9.5129441,-1.5988825 C -9.5112341,-1.5990825 -9.5095341,-1.5992825 -9.5078241,-1.5994825 L -9.5078241,-0.25638252 z " />
  <g
     id="g1637"
     transform="matrix(0.449726,0.000000,0.000000,0.449726,4.258220,-12.43957)">
    <path
       style="font-size:12.000000;fill:#000000;fill-opacity:0.30081299;fill-rule:evenodd;stroke:none;stroke-width:1.2500000;"
       d="M 42.603029,36.526934 C 41.901578,36.499775 41.399237,36.606999 41.228029,36.964434 C 40.543196,38.394176 40.925209,50.676388 40.446779,50.683184 C 39.327606,50.697899 36.977184,50.797336 36.290529,51.339434 C 35.603873,51.881530 35.165529,52.637812 35.165529,53.464434 C 35.165529,54.291057 35.603873,55.016089 36.290529,55.558184 C 36.977184,56.100280 37.899723,56.433185 38.946779,56.433184 C 39.993834,56.433184 40.947623,56.100281 41.634279,55.558184 C 42.320934,55.016088 42.759280,53.072305 42.759279,52.245684 C 42.759279,51.832373 42.933084,44.693136 43.040529,41.589434 C 43.094252,40.037583 47.912630,42.305239 51.367791,41.151934 C 51.191372,45.257428 51.414957,50.678309 51.071779,50.683184 C 49.952606,50.697899 47.602182,50.797336 46.915529,51.339434 C 46.228873,51.881530 45.790529,52.637812 45.790529,53.464434 C 45.790529,54.291057 46.228871,55.016089 46.915529,55.558184 C 47.602184,56.100280 48.555973,56.433185 49.603029,56.433184 C 50.650084,56.433184 51.572623,56.100281 52.259279,55.558184 C 52.945934,55.016088 53.384280,53.072305 53.384279,52.245684 C 53.384279,51.832373 53.393238,44.816409 53.768915,41.733706 C 54.054679,39.316671 55.410601,35.566210 52.112665,36.774592 C 49.101404,37.877934 44.707381,36.608412 42.603029,36.526934 z "
       id="path1632"
       sodipodi:nodetypes="ccccccccccccccccccssc" />
    <path
       style="font-size:12.000000;fill:url(#linearGradient616);fill-opacity:1.00000000;fill-rule:evenodd;stroke:#261934;stroke-width:1.2500000;"
       d="M 36.718750,36.125000 C 36.017299,36.097841 35.514958,36.205065 35.343750,36.562500 C 34.658917,37.992242 35.040930,50.274454 34.562500,50.281250 C 33.443327,50.295965 31.092905,50.395402 30.406250,50.937500 C 29.719594,51.479596 29.281250,52.235878 29.281250,53.062500 C 29.281250,53.889123 29.719594,54.614155 30.406250,55.156250 C 31.092905,55.698346 32.015444,56.031251 33.062500,56.031250 C 34.109555,56.031250 35.063344,55.698347 35.750000,55.156250 C 36.436655,54.614154 36.875001,52.670371 36.875000,51.843750 C 36.875000,51.430439 37.048805,44.291202 37.156250,41.187500 C 37.209973,39.635649 42.028351,41.903305 45.483512,40.750000 C 45.307093,44.855494 45.530678,50.276375 45.187500,50.281250 C 44.068327,50.295965 41.717903,50.395402 41.031250,50.937500 C 40.344594,51.479596 39.906250,52.235878 39.906250,53.062500 C 39.906250,53.889123 40.344592,54.614155 41.031250,55.156250 C 41.717905,55.698346 42.671694,56.031251 43.718750,56.031250 C 44.765805,56.031250 45.688344,55.698347 46.375000,55.156250 C 47.061655,54.614154 47.500001,52.670371 47.500000,51.843750 C 47.500000,51.430439 47.508959,44.414475 47.884636,41.331772 C 48.170400,38.914737 49.526322,35.164276 46.228386,36.372658 C 43.217125,37.476000 38.823102,36.206478 36.718750,36.125000 z "
       id="path1615"
       sodipodi:nodetypes="ccccccccccccccccccssc"
       transform="translate(4.328167,-1.154178)" />
    <path
       style="font-size:12.000000;fill-opacity:1.00000000;stroke-width:1.0000000pt;"
       id="path682"
       d="M 34.340968,41.503501 C 34.339260,41.503299 34.337552,41.503098 34.335844,41.502896 L 34.335844,40.160997 C 34.337552,40.160796 34.339260,40.160594 34.340968,40.160392 L 34.340968,41.503501 z "
       transform="translate(4.328167,-1.154178)" />
    <path
       style="font-size:12.000000;fill:url(#linearGradient654);fill-rule:evenodd;stroke-width:1.0000000pt;"
       d="M 31.495146,51.540450 C 30.337742,51.978326 30.272239,52.583398 30.230790,53.520306 C 30.671573,53.160079 30.492121,52.314908 32.027796,52.022954 C 34.633312,51.499244 35.528639,52.232627 35.671646,51.224285 C 36.161145,47.186399 35.925009,42.170366 36.337305,38.495424 C 36.434839,37.772002 36.475173,37.889484 37.729574,37.902052 C 39.935115,37.852014 46.453114,38.155551 46.555886,37.380435 C 41.999024,38.088665 37.186990,36.888945 36.021140,36.964743 C 35.621256,40.783372 35.663003,47.942169 35.471979,50.658613 C 35.384567,51.939718 33.532376,50.801177 31.495146,51.540450 z "
       id="path1610"
       sodipodi:nodetypes="ccssssccss"
       transform="translate(4.328167,-1.154178)" />
    <path
       style="font-size:12.000000;fill:url(#linearGradient654);fill-rule:evenodd;stroke-width:1.0000000pt;"
       d="M 42.125067,51.540450 C 40.967663,51.978326 40.902160,52.583398 40.860711,53.520306 C 41.301494,53.160079 41.122042,52.314908 42.657717,52.022954 C 45.263233,51.499244 46.432928,52.242636 46.445839,51.224285 C 46.502522,46.681446 46.563163,42.914703 46.606546,41.380869 C 46.550472,40.812999 46.734868,40.423614 46.434653,40.355141 C 46.179041,41.865414 46.292924,47.942169 46.101900,50.658613 C 46.014488,51.939718 44.162297,50.801177 42.125067,51.540450 z "
       id="path1616"
       sodipodi:nodetypes="ccssscss"
       transform="translate(4.328167,-1.154178)" />
  </g>
  <g
     id="g1643"
     transform="matrix(0.383638,0.000000,0.000000,0.383638,8.440580,0.928320)">
    <path
       style="font-size:12.000000;fill:#000000;fill-opacity:0.30081299;fill-rule:evenodd;stroke:none;stroke-width:1.2500000;"
       d="M 42.603029,36.526934 C 41.901578,36.499775 41.399237,36.606999 41.228029,36.964434 C 40.543196,38.394176 40.925209,50.676388 40.446779,50.683184 C 39.327606,50.697899 36.977184,50.797336 36.290529,51.339434 C 35.603873,51.881530 35.165529,52.637812 35.165529,53.464434 C 35.165529,54.291057 35.603873,55.016089 36.290529,55.558184 C 36.977184,56.100280 37.899723,56.433185 38.946779,56.433184 C 39.993834,56.433184 40.947623,56.100281 41.634279,55.558184 C 42.320934,55.016088 42.759280,53.072305 42.759279,52.245684 C 42.759279,51.832373 42.933084,44.693136 43.040529,41.589434 C 43.094252,40.037583 47.912630,42.305239 51.367791,41.151934 C 51.191372,45.257428 51.414957,50.678309 51.071779,50.683184 C 49.952606,50.697899 47.602182,50.797336 46.915529,51.339434 C 46.228873,51.881530 45.790529,52.637812 45.790529,53.464434 C 45.790529,54.291057 46.228871,55.016089 46.915529,55.558184 C 47.602184,56.100280 48.555973,56.433185 49.603029,56.433184 C 50.650084,56.433184 51.572623,56.100281 52.259279,55.558184 C 52.945934,55.016088 53.384280,53.072305 53.384279,52.245684 C 53.384279,51.832373 53.393238,44.816409 53.768915,41.733706 C 54.054679,39.316671 55.410601,35.566210 52.112665,36.774592 C 49.101404,37.877934 44.707381,36.608412 42.603029,36.526934 z "
       id="path1644"
       sodipodi:nodetypes="ccccccccccccccccccssc" />
    <path
       style="font-size:12.000000;fill:url(#linearGradient616);fill-opacity:1.00000000;fill-rule:evenodd;stroke:#261934;stroke-width:1.2500000;"
       d="M 36.718750,36.125000 C 36.017299,36.097841 35.514958,36.205065 35.343750,36.562500 C 34.658917,37.992242 35.040930,50.274454 34.562500,50.281250 C 33.443327,50.295965 31.092905,50.395402 30.406250,50.937500 C 29.719594,51.479596 29.281250,52.235878 29.281250,53.062500 C 29.281250,53.889123 29.719594,54.614155 30.406250,55.156250 C 31.092905,55.698346 32.015444,56.031251 33.062500,56.031250 C 34.109555,56.031250 35.063344,55.698347 35.750000,55.156250 C 36.436655,54.614154 36.875001,52.670371 36.875000,51.843750 C 36.875000,51.430439 37.048805,44.291202 37.156250,41.187500 C 37.209973,39.635649 42.028351,41.903305 45.483512,40.750000 C 45.307093,44.855494 45.530678,50.276375 45.187500,50.281250 C 44.068327,50.295965 41.717903,50.395402 41.031250,50.937500 C 40.344594,51.479596 39.906250,52.235878 39.906250,53.062500 C 39.906250,53.889123 40.344592,54.614155 41.031250,55.156250 C 41.717905,55.698346 42.671694,56.031251 43.718750,56.031250 C 44.765805,56.031250 45.688344,55.698347 46.375000,55.156250 C 47.061655,54.614154 47.500001,52.670371 47.500000,51.843750 C 47.500000,51.430439 47.508959,44.414475 47.884636,41.331772 C 48.170400,38.914737 49.526322,35.164276 46.228386,36.372658 C 43.217125,37.476000 38.823102,36.206478 36.718750,36.125000 z "
       id="path1645"
       sodipodi:nodetypes="ccccccccccccccccccssc"
       transform="translate(4.328167,-1.154178)" />
    <path
       style="font-size:12.000000;fill-opacity:1.00000000;stroke-width:1.0000000pt;"
       id="path1646"
       d="M 34.340968,41.503501 C 34.339260,41.503299 34.337552,41.503098 34.335844,41.502896 L 34.335844,40.160997 C 34.337552,40.160796 34.339260,40.160594 34.340968,40.160392 L 34.340968,41.503501 z "
       transform="translate(4.328167,-1.154178)" />
    <path
       style="font-size:12.000000;fill:url(#linearGradient654);fill-rule:evenodd;stroke-width:1.0000000pt;"
       d="M 31.495146,51.540450 C 30.337742,51.978326 30.272239,52.583398 30.230790,53.520306 C 30.671573,53.160079 30.492121,52.314908 32.027796,52.022954 C 34.633312,51.499244 35.528639,52.232627 35.671646,51.224285 C 36.161145,47.186399 35.925009,42.170366 36.337305,38.495424 C 36.434839,37.772002 36.475173,37.889484 37.729574,37.902052 C 39.935115,37.852014 46.453114,38.155551 46.555886,37.380435 C 41.999024,38.088665 37.186990,36.888945 36.021140,36.964743 C 35.621256,40.783372 35.663003,47.942169 35.471979,50.658613 C 35.384567,51.939718 33.532376,50.801177 31.495146,51.540450 z "
       id="path1647"
       sodipodi:nodetypes="ccssssccss"
       transform="translate(4.328167,-1.154178)" />
    <path
       style="font-size:12.000000;fill:url(#linearGradient654);fill-rule:evenodd;stroke-width:1.0000000pt;"
       d="M 42.125067,51.540450 C 40.967663,51.978326 40.902160,52.583398 40.860711,53.520306 C 41.301494,53.160079 41.122042,52.314908 42.657717,52.022954 C 45.263233,51.499244 46.432928,52.242636 46.445839,51.224285 C 46.502522,46.681446 46.563163,42.914703 46.606546,41.380869 C 46.550472,40.812999 46.734868,40.423614 46.434653,40.355141 C 46.179041,41.865414 46.292924,47.942169 46.101900,50.658613 C 46.014488,51.939718 44.162297,50.801177 42.125067,51.540450 z "
       id="path1648"
       sodipodi:nodetypes="ccssscss"
       transform="translate(4.328167,-1.154178)" />
  </g>
  <metadata
     id="metadata1142">
    <rdf:RDF
       id="RDF1143">
      <cc:Work
         rdf:about=""
         id="Work1144">
        <dc:format
           id="format1145">image/svg+xml</dc:format>
        <dc:type
           id="type1147"
           rdf:resource="http://purl.org/dc/dcmitype/StillImage" />
      </cc:Work>
    </rdf:RDF>
  </metadata>
  <g
     id="g1215"
     transform="matrix(0.327157,0.000000,0.000000,0.327157,1.543600,-10.50101)">
    <path
       style="font-size:12.000000;fill:#000000;fill-opacity:0.30081299;fill-rule:evenodd;stroke:none;stroke-width:1.2500000;"
       d="M 42.603029,36.526934 C 41.901578,36.499775 41.399237,36.606999 41.228029,36.964434 C 40.543196,38.394176 40.925209,50.676388 40.446779,50.683184 C 39.327606,50.697899 36.977184,50.797336 36.290529,51.339434 C 35.603873,51.881530 35.165529,52.637812 35.165529,53.464434 C 35.165529,54.291057 35.603873,55.016089 36.290529,55.558184 C 36.977184,56.100280 37.899723,56.433185 38.946779,56.433184 C 39.993834,56.433184 40.947623,56.100281 41.634279,55.558184 C 42.320934,55.016088 42.759280,53.072305 42.759279,52.245684 C 42.759279,51.832373 42.933084,44.693136 43.040529,41.589434 C 43.094252,40.037583 47.912630,42.305239 51.367791,41.151934 C 51.191372,45.257428 51.414957,50.678309 51.071779,50.683184 C 49.952606,50.697899 47.602182,50.797336 46.915529,51.339434 C 46.228873,51.881530 45.790529,52.637812 45.790529,53.464434 C 45.790529,54.291057 46.228871,55.016089 46.915529,55.558184 C 47.602184,56.100280 48.555973,56.433185 49.603029,56.433184 C 50.650084,56.433184 51.572623,56.100281 52.259279,55.558184 C 52.945934,55.016088 53.384280,53.072305 53.384279,52.245684 C 53.384279,51.832373 53.393238,44.816409 53.768915,41.733706 C 54.054679,39.316671 55.410601,35.566210 52.112665,36.774592 C 49.101404,37.877934 44.707381,36.608412 42.603029,36.526934 z "
       id="path1216"
       sodipodi:nodetypes="ccccccccccccccccccssc" />
    <path
       style="font-size:12.000000;fill:url(#linearGradient616);fill-opacity:1.00000000;fill-rule:evenodd;stroke:#261934;stroke-width:1.2500000;"
       d="M 36.718750,36.125000 C 36.017299,36.097841 35.514958,36.205065 35.343750,36.562500 C 34.658917,37.992242 35.040930,50.274454 34.562500,50.281250 C 33.443327,50.295965 31.092905,50.395402 30.406250,50.937500 C 29.719594,51.479596 29.281250,52.235878 29.281250,53.062500 C 29.281250,53.889123 29.719594,54.614155 30.406250,55.156250 C 31.092905,55.698346 32.015444,56.031251 33.062500,56.031250 C 34.109555,56.031250 35.063344,55.698347 35.750000,55.156250 C 36.436655,54.614154 36.875001,52.670371 36.875000,51.843750 C 36.875000,51.430439 37.048805,44.291202 37.156250,41.187500 C 37.209973,39.635649 42.028351,41.903305 45.483512,40.750000 C 45.307093,44.855494 45.530678,50.276375 45.187500,50.281250 C 44.068327,50.295965 41.717903,50.395402 41.031250,50.937500 C 40.344594,51.479596 39.906250,52.235878 39.906250,53.062500 C 39.906250,53.889123 40.344592,54.614155 41.031250,55.156250 C 41.717905,55.698346 42.671694,56.031251 43.718750,56.031250 C 44.765805,56.031250 45.688344,55.698347 46.375000,55.156250 C 47.061655,54.614154 47.500001,52.670371 47.500000,51.843750 C 47.500000,51.430439 47.508959,44.414475 47.884636,41.331772 C 48.170400,38.914737 49.526322,35.164276 46.228386,36.372658 C 43.217125,37.476000 38.823102,36.206478 36.718750,36.125000 z "
       id="path1217"
       sodipodi:nodetypes="ccccccccccccccccccssc"
       transform="translate(4.328167,-1.154178)" />
    <path
       style="font-size:12.000000;fill-opacity:1.00000000;stroke-width:1.0000000pt;"
       id="path1218"
       d="M 34.340968,41.503501 C 34.339260,41.503299 34.337552,41.503098 34.335844,41.502896 L 34.335844,40.160997 C 34.337552,40.160796 34.339260,40.160594 34.340968,40.160392 L 34.340968,41.503501 z "
       transform="translate(4.328167,-1.154178)" />
    <path
       style="font-size:12.000000;fill:url(#linearGradient654);fill-rule:evenodd;stroke-width:1.0000000pt;"
       d="M 31.495146,51.540450 C 30.337742,51.978326 30.272239,52.583398 30.230790,53.520306 C 30.671573,53.160079 30.492121,52.314908 32.027796,52.022954 C 34.633312,51.499244 35.528639,52.232627 35.671646,51.224285 C 36.161145,47.186399 35.925009,42.170366 36.337305,38.495424 C 36.434839,37.772002 36.475173,37.889484 37.729574,37.902052 C 39.935115,37.852014 46.453114,38.155551 46.555886,37.380435 C 41.999024,38.088665 37.186990,36.888945 36.021140,36.964743 C 35.621256,40.783372 35.663003,47.942169 35.471979,50.658613 C 35.384567,51.939718 33.532376,50.801177 31.495146,51.540450 z "
       id="path1219"
       sodipodi:nodetypes="ccssssccss"
       transform="translate(4.328167,-1.154178)" />
    <path
       style="font-size:12.000000;fill:url(#linearGradient654);fill-rule:evenodd;stroke-width:1.0000000pt;"
       d="M 42.125067,51.540450 C 40.967663,51.978326 40.902160,52.583398 40.860711,53.520306 C 41.301494,53.160079 41.122042,52.314908 42.657717,52.022954 C 45.263233,51.499244 46.432928,52.242636 46.445839,51.224285 C 46.502522,46.681446 46.563163,42.914703 46.606546,41.380869 C 46.550472,40.812999 46.734868,40.423614 46.434653,40.355141 C 46.179041,41.865414 46.292924,47.942169 46.101900,50.658613 C 46.014488,51.939718 44.162297,50.801177 42.125067,51.540450 z "
       id="path1220"
       sodipodi:nodetypes="ccssscss"
       transform="translate(4.328167,-1.154178)" />
  </g>
</svg>
