<?xml version="1.0" encoding="UTF-8" standalone="no"?>
<!DOCTYPE svg PUBLIC "-//W3C//DTD SVG 20010904//EN"
"http://www.w3.org/TR/2001/REC-SVG-20010904/DTD/svg10.dtd">
<!-- Created with Inkscape (http://www.inkscape.org/) -->
<svg
   version="1.0"
   x="0"
   y="0"
   width="24.000000pt"
   height="24.000000pt"
   id="svg1"
   sodipodi:version="0.32"
   inkscape:version="0.37"
   sodipodi:docname="emblem-cvs-added.svg"
   sodipodi:docbase="/home/stefan/software/Lila-themes"
   xmlns="http://www.w3.org/2000/svg"
   xmlns:inkscape="http://www.inkscape.org/namespaces/inkscape"
   xmlns:sodipodi="http://sodipodi.sourceforge.net/DTD/sodipodi-0.dtd"
   xmlns:xlink="http://www.w3.org/1999/xlink">
  <sodipodi:namedview
     id="base"
     pagecolor="#ffffff"
     bordercolor="#666666"
     borderopacity="1.0"
     inkscape:pageopacity="0.0"
     inkscape:pageshadow="2"
     inkscape:zoom="27.8576180"
     inkscape:cx="22.8015554"
     inkscape:cy="9.37193456"
     inkscape:window-width="1269"
     inkscape:window-height="970"
     inkscape:window-x="0"
     inkscape:window-y="0"
     showgrid="false"
     snaptogrid="false"
     gridspacingx="1pt"
     gridspacingy="1pt"
     gridtolerance="1px" />
  <defs
     id="defs3">
    <linearGradient
       id="linearGradient1809">
      <stop
         style="stop-color:#d9cce6;stop-opacity:1.0000000;"
         offset="0.0000000"
         id="stop1810" />
      <stop
         style="stop-color:#ffffff;stop-opacity:1.0000000;"
         offset="1.0000000"
         id="stop1811" />
    </linearGradient>
    <linearGradient
       id="linearGradient570">
      <stop
         style="stop-color:#ffffff;stop-opacity:1;"
         offset="0"
         id="stop571" />
      <stop
         style="stop-color:#ffffff;stop-opacity:0;"
         offset="1"
         id="stop572" />
    </linearGradient>
    <linearGradient
       id="linearGradient563">
      <stop
         style="stop-color:#d9cce6;stop-opacity:1.0000000;"
         offset="0.0000000"
         id="stop564" />
      <stop
         style="stop-color:#73667f;stop-opacity:1.0000000;"
         offset="1.0000000"
         id="stop565" />
    </linearGradient>
    <linearGradient
       id="linearGradient566"
       xlink:href="#linearGradient1809"
       x1="-0.00000000"
       y1="0.00000000"
       x2="0.99616855"
       y2="0.99173552" />
    <linearGradient
       id="linearGradient569"
       xlink:href="#linearGradient570"
       x1="0.00303951"
       y1="0.00826446"
       x2="1.00303948"
       y2="0.99586779" />
    <linearGradient
       id="linearGradient573"
       xlink:href="#linearGradient570"
       x1="0.00289855"
       y1="0.00769231"
       x2="0.99420291"
       y2="1.00000000" />
    <linearGradient
       id="linearGradient578"
       xlink:href="#linearGradient570"
       x1="0.00338983"
       y1="0.01239669"
       x2="0.98644066"
       y2="0.99173552" />
    <radialGradient
       xlink:href="#linearGradient1809"
       id="radialGradient1812"
       cx="0.96874994"
       cy="0.96093750"
       r="1.3589708"
       fx="0.96874994"
       fy="0.96093750" />
    <linearGradient
       xlink:href="#linearGradient1809"
       id="linearGradient630"
       x1="-0.00000000"
       y1="-0.00000000"
       x2="0.99616855"
       y2="0.99173552" />
    <linearGradient
       xlink:href="#linearGradient563"
       id="linearGradient631"
       x1="-0.00000000"
       y1="-0.00000000"
       x2="0.99221790"
       y2="0.99586779" />
  </defs>
  <path
     style="font-size:12;fill:#000000;fill-opacity:1;fill-rule:evenodd;stroke:none;stroke-width:1pt;stroke-opacity:1;opacity:0.300000;"
     d="M 7.2166938 12.59183 C 9.4772629 10.163434 24.821084 12.537396 25.690382 15.223769 C 26.620181 18.097109 15.910873 29.740676 12.613985 29.27097 C 9.7529776 28.863364 5.1184638 14.845834 7.2166938 12.59183 z "
     id="path634"
     sodipodi:nodetypes="csss" />
  <path
     style="font-size:12;fill:url(#linearGradient566);fill-opacity:0.75;fill-rule:evenodd;stroke:#261933;stroke-width:1pt;stroke-opacity:1;"
     d="M 5.7038933 10.164901 C 7.9644624 7.7365063 23.308284 10.110468 24.177582 12.796841 C 25.107381 15.670181 14.398073 27.313748 11.101184 26.844042 C 8.2401771 26.436436 3.6056633 12.418906 5.7038933 10.164901 z "
     id="path632"
     sodipodi:nodetypes="csss" />
  <path
     style="font-size:12;fill:#000000;fill-opacity:1;fill-rule:evenodd;stroke:none;stroke-width:1pt;stroke-opacity:1;opacity:0.300000;"
     d="M 7.8792227 7.2320454 C 10.140109 4.8036498 25.486087 7.1776115 26.355507 9.8639848 C 27.285436 12.737324 16.574624 24.380891 13.277272 23.911184 C 10.415862 23.503578 5.7806979 9.4860496 7.8792227 7.2320454 z "
     id="path633"
     sodipodi:nodetypes="csss" />
  <path
     style="font-size:12;fill:url(#linearGradient630);fill-opacity:0.75;fill-rule:evenodd;stroke:#261933;stroke-width:1.00007pt;"
     d="M 6.2286631 5.3463291 C 8.4895498 2.9179335 23.835527 5.2918952 24.704947 7.9782684 C 25.634876 10.851608 14.924065 22.495175 11.626713 22.025469 C 8.7653032 21.617862 4.1301383 7.6003333 6.2286631 5.3463291 z "
     id="path628"
     sodipodi:nodetypes="csss" />
  <path
     style="font-size:12;fill:#000000;fill-opacity:1;fill-rule:evenodd;stroke:none;stroke-width:0.812799;opacity:0.300000;"
     d="M 13.870353 7.9670546 C 14.781892 7.3834823 13.981211 4.3640861 14.894757 3.783055 C 15.806569 3.2031266 18.760588 3.6647288 19.346418 4.4841754 C 19.934296 5.3064902 17.827978 7.8760799 18.415886 8.7083398 C 19.002275 9.5384483 22.350159 8.6021062 22.869305 9.4712817 C 23.468619 10.474671 22.764121 13.638086 21.77127 14.326034 C 20.901252 14.928873 18.203545 12.809635 17.280691 13.343641 C 16.375257 13.867565 17.183736 16.966507 16.286404 17.499819 C 15.396777 18.02855 12.487125 17.387355 11.919817 16.529768 C 11.341773 15.655952 13.42816 13.189016 12.850349 12.305604 C 12.282224 11.437007 9.0571476 12.125563 8.4820013 11.273734 C 7.9235944 10.446701 8.5677847 7.810222 9.4496892 7.2690221 C 10.363904 6.7079946 12.966867 8.54547 13.870353 7.9670546 z "
     id="path655"
     sodipodi:nodetypes="cssssssssssss" />
  <path
     style="fill:url(#linearGradient578);fill-rule:evenodd;stroke:none;stroke-opacity:1;stroke-width:1pt;stroke-linejoin:miter;stroke-linecap:butt;fill-opacity:0.75;"
     d="M 7.7892231 13.979612 C 7.4819972 13.722751 5.5346497 7.0653463 6.9053397 5.8313111 C 8.5822061 4.3216246 16.627503 5.4939581 16.931892 5.748447 C 17.189138 5.9635212 10.282454 5.7164981 8.5902425 7.2400004 C 7.2348982 8.4602198 8.0436315 14.192314 7.7892231 13.979612 z "
     id="path670"
     sodipodi:nodetypes="cssss" />
  <path
     style="font-size:12;fill:url(#linearGradient631);fill-opacity:0.75;fill-rule:evenodd;stroke:#261933;stroke-width:0.8125;stroke-dasharray:none;"
     d="M 12.794738 6.4880844 C 13.706277 5.9045115 12.905596 2.8851157 13.819142 2.3040846 C 14.730953 1.7241564 17.684974 2.1857585 18.270802 3.005205 C 18.858683 3.82752 16.752363 6.39711 17.340272 7.2293693 C 17.926659 8.0594791 21.274544 7.1231369 21.793691 7.9923112 C 22.393003 8.9957016 21.688506 12.159116 20.695654 12.847064 C 19.825635 13.449902 17.12793 11.330667 16.205075 11.864672 C 15.299642 12.388594 16.108121 15.487537 15.210789 16.02085 C 14.321162 16.549581 11.41151 15.908386 10.8442 15.050799 C 10.266157 14.176983 12.352545 11.710048 11.774734 10.826634 C 11.206609 9.9580384 7.9815326 10.646594 7.4063865 9.7947654 C 6.8479796 8.9677318 7.4921699 6.3312515 8.3740749 5.7900518 C 9.2882887 5.2290242 11.891253 7.0665007 12.794738 6.4880844 z "
     id="path629"
     sodipodi:nodetypes="cssssssssssss" />
  <path
     style="fill:url(#linearGradient569);fill-rule:evenodd;stroke:none;stroke-opacity:1;stroke-width:1pt;stroke-linejoin:miter;stroke-linecap:butt;fill-opacity:0.75;"
     d="M 7.7952216 9.3732192 C 7.7089191 9.1740597 8.1076467 6.7839145 8.7346155 6.4506608 C 9.3949639 6.0996647 11.775165 7.6776762 12.879446 7.0919815 C 13.582974 6.7281515 12.377997 7.8225801 10.502932 7.5546316 C 9.9455894 7.4581865 9.2548908 7.5191079 8.9085773 7.7031848 C 8.3138872 8.0192808 7.859686 9.5219826 7.7952216 9.3732192 z "
     id="path668"
     sodipodi:nodetypes="csssss" />
  <path
     style="fill:url(#linearGradient573);fill-rule:evenodd;stroke:none;stroke-opacity:1;stroke-width:1pt;stroke-linejoin:miter;stroke-linecap:butt;fill-opacity:0.75;"
     d="M 13.881755 5.0738862 C 13.819139 4.9556133 13.909193 2.9166818 14.23181 2.7974624 C 15.5031 2.3405298 17.343182 3.0072099 17.397914 3.1105937 C 17.447558 3.2043667 15.674724 2.9812067 14.544941 3.3889326 C 14.288471 3.4844306 13.923516 5.1527699 13.881755 5.0738862 z "
     id="path669"
     sodipodi:nodetypes="cssss" />
</svg>
