<?xml version="1.0" encoding="UTF-8" standalone="no"?>
<!DOCTYPE svg PUBLIC "-//W3C//DTD SVG 20010904//EN"
"http://www.w3.org/TR/2001/REC-SVG-20010904/DTD/svg10.dtd">
<!-- Created with Inkscape (http://www.inkscape.org/) -->
<svg
   id="svg1"
   sodipodi:version="0.32"
   inkscape:version="0.38.1"
   width="24pt"
   height="24pt"
   sodipodi:docbase="/home/dan/svg-icons/lila/gnome/scalable/emblems"
   sodipodi:docname="emblem-noread.svg"
   xmlns="http://www.w3.org/2000/svg"
   xmlns:inkscape="http://www.inkscape.org/namespaces/inkscape"
   xmlns:sodipodi="http://sodipodi.sourceforge.net/DTD/sodipodi-0.dtd"
   xmlns:xlink="http://www.w3.org/1999/xlink">
  <defs
     id="defs3">
    <linearGradient
       id="linearGradient914">
      <stop
         style="stop-color:#ffffff;stop-opacity:1;"
         offset="0.00000000"
         id="stop915" />
      <stop
         style="stop-color:#7f7f7f;stop-opacity:1;"
         offset="1.00000000"
         id="stop916" />
    </linearGradient>
    <linearGradient
       id="linearGradient584">
      <stop
         style="stop-color:#ffffff;stop-opacity:1;"
         offset="0.00000000"
         id="stop585" />
      <stop
         style="stop-color:#ffffff;stop-opacity:0;"
         offset="1.00000000"
         id="stop586" />
    </linearGradient>
    <linearGradient
       id="linearGradient578">
      <stop
         style="stop-color:#f50000;stop-opacity:1;"
         offset="0.00000000"
         id="stop579" />
      <stop
         style="stop-color:#a90000;stop-opacity:1;"
         offset="1.00000000"
         id="stop580" />
    </linearGradient>
    <linearGradient
       xlink:href="#linearGradient584"
       id="linearGradient581"
       x1="-0.00000000"
       y1="0.00000000"
       x2="0.98684210"
       y2="0.99218750" />
    <linearGradient
       xlink:href="#linearGradient584"
       id="linearGradient583"
       x1="0.02307692"
       y1="0.01562500"
       x2="0.99230766"
       y2="1.00781250" />
    <linearGradient
       xlink:href="#linearGradient914"
       id="linearGradient599"
       x1="0.00000000"
       y1="0.00000000"
       x2="0.98684210"
       y2="0.99218750" />
    <linearGradient
       xlink:href="#linearGradient584"
       id="linearGradient600"
       x1="-0.00000000"
       y1="0.01562500"
       x2="1.00000000"
       y2="1.00781250" />
    <radialGradient
       xlink:href="#linearGradient578"
       id="radialGradient917"
       cx="0.23076925"
       cy="0.28125000"
       r="0.67854416"
       fx="0.23076928"
       fy="0.27343750" />
    <linearGradient
       xlink:href="#linearGradient584"
       id="linearGradient922"
       x1="0.02307692"
       y1="0.01562500"
       x2="0.99230766"
       y2="1.00781250" />
    <radialGradient
       xlink:href="#linearGradient914"
       id="radialGradient924" />
  </defs>
  <sodipodi:namedview
     id="base"
     pagecolor="#ffffff"
     bordercolor="#666666"
     borderopacity="1.0"
     inkscape:pageopacity="0.0"
     inkscape:pageshadow="2"
     inkscape:zoom="15.958944"
     inkscape:cx="12.184047"
     inkscape:cy="11.824376"
     inkscape:window-width="667"
     inkscape:window-height="552"
     inkscape:window-x="142"
     inkscape:window-y="330" />
  <path
     style="font-size:12;opacity:0.3;fill-rule:evenodd;stroke-width:2.07367;"
     d="M 28.718397 15.773485 C 28.718397 23.015506 22.840815 28.893088 15.598794 28.893088 C 8.3567728 28.893088 2.4791918 23.015506 2.4791918 15.773485 C 2.4791918 8.5314645 8.3567728 2.6538835 15.598794 2.6538835 C 22.840815 2.6538835 28.718397 8.5314645 28.718397 15.773485 z "
     id="path952" />
  <path
     style="font-size:12;fill:url(#radialGradient917);fill-rule:evenodd;stroke:#330000;stroke-width:1.0625000;stroke-dasharray:none;"
     d="M 27.073563 15.107722 C 27.073563 21.636352 21.774965 26.934951 15.246334 26.934951 C 8.7177038 26.934951 3.4191048 21.636352 3.4191048 15.107722 C 3.4191048 8.5790915 8.7177038 3.2804935 15.246334 3.2804935 C 21.774965 3.2804935 27.073563 8.5790915 27.073563 15.107722 z "
     id="path951" />
  <path
     style="fill:url(#linearGradient581);fill-rule:evenodd;stroke:none;stroke-opacity:1;stroke-width:1pt;stroke-linejoin:miter;stroke-linecap:butt;fill-opacity:1;opacity:0.800000;"
     d="M 5.6947728 20.274365 C 5.0864388 19.377816 1.9952198 10.858598 9.4609418 5.8743085 C 15.892267 1.4698355 22.809995 6.8615155 23.52869 8.4220105 C 23.712034 8.8483625 17.57928 3.8834735 11.011717 8.4220105 C 3.7047918 13.558113 5.9356728 20.670129 5.6947728 20.274365 z "
     id="path918"
     sodipodi:nodetypes="cssss" />
  <path
     style="font-size:12;fill:url(#linearGradient599);fill-rule:evenodd;stroke:#261933;stroke-width:1.0625000;stroke-dasharray:none;"
     d="M 7.7488118 14.543805 C 11.856043 13.904975 18.760469 13.810052 22.886894 14.543805 C 23.809306 14.720407 23.817344 16.789319 22.886894 16.932159 C 18.699288 17.518734 11.794889 17.629004 7.7488118 17.011772 C 6.8100278 16.819222 6.8100158 14.741292 7.7488118 14.543805 z "
     id="path657"
     sodipodi:nodetypes="cssss" />
  <path
     style="fill:url(#linearGradient583);fill-rule:evenodd;stroke:none;stroke-opacity:1;stroke-width:1pt;stroke-linejoin:miter;stroke-linecap:butt;fill-opacity:1;"
     d="M 7.7708558 16.158104 C 7.6904468 16.073528 7.6100838 15.206977 7.9543568 15.144812 C 12.783713 14.216427 22.133877 14.899767 22.206287 14.975926 C 22.276601 15.049884 12.850114 14.886519 8.3825258 15.595161 C 8.1018628 15.636143 7.8331708 16.223645 7.7708558 16.158104 z "
     id="path658"
     sodipodi:nodetypes="cssss" />
</svg>
