<?xml version="1.0" encoding="UTF-8" standalone="no"?>
<!DOCTYPE svg PUBLIC "-//W3C//DTD SVG 20010904//EN"
"http://www.w3.org/TR/2001/REC-SVG-20010904/DTD/svg10.dtd">
<!-- Created with Inkscape (http://www.inkscape.org/) -->
<svg
   version="1.0"
   x="0"
   y="0"
   width="24.000000pt"
   height="24.000000pt"
   id="svg1"
   sodipodi:version="0.32"
   inkscape:version="0.39"
   sodipodi:docname="emblem-urgent2.svg"
   sodipodi:docbase="/home/scaba/files/lila/work/lila-gnome/Lila/scalable/emblems"
   xmlns="http://www.w3.org/2000/svg"
   xmlns:inkscape="http://www.inkscape.org/namespaces/inkscape"
   xmlns:sodipodi="http://sodipodi.sourceforge.net/DTD/sodipodi-0.dtd"
   xmlns:xlink="http://www.w3.org/1999/xlink"
   xmlns:rdf="http://www.w3.org/1999/02/22-rdf-syntax-ns#"
   xmlns:cc="http://web.resource.org/cc/"
   xmlns:dc="http://purl.org/dc/elements/1.1/">
  <sodipodi:namedview
     id="base"
     pagecolor="#ffffff"
     bordercolor="#666666"
     borderopacity="1.0"
     inkscape:pageopacity="0.0"
     inkscape:pageshadow="2"
     inkscape:zoom="13.893067"
     inkscape:cx="18.544477"
     inkscape:cy="11.985807"
     inkscape:window-width="640"
     inkscape:window-height="526"
     inkscape:window-x="329"
     inkscape:window-y="44" />
  <defs
     id="defs3">
    <linearGradient
       id="linearGradient570">
      <stop
         style="stop-color:#ffffff;stop-opacity:1;"
         offset="0"
         id="stop571" />
      <stop
         style="stop-color:#ffffff;stop-opacity:0;"
         offset="1"
         id="stop572" />
    </linearGradient>
    <linearGradient
       id="linearGradient563">
      <stop
         style="stop-color:#d9cce6;stop-opacity:1;"
         offset="0"
         id="stop564" />
      <stop
         style="stop-color:#73667f;stop-opacity:1;"
         offset="1"
         id="stop565" />
    </linearGradient>
    <linearGradient
       x1="0.00000000"
       y1="0.00000000"
       x2="0.98461539"
       y2="0.99218750"
       id="linearGradient566"
       xlink:href="#linearGradient563" />
    <linearGradient
       x1="0.97692311"
       y1="0.99218750"
       x2="0.01538463"
       y2="0.00781249"
       id="linearGradient569"
       xlink:href="#linearGradient570" />
    <linearGradient
       x1="0.00000000"
       y1="-0.00000000"
       x2="0.99285716"
       y2="0.97656250"
       id="linearGradient573"
       xlink:href="#linearGradient570" />
    <linearGradient
       x1="0.00000000"
       y1="-0.00000000"
       x2="0.97826087"
       y2="0.99218750"
       id="linearGradient575"
       xlink:href="#linearGradient570" />
    <linearGradient
       x1="0.00000000"
       y1="0.00000000"
       x2="1.00000000"
       y2="0.00000000"
       id="linearGradient578"
       xlink:href="#linearGradient563" />
  </defs>
  <g
     transform="matrix(0.500000,0.000000,0.000000,0.500000,-0.494447,-0.173407)"
     style="font-size:12.000000;opacity:0.29999998;stroke:#000000;"
     id="g677">
    <ellipse
       cx="47.595680"
       cy="41.555550"
       rx="28.881311"
       ry="28.881311"
       transform="matrix(0.917566,0.000000,0.000000,0.917566,-11.48724,-5.833475)"
       style="fill-rule:evenodd;stroke-width:2.0541799;"
       id="path675"
       d="M 76.476992 41.555550 A 28.881311 28.881311 0 1 0 18.714369,41.555550 A 28.881311 28.881311 0 1 0 76.476992 41.555550 z"
       sodipodi:cx="47.595680"
       sodipodi:cy="41.555550"
       sodipodi:rx="28.881311"
       sodipodi:ry="28.881311" />
    <ellipse
       cx="42.107330"
       cy="34.267742"
       rx="21.773449"
       ry="21.773449"
       transform="matrix(0.934849,0.000000,0.000000,0.934849,-7.035911,0.205833)"
       style="fill-rule:evenodd;stroke-width:1.0000000pt;"
       id="path676"
       d="M 63.880779 34.267742 A 21.773449 21.773449 0 1 0 20.333881,34.267742 A 21.773449 21.773449 0 1 0 63.880779 34.267742 z"
       sodipodi:cx="42.107330"
       sodipodi:cy="34.267742"
       sodipodi:rx="21.773449"
       sodipodi:ry="21.773449" />
  </g>
  <ellipse
     cx="47.595680"
     cy="41.555550"
     rx="28.881311"
     ry="28.881311"
     transform="matrix(0.458783,0.000000,0.000000,0.458783,-6.749466,-3.942477)"
     style="font-size:12.000000;fill:url(#linearGradient566);fill-opacity:1.00000000;fill-rule:evenodd;stroke:#261933;stroke-width:2.0434501;"
     id="path594"
     d="M 76.476992 41.555550 A 28.881311 28.881311 0 1 0 18.714369,41.555550 A 28.881311 28.881311 0 1 0 76.476992 41.555550 z"
     sodipodi:cx="47.595680"
     sodipodi:cy="41.555550"
     sodipodi:rx="28.881311"
     sodipodi:ry="28.881311" />
  <ellipse
     cx="42.107330"
     cy="34.267742"
     rx="21.773449"
     ry="21.773449"
     transform="matrix(0.467425,0.000000,0.000000,0.467425,-4.523797,-0.922817)"
     style="font-size:12.000000;fill:url(#linearGradient569);fill-opacity:1.00000000;fill-rule:evenodd;stroke:none;stroke-width:1.0000000pt;stroke-opacity:1.0000000;"
     id="path623"
     d="M 63.880779 34.267742 A 21.773449 21.773449 0 1 0 20.333881,34.267742 A 21.773449 21.773449 0 1 0 63.880779 34.267742 z"
     sodipodi:cx="42.107330"
     sodipodi:cy="34.267742"
     sodipodi:rx="21.773449"
     sodipodi:ry="21.773449" />
  <path
     d="M 14.753942,15.875922 C 14.481794,15.737303 14.028653,15.042053 14.236564,14.756186 L 17.520579,10.240853 L 15.799363,15.552200 C 15.699747,15.859595 15.002726,16.002641 14.753942,15.875922 z "
     style="font-size:12.000000;fill:url(#linearGradient578);fill-opacity:1.00000000;fill-rule:evenodd;stroke:#261933;stroke-width:0.81264502;"
     id="path597" />
  <path
     d="M 15.854283,15.616952 C 15.678864,15.866968 14.814834,16.139466 14.466399,15.827172 L 8.9627789,10.894406 L 15.473737,14.391468 C 15.850560,14.593861 16.014643,15.388400 15.854283,15.616952 z "
     style="font-size:12.000000;fill:url(#linearGradient578);fill-opacity:1.00000000;fill-rule:evenodd;stroke:#261933;stroke-width:0.93750000;"
     id="path598" />
  <path
     d="M 25.649969,18.875949 C 24.996123,20.445179 23.841629,22.125174 22.603815,23.283641 C 21.441629,24.371327 20.080738,25.075949 18.542276,25.637487 C 20.249969,25.575949 22.190390,25.004884 23.388430,23.883641 C 24.590390,22.758730 25.557661,20.783641 25.649969,18.875949 z "
     style="font-size:12.000000;fill:url(#linearGradient575);fill-opacity:1.00000000;fill-rule:evenodd;stroke-width:1.0000000pt;"
     id="path596" />
  <path
     d="M 3.7672089,16.075658 C 3.8619129,12.647394 5.4338629,8.6129060 7.6311089,6.4727310 C 9.8091613,4.3512530 13.919416,3.4422220 17.745434,3.8020950 C 14.563399,4.8722440 11.121860,6.0816350 8.8243719,8.3194480 C 6.7465619,10.343289 4.7331839,13.225085 3.7672089,16.075658 z "
     style="font-size:12.000000;fill:url(#linearGradient573);fill-opacity:1.00000000;fill-rule:evenodd;stroke-width:1.0000000pt;"
     id="path593" />
  <metadata
     id="metadata1658">
    <rdf:RDF
       id="RDF1659">
      <cc:Work
         rdf:about=""
         id="Work1660">
        <dc:format
           id="format1661">image/svg+xml</dc:format>
        <dc:type
           id="type1663"
           rdf:resource="http://purl.org/dc/dcmitype/StillImage" />
      </cc:Work>
    </rdf:RDF>
  </metadata>
</svg>
