<?xml version="1.0" encoding="UTF-8" standalone="no"?>
<!DOCTYPE svg PUBLIC "-//W3C//DTD SVG 20010904//EN"
"http://www.w3.org/TR/2001/REC-SVG-20010904/DTD/svg10.dtd">
<!-- Created with Inkscape (http://www.inkscape.org/) -->
<svg
   id="svg1"
   sodipodi:version="0.32"
   inkscape:version="0.38.1"
   width="24.000000pt"
   height="24.000000pt"
   sodipodi:docbase="/home/dan/svg-icons/lila/gnome/scalable/emblems"
   sodipodi:docname="emblem-favorite.svg"
   xmlns="http://www.w3.org/2000/svg"
   xmlns:inkscape="http://www.inkscape.org/namespaces/inkscape"
   xmlns:sodipodi="http://sodipodi.sourceforge.net/DTD/sodipodi-0.dtd"
   xmlns:xlink="http://www.w3.org/1999/xlink">
  <defs
     id="defs3">
    <linearGradient
       id="linearGradient866">
      <stop
         style="stop-color:#ffffff;stop-opacity:1;"
         offset="0.00000000"
         id="stop867" />
      <stop
         style="stop-color:#d9cce6;stop-opacity:1;"
         offset="1.00000000"
         id="stop868" />
    </linearGradient>
    <linearGradient
       id="linearGradient584">
      <stop
         style="stop-color:#ffffff;stop-opacity:1;"
         offset="0.00000000"
         id="stop585" />
      <stop
         style="stop-color:#ffffff;stop-opacity:0;"
         offset="1.00000000"
         id="stop586" />
    </linearGradient>
    <linearGradient
       id="linearGradient578">
      <stop
         style="stop-color:#d9cce6;stop-opacity:1;"
         offset="0.00000000"
         id="stop579" />
      <stop
         style="stop-color:#73667f;stop-opacity:1;"
         offset="1.00000000"
         id="stop580" />
    </linearGradient>
    <linearGradient
       xlink:href="#linearGradient584"
       id="linearGradient581"
       x1="0.010948900"
       y1="0.010309280"
       x2="0.68695652"
       y2="0.72656250" />
    <linearGradient
       xlink:href="#linearGradient584"
       id="linearGradient583"
       x1="0.01094890"
       y1="0.01030928"
       x2="1.01459849"
       y2="0.96907216" />
    <linearGradient
       xlink:href="#linearGradient584"
       id="linearGradient860"
       x1="0.010948900"
       y1="0.010309280"
       x2="0.83277589"
       y2="0.71875000" />
    <linearGradient
       xlink:href="#linearGradient578"
       id="linearGradient861"
       x1="0.00000000"
       y1="0.02325581"
       x2="0.98611110"
       y2="0.97674417" />
    <linearGradient
       xlink:href="#linearGradient578"
       id="linearGradient862"
       x1="-0.00000000"
       y1="0.00775194"
       x2="1.00000000"
       y2="0.99224806" />
    <linearGradient
       xlink:href="#linearGradient578"
       id="linearGradient869"
       x1="-0.00684932"
       y1="0.00775194"
       x2="0.97945207"
       y2="1.00000000" />
  </defs>
  <sodipodi:namedview
     id="base"
     pagecolor="#ffffff"
     bordercolor="#666666"
     borderopacity="1.0"
     inkscape:pageopacity="0.0"
     inkscape:pageshadow="2"
     inkscape:zoom="15.958944"
     inkscape:cx="12.882328"
     inkscape:cy="12.067810"
     inkscape:window-width="640"
     inkscape:window-height="525"
     inkscape:window-x="204"
     inkscape:window-y="142" />
  <path
     d="M 13.249998,9.5632160 C 19.844967,8.3714292 24.737516,4.4371841 26.095556,5.5445205 C 26.463067,5.8608373 21.330210,8.7416647 18.201667,9.7785800 C 17.144027,10.129068 12.934591,9.6196090 13.249998,9.5632160 z "
     style="font-size:12;opacity:0.699936;fill:url(#linearGradient583);fill-rule:evenodd;stroke:none;stroke-width:1pt;"
     id="path568" />
  <path
     d="M 15.818669,8.7986176 C 14.340630,5.7437387 11.719801,3.8584489 8.2826961,3.6440029 C 3.8654249,3.8776536 2.2234976,8.1770235 2.7583106,12.921950 C 4.8249355,21.792101 9.1227190,24.702912 15.760499,29.451650 C 23.126985,24.654256 27.446036,21.917570 29.370670,13.054459 C 29.279365,8.3357814 28.535030,3.9512735 23.219544,3.7438741 C 18.793520,3.7579455 16.925165,5.7213340 15.818669,8.7986176 z "
     style="font-size:12;fill-opacity:0.30000001;fill-rule:evenodd;stroke-width:1.875;stroke-opacity:0.25;fill:#000000;"
     id="path623" />
  <path
     d="M 14.910045,7.1923681 C 13.432005,4.1374885 10.811177,2.2521994 7.3740717,2.0377535 C 2.9568005,2.2714042 1.3148732,6.5707734 1.8496861,11.315701 C 3.9163118,20.185852 8.2140951,23.096663 14.851875,27.845402 C 22.218360,23.048008 26.537411,20.311321 28.462046,11.448209 C 29.031555,6.7295324 27.626406,2.3450241 22.310920,2.1376246 C 17.884895,2.1516961 16.016540,4.1150843 14.910045,7.1923681 z "
     style="font-size:12.000000;fill:url(#linearGradient869);fill-rule:evenodd;stroke:#261933;stroke-width:1.0625000;stroke-dasharray:none;stroke-linecap:round;stroke-linejoin:round;"
     id="path618" />
  <path
     d="M 7.9457236,2.9496994 C 6.4203385,3.0396589 4.3177584,3.7597324 3.4465284,6.0944752 C 2.3938384,8.7532171 2.5724985,11.254431 3.4053137,13.479968 C 3.4107831,11.115467 4.2682750,8.2198852 5.5463084,6.2722741 C 6.7830958,5.0900227 8.0579662,4.3177487 12.081905,5.1004150 C 10.334053,3.2847229 9.1797432,3.1322435 7.9457236,2.9496994 z "
     style="font-size:12;fill:url(#linearGradient581);fill-opacity:0.75;fill-rule:evenodd;stroke-width:1pt;"
     id="path619" />
  <path
     d="M 14.981644,7.6096257 C 14.981644,13.717486 14.887618,21.690603 14.887618,27.798463 C 19.150402,24.753816 20.761489,24.511362 24.262413,20.408513 C 25.894968,18.756235 27.793016,14.402712 28.391620,11.803624 C 28.101388,9.9656950 28.453386,6.2297733 25.877576,3.2779502 C 22.122700,2.0897951 18.377472,0.55794048 14.981644,7.6096257 z "
     style="font-size:12;fill:#261e2e;fill-opacity:0.20000000;fill-rule:evenodd;stroke-width:1pt;"
     id="path622" />
  <path
     d="M 26.421230,14.990644 C 24.179846,20.037118 23.285853,20.271364 21.798414,22.007185 C 19.657953,23.900806 18.388542,24.841702 15.921571,26.289767 C 18.189008,24.396145 19.057125,23.511306 20.649845,22.007730 C 22.828452,19.494003 23.916469,19.005947 26.421230,14.990644 z "
     style="font-size:12;fill:url(#linearGradient612);fill-opacity:0.75;fill-rule:evenodd;stroke-width:1pt;"
     id="path620" />
  <path
     d="M 21.860145,3.0499862 C 20.334760,3.1399457 16.664356,4.2611673 15.891116,7.5987799 C 18.659992,5.1428846 19.505546,4.9104137 21.126541,4.3668208 C 22.804277,4.0871531 23.687193,4.1171746 26.486271,5.0502711 C 24.738419,3.2345791 23.290142,2.9818124 21.860145,3.0499862 z "
     style="font-size:12;fill:url(#linearGradient860);fill-opacity:0.75;fill-rule:evenodd;stroke-width:1pt;"
     id="path591" />
</svg>
