<?xml version="1.0" encoding="UTF-8" standalone="no"?>
<!DOCTYPE svg PUBLIC "-//W3C//DTD SVG 20010904//EN"
"http://www.w3.org/TR/2001/REC-SVG-20010904/DTD/svg10.dtd">
<!-- Created with Inkscape (http://www.inkscape.org/) -->
<svg
   version="1.0"
   x="0"
   y="0"
   width="24.000000pt"
   height="24.000000pt"
   id="svg1"
   sodipodi:version="0.32"
   inkscape:version="0.38.1"
   sodipodi:docname="emblem-package.svg"
   sodipodi:docbase="/home/dan/svg-icons/lila/gnome/scalable/emblems"
   xmlns="http://www.w3.org/2000/svg"
   xmlns:inkscape="http://www.inkscape.org/namespaces/inkscape"
   xmlns:sodipodi="http://sodipodi.sourceforge.net/DTD/sodipodi-0.dtd"
   xmlns:xml="http://www.w3.org/XML/1998/namespace"
   xmlns:xlink="http://www.w3.org/1999/xlink">
  <sodipodi:namedview
     id="base"
     pagecolor="#ffffff"
     bordercolor="#666666"
     borderopacity="1.0"
     inkscape:pageopacity="0.0"
     inkscape:pageshadow="2"
     inkscape:zoom="11.280000"
     inkscape:cx="12.050629"
     inkscape:cy="11.243098"
     inkscape:window-width="640"
     inkscape:window-height="525"
     inkscape:window-x="37"
     inkscape:window-y="408"
     showguides="true"
     snaptoguides="true" />
  <defs
     id="defs3">
    <linearGradient
       id="linearGradient570">
      <stop
         style="stop-color:#ffffff;stop-opacity:1;"
         offset="0"
         id="stop571" />
      <stop
         style="stop-color:#ffffff;stop-opacity:0;"
         offset="1"
         id="stop572" />
    </linearGradient>
    <linearGradient
       id="linearGradient563">
      <stop
         style="stop-color:#d9cce6;stop-opacity:1;"
         offset="0.00000000"
         id="stop564" />
      <stop
         style="stop-color:#73667f;stop-opacity:1;"
         offset="1.00000000"
         id="stop565" />
    </linearGradient>
    <linearGradient
       x1="0.01973684"
       y1="0.00000000"
       x2="0.98026317"
       y2="0.96875000"
       id="linearGradient566"
       xlink:href="#linearGradient563" />
    <linearGradient
       x1="0.007275"
       y1="0.062497"
       x2="1.003636"
       y2="0.968750"
       id="linearGradient569"
       xlink:href="#linearGradient570" />
    <linearGradient
       x1="0.017698999"
       y1="0.0078110001"
       x2="0.59649122"
       y2="0.66406250"
       id="linearGradient573"
       xlink:href="#linearGradient570" />
    <linearGradient
       x1="0.040004998"
       y1="0.015624000"
       x2="0.71052629"
       y2="0.68750000"
       id="linearGradient575"
       xlink:href="#linearGradient570" />
    <linearGradient
       id="linearGradient578"
       xlink:href="#linearGradient570" />
  </defs>
  <path
     d="M 2.3875867,24.632209 C 2.9926051,25.242791 16.505248,28.651634 17.366438,28.464061 C 18.117833,28.370058 28.982973,23.463756 29.419211,22.960197 C 30.026452,22.162331 29.908484,7.9105203 29.349553,7.2846033 C 28.727968,6.4893951 15.279868,4.8942123 14.370646,4.9158367 C 13.543533,4.9988922 2.6216890,7.3686043 2.1786017,7.9812943 C 1.8531554,8.4825203 1.7806958,24.090015 2.3875867,24.632209 z "
     style="font-size:12;opacity:0.302675;fill-rule:evenodd;stroke-width:12.5;"
     id="path1168" />
  <path
     d="M 2.2260438,23.395667 C 2.8052112,23.980163 15.740491,27.243358 16.564886,27.063803 C 17.284175,26.973810 27.685083,22.277138 28.102681,21.795095 C 28.683977,21.031315 28.571049,7.3884453 28.035999,6.7892709 C 27.440972,6.0280397 14.567468,4.5010187 13.697093,4.5217150 C 12.905322,4.6012296 2.4501431,6.8696772 2.0259726,7.4561923 C 1.7144307,7.9360003 1.6450671,22.876637 2.2260438,23.395667 z "
     style="font-size:12.000000;fill:url(#linearGradient566);fill-rule:evenodd;stroke:#261933;stroke-width:1.0625000;stroke-dasharray:none;"
     id="path1164" />
  <path
     d="M 2.7595884,22.862167 C 2.5217053,22.505338 2.5238271,8.7974222 3.0063301,8.3698642 C 3.3370240,8.0844592 15.261798,9.8365633 15.497819,10.190617 C 15.706379,10.503485 6.5392420,8.7353490 4.4969094,10.684072 C 2.8523620,12.250161 2.9663280,23.172260 2.7595884,22.862167 z "
     style="font-size:12;opacity:0.990000;fill:url(#linearGradient573);fill-rule:evenodd;stroke:none;stroke-width:0.105861pt;"
     id="path1165"
     sodipodi:nodetypes="ccccc" />
  <path
     d="M 16.898401,25.729951 C 16.715225,25.569661 16.412204,10.647918 16.764984,10.257301 C 17.146341,9.8278873 26.784373,7.7615553 26.968932,7.9230713 C 27.140028,8.0727743 19.133514,9.8166552 18.302202,11.347722 C 17.015399,13.637199 17.070878,25.880880 16.898401,25.729951 z "
     style="font-size:12;opacity:0.990000;fill:url(#linearGradient575);fill-rule:evenodd;stroke:none;stroke-width:0.105861pt;"
     id="path1166"
     sodipodi:nodetypes="ccccc" />
  <path
     d="M 4.8937270,7.3228243 C 4.8937270,7.1884013 12.911868,5.2697461 13.963927,5.2553749 C 14.822540,5.2427607 23.434217,6.3219684 23.434217,6.4558054 C 23.434217,6.5886958 17.028762,6.0653901 13.885569,6.2123816 C 10.848599,6.3544174 4.8937270,7.4551833 4.8937270,7.3228243 z "
     style="font-size:12;opacity:0.990000;fill:url(#linearGradient569);fill-rule:evenodd;stroke:none;stroke-width:0.105861pt;"
     id="path1167"
     sodipodi:nodetypes="ccccc" />
</svg>
