<?xml version="1.0" encoding="UTF-8" standalone="no"?>
<!DOCTYPE svg PUBLIC "-//W3C//DTD SVG 20010904//EN"
"http://www.w3.org/TR/2001/REC-SVG-20010904/DTD/svg10.dtd">
<!-- Created with Inkscape (http://www.inkscape.org/) -->
<svg
   version="1.0"
   x="0"
   y="0"
   width="24.000000pt"
   height="24.000000pt"
   id="svg1"
   sodipodi:version="0.32"
   inkscape:version="0.38.1"
   sodipodi:docname="emblem-camera.svg"
   sodipodi:docbase="/home/dan/svg-icons/lila/gnome/scalable/emblems"
   xmlns="http://www.w3.org/2000/svg"
   xmlns:inkscape="http://www.inkscape.org/namespaces/inkscape"
   xmlns:sodipodi="http://sodipodi.sourceforge.net/DTD/sodipodi-0.dtd"
   xmlns:xlink="http://www.w3.org/1999/xlink">
  <sodipodi:namedview
     id="base"
     pagecolor="#ffffff"
     bordercolor="#666666"
     borderopacity="1.0"
     inkscape:pageopacity="0.0"
     inkscape:pageshadow="2"
     inkscape:zoom="12.853933"
     inkscape:cx="12.289415"
     inkscape:cy="11.645186"
     inkscape:window-width="621"
     inkscape:window-height="617"
     inkscape:window-x="79"
     inkscape:window-y="231" />
  <defs
     id="defs3">
    <linearGradient
       id="linearGradient856">
      <stop
         style="stop-color:#ffffff;stop-opacity:1.0000000;"
         offset="0.0000000"
         id="stop857" />
      <stop
         style="stop-color:#0000ff;stop-opacity:1.0000000;"
         offset="0.50000000"
         id="stop859" />
      <stop
         style="stop-color:#ffffff;stop-opacity:1.0000000;"
         offset="1.0000000"
         id="stop858" />
    </linearGradient>
    <linearGradient
       id="linearGradient1816">
      <stop
         style="stop-color:#ffffff;stop-opacity:1;"
         offset="0"
         id="stop1817" />
      <stop
         style="stop-color:#ffffff;stop-opacity:0;"
         offset="1"
         id="stop1818" />
    </linearGradient>
    <linearGradient
       id="linearGradient1809">
      <stop
         style="stop-color:#d9cce6;stop-opacity:1.0000000;"
         offset="0.0000000"
         id="stop1810" />
      <stop
         style="stop-color:#ffffff;stop-opacity:1.0000000;"
         offset="1.0000000"
         id="stop1811" />
    </linearGradient>
    <linearGradient
       id="linearGradient570">
      <stop
         style="stop-color:#ffffff;stop-opacity:1;"
         offset="0"
         id="stop571" />
      <stop
         style="stop-color:#ffffff;stop-opacity:0;"
         offset="1"
         id="stop572" />
    </linearGradient>
    <linearGradient
       id="linearGradient563">
      <stop
         style="stop-color:#d9cce6;stop-opacity:1.0000000;"
         offset="0.0000000"
         id="stop564" />
      <stop
         style="stop-color:#73667f;stop-opacity:1.0000000;"
         offset="1.0000000"
         id="stop565" />
    </linearGradient>
    <linearGradient
       id="linearGradient566"
       xlink:href="#linearGradient563"
       x1="0.016853932"
       y1="0.031250000"
       x2="0.98314607"
       y2="0.98437500" />
    <linearGradient
       id="linearGradient569"
       xlink:href="#linearGradient570"
       x1="0.62345684"
       y1="-0.023437612"
       x2="0.59876549"
       y2="0.88281262" />
    <linearGradient
       id="linearGradient573"
       xlink:href="#linearGradient1809"
       x1="0.98058254"
       y1="0.96093750"
       x2="-0.0097087380"
       y2="1.0169816e-16" />
    <linearGradient
       id="linearGradient575"
       xlink:href="#linearGradient1816"
       x1="0.019480519"
       y1="0.0078125000"
       x2="0.77272725"
       y2="0.73437500" />
    <linearGradient
       id="linearGradient578"
       xlink:href="#linearGradient570"
       x1="0.0073529412"
       y1="0.0078125000"
       x2="0.60740739"
       y2="0.67968750" />
    <radialGradient
       xlink:href="#linearGradient1809"
       id="radialGradient1812"
       cx="0.96874994"
       cy="0.96093750"
       r="1.3589708"
       fx="0.96874994"
       fy="0.96093750" />
    <radialGradient
       xlink:href="#linearGradient856"
       id="radialGradient1813" />
    <linearGradient
       xlink:href="#linearGradient1816"
       id="linearGradient1165"
       x1="-2.6264798e-17"
       y1="-1.9268712e-15"
       x2="0.54347825"
       y2="0.64062500" />
    <linearGradient
       xlink:href="#linearGradient1816"
       id="linearGradient1167"
       x1="0.0032894737"
       y1="-0.025000000"
       x2="0.98684210"
       y2="0.92500001" />
  </defs>
  <path
     style="fill:#000000;fill-opacity:0.30000001;fill-rule:evenodd;stroke:none;stroke-width:2.0000000;"
     d="M 4.3019611,8.3702428 C 2.1983144,8.3702428 2.0355408,9.8451095 2.0355408,11.948756 L 2.0355408,22.286311 C 2.0355408,24.389958 3.7290903,26.083508 5.8327373,26.083508 L 25.682974,26.083508 C 27.786621,26.083508 29.480171,24.389958 29.480171,22.286311 L 29.480171,10.417980 C 29.480171,8.3143338 27.786621,6.6207848 25.682974,6.6207848 C 23.103543,6.6207848 18.204635,6.4661528 17.944679,6.6207848 C 17.425846,6.8538048 18.453330,8.5944858 17.857181,8.4795838 L 8.8243172,8.3749328 L 8.8374105,6.6853068 L 4.3275255,6.6579718 L 4.3019611,8.3702428 z "
     id="path853"
     sodipodi:nodetypes="cccccccccccccc" />
  <path
     style="fill:url(#linearGradient566);fill-opacity:1.00000000;fill-rule:evenodd;stroke:#261933;stroke-width:1.0625000;stroke-dasharray:none;"
     d="M 3.6888566,7.4364128 C 1.6459955,7.4364128 1.4879256,8.8686638 1.4879256,10.911524 L 1.4879256,20.950372 C 1.4879256,22.993234 3.1325394,24.637847 5.1754004,24.637847 L 24.452058,24.637847 C 26.494920,24.637847 28.139533,22.993234 28.139533,20.950372 L 28.139533,9.4249808 C 28.139533,7.3821198 26.494920,5.7375061 24.452058,5.7375061 C 21.947160,5.7375061 17.189808,5.5873425 16.937364,5.7375061 C 16.433522,5.9637935 16.968721,7.5880908 16.389798,7.4765098 L 8.0805374,7.4409678 L 8.0932525,5.8001637 L 3.7136823,5.7736183 L 3.6888566,7.4364128 z "
     id="path851"
     sodipodi:nodetypes="cccccccccccccc" />
  <path
     sodipodi:type="arc"
     style="fill:url(#radialGradient1812);fill-opacity:1.00000000;fill-rule:evenodd;stroke:#261933;stroke-width:1.6390541;stroke-opacity:1.0000000;stroke-dasharray:none;"
     id="path852"
     sodipodi:cx="34.882812"
     sodipodi:cy="26.210938"
     sodipodi:rx="15.820312"
     sodipodi:ry="15.820312"
     d="M 50.703124 26.210938 A 15.820312 15.820312 0 1 0 19.062501,26.210938 A 15.820312 15.820312 0 1 0 50.703124 26.210937 z"
     transform="matrix(0.457581,0.000000,0.000000,0.457581,2.681068,3.980771)" />
  <path
     sodipodi:type="arc"
     style="fill:#000000;fill-opacity:1.0000000;fill-rule:evenodd;stroke:#261933;stroke-width:2.2298732;stroke-opacity:1.0000000;stroke-dasharray:none;"
     id="path854"
     sodipodi:cx="34.882812"
     sodipodi:cy="26.210938"
     sodipodi:rx="15.820312"
     sodipodi:ry="15.820312"
     d="M 50.703124 26.210938 A 15.820312 15.820312 0 1 0 19.062501,26.210938 A 15.820312 15.820312 0 1 0 50.703124 26.210937 z"
     transform="matrix(0.267795,0.000000,0.000000,0.267795,9.462499,9.029384)" />
  <path
     sodipodi:type="arc"
     style="fill:url(#linearGradient569);fill-opacity:1.00000000;fill-rule:evenodd;stroke:none;stroke-width:1.0000000pt;"
     id="path860"
     sodipodi:cx="35.189610"
     sodipodi:cy="26.357185"
     sodipodi:rx="5.4690289"
     sodipodi:ry="4.3641748"
     d="M 40.658638 26.357185 A 5.4690289 4.3641748 0 1 0 29.720581,26.357185 A 5.4690289 4.3641748 0 1 0 40.658638 26.357185 z"
     transform="matrix(0.601461,0.000000,0.000000,0.601461,-2.396918,-0.797067)" />
  <rect
     style="fill:url(#linearGradient573);fill-opacity:1.00000000;fill-rule:evenodd;stroke:#261933;stroke-width:0.75000000;stroke-dasharray:none;"
     id="rect862"
     width="5.6276302"
     height="3.2916329"
     ry="0.64220071"
     x="3.9301050"
     y="9.6662290" />
  <path
     style="fill:url(#linearGradient575);fill-rule:evenodd;stroke:none;stroke-opacity:1;stroke-width:1pt;stroke-linejoin:miter;stroke-linecap:butt;fill-opacity:1;"
     d="M 12.585771,19.045117 C 10.867557,14.419159 13.532991,11.324172 15.361345,10.123627 C 17.189700,8.9230808 21.881743,8.8900388 23.555899,11.841840 C 21.000608,10.145656 17.916637,10.310868 16.088282,11.511414 C 14.259927,12.711960 12.431572,14.220903 12.585771,19.045117 z "
     id="path1162"
     sodipodi:nodetypes="czczc" />
  <path
     style="fill:url(#linearGradient578);fill-rule:evenodd;stroke:none;stroke-opacity:1;stroke-width:1pt;stroke-linejoin:miter;stroke-linecap:butt;fill-opacity:1;"
     d="M 4.5233857,12.304435 C 4.4462863,12.205307 4.3306374,10.415502 4.5894708,10.255797 C 4.8317829,10.112613 8.8739889,10.156670 8.9510884,10.255797 C 9.0281879,10.354924 5.2613362,10.476081 4.9694602,10.718392 C 4.6610630,10.977226 4.6004850,12.403563 4.5233857,12.304435 z "
     id="path1163"
     sodipodi:nodetypes="czzzz" />
  <path
     style="fill:url(#linearGradient1165);fill-rule:evenodd;stroke:none;stroke-opacity:1;stroke-width:1pt;stroke-linejoin:miter;stroke-linecap:butt;fill-opacity:1;"
     d="M 2.2104067,21.358096 C 2.1205547,21.268244 2.0475678,9.8843845 2.6069174,8.7688818 C 3.0264486,7.9981138 3.9850767,8.4438178 4.3581729,8.1080308 C 4.6459279,7.8490518 4.4156055,6.9061008 4.7216410,6.6872018 C 4.9566794,6.4954498 7.1697334,6.4678428 7.2659179,6.5880738 C 7.3459606,6.6881268 6.0408621,6.4382838 5.2172794,7.2489248 C 4.9194963,7.5418328 5.2171082,8.5542478 4.9198964,8.8019248 C 4.5562570,9.1049578 3.3886589,8.6038068 3.2677685,9.1323498 C 2.4414389,12.745140 2.2967816,21.444471 2.2104067,21.358096 z "
     id="path1164"
     sodipodi:nodetypes="cssssssss" />
  <path
     style="fill:url(#linearGradient1167);fill-rule:evenodd;stroke:none;stroke-opacity:1;stroke-width:1pt;stroke-linejoin:miter;stroke-linecap:butt;fill-opacity:1;"
     d="M 7.7111724,8.1398938 C 7.6800196,8.0775878 16.395022,8.2878698 17.010291,8.0464348 C 17.578829,7.8050008 17.142690,6.8158988 17.524312,6.5510998 C 17.952663,6.2863007 25.039930,6.4109118 25.094448,6.5043708 C 25.148965,6.5978288 18.342073,6.8314758 17.898146,6.9716628 C 17.407489,7.1118508 17.773535,8.3190228 17.243936,8.4669978 C 16.761068,8.6149738 7.7423253,8.2021998 7.7111724,8.1398938 z "
     id="path1166"
     sodipodi:nodetypes="czzzzzz" />
</svg>
