<?xml version="1.0" encoding="UTF-8" standalone="no"?>
<!DOCTYPE svg PUBLIC "-//W3C//DTD SVG 20010904//EN"
"http://www.w3.org/TR/2001/REC-SVG-20010904/DTD/svg10.dtd">
<!-- Created with Inkscape (http://www.inkscape.org/) -->
<svg
   id="svg1"
   sodipodi:version="0.32"
   inkscape:version="0.38.1"
   width="24.000000pt"
   height="24.000000pt"
   sodipodi:docbase="/home/dan/svg-icons/lila/gnome/scalable/emblems"
   sodipodi:docname="emblem-ok.svg"
   xmlns="http://www.w3.org/2000/svg"
   xmlns:inkscape="http://www.inkscape.org/namespaces/inkscape"
   xmlns:sodipodi="http://sodipodi.sourceforge.net/DTD/sodipodi-0.dtd"
   xmlns:xlink="http://www.w3.org/1999/xlink">
  <defs
     id="defs3">
    <linearGradient
       id="linearGradient878">
      <stop
         offset="0.0000000"
         style="stop-color:#d9cce6;stop-opacity:1.0000000;"
         id="stop880" />
      <stop
         offset="1.0000000"
         style="stop-color:#73667f;stop-opacity:1.0000000;"
         id="stop879" />
    </linearGradient>
    <linearGradient
       id="linearGradient841">
      <stop
         style="stop-color:#ffffff;stop-opacity:1.0000000;"
         offset="0.0000000"
         id="stop842" />
      <stop
         style="stop-color:#d9cce6;stop-opacity:1.0000000;"
         offset="1.0000000"
         id="stop843" />
    </linearGradient>
    <linearGradient
       id="linearGradient832">
      <stop
         style="stop-color:#ffffff;stop-opacity:1.0000000;"
         offset="0.0000000"
         id="stop833" />
      <stop
         style="stop-color:#ffffff;stop-opacity:0.0000000;"
         offset="1.0000000"
         id="stop834" />
    </linearGradient>
    <linearGradient
       id="linearGradient826">
      <stop
         style="stop-color:#d9cce6;stop-opacity:1.0000000;"
         offset="0.0000000"
         id="stop827" />
      <stop
         style="stop-color:#73667f;stop-opacity:1.0000000;"
         offset="1.0000000"
         id="stop828" />
    </linearGradient>
    <linearGradient
       xlink:href="#linearGradient832"
       id="linearGradient829"
       x1="-0.22666667"
       y1="-0.15503876"
       x2="0.57333332"
       y2="0.69767439" />
    <radialGradient
       xlink:href="#linearGradient826"
       id="radialGradient830"
       cx="0.29999998"
       cy="0.25581393"
       r="0.78461540"
       fx="0.29999998"
       fy="0.25968978"
       spreadMethod="pad"
       gradientUnits="objectBoundingBox" />
    <radialGradient
       xlink:href="#linearGradient841"
       id="radialGradient836"
       cx="0.29999998"
       cy="0.25581393"
       r="0.78461540"
       fx="0.29999998"
       fy="0.25968978" />
    <defs
       id="defs845">
      <linearGradient
         id="linearGradient584">
        <stop
           style="stop-color:#ffffff;stop-opacity:1;"
           offset="0.00000000"
           id="stop585" />
        <stop
           style="stop-color:#ffffff;stop-opacity:0;"
           offset="1.00000000"
           id="stop586" />
      </linearGradient>
      <linearGradient
         id="linearGradient578"
         x1="0.0000000"
         y1="0.50000000"
         x2="1.0000000"
         y2="0.50000000"
         gradientUnits="objectBoundingBox"
         spreadMethod="pad"
         xlink:href="#linearGradient878" />
      <linearGradient
         xlink:href="#linearGradient578"
         id="linearGradient581"
         x1="0.00877193"
         y1="0.02857143"
         x2="0.99122804"
         y2="0.97142857" />
      <linearGradient
         xlink:href="#linearGradient584"
         id="linearGradient583"
         x1="0.01298701"
         y1="0.00714286"
         x2="0.97402596"
         y2="0.99285716" />
    </defs>
    <sodipodi:namedview
       id="namedview854"
       pagecolor="#ffffff"
       bordercolor="#666666"
       borderopacity="1.0"
       inkscape:pageopacity="0.0"
       inkscape:pageshadow="2"
       inkscape:zoom="7.97947193"
       inkscape:cx="29.4003546"
       inkscape:cy="24.0932681"
       inkscape:window-width="640"
       inkscape:window-height="516"
       inkscape:window-x="99"
       inkscape:window-y="57" />
  </defs>
  <sodipodi:namedview
     id="base"
     pagecolor="#ffffff"
     bordercolor="#666666"
     borderopacity="1.0"
     inkscape:pageopacity="0.0"
     inkscape:pageshadow="2"
     inkscape:zoom="13.893067"
     inkscape:cx="12.046903"
     inkscape:cy="12.064924"
     inkscape:window-width="640"
     inkscape:window-height="525"
     showguides="true"
     snaptoguides="true"
     inkscape:window-x="38"
     inkscape:window-y="64" />
  <path
     style="fill-opacity:0.29999998;fill-rule:evenodd;stroke-width:1.8750000;"
     d="M 29.794540,15.653326 C 29.794540,23.478738 23.443481,29.829796 15.618070,29.829796 C 7.7926573,29.829796 1.4415987,23.478738 1.4415987,15.653326 C 1.4415987,7.8279135 7.7926573,1.4768551 15.618070,1.4768551 C 23.443481,1.4768551 29.794540,7.8279135 29.794540,15.653326 z "
     id="path837" />
  <path
     style="fill:url(#radialGradient830);fill-rule:evenodd;stroke:#261933;stroke-width:1.0625000;stroke-dasharray:none;"
     d="M 28.470097,14.623203 C 28.470097,22.069529 22.426702,28.112925 14.980375,28.112925 C 7.5340483,28.112925 1.4906522,22.069529 1.4906522,14.623203 C 1.4906522,7.1768755 7.5340483,1.1334800 14.980375,1.1334800 C 22.426702,1.1334800 28.470097,7.1768755 28.470097,14.623203 z "
     id="path838" />
  <path
     style="fill:url(#radialGradient836);fill-rule:evenodd;stroke:none;stroke-width:1.8750000;"
     d="M 24.914189,14.672255 C 24.914189,20.128643 20.485817,24.557015 15.029429,24.557015 C 9.5730407,24.557015 5.1446680,20.128643 5.1446680,14.672255 C 5.1446680,9.2158678 9.5730407,4.7874945 15.029429,4.7874945 C 20.485817,4.7874945 24.914189,9.2158678 24.914189,14.672255 z "
     id="path840" />
  <path
     style="fill:url(#linearGradient829);fill-rule:evenodd;stroke:none;stroke-opacity:1;stroke-width:1pt;stroke-linejoin:miter;stroke-linecap:butt;fill-opacity:1;"
     d="M 5.0225064,22.520822 C 2.1774011,19.724770 0.11715249,8.7204265 9.0448963,3.9785839 C 18.070748,-0.76325810 23.859066,5.0087079 26.213635,8.7858305 C 23.859066,6.3822073 17.972641,1.9837404 10.222181,6.6274751 C 2.4717225,11.369317 3.7471146,19.626663 5.0225064,22.520822 z "
     id="path831"
     sodipodi:nodetypes="czczc" />
  <rect
     style="font-size:12.000000;fill:#0000ff;fill-rule:evenodd;stroke-width:1.0000000pt;"
     id="rect575"
     width="0.00000000"
     height="0.00000000"
     x="45.09817461"
     y="50.32653810"
     transform="matrix(0.272814,0.000000,0.000000,0.272814,6.445367,7.026498)" />
  <path
     style="font-size:12.000000;fill:url(#linearGradient581);fill-rule:evenodd;stroke:#261933;stroke-width:2.2909381;stroke-dasharray:none;"
     d="M 10.340109 26.082887 C 10.891522 30.393933 23.364795 57.512153 28.518632 54.846374 C 36.711045 50.608917 50.872194 9.2300067 50.378882 5.3731804 C 50.028467 2.6335801 36.220146 32.660508 27.137984 37.358177 C 22.873886 39.563744 10.047794 23.797508 10.340109 26.082887 z "
     id="path577"
     sodipodi:nodetypes="cssss"
     transform="matrix(0.272814,0.000000,0.000000,0.272814,6.445367,7.026498)" />
  <path
     style="fill:url(#linearGradient583);fill-rule:evenodd;stroke-width:1.0000000pt;"
     d="M 14.712159 33.906557 C 14.113418 33.090092 12.885742 30.312623 13.56162 30.685047 C 16.64417 32.383593 22.281671 41.450943 25.987446 40.11947 C 34.579544 37.345142 42.123329 20.197608 46.467047 14.347388 C 47.384505 13.063137 45.154151 19.734481 44.396079 21.250624 C 44.233711 21.575345 44.228779 20.182095 43.935865 20.560299 C 38.169275 28.005764 35.189521 40.822459 26.217553 44.721628 C 23.11052 46.025689 19.593428 37.427248 16.092808 34.136666 C 15.758296 33.822226 14.957147 34.24063 14.712159 33.906557 z "
     id="path582"
     sodipodi:nodetypes="cssssssss"
     transform="matrix(0.272814,0.000000,0.000000,0.272814,6.445367,7.026498)" />
</svg>
