<?xml version="1.0" encoding="UTF-8" standalone="no"?>
<!DOCTYPE svg PUBLIC "-//W3C//DTD SVG 20010904//EN"
"http://www.w3.org/TR/2001/REC-SVG-20010904/DTD/svg10.dtd">
<!-- Created with Inkscape (http://www.inkscape.org/) -->
<svg
   id="svg1"
   sodipodi:version="0.32"
   inkscape:version="0.38.1"
   width="24.000000pt"
   height="24.000000pt"
   sodipodi:docbase="/home/dan/svg-icons/lila/gnome/scalable/emblems"
   sodipodi:docname="emblem-documents.svg"
   xmlns="http://www.w3.org/2000/svg"
   xmlns:inkscape="http://www.inkscape.org/namespaces/inkscape"
   xmlns:sodipodi="http://sodipodi.sourceforge.net/DTD/sodipodi-0.dtd"
   xmlns:xlink="http://www.w3.org/1999/xlink">
  <defs
     id="defs3">
    <linearGradient
       id="linearGradient866">
      <stop
         style="stop-color:#ffffff;stop-opacity:1;"
         offset="0.00000000"
         id="stop867" />
      <stop
         style="stop-color:#d9cce6;stop-opacity:1;"
         offset="1.00000000"
         id="stop868" />
    </linearGradient>
    <linearGradient
       id="linearGradient584">
      <stop
         style="stop-color:#ffffff;stop-opacity:1;"
         offset="0.00000000"
         id="stop585" />
      <stop
         style="stop-color:#ffffff;stop-opacity:0;"
         offset="1.00000000"
         id="stop586" />
    </linearGradient>
    <linearGradient
       xlink:href="#linearGradient866"
       id="linearGradient586"
       x1="-0.00000000"
       y1="0.01562500"
       x2="0.99122804"
       y2="0.98437500" />
    <linearGradient
       xlink:href="#linearGradient584"
       id="linearGradient587"
       x1="0.00000000"
       y1="-0.00000000"
       x2="1.00000000"
       y2="1.00000000" />
  </defs>
  <sodipodi:namedview
     id="base"
     pagecolor="#ffffff"
     bordercolor="#666666"
     borderopacity="1.0"
     inkscape:pageopacity="0.0"
     inkscape:pageshadow="2"
     inkscape:zoom="11.284677"
     inkscape:cx="11.738981"
     inkscape:cy="11.658546"
     inkscape:window-width="640"
     inkscape:window-height="525"
     inkscape:window-x="78"
     inkscape:window-y="82" />
  <path
     d="M 8.8982156,19.825788 C 9.2161936,20.775771 22.383893,25.047370 23.248448,24.330554 C 24.022317,23.682181 29.812812,4.3833177 29.425099,3.6179412 C 29.022083,2.7741152 15.662545,0.67228963 15.028425,1.2494431 C 14.247325,1.9645368 8.5642596,18.735806 8.8982156,19.825788 z "
     style="font-size:12;opacity:0.302675;fill-rule:evenodd;stroke-width:12.5;"
     id="path588" />
  <path
     d="M 9.0376816,19.039522 C 9.3351886,19.928303 21.654568,23.924714 22.463421,23.254076 C 23.187436,22.647474 28.604890,4.5919048 28.242156,3.8758214 C 27.865104,3.0863576 15.366230,1.1199536 14.772961,1.6599249 C 14.042183,2.3289497 8.7252386,18.019760 9.0376816,19.039522 z "
     style="font-size:12.000000;fill:url(#linearGradient586);fill-rule:evenodd;stroke:#261933;stroke-width:1.0625000;stroke-dasharray:none;"
     id="path589" />
  <path
     d="M 9.8758526,18.206988 C 9.7472826,17.881266 14.855798,2.7367091 15.333387,2.4243888 C 15.930273,2.0170462 25.579352,3.8202747 25.707620,4.1452325 C 25.825187,4.4430668 18.179367,3.0523335 16.478347,4.5738506 C 13.215941,7.4100385 9.9931176,18.504073 9.8758526,18.206988 z "
     style="font-size:12;opacity:0.699936;fill:url(#linearGradient587);fill-rule:evenodd;stroke-width:0.100121pt;"
     id="path590" />
  <path
     d="M 5.1557619,22.490131 C 5.4737390,23.440113 18.641439,27.711713 19.505994,26.994897 C 20.279862,26.346523 26.070357,7.0476604 25.682643,6.2822839 C 25.279629,5.4384577 11.920090,3.3366321 11.285970,3.9137856 C 10.504870,4.6288793 4.8218055,21.400148 5.1557619,22.490131 z "
     style="font-size:12;opacity:0.302675;fill-rule:evenodd;stroke-width:12.5;"
     id="path591" />
  <path
     d="M 5.2010278,21.703865 C 5.4985352,22.592646 17.817914,26.589056 18.626768,25.918418 C 19.350782,25.311816 24.768237,7.2562472 24.405502,6.5401639 C 24.028450,5.7507001 11.529577,3.7842961 10.936308,4.3242674 C 10.205530,4.9932923 4.8885855,20.684103 5.2010278,21.703865 z "
     style="font-size:12.000000;fill:url(#linearGradient586);fill-rule:evenodd;stroke:#261933;stroke-width:1.0625000;stroke-dasharray:none;"
     id="path592" />
  <path
     d="M 6.0391991,20.871331 C 5.9106291,20.545608 11.019144,5.4010518 11.496733,5.0887312 C 12.093620,4.6813886 21.742699,6.4846171 21.870966,6.8095753 C 21.988534,7.1074095 14.342713,5.7166762 12.641695,7.2381928 C 9.3792876,10.074381 6.1564644,21.168416 6.0391991,20.871331 z "
     style="font-size:12;opacity:0.699936;fill:url(#linearGradient587);fill-rule:evenodd;stroke-width:0.100121pt;"
     id="path593" />
  <path
     d="M 1.1059628,25.154471 C 1.4239400,26.104455 14.591640,30.376054 15.456195,29.659238 C 16.230064,29.010865 22.020558,9.7120019 21.632845,8.9466249 C 21.229830,8.1027989 7.8702916,6.0009728 7.2361712,6.5781270 C 6.4550707,7.2932202 0.77200659,24.064490 1.1059628,25.154471 z "
     style="font-size:12;opacity:0.302675;fill-rule:evenodd;stroke-width:12.5;"
     id="path639" />
  <path
     d="M 1.1512290,24.368206 C 1.4487362,25.256987 13.768115,29.253397 14.576970,28.582759 C 15.300983,27.976157 20.718438,9.9205889 20.355704,9.2045049 C 19.978652,8.4150409 7.4797776,6.4486373 6.8865084,6.9886088 C 6.1557306,7.6576334 0.83878639,23.348444 1.1512290,24.368206 z "
     style="font-size:12.000000;fill:url(#linearGradient586);fill-rule:evenodd;stroke:#261933;stroke-width:1.0625000;stroke-dasharray:none;"
     id="path634" />
  <path
     d="M 1.9893999,23.535672 C 1.8608304,23.209950 6.9693449,8.0653929 7.4469345,7.7530729 C 8.0438206,7.3457303 17.692900,9.1489579 17.821168,9.4739159 C 17.938735,9.7717509 10.292915,8.3810169 8.5918956,9.9025349 C 5.3294890,12.738722 2.1066655,23.832757 1.9893999,23.535672 z "
     style="font-size:12;opacity:0.699936;fill:url(#linearGradient587);fill-rule:evenodd;stroke-width:0.100121pt;"
     id="path640" />
  <path
     style="font-size:12;opacity:0.498153;fill:#261933;fill-rule:evenodd;stroke-width:1pt;"
     d="M 7.7755990,9.6600169 C 10.996432,9.9867679 14.816489,10.607358 17.798344,11.393273 C 18.056924,11.461427 17.771029,12.250032 17.496908,12.222222 C 14.304516,11.898357 10.411679,11.132338 7.3988039,10.338248 C 7.1712420,10.278270 7.5299185,9.6350929 7.7755990,9.6600169 z "
     id="path602"
     sodipodi:nodetypes="cssss" />
  <path
     style="font-size:12;opacity:0.498153;fill:#261933;fill-rule:evenodd;stroke-width:1pt;"
     d="M 12.146420,13.051171 C 11.684776,13.500551 10.120541,18.420544 10.413163,18.929171 C 10.649539,19.038594 14.619322,20.423030 15.085420,19.984197 C 15.612285,19.563511 17.217574,14.314528 16.969395,13.804760 C 16.754683,13.439093 12.571592,12.695375 12.146420,13.051171 z "
     id="path604"
     sodipodi:nodetypes="cssss" />
  <path
     style="font-size:12;opacity:0.498153;fill:#261933;fill-rule:evenodd;stroke-width:1pt;"
     d="M 4.5537741,19.294287 C 7.7463994,19.830639 11.517784,20.699328 14.441962,21.678262 C 14.695540,21.763153 14.358764,22.531409 14.087044,22.485760 C 10.922610,21.954144 7.0880953,20.935585 4.1334991,19.946468 C 3.9103389,19.871760 4.3102450,19.253375 4.5537741,19.294287 z "
     id="path605"
     sodipodi:nodetypes="cssss" />
  <path
     style="font-size:12;opacity:0.498153;fill:#261933;fill-rule:evenodd;stroke-width:1pt;"
     d="M 3.7907143,21.898568 C 6.9599764,22.559104 10.694588,23.574309 13.578335,24.666612 C 13.828408,24.761334 13.461907,25.515862 13.192175,25.459645 C 10.050898,24.804942 6.2590543,23.637518 3.3453082,22.533851 C 3.1252334,22.450492 3.5489673,21.848183 3.7907143,21.898568 z "
     id="path606"
     sodipodi:nodetypes="cssss" />
  <path
     style="font-size:12;opacity:0.498153;fill:#261933;fill-rule:evenodd;stroke-width:1pt;"
     d="M 6.9824071,12.208455 C 8.5266766,12.412399 9.8274466,12.696304 11.250112,13.117605 C 11.373482,13.154139 11.087092,13.833106 10.955661,13.815748 C 9.4250266,13.613604 8.0161026,13.339355 6.5786377,12.913672 C 6.4700666,12.881519 6.8646126,12.192899 6.9824071,12.208455 z "
     id="path607"
     sodipodi:nodetypes="cssss" />
  <path
     style="font-size:12;opacity:0.498153;fill:#261933;fill-rule:evenodd;stroke-width:1pt;"
     d="M 6.0780990,14.318507 C 7.6223689,14.522451 8.9231376,14.806355 10.345803,15.227657 C 10.469174,15.264190 10.182784,15.943157 10.051353,15.925800 C 8.5207186,15.723656 7.1117943,15.449406 5.6743296,15.023723 C 5.5657585,14.991571 5.9603045,14.302950 6.0780990,14.318507 z "
     id="path608"
     sodipodi:nodetypes="cssss" />
</svg>
