<?xml version="1.0" encoding="UTF-8" standalone="no"?>
<!DOCTYPE svg PUBLIC "-//W3C//DTD SVG 20010904//EN"
"http://www.w3.org/TR/2001/REC-SVG-20010904/DTD/svg10.dtd">
<!-- Created with Sodipodi ("http://www.sodipodi.com/") -->
<svg
   id="svg1"
   sodipodi:version="0.32"
   inkscape:version="0.39"
   width="24.000000pt"
   height="24.000000pt"
   sodipodi:docbase="/home/scaba/files/lila/work/lila-gnome/Lila/scalable/emblems"
   sodipodi:docname="emblem-symbolic-link.svg"
   xmlns="http://www.w3.org/2000/svg"
   xmlns:inkscape="http://www.inkscape.org/namespaces/inkscape"
   xmlns:sodipodi="http://sodipodi.sourceforge.net/DTD/sodipodi-0.dtd"
   xmlns:xlink="http://www.w3.org/1999/xlink"
   xmlns:rdf="http://www.w3.org/1999/02/22-rdf-syntax-ns#"
   xmlns:cc="http://web.resource.org/cc/"
   xmlns:dc="http://purl.org/dc/elements/1.1/">
  <defs
     id="defs3">
    <linearGradient
       id="linearGradient969">
      <stop
         style="stop-color:#7f7f7f;stop-opacity:1;"
         offset="0.000000"
         id="stop970" />
      <stop
         style="stop-color:#e6e6e6;stop-opacity:1;"
         offset="1.000000"
         id="stop971" />
    </linearGradient>
    <linearGradient
       id="linearGradient964">
      <stop
         style="stop-color:#ffff32;stop-opacity:1;"
         offset="0.000000"
         id="stop965" />
      <stop
         style="stop-color:#ffc500;stop-opacity:1;"
         offset="1.000000"
         id="stop966" />
    </linearGradient>
    <linearGradient
       id="linearGradient884">
      <stop
         style="stop-color:#7fff7f;stop-opacity:1.0000000;"
         offset="0.0000000"
         id="stop885" />
      <stop
         style="stop-color:#3fbf3f;stop-opacity:1.0000000;"
         offset="1.0000000"
         id="stop886" />
    </linearGradient>
    <linearGradient
       id="linearGradient866">
      <stop
         style="stop-color:#ffffff;stop-opacity:1;"
         offset="0.00000000"
         id="stop867" />
      <stop
         style="stop-color:#d9cce6;stop-opacity:1;"
         offset="1.00000000"
         id="stop868" />
    </linearGradient>
    <linearGradient
       id="linearGradient584">
      <stop
         style="stop-color:#ffffff;stop-opacity:1;"
         offset="0.00000000"
         id="stop585" />
      <stop
         style="stop-color:#ffffff;stop-opacity:0;"
         offset="1.00000000"
         id="stop586" />
    </linearGradient>
    <linearGradient
       id="linearGradient578">
      <stop
         style="stop-color:#d9cce6;stop-opacity:1;"
         offset="0.00000000"
         id="stop579" />
      <stop
         style="stop-color:#73667f;stop-opacity:1;"
         offset="1.00000000"
         id="stop580" />
    </linearGradient>
    <linearGradient
       xlink:href="#linearGradient584"
       id="linearGradient581"
       x1="-0.00684932"
       y1="0.00775194"
       x2="0.97945207"
       y2="1.00000000" />
    <linearGradient
       xlink:href="#linearGradient584"
       id="linearGradient583"
       x1="0.01094890"
       y1="0.01030928"
       x2="1.01459849"
       y2="0.96907216" />
    <linearGradient
       xlink:href="#linearGradient584"
       id="linearGradient860"
       x1="-0.02500000"
       y1="0.03100775"
       x2="0.97500002"
       y2="0.97674417" />
    <linearGradient
       xlink:href="#linearGradient578"
       id="linearGradient861"
       x1="0.00000000"
       y1="0.02325581"
       x2="0.98611110"
       y2="0.97674417" />
    <linearGradient
       xlink:href="#linearGradient578"
       id="linearGradient862"
       x1="-0.00000000"
       y1="0.00775194"
       x2="1.00000000"
       y2="0.99224806" />
    <linearGradient
       xlink:href="#linearGradient866"
       id="linearGradient869"
       x1="-0.00684932"
       y1="0.00775194"
       x2="0.97945207"
       y2="1.00000000" />
    <linearGradient
       xlink:href="#linearGradient884"
       id="linearGradient883"
       x1="-0.16999437"
       y1="-0.22656719"
       x2="0.78999752"
       y2="0.81250203"
       gradientUnits="objectBoundingBox"
       spreadMethod="pad" />
    <linearGradient
       xlink:href="#linearGradient964"
       id="linearGradient963"
       x1="-0.00001396"
       y1="0.03123664"
       x2="0.98192781"
       y2="0.99218798"
       gradientUnits="objectBoundingBox"
       spreadMethod="pad" />
    <linearGradient
       xlink:href="#linearGradient584"
       id="linearGradient967"
       x1="-0.00578947"
       y1="0.03114940"
       x2="0.84302366"
       y2="0.84374923"
       gradientUnits="objectBoundingBox"
       spreadMethod="pad" />
    <linearGradient
       xlink:href="#linearGradient969"
       id="linearGradient968"
       x1="0.01561102"
       y1="-0.00001780"
       x2="0.98437500"
       y2="0.99218690"
       gradientUnits="objectBoundingBox"
       spreadMethod="pad" />
    <linearGradient
       xlink:href="#linearGradient584"
       id="linearGradient972"
       x1="-0.00000030"
       y1="0.00000010"
       x2="0.99999970"
       y2="0.00000010"
       gradientUnits="objectBoundingBox"
       spreadMethod="pad" />
    <linearGradient
       xlink:href="#linearGradient884"
       id="linearGradient1815"
       x1="-0.01466661"
       y1="0.05835330"
       x2="1.02921987"
       y2="0.95953709"
       gradientUnits="objectBoundingBox"
       spreadMethod="pad" />
    <linearGradient
       xlink:href="#linearGradient584"
       id="linearGradient1816"
       x1="0.00624930"
       y1="0.02343486"
       x2="1.48749995"
       y2="1.35937512"
       gradientUnits="objectBoundingBox"
       spreadMethod="pad" />
    <linearGradient
       xlink:href="#linearGradient584"
       id="linearGradient1817"
       x1="0.00413379"
       y1="0.01517161"
       x2="0.98347086"
       y2="1.01515150"
       gradientUnits="objectBoundingBox"
       spreadMethod="pad" />
    <linearGradient
       xlink:href="#linearGradient584"
       id="linearGradient1818"
       x1="-0.03225702"
       y1="0.00781346"
       x2="0.96774155"
       y2="0.99999982"
       gradientUnits="objectBoundingBox"
       spreadMethod="pad" />
    <linearGradient
       xlink:href="#linearGradient584"
       id="linearGradient1819"
       x1="-0.00000289"
       y1="0.00782308"
       x2="1.00000000"
       y2="0.99218750"
       gradientUnits="objectBoundingBox"
       spreadMethod="pad" />
  </defs>
  <sodipodi:namedview
     id="base"
     pagecolor="#ffffff"
     bordercolor="#666666"
     borderopacity="1.0"
     inkscape:pageopacity="0.0"
     inkscape:pageshadow="2"
     inkscape:zoom="15.958943"
     inkscape:cx="13.834041"
     inkscape:cy="11.289268"
     inkscape:window-width="1022"
     inkscape:window-height="695"
     inkscape:window-x="0"
     inkscape:window-y="26" />
  <path
     style="font-size:12.000000;opacity:0.29636899;fill-rule:evenodd;stroke-width:18.750000;"
     d="M 15.539947,29.363018 C 12.271243,29.770183 4.6475396,25.662277 5.4418918,18.485368 C 6.6049989,10.775671 16.343604,9.2458297 16.517664,8.6973108 C 17.495054,7.4041861 15.880468,2.0325112 16.747956,2.4817686 C 19.066142,3.6823159 25.978445,11.511024 26.074686,13.186315 C 26.055208,14.849002 18.736395,22.760325 16.517664,23.775757 C 15.550722,24.218292 16.784398,17.538174 16.402523,17.330010 C 15.786481,17.001028 11.838897,16.653253 10.184701,20.437779 C 9.2979365,22.581659 11.724862,27.319050 15.539947,29.363018 z "
     id="path739"
     sodipodi:nodetypes="cccccccsc" />
  <path
     style="font-size:12.000000;fill:url(#linearGradient883);fill-rule:evenodd;stroke:#261933;stroke-width:1.0625000;"
     d="M 13.810496,27.626336 C 10.767486,28.005388 4.8170220,23.270721 5.5565244,16.589355 C 6.6393265,9.4119881 16.221116,7.8846559 16.383159,7.3740120 C 17.293061,6.1701729 15.789958,1.1693959 16.597551,1.5876333 C 18.755670,2.7052864 25.190701,9.9934471 25.280293,11.553063 C 25.262166,13.100946 18.448696,20.466018 16.383159,21.411337 C 15.482982,21.823315 16.631476,15.604440 16.275965,15.410648 C 15.702455,15.104383 12.027446,14.780620 10.487466,18.303837 C 9.6619303,20.299687 10.258829,25.723496 13.810496,27.626336 z "
     id="path735"
     sodipodi:nodetypes="cccccccsc" />
  <path
     style="font-size:12.000000;opacity:0.20178296;fill-rule:evenodd;stroke-width:0.96522999pt;"
     d="M 12.309773,26.983405 C 10.151881,23.341504 9.1309703,20.803063 9.8443033,18.625302 C 10.453035,16.766886 15.312869,14.511206 16.490351,14.982028 C 17.456756,15.368446 15.337613,21.544436 16.275965,21.197026 C 18.231862,20.472885 26.541952,11.828532 25.173099,11.767373 C 16.112420,11.260184 9.6221123,12.967854 8.4507733,16.482199 C 6.4388813,22.334418 9.9732223,25.698919 12.309773,26.983405 z "
     id="path737"
     sodipodi:nodetypes="csssssc" />
  <path
     style="font-size:12.000000;fill:url(#linearGradient583);fill-rule:evenodd;stroke-width:1.0000000pt;"
     d="M 6.6145423,19.665627 C 6.5102280,19.535282 5.8796658,15.241278 9.0400753,12.240154 C 11.963681,9.5101981 15.389849,9.8392281 17.448250,7.8898727 C 18.270166,7.1115018 17.365015,4.5624237 17.681031,4.0569793 C 17.870335,3.7542090 19.366864,5.2725273 19.500184,5.5723825 C 19.568991,5.7271482 18.388952,5.1453509 18.287417,5.4208420 C 18.035228,6.1051074 19.115004,7.8588914 18.439008,8.4516484 C 16.234682,10.384563 12.952083,10.082616 9.6464553,12.997856 C 6.1749771,16.065675 6.7123560,19.787848 6.6145423,19.665627 z "
     id="path742"
     sodipodi:nodetypes="cssssssss" />
  <rect
     style="font-size:12.000000;fill:#808080;fill-rule:evenodd;stroke-width:1.0000000pt;"
     id="rect630"
     width="0.0000000"
     height="4.5257583"
     x="62.140923"
     y="-58.160851" />
  <metadata
     id="metadata43">
    <rdf:RDF
       id="RDF44">
      <cc:Work
         rdf:about=""
         id="Work45">
        <dc:format
           id="format46">image/svg+xml</dc:format>
        <dc:type
           id="type48"
           rdf:resource="http://purl.org/dc/dcmitype/StillImage" />
      </cc:Work>
    </rdf:RDF>
  </metadata>
</svg>
