<?xml version="1.0" encoding="UTF-8" standalone="no"?>
<!DOCTYPE svg PUBLIC "-//W3C//DTD SVG 20010904//EN"
"http://www.w3.org/TR/2001/REC-SVG-20010904/DTD/svg10.dtd">
<!-- Created with Inkscape (http://www.inkscape.org/) -->
<svg
   id="svg1"
   sodipodi:version="0.32"
   inkscape:version="0.38.1"
   width="24.000000pt"
   height="24.000000pt"
   sodipodi:docbase="/home/dan/svg-icons/lila/gnome/scalable/emblems"
   sodipodi:docname="emblem-generic.svg"
   xmlns="http://www.w3.org/2000/svg"
   xmlns:inkscape="http://www.inkscape.org/namespaces/inkscape"
   xmlns:sodipodi="http://sodipodi.sourceforge.net/DTD/sodipodi-0.dtd"
   xmlns:xlink="http://www.w3.org/1999/xlink">
  <defs
     id="defs3">
    <linearGradient
       id="linearGradient878">
      <stop
         offset="0.0000000"
         style="stop-color:#d9cce6;stop-opacity:1.0000000;"
         id="stop880" />
      <stop
         offset="1.0000000"
         style="stop-color:#73667f;stop-opacity:1.0000000;"
         id="stop879" />
    </linearGradient>
    <linearGradient
       id="linearGradient841">
      <stop
         style="stop-color:#ffffff;stop-opacity:1.0000000;"
         offset="0.0000000"
         id="stop842" />
      <stop
         style="stop-color:#d9cce6;stop-opacity:1.0000000;"
         offset="1.0000000"
         id="stop843" />
    </linearGradient>
    <linearGradient
       id="linearGradient832">
      <stop
         style="stop-color:#ffffff;stop-opacity:1.0000000;"
         offset="0.0000000"
         id="stop833" />
      <stop
         style="stop-color:#ffffff;stop-opacity:0.0000000;"
         offset="1.0000000"
         id="stop834" />
    </linearGradient>
    <linearGradient
       id="linearGradient826">
      <stop
         style="stop-color:#d9cce6;stop-opacity:1.0000000;"
         offset="0.0000000"
         id="stop827" />
      <stop
         style="stop-color:#73667f;stop-opacity:1.0000000;"
         offset="1.0000000"
         id="stop828" />
    </linearGradient>
    <linearGradient
       xlink:href="#linearGradient832"
       id="linearGradient829"
       x1="-0.22666667"
       y1="-0.15503876"
       x2="0.57333332"
       y2="0.69767439" />
    <radialGradient
       xlink:href="#linearGradient826"
       id="radialGradient830"
       cx="0.29999998"
       cy="0.25581393"
       r="0.78461540"
       fx="0.29999998"
       fy="0.25968978"
       spreadMethod="pad"
       gradientUnits="objectBoundingBox" />
    <radialGradient
       xlink:href="#linearGradient841"
       id="radialGradient836"
       cx="0.29999998"
       cy="0.25581393"
       r="0.78461540"
       fx="0.29999998"
       fy="0.25968978" />
    <defs
       id="defs845">
      <linearGradient
         id="linearGradient584">
        <stop
           style="stop-color:#ffffff;stop-opacity:1;"
           offset="0.00000000"
           id="stop585" />
        <stop
           style="stop-color:#ffffff;stop-opacity:0;"
           offset="1.00000000"
           id="stop586" />
      </linearGradient>
      <linearGradient
         id="linearGradient578"
         x1="0.0000000"
         y1="0.50000000"
         x2="1.0000000"
         y2="0.50000000"
         gradientUnits="objectBoundingBox"
         spreadMethod="pad"
         xlink:href="#linearGradient878" />
      <linearGradient
         xlink:href="#linearGradient578"
         id="linearGradient581"
         x1="0.00877193"
         y1="0.02857143"
         x2="0.99122804"
         y2="0.97142857" />
      <linearGradient
         xlink:href="#linearGradient584"
         id="linearGradient583"
         x1="0.01298701"
         y1="0.00714286"
         x2="0.97402596"
         y2="0.99285716" />
    </defs>
    <sodipodi:namedview
       id="namedview854"
       pagecolor="#ffffff"
       bordercolor="#666666"
       borderopacity="1.0"
       inkscape:pageopacity="0.0"
       inkscape:pageshadow="2"
       inkscape:zoom="7.97947193"
       inkscape:cx="29.4003546"
       inkscape:cy="24.0932681"
       inkscape:window-width="640"
       inkscape:window-height="516"
       inkscape:window-x="99"
       inkscape:window-y="57" />
    <linearGradient
       xlink:href="#linearGradient878"
       id="linearGradient884"
       x1="0.023809532"
       y1="0.015625004"
       x2="0.97619045"
       y2="0.96875000" />
    <linearGradient
       xlink:href="#linearGradient832"
       id="linearGradient930"
       x1="0.020833334"
       y1="0.0078125000"
       x2="0.93750000"
       y2="0.98437500" />
    <linearGradient
       xlink:href="#linearGradient832"
       id="linearGradient932"
       x1="0.0065789474"
       y1="0.014285714"
       x2="0.99671054"
       y2="0.94285715" />
    <linearGradient
       xlink:href="#linearGradient832"
       id="linearGradient934"
       x1="0.0060975607"
       y1="-2.8865799e-15"
       x2="0.99390244"
       y2="1.0000000" />
    <linearGradient
       xlink:href="#linearGradient832"
       id="linearGradient936"
       x1="4.8405724e-14"
       y1="0.015625000"
       x2="1.0000000"
       y2="1.0078125" />
    <linearGradient
       xlink:href="#linearGradient832"
       id="linearGradient938"
       x1="-0.028571429"
       y1="0.015625000"
       x2="0.88571429"
       y2="0.98437500" />
    <linearGradient
       xlink:href="#linearGradient832"
       id="linearGradient940"
       x1="0.0055865920"
       y1="0.023437500"
       x2="1.0111731"
       y2="1.0078125" />
  </defs>
  <sodipodi:namedview
     id="base"
     pagecolor="#ffffff"
     bordercolor="#666666"
     borderopacity="1.0"
     inkscape:pageopacity="0.0"
     inkscape:pageshadow="2"
     inkscape:zoom="13.893067"
     inkscape:cx="12.046903"
     inkscape:cy="12.028931"
     inkscape:window-width="640"
     inkscape:window-height="526"
     showguides="true"
     snaptoguides="true"
     inkscape:window-x="38"
     inkscape:window-y="64" />
  <path
     style="fill-opacity:0.29999998;fill-rule:evenodd;stroke-width:1.8750000;"
     d="M 29.794540,15.653326 C 29.794540,23.478738 23.443481,29.829796 15.618070,29.829796 C 7.7926573,29.829796 1.4415987,23.478738 1.4415987,15.653326 C 1.4415987,7.8279135 7.7926573,1.4768551 15.618070,1.4768551 C 23.443481,1.4768551 29.794540,7.8279135 29.794540,15.653326 z "
     id="path837" />
  <path
     style="fill:url(#radialGradient830);fill-rule:evenodd;stroke:#261933;stroke-width:1.0625000;stroke-dasharray:none;"
     d="M 28.470097,14.623203 C 28.470097,22.069529 22.426702,28.112925 14.980375,28.112925 C 7.5340483,28.112925 1.4906522,22.069529 1.4906522,14.623203 C 1.4906522,7.1768755 7.5340483,1.1334800 14.980375,1.1334800 C 22.426702,1.1334800 28.470097,7.1768755 28.470097,14.623203 z "
     id="path838" />
  <path
     style="fill:url(#radialGradient836);fill-rule:evenodd;stroke:none;stroke-width:1.8750000;stroke-opacity:1.0000000;"
     d="M 24.914189,14.672255 C 24.914189,20.128643 20.485817,24.557015 15.029429,24.557015 C 9.5730407,24.557015 5.1446680,20.128643 5.1446680,14.672255 C 5.1446680,9.2158678 9.5730407,4.7874945 15.029429,4.7874945 C 20.485817,4.7874945 24.914189,9.2158678 24.914189,14.672255 z "
     id="path840" />
  <path
     style="fill:url(#linearGradient829);fill-rule:evenodd;stroke:none;stroke-opacity:1;stroke-width:1pt;stroke-linejoin:miter;stroke-linecap:butt;fill-opacity:1;"
     d="M 5.0225064,22.520822 C 2.1774011,19.724770 0.11715249,8.7204265 9.0448963,3.9785839 C 18.070748,-0.76325810 23.859066,5.0087079 26.213635,8.7858305 C 23.859066,6.3822073 17.972641,1.9837404 10.222181,6.6274751 C 2.4717225,11.369317 3.7471146,19.626663 5.0225064,22.520822 z "
     id="path831"
     sodipodi:nodetypes="czczc" />
  <path
     transform="matrix(0.795098,0.000000,0.000000,0.795098,5.136993,5.649556)"
     style="fill:url(#linearGradient884);fill-rule:evenodd;stroke:#261933;stroke-width:0.69662875;stroke-linecap:round;stroke-linejoin:round;"
     d="M 18.264505,18.213546 L 14.397356,15.884074 L 12.969694,20.293575 L 11.210334,16.135939 L 7.4634922,18.864142 L 8.4839364,14.466418 L 3.8490807,14.471242 L 7.2595548,11.513210 L 3.5070423,8.7928130 L 8.0048611,8.4043417 L 6.5680240,3.9978227 L 10.435173,6.3272943 L 11.862835,1.9177939 L 13.622195,6.0754295 L 17.369037,3.3472270 L 16.348593,7.7449510 L 20.983448,7.7401270 L 17.572974,10.698158 L 21.325487,13.418556 L 16.827668,13.807027 L 18.264505,18.213546 z "
     id="path927" />
  <path
     style="fill:url(#linearGradient930);fill-rule:evenodd;stroke:none;stroke-opacity:1;stroke-width:1pt;stroke-linejoin:miter;stroke-linecap:butt;fill-opacity:1;"
     d="M 13.990791,10.565847 C 13.980913,10.318907 14.475789,8.8052024 14.620601,8.6314282 C 14.700722,8.5352834 14.773999,9.4231116 14.665588,9.7560898 C 14.564063,10.067918 13.995909,10.693794 13.990791,10.565847 z "
     id="path929"
     sodipodi:nodetypes="csss" />
  <path
     style="fill:url(#linearGradient932);fill-rule:evenodd;stroke:none;stroke-opacity:1;stroke-width:1pt;stroke-linejoin:miter;stroke-linecap:butt;fill-opacity:1;"
     d="M 11.336590,12.770183 C 11.118329,12.713245 9.3621262,12.883135 9.0872663,12.995115 C 8.9572479,13.048085 9.7852123,13.298708 10.121955,13.265034 C 10.534987,13.223731 11.463225,12.803218 11.336590,12.770183 z "
     id="path931"
     sodipodi:nodetypes="csss" />
  <path
     style="fill:url(#linearGradient934);fill-rule:evenodd;stroke:none;stroke-opacity:1;stroke-width:1pt;stroke-linejoin:miter;stroke-linecap:butt;fill-opacity:1;"
     d="M 9.4921445,16.639019 C 9.6032355,16.463125 11.064931,15.302234 11.381576,15.154466 C 11.514796,15.092297 11.096394,15.809123 10.841739,16.009209 C 10.466583,16.303974 9.4232898,16.748039 9.4921445,16.639019 z "
     id="path933"
     sodipodi:nodetypes="csss" />
  <path
     style="fill:url(#linearGradient936);fill-rule:evenodd;stroke:none;stroke-opacity:1;stroke-width:1pt;stroke-linejoin:miter;stroke-linecap:butt;fill-opacity:1;"
     d="M 11.561522,11.015711 C 11.470739,10.894667 11.151852,10.030800 11.246616,9.9360357 C 11.331798,9.8508536 12.007961,10.351342 12.101359,10.475873 C 12.142921,10.531288 11.732678,10.394690 11.651495,10.475873 C 11.552732,10.574636 11.605699,11.074613 11.561522,11.015711 z "
     id="path935"
     sodipodi:nodetypes="cssss" />
  <path
     style="fill:url(#linearGradient938);fill-rule:evenodd;stroke:none;stroke-opacity:1;stroke-width:1pt;stroke-linejoin:miter;stroke-linecap:butt;fill-opacity:1;"
     d="M 11.786455,19.518153 C 11.796338,19.251323 12.251640,17.428105 12.371279,17.178857 C 12.431586,17.053218 12.422495,18.008682 12.326292,18.393492 C 12.227553,18.788447 11.781342,19.656201 11.786455,19.518153 z "
     id="path937"
     sodipodi:nodetypes="csss" />
  <path
     style="fill:url(#linearGradient940);fill-rule:evenodd;stroke:none;stroke-opacity:1;stroke-width:1pt;stroke-linejoin:miter;stroke-linecap:butt;fill-opacity:1;"
     d="M 16.285101,10.880752 C 16.417544,10.691547 17.921774,9.5991089 18.219519,9.4861710 C 18.356643,9.4341583 17.873706,10.181158 17.589709,10.385900 C 17.228900,10.646019 16.207608,10.991457 16.285101,10.880752 z "
     id="path939"
     sodipodi:nodetypes="csss" />
</svg>
