<?xml version="1.0" encoding="UTF-8" standalone="no"?>
<!DOCTYPE svg PUBLIC "-//W3C//DTD SVG 20010904//EN"
"http://www.w3.org/TR/2001/REC-SVG-20010904/DTD/svg10.dtd">
<!-- Created with Inkscape (http://www.inkscape.org/) -->
<svg
   version="1.0"
   x="0"
   y="0"
   width="24.000000pt"
   height="24.000000pt"
   id="svg1"
   sodipodi:version="0.32"
   inkscape:version="0.37"
   sodipodi:docname="emblem-cvs-conflict.svg"
   sodipodi:docbase="/home/stefan/software/Lila-themes"
   xmlns="http://www.w3.org/2000/svg"
   xmlns:inkscape="http://www.inkscape.org/namespaces/inkscape"
   xmlns:sodipodi="http://sodipodi.sourceforge.net/DTD/sodipodi-0.dtd"
   xmlns:xlink="http://www.w3.org/1999/xlink">
  <sodipodi:namedview
     id="base"
     pagecolor="#ffffff"
     bordercolor="#666666"
     borderopacity="1.0"
     inkscape:pageopacity="0.0"
     inkscape:pageshadow="2"
     inkscape:zoom="31.9999999"
     inkscape:cx="17.3919700"
     inkscape:cy="11.9971695"
     inkscape:window-width="1269"
     inkscape:window-height="970"
     inkscape:window-x="0"
     inkscape:window-y="0"
     showgrid="false"
     snaptogrid="false"
     gridspacingx="1pt"
     gridspacingy="1pt"
     gridtolerance="1px" />
  <defs
     id="defs3">
    <linearGradient
       id="linearGradient1809">
      <stop
         style="stop-color:#d9cce6;stop-opacity:1.0000000;"
         offset="0.0000000"
         id="stop1810" />
      <stop
         style="stop-color:#ffffff;stop-opacity:1.0000000;"
         offset="1.0000000"
         id="stop1811" />
    </linearGradient>
    <linearGradient
       id="linearGradient570">
      <stop
         style="stop-color:#ffffff;stop-opacity:1;"
         offset="0"
         id="stop571" />
      <stop
         style="stop-color:#ffffff;stop-opacity:0;"
         offset="1"
         id="stop572" />
    </linearGradient>
    <linearGradient
       id="linearGradient563">
      <stop
         style="stop-color:#d9cce6;stop-opacity:1.0000000;"
         offset="0.0000000"
         id="stop564" />
      <stop
         style="stop-color:#73667f;stop-opacity:1.0000000;"
         offset="1.0000000"
         id="stop565" />
    </linearGradient>
    <linearGradient
       id="linearGradient566"
       xlink:href="#linearGradient563"
       x1="0.00000000"
       y1="0.00826446"
       x2="0.99190283"
       y2="0.98760331" />
    <linearGradient
       id="linearGradient569"
       xlink:href="#linearGradient563"
       x1="0.01010101"
       y1="0.00413223"
       x2="0.98989898"
       y2="0.98760331" />
    <linearGradient
       id="linearGradient573"
       xlink:href="#linearGradient563"
       x1="0.01941748"
       y1="0.01239669"
       x2="0.98058254"
       y2="0.99173552" />
    <linearGradient
       id="linearGradient578"
       xlink:href="#linearGradient570"
       x1="0.00579710"
       y1="0.00515464"
       x2="1.00289857"
       y2="1.00000000" />
    <radialGradient
       xlink:href="#linearGradient1809"
       id="radialGradient1812"
       cx="0.96874994"
       cy="0.96093750"
       r="1.3589708"
       fx="0.96874994"
       fy="0.96093750" />
    <linearGradient
       xlink:href="#linearGradient1809"
       id="linearGradient630"
       x1="-0.00000000"
       y1="-0.00000000"
       x2="0.99616855"
       y2="0.99173552" />
    <linearGradient
       xlink:href="#linearGradient570"
       id="linearGradient631"
       x1="0.01010101"
       y1="0.00826446"
       x2="1.01010096"
       y2="0.99173552" />
  </defs>
  <path
     style="font-size:12;fill:#000000;fill-opacity:1;fill-rule:evenodd;stroke:none;stroke-width:1pt;stroke-opacity:1;opacity:0.300000;"
     d="M 7.2166938 12.59183 C 9.4772629 10.163434 24.821084 12.537396 25.690382 15.223769 C 26.620181 18.097109 15.910873 29.740676 12.613985 29.27097 C 9.7529776 28.863364 5.1184638 14.845834 7.2166938 12.59183 z "
     id="path634"
     sodipodi:nodetypes="csss" />
  <path
     style="font-size:12;fill:url(#linearGradient630);fill-opacity:0.75;fill-rule:evenodd;stroke:#261933;stroke-width:1pt;stroke-opacity:1;"
     d="M 5.7038933 10.164901 C 7.9644624 7.7365063 23.308284 10.110468 24.177582 12.796841 C 25.107381 15.670181 14.398073 27.313748 11.101184 26.844042 C 8.2401771 26.436436 3.6056633 12.418906 5.7038933 10.164901 z "
     id="path632"
     sodipodi:nodetypes="csss" />
  <path
     style="font-size:12;fill:#000000;fill-opacity:1;fill-rule:evenodd;stroke:none;stroke-width:1pt;stroke-opacity:1;opacity:0.300000;"
     d="M 7.8761295 7.2333556 C 10.136698 4.80496 25.48052 7.1789217 26.349818 9.8652949 C 27.279617 12.738634 16.570309 24.382201 13.273421 23.912494 C 10.412413 23.504888 5.7778995 9.4873598 7.8761295 7.2333556 z "
     id="path633"
     sodipodi:nodetypes="csss" />
  <path
     style="font-size:12;fill:url(#linearGradient630);fill-opacity:0.75;fill-rule:evenodd;stroke:#261933;stroke-width:1pt;stroke-opacity:1;"
     d="M 6.2258017 5.3476393 C 8.4863708 2.9192437 23.830192 5.2932054 24.69949 7.9795786 C 25.629289 10.852919 14.919982 22.496485 11.623093 22.026779 C 8.7620855 21.619172 4.1275717 7.6016435 6.2258017 5.3476393 z "
     id="path628"
     sodipodi:nodetypes="csss" />
  <path
     style="font-size:20;stroke:none;stroke-width:0.818036;font-family:Arabolical;fill:#000000;fill-opacity:1;opacity:0.300000;"
     d="M 15.720336 19.045183 C 15.626853 19.620585 15.332669 20.023936 14.837789 20.255236 C 14.361472 20.489552 13.779874 20.550913 13.092995 20.439319 C 12.443245 20.333757 11.94013 20.087965 11.583651 19.701946 C 11.248333 19.302956 11.126116 18.823751 11.217002 18.264334 C 11.300097 17.752865 11.627515 17.379521 12.199248 17.144303 C 12.773579 16.8931 13.367057 16.817263 13.979678 16.916792 C 14.499478 17.001242 14.932426 17.268445 15.278518 17.7184 C 15.645772 18.155386 15.793044 18.597647 15.720336 19.045183 z M 19.137194 4.171135 C 19.220291 3.6596661 19.032906 3.1124564 18.575041 2.5295056 C 18.138336 1.9335875 17.632237 1.5888797 17.056744 1.4953825 C 15.293136 1.208858 14.032209 3.3991727 13.27396 8.066326 C 13.188268 8.593778 13.086277 9.397471 12.967988 10.477409 C 12.8497 11.557344 12.74771 12.361039 12.662018 12.888492 C 12.459471 14.135197 12.729485 14.81887 13.472055 14.939512 C 13.731956 14.981737 14.149265 14.934697 14.723983 14.798395 C 14.834209 14.471792 15.183058 13.380098 15.770534 11.523314 C 16.27569 10.407797 16.739433 9.195326 17.161767 7.885897 C 17.350669 7.309591 17.711453 6.613563 18.244125 5.797813 C 18.79536 4.9850787 19.093051 4.4428528 19.137194 4.171135 z "
     id="path642" />
  <path
     style="fill:url(#linearGradient578);fill-rule:evenodd;stroke:none;stroke-opacity:1;stroke-width:1pt;stroke-linejoin:miter;stroke-linecap:butt;fill-opacity:0.75;"
     d="M 7.7892231 13.979612 C 7.4819972 13.722751 5.5346497 7.0653463 6.9053397 5.8313111 C 8.5822061 4.3216246 16.627503 5.4939581 16.931892 5.748447 C 17.189138 5.9635212 10.282454 5.7164981 8.5902425 7.2400004 C 7.2348982 8.4602198 8.0436315 14.192314 7.7892231 13.979612 z "
     id="path670"
     sodipodi:nodetypes="cssss" />
  <path
     style="font-size:20;stroke:#261933;stroke-width:0.818036;font-family:Arabolical;fill:url(#linearGradient573);"
     d="M 14.743773 18.263933 C 14.65029 18.839335 14.356106 19.242686 13.861226 19.473986 C 13.384909 19.708302 12.803311 19.769663 12.116432 19.658069 C 11.466682 19.552507 10.963567 19.306715 10.607088 18.920696 C 10.27177 18.521706 10.149553 18.042501 10.240439 17.483084 C 10.323534 16.971615 10.650952 16.598271 11.222685 16.363053 C 11.797016 16.11185 12.390494 16.036013 13.003115 16.135542 C 13.522915 16.219992 13.955863 16.487195 14.301955 16.93715 C 14.669209 17.374136 14.816481 17.816397 14.743773 18.263933 z M 18.160631 3.389885 C 18.243728 2.8784161 18.056343 2.3312064 17.598478 1.7482556 C 17.161773 1.1523375 16.655674 0.80762969 16.080181 0.71413249 C 14.316573 0.42760799 13.055646 2.6179227 12.297397 7.285076 C 12.211705 7.812528 12.109714 8.616221 11.991425 9.696159 C 11.873137 10.776094 11.771147 11.579789 11.685455 12.107242 C 11.482908 13.353947 11.752922 14.03762 12.495492 14.158262 C 12.755393 14.200487 13.172702 14.153447 13.74742 14.017145 C 13.857646 13.690542 14.206495 12.598848 14.793971 10.742064 C 15.299127 9.626547 15.76287 8.414076 16.185204 7.104647 C 16.374106 6.528341 16.73489 5.832313 17.267562 5.0165632 C 17.818797 4.2038287 18.116488 3.6616028 18.160631 3.389885 z "
     id="path1013" />
  <path
     style="fill:url(#linearGradient631);fill-rule:evenodd;stroke:none;stroke-opacity:1;stroke-width:1pt;stroke-linejoin:miter;stroke-linecap:butt;fill-opacity:1;"
     d="M 12.319714 13.223715 C 12.25972 13.187625 12.75179 7.808125 13.455789 5.2673354 C 13.824133 3.9379601 14.672631 2.3322272 15.536744 1.6132201 C 15.87949 1.3280307 17.038221 2.1325606 17.076365 2.2547463 C 17.106867 2.3524557 16.028431 1.9903927 15.742682 2.2729049 C 14.940419 3.0660832 14.17975 4.3063814 13.812336 5.4818185 C 13.038761 7.95665 12.378569 13.25912 12.319714 13.223715 z "
     id="path889"
     sodipodi:nodetypes="cssssss" />
  <path
     style="fill:url(#linearGradient578);fill-rule:evenodd;stroke:none;stroke-opacity:1;stroke-width:1pt;stroke-linejoin:miter;stroke-linecap:butt;fill-opacity:1;"
     d="M 10.854653 18.386901 C 10.827427 18.299691 10.8338 17.085619 12.219739 16.729999 C 13.268043 16.50214 13.846512 17.534753 13.874718 17.6251 C 13.897996 17.699674 13.647972 16.985599 12.374192 17.224761 C 10.961645 17.433684 10.878911 18.464612 10.854653 18.386901 z "
     id="path893"
     sodipodi:nodetypes="cssss" />
</svg>
