<?xml version="1.0" encoding="UTF-8" standalone="no"?>
<!DOCTYPE svg PUBLIC "-//W3C//DTD SVG 20010904//EN"
"http://www.w3.org/TR/2001/REC-SVG-20010904/DTD/svg10.dtd">
<!-- Created with Inkscape (http://www.inkscape.org/) -->
<svg
   id="svg1"
   sodipodi:version="0.32"
   inkscape:version="0.39"
   width="24.000000pt"
   height="24.000000pt"
   sodipodi:docbase="/home/scaba/files/lila/work/lila-gnome/Lila/scalable/emblems"
   sodipodi:docname="emblem-desktop2.svg"
   xmlns="http://www.w3.org/2000/svg"
   xmlns:cc="http://web.resource.org/cc/"
   xmlns:inkscape="http://www.inkscape.org/namespaces/inkscape"
   xmlns:sodipodi="http://sodipodi.sourceforge.net/DTD/sodipodi-0.dtd"
   xmlns:rdf="http://www.w3.org/1999/02/22-rdf-syntax-ns#"
   xmlns:dc="http://purl.org/dc/elements/1.1/"
   xmlns:xlink="http://www.w3.org/1999/xlink">
  <defs
     id="defs3">
    <linearGradient
       id="linearGradient1304">
      <stop
         style="stop-color:#d9cce6;stop-opacity:1;"
         offset="0.00000000"
         id="stop1305" />
      <stop
         style="stop-color:#73667f;stop-opacity:1;"
         offset="1.00000000"
         id="stop1306" />
    </linearGradient>
    <linearGradient
       id="linearGradient1299">
      <stop
         style="stop-color:#c7b397;stop-opacity:1;"
         offset="0.00000000"
         id="stop1300" />
      <stop
         style="stop-color:#faebdc;stop-opacity:1;"
         offset="1.00000000"
         id="stop1301" />
    </linearGradient>
    <linearGradient
       id="linearGradient866">
      <stop
         style="stop-color:#ffffff;stop-opacity:1;"
         offset="0.00000000"
         id="stop867" />
      <stop
         style="stop-color:#d9cce6;stop-opacity:1;"
         offset="1.00000000"
         id="stop868" />
    </linearGradient>
    <linearGradient
       id="linearGradient584">
      <stop
         style="stop-color:#ffffff;stop-opacity:1;"
         offset="0.00000000"
         id="stop585" />
      <stop
         style="stop-color:#ffffff;stop-opacity:0;"
         offset="1.00000000"
         id="stop586" />
    </linearGradient>
    <linearGradient
       xlink:href="#linearGradient866"
       id="linearGradient586"
       x1="-0.00000000"
       y1="0.01562500"
       x2="0.99122804"
       y2="0.98437500" />
    <linearGradient
       xlink:href="#linearGradient584"
       id="linearGradient587"
       x1="0.00000000"
       y1="-0.00000000"
       x2="1.00000000"
       y2="1.00000000" />
    <linearGradient
       xlink:href="#linearGradient1299"
       id="linearGradient1298"
       x1="0.98734176"
       y1="0.98437500"
       x2="-0.00632911"
       y2="0.00781250" />
    <linearGradient
       xlink:href="#linearGradient1304"
       id="linearGradient1303"
       x1="0.00000000"
       y1="0.00000000"
       x2="0.96551722"
       y2="0.99218750" />
    <linearGradient
       xlink:href="#linearGradient584"
       id="linearGradient1323"
       x1="0.00000000"
       y1="0.00000000"
       x2="1.00000000"
       y2="1.03906250" />
    <linearGradient
       xlink:href="#linearGradient584"
       id="linearGradient1325"
       x1="-0.00000000"
       y1="-0.00000000"
       x2="0.93750000"
       y2="0.99218750" />
    <linearGradient
       xlink:href="#linearGradient584"
       id="linearGradient1327"
       x1="0.00877193"
       y1="0.00781250"
       x2="1.00000000"
       y2="0.98437500" />
    <radialGradient
       xlink:href="#linearGradient1304"
       id="radialGradient1329" />
    <linearGradient
       xlink:href="#linearGradient584"
       id="linearGradient1330"
       x1="-0.00000000"
       y1="-0.00000000"
       x2="0.99270076"
       y2="0.95714283" />
  </defs>
  <sodipodi:namedview
     id="base"
     pagecolor="#ffffff"
     bordercolor="#666666"
     borderopacity="1.0"
     inkscape:pageopacity="0.0"
     inkscape:pageshadow="2"
     inkscape:zoom="11.313709"
     inkscape:cx="13.657578"
     inkscape:cy="8.7166210"
     inkscape:window-width="528"
     inkscape:window-height="526"
     inkscape:window-x="87"
     inkscape:window-y="146" />
  <g
     id="g632"
     style="opacity:0.29999998;"
     transform="matrix(0.500000,0.000000,0.000000,0.500000,31.38026,-16.91860)">
    <path
       style="font-size:12.000000;fill:#000000;fill-opacity:1.0000000;fill-rule:evenodd;stroke:none;stroke-width:1.8242500;"
       d="M -54.485256,47.213579 C -55.932300,47.977082 -56.219927,85.294270 -54.883367,86.825600 C -53.496589,88.186400 -6.9969087,88.485940 -5.7166887,87.223710 C -4.4002347,85.929170 -4.3084167,48.215442 -5.5176317,47.213579 C -6.7976157,45.988162 -52.863475,46.252852 -54.485256,47.213579 z "
       id="path627" />
    <path
       style="font-size:12.000000;fill:#000000;fill-opacity:1.0000000;fill-rule:evenodd;stroke:none;stroke-width:1.8242500;"
       d="M -55.472439,46.405297 C -57.611447,48.815066 -57.320466,59.969996 -55.624852,59.969996 C -53.357746,59.969996 -43.614967,49.136638 -43.584278,46.405297 C -43.564163,44.615071 -53.597923,44.293499 -55.472439,46.405297 z "
       id="path628" />
    <path
       style="font-size:12.000000;fill:#000000;fill-opacity:1.0000000;fill-rule:evenodd;stroke:none;stroke-width:1.8242500;"
       d="M -4.7922577,46.620841 C -2.6532497,49.030609 -2.9442307,60.185539 -4.6398447,60.185539 C -6.9069507,60.185539 -16.649730,49.352181 -16.680419,46.620841 C -16.700534,44.830615 -6.6667737,44.509043 -4.7922577,46.620841 z "
       id="path629" />
    <path
       style="font-size:12.000000;fill:#000000;fill-opacity:1.0000000;fill-rule:evenodd;stroke:none;stroke-width:1.8242500;"
       d="M -4.7922577,87.602640 C -2.6532497,85.192880 -2.9442307,74.037945 -4.6398447,74.037945 C -6.9069507,74.037945 -16.649730,84.871300 -16.680419,87.602640 C -16.700534,89.392870 -6.6667747,89.714440 -4.7922577,87.602640 z "
       id="path630" />
    <path
       style="font-size:12.000000;fill:#000000;fill-opacity:1.0000000;fill-rule:evenodd;stroke:none;stroke-width:1.8242500;"
       d="M -55.687983,87.387100 C -57.826990,84.977330 -57.536010,73.822402 -55.840395,73.822402 C -53.573289,73.822402 -43.830511,84.655760 -43.799822,87.387100 C -43.779708,89.177330 -53.813466,89.498900 -55.687983,87.387100 z "
       id="path631" />
  </g>
  <path
     style="font-size:12.000000;fill:url(#linearGradient1298);fill-rule:evenodd;stroke:#333300;stroke-width:0.91212738;stroke-opacity:1.0000000;"
     d="M 2.9191716,5.0266505 C 2.1956496,5.4084015 2.0518366,24.066998 2.7201166,24.832662 C 3.4135056,25.513062 26.663346,25.662829 27.303456,25.031717 C 27.961683,24.384448 28.007592,5.5275815 27.402984,5.0266505 C 26.762992,4.4139415 3.7300626,4.5462865 2.9191716,5.0266505 z "
     id="path1208"
     sodipodi:nodetypes="cssss" />
  <metadata
     id="metadata48">
    <rdf:RDF
       id="RDF49">
      <cc:Work
         rdf:about=""
         id="Work50">
        <dc:format
           id="format51">image/svg+xml</dc:format>
        <dc:type
           id="type53"
           rdf:resource="http://purl.org/dc/dcmitype/StillImage" />
      </cc:Work>
    </rdf:RDF>
  </metadata>
  <path
     style="fill:url(#linearGradient1303);fill-opacity:1.0000000;fill-rule:evenodd;stroke:#261933;stroke-width:0.91212738;stroke-linecap:butt;stroke-linejoin:miter;stroke-opacity:1.0000000;"
     d="M 2.4255806,4.6225095 C 1.3560766,5.8273935 1.5015666,11.404859 2.3493736,11.404859 C 3.4829266,11.404859 8.3543166,5.9881795 8.3696606,4.6225095 C 8.3797186,3.7273965 3.3628386,3.5666105 2.4255806,4.6225095 z "
     id="path952"
     sodipodi:nodetypes="csss" />
  <path
     style="fill:url(#linearGradient1323);fill-opacity:1.0000000;fill-rule:evenodd;stroke:none;stroke-width:1.0000000pt;stroke-linecap:butt;stroke-linejoin:miter;stroke-opacity:1.0000000;"
     d="M 2.5017856,9.9569415 C 2.3807286,9.8358835 2.1930076,6.0660955 3.0352296,5.1559525 C 3.7679346,4.3641575 7.1041046,4.7286645 7.2265686,4.8511275 C 7.3327236,4.9572825 4.4441216,5.0604615 3.7210846,5.8418085 C 2.8691946,6.7623995 2.6093466,10.064503 2.5017856,9.9569415 z "
     id="path953"
     sodipodi:nodetypes="cssss" />
  <path
     style="fill:url(#linearGradient1303);fill-opacity:1.0000000;fill-rule:evenodd;stroke:#261933;stroke-width:0.91212738;stroke-linecap:butt;stroke-linejoin:miter;stroke-opacity:1.0000000;"
     d="M 27.765671,4.7302815 C 28.835175,5.9351655 28.689685,11.512631 27.841878,11.512631 C 26.708325,11.512631 21.836935,6.0959515 21.821591,4.7302815 C 21.811533,3.8351675 26.828413,3.6743825 27.765671,4.7302815 z "
     id="path954"
     sodipodi:nodetypes="csss" />
  <path
     style="fill:url(#linearGradient1323);fill-opacity:1.0000000;fill-rule:evenodd;stroke:none;stroke-width:1.0000000pt;stroke-linecap:butt;stroke-linejoin:miter;stroke-opacity:1.0000000;"
     d="M 27.689465,10.064713 C 27.810523,9.9436555 27.998244,6.1738675 27.156022,5.2637245 C 26.423317,4.4719295 23.087147,4.8364365 22.964683,4.9588995 C 22.858528,5.0650545 25.747130,5.1682335 26.470167,5.9495795 C 27.322057,6.8701715 27.581905,10.172274 27.689465,10.064713 z "
     id="path955"
     sodipodi:nodetypes="cssss" />
  <path
     style="fill:url(#linearGradient1303);fill-opacity:1.0000000;fill-rule:evenodd;stroke:#261933;stroke-width:0.91212738;stroke-linecap:butt;stroke-linejoin:miter;stroke-opacity:1.0000000;"
     d="M 27.765671,4.7302815 C 28.835175,5.9351655 28.689685,11.512631 27.841878,11.512631 C 26.708325,11.512631 21.836935,6.0959515 21.821591,4.7302815 C 21.811533,3.8351675 26.828413,3.6743825 27.765671,4.7302815 z "
     id="path956"
     sodipodi:nodetypes="csss" />
  <path
     style="fill:url(#linearGradient1303);fill-opacity:1.0000000;fill-rule:evenodd;stroke:#261933;stroke-width:0.91212738;stroke-linecap:butt;stroke-linejoin:miter;stroke-opacity:1.0000000;"
     d="M 27.765671,25.221183 C 28.835175,24.016299 28.689685,18.438834 27.841878,18.438834 C 26.708325,18.438834 21.836935,23.855513 21.821591,25.221183 C 21.811533,26.116296 26.828413,26.277082 27.765671,25.221183 z "
     id="path958"
     sodipodi:nodetypes="csss" />
  <path
     style="fill:url(#linearGradient1303);fill-opacity:1.0000000;fill-rule:evenodd;stroke:#261933;stroke-width:0.91212738;stroke-linecap:butt;stroke-linejoin:miter;stroke-opacity:1.0000000;"
     d="M 2.3178086,25.113411 C 1.2483046,23.908527 1.3937946,18.331062 2.2416026,18.331062 C 3.3751556,18.331062 8.2465446,23.747741 8.2618886,25.113411 C 8.2719456,26.008525 3.2550666,26.169310 2.3178086,25.113411 z "
     id="path960"
     sodipodi:nodetypes="csss" />
  <path
     style="fill:url(#linearGradient1325);fill-opacity:1.0000000;fill-rule:evenodd;stroke:none;stroke-width:1.0000000pt;stroke-linecap:butt;stroke-linejoin:miter;stroke-opacity:1.0000000;"
     d="M 2.7210176,24.508392 C 2.6112496,24.371181 2.3308656,20.618500 2.4161926,19.402579 C 2.4324736,19.170583 3.0072396,19.853039 3.0258426,20.164641 C 3.1088476,21.554976 2.8144656,24.625202 2.7210176,24.508392 z "
     id="path1324"
     sodipodi:nodetypes="csss" />
  <path
     style="fill:url(#linearGradient1330);fill-opacity:1.0000000;fill-rule:evenodd;stroke:none;stroke-width:1.0000000pt;stroke-linecap:butt;stroke-linejoin:miter;stroke-opacity:1.0000000;"
     d="M 22.586920,4.9734635 C 22.802044,4.8013645 26.132674,4.8026705 26.930672,5.0496705 C 27.199560,5.1328975 26.227840,5.9718675 25.787579,5.9641435 C 24.779922,5.9464655 22.421014,5.1061895 22.586920,4.9734635 z "
     id="path1328"
     sodipodi:nodetypes="csss" />
  <path
     style="fill:url(#linearGradient1327);fill-opacity:1.0000000;fill-rule:evenodd;stroke:none;stroke-width:1.0000000pt;stroke-linecap:butt;stroke-linejoin:miter;stroke-opacity:1.0000000;"
     d="M 22.744748,24.920989 C 22.907055,24.537353 26.472606,20.389990 27.469530,19.510351 C 27.768111,19.246897 27.093225,20.962689 26.631262,21.491711 C 25.518298,22.766235 22.627633,25.197806 22.744748,24.920989 z "
     id="path1326"
     sodipodi:nodetypes="csss" />
  <g
     id="g1311"
     transform="matrix(0.404214,0.000000,0.000000,0.404214,4.417446,4.403875)">
    <path
       d="M 6.2874640,40.371727 C 6.7473646,41.745720 25.792255,47.923879 27.042690,46.887122 C 28.161962,45.949358 36.536950,18.036760 35.976187,16.929770 C 35.393294,15.709316 16.070941,12.669374 15.153791,13.504131 C 14.024060,14.538395 5.8044512,38.795248 6.2874640,40.371727 z "
       style="font-size:12.000000;opacity:0.30267498;fill-rule:evenodd;stroke-width:12.500000;"
       id="path1312" />
    <path
       d="M 6.3529336,39.234524 C 6.7832283,40.519998 24.601163,46.300143 25.771037,45.330176 C 26.818202,44.452826 34.653650,18.338447 34.129015,17.302751 C 33.583672,16.160922 15.506128,13.316847 14.648063,14.097825 C 13.591114,15.065459 5.9010372,37.759608 6.3529336,39.234524 z "
       style="font-size:12.000000;fill:url(#linearGradient586);fill-rule:evenodd;stroke:#261933;stroke-width:1.8750000;"
       id="path1313" />
    <path
       d="M 7.5652085,38.030402 C 7.3792541,37.559299 14.767872,15.655215 15.458626,15.203494 C 16.321922,14.614341 30.277712,17.222412 30.463230,17.692410 C 30.633271,18.123177 19.574863,16.111713 17.114621,18.312334 C 12.396093,22.414409 7.7348134,38.460087 7.5652085,38.030402 z "
       style="font-size:12.000000;opacity:0.69993597;fill:url(#linearGradient587);fill-rule:evenodd;stroke:none;stroke-width:0.10012100pt;"
       id="path1314" />
  </g>
  <g
     id="g1315"
     transform="matrix(0.404214,0.000000,0.000000,0.404214,8.672676,2.187645)">
    <path
       d="M 6.2874640,40.371727 C 6.7473646,41.745720 25.792255,47.923879 27.042690,46.887122 C 28.161962,45.949358 36.536950,18.036760 35.976187,16.929770 C 35.393294,15.709316 16.070941,12.669374 15.153791,13.504131 C 14.024060,14.538395 5.8044512,38.795248 6.2874640,40.371727 z "
       style="font-size:12.000000;opacity:0.30267498;fill-rule:evenodd;stroke-width:12.500000;"
       id="path1316" />
    <path
       d="M 6.3529336,39.234524 C 6.7832283,40.519998 24.601163,46.300143 25.771037,45.330176 C 26.818202,44.452826 34.653650,18.338447 34.129015,17.302751 C 33.583672,16.160922 15.506128,13.316847 14.648063,14.097825 C 13.591114,15.065459 5.9010372,37.759608 6.3529336,39.234524 z "
       style="font-size:12.000000;fill:url(#linearGradient586);fill-rule:evenodd;stroke:#261933;stroke-width:1.8750000;"
       id="path1317" />
    <path
       d="M 7.5652085,38.030402 C 7.3792541,37.559299 14.767872,15.655215 15.458626,15.203494 C 16.321922,14.614341 30.277712,17.222412 30.463230,17.692410 C 30.633271,18.123177 19.574863,16.111713 17.114621,18.312334 C 12.396093,22.414409 7.7348134,38.460087 7.5652085,38.030402 z "
       style="font-size:12.000000;opacity:0.69993597;fill:url(#linearGradient587);fill-rule:evenodd;stroke:none;stroke-width:0.10012100pt;"
       id="path1318" />
  </g>
</svg>
