<?xml version="1.0" encoding="UTF-8" standalone="no"?>
<!DOCTYPE svg PUBLIC "-//W3C//DTD SVG 20010904//EN"
"http://www.w3.org/TR/2001/REC-SVG-20010904/DTD/svg10.dtd">
<!-- Created with Inkscape (http://www.inkscape.org/) -->
<svg
   version="1.0"
   x="0"
   y="0"
   width="1600.0000pt"
   height="1200.0000pt"
   id="svg611"
   sodipodi:version="0.32"
   inkscape:version="0.39"
   sodipodi:docname="lila-larry.svg"
   sodipodi:docbase="/home/scaba/files/mirror/lila/lila-backgrounds"
   xmlns="http://www.w3.org/2000/svg"
   xmlns:inkscape="http://www.inkscape.org/namespaces/inkscape"
   xmlns:sodipodi="http://sodipodi.sourceforge.net/DTD/sodipodi-0.dtd"
   xmlns:xlink="http://www.w3.org/1999/xlink"
   xmlns:rdf="http://www.w3.org/1999/02/22-rdf-syntax-ns#"
   xmlns:cc="http://web.resource.org/cc/"
   xmlns:dc="http://purl.org/dc/elements/1.1/">
  <sodipodi:namedview
     id="base"
     pagecolor="#ffffff"
     bordercolor="#666666"
     borderopacity="1.0"
     inkscape:pageopacity="0.0"
     inkscape:pageshadow="2"
     inkscape:zoom="0.35355339"
     inkscape:cx="693.97309"
     inkscape:cy="579.04519"
     inkscape:window-width="1022"
     inkscape:window-height="695"
     inkscape:window-x="0"
     inkscape:window-y="26"
     showguides="true"
     snaptoguides="true"
     showgrid="false"
     snaptogrid="false" />
  <defs
     id="defs613">
    <linearGradient
       x1="0.96277922"
       y1="2.7200001e-06"
       x2="0.0053192200"
       y2="0.98437500"
       id="linearGradient585"
       xlink:href="#linearGradient558"
       gradientUnits="objectBoundingBox"
       spreadMethod="pad" />
    <linearGradient
       x1="0.57826090"
       y1="0.97656250"
       x2="0.29130435"
       y2="0.51562500"
       id="linearGradient583"
       xlink:href="#linearGradient564"
       gradientUnits="objectBoundingBox"
       spreadMethod="pad" />
    <linearGradient
       x1="0.032464620"
       y1="0.98445034"
       x2="0.69480515"
       y2="0.24218844"
       id="linearGradient575"
       xlink:href="#linearGradient564"
       gradientUnits="objectBoundingBox"
       spreadMethod="pad" />
    <linearGradient
       x1="0.0000000"
       y1="0.0000000"
       x2="1.0000000"
       y2="0.0000000"
       id="linearGradient576"
       gradientUnits="objectBoundingBox"
       spreadMethod="pad">
      <stop
         style="stop-color:#000000;stop-opacity:1;"
         offset="0.00000000"
         id="stop577" />
      <stop
         style="stop-color:#000000;stop-opacity:0;"
         offset="1.00000000"
         id="stop578" />
    </linearGradient>
    <radialGradient
       cx="0.47824559"
       cy="0.98435497"
       fx="0.47824559"
       fy="0.98435497"
       r="0.50345200"
       id="radialGradient579"
       xlink:href="#linearGradient576"
       gradientUnits="objectBoundingBox"
       spreadMethod="pad" />
    <linearGradient
       x1="0.0000000"
       y1="0.0000000"
       x2="1.0000000"
       y2="0.0000000"
       id="linearGradient564"
       gradientUnits="objectBoundingBox"
       spreadMethod="pad">
      <stop
         style="stop-color:#7f7366;stop-opacity:1;"
         offset="0.00000000"
         id="stop565" />
      <stop
         style="stop-color:#7f7366;stop-opacity:0;"
         offset="1.00000000"
         id="stop566" />
    </linearGradient>
    <linearGradient
       x1="0.49351925"
       y1="0.99222833"
       x2="0.49350709"
       y2="0.015625300"
       id="linearGradient563"
       xlink:href="#linearGradient564"
       gradientUnits="objectBoundingBox"
       spreadMethod="pad" />
    <linearGradient
       x1="0.0000000"
       y1="0.0000000"
       x2="1.0000000"
       y2="0.0000000"
       id="linearGradient569"
       gradientUnits="objectBoundingBox"
       spreadMethod="pad">
      <stop
         style="stop-color:#f3ebff;stop-opacity:1;"
         offset="0.00000000"
         id="stop570" />
      <stop
         style="stop-color:#73667f;stop-opacity:1;"
         offset="1.00000000"
         id="stop571" />
    </linearGradient>
    <linearGradient
       xlink:href="#linearGradient569"
       id="linearGradient739"
       x1="1.0104712"
       y1="0.0000000"
       x2="-0.0052355998"
       y2="1.0063291" />
    <radialGradient
       cx="0.14615387"
       cy="0.39062509"
       fx="0.14615387"
       fy="0.39062509"
       r="0.52400964"
       id="radialGradient587"
       xlink:href="#linearGradient558"
       gradientUnits="objectBoundingBox"
       spreadMethod="pad" />
    <linearGradient
       x1="0.0000000"
       y1="0.0000000"
       x2="1.0000000"
       y2="0.0000000"
       id="linearGradient558"
       gradientUnits="objectBoundingBox"
       spreadMethod="pad">
      <stop
         style="stop-color:#ffffff;stop-opacity:1;"
         offset="0.00000000"
         id="stop559" />
      <stop
         style="stop-color:#ffffff;stop-opacity:0;"
         offset="1.00000000"
         id="stop560" />
    </linearGradient>
    <radialGradient
       cx="0.13076705"
       cy="0.41407111"
       fx="0.13076705"
       fy="0.41407111"
       r="0.75421256"
       id="radialGradient592"
       xlink:href="#linearGradient558"
       gradientUnits="objectBoundingBox"
       spreadMethod="pad" />
    <linearGradient
       id="linearGradient2342">
      <stop
         style="stop-color:#d9cce6;stop-opacity:1.0000000;"
         offset="0.0000000"
         id="stop2343" />
      <stop
         style="stop-color:#73667f;stop-opacity:1.0000000;"
         offset="1.0000000"
         id="stop2344" />
    </linearGradient>
    <radialGradient
       xlink:href="#linearGradient2342"
       id="radialGradient945"
       cx="0.50000036"
       cy="0.50000036"
       r="0.64039814"
       fx="0.50000036"
       fy="0.50000036"
       spreadMethod="pad"
       gradientUnits="objectBoundingBox" />
    <linearGradient
       id="linearGradient1535">
      <stop
         style="stop-color:#ffffff;stop-opacity:1;"
         offset="0"
         id="stop1537" />
      <stop
         style="stop-color:#ffffff;stop-opacity:0;"
         offset="1"
         id="stop1536" />
    </linearGradient>
    <linearGradient
       id="linearGradient1528">
      <stop
         style="stop-color:#d9cce6;stop-opacity:1.0000000;"
         offset="0.0000000"
         id="stop1530" />
      <stop
         style="stop-color:#73667f;stop-opacity:1.0000000;"
         offset="1.0000000"
         id="stop1529" />
    </linearGradient>
    <linearGradient
       id="linearGradient642">
      <stop
         style="stop-color:#ffffff;stop-opacity:1;"
         offset="0"
         id="stop643" />
      <stop
         style="stop-color:#ffffff;stop-opacity:0;"
         offset="1"
         id="stop644" />
    </linearGradient>
    <linearGradient
       id="linearGradient635">
      <stop
         style="stop-color:#ffffff;stop-opacity:1.0000000;"
         offset="0.0000000"
         id="stop636" />
      <stop
         style="stop-color:#d9cce6;stop-opacity:1.0000000;"
         offset="1.0000000"
         id="stop637" />
    </linearGradient>
    <linearGradient
       id="linearGradient638"
       xlink:href="#linearGradient635"
       x1="6.5680968e-16"
       y1="0.50000000"
       x2="1.0000000"
       y2="0.50000000" />
    <linearGradient
       id="linearGradient641"
       xlink:href="#linearGradient1535"
       x1="-6.5052130e-18"
       y1="0.50000000"
       x2="1.0000000"
       y2="0.50000000" />
    <linearGradient
       id="linearGradient1522"
       xlink:href="#linearGradient635"
       x1="3.3989738e-17"
       y1="0.50000000"
       x2="1.0000000"
       y2="0.50000000" />
    <linearGradient
       id="linearGradient1527"
       xlink:href="#linearGradient635"
       x1="0.0034014429"
       y1="0.042553201"
       x2="0.98639452"
       y2="0.95744646" />
    <linearGradient
       id="linearGradient1532"
       xlink:href="#linearGradient635"
       x1="0.010615340"
       y1="0.033530705"
       x2="1.0544963"
       y2="0.95004517"
       gradientTransform="scale(0.961222,1.040342)" />
    <linearGradient
       id="linearGradient1534"
       xlink:href="#linearGradient635"
       x1="0.020918185"
       y1="0.044817142"
       x2="0.34863889"
       y2="2.7786629"
       gradientTransform="scale(2.868297,0.348639)" />
    <linearGradient
       id="linearGradient1539"
       xlink:href="#linearGradient635"
       x1="0.024142403"
       y1="-8.7577068e-10"
       x2="0.38024315"
       y2="2.4907429"
       gradientTransform="scale(2.510355,0.398350)" />
    <linearGradient
       id="linearGradient1567"
       xlink:href="#linearGradient635"
       x1="0.0040558549"
       y1="-5.9399252e-07"
       x2="1.1843110"
       y2="0.81321537"
       gradientTransform="scale(0.838629,1.192423)" />
    <linearGradient
       xlink:href="#linearGradient635"
       id="linearGradient896"
       x1="0.0099245850"
       y1="0.031473983"
       x2="0.95937836"
       y2="0.97570312"
       gradientTransform="scale(1.028160,0.972611)" />
    <linearGradient
       xlink:href="#linearGradient1528"
       id="linearGradient899"
       x1="0.041376498"
       y1="0.0078670830"
       x2="0.95856202"
       y2="0.99913907"
       gradientTransform="scale(1.007006,0.993043)" />
    <linearGradient
       xlink:href="#linearGradient1535"
       id="linearGradient901" />
    <linearGradient
       xlink:href="#linearGradient1535"
       id="linearGradient905"
       x1="0.0048523550"
       y1="-0.097928792"
       x2="0.99029034"
       y2="1.0497539" />
    <linearGradient
       xlink:href="#linearGradient1535"
       id="linearGradient939"
       x1="0.0041322312"
       y1="0.023437500"
       x2="0.98347110"
       y2="0.97656250" />
    <linearGradient
       xlink:href="#linearGradient1535"
       id="linearGradient948" />
    <radialGradient
       xlink:href="#linearGradient1535"
       id="radialGradient921"
       cx="0.50000000"
       cy="0.50000000"
       r="0.50000000"
       fx="0.50000000"
       fy="0.50000000" />
    <linearGradient
       xlink:href="#linearGradient1535"
       id="linearGradient1136" />
    <linearGradient
       xlink:href="#linearGradient1535"
       id="linearGradient1138" />
    <linearGradient
       xlink:href="#linearGradient1535"
       id="linearGradient1140" />
    <linearGradient
       xlink:href="#linearGradient1535"
       id="linearGradient1142" />
    <linearGradient
       xlink:href="#linearGradient1535"
       id="linearGradient1144" />
    <linearGradient
       xlink:href="#linearGradient1535"
       id="linearGradient1146" />
    <linearGradient
       xlink:href="#linearGradient1535"
       id="linearGradient1148" />
    <linearGradient
       xlink:href="#linearGradient1535"
       id="linearGradient1150" />
    <linearGradient
       xlink:href="#linearGradient1535"
       id="linearGradient1152" />
    <linearGradient
       xlink:href="#linearGradient1535"
       id="linearGradient1154" />
    <linearGradient
       xlink:href="#linearGradient1535"
       id="linearGradient1156" />
    <linearGradient
       xlink:href="#linearGradient1535"
       id="linearGradient1158" />
    <linearGradient
       xlink:href="#linearGradient1535"
       id="linearGradient1160" />
    <linearGradient
       xlink:href="#linearGradient1535"
       id="linearGradient1162" />
    <linearGradient
       xlink:href="#linearGradient1535"
       id="linearGradient1165" />
    <linearGradient
       xlink:href="#linearGradient1528"
       id="linearGradient1167"
       x1="-8.7603536e-16"
       y1="0.50000000"
       x2="1.0000000"
       y2="0.50000000" />
    <linearGradient
       xlink:href="#linearGradient1528"
       id="linearGradient1169"
       x1="1.9428903e-16"
       y1="0.50000000"
       x2="1.0000000"
       y2="0.50000000" />
    <linearGradient
       xlink:href="#linearGradient1528"
       id="linearGradient1171"
       x1="2.9004577e-15"
       y1="0.50000000"
       x2="1.0000000"
       y2="0.50000000" />
    <linearGradient
       xlink:href="#linearGradient1528"
       id="linearGradient1173"
       x1="7.4593109e-16"
       y1="0.50000000"
       x2="1.0000000"
       y2="0.50000000" />
    <linearGradient
       xlink:href="#linearGradient1528"
       id="linearGradient1175"
       x1="1.2507356e-15"
       y1="0.50000000"
       x2="1.0000000"
       y2="0.50000000" />
    <linearGradient
       xlink:href="#linearGradient1528"
       id="linearGradient1177"
       x1="1.4398205e-16"
       y1="0.50000000"
       x2="1.0000000"
       y2="0.50000000" />
    <linearGradient
       xlink:href="#linearGradient1528"
       id="linearGradient1179"
       x1="2.5396352e-15"
       y1="0.50000000"
       x2="1.0000000"
       y2="0.50000000" />
    <linearGradient
       xlink:href="#linearGradient1528"
       id="linearGradient1181"
       x1="-9.5236319e-16"
       y1="0.50000000"
       x2="1.0000000"
       y2="0.50000000" />
    <linearGradient
       xlink:href="#linearGradient1528"
       id="linearGradient1183"
       x1="-1.5404344e-15"
       y1="0.50000000"
       x2="1.0000000"
       y2="0.50000000" />
    <linearGradient
       xlink:href="#linearGradient1528"
       id="linearGradient1185"
       x1="1.3166551e-15"
       y1="0.50000000"
       x2="1.0000000"
       y2="0.50000000" />
    <linearGradient
       xlink:href="#linearGradient1528"
       id="linearGradient1187"
       x1="-1.1518564e-15"
       y1="0.50000000"
       x2="1.0000000"
       y2="0.50000000" />
    <linearGradient
       xlink:href="#linearGradient1528"
       id="linearGradient1189"
       x1="2.3019781e-15"
       y1="0.50000000"
       x2="1.0000000"
       y2="0.50000000" />
    <linearGradient
       xlink:href="#linearGradient1528"
       id="linearGradient1191"
       x1="1.0633855e-15"
       y1="0.50000000"
       x2="1.0000000"
       y2="0.50000000" />
    <linearGradient
       xlink:href="#linearGradient1528"
       id="linearGradient1193"
       x1="-1.5959456e-15"
       y1="0.50000000"
       x2="1.0000000"
       y2="0.50000000" />
    <linearGradient
       xlink:href="#linearGradient1528"
       id="linearGradient1195"
       x1="-2.7183117e-15"
       y1="0.50000000"
       x2="1.0000000"
       y2="0.50000000" />
    <linearGradient
       xlink:href="#linearGradient1528"
       id="linearGradient1197"
       x1="-3.2153100e-15"
       y1="0.50000000"
       x2="1.0000000"
       y2="0.50000000" />
    <linearGradient
       xlink:href="#linearGradient1528"
       id="linearGradient1199"
       x1="2.6298408e-15"
       y1="0.50000000"
       x2="1.0000000"
       y2="0.50000000" />
    <linearGradient
       xlink:href="#linearGradient1528"
       id="linearGradient1201"
       x1="3.3252481e-16"
       y1="0.50000000"
       x2="1.0000000"
       y2="0.50000000" />
    <linearGradient
       xlink:href="#linearGradient1535"
       id="linearGradient1447" />
    <linearGradient
       xlink:href="#linearGradient1528"
       id="linearGradient1449"
       x1="1.5254725e-16"
       y1="0.50000000"
       x2="1.0000000"
       y2="0.50000000" />
    <linearGradient
       xlink:href="#linearGradient1535"
       id="linearGradient1451" />
    <linearGradient
       xlink:href="#linearGradient1528"
       id="linearGradient1454"
       x1="-2.1412993e-17"
       y1="0.50000000"
       x2="1.0000000"
       y2="0.50000000" />
    <linearGradient
       xlink:href="#linearGradient1535"
       id="linearGradient1456" />
    <linearGradient
       xlink:href="#linearGradient1528"
       id="linearGradient1458"
       x1="3.5778672e-18"
       y1="0.50000000"
       x2="1.0000000"
       y2="0.50000000" />
    <linearGradient
       xlink:href="#linearGradient1535"
       id="linearGradient1460" />
    <linearGradient
       xlink:href="#linearGradient1528"
       id="linearGradient1462"
       x1="-2.7430315e-17"
       y1="0.50000000"
       x2="1.0000000"
       y2="0.50000000" />
    <linearGradient
       xlink:href="#linearGradient1535"
       id="linearGradient1473" />
    <linearGradient
       xlink:href="#linearGradient1528"
       id="linearGradient1477"
       x1="-3.1528599e-16"
       y1="0.50000000"
       x2="1.0000000"
       y2="0.50000000" />
    <linearGradient
       xlink:href="#linearGradient1528"
       id="linearGradient1479"
       x1="4.2674198e-16"
       y1="0.50000000"
       x2="1.0000000"
       y2="0.50000000" />
    <linearGradient
       xlink:href="#linearGradient1535"
       id="linearGradient1481" />
    <linearGradient
       xlink:href="#linearGradient1535"
       id="linearGradient1483" />
    <linearGradient
       xlink:href="#linearGradient1528"
       id="linearGradient1485"
       x1="6.1105634e-16"
       y1="0.50000000"
       x2="1.0000000"
       y2="0.50000000" />
    <linearGradient
       xlink:href="#linearGradient1535"
       id="linearGradient1487" />
    <linearGradient
       xlink:href="#linearGradient1528"
       id="linearGradient1489"
       x1="-3.9464959e-17"
       y1="0.50000000"
       x2="1.0000000"
       y2="0.50000000" />
    <linearGradient
       xlink:href="#linearGradient1535"
       id="linearGradient1503" />
    <linearGradient
       xlink:href="#linearGradient1528"
       id="linearGradient1506"
       x1="4.2121254e-17"
       y1="0.50000000"
       x2="1.0000000"
       y2="0.50000000" />
    <linearGradient
       xlink:href="#linearGradient1535"
       id="linearGradient1509" />
    <linearGradient
       xlink:href="#linearGradient1528"
       id="linearGradient1511"
       x1="1.0737938e-15"
       y1="0.50000000"
       x2="1.0000000"
       y2="0.50000000" />
    <linearGradient
       xlink:href="#linearGradient1535"
       id="linearGradient1523"
       x1="-1.9434324e-17"
       y1="0.50000000"
       x2="1.0000000"
       y2="0.50000000" />
    <defs
       id="defs1215">
      <marker
         id="ArrowEnd"
         viewBox="0 0 10 10"
         refX="0"
         refY="5"
         markerUnits="strokeWidth"
         markerWidth="4"
         markerHeight="3"
         orient="auto">
        <path
           d="M 0 0 L 10 5 L 0 10 z"
           id="path1217" />
      </marker>
      <marker
         id="ArrowStart"
         viewBox="0 0 10 10"
         refX="10"
         refY="5"
         markerUnits="strokeWidth"
         markerWidth="4"
         markerHeight="3"
         orient="auto">
        <path
           d="M 10 0 L 0 5 L 10 10 z"
           id="path1219" />
      </marker>
    </defs>
  </defs>
  <rect
     style="fill:url(#radialGradient945);fill-opacity:1.0000000;fill-rule:evenodd;stroke-width:1.0000000pt;"
     id="rect2341"
     width="1999.9939"
     height="1499.9821"
     x="0.56085569"
     y="4.0113125" />
  <path
     style="fill:#73667f;fill-opacity:0.33870968;fill-rule:evenodd;stroke-width:1.0000000pt;"
     d="M 0.55745256,4.0115131 L 0.55745256,6.2927631 L 2000.5262,6.2927631 L 2000.5262,4.0115131 L 0.55745256,4.0115131 z M 0.55745256,8.6052631 L 0.55745256,10.917763 L 2000.5262,10.917763 L 2000.5262,8.6052631 L 0.55745256,8.6052631 z M 0.55745256,13.324013 L 0.55745256,15.636513 L 2000.5262,15.636513 L 2000.5262,13.324013 L 0.55745256,13.324013 z M 0.55745256,17.949013 L 0.55745256,20.230263 L 2000.5262,20.230263 L 2000.5262,17.949013 L 0.55745256,17.949013 z M 0.55745256,22.542763 L 0.55745256,24.824013 L 2000.5262,24.824013 L 2000.5262,22.542763 L 0.55745256,22.542763 z M 0.55745256,27.136513 L 0.55745256,29.449013 L 2000.5262,29.449013 L 2000.5262,27.136513 L 0.55745256,27.136513 z M 0.55745256,31.855263 L 0.55745256,34.167763 L 2000.5262,34.167763 L 2000.5262,31.855263 L 0.55745256,31.855263 z M 0.55745256,36.480263 L 0.55745256,38.761513 L 2000.5262,38.761513 L 2000.5262,36.480263 L 0.55745256,36.480263 z M 0.55745256,41.167763 L 0.55745256,43.449013 L 2000.5262,43.449013 L 2000.5262,41.167763 L 0.55745256,41.167763 z M 0.55745256,45.761513 L 0.55745256,48.074013 L 2000.5262,48.074013 L 2000.5262,45.761513 L 0.55745256,45.761513 z M 0.55745256,50.480263 L 0.55745256,52.792763 L 2000.5262,52.792763 L 2000.5262,50.480263 L 0.55745256,50.480263 z M 0.55745256,55.105263 L 0.55745256,57.386513 L 2000.5262,57.386513 L 2000.5262,55.105263 L 0.55745256,55.105263 z M 0.55745256,59.699013 L 0.55745256,61.980263 L 2000.5262,61.980263 L 2000.5262,59.699013 L 0.55745256,59.699013 z M 0.55745256,64.292763 L 0.55745256,66.605263 L 2000.5262,66.605263 L 2000.5262,64.292763 L 0.55745256,64.292763 z M 0.55745256,69.011513 L 0.55745256,71.324013 L 2000.5262,71.324013 L 2000.5262,69.011513 L 0.55745256,69.011513 z M 0.55745256,73.636513 L 0.55745256,75.917763 L 2000.5262,75.917763 L 2000.5262,73.636513 L 0.55745256,73.636513 z M 0.55745256,78.324013 L 0.55745256,80.605263 L 2000.5262,80.605263 L 2000.5262,78.324013 L 0.55745256,78.324013 z M 0.55745256,82.917763 L 0.55745256,85.230263 L 2000.5262,85.230263 L 2000.5262,82.917763 L 0.55745256,82.917763 z M 0.55745256,87.636513 L 0.55745256,89.949013 L 2000.5262,89.949013 L 2000.5262,87.636513 L 0.55745256,87.636513 z M 0.55745256,92.261513 L 0.55745256,94.542762 L 2000.5262,94.542762 L 2000.5262,92.261513 L 0.55745256,92.261513 z M 0.55745256,96.855262 L 0.55745256,99.136512 L 2000.5262,99.136512 L 2000.5262,96.855262 L 0.55745256,96.855262 z M 0.55745256,101.44901 L 0.55745256,103.76151 L 2000.5262,103.76151 L 2000.5262,101.44901 L 0.55745256,101.44901 z M 0.55745256,106.16776 L 0.55745256,108.48026 L 2000.5262,108.48026 L 2000.5262,106.16776 L 0.55745256,106.16776 z M 0.55745256,110.79276 L 0.55745256,113.07401 L 2000.5262,113.07401 L 2000.5262,110.79276 L 0.55745256,110.79276 z M 0.55745256,115.48026 L 0.55745256,117.76151 L 2000.5262,117.76151 L 2000.5262,115.48026 L 0.55745256,115.48026 z M 0.55745256,120.07401 L 0.55745256,122.38651 L 2000.5262,122.38651 L 2000.5262,120.07401 L 0.55745256,120.07401 z M 0.55745256,124.79276 L 0.55745256,127.10526 L 2000.5262,127.10526 L 2000.5262,124.79276 L 0.55745256,124.79276 z M 0.55745256,129.41776 L 0.55745256,131.69901 L 2000.5262,131.69901 L 2000.5262,129.41776 L 0.55745256,129.41776 z M 0.55745256,134.01151 L 0.55745256,136.29276 L 2000.5262,136.29276 L 2000.5262,134.01151 L 0.55745256,134.01151 z M 0.55745256,138.60527 L 0.55745256,140.91777 L 2000.5262,140.91777 L 2000.5262,138.60527 L 0.55745256,138.60527 z M 0.55745256,143.32402 L 0.55745256,145.63652 L 2000.5262,145.63652 L 2000.5262,143.32402 L 0.55745256,143.32402 z M 0.55745256,147.94902 L 0.55745256,150.23027 L 2000.5262,150.23027 L 2000.5262,147.94902 L 0.55745256,147.94902 z M 0.55745256,152.60527 L 0.55745256,154.88652 L 2000.5262,154.88652 L 2000.5262,152.60527 L 0.55745256,152.60527 z M 0.55745256,157.19902 L 0.55745256,159.51152 L 2000.5262,159.51152 L 2000.5262,157.19902 L 0.55745256,157.19902 z M 0.55745256,161.91777 L 0.55745256,164.23027 L 2000.5262,164.23027 L 2000.5262,161.91777 L 0.55745256,161.91777 z M 0.55745256,166.54277 L 0.55745256,168.82402 L 2000.5262,168.82402 L 2000.5262,166.54277 L 0.55745256,166.54277 z M 0.55745256,171.13652 L 0.55745256,173.41777 L 2000.5262,173.41777 L 2000.5262,171.13652 L 0.55745256,171.13652 z M 0.55745256,175.73027 L 0.55745256,178.04277 L 2000.5262,178.04277 L 2000.5262,175.73027 L 0.55745256,175.73027 z M 0.55745256,180.44902 L 0.55745256,182.76152 L 2000.5262,182.76152 L 2000.5262,180.44902 L 0.55745256,180.44902 z M 0.55745256,185.07402 L 0.55745256,187.35527 L 2000.5262,187.35527 L 2000.5262,185.07402 L 0.55745256,185.07402 z M 0.55745256,189.76152 L 0.55745256,192.04277 L 2000.5262,192.04277 L 2000.5262,189.76152 L 0.55745256,189.76152 z M 0.55745256,194.35527 L 0.55745256,196.66777 L 2000.5262,196.66777 L 2000.5262,194.35527 L 0.55745256,194.35527 z M 0.55745256,199.07402 L 0.55745256,201.38652 L 2000.5262,201.38652 L 2000.5262,199.07402 L 0.55745256,199.07402 z M 0.55745256,203.69902 L 0.55745256,205.98027 L 2000.5262,205.98027 L 2000.5262,203.69902 L 0.55745256,203.69902 z M 0.55745256,208.29277 L 0.55745256,210.57402 L 2000.5262,210.57402 L 2000.5262,208.29277 L 0.55745256,208.29277 z M 0.55745256,212.88652 L 0.55745256,215.19902 L 2000.5262,215.19902 L 2000.5262,212.88652 L 0.55745256,212.88652 z M 0.55745256,217.60527 L 0.55745256,219.91777 L 2000.5262,219.91777 L 2000.5262,217.60527 L 0.55745256,217.60527 z M 0.55745256,222.23027 L 0.55745256,224.51152 L 2000.5262,224.51152 L 2000.5262,222.23027 L 0.55745256,222.23027 z M 0.55745256,226.91776 L 0.55745256,229.19901 L 2000.5262,229.19901 L 2000.5262,226.91776 L 0.55745256,226.91776 z M 0.55745256,231.51151 L 0.55745256,233.82401 L 2000.5262,233.82401 L 2000.5262,231.51151 L 0.55745256,231.51151 z M 0.55745256,236.23026 L 0.55745256,238.54276 L 2000.5262,238.54276 L 2000.5262,236.23026 L 0.55745256,236.23026 z M 0.55745256,240.85526 L 0.55745256,243.13651 L 2000.5262,243.13651 L 2000.5262,240.85526 L 0.55745256,240.85526 z M 0.55745256,245.44901 L 0.55745256,247.73027 L 2000.5262,247.73027 L 2000.5262,245.44901 L 0.55745256,245.44901 z M 0.55745256,250.04277 L 0.55745256,252.35527 L 2000.5262,252.35527 L 2000.5262,250.04277 L 0.55745256,250.04277 z M 0.55745256,254.76152 L 0.55745256,257.07402 L 2000.5262,257.07402 L 2000.5262,254.76152 L 0.55745256,254.76152 z M 0.55745256,259.38652 L 0.55745256,261.66777 L 2000.5262,261.66777 L 2000.5262,259.38652 L 0.55745256,259.38652 z M 0.55745256,264.07402 L 0.55745256,266.35527 L 2000.5262,266.35527 L 2000.5262,264.07402 L 0.55745256,264.07402 z M 0.55745256,268.66777 L 0.55745256,270.98027 L 2000.5262,270.98027 L 2000.5262,268.66777 L 0.55745256,268.66777 z M 0.55745256,273.38652 L 0.55745256,275.69902 L 2000.5262,275.69902 L 2000.5262,273.38652 L 0.55745256,273.38652 z M 0.55745256,278.01152 L 0.55745256,280.29277 L 2000.5262,280.29277 L 2000.5262,278.01152 L 0.55745256,278.01152 z M 0.55745256,282.60527 L 0.55745256,284.88652 L 2000.5262,284.88652 L 2000.5262,282.60527 L 0.55745256,282.60527 z M 0.55745256,287.19902 L 0.55745256,289.51152 L 2000.5262,289.51152 L 2000.5262,287.19902 L 0.55745256,287.19902 z M 0.55745256,291.91777 L 0.55745256,294.23027 L 2000.5262,294.23027 L 2000.5262,291.91777 L 0.55745256,291.91777 z M 0.55745256,296.54277 L 0.55745256,298.82402 L 2000.5262,298.82402 L 2000.5262,296.54277 L 0.55745256,296.54277 z M 0.55745256,301.26152 L 0.55745256,303.54277 L 2000.5262,303.54277 L 2000.5262,301.26152 L 0.55745256,301.26152 z M 0.55745256,305.85527 L 0.55745256,308.16777 L 2000.5262,308.16777 L 2000.5262,305.85527 L 0.55745256,305.85527 z M 0.55745256,310.57402 L 0.55745256,312.88652 L 2000.5262,312.88652 L 2000.5262,310.57402 L 0.55745256,310.57402 z M 0.55745256,315.19902 L 0.55745256,317.48027 L 2000.5262,317.48027 L 2000.5262,315.19902 L 0.55745256,315.19902 z M 0.55745256,319.79277 L 0.55745256,322.07402 L 2000.5262,322.07402 L 2000.5262,319.79277 L 0.55745256,319.79277 z M 0.55745256,324.38652 L 0.55745256,326.69902 L 2000.5262,326.69902 L 2000.5262,324.38652 L 0.55745256,324.38652 z M 0.55745256,329.10527 L 0.55745256,331.41777 L 2000.5262,331.41777 L 2000.5262,329.10527 L 0.55745256,329.10527 z M 0.55745256,333.73027 L 0.55745256,336.01152 L 2000.5262,336.01152 L 2000.5262,333.73027 L 0.55745256,333.73027 z M 0.55745256,338.41776 L 0.55745256,340.69901 L 2000.5262,340.69901 L 2000.5262,338.41776 L 0.55745256,338.41776 z M 0.55745256,343.01151 L 0.55745256,345.32401 L 2000.5262,345.32401 L 2000.5262,343.01151 L 0.55745256,343.01151 z M 0.55745256,347.73026 L 0.55745256,350.04276 L 2000.5262,350.04276 L 2000.5262,347.73026 L 0.55745256,347.73026 z M 0.55745256,352.35526 L 0.55745256,354.63651 L 2000.5262,354.63651 L 2000.5262,352.35526 L 0.55745256,352.35526 z M 0.55745256,356.94901 L 0.55745256,359.23026 L 2000.5262,359.23026 L 2000.5262,356.94901 L 0.55745256,356.94901 z M 0.55745256,361.54276 L 0.55745256,363.85526 L 2000.5262,363.85526 L 2000.5262,361.54276 L 0.55745256,361.54276 z M 0.55745256,366.26151 L 0.55745256,368.57401 L 2000.5262,368.57401 L 2000.5262,366.26151 L 0.55745256,366.26151 z M 0.55745256,370.88651 L 0.55745256,373.16776 L 2000.5262,373.16776 L 2000.5262,370.88651 L 0.55745256,370.88651 z M 0.55745256,375.57401 L 0.55745256,377.85526 L 2000.5262,377.85526 L 2000.5262,375.57401 L 0.55745256,375.57401 z M 0.55745256,380.16776 L 0.55745256,382.48026 L 2000.5262,382.48026 L 2000.5262,380.16776 L 0.55745256,380.16776 z M 0.55745256,384.88651 L 0.55745256,387.19901 L 2000.5262,387.19901 L 2000.5262,384.88651 L 0.55745256,384.88651 z M 0.55745256,389.51151 L 0.55745256,391.79276 L 2000.5262,391.79276 L 2000.5262,389.51151 L 0.55745256,389.51151 z M 0.55745256,394.10526 L 0.55745256,396.38651 L 2000.5262,396.38651 L 2000.5262,394.10526 L 0.55745256,394.10526 z M 0.55745256,398.69901 L 0.55745256,401.01151 L 2000.5262,401.01151 L 2000.5262,398.69901 L 0.55745256,398.69901 z M 0.55745256,403.41774 L 0.55745256,405.73024 L 2000.5262,405.73024 L 2000.5262,403.41774 L 0.55745256,403.41774 z M 0.55745256,408.04274 L 0.55745256,410.32404 L 2000.5262,410.32404 L 2000.5262,408.04274 L 0.55745256,408.04274 z M 0.55745256,412.73024 L 0.55745256,415.01154 L 2000.5262,415.01154 L 2000.5262,412.73024 L 0.55745256,412.73024 z M 0.55745256,417.32404 L 0.55745256,419.63654 L 2000.5262,419.63654 L 2000.5262,417.32404 L 0.55745256,417.32404 z M 0.55745256,422.04274 L 0.55745256,424.35524 L 2000.5262,424.35524 L 2000.5262,422.04274 L 0.55745256,422.04274 z M 0.55745256,426.66774 L 0.55745256,428.94904 L 2000.5262,428.94904 L 2000.5262,426.66774 L 0.55745256,426.66774 z M 0.55745256,431.26154 L 0.55745256,433.54274 L 2000.5262,433.54274 L 2000.5262,431.26154 L 0.55745256,431.26154 z M 0.55745256,435.85524 L 0.55745256,438.16774 L 2000.5262,438.16774 L 2000.5262,435.85524 L 0.55745256,435.85524 z M 0.55745256,440.57404 L 0.55745256,442.88654 L 2000.5262,442.88654 L 2000.5262,440.57404 L 0.55745256,440.57404 z M 0.55745256,445.19904 L 0.55745256,447.48024 L 2000.5262,447.48024 L 2000.5262,445.19904 L 0.55745256,445.19904 z M 0.55745256,449.85524 L 0.55745256,452.13654 L 2000.5262,452.13654 L 2000.5262,449.85524 L 0.55745256,449.85524 z M 0.55745256,454.44904 L 0.55745256,456.76154 L 2000.5262,456.76154 L 2000.5262,454.44904 L 0.55745256,454.44904 z M 0.55745256,459.16774 L 0.55745256,461.48024 L 2000.5262,461.48024 L 2000.5262,459.16774 L 0.55745256,459.16774 z M 0.55745256,463.79274 L 0.55745256,466.07404 L 2000.5262,466.07404 L 2000.5262,463.79274 L 0.55745256,463.79274 z M 0.55745256,468.38654 L 0.55745256,470.66774 L 2000.5262,470.66774 L 2000.5262,468.38654 L 0.55745256,468.38654 z M 0.55745256,472.98024 L 0.55745256,475.29274 L 2000.5262,475.29274 L 2000.5262,472.98024 L 0.55745256,472.98024 z M 0.55745256,477.69904 L 0.55745256,480.01154 L 2000.5262,480.01154 L 2000.5262,477.69904 L 0.55745256,477.69904 z M 0.55745256,482.32404 L 0.55745256,484.60524 L 2000.5262,484.60524 L 2000.5262,482.32404 L 0.55745256,482.32404 z M 0.55745256,487.01154 L 0.55745256,489.29274 L 2000.5262,489.29274 L 2000.5262,487.01154 L 0.55745256,487.01154 z M 0.55745256,491.60524 L 0.55745256,493.91774 L 2000.5262,493.91774 L 2000.5262,491.60524 L 0.55745256,491.60524 z M 0.55745256,496.32404 L 0.55745256,498.63654 L 2000.5262,498.63654 L 2000.5262,496.32404 L 0.55745256,496.32404 z M 0.55745256,500.94904 L 0.55745256,503.23024 L 2000.5262,503.23024 L 2000.5262,500.94904 L 0.55745256,500.94904 z M 0.55745256,505.54274 L 0.55745256,507.82404 L 2000.5262,507.82404 L 2000.5262,505.54274 L 0.55745256,505.54274 z M 0.55745256,510.13654 L 0.55745256,512.44904 L 2000.5262,512.44904 L 2000.5262,510.13654 L 0.55745256,510.13654 z M 0.55745256,514.85524 L 0.55745256,517.16774 L 2000.5262,517.16774 L 2000.5262,514.85524 L 0.55745256,514.85524 z M 0.55745256,519.48024 L 0.55745256,521.76154 L 2000.5262,521.76154 L 2000.5262,519.48024 L 0.55745256,519.48024 z M 0.55745256,524.16774 L 0.55745256,526.44904 L 2000.5262,526.44904 L 2000.5262,524.16774 L 0.55745256,524.16774 z M 0.55745256,528.76154 L 0.55745256,531.07404 L 2000.5262,531.07404 L 2000.5262,528.76154 L 0.55745256,528.76154 z M 0.55745256,533.48024 L 0.55745256,535.79274 L 2000.5262,535.79274 L 2000.5262,533.48024 L 0.55745256,533.48024 z M 0.55745256,538.10524 L 0.55745256,540.38654 L 2000.5262,540.38654 L 2000.5262,538.10524 L 0.55745256,538.10524 z M 0.55745256,542.69904 L 0.55745256,544.98024 L 2000.5262,544.98024 L 2000.5262,542.69904 L 0.55745256,542.69904 z M 0.55745256,547.29274 L 0.55745256,549.60524 L 2000.5262,549.60524 L 2000.5262,547.29274 L 0.55745256,547.29274 z M 0.55745256,552.01154 L 0.55745256,554.32404 L 2000.5262,554.32404 L 2000.5262,552.01154 L 0.55745256,552.01154 z M 0.55745256,556.63654 L 0.55745256,558.91774 L 2000.5262,558.91774 L 2000.5262,556.63654 L 0.55745256,556.63654 z M 0.55745256,561.32404 L 0.55745256,563.60524 L 2000.5262,563.60524 L 2000.5262,561.32404 L 0.55745256,561.32404 z M 0.55745256,565.91774 L 0.55745256,568.23024 L 2000.5262,568.23024 L 2000.5262,565.91774 L 0.55745256,565.91774 z M 0.55745256,570.63654 L 0.55745256,572.94904 L 2000.5262,572.94904 L 2000.5262,570.63654 L 0.55745256,570.63654 z M 0.55745256,575.26154 L 0.55745256,577.54274 L 2000.5262,577.54274 L 2000.5262,575.26154 L 0.55745256,575.26154 z M 0.55745256,579.85524 L 0.55745256,582.13654 L 2000.5262,582.13654 L 2000.5262,579.85524 L 0.55745256,579.85524 z M 0.55745256,584.44904 L 0.55745256,586.76154 L 2000.5262,586.76154 L 2000.5262,584.44904 L 0.55745256,584.44904 z M 0.55745256,589.16774 L 0.55745256,591.48024 L 2000.5262,591.48024 L 2000.5262,589.16774 L 0.55745256,589.16774 z M 0.55745256,593.79274 L 0.55745256,596.07404 L 2000.5262,596.07404 L 2000.5262,593.79274 L 0.55745256,593.79274 z M 0.55745256,598.60524 L 0.55745256,600.88654 L 2000.5262,600.88654 L 2000.5262,598.60524 L 0.55745256,598.60524 z M 0.55745256,603.19904 L 0.55745256,605.51154 L 2000.5262,605.51154 L 2000.5262,603.19904 L 0.55745256,603.19904 z M 0.55745256,607.91774 L 0.55745256,610.23024 L 2000.5262,610.23024 L 2000.5262,607.91774 L 0.55745256,607.91774 z M 0.55745256,612.54274 L 0.55745256,614.82404 L 2000.5262,614.82404 L 2000.5262,612.54274 L 0.55745256,612.54274 z M 0.55745256,617.13654 L 0.55745256,619.41774 L 2000.5262,619.41774 L 2000.5262,617.13654 L 0.55745256,617.13654 z M 0.55745256,621.73024 L 0.55745256,624.04274 L 2000.5262,624.04274 L 2000.5262,621.73024 L 0.55745256,621.73024 z M 0.55745256,626.44904 L 0.55745256,628.76154 L 2000.5262,628.76154 L 2000.5262,626.44904 L 0.55745256,626.44904 z M 0.55745256,631.07404 L 0.55745256,633.35524 L 2000.5262,633.35524 L 2000.5262,631.07404 L 0.55745256,631.07404 z M 0.55745256,635.76154 L 0.55745256,638.04274 L 2000.5262,638.04274 L 2000.5262,635.76154 L 0.55745256,635.76154 z M 0.55745256,640.35524 L 0.55745256,642.66774 L 2000.5262,642.66774 L 2000.5262,640.35524 L 0.55745256,640.35524 z M 0.55745256,645.07404 L 0.55745256,647.38654 L 2000.5262,647.38654 L 2000.5262,645.07404 L 0.55745256,645.07404 z M 0.55745256,649.69904 L 0.55745256,651.98024 L 2000.5262,651.98024 L 2000.5262,649.69904 L 0.55745256,649.69904 z M 0.55745256,654.29274 L 0.55745256,656.57404 L 2000.5262,656.57404 L 2000.5262,654.29274 L 0.55745256,654.29274 z M 0.55745256,658.88654 L 0.55745256,661.19904 L 2000.5262,661.19904 L 2000.5262,658.88654 L 0.55745256,658.88654 z M 0.55745256,663.60524 L 0.55745256,665.91774 L 2000.5262,665.91774 L 2000.5262,663.60524 L 0.55745256,663.60524 z M 0.55745256,668.23024 L 0.55745256,670.51154 L 2000.5262,670.51154 L 2000.5262,668.23024 L 0.55745256,668.23024 z M 0.55745256,672.91774 L 0.55745256,675.19904 L 2000.5262,675.19904 L 2000.5262,672.91774 L 0.55745256,672.91774 z M 0.55745256,677.51154 L 0.55745256,679.82404 L 2000.5262,679.82404 L 2000.5262,677.51154 L 0.55745256,677.51154 z M 0.55745256,682.23024 L 0.55745256,684.54274 L 2000.5262,684.54274 L 2000.5262,682.23024 L 0.55745256,682.23024 z M 0.55745256,686.85524 L 0.55745256,689.13654 L 2000.5262,689.13654 L 2000.5262,686.85524 L 0.55745256,686.85524 z M 0.55745256,691.44904 L 0.55745256,693.73024 L 2000.5262,693.73024 L 2000.5262,691.44904 L 0.55745256,691.44904 z M 0.55745256,696.04274 L 0.55745256,698.35524 L 2000.5262,698.35524 L 2000.5262,696.04274 L 0.55745256,696.04274 z M 0.55745256,700.76154 L 0.55745256,703.07404 L 2000.5262,703.07404 L 2000.5262,700.76154 L 0.55745256,700.76154 z M 0.55745256,705.38654 L 0.55745256,707.66774 L 2000.5262,707.66774 L 2000.5262,705.38654 L 0.55745256,705.38654 z M 0.55745256,710.07404 L 0.55745256,712.35524 L 2000.5262,712.35524 L 2000.5262,710.07404 L 0.55745256,710.07404 z M 0.55745256,714.66774 L 0.55745256,716.98024 L 2000.5262,716.98024 L 2000.5262,714.66774 L 0.55745256,714.66774 z M 0.55745256,719.38654 L 0.55745256,721.69904 L 2000.5262,721.69904 L 2000.5262,719.38654 L 0.55745256,719.38654 z M 0.55745256,724.01154 L 0.55745256,726.29274 L 2000.5262,726.29274 L 2000.5262,724.01154 L 0.55745256,724.01154 z M 0.55745256,728.60524 L 0.55745256,730.88654 L 2000.5262,730.88654 L 2000.5262,728.60524 L 0.55745256,728.60524 z M 0.55745256,733.19904 L 0.55745256,735.51154 L 2000.5262,735.51154 L 2000.5262,733.19904 L 0.55745256,733.19904 z M 0.55745256,737.91774 L 0.55745256,740.23024 L 2000.5262,740.23024 L 2000.5262,737.91774 L 0.55745256,737.91774 z M 0.55745256,742.54274 L 0.55745256,744.82404 L 2000.5262,744.82404 L 2000.5262,742.54274 L 0.55745256,742.54274 z M 0.55745256,747.19904 L 0.55745256,749.48024 L 2000.5262,749.48024 L 2000.5262,747.19904 L 0.55745256,747.19904 z M 0.55745256,751.79274 L 0.55745256,754.10524 L 2000.5262,754.10524 L 2000.5262,751.79274 L 0.55745256,751.79274 z M 0.55745256,756.51154 L 0.55745256,758.82404 L 2000.5262,758.82404 L 2000.5262,756.51154 L 0.55745256,756.51154 z M 0.55745256,761.13654 L 0.55745256,763.41774 L 2000.5262,763.41774 L 2000.5262,761.13654 L 0.55745256,761.13654 z M 0.55745256,765.73024 L 0.55745256,768.01154 L 2000.5262,768.01154 L 2000.5262,765.73024 L 0.55745256,765.73024 z M 0.55745256,770.32404 L 0.55745256,772.63654 L 2000.5262,772.63654 L 2000.5262,770.32404 L 0.55745256,770.32404 z M 0.55745256,775.04274 L 0.55745256,777.35524 L 2000.5262,777.35524 L 2000.5262,775.04274 L 0.55745256,775.04274 z M 0.55745256,779.66774 L 0.55745256,781.94904 L 2000.5262,781.94904 L 2000.5262,779.66774 L 0.55745256,779.66774 z M 0.55745256,784.35524 L 0.55745256,786.63654 L 2000.5262,786.63654 L 2000.5262,784.35524 L 0.55745256,784.35524 z M 0.55745256,788.94904 L 0.55745256,791.26154 L 2000.5262,791.26154 L 2000.5262,788.94904 L 0.55745256,788.94904 z M 0.55745256,793.66774 L 0.55745256,795.98024 L 2000.5262,795.98024 L 2000.5262,793.66774 L 0.55745256,793.66774 z M 0.55745256,798.29274 L 0.55745256,800.57404 L 2000.5262,800.57404 L 2000.5262,798.29274 L 0.55745256,798.29274 z M 0.55745256,802.88654 L 0.55745256,805.16774 L 2000.5262,805.16774 L 2000.5262,802.88654 L 0.55745256,802.88654 z M 0.55745256,807.48024 L 0.55745256,809.79274 L 2000.5262,809.79274 L 2000.5262,807.48024 L 0.55745256,807.48024 z M 0.55745256,812.19904 L 0.55745256,814.51154 L 2000.5262,814.51154 L 2000.5262,812.19904 L 0.55745256,812.19904 z M 0.55745256,816.82404 L 0.55745256,819.10524 L 2000.5262,819.10524 L 2000.5262,816.82404 L 0.55745256,816.82404 z M 0.55745256,821.51154 L 0.55745256,823.79274 L 2000.5262,823.79274 L 2000.5262,821.51154 L 0.55745256,821.51154 z M 0.55745256,826.10524 L 0.55745256,828.41774 L 2000.5262,828.41774 L 2000.5262,826.10524 L 0.55745256,826.10524 z M 0.55745256,830.82404 L 0.55745256,833.13654 L 2000.5262,833.13654 L 2000.5262,830.82404 L 0.55745256,830.82404 z M 0.55745256,835.44904 L 0.55745256,837.73024 L 2000.5262,837.73024 L 2000.5262,835.44904 L 0.55745256,835.44904 z M 0.55745256,840.04274 L 0.55745256,842.32404 L 2000.5262,842.32404 L 2000.5262,840.04274 L 0.55745256,840.04274 z M 0.55745256,844.63654 L 0.55745256,846.94904 L 2000.5262,846.94904 L 2000.5262,844.63654 L 0.55745256,844.63654 z M 0.55745256,849.35524 L 0.55745256,851.66774 L 2000.5262,851.66774 L 2000.5262,849.35524 L 0.55745256,849.35524 z M 0.55745256,853.98024 L 0.55745256,856.26154 L 2000.5262,856.26154 L 2000.5262,853.98024 L 0.55745256,853.98024 z M 0.55745256,858.66774 L 0.55745256,860.94904 L 2000.5262,860.94904 L 2000.5262,858.66774 L 0.55745256,858.66774 z M 0.55745256,863.26154 L 0.55745256,865.57404 L 2000.5262,865.57404 L 2000.5262,863.26154 L 0.55745256,863.26154 z M 0.55745256,867.98024 L 0.55745256,870.29274 L 2000.5262,870.29274 L 2000.5262,867.98024 L 0.55745256,867.98024 z M 0.55745256,872.60524 L 0.55745256,874.88654 L 2000.5262,874.88654 L 2000.5262,872.60524 L 0.55745256,872.60524 z M 0.55745256,877.19904 L 0.55745256,879.48024 L 2000.5262,879.48024 L 2000.5262,877.19904 L 0.55745256,877.19904 z M 0.55745256,881.79274 L 0.55745256,884.10524 L 2000.5262,884.10524 L 2000.5262,881.79274 L 0.55745256,881.79274 z M 0.55745256,886.51154 L 0.55745256,888.82404 L 2000.5262,888.82404 L 2000.5262,886.51154 L 0.55745256,886.51154 z M 0.55745256,891.13654 L 0.55745256,893.41774 L 2000.5262,893.41774 L 2000.5262,891.13654 L 0.55745256,891.13654 z M 0.55745256,895.85524 L 0.55745256,898.13654 L 2000.5262,898.13654 L 2000.5262,895.85524 L 0.55745256,895.85524 z M 0.55745256,900.44904 L 0.55745256,902.76154 L 2000.5262,902.76154 L 2000.5262,900.44904 L 0.55745256,900.44904 z M 0.55745256,905.16774 L 0.55745256,907.48024 L 2000.5262,907.48024 L 2000.5262,905.16774 L 0.55745256,905.16774 z M 0.55745256,909.79274 L 0.55745256,912.07404 L 2000.5262,912.07404 L 2000.5262,909.79274 L 0.55745256,909.79274 z M 0.55745256,914.38654 L 0.55745256,916.66774 L 2000.5262,916.66774 L 2000.5262,914.38654 L 0.55745256,914.38654 z M 0.55745256,918.98024 L 0.55745256,921.29274 L 2000.5262,921.29274 L 2000.5262,918.98024 L 0.55745256,918.98024 z M 0.55745256,923.69904 L 0.55745256,926.01154 L 2000.5262,926.01154 L 2000.5262,923.69904 L 0.55745256,923.69904 z M 0.55745256,928.32404 L 0.55745256,930.60524 L 2000.5262,930.60524 L 2000.5262,928.32404 L 0.55745256,928.32404 z M 0.55745256,933.01154 L 0.55745256,935.29274 L 2000.5262,935.29274 L 2000.5262,933.01154 L 0.55745256,933.01154 z M 0.55745256,937.60524 L 0.55745256,939.91774 L 2000.5262,939.91774 L 2000.5262,937.60524 L 0.55745256,937.60524 z M 0.55745256,942.32404 L 0.55745256,944.63654 L 2000.5262,944.63654 L 2000.5262,942.32404 L 0.55745256,942.32404 z M 0.55745256,946.94904 L 0.55745256,949.23024 L 2000.5262,949.23024 L 2000.5262,946.94904 L 0.55745256,946.94904 z M 0.55745256,951.54274 L 0.55745256,953.82404 L 2000.5262,953.82404 L 2000.5262,951.54274 L 0.55745256,951.54274 z M 0.55745256,956.13654 L 0.55745256,958.44904 L 2000.5262,958.44904 L 2000.5262,956.13654 L 0.55745256,956.13654 z M 0.55745256,960.85524 L 0.55745256,963.16774 L 2000.5262,963.16774 L 2000.5262,960.85524 L 0.55745256,960.85524 z M 0.55745256,965.48024 L 0.55745256,967.76154 L 2000.5262,967.76154 L 2000.5262,965.48024 L 0.55745256,965.48024 z M 0.55745256,970.16774 L 0.55745256,972.44904 L 2000.5262,972.44904 L 2000.5262,970.16774 L 0.55745256,970.16774 z M 0.55745256,974.76154 L 0.55745256,977.07404 L 2000.5262,977.07404 L 2000.5262,974.76154 L 0.55745256,974.76154 z M 0.55745256,979.48024 L 0.55745256,981.79274 L 2000.5262,981.79274 L 2000.5262,979.48024 L 0.55745256,979.48024 z M 0.55745256,984.10524 L 0.55745256,986.38654 L 2000.5262,986.38654 L 2000.5262,984.10524 L 0.55745256,984.10524 z M 0.55745256,988.69904 L 0.55745256,990.98024 L 2000.5262,990.98024 L 2000.5262,988.69904 L 0.55745256,988.69904 z M 0.55745256,993.29273 L 0.55745256,995.60523 L 2000.5262,995.60523 L 2000.5262,993.29273 L 0.55745256,993.29273 z M 0.55745256,998.01153 L 0.55745256,1000.3240 L 2000.5262,1000.3240 L 2000.5262,998.01153 L 0.55745256,998.01153 z M 0.55745256,1002.6365 L 0.55745256,1004.9178 L 2000.5262,1004.9178 L 2000.5262,1002.6365 L 0.55745256,1002.6365 z M 0.55745256,1007.3240 L 0.55745256,1009.6052 L 2000.5262,1009.6052 L 2000.5262,1007.3240 L 0.55745256,1007.3240 z M 0.55745256,1011.9178 L 0.55745256,1014.2302 L 2000.5262,1014.2302 L 2000.5262,1011.9178 L 0.55745256,1011.9178 z M 0.55745256,1016.6365 L 0.55745256,1018.9490 L 2000.5262,1018.9490 L 2000.5262,1016.6365 L 0.55745256,1016.6365 z M 0.55745256,1021.2615 L 0.55745256,1023.5428 L 2000.5262,1023.5428 L 2000.5262,1021.2615 L 0.55745256,1021.2615 z M 0.55745256,1025.8552 L 0.55745256,1028.1365 L 2000.5262,1028.1365 L 2000.5262,1025.8552 L 0.55745256,1025.8552 z M 0.55745256,1030.4490 L 0.55745256,1032.7615 L 2000.5262,1032.7615 L 2000.5262,1030.4490 L 0.55745256,1030.4490 z M 0.55745256,1035.1678 L 0.55745256,1037.4802 L 2000.5262,1037.4802 L 2000.5262,1035.1678 L 0.55745256,1035.1678 z M 0.55745256,1039.7928 L 0.55745256,1042.0740 L 2000.5262,1042.0740 L 2000.5262,1039.7928 L 0.55745256,1039.7928 z M 0.55745256,1044.4490 L 0.55745256,1046.7302 L 2000.5262,1046.7302 L 2000.5262,1044.4490 L 0.55745256,1044.4490 z M 0.55745256,1049.0428 L 0.55745256,1051.3552 L 2000.5262,1051.3552 L 2000.5262,1049.0428 L 0.55745256,1049.0428 z M 0.55745256,1053.7615 L 0.55745256,1056.0740 L 2000.5262,1056.0740 L 2000.5262,1053.7615 L 0.55745256,1053.7615 z M 0.55745256,1058.3865 L 0.55745256,1060.6678 L 2000.5262,1060.6678 L 2000.5262,1058.3865 L 0.55745256,1058.3865 z M 0.55745256,1062.9802 L 0.55745256,1065.2615 L 2000.5262,1065.2615 L 2000.5262,1062.9802 L 0.55745256,1062.9802 z M 0.55745256,1067.5740 L 0.55745256,1069.8865 L 2000.5262,1069.8865 L 2000.5262,1067.5740 L 0.55745256,1067.5740 z M 0.55745256,1072.2928 L 0.55745256,1074.6052 L 2000.5262,1074.6052 L 2000.5262,1072.2928 L 0.55745256,1072.2928 z M 0.55745256,1076.9178 L 0.55745256,1079.1990 L 2000.5262,1079.1990 L 2000.5262,1076.9178 L 0.55745256,1076.9178 z M 0.55745256,1081.6052 L 0.55745256,1083.8865 L 2000.5262,1083.8865 L 2000.5262,1081.6052 L 0.55745256,1081.6052 z M 0.55745256,1086.1990 L 0.55745256,1088.5115 L 2000.5262,1088.5115 L 2000.5262,1086.1990 L 0.55745256,1086.1990 z M 0.55745256,1090.9178 L 0.55745256,1093.2302 L 2000.5262,1093.2302 L 2000.5262,1090.9178 L 0.55745256,1090.9178 z M 0.55745256,1095.5428 L 0.55745256,1097.8240 L 2000.5262,1097.8240 L 2000.5262,1095.5428 L 0.55745256,1095.5428 z M 0.55745256,1100.1365 L 0.55745256,1102.4178 L 2000.5262,1102.4178 L 2000.5262,1100.1365 L 0.55745256,1100.1365 z M 0.55745256,1104.7302 L 0.55745256,1107.0428 L 2000.5262,1107.0428 L 2000.5262,1104.7302 L 0.55745256,1104.7302 z M 0.55745256,1109.4490 L 0.55745256,1111.7615 L 2000.5262,1111.7615 L 2000.5262,1109.4490 L 0.55745256,1109.4490 z M 0.55745256,1114.0740 L 0.55745256,1116.3552 L 2000.5262,1116.3552 L 2000.5262,1114.0740 L 0.55745256,1114.0740 z M 0.55745256,1118.7615 L 0.55745256,1121.0428 L 2000.5262,1121.0428 L 2000.5262,1118.7615 L 0.55745256,1118.7615 z M 0.55745256,1123.3552 L 0.55745256,1125.6678 L 2000.5262,1125.6678 L 2000.5262,1123.3552 L 0.55745256,1123.3552 z M 0.55745256,1128.0740 L 0.55745256,1130.3865 L 2000.5262,1130.3865 L 2000.5262,1128.0740 L 0.55745256,1128.0740 z M 0.55745256,1132.6990 L 0.55745256,1134.9802 L 2000.5262,1134.9802 L 2000.5262,1132.6990 L 0.55745256,1132.6990 z M 0.55745256,1137.2928 L 0.55745256,1139.5740 L 2000.5262,1139.5740 L 2000.5262,1137.2928 L 0.55745256,1137.2928 z M 0.55745256,1141.8865 L 0.55745256,1144.1990 L 2000.5262,1144.1990 L 2000.5262,1141.8865 L 0.55745256,1141.8865 z M 0.55745256,1146.6052 L 0.55745256,1148.9178 L 2000.5262,1148.9178 L 2000.5262,1146.6052 L 0.55745256,1146.6052 z M 0.55745256,1151.2302 L 0.55745256,1153.5115 L 2000.5262,1153.5115 L 2000.5262,1151.2302 L 0.55745256,1151.2302 z M 0.55745256,1155.9178 L 0.55745256,1158.1990 L 2000.5262,1158.1990 L 2000.5262,1155.9178 L 0.55745256,1155.9178 z M 0.55745256,1160.5115 L 0.55745256,1162.8240 L 2000.5262,1162.8240 L 2000.5262,1160.5115 L 0.55745256,1160.5115 z M 0.55745256,1165.2302 L 0.55745256,1167.5428 L 2000.5262,1167.5428 L 2000.5262,1165.2302 L 0.55745256,1165.2302 z M 0.55745256,1169.8552 L 0.55745256,1172.1365 L 2000.5262,1172.1365 L 2000.5262,1169.8552 L 0.55745256,1169.8552 z M 0.55745256,1174.4490 L 0.55745256,1176.7302 L 2000.5262,1176.7302 L 2000.5262,1174.4490 L 0.55745256,1174.4490 z M 0.55745256,1179.0428 L 0.55745256,1181.3552 L 2000.5262,1181.3552 L 2000.5262,1179.0428 L 0.55745256,1179.0428 z M 0.55745256,1183.7615 L 0.55745256,1186.0740 L 2000.5262,1186.0740 L 2000.5262,1183.7615 L 0.55745256,1183.7615 z M 0.55745256,1188.3865 L 0.55745256,1190.6678 L 2000.5262,1190.6678 L 2000.5262,1188.3865 L 0.55745256,1188.3865 z M 0.55745256,1193.3865 L 0.55745256,1195.6678 L 2000.5262,1195.6678 L 2000.5262,1193.3865 L 0.55745256,1193.3865 z M 0.55745256,1197.9802 L 0.55745256,1200.2928 L 2000.5262,1200.2928 L 2000.5262,1197.9802 L 0.55745256,1197.9802 z M 0.55745256,1202.6990 L 0.55745256,1205.0115 L 2000.5262,1205.0115 L 2000.5262,1202.6990 L 0.55745256,1202.6990 z M 0.55745256,1207.3240 L 0.55745256,1209.6052 L 2000.5262,1209.6052 L 2000.5262,1207.3240 L 0.55745256,1207.3240 z M 0.55745256,1211.9178 L 0.55745256,1214.1990 L 2000.5262,1214.1990 L 2000.5262,1211.9178 L 0.55745256,1211.9178 z M 0.55745256,1216.5115 L 0.55745256,1218.8240 L 2000.5262,1218.8240 L 2000.5262,1216.5115 L 0.55745256,1216.5115 z M 0.55745256,1221.2302 L 0.55745256,1223.5428 L 2000.5262,1223.5428 L 2000.5262,1221.2302 L 0.55745256,1221.2302 z M 0.55745256,1225.8552 L 0.55745256,1228.1365 L 2000.5262,1228.1365 L 2000.5262,1225.8552 L 0.55745256,1225.8552 z M 0.55745256,1230.5428 L 0.55745256,1232.8240 L 2000.5262,1232.8240 L 2000.5262,1230.5428 L 0.55745256,1230.5428 z M 0.55745256,1235.1365 L 0.55745256,1237.4490 L 2000.5262,1237.4490 L 2000.5262,1235.1365 L 0.55745256,1235.1365 z M 0.55745256,1239.8552 L 0.55745256,1242.1678 L 2000.5262,1242.1678 L 2000.5262,1239.8552 L 0.55745256,1239.8552 z M 0.55745256,1244.4802 L 0.55745256,1246.7615 L 2000.5262,1246.7615 L 2000.5262,1244.4802 L 0.55745256,1244.4802 z M 0.55745256,1249.0740 L 0.55745256,1251.3552 L 2000.5262,1251.3552 L 2000.5262,1249.0740 L 0.55745256,1249.0740 z M 0.55745256,1253.6678 L 0.55745256,1255.9802 L 2000.5262,1255.9802 L 2000.5262,1253.6678 L 0.55745256,1253.6678 z M 0.55745256,1258.3865 L 0.55745256,1260.6990 L 2000.5262,1260.6990 L 2000.5262,1258.3865 L 0.55745256,1258.3865 z M 0.55745256,1263.0115 L 0.55745256,1265.2928 L 2000.5262,1265.2928 L 2000.5262,1263.0115 L 0.55745256,1263.0115 z M 0.55745256,1267.6990 L 0.55745256,1269.9802 L 2000.5262,1269.9802 L 2000.5262,1267.6990 L 0.55745256,1267.6990 z M 0.55745256,1272.2928 L 0.55745256,1274.6052 L 2000.5262,1274.6052 L 2000.5262,1272.2928 L 0.55745256,1272.2928 z M 0.55745256,1277.0115 L 0.55745256,1279.3240 L 2000.5262,1279.3240 L 2000.5262,1277.0115 L 0.55745256,1277.0115 z M 0.55745256,1281.6365 L 0.55745256,1283.9178 L 2000.5262,1283.9178 L 2000.5262,1281.6365 L 0.55745256,1281.6365 z M 0.55745256,1286.2302 L 0.55745256,1288.5115 L 2000.5262,1288.5115 L 2000.5262,1286.2302 L 0.55745256,1286.2302 z M 0.55745256,1290.8240 L 0.55745256,1293.1365 L 2000.5262,1293.1365 L 2000.5262,1290.8240 L 0.55745256,1290.8240 z M 0.55745256,1295.5428 L 0.55745256,1297.8552 L 2000.5262,1297.8552 L 2000.5262,1295.5428 L 0.55745256,1295.5428 z M 0.55745256,1300.1678 L 0.55745256,1302.4490 L 2000.5262,1302.4490 L 2000.5262,1300.1678 L 0.55745256,1300.1678 z M 0.55745256,1304.8552 L 0.55745256,1307.1365 L 2000.5262,1307.1365 L 2000.5262,1304.8552 L 0.55745256,1304.8552 z M 0.55745256,1309.4490 L 0.55745256,1311.7615 L 2000.5262,1311.7615 L 2000.5262,1309.4490 L 0.55745256,1309.4490 z M 0.55745256,1314.1678 L 0.55745256,1316.4802 L 2000.5262,1316.4802 L 2000.5262,1314.1678 L 0.55745256,1314.1678 z M 0.55745256,1318.7928 L 0.55745256,1321.0740 L 2000.5262,1321.0740 L 2000.5262,1318.7928 L 0.55745256,1318.7928 z M 0.55745256,1323.3865 L 0.55745256,1325.6678 L 2000.5262,1325.6678 L 2000.5262,1323.3865 L 0.55745256,1323.3865 z M 0.55745256,1327.9802 L 0.55745256,1330.2928 L 2000.5262,1330.2928 L 2000.5262,1327.9802 L 0.55745256,1327.9802 z M 0.55745256,1332.6990 L 0.55745256,1335.0115 L 2000.5262,1335.0115 L 2000.5262,1332.6990 L 0.55745256,1332.6990 z M 0.55745256,1337.3240 L 0.55745256,1339.6052 L 2000.5262,1339.6052 L 2000.5262,1337.3240 L 0.55745256,1337.3240 z M 0.55745256,1341.9802 L 0.55745256,1344.2615 L 2000.5262,1344.2615 L 2000.5262,1341.9802 L 0.55745256,1341.9802 z M 0.55745256,1346.5740 L 0.55745256,1348.8865 L 2000.5262,1348.8865 L 2000.5262,1346.5740 L 0.55745256,1346.5740 z M 0.55745256,1351.2928 L 0.55745256,1353.6052 L 2000.5262,1353.6052 L 2000.5262,1351.2928 L 0.55745256,1351.2928 z M 0.55745256,1355.9178 L 0.55745256,1358.1990 L 2000.5262,1358.1990 L 2000.5262,1355.9178 L 0.55745256,1355.9178 z M 0.55745256,1360.5115 L 0.55745256,1362.7928 L 2000.5262,1362.7928 L 2000.5262,1360.5115 L 0.55745256,1360.5115 z M 0.55745256,1365.1052 L 0.55745256,1367.4178 L 2000.5262,1367.4178 L 2000.5262,1365.1052 L 0.55745256,1365.1052 z M 0.55745256,1369.8240 L 0.55745256,1372.1365 L 2000.5262,1372.1365 L 2000.5262,1369.8240 L 0.55745256,1369.8240 z M 0.55745256,1374.4490 L 0.55745256,1376.7302 L 2000.5262,1376.7302 L 2000.5262,1374.4490 L 0.55745256,1374.4490 z M 0.55745256,1379.1365 L 0.55745256,1381.4178 L 2000.5262,1381.4178 L 2000.5262,1379.1365 L 0.55745256,1379.1365 z M 0.55745256,1383.7302 L 0.55745256,1386.0428 L 2000.5262,1386.0428 L 2000.5262,1383.7302 L 0.55745256,1383.7302 z M 0.55745256,1388.4490 L 0.55745256,1390.7615 L 2000.5262,1390.7615 L 2000.5262,1388.4490 L 0.55745256,1388.4490 z M 0.55745256,1393.0740 L 0.55745256,1395.3552 L 2000.5262,1395.3552 L 2000.5262,1393.0740 L 0.55745256,1393.0740 z M 0.55745256,1397.6678 L 0.55745256,1399.9490 L 2000.5262,1399.9490 L 2000.5262,1397.6678 L 0.55745256,1397.6678 z M 0.55745256,1402.2615 L 0.55745256,1404.5740 L 2000.5262,1404.5740 L 2000.5262,1402.2615 L 0.55745256,1402.2615 z M 0.55745256,1406.9802 L 0.55745256,1409.2928 L 2000.5262,1409.2928 L 2000.5262,1406.9802 L 0.55745256,1406.9802 z M 0.55745256,1411.6052 L 0.55745256,1413.8865 L 2000.5262,1413.8865 L 2000.5262,1411.6052 L 0.55745256,1411.6052 z M 0.55745256,1416.2928 L 0.55745256,1418.5740 L 2000.5262,1418.5740 L 2000.5262,1416.2928 L 0.55745256,1416.2928 z M 0.55745256,1420.8865 L 0.55745256,1423.1990 L 2000.5262,1423.1990 L 2000.5262,1420.8865 L 0.55745256,1420.8865 z M 0.55745256,1425.6052 L 0.55745256,1427.9178 L 2000.5262,1427.9178 L 2000.5262,1425.6052 L 0.55745256,1425.6052 z M 0.55745256,1430.2302 L 0.55745256,1432.5115 L 2000.5262,1432.5115 L 2000.5262,1430.2302 L 0.55745256,1430.2302 z M 0.55745256,1434.8240 L 0.55745256,1437.1052 L 2000.5262,1437.1052 L 2000.5262,1434.8240 L 0.55745256,1434.8240 z M 0.55745256,1439.4178 L 0.55745256,1441.7302 L 2000.5262,1441.7302 L 2000.5262,1439.4178 L 0.55745256,1439.4178 z M 0.55745256,1444.1365 L 0.55745256,1446.4490 L 2000.5262,1446.4490 L 2000.5262,1444.1365 L 0.55745256,1444.1365 z M 0.55745256,1448.7615 L 0.55745256,1451.0428 L 2000.5262,1451.0428 L 2000.5262,1448.7615 L 0.55745256,1448.7615 z M 0.55745256,1453.4490 L 0.55745256,1455.7302 L 2000.5262,1455.7302 L 2000.5262,1453.4490 L 0.55745256,1453.4490 z M 0.55745256,1458.0428 L 0.55745256,1460.3552 L 2000.5262,1460.3552 L 2000.5262,1458.0428 L 0.55745256,1458.0428 z M 0.55745256,1462.7615 L 0.55745256,1465.0740 L 2000.5262,1465.0740 L 2000.5262,1462.7615 L 0.55745256,1462.7615 z M 0.55745256,1467.3865 L 0.55745256,1469.6678 L 2000.5262,1469.6678 L 2000.5262,1467.3865 L 0.55745256,1467.3865 z M 0.55745256,1471.9802 L 0.55745256,1474.2615 L 2000.5262,1474.2615 L 2000.5262,1471.9802 L 0.55745256,1471.9802 z M 0.55745256,1476.5740 L 0.55745256,1478.8865 L 2000.5262,1478.8865 L 2000.5262,1476.5740 L 0.55745256,1476.5740 z M 0.55745256,1481.2928 L 0.55745256,1483.6052 L 2000.5262,1483.6052 L 2000.5262,1481.2928 L 0.55745256,1481.2928 z M 0.55745256,1485.9178 L 0.55745256,1488.1990 L 2000.5262,1488.1990 L 2000.5262,1485.9178 L 0.55745256,1485.9178 z M 0.55745256,1490.6365 L 0.55745256,1492.9178 L 2000.5262,1492.9178 L 2000.5262,1490.6365 L 0.55745256,1490.6365 z M 0.55745256,1495.2302 L 0.55745256,1497.5428 L 2000.5262,1497.5428 L 2000.5262,1495.2302 L 0.55745256,1495.2302 z M 0.55745256,1499.9490 L 0.55745256,1501.7302 L 2000.5262,1501.7302 L 2000.5262,1499.9490 L 0.55745256,1499.9490 z "
     id="path2363" />
  <g
     id="g1320"
     transform="translate(-39.50128,24.92269)">
    <path
       style="fill:#000000;fill-opacity:0.29999998;stroke:#261933;stroke-width:0.0000000;"
       d="M 889.82527,681.31948 C 906.86576,664.47864 904.19099,665.22954 919.70601,658.33396 C 927.46356,654.88662 930.36038,653.36829 938.01495,653.32827 C 945.66961,653.28737 956.48241,654.32453 964.07705,656.78518 C 979.26599,661.70650 972.64801,661.20705 981.26727,658.90911 C 989.88644,656.61029 988.66224,654.88662 989.23646,648.56532 C 989.81076,642.24438 990.38592,603.16953 994.98266,594.55003 C 999.57940,585.93053 999.00518,583.63197 1004.7513,593.40072 C 1010.4975,603.16945 1012.7963,627.30402 1016.2445,635.34880 C 1019.6918,643.39368 1020.8412,647.99071 1022.5649,649.13994 C 1024.2886,650.28926 1023.1401,651.43849 1031.7593,649.71464 C 1040.3785,647.99071 1049.5729,648.56532 1057.0427,649.13994 C 1064.5135,649.71464 1067.9608,650.28926 1071.4090,649.71464 C 1074.8564,649.13994 1075.4315,650.28926 1077.7295,646.26677 C 1080.0282,642.24438 1086.3487,626.15469 1086.9238,618.10990 C 1087.4981,610.06500 1085.7744,581.90805 1082.3271,575.58710 C 1078.8788,569.26620 1082.3271,566.39302 1089.7970,575.58710 C 1097.2667,584.78130 1104.0639,599.14713 1106.9370,606.61722 C 1109.8101,614.08741 1108.6808,612.60132 1110.2659,623.51928 C 1109.1164,634.43733 1107.7501,643.18401 1103.4757,648.74788 C 1101.4560,653.66698 1098.4161,658.69926 1105.3117,658.33396 C 1112.2073,656.03516 1115.0803,651.43849 1121.9759,646.84148 C 1128.8715,642.24438 1146.1109,633.05034 1159.9020,631.32641 C 1173.6931,629.60248 1176.5662,630.75179 1182.3124,633.05034 C 1188.0585,635.34880 1188.0585,632.47564 1195.5292,638.22198 C 1202.9990,643.96831 1212.1935,650.28926 1205.2979,658.90911 C 1198.4023,667.52834 1189.7830,665.80467 1185.7606,670.40143 C 1181.7381,674.99818 1171.3943,678.44640 1165.6482,679.59581 C 1159.9020,680.74434 1130.5960,681.89375 1126.5735,680.74434 C 1122.5511,679.59581 1113.3567,672.12511 1117.9535,683.04315 C 1122.5511,693.96121 1128.2972,720.39406 1129.4467,730.73785 C 1130.5960,741.08076 1134.6186,774.98432 1136.9165,789.92486 C 1139.2153,804.86539 1140.9390,818.08139 1142.0884,833.59706 C 1143.2377,849.11187 1139.2153,850.83554 1138.0658,857.73113 C 1136.9165,861.72637 1137.4916,861.75351 1129.4467,867.49975 C 1121.4017,873.24598 1120.5750,869.04947 1110.2322,872.49679 C 1099.8884,875.94496 1098.4161,874.97040 1088.6475,880.14148 C 1078.8788,885.31331 1059.9159,893.35827 1052.4460,887.03707 C 1044.9753,880.71663 1034.6324,866.35039 1023.1401,856.58177 C 1011.6469,846.81306 996.13204,824.40268 992.68382,787.62604 C 989.23646,750.84941 980.59205,712.17507 975.49584,700.08238 C 970.39962,687.98970 974.64403,686.34172 960.50485,694.53548 C 946.36574,702.73010 935.79575,703.15557 925.45238,703.15557 C 915.10893,703.15557 899.01927,696.26001 890.39983,691.66240 C 881.78040,687.06564 882.92961,688.21504 889.82527,681.31948 z "
       id="path4368"
       sodipodi:nodetypes="ccccccccccccccccccccccccccccccccccccccccccccc" />
    <path
       style="fill:#261933;stroke:#261933;stroke-width:0.0000000;"
       d="M 876.80429,672.39702 C 893.84478,655.55618 891.17002,656.30708 906.68512,649.41150 C 914.44258,645.96416 917.33940,644.44583 924.99398,644.40581 C 932.64863,644.36491 943.46143,645.40207 951.05607,647.86272 C 966.24502,652.78404 959.62703,652.28460 968.24629,649.98665 C 976.86547,647.68783 975.64126,645.96416 976.21557,639.64286 C 976.78978,633.32192 977.36494,594.24707 981.96168,585.62757 C 986.55842,577.00807 985.98421,574.70951 991.73032,584.47826 C 997.47652,594.24699 999.77528,618.38155 1003.2235,626.42634 C 1006.6709,634.47122 1007.8203,639.06825 1009.5440,640.21748 C 1011.2676,641.36680 1010.1191,642.51603 1018.7383,640.79217 C 1027.3576,639.06825 1036.5520,639.64286 1044.0218,640.21748 C 1051.4925,640.79217 1054.9398,641.36680 1058.3881,640.79217 C 1061.8354,640.21748 1062.4106,641.36680 1064.7085,637.34431 C 1067.0073,633.32192 1073.3278,617.23223 1073.9029,609.18744 C 1074.4771,601.14255 1072.7535,572.98559 1069.3061,566.66463 C 1065.8579,560.34373 1069.3061,557.47056 1076.7760,566.66463 C 1084.2458,575.85883 1091.0429,590.22467 1093.9161,597.69476 C 1096.7891,605.16495 1095.6598,603.67886 1097.2449,614.59682 C 1096.0955,625.51487 1094.7291,634.26155 1090.4547,639.82542 C 1088.4351,644.74451 1085.3952,649.77680 1092.2907,649.41150 C 1099.1863,647.11270 1102.0594,642.51603 1108.9549,637.91902 C 1115.8505,633.32192 1133.0899,624.12788 1146.8810,622.40395 C 1160.6721,620.68001 1163.5452,621.82934 1169.2914,624.12788 C 1175.0375,626.42634 1175.0375,623.55318 1182.5083,629.29952 C 1189.9781,635.04584 1199.1725,641.36680 1192.2769,649.98665 C 1185.3813,658.60588 1176.7621,656.88221 1172.7396,661.47897 C 1168.7171,666.07572 1158.3733,669.52393 1152.6272,670.67335 C 1146.8810,671.82188 1117.5751,672.97129 1113.5526,671.82188 C 1109.5301,670.67335 1100.3358,663.20265 1104.9325,674.12069 C 1109.5301,685.03875 1115.2763,711.47160 1116.4257,721.81539 C 1117.5751,732.15831 1121.5976,766.06185 1123.8955,781.00240 C 1126.1943,795.94293 1127.9180,809.15893 1129.0674,824.67460 C 1130.2168,840.18941 1126.1943,841.91309 1125.0449,848.80864 C 1123.8955,852.80393 1124.4706,852.83117 1116.4257,858.57730 C 1108.3807,864.32344 1107.5542,860.12693 1097.2112,863.57425 C 1086.8674,867.02252 1085.3952,866.04796 1075.6266,871.21904 C 1065.8579,876.39097 1046.8949,884.43592 1039.4250,878.11463 C 1031.9543,871.79419 1021.6114,857.42785 1010.1191,847.65924 C 998.62590,837.89060 983.11115,815.48022 979.66293,778.70358 C 976.21557,741.92695 967.57108,703.25261 962.47486,691.15992 C 957.37865,679.06724 961.62305,677.41926 947.48386,685.61302 C 933.34477,693.80764 922.77478,694.23311 912.43141,694.23311 C 902.08794,694.23311 885.99829,687.33755 877.37886,682.73993 C 868.75942,678.14318 869.90863,679.29258 876.80429,672.39702 z "
       id="path1221"
       sodipodi:nodetypes="ccccccccccccccccccccccccccccccccccccccccccccc" />
    <path
       style="fill:url(#linearGradient1532);stroke:#261933;stroke-width:0.0000000;"
       d="M 1123.4589,638.63427 C 1132.1437,636.42904 1133.9614,636.22854 1137.5968,634.42428 C 1141.2321,632.62000 1144.0597,632.82048 1152.1390,633.02097 C 1160.2183,633.22146 1163.4494,634.22379 1167.0847,635.82767 C 1170.7209,637.43145 1172.3364,637.83233 1167.0847,638.63427 C 1161.8338,639.43622 1148.7058,640.63902 1140.4243,641.24040 C 1132.1437,641.84185 1125.2765,642.64397 1121.2368,644.64880 C 1117.1972,646.65364 1113.7640,646.85344 1115.9860,644.64880 C 1118.2071,642.44330 1120.2269,639.63669 1123.4589,638.63427 z "
       id="path1224"
       sodipodi:nodetypes="ccccccccc" />
    <path
       style="fill:url(#linearGradient1527);stroke:#261933;stroke-width:0.0000000;"
       d="M 1139.1941,649.46026 C 1149.8989,648.65761 1156.1597,648.05652 1161.2092,646.65364 C 1166.2588,645.24991 1165.2489,646.25233 1170.4998,646.05168 C 1175.7515,645.85102 1176.3570,646.45299 1175.5493,647.85585 C 1174.7416,649.25960 1170.9041,652.66731 1167.0665,653.87039 C 1163.2290,655.07348 1160.4014,654.87281 1155.5541,658.28052 C 1150.7067,661.68910 1143.2338,663.09196 1134.9523,662.89131 C 1126.6718,662.69152 1120.8144,664.09439 1116.5726,662.08955 C 1112.3316,660.08470 1110.9174,658.88251 1114.3515,655.67457 C 1117.7846,652.46665 1120.4109,652.66731 1126.6718,651.46510 C 1132.9325,650.26201 1135.7601,649.66005 1139.1941,649.46026 z "
       id="path1225"
       sodipodi:nodetypes="ccccccccccc" />
    <path
       style="fill:url(#linearGradient1539);stroke:#261933;stroke-width:0.0000000;"
       d="M 983.30789,628.74360 C 983.52332,617.66319 984.82062,613.40146 986.11792,609.13974 C 987.41522,604.87801 987.19885,605.73041 988.92795,609.13974 C 990.65705,612.54908 993.03537,621.49873 993.89992,624.48187 C 994.76448,627.46511 997.14270,633.43150 998.22363,635.77546 C 999.30464,638.11932 1000.6019,640.46356 996.49453,640.88919 C 992.38719,641.31575 990.65705,641.95467 987.84702,641.95467 C 985.03699,641.95467 982.65877,640.03700 982.87505,636.20166 C 983.09143,632.36603 983.09143,629.80906 983.30789,628.74360 z "
       id="path1226"
       sodipodi:nodetypes="ccccccccc" />
    <path
       style="fill:url(#linearGradient1534);stroke:#261933;stroke-width:0.0000000;"
       d="M 1080.8609,614.63422 C 1081.4437,609.46848 1081.0970,605.06799 1081.0970,603.15475 C 1081.0970,601.24158 1081.1258,598.90488 1081.1258,597.56563 C 1081.1258,596.22639 1081.2495,593.77983 1081.2495,591.86659 C 1081.2495,589.95343 1079.9494,579.33599 1082.0849,585.45840 C 1084.2202,591.58072 1088.1012,599.48921 1088.8158,606.84021 C 1090.1741,612.57988 1088.3195,618.68051 1088.3195,621.16767 C 1088.3195,623.65491 1086.8785,627.64421 1085.1317,632.80996 C 1083.3848,637.97578 1082.8781,642.93296 1079.9665,643.12430 C 1077.0557,643.31562 1074.6499,641.80228 1071.9325,641.80228 C 1069.2152,641.80228 1069.4095,641.41961 1071.3506,638.93237 C 1073.2917,636.44512 1079.5027,624.96580 1080.8609,614.63422 z "
       id="path1227"
       sodipodi:nodetypes="cccccccccccc" />
    <path
       style="fill:url(#linearGradient1522);stroke:#261933;stroke-width:0.0000000;"
       d="M 991.17677,743.81048 C 989.11712,728.15811 988.70572,719.50825 985.41016,709.21016 C 982.11555,698.91298 973.05337,674.61074 970.17007,668.01960 C 967.28677,661.42937 968.93416,659.78203 975.93668,658.13380 C 982.93920,656.48646 1009.3010,648.24799 1024.9534,649.07256 C 1040.6058,649.89622 1052.1389,644.12965 1068.6149,653.19090 C 1085.0910,662.25303 1090.4462,657.72242 1094.5645,675.02212 C 1098.6838,692.32183 1103.6267,732.68872 1106.0986,745.45781 C 1108.5696,758.22691 1113.9248,802.30074 1115.5721,808.06732 C 1117.2195,813.83389 1118.8677,815.48123 1107.7459,815.06984 C 1096.6242,814.65756 1082.2077,813.83389 1064.9080,822.07236 C 1047.6083,830.30994 1033.1910,841.01940 1029.0727,845.96231 C 1024.9534,850.90519 1024.9534,848.43421 1019.5982,843.90269 C 1014.2440,839.37207 1003.5345,823.71970 1001.0626,810.12694 C 998.59155,796.53418 992.82503,769.34866 992.41268,762.34614 C 992.00042,755.34362 991.17677,749.16477 991.17677,743.81048 z "
       id="path1228"
       sodipodi:nodetypes="cccccccccccccccc" />
    <path
       style="fill:#261933;stroke:#261933;stroke-width:0.0000000;"
       d="M 1010.4301,720.96258 C 1019.7313,717.15784 1022.6906,716.73561 1026.9186,720.54035 C 1031.1464,724.34509 1035.3743,730.79273 1031.1464,735.01973 C 1026.9186,739.24762 1024.8046,739.14183 1020.1545,742.52434 C 1015.5034,745.90685 1010.4301,744.21514 1007.4708,742.52434 C 1004.5114,740.83355 1003.6660,738.29644 1002.8206,734.49170 C 1001.9752,730.68695 1004.9345,724.76826 1010.4301,720.96258 z "
       id="path1229"
       sodipodi:nodetypes="ccccccc" />
    <path
       style="fill:#261933;stroke:#261933;stroke-width:0.0000000;"
       d="M 1070.7674,694.32852 C 1078.3546,694.59857 1080.9288,696.49595 1080.9288,701.91568 C 1080.9288,707.33426 1074.6954,710.72219 1070.9018,710.72219 C 1067.1082,710.72219 1063.0447,707.46987 1061.9598,703.13502 C 1060.8760,698.79898 1062.5022,694.19290 1070.7674,694.32852 z "
       id="path1230"
       sodipodi:nodetypes="ccccc" />
    <path
       style="fill:url(#linearGradient1534);fill-opacity:1.0000000;stroke:none;stroke-width:0.62500000;"
       d="M 944.82572,669.60726 C 948.34661,669.76742 948.08374,670.21767 948.08365,672.29861 C 948.08365,674.37888 948.50142,673.86942 946.10055,674.98999 C 943.70010,676.11057 930.82395,680.63231 925.70285,682.07255 C 920.58167,683.51276 916.14947,685.02868 914.22905,685.18887 C 912.30862,685.34835 907.74564,684.24476 900.06394,681.36429 C 895.74308,680.24371 893.73405,679.45460 895.81446,678.81458 C 897.89494,678.17455 898.15110,677.82820 902.47205,676.54815 C 906.79292,675.26809 922.66973,672.12579 928.11087,671.16541 C 933.55210,670.20503 941.30491,669.44707 944.82572,669.60726 z "
       id="path1009" />
    <path
       style="fill:url(#linearGradient1532);fill-opacity:1.0000000;stroke:none;stroke-width:0.62500000;"
       d="M 919.58701,658.84177 C 933.46987,659.43474 936.19552,661.26126 940.93511,663.03839 C 945.67478,664.81553 942.11565,665.27355 936.19105,664.68055 C 930.26653,664.08848 910.82448,664.49809 906.08481,664.49809 C 901.34523,664.49809 901.20781,663.17337 905.35493,661.39623 C 909.50212,659.61821 914.25488,658.84177 919.58701,658.84177 z "
       id="path1008" />
  </g>
  <metadata
     id="metadata1043">
    <rdf:RDF
       id="RDF1044">
      <cc:Work
         rdf:about=""
         id="Work1045">
        <dc:format
           id="format1046">image/svg+xml</dc:format>
        <dc:type
           id="type1048"
           rdf:resource="http://purl.org/dc/dcmitype/StillImage" />
      </cc:Work>
    </rdf:RDF>
  </metadata>
</svg>
