<?xml version="1.0" encoding="UTF-8" standalone="no"?>
<!DOCTYPE svg PUBLIC "-//W3C//DTD SVG 20010904//EN"
"http://www.w3.org/TR/2001/REC-SVG-20010904/DTD/svg10.dtd">
<!-- Created with Inkscape (http://www.inkscape.org/) -->
<svg
   id="svg1"
   sodipodi:version="0.32"
   inkscape:version="0.38cvs-040410.1009"
   width="1600.0000pt"
   height="1200.0000pt"
   sodipodi:docname="lilaagent-no-g.svg"
   xmlns="http://www.w3.org/2000/svg"
   xmlns:inkscape="http://www.inkscape.org/namespaces/inkscape"
   xmlns:sodipodi="http://sodipodi.sourceforge.net/DTD/sodipodi-0.dtd"
   xmlns:xlink="http://www.w3.org/1999/xlink"
   sodipodi:docbase="C:\Documents and Settings\Chad Corkrum\Desktop">
  <defs
     id="defs3">
    <linearGradient
       id="linearGradient724">
      <stop
         offset="0.00000000"
         style="stop-color:#7f7366;stop-opacity:1;"
         id="stop726" />
      <stop
         offset="1.00000000"
         style="stop-color:#000000;stop-opacity:1;"
         id="stop725" />
    </linearGradient>
    <linearGradient
       id="linearGradient721">
      <stop
         offset="0.00000000"
         style="stop-color:#ffffff;stop-opacity:1;"
         id="stop723" />
      <stop
         offset="1.00000000"
         style="stop-color:#ffffff;stop-opacity:0;"
         id="stop722" />
    </linearGradient>
    <linearGradient
       id="linearGradient718">
      <stop
         offset="0.00000000"
         style="stop-color:#000000;stop-opacity:0.145833;"
         id="stop720" />
      <stop
         offset="1.00000000"
         style="stop-color:#000000;stop-opacity:0.536;"
         id="stop719" />
    </linearGradient>
    <linearGradient
       id="linearGradient715">
      <stop
         offset="0.00000000"
         style="stop-color:#d9cce6;stop-opacity:1;"
         id="stop717" />
      <stop
         offset="1.00000000"
         style="stop-color:#73667f;stop-opacity:1;"
         id="stop716" />
    </linearGradient>
    <linearGradient
       id="linearGradient2342">
      <stop
         style="stop-color:#bfb5cc;stop-opacity:1.0000000;"
         offset="0.00000000"
         id="stop2343" />
      <stop
         style="stop-color:#3f334c;stop-opacity:1.0000000;"
         offset="1.0000000"
         id="stop2344" />
    </linearGradient>
    <radialGradient
       xlink:href="#linearGradient2342"
       id="radialGradient945"
       cx="0.54069769"
       cy="0.27343750"
       r="0.68023252"
       fx="0.54069763"
       fy="0.25000000"
       spreadMethod="pad"
       gradientUnits="objectBoundingBox" />
    <linearGradient
       xlink:href="#linearGradient718"
       id="linearGradient713"
       x1="0.09797297"
       y1="0.26116756"
       x2="0.46283785"
       y2="0.26116756" />
    <linearGradient
       xlink:href="#linearGradient718"
       id="linearGradient714"
       x1="0.08492053"
       y1="0.80050188"
       x2="0.40117627"
       y2="0.80050188"
       gradientTransform="scale(1.153702,0.866775)" />
  </defs>
  <sodipodi:namedview
     id="base"
     pagecolor="#ffffff"
     bordercolor="#666666"
     borderopacity="1.0"
     inkscape:pageopacity="0.0"
     inkscape:pageshadow="2"
     inkscape:zoom="0.45474138"
     inkscape:cx="808.93016"
     inkscape:cy="599.62651"
     inkscape:window-width="1028"
     inkscape:window-height="753"
     inkscape:window-x="0"
     inkscape:window-y="0" />
  <rect
     style="fill:url(#radialGradient945);fill-rule:evenodd;stroke-width:1.0000000pt;fill-opacity:1.0000000;"
     id="rect2341"
     width="1999.9939"
     height="1499.9821"
     x="0.0027637184"
     y="0.0062760115" />
  <path
     style="fill:none;fill-rule:evenodd;stroke-width:1.0000000pt;fill-opacity:0.33870968;"
     d="M -0.00063329707,0.0064777637 L -0.00063329707,2.2877281 L 1999.9682,2.2877281 L 1999.9682,0.0064777637 L -0.00063329707,0.0064777637 z M -0.00063329707,4.6002281 L -0.00063329707,6.9127281 L 1999.9682,6.9127281 L 1999.9682,4.6002281 L -0.00063329707,4.6002281 z M -0.00063329707,9.3189777 L -0.00063329707,11.631478 L 1999.9682,11.631478 L 1999.9682,9.3189777 L -0.00063329707,9.3189777 z M -0.00063329707,13.943978 L -0.00063329707,16.225228 L 1999.9682,16.225228 L 1999.9682,13.943978 L -0.00063329707,13.943978 z M -0.00063329707,18.537728 L -0.00063329707,20.818978 L 1999.9682,20.818978 L 1999.9682,18.537728 L -0.00063329707,18.537728 z M -0.00063329707,23.131478 L -0.00063329707,25.443978 L 1999.9682,25.443978 L 1999.9682,23.131478 L -0.00063329707,23.131478 z M -0.00063329707,27.850228 L -0.00063329707,30.162728 L 1999.9682,30.162728 L 1999.9682,27.850228 L -0.00063329707,27.850228 z M -0.00063329707,32.475228 L -0.00063329707,34.756478 L 1999.9682,34.756478 L 1999.9682,32.475228 L -0.00063329707,32.475228 z M -0.00063329707,37.162728 L -0.00063329707,39.443978 L 1999.9682,39.443978 L 1999.9682,37.162728 L -0.00063329707,37.162728 z M -0.00063329707,41.756478 L -0.00063329707,44.068978 L 1999.9682,44.068978 L 1999.9682,41.756478 L -0.00063329707,41.756478 z M -0.00063329707,46.475228 L -0.00063329707,48.787728 L 1999.9682,48.787728 L 1999.9682,46.475228 L -0.00063329707,46.475228 z M -0.00063329707,51.100228 L -0.00063329707,53.381478 L 1999.9682,53.381478 L 1999.9682,51.100228 L -0.00063329707,51.100228 z M -0.00063329707,55.693978 L -0.00063329707,57.975228 L 1999.9682,57.975228 L 1999.9682,55.693978 L -0.00063329707,55.693978 z M -0.00063329707,60.287728 L -0.00063329707,62.600228 L 1999.9682,62.600228 L 1999.9682,60.287728 L -0.00063329707,60.287728 z M -0.00063329707,65.006478 L -0.00063329707,67.318978 L 1999.9682,67.318978 L 1999.9682,65.006478 L -0.00063329707,65.006478 z M -0.00063329707,69.631478 L -0.00063329707,71.912728 L 1999.9682,71.912728 L 1999.9682,69.631478 L -0.00063329707,69.631478 z M -0.00063329707,74.318978 L -0.00063329707,76.600228 L 1999.9682,76.600228 L 1999.9682,74.318978 L -0.00063329707,74.318978 z M -0.00063329707,78.912728 L -0.00063329707,81.225228 L 1999.9682,81.225228 L 1999.9682,78.912728 L -0.00063329707,78.912728 z M -0.00063329707,83.631478 L -0.00063329707,85.943978 L 1999.9682,85.943978 L 1999.9682,83.631478 L -0.00063329707,83.631478 z M -0.00063329707,88.256478 L -0.00063329707,90.537728 L 1999.9682,90.537728 L 1999.9682,88.256478 L -0.00063329707,88.256478 z M -0.00063329707,92.850226 L -0.00063329707,95.131476 L 1999.9682,95.131476 L 1999.9682,92.850226 L -0.00063329707,92.850226 z M -0.00063329707,97.443976 L -0.00063329707,99.756479 L 1999.9682,99.756479 L 1999.9682,97.443976 L -0.00063329707,97.443976 z M -0.00063329707,102.16273 L -0.00063329707,104.47523 L 1999.9682,104.47523 L 1999.9682,102.16273 L -0.00063329707,102.16273 z M -0.00063329707,106.78773 L -0.00063329707,109.06898 L 1999.9682,109.06898 L 1999.9682,106.78773 L -0.00063329707,106.78773 z M -0.00063329707,111.47523 L -0.00063329707,113.75648 L 1999.9682,113.75648 L 1999.9682,111.47523 L -0.00063329707,111.47523 z M -0.00063329707,116.06898 L -0.00063329707,118.38148 L 1999.9682,118.38148 L 1999.9682,116.06898 L -0.00063329707,116.06898 z M -0.00063329707,120.78773 L -0.00063329707,123.10023 L 1999.9682,123.10023 L 1999.9682,120.78773 L -0.00063329707,120.78773 z M -0.00063329707,125.41273 L -0.00063329707,127.69398 L 1999.9682,127.69398 L 1999.9682,125.41273 L -0.00063329707,125.41273 z M -0.00063329707,130.00648 L -0.00063329707,132.28773 L 1999.9682,132.28773 L 1999.9682,130.00648 L -0.00063329707,130.00648 z M -0.00063329707,134.60023 L -0.00063329707,136.91273 L 1999.9682,136.91273 L 1999.9682,134.60023 L -0.00063329707,134.60023 z M -0.00063329707,139.31898 L -0.00063329707,141.63148 L 1999.9682,141.63148 L 1999.9682,139.31898 L -0.00063329707,139.31898 z M -0.00063329707,143.94398 L -0.00063329707,146.22523 L 1999.9682,146.22523 L 1999.9682,143.94398 L -0.00063329707,143.94398 z M -0.00063329707,148.60023 L -0.00063329707,150.88148 L 1999.9682,150.88148 L 1999.9682,148.60023 L -0.00063329707,148.60023 z M -0.00063329707,153.19398 L -0.00063329707,155.50648 L 1999.9682,155.50648 L 1999.9682,153.19398 L -0.00063329707,153.19398 z M -0.00063329707,157.91273 L -0.00063329707,160.22523 L 1999.9682,160.22523 L 1999.9682,157.91273 L -0.00063329707,157.91273 z M -0.00063329707,162.53773 L -0.00063329707,164.81898 L 1999.9682,164.81898 L 1999.9682,162.53773 L -0.00063329707,162.53773 z M -0.00063329707,167.13148 L -0.00063329707,169.41273 L 1999.9682,169.41273 L 1999.9682,167.13148 L -0.00063329707,167.13148 z M -0.00063329707,171.72523 L -0.00063329707,174.03773 L 1999.9682,174.03773 L 1999.9682,171.72523 L -0.00063329707,171.72523 z M -0.00063329707,176.44398 L -0.00063329707,178.75648 L 1999.9682,178.75648 L 1999.9682,176.44398 L -0.00063329707,176.44398 z M -0.00063329707,181.06898 L -0.00063329707,183.35023 L 1999.9682,183.35023 L 1999.9682,181.06898 L -0.00063329707,181.06898 z M -0.00063329707,185.75648 L -0.00063329707,188.03773 L 1999.9682,188.03773 L 1999.9682,185.75648 L -0.00063329707,185.75648 z M -0.00063329707,190.35023 L -0.00063329707,192.66273 L 1999.9682,192.66273 L 1999.9682,190.35023 L -0.00063329707,190.35023 z M -0.00063329707,195.06898 L -0.00063329707,197.38148 L 1999.9682,197.38148 L 1999.9682,195.06898 L -0.00063329707,195.06898 z M -0.00063329707,199.69398 L -0.00063329707,201.97523 L 1999.9682,201.97523 L 1999.9682,199.69398 L -0.00063329707,199.69398 z M -0.00063329707,204.28773 L -0.00063329707,206.56898 L 1999.9682,206.56898 L 1999.9682,204.28773 L -0.00063329707,204.28773 z M -0.00063329707,208.88148 L -0.00063329707,211.19398 L 1999.9682,211.19398 L 1999.9682,208.88148 L -0.00063329707,208.88148 z M -0.00063329707,213.60023 L -0.00063329707,215.91273 L 1999.9682,215.91273 L 1999.9682,213.60023 L -0.00063329707,213.60023 z M -0.00063329707,218.22523 L -0.00063329707,220.50648 L 1999.9682,220.50648 L 1999.9682,218.22523 L -0.00063329707,218.22523 z M -0.00063329707,222.91273 L -0.00063329707,225.19398 L 1999.9682,225.19398 L 1999.9682,222.91273 L -0.00063329707,222.91273 z M -0.00063329707,227.50648 L -0.00063329707,229.81898 L 1999.9682,229.81898 L 1999.9682,227.50648 L -0.00063329707,227.50648 z M -0.00063329707,232.22523 L -0.00063329707,234.53773 L 1999.9682,234.53773 L 1999.9682,232.22523 L -0.00063329707,232.22523 z M -0.00063329707,236.85023 L -0.00063329707,239.13148 L 1999.9682,239.13148 L 1999.9682,236.85023 L -0.00063329707,236.85023 z M -0.00063329707,241.44398 L -0.00063329707,243.72523 L 1999.9682,243.72523 L 1999.9682,241.44398 L -0.00063329707,241.44398 z M -0.00063329707,246.03773 L -0.00063329707,248.35023 L 1999.9682,248.35023 L 1999.9682,246.03773 L -0.00063329707,246.03773 z M -0.00063329707,250.75648 L -0.00063329707,253.06898 L 1999.9682,253.06898 L 1999.9682,250.75648 L -0.00063329707,250.75648 z M -0.00063329707,255.38148 L -0.00063329707,257.66273 L 1999.9682,257.66273 L 1999.9682,255.38148 L -0.00063329707,255.38148 z M -0.00063329707,260.06898 L -0.00063329707,262.35023 L 1999.9682,262.35023 L 1999.9682,260.06898 L -0.00063329707,260.06898 z M -0.00063329707,264.66273 L -0.00063329707,266.97523 L 1999.9682,266.97523 L 1999.9682,264.66273 L -0.00063329707,264.66273 z M -0.00063329707,269.38148 L -0.00063329707,271.69398 L 1999.9682,271.69398 L 1999.9682,269.38148 L -0.00063329707,269.38148 z M -0.00063329707,274.00648 L -0.00063329707,276.28773 L 1999.9682,276.28773 L 1999.9682,274.00648 L -0.00063329707,274.00648 z M -0.00063329707,278.60023 L -0.00063329707,280.88148 L 1999.9682,280.88148 L 1999.9682,278.60023 L -0.00063329707,278.60023 z M -0.00063329707,283.19398 L -0.00063329707,285.50648 L 1999.9682,285.50648 L 1999.9682,283.19398 L -0.00063329707,283.19398 z M -0.00063329707,287.91273 L -0.00063329707,290.22523 L 1999.9682,290.22523 L 1999.9682,287.91273 L -0.00063329707,287.91273 z M -0.00063329707,292.53773 L -0.00063329707,294.81898 L 1999.9682,294.81898 L 1999.9682,292.53773 L -0.00063329707,292.53773 z M -0.00063329707,297.25648 L -0.00063329707,299.53773 L 1999.9682,299.53773 L 1999.9682,297.25648 L -0.00063329707,297.25648 z M -0.00063329707,301.85023 L -0.00063329707,304.16273 L 1999.9682,304.16273 L 1999.9682,301.85023 L -0.00063329707,301.85023 z M -0.00063329707,306.56898 L -0.00063329707,308.88148 L 1999.9682,308.88148 L 1999.9682,306.56898 L -0.00063329707,306.56898 z M -0.00063329707,311.19398 L -0.00063329707,313.47523 L 1999.9682,313.47523 L 1999.9682,311.19398 L -0.00063329707,311.19398 z M -0.00063329707,315.78773 L -0.00063329707,318.06898 L 1999.9682,318.06898 L 1999.9682,315.78773 L -0.00063329707,315.78773 z M -0.00063329707,320.38148 L -0.00063329707,322.69398 L 1999.9682,322.69398 L 1999.9682,320.38148 L -0.00063329707,320.38148 z M -0.00063329707,325.10023 L -0.00063329707,327.41273 L 1999.9682,327.41273 L 1999.9682,325.10023 L -0.00063329707,325.10023 z M -0.00063329707,329.72523 L -0.00063329707,332.00648 L 1999.9682,332.00648 L 1999.9682,329.72523 L -0.00063329707,329.72523 z M -0.00063329707,334.41273 L -0.00063329707,336.69398 L 1999.9682,336.69398 L 1999.9682,334.41273 L -0.00063329707,334.41273 z M -0.00063329707,339.00648 L -0.00063329707,341.31898 L 1999.9682,341.31898 L 1999.9682,339.00648 L -0.00063329707,339.00648 z M -0.00063329707,343.72523 L -0.00063329707,346.03773 L 1999.9682,346.03773 L 1999.9682,343.72523 L -0.00063329707,343.72523 z M -0.00063329707,348.35023 L -0.00063329707,350.63148 L 1999.9682,350.63148 L 1999.9682,348.35023 L -0.00063329707,348.35023 z M -0.00063329707,352.94398 L -0.00063329707,355.22523 L 1999.9682,355.22523 L 1999.9682,352.94398 L -0.00063329707,352.94398 z M -0.00063329707,357.53773 L -0.00063329707,359.85023 L 1999.9682,359.85023 L 1999.9682,357.53773 L -0.00063329707,357.53773 z M -0.00063329707,362.25648 L -0.00063329707,364.56898 L 1999.9682,364.56898 L 1999.9682,362.25648 L -0.00063329707,362.25648 z M -0.00063329707,366.88148 L -0.00063329707,369.16273 L 1999.9682,369.16273 L 1999.9682,366.88148 L -0.00063329707,366.88148 z M -0.00063329707,371.56898 L -0.00063329707,373.85023 L 1999.9682,373.85023 L 1999.9682,371.56898 L -0.00063329707,371.56898 z M -0.00063329707,376.16273 L -0.00063329707,378.47523 L 1999.9682,378.47523 L 1999.9682,376.16273 L -0.00063329707,376.16273 z M -0.00063329707,380.88148 L -0.00063329707,383.19398 L 1999.9682,383.19398 L 1999.9682,380.88148 L -0.00063329707,380.88148 z M -0.00063329707,385.50648 L -0.00063329707,387.78773 L 1999.9682,387.78773 L 1999.9682,385.50648 L -0.00063329707,385.50648 z M -0.00063329707,390.10023 L -0.00063329707,392.38148 L 1999.9682,392.38148 L 1999.9682,390.10023 L -0.00063329707,390.10023 z M -0.00063329707,394.69398 L -0.00063329707,397.00648 L 1999.9682,397.00648 L 1999.9682,394.69398 L -0.00063329707,394.69398 z M -0.00063329707,399.41271 L -0.00063329707,401.72521 L 1999.9682,401.72521 L 1999.9682,399.41271 L -0.00063329707,399.41271 z M -0.00063329707,404.03771 L -0.00063329707,406.31901 L 1999.9682,406.31901 L 1999.9682,404.03771 L -0.00063329707,404.03771 z M -0.00063329707,408.72521 L -0.00063329707,411.00651 L 1999.9682,411.00651 L 1999.9682,408.72521 L -0.00063329707,408.72521 z M -0.00063329707,413.31901 L -0.00063329707,415.63151 L 1999.9682,415.63151 L 1999.9682,413.31901 L -0.00063329707,413.31901 z M -0.00063329707,418.03771 L -0.00063329707,420.35021 L 1999.9682,420.35021 L 1999.9682,418.03771 L -0.00063329707,418.03771 z M -0.00063329707,422.66271 L -0.00063329707,424.94401 L 1999.9682,424.94401 L 1999.9682,422.66271 L -0.00063329707,422.66271 z M -0.00063329707,427.25651 L -0.00063329707,429.53771 L 1999.9682,429.53771 L 1999.9682,427.25651 L -0.00063329707,427.25651 z M -0.00063329707,431.85021 L -0.00063329707,434.16271 L 1999.9682,434.16271 L 1999.9682,431.85021 L -0.00063329707,431.85021 z M -0.00063329707,436.56901 L -0.00063329707,438.88151 L 1999.9682,438.88151 L 1999.9682,436.56901 L -0.00063329707,436.56901 z M -0.00063329707,441.19401 L -0.00063329707,443.47521 L 1999.9682,443.47521 L 1999.9682,441.19401 L -0.00063329707,441.19401 z M -0.00063329707,445.85021 L -0.00063329707,448.13151 L 1999.9682,448.13151 L 1999.9682,445.85021 L -0.00063329707,445.85021 z M -0.00063329707,450.44401 L -0.00063329707,452.75651 L 1999.9682,452.75651 L 1999.9682,450.44401 L -0.00063329707,450.44401 z M -0.00063329707,455.16271 L -0.00063329707,457.47521 L 1999.9682,457.47521 L 1999.9682,455.16271 L -0.00063329707,455.16271 z M -0.00063329707,459.78771 L -0.00063329707,462.06901 L 1999.9682,462.06901 L 1999.9682,459.78771 L -0.00063329707,459.78771 z M -0.00063329707,464.38151 L -0.00063329707,466.66271 L 1999.9682,466.66271 L 1999.9682,464.38151 L -0.00063329707,464.38151 z M -0.00063329707,468.97521 L -0.00063329707,471.28771 L 1999.9682,471.28771 L 1999.9682,468.97521 L -0.00063329707,468.97521 z M -0.00063329707,473.69401 L -0.00063329707,476.00651 L 1999.9682,476.00651 L 1999.9682,473.69401 L -0.00063329707,473.69401 z M -0.00063329707,478.31901 L -0.00063329707,480.60021 L 1999.9682,480.60021 L 1999.9682,478.31901 L -0.00063329707,478.31901 z M -0.00063329707,483.00651 L -0.00063329707,485.28771 L 1999.9682,485.28771 L 1999.9682,483.00651 L -0.00063329707,483.00651 z M -0.00063329707,487.60021 L -0.00063329707,489.91271 L 1999.9682,489.91271 L 1999.9682,487.60021 L -0.00063329707,487.60021 z M -0.00063329707,492.31901 L -0.00063329707,494.63151 L 1999.9682,494.63151 L 1999.9682,492.31901 L -0.00063329707,492.31901 z M -0.00063329707,496.94401 L -0.00063329707,499.22521 L 1999.9682,499.22521 L 1999.9682,496.94401 L -0.00063329707,496.94401 z M -0.00063329707,501.53771 L -0.00063329707,503.81901 L 1999.9682,503.81901 L 1999.9682,501.53771 L -0.00063329707,501.53771 z M -0.00063329707,506.13151 L -0.00063329707,508.44401 L 1999.9682,508.44401 L 1999.9682,506.13151 L -0.00063329707,506.13151 z M -0.00063329707,510.85021 L -0.00063329707,513.16271 L 1999.9682,513.16271 L 1999.9682,510.85021 L -0.00063329707,510.85021 z M -0.00063329707,515.47521 L -0.00063329707,517.75651 L 1999.9682,517.75651 L 1999.9682,515.47521 L -0.00063329707,515.47521 z M -0.00063329707,520.16271 L -0.00063329707,522.44401 L 1999.9682,522.44401 L 1999.9682,520.16271 L -0.00063329707,520.16271 z M -0.00063329707,524.75651 L -0.00063329707,527.06901 L 1999.9682,527.06901 L 1999.9682,524.75651 L -0.00063329707,524.75651 z M -0.00063329707,529.47521 L -0.00063329707,531.78771 L 1999.9682,531.78771 L 1999.9682,529.47521 L -0.00063329707,529.47521 z M -0.00063329707,534.10021 L -0.00063329707,536.38151 L 1999.9682,536.38151 L 1999.9682,534.10021 L -0.00063329707,534.10021 z M -0.00063329707,538.69401 L -0.00063329707,540.97521 L 1999.9682,540.97521 L 1999.9682,538.69401 L -0.00063329707,538.69401 z M -0.00063329707,543.28771 L -0.00063329707,545.60021 L 1999.9682,545.60021 L 1999.9682,543.28771 L -0.00063329707,543.28771 z M -0.00063329707,548.00651 L -0.00063329707,550.31901 L 1999.9682,550.31901 L 1999.9682,548.00651 L -0.00063329707,548.00651 z M -0.00063329707,552.63151 L -0.00063329707,554.91271 L 1999.9682,554.91271 L 1999.9682,552.63151 L -0.00063329707,552.63151 z M -0.00063329707,557.31901 L -0.00063329707,559.60021 L 1999.9682,559.60021 L 1999.9682,557.31901 L -0.00063329707,557.31901 z M -0.00063329707,561.91271 L -0.00063329707,564.22521 L 1999.9682,564.22521 L 1999.9682,561.91271 L -0.00063329707,561.91271 z M -0.00063329707,566.63151 L -0.00063329707,568.94401 L 1999.9682,568.94401 L 1999.9682,566.63151 L -0.00063329707,566.63151 z M -0.00063329707,571.25651 L -0.00063329707,573.53771 L 1999.9682,573.53771 L 1999.9682,571.25651 L -0.00063329707,571.25651 z M -0.00063329707,575.85021 L -0.00063329707,578.13151 L 1999.9682,578.13151 L 1999.9682,575.85021 L -0.00063329707,575.85021 z M -0.00063329707,580.44401 L -0.00063329707,582.75651 L 1999.9682,582.75651 L 1999.9682,580.44401 L -0.00063329707,580.44401 z M -0.00063329707,585.16271 L -0.00063329707,587.47521 L 1999.9682,587.47521 L 1999.9682,585.16271 L -0.00063329707,585.16271 z M -0.00063329707,589.78771 L -0.00063329707,592.06901 L 1999.9682,592.06901 L 1999.9682,589.78771 L -0.00063329707,589.78771 z M -0.00063329707,594.60021 L -0.00063329707,596.88151 L 1999.9682,596.88151 L 1999.9682,594.60021 L -0.00063329707,594.60021 z M -0.00063329707,599.19401 L -0.00063329707,601.50651 L 1999.9682,601.50651 L 1999.9682,599.19401 L -0.00063329707,599.19401 z M -0.00063329707,603.91271 L -0.00063329707,606.22521 L 1999.9682,606.22521 L 1999.9682,603.91271 L -0.00063329707,603.91271 z M -0.00063329707,608.53771 L -0.00063329707,610.81901 L 1999.9682,610.81901 L 1999.9682,608.53771 L -0.00063329707,608.53771 z M -0.00063329707,613.13151 L -0.00063329707,615.41271 L 1999.9682,615.41271 L 1999.9682,613.13151 L -0.00063329707,613.13151 z M -0.00063329707,617.72521 L -0.00063329707,620.03771 L 1999.9682,620.03771 L 1999.9682,617.72521 L -0.00063329707,617.72521 z M -0.00063329707,622.44401 L -0.00063329707,624.75651 L 1999.9682,624.75651 L 1999.9682,622.44401 L -0.00063329707,622.44401 z M -0.00063329707,627.06901 L -0.00063329707,629.35021 L 1999.9682,629.35021 L 1999.9682,627.06901 L -0.00063329707,627.06901 z M -0.00063329707,631.75651 L -0.00063329707,634.03771 L 1999.9682,634.03771 L 1999.9682,631.75651 L -0.00063329707,631.75651 z M -0.00063329707,636.35021 L -0.00063329707,638.66271 L 1999.9682,638.66271 L 1999.9682,636.35021 L -0.00063329707,636.35021 z M -0.00063329707,641.06901 L -0.00063329707,643.38151 L 1999.9682,643.38151 L 1999.9682,641.06901 L -0.00063329707,641.06901 z M -0.00063329707,645.69401 L -0.00063329707,647.97521 L 1999.9682,647.97521 L 1999.9682,645.69401 L -0.00063329707,645.69401 z M -0.00063329707,650.28771 L -0.00063329707,652.56901 L 1999.9682,652.56901 L 1999.9682,650.28771 L -0.00063329707,650.28771 z M -0.00063329707,654.88151 L -0.00063329707,657.19401 L 1999.9682,657.19401 L 1999.9682,654.88151 L -0.00063329707,654.88151 z M -0.00063329707,659.60021 L -0.00063329707,661.91271 L 1999.9682,661.91271 L 1999.9682,659.60021 L -0.00063329707,659.60021 z M -0.00063329707,664.22521 L -0.00063329707,666.50651 L 1999.9682,666.50651 L 1999.9682,664.22521 L -0.00063329707,664.22521 z M -0.00063329707,668.91271 L -0.00063329707,671.19401 L 1999.9682,671.19401 L 1999.9682,668.91271 L -0.00063329707,668.91271 z M -0.00063329707,673.50651 L -0.00063329707,675.81901 L 1999.9682,675.81901 L 1999.9682,673.50651 L -0.00063329707,673.50651 z M -0.00063329707,678.22521 L -0.00063329707,680.53771 L 1999.9682,680.53771 L 1999.9682,678.22521 L -0.00063329707,678.22521 z M -0.00063329707,682.85021 L -0.00063329707,685.13151 L 1999.9682,685.13151 L 1999.9682,682.85021 L -0.00063329707,682.85021 z M -0.00063329707,687.44401 L -0.00063329707,689.72521 L 1999.9682,689.72521 L 1999.9682,687.44401 L -0.00063329707,687.44401 z M -0.00063329707,692.03771 L -0.00063329707,694.35021 L 1999.9682,694.35021 L 1999.9682,692.03771 L -0.00063329707,692.03771 z M -0.00063329707,696.75651 L -0.00063329707,699.06901 L 1999.9682,699.06901 L 1999.9682,696.75651 L -0.00063329707,696.75651 z M -0.00063329707,701.38151 L -0.00063329707,703.66271 L 1999.9682,703.66271 L 1999.9682,701.38151 L -0.00063329707,701.38151 z M -0.00063329707,706.06901 L -0.00063329707,708.35021 L 1999.9682,708.35021 L 1999.9682,706.06901 L -0.00063329707,706.06901 z M -0.00063329707,710.66271 L -0.00063329707,712.97521 L 1999.9682,712.97521 L 1999.9682,710.66271 L -0.00063329707,710.66271 z M -0.00063329707,715.38151 L -0.00063329707,717.69401 L 1999.9682,717.69401 L 1999.9682,715.38151 L -0.00063329707,715.38151 z M -0.00063329707,720.00651 L -0.00063329707,722.28771 L 1999.9682,722.28771 L 1999.9682,720.00651 L -0.00063329707,720.00651 z M -0.00063329707,724.60021 L -0.00063329707,726.88151 L 1999.9682,726.88151 L 1999.9682,724.60021 L -0.00063329707,724.60021 z M -0.00063329707,729.19401 L -0.00063329707,731.50651 L 1999.9682,731.50651 L 1999.9682,729.19401 L -0.00063329707,729.19401 z M -0.00063329707,733.91271 L -0.00063329707,736.22521 L 1999.9682,736.22521 L 1999.9682,733.91271 L -0.00063329707,733.91271 z M -0.00063329707,738.53771 L -0.00063329707,740.81901 L 1999.9682,740.81901 L 1999.9682,738.53771 L -0.00063329707,738.53771 z M -0.00063329707,743.19401 L -0.00063329707,745.47521 L 1999.9682,745.47521 L 1999.9682,743.19401 L -0.00063329707,743.19401 z M -0.00063329707,747.78771 L -0.00063329707,750.10021 L 1999.9682,750.10021 L 1999.9682,747.78771 L -0.00063329707,747.78771 z M -0.00063329707,752.50651 L -0.00063329707,754.81901 L 1999.9682,754.81901 L 1999.9682,752.50651 L -0.00063329707,752.50651 z M -0.00063329707,757.13151 L -0.00063329707,759.41271 L 1999.9682,759.41271 L 1999.9682,757.13151 L -0.00063329707,757.13151 z M -0.00063329707,761.72521 L -0.00063329707,764.00651 L 1999.9682,764.00651 L 1999.9682,761.72521 L -0.00063329707,761.72521 z M -0.00063329707,766.31901 L -0.00063329707,768.63151 L 1999.9682,768.63151 L 1999.9682,766.31901 L -0.00063329707,766.31901 z M -0.00063329707,771.03771 L -0.00063329707,773.35021 L 1999.9682,773.35021 L 1999.9682,771.03771 L -0.00063329707,771.03771 z M -0.00063329707,775.66271 L -0.00063329707,777.94401 L 1999.9682,777.94401 L 1999.9682,775.66271 L -0.00063329707,775.66271 z M -0.00063329707,780.35021 L -0.00063329707,782.63151 L 1999.9682,782.63151 L 1999.9682,780.35021 L -0.00063329707,780.35021 z M -0.00063329707,784.94401 L -0.00063329707,787.25651 L 1999.9682,787.25651 L 1999.9682,784.94401 L -0.00063329707,784.94401 z M -0.00063329707,789.66271 L -0.00063329707,791.97521 L 1999.9682,791.97521 L 1999.9682,789.66271 L -0.00063329707,789.66271 z M -0.00063329707,794.28771 L -0.00063329707,796.56901 L 1999.9682,796.56901 L 1999.9682,794.28771 L -0.00063329707,794.28771 z M -0.00063329707,798.88151 L -0.00063329707,801.16271 L 1999.9682,801.16271 L 1999.9682,798.88151 L -0.00063329707,798.88151 z M -0.00063329707,803.47521 L -0.00063329707,805.78771 L 1999.9682,805.78771 L 1999.9682,803.47521 L -0.00063329707,803.47521 z M -0.00063329707,808.19401 L -0.00063329707,810.50651 L 1999.9682,810.50651 L 1999.9682,808.19401 L -0.00063329707,808.19401 z M -0.00063329707,812.81901 L -0.00063329707,815.10021 L 1999.9682,815.10021 L 1999.9682,812.81901 L -0.00063329707,812.81901 z M -0.00063329707,817.50651 L -0.00063329707,819.78771 L 1999.9682,819.78771 L 1999.9682,817.50651 L -0.00063329707,817.50651 z M -0.00063329707,822.10021 L -0.00063329707,824.41271 L 1999.9682,824.41271 L 1999.9682,822.10021 L -0.00063329707,822.10021 z M -0.00063329707,826.81901 L -0.00063329707,829.13151 L 1999.9682,829.13151 L 1999.9682,826.81901 L -0.00063329707,826.81901 z M -0.00063329707,831.44401 L -0.00063329707,833.72521 L 1999.9682,833.72521 L 1999.9682,831.44401 L -0.00063329707,831.44401 z M -0.00063329707,836.03771 L -0.00063329707,838.31901 L 1999.9682,838.31901 L 1999.9682,836.03771 L -0.00063329707,836.03771 z M -0.00063329707,840.63151 L -0.00063329707,842.94401 L 1999.9682,842.94401 L 1999.9682,840.63151 L -0.00063329707,840.63151 z M -0.00063329707,845.35021 L -0.00063329707,847.66271 L 1999.9682,847.66271 L 1999.9682,845.35021 L -0.00063329707,845.35021 z M -0.00063329707,849.97521 L -0.00063329707,852.25651 L 1999.9682,852.25651 L 1999.9682,849.97521 L -0.00063329707,849.97521 z M -0.00063329707,854.66271 L -0.00063329707,856.94401 L 1999.9682,856.94401 L 1999.9682,854.66271 L -0.00063329707,854.66271 z M -0.00063329707,859.25651 L -0.00063329707,861.56901 L 1999.9682,861.56901 L 1999.9682,859.25651 L -0.00063329707,859.25651 z M -0.00063329707,863.97521 L -0.00063329707,866.28771 L 1999.9682,866.28771 L 1999.9682,863.97521 L -0.00063329707,863.97521 z M -0.00063329707,868.60021 L -0.00063329707,870.88151 L 1999.9682,870.88151 L 1999.9682,868.60021 L -0.00063329707,868.60021 z M -0.00063329707,873.19401 L -0.00063329707,875.47521 L 1999.9682,875.47521 L 1999.9682,873.19401 L -0.00063329707,873.19401 z M -0.00063329707,877.78771 L -0.00063329707,880.10021 L 1999.9682,880.10021 L 1999.9682,877.78771 L -0.00063329707,877.78771 z M -0.00063329707,882.50651 L -0.00063329707,884.81901 L 1999.9682,884.81901 L 1999.9682,882.50651 L -0.00063329707,882.50651 z M -0.00063329707,887.13151 L -0.00063329707,889.41271 L 1999.9682,889.41271 L 1999.9682,887.13151 L -0.00063329707,887.13151 z M -0.00063329707,891.85021 L -0.00063329707,894.13151 L 1999.9682,894.13151 L 1999.9682,891.85021 L -0.00063329707,891.85021 z M -0.00063329707,896.44401 L -0.00063329707,898.75651 L 1999.9682,898.75651 L 1999.9682,896.44401 L -0.00063329707,896.44401 z M -0.00063329707,901.16271 L -0.00063329707,903.47521 L 1999.9682,903.47521 L 1999.9682,901.16271 L -0.00063329707,901.16271 z M -0.00063329707,905.78771 L -0.00063329707,908.06901 L 1999.9682,908.06901 L 1999.9682,905.78771 L -0.00063329707,905.78771 z M -0.00063329707,910.38151 L -0.00063329707,912.66271 L 1999.9682,912.66271 L 1999.9682,910.38151 L -0.00063329707,910.38151 z M -0.00063329707,914.97521 L -0.00063329707,917.28771 L 1999.9682,917.28771 L 1999.9682,914.97521 L -0.00063329707,914.97521 z M -0.00063329707,919.69401 L -0.00063329707,922.00651 L 1999.9682,922.00651 L 1999.9682,919.69401 L -0.00063329707,919.69401 z M -0.00063329707,924.31901 L -0.00063329707,926.60021 L 1999.9682,926.60021 L 1999.9682,924.31901 L -0.00063329707,924.31901 z M -0.00063329707,929.00651 L -0.00063329707,931.28771 L 1999.9682,931.28771 L 1999.9682,929.00651 L -0.00063329707,929.00651 z M -0.00063329707,933.60021 L -0.00063329707,935.91271 L 1999.9682,935.91271 L 1999.9682,933.60021 L -0.00063329707,933.60021 z M -0.00063329707,938.31901 L -0.00063329707,940.63151 L 1999.9682,940.63151 L 1999.9682,938.31901 L -0.00063329707,938.31901 z M -0.00063329707,942.94401 L -0.00063329707,945.22521 L 1999.9682,945.22521 L 1999.9682,942.94401 L -0.00063329707,942.94401 z M -0.00063329707,947.53771 L -0.00063329707,949.81901 L 1999.9682,949.81901 L 1999.9682,947.53771 L -0.00063329707,947.53771 z M -0.00063329707,952.13151 L -0.00063329707,954.44401 L 1999.9682,954.44401 L 1999.9682,952.13151 L -0.00063329707,952.13151 z M -0.00063329707,956.85021 L -0.00063329707,959.16271 L 1999.9682,959.16271 L 1999.9682,956.85021 L -0.00063329707,956.85021 z M -0.00063329707,961.47521 L -0.00063329707,963.75651 L 1999.9682,963.75651 L 1999.9682,961.47521 L -0.00063329707,961.47521 z M -0.00063329707,966.16271 L -0.00063329707,968.44401 L 1999.9682,968.44401 L 1999.9682,966.16271 L -0.00063329707,966.16271 z M -0.00063329707,970.75651 L -0.00063329707,973.06901 L 1999.9682,973.06901 L 1999.9682,970.75651 L -0.00063329707,970.75651 z M -0.00063329707,975.47521 L -0.00063329707,977.78771 L 1999.9682,977.78771 L 1999.9682,975.47521 L -0.00063329707,975.47521 z M -0.00063329707,980.10021 L -0.00063329707,982.38151 L 1999.9682,982.38151 L 1999.9682,980.10021 L -0.00063329707,980.10021 z M -0.00063329707,984.69401 L -0.00063329707,986.97521 L 1999.9682,986.97521 L 1999.9682,984.69401 L -0.00063329707,984.69401 z M -0.00063329707,989.28771 L -0.00063329707,991.60021 L 1999.9682,991.60021 L 1999.9682,989.28771 L -0.00063329707,989.28771 z M -0.00063329707,994.00647 L -0.00063329707,996.31897 L 1999.9682,996.31897 L 1999.9682,994.00647 L -0.00063329707,994.00647 z M -0.00063329707,998.63147 L -0.00063329707,1000.9128 L 1999.9682,1000.9128 L 1999.9682,998.63147 L -0.00063329707,998.63147 z M -0.00063329707,1003.3190 L -0.00063329707,1005.6002 L 1999.9682,1005.6002 L 1999.9682,1003.3190 L -0.00063329707,1003.3190 z M -0.00063329707,1007.9128 L -0.00063329707,1010.2252 L 1999.9682,1010.2252 L 1999.9682,1007.9128 L -0.00063329707,1007.9128 z M -0.00063329707,1012.6315 L -0.00063329707,1014.9440 L 1999.9682,1014.9440 L 1999.9682,1012.6315 L -0.00063329707,1012.6315 z M -0.00063329707,1017.2565 L -0.00063329707,1019.5378 L 1999.9682,1019.5378 L 1999.9682,1017.2565 L -0.00063329707,1017.2565 z M -0.00063329707,1021.8502 L -0.00063329707,1024.1315 L 1999.9682,1024.1315 L 1999.9682,1021.8502 L -0.00063329707,1021.8502 z M -0.00063329707,1026.4440 L -0.00063329707,1028.7565 L 1999.9682,1028.7565 L 1999.9682,1026.4440 L -0.00063329707,1026.4440 z M -0.00063329707,1031.1628 L -0.00063329707,1033.4752 L 1999.9682,1033.4752 L 1999.9682,1031.1628 L -0.00063329707,1031.1628 z M -0.00063329707,1035.7878 L -0.00063329707,1038.0690 L 1999.9682,1038.0690 L 1999.9682,1035.7878 L -0.00063329707,1035.7878 z M -0.00063329707,1040.4440 L -0.00063329707,1042.7252 L 1999.9682,1042.7252 L 1999.9682,1040.4440 L -0.00063329707,1040.4440 z M -0.00063329707,1045.0378 L -0.00063329707,1047.3502 L 1999.9682,1047.3502 L 1999.9682,1045.0378 L -0.00063329707,1045.0378 z M -0.00063329707,1049.7565 L -0.00063329707,1052.0690 L 1999.9682,1052.0690 L 1999.9682,1049.7565 L -0.00063329707,1049.7565 z M -0.00063329707,1054.3815 L -0.00063329707,1056.6628 L 1999.9682,1056.6628 L 1999.9682,1054.3815 L -0.00063329707,1054.3815 z M -0.00063329707,1058.9752 L -0.00063329707,1061.2565 L 1999.9682,1061.2565 L 1999.9682,1058.9752 L -0.00063329707,1058.9752 z M -0.00063329707,1063.5690 L -0.00063329707,1065.8815 L 1999.9682,1065.8815 L 1999.9682,1063.5690 L -0.00063329707,1063.5690 z M -0.00063329707,1068.2878 L -0.00063329707,1070.6002 L 1999.9682,1070.6002 L 1999.9682,1068.2878 L -0.00063329707,1068.2878 z M -0.00063329707,1072.9128 L -0.00063329707,1075.1940 L 1999.9682,1075.1940 L 1999.9682,1072.9128 L -0.00063329707,1072.9128 z M -0.00063329707,1077.6002 L -0.00063329707,1079.8815 L 1999.9682,1079.8815 L 1999.9682,1077.6002 L -0.00063329707,1077.6002 z M -0.00063329707,1082.1940 L -0.00063329707,1084.5065 L 1999.9682,1084.5065 L 1999.9682,1082.1940 L -0.00063329707,1082.1940 z M -0.00063329707,1086.9128 L -0.00063329707,1089.2252 L 1999.9682,1089.2252 L 1999.9682,1086.9128 L -0.00063329707,1086.9128 z M -0.00063329707,1091.5378 L -0.00063329707,1093.8190 L 1999.9682,1093.8190 L 1999.9682,1091.5378 L -0.00063329707,1091.5378 z M -0.00063329707,1096.1315 L -0.00063329707,1098.4128 L 1999.9682,1098.4128 L 1999.9682,1096.1315 L -0.00063329707,1096.1315 z M -0.00063329707,1100.7252 L -0.00063329707,1103.0378 L 1999.9682,1103.0378 L 1999.9682,1100.7252 L -0.00063329707,1100.7252 z M -0.00063329707,1105.4440 L -0.00063329707,1107.7565 L 1999.9682,1107.7565 L 1999.9682,1105.4440 L -0.00063329707,1105.4440 z M -0.00063329707,1110.0690 L -0.00063329707,1112.3502 L 1999.9682,1112.3502 L 1999.9682,1110.0690 L -0.00063329707,1110.0690 z M -0.00063329707,1114.7565 L -0.00063329707,1117.0378 L 1999.9682,1117.0378 L 1999.9682,1114.7565 L -0.00063329707,1114.7565 z M -0.00063329707,1119.3502 L -0.00063329707,1121.6628 L 1999.9682,1121.6628 L 1999.9682,1119.3502 L -0.00063329707,1119.3502 z M -0.00063329707,1124.0690 L -0.00063329707,1126.3815 L 1999.9682,1126.3815 L 1999.9682,1124.0690 L -0.00063329707,1124.0690 z M -0.00063329707,1128.6940 L -0.00063329707,1130.9752 L 1999.9682,1130.9752 L 1999.9682,1128.6940 L -0.00063329707,1128.6940 z M -0.00063329707,1133.2878 L -0.00063329707,1135.5690 L 1999.9682,1135.5690 L 1999.9682,1133.2878 L -0.00063329707,1133.2878 z M -0.00063329707,1137.8815 L -0.00063329707,1140.1940 L 1999.9682,1140.1940 L 1999.9682,1137.8815 L -0.00063329707,1137.8815 z M -0.00063329707,1142.6002 L -0.00063329707,1144.9128 L 1999.9682,1144.9128 L 1999.9682,1142.6002 L -0.00063329707,1142.6002 z M -0.00063329707,1147.2252 L -0.00063329707,1149.5065 L 1999.9682,1149.5065 L 1999.9682,1147.2252 L -0.00063329707,1147.2252 z M -0.00063329707,1151.9128 L -0.00063329707,1154.1940 L 1999.9682,1154.1940 L 1999.9682,1151.9128 L -0.00063329707,1151.9128 z M -0.00063329707,1156.5065 L -0.00063329707,1158.8190 L 1999.9682,1158.8190 L 1999.9682,1156.5065 L -0.00063329707,1156.5065 z M -0.00063329707,1161.2252 L -0.00063329707,1163.5378 L 1999.9682,1163.5378 L 1999.9682,1161.2252 L -0.00063329707,1161.2252 z M -0.00063329707,1165.8502 L -0.00063329707,1168.1315 L 1999.9682,1168.1315 L 1999.9682,1165.8502 L -0.00063329707,1165.8502 z M -0.00063329707,1170.4440 L -0.00063329707,1172.7252 L 1999.9682,1172.7252 L 1999.9682,1170.4440 L -0.00063329707,1170.4440 z M -0.00063329707,1175.0378 L -0.00063329707,1177.3502 L 1999.9682,1177.3502 L 1999.9682,1175.0378 L -0.00063329707,1175.0378 z M -0.00063329707,1179.7565 L -0.00063329707,1182.0690 L 1999.9682,1182.0690 L 1999.9682,1179.7565 L -0.00063329707,1179.7565 z M -0.00063329707,1184.3815 L -0.00063329707,1186.6628 L 1999.9682,1186.6628 L 1999.9682,1184.3815 L -0.00063329707,1184.3815 z M -0.00063329707,1189.3815 L -0.00063329707,1191.6628 L 1999.9682,1191.6628 L 1999.9682,1189.3815 L -0.00063329707,1189.3815 z M -0.00063329707,1193.9752 L -0.00063329707,1196.2878 L 1999.9682,1196.2878 L 1999.9682,1193.9752 L -0.00063329707,1193.9752 z M -0.00063329707,1198.6940 L -0.00063329707,1201.0065 L 1999.9682,1201.0065 L 1999.9682,1198.6940 L -0.00063329707,1198.6940 z M -0.00063329707,1203.3190 L -0.00063329707,1205.6002 L 1999.9682,1205.6002 L 1999.9682,1203.3190 L -0.00063329707,1203.3190 z M -0.00063329707,1207.9128 L -0.00063329707,1210.1940 L 1999.9682,1210.1940 L 1999.9682,1207.9128 L -0.00063329707,1207.9128 z M -0.00063329707,1212.5065 L -0.00063329707,1214.8190 L 1999.9682,1214.8190 L 1999.9682,1212.5065 L -0.00063329707,1212.5065 z M -0.00063329707,1217.2252 L -0.00063329707,1219.5378 L 1999.9682,1219.5378 L 1999.9682,1217.2252 L -0.00063329707,1217.2252 z M -0.00063329707,1221.8502 L -0.00063329707,1224.1315 L 1999.9682,1224.1315 L 1999.9682,1221.8502 L -0.00063329707,1221.8502 z M -0.00063329707,1226.5378 L -0.00063329707,1228.8190 L 1999.9682,1228.8190 L 1999.9682,1226.5378 L -0.00063329707,1226.5378 z M -0.00063329707,1231.1315 L -0.00063329707,1233.4440 L 1999.9682,1233.4440 L 1999.9682,1231.1315 L -0.00063329707,1231.1315 z M -0.00063329707,1235.8502 L -0.00063329707,1238.1628 L 1999.9682,1238.1628 L 1999.9682,1235.8502 L -0.00063329707,1235.8502 z M -0.00063329707,1240.4752 L -0.00063329707,1242.7565 L 1999.9682,1242.7565 L 1999.9682,1240.4752 L -0.00063329707,1240.4752 z M -0.00063329707,1245.0690 L -0.00063329707,1247.3502 L 1999.9682,1247.3502 L 1999.9682,1245.0690 L -0.00063329707,1245.0690 z M -0.00063329707,1249.6628 L -0.00063329707,1251.9752 L 1999.9682,1251.9752 L 1999.9682,1249.6628 L -0.00063329707,1249.6628 z M -0.00063329707,1254.3815 L -0.00063329707,1256.6940 L 1999.9682,1256.6940 L 1999.9682,1254.3815 L -0.00063329707,1254.3815 z M -0.00063329707,1259.0065 L -0.00063329707,1261.2878 L 1999.9682,1261.2878 L 1999.9682,1259.0065 L -0.00063329707,1259.0065 z M -0.00063329707,1263.6940 L -0.00063329707,1265.9752 L 1999.9682,1265.9752 L 1999.9682,1263.6940 L -0.00063329707,1263.6940 z M -0.00063329707,1268.2878 L -0.00063329707,1270.6002 L 1999.9682,1270.6002 L 1999.9682,1268.2878 L -0.00063329707,1268.2878 z M -0.00063329707,1273.0065 L -0.00063329707,1275.3190 L 1999.9682,1275.3190 L 1999.9682,1273.0065 L -0.00063329707,1273.0065 z M -0.00063329707,1277.6315 L -0.00063329707,1279.9128 L 1999.9682,1279.9128 L 1999.9682,1277.6315 L -0.00063329707,1277.6315 z M -0.00063329707,1282.2252 L -0.00063329707,1284.5065 L 1999.9682,1284.5065 L 1999.9682,1282.2252 L -0.00063329707,1282.2252 z M -0.00063329707,1286.8190 L -0.00063329707,1289.1315 L 1999.9682,1289.1315 L 1999.9682,1286.8190 L -0.00063329707,1286.8190 z M -0.00063329707,1291.5378 L -0.00063329707,1293.8502 L 1999.9682,1293.8502 L 1999.9682,1291.5378 L -0.00063329707,1291.5378 z M -0.00063329707,1296.1628 L -0.00063329707,1298.4440 L 1999.9682,1298.4440 L 1999.9682,1296.1628 L -0.00063329707,1296.1628 z M -0.00063329707,1300.8502 L -0.00063329707,1303.1315 L 1999.9682,1303.1315 L 1999.9682,1300.8502 L -0.00063329707,1300.8502 z M -0.00063329707,1305.4440 L -0.00063329707,1307.7565 L 1999.9682,1307.7565 L 1999.9682,1305.4440 L -0.00063329707,1305.4440 z M -0.00063329707,1310.1628 L -0.00063329707,1312.4752 L 1999.9682,1312.4752 L 1999.9682,1310.1628 L -0.00063329707,1310.1628 z M -0.00063329707,1314.7878 L -0.00063329707,1317.0690 L 1999.9682,1317.0690 L 1999.9682,1314.7878 L -0.00063329707,1314.7878 z M -0.00063329707,1319.3815 L -0.00063329707,1321.6628 L 1999.9682,1321.6628 L 1999.9682,1319.3815 L -0.00063329707,1319.3815 z M -0.00063329707,1323.9752 L -0.00063329707,1326.2878 L 1999.9682,1326.2878 L 1999.9682,1323.9752 L -0.00063329707,1323.9752 z M -0.00063329707,1328.6940 L -0.00063329707,1331.0065 L 1999.9682,1331.0065 L 1999.9682,1328.6940 L -0.00063329707,1328.6940 z M -0.00063329707,1333.3190 L -0.00063329707,1335.6002 L 1999.9682,1335.6002 L 1999.9682,1333.3190 L -0.00063329707,1333.3190 z M -0.00063329707,1337.9752 L -0.00063329707,1340.2565 L 1999.9682,1340.2565 L 1999.9682,1337.9752 L -0.00063329707,1337.9752 z M -0.00063329707,1342.5690 L -0.00063329707,1344.8815 L 1999.9682,1344.8815 L 1999.9682,1342.5690 L -0.00063329707,1342.5690 z M -0.00063329707,1347.2878 L -0.00063329707,1349.6002 L 1999.9682,1349.6002 L 1999.9682,1347.2878 L -0.00063329707,1347.2878 z M -0.00063329707,1351.9128 L -0.00063329707,1354.1940 L 1999.9682,1354.1940 L 1999.9682,1351.9128 L -0.00063329707,1351.9128 z M -0.00063329707,1356.5065 L -0.00063329707,1358.7878 L 1999.9682,1358.7878 L 1999.9682,1356.5065 L -0.00063329707,1356.5065 z M -0.00063329707,1361.1002 L -0.00063329707,1363.4128 L 1999.9682,1363.4128 L 1999.9682,1361.1002 L -0.00063329707,1361.1002 z M -0.00063329707,1365.8190 L -0.00063329707,1368.1315 L 1999.9682,1368.1315 L 1999.9682,1365.8190 L -0.00063329707,1365.8190 z M -0.00063329707,1370.4440 L -0.00063329707,1372.7252 L 1999.9682,1372.7252 L 1999.9682,1370.4440 L -0.00063329707,1370.4440 z M -0.00063329707,1375.1315 L -0.00063329707,1377.4128 L 1999.9682,1377.4128 L 1999.9682,1375.1315 L -0.00063329707,1375.1315 z M -0.00063329707,1379.7252 L -0.00063329707,1382.0378 L 1999.9682,1382.0378 L 1999.9682,1379.7252 L -0.00063329707,1379.7252 z M -0.00063329707,1384.4440 L -0.00063329707,1386.7565 L 1999.9682,1386.7565 L 1999.9682,1384.4440 L -0.00063329707,1384.4440 z M -0.00063329707,1389.0690 L -0.00063329707,1391.3502 L 1999.9682,1391.3502 L 1999.9682,1389.0690 L -0.00063329707,1389.0690 z M -0.00063329707,1393.6628 L -0.00063329707,1395.9440 L 1999.9682,1395.9440 L 1999.9682,1393.6628 L -0.00063329707,1393.6628 z M -0.00063329707,1398.2565 L -0.00063329707,1400.5690 L 1999.9682,1400.5690 L 1999.9682,1398.2565 L -0.00063329707,1398.2565 z M -0.00063329707,1402.9752 L -0.00063329707,1405.2878 L 1999.9682,1405.2878 L 1999.9682,1402.9752 L -0.00063329707,1402.9752 z M -0.00063329707,1407.6002 L -0.00063329707,1409.8815 L 1999.9682,1409.8815 L 1999.9682,1407.6002 L -0.00063329707,1407.6002 z M -0.00063329707,1412.2878 L -0.00063329707,1414.5690 L 1999.9682,1414.5690 L 1999.9682,1412.2878 L -0.00063329707,1412.2878 z M -0.00063329707,1416.8815 L -0.00063329707,1419.1940 L 1999.9682,1419.1940 L 1999.9682,1416.8815 L -0.00063329707,1416.8815 z M -0.00063329707,1421.6002 L -0.00063329707,1423.9128 L 1999.9682,1423.9128 L 1999.9682,1421.6002 L -0.00063329707,1421.6002 z M -0.00063329707,1426.2252 L -0.00063329707,1428.5065 L 1999.9682,1428.5065 L 1999.9682,1426.2252 L -0.00063329707,1426.2252 z M -0.00063329707,1430.8190 L -0.00063329707,1433.1002 L 1999.9682,1433.1002 L 1999.9682,1430.8190 L -0.00063329707,1430.8190 z M -0.00063329707,1435.4128 L -0.00063329707,1437.7252 L 1999.9682,1437.7252 L 1999.9682,1435.4128 L -0.00063329707,1435.4128 z M -0.00063329707,1440.1315 L -0.00063329707,1442.4440 L 1999.9682,1442.4440 L 1999.9682,1440.1315 L -0.00063329707,1440.1315 z M -0.00063329707,1444.7565 L -0.00063329707,1447.0378 L 1999.9682,1447.0378 L 1999.9682,1444.7565 L -0.00063329707,1444.7565 z M -0.00063329707,1449.4440 L -0.00063329707,1451.7252 L 1999.9682,1451.7252 L 1999.9682,1449.4440 L -0.00063329707,1449.4440 z M -0.00063329707,1454.0378 L -0.00063329707,1456.3502 L 1999.9682,1456.3502 L 1999.9682,1454.0378 L -0.00063329707,1454.0378 z M -0.00063329707,1458.7565 L -0.00063329707,1461.0690 L 1999.9682,1461.0690 L 1999.9682,1458.7565 L -0.00063329707,1458.7565 z M -0.00063329707,1463.3815 L -0.00063329707,1465.6628 L 1999.9682,1465.6628 L 1999.9682,1463.3815 L -0.00063329707,1463.3815 z M -0.00063329707,1467.9752 L -0.00063329707,1470.2565 L 1999.9682,1470.2565 L 1999.9682,1467.9752 L -0.00063329707,1467.9752 z M -0.00063329707,1472.5690 L -0.00063329707,1474.8815 L 1999.9682,1474.8815 L 1999.9682,1472.5690 L -0.00063329707,1472.5690 z M -0.00063329707,1477.2878 L -0.00063329707,1479.6002 L 1999.9682,1479.6002 L 1999.9682,1477.2878 L -0.00063329707,1477.2878 z M -0.00063329707,1481.9128 L -0.00063329707,1484.1940 L 1999.9682,1484.1940 L 1999.9682,1481.9128 L -0.00063329707,1481.9128 z M -0.00063329707,1486.6315 L -0.00063329707,1488.9128 L 1999.9682,1488.9128 L 1999.9682,1486.6315 L -0.00063329707,1486.6315 z M -0.00063329707,1491.2252 L -0.00063329707,1493.5378 L 1999.9682,1493.5378 L 1999.9682,1491.2252 L -0.00063329707,1491.2252 z M -0.00063329707,1495.9440 L -0.00063329707,1497.7252 L 1999.9682,1497.7252 L 1999.9682,1495.9440 L -0.00063329707,1495.9440 z "
     id="path2363" />
  <path
     style="font-size:12;opacity:0.25;fill:url(#linearGradient713);fill-opacity:0.6;fill-rule:nonzero;"
     d="M 2.036 1230.7663 L 2.036 1268.2431 C 2.036 1268.2431 243.43443 975.36001 703.56573 975.36001 C 1249.9121 975.36001 1302.7163 1368.3449 1999.7403 1368.3449 L 1999.7403 1279.3756 C 1335.5076 1279.3756 1227.8663 937.0563 772.75676 937.0563 C 249.70337 937.0563 2.036 1230.7663 2.036 1230.7663 L 2.036 1230.7663 z "
     id="path566" />
  <path
     style="font-size:12;opacity:0.25;fill:url(#linearGradient714);fill-opacity:0.6;fill-rule:nonzero;"
     d="M 2.036 1102.1561 L 2.036 1175.3603 C 2.036 1175.3603 295.8594 832.46634 703.56573 832.46634 C 1245.2266 832.46634 1306.3854 1225.4396 1999.7403 1225.4396 L 1999.7403 886.4043 C 1335.5076 886.4043 1201.5492 651.38234 799.67394 651.38234 C 397.785 651.38234 2.0379547 1102.1561 2.0379547 1102.1561 L 2.036 1102.1561 z "
     id="path574" />
  <path
     d="M 869.08478,1834.6585 C 841.44322,1752.1780 304.11788,1610.8721 256.97698,1224.1206 C 209.62992,829.62673 777.29901,243.85162 1343.1751,232.52302 C 2102.1527,211.27011 3085.3281,1112.3974 3153.6177,1622.9190 C 3230.4943,2190.8513 1339.2545,3411.4282 804.49094,3344.5587 C 284.78962,3285.6402 153.15692,2851.7702 219.51804,2551.5350 C 287.79121,2254.7817 882.25578,1911.1019 869.08478,1834.6585 z M 1433.9080,1016.1976 C 1604.9611,857.36699 1895.0302,1119.5093 1809.7038,1270.7729 C 1709.5888,1436.1123 1265.5199,1172.5552 1433.9080,1016.1976 z "
     style="font-size:12.000000;fill:none;fill-rule:evenodd;stroke:#ffffff;stroke-width:239.89648;stroke-linejoin:round;stroke-opacity:0.050000001;"
     id="path594" />
  <path
     d="M -521.37848 579.01622 C -545.47718 507.10718 -1013.934 383.91233 -1055.0329 46.73045 C -1096.3116 -297.20148 -601.40008 -807.8983 -108.05187 -817.7749 C 553.64823 -836.3038 1410.8108 -50.67329 1470.3478 394.41519 C 1537.3712 889.55608 -111.46997 1953.6927 -577.69338 1895.3938 C -1030.785 1844.0269 -1145.5465 1465.7656 -1087.6908 1204.0113 C -1028.1681 945.29258 -509.89558 645.66194 -521.37848 579.01622 z M -28.94813 -134.54324 C 120.18124 -273.01666 373.07243 -44.47291 298.68224 87.40336 C 211.39889 231.55135 -175.75407 1.7741403 -28.94813 -134.54324 z "
     style="font-size:12.000000;fill:none;fill-rule:evenodd;stroke:#ffffff;stroke-width:209.14915;stroke-linejoin:round;stroke-opacity:0.049999956;opacity:0.990000;"
     id="path1037" />
  <path
     d="M 359.54316 434.9815 C 349.73916 405.72703 159.15889 355.60818 142.43881 218.43392 C 125.64565 78.513625 326.98826 -129.25102 527.69506 -133.26911 C 796.89166 -140.80709 1145.6074 178.8076 1169.8286 359.88108 C 1197.0955 561.31701 526.30446 994.23529 336.63286 970.51779 C 152.30349 949.62039 105.61557 795.73395 129.15273 689.24555 C 153.36811 583.99215 364.21476 462.09471 359.54316 434.9815 z M 559.87656 144.68716 C 620.54616 88.352585 723.42876 181.33007 693.16496 234.98072 C 657.65586 293.62386 500.15206 200.1446 559.87656 144.68716 z "
     style="font-size:12.000000;fill:none;fill-rule:evenodd;stroke:#ffffff;stroke-width:85.087250;stroke-linejoin:round;stroke-opacity:0.049999956;opacity:0.682427;"
     id="path1039" />
</svg>
