<?xml version="1.0" encoding="UTF-8" standalone="no"?>
<!DOCTYPE svg PUBLIC "-//W3C//DTD SVG 20010904//EN"
"http://www.w3.org/TR/2001/REC-SVG-20010904/DTD/svg10.dtd">
<!-- Created with Inkscape (http://www.inkscape.org/) -->
<svg
   id="svg1"
   sodipodi:version="0.32"
   inkscape:version="0.39"
   width="1600.0000pt"
   height="1200.0000pt"
   sodipodi:docbase="/home/scaba/files/mirror/lila/lila-backgrounds"
   sodipodi:docname="lila-gentoo.svg"
   xmlns="http://www.w3.org/2000/svg"
   xmlns:inkscape="http://www.inkscape.org/namespaces/inkscape"
   xmlns:sodipodi="http://sodipodi.sourceforge.net/DTD/sodipodi-0.dtd"
   xmlns:xlink="http://www.w3.org/1999/xlink"
   xmlns:rdf="http://www.w3.org/1999/02/22-rdf-syntax-ns#"
   xmlns:cc="http://web.resource.org/cc/"
   xmlns:dc="http://purl.org/dc/elements/1.1/">
  <defs
     id="defs3">
    <linearGradient
       id="linearGradient2342">
      <stop
         style="stop-color:#d9cce6;stop-opacity:1.0000000;"
         offset="0.0000000"
         id="stop2343" />
      <stop
         style="stop-color:#73667f;stop-opacity:1.0000000;"
         offset="1.0000000"
         id="stop2344" />
    </linearGradient>
    <radialGradient
       xlink:href="#linearGradient2342"
       id="radialGradient945"
       cx="0.50000036"
       cy="0.50000036"
       r="0.64039814"
       fx="0.50000036"
       fy="0.50000036"
       spreadMethod="pad"
       gradientUnits="objectBoundingBox" />
  </defs>
  <sodipodi:namedview
     id="base"
     pagecolor="#ffffff"
     bordercolor="#666666"
     borderopacity="1.0"
     inkscape:pageopacity="0.0"
     inkscape:pageshadow="2"
     inkscape:zoom="0.35355339"
     inkscape:cx="816.52340"
     inkscape:cy="567.42868"
     inkscape:window-width="1022"
     inkscape:window-height="695"
     inkscape:window-x="0"
     inkscape:window-y="26" />
  <rect
     style="fill:url(#radialGradient945);fill-rule:evenodd;stroke-width:1.0000000pt;fill-opacity:1.0000000;"
     id="rect2341"
     width="1999.9939"
     height="1499.9821"
     x="0.0027637184"
     y="0.0062760115" />
  <path
     style="fill:#73667f;fill-rule:evenodd;stroke-width:1.0000000pt;fill-opacity:0.33870968;"
     d="M -0.00063329707,0.0064777637 L -0.00063329707,2.2877281 L 1999.9682,2.2877281 L 1999.9682,0.0064777637 L -0.00063329707,0.0064777637 z M -0.00063329707,4.6002281 L -0.00063329707,6.9127281 L 1999.9682,6.9127281 L 1999.9682,4.6002281 L -0.00063329707,4.6002281 z M -0.00063329707,9.3189777 L -0.00063329707,11.631478 L 1999.9682,11.631478 L 1999.9682,9.3189777 L -0.00063329707,9.3189777 z M -0.00063329707,13.943978 L -0.00063329707,16.225228 L 1999.9682,16.225228 L 1999.9682,13.943978 L -0.00063329707,13.943978 z M -0.00063329707,18.537728 L -0.00063329707,20.818978 L 1999.9682,20.818978 L 1999.9682,18.537728 L -0.00063329707,18.537728 z M -0.00063329707,23.131478 L -0.00063329707,25.443978 L 1999.9682,25.443978 L 1999.9682,23.131478 L -0.00063329707,23.131478 z M -0.00063329707,27.850228 L -0.00063329707,30.162728 L 1999.9682,30.162728 L 1999.9682,27.850228 L -0.00063329707,27.850228 z M -0.00063329707,32.475228 L -0.00063329707,34.756478 L 1999.9682,34.756478 L 1999.9682,32.475228 L -0.00063329707,32.475228 z M -0.00063329707,37.162728 L -0.00063329707,39.443978 L 1999.9682,39.443978 L 1999.9682,37.162728 L -0.00063329707,37.162728 z M -0.00063329707,41.756478 L -0.00063329707,44.068978 L 1999.9682,44.068978 L 1999.9682,41.756478 L -0.00063329707,41.756478 z M -0.00063329707,46.475228 L -0.00063329707,48.787728 L 1999.9682,48.787728 L 1999.9682,46.475228 L -0.00063329707,46.475228 z M -0.00063329707,51.100228 L -0.00063329707,53.381478 L 1999.9682,53.381478 L 1999.9682,51.100228 L -0.00063329707,51.100228 z M -0.00063329707,55.693978 L -0.00063329707,57.975228 L 1999.9682,57.975228 L 1999.9682,55.693978 L -0.00063329707,55.693978 z M -0.00063329707,60.287728 L -0.00063329707,62.600228 L 1999.9682,62.600228 L 1999.9682,60.287728 L -0.00063329707,60.287728 z M -0.00063329707,65.006478 L -0.00063329707,67.318978 L 1999.9682,67.318978 L 1999.9682,65.006478 L -0.00063329707,65.006478 z M -0.00063329707,69.631478 L -0.00063329707,71.912728 L 1999.9682,71.912728 L 1999.9682,69.631478 L -0.00063329707,69.631478 z M -0.00063329707,74.318978 L -0.00063329707,76.600228 L 1999.9682,76.600228 L 1999.9682,74.318978 L -0.00063329707,74.318978 z M -0.00063329707,78.912728 L -0.00063329707,81.225228 L 1999.9682,81.225228 L 1999.9682,78.912728 L -0.00063329707,78.912728 z M -0.00063329707,83.631478 L -0.00063329707,85.943978 L 1999.9682,85.943978 L 1999.9682,83.631478 L -0.00063329707,83.631478 z M -0.00063329707,88.256478 L -0.00063329707,90.537728 L 1999.9682,90.537728 L 1999.9682,88.256478 L -0.00063329707,88.256478 z M -0.00063329707,92.850226 L -0.00063329707,95.131476 L 1999.9682,95.131476 L 1999.9682,92.850226 L -0.00063329707,92.850226 z M -0.00063329707,97.443976 L -0.00063329707,99.756479 L 1999.9682,99.756479 L 1999.9682,97.443976 L -0.00063329707,97.443976 z M -0.00063329707,102.16273 L -0.00063329707,104.47523 L 1999.9682,104.47523 L 1999.9682,102.16273 L -0.00063329707,102.16273 z M -0.00063329707,106.78773 L -0.00063329707,109.06898 L 1999.9682,109.06898 L 1999.9682,106.78773 L -0.00063329707,106.78773 z M -0.00063329707,111.47523 L -0.00063329707,113.75648 L 1999.9682,113.75648 L 1999.9682,111.47523 L -0.00063329707,111.47523 z M -0.00063329707,116.06898 L -0.00063329707,118.38148 L 1999.9682,118.38148 L 1999.9682,116.06898 L -0.00063329707,116.06898 z M -0.00063329707,120.78773 L -0.00063329707,123.10023 L 1999.9682,123.10023 L 1999.9682,120.78773 L -0.00063329707,120.78773 z M -0.00063329707,125.41273 L -0.00063329707,127.69398 L 1999.9682,127.69398 L 1999.9682,125.41273 L -0.00063329707,125.41273 z M -0.00063329707,130.00648 L -0.00063329707,132.28773 L 1999.9682,132.28773 L 1999.9682,130.00648 L -0.00063329707,130.00648 z M -0.00063329707,134.60023 L -0.00063329707,136.91273 L 1999.9682,136.91273 L 1999.9682,134.60023 L -0.00063329707,134.60023 z M -0.00063329707,139.31898 L -0.00063329707,141.63148 L 1999.9682,141.63148 L 1999.9682,139.31898 L -0.00063329707,139.31898 z M -0.00063329707,143.94398 L -0.00063329707,146.22523 L 1999.9682,146.22523 L 1999.9682,143.94398 L -0.00063329707,143.94398 z M -0.00063329707,148.60023 L -0.00063329707,150.88148 L 1999.9682,150.88148 L 1999.9682,148.60023 L -0.00063329707,148.60023 z M -0.00063329707,153.19398 L -0.00063329707,155.50648 L 1999.9682,155.50648 L 1999.9682,153.19398 L -0.00063329707,153.19398 z M -0.00063329707,157.91273 L -0.00063329707,160.22523 L 1999.9682,160.22523 L 1999.9682,157.91273 L -0.00063329707,157.91273 z M -0.00063329707,162.53773 L -0.00063329707,164.81898 L 1999.9682,164.81898 L 1999.9682,162.53773 L -0.00063329707,162.53773 z M -0.00063329707,167.13148 L -0.00063329707,169.41273 L 1999.9682,169.41273 L 1999.9682,167.13148 L -0.00063329707,167.13148 z M -0.00063329707,171.72523 L -0.00063329707,174.03773 L 1999.9682,174.03773 L 1999.9682,171.72523 L -0.00063329707,171.72523 z M -0.00063329707,176.44398 L -0.00063329707,178.75648 L 1999.9682,178.75648 L 1999.9682,176.44398 L -0.00063329707,176.44398 z M -0.00063329707,181.06898 L -0.00063329707,183.35023 L 1999.9682,183.35023 L 1999.9682,181.06898 L -0.00063329707,181.06898 z M -0.00063329707,185.75648 L -0.00063329707,188.03773 L 1999.9682,188.03773 L 1999.9682,185.75648 L -0.00063329707,185.75648 z M -0.00063329707,190.35023 L -0.00063329707,192.66273 L 1999.9682,192.66273 L 1999.9682,190.35023 L -0.00063329707,190.35023 z M -0.00063329707,195.06898 L -0.00063329707,197.38148 L 1999.9682,197.38148 L 1999.9682,195.06898 L -0.00063329707,195.06898 z M -0.00063329707,199.69398 L -0.00063329707,201.97523 L 1999.9682,201.97523 L 1999.9682,199.69398 L -0.00063329707,199.69398 z M -0.00063329707,204.28773 L -0.00063329707,206.56898 L 1999.9682,206.56898 L 1999.9682,204.28773 L -0.00063329707,204.28773 z M -0.00063329707,208.88148 L -0.00063329707,211.19398 L 1999.9682,211.19398 L 1999.9682,208.88148 L -0.00063329707,208.88148 z M -0.00063329707,213.60023 L -0.00063329707,215.91273 L 1999.9682,215.91273 L 1999.9682,213.60023 L -0.00063329707,213.60023 z M -0.00063329707,218.22523 L -0.00063329707,220.50648 L 1999.9682,220.50648 L 1999.9682,218.22523 L -0.00063329707,218.22523 z M -0.00063329707,222.91273 L -0.00063329707,225.19398 L 1999.9682,225.19398 L 1999.9682,222.91273 L -0.00063329707,222.91273 z M -0.00063329707,227.50648 L -0.00063329707,229.81898 L 1999.9682,229.81898 L 1999.9682,227.50648 L -0.00063329707,227.50648 z M -0.00063329707,232.22523 L -0.00063329707,234.53773 L 1999.9682,234.53773 L 1999.9682,232.22523 L -0.00063329707,232.22523 z M -0.00063329707,236.85023 L -0.00063329707,239.13148 L 1999.9682,239.13148 L 1999.9682,236.85023 L -0.00063329707,236.85023 z M -0.00063329707,241.44398 L -0.00063329707,243.72523 L 1999.9682,243.72523 L 1999.9682,241.44398 L -0.00063329707,241.44398 z M -0.00063329707,246.03773 L -0.00063329707,248.35023 L 1999.9682,248.35023 L 1999.9682,246.03773 L -0.00063329707,246.03773 z M -0.00063329707,250.75648 L -0.00063329707,253.06898 L 1999.9682,253.06898 L 1999.9682,250.75648 L -0.00063329707,250.75648 z M -0.00063329707,255.38148 L -0.00063329707,257.66273 L 1999.9682,257.66273 L 1999.9682,255.38148 L -0.00063329707,255.38148 z M -0.00063329707,260.06898 L -0.00063329707,262.35023 L 1999.9682,262.35023 L 1999.9682,260.06898 L -0.00063329707,260.06898 z M -0.00063329707,264.66273 L -0.00063329707,266.97523 L 1999.9682,266.97523 L 1999.9682,264.66273 L -0.00063329707,264.66273 z M -0.00063329707,269.38148 L -0.00063329707,271.69398 L 1999.9682,271.69398 L 1999.9682,269.38148 L -0.00063329707,269.38148 z M -0.00063329707,274.00648 L -0.00063329707,276.28773 L 1999.9682,276.28773 L 1999.9682,274.00648 L -0.00063329707,274.00648 z M -0.00063329707,278.60023 L -0.00063329707,280.88148 L 1999.9682,280.88148 L 1999.9682,278.60023 L -0.00063329707,278.60023 z M -0.00063329707,283.19398 L -0.00063329707,285.50648 L 1999.9682,285.50648 L 1999.9682,283.19398 L -0.00063329707,283.19398 z M -0.00063329707,287.91273 L -0.00063329707,290.22523 L 1999.9682,290.22523 L 1999.9682,287.91273 L -0.00063329707,287.91273 z M -0.00063329707,292.53773 L -0.00063329707,294.81898 L 1999.9682,294.81898 L 1999.9682,292.53773 L -0.00063329707,292.53773 z M -0.00063329707,297.25648 L -0.00063329707,299.53773 L 1999.9682,299.53773 L 1999.9682,297.25648 L -0.00063329707,297.25648 z M -0.00063329707,301.85023 L -0.00063329707,304.16273 L 1999.9682,304.16273 L 1999.9682,301.85023 L -0.00063329707,301.85023 z M -0.00063329707,306.56898 L -0.00063329707,308.88148 L 1999.9682,308.88148 L 1999.9682,306.56898 L -0.00063329707,306.56898 z M -0.00063329707,311.19398 L -0.00063329707,313.47523 L 1999.9682,313.47523 L 1999.9682,311.19398 L -0.00063329707,311.19398 z M -0.00063329707,315.78773 L -0.00063329707,318.06898 L 1999.9682,318.06898 L 1999.9682,315.78773 L -0.00063329707,315.78773 z M -0.00063329707,320.38148 L -0.00063329707,322.69398 L 1999.9682,322.69398 L 1999.9682,320.38148 L -0.00063329707,320.38148 z M -0.00063329707,325.10023 L -0.00063329707,327.41273 L 1999.9682,327.41273 L 1999.9682,325.10023 L -0.00063329707,325.10023 z M -0.00063329707,329.72523 L -0.00063329707,332.00648 L 1999.9682,332.00648 L 1999.9682,329.72523 L -0.00063329707,329.72523 z M -0.00063329707,334.41273 L -0.00063329707,336.69398 L 1999.9682,336.69398 L 1999.9682,334.41273 L -0.00063329707,334.41273 z M -0.00063329707,339.00648 L -0.00063329707,341.31898 L 1999.9682,341.31898 L 1999.9682,339.00648 L -0.00063329707,339.00648 z M -0.00063329707,343.72523 L -0.00063329707,346.03773 L 1999.9682,346.03773 L 1999.9682,343.72523 L -0.00063329707,343.72523 z M -0.00063329707,348.35023 L -0.00063329707,350.63148 L 1999.9682,350.63148 L 1999.9682,348.35023 L -0.00063329707,348.35023 z M -0.00063329707,352.94398 L -0.00063329707,355.22523 L 1999.9682,355.22523 L 1999.9682,352.94398 L -0.00063329707,352.94398 z M -0.00063329707,357.53773 L -0.00063329707,359.85023 L 1999.9682,359.85023 L 1999.9682,357.53773 L -0.00063329707,357.53773 z M -0.00063329707,362.25648 L -0.00063329707,364.56898 L 1999.9682,364.56898 L 1999.9682,362.25648 L -0.00063329707,362.25648 z M -0.00063329707,366.88148 L -0.00063329707,369.16273 L 1999.9682,369.16273 L 1999.9682,366.88148 L -0.00063329707,366.88148 z M -0.00063329707,371.56898 L -0.00063329707,373.85023 L 1999.9682,373.85023 L 1999.9682,371.56898 L -0.00063329707,371.56898 z M -0.00063329707,376.16273 L -0.00063329707,378.47523 L 1999.9682,378.47523 L 1999.9682,376.16273 L -0.00063329707,376.16273 z M -0.00063329707,380.88148 L -0.00063329707,383.19398 L 1999.9682,383.19398 L 1999.9682,380.88148 L -0.00063329707,380.88148 z M -0.00063329707,385.50648 L -0.00063329707,387.78773 L 1999.9682,387.78773 L 1999.9682,385.50648 L -0.00063329707,385.50648 z M -0.00063329707,390.10023 L -0.00063329707,392.38148 L 1999.9682,392.38148 L 1999.9682,390.10023 L -0.00063329707,390.10023 z M -0.00063329707,394.69398 L -0.00063329707,397.00648 L 1999.9682,397.00648 L 1999.9682,394.69398 L -0.00063329707,394.69398 z M -0.00063329707,399.41271 L -0.00063329707,401.72521 L 1999.9682,401.72521 L 1999.9682,399.41271 L -0.00063329707,399.41271 z M -0.00063329707,404.03771 L -0.00063329707,406.31901 L 1999.9682,406.31901 L 1999.9682,404.03771 L -0.00063329707,404.03771 z M -0.00063329707,408.72521 L -0.00063329707,411.00651 L 1999.9682,411.00651 L 1999.9682,408.72521 L -0.00063329707,408.72521 z M -0.00063329707,413.31901 L -0.00063329707,415.63151 L 1999.9682,415.63151 L 1999.9682,413.31901 L -0.00063329707,413.31901 z M -0.00063329707,418.03771 L -0.00063329707,420.35021 L 1999.9682,420.35021 L 1999.9682,418.03771 L -0.00063329707,418.03771 z M -0.00063329707,422.66271 L -0.00063329707,424.94401 L 1999.9682,424.94401 L 1999.9682,422.66271 L -0.00063329707,422.66271 z M -0.00063329707,427.25651 L -0.00063329707,429.53771 L 1999.9682,429.53771 L 1999.9682,427.25651 L -0.00063329707,427.25651 z M -0.00063329707,431.85021 L -0.00063329707,434.16271 L 1999.9682,434.16271 L 1999.9682,431.85021 L -0.00063329707,431.85021 z M -0.00063329707,436.56901 L -0.00063329707,438.88151 L 1999.9682,438.88151 L 1999.9682,436.56901 L -0.00063329707,436.56901 z M -0.00063329707,441.19401 L -0.00063329707,443.47521 L 1999.9682,443.47521 L 1999.9682,441.19401 L -0.00063329707,441.19401 z M -0.00063329707,445.85021 L -0.00063329707,448.13151 L 1999.9682,448.13151 L 1999.9682,445.85021 L -0.00063329707,445.85021 z M -0.00063329707,450.44401 L -0.00063329707,452.75651 L 1999.9682,452.75651 L 1999.9682,450.44401 L -0.00063329707,450.44401 z M -0.00063329707,455.16271 L -0.00063329707,457.47521 L 1999.9682,457.47521 L 1999.9682,455.16271 L -0.00063329707,455.16271 z M -0.00063329707,459.78771 L -0.00063329707,462.06901 L 1999.9682,462.06901 L 1999.9682,459.78771 L -0.00063329707,459.78771 z M -0.00063329707,464.38151 L -0.00063329707,466.66271 L 1999.9682,466.66271 L 1999.9682,464.38151 L -0.00063329707,464.38151 z M -0.00063329707,468.97521 L -0.00063329707,471.28771 L 1999.9682,471.28771 L 1999.9682,468.97521 L -0.00063329707,468.97521 z M -0.00063329707,473.69401 L -0.00063329707,476.00651 L 1999.9682,476.00651 L 1999.9682,473.69401 L -0.00063329707,473.69401 z M -0.00063329707,478.31901 L -0.00063329707,480.60021 L 1999.9682,480.60021 L 1999.9682,478.31901 L -0.00063329707,478.31901 z M -0.00063329707,483.00651 L -0.00063329707,485.28771 L 1999.9682,485.28771 L 1999.9682,483.00651 L -0.00063329707,483.00651 z M -0.00063329707,487.60021 L -0.00063329707,489.91271 L 1999.9682,489.91271 L 1999.9682,487.60021 L -0.00063329707,487.60021 z M -0.00063329707,492.31901 L -0.00063329707,494.63151 L 1999.9682,494.63151 L 1999.9682,492.31901 L -0.00063329707,492.31901 z M -0.00063329707,496.94401 L -0.00063329707,499.22521 L 1999.9682,499.22521 L 1999.9682,496.94401 L -0.00063329707,496.94401 z M -0.00063329707,501.53771 L -0.00063329707,503.81901 L 1999.9682,503.81901 L 1999.9682,501.53771 L -0.00063329707,501.53771 z M -0.00063329707,506.13151 L -0.00063329707,508.44401 L 1999.9682,508.44401 L 1999.9682,506.13151 L -0.00063329707,506.13151 z M -0.00063329707,510.85021 L -0.00063329707,513.16271 L 1999.9682,513.16271 L 1999.9682,510.85021 L -0.00063329707,510.85021 z M -0.00063329707,515.47521 L -0.00063329707,517.75651 L 1999.9682,517.75651 L 1999.9682,515.47521 L -0.00063329707,515.47521 z M -0.00063329707,520.16271 L -0.00063329707,522.44401 L 1999.9682,522.44401 L 1999.9682,520.16271 L -0.00063329707,520.16271 z M -0.00063329707,524.75651 L -0.00063329707,527.06901 L 1999.9682,527.06901 L 1999.9682,524.75651 L -0.00063329707,524.75651 z M -0.00063329707,529.47521 L -0.00063329707,531.78771 L 1999.9682,531.78771 L 1999.9682,529.47521 L -0.00063329707,529.47521 z M -0.00063329707,534.10021 L -0.00063329707,536.38151 L 1999.9682,536.38151 L 1999.9682,534.10021 L -0.00063329707,534.10021 z M -0.00063329707,538.69401 L -0.00063329707,540.97521 L 1999.9682,540.97521 L 1999.9682,538.69401 L -0.00063329707,538.69401 z M -0.00063329707,543.28771 L -0.00063329707,545.60021 L 1999.9682,545.60021 L 1999.9682,543.28771 L -0.00063329707,543.28771 z M -0.00063329707,548.00651 L -0.00063329707,550.31901 L 1999.9682,550.31901 L 1999.9682,548.00651 L -0.00063329707,548.00651 z M -0.00063329707,552.63151 L -0.00063329707,554.91271 L 1999.9682,554.91271 L 1999.9682,552.63151 L -0.00063329707,552.63151 z M -0.00063329707,557.31901 L -0.00063329707,559.60021 L 1999.9682,559.60021 L 1999.9682,557.31901 L -0.00063329707,557.31901 z M -0.00063329707,561.91271 L -0.00063329707,564.22521 L 1999.9682,564.22521 L 1999.9682,561.91271 L -0.00063329707,561.91271 z M -0.00063329707,566.63151 L -0.00063329707,568.94401 L 1999.9682,568.94401 L 1999.9682,566.63151 L -0.00063329707,566.63151 z M -0.00063329707,571.25651 L -0.00063329707,573.53771 L 1999.9682,573.53771 L 1999.9682,571.25651 L -0.00063329707,571.25651 z M -0.00063329707,575.85021 L -0.00063329707,578.13151 L 1999.9682,578.13151 L 1999.9682,575.85021 L -0.00063329707,575.85021 z M -0.00063329707,580.44401 L -0.00063329707,582.75651 L 1999.9682,582.75651 L 1999.9682,580.44401 L -0.00063329707,580.44401 z M -0.00063329707,585.16271 L -0.00063329707,587.47521 L 1999.9682,587.47521 L 1999.9682,585.16271 L -0.00063329707,585.16271 z M -0.00063329707,589.78771 L -0.00063329707,592.06901 L 1999.9682,592.06901 L 1999.9682,589.78771 L -0.00063329707,589.78771 z M -0.00063329707,594.60021 L -0.00063329707,596.88151 L 1999.9682,596.88151 L 1999.9682,594.60021 L -0.00063329707,594.60021 z M -0.00063329707,599.19401 L -0.00063329707,601.50651 L 1999.9682,601.50651 L 1999.9682,599.19401 L -0.00063329707,599.19401 z M -0.00063329707,603.91271 L -0.00063329707,606.22521 L 1999.9682,606.22521 L 1999.9682,603.91271 L -0.00063329707,603.91271 z M -0.00063329707,608.53771 L -0.00063329707,610.81901 L 1999.9682,610.81901 L 1999.9682,608.53771 L -0.00063329707,608.53771 z M -0.00063329707,613.13151 L -0.00063329707,615.41271 L 1999.9682,615.41271 L 1999.9682,613.13151 L -0.00063329707,613.13151 z M -0.00063329707,617.72521 L -0.00063329707,620.03771 L 1999.9682,620.03771 L 1999.9682,617.72521 L -0.00063329707,617.72521 z M -0.00063329707,622.44401 L -0.00063329707,624.75651 L 1999.9682,624.75651 L 1999.9682,622.44401 L -0.00063329707,622.44401 z M -0.00063329707,627.06901 L -0.00063329707,629.35021 L 1999.9682,629.35021 L 1999.9682,627.06901 L -0.00063329707,627.06901 z M -0.00063329707,631.75651 L -0.00063329707,634.03771 L 1999.9682,634.03771 L 1999.9682,631.75651 L -0.00063329707,631.75651 z M -0.00063329707,636.35021 L -0.00063329707,638.66271 L 1999.9682,638.66271 L 1999.9682,636.35021 L -0.00063329707,636.35021 z M -0.00063329707,641.06901 L -0.00063329707,643.38151 L 1999.9682,643.38151 L 1999.9682,641.06901 L -0.00063329707,641.06901 z M -0.00063329707,645.69401 L -0.00063329707,647.97521 L 1999.9682,647.97521 L 1999.9682,645.69401 L -0.00063329707,645.69401 z M -0.00063329707,650.28771 L -0.00063329707,652.56901 L 1999.9682,652.56901 L 1999.9682,650.28771 L -0.00063329707,650.28771 z M -0.00063329707,654.88151 L -0.00063329707,657.19401 L 1999.9682,657.19401 L 1999.9682,654.88151 L -0.00063329707,654.88151 z M -0.00063329707,659.60021 L -0.00063329707,661.91271 L 1999.9682,661.91271 L 1999.9682,659.60021 L -0.00063329707,659.60021 z M -0.00063329707,664.22521 L -0.00063329707,666.50651 L 1999.9682,666.50651 L 1999.9682,664.22521 L -0.00063329707,664.22521 z M -0.00063329707,668.91271 L -0.00063329707,671.19401 L 1999.9682,671.19401 L 1999.9682,668.91271 L -0.00063329707,668.91271 z M -0.00063329707,673.50651 L -0.00063329707,675.81901 L 1999.9682,675.81901 L 1999.9682,673.50651 L -0.00063329707,673.50651 z M -0.00063329707,678.22521 L -0.00063329707,680.53771 L 1999.9682,680.53771 L 1999.9682,678.22521 L -0.00063329707,678.22521 z M -0.00063329707,682.85021 L -0.00063329707,685.13151 L 1999.9682,685.13151 L 1999.9682,682.85021 L -0.00063329707,682.85021 z M -0.00063329707,687.44401 L -0.00063329707,689.72521 L 1999.9682,689.72521 L 1999.9682,687.44401 L -0.00063329707,687.44401 z M -0.00063329707,692.03771 L -0.00063329707,694.35021 L 1999.9682,694.35021 L 1999.9682,692.03771 L -0.00063329707,692.03771 z M -0.00063329707,696.75651 L -0.00063329707,699.06901 L 1999.9682,699.06901 L 1999.9682,696.75651 L -0.00063329707,696.75651 z M -0.00063329707,701.38151 L -0.00063329707,703.66271 L 1999.9682,703.66271 L 1999.9682,701.38151 L -0.00063329707,701.38151 z M -0.00063329707,706.06901 L -0.00063329707,708.35021 L 1999.9682,708.35021 L 1999.9682,706.06901 L -0.00063329707,706.06901 z M -0.00063329707,710.66271 L -0.00063329707,712.97521 L 1999.9682,712.97521 L 1999.9682,710.66271 L -0.00063329707,710.66271 z M -0.00063329707,715.38151 L -0.00063329707,717.69401 L 1999.9682,717.69401 L 1999.9682,715.38151 L -0.00063329707,715.38151 z M -0.00063329707,720.00651 L -0.00063329707,722.28771 L 1999.9682,722.28771 L 1999.9682,720.00651 L -0.00063329707,720.00651 z M -0.00063329707,724.60021 L -0.00063329707,726.88151 L 1999.9682,726.88151 L 1999.9682,724.60021 L -0.00063329707,724.60021 z M -0.00063329707,729.19401 L -0.00063329707,731.50651 L 1999.9682,731.50651 L 1999.9682,729.19401 L -0.00063329707,729.19401 z M -0.00063329707,733.91271 L -0.00063329707,736.22521 L 1999.9682,736.22521 L 1999.9682,733.91271 L -0.00063329707,733.91271 z M -0.00063329707,738.53771 L -0.00063329707,740.81901 L 1999.9682,740.81901 L 1999.9682,738.53771 L -0.00063329707,738.53771 z M -0.00063329707,743.19401 L -0.00063329707,745.47521 L 1999.9682,745.47521 L 1999.9682,743.19401 L -0.00063329707,743.19401 z M -0.00063329707,747.78771 L -0.00063329707,750.10021 L 1999.9682,750.10021 L 1999.9682,747.78771 L -0.00063329707,747.78771 z M -0.00063329707,752.50651 L -0.00063329707,754.81901 L 1999.9682,754.81901 L 1999.9682,752.50651 L -0.00063329707,752.50651 z M -0.00063329707,757.13151 L -0.00063329707,759.41271 L 1999.9682,759.41271 L 1999.9682,757.13151 L -0.00063329707,757.13151 z M -0.00063329707,761.72521 L -0.00063329707,764.00651 L 1999.9682,764.00651 L 1999.9682,761.72521 L -0.00063329707,761.72521 z M -0.00063329707,766.31901 L -0.00063329707,768.63151 L 1999.9682,768.63151 L 1999.9682,766.31901 L -0.00063329707,766.31901 z M -0.00063329707,771.03771 L -0.00063329707,773.35021 L 1999.9682,773.35021 L 1999.9682,771.03771 L -0.00063329707,771.03771 z M -0.00063329707,775.66271 L -0.00063329707,777.94401 L 1999.9682,777.94401 L 1999.9682,775.66271 L -0.00063329707,775.66271 z M -0.00063329707,780.35021 L -0.00063329707,782.63151 L 1999.9682,782.63151 L 1999.9682,780.35021 L -0.00063329707,780.35021 z M -0.00063329707,784.94401 L -0.00063329707,787.25651 L 1999.9682,787.25651 L 1999.9682,784.94401 L -0.00063329707,784.94401 z M -0.00063329707,789.66271 L -0.00063329707,791.97521 L 1999.9682,791.97521 L 1999.9682,789.66271 L -0.00063329707,789.66271 z M -0.00063329707,794.28771 L -0.00063329707,796.56901 L 1999.9682,796.56901 L 1999.9682,794.28771 L -0.00063329707,794.28771 z M -0.00063329707,798.88151 L -0.00063329707,801.16271 L 1999.9682,801.16271 L 1999.9682,798.88151 L -0.00063329707,798.88151 z M -0.00063329707,803.47521 L -0.00063329707,805.78771 L 1999.9682,805.78771 L 1999.9682,803.47521 L -0.00063329707,803.47521 z M -0.00063329707,808.19401 L -0.00063329707,810.50651 L 1999.9682,810.50651 L 1999.9682,808.19401 L -0.00063329707,808.19401 z M -0.00063329707,812.81901 L -0.00063329707,815.10021 L 1999.9682,815.10021 L 1999.9682,812.81901 L -0.00063329707,812.81901 z M -0.00063329707,817.50651 L -0.00063329707,819.78771 L 1999.9682,819.78771 L 1999.9682,817.50651 L -0.00063329707,817.50651 z M -0.00063329707,822.10021 L -0.00063329707,824.41271 L 1999.9682,824.41271 L 1999.9682,822.10021 L -0.00063329707,822.10021 z M -0.00063329707,826.81901 L -0.00063329707,829.13151 L 1999.9682,829.13151 L 1999.9682,826.81901 L -0.00063329707,826.81901 z M -0.00063329707,831.44401 L -0.00063329707,833.72521 L 1999.9682,833.72521 L 1999.9682,831.44401 L -0.00063329707,831.44401 z M -0.00063329707,836.03771 L -0.00063329707,838.31901 L 1999.9682,838.31901 L 1999.9682,836.03771 L -0.00063329707,836.03771 z M -0.00063329707,840.63151 L -0.00063329707,842.94401 L 1999.9682,842.94401 L 1999.9682,840.63151 L -0.00063329707,840.63151 z M -0.00063329707,845.35021 L -0.00063329707,847.66271 L 1999.9682,847.66271 L 1999.9682,845.35021 L -0.00063329707,845.35021 z M -0.00063329707,849.97521 L -0.00063329707,852.25651 L 1999.9682,852.25651 L 1999.9682,849.97521 L -0.00063329707,849.97521 z M -0.00063329707,854.66271 L -0.00063329707,856.94401 L 1999.9682,856.94401 L 1999.9682,854.66271 L -0.00063329707,854.66271 z M -0.00063329707,859.25651 L -0.00063329707,861.56901 L 1999.9682,861.56901 L 1999.9682,859.25651 L -0.00063329707,859.25651 z M -0.00063329707,863.97521 L -0.00063329707,866.28771 L 1999.9682,866.28771 L 1999.9682,863.97521 L -0.00063329707,863.97521 z M -0.00063329707,868.60021 L -0.00063329707,870.88151 L 1999.9682,870.88151 L 1999.9682,868.60021 L -0.00063329707,868.60021 z M -0.00063329707,873.19401 L -0.00063329707,875.47521 L 1999.9682,875.47521 L 1999.9682,873.19401 L -0.00063329707,873.19401 z M -0.00063329707,877.78771 L -0.00063329707,880.10021 L 1999.9682,880.10021 L 1999.9682,877.78771 L -0.00063329707,877.78771 z M -0.00063329707,882.50651 L -0.00063329707,884.81901 L 1999.9682,884.81901 L 1999.9682,882.50651 L -0.00063329707,882.50651 z M -0.00063329707,887.13151 L -0.00063329707,889.41271 L 1999.9682,889.41271 L 1999.9682,887.13151 L -0.00063329707,887.13151 z M -0.00063329707,891.85021 L -0.00063329707,894.13151 L 1999.9682,894.13151 L 1999.9682,891.85021 L -0.00063329707,891.85021 z M -0.00063329707,896.44401 L -0.00063329707,898.75651 L 1999.9682,898.75651 L 1999.9682,896.44401 L -0.00063329707,896.44401 z M -0.00063329707,901.16271 L -0.00063329707,903.47521 L 1999.9682,903.47521 L 1999.9682,901.16271 L -0.00063329707,901.16271 z M -0.00063329707,905.78771 L -0.00063329707,908.06901 L 1999.9682,908.06901 L 1999.9682,905.78771 L -0.00063329707,905.78771 z M -0.00063329707,910.38151 L -0.00063329707,912.66271 L 1999.9682,912.66271 L 1999.9682,910.38151 L -0.00063329707,910.38151 z M -0.00063329707,914.97521 L -0.00063329707,917.28771 L 1999.9682,917.28771 L 1999.9682,914.97521 L -0.00063329707,914.97521 z M -0.00063329707,919.69401 L -0.00063329707,922.00651 L 1999.9682,922.00651 L 1999.9682,919.69401 L -0.00063329707,919.69401 z M -0.00063329707,924.31901 L -0.00063329707,926.60021 L 1999.9682,926.60021 L 1999.9682,924.31901 L -0.00063329707,924.31901 z M -0.00063329707,929.00651 L -0.00063329707,931.28771 L 1999.9682,931.28771 L 1999.9682,929.00651 L -0.00063329707,929.00651 z M -0.00063329707,933.60021 L -0.00063329707,935.91271 L 1999.9682,935.91271 L 1999.9682,933.60021 L -0.00063329707,933.60021 z M -0.00063329707,938.31901 L -0.00063329707,940.63151 L 1999.9682,940.63151 L 1999.9682,938.31901 L -0.00063329707,938.31901 z M -0.00063329707,942.94401 L -0.00063329707,945.22521 L 1999.9682,945.22521 L 1999.9682,942.94401 L -0.00063329707,942.94401 z M -0.00063329707,947.53771 L -0.00063329707,949.81901 L 1999.9682,949.81901 L 1999.9682,947.53771 L -0.00063329707,947.53771 z M -0.00063329707,952.13151 L -0.00063329707,954.44401 L 1999.9682,954.44401 L 1999.9682,952.13151 L -0.00063329707,952.13151 z M -0.00063329707,956.85021 L -0.00063329707,959.16271 L 1999.9682,959.16271 L 1999.9682,956.85021 L -0.00063329707,956.85021 z M -0.00063329707,961.47521 L -0.00063329707,963.75651 L 1999.9682,963.75651 L 1999.9682,961.47521 L -0.00063329707,961.47521 z M -0.00063329707,966.16271 L -0.00063329707,968.44401 L 1999.9682,968.44401 L 1999.9682,966.16271 L -0.00063329707,966.16271 z M -0.00063329707,970.75651 L -0.00063329707,973.06901 L 1999.9682,973.06901 L 1999.9682,970.75651 L -0.00063329707,970.75651 z M -0.00063329707,975.47521 L -0.00063329707,977.78771 L 1999.9682,977.78771 L 1999.9682,975.47521 L -0.00063329707,975.47521 z M -0.00063329707,980.10021 L -0.00063329707,982.38151 L 1999.9682,982.38151 L 1999.9682,980.10021 L -0.00063329707,980.10021 z M -0.00063329707,984.69401 L -0.00063329707,986.97521 L 1999.9682,986.97521 L 1999.9682,984.69401 L -0.00063329707,984.69401 z M -0.00063329707,989.28771 L -0.00063329707,991.60021 L 1999.9682,991.60021 L 1999.9682,989.28771 L -0.00063329707,989.28771 z M -0.00063329707,994.00647 L -0.00063329707,996.31897 L 1999.9682,996.31897 L 1999.9682,994.00647 L -0.00063329707,994.00647 z M -0.00063329707,998.63147 L -0.00063329707,1000.9128 L 1999.9682,1000.9128 L 1999.9682,998.63147 L -0.00063329707,998.63147 z M -0.00063329707,1003.3190 L -0.00063329707,1005.6002 L 1999.9682,1005.6002 L 1999.9682,1003.3190 L -0.00063329707,1003.3190 z M -0.00063329707,1007.9128 L -0.00063329707,1010.2252 L 1999.9682,1010.2252 L 1999.9682,1007.9128 L -0.00063329707,1007.9128 z M -0.00063329707,1012.6315 L -0.00063329707,1014.9440 L 1999.9682,1014.9440 L 1999.9682,1012.6315 L -0.00063329707,1012.6315 z M -0.00063329707,1017.2565 L -0.00063329707,1019.5378 L 1999.9682,1019.5378 L 1999.9682,1017.2565 L -0.00063329707,1017.2565 z M -0.00063329707,1021.8502 L -0.00063329707,1024.1315 L 1999.9682,1024.1315 L 1999.9682,1021.8502 L -0.00063329707,1021.8502 z M -0.00063329707,1026.4440 L -0.00063329707,1028.7565 L 1999.9682,1028.7565 L 1999.9682,1026.4440 L -0.00063329707,1026.4440 z M -0.00063329707,1031.1628 L -0.00063329707,1033.4752 L 1999.9682,1033.4752 L 1999.9682,1031.1628 L -0.00063329707,1031.1628 z M -0.00063329707,1035.7878 L -0.00063329707,1038.0690 L 1999.9682,1038.0690 L 1999.9682,1035.7878 L -0.00063329707,1035.7878 z M -0.00063329707,1040.4440 L -0.00063329707,1042.7252 L 1999.9682,1042.7252 L 1999.9682,1040.4440 L -0.00063329707,1040.4440 z M -0.00063329707,1045.0378 L -0.00063329707,1047.3502 L 1999.9682,1047.3502 L 1999.9682,1045.0378 L -0.00063329707,1045.0378 z M -0.00063329707,1049.7565 L -0.00063329707,1052.0690 L 1999.9682,1052.0690 L 1999.9682,1049.7565 L -0.00063329707,1049.7565 z M -0.00063329707,1054.3815 L -0.00063329707,1056.6628 L 1999.9682,1056.6628 L 1999.9682,1054.3815 L -0.00063329707,1054.3815 z M -0.00063329707,1058.9752 L -0.00063329707,1061.2565 L 1999.9682,1061.2565 L 1999.9682,1058.9752 L -0.00063329707,1058.9752 z M -0.00063329707,1063.5690 L -0.00063329707,1065.8815 L 1999.9682,1065.8815 L 1999.9682,1063.5690 L -0.00063329707,1063.5690 z M -0.00063329707,1068.2878 L -0.00063329707,1070.6002 L 1999.9682,1070.6002 L 1999.9682,1068.2878 L -0.00063329707,1068.2878 z M -0.00063329707,1072.9128 L -0.00063329707,1075.1940 L 1999.9682,1075.1940 L 1999.9682,1072.9128 L -0.00063329707,1072.9128 z M -0.00063329707,1077.6002 L -0.00063329707,1079.8815 L 1999.9682,1079.8815 L 1999.9682,1077.6002 L -0.00063329707,1077.6002 z M -0.00063329707,1082.1940 L -0.00063329707,1084.5065 L 1999.9682,1084.5065 L 1999.9682,1082.1940 L -0.00063329707,1082.1940 z M -0.00063329707,1086.9128 L -0.00063329707,1089.2252 L 1999.9682,1089.2252 L 1999.9682,1086.9128 L -0.00063329707,1086.9128 z M -0.00063329707,1091.5378 L -0.00063329707,1093.8190 L 1999.9682,1093.8190 L 1999.9682,1091.5378 L -0.00063329707,1091.5378 z M -0.00063329707,1096.1315 L -0.00063329707,1098.4128 L 1999.9682,1098.4128 L 1999.9682,1096.1315 L -0.00063329707,1096.1315 z M -0.00063329707,1100.7252 L -0.00063329707,1103.0378 L 1999.9682,1103.0378 L 1999.9682,1100.7252 L -0.00063329707,1100.7252 z M -0.00063329707,1105.4440 L -0.00063329707,1107.7565 L 1999.9682,1107.7565 L 1999.9682,1105.4440 L -0.00063329707,1105.4440 z M -0.00063329707,1110.0690 L -0.00063329707,1112.3502 L 1999.9682,1112.3502 L 1999.9682,1110.0690 L -0.00063329707,1110.0690 z M -0.00063329707,1114.7565 L -0.00063329707,1117.0378 L 1999.9682,1117.0378 L 1999.9682,1114.7565 L -0.00063329707,1114.7565 z M -0.00063329707,1119.3502 L -0.00063329707,1121.6628 L 1999.9682,1121.6628 L 1999.9682,1119.3502 L -0.00063329707,1119.3502 z M -0.00063329707,1124.0690 L -0.00063329707,1126.3815 L 1999.9682,1126.3815 L 1999.9682,1124.0690 L -0.00063329707,1124.0690 z M -0.00063329707,1128.6940 L -0.00063329707,1130.9752 L 1999.9682,1130.9752 L 1999.9682,1128.6940 L -0.00063329707,1128.6940 z M -0.00063329707,1133.2878 L -0.00063329707,1135.5690 L 1999.9682,1135.5690 L 1999.9682,1133.2878 L -0.00063329707,1133.2878 z M -0.00063329707,1137.8815 L -0.00063329707,1140.1940 L 1999.9682,1140.1940 L 1999.9682,1137.8815 L -0.00063329707,1137.8815 z M -0.00063329707,1142.6002 L -0.00063329707,1144.9128 L 1999.9682,1144.9128 L 1999.9682,1142.6002 L -0.00063329707,1142.6002 z M -0.00063329707,1147.2252 L -0.00063329707,1149.5065 L 1999.9682,1149.5065 L 1999.9682,1147.2252 L -0.00063329707,1147.2252 z M -0.00063329707,1151.9128 L -0.00063329707,1154.1940 L 1999.9682,1154.1940 L 1999.9682,1151.9128 L -0.00063329707,1151.9128 z M -0.00063329707,1156.5065 L -0.00063329707,1158.8190 L 1999.9682,1158.8190 L 1999.9682,1156.5065 L -0.00063329707,1156.5065 z M -0.00063329707,1161.2252 L -0.00063329707,1163.5378 L 1999.9682,1163.5378 L 1999.9682,1161.2252 L -0.00063329707,1161.2252 z M -0.00063329707,1165.8502 L -0.00063329707,1168.1315 L 1999.9682,1168.1315 L 1999.9682,1165.8502 L -0.00063329707,1165.8502 z M -0.00063329707,1170.4440 L -0.00063329707,1172.7252 L 1999.9682,1172.7252 L 1999.9682,1170.4440 L -0.00063329707,1170.4440 z M -0.00063329707,1175.0378 L -0.00063329707,1177.3502 L 1999.9682,1177.3502 L 1999.9682,1175.0378 L -0.00063329707,1175.0378 z M -0.00063329707,1179.7565 L -0.00063329707,1182.0690 L 1999.9682,1182.0690 L 1999.9682,1179.7565 L -0.00063329707,1179.7565 z M -0.00063329707,1184.3815 L -0.00063329707,1186.6628 L 1999.9682,1186.6628 L 1999.9682,1184.3815 L -0.00063329707,1184.3815 z M -0.00063329707,1189.3815 L -0.00063329707,1191.6628 L 1999.9682,1191.6628 L 1999.9682,1189.3815 L -0.00063329707,1189.3815 z M -0.00063329707,1193.9752 L -0.00063329707,1196.2878 L 1999.9682,1196.2878 L 1999.9682,1193.9752 L -0.00063329707,1193.9752 z M -0.00063329707,1198.6940 L -0.00063329707,1201.0065 L 1999.9682,1201.0065 L 1999.9682,1198.6940 L -0.00063329707,1198.6940 z M -0.00063329707,1203.3190 L -0.00063329707,1205.6002 L 1999.9682,1205.6002 L 1999.9682,1203.3190 L -0.00063329707,1203.3190 z M -0.00063329707,1207.9128 L -0.00063329707,1210.1940 L 1999.9682,1210.1940 L 1999.9682,1207.9128 L -0.00063329707,1207.9128 z M -0.00063329707,1212.5065 L -0.00063329707,1214.8190 L 1999.9682,1214.8190 L 1999.9682,1212.5065 L -0.00063329707,1212.5065 z M -0.00063329707,1217.2252 L -0.00063329707,1219.5378 L 1999.9682,1219.5378 L 1999.9682,1217.2252 L -0.00063329707,1217.2252 z M -0.00063329707,1221.8502 L -0.00063329707,1224.1315 L 1999.9682,1224.1315 L 1999.9682,1221.8502 L -0.00063329707,1221.8502 z M -0.00063329707,1226.5378 L -0.00063329707,1228.8190 L 1999.9682,1228.8190 L 1999.9682,1226.5378 L -0.00063329707,1226.5378 z M -0.00063329707,1231.1315 L -0.00063329707,1233.4440 L 1999.9682,1233.4440 L 1999.9682,1231.1315 L -0.00063329707,1231.1315 z M -0.00063329707,1235.8502 L -0.00063329707,1238.1628 L 1999.9682,1238.1628 L 1999.9682,1235.8502 L -0.00063329707,1235.8502 z M -0.00063329707,1240.4752 L -0.00063329707,1242.7565 L 1999.9682,1242.7565 L 1999.9682,1240.4752 L -0.00063329707,1240.4752 z M -0.00063329707,1245.0690 L -0.00063329707,1247.3502 L 1999.9682,1247.3502 L 1999.9682,1245.0690 L -0.00063329707,1245.0690 z M -0.00063329707,1249.6628 L -0.00063329707,1251.9752 L 1999.9682,1251.9752 L 1999.9682,1249.6628 L -0.00063329707,1249.6628 z M -0.00063329707,1254.3815 L -0.00063329707,1256.6940 L 1999.9682,1256.6940 L 1999.9682,1254.3815 L -0.00063329707,1254.3815 z M -0.00063329707,1259.0065 L -0.00063329707,1261.2878 L 1999.9682,1261.2878 L 1999.9682,1259.0065 L -0.00063329707,1259.0065 z M -0.00063329707,1263.6940 L -0.00063329707,1265.9752 L 1999.9682,1265.9752 L 1999.9682,1263.6940 L -0.00063329707,1263.6940 z M -0.00063329707,1268.2878 L -0.00063329707,1270.6002 L 1999.9682,1270.6002 L 1999.9682,1268.2878 L -0.00063329707,1268.2878 z M -0.00063329707,1273.0065 L -0.00063329707,1275.3190 L 1999.9682,1275.3190 L 1999.9682,1273.0065 L -0.00063329707,1273.0065 z M -0.00063329707,1277.6315 L -0.00063329707,1279.9128 L 1999.9682,1279.9128 L 1999.9682,1277.6315 L -0.00063329707,1277.6315 z M -0.00063329707,1282.2252 L -0.00063329707,1284.5065 L 1999.9682,1284.5065 L 1999.9682,1282.2252 L -0.00063329707,1282.2252 z M -0.00063329707,1286.8190 L -0.00063329707,1289.1315 L 1999.9682,1289.1315 L 1999.9682,1286.8190 L -0.00063329707,1286.8190 z M -0.00063329707,1291.5378 L -0.00063329707,1293.8502 L 1999.9682,1293.8502 L 1999.9682,1291.5378 L -0.00063329707,1291.5378 z M -0.00063329707,1296.1628 L -0.00063329707,1298.4440 L 1999.9682,1298.4440 L 1999.9682,1296.1628 L -0.00063329707,1296.1628 z M -0.00063329707,1300.8502 L -0.00063329707,1303.1315 L 1999.9682,1303.1315 L 1999.9682,1300.8502 L -0.00063329707,1300.8502 z M -0.00063329707,1305.4440 L -0.00063329707,1307.7565 L 1999.9682,1307.7565 L 1999.9682,1305.4440 L -0.00063329707,1305.4440 z M -0.00063329707,1310.1628 L -0.00063329707,1312.4752 L 1999.9682,1312.4752 L 1999.9682,1310.1628 L -0.00063329707,1310.1628 z M -0.00063329707,1314.7878 L -0.00063329707,1317.0690 L 1999.9682,1317.0690 L 1999.9682,1314.7878 L -0.00063329707,1314.7878 z M -0.00063329707,1319.3815 L -0.00063329707,1321.6628 L 1999.9682,1321.6628 L 1999.9682,1319.3815 L -0.00063329707,1319.3815 z M -0.00063329707,1323.9752 L -0.00063329707,1326.2878 L 1999.9682,1326.2878 L 1999.9682,1323.9752 L -0.00063329707,1323.9752 z M -0.00063329707,1328.6940 L -0.00063329707,1331.0065 L 1999.9682,1331.0065 L 1999.9682,1328.6940 L -0.00063329707,1328.6940 z M -0.00063329707,1333.3190 L -0.00063329707,1335.6002 L 1999.9682,1335.6002 L 1999.9682,1333.3190 L -0.00063329707,1333.3190 z M -0.00063329707,1337.9752 L -0.00063329707,1340.2565 L 1999.9682,1340.2565 L 1999.9682,1337.9752 L -0.00063329707,1337.9752 z M -0.00063329707,1342.5690 L -0.00063329707,1344.8815 L 1999.9682,1344.8815 L 1999.9682,1342.5690 L -0.00063329707,1342.5690 z M -0.00063329707,1347.2878 L -0.00063329707,1349.6002 L 1999.9682,1349.6002 L 1999.9682,1347.2878 L -0.00063329707,1347.2878 z M -0.00063329707,1351.9128 L -0.00063329707,1354.1940 L 1999.9682,1354.1940 L 1999.9682,1351.9128 L -0.00063329707,1351.9128 z M -0.00063329707,1356.5065 L -0.00063329707,1358.7878 L 1999.9682,1358.7878 L 1999.9682,1356.5065 L -0.00063329707,1356.5065 z M -0.00063329707,1361.1002 L -0.00063329707,1363.4128 L 1999.9682,1363.4128 L 1999.9682,1361.1002 L -0.00063329707,1361.1002 z M -0.00063329707,1365.8190 L -0.00063329707,1368.1315 L 1999.9682,1368.1315 L 1999.9682,1365.8190 L -0.00063329707,1365.8190 z M -0.00063329707,1370.4440 L -0.00063329707,1372.7252 L 1999.9682,1372.7252 L 1999.9682,1370.4440 L -0.00063329707,1370.4440 z M -0.00063329707,1375.1315 L -0.00063329707,1377.4128 L 1999.9682,1377.4128 L 1999.9682,1375.1315 L -0.00063329707,1375.1315 z M -0.00063329707,1379.7252 L -0.00063329707,1382.0378 L 1999.9682,1382.0378 L 1999.9682,1379.7252 L -0.00063329707,1379.7252 z M -0.00063329707,1384.4440 L -0.00063329707,1386.7565 L 1999.9682,1386.7565 L 1999.9682,1384.4440 L -0.00063329707,1384.4440 z M -0.00063329707,1389.0690 L -0.00063329707,1391.3502 L 1999.9682,1391.3502 L 1999.9682,1389.0690 L -0.00063329707,1389.0690 z M -0.00063329707,1393.6628 L -0.00063329707,1395.9440 L 1999.9682,1395.9440 L 1999.9682,1393.6628 L -0.00063329707,1393.6628 z M -0.00063329707,1398.2565 L -0.00063329707,1400.5690 L 1999.9682,1400.5690 L 1999.9682,1398.2565 L -0.00063329707,1398.2565 z M -0.00063329707,1402.9752 L -0.00063329707,1405.2878 L 1999.9682,1405.2878 L 1999.9682,1402.9752 L -0.00063329707,1402.9752 z M -0.00063329707,1407.6002 L -0.00063329707,1409.8815 L 1999.9682,1409.8815 L 1999.9682,1407.6002 L -0.00063329707,1407.6002 z M -0.00063329707,1412.2878 L -0.00063329707,1414.5690 L 1999.9682,1414.5690 L 1999.9682,1412.2878 L -0.00063329707,1412.2878 z M -0.00063329707,1416.8815 L -0.00063329707,1419.1940 L 1999.9682,1419.1940 L 1999.9682,1416.8815 L -0.00063329707,1416.8815 z M -0.00063329707,1421.6002 L -0.00063329707,1423.9128 L 1999.9682,1423.9128 L 1999.9682,1421.6002 L -0.00063329707,1421.6002 z M -0.00063329707,1426.2252 L -0.00063329707,1428.5065 L 1999.9682,1428.5065 L 1999.9682,1426.2252 L -0.00063329707,1426.2252 z M -0.00063329707,1430.8190 L -0.00063329707,1433.1002 L 1999.9682,1433.1002 L 1999.9682,1430.8190 L -0.00063329707,1430.8190 z M -0.00063329707,1435.4128 L -0.00063329707,1437.7252 L 1999.9682,1437.7252 L 1999.9682,1435.4128 L -0.00063329707,1435.4128 z M -0.00063329707,1440.1315 L -0.00063329707,1442.4440 L 1999.9682,1442.4440 L 1999.9682,1440.1315 L -0.00063329707,1440.1315 z M -0.00063329707,1444.7565 L -0.00063329707,1447.0378 L 1999.9682,1447.0378 L 1999.9682,1444.7565 L -0.00063329707,1444.7565 z M -0.00063329707,1449.4440 L -0.00063329707,1451.7252 L 1999.9682,1451.7252 L 1999.9682,1449.4440 L -0.00063329707,1449.4440 z M -0.00063329707,1454.0378 L -0.00063329707,1456.3502 L 1999.9682,1456.3502 L 1999.9682,1454.0378 L -0.00063329707,1454.0378 z M -0.00063329707,1458.7565 L -0.00063329707,1461.0690 L 1999.9682,1461.0690 L 1999.9682,1458.7565 L -0.00063329707,1458.7565 z M -0.00063329707,1463.3815 L -0.00063329707,1465.6628 L 1999.9682,1465.6628 L 1999.9682,1463.3815 L -0.00063329707,1463.3815 z M -0.00063329707,1467.9752 L -0.00063329707,1470.2565 L 1999.9682,1470.2565 L 1999.9682,1467.9752 L -0.00063329707,1467.9752 z M -0.00063329707,1472.5690 L -0.00063329707,1474.8815 L 1999.9682,1474.8815 L 1999.9682,1472.5690 L -0.00063329707,1472.5690 z M -0.00063329707,1477.2878 L -0.00063329707,1479.6002 L 1999.9682,1479.6002 L 1999.9682,1477.2878 L -0.00063329707,1477.2878 z M -0.00063329707,1481.9128 L -0.00063329707,1484.1940 L 1999.9682,1484.1940 L 1999.9682,1481.9128 L -0.00063329707,1481.9128 z M -0.00063329707,1486.6315 L -0.00063329707,1488.9128 L 1999.9682,1488.9128 L 1999.9682,1486.6315 L -0.00063329707,1486.6315 z M -0.00063329707,1491.2252 L -0.00063329707,1493.5378 L 1999.9682,1493.5378 L 1999.9682,1491.2252 L -0.00063329707,1491.2252 z M -0.00063329707,1495.9440 L -0.00063329707,1497.7252 L 1999.9682,1497.7252 L 1999.9682,1495.9440 L -0.00063329707,1495.9440 z "
     id="path2363" />
  <g
     id="g825"
     transform="translate(678.0443,525.3473)">
    <sodipodi:namedview
       id="namedview826"
       inkscape:zoom="1.0039440"
       inkscape:cx="252.64655"
       inkscape:cy="148.11153"
       inkscape:window-width="872"
       inkscape:window-height="708"
       inkscape:window-x="53"
       inkscape:window-y="95" />
    <defs
       id="defs550">
      <linearGradient
         x1="0.0000000"
         y1="0.0000000"
         x2="1.0000000"
         y2="0.0000000"
         id="linearGradient655"
         gradientUnits="objectBoundingBox"
         spreadMethod="pad">
        <stop
           style="stop-color:#000000;stop-opacity:1;"
           offset="0.00000000"
           id="stop657" />
        <stop
           style="stop-color:#ffffff;stop-opacity:1;"
           offset="1.00000000"
           id="stop656" />
      </linearGradient>
      <linearGradient
         x1="0.0000000"
         y1="0.0000000"
         x2="1.0000000"
         y2="0.0000000"
         id="linearGradient599"
         gradientUnits="objectBoundingBox"
         spreadMethod="pad">
        <stop
           style="stop-color:#d9cce6;stop-opacity:1;"
           offset="0.00000000"
           id="stop600" />
        <stop
           style="stop-color:#73667f;stop-opacity:1;"
           offset="1.00000000"
           id="stop601" />
      </linearGradient>
      <linearGradient
         x1="0.0000000"
         y1="0.0000000"
         x2="1.0000000"
         y2="0.0000000"
         id="linearGradient588"
         gradientUnits="objectBoundingBox"
         spreadMethod="pad">
        <stop
           style="stop-color:#a673f3;stop-opacity:1;"
           offset="0.00000000"
           id="stop589" />
        <stop
           style="stop-color:#4c3f8c;stop-opacity:1;"
           offset="1.00000000"
           id="stop590" />
      </linearGradient>
      <linearGradient
         x1="0.0000000"
         y1="0.0000000"
         x2="1.0000000"
         y2="0.0000000"
         id="linearGradient576"
         gradientUnits="objectBoundingBox"
         spreadMethod="pad">
        <stop
           style="stop-color:#000000;stop-opacity:1;"
           offset="0.00000000"
           id="stop577" />
        <stop
           style="stop-color:#000000;stop-opacity:0;"
           offset="1.00000000"
           id="stop578" />
      </linearGradient>
      <linearGradient
         x1="0.0000000"
         y1="0.0000000"
         x2="1.0000000"
         y2="0.0000000"
         id="linearGradient569"
         gradientUnits="objectBoundingBox"
         spreadMethod="pad">
        <stop
           style="stop-color:#f3ebff;stop-opacity:1;"
           offset="0.00000000"
           id="stop570" />
        <stop
           style="stop-color:#73667f;stop-opacity:1;"
           offset="1.00000000"
           id="stop571" />
      </linearGradient>
      <linearGradient
         x1="0.0000000"
         y1="0.0000000"
         x2="1.0000000"
         y2="0.0000000"
         id="linearGradient564"
         gradientUnits="objectBoundingBox"
         spreadMethod="pad">
        <stop
           style="stop-color:#7f7366;stop-opacity:1;"
           offset="0.00000000"
           id="stop565" />
        <stop
           style="stop-color:#7f7366;stop-opacity:0;"
           offset="1.00000000"
           id="stop566" />
      </linearGradient>
      <linearGradient
         x1="0.0000000"
         y1="0.0000000"
         x2="1.0000000"
         y2="0.0000000"
         id="linearGradient558"
         gradientUnits="objectBoundingBox"
         spreadMethod="pad">
        <stop
           style="stop-color:#ffffff;stop-opacity:1;"
           offset="0.00000000"
           id="stop559" />
        <stop
           style="stop-color:#ffffff;stop-opacity:0;"
           offset="1.00000000"
           id="stop560" />
      </linearGradient>
      <linearGradient
         x1="0.98684144"
         y1="0.96094108"
         x2="-0.99999803"
         y2="-0.39062563"
         id="linearGradient561"
         xlink:href="#linearGradient655"
         gradientUnits="objectBoundingBox"
         spreadMethod="pad" />
      <linearGradient
         x1="0.49351925"
         y1="0.99222833"
         x2="0.49350709"
         y2="0.015625300"
         id="linearGradient563"
         xlink:href="#linearGradient564"
         gradientUnits="objectBoundingBox"
         spreadMethod="pad" />
      <linearGradient
         x1="0.12337894"
         y1="0.99219656"
         x2="0.82467574"
         y2="3.7999999e-07"
         id="linearGradient572"
         xlink:href="#linearGradient569"
         gradientUnits="objectBoundingBox"
         spreadMethod="pad" />
      <linearGradient
         x1="0.032464620"
         y1="0.98445034"
         x2="0.69480515"
         y2="0.24218844"
         id="linearGradient575"
         xlink:href="#linearGradient564"
         gradientUnits="objectBoundingBox"
         spreadMethod="pad" />
      <radialGradient
         cx="0.47824559"
         cy="0.98435497"
         fx="0.47824559"
         fy="0.98435497"
         r="0.50345200"
         id="radialGradient579"
         xlink:href="#linearGradient576"
         gradientUnits="objectBoundingBox"
         spreadMethod="pad" />
      <linearGradient
         x1="0.57826090"
         y1="0.97656250"
         x2="0.29130435"
         y2="0.51562500"
         id="linearGradient583"
         xlink:href="#linearGradient564"
         gradientUnits="objectBoundingBox"
         spreadMethod="pad" />
      <linearGradient
         x1="0.96277922"
         y1="2.7200001e-06"
         x2="0.0053192200"
         y2="0.98437500"
         id="linearGradient585"
         xlink:href="#linearGradient558"
         gradientUnits="objectBoundingBox"
         spreadMethod="pad" />
      <radialGradient
         cx="0.14615387"
         cy="0.39062509"
         fx="0.14615387"
         fy="0.39062509"
         r="0.52400964"
         id="radialGradient587"
         xlink:href="#linearGradient558"
         gradientUnits="objectBoundingBox"
         spreadMethod="pad" />
      <radialGradient
         cx="0.13076705"
         cy="0.41407111"
         fx="0.13076705"
         fy="0.41407111"
         r="0.75421256"
         id="radialGradient592"
         xlink:href="#linearGradient558"
         gradientUnits="objectBoundingBox"
         spreadMethod="pad" />
      <radialGradient
         cx="0.49468088"
         cy="0.37500000"
         fx="0.49468088"
         fy="0.37500000"
         r="0.49492753"
         id="radialGradient602"
         xlink:href="#linearGradient599"
         gradientUnits="objectBoundingBox"
         spreadMethod="pad" />
      <defs
         id="defs604">
        <linearGradient
           x1="0.0000000"
           y1="0.0000000"
           x2="1.0000000"
           y2="0.0000000"
           id="linearGradient613"
           gradientUnits="objectBoundingBox"
           spreadMethod="pad">
          <stop
             style="stop-color:#0097ff;stop-opacity:0.85098;"
             offset="0.00000000"
             id="stop614" />
          <stop
             style="stop-color:#00257d;stop-opacity:0.85098;"
             offset="1.00000000"
             id="stop615" />
        </linearGradient>
        <linearGradient
           x1="0.0000000"
           y1="0.0000000"
           x2="1.0000000"
           y2="0.0000000"
           id="linearGradient608"
           gradientUnits="objectBoundingBox"
           spreadMethod="pad">
          <stop
             style="stop-color:#f3ffb7;stop-opacity:0.854902;"
             offset="0.00000000"
             id="stop609" />
          <stop
             style="stop-color:#edca2a;stop-opacity:0.854902;"
             offset="1.00000000"
             id="stop610" />
        </linearGradient>
        <linearGradient
           x1="0.0000000"
           y1="0.0000000"
           x2="1.0000000"
           y2="0.0000000"
           id="linearGradient553"
           xlink:href="#linearGradient655"
           gradientUnits="objectBoundingBox"
           spreadMethod="pad" />
        <linearGradient
           x1="1.0581408"
           y1="0.98435432"
           x2="-1.4767464"
           y2="-1.1953157"
           id="linearGradient556"
           xlink:href="#linearGradient553"
           gradientUnits="objectBoundingBox"
           spreadMethod="pad" />
        <linearGradient
           x1="1.0526310"
           y1="0.99218380"
           x2="-1.4078920"
           y2="-1.2031264"
           id="linearGradient615"
           xlink:href="#linearGradient553"
           gradientUnits="objectBoundingBox"
           spreadMethod="pad" />
        <linearGradient
           x1="1.0263019"
           y1="0.95311821"
           x2="-1.0394758"
           y2="-0.96093875"
           id="linearGradient560"
           xlink:href="#linearGradient553"
           gradientUnits="objectBoundingBox"
           spreadMethod="pad" />
        <linearGradient
           x1="0.98304546"
           y1="0.95313096"
           x2="-0.87288225"
           y2="-0.90625095"
           id="linearGradient562"
           xlink:href="#linearGradient553"
           gradientUnits="objectBoundingBox"
           spreadMethod="pad" />
        <linearGradient
           x1="0.97457647"
           y1="0.95312500"
           x2="-0.83050853"
           y2="-0.86718750"
           id="linearGradient618"
           xlink:href="#linearGradient553"
           gradientUnits="objectBoundingBox"
           spreadMethod="pad" />
        <linearGradient
           x1="2.0000000e-08"
           y1="0.046873029"
           x2="0.86718738"
           y2="0.77343762"
           id="linearGradient619"
           xlink:href="#linearGradient576"
           gradientUnits="objectBoundingBox"
           spreadMethod="pad" />
        <linearGradient
           x1="0.0000000"
           y1="0.0000000"
           x2="1.0000000"
           y2="0.0000000"
           id="linearGradient623"
           xlink:href="#linearGradient613"
           gradientUnits="objectBoundingBox"
           spreadMethod="pad" />
      </defs>
      <linearGradient
         x1="0.96511739"
         y1="0.98438019"
         x2="-1.4069782"
         y2="-0.81250185"
         id="linearGradient658"
         xlink:href="#linearGradient655"
         gradientUnits="objectBoundingBox"
         spreadMethod="pad" />
      <linearGradient
         x1="0.97457635"
         y1="0.97656238"
         x2="-1.0254236"
         y2="-1.4765626"
         id="linearGradient659"
         xlink:href="#linearGradient655"
         gradientUnits="objectBoundingBox"
         spreadMethod="pad" />
      <linearGradient
         x1="0.49999991"
         y1="-0.022731431"
         x2="0.50280893"
         y2="1.0000002"
         id="linearGradient667"
         xlink:href="#linearGradient558"
         gradientUnits="objectBoundingBox"
         spreadMethod="pad" />
      <linearGradient
         xlink:href="#linearGradient569"
         id="linearGradient739"
         x1="1.0104712"
         y1="0.0000000"
         x2="-0.0052355998"
         y2="1.0063291" />
    </defs>
    <path
       d="M 258.90171,228.20505 C 256.71870,221.69146 214.28588,210.53271 210.56312,179.99076 C 206.82413,148.83714 251.65307,102.57833 296.34053,101.68371 C 356.27751,100.00536 433.91933,171.16792 439.31183,211.48368 C 445.38298,256.33365 296.03089,352.72309 253.80070,347.44241 C 212.75955,342.78971 202.36444,308.52686 207.60499,284.81683 C 212.99656,261.38212 259.94161,234.24175 258.90171,228.20505 z "
       style="font-size:12.000000;opacity:0.29636899;fill:#000000;fill-opacity:1.0000000;fill-rule:evenodd;stroke-width:1.0000000pt;"
       id="path728" />
    <path
       d="M 257.59637,223.51696 C 255.59508,217.54548 216.69415,207.31554 213.28130,179.31579 C 209.85350,150.75517 250.95106,108.34678 291.91903,107.52660 C 346.86708,105.98798 418.04639,171.22734 422.99005,208.18740 C 428.55580,249.30425 291.63508,337.67073 252.91996,332.82955 C 215.29487,328.56407 205.76500,297.15321 210.56933,275.41668 C 215.51212,253.93245 258.54974,229.05120 257.59637,223.51696 z "
       style="font-size:12.000000;fill:#bfb8cc;fill-rule:evenodd;stroke:#261e2e;stroke-width:10.000000;"
       id="path729" />
    <path
       d="M 283.16748,212.50188 C 281.22542,206.70713 234.83089,196.74257 227.81511,178.55136 C 220.42520,160.59655 254.27111,121.87848 293.90582,118.68134 C 338.28518,115.05912 408.15974,168.96855 416.41357,205.71737 C 422.27715,232.67676 288.55157,318.51986 251.37674,311.34085 C 219.54940,305.92358 218.34794,288.85739 222.62831,276.06642 C 228.27084,259.82581 284.09262,217.87236 283.16748,212.50188 z "
       style="font-size:12.000000;fill:url(#radialGradient592);fill-rule:evenodd;stroke-width:1.0000000pt;"
       id="path730" />
    <path
       d="M 283.61967,212.83823 C 281.68414,207.06311 235.44678,197.13233 228.45484,179.00281 C 221.08996,161.10882 254.82117,122.52194 294.32162,119.33568 C 338.55056,115.72568 408.18838,169.45244 416.41417,206.07676 C 422.25793,232.94481 288.98547,318.49697 251.93661,311.34225 C 220.21710,305.94341 219.01971,288.93496 223.28559,276.18739 C 228.90902,260.00180 284.54160,218.19048 283.61967,212.83823 z "
       style="font-size:12.000000;fill:url(#radialGradient587);fill-rule:evenodd;stroke-width:1.0000000pt;"
       id="path731" />
    <path
       d="M 289.08548,157.40562 C 310.56977,137.45667 347.00314,170.38158 336.28610,189.38036 C 323.71144,210.14716 267.93567,177.04438 289.08548,157.40562 z "
       style="font-size:12.000000;fill:url(#linearGradient739);fill-rule:evenodd;stroke-width:1.0000000pt;"
       id="path732" />
    <path
       d="M 298.48783,164.26243 C 310.87154,152.76373 331.87207,171.74188 325.69463,182.69299 C 318.44652,194.66311 286.29693,175.58241 298.48783,164.26243 z "
       style="font-size:12.000000;fill:#bfb8cc;fill-opacity:1.0000000;fill-rule:evenodd;stroke-width:1.0000000pt;"
       id="path733" />
    <path
       d="M 298.48783,164.26243 C 310.87154,152.76373 331.87207,171.74188 325.69463,182.69299 C 318.44652,194.66311 286.29693,175.58241 298.48783,164.26243 z "
       style="font-size:12.000000;fill:url(#linearGradient563);fill-rule:evenodd;stroke-width:1.0000000pt;"
       id="path734" />
    <path
       d="M 325.70098,176.97342 C 325.54762,181.46682 322.73056,187.55820 316.39283,186.30092 C 310.13221,185.27718 299.96362,180.94360 296.98620,173.20519 C 296.11347,170.87156 309.56005,164.40270 314.64037,165.92509 C 318.55802,167.09805 325.90687,173.46155 325.70098,176.97342 z "
       style="font-size:12.000000;fill:url(#radialGradient579);fill-rule:evenodd;stroke-width:1.0000000pt;"
       id="path735"
       sodipodi:nodetypes="ccccc" />
    <path
       d="M 222.21680,176.16636 C 223.65454,200.13090 248.57452,206.84718 262.95311,217.87086 C 268.58482,218.82911 274.11239,213.88452 272.39638,210.42547 C 252.02643,201.31894 229.28626,193.89985 222.21680,176.16636 z "
       style="font-size:12.000000;fill:url(#linearGradient575);fill-rule:evenodd;stroke-width:1.0000000pt;"
       id="path736"
       sodipodi:nodetypes="cccc" />
    <path
       d="M 219.72717,297.93487 C 226.24963,315.14287 243.17997,324.85674 259.27736,325.41201 C 300.21589,324.02461 406.93228,251.02928 414.14881,216.33555 C 394.30388,240.20481 312.42776,304.87381 257.61230,311.25741 C 243.73530,311.53501 234.43717,309.73107 219.72717,297.93487 z "
       style="font-size:12.000000;fill:url(#linearGradient583);fill-rule:evenodd;stroke-width:1.0000000pt;"
       id="path737" />
    <path
       d="M 411.49415,204.05958 C 405.56560,196.38038 354.02520,269.68622 259.66361,307.61982 C 344.30692,282.30214 415.80516,209.72261 411.49415,204.05958 z "
       style="font-size:12.000000;opacity:0.80437499;fill:url(#linearGradient585);fill-rule:evenodd;stroke-width:1.0000000pt;"
       id="path738" />
  </g>
  <metadata
     id="metadata1193">
    <rdf:RDF
       id="RDF1194">
      <cc:Work
         rdf:about=""
         id="Work1195">
        <dc:format
           id="format1196">image/svg+xml</dc:format>
        <dc:type
           id="type1198"
           rdf:resource="http://purl.org/dc/dcmitype/StillImage" />
      </cc:Work>
    </rdf:RDF>
  </metadata>
</svg>
