<?xml version="1.0" encoding="UTF-8" standalone="no"?>
<!DOCTYPE svg PUBLIC "-//W3C//DTD SVG 20010904//EN"
"http://www.w3.org/TR/2001/REC-SVG-20010904/DTD/svg10.dtd">
<!-- Created with Inkscape (http://www.inkscape.org/) -->
<svg
   id="svg1"
   sodipodi:version="0.32"
   inkscape:version="0.39"
   width="1600.0000pt"
   height="1200.0000pt"
   sodipodi:docbase="/home/scaba/files/pre-release/lila-backgrounds"
   sodipodi:docname="lila-flower.svg"
   xmlns="http://www.w3.org/2000/svg"
   xmlns:inkscape="http://www.inkscape.org/namespaces/inkscape"
   xmlns:sodipodi="http://sodipodi.sourceforge.net/DTD/sodipodi-0.dtd"
   xmlns:xlink="http://www.w3.org/1999/xlink"
   xmlns:rdf="http://www.w3.org/1999/02/22-rdf-syntax-ns#"
   xmlns:cc="http://web.resource.org/cc/"
   xmlns:dc="http://purl.org/dc/elements/1.1/">
  <defs
     id="defs3">
    <linearGradient
       id="linearGradient2342">
      <stop
         style="stop-color:#d9cce6;stop-opacity:1.0000000;"
         offset="0.0000000"
         id="stop2343" />
      <stop
         style="stop-color:#73667f;stop-opacity:1.0000000;"
         offset="1.0000000"
         id="stop2344" />
    </linearGradient>
    <radialGradient
       xlink:href="#linearGradient2342"
       id="radialGradient945"
       cx="0.50000036"
       cy="0.50000036"
       r="0.64039814"
       fx="0.50000036"
       fy="0.50000036"
       spreadMethod="pad"
       gradientUnits="objectBoundingBox" />
    <linearGradient
       id="linearGradient1309">
      <stop
         style="stop-color:#faebdc;stop-opacity:1.0000000;"
         offset="0.0000000"
         id="stop1310" />
      <stop
         style="stop-color:#c7b397;stop-opacity:1.0000000;"
         offset="1.0000000"
         id="stop1311" />
    </linearGradient>
    <linearGradient
       id="linearGradient1267">
      <stop
         style="stop-color:#ffffff;stop-opacity:1.0000000;"
         offset="0.0000000"
         id="stop1268" />
      <stop
         style="stop-color:#ffffff;stop-opacity:0.0000000;"
         offset="1.0000000"
         id="stop1269" />
    </linearGradient>
    <linearGradient
       id="linearGradient1257">
      <stop
         style="stop-color:#d9cce6;stop-opacity:1.0000000;"
         offset="0.0000000"
         id="stop1258" />
      <stop
         style="stop-color:#73667f;stop-opacity:1.0000000;"
         offset="1.0000000"
         id="stop1259" />
    </linearGradient>
    <linearGradient
       id="linearGradient852">
      <stop
         style="stop-color:#8cb38c;stop-opacity:1.0000000;"
         offset="0.0000000"
         id="stop853" />
      <stop
         style="stop-color:#3f663f;stop-opacity:1.0000000;"
         offset="1.0000000"
         id="stop854" />
    </linearGradient>
    <linearGradient
       id="linearGradient846">
      <stop
         style="stop-color:#000000;stop-opacity:0.29838711;"
         offset="0.0000000"
         id="stop847" />
      <stop
         style="stop-color:#000000;stop-opacity:0.0000000;"
         offset="1.0000000"
         id="stop848" />
    </linearGradient>
    <linearGradient
       xlink:href="#linearGradient852"
       id="linearGradient849"
       x1="-8.0369739e-15"
       y1="0.29457363"
       x2="1.1500000"
       y2="0.62015504" />
    <linearGradient
       xlink:href="#linearGradient846"
       id="linearGradient851"
       x1="-5.0176877e-16"
       y1="0.50000000"
       x2="1.0000000"
       y2="0.50000000" />
    <linearGradient
       xlink:href="#linearGradient1257"
       id="linearGradient1256"
       x1="0.019230770"
       y1="0.015503876"
       x2="0.99038464"
       y2="0.99224806" />
    <radialGradient
       xlink:href="#linearGradient852"
       id="radialGradient1260"
       cx="0.76744187"
       cy="0.71317828"
       r="1.0232558"
       fx="0.77325583"
       fy="0.71705425" />
    <linearGradient
       xlink:href="#linearGradient1257"
       id="linearGradient1261"
       x1="0.0064935065"
       y1="0.015503876"
       x2="0.98701298"
       y2="0.98449612" />
    <linearGradient
       xlink:href="#linearGradient1257"
       id="linearGradient1262"
       x1="0.015625000"
       y1="0.0077519380"
       x2="0.98437500"
       y2="1.0155039" />
    <linearGradient
       xlink:href="#linearGradient1257"
       id="linearGradient1263"
       x1="0.018518519"
       y1="0.023255814"
       x2="0.97222221"
       y2="0.97674417" />
    <linearGradient
       xlink:href="#linearGradient1257"
       id="linearGradient1264"
       x1="0.0061728396"
       y1="0.0077519380"
       x2="1.0000000"
       y2="0.99224806" />
    <linearGradient
       xlink:href="#linearGradient1267"
       id="linearGradient1266"
       x1="3.0336844e-14"
       y1="0.015503876"
       x2="0.87500000"
       y2="0.96899223" />
    <linearGradient
       xlink:href="#linearGradient1267"
       id="linearGradient1271"
       x1="0.010204081"
       y1="0.0077519380"
       x2="0.59375000"
       y2="0.51162791" />
    <linearGradient
       xlink:href="#linearGradient1267"
       id="linearGradient1274"
       x1="-3.0943650e-13"
       y1="6.5284787e-14"
       x2="0.69999999"
       y2="0.62015504" />
    <linearGradient
       xlink:href="#linearGradient1309"
       id="linearGradient1308"
       x1="-4.7840204e-14"
       y1="-1.0108131e-13"
       x2="0.99374998"
       y2="0.97674417" />
    <linearGradient
       xlink:href="#linearGradient1309"
       id="linearGradient1312"
       x1="0.019607844"
       y1="0.015503876"
       x2="0.98039216"
       y2="0.99224806" />
    <linearGradient
       xlink:href="#linearGradient1309"
       id="linearGradient1313"
       x1="0.011904762"
       y1="0.0077519380"
       x2="0.99404764"
       y2="0.96124029" />
    <linearGradient
       xlink:href="#linearGradient1309"
       id="linearGradient1314"
       x1="-6.5565608e-14"
       y1="0.0077519380"
       x2="1.0250000"
       y2="1.0077519" />
    <linearGradient
       xlink:href="#linearGradient1309"
       id="linearGradient1315"
       x1="0.0089285718"
       y1="0.015503876"
       x2="0.98214287"
       y2="0.98449612" />
    <linearGradient
       xlink:href="#linearGradient1267"
       id="linearGradient1317"
       x1="-0.031250000"
       y1="0.015503876"
       x2="0.87500000"
       y2="0.63565892" />
    <linearGradient
       xlink:href="#linearGradient1267"
       id="linearGradient1319"
       x1="3.0427050e-14"
       y1="0.015503876"
       x2="0.43589744"
       y2="0.66666669" />
    <linearGradient
       xlink:href="#linearGradient1267"
       id="linearGradient1322"
       x1="0.015151516"
       y1="0.0077519380"
       x2="0.75000000"
       y2="0.71317828" />
  </defs>
  <sodipodi:namedview
     id="base"
     pagecolor="#ffffff"
     bordercolor="#666666"
     borderopacity="1.0"
     inkscape:pageopacity="0.0"
     inkscape:pageshadow="2"
     inkscape:zoom="0.35355339"
     inkscape:cx="1235.5399"
     inkscape:cy="618.12906"
     inkscape:window-width="1022"
     inkscape:window-height="695"
     showguides="true"
     snaptoguides="true"
     inkscape:window-x="0"
     inkscape:window-y="26" />
  <rect
     style="fill:url(#radialGradient945);fill-opacity:1.0000000;fill-rule:evenodd;stroke-width:1.0000000pt;"
     id="rect2341"
     width="1999.9939"
     height="1499.9821"
     x="2.5030518"
     y="3.5445061" />
  <path
     style="font-size:72.000000;fill-opacity:0.29999998;stroke-width:1.0000000pt;font-family:Andover;"
     d="M 1706.1865,1115.3759 L 1710.0889,1115.3759 L 1710.0889,1136.7509 L 1710.0889,1136.7860 L 1710.0889,1136.8563 C 1710.0654,1140.4188 1709.8896,1142.9384 1709.5615,1144.4149 C 1708.9521,1147.1102 1707.6631,1149.1727 1705.6943,1150.6024 C 1707.6162,1151.9852 1708.8818,1153.9540 1709.4912,1156.5087 C 1709.8662,1158.0321 1710.0654,1160.4462 1710.0889,1163.7509 L 1706.1865,1163.7509 C 1706.1865,1161.6415 1706.1396,1160.1180 1706.0459,1159.1805 C 1705.7646,1156.4618 1704.6514,1154.5282 1702.7061,1153.3798 C 1700.7373,1154.5282 1699.6240,1156.4618 1699.3662,1159.1805 C 1699.2725,1160.1884 1699.2256,1161.7118 1699.2256,1163.7509 L 1695.3232,1163.7509 C 1695.3232,1160.5165 1695.5107,1158.1024 1695.8857,1156.5087 C 1696.5186,1153.9540 1697.7959,1151.9852 1699.7178,1150.6024 C 1697.7490,1149.1727 1696.4600,1147.1102 1695.8506,1144.4149 C 1695.4990,1142.8680 1695.3232,1140.3485 1695.3232,1136.8563 L 1695.3232,1136.7860 L 1695.3232,1136.7509 L 1695.3232,1115.3759 L 1699.2256,1115.3759 L 1699.2256,1139.1063 C 1699.2256,1140.0673 1699.2725,1141.0399 1699.3662,1142.0243 C 1699.6240,1144.7665 1700.7373,1146.6884 1702.7061,1147.7899 C 1704.6748,1146.6649 1705.7881,1144.7430 1706.0459,1142.0243 C 1706.1396,1141.0399 1706.1865,1139.1415 1706.1865,1136.3290 L 1706.1865,1115.3759 z M 1679.7842,1164.3134 C 1678.2607,1164.3134 1676.8779,1163.8094 1675.6357,1162.8016 C 1674.2998,1161.7235 1673.6318,1160.4462 1673.6318,1158.9696 L 1673.6318,1115.4813 L 1677.5342,1115.4813 L 1677.5342,1157.7743 C 1677.5342,1159.3915 1678.3428,1160.2001 1679.9600,1160.2001 C 1681.5537,1160.2001 1682.3506,1159.3915 1682.3506,1157.7743 L 1682.3506,1115.4813 L 1686.2529,1115.4813 L 1686.2529,1159.1102 L 1686.2529,1159.2509 C 1686.2529,1160.1180 1686.3936,1161.0555 1686.6748,1162.0634 C 1687.0498,1163.3759 1687.5420,1164.1259 1688.1514,1164.3134 L 1684.0732,1164.3134 C 1683.6982,1164.0321 1683.4404,1163.7391 1683.2998,1163.4344 C 1682.1514,1164.0204 1680.9795,1164.3134 1679.7842,1164.3134 z M 1659.0771,1114.8837 C 1660.7178,1114.8837 1662.1709,1115.3641 1663.4365,1116.3251 C 1664.8428,1117.3798 1665.5459,1118.6923 1665.5459,1120.2626 L 1665.5459,1163.7509 L 1661.6436,1163.7509 L 1661.6436,1121.4579 C 1661.6436,1119.8407 1660.8467,1119.0321 1659.2529,1119.0321 C 1657.6357,1119.0321 1656.8271,1119.8407 1656.8271,1121.4579 L 1656.8271,1163.7509 L 1652.9248,1163.7509 L 1652.9248,1120.2626 C 1652.9248,1118.7860 1653.5928,1117.5087 1654.9287,1116.4305 C 1656.1943,1115.3993 1657.5771,1114.8837 1659.0771,1114.8837 z M 1640.7607,1163.7509 L 1640.7607,1124.9032 L 1644.6631,1124.9032 L 1644.6631,1163.7509 L 1640.7607,1163.7509 z M 1642.7295,1119.8759 C 1641.2061,1119.8759 1640.4443,1119.1259 1640.4443,1117.6259 C 1640.4443,1116.1259 1641.2061,1115.3759 1642.7295,1115.3759 C 1644.2295,1115.3759 1644.9795,1116.1259 1644.9795,1117.6259 C 1644.9795,1119.1259 1644.2295,1119.8759 1642.7295,1119.8759 z M 1626.6279,1147.3680 C 1626.6279,1152.5009 1627.2139,1155.9462 1628.3857,1157.7040 C 1629.2529,1159.0165 1630.9521,1160.0712 1633.4834,1160.8680 L 1631.3740,1164.3134 C 1627.5771,1163.1415 1625.0811,1161.0438 1623.8857,1158.0204 C 1623.1123,1156.0516 1622.7256,1152.6766 1622.7256,1147.8954 L 1622.7256,1147.8602 L 1622.7256,1147.7899 L 1622.7256,1115.3759 L 1626.6279,1115.3759 L 1626.6279,1147.3680 z M 1597.5889,1114.8837 C 1599.2295,1114.8837 1600.6826,1115.3641 1601.9482,1116.3251 C 1603.3545,1117.3798 1604.0576,1118.6923 1604.0576,1120.2626 L 1604.0576,1158.3719 C 1604.0576,1159.9657 1603.3662,1161.2782 1601.9834,1162.3094 C 1600.6943,1163.2704 1599.2295,1163.7509 1597.5889,1163.7509 C 1596.0889,1163.7509 1594.7061,1163.2352 1593.4404,1162.2040 C 1592.1045,1161.1259 1591.4365,1159.8485 1591.4365,1158.3719 L 1591.4365,1120.2626 C 1591.4365,1118.7860 1592.1045,1117.5087 1593.4404,1116.4305 C 1594.7061,1115.3993 1596.0889,1114.8837 1597.5889,1114.8837 z M 1597.7646,1119.0321 C 1596.1475,1119.0321 1595.3389,1119.8407 1595.3389,1121.4579 L 1595.3389,1157.5634 C 1595.3389,1159.1805 1596.1475,1159.9891 1597.7646,1159.9891 C 1599.3584,1159.9891 1600.1553,1159.1805 1600.1553,1157.5634 L 1600.1553,1121.4579 C 1600.1553,1119.8407 1599.3584,1119.0321 1597.7646,1119.0321 z M 1576.6709,1114.8837 C 1578.3115,1114.8837 1579.7646,1115.3641 1581.0303,1116.3251 C 1582.4365,1117.3798 1583.1396,1118.6923 1583.1396,1120.2626 L 1583.1396,1158.3719 C 1583.1396,1159.9657 1582.4482,1161.2782 1581.0654,1162.3094 C 1579.7764,1163.2704 1578.3115,1163.7509 1576.6709,1163.7509 C 1575.1709,1163.7509 1573.7881,1163.2352 1572.5225,1162.2040 C 1571.1865,1161.1259 1570.5186,1159.8485 1570.5186,1158.3719 L 1570.5186,1120.2626 C 1570.5186,1118.7860 1571.1865,1117.5087 1572.5225,1116.4305 C 1573.7881,1115.3993 1575.1709,1114.8837 1576.6709,1114.8837 z M 1576.8467,1119.0321 C 1575.2295,1119.0321 1574.4209,1119.8407 1574.4209,1121.4579 L 1574.4209,1157.5634 C 1574.4209,1159.1805 1575.2295,1159.9891 1576.8467,1159.9891 C 1578.4404,1159.9891 1579.2373,1159.1805 1579.2373,1157.5634 L 1579.2373,1121.4579 C 1579.2373,1119.8407 1578.4404,1119.0321 1576.8467,1119.0321 z M 1556.5264,1115.2352 L 1556.5264,1133.6923 L 1562.5732,1133.6923 L 1562.5732,1137.5946 L 1556.5264,1137.5946 L 1556.5264,1147.3680 C 1556.5264,1148.2821 1556.5264,1149.2196 1556.5264,1150.1805 C 1556.5029,1150.8602 1556.5615,1151.8329 1556.7021,1153.0985 C 1556.9365,1155.3016 1557.6045,1156.9071 1558.7061,1157.9149 C 1559.5732,1158.7587 1561.1787,1159.5438 1563.5225,1160.2704 L 1561.3779,1163.7509 C 1557.5811,1162.5555 1555.0850,1160.5634 1553.8896,1157.7743 C 1553.0693,1155.8524 1552.6592,1152.5829 1552.6592,1147.9657 C 1552.6357,1147.9188 1552.6240,1147.8602 1552.6240,1147.7899 L 1552.6592,1147.7899 L 1552.6592,1137.5946 L 1550.1631,1137.5946 L 1550.1631,1133.6923 L 1552.6592,1133.6923 L 1552.6592,1115.2352 L 1556.5264,1115.2352 z M 1535.6084,1114.8837 C 1537.2490,1114.8837 1538.7021,1115.3641 1539.9678,1116.3251 C 1541.3740,1117.3798 1542.0771,1118.6923 1542.0771,1120.2626 L 1542.0771,1163.7509 L 1538.1748,1163.7509 L 1538.1748,1121.4579 C 1538.1748,1119.8407 1537.3779,1119.0321 1535.7842,1119.0321 C 1534.1670,1119.0321 1533.3584,1119.8407 1533.3584,1121.4579 L 1533.3584,1163.7509 L 1529.4561,1163.7509 L 1529.4561,1120.2626 C 1529.4561,1118.7860 1530.1240,1117.5087 1531.4600,1116.4305 C 1532.7256,1115.3993 1534.1084,1114.8837 1535.6084,1114.8837 z M 1515.0420,1115.2352 L 1515.3936,1115.2352 C 1516.8936,1115.2352 1518.2881,1115.7626 1519.5771,1116.8173 C 1520.8662,1117.8719 1521.5107,1119.1376 1521.5107,1120.6141 L 1521.5107,1148.2118 C 1521.5107,1149.6884 1520.8662,1150.9540 1519.5771,1152.0087 C 1518.2881,1153.0634 1516.8936,1153.5907 1515.3936,1153.5907 L 1515.0420,1153.5907 C 1514.3389,1153.5907 1513.6475,1153.4618 1512.9678,1153.2040 C 1513.2021,1155.4305 1513.8936,1157.1180 1515.0420,1158.2665 C 1516.0498,1159.2743 1517.7021,1160.1415 1519.9990,1160.8680 L 1517.8545,1164.3134 C 1514.0342,1163.1415 1511.4912,1161.0673 1510.2256,1158.0907 C 1509.3350,1156.0048 1508.8896,1152.6298 1508.8896,1147.9657 L 1508.8896,1147.8954 L 1508.8896,1147.7899 L 1508.8896,1120.6141 C 1508.8896,1119.1376 1509.5576,1117.8602 1510.8936,1116.7821 C 1512.1592,1115.7509 1513.5420,1115.2352 1515.0420,1115.2352 z M 1515.2178,1119.4188 C 1513.6006,1119.4188 1512.7920,1120.2274 1512.7920,1121.8446 L 1512.7920,1147.3680 C 1512.7920,1148.9852 1513.6006,1149.7938 1515.2178,1149.7938 C 1516.8115,1149.7938 1517.6084,1148.9852 1517.6084,1147.3680 L 1517.6084,1121.8446 C 1517.6084,1120.2274 1516.8115,1119.4188 1515.2178,1119.4188 z M 1494.0537,1115.2352 C 1495.1084,1115.2352 1496.1982,1115.5399 1497.3232,1116.1493 C 1497.4404,1115.8915 1497.6748,1115.6337 1498.0264,1115.3759 L 1502.1045,1115.3759 C 1501.5186,1115.5634 1501.0381,1116.2899 1500.6631,1117.5555 C 1500.3584,1118.5868 1500.2061,1119.5126 1500.2061,1120.3329 L 1500.2061,1147.8954 L 1500.2061,1147.9657 C 1500.1826,1152.6532 1499.7373,1156.0165 1498.8701,1158.0555 C 1497.6279,1161.0555 1495.1084,1163.1415 1491.3115,1164.3134 L 1489.2021,1160.8680 C 1491.4756,1160.1415 1493.1045,1159.2743 1494.0889,1158.2665 C 1495.2139,1157.1180 1495.8936,1155.4305 1496.1279,1153.2040 C 1495.4248,1153.4618 1494.7334,1153.5907 1494.0537,1153.5907 L 1493.7373,1153.5907 C 1492.2373,1153.5907 1490.8545,1153.0751 1489.5889,1152.0438 C 1488.2529,1150.9657 1487.5850,1149.6884 1487.5850,1148.2118 L 1487.5850,1120.6141 C 1487.5850,1119.1376 1488.2529,1117.8602 1489.5889,1116.7821 C 1490.8545,1115.7509 1492.2373,1115.2352 1493.7373,1115.2352 L 1494.0537,1115.2352 z M 1493.9131,1119.4188 C 1492.2959,1119.4188 1491.4873,1120.2274 1491.4873,1121.8446 L 1491.4873,1147.3680 C 1491.4873,1148.9852 1492.2959,1149.7938 1493.9131,1149.7938 C 1495.5068,1149.7938 1496.3037,1148.9852 1496.3037,1147.3680 L 1496.3037,1121.8446 C 1496.3037,1120.2274 1495.5068,1119.4188 1493.9131,1119.4188 z "
     id="path1275" />
  <path
     style="fill:url(#linearGradient851);fill-rule:evenodd;stroke:none;stroke-opacity:1;stroke-width:1pt;stroke-linejoin:miter;stroke-linecap:butt;fill-opacity:1.0000000;"
     d="M 1436.2165,1218.8680 C 1436.9990,1220.6346 1452.0057,1220.4352 1459.9014,1220.1212 C 1525.5277,1217.5111 1657.5148,1211.7489 1656.7824,1210.0955 C 1656.0345,1208.4070 1521.9931,1207.4493 1455.4605,1210.0955 C 1448.4711,1210.3735 1435.5187,1217.2927 1436.2165,1218.8680 z "
     id="path1011"
     sodipodi:nodetypes="cssss" />
  <path
     style="fill:url(#linearGradient849);fill-rule:evenodd;stroke:#003f00;stroke-opacity:1.0000000;stroke-width:4.0625000;stroke-linejoin:miter;stroke-linecap:butt;fill-opacity:1.0000000;stroke-dasharray:none;"
     d="M 1433.8223,990.95119 C 1433.0838,1008.5266 1442.2408,1056.5268 1440.9115,1092.8593 C 1439.5823,1129.1917 1429.3740,1189.2946 1425.8469,1208.9459 C 1424.8130,1213.8198 1432.0500,1217.5121 1435.5946,1217.8074 C 1439.1392,1218.1028 1446.8192,1216.1828 1447.1146,1210.7182 C 1448.1255,1188.9847 1458.0439,1121.2163 1457.7485,1083.9977 C 1457.4531,1046.7791 1449.3300,1002.9143 1445.3423,987.40656 C 1441.3546,971.89881 1434.5607,973.37574 1433.8223,990.95119 z "
     id="path1010"
     sodipodi:nodetypes="czssszzz" />
  <path
     style="fill:url(#linearGradient1264);fill-rule:evenodd;stroke:#261933;stroke-width:3.2461697pt;stroke-opacity:1.0000000;"
     d="M 1392.9017,1004.0608 C 1316.2087,1022.6616 1371.5444,900.22695 1403.8622,937.43892 L 1449.7479,990.27350 L 1392.9017,1004.0608 z "
     id="path830"
     sodipodi:nodetypes="czcz" />
  <path
     style="fill:url(#linearGradient1262);fill-rule:evenodd;stroke:#261933;stroke-width:3.2461697pt;stroke-opacity:1.0000000;"
     d="M 1497.4286,999.60659 C 1573.2532,1020.8590 1466.3307,1101.1526 1455.9562,1052.6786 L 1441.2261,983.85395 L 1497.4286,999.60659 z "
     id="path833"
     sodipodi:nodetypes="czcz" />
  <path
     style="fill:url(#linearGradient1261);fill-rule:evenodd;stroke:#261933;stroke-width:3.2728954pt;stroke-opacity:1.0000000;"
     d="M 1476.8783,935.54440 C 1525.4588,871.42828 1557.8496,1003.6222 1509.5073,995.12833 L 1440.8696,983.06841 L 1476.8783,935.54440 z "
     id="path834"
     sodipodi:nodetypes="czcz" />
  <path
     style="fill:url(#linearGradient1256);fill-rule:evenodd;stroke:#261933;stroke-width:3.2461697pt;stroke-opacity:1.0000000;"
     d="M 1409.6567,935.86837 C 1366.3530,869.52337 1498.8137,879.39578 1475.2337,923.05534 L 1441.7541,985.04442 L 1409.6567,935.86837 z "
     id="path835"
     sodipodi:nodetypes="czcz" />
  <path
     style="fill:url(#linearGradient1263);fill-rule:evenodd;stroke:#261933;stroke-width:3.2461697pt;stroke-opacity:1.0000000;"
     d="M 1438.5035,1041.9136 C 1433.8822,1121.4717 1333.9069,1033.4565 1378.5473,1012.5820 L 1441.9289,982.94378 L 1438.5035,1041.9136 z "
     id="path836"
     sodipodi:nodetypes="czcz" />
  <path
     style="fill:url(#linearGradient1313);fill-opacity:0.41999999;fill-rule:evenodd;stroke:#261933;stroke-width:1.1502402pt;stroke-opacity:1.0000000;"
     d="M 1456.1936,966.72256 C 1472.6532,944.88106 1487.6299,988.78261 1469.5970,986.35651 L 1443.9934,982.91187 L 1456.1936,966.72256 z "
     id="path859"
     sodipodi:nodetypes="czcz" />
  <path
     style="fill:url(#linearGradient1312);fill-opacity:0.41999999;fill-rule:evenodd;stroke:#261933;stroke-width:1.1436485pt;stroke-opacity:1.0000000;"
     d="M 1430.7804,965.42717 C 1415.5163,942.93806 1461.3689,942.50989 1453.4037,958.86916 L 1442.0944,982.09649 L 1430.7804,965.42717 z "
     id="path860"
     sodipodi:nodetypes="czcz" />
  <path
     style="fill:url(#linearGradient1315);fill-opacity:0.41999999;fill-rule:evenodd;stroke:#261933;stroke-width:1.1436485pt;stroke-opacity:1.0000000;"
     d="M 1437.9364,1007.0949 C 1436.1476,1034.3828 1399.9756,1006.0620 1416.2110,998.13031 L 1439.2624,986.86869 L 1437.9364,1007.0949 z "
     id="path861"
     sodipodi:nodetypes="czcz" />
  <path
     style="fill:url(#linearGradient1308);fill-opacity:0.41999999;fill-rule:evenodd;stroke:#261933;stroke-width:1.1436485pt;stroke-opacity:1.0000000;"
     d="M 1420.0137,987.47860 C 1393.4592,992.73183 1411.6148,950.06129 1423.2196,963.91496 L 1439.6963,983.58478 L 1420.0137,987.47860 z "
     id="path862"
     sodipodi:nodetypes="czcz" />
  <path
     style="fill:url(#linearGradient1314);fill-opacity:0.41732284;fill-rule:evenodd;stroke:#261933;stroke-width:1.1290157pt;stroke-opacity:1.0000000;"
     d="M 1463.2086,992.63314 C 1488.7567,1000.3846 1453.5169,1029.2781 1449.6964,1011.7602 L 1444.2719,986.88765 L 1463.2086,992.63314 z "
     id="path863"
     sodipodi:nodetypes="czcz" />
  <path
     style="font-size:72.000000;fill:#00ff00;stroke-width:0.62500000;font-family:Andover;stroke:#261933;stroke-opacity:1.0000000;fill-opacity:1.0000000;stroke-dasharray:none;"
     d="M 1703.6965,1112.8290 L 1707.5989,1112.8290 L 1707.5989,1134.2040 L 1707.5989,1134.2391 L 1707.5989,1134.3094 C 1707.5754,1137.8719 1707.3997,1140.3915 1707.0715,1141.8680 C 1706.4622,1144.5634 1705.1731,1146.6259 1703.2043,1148.0555 C 1705.1262,1149.4384 1706.3918,1151.4071 1707.0012,1153.9618 C 1707.3762,1155.4852 1707.5754,1157.8993 1707.5989,1161.2040 L 1703.6965,1161.2040 C 1703.6965,1159.0946 1703.6497,1157.5712 1703.5559,1156.6337 C 1703.2747,1153.9149 1702.1614,1151.9813 1700.2161,1150.8329 C 1698.2473,1151.9813 1697.1340,1153.9149 1696.8762,1156.6337 C 1696.7825,1157.6415 1696.7356,1159.1649 1696.7356,1161.2040 L 1692.8333,1161.2040 C 1692.8333,1157.9696 1693.0208,1155.5555 1693.3958,1153.9618 C 1694.0286,1151.4071 1695.3059,1149.4384 1697.2278,1148.0555 C 1695.2590,1146.6259 1693.9700,1144.5634 1693.3606,1141.8680 C 1693.0090,1140.3212 1692.8333,1137.8016 1692.8333,1134.3094 L 1692.8333,1134.2391 L 1692.8333,1134.2040 L 1692.8333,1112.8290 L 1696.7356,1112.8290 L 1696.7356,1136.5594 C 1696.7356,1137.5204 1696.7825,1138.4930 1696.8762,1139.4774 C 1697.1340,1142.2196 1698.2473,1144.1415 1700.2161,1145.2430 C 1702.1848,1144.1180 1703.2981,1142.1962 1703.5559,1139.4774 C 1703.6497,1138.4930 1703.6965,1136.5946 1703.6965,1133.7821 L 1703.6965,1112.8290 z M 1677.2942,1161.7665 C 1675.7708,1161.7665 1674.3879,1161.2626 1673.1458,1160.2548 C 1671.8098,1159.1766 1671.1418,1157.8993 1671.1418,1156.4227 L 1671.1418,1112.9344 L 1675.0442,1112.9344 L 1675.0442,1155.2274 C 1675.0442,1156.8446 1675.8528,1157.6532 1677.4700,1157.6532 C 1679.0637,1157.6532 1679.8606,1156.8446 1679.8606,1155.2274 L 1679.8606,1112.9344 L 1683.7629,1112.9344 L 1683.7629,1156.5634 L 1683.7629,1156.7040 C 1683.7629,1157.5712 1683.9036,1158.5087 1684.1848,1159.5165 C 1684.5598,1160.8290 1685.0520,1161.5790 1685.6614,1161.7665 L 1681.5833,1161.7665 C 1681.2083,1161.4852 1680.9504,1161.1923 1680.8098,1160.8876 C 1679.6614,1161.4735 1678.4895,1161.7665 1677.2942,1161.7665 z M 1656.5872,1112.3368 C 1658.2278,1112.3368 1659.6809,1112.8173 1660.9465,1113.7782 C 1662.3528,1114.8329 1663.0559,1116.1454 1663.0559,1117.7157 L 1663.0559,1161.2040 L 1659.1536,1161.2040 L 1659.1536,1118.9110 C 1659.1536,1117.2938 1658.3567,1116.4852 1656.7629,1116.4852 C 1655.1458,1116.4852 1654.3372,1117.2938 1654.3372,1118.9110 L 1654.3372,1161.2040 L 1650.4348,1161.2040 L 1650.4348,1117.7157 C 1650.4348,1116.2391 1651.1028,1114.9618 1652.4387,1113.8837 C 1653.7043,1112.8524 1655.0872,1112.3368 1656.5872,1112.3368 z M 1638.2708,1161.2040 L 1638.2708,1122.3563 L 1642.1731,1122.3563 L 1642.1731,1161.2040 L 1638.2708,1161.2040 z M 1640.2395,1117.3290 C 1638.7161,1117.3290 1637.9543,1116.5790 1637.9543,1115.0790 C 1637.9543,1113.5790 1638.7161,1112.8290 1640.2395,1112.8290 C 1641.7395,1112.8290 1642.4895,1113.5790 1642.4895,1115.0790 C 1642.4895,1116.5790 1641.7395,1117.3290 1640.2395,1117.3290 z M 1624.1379,1144.8212 C 1624.1379,1149.9540 1624.7239,1153.3993 1625.8958,1155.1571 C 1626.7629,1156.4696 1628.4622,1157.5243 1630.9934,1158.3212 L 1628.8840,1161.7665 C 1625.0872,1160.5946 1622.5911,1158.4969 1621.3958,1155.4735 C 1620.6223,1153.5048 1620.2356,1150.1298 1620.2356,1145.3485 L 1620.2356,1145.3134 L 1620.2356,1145.2430 L 1620.2356,1112.8290 L 1624.1379,1112.8290 L 1624.1379,1144.8212 z M 1595.0989,1112.3368 C 1596.7395,1112.3368 1598.1926,1112.8173 1599.4583,1113.7782 C 1600.8645,1114.8329 1601.5676,1116.1454 1601.5676,1117.7157 L 1601.5676,1155.8251 C 1601.5676,1157.4188 1600.8762,1158.7313 1599.4934,1159.7626 C 1598.2043,1160.7235 1596.7395,1161.2040 1595.0989,1161.2040 C 1593.5989,1161.2040 1592.2161,1160.6884 1590.9504,1159.6571 C 1589.6145,1158.5790 1588.9465,1157.3016 1588.9465,1155.8251 L 1588.9465,1117.7157 C 1588.9465,1116.2391 1589.6145,1114.9618 1590.9504,1113.8837 C 1592.2161,1112.8524 1593.5989,1112.3368 1595.0989,1112.3368 z M 1595.2747,1116.4852 C 1593.6575,1116.4852 1592.8489,1117.2938 1592.8489,1118.9110 L 1592.8489,1155.0165 C 1592.8489,1156.6337 1593.6575,1157.4423 1595.2747,1157.4423 C 1596.8684,1157.4423 1597.6653,1156.6337 1597.6653,1155.0165 L 1597.6653,1118.9110 C 1597.6653,1117.2938 1596.8684,1116.4852 1595.2747,1116.4852 z M 1574.1809,1112.3368 C 1575.8215,1112.3368 1577.2747,1112.8173 1578.5403,1113.7782 C 1579.9465,1114.8329 1580.6497,1116.1454 1580.6497,1117.7157 L 1580.6497,1155.8251 C 1580.6497,1157.4188 1579.9583,1158.7313 1578.5754,1159.7626 C 1577.2864,1160.7235 1575.8215,1161.2040 1574.1809,1161.2040 C 1572.6809,1161.2040 1571.2981,1160.6884 1570.0325,1159.6571 C 1568.6965,1158.5790 1568.0286,1157.3016 1568.0286,1155.8251 L 1568.0286,1117.7157 C 1568.0286,1116.2391 1568.6965,1114.9618 1570.0325,1113.8837 C 1571.2981,1112.8524 1572.6809,1112.3368 1574.1809,1112.3368 z M 1574.3567,1116.4852 C 1572.7395,1116.4852 1571.9309,1117.2938 1571.9309,1118.9110 L 1571.9309,1155.0165 C 1571.9309,1156.6337 1572.7395,1157.4423 1574.3567,1157.4423 C 1575.9504,1157.4423 1576.7473,1156.6337 1576.7473,1155.0165 L 1576.7473,1118.9110 C 1576.7473,1117.2938 1575.9504,1116.4852 1574.3567,1116.4852 z M 1554.0364,1112.6884 L 1554.0364,1131.1454 L 1560.0833,1131.1454 L 1560.0833,1135.0477 L 1554.0364,1135.0477 L 1554.0364,1144.8212 C 1554.0364,1145.7352 1554.0364,1146.6727 1554.0364,1147.6337 C 1554.0129,1148.3134 1554.0715,1149.2860 1554.2122,1150.5516 C 1554.4465,1152.7548 1555.1145,1154.3602 1556.2161,1155.3680 C 1557.0833,1156.2118 1558.6887,1156.9969 1561.0325,1157.7235 L 1558.8879,1161.2040 C 1555.0911,1160.0087 1552.5950,1158.0165 1551.3997,1155.2274 C 1550.5793,1153.3055 1550.1692,1150.0360 1550.1692,1145.4188 C 1550.1458,1145.3719 1550.1340,1145.3134 1550.1340,1145.2430 L 1550.1692,1145.2430 L 1550.1692,1135.0477 L 1547.6731,1135.0477 L 1547.6731,1131.1454 L 1550.1692,1131.1454 L 1550.1692,1112.6884 L 1554.0364,1112.6884 z M 1533.1184,1112.3368 C 1534.7590,1112.3368 1536.2122,1112.8173 1537.4778,1113.7782 C 1538.8840,1114.8329 1539.5872,1116.1454 1539.5872,1117.7157 L 1539.5872,1161.2040 L 1535.6848,1161.2040 L 1535.6848,1118.9110 C 1535.6848,1117.2938 1534.8879,1116.4852 1533.2942,1116.4852 C 1531.6770,1116.4852 1530.8684,1117.2938 1530.8684,1118.9110 L 1530.8684,1161.2040 L 1526.9661,1161.2040 L 1526.9661,1117.7157 C 1526.9661,1116.2391 1527.6340,1114.9618 1528.9700,1113.8837 C 1530.2356,1112.8524 1531.6184,1112.3368 1533.1184,1112.3368 z M 1512.5520,1112.6884 L 1512.9036,1112.6884 C 1514.4036,1112.6884 1515.7981,1113.2157 1517.0872,1114.2704 C 1518.3762,1115.3251 1519.0208,1116.5907 1519.0208,1118.0673 L 1519.0208,1145.6649 C 1519.0208,1147.1415 1518.3762,1148.4071 1517.0872,1149.4618 C 1515.7981,1150.5165 1514.4036,1151.0438 1512.9036,1151.0438 L 1512.5520,1151.0438 C 1511.8489,1151.0438 1511.1575,1150.9149 1510.4778,1150.6571 C 1510.7122,1152.8837 1511.4036,1154.5712 1512.5520,1155.7196 C 1513.5598,1156.7274 1515.2122,1157.5946 1517.5090,1158.3212 L 1515.3645,1161.7665 C 1511.5442,1160.5946 1509.0012,1158.5204 1507.7356,1155.5438 C 1506.8450,1153.4579 1506.3997,1150.0829 1506.3997,1145.4188 L 1506.3997,1145.3485 L 1506.3997,1145.2430 L 1506.3997,1118.0673 C 1506.3997,1116.5907 1507.0676,1115.3134 1508.4036,1114.2352 C 1509.6692,1113.2040 1511.0520,1112.6884 1512.5520,1112.6884 z M 1512.7278,1116.8719 C 1511.1106,1116.8719 1510.3020,1117.6805 1510.3020,1119.2977 L 1510.3020,1144.8212 C 1510.3020,1146.4384 1511.1106,1147.2469 1512.7278,1147.2469 C 1514.3215,1147.2469 1515.1184,1146.4384 1515.1184,1144.8212 L 1515.1184,1119.2977 C 1515.1184,1117.6805 1514.3215,1116.8719 1512.7278,1116.8719 z M 1491.5637,1112.6884 C 1492.6184,1112.6884 1493.7083,1112.9930 1494.8333,1113.6024 C 1494.9504,1113.3446 1495.1848,1113.0868 1495.5364,1112.8290 L 1499.6145,1112.8290 C 1499.0286,1113.0165 1498.5481,1113.7430 1498.1731,1115.0087 C 1497.8684,1116.0399 1497.7161,1116.9657 1497.7161,1117.7860 L 1497.7161,1145.3485 L 1497.7161,1145.4188 C 1497.6926,1150.1063 1497.2473,1153.4696 1496.3801,1155.5087 C 1495.1379,1158.5087 1492.6184,1160.5946 1488.8215,1161.7665 L 1486.7122,1158.3212 C 1488.9856,1157.5946 1490.6145,1156.7274 1491.5989,1155.7196 C 1492.7239,1154.5712 1493.4036,1152.8837 1493.6379,1150.6571 C 1492.9348,1150.9149 1492.2434,1151.0438 1491.5637,1151.0438 L 1491.2473,1151.0438 C 1489.7473,1151.0438 1488.3645,1150.5282 1487.0989,1149.4969 C 1485.7629,1148.4188 1485.0950,1147.1415 1485.0950,1145.6649 L 1485.0950,1118.0673 C 1485.0950,1116.5907 1485.7629,1115.3134 1487.0989,1114.2352 C 1488.3645,1113.2040 1489.7473,1112.6884 1491.2473,1112.6884 L 1491.5637,1112.6884 z M 1491.4231,1116.8719 C 1489.8059,1116.8719 1488.9973,1117.6805 1488.9973,1119.2977 L 1488.9973,1144.8212 C 1488.9973,1146.4384 1489.8059,1147.2469 1491.4231,1147.2469 C 1493.0168,1147.2469 1493.8137,1146.4384 1493.8137,1144.8212 L 1493.8137,1119.2977 C 1493.8137,1117.6805 1493.0168,1116.8719 1491.4231,1116.8719 z "
     id="path1276" />
  <path
     style="fill:url(#linearGradient1266);fill-rule:evenodd;stroke:none;stroke-opacity:1;stroke-width:1pt;stroke-linejoin:miter;stroke-linecap:butt;fill-opacity:0.41999999;"
     d="M 1430.1235,1209.2023 C 1429.0923,1209.0550 1440.7300,1154.1070 1443.8236,1104.9041 C 1446.9171,1056.1432 1439.6989,1025.2073 1440.7301,1025.3546 C 1441.7613,1025.5019 1449.1270,1050.6189 1446.0333,1106.4509 C 1442.4978,1162.2829 1431.1547,1209.3496 1430.1235,1209.2023 z "
     id="path1265"
     sodipodi:nodetypes="czzzz" />
  <path
     style="fill:url(#linearGradient1271);fill-rule:evenodd;stroke:none;stroke-opacity:1;stroke-width:1pt;stroke-linejoin:miter;stroke-linecap:butt;fill-opacity:1;"
     d="M 1366.2878,999.16897 C 1357.1137,991.85203 1357.3503,976.29904 1361.1805,967.90215 C 1365.0107,959.50526 1368.2516,949.04596 1377.0905,941.38564 C 1386.8132,933.72532 1393.6519,931.81891 1405.1787,945.03761 C 1396.0804,942.31881 1385.8497,938.81310 1374.8678,956.17880 C 1363.5734,973.85700 1361.0869,988.04841 1366.2878,999.16897 z "
     id="path1270"
     sodipodi:nodetypes="czzczc" />
  <path
     style="fill:url(#linearGradient1271);fill-rule:evenodd;stroke:none;stroke-opacity:1;stroke-width:1pt;stroke-linejoin:miter;stroke-linecap:butt;fill-opacity:1;"
     d="M 1410.6741,984.33452 C 1407.6910,981.95532 1407.7679,976.89802 1409.0134,974.16762 C 1410.2588,971.43722 1411.3126,968.03620 1414.1868,965.54532 C 1417.3483,963.05444 1419.5720,962.43454 1423.3201,966.73282 C 1420.3616,965.84876 1417.0350,964.70882 1413.4640,970.35552 C 1409.7915,976.10392 1408.9829,980.71852 1410.6741,984.33452 z "
     id="path1272"
     sodipodi:nodetypes="czzczc" />
  <path
     style="fill:url(#linearGradient1274);fill-rule:evenodd;stroke:none;stroke-opacity:1;stroke-width:1pt;stroke-linejoin:miter;stroke-linecap:butt;fill-opacity:1;"
     d="M 1372.5000,1033.1250 C 1371.7043,1032.3293 1369.6192,1023.5409 1375.0000,1020.0000 C 1392.1723,1008.0028 1434.8855,991.13550 1435.6250,991.87500 C 1436.3438,992.59384 1395.1666,1009.5659 1379.0625,1023.7500 C 1375.0478,1027.0108 1373.1627,1033.7877 1372.5000,1033.1250 z "
     id="path1273"
     sodipodi:nodetypes="cssss" />
  <path
     style="fill:url(#linearGradient1317);fill-rule:evenodd;stroke:none;stroke-opacity:1;stroke-width:1pt;stroke-linejoin:miter;stroke-linecap:butt;fill-opacity:1;"
     d="M 1459.7336,1051.8711 C 1459.1931,1050.9446 1447.8631,997.84001 1447.8011,990.44118 C 1447.5427,986.64717 1462.2375,994.73366 1462.8271,995.74448 C 1463.2687,996.50143 1451.1666,992.50382 1450.8947,995.74448 C 1450.4844,1005.9029 1460.2243,1052.7123 1459.7336,1051.8711 z "
     id="path1316"
     sodipodi:nodetypes="cssss" />
  <path
     style="fill:url(#linearGradient1319);fill-rule:evenodd;stroke:none;stroke-opacity:1;stroke-width:1pt;stroke-linejoin:miter;stroke-linecap:butt;fill-opacity:1;"
     d="M 1409.7941,928.12739 C 1408.6669,927.72481 1404.9130,919.16292 1404.9327,911.99652 C 1404.9491,905.82229 1407.8602,901.24191 1412.8877,897.85438 C 1420.5742,893.01313 1428.1798,891.28218 1439.4042,891.88817 C 1455.5323,892.44139 1469.8982,902.91544 1469.8982,903.82060 C 1469.8982,904.68321 1441.9086,890.12040 1421.7266,901.61089 C 1401.9865,913.10138 1410.7293,928.46138 1409.7941,928.12739 z "
     id="path1318"
     sodipodi:nodetypes="csssszs" />
  <path
     style="fill:url(#linearGradient1319);fill-rule:evenodd;stroke:none;stroke-opacity:1;stroke-width:1pt;stroke-linejoin:miter;stroke-linecap:butt;fill-opacity:1;"
     d="M 1431.3257,962.55047 C 1430.9294,962.40669 1429.6098,959.34866 1429.6168,956.78905 C 1429.6225,954.58382 1430.6458,952.94786 1432.4132,951.73794 C 1435.1152,950.00881 1437.7887,949.39057 1441.7344,949.60701 C 1447.4037,949.80460 1452.4537,953.54559 1452.4537,953.86889 C 1452.4537,954.17697 1442.6147,948.97562 1435.5202,953.07965 C 1428.5812,957.18367 1431.6544,962.66976 1431.3257,962.55047 z "
     id="path1320"
     sodipodi:nodetypes="csssszs" />
  <path
     style="fill:url(#linearGradient1322);fill-rule:evenodd;stroke:none;stroke-opacity:1;stroke-width:1pt;stroke-linejoin:miter;stroke-linecap:butt;fill-opacity:1;"
     d="M 1448.6850,979.83458 C 1446.4572,980.37465 1475.6125,941.68015 1491.9953,926.80157 C 1497.6742,922.08602 1509.7297,921.58731 1506.5794,923.26603 C 1487.3295,933.75949 1451.3186,979.19614 1448.6850,979.83458 z "
     id="path1321"
     sodipodi:nodetypes="csss" />
  <metadata
     id="metadata977">
    <rdf:RDF
       id="RDF978">
      <cc:Work
         rdf:about=""
         id="Work979">
        <dc:format
           id="format980">image/svg+xml</dc:format>
        <dc:type
           id="type982"
           rdf:resource="http://purl.org/dc/dcmitype/StillImage" />
      </cc:Work>
    </rdf:RDF>
  </metadata>
</svg>
