<?xml version="1.0" encoding="UTF-8" standalone="no"?>
<!DOCTYPE svg PUBLIC "-//W3C//DTD SVG 1.0//EN"
"http://www.w3.org/TR/2001/REC-SVG-20010904/DTD/svg10.dtd">
<!-- Created with Inkscape (http://www.inkscape.org/) -->
<svg
   id="svg1"
   sodipodi:version="0.32"
   inkscape:version="0.38.1"
   xmlns="http://www.w3.org/2000/svg"
   xmlns:sodipodi="http://sodipodi.sourceforge.net/DTD/sodipodi-0.dtd"
   xmlns:inkscape="http://www.inkscape.org/namespaces/inkscape"
   xmlns:xlink="http://www.w3.org/1999/xlink"
   width="1600.0000pt"
   height="1200.0000pt"
   sodipodi:docbase="/home/dan/Projects/Lila-backgrounds"
   sodipodi:docname="scanline-gradient.svg">
  <defs
     id="defs3">
    <linearGradient
       id="linearGradient2342">
      <stop
         style="stop-color:#73667f;stop-opacity:1.0000000;"
         offset="0.0000000"
         id="stop2343" />
      <stop
         style="stop-color:#d9cce6;stop-opacity:1.0000000;"
         offset="1.0000000"
         id="stop2344" />
    </linearGradient>
    <linearGradient
       xlink:href="#linearGradient2342"
       id="linearGradient2345"
       x1="0.98265898"
       y1="0.96875000"
       x2="0.023121387"
       y2="-0.0078125000" />
  </defs>
  <sodipodi:namedview
     id="base"
     pagecolor="#ffffff"
     bordercolor="#666666"
     borderopacity="1.0"
     inkscape:pageopacity="0.0"
     inkscape:pageshadow="2"
     inkscape:zoom="0.30699632"
     inkscape:cx="802.40944"
     inkscape:cy="576.32660"
     inkscape:window-width="802"
     inkscape:window-height="662"
     inkscape:window-x="34"
     inkscape:window-y="58" />
  <rect
     style="fill:url(#linearGradient2345);fill-rule:evenodd;stroke-width:1.0000000pt;fill-opacity:1.0000000;"
     id="rect2341"
     width="1999.9939"
     height="1499.9821"
     x="0.026352459"
     y="0.040473940" />
  <path
     style="fill:#73667f;fill-rule:evenodd;stroke-width:1.0000000pt;fill-opacity:0.33870968;"
     d="M 0.031250000 2.3125000 L 0.031250000 4.5937500 L 2000.0000 4.5937500 L 2000.0000 2.3125000 L 0.031250000 2.3125000 z M 0.031250000 6.9062500 L 0.031250000 9.2187500 L 2000.0000 9.2187500 L 2000.0000 6.9062500 L 0.031250000 6.9062500 z M 0.031250000 11.625000 L 0.031250000 13.937500 L 2000.0000 13.937500 L 2000.0000 11.625000 L 0.031250000 11.625000 z M 0.031250000 16.250000 L 0.031250000 18.531250 L 2000.0000 18.531250 L 2000.0000 16.250000 L 0.031250000 16.250000 z M 0.031250000 20.843750 L 0.031250000 23.125000 L 2000.0000 23.125000 L 2000.0000 20.843750 L 0.031250000 20.843750 z M 0.031250000 25.437500 L 0.031250000 27.750000 L 2000.0000 27.750000 L 2000.0000 25.437500 L 0.031250000 25.437500 z M 0.031250000 30.156250 L 0.031250000 32.468750 L 2000.0000 32.468750 L 2000.0000 30.156250 L 0.031250000 30.156250 z M 0.031250000 34.781250 L 0.031250000 37.062500 L 2000.0000 37.062500 L 2000.0000 34.781250 L 0.031250000 34.781250 z M 0.031250000 39.468750 L 0.031250000 41.750000 L 2000.0000 41.750000 L 2000.0000 39.468750 L 0.031250000 39.468750 z M 0.031250000 44.062500 L 0.031250000 46.375000 L 2000.0000 46.375000 L 2000.0000 44.062500 L 0.031250000 44.062500 z M 0.031250000 48.781250 L 0.031250000 51.093750 L 2000.0000 51.093750 L 2000.0000 48.781250 L 0.031250000 48.781250 z M 0.031250000 53.406250 L 0.031250000 55.687500 L 2000.0000 55.687500 L 2000.0000 53.406250 L 0.031250000 53.406250 z M 0.031250000 58.000000 L 0.031250000 60.281250 L 2000.0000 60.281250 L 2000.0000 58.000000 L 0.031250000 58.000000 z M 0.031250000 62.593750 L 0.031250000 64.906250 L 2000.0000 64.906250 L 2000.0000 62.593750 L 0.031250000 62.593750 z M 0.031250000 67.312500 L 0.031250000 69.625000 L 2000.0000 69.625000 L 2000.0000 67.312500 L 0.031250000 67.312500 z M 0.031250000 71.937500 L 0.031250000 74.218750 L 2000.0000 74.218750 L 2000.0000 71.937500 L 0.031250000 71.937500 z M 0.031250000 76.625000 L 0.031250000 78.906250 L 2000.0000 78.906250 L 2000.0000 76.625000 L 0.031250000 76.625000 z M 0.031250000 81.218750 L 0.031250000 83.531250 L 2000.0000 83.531250 L 2000.0000 81.218750 L 0.031250000 81.218750 z M 0.031250000 85.937500 L 0.031250000 88.250000 L 2000.0000 88.250000 L 2000.0000 85.937500 L 0.031250000 85.937500 z M 0.031250000 90.562500 L 0.031250000 92.843750 L 2000.0000 92.843750 L 2000.0000 90.562500 L 0.031250000 90.562500 z M 0.031250000 95.156250 L 0.031250000 97.437500 L 2000.0000 97.437500 L 2000.0000 95.156250 L 0.031250000 95.156250 z M 0.031250000 99.750000 L 0.031250000 102.06250 L 2000.0000 102.06250 L 2000.0000 99.750000 L 0.031250000 99.750000 z M 0.031250000 104.46875 L 0.031250000 106.78125 L 2000.0000 106.78125 L 2000.0000 104.46875 L 0.031250000 104.46875 z M 0.031250000 109.09375 L 0.031250000 111.37500 L 2000.0000 111.37500 L 2000.0000 109.09375 L 0.031250000 109.09375 z M 0.031250000 113.78125 L 0.031250000 116.06250 L 2000.0000 116.06250 L 2000.0000 113.78125 L 0.031250000 113.78125 z M 0.031250000 118.37500 L 0.031250000 120.68750 L 2000.0000 120.68750 L 2000.0000 118.37500 L 0.031250000 118.37500 z M 0.031250000 123.09375 L 0.031250000 125.40625 L 2000.0000 125.40625 L 2000.0000 123.09375 L 0.031250000 123.09375 z M 0.031250000 127.71875 L 0.031250000 130.00000 L 2000.0000 130.00000 L 2000.0000 127.71875 L 0.031250000 127.71875 z M 0.031250000 132.31250 L 0.031250000 134.59375 L 2000.0000 134.59375 L 2000.0000 132.31250 L 0.031250000 132.31250 z M 0.031250000 136.90625 L 0.031250000 139.21875 L 2000.0000 139.21875 L 2000.0000 136.90625 L 0.031250000 136.90625 z M 0.031250000 141.62500 L 0.031250000 143.93750 L 2000.0000 143.93750 L 2000.0000 141.62500 L 0.031250000 141.62500 z M 0.031250000 146.25000 L 0.031250000 148.53125 L 2000.0000 148.53125 L 2000.0000 146.25000 L 0.031250000 146.25000 z M 0.031250000 150.90625 L 0.031250000 153.18750 L 2000.0000 153.18750 L 2000.0000 150.90625 L 0.031250000 150.90625 z M 0.031250000 155.50000 L 0.031250000 157.81250 L 2000.0000 157.81250 L 2000.0000 155.50000 L 0.031250000 155.50000 z M 0.031250000 160.21875 L 0.031250000 162.53125 L 2000.0000 162.53125 L 2000.0000 160.21875 L 0.031250000 160.21875 z M 0.031250000 164.84375 L 0.031250000 167.12500 L 2000.0000 167.12500 L 2000.0000 164.84375 L 0.031250000 164.84375 z M 0.031250000 169.43750 L 0.031250000 171.71875 L 2000.0000 171.71875 L 2000.0000 169.43750 L 0.031250000 169.43750 z M 0.031250000 174.03125 L 0.031250000 176.34375 L 2000.0000 176.34375 L 2000.0000 174.03125 L 0.031250000 174.03125 z M 0.031250000 178.75000 L 0.031250000 181.06250 L 2000.0000 181.06250 L 2000.0000 178.75000 L 0.031250000 178.75000 z M 0.031250000 183.37500 L 0.031250000 185.65625 L 2000.0000 185.65625 L 2000.0000 183.37500 L 0.031250000 183.37500 z M 0.031250000 188.06250 L 0.031250000 190.34375 L 2000.0000 190.34375 L 2000.0000 188.06250 L 0.031250000 188.06250 z M 0.031250000 192.65625 L 0.031250000 194.96875 L 2000.0000 194.96875 L 2000.0000 192.65625 L 0.031250000 192.65625 z M 0.031250000 197.37500 L 0.031250000 199.68750 L 2000.0000 199.68750 L 2000.0000 197.37500 L 0.031250000 197.37500 z M 0.031250000 202.00000 L 0.031250000 204.28125 L 2000.0000 204.28125 L 2000.0000 202.00000 L 0.031250000 202.00000 z M 0.031250000 206.59375 L 0.031250000 208.87500 L 2000.0000 208.87500 L 2000.0000 206.59375 L 0.031250000 206.59375 z M 0.031250000 211.18750 L 0.031250000 213.50000 L 2000.0000 213.50000 L 2000.0000 211.18750 L 0.031250000 211.18750 z M 0.031250000 215.90625 L 0.031250000 218.21875 L 2000.0000 218.21875 L 2000.0000 215.90625 L 0.031250000 215.90625 z M 0.031250000 220.53125 L 0.031250000 222.81250 L 2000.0000 222.81250 L 2000.0000 220.53125 L 0.031250000 220.53125 z M 0.031250000 225.21875 L 0.031250000 227.50000 L 2000.0000 227.50000 L 2000.0000 225.21875 L 0.031250000 225.21875 z M 0.031250000 229.81250 L 0.031250000 232.12500 L 2000.0000 232.12500 L 2000.0000 229.81250 L 0.031250000 229.81250 z M 0.031250000 234.53125 L 0.031250000 236.84375 L 2000.0000 236.84375 L 2000.0000 234.53125 L 0.031250000 234.53125 z M 0.031250000 239.15625 L 0.031250000 241.43750 L 2000.0000 241.43750 L 2000.0000 239.15625 L 0.031250000 239.15625 z M 0.031250000 243.75000 L 0.031250000 246.03125 L 2000.0000 246.03125 L 2000.0000 243.75000 L 0.031250000 243.75000 z M 0.031250000 248.34375 L 0.031250000 250.65625 L 2000.0000 250.65625 L 2000.0000 248.34375 L 0.031250000 248.34375 z M 0.031250000 253.06250 L 0.031250000 255.37500 L 2000.0000 255.37500 L 2000.0000 253.06250 L 0.031250000 253.06250 z M 0.031250000 257.68750 L 0.031250000 259.96875 L 2000.0000 259.96875 L 2000.0000 257.68750 L 0.031250000 257.68750 z M 0.031250000 262.37500 L 0.031250000 264.65625 L 2000.0000 264.65625 L 2000.0000 262.37500 L 0.031250000 262.37500 z M 0.031250000 266.96875 L 0.031250000 269.28125 L 2000.0000 269.28125 L 2000.0000 266.96875 L 0.031250000 266.96875 z M 0.031250000 271.68750 L 0.031250000 274.00000 L 2000.0000 274.00000 L 2000.0000 271.68750 L 0.031250000 271.68750 z M 0.031250000 276.31250 L 0.031250000 278.59375 L 2000.0000 278.59375 L 2000.0000 276.31250 L 0.031250000 276.31250 z M 0.031250000 280.90625 L 0.031250000 283.18750 L 2000.0000 283.18750 L 2000.0000 280.90625 L 0.031250000 280.90625 z M 0.031250000 285.50000 L 0.031250000 287.81250 L 2000.0000 287.81250 L 2000.0000 285.50000 L 0.031250000 285.50000 z M 0.031250000 290.21875 L 0.031250000 292.53125 L 2000.0000 292.53125 L 2000.0000 290.21875 L 0.031250000 290.21875 z M 0.031250000 294.84375 L 0.031250000 297.12500 L 2000.0000 297.12500 L 2000.0000 294.84375 L 0.031250000 294.84375 z M 0.031250000 299.56250 L 0.031250000 301.84375 L 2000.0000 301.84375 L 2000.0000 299.56250 L 0.031250000 299.56250 z M 0.031250000 304.15625 L 0.031250000 306.46875 L 2000.0000 306.46875 L 2000.0000 304.15625 L 0.031250000 304.15625 z M 0.031250000 308.87500 L 0.031250000 311.18750 L 2000.0000 311.18750 L 2000.0000 308.87500 L 0.031250000 308.87500 z M 0.031250000 313.50000 L 0.031250000 315.78125 L 2000.0000 315.78125 L 2000.0000 313.50000 L 0.031250000 313.50000 z M 0.031250000 318.09375 L 0.031250000 320.37500 L 2000.0000 320.37500 L 2000.0000 318.09375 L 0.031250000 318.09375 z M 0.031250000 322.68750 L 0.031250000 325.00000 L 2000.0000 325.00000 L 2000.0000 322.68750 L 0.031250000 322.68750 z M 0.031250000 327.40625 L 0.031250000 329.71875 L 2000.0000 329.71875 L 2000.0000 327.40625 L 0.031250000 327.40625 z M 0.031250000 332.03125 L 0.031250000 334.31250 L 2000.0000 334.31250 L 2000.0000 332.03125 L 0.031250000 332.03125 z M 0.031250000 336.71875 L 0.031250000 339.00000 L 2000.0000 339.00000 L 2000.0000 336.71875 L 0.031250000 336.71875 z M 0.031250000 341.31250 L 0.031250000 343.62500 L 2000.0000 343.62500 L 2000.0000 341.31250 L 0.031250000 341.31250 z M 0.031250000 346.03125 L 0.031250000 348.34375 L 2000.0000 348.34375 L 2000.0000 346.03125 L 0.031250000 346.03125 z M 0.031250000 350.65625 L 0.031250000 352.93750 L 2000.0000 352.93750 L 2000.0000 350.65625 L 0.031250000 350.65625 z M 0.031250000 355.25000 L 0.031250000 357.53125 L 2000.0000 357.53125 L 2000.0000 355.25000 L 0.031250000 355.25000 z M 0.031250000 359.84375 L 0.031250000 362.15625 L 2000.0000 362.15625 L 2000.0000 359.84375 L 0.031250000 359.84375 z M 0.031250000 364.56250 L 0.031250000 366.87500 L 2000.0000 366.87500 L 2000.0000 364.56250 L 0.031250000 364.56250 z M 0.031250000 369.18750 L 0.031250000 371.46875 L 2000.0000 371.46875 L 2000.0000 369.18750 L 0.031250000 369.18750 z M 0.031250000 373.87500 L 0.031250000 376.15625 L 2000.0000 376.15625 L 2000.0000 373.87500 L 0.031250000 373.87500 z M 0.031250000 378.46875 L 0.031250000 380.78125 L 2000.0000 380.78125 L 2000.0000 378.46875 L 0.031250000 378.46875 z M 0.031250000 383.18750 L 0.031250000 385.50000 L 2000.0000 385.50000 L 2000.0000 383.18750 L 0.031250000 383.18750 z M 0.031250000 387.81250 L 0.031250000 390.09375 L 2000.0000 390.09375 L 2000.0000 387.81250 L 0.031250000 387.81250 z M 0.031250000 392.40625 L 0.031250000 394.68750 L 2000.0000 394.68750 L 2000.0000 392.40625 L 0.031250000 392.40625 z M 0.031250000 397.00000 L 0.031250000 399.31250 L 2000.0000 399.31250 L 2000.0000 397.00000 L 0.031250000 397.00000 z M 0.031250000 401.71875 L 0.031250000 404.03125 L 2000.0000 404.03125 L 2000.0000 401.71875 L 0.031250000 401.71875 z M 0.031250000 406.34375 L 0.031250000 408.62500 L 2000.0000 408.62500 L 2000.0000 406.34375 L 0.031250000 406.34375 z M 0.031250000 411.03125 L 0.031250000 413.31250 L 2000.0000 413.31250 L 2000.0000 411.03125 L 0.031250000 411.03125 z M 0.031250000 415.62500 L 0.031250000 417.93750 L 2000.0000 417.93750 L 2000.0000 415.62500 L 0.031250000 415.62500 z M 0.031250000 420.34375 L 0.031250000 422.65625 L 2000.0000 422.65625 L 2000.0000 420.34375 L 0.031250000 420.34375 z M 0.031250000 424.96875 L 0.031250000 427.25000 L 2000.0000 427.25000 L 2000.0000 424.96875 L 0.031250000 424.96875 z M 0.031250000 429.56250 L 0.031250000 431.84375 L 2000.0000 431.84375 L 2000.0000 429.56250 L 0.031250000 429.56250 z M 0.031250000 434.15625 L 0.031250000 436.46875 L 2000.0000 436.46875 L 2000.0000 434.15625 L 0.031250000 434.15625 z M 0.031250000 438.87500 L 0.031250000 441.18750 L 2000.0000 441.18750 L 2000.0000 438.87500 L 0.031250000 438.87500 z M 0.031250000 443.50000 L 0.031250000 445.78125 L 2000.0000 445.78125 L 2000.0000 443.50000 L 0.031250000 443.50000 z M 0.031250000 448.15625 L 0.031250000 450.43750 L 2000.0000 450.43750 L 2000.0000 448.15625 L 0.031250000 448.15625 z M 0.031250000 452.75000 L 0.031250000 455.06250 L 2000.0000 455.06250 L 2000.0000 452.75000 L 0.031250000 452.75000 z M 0.031250000 457.46875 L 0.031250000 459.78125 L 2000.0000 459.78125 L 2000.0000 457.46875 L 0.031250000 457.46875 z M 0.031250000 462.09375 L 0.031250000 464.37500 L 2000.0000 464.37500 L 2000.0000 462.09375 L 0.031250000 462.09375 z M 0.031250000 466.68750 L 0.031250000 468.96875 L 2000.0000 468.96875 L 2000.0000 466.68750 L 0.031250000 466.68750 z M 0.031250000 471.28125 L 0.031250000 473.59375 L 2000.0000 473.59375 L 2000.0000 471.28125 L 0.031250000 471.28125 z M 0.031250000 476.00000 L 0.031250000 478.31250 L 2000.0000 478.31250 L 2000.0000 476.00000 L 0.031250000 476.00000 z M 0.031250000 480.62500 L 0.031250000 482.90625 L 2000.0000 482.90625 L 2000.0000 480.62500 L 0.031250000 480.62500 z M 0.031250000 485.31250 L 0.031250000 487.59375 L 2000.0000 487.59375 L 2000.0000 485.31250 L 0.031250000 485.31250 z M 0.031250000 489.90625 L 0.031250000 492.21875 L 2000.0000 492.21875 L 2000.0000 489.90625 L 0.031250000 489.90625 z M 0.031250000 494.62500 L 0.031250000 496.93750 L 2000.0000 496.93750 L 2000.0000 494.62500 L 0.031250000 494.62500 z M 0.031250000 499.25000 L 0.031250000 501.53125 L 2000.0000 501.53125 L 2000.0000 499.25000 L 0.031250000 499.25000 z M 0.031250000 503.84375 L 0.031250000 506.12500 L 2000.0000 506.12500 L 2000.0000 503.84375 L 0.031250000 503.84375 z M 0.031250000 508.43750 L 0.031250000 510.75000 L 2000.0000 510.75000 L 2000.0000 508.43750 L 0.031250000 508.43750 z M 0.031250000 513.15625 L 0.031250000 515.46875 L 2000.0000 515.46875 L 2000.0000 513.15625 L 0.031250000 513.15625 z M 0.031250000 517.78125 L 0.031250000 520.06250 L 2000.0000 520.06250 L 2000.0000 517.78125 L 0.031250000 517.78125 z M 0.031250000 522.46875 L 0.031250000 524.75000 L 2000.0000 524.75000 L 2000.0000 522.46875 L 0.031250000 522.46875 z M 0.031250000 527.06250 L 0.031250000 529.37500 L 2000.0000 529.37500 L 2000.0000 527.06250 L 0.031250000 527.06250 z M 0.031250000 531.78125 L 0.031250000 534.09375 L 2000.0000 534.09375 L 2000.0000 531.78125 L 0.031250000 531.78125 z M 0.031250000 536.40625 L 0.031250000 538.68750 L 2000.0000 538.68750 L 2000.0000 536.40625 L 0.031250000 536.40625 z M 0.031250000 541.00000 L 0.031250000 543.28125 L 2000.0000 543.28125 L 2000.0000 541.00000 L 0.031250000 541.00000 z M 0.031250000 545.59375 L 0.031250000 547.90625 L 2000.0000 547.90625 L 2000.0000 545.59375 L 0.031250000 545.59375 z M 0.031250000 550.31250 L 0.031250000 552.62500 L 2000.0000 552.62500 L 2000.0000 550.31250 L 0.031250000 550.31250 z M 0.031250000 554.93750 L 0.031250000 557.21875 L 2000.0000 557.21875 L 2000.0000 554.93750 L 0.031250000 554.93750 z M 0.031250000 559.62500 L 0.031250000 561.90625 L 2000.0000 561.90625 L 2000.0000 559.62500 L 0.031250000 559.62500 z M 0.031250000 564.21875 L 0.031250000 566.53125 L 2000.0000 566.53125 L 2000.0000 564.21875 L 0.031250000 564.21875 z M 0.031250000 568.93750 L 0.031250000 571.25000 L 2000.0000 571.25000 L 2000.0000 568.93750 L 0.031250000 568.93750 z M 0.031250000 573.56250 L 0.031250000 575.84375 L 2000.0000 575.84375 L 2000.0000 573.56250 L 0.031250000 573.56250 z M 0.031250000 578.15625 L 0.031250000 580.43750 L 2000.0000 580.43750 L 2000.0000 578.15625 L 0.031250000 578.15625 z M 0.031250000 582.75000 L 0.031250000 585.06250 L 2000.0000 585.06250 L 2000.0000 582.75000 L 0.031250000 582.75000 z M 0.031250000 587.46875 L 0.031250000 589.78125 L 2000.0000 589.78125 L 2000.0000 587.46875 L 0.031250000 587.46875 z M 0.031250000 592.09375 L 0.031250000 594.37500 L 2000.0000 594.37500 L 2000.0000 592.09375 L 0.031250000 592.09375 z M 0.031250000 596.90625 L 0.031250000 599.18750 L 2000.0000 599.18750 L 2000.0000 596.90625 L 0.031250000 596.90625 z M 0.031250000 601.50000 L 0.031250000 603.81250 L 2000.0000 603.81250 L 2000.0000 601.50000 L 0.031250000 601.50000 z M 0.031250000 606.21875 L 0.031250000 608.53125 L 2000.0000 608.53125 L 2000.0000 606.21875 L 0.031250000 606.21875 z M 0.031250000 610.84375 L 0.031250000 613.12500 L 2000.0000 613.12500 L 2000.0000 610.84375 L 0.031250000 610.84375 z M 0.031250000 615.43750 L 0.031250000 617.71875 L 2000.0000 617.71875 L 2000.0000 615.43750 L 0.031250000 615.43750 z M 0.031250000 620.03125 L 0.031250000 622.34375 L 2000.0000 622.34375 L 2000.0000 620.03125 L 0.031250000 620.03125 z M 0.031250000 624.75000 L 0.031250000 627.06250 L 2000.0000 627.06250 L 2000.0000 624.75000 L 0.031250000 624.75000 z M 0.031250000 629.37500 L 0.031250000 631.65625 L 2000.0000 631.65625 L 2000.0000 629.37500 L 0.031250000 629.37500 z M 0.031250000 634.06250 L 0.031250000 636.34375 L 2000.0000 636.34375 L 2000.0000 634.06250 L 0.031250000 634.06250 z M 0.031250000 638.65625 L 0.031250000 640.96875 L 2000.0000 640.96875 L 2000.0000 638.65625 L 0.031250000 638.65625 z M 0.031250000 643.37500 L 0.031250000 645.68750 L 2000.0000 645.68750 L 2000.0000 643.37500 L 0.031250000 643.37500 z M 0.031250000 648.00000 L 0.031250000 650.28125 L 2000.0000 650.28125 L 2000.0000 648.00000 L 0.031250000 648.00000 z M 0.031250000 652.59375 L 0.031250000 654.87500 L 2000.0000 654.87500 L 2000.0000 652.59375 L 0.031250000 652.59375 z M 0.031250000 657.18750 L 0.031250000 659.50000 L 2000.0000 659.50000 L 2000.0000 657.18750 L 0.031250000 657.18750 z M 0.031250000 661.90625 L 0.031250000 664.21875 L 2000.0000 664.21875 L 2000.0000 661.90625 L 0.031250000 661.90625 z M 0.031250000 666.53125 L 0.031250000 668.81250 L 2000.0000 668.81250 L 2000.0000 666.53125 L 0.031250000 666.53125 z M 0.031250000 671.21875 L 0.031250000 673.50000 L 2000.0000 673.50000 L 2000.0000 671.21875 L 0.031250000 671.21875 z M 0.031250000 675.81250 L 0.031250000 678.12500 L 2000.0000 678.12500 L 2000.0000 675.81250 L 0.031250000 675.81250 z M 0.031250000 680.53125 L 0.031250000 682.84375 L 2000.0000 682.84375 L 2000.0000 680.53125 L 0.031250000 680.53125 z M 0.031250000 685.15625 L 0.031250000 687.43750 L 2000.0000 687.43750 L 2000.0000 685.15625 L 0.031250000 685.15625 z M 0.031250000 689.75000 L 0.031250000 692.03125 L 2000.0000 692.03125 L 2000.0000 689.75000 L 0.031250000 689.75000 z M 0.031250000 694.34375 L 0.031250000 696.65625 L 2000.0000 696.65625 L 2000.0000 694.34375 L 0.031250000 694.34375 z M 0.031250000 699.06250 L 0.031250000 701.37500 L 2000.0000 701.37500 L 2000.0000 699.06250 L 0.031250000 699.06250 z M 0.031250000 703.68750 L 0.031250000 705.96875 L 2000.0000 705.96875 L 2000.0000 703.68750 L 0.031250000 703.68750 z M 0.031250000 708.37500 L 0.031250000 710.65625 L 2000.0000 710.65625 L 2000.0000 708.37500 L 0.031250000 708.37500 z M 0.031250000 712.96875 L 0.031250000 715.28125 L 2000.0000 715.28125 L 2000.0000 712.96875 L 0.031250000 712.96875 z M 0.031250000 717.68750 L 0.031250000 720.00000 L 2000.0000 720.00000 L 2000.0000 717.68750 L 0.031250000 717.68750 z M 0.031250000 722.31250 L 0.031250000 724.59375 L 2000.0000 724.59375 L 2000.0000 722.31250 L 0.031250000 722.31250 z M 0.031250000 726.90625 L 0.031250000 729.18750 L 2000.0000 729.18750 L 2000.0000 726.90625 L 0.031250000 726.90625 z M 0.031250000 731.50000 L 0.031250000 733.81250 L 2000.0000 733.81250 L 2000.0000 731.50000 L 0.031250000 731.50000 z M 0.031250000 736.21875 L 0.031250000 738.53125 L 2000.0000 738.53125 L 2000.0000 736.21875 L 0.031250000 736.21875 z M 0.031250000 740.84375 L 0.031250000 743.12500 L 2000.0000 743.12500 L 2000.0000 740.84375 L 0.031250000 740.84375 z M 0.031250000 745.50000 L 0.031250000 747.78125 L 2000.0000 747.78125 L 2000.0000 745.50000 L 0.031250000 745.50000 z M 0.031250000 750.09375 L 0.031250000 752.40625 L 2000.0000 752.40625 L 2000.0000 750.09375 L 0.031250000 750.09375 z M 0.031250000 754.81250 L 0.031250000 757.12500 L 2000.0000 757.12500 L 2000.0000 754.81250 L 0.031250000 754.81250 z M 0.031250000 759.43750 L 0.031250000 761.71875 L 2000.0000 761.71875 L 2000.0000 759.43750 L 0.031250000 759.43750 z M 0.031250000 764.03125 L 0.031250000 766.31250 L 2000.0000 766.31250 L 2000.0000 764.03125 L 0.031250000 764.03125 z M 0.031250000 768.62500 L 0.031250000 770.93750 L 2000.0000 770.93750 L 2000.0000 768.62500 L 0.031250000 768.62500 z M 0.031250000 773.34375 L 0.031250000 775.65625 L 2000.0000 775.65625 L 2000.0000 773.34375 L 0.031250000 773.34375 z M 0.031250000 777.96875 L 0.031250000 780.25000 L 2000.0000 780.25000 L 2000.0000 777.96875 L 0.031250000 777.96875 z M 0.031250000 782.65625 L 0.031250000 784.93750 L 2000.0000 784.93750 L 2000.0000 782.65625 L 0.031250000 782.65625 z M 0.031250000 787.25000 L 0.031250000 789.56250 L 2000.0000 789.56250 L 2000.0000 787.25000 L 0.031250000 787.25000 z M 0.031250000 791.96875 L 0.031250000 794.28125 L 2000.0000 794.28125 L 2000.0000 791.96875 L 0.031250000 791.96875 z M 0.031250000 796.59375 L 0.031250000 798.87500 L 2000.0000 798.87500 L 2000.0000 796.59375 L 0.031250000 796.59375 z M 0.031250000 801.18750 L 0.031250000 803.46875 L 2000.0000 803.46875 L 2000.0000 801.18750 L 0.031250000 801.18750 z M 0.031250000 805.78125 L 0.031250000 808.09375 L 2000.0000 808.09375 L 2000.0000 805.78125 L 0.031250000 805.78125 z M 0.031250000 810.50000 L 0.031250000 812.81250 L 2000.0000 812.81250 L 2000.0000 810.50000 L 0.031250000 810.50000 z M 0.031250000 815.12500 L 0.031250000 817.40625 L 2000.0000 817.40625 L 2000.0000 815.12500 L 0.031250000 815.12500 z M 0.031250000 819.81250 L 0.031250000 822.09375 L 2000.0000 822.09375 L 2000.0000 819.81250 L 0.031250000 819.81250 z M 0.031250000 824.40625 L 0.031250000 826.71875 L 2000.0000 826.71875 L 2000.0000 824.40625 L 0.031250000 824.40625 z M 0.031250000 829.12500 L 0.031250000 831.43750 L 2000.0000 831.43750 L 2000.0000 829.12500 L 0.031250000 829.12500 z M 0.031250000 833.75000 L 0.031250000 836.03125 L 2000.0000 836.03125 L 2000.0000 833.75000 L 0.031250000 833.75000 z M 0.031250000 838.34375 L 0.031250000 840.62500 L 2000.0000 840.62500 L 2000.0000 838.34375 L 0.031250000 838.34375 z M 0.031250000 842.93750 L 0.031250000 845.25000 L 2000.0000 845.25000 L 2000.0000 842.93750 L 0.031250000 842.93750 z M 0.031250000 847.65625 L 0.031250000 849.96875 L 2000.0000 849.96875 L 2000.0000 847.65625 L 0.031250000 847.65625 z M 0.031250000 852.28125 L 0.031250000 854.56250 L 2000.0000 854.56250 L 2000.0000 852.28125 L 0.031250000 852.28125 z M 0.031250000 856.96875 L 0.031250000 859.25000 L 2000.0000 859.25000 L 2000.0000 856.96875 L 0.031250000 856.96875 z M 0.031250000 861.56250 L 0.031250000 863.87500 L 2000.0000 863.87500 L 2000.0000 861.56250 L 0.031250000 861.56250 z M 0.031250000 866.28125 L 0.031250000 868.59375 L 2000.0000 868.59375 L 2000.0000 866.28125 L 0.031250000 866.28125 z M 0.031250000 870.90625 L 0.031250000 873.18750 L 2000.0000 873.18750 L 2000.0000 870.90625 L 0.031250000 870.90625 z M 0.031250000 875.50000 L 0.031250000 877.78125 L 2000.0000 877.78125 L 2000.0000 875.50000 L 0.031250000 875.50000 z M 0.031250000 880.09375 L 0.031250000 882.40625 L 2000.0000 882.40625 L 2000.0000 880.09375 L 0.031250000 880.09375 z M 0.031250000 884.81250 L 0.031250000 887.12500 L 2000.0000 887.12500 L 2000.0000 884.81250 L 0.031250000 884.81250 z M 0.031250000 889.43750 L 0.031250000 891.71875 L 2000.0000 891.71875 L 2000.0000 889.43750 L 0.031250000 889.43750 z M 0.031250000 894.15625 L 0.031250000 896.43750 L 2000.0000 896.43750 L 2000.0000 894.15625 L 0.031250000 894.15625 z M 0.031250000 898.75000 L 0.031250000 901.06250 L 2000.0000 901.06250 L 2000.0000 898.75000 L 0.031250000 898.75000 z M 0.031250000 903.46875 L 0.031250000 905.78125 L 2000.0000 905.78125 L 2000.0000 903.46875 L 0.031250000 903.46875 z M 0.031250000 908.09375 L 0.031250000 910.37500 L 2000.0000 910.37500 L 2000.0000 908.09375 L 0.031250000 908.09375 z M 0.031250000 912.68750 L 0.031250000 914.96875 L 2000.0000 914.96875 L 2000.0000 912.68750 L 0.031250000 912.68750 z M 0.031250000 917.28125 L 0.031250000 919.59375 L 2000.0000 919.59375 L 2000.0000 917.28125 L 0.031250000 917.28125 z M 0.031250000 922.00000 L 0.031250000 924.31250 L 2000.0000 924.31250 L 2000.0000 922.00000 L 0.031250000 922.00000 z M 0.031250000 926.62500 L 0.031250000 928.90625 L 2000.0000 928.90625 L 2000.0000 926.62500 L 0.031250000 926.62500 z M 0.031250000 931.31250 L 0.031250000 933.59375 L 2000.0000 933.59375 L 2000.0000 931.31250 L 0.031250000 931.31250 z M 0.031250000 935.90625 L 0.031250000 938.21875 L 2000.0000 938.21875 L 2000.0000 935.90625 L 0.031250000 935.90625 z M 0.031250000 940.62500 L 0.031250000 942.93750 L 2000.0000 942.93750 L 2000.0000 940.62500 L 0.031250000 940.62500 z M 0.031250000 945.25000 L 0.031250000 947.53125 L 2000.0000 947.53125 L 2000.0000 945.25000 L 0.031250000 945.25000 z M 0.031250000 949.84375 L 0.031250000 952.12500 L 2000.0000 952.12500 L 2000.0000 949.84375 L 0.031250000 949.84375 z M 0.031250000 954.43750 L 0.031250000 956.75000 L 2000.0000 956.75000 L 2000.0000 954.43750 L 0.031250000 954.43750 z M 0.031250000 959.15625 L 0.031250000 961.46875 L 2000.0000 961.46875 L 2000.0000 959.15625 L 0.031250000 959.15625 z M 0.031250000 963.78125 L 0.031250000 966.06250 L 2000.0000 966.06250 L 2000.0000 963.78125 L 0.031250000 963.78125 z M 0.031250000 968.46875 L 0.031250000 970.75000 L 2000.0000 970.75000 L 2000.0000 968.46875 L 0.031250000 968.46875 z M 0.031250000 973.06250 L 0.031250000 975.37500 L 2000.0000 975.37500 L 2000.0000 973.06250 L 0.031250000 973.06250 z M 0.031250000 977.78125 L 0.031250000 980.09375 L 2000.0000 980.09375 L 2000.0000 977.78125 L 0.031250000 977.78125 z M 0.031250000 982.40625 L 0.031250000 984.68750 L 2000.0000 984.68750 L 2000.0000 982.40625 L 0.031250000 982.40625 z M 0.031250000 987.00000 L 0.031250000 989.28125 L 2000.0000 989.28125 L 2000.0000 987.00000 L 0.031250000 987.00000 z M 0.031250000 991.59375 L 0.031250000 993.90625 L 2000.0000 993.90625 L 2000.0000 991.59375 L 0.031250000 991.59375 z M 0.031250000 996.31250 L 0.031250000 998.62500 L 2000.0000 998.62500 L 2000.0000 996.31250 L 0.031250000 996.31250 z M 0.031250000 1000.9375 L 0.031250000 1003.2188 L 2000.0000 1003.2188 L 2000.0000 1000.9375 L 0.031250000 1000.9375 z M 0.031250000 1005.6250 L 0.031250000 1007.9062 L 2000.0000 1007.9062 L 2000.0000 1005.6250 L 0.031250000 1005.6250 z M 0.031250000 1010.2188 L 0.031250000 1012.5312 L 2000.0000 1012.5312 L 2000.0000 1010.2188 L 0.031250000 1010.2188 z M 0.031250000 1014.9375 L 0.031250000 1017.2500 L 2000.0000 1017.2500 L 2000.0000 1014.9375 L 0.031250000 1014.9375 z M 0.031250000 1019.5625 L 0.031250000 1021.8438 L 2000.0000 1021.8438 L 2000.0000 1019.5625 L 0.031250000 1019.5625 z M 0.031250000 1024.1562 L 0.031250000 1026.4375 L 2000.0000 1026.4375 L 2000.0000 1024.1562 L 0.031250000 1024.1562 z M 0.031250000 1028.7500 L 0.031250000 1031.0625 L 2000.0000 1031.0625 L 2000.0000 1028.7500 L 0.031250000 1028.7500 z M 0.031250000 1033.4688 L 0.031250000 1035.7812 L 2000.0000 1035.7812 L 2000.0000 1033.4688 L 0.031250000 1033.4688 z M 0.031250000 1038.0938 L 0.031250000 1040.3750 L 2000.0000 1040.3750 L 2000.0000 1038.0938 L 0.031250000 1038.0938 z M 0.031250000 1042.7500 L 0.031250000 1045.0312 L 2000.0000 1045.0312 L 2000.0000 1042.7500 L 0.031250000 1042.7500 z M 0.031250000 1047.3438 L 0.031250000 1049.6562 L 2000.0000 1049.6562 L 2000.0000 1047.3438 L 0.031250000 1047.3438 z M 0.031250000 1052.0625 L 0.031250000 1054.3750 L 2000.0000 1054.3750 L 2000.0000 1052.0625 L 0.031250000 1052.0625 z M 0.031250000 1056.6875 L 0.031250000 1058.9688 L 2000.0000 1058.9688 L 2000.0000 1056.6875 L 0.031250000 1056.6875 z M 0.031250000 1061.2812 L 0.031250000 1063.5625 L 2000.0000 1063.5625 L 2000.0000 1061.2812 L 0.031250000 1061.2812 z M 0.031250000 1065.8750 L 0.031250000 1068.1875 L 2000.0000 1068.1875 L 2000.0000 1065.8750 L 0.031250000 1065.8750 z M 0.031250000 1070.5938 L 0.031250000 1072.9062 L 2000.0000 1072.9062 L 2000.0000 1070.5938 L 0.031250000 1070.5938 z M 0.031250000 1075.2188 L 0.031250000 1077.5000 L 2000.0000 1077.5000 L 2000.0000 1075.2188 L 0.031250000 1075.2188 z M 0.031250000 1079.9062 L 0.031250000 1082.1875 L 2000.0000 1082.1875 L 2000.0000 1079.9062 L 0.031250000 1079.9062 z M 0.031250000 1084.5000 L 0.031250000 1086.8125 L 2000.0000 1086.8125 L 2000.0000 1084.5000 L 0.031250000 1084.5000 z M 0.031250000 1089.2188 L 0.031250000 1091.5312 L 2000.0000 1091.5312 L 2000.0000 1089.2188 L 0.031250000 1089.2188 z M 0.031250000 1093.8438 L 0.031250000 1096.1250 L 2000.0000 1096.1250 L 2000.0000 1093.8438 L 0.031250000 1093.8438 z M 0.031250000 1098.4375 L 0.031250000 1100.7188 L 2000.0000 1100.7188 L 2000.0000 1098.4375 L 0.031250000 1098.4375 z M 0.031250000 1103.0312 L 0.031250000 1105.3438 L 2000.0000 1105.3438 L 2000.0000 1103.0312 L 0.031250000 1103.0312 z M 0.031250000 1107.7500 L 0.031250000 1110.0625 L 2000.0000 1110.0625 L 2000.0000 1107.7500 L 0.031250000 1107.7500 z M 0.031250000 1112.3750 L 0.031250000 1114.6562 L 2000.0000 1114.6562 L 2000.0000 1112.3750 L 0.031250000 1112.3750 z M 0.031250000 1117.0625 L 0.031250000 1119.3438 L 2000.0000 1119.3438 L 2000.0000 1117.0625 L 0.031250000 1117.0625 z M 0.031250000 1121.6562 L 0.031250000 1123.9688 L 2000.0000 1123.9688 L 2000.0000 1121.6562 L 0.031250000 1121.6562 z M 0.031250000 1126.3750 L 0.031250000 1128.6875 L 2000.0000 1128.6875 L 2000.0000 1126.3750 L 0.031250000 1126.3750 z M 0.031250000 1131.0000 L 0.031250000 1133.2812 L 2000.0000 1133.2812 L 2000.0000 1131.0000 L 0.031250000 1131.0000 z M 0.031250000 1135.5938 L 0.031250000 1137.8750 L 2000.0000 1137.8750 L 2000.0000 1135.5938 L 0.031250000 1135.5938 z M 0.031250000 1140.1875 L 0.031250000 1142.5000 L 2000.0000 1142.5000 L 2000.0000 1140.1875 L 0.031250000 1140.1875 z M 0.031250000 1144.9062 L 0.031250000 1147.2188 L 2000.0000 1147.2188 L 2000.0000 1144.9062 L 0.031250000 1144.9062 z M 0.031250000 1149.5312 L 0.031250000 1151.8125 L 2000.0000 1151.8125 L 2000.0000 1149.5312 L 0.031250000 1149.5312 z M 0.031250000 1154.2188 L 0.031250000 1156.5000 L 2000.0000 1156.5000 L 2000.0000 1154.2188 L 0.031250000 1154.2188 z M 0.031250000 1158.8125 L 0.031250000 1161.1250 L 2000.0000 1161.1250 L 2000.0000 1158.8125 L 0.031250000 1158.8125 z M 0.031250000 1163.5312 L 0.031250000 1165.8438 L 2000.0000 1165.8438 L 2000.0000 1163.5312 L 0.031250000 1163.5312 z M 0.031250000 1168.1562 L 0.031250000 1170.4375 L 2000.0000 1170.4375 L 2000.0000 1168.1562 L 0.031250000 1168.1562 z M 0.031250000 1172.7500 L 0.031250000 1175.0312 L 2000.0000 1175.0312 L 2000.0000 1172.7500 L 0.031250000 1172.7500 z M 0.031250000 1177.3438 L 0.031250000 1179.6562 L 2000.0000 1179.6562 L 2000.0000 1177.3438 L 0.031250000 1177.3438 z M 0.031250000 1182.0625 L 0.031250000 1184.3750 L 2000.0000 1184.3750 L 2000.0000 1182.0625 L 0.031250000 1182.0625 z M 0.031250000 1186.6875 L 0.031250000 1188.9688 L 2000.0000 1188.9688 L 2000.0000 1186.6875 L 0.031250000 1186.6875 z M 0.031250000 1191.6875 L 0.031250000 1193.9688 L 2000.0000 1193.9688 L 2000.0000 1191.6875 L 0.031250000 1191.6875 z M 0.031250000 1196.2812 L 0.031250000 1198.5938 L 2000.0000 1198.5938 L 2000.0000 1196.2812 L 0.031250000 1196.2812 z M 0.031250000 1201.0000 L 0.031250000 1203.3125 L 2000.0000 1203.3125 L 2000.0000 1201.0000 L 0.031250000 1201.0000 z M 0.031250000 1205.6250 L 0.031250000 1207.9062 L 2000.0000 1207.9062 L 2000.0000 1205.6250 L 0.031250000 1205.6250 z M 0.031250000 1210.2188 L 0.031250000 1212.5000 L 2000.0000 1212.5000 L 2000.0000 1210.2188 L 0.031250000 1210.2188 z M 0.031250000 1214.8125 L 0.031250000 1217.1250 L 2000.0000 1217.1250 L 2000.0000 1214.8125 L 0.031250000 1214.8125 z M 0.031250000 1219.5312 L 0.031250000 1221.8438 L 2000.0000 1221.8438 L 2000.0000 1219.5312 L 0.031250000 1219.5312 z M 0.031250000 1224.1562 L 0.031250000 1226.4375 L 2000.0000 1226.4375 L 2000.0000 1224.1562 L 0.031250000 1224.1562 z M 0.031250000 1228.8438 L 0.031250000 1231.1250 L 2000.0000 1231.1250 L 2000.0000 1228.8438 L 0.031250000 1228.8438 z M 0.031250000 1233.4375 L 0.031250000 1235.7500 L 2000.0000 1235.7500 L 2000.0000 1233.4375 L 0.031250000 1233.4375 z M 0.031250000 1238.1562 L 0.031250000 1240.4688 L 2000.0000 1240.4688 L 2000.0000 1238.1562 L 0.031250000 1238.1562 z M 0.031250000 1242.7812 L 0.031250000 1245.0625 L 2000.0000 1245.0625 L 2000.0000 1242.7812 L 0.031250000 1242.7812 z M 0.031250000 1247.3750 L 0.031250000 1249.6562 L 2000.0000 1249.6562 L 2000.0000 1247.3750 L 0.031250000 1247.3750 z M 0.031250000 1251.9688 L 0.031250000 1254.2812 L 2000.0000 1254.2812 L 2000.0000 1251.9688 L 0.031250000 1251.9688 z M 0.031250000 1256.6875 L 0.031250000 1259.0000 L 2000.0000 1259.0000 L 2000.0000 1256.6875 L 0.031250000 1256.6875 z M 0.031250000 1261.3125 L 0.031250000 1263.5938 L 2000.0000 1263.5938 L 2000.0000 1261.3125 L 0.031250000 1261.3125 z M 0.031250000 1266.0000 L 0.031250000 1268.2812 L 2000.0000 1268.2812 L 2000.0000 1266.0000 L 0.031250000 1266.0000 z M 0.031250000 1270.5938 L 0.031250000 1272.9062 L 2000.0000 1272.9062 L 2000.0000 1270.5938 L 0.031250000 1270.5938 z M 0.031250000 1275.3125 L 0.031250000 1277.6250 L 2000.0000 1277.6250 L 2000.0000 1275.3125 L 0.031250000 1275.3125 z M 0.031250000 1279.9375 L 0.031250000 1282.2188 L 2000.0000 1282.2188 L 2000.0000 1279.9375 L 0.031250000 1279.9375 z M 0.031250000 1284.5312 L 0.031250000 1286.8125 L 2000.0000 1286.8125 L 2000.0000 1284.5312 L 0.031250000 1284.5312 z M 0.031250000 1289.1250 L 0.031250000 1291.4375 L 2000.0000 1291.4375 L 2000.0000 1289.1250 L 0.031250000 1289.1250 z M 0.031250000 1293.8438 L 0.031250000 1296.1562 L 2000.0000 1296.1562 L 2000.0000 1293.8438 L 0.031250000 1293.8438 z M 0.031250000 1298.4688 L 0.031250000 1300.7500 L 2000.0000 1300.7500 L 2000.0000 1298.4688 L 0.031250000 1298.4688 z M 0.031250000 1303.1562 L 0.031250000 1305.4375 L 2000.0000 1305.4375 L 2000.0000 1303.1562 L 0.031250000 1303.1562 z M 0.031250000 1307.7500 L 0.031250000 1310.0625 L 2000.0000 1310.0625 L 2000.0000 1307.7500 L 0.031250000 1307.7500 z M 0.031250000 1312.4688 L 0.031250000 1314.7812 L 2000.0000 1314.7812 L 2000.0000 1312.4688 L 0.031250000 1312.4688 z M 0.031250000 1317.0938 L 0.031250000 1319.3750 L 2000.0000 1319.3750 L 2000.0000 1317.0938 L 0.031250000 1317.0938 z M 0.031250000 1321.6875 L 0.031250000 1323.9688 L 2000.0000 1323.9688 L 2000.0000 1321.6875 L 0.031250000 1321.6875 z M 0.031250000 1326.2812 L 0.031250000 1328.5938 L 2000.0000 1328.5938 L 2000.0000 1326.2812 L 0.031250000 1326.2812 z M 0.031250000 1331.0000 L 0.031250000 1333.3125 L 2000.0000 1333.3125 L 2000.0000 1331.0000 L 0.031250000 1331.0000 z M 0.031250000 1335.6250 L 0.031250000 1337.9062 L 2000.0000 1337.9062 L 2000.0000 1335.6250 L 0.031250000 1335.6250 z M 0.031250000 1340.2812 L 0.031250000 1342.5625 L 2000.0000 1342.5625 L 2000.0000 1340.2812 L 0.031250000 1340.2812 z M 0.031250000 1344.8750 L 0.031250000 1347.1875 L 2000.0000 1347.1875 L 2000.0000 1344.8750 L 0.031250000 1344.8750 z M 0.031250000 1349.5938 L 0.031250000 1351.9062 L 2000.0000 1351.9062 L 2000.0000 1349.5938 L 0.031250000 1349.5938 z M 0.031250000 1354.2188 L 0.031250000 1356.5000 L 2000.0000 1356.5000 L 2000.0000 1354.2188 L 0.031250000 1354.2188 z M 0.031250000 1358.8125 L 0.031250000 1361.0938 L 2000.0000 1361.0938 L 2000.0000 1358.8125 L 0.031250000 1358.8125 z M 0.031250000 1363.4062 L 0.031250000 1365.7188 L 2000.0000 1365.7188 L 2000.0000 1363.4062 L 0.031250000 1363.4062 z M 0.031250000 1368.1250 L 0.031250000 1370.4375 L 2000.0000 1370.4375 L 2000.0000 1368.1250 L 0.031250000 1368.1250 z M 0.031250000 1372.7500 L 0.031250000 1375.0312 L 2000.0000 1375.0312 L 2000.0000 1372.7500 L 0.031250000 1372.7500 z M 0.031250000 1377.4375 L 0.031250000 1379.7188 L 2000.0000 1379.7188 L 2000.0000 1377.4375 L 0.031250000 1377.4375 z M 0.031250000 1382.0312 L 0.031250000 1384.3438 L 2000.0000 1384.3438 L 2000.0000 1382.0312 L 0.031250000 1382.0312 z M 0.031250000 1386.7500 L 0.031250000 1389.0625 L 2000.0000 1389.0625 L 2000.0000 1386.7500 L 0.031250000 1386.7500 z M 0.031250000 1391.3750 L 0.031250000 1393.6562 L 2000.0000 1393.6562 L 2000.0000 1391.3750 L 0.031250000 1391.3750 z M 0.031250000 1395.9688 L 0.031250000 1398.2500 L 2000.0000 1398.2500 L 2000.0000 1395.9688 L 0.031250000 1395.9688 z M 0.031250000 1400.5625 L 0.031250000 1402.8750 L 2000.0000 1402.8750 L 2000.0000 1400.5625 L 0.031250000 1400.5625 z M 0.031250000 1405.2812 L 0.031250000 1407.5938 L 2000.0000 1407.5938 L 2000.0000 1405.2812 L 0.031250000 1405.2812 z M 0.031250000 1409.9062 L 0.031250000 1412.1875 L 2000.0000 1412.1875 L 2000.0000 1409.9062 L 0.031250000 1409.9062 z M 0.031250000 1414.5938 L 0.031250000 1416.8750 L 2000.0000 1416.8750 L 2000.0000 1414.5938 L 0.031250000 1414.5938 z M 0.031250000 1419.1875 L 0.031250000 1421.5000 L 2000.0000 1421.5000 L 2000.0000 1419.1875 L 0.031250000 1419.1875 z M 0.031250000 1423.9062 L 0.031250000 1426.2188 L 2000.0000 1426.2188 L 2000.0000 1423.9062 L 0.031250000 1423.9062 z M 0.031250000 1428.5312 L 0.031250000 1430.8125 L 2000.0000 1430.8125 L 2000.0000 1428.5312 L 0.031250000 1428.5312 z M 0.031250000 1433.1250 L 0.031250000 1435.4062 L 2000.0000 1435.4062 L 2000.0000 1433.1250 L 0.031250000 1433.1250 z M 0.031250000 1437.7188 L 0.031250000 1440.0312 L 2000.0000 1440.0312 L 2000.0000 1437.7188 L 0.031250000 1437.7188 z M 0.031250000 1442.4375 L 0.031250000 1444.7500 L 2000.0000 1444.7500 L 2000.0000 1442.4375 L 0.031250000 1442.4375 z M 0.031250000 1447.0625 L 0.031250000 1449.3438 L 2000.0000 1449.3438 L 2000.0000 1447.0625 L 0.031250000 1447.0625 z M 0.031250000 1451.7500 L 0.031250000 1454.0312 L 2000.0000 1454.0312 L 2000.0000 1451.7500 L 0.031250000 1451.7500 z M 0.031250000 1456.3438 L 0.031250000 1458.6562 L 2000.0000 1458.6562 L 2000.0000 1456.3438 L 0.031250000 1456.3438 z M 0.031250000 1461.0625 L 0.031250000 1463.3750 L 2000.0000 1463.3750 L 2000.0000 1461.0625 L 0.031250000 1461.0625 z M 0.031250000 1465.6875 L 0.031250000 1467.9688 L 2000.0000 1467.9688 L 2000.0000 1465.6875 L 0.031250000 1465.6875 z M 0.031250000 1470.2812 L 0.031250000 1472.5625 L 2000.0000 1472.5625 L 2000.0000 1470.2812 L 0.031250000 1470.2812 z M 0.031250000 1474.8750 L 0.031250000 1477.1875 L 2000.0000 1477.1875 L 2000.0000 1474.8750 L 0.031250000 1474.8750 z M 0.031250000 1479.5938 L 0.031250000 1481.9062 L 2000.0000 1481.9062 L 2000.0000 1479.5938 L 0.031250000 1479.5938 z M 0.031250000 1484.2188 L 0.031250000 1486.5000 L 2000.0000 1486.5000 L 2000.0000 1484.2188 L 0.031250000 1484.2188 z M 0.031250000 1488.9375 L 0.031250000 1491.2188 L 2000.0000 1491.2188 L 2000.0000 1488.9375 L 0.031250000 1488.9375 z M 0.031250000 1493.5312 L 0.031250000 1495.8438 L 2000.0000 1495.8438 L 2000.0000 1493.5312 L 0.031250000 1493.5312 z M 0.031250000 1498.2500 L 0.031250000 1500.0312 L 2000.0000 1500.0312 L 2000.0000 1498.2500 L 0.031250000 1498.2500 z "
     id="path2363" />
</svg>
