<?xml version="1.0" encoding="UTF-8" standalone="no"?>
<!DOCTYPE svg PUBLIC "-//W3C//DTD SVG 20010904//EN"
"http://www.w3.org/TR/2001/REC-SVG-20010904/DTD/svg10.dtd">
<!-- Created with Inkscape (http://www.inkscape.org/) -->
<svg
   id="svg1"
   sodipodi:version="0.32"
   inkscape:version="0.37"
   width="48pt"
   height="48pt"
   sodipodi:docbase="/home/dan/Projects/Lila-icons/scalable/apps"
   sodipodi:docname="abiword_48.svg"
   xmlns="http://www.w3.org/2000/svg"
   xmlns:inkscape="http://www.inkscape.org/namespaces/inkscape"
   xmlns:sodipodi="http://sodipodi.sourceforge.net/DTD/sodipodi-0.dtd"
   xmlns:xlink="http://www.w3.org/1999/xlink">
  <defs
     id="defs3">
    <linearGradient
       id="linearGradient584">
      <stop
         style="stop-color:#ffffff;stop-opacity:1;"
         offset="0.00000000"
         id="stop585" />
      <stop
         style="stop-color:#ffffff;stop-opacity:0;"
         offset="1.00000000"
         id="stop586" />
    </linearGradient>
    <linearGradient
       id="linearGradient578">
      <stop
         style="stop-color:#d9cce6;stop-opacity:1;"
         offset="0.00000000"
         id="stop579" />
      <stop
         style="stop-color:#73667f;stop-opacity:1;"
         offset="1.00000000"
         id="stop580" />
    </linearGradient>
    <linearGradient
       xlink:href="#linearGradient578"
       id="linearGradient581"
       x1="-0.00000000"
       y1="-0.00000000"
       x2="0.98888886"
       y2="1.01562500" />
    <linearGradient
       xlink:href="#linearGradient584"
       id="linearGradient583"
       x1="-0.00000000"
       y1="0.00000000"
       x2="1.00000000"
       y2="1.02343750" />
    <linearGradient
       xlink:href="#linearGradient584"
       id="linearGradient860"
       x1="-0.00000000"
       y1="-0.00000000"
       x2="0.97972971"
       y2="1.00000000" />
    <linearGradient
       xlink:href="#linearGradient584"
       id="linearGradient861"
       x1="0.00000000"
       y1="-0.00000000"
       x2="0.96875000"
       y2="1.00000000" />
    <linearGradient
       xlink:href="#linearGradient578"
       id="linearGradient862"
       x1="-0.00000000"
       y1="0.00775194"
       x2="1.00000000"
       y2="0.99224806" />
  </defs>
  <sodipodi:namedview
     id="base"
     pagecolor="#ffffff"
     bordercolor="#666666"
     borderopacity="1.0"
     inkscape:pageopacity="0.0"
     inkscape:pageshadow="2"
     inkscape:zoom="7.97947193"
     inkscape:cx="25.5142336"
     inkscape:cy="23.6060866"
     inkscape:window-width="640"
     inkscape:window-height="535"
     inkscape:window-x="90"
     inkscape:window-y="297" />
  <path
     d="M 44.07379 58.456176 C 45.056854 55.3605 49.608557 8.2645821 43.956743 7.2435254 C 37.63484 6.1008119 12.638803 37.314711 10.910014 48.516691 C 10.047241 54.10827 34.114459 58.696767 36.181547 57.624206 C 37.674198 56.849897 18.462243 51.046991 18.831858 46.42274 C 19.383711 39.51305 35.050978 21.166431 38.945934 23.02305 C 43.464954 25.177751 43.386416 60.620458 44.07379 58.456176 z "
     style="font-size:12;opacity:0.296369;fill-rule:evenodd;stroke-width:2.00021pt;"
     id="path673" />
  <path
     d="M 41.539199 55.07979 C 42.513264 52.01245 47.0233 5.3476483 41.423231 4.3359431 C 35.159193 3.203691 10.391972 34.131855 8.6790087 45.231289 C 7.8241341 50.771685 31.671036 55.31817 33.719202 54.255434 C 35.198191 53.488215 19.151677 46.651312 19.517906 42.069384 C 20.064708 35.222945 30.424748 20.577413 34.284048 22.417035 C 38.761701 24.552012 40.858117 57.224255 41.539199 55.07979 z "
     style="font-size:12;fill:url(#linearGradient581);fill-rule:evenodd;stroke:#000000;stroke-width:1.875;stroke-dasharray:none;"
     id="path649"
     sodipodi:nodetypes="ccccccc" />
  <path
     d="M 10.000845 45.838719 C 9.6547916 45.26174 26.363288 13.976843 40.516837 6.2134754 C 41.562793 5.6303912 42.601121 9.8521917 41.427663 10.312523 C 26.331586 15.918021 10.337913 46.400443 10.000845 45.838719 z "
     style="font-size:12;opacity:0.7;fill-rule:evenodd;stroke:none;stroke-width:0.195455pt;fill:url(#linearGradient583);"
     id="path670" />
  <path
     d="M 17.283849 43.281262 C 19.087451 47.228581 28.2223 52.499822 28.240196 53.028038 C 28.255811 53.489078 20.348912 48.885933 17.38457 46.248892 C 16.696847 45.637068 16.970895 42.634607 17.283849 43.281262 z "
     style="font-size:12;opacity:0.699936;fill-rule:evenodd;stroke:none;stroke-width:0.195455pt;fill:url(#linearGradient860);"
     id="path671" />
  <path
     d="M 36.374393 20.987631 C 40.318396 26.477906 41.354071 43.507756 41.746747 43.847299 C 42.100617 44.153287 41.101784 28.896201 38.61385 22.924065 C 38.22374 22.045957 35.927014 20.337048 36.374393 20.987631 z "
     style="font-size:12;opacity:0.699936;fill-rule:evenodd;stroke:none;stroke-width:0.195455pt;fill:url(#linearGradient861);"
     id="path672" />
</svg>
