<?xml version="1.0" encoding="UTF-8" standalone="no"?>
<!DOCTYPE svg PUBLIC "-//W3C//DTD SVG 20010904//EN"
"http://www.w3.org/TR/2001/REC-SVG-20010904/DTD/svg10.dtd">
<!-- Created with Inkscape (http://www.inkscape.org/) -->
<svg
   id="svg1"
   sodipodi:version="0.32"
   inkscape:version="0.38.1"
   width="48pt"
   height="48pt"
   sodipodi:docbase="/home/ed"
   sodipodi:docname="advanced-directory.svg"
   xmlns="http://www.w3.org/2000/svg"
   xmlns:inkscape="http://www.inkscape.org/namespaces/inkscape"
   xmlns:sodipodi="http://sodipodi.sourceforge.net/DTD/sodipodi-0.dtd"
   xmlns:xlink="http://www.w3.org/1999/xlink">
  <defs
     id="defs3">
    <linearGradient
       id="linearGradient584">
      <stop
         style="stop-color:#ffffff;stop-opacity:1;"
         offset="0.00000000"
         id="stop585" />
      <stop
         style="stop-color:#ffffff;stop-opacity:0;"
         offset="1.00000000"
         id="stop586" />
    </linearGradient>
    <linearGradient
       id="linearGradient578">
      <stop
         style="stop-color:#d9cce6;stop-opacity:1;"
         offset="0.00000000"
         id="stop579" />
      <stop
         style="stop-color:#73667f;stop-opacity:1;"
         offset="1.00000000"
         id="stop580" />
    </linearGradient>
    <linearGradient
       xlink:href="#linearGradient584"
       id="linearGradient581"
       x1="-0.00684932"
       y1="0.00775194"
       x2="0.97945207"
       y2="1.00000000" />
    <linearGradient
       xlink:href="#linearGradient584"
       id="linearGradient583"
       x1="0.01094890"
       y1="0.01030928"
       x2="1.01459849"
       y2="0.96907216" />
    <linearGradient
       xlink:href="#linearGradient584"
       id="linearGradient860"
       x1="-0.02500000"
       y1="0.03100775"
       x2="0.97500002"
       y2="0.97674417" />
    <linearGradient
       xlink:href="#linearGradient578"
       id="linearGradient861"
       x1="0.00000000"
       y1="0.02325581"
       x2="0.98611110"
       y2="0.97674417" />
    <linearGradient
       xlink:href="#linearGradient578"
       id="linearGradient862"
       x1="-0.00000000"
       y1="0.00775194"
       x2="1.00000000"
       y2="0.99224806" />
    <sodipodi:namedview
       id="namedview843"
       pagecolor="#ffffff"
       bordercolor="#666666"
       borderopacity="1.0"
       inkscape:pageopacity="0.0"
       inkscape:pageshadow="2"
       inkscape:zoom="4.91194111"
       inkscape:cx="25.8149002"
       inkscape:cy="21.8599436"
       inkscape:window-width="640"
       inkscape:window-height="500"
       inkscape:window-x="188"
       inkscape:window-y="244"
       showgrid="false"
       vertgrid="false"
       snaptogrid="false"
       horizgrid="false"
       snaptoguides="false" />
    <defs
       id="defs844">
      <linearGradient
         id="linearGradient570">
        <stop
           style="stop-color:#ffffff;stop-opacity:1;"
           offset="0"
           id="stop571" />
        <stop
           style="stop-color:#ffffff;stop-opacity:0;"
           offset="1"
           id="stop572" />
      </linearGradient>
      <linearGradient
         id="linearGradient563">
        <stop
           style="stop-color:#d9cce6;stop-opacity:1;"
           offset="0.00000000"
           id="stop564" />
        <stop
           style="stop-color:#73667f;stop-opacity:1;"
           offset="1.00000000"
           id="stop565" />
      </linearGradient>
      <linearGradient
         x1="0.40845069"
         y1="0.34375000"
         x2="0.66197181"
         y2="0.60156250"
         id="linearGradient566"
         xlink:href="#linearGradient563" />
      <linearGradient
         x1="0.009905"
         y1="0.007809"
         x2="0.985224"
         y2="1.015625"
         id="linearGradient569"
         xlink:href="#linearGradient570" />
      <linearGradient
         x1="0.015742"
         y1="0.015626"
         x2="0.976382"
         y2="0.999995"
         id="linearGradient573"
         xlink:href="#linearGradient570"
         gradientTransform="scale(0.999995,1.000005)" />
      <linearGradient
         x1="0.006623"
         y1="0.007813"
         x2="0.973510"
         y2="0.984375"
         id="linearGradient575"
         xlink:href="#linearGradient570" />
      <linearGradient
         x1="0.000005"
         y1="0.023436"
         x2="1.000000"
         y2="1.007812"
         id="linearGradient855"
         xlink:href="#linearGradient570" />
      <linearGradient
         x1="0.012999"
         y1="0.015680"
         x2="1.012987"
         y2="1.000001"
         id="linearGradient856"
         xlink:href="#linearGradient570" />
      <linearGradient
         x1="0.07954545"
         y1="0.06250000"
         x2="0.95454544"
         y2="0.97656250"
         id="linearGradient637"
         xlink:href="#linearGradient563" />
      <linearGradient
         x1="0.03225806"
         y1="0.05468750"
         x2="0.99596775"
         y2="1.00000000"
         id="linearGradient640"
         xlink:href="#linearGradient563" />
      <linearGradient
         x1="0.010877"
         y1="0.038449"
         x2="0.989090"
         y2="0.987177"
         id="linearGradient645"
         xlink:href="#linearGradient570" />
      <linearGradient
         x1="0.056578"
         y1="0.023450"
         x2="0.867923"
         y2="0.976563"
         id="linearGradient646"
         xlink:href="#linearGradient570" />
      <linearGradient
         x1="0.000007"
         y1="0.000000"
         x2="0.951807"
         y2="0.984375"
         id="linearGradient647"
         xlink:href="#linearGradient570" />
      <linearGradient
         x1="0.056605"
         y1="0.015625"
         x2="0.943396"
         y2="0.984375"
         id="linearGradient675"
         xlink:href="#linearGradient570" />
      <linearGradient
         x1="0.011765"
         y1="-0.000000"
         x2="1.011765"
         y2="1.015625"
         id="linearGradient676"
         xlink:href="#linearGradient570" />
      <linearGradient
         xlink:href="#linearGradient563"
         id="linearGradient684"
         x1="0.09210526"
         y1="0.12500000"
         x2="0.93421054"
         y2="0.92187500" />
      <linearGradient
         xlink:href="#linearGradient563"
         id="linearGradient685"
         x1="0.06603774"
         y1="0.07812500"
         x2="0.94339621"
         y2="0.95312500" />
    </defs>
  </defs>
  <sodipodi:namedview
     id="base"
     pagecolor="#ffffff"
     bordercolor="#666666"
     borderopacity="1.0"
     inkscape:pageopacity="0.0"
     inkscape:pageshadow="2"
     inkscape:zoom="8.0000000"
     inkscape:cx="43.176972"
     inkscape:cy="21.688950"
     inkscape:window-width="1041"
     inkscape:window-height="535"
     inkscape:window-x="104"
     inkscape:window-y="287" />
  <path
     d="M 11.267699 56.622671 C 2.7670491 52.988532 1.5072003 22.031864 3.2623489 8.9840518 C 3.8256059 4.7962807 15.938655 3.472312 19.798169 3.9971948 C 21.406915 4.2160343 21.378639 11.507009 23.210262 11.477541 C 32.2712 11.332006 44.430229 0.76734911 50.900965 4.3909154 C 56.460229 7.5040954 60.504727 30.459332 55.887824 36.543835 C 47.293672 47.869915 20.265076 60.469119 11.267699 56.622671 z "
     style="font-size:12;opacity:0.302675;fill-rule:evenodd;stroke-width:18.75;stroke-linecap:round;stroke-linejoin:round;"
     id="path574" />
  <path
     d="M 12.139826 53.057395 C 4.4358786 49.763875 3.2941018 21.708704 4.8847766 9.8838331 C 5.3952944 6.0885706 16.372984 4.8886949 19.870756 5.3643818 C 21.328716 5.5627101 21.303091 12.170315 22.963041 12.143616 C 31.174718 12.011721 42.194107 2.4372512 48.058362 5.7212004 C 53.096567 8.5425896 56.761979 29.346283 52.577815 34.860499 C 44.789173 45.125018 20.293899 56.543325 12.139826 53.057395 z "
     style="font-size:12;fill:url(#linearGradient862);fill-rule:evenodd;stroke:#261933;stroke-width:1.875;stroke-linecap:round;stroke-linejoin:round;stroke-dasharray:none;"
     id="path562" />
  <path
     d="M 12.258693 50.559882 C 7.4089087 46.66513 4.939118 20.098282 7.1445784 10.835314 C 7.9124818 7.6100593 18.684985 7.0429585 19.038143 8.218823 C 16.042544 8.3471655 11.54075 11.186964 10.831526 14.165551 C 8.5673316 23.675193 11.592 47.964062 12.258693 50.559882 z "
     style="font-size:12;opacity:0.7;fill:url(#linearGradient860);fill-rule:evenodd;stroke:none;stroke-width:1pt;"
     id="path567" />
  <path
     d="M 24.865895 14.284529 C 35.796025 12.309317 43.904665 5.7889249 46.155401 7.6241632 C 46.764487 8.1484053 38.257583 12.922933 33.072508 14.641453 C 31.319639 15.222337 24.343156 14.377984 24.865895 14.284529 z "
     style="font-size:12;opacity:0.699936;fill:url(#linearGradient583);fill-rule:evenodd;stroke:none;stroke-width:1pt;"
     id="path568" />
  <path
     d="M 12.781217 53.288995 C 10.696831 52.955325 9.6412329 30.343407 14.967781 25.167164 C 23.545752 16.83113 45.392125 11.696557 54.494881 13.897547 C 59.072474 15.004506 56.543842 30.171901 52.308313 35.291506 C 43.287927 46.313802 21.364248 54.560575 12.781217 53.288995 z "
     style="font-size:12;fill:url(#linearGradient861);fill-rule:evenodd;stroke:#261933;stroke-width:1.875;stroke-linecap:round;stroke-linejoin:round;stroke-dasharray:none;"
     id="path576"
     sodipodi:nodetypes="ccccc" />
  <path
     d="M 14.401113 49.584604 C 11.616441 44.363682 14.275678 29.630321 16.419605 27.019102 C 25.801832 16.983232 50.734136 15.502838 52.703206 16.434182 C 37.135833 18.753718 29.798296 20.903717 20.701323 29.873544 C 16.657556 34.512083 13.876868 42.425293 14.401113 49.584604 z "
     style="font-size:12;opacity:0.7;fill:url(#linearGradient581);fill-rule:evenodd;stroke:none;stroke-width:1.25;"
     id="path577"
     sodipodi:nodetypes="ccccc" />
  <g
     id="g951"
     transform="matrix(0.764869,0.000000,0.000000,0.764869,-33.25097,10.18667)">
    <path
       d="M 6.4128263 45.060819 C 8.6230193 46.226092 10.568574 40.858758 14.65093 45.533843 C 19.257269 50.812747 12.860552 51.43865 13.508938 53.70125 C 14.016234 55.210151 20.202317 53.735224 21.599907 52.082838 C 23.019478 50.404672 20.287248 45.734784 21.96032 43.709892 C 27.507213 36.997127 35.630255 30.292256 43.259988 25.870271 C 45.744021 24.430714 50.330677 27.499775 52.301704 26.125068 C 54.214288 24.790928 56.293037 18.520412 54.910533 17.74383 C 52.785727 16.503714 49.851357 23.453791 45.959648 18.857045 C 42.042059 14.228723 48.801482 11.845018 48.337257 9.937233 C 47.913393 8.3900337 41.176348 9.8074374 39.493684 11.55335 C 37.834105 13.275281 40.120388 18.191973 38.310525 20.340765 C 32.695388 27.007168 24.721525 33.623709 17.218589 37.998931 C 15.042418 39.267923 11.0389 36.119624 9.2731032 37.273609 C 7.4370124 38.473555 4.9902471 44.230579 6.4128263 45.060819 z "
       style="font-size:12.000000;opacity:0.30267498;fill-rule:evenodd;stroke-width:12.500000;"
       id="path636"
       transform="translate(56.86467,-0.626608)" />
    <path
       d="M 4.8866787 43.316605 C 7.0968623 44.481879 9.0423867 39.114544 13.124743 43.789628 C 17.731082 49.068534 11.334366 49.694436 11.98275 51.957038 C 12.490047 53.465939 18.67613 51.991012 20.073719 50.338625 C 21.493291 48.660458 18.761062 43.990569 20.434134 41.96568 C 25.981025 35.252914 34.104067 28.548043 41.733805 24.126056 C 44.217827 22.6865 48.804483 25.755562 50.775521 24.380854 C 52.688095 23.046714 54.766842 16.7762 53.384351 15.999616 C 51.259532 14.759501 48.325164 21.709577 44.433455 17.112831 C 40.515872 12.484508 47.2753 10.100803 46.811064 8.1930699 C 46.387209 6.64586 39.650161 8.0633028 37.967498 9.809135 C 36.307918 11.531067 38.594201 16.447759 36.784338 18.596551 C 31.169201 25.262953 23.195339 31.879495 15.692402 36.254718 C 13.516231 37.523709 9.5127129 34.375411 7.7469463 35.529394 C 5.9108648 36.72934 3.4640996 42.486365 4.8866787 43.316605 z "
       style="font-size:12.000000;fill:url(#linearGradient566);fill-rule:evenodd;stroke:#261933;stroke-width:1.8735100;"
       id="path630"
       transform="translate(56.86467,-0.626608)" />
    <path
       d="M 5.7685079 41.828187 C 5.7081657 41.546511 7.0482817 37.545192 8.3848089 36.922687 C 9.7008634 36.309674 13.66941 37.856544 13.726265 38.121734 C 13.778422 38.365239 10.113935 37.795692 8.7117496 38.448773 C 7.4613231 39.031211 5.8171499 42.055208 5.7685079 41.828187 z "
       style="font-size:12.000000;opacity:0.69993597;fill:url(#linearGradient578);fill-rule:evenodd;stroke:#ffffff;stroke-width:0.099920303pt;"
       id="path631"
       transform="translate(56.86467,-0.626608)" />
    <path
       d="M 13.726265 50.875996 C 13.621748 50.823738 15.616761 49.414758 16.015546 48.477803 C 16.343584 47.707017 15.805312 45.70191 15.906531 45.752568 C 16.023339 45.810922 17.008655 48.008275 16.669625 48.804843 C 16.281833 49.71612 13.839774 50.932753 13.726265 50.875996 z "
       style="font-size:12.000000;opacity:0.69993597;fill:url(#linearGradient583);fill-rule:evenodd;stroke:#ffffff;stroke-width:0.099920303pt;"
       id="path632"
       transform="translate(56.86467,-0.626608)" />
    <path
       d="M 16.679816 37.459361 C 16.590489 37.294292 24.679059 32.229516 28.32656 29.193031 C 31.830576 26.275849 38.046635 19.435884 38.134565 19.598356 C 38.224793 19.764922 32.421405 27.215801 28.860736 30.180045 C 25.26979 33.16947 16.768546 37.62333 16.679816 37.459361 z "
       style="font-size:12.000000;opacity:0.69999999;fill:url(#linearGradient575);fill-rule:evenodd;stroke:#ffffff;stroke-width:0.099920303pt;"
       id="path633"
       transform="translate(56.86467,-0.626608)" />
    <path
       d="M 38.798838 15.011501 C 38.575215 14.78788 38.213702 11.715919 39.016764 10.869093 C 40.212213 9.6083947 44.586343 8.4808317 44.794372 8.6888362 C 44.986021 8.8805141 41.485601 10.729204 40.215912 12.06814 C 39.48709 12.83673 38.974897 15.187562 38.798838 15.011501 z "
       style="font-size:12.000000;opacity:0.69999999;fill:url(#linearGradient573);fill-rule:evenodd;stroke:#ffffff;stroke-width:0.099920303pt;"
       id="path634"
       transform="translate(56.86467,-0.626608)" />
    <path
       d="M 46.320555 19.917003 C 46.303572 19.747237 48.019608 20.220361 48.718748 19.917003 C 49.94548 19.384626 52.081176 17.24113 52.098065 17.409695 C 52.11755 17.60444 50.060384 20.472061 48.827766 21.007036 C 48.134615 21.307896 46.339947 20.110548 46.320555 19.917003 z "
       style="font-size:12.000000;opacity:0.69993597;fill:url(#linearGradient569);fill-rule:evenodd;stroke:#ffffff;stroke-width:0.099920303pt;"
       id="path635"
       transform="translate(56.86467,-0.626608)" />
  </g>
</svg>
