<?xml version="1.0" encoding="UTF-8" standalone="no"?>
<!DOCTYPE svg PUBLIC "-//W3C//DTD SVG 20010904//EN"
"http://www.w3.org/TR/2001/REC-SVG-20010904/DTD/svg10.dtd">
<!-- Created with Inkscape (http://www.inkscape.org/) -->
<svg
   id="svg1"
   sodipodi:version="0.32"
   inkscape:version="0.38.1"
   width="48pt"
   height="48pt"
   sodipodi:docbase="/home/bill/art"
   sodipodi:docname="azureus.svg"
   xmlns="http://www.w3.org/2000/svg"
   xmlns:inkscape="http://www.inkscape.org/namespaces/inkscape"
   xmlns:sodipodi="http://sodipodi.sourceforge.net/DTD/sodipodi-0.dtd"
   xmlns:xlink="http://www.w3.org/1999/xlink">
  <defs
     id="defs3">
    <linearGradient
       id="linearGradient599">
      <stop
         style="stop-color:#ffffff;stop-opacity:1.0000000;"
         offset="0.0000000"
         id="stop600" />
      <stop
         style="stop-color:#d9cce6;stop-opacity:1.0000000;"
         offset="1.0000000"
         id="stop601" />
    </linearGradient>
    <linearGradient
       id="linearGradient584">
      <stop
         style="stop-color:#ffffff;stop-opacity:1;"
         offset="0.00000000"
         id="stop585" />
      <stop
         style="stop-color:#ffffff;stop-opacity:0;"
         offset="1.00000000"
         id="stop586" />
    </linearGradient>
    <linearGradient
       id="linearGradient578">
      <stop
         style="stop-color:#d9cce6;stop-opacity:1;"
         offset="0.00000000"
         id="stop579" />
      <stop
         style="stop-color:#73667f;stop-opacity:1;"
         offset="1.00000000"
         id="stop580" />
    </linearGradient>
    <linearGradient
       xlink:href="#linearGradient578"
       id="linearGradient581"
       x1="-0.00000000"
       y1="0.00000000"
       x2="0.97727275"
       y2="1.00781250" />
    <linearGradient
       xlink:href="#linearGradient584"
       id="linearGradient583"
       x1="0.00000000"
       y1="-0.00000000"
       x2="0.57575756"
       y2="0.59375000" />
    <linearGradient
       xlink:href="#linearGradient578"
       id="linearGradient860"
       x1="-0.38235289"
       y1="-0.35156250"
       x2="1.6372550"
       y2="1.2265625" />
    <linearGradient
       xlink:href="#linearGradient599"
       id="linearGradient861"
       x1="-0.65178573"
       y1="0.015625000"
       x2="1.0089285"
       y2="0.97656250" />
    <linearGradient
       xlink:href="#linearGradient584"
       id="linearGradient862"
       x1="-0.37500000"
       y1="0.14062500"
       x2="1.1704545"
       y2="1.0390625" />
    <radialGradient
       xlink:href="#linearGradient578"
       id="radialGradient595"
       cx="0.33846155"
       cy="0.34375000"
       r="0.66501766"
       fx="0.33076921"
       fy="0.33593750" />
    <linearGradient
       xlink:href="#linearGradient584"
       id="linearGradient652"
       x1="-0.035714287"
       y1="-0.039062500"
       x2="0.59693879"
       y2="0.60156250" />
    <linearGradient
       xlink:href="#linearGradient584"
       id="linearGradient654"
       x1="-1.6750000"
       y1="0.13281250"
       x2="2.9000001"
       y2="0.90625000" />
    <linearGradient
       xlink:href="#linearGradient584"
       id="linearGradient661"
       x1="-0.17028986"
       y1="-0.18032786"
       x2="0.99275362"
       y2="0.96721309" />
  </defs>
  <sodipodi:namedview
     id="base"
     pagecolor="#ffffff"
     bordercolor="#666666"
     borderopacity="1.0"
     inkscape:pageopacity="0.0"
     inkscape:pageshadow="2"
     inkscape:zoom="2.0000000"
     inkscape:cx="37.662781"
     inkscape:cy="21.063721"
     inkscape:window-width="841"
     inkscape:window-height="777"
     inkscape:window-x="303"
     inkscape:window-y="25" />
  <path
     style="fill:#000000;fill-rule:evenodd;stroke:none;stroke-opacity:1;stroke-width:1.875;stroke-linejoin:miter;stroke-linecap:butt;fill-opacity:1;stroke-dasharray:none;opacity:0.302675;"
     d="M 6.6629516 8.2846038 C 4.4933553 10.304018 4.6826231 55.055986 6.6629516 57.193253 C 8.6578885 59.364485 54.936558 58.853889 56.719693 56.963636 C 58.867713 54.672787 59.311649 10.22925 56.949311 8.0549859 C 53.892874 5.471501 8.8504225 6.4781709 6.6629516 8.2846038 z "
     id="path653"
     sodipodi:nodetypes="cssss" />
  <path
     style="fill:url(#linearGradient581);fill-rule:evenodd;stroke:#261933;stroke-opacity:1;stroke-width:1.875;stroke-linejoin:miter;stroke-linecap:butt;fill-opacity:1;stroke-dasharray:none;"
     d="M 5.9815622 6.6090188 C 3.8882996 8.5573831 4.0709083 51.734827 5.9815622 53.796898 C 7.9063108 55.891738 52.55674 55.399107 54.277139 53.575359 C 56.349584 51.36511 56.777901 8.4852457 54.498678 6.3874795 C 51.549777 3.8948903 8.0920703 4.8661422 5.9815622 6.6090188 z "
     id="path637"
     sodipodi:nodetypes="cssss" />
  <path
     style="fill:url(#linearGradient583);fill-rule:evenodd;stroke:none;stroke-opacity:1;stroke-width:1pt;stroke-linejoin:miter;stroke-linecap:butt;fill-opacity:1;"
     d="M 7.3626426 52.167401 C 6.7906517 51.513697 5.7105103 11.001658 7.6759466 8.7748057 C 9.8243052 6.3159539 52.22425 7.3430161 52.791714 7.9915458 C 53.320814 8.5962318 13.511602 8.503894 10.965638 12.534453 C 8.2469215 16.671218 7.8872155 52.766913 7.3626426 52.167401 z "
     id="path649"
     sodipodi:nodetypes="cssss" />
  <path
     style="fill:url(#linearGradient861);fill-opacity:1.00000000;fill-rule:evenodd;stroke:#261933;stroke-width:1.0000000pt;stroke-opacity:1.0000000;"
     d="M 45.355191,48.196722 C 47.413478,47.213115 42.568305,13.315119 37.486338,13.224044 C 32.404371,13.132969 13.315117,46.994536 14.754098,48.306011 C 16.083789,49.617486 19.143897,49.307832 20.983606,48.524590 C 22.714025,47.741348 24.699454,40.109289 27.213115,38.688524 C 29.726776,37.267759 35.828779,37.686702 37.923497,39.234972 C 40.018215,40.783242 38.087432,47.449909 39.781421,48.306011 C 41.584700,49.162113 43.406193,49.180329 45.355191,48.196722 z "
     id="path866"
     sodipodi:nodetypes="czzzzzzz"
     transform="translate(-0.258614,0.000000)" />
  <path
     style="fill:#000000;fill-opacity:0.30000001;fill-rule:evenodd;stroke:none;stroke-width:1.0000000pt;"
     d="M 30.530181,32.988170 C 30.074807,31.148462 35.903588,22.186713 37.415428,22.277788 C 38.927268,22.368863 40.548397,31.567405 39.491931,33.316039 C 38.435465,35.064673 30.985554,34.827878 30.530181,32.988170 z "
     id="path875"
     sodipodi:nodetypes="czzz" />
  <path
     style="fill:url(#linearGradient860);fill-opacity:1.00000000;fill-rule:evenodd;stroke:#261933;stroke-width:1.0000000pt;"
     d="M 29.398906,31.803279 C 28.943532,29.963571 34.772313,21.001822 36.284153,21.092897 C 37.795993,21.183972 39.417122,30.382514 38.360656,32.131148 C 37.304190,33.879782 29.854279,33.642987 29.398906,31.803279 z "
     id="path867"
     sodipodi:nodetypes="czzz"
     transform="translate(-0.258614,0.000000)" />
  <path
     style="fill:url(#linearGradient862);fill-rule:evenodd;stroke:none;stroke-opacity:1;stroke-width:1pt;stroke-linejoin:miter;stroke-linecap:butt;fill-opacity:0.75;"
     d="M 32.252480,31.779828 C 31.700461,31.668976 31.100900,31.566099 30.674054,31.167488 C 30.652806,30.721134 30.966893,30.320004 31.140315,29.918797 C 32.238327,27.902289 33.479021,25.963730 34.811466,24.094528 C 35.089861,23.745688 35.326719,23.341266 35.692436,23.077002 C 35.990385,23.338633 36.055450,23.822589 36.192525,24.199093 C 36.339040,24.709107 36.464457,25.225375 36.565302,25.746367 C 36.200796,25.422680 35.998137,24.918427 35.551736,24.695318 C 35.117861,24.715604 34.999060,25.298989 34.731000,25.584055 C 33.673174,27.218470 32.611929,28.855764 31.689257,30.571383 C 31.352856,30.963847 31.749161,31.353699 32.064336,31.584832 C 32.130048,31.646839 32.193191,31.711629 32.252480,31.779828 z "
     id="path878" />
  <path
     style="fill:url(#linearGradient652);fill-rule:evenodd;stroke:none;stroke-opacity:1;stroke-width:1pt;stroke-linejoin:miter;stroke-linecap:butt;fill-opacity:0.75;"
     d="M 23.435758,47.743471 C 23.253609,47.452032 26.749185,40.444279 27.746908,39.814185 C 28.228797,39.499137 30.375675,39.149365 32.424849,39.185074 C 34.474023,39.220784 36.357921,39.777119 36.448995,39.922839 C 36.631144,40.214278 30.821927,39.744655 28.636135,41.019700 C 26.450343,42.294746 23.617907,48.034910 23.435758,47.743471 z "
     id="path874"
     sodipodi:nodetypes="czsczz" />
  <path
     style="fill:url(#linearGradient654);fill-rule:evenodd;stroke:none;stroke-opacity:1;stroke-width:1pt;stroke-linejoin:miter;stroke-linecap:butt;fill-opacity:0.75;"
     d="M 37.053090,11.942915 C 39.219063,11.755079 40.536983,13.876516 41.318880,15.590062 C 44.200295,22.091993 45.010812,29.239838 46.022044,36.210413 C 46.542295,40.429027 46.371929,37.802490 46.831497,42.027788 C 46.804559,30.801892 46.640320,26.170689 42.899740,15.432927 C 42.236735,13.934637 41.617977,12.009041 39.730536,11.740291 C 39.316916,11.423202 36.135019,11.832491 37.053090,11.942915 z "
     id="path880"
     sodipodi:nodetypes="ccccccc" />
  <path
     style="fill-opacity:0.29999998;fill-rule:evenodd;stroke:none;stroke-width:1.0000000pt;"
     d="M 37.234180,13.289982 C 32.152213,13.198907 13.045199,47.041007 14.484180,48.352482 C 14.985911,48.847339 15.303749,48.788408 16.139696,48.883292 C 16.137018,48.566813 16.107063,48.293291 16.389696,47.539542 C 16.783879,46.488305 17.431363,45.062055 18.264696,43.383292 C 19.931363,40.025767 22.338352,35.661013 24.952196,31.352042 C 27.566040,27.043071 30.407911,22.784248 32.889696,19.602042 C 34.130589,18.010939 35.259175,16.678040 36.264696,15.758292 C 37.206365,14.896950 37.987763,14.497738 38.608446,14.445792 C 38.002681,13.535073 37.859539,13.301189 37.234180,13.289982 z "
     id="path914"
     sodipodi:nodetypes="cccccccccc" />
  <path
     style="fill-opacity:0.29999998;fill-rule:evenodd;stroke:none;stroke-width:1.0000000pt;"
     d="M 40.840862,48.481524 C 40.768620,48.253223 40.593965,48.181734 40.559612,47.887774 C 40.469676,47.118193 40.492558,46.152631 40.497112,45.169024 C 40.501666,44.185417 40.480889,43.181376 40.340862,42.325274 C 40.200835,41.469172 39.927041,40.774842 39.403362,40.387774 C 38.993447,40.084794 38.612838,40.126145 37.952930,39.914982 C 39.343808,42.020484 37.954518,47.563634 39.515430,48.352482 C 40.037577,48.600369 40.313008,48.378115 40.840862,48.481524 z "
     id="path916"
     sodipodi:nodetypes="cccccccc" />
</svg>
