<?xml version="1.0" encoding="UTF-8" standalone="no"?>
<!DOCTYPE svg PUBLIC "-//W3C//DTD SVG 20010904//EN"
"http://www.w3.org/TR/2001/REC-SVG-20010904/DTD/svg10.dtd">
<!-- Created with Inkscape (http://www.inkscape.org/) -->
<svg
   id="svg1"
   sodipodi:version="0.32"
   inkscape:version="0.37"
   width="48pt"
   height="48pt"
   sodipodi:docbase="/home/dan/Projects/Lila-icons/scalable/apps"
   sodipodi:docname="blender.svg"
   xmlns="http://www.w3.org/2000/svg"
   xmlns:inkscape="http://www.inkscape.org/namespaces/inkscape"
   xmlns:sodipodi="http://sodipodi.sourceforge.net/DTD/sodipodi-0.dtd"
   xmlns:xlink="http://www.w3.org/1999/xlink">
  <defs
     id="defs3">
    <linearGradient
       id="linearGradient584">
      <stop
         style="stop-color:#ffffff;stop-opacity:1;"
         offset="0.00000000"
         id="stop585" />
      <stop
         style="stop-color:#ffffff;stop-opacity:0;"
         offset="1.00000000"
         id="stop586" />
    </linearGradient>
    <linearGradient
       id="linearGradient578">
      <stop
         style="stop-color:#d9cce6;stop-opacity:1;"
         offset="0.00000000"
         id="stop579" />
      <stop
         style="stop-color:#73667f;stop-opacity:1;"
         offset="1.00000000"
         id="stop580" />
    </linearGradient>
    <linearGradient
       xlink:href="#linearGradient578"
       id="linearGradient581"
       x1="-0.00000000"
       y1="0.00000000"
       x2="0.99333334"
       y2="0.97656250" />
    <linearGradient
       xlink:href="#linearGradient584"
       id="linearGradient583"
       x1="0.00000000"
       y1="0.00000000"
       x2="0.96153843"
       y2="0.99218750" />
    <linearGradient
       xlink:href="#linearGradient584"
       id="linearGradient860"
       x1="0.01086957"
       y1="0.05555556"
       x2="0.99637681"
       y2="0.94444442" />
    <linearGradient
       xlink:href="#linearGradient584"
       id="linearGradient861"
       x1="0.01811594"
       y1="0.00833333"
       x2="0.98913044"
       y2="1.00000000" />
    <linearGradient
       xlink:href="#linearGradient584"
       id="linearGradient862"
       x1="-0.28676471"
       y1="-0.21875000"
       x2="0.97887325"
       y2="1.03906250" />
    <radialGradient
       xlink:href="#linearGradient584"
       id="radialGradient595" />
    <linearGradient
       xlink:href="#linearGradient584"
       id="linearGradient612"
       x1="0.00000000"
       y1="0.00000000"
       x2="1.03389835"
       y2="1.02343750" />
    <linearGradient
       xlink:href="#linearGradient578"
       id="linearGradient613"
       x1="0.00000000"
       y1="0.00000000"
       x2="0.96874988"
       y2="1.00000012" />
  </defs>
  <sodipodi:namedview
     id="base"
     pagecolor="#ffffff"
     bordercolor="#666666"
     borderopacity="1.0"
     inkscape:pageopacity="0.0"
     inkscape:pageshadow="2"
     inkscape:zoom="5.64233871"
     inkscape:cx="30.6095961"
     inkscape:cy="20.9918748"
     inkscape:window-width="640"
     inkscape:window-height="535"
     inkscape:window-x="80"
     inkscape:window-y="105" />
  <path
     style="font-size:12;fill-rule:evenodd;stroke-width:1.875;opacity:0.302675;"
     d="M 25.718750 5.468750 C 25.073456 5.422446 24.587239 5.566124 24.281250 5.906250 C 21.888596 8.551046 31.157626 15.383690 30.250000 16.187500 C 29.996528 16.456940 29.782399 16.711538 29.500000 16.875000 C 28.491788 17.523291 8.172566 14.522283 8.218750 18.875000 C 8.262714 22.881704 21.699552 24.067510 20.875000 24.937500 C 20.559235 25.219898 20.020264 25.787233 19.656250 26.031250 C 18.254314 26.886227 0.262098 41.914435 3.125000 44.968750 C 6.313395 48.210402 19.687500 35.516469 19.687500 36.093750 C 19.400314 43.813307 27.914522 51.749999 38.218750 51.750000 C 48.522980 51.750000 56.906249 43.397980 56.906250 33.093750 C 56.906250 22.789521 46.358819 16.360660 42.812500 14.843750 C 41.803206 14.412033 30.235805 5.792878 25.718750 5.468750 z M 38.437500 24.562500 C 43.390231 24.562500 47.406250 28.578519 47.406250 33.531250 C 47.406250 38.483983 43.390231 42.500000 38.437500 42.500000 C 33.484769 42.500001 29.468750 38.483981 29.468750 33.531250 C 29.468751 28.578520 33.484769 24.562500 38.437500 24.562500 z "
     id="path602"
     transform="matrix(1.020273,0.000000,0.000000,1.020273,1.039458,2.251687)" />
  <path
     sodipodi:type="arc"
     style="font-size:12;fill-rule:evenodd;stroke-width:2.28261;opacity:0.296369;"
     id="path603"
     sodipodi:cx="37.21860886"
     sodipodi:cy="30.31372833"
     sodipodi:rx="6.20310163"
     sodipodi:ry="6.20310163"
     d="M 43.421710 30.313728 A 6.203102 6.203102 0 1 0 31.015507,30.313728 A 6.2031 6.2031 0 1 0 43.4217 30.3137 L 37.218609 30.313728 z"
     transform="matrix(0.766653,0.000000,0.000000,0.766653,11.39195,12.66121)" />
  <path
     style="font-size:12;fill:url(#linearGradient581);fill-rule:evenodd;stroke:#261933;stroke-width:1.875;stroke-dasharray:none;"
     d="M 25.497211 6.3549074 C 24.851917 6.3086034 24.3657 6.4522814 24.059711 6.7924074 C 21.667057 9.4372034 30.936087 16.269847 30.028461 17.073657 C 29.774989 17.343097 29.56086 17.597695 29.278461 17.761157 C 28.270249 18.409448 7.9510267 15.40844 7.9972107 19.761157 C 8.0411747 23.767861 21.478013 24.953667 20.653461 25.823657 C 20.337696 26.106055 19.798725 26.67339 19.434711 26.917407 C 18.032775 27.772384 0.040558659 42.800592 2.9034607 45.854907 C 6.0918557 49.096559 19.465961 36.402626 19.465961 36.979907 C 19.178775 44.699464 27.692983 52.636156 37.997211 52.636157 C 48.301441 52.636157 56.68471 44.284137 56.684711 33.979907 C 56.684711 23.675678 46.13728 17.246817 42.590961 15.729907 C 41.581667 15.29819 30.014266 6.6790354 25.497211 6.3549074 z M 38.215961 25.448657 C 43.168692 25.448657 47.184711 29.464676 47.184711 34.417407 C 47.184711 39.37014 43.168692 43.386157 38.215961 43.386157 C 33.26323 43.386158 29.247211 39.370138 29.247211 34.417407 C 29.247212 29.464677 33.26323 25.448657 38.215961 25.448657 z "
     id="path600" />
  <path
     style="font-size:12;fill:url(#linearGradient613);fill-rule:evenodd;stroke:#000033;stroke-width:1.875;stroke-dasharray:none;"
     d="M 42.314033 34.190679 C 42.314033 36.453039 40.477914 38.289159 38.215553 38.289159 C 35.953192 38.289159 34.117072 36.453039 34.117072 34.190679 C 34.117072 31.928318 35.953192 30.092199 38.215553 30.092199 C 40.477914 30.092199 42.314033 31.928318 42.314033 34.190679 z "
     id="path641" />
  <path
     style="fill:url(#linearGradient583);fill-rule:evenodd;stroke:none;stroke-opacity:1;stroke-width:1pt;stroke-linejoin:miter;stroke-linecap:butt;fill-opacity:1;"
     d="M 4.6346718 44.124396 C 5.164635 43.241124 13.176863 33.50856 21.083129 27.675939 C 21.996926 26.988184 19.777442 31.383107 18.263393 32.375498 C 12.650781 35.794982 4.224723 44.807644 4.6346718 44.124396 z "
     id="path607"
     sodipodi:nodetypes="csss" />
  <path
     style="fill:url(#linearGradient860);fill-rule:evenodd;stroke:none;stroke-opacity:1;stroke-width:1pt;stroke-linejoin:miter;stroke-linecap:butt;fill-opacity:1;"
     d="M 9.9608387 19.999993 C 8.8784164 19.939011 15.065234 18.967718 17.636786 18.903429 C 21.331313 18.811066 29.710957 19.394054 28.759076 19.530037 C 27.152308 19.759575 12.585847 20.147881 9.9608387 19.999993 z "
     id="path608"
     sodipodi:nodetypes="csss" />
  <path
     style="fill:url(#linearGradient861);fill-rule:evenodd;stroke:none;stroke-opacity:1;stroke-width:1pt;stroke-linejoin:miter;stroke-linecap:butt;fill-opacity:1;"
     d="M 26.252644 9.817615 C 25.950363 9.5153343 25.410022 8.0558918 25.782688 8.0944434 C 26.924324 8.2125437 30.514791 10.00681 30.795551 10.287571 C 30.984747 10.476766 28.386137 9.627785 27.192556 9.5043111 C 26.871835 9.4711331 26.420319 9.9852902 26.252644 9.817615 z "
     id="path609"
     sodipodi:nodetypes="cssss" />
  <path
     style="fill:url(#linearGradient862);fill-rule:evenodd;stroke:none;stroke-opacity:1;stroke-width:1pt;stroke-linejoin:miter;stroke-linecap:butt;fill-opacity:1;"
     d="M 35.631716 35.527129 C 35.496314 35.324024 34.938962 33.73419 36.077203 32.230527 C 37.309525 30.631185 39.69416 31.597341 39.819292 31.785041 C 39.931753 31.953731 38.234324 31.258775 36.789982 32.943306 C 35.499246 34.433871 35.733907 35.680413 35.631716 35.527129 z "
     id="path610"
     sodipodi:nodetypes="cssss" />
  <path
     style="fill:url(#linearGradient612);fill-rule:evenodd;stroke:none;stroke-opacity:1;stroke-width:1pt;stroke-linejoin:miter;stroke-linecap:butt;fill-opacity:1;"
     d="M 33.536333 44.675775 C 33.162376 44.267822 41.590497 47.68777 46.509823 41.566352 C 51.035676 35.796719 47.595562 27.411368 47.949829 27.830913 C 48.939374 29.017225 51.891102 37.784554 47.839059 43.449436 C 44.122406 48.601342 33.974687 45.15398 33.536333 44.675775 z "
     id="path611"
     sodipodi:nodetypes="cssss" />
</svg>
