<?xml version="1.0" encoding="UTF-8" standalone="no"?>
<!DOCTYPE svg PUBLIC "-//W3C//DTD SVG 20010904//EN"
"http://www.w3.org/TR/2001/REC-SVG-20010904/DTD/svg10.dtd">
<!-- Created with Sodipodi ("http://www.sodipodi.com/") -->
<svg
   id="svg548"
   sodipodi:version="0.32"
   width="48.000000pt"
   height="48.000000pt"
   sodipodi:docbase="/home/ssevertson"
   sodipodi:docname="icon.svg"
   xmlns="http://www.w3.org/2000/svg"
   xmlns:sodipodi="http://sodipodi.sourceforge.net/DTD/sodipodi-0.dtd"
   xmlns:xlink="http://www.w3.org/1999/xlink"
   xmlns:inkscape="http://www.inkscape.org/namespaces/inkscape"
   inkscape:version="0.38.1">
  <defs
     id="defs550">
    <linearGradient
       id="linearGradient630">
      <stop
         style="stop-color:#cfba11;stop-opacity:1;"
         offset="0.000000"
         id="stop631" />
      <stop
         style="stop-color:#ca921f;stop-opacity:1;"
         offset="1.000000"
         id="stop632" />
    </linearGradient>
    <linearGradient
       id="linearGradient604">
      <stop
         style="stop-color:#000000;stop-opacity:0.23921569;"
         offset="0.0000000"
         id="stop605" />
      <stop
         style="stop-color:#000000;stop-opacity:0.0000000;"
         offset="1.0000000"
         id="stop606" />
    </linearGradient>
    <linearGradient
       id="linearGradient600">
      <stop
         style="stop-color:#3278c6;stop-opacity:1;"
         offset="0.000000"
         id="stop601" />
      <stop
         style="stop-color:#264980;stop-opacity:1;"
         offset="1.000000"
         id="stop602" />
    </linearGradient>
    <linearGradient
       id="linearGradient641">
      <stop
         style="stop-color:#000000;stop-opacity:0.415686;"
         offset="0.000000"
         id="stop642" />
      <stop
         style="stop-color:#000000;stop-opacity:0;"
         offset="1.000000"
         id="stop643" />
    </linearGradient>
    <linearGradient
       id="linearGradient635">
      <stop
         style="stop-color:#ffffff;stop-opacity:1;"
         offset="0.000000"
         id="stop636" />
      <stop
         style="stop-color:#ffffff;stop-opacity:0.176471;"
         offset="1.000000"
         id="stop637" />
    </linearGradient>
    <linearGradient
       id="linearGradient626">
      <stop
         style="stop-color:#cfba11;stop-opacity:1;"
         offset="0.000000"
         id="stop627" />
      <stop
         style="stop-color:#ca921f;stop-opacity:1;"
         offset="1.000000"
         id="stop628" />
    </linearGradient>
    <linearGradient
       id="linearGradient564">
      <stop
         style="stop-color:#d9cce6;stop-opacity:1.0000000;"
         offset="0.0000000"
         id="stop565" />
      <stop
         style="stop-color:#73667f;stop-opacity:1.0000000;"
         offset="1.0000000"
         id="stop566" />
    </linearGradient>
    <linearGradient
       id="linearGradient561">
      <stop
         style="stop-color:#ffffff;stop-opacity:1.0000000;"
         offset="0.0000000"
         id="stop562" />
      <stop
         style="stop-color:#d9cce6;stop-opacity:1.0000000;"
         offset="1.0000000"
         id="stop563" />
    </linearGradient>
    <linearGradient
       id="linearGradient556">
      <stop
         style="stop-color:#ffffff;stop-opacity:1;"
         offset="0.000000"
         id="stop557" />
      <stop
         style="stop-color:#8f8f8f;stop-opacity:1;"
         offset="1.000000"
         id="stop558" />
    </linearGradient>
    <radialGradient
       xlink:href="#linearGradient556"
       id="radialGradient559"
       cx="0.22549079"
       cy="0.14843503"
       fx="0.22549079"
       fy="0.14843503"
       r="0.80073678"
       gradientUnits="objectBoundingBox"
       spreadMethod="pad" />
    <radialGradient
       xlink:href="#linearGradient561"
       id="radialGradient560"
       cx="0.38806006"
       cy="0.32812515"
       fx="0.38806006"
       fy="0.32812515"
       r="0.21148367"
       gradientUnits="objectBoundingBox"
       spreadMethod="pad" />
    <radialGradient
       xlink:href="#linearGradient564"
       id="radialGradient616"
       cx="0.28906250"
       cy="0.21875000"
       fx="0.28906250"
       fy="0.21875000"
       r="0.50054902"
       gradientUnits="objectBoundingBox"
       spreadMethod="pad" />
    <linearGradient
       xlink:href="#linearGradient561"
       id="linearGradient620"
       x1="-0.29166701"
       y1="0.71093750"
       x2="0.49999976"
       y2="0.88281250"
       gradientUnits="objectBoundingBox"
       spreadMethod="pad" />
    <linearGradient
       xlink:href="#linearGradient561"
       id="linearGradient622"
       x1="0.49635035"
       y1="0.20312485"
       x2="0.49999979"
       y2="0.79761833"
       gradientUnits="objectBoundingBox"
       spreadMethod="pad" />
    <radialGradient
       xlink:href="#linearGradient561"
       id="radialGradient625"
       cx="0.38806006"
       cy="0.32812515"
       r="0.31565833"
       fx="0.38806006"
       fy="0.32812515" />
    <linearGradient
       xlink:href="#linearGradient635"
       id="linearGradient634"
       x1="0.47457698"
       y1="-0.00000223"
       x2="0.50000012"
       y2="0.78124982"
       gradientUnits="objectBoundingBox"
       spreadMethod="pad" />
    <linearGradient
       xlink:href="#linearGradient635"
       id="linearGradient639"
       x1="-1.10714293"
       y1="0.10937333"
       x2="0.19642828"
       y2="0.91406232"
       gradientUnits="objectBoundingBox"
       spreadMethod="pad" />
    <linearGradient
       xlink:href="#linearGradient641"
       id="linearGradient640"
       x1="0.45967713"
       y1="1.06756830"
       x2="0.51209664"
       y2="0.51351380"
       gradientUnits="objectBoundingBox"
       spreadMethod="pad" />
    <radialGradient
       xlink:href="#linearGradient561"
       id="radialGradient603"
       cx="0.35071170"
       cy="0.28121057"
       fx="0.35071170"
       fy="0.28121057"
       r="0.45836762"
       gradientUnits="objectBoundingBox"
       spreadMethod="pad" />
    <linearGradient
       xlink:href="#linearGradient604"
       id="linearGradient607"
       x1="1.03906250"
       y1="0.97656250"
       x2="0.53906250"
       y2="0.38281250"
       gradientUnits="objectBoundingBox"
       spreadMethod="pad" />
    <linearGradient
       xlink:href="#linearGradient561"
       id="linearGradient608"
       x1="0.46538398"
       y1="0.23809154"
       x2="0.48581553"
       y2="0.59999979" />
    <linearGradient
       xlink:href="#linearGradient556"
       id="linearGradient611"
       x1="0.49114889"
       y1="0.37542576"
       x2="0.53097337"
       y2="0.97952133"
       gradientUnits="objectBoundingBox"
       spreadMethod="pad" />
  </defs>
  <sodipodi:namedview
     id="base"
     inkscape:zoom="6.8987656"
     inkscape:cx="22.207265"
     inkscape:cy="27.095049"
     inkscape:window-width="640"
     inkscape:window-height="509"
     inkscape:window-x="163"
     inkscape:window-y="298" />
  <g
     id="g934"
     transform="matrix(1.406657,0.000000,0.000000,1.406657,-12.19972,-12.19974)">
    <path
       sodipodi:type="arc"
       style="fill:url(#radialGradient559);fill-rule:evenodd;stroke-width:1.0000000pt;stroke:#261933;stroke-opacity:1.0000000;"
       id="path617"
       d="M 30.266523 20.251930 A 5.661364 7.185555 0 1 0 18.943796,20.251930 A 5.66136 7.18555 0 1 0 30.2665 20.2519 L 24.605160 20.251930 z"
       sodipodi:cx="24.605160"
       sodipodi:cy="20.251930"
       sodipodi:rx="5.661364"
       sodipodi:ry="7.185555"
       transform="translate(-8.814730,5.311100)" />
    <path
       style="font-size:12.000000;fill:url(#radialGradient560);fill-rule:evenodd;stroke-width:1.0000000pt;stroke:#261933;stroke-opacity:1.0000000;"
       d="M 40.9676 10.542 C 40.9676 13.8816 34.1576 4.6698 28.8674 7.77626 C 28.8674 4.43665 31.8886 0.507507 36.2114 0.507507 C 41.7442 0.680389 40.9676 7.20238 40.9676 10.542 z "
       id="path618"
       transform="translate(-18.64004,14.96450)"
       sodipodi:nodetypes="cccc" />
    <path
       style="fill:url(#linearGradient620);fill-rule:evenodd;stroke-width:1.0000000pt;stroke:#261933;stroke-opacity:1.0000000;"
       d="M 34.7133 23.5539 C 34.6318 19.6426 35.5281 15.3645 37.4023 11.0865 C 38.7061 8.76411 40.3766 6.80847 43.8805 5.95291 C 41.1914 10.6384 42.2915 14.5905 41.8026 19.1536 C 40.9877 21.0685 40.2951 22.3725 39.9691 25.3874 C 40.0914 31.0507 41.9248 32.4361 44.3694 34.6769 C 41.1507 35.5733 38.9099 33.2916 37.0357 31.9879 C 36.0578 28.6062 35.6911 26.9357 34.7133 23.5539 z "
       id="path619"
       sodipodi:nodetypes="cccccccc"
       transform="translate(5.501540,5.528800)" />
    <g
       id="g595"
       transform="matrix(0.718586,0.000000,0.000000,0.718583,-32.33120,10.47540)"
       style="">
      <path
         sodipodi:type="arc"
         style="fill-rule:evenodd;stroke:none;fill:#000000;fill-opacity:1;stroke-opacity:1;stroke-width:1pt;stroke-linejoin:miter;stroke-linecap:butt;"
         id="path596"
         d="M 64.476341 21.172836 A 2.074306 2.160721 0 1 0 60.327728,21.172836 A 2.07431 2.16072 0 1 0 64.4763 21.1728 L 62.402035 21.172836 z"
         sodipodi:cx="62.402035"
         sodipodi:cy="21.172836"
         sodipodi:rx="2.074306"
         sodipodi:ry="2.160721"
         transform="translate(0.000000,-0.122253)" />
      <path
         sodipodi:type="arc"
         style="fill-rule:evenodd;stroke:none;fill:gray;fill-opacity:1;stroke-opacity:1;stroke-width:1pt;stroke-linejoin:miter;stroke-linecap:butt;"
         id="path597"
         d="M 63.957764 20.394981 A 0.777864 1.037178 0 1 0 62.402039,20.394981 A 0.777864 1.03718 0 1 0 63.9578 20.395 L 63.179901 20.394981 z"
         sodipodi:cx="63.179901"
         sodipodi:cy="20.394981"
         sodipodi:rx="0.777864"
         sodipodi:ry="1.037178" />
    </g>
    <path
       style="fill:url(#linearGradient639);fill-opacity:0.47183099;fill-rule:evenodd;stroke-width:1.0000000pt;"
       d="M 35.6911 19.8871 C 36.9541 13.9385 37.2394 13.1237 38.0135 11.2088 C 38.869 9.61975 39.358 8.2753 43.1471 6.44188 C 41.1099 8.15308 40.0506 10.1087 39.2358 12.6756 C 38.8283 14.7942 38.0542 16.9129 38.5024 23.9207 C 37.8505 22.8614 36.343 20.9464 35.6911 19.8871 z "
       id="path630"
       sodipodi:nodetypes="cccccc"
       transform="translate(5.501540,5.528800)" />
    <path
       style="font-size:12.000000;fill:url(#radialGradient616);fill-rule:evenodd;stroke-width:1.0000000pt;"
       d="M 39.358 25.7541 C 39.1136 31.7102 29.4691 43.1108 20.6568 42.9886 C 12.5779 42.8664 5.62257 35.0105 5.62257 25.6319 C 5.62257 16.2535 11.7223 9.00879 20.5346 8.76427 C 29.9581 8.88649 39.4803 21.9982 39.358 25.7541 z "
       id="path615"
       sodipodi:nodetypes="ccccc"
       transform="translate(5.501540,5.528800)" />
    <path
       style="font-size:12.000000;fill:url(#linearGradient607);fill-rule:evenodd;stroke-width:1.0000000pt;stroke:#261933;stroke-opacity:1.0000000;"
       d="M 39.358 25.7541 C 39.1136 31.7102 29.4691 43.1108 20.6568 42.9886 C 12.5779 42.8664 5.62257 35.0105 5.62257 25.6319 C 5.62257 16.2535 11.7223 9.00879 20.5346 8.76427 C 29.9581 8.88649 39.4803 21.9982 39.358 25.7541 z "
       id="path599"
       sodipodi:nodetypes="ccccc"
       transform="translate(5.501540,5.528800)" />
    <path
       sodipodi:type="arc"
       style="fill:url(#linearGradient634);fill-rule:evenodd;stroke-width:1.0000000pt;"
       id="path633"
       d="M 30.068529 22.209480 A 5.744801 6.233711 0 1 0 18.578928,22.209480 A 5.7448 6.23371 0 1 0 30.0685 22.2095 L 24.323729 22.209480 z"
       sodipodi:cx="24.323729"
       sodipodi:cy="22.209480"
       sodipodi:rx="5.744801"
       sodipodi:ry="6.233711"
       transform="matrix(1.000000,0.000000,0.000000,0.932637,5.379310,6.727300)" />
    <path
       sodipodi:type="arc"
       style="fill:url(#linearGradient611);fill-rule:evenodd;stroke-width:1.0000000pt;stroke:#261933;stroke-opacity:1.0000000;"
       id="path552"
       d="M 30.266523 20.251930 A 5.661364 7.185555 0 1 0 18.943796,20.251930 A 5.66136 7.18555 0 1 0 30.2665 20.2519 L 24.605160 20.251930 z"
       sodipodi:cx="24.605160"
       sodipodi:cy="20.251930"
       sodipodi:rx="5.661364"
       sodipodi:ry="7.185555"
       transform="matrix(1.032385,0.000000,0.000000,1.059539,4.017050,3.677500)" />
    <path
       style="font-size:12.000000;fill:url(#radialGradient625);fill-rule:evenodd;stroke-width:1.0000000pt;stroke:#261933;stroke-opacity:1.0000000;"
       d="M 40.8895 10.542 C 39.9129 9.66286 36.9358 4.78699 29.1018 7.74536 C 29.1018 4.40575 30.4218 -0.348053 34.7446 -0.348053 C 40.2774 -0.175171 40.8895 7.20238 40.8895 10.542 z "
       id="path600"
       transform="translate(-5.561430,15.20890)"
       sodipodi:nodetypes="cccc" />
    <g
       id="g611"
       transform="matrix(0.718586,0.000000,0.000000,0.718583,-13.01983,10.91530)"
       style="">
      <path
         sodipodi:type="arc"
         style="fill-rule:evenodd;stroke:none;fill:#000000;fill-opacity:1;stroke-opacity:1;stroke-width:1pt;stroke-linejoin:miter;stroke-linecap:butt;"
         id="path604"
         d="M 64.476341 21.172836 A 2.074306 2.160721 0 1 0 60.327728,21.172836 A 2.07431 2.16072 0 1 0 64.4763 21.1728 L 62.402035 21.172836 z"
         sodipodi:cx="62.402035"
         sodipodi:cy="21.172836"
         sodipodi:rx="2.074306"
         sodipodi:ry="2.160721"
         transform="translate(0.000000,-0.122253)" />
      <path
         sodipodi:type="arc"
         style="fill-rule:evenodd;stroke:none;fill:gray;fill-opacity:1;stroke-opacity:1;stroke-width:1pt;stroke-linejoin:miter;stroke-linecap:butt;"
         id="path605"
         d="M 63.957764 20.394981 A 0.777864 1.037178 0 1 0 62.402039,20.394981 A 0.777864 1.03718 0 1 0 63.9578 20.395 L 63.179901 20.394981 z"
         sodipodi:cx="63.179901"
         sodipodi:cy="20.394981"
         sodipodi:rx="0.777864"
         sodipodi:ry="1.037178" />
    </g>
    <path
       style="fill:url(#linearGradient622);fill-rule:evenodd;stroke-width:1.0000000pt;stroke:#261933;stroke-opacity:1.0000000;"
       d="M 47.7918 31.6212 C 47.9956 32.4768 54.0663 35.0436 63.6817 31.3767 C 64.0687 31.3359 65.9802 29.2664 65.9725 29.6741 C 65.9538 30.7845 65.0877 32.2618 63.9602 33.4937 C 61.5562 36.4271 57.4073 38.2215 52.681 37.7327 C 50.3994 37.529 48.6387 36.3476 47.5794 34.5547 C 46.6743 32.864 47.2622 32.5584 47.7918 31.6212 z "
       id="path623"
       sodipodi:nodetypes="ccscccc"
       transform="translate(-35.68995,7.729000)" />
    <path
       style="fill:url(#linearGradient640);fill-rule:evenodd;stroke-width:1.0000000pt;"
       d="M 48.1585 31.6212 C 48.3623 32.4768 54.0663 35.4103 63.6817 31.7434 C 64.9709 31.0814 65.8555 31.6562 64.5373 33.699 C 62.1334 36.1436 54.8404 37.1215 52.5588 36.7548 C 50.2772 36.5511 47.5067 35.7362 47.0585 34.3102 C 46.7194 33.0835 47.14 32.3139 48.1585 31.6212 z "
       id="path631"
       sodipodi:nodetypes="cccccc"
       transform="translate(-36.15261,5.912800)" />
    <path
       style="fill:url(#linearGradient608);fill-rule:evenodd;stroke-width:1.0000000pt;stroke:#261933;stroke-opacity:1.0000000;"
       d="M 48.1585 31.6212 C 48.3623 32.4768 53.7538 36.5821 63.9942 32.6028 C 64.6778 32.3109 65.9243 31.7422 66.181 31.785 C 66.5577 31.8591 65.7042 32.7557 64.6936 33.7772 C 62.2897 36.2217 54.8404 37.1215 52.5588 36.7548 C 50.2772 36.5511 47.5067 35.7362 47.0585 34.3102 C 46.7194 33.0835 47.14 32.3139 48.1585 31.6212 z "
       id="path621"
       sodipodi:nodetypes="ccscccc"
       transform="translate(-36.05663,5.528800)" />
  </g>
</svg>
