<?xml version="1.0" encoding="UTF-8" standalone="no"?>
<!DOCTYPE svg PUBLIC "-//W3C//DTD SVG 20010904//EN"
"http://www.w3.org/TR/2001/REC-SVG-20010904/DTD/svg10.dtd">
<!-- Created with Inkscape (http://www.inkscape.org/) -->
<svg
   version="1"
   x="0.00000000"
   y="0.00000000"
   width="48pt"
   height="48pt"
   id="svg568"
   sodipodi:version="0.32"
   sodipodi:docname="bmp.svg"
   transform=""
   inkscape:version="0.37"
   sodipodi:docbase="/home/dan/Projects/Lila-icons/scalable/apps"
   xmlns="http://www.w3.org/2000/svg"
   xmlns:inkscape="http://www.inkscape.org/namespaces/inkscape"
   xmlns:sodipodi="http://sodipodi.sourceforge.net/DTD/sodipodi-0.dtd"
   xmlns:xlink="http://www.w3.org/1999/xlink">
  <sodipodi:namedview
     id="base"
     inkscape:zoom="6.82799985"
     inkscape:cx="24.0556245"
     inkscape:cy="20.4690492"
     inkscape:window-width="515"
     inkscape:window-height="500"
     inkscape:window-x="193"
     inkscape:window-y="310" />
  <defs
     id="defs570">
    <linearGradient
       id="linearGradient553">
      <stop
         style="stop-color:#73667f;stop-opacity:1;"
         offset="0.00000000"
         id="stop554" />
      <stop
         style="stop-color:#d9cce6;stop-opacity:1;"
         offset="1.00000000"
         id="stop555" />
    </linearGradient>
    <linearGradient
       xlink:href="#linearGradient553"
       id="linearGradient556"
       x1="0.95384616"
       y1="0.97656250"
       x2="0.00769231"
       y2="0.00781250"
       gradientUnits="objectBoundingBox"
       spreadMethod="pad" />
  </defs>
  <rect
     width="47.84789658"
     height="47.84789658"
     x="9.14209938"
     y="8.95456977"
     style="font-size:12;fill:#000000;fill-rule:evenodd;stroke:none;stroke-width:1.875;stroke-dasharray:none;fill-opacity:1;opacity:0.302675;"
     id="rect588" />
  <rect
     width="47.84789658"
     height="47.84789658"
     x="6.39605379"
     y="6.02545400"
     style="font-size:12;fill:url(#linearGradient556);fill-rule:evenodd;stroke:#261933;stroke-width:1.875;stroke-dasharray:none;"
     id="rect587" />
  <path
     style="font-size:72;font-weight:bold;fill:#ffffff;stroke-width:1pt;font-family:Atmosphere;"
     d="M 36.548425 40.478334 L 22.582257 40.478334 L 22.582257 36.30668 L 35.913606 36.30668 L 35.913606 26.995889 L 22.582257 26.995889 L 22.582257 16.294715 L 26.874837 16.294715 L 26.874837 22.824267 L 36.548425 22.824267 L 40.175954 26.361066 L 40.175954 36.941494 L 36.548425 40.478334 z "
     id="path560" />
  <path
     sodipodi:type="arc"
     style="fill-rule:evenodd;stroke:none;fill:#ffffff;fill-opacity:1;stroke-opacity:1;stroke-width:1pt;stroke-linejoin:miter;stroke-linecap:butt;"
     id="path585"
     d="M 61.871853 125.086594 A 3.977476 3.977474 0 1 0 53.916904,125.086594 A 3.97748 3.97747 0 1 0 61.8719 125.087 L 57.894379 125.086594 z"
     sodipodi:cx="57.894379"
     sodipodi:cy="125.086594"
     sodipodi:rx="3.977476"
     sodipodi:ry="3.977474"
     transform="matrix(0.382783,0.000000,0.000000,0.382783,29.26353,-34.82600)" />
  <path
     sodipodi:type="arc"
     style="fill-rule:evenodd;stroke:none;fill:#ffffff;fill-opacity:1;stroke-opacity:1;stroke-width:1pt;stroke-linejoin:miter;stroke-linecap:butt;"
     id="path572"
     d="M 61.871853 125.086594 A 3.977476 3.977474 0 1 0 53.916904,125.086594 A 3.97748 3.97747 0 1 0 61.8719 125.087 L 57.894379 125.086594 z"
     sodipodi:cx="57.894379"
     sodipodi:cy="125.086594"
     sodipodi:rx="3.977476"
     sodipodi:ry="3.977474"
     transform="matrix(0.382783,0.000000,0.000000,0.382783,29.26353,-38.95047)" />
  <path
     sodipodi:type="arc"
     style="fill-rule:evenodd;stroke:none;fill:#ffffff;fill-opacity:1;stroke-opacity:1;stroke-width:1pt;stroke-linejoin:miter;stroke-linecap:butt;"
     id="path587"
     d="M 61.871853 125.086594 A 3.977476 3.977474 0 1 0 53.916904,125.086594 A 3.97748 3.97747 0 1 0 61.8719 125.087 L 57.894379 125.086594 z"
     sodipodi:cx="57.894379"
     sodipodi:cy="125.086594"
     sodipodi:rx="3.977476"
     sodipodi:ry="3.977474"
     transform="matrix(0.382783,0.000000,0.000000,0.382783,25.13906,-38.95047)" />
  <path
     sodipodi:type="arc"
     style="fill-rule:evenodd;stroke:none;fill:#ffffff;fill-opacity:1;stroke-opacity:1;stroke-width:1pt;stroke-linejoin:miter;stroke-linecap:butt;"
     id="path588"
     d="M 61.871853 125.086594 A 3.977476 3.977474 0 1 0 53.916904,125.086594 A 3.97748 3.97747 0 1 0 61.8719 125.087 L 57.894379 125.086594 z"
     sodipodi:cx="57.894379"
     sodipodi:cy="125.086594"
     sodipodi:rx="3.977476"
     sodipodi:ry="3.977474"
     transform="matrix(0.382783,0.000000,0.000000,0.382783,25.13906,-34.82600)" />
  <path
     sodipodi:type="arc"
     style="fill-rule:evenodd;stroke:none;fill:#ffffff;fill-opacity:1;stroke-opacity:1;stroke-width:1pt;stroke-linejoin:miter;stroke-linecap:butt;"
     id="path589"
     d="M 61.871853 125.086594 A 3.977476 3.977474 0 1 0 53.916904,125.086594 A 3.97748 3.97747 0 1 0 61.8719 125.087 L 57.894379 125.086594 z"
     sodipodi:cx="57.894379"
     sodipodi:cy="125.086594"
     sodipodi:rx="3.977476"
     sodipodi:ry="3.977474"
     transform="matrix(0.382783,0.000000,0.000000,0.382783,21.01459,-38.95047)" />
  <path
     sodipodi:type="arc"
     style="fill-rule:evenodd;stroke:none;fill:#ffffff;fill-opacity:1;stroke-opacity:1;stroke-width:1pt;stroke-linejoin:miter;stroke-linecap:butt;"
     id="path590"
     d="M 61.871853 125.086594 A 3.977476 3.977474 0 1 0 53.916904,125.086594 A 3.97748 3.97747 0 1 0 61.8719 125.087 L 57.894379 125.086594 z"
     sodipodi:cx="57.894379"
     sodipodi:cy="125.086594"
     sodipodi:rx="3.977476"
     sodipodi:ry="3.977474"
     transform="matrix(0.382783,0.000000,0.000000,0.382783,21.01459,-34.82600)" />
  <path
     sodipodi:type="arc"
     style="fill-rule:evenodd;stroke:none;fill:#ffffff;fill-opacity:1;stroke-opacity:1;stroke-width:1pt;stroke-linejoin:miter;stroke-linecap:butt;"
     id="path591"
     d="M 61.871853 125.086594 A 3.977476 3.977474 0 1 0 53.916904,125.086594 A 3.97748 3.97747 0 1 0 61.8719 125.087 L 57.894379 125.086594 z"
     sodipodi:cx="57.894379"
     sodipodi:cy="125.086594"
     sodipodi:rx="3.977476"
     sodipodi:ry="3.977474"
     transform="matrix(0.382783,0.000000,0.000000,0.382783,16.89012,-38.95047)" />
  <path
     sodipodi:type="arc"
     style="fill-rule:evenodd;stroke:none;fill:#ffffff;fill-opacity:1;stroke-opacity:1;stroke-width:1pt;stroke-linejoin:miter;stroke-linecap:butt;"
     id="path593"
     d="M 61.871853 125.086594 A 3.977476 3.977474 0 1 0 53.916904,125.086594 A 3.97748 3.97747 0 1 0 61.8719 125.087 L 57.894379 125.086594 z"
     sodipodi:cx="57.894379"
     sodipodi:cy="125.086594"
     sodipodi:rx="3.977476"
     sodipodi:ry="3.977474"
     transform="matrix(0.382783,0.000000,0.000000,0.382783,12.76564,-38.95047)" />
</svg>
