<?xml version="1.0" encoding="UTF-8" standalone="no"?>
<!DOCTYPE svg PUBLIC "-//W3C//DTD SVG 20010904//EN"
"http://www.w3.org/TR/2001/REC-SVG-20010904/DTD/svg10.dtd">
<!-- Created with Inkscape (http://www.inkscape.org/) -->
<svg
   version="1.0"
   x="0"
   y="0"
   width="48pt"
   height="48pt"
   id="svg611"
   sodipodi:version="0.32"
   inkscape:version="0.38.1"
   sodipodi:docname="dasher.svg"
   sodipodi:docbase="/home/ed/Desktop/Lila"
   xmlns="http://www.w3.org/2000/svg"
   xmlns:inkscape="http://www.inkscape.org/namespaces/inkscape"
   xmlns:sodipodi="http://sodipodi.sourceforge.net/DTD/sodipodi-0.dtd"
   xmlns:xlink="http://www.w3.org/1999/xlink">
  <sodipodi:namedview
     id="base"
     pagecolor="#ffffff"
     bordercolor="#666666"
     borderopacity="1.0"
     inkscape:pageopacity="0.0"
     inkscape:pageshadow="2"
     inkscape:zoom="15.999999"
     inkscape:cx="28.840870"
     inkscape:cy="27.601434"
     inkscape:window-width="1001"
     inkscape:window-height="768"
     inkscape:window-x="543"
     inkscape:window-y="130"
     showguides="true"
     snaptoguides="true" />
  <defs
     id="defs613">
    <linearGradient
       id="linearGradient1535">
      <stop
         style="stop-color:#ffffff;stop-opacity:1;"
         offset="0"
         id="stop1537" />
      <stop
         style="stop-color:#ffffff;stop-opacity:0;"
         offset="1"
         id="stop1536" />
    </linearGradient>
    <linearGradient
       id="linearGradient1528">
      <stop
         style="stop-color:#d9cce6;stop-opacity:1.0000000;"
         offset="0.0000000"
         id="stop1530" />
      <stop
         style="stop-color:#73667f;stop-opacity:1.0000000;"
         offset="1.0000000"
         id="stop1529" />
    </linearGradient>
    <linearGradient
       id="linearGradient642">
      <stop
         style="stop-color:#ffffff;stop-opacity:1;"
         offset="0"
         id="stop643" />
      <stop
         style="stop-color:#ffffff;stop-opacity:0;"
         offset="1"
         id="stop644" />
    </linearGradient>
    <linearGradient
       id="linearGradient635">
      <stop
         style="stop-color:#ffffff;stop-opacity:1.0000000;"
         offset="0.0000000"
         id="stop636" />
      <stop
         style="stop-color:#d9cce6;stop-opacity:1.0000000;"
         offset="1.0000000"
         id="stop637" />
    </linearGradient>
    <linearGradient
       xlink:href="#linearGradient1528"
       id="linearGradient860"
       x1="4.2934406e-17"
       y1="0.50000000"
       x2="1.0000000"
       y2="0.50000000" />
    <linearGradient
       xlink:href="#linearGradient1535"
       id="linearGradient861"
       x1="0.022988506"
       y1="0.023437500"
       x2="0.98275864"
       y2="0.95312500" />
    <linearGradient
       xlink:href="#linearGradient1535"
       id="linearGradient862" />
    <linearGradient
       xlink:href="#linearGradient635"
       id="linearGradient863"
       x1="1.0000000"
       y1="0.39843750"
       x2="-4.0202217e-16"
       y2="0.39843750" />
    <linearGradient
       xlink:href="#linearGradient635"
       id="linearGradient864"
       x1="0.98026317"
       y1="0.61718750"
       x2="0.013157895"
       y2="0.61718750" />
  </defs>
  <path
     style="fill:#000000;fill-rule:evenodd;stroke:none;stroke-width:1.8750000;stroke-opacity:0.99548966;fill-opacity:0.30000001;stroke-dasharray:none;"
     d="M 28.793307,10.605807 C 25.620062,10.632824 23.324277,10.821687 22.699557,11.293307 C 22.313667,11.579384 22.063064,12.606598 21.887057,13.887057 C 13.290605,13.606301 5.6419440,13.566700 4.7933071,14.199557 C 2.4984453,16.075533 5.3439402,55.096498 7.8245571,56.605807 C 9.1086700,57.430762 21.895471,55.481388 33.824557,53.137057 C 34.103059,53.754247 34.400389,54.228076 34.762057,54.449557 C 37.750644,56.199352 52.789415,52.154833 55.324557,50.074557 C 57.181193,48.569235 57.317289,40.484236 56.105807,36.043307 C 56.815095,35.846605 58.224499,35.657444 58.449557,35.480807 C 60.423446,33.856824 60.666456,14.764529 57.855807,13.230807 C 55.550948,12.080516 38.313042,10.524758 28.793307,10.605807 z "
     id="path972" />
  <path
     style="fill:url(#linearGradient864);fill-rule:evenodd;stroke:#251832;stroke-width:1.8750000;stroke-opacity:0.99548966;fill-opacity:1.0000000;stroke-dasharray:none;"
     d="M 2.1879861,9.5532705 C -0.10687570,11.429246 2.7279415,50.452796 5.2085584,51.962105 C 7.5579275,53.471414 49.137656,45.769312 51.589849,43.152459 C 53.517051,41.060597 52.589317,13.489462 50.502443,11.980153 C 47.759331,10.077100 4.3516002,7.9397900 2.1879861,9.5532705 z "
     id="path901"
     sodipodi:nodetypes="czzzz" />
  <path
     style="fill:url(#linearGradient863);fill-rule:evenodd;stroke:#251832;stroke-width:1.8750000;stroke-opacity:0.99548966;fill-opacity:1.0000000;stroke-dasharray:none;"
     d="M 30.839585,30.224410 C 29.091929,32.173438 29.311301,48.047925 32.168638,49.797719 C 35.157223,51.547513 50.173387,47.528370 52.708529,45.448094 C 55.112424,43.499066 54.699256,30.403507 52.104414,28.653713 C 49.640820,27.035166 32.324745,28.406630 30.839585,30.224410 z "
     id="path965"
     sodipodi:nodetypes="czzzz" />
  <path
     style="font-size:12.000000;fill-opacity:1.0000000;stroke-width:3.0000000pt;font-family:Bitstream Vera Sans;fill:#261933;stroke:none;stroke-opacity:0.99548966;"
     d="M 40.066368,39.793869 C 40.330729,39.239968 40.679177,38.808496 41.111707,38.499458 C 41.549014,38.184577 42.080111,37.983010 42.705000,37.894752 C 43.741398,37.748373 44.606747,38.044569 45.301043,38.783338 C 46.000417,39.521391 46.390102,40.566632 46.470094,41.919058 C 46.550086,43.271485 46.289480,44.408572 45.688277,45.330315 C 45.092152,46.251344 44.275892,46.785045 43.239492,46.931424 C 42.614602,47.019682 42.068810,46.972793 41.602112,46.790758 C 41.140192,46.602884 40.746749,46.273613 40.421788,45.802948 L 40.498142,47.093902 L 39.088334,47.293019 L 38.381131,35.336332 L 39.790941,35.137215 L 40.066368,39.793869 z M 45.014562,42.124635 C 44.953053,41.084700 44.691501,40.300308 44.229902,39.771454 C 43.773083,39.236764 43.173804,39.021798 42.432066,39.126560 C 41.690330,39.231321 41.123659,39.610962 40.732055,40.265484 C 40.345226,40.914166 40.182569,41.758474 40.244078,42.798408 C 40.305586,43.838343 40.564750,44.625656 41.021571,45.160349 C 41.483170,45.689201 42.084835,45.901245 42.826573,45.796484 C 43.568309,45.691722 44.132592,45.315002 44.519419,44.666320 C 44.911024,44.011798 45.076072,43.164570 45.014562,42.124635 z "
     id="path964" />
  <path
     style="fill:url(#linearGradient860);fill-rule:evenodd;stroke:#251832;stroke-width:1.8750000;stroke-opacity:0.99548966;fill-opacity:1.0000000;stroke-dasharray:none;"
     d="M 22.140337,34.090743 C 19.592183,32.557021 17.718715,8.4191770 20.086348,6.6639460 C 22.585228,4.7774673 52.172665,7.0633901 55.245810,8.5971123 C 58.056460,10.130835 57.823813,29.204541 55.849924,30.828524 C 53.613539,32.583755 24.819739,35.624465 22.140337,34.090743 z "
     id="path902"
     sodipodi:nodetypes="czzzz" />
  <path
     style="fill:url(#linearGradient861);fill-rule:evenodd;stroke:none;stroke-opacity:0.99548966;stroke-width:0.12500000;stroke-linejoin:miter;stroke-linecap:butt;stroke-dasharray:none;fill-opacity:1.0000000;"
     d="M 22.868349,32.462972 C 20.855883,27.169313 19.849120,11.728636 20.740949,7.5674219 C 23.818340,6.7841163 42.861759,7.5696465 54.236565,9.6258615 C 35.774379,8.1821361 24.338225,8.5933954 23.393341,9.6258614 C 22.220055,11.039148 21.774618,23.319378 22.868349,32.462972 z "
     id="path968"
     sodipodi:nodetypes="cccsc" />
  <path
     style="font-size:12.000000;fill-opacity:1.0000000;stroke-width:3.0000000pt;font-family:Bitstream Vera Sans;fill:#261933;stroke:none;stroke-opacity:0.99548966;"
     d="M 37.009620,9.3350909 C 35.140586,9.4333168 33.250010,9.8853037 31.521719,10.525862 C 31.579601,11.419468 31.670929,12.324433 31.728810,13.218039 C 31.940793,13.714563 33.073380,12.580195 33.696171,12.596768 C 36.008640,11.902370 38.625188,11.668246 40.892568,12.648540 C 42.615823,13.376694 43.653719,15.215928 43.636519,17.049215 C 41.327797,17.039996 39.001863,16.823122 36.698984,17.049215 C 34.569999,17.264795 32.214939,18.178902 31.366402,20.310892 C 30.555917,22.492620 30.771196,25.861212 32.168412,27.744461 C 33.714264,29.839483 36.518615,30.489049 39.002401,30.229548 C 41.150083,30.132565 43.274192,28.251590 44.257790,26.316519 C 44.321099,27.293915 44.349800,28.785268 44.413109,29.762662 C 45.469508,29.785616 46.566612,29.296380 47.623012,29.319333 C 47.385044,25.645474 47.136162,21.965617 46.898196,18.291759 C 46.866680,17.805596 46.816366,17.323784 46.742878,16.842125 C 46.401891,14.178470 44.994172,11.414562 42.445748,10.266999 C 40.715824,9.4916780 38.878654,9.2368649 37.009620,9.3350909 z M 40.633705,19.430757 C 41.663374,19.453131 42.710395,19.511929 43.740064,19.534302 C 43.931350,20.004249 43.867995,20.775414 43.895382,21.346345 C 43.880930,23.568470 42.582578,26.682436 40.348490,27.382052 C 38.301850,28.012057 35.599473,27.607758 34.498181,25.570010 C 33.793604,24.147146 33.786146,21.325393 35.197577,20.310892 C 36.822732,19.347538 38.810767,19.450727 40.633705,19.430757 z "
     id="path864"
     sodipodi:nodetypes="cccccccccccccccccccccccc" />
  <path
     style="fill:url(#linearGradient862);fill-rule:evenodd;stroke:none;stroke-opacity:0.99548966;stroke-width:0.12500000;stroke-linejoin:miter;stroke-linecap:butt;stroke-dasharray:none;fill-opacity:1.0000000;"
     d="M 3.5380588,32.271666 L 29.702319,19.332786 L 54.618730,11.921344 L 32.183082,22.662580 L 3.5380588,32.271666 z "
     id="path966" />
</svg>
