<?xml version="1.0" encoding="UTF-8" standalone="no"?>
<!DOCTYPE svg PUBLIC "-//W3C//DTD SVG 20010904//EN"
"http://www.w3.org/TR/2001/REC-SVG-20010904/DTD/svg10.dtd">
<!-- Created with Inkscape (http://www.inkscape.org/) -->
<svg
   width="48pt"
   height="48pt"
   id="svg2736"
   sodipodi:version="0.32"
   inkscape:version="0.40"
   sodipodi:docbase="/home/pinuz/lila-inkscape/icon theme"
   sodipodi:docname="dc_gui2.svg"
   xmlns="http://www.w3.org/2000/svg"
   xmlns:cc="http://web.resource.org/cc/"
   xmlns:inkscape="http://www.inkscape.org/namespaces/inkscape"
   xmlns:sodipodi="http://sodipodi.sourceforge.net/DTD/sodipodi-0.dtd"
   xmlns:rdf="http://www.w3.org/1999/02/22-rdf-syntax-ns#"
   xmlns:dc="http://purl.org/dc/elements/1.1/"
   xmlns:xlink="http://www.w3.org/1999/xlink">
  <defs
     id="defs3">
    <linearGradient
       id="linearGradient3479">
      <stop
         offset="0.0000000"
         style="stop-color:#ffffff;stop-opacity:1.0000000;"
         id="stop3481" />
      <stop
         offset="1.0000000"
         style="stop-color:#ffffff;stop-opacity:0.0000000;"
         id="stop3480" />
    </linearGradient>
    <linearGradient
       id="linearGradient3455">
      <stop
         offset="0.0000000"
         style="stop-color:#ffffff;stop-opacity:1.0000000;"
         id="stop3457" />
      <stop
         offset="1.0000000"
         style="stop-color:#d9cce6;stop-opacity:1.0000000;"
         id="stop3456" />
    </linearGradient>
    <linearGradient
       id="linearGradient3408">
      <stop
         offset="0.0000000"
         style="stop-color:#d9cce6;stop-opacity:1.0000000;"
         id="stop3410" />
      <stop
         offset="1.0000000"
         style="stop-color:#73667f;stop-opacity:1.0000000;"
         id="stop3409" />
    </linearGradient>
    <linearGradient
       inkscape:collect="always"
       xlink:href="#linearGradient3392"
       id="linearGradient3398"
       gradientUnits="userSpaceOnUse"
       gradientTransform="matrix(1.283481,0.000000,0.000000,1.050593,-5.401330,-5.419502)"
       x1="9.9828625"
       y1="11.063726"
       x2="38.205387"
       y2="46.586163" />
    <linearGradient
       inkscape:collect="always"
       xlink:href="#linearGradient3397"
       id="linearGradient3399"
       gradientUnits="userSpaceOnUse"
       gradientTransform="matrix(1.304875,0.000000,0.000000,1.033369,-5.401330,-5.419502)"
       x1="13.032163"
       y1="16.689814"
       x2="36.678867"
       y2="38.833889" />
    <linearGradient
       inkscape:collect="always"
       xlink:href="#linearGradient3392"
       id="linearGradient3401"
       gradientUnits="userSpaceOnUse"
       gradientTransform="matrix(1.203424,0.000000,0.000000,0.988781,-2.458488,-4.156636)"
       x1="20.508265"
       y1="28.434414"
       x2="37.985611"
       y2="28.434414" />
    <linearGradient
       inkscape:collect="always"
       xlink:href="#linearGradient3479"
       id="linearGradient3402"
       gradientUnits="userSpaceOnUse"
       gradientTransform="matrix(0.190063,0.655679,-0.392695,3.270847e-2,29.53034,4.736413)"
       x1="-5.3388405"
       y1="37.674553"
       x2="33.237923"
       y2="1.1146827" />
    <linearGradient
       inkscape:collect="always"
       xlink:href="#linearGradient3479"
       id="linearGradient3403"
       gradientUnits="userSpaceOnUse"
       gradientTransform="matrix(-1.116253,1.372861,-0.449085,-0.343532,11.60348,-0.457337)"
       x1="-9.5678844"
       y1="-65.239021"
       x2="-10.693037"
       y2="-75.650177" />
    <linearGradient
       inkscape:collect="always"
       xlink:href="#linearGradient3408"
       id="linearGradient3407"
       gradientTransform="matrix(0.929300,0.000000,0.000000,1.233297,-2.203268,-6.128407)"
       x1="35.254711"
       y1="22.228657"
       x2="64.429703"
       y2="22.228657"
       gradientUnits="userSpaceOnUse" />
    <linearGradient
       inkscape:collect="always"
       xlink:href="#linearGradient3408"
       id="linearGradient3415"
       gradientTransform="matrix(0.971408,0.000000,0.000000,1.179837,-2.203268,-6.128407)"
       x1="2.9273806"
       y1="23.677034"
       x2="32.934753"
       y2="23.677034"
       gradientUnits="userSpaceOnUse" />
    <defs
       id="defs3368">
      <linearGradient
         id="linearGradient3414"
         x1="0.0000000"
         y1="0.50000000"
         x2="1.0000000"
         y2="0.50000000"
         gradientUnits="objectBoundingBox"
         spreadMethod="pad"
         xlink:href="#linearGradient3479" />
      <linearGradient
         id="linearGradient3397"
         x1="0.0000000"
         y1="0.50000000"
         x2="1.0000000"
         y2="0.50000000"
         gradientUnits="objectBoundingBox"
         spreadMethod="pad"
         xlink:href="#linearGradient3455" />
      <linearGradient
         id="linearGradient3392"
         x1="0.0000000"
         y1="0.50000000"
         x2="1.0000000"
         y2="0.50000000"
         gradientUnits="objectBoundingBox"
         spreadMethod="pad"
         xlink:href="#linearGradient3408" />
      <linearGradient
         inkscape:collect="always"
         xlink:href="#linearGradient3392"
         id="linearGradient3395"
         gradientTransform="scale(1.105293,0.904737)"
         x1="9.9828625"
         y1="11.063726"
         x2="38.205387"
         y2="46.586163"
         gradientUnits="userSpaceOnUse" />
    </defs>
    <sodipodi:namedview
       id="namedview3384"
       pagecolor="#ffffff"
       bordercolor="#666666"
       borderopacity="1.0"
       inkscape:pageopacity="0.0"
       inkscape:pageshadow="2"
       inkscape:zoom="4.1538462"
       inkscape:cx="41.499999"
       inkscape:cy="14.500001"
       inkscape:current-layer="svg2735"
       showgrid="false"
       inkscape:grid-bbox="false"
       gridspacingy="1.0000000pt"
       gridspacingx="1.0000000pt"
       gridoriginy="0.0000000pt"
       gridoriginx="0.0000000pt"
       inkscape:window-width="640"
       inkscape:window-height="542"
       inkscape:window-x="179"
       inkscape:window-y="334" />
    <metadata
       id="metadata3385">
      <rdf:RDF
         id="RDF3386">
        <cc:Work
           rdf:about=""
           id="Work3387">
          <dc:format
             id="format3388">image/svg+xml</dc:format>
          <dc:type
             id="type3390"
             rdf:resource="http://purl.org/dc/dcmitype/StillImage" />
        </cc:Work>
      </rdf:RDF>
    </metadata>
    <linearGradient
       inkscape:collect="always"
       xlink:href="#linearGradient3455"
       id="linearGradient3461"
       gradientTransform="matrix(1.793291,0.000000,0.000000,1.405783,-21.30564,-20.29258)"
       x1="25.454905"
       y1="44.768894"
       x2="34.743847"
       y2="44.768894"
       gradientUnits="userSpaceOnUse" />
    <linearGradient
       inkscape:collect="always"
       xlink:href="#linearGradient3455"
       id="linearGradient3469"
       gradientTransform="matrix(1.095835,0.000000,0.000000,2.300511,-21.30564,-20.29258)"
       x1="57.956146"
       y1="27.591221"
       x2="63.164192"
       y2="27.591221"
       gradientUnits="userSpaceOnUse" />
    <linearGradient
       inkscape:collect="always"
       xlink:href="#linearGradient3455"
       id="linearGradient3476"
       gradientTransform="matrix(1.573726,0.000000,0.000000,1.601920,-21.30564,-20.29258)"
       x1="40.717903"
       y1="34.298931"
       x2="42.696270"
       y2="34.298931"
       gradientUnits="userSpaceOnUse" />
    <linearGradient
       inkscape:collect="always"
       xlink:href="#linearGradient3455"
       id="linearGradient3478"
       gradientUnits="userSpaceOnUse"
       gradientTransform="matrix(1.396354,0.000000,0.000000,1.805402,-21.30564,-20.29258)"
       x1="20.856201"
       y1="36.250244"
       x2="32.082211"
       y2="36.250244" />
    <linearGradient
       inkscape:collect="always"
       xlink:href="#linearGradient3479"
       id="linearGradient3483"
       gradientUnits="userSpaceOnUse"
       gradientTransform="matrix(0.190063,0.655679,-0.392695,3.270847e-2,62.18530,4.247779)"
       x1="-5.3388405"
       y1="37.674553"
       x2="33.237923"
       y2="1.1146827" />
    <linearGradient
       inkscape:collect="always"
       xlink:href="#linearGradient3479"
       id="linearGradient3485"
       gradientUnits="userSpaceOnUse"
       gradientTransform="matrix(0.326406,1.739031,-0.552371,0.120739,18.57116,57.93581)"
       x1="-9.5678844"
       y1="-65.239021"
       x2="-10.693037"
       y2="-75.650177" />
    <linearGradient
       inkscape:collect="always"
       xlink:href="#linearGradient3408"
       id="linearGradient3450"
       gradientUnits="userSpaceOnUse"
       gradientTransform="matrix(0.971408,0.000000,0.000000,1.179837,-2.203268,-6.128407)"
       x1="2.9273806"
       y1="23.677034"
       x2="32.934753"
       y2="23.677034" />
    <linearGradient
       inkscape:collect="always"
       xlink:href="#linearGradient3408"
       id="linearGradient3451"
       gradientUnits="userSpaceOnUse"
       gradientTransform="matrix(0.929300,0.000000,0.000000,1.233297,-2.203268,-6.128407)"
       x1="35.254711"
       y1="22.228657"
       x2="64.429703"
       y2="22.228657" />
    <linearGradient
       inkscape:collect="always"
       xlink:href="#linearGradient3455"
       id="linearGradient3454"
       gradientUnits="userSpaceOnUse"
       gradientTransform="matrix(1.396354,0.000000,0.000000,1.805402,-21.30564,-20.29258)"
       x1="20.856201"
       y1="36.250244"
       x2="32.082211"
       y2="36.250244" />
    <linearGradient
       inkscape:collect="always"
       xlink:href="#linearGradient3455"
       id="linearGradient3456"
       gradientUnits="userSpaceOnUse"
       gradientTransform="matrix(1.793291,0.000000,0.000000,1.405783,-21.30564,-20.29258)"
       x1="25.454905"
       y1="44.768894"
       x2="34.743847"
       y2="44.768894" />
    <linearGradient
       inkscape:collect="always"
       xlink:href="#linearGradient3455"
       id="linearGradient3457"
       gradientUnits="userSpaceOnUse"
       gradientTransform="matrix(1.095835,0.000000,0.000000,2.300511,-21.30564,-20.29258)"
       x1="57.956146"
       y1="27.591221"
       x2="63.164192"
       y2="27.591221" />
    <linearGradient
       inkscape:collect="always"
       xlink:href="#linearGradient3455"
       id="linearGradient3458"
       gradientUnits="userSpaceOnUse"
       gradientTransform="matrix(1.573726,0.000000,0.000000,1.601920,-21.30564,-20.29258)"
       x1="40.717903"
       y1="34.298931"
       x2="42.696270"
       y2="34.298931" />
    <linearGradient
       inkscape:collect="always"
       xlink:href="#linearGradient3479"
       id="linearGradient2820"
       gradientUnits="userSpaceOnUse"
       gradientTransform="matrix(0.373722,-0.571289,0.280598,0.276666,-4.955083,13.04598)"
       x1="-5.3388405"
       y1="37.674553"
       x2="33.237923"
       y2="1.1146827" />
    <linearGradient
       inkscape:collect="always"
       xlink:href="#linearGradient3479"
       id="linearGradient2822"
       gradientUnits="userSpaceOnUse"
       gradientTransform="matrix(0.373722,-0.571289,0.280598,0.276666,28.79844,15.28805)"
       x1="-5.3388405"
       y1="37.674553"
       x2="33.237923"
       y2="1.1146827" />
  </defs>
  <sodipodi:namedview
     id="base"
     pagecolor="#ffffff"
     bordercolor="#666666"
     borderopacity="1.0"
     inkscape:pageopacity="0.0"
     inkscape:pageshadow="2"
     inkscape:zoom="1.0000000"
     inkscape:cx="24.000000"
     inkscape:cy="24.000000"
     inkscape:current-layer="g2779"
     showgrid="false"
     inkscape:grid-bbox="false"
     gridspacingy="1.0000000pt"
     gridspacingx="1.0000000pt"
     gridoriginy="0.0000000pt"
     gridoriginx="0.0000000pt"
     inkscape:window-width="1400"
     inkscape:window-height="1002"
     inkscape:window-x="0"
     inkscape:window-y="27"
     showguides="true"
     inkscape:guide-bbox="true" />
  <metadata
     id="metadata4">
    <rdf:RDF
       id="RDF5">
      <cc:Work
         rdf:about=""
         id="Work6">
        <dc:format
           id="format7">image/svg+xml</dc:format>
        <dc:type
           id="type9"
           rdf:resource="http://purl.org/dc/dcmitype/StillImage" />
      </cc:Work>
    </rdf:RDF>
  </metadata>
  <g
     id="layer1"
     inkscape:label="Layer 1"
     inkscape:groupmode="layer" />
  <g
     id="g3391"
     inkscape:label="Layer 1"
     inkscape:groupmode="layer"
     transform="translate(75.00000,0.000000)" />
  <g
     id="g2789"
     transform="translate(2.521847,2.684722)"
     style="opacity:0.29687497;fill:#000000;fill-opacity:1.0000000;stroke:none;stroke-opacity:1.0000000;">
    <path
       style="fill-rule:evenodd;stroke-width:1.7500000;stroke-linecap:butt;stroke-linejoin:round;stroke-miterlimit:4.0000000"
       d="M 10.476201,4.8113981 C 7.6773634,4.7154062 4.5884920,4.8234034 1.3095138,4.9117633 C 1.4210307,15.896176 1.3652722,27.215138 1.4767891,38.199550 C 7.4430749,38.875572 12.977777,39.339494 18.706146,37.865000 C 22.943787,36.415280 24.402950,34.667298 25.898985,32.679465 C 29.411766,27.939998 31.106642,16.545806 25.397159,10.264573 C 23.404604,8.1262820 21.215276,7.0863420 17.869770,5.9154152 C 15.783842,5.2073733 13.275038,4.9073901 10.476201,4.8113981 z M 12.851510,11.970781 C 13.969035,12.023859 14.962683,12.181478 15.795556,12.572972 C 17.131353,13.220409 17.977467,13.799416 18.773056,14.981737 C 21.052746,18.454800 20.376375,24.739528 18.973787,27.360110 C 18.376447,28.459237 17.822118,29.435655 16.130106,30.237245 C 13.842875,31.052533 10.945620,30.804462 9.2383636,30.404521 C 9.1938368,24.330941 9.2159803,18.077814 9.1714535,12.004236 C 10.480689,11.955379 11.733986,11.917704 12.851510,11.970781 z "
       id="path2790"
       sodipodi:nodetypes="cccccccccccccccc" />
    <path
       style="fill-rule:evenodd;stroke-width:1.7500000;stroke-linecap:butt;stroke-linejoin:round;stroke-miterlimit:4.0000000"
       d="M 54.288679,13.417653 C 56.771327,13.279255 57.788820,8.9265030 56.307374,7.1610500 C 52.719619,4.2514707 46.480901,3.1698108 41.957415,4.5772127 C 29.553757,7.9104760 26.439349,29.362331 40.480361,37.754574 C 45.025061,40.119237 48.216199,38.722136 51.324832,38.032275 C 53.645661,37.077328 55.659884,35.969079 56.677642,34.017668 C 57.868929,30.163815 55.610913,27.996288 52.663035,28.664858 C 51.708088,29.940249 50.599839,30.679081 48.648427,31.341263 C 46.787506,31.801170 44.401552,31.509016 43.203050,30.461877 C 37.227795,25.239741 38.515562,15.632021 44.633820,12.606428 C 47.928757,10.730603 51.070393,13.147244 54.288679,13.417653 z "
       id="path2791"
       sodipodi:nodetypes="ccccccccccc" />
    <path
       style="fill-rule:evenodd;stroke-width:0.25000000pt;stroke-linecap:butt;stroke-linejoin:miter"
       d="M 27.315715,18.180068 C 27.435770,17.419200 26.848323,11.771881 20.143340,8.3020334 C 18.710817,7.5606977 18.046396,8.5795140 18.503750,8.8071404 C 27.054445,13.062857 27.144357,19.266079 27.315715,18.180068 z "
       id="path2792"
       sodipodi:nodetypes="csss" />
    <path
       style="fill-rule:evenodd;stroke-width:0.25000000pt;stroke-linecap:butt;stroke-linejoin:miter"
       d="M 53.834924,11.940182 C 54.555369,11.839081 55.614325,9.6801758 55.461208,8.5845241 C 55.366251,7.9050420 54.508850,8.1904807 54.497947,8.4051921 C 54.342243,11.471498 53.249986,12.022266 53.834924,11.940182 z "
       id="path2793"
       sodipodi:nodetypes="csss" />
    <path
       style="fill-rule:evenodd;stroke-width:1.7500005;stroke-linecap:butt;stroke-linejoin:round;stroke-miterlimit:4.0000000"
       d="M 16.800583,35.278971 C 14.254532,35.214906 11.545706,35.656322 10.399929,36.420173 C 8.7220861,37.538735 9.0541293,43.668664 10.449548,45.202463 C 11.713026,46.591239 16.876191,44.068350 18.388343,45.202463 C 19.522456,46.053048 19.628780,50.412298 18.388343,51.156560 C 16.320949,52.396996 11.221374,50.605256 8.4648472,51.156560 C 7.9135422,51.266820 7.9504356,52.863215 8.4648472,53.141259 C 11.750742,54.917320 21.581029,56.329877 22.357742,53.141259 C 23.103635,50.079138 23.909429,40.629803 22.357742,37.263669 C 21.741642,35.927144 19.346636,35.343035 16.800583,35.278971 z M 16.403644,37.859080 C 17.427572,37.852071 18.451478,38.034421 18.934135,38.404870 C 19.680370,38.977627 19.728014,41.845016 18.934135,42.374268 C 17.743315,43.168147 14.001217,43.158053 12.980038,42.374268 C 12.289670,41.844393 12.901761,39.035925 13.773917,38.454489 C 14.330191,38.083640 15.379715,37.866086 16.403644,37.859080 z "
       id="path2794" />
    <path
       style="fill-rule:evenodd;stroke-width:1.7500005;stroke-linecap:butt;stroke-linejoin:round;stroke-miterlimit:4.0000000"
       d="M 25.576590,36.808294 C 24.635345,39.161408 23.815005,45.908798 25.865532,47.447037 C 28.542283,49.455047 37.057029,49.376605 39.758425,47.447037 C 41.687993,46.068773 40.309728,40.280068 39.758425,37.523542 C 39.648164,36.972238 37.939117,37.027367 37.773726,37.523542 C 37.277552,39.012066 38.907840,42.627054 37.773726,43.477638 C 36.261575,44.611751 31.347081,44.611751 29.834930,43.477638 C 28.700816,42.627054 30.657697,38.812145 29.834930,37.523542 C 29.238249,36.589031 25.958477,35.853578 25.576590,36.808294 z "
       id="path2795"
       sodipodi:nodetypes="cssssssss" />
    <path
       style="fill-rule:evenodd;stroke-width:1.7500005;stroke-linecap:butt;stroke-linejoin:round;stroke-miterlimit:4.0000000"
       d="M 42.716910,37.804587 C 42.198987,40.394206 42.419095,45.701007 43.588472,48.215967 C 44.032749,49.171468 47.371486,49.147877 47.557871,48.215967 C 48.033053,45.840047 46.827637,40.990434 45.573172,38.292474 C 45.213984,37.519974 42.860552,37.086373 42.716910,37.804587 z "
       id="path2796"
       sodipodi:nodetypes="cssss" />
    <path
       style="fill-rule:evenodd;stroke-width:1.7500005;stroke-linecap:butt;stroke-linejoin:round;stroke-miterlimit:4.0000000"
       d="M 43.211037,33.477509 C 42.874924,33.813625 43.014435,35.331832 43.400508,35.732203 C 43.739157,36.083397 45.054426,36.062987 45.385207,35.732203 C 45.715990,35.401422 45.729677,34.104733 45.385207,33.747507 C 45.004953,33.353167 43.536490,33.152058 43.211037,33.477509 z "
       id="path2797"
       sodipodi:nodetypes="cssss" />
    <path
       style="fill-rule:evenodd;stroke-width:0.25000000pt;stroke-linecap:butt;stroke-linejoin:miter"
       d="M 55.322433,33.717294 C 55.710826,33.102141 54.747510,30.898898 53.812398,30.307745 C 53.232477,29.941134 52.896264,30.779926 53.053080,30.926993 C 55.292576,33.027261 55.007092,34.216744 55.322433,33.717294 z "
       id="path2798"
       sodipodi:nodetypes="csss" />
  </g>
  <g
     id="g2779"
     transform="translate(4.149519e-2,-0.813529)">
    <path
       style="fill:url(#linearGradient3450);fill-opacity:1.0000000;fill-rule:evenodd;stroke:#261933;stroke-width:1.7500000;stroke-linecap:butt;stroke-linejoin:round;stroke-miterlimit:4.0000000;stroke-opacity:1.0000000"
       d="M 10.476201,4.8113981 C 7.6773634,4.7154062 4.5884920,4.8234034 1.3095138,4.9117633 C 1.4210307,15.896176 1.3652722,27.215138 1.4767891,38.199550 C 7.4430749,38.875572 12.977777,39.339494 18.706146,37.865000 C 22.943787,36.415280 24.402950,34.667298 25.898985,32.679465 C 29.411766,27.939998 31.106642,16.545806 25.397159,10.264573 C 23.404604,8.1262820 21.215276,7.0863420 17.869770,5.9154152 C 15.783842,5.2073733 13.275038,4.9073901 10.476201,4.8113981 z M 12.851510,11.970781 C 13.969035,12.023859 14.962683,12.181478 15.795556,12.572972 C 17.131353,13.220409 17.977467,13.799416 18.773056,14.981737 C 21.052746,18.454800 20.376375,24.739528 18.973787,27.360110 C 18.376447,28.459237 17.822118,29.435655 16.130106,30.237245 C 13.842875,31.052533 10.945620,30.804462 9.2383636,30.404521 C 9.1938368,24.330941 9.2159803,18.077814 9.1714535,12.004236 C 10.480689,11.955379 11.733986,11.917704 12.851510,11.970781 z "
       id="path2741"
       sodipodi:nodetypes="cccccccccccccccc" />
    <path
       style="fill:url(#linearGradient3451);fill-opacity:1.0000000;fill-rule:evenodd;stroke:#261933;stroke-width:1.7500000;stroke-linecap:butt;stroke-linejoin:round;stroke-miterlimit:4.0000000;stroke-opacity:1.0000000"
       d="M 54.288679,13.417653 C 56.771327,13.279255 57.788820,8.9265030 56.307374,7.1610500 C 52.719619,4.2514707 46.480901,3.1698108 41.957415,4.5772127 C 29.553757,7.9104760 26.439349,29.362331 40.480361,37.754574 C 45.025061,40.119237 48.216199,38.722136 51.324832,38.032275 C 53.645661,37.077328 55.659884,35.969079 56.677642,34.017668 C 57.868929,30.163815 55.610913,27.996288 52.663035,28.664858 C 51.708088,29.940249 50.599839,30.679081 48.648427,31.341263 C 46.787506,31.801170 44.401552,31.509016 43.203050,30.461877 C 37.227795,25.239741 38.515562,15.632021 44.633820,12.606428 C 47.928757,10.730603 51.070393,13.147244 54.288679,13.417653 z "
       id="path3366"
       sodipodi:nodetypes="ccccccccccc" />
    <path
       style="fill:url(#linearGradient2820);fill-opacity:1.0000000;fill-rule:evenodd;stroke:none;stroke-width:0.25000000pt;stroke-linecap:butt;stroke-linejoin:miter;stroke-opacity:1.0000000"
       d="M 9.1802595,6.4733253 C 10.135445,6.1687794 3.8466182,5.8672331 3.4256545,6.4407675 C 3.1645320,6.7965291 2.3156054,20.445069 3.1827995,24.118914 C 3.5533523,25.688752 2.7164790,8.5342006 9.1802595,6.4733253 z "
       id="path3413"
       sodipodi:nodetypes="csss" />
    <path
       style="fill:url(#linearGradient3454);fill-opacity:1.0000000;fill-rule:evenodd;stroke:#261933;stroke-width:1.7500005;stroke-linecap:butt;stroke-linejoin:round;stroke-miterlimit:4.0000000;stroke-opacity:1.0000000"
       d="M 16.800583,35.278971 C 14.254532,35.214906 11.545706,35.656322 10.399929,36.420173 C 8.7220861,37.538735 9.0541293,43.668664 10.449548,45.202463 C 11.713026,46.591239 16.876191,44.068350 18.388343,45.202463 C 19.522456,46.053048 19.628780,50.412298 18.388343,51.156560 C 16.320949,52.396996 11.221374,50.605256 8.4648472,51.156560 C 7.9135422,51.266820 7.9504356,52.863215 8.4648472,53.141259 C 11.750742,54.917320 21.581029,56.329877 22.357742,53.141259 C 23.103635,50.079138 23.909429,40.629803 22.357742,37.263669 C 21.741642,35.927144 19.346636,35.343035 16.800583,35.278971 z M 16.403644,37.859080 C 17.427572,37.852071 18.451478,38.034421 18.934135,38.404870 C 19.680370,38.977627 19.728014,41.845016 18.934135,42.374268 C 17.743315,43.168147 14.001217,43.158053 12.980038,42.374268 C 12.289670,41.844393 12.901761,39.035925 13.773917,38.454489 C 14.330191,38.083640 15.379715,37.866086 16.403644,37.859080 z "
       id="path3439" />
    <path
       style="fill:url(#linearGradient3456);fill-opacity:1.0000000;fill-rule:evenodd;stroke:#261933;stroke-width:1.7500005;stroke-linecap:butt;stroke-linejoin:round;stroke-miterlimit:4.0000000;stroke-opacity:1.0000000"
       d="M 25.576590,36.808294 C 24.635345,39.161408 23.815005,45.908798 25.865532,47.447037 C 28.542283,49.455047 37.057029,49.376605 39.758425,47.447037 C 41.687993,46.068773 40.309728,40.280068 39.758425,37.523542 C 39.648164,36.972238 37.939117,37.027367 37.773726,37.523542 C 37.277552,39.012066 38.907840,42.627054 37.773726,43.477638 C 36.261575,44.611751 31.347081,44.611751 29.834930,43.477638 C 28.700816,42.627054 30.657697,38.812145 29.834930,37.523542 C 29.238249,36.589031 25.958477,35.853578 25.576590,36.808294 z "
       id="path3441"
       sodipodi:nodetypes="cssssssss" />
    <path
       style="fill:url(#linearGradient3457);fill-opacity:1.0000000;fill-rule:evenodd;stroke:#261933;stroke-width:1.7500005;stroke-linecap:butt;stroke-linejoin:round;stroke-miterlimit:4.0000000;stroke-opacity:1.0000000"
       d="M 42.716910,37.804587 C 42.198987,40.394206 42.419095,45.701007 43.588472,48.215967 C 44.032749,49.171468 47.371486,49.147877 47.557871,48.215967 C 48.033053,45.840047 46.827637,40.990434 45.573172,38.292474 C 45.213984,37.519974 42.860552,37.086373 42.716910,37.804587 z "
       id="path3442"
       sodipodi:nodetypes="cssss" />
    <path
       style="fill:url(#linearGradient3458);fill-opacity:1.0000000;fill-rule:evenodd;stroke:#261933;stroke-width:1.7500005;stroke-linecap:butt;stroke-linejoin:round;stroke-miterlimit:4.0000000;stroke-opacity:1.0000000"
       d="M 43.211037,33.477509 C 42.874924,33.813625 43.014435,35.331832 43.400508,35.732203 C 43.739157,36.083397 45.054426,36.062987 45.385207,35.732203 C 45.715990,35.401422 45.729677,34.104733 45.385207,33.747507 C 45.004953,33.353167 43.536490,33.152058 43.211037,33.477509 z "
       id="path3443"
       sodipodi:nodetypes="cssss" />
    <path
       style="fill:url(#linearGradient2822);fill-opacity:1.0000000;fill-rule:evenodd;stroke:none;stroke-width:0.25000000pt;stroke-linecap:butt;stroke-linejoin:miter;stroke-opacity:1.0000000"
       d="M 42.014313,7.6115624 C 42.914926,7.1710807 41.386454,6.4488253 40.682312,6.5504931 C 38.745782,6.8300998 31.847738,12.965720 32.611519,21.706809 C 32.751924,23.313665 34.206162,11.430461 42.014313,7.6115624 z "
       id="path2821"
       sodipodi:nodetypes="csss" />
  </g>
</svg>
