<?xml version="1.0" encoding="UTF-8" standalone="no"?>
<!DOCTYPE svg PUBLIC "-//W3C//DTD SVG 20010904//EN"
"http://www.w3.org/TR/2001/REC-SVG-20010904/DTD/svg10.dtd">
<!-- Created with Inkscape (http://www.inkscape.org/) -->
<svg
   id="svg1"
   sodipodi:version="0.32"
   inkscape:version="0.37"
   width="48pt"
   height="48pt"
   sodipodi:docbase="/home/stefan/software/Lila-themes"
   sodipodi:docname="edtyg.svg"
   xmlns="http://www.w3.org/2000/svg"
   xmlns:inkscape="http://www.inkscape.org/namespaces/inkscape"
   xmlns:sodipodi="http://sodipodi.sourceforge.net/DTD/sodipodi-0.dtd"
   xmlns:xlink="http://www.w3.org/1999/xlink">
  <defs
     id="defs3">
    <linearGradient
       id="linearGradient652">
      <stop
         style="stop-color:#ffffff;stop-opacity:0;"
         offset="0.00000000"
         id="stop653" />
      <stop
         style="stop-color:#000000;stop-opacity:1;"
         offset="1.00000000"
         id="stop654" />
    </linearGradient>
    <linearGradient
       id="linearGradient916">
      <stop
         style="stop-color:#cccccc;stop-opacity:1;"
         offset="0.00000000"
         id="stop917" />
      <stop
         style="stop-color:#7f7f7f;stop-opacity:1;"
         offset="1.00000000"
         id="stop918" />
    </linearGradient>
    <linearGradient
       id="linearGradient866">
      <stop
         style="stop-color:#ffffff;stop-opacity:1;"
         offset="0.00000000"
         id="stop867" />
      <stop
         style="stop-color:#d9d1e1;stop-opacity:1;"
         offset="1.00000000"
         id="stop868" />
    </linearGradient>
    <linearGradient
       id="linearGradient584">
      <stop
         style="stop-color:#ffffff;stop-opacity:1;"
         offset="0.00000000"
         id="stop585" />
      <stop
         style="stop-color:#ffffff;stop-opacity:0;"
         offset="1.00000000"
         id="stop586" />
    </linearGradient>
    <linearGradient
       id="linearGradient578">
      <stop
         style="stop-color:#d9cce6;stop-opacity:1;"
         offset="0.00000000"
         id="stop579" />
      <stop
         style="stop-color:#73667f;stop-opacity:1;"
         offset="1.00000000"
         id="stop580" />
    </linearGradient>
    <linearGradient
       xlink:href="#linearGradient584"
       id="linearGradient581"
       x1="0.00649351"
       y1="-0.00000000"
       x2="0.96753246"
       y2="0.97674417" />
    <linearGradient
       xlink:href="#linearGradient584"
       id="linearGradient583"
       x1="-0.03076923"
       y1="0.02325581"
       x2="0.97692305"
       y2="1.03100777" />
    <linearGradient
       xlink:href="#linearGradient652"
       id="linearGradient860" />
    <linearGradient
       xlink:href="#linearGradient578"
       id="linearGradient861"
       x1="0.01562500"
       y1="0.01550388"
       x2="0.98437500"
       y2="0.97674417" />
    <linearGradient
       xlink:href="#linearGradient866"
       id="linearGradient862"
       x1="0.00617284"
       y1="0.01550388"
       x2="1.00000000"
       y2="0.96899223" />
    <linearGradient
       xlink:href="#linearGradient916"
       id="linearGradient869"
       x1="0.00641026"
       y1="0.01550388"
       x2="0.97435898"
       y2="0.95348835" />
    <linearGradient
       xlink:href="#linearGradient652"
       id="linearGradient915"
       x1="-0.02352941"
       y1="0.00826446"
       x2="1.02352941"
       y2="0.98760331" />
    <linearGradient
       xlink:href="#linearGradient652"
       id="linearGradient655"
       x1="0.01369863"
       y1="0.00826446"
       x2="0.94520545"
       y2="0.99586779" />
  </defs>
  <sodipodi:namedview
     id="base"
     pagecolor="#ffffff"
     bordercolor="#666666"
     borderopacity="1.0"
     inkscape:pageopacity="0.0"
     inkscape:pageshadow="2"
     inkscape:zoom="8.00000002"
     inkscape:cx="25.7790040"
     inkscape:cy="24.5089378"
     inkscape:window-width="705"
     inkscape:window-height="544"
     inkscape:window-x="547"
     inkscape:window-y="438" />
  <path
     d="M 8.3905812 44.279826 C 8.7160968 44.731121 11.464006 50.497178 13.044688 51.439704 C 14.697247 52.471793 38.868872 58.722625 40.969048 58.781504 C 43.08313 58.838577 48.098449 56.481176 48.527849 56.248362 C 50.16482 55.224253 59.745314 14.99643 58.601267 13.284944 C 58.378175 12.93538 55.707204 11.039605 51.723561 10.358235 C 47.739918 9.676864 26.148642 6.8549456 22.118059 6.495203 C 18.087476 6.1354604 16.009008 6.6003803 15.692037 6.8940725 C 14.370823 8.2675722 7.3079461 42.580144 8.3905812 44.279826 z "
     style="font-size:12;fill:#000000;fill-rule:evenodd;stroke:none;stroke-width:1.875;stroke-dasharray:none;fill-opacity:1;opacity:0.300000;"
     id="path657"
     sodipodi:nodetypes="cssccsscc" />
  <path
     d="M 5.8905812 40.061076 C 6.2160968 40.512371 8.9640057 46.278428 10.544688 47.220954 C 12.197247 48.253043 36.368872 54.503875 38.469048 54.562754 C 40.58313 54.619827 45.598449 52.262426 46.027849 52.029612 C 47.66482 51.005503 57.245314 10.77768 56.101267 9.0661941 C 55.878175 8.7166301 53.207204 6.8208554 49.223561 6.1394847 C 45.239918 5.458114 23.648642 2.6361956 19.618059 2.276453 C 15.587476 1.9167104 13.509008 2.3816303 13.192037 2.6753225 C 11.870823 4.0488222 4.8079461 38.361394 5.8905812 40.061076 z "
     style="font-size:12;fill:url(#linearGradient861);fill-rule:evenodd;stroke:#261933;stroke-width:1.875;stroke-dasharray:none;"
     id="path1289"
     sodipodi:nodetypes="cssccsscc" />
  <path
     d="M 19.463853 2.8947939 C 17.648344 9.2969353 14.727981 22.083244 13.915713 28.91538 C 22.945515 31.447565 33.408671 33.69308 42.581914 35.365254 C 44.588502 27.86429 47.413273 14.409048 48.703289 6.7647488 C 39.625638 5.1880827 28.541399 3.3247883 19.463853 2.8947939 z "
     style="font-size:12;fill:url(#linearGradient862);fill-rule:evenodd;stroke:#261933;stroke-width:1.25;stroke-dasharray:none;"
     id="path1295"
     sodipodi:nodetypes="ccccc" />
  <path
     style="fill:#ffffff;fill-rule:evenodd;stroke:none;stroke-opacity:1;stroke-width:1pt;stroke-linejoin:miter;stroke-linecap:butt;fill-opacity:0.3;"
     d="M 13.833948 3.3747117 C 15.533789 3.1049127 16.519804 3.0011293 18.738035 3.1792801 C 14.850592 17.16864 14.477048 23.080884 10.474141 45.899313 C 9.1441119 44.231384 7.9901515 42.077376 6.7429865 39.636048 C 6.2473836 37.945489 10.172537 16.251921 13.833948 3.3747117 z "
     id="path650"
     sodipodi:nodetypes="ccccc" />
  <path
     d="M 11.528719 47.325795 C 12.19633 43.230373 11.913726 44.772823 12.631676 40.606021 C 19.581946 41.959061 27.375085 44.321181 34.329985 46.139484 C 33.41209 49.979109 33.704149 48.705062 32.609464 52.852074 C 25.429451 51.396604 18.596177 49.309307 11.528719 47.325795 z "
     style="font-size:12;fill:url(#linearGradient869);fill-rule:evenodd;stroke:#261933;stroke-width:1.875;stroke-dasharray:none;stroke-opacity:1;"
     id="path1306"
     sodipodi:nodetypes="ccccc" />
  <path
     d="M 7.6089682 39.178935 C 7.2007802 38.132905 12.269829 6.323159 14.600606 4.345123 C 16.924744 2.351045 47.018364 7.553499 47.414116 8.567596 C 47.782782 9.512344 25.235237 3.945386 17.32387 9.648324 C 9.6598616 15.172948 7.9651982 40.091749 7.6089682 39.178935 z "
     style="font-size:12;opacity:0.7;fill:url(#linearGradient581);fill-rule:evenodd;stroke:none;stroke-width:1pt;"
     id="path1310"
     sodipodi:nodetypes="ccccc" />
  <path
     d="M 13.34752 46.615999 C 13.268301 46.532815 13.684675 42.455278 14.173685 42.385546 C 14.89903 42.263394 20.646666 43.859966 20.725411 43.942663 C 20.798784 44.019722 16.200063 42.827344 15.109107 43.149529 C 14.003317 43.483107 13.420501 46.692618 13.34752 46.615999 z "
     style="font-size:12;opacity:0.7;fill:url(#linearGradient583);fill-rule:evenodd;stroke:none;stroke-width:1pt;"
     id="path1315"
     sodipodi:nodetypes="ccccc" />
  <path
     d="M 21.328475 9.5736994 C 28.526013 10.698881 36.827861 12.408153 43.688139 14.340753 C 44.131002 14.46554 43.698046 15.817951 43.23779 15.746071 C 36.096745 14.629953 27.800482 12.724859 20.884559 10.776555 C 20.497448 10.667474 20.924819 9.5106721 21.328475 9.5736994 z "
     style="font-size:12;opacity:0.25;fill-rule:evenodd;stroke-width:1pt;"
     id="path1379" />
  <path
     d="M 20.517473 13.582025 C 27.71501 14.707101 36.016752 16.416373 42.877134 18.349081 C 43.319893 18.473867 42.887041 19.826277 42.426788 19.754399 C 35.285743 18.638175 26.989373 16.733187 20.073556 14.784882 C 19.686339 14.6758 20.113814 13.518895 20.517473 13.582025 z "
     style="font-size:12;opacity:0.25;fill-rule:evenodd;stroke-width:1pt;"
     id="path1380" />
  <path
     d="M 19.632694 17.804513 C 26.83023 18.929483 35.13208 20.638756 41.992356 22.571463 C 42.43522 22.696248 42.002157 24.048658 41.542114 23.976781 C 34.401069 22.860556 26.104702 20.955569 19.188777 19.007263 C 18.801665 18.898181 19.229141 17.741276 19.632694 17.804513 z "
     style="font-size:12;opacity:0.25;fill-rule:evenodd;stroke-width:1pt;"
     id="path1381" />
  <path
     style="fill:#000000;fill-rule:evenodd;stroke:none;stroke-opacity:1;stroke-width:1pt;stroke-linejoin:miter;stroke-linecap:butt;fill-opacity:0.15;"
     d="M 49.253038 7.0796482 C 51.360014 7.457402 53.494612 8.3047188 55.297753 9.5387348 C 54.411251 20.114111 46.978486 48.0357 45.456692 51.291416 C 43.097837 52.295777 39.606505 53.907809 38.352505 53.558724 C 41.949187 40.303029 46.650724 23.180343 49.253038 7.0796482 z "
     id="path651"
     sodipodi:nodetypes="ccccc" />
  <path
     d="M 18.52784 22.444901 C 25.725376 23.569871 34.027226 25.279144 40.887502 27.211851 C 41.330366 27.336636 40.897303 28.689046 40.43726 28.617169 C 33.296215 27.500944 24.999848 25.595957 18.083923 23.647651 C 17.696811 23.538569 18.124287 22.381664 18.52784 22.444901 z "
     style="font-size:12;opacity:0.25;fill-rule:evenodd;stroke-width:1pt;"
     id="path656" />
</svg>
