<?xml version="1.0" encoding="UTF-8" standalone="no"?>
<!DOCTYPE svg PUBLIC "-//W3C//DTD SVG 20010904//EN"
"http://www.w3.org/TR/2001/REC-SVG-20010904/DTD/svg10.dtd">
<!-- Created with Inkscape (http://www.inkscape.org/) -->
<svg
   id="svg1"
   sodipodi:version="0.32"
   inkscape:version="0.40"
   width="48.000000pt"
   height="48.000000pt"
   sodipodi:docbase="/home/bill/Desktop/lila/finished"
   sodipodi:docname="eclipse.svg"
   xmlns="http://www.w3.org/2000/svg"
   xmlns:cc="http://web.resource.org/cc/"
   xmlns:inkscape="http://www.inkscape.org/namespaces/inkscape"
   xmlns:sodipodi="http://sodipodi.sourceforge.net/DTD/sodipodi-0.dtd"
   xmlns:rdf="http://www.w3.org/1999/02/22-rdf-syntax-ns#"
   xmlns:dc="http://purl.org/dc/elements/1.1/"
   xmlns:xlink="http://www.w3.org/1999/xlink">
  <defs
     id="defs3">
    <linearGradient
       id="linearGradient2828">
      <stop
         style="stop-color:#ffffff;stop-opacity:1.0000000;"
         offset="0.0000000"
         id="stop2829" />
      <stop
         style="stop-color:#ffffff;stop-opacity:0.0000000;"
         offset="1.0000000"
         id="stop2830" />
    </linearGradient>
    <linearGradient
       id="linearGradient1553">
      <stop
         style="stop-color:#ffffff;stop-opacity:1.0000000;"
         offset="0.0000000"
         id="stop1554" />
      <stop
         style="stop-color:#d9cce6;stop-opacity:1.0000000;"
         offset="1.0000000"
         id="stop1555" />
    </linearGradient>
    <linearGradient
       id="linearGradient1548">
      <stop
         style="stop-color:#d9cce6;stop-opacity:1.0000000;"
         offset="0.0000000"
         id="stop1549" />
      <stop
         style="stop-color:#73667f;stop-opacity:1.0000000;"
         offset="1.0000000"
         id="stop1550" />
    </linearGradient>
    <linearGradient
       inkscape:collect="always"
       xlink:href="#linearGradient1548"
       id="linearGradient1090"
       gradientUnits="userSpaceOnUse"
       x1="-14.361255"
       y1="5.6119802"
       x2="35.108850"
       y2="55.946315" />
    <linearGradient
       inkscape:collect="always"
       xlink:href="#linearGradient2828"
       id="linearGradient1091"
       gradientUnits="userSpaceOnUse"
       gradientTransform="scale(1.034302,0.966835)"
       x1="14.967560"
       y1="13.319339"
       x2="48.977926"
       y2="44.887367" />
    <linearGradient
       inkscape:collect="always"
       xlink:href="#linearGradient1553"
       id="linearGradient1092"
       gradientUnits="userSpaceOnUse"
       gradientTransform="scale(1.001550,0.998452)"
       x1="1.7343907"
       y1="1.9628688"
       x2="55.457722"
       y2="57.525275" />
    <linearGradient
       inkscape:collect="always"
       xlink:href="#linearGradient2828"
       id="linearGradient1093"
       gradientUnits="userSpaceOnUse"
       gradientTransform="scale(0.811889,1.231695)"
       x1="11.914438"
       y1="6.0509082"
       x2="44.536857"
       y2="38.100419" />
  </defs>
  <sodipodi:namedview
     id="base"
     pagecolor="#ffffff"
     bordercolor="#666666"
     borderopacity="1.0"
     inkscape:pageopacity="0.0"
     inkscape:pageshadow="2"
     inkscape:zoom="9.5625000"
     inkscape:cx="24.000000"
     inkscape:cy="23.642588"
     inkscape:window-width="897"
     inkscape:window-height="625"
     inkscape:window-x="172"
     inkscape:window-y="30"
     inkscape:current-layer="svg1" />
  <metadata
     id="metadata4">
    <rdf:RDF
       id="RDF5">
      <cc:Work
         rdf:about=""
         id="Work6">
        <dc:format
           id="format7">image/svg+xml</dc:format>
        <dc:type
           id="type9"
           rdf:resource="http://purl.org/dc/dcmitype/StillImage" />
      </cc:Work>
    </rdf:RDF>
  </metadata>
  <path
     style="opacity:0.29999998;fill:#000000;fill-opacity:1.0000000;fill-rule:evenodd;stroke:none;stroke-width:2.0176780;stroke-linecap:round;stroke-linejoin:round;stroke-miterlimit:4.0000000;stroke-opacity:1.0000000;"
     d="M 26.575486,4.4912767 C 23.787362,5.4780836 23.734397,8.3889571 21.401594,9.9966982 C 18.493611,11.643365 17.974809,7.0597544 15.597550,7.2108221 C 12.809330,8.2696505 16.331820,11.793569 13.839754,13.313217 C 11.455468,14.617565 7.9126626,12.767028 5.3492654,13.611704 C 2.5679238,14.484702 7.2063251,16.588385 8.4337008,16.463910 C 10.915504,16.398485 10.014797,18.561996 8.3673689,19.183455 C 6.7932119,20.483969 3.7500013,21.577478 3.5914691,23.096948 C 6.6654227,22.779195 8.7809034,21.183215 11.849795,20.841715 C 11.281354,23.327008 9.7403572,25.503232 9.3955139,28.071726 C 6.9420629,38.480874 12.295713,50.029041 21.666922,55.101353 C 27.095604,58.142396 35.867009,57.792007 36.724272,57.754568 C 47.467619,57.285374 59.442962,46.940297 59.442961,34.207285 C 59.442961,31.000731 58.742990,27.942706 57.585666,25.153189 C 57.529811,25.018560 55.511337,20.102799 54.169572,18.387491 C 48.789735,10.891135 36.893467,7.1930020 27.769460,8.9354122 C 26.551914,8.7902442 27.337260,5.8412177 26.575486,4.4912767 z "
     id="path5324"
     sodipodi:nodetypes="cccccccccccsccccc"
     transform="matrix(1.010000,0.000000,0.000000,1.010000,-4.062835e-2,0.813687)" />
  <path
     sodipodi:type="arc"
     style="fill:url(#linearGradient1090);fill-opacity:1.0000000;fill-rule:evenodd;stroke:#261933;stroke-width:1.8823184;stroke-linecap:round;stroke-linejoin:round;stroke-miterlimit:4.0000000;stroke-opacity:1.0000000;"
     id="path1540"
     sodipodi:cx="10.944303"
     sodipodi:cy="29.833014"
     sodipodi:rx="23.993279"
     sodipodi:ry="23.993279"
     d="M 34.937581 29.833014 A 23.993279 23.993279 0 1 1  -13.048976,29.833014 A 23.993279 23.993279 0 1 1  34.937581 29.833014 z"
     transform="matrix(0.996124,0.000000,0.000000,0.996100,22.52674,2.047575)" />
  <path
     style="fill:url(#linearGradient1091);fill-opacity:1.0000000;fill-rule:evenodd;stroke:none;stroke-width:1.0000000pt;stroke-linecap:butt;stroke-linejoin:miter;stroke-opacity:1.0000000;"
     d="M 18.692810,43.398693 C 11.416122,33.856209 16.339869,19.368192 21.437909,15.294118 C 26.535948,11.220044 38.736383,7.6252719 49.411764,18.169934 C 40.566449,12.244009 30.065359,14.618735 24.967320,18.692810 C 19.869281,22.766885 15.468410,32.461873 18.692810,43.398693 z "
     id="path4080"
     sodipodi:nodetypes="czczc"
     transform="matrix(1.071924,0.000000,0.000000,1.071899,-2.154232,-0.355987)" />
  <path
     style="fill:url(#linearGradient1092);fill-opacity:1.0000000;fill-rule:evenodd;stroke:#261933;stroke-width:1.9193950;stroke-linecap:round;stroke-linejoin:round;stroke-miterlimit:4.0000000;stroke-opacity:1.0000000;"
     d="M 25.624592,0.84375000 C 22.741946,1.8640355 22.716775,4.8652748 20.304886,6.5275604 C 17.298317,8.2300931 16.732980,3.4991762 14.275127,3.6553684 C 11.392382,4.7501192 15.033945,8.4021781 12.457392,9.9733826 C 9.9922763,11.321983 6.3588610,9.4094346 3.7085603,10.282767 C 0.83292733,11.185382 5.6104976,13.356387 6.8794825,13.227689 C 9.4454240,13.160045 8.5071517,15.400778 6.8038719,16.043322 C 5.1763495,17.387957 2.0456191,18.507023 1.8817125,20.078042 C 5.0598783,19.749509 7.2499157,18.103848 10.422848,17.750762 C 9.8351359,20.320371 8.2398277,22.569497 7.8832943,25.225130 C 5.3466664,35.987420 10.875354,47.914216 20.564264,53.158613 C 26.176988,56.302825 32.998671,57.317455 39.250000,55.718750 C 28.451357,57.507239 17.246052,50.225463 13.960845,39.884250 C 11.576331,32.778835 12.775805,24.520535 17.281250,18.500000 C 18.666059,19.520076 21.291949,24.751949 22.429766,21.550653 C 21.874639,18.952602 22.317757,13.890949 25.846770,14.547615 C 27.876657,14.122481 31.015288,16.140263 32.082833,14.270273 C 31.005345,12.488485 27.477114,12.724702 27.017528,10.717259 C 29.295540,9.5731937 31.906987,9.0677694 34.436325,8.7788275 C 43.965195,7.9358478 53.713731,13.479399 57.683322,22.216953 C 57.497350,20.762716 55.646286,17.093864 54.166738,15.202373 C 48.604515,7.4516948 36.313142,3.6393999 26.879816,5.4409227 C 25.620993,5.2908294 26.412192,2.2394885 25.624592,0.84375000 z "
     id="path908"
     sodipodi:nodetypes="ccccccccccccccccccccccc"
     transform="matrix(0.976881,0.000000,0.000000,0.976859,-0.897472,0.936435)" />
  <path
     style="fill:url(#linearGradient1093);fill-opacity:1.0000000;fill-rule:evenodd;stroke:none;stroke-width:1.0000000pt;stroke-linecap:butt;stroke-linejoin:miter;stroke-opacity:1.0000000;"
     d="M 17.647059,46.928105 C 3.1705760,30.432170 13.891238,20.582682 12.413175,16.399105 C 11.559087,15.689976 10.823472,15.721303 9.6732026,16.078431 C 11.018269,15.109289 11.000897,13.784726 10.065359,12.549020 C 12.963390,12.888205 15.742948,10.063366 15.294118,7.9738562 C 18.743219,9.9634044 21.472368,8.6459624 23.006536,6.2745098 C 25.835932,9.0500804 28.072964,5.9020035 36.470588,7.5816993 C 29.580930,7.6745411 20.284661,11.181117 18.562091,12.679739 C 17.166763,13.893663 12.434799,22.700586 11.943163,24.978160 C 10.433331,31.972670 12.047930,41.677560 17.647059,46.928105 z "
     id="path2836"
     sodipodi:nodetypes="cccccccssc"
     transform="matrix(1.071924,0.000000,0.000000,1.071899,-2.154232,-0.355987)" />
</svg>
