<?xml version="1.0" encoding="UTF-8" standalone="no"?>
<!DOCTYPE svg PUBLIC "-//W3C//DTD SVG 20010904//EN"
"http://www.w3.org/TR/2001/REC-SVG-20010904/DTD/svg10.dtd">
<!-- Created with Inkscape (http://www.inkscape.org/) -->
<svg
   id="svg1"
   sodipodi:version="0.32"
   inkscape:version="0.37"
   width="48pt"
   height="48pt"
   sodipodi:docbase="/home/dan/Projects/Lila-icons/scalable/apps"
   sodipodi:docname="evolution-1.4.svg"
   xmlns="http://www.w3.org/2000/svg"
   xmlns:inkscape="http://www.inkscape.org/namespaces/inkscape"
   xmlns:sodipodi="http://sodipodi.sourceforge.net/DTD/sodipodi-0.dtd"
   xmlns:xlink="http://www.w3.org/1999/xlink">
  <defs
     id="defs3">
    <linearGradient
       id="linearGradient599">
      <stop
         style="stop-color:#ffffff;stop-opacity:1;"
         offset="0.00000000"
         id="stop600" />
      <stop
         style="stop-color:#d9cce6;stop-opacity:1;"
         offset="1.00000000"
         id="stop601" />
    </linearGradient>
    <linearGradient
       id="linearGradient584">
      <stop
         style="stop-color:#ffffff;stop-opacity:1;"
         offset="0.00000000"
         id="stop585" />
      <stop
         style="stop-color:#ffffff;stop-opacity:0;"
         offset="1.00000000"
         id="stop586" />
    </linearGradient>
    <linearGradient
       id="linearGradient578">
      <stop
         style="stop-color:#d9cce6;stop-opacity:1;"
         offset="0.00000000"
         id="stop579" />
      <stop
         style="stop-color:#73667f;stop-opacity:1;"
         offset="1.00000000"
         id="stop580" />
    </linearGradient>
    <linearGradient
       xlink:href="#linearGradient599"
       id="linearGradient581"
       x1="0.00000000"
       y1="-0.00000000"
       x2="0.98888886"
       y2="0.98437500" />
    <linearGradient
       xlink:href="#linearGradient599"
       id="linearGradient583"
       x1="-0.00000000"
       y1="0.00000000"
       x2="0.97500002"
       y2="0.98437500" />
    <linearGradient
       xlink:href="#linearGradient599"
       id="linearGradient860"
       x1="0.00000000"
       y1="0.00000000"
       x2="0.98905110"
       y2="0.97457629" />
    <linearGradient
       xlink:href="#linearGradient584"
       id="linearGradient861"
       x1="-0.36956522"
       y1="-0.37500000"
       x2="0.81159419"
       y2="0.76562500" />
    <linearGradient
       xlink:href="#linearGradient584"
       id="linearGradient862"
       x1="-0.08500000"
       y1="-0.13281250"
       x2="0.99500000"
       y2="0.96875000" />
    <radialGradient
       xlink:href="#linearGradient578"
       id="radialGradient595"
       cx="0.33846155"
       cy="0.34375000"
       r="0.66501766"
       fx="0.33076921"
       fy="0.33593750" />
  </defs>
  <sodipodi:namedview
     id="base"
     pagecolor="#ffffff"
     bordercolor="#666666"
     borderopacity="1.0"
     inkscape:pageopacity="0.0"
     inkscape:pageshadow="2"
     inkscape:zoom="5.64233871"
     inkscape:cx="24.4725602"
     inkscape:cy="22.4833711"
     inkscape:window-width="640"
     inkscape:window-height="535"
     inkscape:window-x="160"
     inkscape:window-y="106" />
  <path
     style="font-size:12;fill:#000000;fill-rule:evenodd;stroke-width:1.875;fill-opacity:1;stroke:none;stroke-opacity:1;stroke-dasharray:none;opacity:0.296369;"
     d="M 57.647925 32.037622 C 57.647925 47.040495 45.471681 59.216739 30.468808 59.216739 C 15.465936 59.216739 3.2896911 47.040495 3.2896911 32.037622 C 3.2896911 17.03475 15.465936 4.8585057 30.468808 4.8585057 C 45.471681 4.8585057 57.647925 17.03475 57.647925 32.037622 z "
     id="path609" />
  <path
     style="font-size:12;fill:url(#radialGradient595);fill-rule:evenodd;stroke-width:1.875;fill-opacity:1;stroke:#261933;stroke-opacity:1;stroke-dasharray:none;"
     d="M 55.141493 31.019385 C 55.141493 44.941359 43.8425 56.240352 29.920526 56.240352 C 15.998552 56.240352 4.6995589 44.941359 4.6995589 31.019385 C 4.6995589 17.097411 15.998552 5.7984176 29.920526 5.7984176 C 43.8425 5.7984176 55.141493 17.097411 55.141493 31.019385 z "
     id="path594" />
  <path
     style="fill:url(#linearGradient861);fill-rule:evenodd;stroke:none;stroke-opacity:1;stroke-width:1pt;stroke-linejoin:miter;stroke-linecap:butt;fill-opacity:1;"
     d="M 11.12229 44.961411 C 7.9971236 40.759647 2.9673692 21.68475 17.701673 11.907845 C 32.175024 2.2001478 46.225773 14.138431 47.308895 16.137448 C 47.788846 17.092665 34.115611 7.3498743 20.364756 16.764056 C 5.4213104 27.151367 11.77348 45.79514 11.12229 44.961411 z "
     id="path602"
     sodipodi:nodetypes="cssss" />
  <g
     id="g604"
     transform="matrix(0.942154,0.335181,-0.335181,0.942154,60.01135,0.186832)">
    <path
       style="font-size:12;fill:url(#linearGradient581);fill-rule:evenodd;stroke:#261933;stroke-width:1.875;stroke-dasharray:none;"
       d="M -32.510926 50.442911 C -31.289577 51.594259 -5.0803113 51.459852 -3.7913862 50.026685 C -2.4530372 48.682625 -2.0028341 31.001903 -3.6526445 29.770391 C -5.3257956 28.406784 -30.785139 28.94781 -32.510926 30.047875 C -34.176752 31.030706 -33.753792 49.390797 -32.510926 50.442911 z "
       id="path596"
       sodipodi:nodetypes="cssss" />
    <path
       style="font-size:12;fill:url(#linearGradient860);fill-rule:evenodd;stroke:#261933;stroke-width:1.875;stroke-dasharray:none;"
       d="M -32.649668 50.442911 C -33.738539 49.45197 -22.490714 38.836565 -17.526818 38.788604 C -12.917534 38.74407 -2.6599755 48.978789 -3.930128 50.165427 C -5.066091 51.35684 -32.182111 51.512214 -32.649668 50.442911 z "
       id="path597"
       sodipodi:nodetypes="csss" />
    <path
       style="font-size:12;fill:url(#linearGradient583);fill-rule:evenodd;stroke:#261933;stroke-width:1.875;stroke-dasharray:none;"
       d="M -32.649668 30.186616 C -33.652052 31.444835 -22.868375 44.407645 -18.081785 44.338274 C -13.295195 44.268903 -2.8273979 30.967397 -3.930128 29.770391 C -4.9411143 28.515028 -31.690217 28.601475 -32.649668 30.186616 z "
       id="path598"
       sodipodi:nodetypes="csss" />
    <path
       style="fill:url(#linearGradient862);fill-rule:evenodd;stroke:none;stroke-opacity:1;stroke-width:1pt;stroke-linejoin:miter;stroke-linecap:butt;fill-opacity:1;"
       d="M -31.400992 48.084301 C -31.792824 47.716958 -32.235931 32.632807 -31.123509 31.296551 C -30.096665 30.229753 -5.2869599 30.935014 -4.9013203 31.296551 C -4.5470033 31.628722 -26.801232 31.620727 -28.90364 33.377677 C -30.930163 35.091825 -31.052868 48.410667 -31.400992 48.084301 z "
       id="path603"
       sodipodi:nodetypes="cssss" />
  </g>
</svg>
