<?xml version="1.0" encoding="UTF-8" standalone="no"?>
<!DOCTYPE svg PUBLIC "-//W3C//DTD SVG 20010904//EN"
"http://www.w3.org/TR/2001/REC-SVG-20010904/DTD/svg10.dtd">
<!-- Created with Inkscape (http://www.inkscape.org/) -->
<svg
   version="1.0"
   x="0"
   y="0"
   width="48pt"
   height="48pt"
   id="svg1"
   sodipodi:version="0.32"
   inkscape:version="0.39"
   sodipodi:docname="file-roller2.svg"
   sodipodi:docbase="/home/scaba/files/pre-release/lila-gnome"
   xmlns="http://www.w3.org/2000/svg"
   xmlns:inkscape="http://www.inkscape.org/namespaces/inkscape"
   xmlns:sodipodi="http://sodipodi.sourceforge.net/DTD/sodipodi-0.dtd"
   xmlns:xml="http://www.w3.org/XML/1998/namespace"
   xmlns:xlink="http://www.w3.org/1999/xlink"
   xmlns:rdf="http://www.w3.org/1999/02/22-rdf-syntax-ns#"
   xmlns:cc="http://web.resource.org/cc/"
   xmlns:dc="http://purl.org/dc/elements/1.1/">
  <sodipodi:namedview
     id="base"
     pagecolor="#ffffff"
     bordercolor="#666666"
     borderopacity="1.0"
     inkscape:pageopacity="0.0"
     inkscape:pageshadow="2"
     inkscape:zoom="5.6568542"
     inkscape:cx="37.397216"
     inkscape:cy="18.094693"
     inkscape:window-width="1022"
     inkscape:window-height="695"
     inkscape:window-x="0"
     inkscape:window-y="26"
     showguides="true"
     snaptoguides="true" />
  <defs
     id="defs3">
    <linearGradient
       id="linearGradient989">
      <stop
         offset="0.0000000"
         style="stop-color:#7fff7f;stop-opacity:1.0000000;"
         id="stop991" />
      <stop
         offset="1.0000000"
         style="stop-color:#3fbf3f;stop-opacity:1.0000000;"
         id="stop990" />
    </linearGradient>
    <linearGradient
       id="linearGradient884"
       x1="0.0000000"
       y1="0.50000000"
       x2="1.0000000"
       y2="0.50000000"
       gradientUnits="objectBoundingBox"
       spreadMethod="pad"
       xlink:href="#linearGradient989" />
    <linearGradient
       xlink:href="#linearGradient884"
       id="linearGradient883"
       x1="-0.16999437"
       y1="-0.22656719"
       x2="0.78999752"
       y2="0.81250203"
       gradientUnits="objectBoundingBox"
       spreadMethod="pad" />
    <linearGradient
       id="linearGradient584">
      <stop
         style="stop-color:#ffffff;stop-opacity:1;"
         offset="0.00000000"
         id="stop585" />
      <stop
         style="stop-color:#ffffff;stop-opacity:0;"
         offset="1.00000000"
         id="stop586" />
    </linearGradient>
    <linearGradient
       xlink:href="#linearGradient584"
       id="linearGradient583" />
    <linearGradient
       id="linearGradient570">
      <stop
         style="stop-color:#ffffff;stop-opacity:1;"
         offset="0"
         id="stop571" />
      <stop
         style="stop-color:#ffffff;stop-opacity:0;"
         offset="1"
         id="stop572" />
    </linearGradient>
    <linearGradient
       id="linearGradient563">
      <stop
         style="stop-color:#d9cce6;stop-opacity:1;"
         offset="0.00000000"
         id="stop564" />
      <stop
         style="stop-color:#73667f;stop-opacity:1;"
         offset="1.00000000"
         id="stop565" />
    </linearGradient>
    <linearGradient
       x1="0.01973684"
       y1="0.00000000"
       x2="0.98026317"
       y2="0.96875000"
       id="linearGradient566"
       xlink:href="#linearGradient563" />
    <linearGradient
       x1="0.007275"
       y1="0.062497"
       x2="1.003636"
       y2="0.968750"
       id="linearGradient569"
       xlink:href="#linearGradient570" />
    <linearGradient
       x1="0.017699"
       y1="0.007811"
       x2="0.982301"
       y2="0.992187"
       id="linearGradient573"
       xlink:href="#linearGradient570" />
    <linearGradient
       x1="0.040005"
       y1="0.015624"
       x2="1.000000"
       y2="0.984375"
       id="linearGradient575"
       xlink:href="#linearGradient570" />
    <linearGradient
       id="linearGradient578"
       xlink:href="#linearGradient570" />
  </defs>
  <path
     d="M 5.9380887,47.230711 C 7.1031624,48.406497 33.124228,54.970849 34.782608,54.609643 C 36.229556,54.428622 57.152371,44.980640 57.992426,44.010946 C 59.161780,42.474508 58.934611,15.030039 57.858287,13.824722 C 56.661312,12.293403 30.764536,9.2215872 29.013662,9.2632282 C 27.420905,9.4231672 6.3888956,13.986481 5.5356500,15.166328 C 4.9089436,16.131529 4.7694094,46.186617 5.9380887,47.230711 z "
     style="font-size:12.000000;opacity:0.30267498;fill-rule:evenodd;stroke-width:12.500000;"
     id="path1168" />
  <path
     d="M 5.6270084,44.849522 C 6.7423013,45.975077 31.651550,52.258956 33.239072,51.913190 C 34.624195,51.739892 54.653045,42.695591 55.457207,41.767329 C 56.576598,40.296530 56.359135,14.024688 55.328799,12.870869 C 54.182966,11.404979 29.392678,8.4644207 27.716613,8.5042751 C 26.191912,8.6573949 6.0585527,13.025706 5.2417348,14.155148 C 4.6418038,15.079106 4.5082314,43.850035 5.6270084,44.849522 z "
     style="font-size:12.000000;fill:url(#linearGradient566);fill-rule:evenodd;stroke:#261933;stroke-width:1.8151201;"
     id="path1164" />
  <path
     d="M 6.6544462,43.822171 C 6.1963587,43.135031 5.5968702,16.134357 6.5260181,15.311016 C 7.1628296,14.761416 30.729739,18.738988 31.184240,19.420783 C 31.585860,20.023269 13.027499,15.411250 9.0946142,19.163872 C 5.9277373,22.179662 7.0525610,44.419311 6.6544462,43.822171 z "
     style="font-size:12.000000;opacity:0.99000001;fill:url(#linearGradient573);fill-rule:evenodd;stroke:none;stroke-width:0.10586100pt;"
     id="path1165" />
  <path
     d="M 33.881317,49.344614 C 33.528578,49.035945 32.945055,20.301399 33.624397,19.549196 C 34.358771,18.722280 52.918565,14.743179 53.273966,15.054208 C 53.603442,15.342489 37.280074,18.398863 35.679230,21.347213 C 33.201257,25.756019 34.213453,49.635255 33.881317,49.344614 z "
     style="font-size:12.000000;opacity:0.99000001;fill:url(#linearGradient575);fill-rule:evenodd;stroke:none;stroke-width:0.10586100pt;"
     id="path1166" />
  <path
     d="M 10.764120,13.898323 C 10.764120,13.639468 26.204517,9.9447462 28.230451,9.9170712 C 29.883867,9.8927802 46.467225,11.970992 46.467225,12.228720 C 46.467225,12.484625 34.283242,11.175117 28.230451,11.458176 C 22.382208,11.731692 10.764120,14.153205 10.764120,13.898323 z "
     style="font-size:12.000000;opacity:0.99000001;fill:url(#linearGradient569);fill-rule:evenodd;stroke:none;stroke-width:0.10586100pt;"
     id="path1167" />
  <metadata
     id="metadata1128">
    <rdf:RDF
       id="RDF1129">
      <cc:Work
         rdf:about=""
         id="Work1130">
        <dc:format
           id="format1131">image/svg+xml</dc:format>
        <dc:type
           id="type1133"
           rdf:resource="http://purl.org/dc/dcmitype/StillImage" />
      </cc:Work>
    </rdf:RDF>
  </metadata>
  <path
     style="font-size:12.000000;opacity:0.29636899;fill-rule:evenodd;stroke-width:18.750000;"
     d="M 15.147410,54.008778 C 11.263542,54.492571 2.8852354,49.233187 3.8290824,40.705596 C 5.2110834,31.544951 17.440557,29.595583 17.647374,28.943834 C 18.808707,27.407345 16.890257,21.024733 17.921007,21.558540 C 20.675470,22.985028 28.888654,32.287081 29.003006,34.277658 C 28.979864,36.253260 20.283664,45.653476 17.647374,46.860008 C 16.498454,47.385830 17.964307,39.448527 17.510561,39.201185 C 16.778583,38.810293 12.088071,38.397065 10.122559,42.893833 C 9.0689084,45.441185 10.614333,51.580138 15.147410,54.008778 z "
     id="path739"
     sodipodi:nodetypes="cccccccsc" />
  <text
     xml:space="preserve"
     style="font-size:12.000000;font-style:normal;font-weight:normal;fill:#000000;fill-opacity:1.0000000;stroke:none;stroke-width:1.0000000pt;stroke-linecap:butt;stroke-linejoin:miter;stroke-opacity:1.0000000;font-family:helvetica;"
     x="15.042356"
     y="82.403587"
     id="text863"
     transform="matrix(-5.096356e-17,-1.114537,1.114537,-5.096356e-17,0.000000,0.000000)"><tspan
       id="tspan864"></tspan></text>
  <path
     style="font-size:12.000000;fill:url(#linearGradient883);fill-rule:evenodd;stroke:#261933;stroke-width:1.5208893;"
     d="M 13.590042,52.049510 C 9.8875781,52.510707 2.6475814,46.749984 3.5473414,38.620690 C 4.8647994,29.887908 16.523073,28.029586 16.720231,27.408279 C 17.827319,25.943554 15.998477,19.859052 16.981084,20.367928 C 19.606892,21.727787 27.436468,30.595375 27.545475,32.492977 C 27.523421,34.376306 19.233394,43.337469 16.720231,44.487651 C 15.624977,44.988907 17.022363,37.422335 16.589809,37.186544 C 15.892010,36.813908 11.420586,36.419983 9.5468754,40.706720 C 8.5424364,43.135092 9.2686894,49.734303 13.590042,52.049510 z "
     id="path735"
     sodipodi:nodetypes="cccccccsc" />
  <path
     style="font-size:12.000000;opacity:0.20178296;fill-rule:evenodd;stroke-width:0.96522999pt;"
     d="M 11.764096,51.267249 C 9.1385654,46.836106 7.8964114,43.747558 8.7643314,41.097849 C 9.5049814,38.836695 15.417998,36.092185 16.850653,36.665038 C 18.026488,37.135197 15.448104,44.649593 16.589809,44.226896 C 18.969569,43.345826 29.080549,32.828145 27.415051,32.753730 C 16.390821,32.136627 8.4939894,34.214371 7.0688074,38.490312 C 4.6209164,45.610772 8.9211884,49.704400 11.764096,51.267249 z "
     id="path737"
     sodipodi:nodetypes="csssssc" />
  <path
     style="font-size:12.000000;fill:url(#linearGradient583);fill-rule:evenodd;stroke-width:1.0000000pt;"
     d="M 4.8346444,42.363625 C 4.7077244,42.205032 3.9405114,36.980471 7.7858174,33.328969 C 11.343002,30.007401 15.511662,30.407737 18.016139,28.035933 C 19.016175,27.088879 17.914867,23.987388 18.299368,23.372407 C 18.529695,23.004024 20.350540,24.851377 20.512752,25.216215 C 20.596471,25.404519 19.160702,24.696641 19.037164,25.031834 C 18.730324,25.864388 20.044098,27.998238 19.221606,28.719451 C 16.539579,31.071252 12.545603,30.703868 8.5236074,34.250873 C 4.2998204,37.983522 4.9536564,42.512331 4.8346444,42.363625 z "
     id="path742"
     sodipodi:nodetypes="cssssssss" />
  <rect
     style="font-size:12.000000;fill:#808080;fill-rule:evenodd;stroke-width:1.0000000pt;"
     id="rect630"
     width="0.0000000"
     height="5.0441194"
     x="78.436104"
     y="-51.746037" />
</svg>
