<?xml version="1.0" encoding="UTF-8" standalone="no"?>
<!DOCTYPE svg PUBLIC "-//W3C//DTD SVG 20010904//EN"
"http://www.w3.org/TR/2001/REC-SVG-20010904/DTD/svg10.dtd">
<!-- Created with Inkscape (http://www.inkscape.org/) -->
<svg
   version="1.0"
   x="0"
   y="0"
   width="48pt"
   height="48pt"
   id="svg1"
   sodipodi:version="0.32"
   inkscape:version="0.38.1"
   sodipodi:docname="firefox.svg"
   sodipodi:docbase="/home/dan/svg-icons/lila/gnome/scalable/apps"
   xmlns="http://www.w3.org/2000/svg"
   xmlns:inkscape="http://www.inkscape.org/namespaces/inkscape"
   xmlns:sodipodi="http://sodipodi.sourceforge.net/DTD/sodipodi-0.dtd"
   xmlns:xlink="http://www.w3.org/1999/xlink">
  <sodipodi:namedview
     id="base"
     pagecolor="#ffffff"
     bordercolor="#666666"
     borderopacity="1.0"
     inkscape:pageopacity="0.0"
     inkscape:pageshadow="2"
     inkscape:zoom="7.8896552"
     inkscape:cx="25.909028"
     inkscape:cy="23.592701"
     inkscape:window-width="1018"
     inkscape:window-height="711"
     inkscape:window-x="0"
     inkscape:window-y="30" />
  <defs
     id="defs3">
    <linearGradient
       id="linearGradient600">
      <stop
         style="stop-color:#d9cce6;stop-opacity:1;"
         offset="0.00000000"
         id="stop601" />
      <stop
         style="stop-color:#ffffff;stop-opacity:1;"
         offset="1.00000000"
         id="stop602" />
    </linearGradient>
    <linearGradient
       id="linearGradient570">
      <stop
         style="stop-color:#ffffff;stop-opacity:1;"
         offset="0"
         id="stop571" />
      <stop
         style="stop-color:#ffffff;stop-opacity:0;"
         offset="1"
         id="stop572" />
    </linearGradient>
    <linearGradient
       id="linearGradient563">
      <stop
         style="stop-color:#d9cce6;stop-opacity:1;"
         offset="0.00000000"
         id="stop564" />
      <stop
         style="stop-color:#73667f;stop-opacity:1;"
         offset="1.00000000"
         id="stop565" />
    </linearGradient>
    <linearGradient
       x1="0.03846154"
       y1="0.07031250"
       x2="0.98461539"
       y2="0.96875000"
       id="linearGradient566"
       xlink:href="#linearGradient563" />
    <linearGradient
       x1="0.006536"
       y1="0.015625"
       x2="0.849673"
       y2="0.867188"
       id="linearGradient569"
       xlink:href="#linearGradient570" />
    <linearGradient
       id="linearGradient573"
       xlink:href="#linearGradient600"
       x1="0.37543860"
       y1="-0.47058824"
       x2="0.69824558"
       y2="1.41176474" />
    <linearGradient
       id="linearGradient575"
       xlink:href="#linearGradient600"
       x1="0.79512191"
       y1="0.23239438"
       x2="-0.32195115"
       y2="1.35211265" />
    <linearGradient
       id="linearGradient578"
       xlink:href="#linearGradient563"
       x1="-0.00000000"
       y1="-0.00000000"
       x2="1.00000000"
       y2="-0.00000000" />
    <linearGradient
       xlink:href="#linearGradient563"
       id="linearGradient603"
       x1="-0.00000000"
       y1="0.00000000"
       x2="1.00000000"
       y2="0.00000000" />
    <linearGradient
       xlink:href="#linearGradient600"
       id="linearGradient604" />
    <linearGradient
       xlink:href="#linearGradient600"
       id="linearGradient605" />
    <linearGradient
       xlink:href="#linearGradient570"
       id="linearGradient608"
       x1="0.36140350"
       y1="0.00757576"
       x2="0.69473684"
       y2="1.38636363" />
    <linearGradient
       xlink:href="#linearGradient600"
       id="linearGradient612"
       x1="0.91228080"
       y1="0.16176464"
       x2="-1.12631643"
       y2="1.61029375" />
    <linearGradient
       xlink:href="#linearGradient570"
       id="linearGradient614"
       x1="-0.09917355"
       y1="0.04929578"
       x2="1.08264458"
       y2="0.69014084" />
  </defs>
  <path
     style="font-size:12.000000;fill:#000000;fill-opacity:0.29770991;fill-rule:evenodd;stroke:none;stroke-width:1.2174410pt;"
     d="M 22.713724,31.138549 C 28.044360,38.844221 29.859369,44.699847 26.338724,50.232299 C 18.995126,49.921459 11.651071,49.605640 4.3074737,49.294799 C 2.0898450,51.583965 14.236575,61.784780 34.432474,59.044799 C 34.976083,59.048461 35.537691,59.024955 36.088724,59.013549 C 39.262391,60.017106 42.086560,59.908612 45.713724,58.513549 C 45.980152,58.391436 46.130591,58.141451 46.369974,57.982299 C 51.301033,57.059155 56.065267,55.590898 59.963724,53.482299 C 53.245471,47.786389 46.095538,42.092223 55.588724,31.138549 C 43.320609,34.205577 35.419986,36.396314 22.713724,31.138549 z "
     id="path928" />
  <ellipse
     cx="286.926392"
     cy="278.069977"
     rx="278.198608"
     ry="278.198578"
     transform="matrix(9.205838e-2,0.000000,0.000000,9.205838e-2,3.557393,5.130887)"
     style="font-size:12.000000;opacity:0.30267498;fill-rule:evenodd;stroke-width:13.253600;"
     id="path1023" />
  <ellipse
     cx="286.926392"
     cy="278.069977"
     rx="278.198608"
     ry="278.198578"
     transform="matrix(9.205838e-2,0.000000,0.000000,9.205838e-2,1.321117,2.362168)"
     style="font-size:12.000000;fill:url(#linearGradient566);fill-rule:evenodd;stroke:#261933;stroke-width:20.367510;stroke-dasharray:none;"
     id="path983" />
  <path
     d="M 10.326495 10.436688 C 11.063104 10.028539 11.872465 11.471317 12.86856 11.609267 C 13.758223 11.732344 15.921425 10.335807 17.083754 11.000126 C 17.853964 11.330052 17.198584 14.229786 16.964068 15.96588 C 16.668824 17.359256 15.72606 19.355069 15.136341 21.082763 C 14.829767 21.839718 12.699397 24.582157 12.612309 24.756329 C 12.525378 24.930348 13.447179 27.254388 12.87349 27.541387 C 12.275525 27.895281 11.537067 24.493684 10.262452 23.537741 C 9.712422 23.207662 8.4441193 23.360718 7.9995637 23.711992 C 7.469918 23.99922 7.9257331 27.009392 8.6957276 27.889577 C 9.4850747 29.073253 10.673759 29.983803 11.393952 31.196689 C 12.327315 32.76886 12.902469 34.562139 13.656726 36.244824 C 13.656726 36.244824 13.034252 38.392769 13.121339 38.392769 C 13.208425 38.392769 14.440039 40.857534 14.440039 40.857534 C 11.911151 38.936712 9.8753421 37.062511 8.1736197 34.765214 C 6.9742445 33.145953 6.0176702 30.923869 5.7366449 29.107934 C 5.6405259 28.486925 6.8021922 28.114305 7.0421874 27.454378 C 7.4822263 26.354166 5.1746927 23.623518 5.0814421 22.731463 C 4.9669118 21.770897 5.5479685 17.927936 6.8681004 15.617768 C 7.8132846 13.813238 8.9163173 11.217919 10.326495 10.436688 z "
     style="font-size:12.000000;opacity:0.50445902;fill:#261933;fill-rule:evenodd;stroke:#000000;stroke-width:0.088009399pt;"
     id="path565"
     transform="matrix(1.266542,0.000000,0.000000,1.266542,-3.732643,-2.432445)" />
  <path
     d="M 25.319396 17.010295 C 24.8489 17.685946 24.345342 18.895361 24.623015 19.534018 C 24.925581 20.229706 26.234339 20.999529 27.060037 21.01371 C 27.917102 21.028507 28.792047 20.068404 29.671076 19.621182 C 30.445681 19.227137 31.192924 18.623237 32.021011 18.48968 C 32.991675 18.333157 34.366632 18.283833 35.067174 18.750938 C 35.585064 19.096277 35.791219 20.242037 35.676465 20.926778 C 35.433166 21.448909 34.619027 21.898443 34.893077 22.232299 C 35.13299 22.435679 36.797949 21.208922 37.068921 20.491656 C 37.291181 19.90348 36.236514 19.064987 36.372693 18.315739 C 36.482745 17.820814 38.291129 17.94597 38.896726 18.054712 C 39.396276 18.176248 39.881337 19.415105 40.376418 19.360154 C 40.829958 19.360154 41.962155 17.896648 42.084843 17.903506 C 42.557037 17.981498 42.900295 19.360154 42.900295 19.360154 C 42.087851 20.11449 41.432471 21.149888 40.463348 21.623083 C 38.937491 22.368245 37.136661 22.816931 35.415362 23.01561 C 32.610961 23.339216 29.286126 22.200393 26.885943 23.189628 C 24.992398 23.970165 22.56185 26.540437 22.534261 28.324699 C 22.503819 30.282824 23.774042 33.610668 26.051843 33.811966 C 28.809311 34.115382 31.690932 34.73631 32.684482 36.006613 C 33.460704 36.99916 32.556088 40.739235 32.681092 41.97586 C 32.728107 42.385857 33.921413 41.659496 34.632054 41.292734 C 35.720239 40.73122 37.036552 39.622378 37.417035 38.420588 C 38.139001 36.14102 38.220226 33.313727 37.939396 30.848651 C 37.698019 28.730073 35.594547 24.895129 35.850639 24.669244 C 36.087699 24.460082 37.950184 28.698629 39.418856 29.54321 C 40.271066 30.033126 42.226648 29.310929 42.813282 28.672736 C 43.213187 28.237614 42.094937 26.576273 42.378084 26.322876 C 42.646202 26.082965 44.349697 27.764419 44.46692 27.193351 C 45.400815 22.85716 44.523018 19.655322 42.996394 15.640658 C 41.747136 12.576385 38.205818 8.3581065 34.424589 6.2903745 C 33.892128 5.9966098 31.584657 7.2967493 29.804094 8.4356357 C 28.789042 8.9436639 27.734298 10.473449 28.255582 10.840521 C 28.715134 11.203122 30.077376 9.9799107 31.041409 9.7627349 C 32.769566 9.3496539 33.572531 9.5736121 34.893077 10.221516 C 34.893077 10.221516 36.764736 11.770338 35.937491 12.919488 C 35.41236 13.615097 33.674644 13.61579 33.674644 13.61579 C 33.297476 13.412872 32.903971 12.929969 32.543141 13.006573 C 31.946721 13.133194 31.443239 13.938087 30.802502 14.225161 C 29.499371 14.808638 27.976367 14.927862 26.711847 15.617768 C 25.996817 15.782769 25.612405 16.565387 25.319396 17.010295 z "
     style="font-size:12.000000;opacity:0.49999997;fill:#261933;fill-rule:evenodd;stroke:#000000;stroke-width:0.088009399pt;"
     id="path566"
     transform="matrix(1.266542,0.000000,0.000000,1.266542,-3.732643,-2.432445)" />
  <path
     d="M 9.1648589 34.885281 C 8.8957403 34.078081 -1.2973101 15.822458 18.077151 6.466728 C 26.861435 2.1842989 39.83918 10.123333 41.282807 14.874608 C 41.505143 15.593414 32.503069 5.3322595 19.674678 11.006985 C 2.9726259 18.347183 9.4002238 35.591452 9.1648589 34.885281 z "
     style="font-size:12.000000;opacity:0.69999999;fill:url(#linearGradient569);fill-rule:evenodd;stroke-width:0.099890900pt;"
     id="path984"
     transform="matrix(1.266542,0.000000,0.000000,1.266542,-3.732643,-2.432445)" />
  <path
     style="font-size:12.000000;fill:url(#linearGradient575);fill-opacity:1.00000000;fill-rule:evenodd;stroke:#261933;stroke-width:1.8750000;stroke-dasharray:none;"
     d="M 53.450834,29.171615 C 43.957648,40.125288 51.114042,45.821199 57.832295,51.517109 C 46.221402,57.797215 27.162012,58.819558 17.741856,54.584138 C 28.768554,46.989591 27.965284,39.833190 20.589811,29.171615 C 33.296073,34.429379 41.182719,32.238643 53.450834,29.171615 z "
     id="path591"
     sodipodi:nodetypes="ccccc" />
  <path
     style="font-size:12.000000;fill:url(#linearGradient578);fill-opacity:1.00000000;fill-rule:evenodd;stroke:#261933;stroke-width:1.1256447pt;"
     d="M 25.565743,48.298361 C 27.832098,48.404594 30.098448,48.510831 32.364799,48.617066 C 33.356323,45.854952 34.135382,43.092836 33.427149,39.055899 C 32.506438,36.152137 30.310914,36.647901 28.752796,38.630959 C 26.415621,41.640956 25.778213,44.650952 25.565743,48.298361 z "
     id="path598"
     sodipodi:nodetypes="ccccc" />
  <path
     style="font-size:12;fill:#ffffff;fill-opacity:1;fill-rule:evenodd;stroke:#261933;stroke-width:1.22242pt;"
     d="M 25.247037,48.241205 C 27.619624,48.366491 29.992208,48.491780 32.364795,48.617067 C 32.718913,47.531242 32.648090,46.445418 33.002206,45.359593 C 30.594210,44.106718 28.823622,43.605569 26.203155,44.357294 C 26.096919,45.568407 25.353272,47.030093 25.247037,48.241205 z "
     id="path599"
     sodipodi:nodetypes="ccccc" />
  <path
     style="font-size:12.000000;fill:url(#linearGradient573);fill-opacity:1.00000000;fill-rule:evenodd;stroke:#261933;stroke-width:1.8750000;stroke-dasharray:none;"
     d="M 33.515145,56.993945 C 36.874272,58.162338 39.795252,58.016289 43.592525,56.555799 C 47.097704,54.949260 48.412138,49.837546 43.592525,49.107300 C 29.790897,48.523104 15.989268,47.938909 2.1876393,47.354712 C -0.076120351,49.691497 12.557117,60.353072 33.515145,56.993945 z "
     id="path593"
     sodipodi:nodetypes="ccccc" />
  <path
     style="font-size:12.000000;fill:none;fill-opacity:1.00000000;fill-rule:evenodd;stroke:#261933;stroke-width:1.8750000;stroke-dasharray:none;"
     d="M 32.857926,56.993945 C 35.048661,56.701847 38.553835,55.533455 40.744571,53.488769 C 40.744571,53.488769 40.744571,53.488769 40.744571,53.488769 C 40.744571,53.488769 40.744571,53.488769 40.744571,53.488769"
     id="path594"
     sodipodi:nodetypes="cccc" />
  <path
     style="font-size:12.000000;fill:none;fill-opacity:1.00000000;fill-rule:evenodd;stroke:#261933;stroke-width:1.2189955;stroke-linecap:round;"
     d="M 38.406610,52.752104 C 40.836584,51.739615 41.444076,53.697094 41.444076,54.979579"
     id="path595"
     sodipodi:nodetypes="cc" />
  <path
     style="font-size:12.000000;fill:url(#linearGradient603);fill-opacity:1.00000000;fill-rule:evenodd;stroke:#261933;stroke-width:1.2174410pt;"
     d="M 32.026059,48.502166 C 34.477235,48.617065 36.928407,48.731964 39.379578,48.846863 C 40.451961,45.859498 41.294552,42.872131 40.528562,38.505982 C 39.532769,35.365418 37.158199,35.901612 35.473017,38.046387 C 32.945244,41.301850 32.255856,44.557312 32.026059,48.502166 z "
     id="path596"
     sodipodi:nodetypes="ccccc" />
  <path
     style="font-size:12;fill:#ffffff;fill-opacity:1;fill-rule:evenodd;stroke:#261933;stroke-width:1.31451pt;stroke-opacity:1;"
     d="M 31.681363,48.445011 C 34.247434,48.578961 36.813504,48.712913 39.379575,48.846864 C 39.762571,47.685956 39.685972,46.525047 40.068966,45.364139 C 37.464597,44.024630 35.549618,43.488826 32.715451,44.292533 C 32.600553,45.587392 31.796261,47.150152 31.681363,48.445011 z "
     id="path597"
     sodipodi:nodetypes="ccccc" />
  <path
     style="font-size:12;fill-rule:evenodd;stroke-width:1pt;"
     d="M 2.0375045,47.582978 C 7.0164474,47.774475 11.995389,47.965974 16.974332,48.157471 C 17.855221,51.068237 17.357328,53.749206 15.480650,56.200378 C 5.7142627,54.247101 0.77361935,48.157471 2.0375045,47.582978 z "
     id="path606"
     sodipodi:nodetypes="cccc" />
  <path
     sodipodi:type="arc"
     style="font-size:12;fill:url(#linearGradient608);fill-opacity:0.75;fill-rule:evenodd;stroke-width:1pt;"
     id="path607"
     sodipodi:cx="69.74475098"
     sodipodi:cy="40.93580627"
     sodipodi:rx="3.49195647"
     sodipodi:ry="1.60441244"
     d="M 73.236707 40.935806 A 3.491956 1.604412 0 1 0 66.252795,40.935806 A 3.49196 1.60441 0 1 0 73.2367 40.9358 L 69.744751 40.935806 z"
     transform="matrix(1.212558,0.108931,-5.766919e-2,0.641943,-75.34556,14.74129)" />
  <path
     sodipodi:type="arc"
     style="font-size:12;fill-rule:evenodd;stroke-width:1pt;"
     id="path609"
     sodipodi:cx="71.63229370"
     sodipodi:cy="34.61253357"
     sodipodi:rx="0.56626320"
     sodipodi:ry="0.47188601"
     d="M 72.198557 34.612534 A 0.566263 0.471886 0 1 0 71.066031,34.612534 A 0.566263 0.471886 0 1 0 72.1986 34.6125 L 71.632294 34.612534 z"
     transform="matrix(2.231975,0.000000,0.000000,2.678369,-121.6510,-46.27114)" />
  <path
     sodipodi:type="arc"
     style="font-size:12;fill-rule:evenodd;stroke-width:1pt;"
     id="path610"
     sodipodi:cx="71.63229370"
     sodipodi:cy="34.61253357"
     sodipodi:rx="0.56626320"
     sodipodi:ry="0.47188601"
     d="M 72.198557 34.612534 A 0.566263 0.471886 0 1 0 71.066031,34.612534 A 0.566263 0.471886 0 1 0 72.1986 34.6125 L 71.632294 34.612534 z"
     transform="matrix(2.231975,0.000000,0.000000,2.678369,-129.2343,-46.73073)" />
  <path
     style="font-size:12;fill:url(#linearGradient612);fill-opacity:0.75;fill-rule:evenodd;stroke:#261933;stroke-width:1.8750000;stroke-dasharray:none;"
     d="M 42.661612,32.848124 C 41.074132,29.439462 37.343550,28.098978 33.612968,27.447885 C 33.374846,28.443673 34.565458,29.439462 35.041703,29.745859 C 32.104861,30.052255 29.168018,31.048044 27.659909,32.733224 C 28.215528,33.729012 29.723637,33.805612 30.755501,34.341806"
     id="path611"
     sodipodi:nodetypes="ccccc" />
  <path
     style="font-size:12;fill:url(#linearGradient614);fill-opacity:0.75;fill-rule:evenodd;stroke-width:1pt;"
     d="M 34.132802,42.844412 C 34.490755,41.282433 35.694781,38.939464 37.549632,37.377485 C 38.070291,37.182238 38.395704,37.182238 38.721117,37.572732 C 36.671019,38.874381 35.662240,41.087186 34.132802,42.844412 z "
     id="path613"
     sodipodi:nodetypes="cccc" />
  <path
     style="font-size:12;fill:url(#linearGradient614);fill-opacity:0.75;fill-rule:evenodd;stroke-width:1pt;"
     d="M 27.234061,43.690484 C 27.592014,42.128505 28.796040,39.785536 30.650890,38.223557 C 31.171550,38.028310 31.496963,38.028310 31.822375,38.418804 C 29.772278,39.720453 28.763499,41.933258 27.234061,43.690484 z "
     id="path615"
     sodipodi:nodetypes="cccc" />
</svg>
