<?xml version="1.0" encoding="UTF-8" standalone="no"?>
<!DOCTYPE svg PUBLIC "-//W3C//DTD SVG 20010904//EN"
"http://www.w3.org/TR/2001/REC-SVG-20010904/DTD/svg10.dtd">
<!-- Created with Inkscape (http://www.inkscape.org/) -->
<svg
   version="1.0"
   x="0"
   y="0"
   width="60"
   height="60"
   id="svg1"
   xmlns="http://www.w3.org/2000/svg"
   xmlns:xlink="http://www.w3.org/1999/xlink"
   xmlns:sodipodi="http://sodipodi.sourceforge.net/DTD/sodipodi-0.dtd"
   xmlns:inkscape="http://www.inkscape.org/namespaces/inkscape"
   sodipodi:version="0.32"
   inkscape:version="0.37"
   sodipodi:docname="gaim.svg"
   sodipodi:docbase="/home/dan/Projects/Lila-icons/scalable/apps">
  <sodipodi:namedview
     id="base"
     pagecolor="#ffffff"
     bordercolor="#666666"
     borderopacity="1.0"
     inkscape:pageopacity="0.0"
     inkscape:pageshadow="2"
     inkscape:zoom="4.91194112"
     inkscape:cx="28.5747673"
     inkscape:cy="26.5752331"
     inkscape:window-width="640"
     inkscape:window-height="500"
     inkscape:window-x="146"
     inkscape:window-y="74" />
  <defs
     id="defs3">
    <linearGradient
       id="linearGradient570">
      <stop
         style="stop-color:#ffffff;stop-opacity:1;"
         offset="0"
         id="stop571" />
      <stop
         style="stop-color:#ffffff;stop-opacity:0;"
         offset="1"
         id="stop572" />
    </linearGradient>
    <linearGradient
       id="linearGradient563">
      <stop
         style="stop-color:#d9cce6;stop-opacity:1;"
         offset="0"
         id="stop564" />
      <stop
         style="stop-color:#73667f;stop-opacity:1;"
         offset="1"
         id="stop565" />
    </linearGradient>
    <linearGradient
       x1="0.00000000"
       y1="-0.00000000"
       x2="0.99218744"
       y2="0.98437500"
       id="linearGradient566"
       xlink:href="#linearGradient563" />
    <linearGradient
       x1="0.00000000"
       y1="0.00000000"
       x2="0.97826087"
       y2="0.98437500"
       id="linearGradient569"
       xlink:href="#linearGradient563" />
    <linearGradient
       id="linearGradient573"
       xlink:href="#linearGradient570"
       x1="-0.00000000"
       y1="0.00000000"
       x2="1.01428568"
       y2="1.00000000" />
    <linearGradient
       x1="0.00000000"
       y1="0.00000000"
       x2="0.98837209"
       y2="1.00781250"
       id="linearGradient575"
       xlink:href="#linearGradient570" />
    <linearGradient
       id="linearGradient578"
       xlink:href="#linearGradient570" />
    <radialGradient
       id="radialGradient614"
       xlink:href="#linearGradient570" />
    <linearGradient
       id="linearGradient620"
       xlink:href="#linearGradient570" />
  </defs>
  <g
     transform="matrix(0.955388,0.000000,0.000000,0.955388,-0.147130,0.190406)"
     style="font-size:12;opacity:0.300759;"
     id="g621">
    <ellipse
       cx="33.55990219"
       cy="15.82329082"
       rx="11.42656231"
       ry="11.42656231"
       transform="translate(-1.079675,0.179946)"
       style="fill-rule:evenodd;stroke:#000000;stroke-width:1.875;"
       id="path618" />
    <path
       d="M 22.313287 26.889961 C 28.429738 30.095886 34.06975 30.428896 41.927386 27.78969 C 46.126123 32.588247 48.705347 35.227453 53.623867 39.306226 C 49.605076 37.266839 42.685031 32.285612 42.467223 36.786983 C 42.107332 44.404691 44.626574 51.842454 46.785924 59.280216 C 41.44753 54.121768 36.814399 52.455443 31.31058 52.262327 C 26.557485 52.095552 22.913106 55.381389 20.513828 59.640108 C 17.274803 49.923031 17.956317 24.478083 22.313287 26.889961 z "
       style="fill-rule:evenodd;stroke:#000000;stroke-width:1.875;"
       id="path619" />
  </g>
  <ellipse
     cx="33.55990219"
     cy="15.82329082"
     rx="11.42656231"
     ry="11.42656231"
     transform="matrix(0.955388,0.000000,0.000000,0.955388,-2.725901,-1.528773)"
     style="font-size:12;fill:url(#linearGradient566);fill-opacity:0.75;fill-rule:evenodd;stroke:#261933;stroke-width:1.875;"
     id="path613" />
  <path
     d="M 19.623444 23.989643 C 25.467026 27.052544 30.855423 27.370698 38.362511 24.849233 C 42.373932 29.433715 44.838091 31.95518 49.537184 35.851989 C 45.697681 33.903584 39.086356 29.144581 38.878265 33.445135 C 38.534429 40.722999 40.941282 47.828945 43.004298 54.934891 C 37.904062 50.006574 33.477627 48.414587 28.219346 48.230087 C 23.678298 48.070752 20.196504 51.21 17.904264 55.278727 C 14.809739 45.995153 15.460849 21.685365 19.623444 23.989643 z "
     style="font-size:12;fill:url(#linearGradient569);fill-opacity:0.75;fill-rule:evenodd;stroke:#261933;stroke-width:1.79135;"
     id="path615" />
  <path
     d="M 27.87551 4.7348226 C 24.838292 5.5371069 22.316827 6.8551452 20.826871 10.2362 C 19.852669 13.330725 20.081892 16.081413 22.030297 19.00402 C 21.457236 16.253332 21.909378 12.973633 22.889888 10.580036 C 23.857782 8.2172329 25.01021 6.5686152 27.87551 4.7348226 z "
     style="font-size:12;fill:url(#linearGradient573);fill-opacity:0.75;fill-rule:evenodd;stroke-width:1pt;"
     id="path616" />
  <path
     d="M 18.9438 50.988805 C 16.995396 42.736739 17.329775 25.748721 21.350653 26.920278 C 24.890199 28.102929 27.310479 28.46754 33.90067 28.123705 C 28.800435 31.619371 26.067657 29.612951 23.929424 30.014804 C 18.947039 31.351769 19.001106 43.99747 18.9438 50.988805 z "
     style="font-size:12;fill:url(#linearGradient575);fill-opacity:0.75;fill-rule:evenodd;stroke-width:1pt;"
     id="path617" />
</svg>
