<?xml version="1.0" encoding="UTF-8" standalone="no"?>
<!DOCTYPE svg PUBLIC "-//W3C//DTD SVG 20010904//EN"
"http://www.w3.org/TR/2001/REC-SVG-20010904/DTD/svg10.dtd">
<!-- Created with Sodipodi ("http://www.sodipodi.com/") -->
<svg
   version="1.0"
   x="0"
   y="0"
   width="48pt"
   height="48pt"
   id="svg1"
   sodipodi:version="0.32"
   inkscape:version="0.39"
   sodipodi:docname="galeon.svg"
   sodipodi:docbase="/home/stefan/software/Lila-themes/lila-gnome/Lila/scalable/apps"
   xmlns="http://www.w3.org/2000/svg"
   xmlns:inkscape="http://www.inkscape.org/namespaces/inkscape"
   xmlns:sodipodi="http://sodipodi.sourceforge.net/DTD/sodipodi-0.dtd"
   xmlns:xlink="http://www.w3.org/1999/xlink"
   xmlns:rdf="http://www.w3.org/1999/02/22-rdf-syntax-ns#"
   xmlns:cc="http://web.resource.org/cc/"
   xmlns:dc="http://purl.org/dc/elements/1.1/">
  <sodipodi:namedview
     id="base"
     pagecolor="#ffffff"
     bordercolor="#666666"
     borderopacity="1.0"
     inkscape:pageopacity="0.0"
     inkscape:pageshadow="2"
     inkscape:zoom="4.9119411"
     inkscape:cx="31.296496"
     inkscape:cy="22.575997"
     inkscape:window-width="640"
     inkscape:window-height="526"
     inkscape:window-x="194"
     inkscape:window-y="442" />
  <defs
     id="defs3">
    <linearGradient
       id="linearGradient650">
      <stop
         style="stop-color:#3f3f7f;stop-opacity:1;"
         offset="0"
         id="stop651" />
      <stop
         style="stop-color:#ffffff;stop-opacity:1;"
         offset="1"
         id="stop652" />
    </linearGradient>
    <linearGradient
       id="linearGradient711">
      <stop
         style="stop-color:#003300;stop-opacity:0.6;"
         offset="0"
         id="stop712" />
      <stop
         style="stop-color:#003300;stop-opacity:1;"
         offset="1"
         id="stop713" />
    </linearGradient>
    <linearGradient
       id="linearGradient707">
      <stop
         style="stop-color:#3fbf3f;stop-opacity:1.0000000;"
         offset="0.0000000"
         id="stop708" />
      <stop
         style="stop-color:#7fff7f;stop-opacity:1;"
         offset="1"
         id="stop709" />
    </linearGradient>
    <linearGradient
       id="linearGradient570">
      <stop
         style="stop-color:#ffffff;stop-opacity:1;"
         offset="0"
         id="stop571" />
      <stop
         style="stop-color:#ffffff;stop-opacity:0;"
         offset="1"
         id="stop572" />
    </linearGradient>
    <linearGradient
       id="linearGradient563">
      <stop
         style="stop-color:#d9cce6;stop-opacity:1;"
         offset="0.00000000"
         id="stop564" />
      <stop
         style="stop-color:#73667f;stop-opacity:1;"
         offset="1.00000000"
         id="stop565" />
    </linearGradient>
    <linearGradient
       x1="0.03846154"
       y1="0.07031250"
       x2="0.98461539"
       y2="0.96875000"
       id="linearGradient566"
       xlink:href="#linearGradient563" />
    <linearGradient
       x1="0.006536"
       y1="0.015625"
       x2="0.849673"
       y2="0.867188"
       id="linearGradient569"
       xlink:href="#linearGradient570" />
    <linearGradient
       id="linearGradient573"
       xlink:href="#linearGradient563"
       x1="1.96644123e-9"
       y1="-1.26793864e-9"
       x2="1"
       y2="-1.26793864e-9" />
    <linearGradient
       id="linearGradient575"
       xlink:href="#linearGradient570"
       x1="7.29962951e-3"
       y1="3.28290298e-7"
       x2="0.89781022"
       y2="0.875" />
    <linearGradient
       id="linearGradient578"
       xlink:href="#linearGradient570"
       x1="1.73982717e-2"
       y1="2.40747395e-5"
       x2="0.88695693"
       y2="0.82812494" />
    <linearGradient
       xlink:href="#linearGradient707"
       id="linearGradient706"
       x1="-2.05214734e-10"
       y1="1.22491656e-7"
       x2="1"
       y2="1.22491656e-7" />
    <linearGradient
       xlink:href="#linearGradient711"
       id="linearGradient710"
       x1="0.13931887"
       y1="0.21904872"
       x2="0.75851387"
       y2="0.38095272" />
    <linearGradient
       xlink:href="#linearGradient563"
       id="linearGradient653"
       x1="0.0037735850"
       y1="0.0075757578"
       x2="0.98867923"
       y2="0.99242425" />
  </defs>
  <g
     id="g687"
     transform="translate(0.801302,0.598016)">
    <ellipse
       cx="321.926392"
       cy="313.069977"
       rx="278.198608"
       ry="278.198578"
       transform="matrix(2.088849e-2,0,0,2.331566e-2,34.37777,0.692434)"
       style="font-size:12;fill:#000000;fill-rule:evenodd;stroke:#000000;stroke-width:84.962;stroke-opacity:0.3;stroke-dasharray:none;fill-opacity:0.3;"
       id="ellipse723" />
    <ellipse
       cx="286.926392"
       cy="278.069977"
       rx="278.198608"
       ry="278.198578"
       transform="matrix(2.088849e-2,0,0,2.331566e-2,34.37777,0.692434)"
       style="font-size:12;fill:url(#linearGradient566);fill-rule:evenodd;stroke:#261933;stroke-width:84.962;stroke-opacity:1;stroke-dasharray:none;"
       id="ellipse683" />
    <path
       d="M 36.3431 10.84396 C 36.27185 10.59082 33.57356 4.866038 38.70232 1.932174 C 41.02766 0.589252 44.46308 3.078853 44.84524 4.568801 C 44.90408 4.794211 42.5211 1.576421 39.12521 3.355959 C 34.7039 5.657767 36.40539 11.0654 36.3431 10.84396 z "
       style="font-size:12;opacity:0.7;fill:url(#linearGradient569);fill-rule:evenodd;stroke:none;stroke-width:0.0998909pt;"
       id="path684" />
  </g>
  <path
     style="fill:#000000;fill-rule:evenodd;stroke:#000000;stroke-opacity:0.3;stroke-width:1.875;stroke-linejoin:miter;stroke-linecap:butt;fill-opacity:0.298;stroke-dasharray:none;"
     d="M 42.3395 23.4334 C 40.7095 21.91453 37.56027 20.90016 35.20123 20.92536 C 28.78057 21.27405 20.98255 23.6185 16.29448 28.25655 C 11.61 32.99287 12.64026 39.16637 13.01474 41.37552 C 13.57186 45.16165 16.08538 49.52804 18.99545 52.17938 C 21.99286 55.0596 24.47161 56.56526 28.83467 57.19546 C 38.3437 58.41153 41.83574 57.00381 44.46168 51.40768 C 45.56598 49.04987 45.95114 45.77358 45.61924 43.49771 C 45.50098 42.68676 44.69406 41.88292 43.1112 42.14722 C 41.38261 42.46746 38.13623 43.14266 37.9022 44.84819 C 36.75213 52.47947 33.50964 50.70133 32.46188 49.10513 C 31.74984 47.90221 28.84748 45.89322 30.9959 43.72869 C 34.29421 40.24763 37.16116 38.48587 40.79609 34.23726 C 42.11293 32.69809 43.42043 30.7222 43.68998 28.83533 C 43.93489 27.12091 43.53908 24.5512 42.3395 23.4334 z "
     id="path691"
     sodipodi:nodetypes="cssssssssssssss" />
  <path
     style="fill:url(#linearGradient573);fill-rule:evenodd;stroke:#261933;stroke-opacity:1;stroke-width:1.875;stroke-linejoin:miter;stroke-linecap:butt;fill-opacity:1;stroke-dasharray:none;"
     d="M 41.402 22.4959 C 39.772 20.97703 36.62277 19.96266 34.26373 19.98786 C 27.84307 20.33655 20.04505 22.681 15.35698 27.31905 C 10.6725 32.05537 11.70276 38.22887 12.07724 40.43802 C 12.63436 44.22415 15.14788 48.59054 18.05795 51.24188 C 21.05536 54.1221 23.53411 55.62776 27.89717 56.25796 C 37.4062 57.47403 40.89824 56.06631 43.52418 50.47018 C 44.62848 48.11237 45.01364 44.83608 44.68174 42.56021 C 44.56348 41.74926 43.75656 40.94542 42.1737 41.20972 C 40.44511 41.52996 37.19873 42.20516 36.9647 43.91069 C 35.81463 51.54197 32.57214 49.76383 31.52438 48.16763 C 30.81234 46.96471 27.90998 44.95572 30.0584 42.79119 C 33.35671 39.31013 36.22366 37.54837 39.85859 33.29976 C 41.17543 31.76059 42.48293 29.7847 42.75248 27.89783 C 42.99739 26.18341 42.60158 23.6137 41.402 22.4959 z "
     id="path727"
     sodipodi:nodetypes="cssssssssssssss" />
  <path
     style="opacity:0.7;fill:url(#linearGradient578);fill-rule:evenodd;stroke:none;stroke-opacity:1;stroke-width:0.125;stroke-linejoin:miter;stroke-linecap:butt;fill-opacity:1;stroke-dasharray:none;"
     d="M 37.35334 48.64829 C 37.67928 46.46213 38.01732 44.82144 38.73471 43.92535 C 39.62978 42.43779 41.84801 42.5077 43.13535 42.63866 C 43.55202 42.6798 40.69168 43.54454 39.45221 44.8076 C 38.24566 46.03712 36.93037 50.7949 37.35334 48.64829 z "
     id="path693"
     sodipodi:nodetypes="cssss" />
  <ellipse
     cx="286.926392"
     cy="278.069977"
     rx="278.198608"
     ry="278.198578"
     transform="matrix(3.302443e-2,0,0,3.302443e-2,40.39891,20.3243)"
     style="font-size:12;opacity:0.302675;fill-rule:evenodd;stroke-width:56.776;stroke:#000000;stroke-opacity:1;stroke-dasharray:none;"
     id="path1023" />
  <ellipse
     cx="286.926392"
     cy="278.069977"
     rx="278.198608"
     ry="278.198578"
     transform="matrix(3.302443e-2,0,0,3.302443e-2,39.59668,19.33106)"
     style="font-size:12;fill:url(#linearGradient653);fill-rule:evenodd;stroke:#261933;stroke-width:56.776;stroke-opacity:1;stroke-dasharray:none;"
     id="path983" />
  <path
     d="M 42.82838 22.92858 C 43.12658 22.76114 43.45422 23.35301 43.85745 23.40959 C 44.21758 23.46009 45.09327 22.88719 45.56379 23.15971 C 45.87558 23.29506 45.61028 24.48461 45.51534 25.1968 C 45.39583 25.76841 45.01418 26.58714 44.77546 27.2959 C 44.65135 27.60641 43.78896 28.73144 43.75371 28.80289 C 43.71852 28.87427 44.09167 29.82765 43.85943 29.9454 C 43.61738 30.09056 43.31844 28.69515 42.80246 28.30299 C 42.57981 28.16759 42.06639 28.23037 41.88643 28.37448 C 41.67202 28.4923 41.85655 29.72715 42.16825 30.08823 C 42.48778 30.57381 42.96896 30.94733 43.2605 31.44489 C 43.63834 32.08985 43.87117 32.8255 44.1765 33.51579 C 44.1765 33.51579 43.92451 34.39693 43.95977 34.39693 C 43.99501 34.39693 44.49359 35.40804 44.49359 35.40804 C 43.46987 34.62006 42.64575 33.85122 41.95689 32.90881 C 41.47137 32.24454 41.08413 31.33297 40.97038 30.58804 C 40.93148 30.33327 41.40172 30.18043 41.49887 29.9097 C 41.67701 29.45836 40.7429 28.33818 40.70515 27.97224 C 40.65878 27.57818 40.894 26.0017 41.42841 25.054 C 41.81102 24.31373 42.25754 23.24905 42.82838 22.92858 z "
     style="font-size:12;opacity:0.504459;fill:#261933;fill-rule:evenodd;stroke:#261933;stroke-width:0.125;fill-opacity:1;stroke-opacity:1;stroke-dasharray:none;"
     id="path565" />
  <path
     d="M 49.19005 25.63034 C 48.99275 25.91177 48.78161 26.41554 48.89804 26.68157 C 49.02491 26.97135 49.57371 27.29202 49.91994 27.29792 C 50.27933 27.30409 50.64622 26.90416 51.01481 26.71788 C 51.33963 26.55374 51.65296 26.3022 52.00019 26.24656 C 52.40722 26.18136 52.98378 26.16082 53.27752 26.35538 C 53.49469 26.49923 53.58114 26.97649 53.53301 27.26171 C 53.431 27.47921 53.0896 27.66644 53.20452 27.80551 C 53.30512 27.89024 54.00328 27.37924 54.11691 27.08047 C 54.2101 26.83547 53.76786 26.4862 53.82495 26.1741 C 53.8711 25.96796 54.6294 26.02008 54.88334 26.06539 C 55.09282 26.116 55.29622 26.63203 55.50382 26.60916 C 55.69399 26.60916 56.16875 25.99954 56.22019 26.0024 C 56.4182 26.03488 56.56213 26.60916 56.56213 26.60916 C 56.22146 26.92335 55.94664 27.35464 55.54027 27.55175 C 54.90044 27.86214 54.1453 28.04903 53.42353 28.1318 C 52.24757 28.26659 50.8534 27.79222 49.84694 28.20428 C 49.05293 28.52941 48.03374 29.60003 48.02217 30.34324 C 48.00941 31.15888 48.54205 32.54506 49.49718 32.62891 C 50.65345 32.75529 51.86179 33.01394 52.27841 33.54307 C 52.6039 33.95651 52.22456 35.5144 52.27699 36.02951 C 52.2967 36.20029 52.79708 35.89773 53.09507 35.74495 C 53.55137 35.51105 54.10333 35.04919 54.26288 34.54859 C 54.56561 33.59906 54.59967 32.42138 54.48191 31.39458 C 54.3807 30.5121 53.49867 28.91469 53.60605 28.82061 C 53.70545 28.73347 54.48644 30.499 55.10229 30.85081 C 55.45964 31.05487 56.27966 30.75405 56.52565 30.48821 C 56.69334 30.30697 56.22443 29.61496 56.34316 29.50941 C 56.4556 29.40947 57.1699 30.10987 57.21906 29.87199 C 57.61066 28.0658 57.24258 26.7321 56.60243 25.05982 C 56.07859 23.78343 54.59363 22.02634 53.00807 21.16506 C 52.7848 21.04269 51.81722 21.58425 51.07059 22.05864 C 50.64495 22.27025 50.20268 22.90747 50.42126 23.06038 C 50.61396 23.21141 51.18519 22.70189 51.58943 22.61144 C 52.31409 22.43937 52.65078 22.53265 53.20452 22.80253 C 53.20452 22.80253 53.98935 23.44768 53.64247 23.92635 C 53.42227 24.2161 52.6936 24.21638 52.6936 24.21638 C 52.53544 24.13186 52.37043 23.93072 52.21913 23.96263 C 51.96905 24.01537 51.75792 24.35063 51.48925 24.47022 C 50.94281 24.71326 50.30418 24.76292 49.77394 25.05029 C 49.47411 25.11903 49.31291 25.44501 49.19005 25.63034 z "
     style="font-size:12;opacity:0.5;fill:#261933;fill-rule:evenodd;stroke:#003300;stroke-width:0.125;fill-opacity:1;stroke-opacity:1;stroke-dasharray:none;"
     id="path566" />
  <path
     style="opacity:0.7;fill:url(#linearGradient575);fill-rule:evenodd;stroke:none;stroke-opacity:1;stroke-width:.1pt;stroke-linejoin:miter;stroke-linecap:butt;fill-opacity:1;"
     d="M 15.88012 44.58038 C 13.28414 38.56479 12.1972 33.12844 16.59604 28.23951 C 19.16778 25.26686 28.89185 20.66757 34.86029 21.88932 C 36.15151 22.15827 25.8018 22.0523 17.80043 30.09816 C 12.51828 35.54772 16.5673 46.23849 15.88012 44.58038 z "
     id="path692"
     sodipodi:nodetypes="cssss" />
  <path
     d="M 41.94779 33.46124 C 41.82552 33.09448 37.19429 24.80002 45.9971 20.54923 C 49.98825 18.60351 55.8847 22.21062 56.54062 24.36936 C 56.64164 24.69595 52.55153 20.03379 46.72294 22.61211 C 39.13434 25.94713 42.05473 33.78209 41.94779 33.46124 z "
     style="font-size:12;opacity:0.7;fill:url(#linearGradient569);fill-rule:evenodd;stroke:none;stroke-width:0.0998909pt;"
     id="path984" />
  <path
     style="fill:#000000;fill-rule:evenodd;stroke:#000000;stroke-opacity:0.3;stroke-width:1.875;stroke-linejoin:miter;stroke-linecap:butt;fill-opacity:0.3;stroke-dasharray:none;"
     d="M 11.74368 43.76881 L 9.2641 44.69888 C 7.433968 45.38534 6.458163 46.26453 7.294251 47.25351 C 8.237597 48.56204 10.69506 48.08856 12.33522 47.47955 L 30.35127 40.79 L 27.26571 36.7378 L 42.88681 37.08694 L 36.02608 48.29711 L 33.16656 44.71717 L 13.36821 52.1454 C 10.9159 53.0655 5.66113 54.11563 2.64859 49.62057 C 1.38588 47.65618 0.910482 43.13618 4.271209 41.69604 L 9.747871 39.34919 "
     id="path704"
     sodipodi:nodetypes="cssscccccsssc" />
  <path
     style="fill:url(#linearGradient706);fill-rule:evenodd;stroke:#003300;stroke-opacity:1;stroke-width:1.875;stroke-linejoin:round;stroke-linecap:round;fill-opacity:1;stroke-dasharray:none;"
     d="M 8.8103710,38.411690 L 10.806180,42.831310 L 8.3266000,43.761380 C 6.4964680,44.447840 5.5206630,45.327030 6.3567510,46.316010 C 7.3000970,47.624540 9.7575620,47.151060 11.397720,46.542050 L 29.413770,39.852500 L 26.328210,35.800300 L 41.949310,36.149440 L 35.088580,47.359610 L 32.229060,43.779670 L 12.430710,51.207900 C 9.9784020,52.128000 4.7236300,53.178130 1.7110900,48.683070 C 0.44838000,46.718680 -0.027018000,42.198680 3.3337090,40.758540 L 8.8103710,38.411690 z "
     id="path654"
     sodipodi:nodetypes="ccssscccccsssz" />
  <g
     id="g714"
     transform="translate(-2.628536,1.513138)">
    <ellipse
       cx="17pt"
       cy="10.75pt"
       rx="2.25pt"
       ry="3.75pt"
       style="fill:#000000;fill-rule:evenodd;stroke:#000000;stroke-width:1.5pt;stroke-opacity:0.3;stroke-dasharray:none;fill-opacity:0.3;"
       id="ellipse686" />
    <ellipse
       cx="16.25pt"
       cy="10pt"
       rx="2.25pt"
       ry="3.75pt"
       style="fill:url(#linearGradient566);fill-rule:evenodd;stroke:#261933;stroke-width:1.5pt;stroke-opacity:1;stroke-dasharray:none;"
       id="ellipse725" />
    <path
       d="M 18.7946 14.24513 C 18.76747 14.09615 17.73961 10.72711 19.69333 9.000532 C 20.57914 8.210222 21.88783 9.675344 22.0334 10.55218 C 22.05581 10.68483 21.14804 8.791168 19.85444 9.838426 C 18.17019 11.19302 18.81834 14.37543 18.7946 14.24513 z "
       style="font-size:12;opacity:0.7;fill:url(#linearGradient569);fill-rule:evenodd;stroke:none;stroke-width:0.0998909pt;"
       id="path701" />
  </g>
  <g
     id="g717"
     transform="translate(-1.413011,0.62305)">
    <ellipse
       cx="24pt"
       cy="8pt"
       rx="3pt"
       ry="4.25pt"
       style="opacity:0.3;fill:#000000;fill-rule:evenodd;stroke:#000000;stroke-width:1.875;stroke-opacity:1;stroke-dasharray:none;fill-opacity:1;"
       id="ellipse724" />
    <ellipse
       cx="23.25pt"
       cy="7.25pt"
       rx="3pt"
       ry="4.25pt"
       style="fill:url(#linearGradient566);fill-rule:evenodd;stroke:#261933;stroke-width:1.5pt;stroke-opacity:1;stroke-dasharray:none;"
       id="ellipse685" />
    <path
       d="M 26.66559 11.9001 C 26.62586 11.70223 25.12075 7.227433 27.98161 4.934174 C 29.27872 3.884477 31.19506 5.830468 31.40822 6.995089 C 31.44103 7.171276 30.11177 4.656096 28.21753 6.047074 C 25.75125 7.846261 26.70035 12.07317 26.66559 11.9001 z "
       style="font-size:12;opacity:0.7;fill:url(#linearGradient569);fill-rule:evenodd;stroke:none;stroke-width:0.0998909pt;"
       id="path703" />
  </g>
  <g
     id="g720"
     transform="translate(-2.645225,2.383757)">
    <ellipse
       cx="10.5pt"
       cy="15pt"
       rx="2pt"
       ry="3pt"
       style="fill:#000000;fill-rule:evenodd;stroke:#000000;stroke-width:1.5pt;stroke-opacity:0.3;stroke-dasharray:none;fill-opacity:0.3;"
       id="ellipse690"
       transform="translate(0.9375,0.9375)" />
    <ellipse
       cx="10.5pt"
       cy="15pt"
       rx="2pt"
       ry="3pt"
       style="fill:url(#linearGradient566);fill-rule:evenodd;stroke:#261933;stroke-width:1.5pt;stroke-opacity:1;stroke-dasharray:none;"
       id="ellipse726" />
    <path
       d="M 11.80244 20.72997 C 11.77891 20.59907 10.8874 17.63867 12.58194 16.12152 C 13.35024 15.42707 14.48531 16.71448 14.61157 17.48496 C 14.63101 17.60152 13.84367 15.93755 12.72167 16.85778 C 11.26086 18.04808 11.82303 20.84447 11.80244 20.72997 z "
       style="font-size:12;opacity:0.7;fill:url(#linearGradient569);fill-rule:evenodd;stroke:none;stroke-width:0.0998909pt;"
       id="path700" />
  </g>
  <metadata
     id="metadata54">
    <rdf:RDF
       id="RDF55">
      <cc:Work
         rdf:about=""
         id="Work56">
        <dc:format
           id="format57">image/svg+xml</dc:format>
        <dc:type
           id="type59"
           rdf:resource="http://purl.org/dc/dcmitype/StillImage" />
      </cc:Work>
    </rdf:RDF>
  </metadata>
</svg>
