<?xml version="1.0" encoding="UTF-8" standalone="no"?>
<!DOCTYPE svg PUBLIC "-//W3C//DTD SVG 20010904//EN"
"http://www.w3.org/TR/2001/REC-SVG-20010904/DTD/svg10.dtd">
<!-- Created with Inkscape (http://www.inkscape.org/) -->
<svg
   id="svg1"
   sodipodi:version="0.32"
   inkscape:version="0.39"
   width="48.000000pt"
   height="48.000000pt"
   sodipodi:docbase="/home/stefan/new-lila-icons/makzu"
   sodipodi:docname="gataxx.svg"
   xmlns="http://www.w3.org/2000/svg"
   xmlns:cc="http://web.resource.org/cc/"
   xmlns:inkscape="http://www.inkscape.org/namespaces/inkscape"
   xmlns:sodipodi="http://sodipodi.sourceforge.net/DTD/sodipodi-0.dtd"
   xmlns:rdf="http://www.w3.org/1999/02/22-rdf-syntax-ns#"
   xmlns:dc="http://purl.org/dc/elements/1.1/"
   xmlns:xlink="http://www.w3.org/1999/xlink">
  <defs
     id="defs3">
    <linearGradient
       id="linearGradient2384">
      <stop
         offset="0.0000000"
         style="stop-color:#ffffff;stop-opacity:1.0000000;"
         id="stop2386" />
      <stop
         offset="1.0000000"
         style="stop-color:#ffffff;stop-opacity:0.0000000;"
         id="stop2385" />
    </linearGradient>
    <linearGradient
       id="linearGradient1731">
      <stop
         offset="0.0000000"
         style="stop-color:#d9cce6;stop-opacity:1.0000000;"
         id="stop1733" />
      <stop
         offset="1.0000000"
         style="stop-color:#73667f;stop-opacity:1.0000000;"
         id="stop1732" />
    </linearGradient>
    <linearGradient
       id="linearGradient1728">
      <stop
         offset="0.0000000"
         style="stop-color:#ffffff;stop-opacity:1.0000000;"
         id="stop1730" />
      <stop
         offset="1.0000000"
         style="stop-color:#d9cce6;stop-opacity:1.0000000;"
         id="stop1729" />
    </linearGradient>
    <linearGradient
       id="linearGradient4672">
      <stop
         style="stop-color:#ffffff;stop-opacity:1.0000000;"
         offset="0.0000000"
         id="stop4673" />
      <stop
         style="stop-color:#ffffff;stop-opacity:0.0000000;"
         offset="1.0000000"
         id="stop4674" />
    </linearGradient>
    <linearGradient
       id="linearGradient1561">
      <stop
         style="stop-color:#ffffff;stop-opacity:1.0000000;"
         offset="0.0000000"
         id="stop1562" />
      <stop
         style="stop-color:#d9cce6;stop-opacity:1.0000000;"
         offset="1.0000000"
         id="stop1563" />
    </linearGradient>
    <linearGradient
       id="linearGradient1556">
      <stop
         style="stop-color:#d9cce6;stop-opacity:1.0000000;"
         offset="0.0000000"
         id="stop1557" />
      <stop
         style="stop-color:#73667f;stop-opacity:1.0000000;"
         offset="1.0000000"
         id="stop1558" />
    </linearGradient>
    <linearGradient
       id="linearGradient1548">
      <stop
         style="stop-color:#000;stop-opacity:1;"
         offset="0"
         id="stop1549" />
      <stop
         style="stop-color:#fff;stop-opacity:1;"
         offset="1"
         id="stop1550" />
    </linearGradient>
    <defs
       id="defs944">
      <linearGradient
         id="linearGradient3442"
         x1="0.0000000"
         y1="0.50000000"
         x2="1.0000000"
         y2="0.50000000"
         gradientUnits="objectBoundingBox"
         spreadMethod="pad"
         xlink:href="#linearGradient2384" />
      <linearGradient
         id="linearGradient1573"
         x1="0.0000000"
         y1="0.50000000"
         x2="1.0000000"
         y2="0.50000000"
         gradientUnits="objectBoundingBox"
         spreadMethod="pad"
         xlink:href="#linearGradient1728" />
      <linearGradient
         id="linearGradient1570"
         x1="0.0000000"
         y1="0.50000000"
         x2="1.0000000"
         y2="0.50000000"
         gradientUnits="objectBoundingBox"
         spreadMethod="pad"
         xlink:href="#linearGradient1731" />
      <linearGradient
         id="linearGradient954">
        <stop
           style="stop-color:#000;stop-opacity:1;"
           offset="0"
           id="stop955" />
        <stop
           style="stop-color:#fff;stop-opacity:1;"
           offset="1"
           id="stop956" />
      </linearGradient>
      <linearGradient
         inkscape:collect="always"
         xlink:href="#linearGradient3442"
         id="linearGradient3441"
         x1="3.9243782e-14"
         y1="0.023437500"
         x2="0.98275864"
         y2="1.0156250" />
      <radialGradient
         inkscape:collect="always"
         xlink:href="#linearGradient1573"
         id="radialGradient4076"
         cx="0.41406250"
         cy="0.35156250"
         r="0.50000000"
         fx="0.42187500"
         fy="0.35937500" />
      <radialGradient
         inkscape:collect="always"
         xlink:href="#linearGradient1570"
         id="radialGradient4077"
         cx="0.39062500"
         cy="0.34375000"
         r="0.50000000"
         fx="0.39062500"
         fy="0.34375000" />
    </defs>
    <sodipodi:namedview
       id="namedview969"
       pagecolor="#ffffff"
       bordercolor="#666666"
       borderopacity="1.0"
       inkscape:pageopacity="0.0"
       inkscape:pageshadow="2"
       inkscape:zoom="9.9583333"
       inkscape:cx="24.000000"
       inkscape:cy="24.663636"
       inkscape:window-width="754"
       inkscape:window-height="644"
       inkscape:window-x="274"
       inkscape:window-y="25" />
    <metadata
       id="metadata970">
      <rdf:RDF
         id="RDF971">
        <cc:Work
           rdf:about=""
           id="Work972">
          <dc:format
             id="format973">image/svg+xml</dc:format>
          <dc:type
             id="type975"
             rdf:resource="http://purl.org/dc/dcmitype/StillImage" />
        </cc:Work>
      </rdf:RDF>
    </metadata>
    <radialGradient
       inkscape:collect="always"
       xlink:href="#linearGradient1556"
       id="radialGradient1604"
       cx="0.41406250"
       cy="0.35156250"
       r="0.50000000"
       fx="0.42187500"
       fy="0.35937500" />
  </defs>
  <sodipodi:namedview
     id="base"
     pagecolor="#ffffff"
     bordercolor="#666666"
     borderopacity="1.0"
     inkscape:pageopacity="0.0"
     inkscape:pageshadow="2"
     inkscape:zoom="10.708333"
     inkscape:cx="23.999999"
     inkscape:cy="24.373222"
     inkscape:window-width="823"
     inkscape:window-height="680"
     inkscape:window-x="273"
     inkscape:window-y="67" />
  <metadata
     id="metadata4">
    <rdf:RDF
       id="RDF5">
      <cc:Work
         rdf:about=""
         id="Work6">
        <dc:format
           id="format7">image/svg+xml</dc:format>
        <dc:type
           id="type9"
           rdf:resource="http://purl.org/dc/dcmitype/StillImage" />
      </cc:Work>
    </rdf:RDF>
  </metadata>
  <path
     sodipodi:type="arc"
     style="opacity:0.29999998;fill:#000000;fill-opacity:1.0000000;fill-rule:evenodd;stroke:none;stroke-width:1.1738507;stroke-linecap:round;stroke-linejoin:round;stroke-miterlimit:4.0000000;stroke-opacity:1.0000000;"
     id="path1682"
     sodipodi:cx="9.3388433"
     sodipodi:cy="9.6694212"
     sodipodi:rx="7.8512397"
     sodipodi:ry="7.8512397"
     d="M 17.190083 9.6694212 A 7.8512397 7.8512397 0 1 0 1.4876037,9.6694212 A 7.8512397 7.8512397 0 1 0 17.190083 9.6694212 z"
     transform="matrix(1.106508,0.000000,0.000000,1.106508,2.339981,2.272520)" />
  <path
     sodipodi:type="arc"
     style="opacity:0.29999998;fill:#000000;fill-opacity:1.0000000;fill-rule:evenodd;stroke:none;stroke-width:1.1738507;stroke-linecap:round;stroke-linejoin:round;stroke-miterlimit:4.0000000;stroke-opacity:1.0000000;"
     id="path1687"
     sodipodi:cx="9.3388433"
     sodipodi:cy="9.6694212"
     sodipodi:rx="7.8512397"
     sodipodi:ry="7.8512397"
     d="M 17.190083 9.6694212 A 7.8512397 7.8512397 0 1 0 1.4876037,9.6694212 A 7.8512397 7.8512397 0 1 0 17.190083 9.6694212 z"
     transform="matrix(1.106508,0.000000,0.000000,1.106508,2.339981,40.41559)" />
  <path
     sodipodi:type="arc"
     style="opacity:0.29999998;fill:#000000;fill-opacity:1.0000000;fill-rule:evenodd;stroke:none;stroke-width:1.1738507;stroke-linecap:round;stroke-linejoin:round;stroke-miterlimit:4.0000000;stroke-opacity:1.0000000;"
     id="path1688"
     sodipodi:cx="9.3388433"
     sodipodi:cy="9.6694212"
     sodipodi:rx="7.8512397"
     sodipodi:ry="7.8512397"
     d="M 17.190083 9.6694212 A 7.8512397 7.8512397 0 1 0 1.4876037,9.6694212 A 7.8512397 7.8512397 0 1 0 17.190083 9.6694212 z"
     transform="matrix(1.106508,0.000000,0.000000,1.106508,21.65949,40.41559)" />
  <path
     sodipodi:type="arc"
     style="opacity:0.29999998;fill:#000000;fill-opacity:1.0000000;fill-rule:evenodd;stroke:none;stroke-width:1.1738507;stroke-linecap:round;stroke-linejoin:round;stroke-miterlimit:4.0000000;stroke-opacity:1.0000000;"
     id="path1681"
     sodipodi:cx="9.3388433"
     sodipodi:cy="9.6694212"
     sodipodi:rx="7.8512397"
     sodipodi:ry="7.8512397"
     d="M 17.190083 9.6694212 A 7.8512397 7.8512397 0 1 0 1.4876037,9.6694212 A 7.8512397 7.8512397 0 1 0 17.190083 9.6694212 z"
     transform="matrix(1.106508,0.000000,0.000000,1.106508,2.339981,21.34405)" />
  <path
     sodipodi:type="arc"
     style="fill:url(#radialGradient4077);fill-opacity:1.00000000;fill-rule:evenodd;stroke:#261933;stroke-width:1.6945201;stroke-linecap:round;stroke-linejoin:round;stroke-miterlimit:4.0000000;stroke-opacity:1.0000000;stroke-dasharray:none;"
     id="path931"
     sodipodi:cx="9.3388433"
     sodipodi:cy="9.6694212"
     sodipodi:rx="7.8512397"
     sodipodi:ry="7.8512397"
     d="M 17.190083 9.6694212 A 7.8512397 7.8512397 0 1 0 1.4876037,9.6694212 A 7.8512397 7.8512397 0 1 0 17.190083 9.6694212 z"
     transform="matrix(1.106508,0.000000,0.000000,1.106508,-0.687043,18.21631)" />
  <path
     sodipodi:type="arc"
     style="fill:url(#radialGradient1604);fill-opacity:1.00000000;fill-rule:evenodd;stroke:#261933;stroke-width:1.6945201;stroke-linecap:round;stroke-linejoin:round;stroke-miterlimit:4.0000000;stroke-opacity:1.0000000;stroke-dasharray:none;"
     id="path927"
     sodipodi:cx="9.3388433"
     sodipodi:cy="9.6694212"
     sodipodi:rx="7.8512397"
     sodipodi:ry="7.8512397"
     d="M 17.190083 9.6694212 A 7.8512397 7.8512397 0 1 0 1.4876037,9.6694212 A 7.8512397 7.8512397 0 1 0 17.190083 9.6694212 z"
     transform="matrix(1.106508,0.000000,0.000000,1.106508,-0.687043,-0.855217)" />
  <path
     style="fill:url(#linearGradient3441);fill-opacity:1.0000000;fill-rule:evenodd;stroke:none;stroke-width:1.0000000pt;stroke-linecap:butt;stroke-linejoin:miter;stroke-opacity:1.0000000;"
     d="M 5.3450157,15.690050 C 2.9772500,13.722164 1.8760878,8.7503971 4.7156866,5.5356158 C 7.5331281,2.3459181 12.559294,2.7991478 14.275063,4.4447095 C 11.701406,3.5625526 8.3273843,4.5601551 6.4657722,6.5025941 C 4.6283339,8.4198119 3.6635606,12.144461 5.3450157,15.690050 z "
     id="path2387"
     sodipodi:nodetypes="czczc"
     transform="matrix(1.022889,0.000000,0.000000,1.022889,-0.676376,-0.676379)" />
  <path
     sodipodi:type="arc"
     style="opacity:0.29999998;fill:#000000;fill-opacity:1.0000000;fill-rule:evenodd;stroke:none;stroke-width:1.1738507;stroke-linecap:round;stroke-linejoin:round;stroke-miterlimit:4.0000000;stroke-opacity:1.0000000;"
     id="path1683"
     sodipodi:cx="9.3388433"
     sodipodi:cy="9.6694212"
     sodipodi:rx="7.8512397"
     sodipodi:ry="7.8512397"
     d="M 17.190083 9.6694212 A 7.8512397 7.8512397 0 1 0 1.4876037,9.6694212 A 7.8512397 7.8512397 0 1 0 17.190083 9.6694212 z"
     transform="matrix(1.106508,0.000000,0.000000,1.106508,21.65949,2.272520)" />
  <path
     sodipodi:type="arc"
     style="fill:url(#radialGradient4077);fill-opacity:1.00000000;fill-rule:evenodd;stroke:#261933;stroke-width:1.6945201;stroke-linecap:round;stroke-linejoin:round;stroke-miterlimit:4.0000000;stroke-opacity:1.0000000;stroke-dasharray:none;"
     id="path1071"
     sodipodi:cx="9.3388433"
     sodipodi:cy="9.6694212"
     sodipodi:rx="7.8512397"
     sodipodi:ry="7.8512397"
     d="M 17.190083 9.6694212 A 7.8512397 7.8512397 0 1 0 1.4876037,9.6694212 A 7.8512397 7.8512397 0 1 0 17.190083 9.6694212 z"
     transform="matrix(1.106508,0.000000,0.000000,1.106508,18.63247,-0.855217)" />
  <path
     sodipodi:type="arc"
     style="opacity:0.29999998;fill:#000000;fill-opacity:1.0000000;fill-rule:evenodd;stroke:none;stroke-width:1.1738507;stroke-linecap:round;stroke-linejoin:round;stroke-miterlimit:4.0000000;stroke-opacity:1.0000000;"
     id="path1684"
     sodipodi:cx="9.3388433"
     sodipodi:cy="9.6694212"
     sodipodi:rx="7.8512397"
     sodipodi:ry="7.8512397"
     d="M 17.190083 9.6694212 A 7.8512397 7.8512397 0 1 0 1.4876037,9.6694212 A 7.8512397 7.8512397 0 1 0 17.190083 9.6694212 z"
     transform="matrix(1.106508,0.000000,0.000000,1.106508,21.65949,21.34405)" />
  <path
     sodipodi:type="arc"
     style="fill:url(#radialGradient4076);fill-opacity:1.00000000;fill-rule:evenodd;stroke:#261933;stroke-width:1.6945201;stroke-linecap:round;stroke-linejoin:round;stroke-miterlimit:4.0000000;stroke-opacity:1.0000000;stroke-dasharray:none;"
     id="path1068"
     sodipodi:cx="9.3388433"
     sodipodi:cy="9.6694212"
     sodipodi:rx="7.8512397"
     sodipodi:ry="7.8512397"
     d="M 17.190083 9.6694212 A 7.8512397 7.8512397 0 1 0 1.4876037,9.6694212 A 7.8512397 7.8512397 0 1 0 17.190083 9.6694212 z"
     transform="matrix(1.106508,0.000000,0.000000,1.106508,18.63247,18.21631)" />
  <path
     sodipodi:type="arc"
     style="opacity:0.29999998;fill:#000000;fill-opacity:1.0000000;fill-rule:evenodd;stroke:none;stroke-width:1.1738507;stroke-linecap:round;stroke-linejoin:round;stroke-miterlimit:4.0000000;stroke-opacity:1.0000000;"
     id="path1685"
     sodipodi:cx="9.3388433"
     sodipodi:cy="9.6694212"
     sodipodi:rx="7.8512397"
     sodipodi:ry="7.8512397"
     d="M 17.190083 9.6694212 A 7.8512397 7.8512397 0 1 0 1.4876037,9.6694212 A 7.8512397 7.8512397 0 1 0 17.190083 9.6694212 z"
     transform="matrix(1.106508,0.000000,0.000000,1.106508,40.97899,2.272520)" />
  <path
     sodipodi:type="arc"
     style="fill:url(#radialGradient4077);fill-opacity:1.00000000;fill-rule:evenodd;stroke:#261933;stroke-width:1.6945201;stroke-linecap:round;stroke-linejoin:round;stroke-miterlimit:4.0000000;stroke-opacity:1.0000000;stroke-dasharray:none;"
     id="path966"
     sodipodi:cx="9.3388433"
     sodipodi:cy="9.6694212"
     sodipodi:rx="7.8512397"
     sodipodi:ry="7.8512397"
     d="M 17.190083 9.6694212 A 7.8512397 7.8512397 0 1 0 1.4876037,9.6694212 A 7.8512397 7.8512397 0 1 0 17.190083 9.6694212 z"
     transform="matrix(1.106508,0.000000,0.000000,1.106508,37.95197,-0.855217)" />
  <path
     sodipodi:type="arc"
     style="opacity:0.29999998;fill:#000000;fill-opacity:1.0000000;fill-rule:evenodd;stroke:none;stroke-width:1.1738507;stroke-linecap:round;stroke-linejoin:round;stroke-miterlimit:4.0000000;stroke-opacity:1.0000000;"
     id="path1686"
     sodipodi:cx="9.3388433"
     sodipodi:cy="9.6694212"
     sodipodi:rx="7.8512397"
     sodipodi:ry="7.8512397"
     d="M 17.190083 9.6694212 A 7.8512397 7.8512397 0 1 0 1.4876037,9.6694212 A 7.8512397 7.8512397 0 1 0 17.190083 9.6694212 z"
     transform="matrix(1.106508,0.000000,0.000000,1.106508,40.97899,21.34405)" />
  <path
     sodipodi:type="arc"
     style="fill:url(#radialGradient4076);fill-opacity:1.00000000;fill-rule:evenodd;stroke:#261933;stroke-width:1.6945201;stroke-linecap:round;stroke-linejoin:round;stroke-miterlimit:4.0000000;stroke-opacity:1.0000000;stroke-dasharray:none;"
     id="path969"
     sodipodi:cx="9.3388433"
     sodipodi:cy="9.6694212"
     sodipodi:rx="7.8512397"
     sodipodi:ry="7.8512397"
     d="M 17.190083 9.6694212 A 7.8512397 7.8512397 0 1 0 1.4876037,9.6694212 A 7.8512397 7.8512397 0 1 0 17.190083 9.6694212 z"
     transform="matrix(1.106508,0.000000,0.000000,1.106508,37.95197,18.21631)" />
  <path
     sodipodi:type="arc"
     style="fill:url(#radialGradient4077);fill-opacity:1.00000000;fill-rule:evenodd;stroke:#261933;stroke-width:1.6945201;stroke-linecap:round;stroke-linejoin:round;stroke-miterlimit:4.0000000;stroke-opacity:1.0000000;stroke-dasharray:none;"
     id="path972"
     sodipodi:cx="9.3388433"
     sodipodi:cy="9.6694212"
     sodipodi:rx="7.8512397"
     sodipodi:ry="7.8512397"
     d="M 17.190083 9.6694212 A 7.8512397 7.8512397 0 1 0 1.4876037,9.6694212 A 7.8512397 7.8512397 0 1 0 17.190083 9.6694212 z"
     transform="matrix(1.106508,0.000000,0.000000,1.106508,-0.687043,37.28784)" />
  <path
     sodipodi:type="arc"
     style="fill:url(#radialGradient4076);fill-opacity:1.00000000;fill-rule:evenodd;stroke:#261933;stroke-width:1.6945201;stroke-linecap:round;stroke-linejoin:round;stroke-miterlimit:4.0000000;stroke-opacity:1.0000000;stroke-dasharray:none;"
     id="path975"
     sodipodi:cx="9.3388433"
     sodipodi:cy="9.6694212"
     sodipodi:rx="7.8512397"
     sodipodi:ry="7.8512397"
     d="M 17.190083 9.6694212 A 7.8512397 7.8512397 0 1 0 1.4876037,9.6694212 A 7.8512397 7.8512397 0 1 0 17.190083 9.6694212 z"
     transform="matrix(1.106508,0.000000,0.000000,1.106508,18.63247,37.28784)" />
  <path
     sodipodi:type="arc"
     style="opacity:0.29999998;fill:#000000;fill-opacity:1.0000000;fill-rule:evenodd;stroke:none;stroke-width:1.1738507;stroke-linecap:round;stroke-linejoin:round;stroke-miterlimit:4.0000000;stroke-opacity:1.0000000;"
     id="path1689"
     sodipodi:cx="9.3388433"
     sodipodi:cy="9.6694212"
     sodipodi:rx="7.8512397"
     sodipodi:ry="7.8512397"
     d="M 17.190083 9.6694212 A 7.8512397 7.8512397 0 1 0 1.4876037,9.6694212 A 7.8512397 7.8512397 0 1 0 17.190083 9.6694212 z"
     transform="matrix(1.106508,0.000000,0.000000,1.106508,40.97899,40.41559)" />
  <path
     sodipodi:type="arc"
     style="fill:url(#radialGradient4076);fill-opacity:1.00000000;fill-rule:evenodd;stroke:#261933;stroke-width:1.6945201;stroke-linecap:round;stroke-linejoin:round;stroke-miterlimit:4.0000000;stroke-opacity:1.0000000;stroke-dasharray:none;"
     id="path978"
     sodipodi:cx="9.3388433"
     sodipodi:cy="9.6694212"
     sodipodi:rx="7.8512397"
     sodipodi:ry="7.8512397"
     d="M 17.190083 9.6694212 A 7.8512397 7.8512397 0 1 0 1.4876037,9.6694212 A 7.8512397 7.8512397 0 1 0 17.190083 9.6694212 z"
     transform="matrix(1.106508,0.000000,0.000000,1.106508,37.95197,37.28784)" />
  <path
     style="fill:url(#linearGradient3441);fill-opacity:1.0000000;fill-rule:evenodd;stroke:none;stroke-width:1.0000000pt;stroke-linecap:butt;stroke-linejoin:miter;stroke-opacity:1.0000000;"
     d="M 24.252523,15.764827 C 21.884757,13.796941 20.783595,8.8251743 23.623193,5.6103933 C 26.440635,2.4206953 31.466801,2.8739253 33.182570,4.5194863 C 30.608913,3.6373293 27.234891,4.6349323 25.373279,6.5773713 C 23.535841,8.4945893 22.571067,12.219238 24.252523,15.764827 z "
     id="path3733"
     sodipodi:nodetypes="czczc"
     transform="matrix(1.022889,0.000000,0.000000,1.022889,-0.676376,-0.676379)" />
  <path
     style="fill:url(#linearGradient3441);fill-opacity:1.0000000;fill-rule:evenodd;stroke:none;stroke-width:1.0000000pt;stroke-linecap:butt;stroke-linejoin:miter;stroke-opacity:1.0000000;"
     d="M 43.208328,15.844473 C 40.840562,13.876587 39.739400,8.9048202 42.578999,5.6900392 C 45.396440,2.5003412 50.422606,2.9535712 52.138375,4.5991332 C 49.564718,3.7169762 46.190696,4.7145782 44.329084,6.6570172 C 42.491646,8.5742352 41.526873,12.298884 43.208328,15.844473 z "
     id="path3734"
     sodipodi:nodetypes="czczc"
     transform="matrix(1.022889,0.000000,0.000000,1.022889,-0.676376,-0.676379)" />
  <path
     style="fill:url(#linearGradient3441);fill-opacity:1.0000000;fill-rule:evenodd;stroke:none;stroke-width:1.0000000pt;stroke-linecap:butt;stroke-linejoin:miter;stroke-opacity:1.0000000;"
     d="M 43.088858,34.402047 C 40.721092,32.434161 39.619930,27.462394 42.459529,24.247612 C 45.276970,21.057915 50.303136,21.511144 52.018905,23.156706 C 49.445248,22.274549 46.071226,23.272152 44.209614,25.214591 C 42.372176,27.131808 41.407403,30.856458 43.088858,34.402047 z "
     id="path3735"
     sodipodi:nodetypes="czczc"
     transform="matrix(1.022889,0.000000,0.000000,1.022889,-0.676376,-0.676379)" />
  <path
     style="fill:url(#linearGradient3441);fill-opacity:1.0000000;fill-rule:evenodd;stroke:none;stroke-width:1.0000000pt;stroke-linecap:butt;stroke-linejoin:miter;stroke-opacity:1.0000000;"
     d="M 24.292346,34.402047 C 21.924581,32.434161 20.823418,27.462394 23.663017,24.247613 C 26.480459,21.057915 31.506625,21.511145 33.222394,23.156707 C 30.648737,22.274550 27.274715,23.272152 25.413103,25.214591 C 23.575665,27.131809 22.610891,30.856458 24.292346,34.402047 z "
     id="path3736"
     sodipodi:nodetypes="czczc"
     transform="matrix(1.022889,0.000000,0.000000,1.022889,-0.676376,-0.676379)" />
  <path
     style="fill:url(#linearGradient3441);fill-opacity:1.0000000;fill-rule:evenodd;stroke:none;stroke-width:1.0000000pt;stroke-linecap:butt;stroke-linejoin:miter;stroke-opacity:1.0000000;"
     d="M 5.2967184,34.402047 C 2.9289524,32.434161 1.8277902,27.462394 4.6673894,24.247613 C 7.4848304,21.057915 12.510996,21.511145 14.226765,23.156706 C 11.653108,22.274550 8.2790864,23.272152 6.4174744,25.214591 C 4.5800364,27.131809 3.6152634,30.856458 5.2967184,34.402047 z "
     id="path3737"
     sodipodi:nodetypes="czczc"
     transform="matrix(1.022889,0.000000,0.000000,1.022889,-0.676376,-0.676379)" />
  <path
     style="fill:url(#linearGradient3441);fill-opacity:1.0000000;fill-rule:evenodd;stroke:none;stroke-width:1.0000000pt;stroke-linecap:butt;stroke-linejoin:miter;stroke-opacity:1.0000000;"
     d="M 5.3763643,53.039266 C 3.0085986,51.071380 1.9074364,46.099614 4.7470352,42.884832 C 7.5644767,39.695135 12.590643,40.148364 14.306412,41.793926 C 11.732755,40.911769 8.3587329,41.909372 6.4971208,43.851811 C 4.6596825,45.769028 3.6949092,49.493677 5.3763643,53.039266 z "
     id="path3738"
     sodipodi:nodetypes="czczc"
     transform="matrix(1.022889,0.000000,0.000000,1.022889,-0.676376,-0.676379)" />
  <path
     style="fill:url(#linearGradient3441);fill-opacity:1.0000000;fill-rule:evenodd;stroke:none;stroke-width:1.0000000pt;stroke-linecap:butt;stroke-linejoin:miter;stroke-opacity:1.0000000;"
     d="M 24.292346,53.039266 C 21.924580,51.071380 20.823418,46.099614 23.663017,42.884832 C 26.480459,39.695135 31.506624,40.148364 33.222393,41.793926 C 30.648736,40.911769 27.274715,41.909372 25.413103,43.851811 C 23.575664,45.769028 22.610891,49.493677 24.292346,53.039266 z "
     id="path3739"
     sodipodi:nodetypes="czczc"
     transform="matrix(1.022889,0.000000,0.000000,1.022889,-0.676376,-0.676379)" />
  <path
     style="fill:url(#linearGradient3441);fill-opacity:1.0000000;fill-rule:evenodd;stroke:none;stroke-width:1.0000000pt;stroke-linecap:butt;stroke-linejoin:miter;stroke-opacity:1.0000000;"
     d="M 43.128681,53.158736 C 40.760916,51.190850 39.659753,46.219083 42.499352,43.004302 C 45.316794,39.814604 50.342960,40.267834 52.058729,41.913395 C 49.485072,41.031239 46.111050,42.028841 44.249438,43.971280 C 42.412000,45.888498 41.447226,49.613147 43.128681,53.158736 z "
     id="path3740"
     sodipodi:nodetypes="czczc"
     transform="matrix(1.022889,0.000000,0.000000,1.022889,-0.676376,-0.676379)" />
</svg>
