<?xml version="1.0" encoding="UTF-8" standalone="no"?>
<!DOCTYPE svg PUBLIC "-//W3C//DTD SVG 20010904//EN"
"http://www.w3.org/TR/2001/REC-SVG-20010904/DTD/svg10.dtd">
<!-- Created with Inkscape (http://www.inkscape.org/) -->
<svg
   id="svg1"
   sodipodi:version="0.32"
   inkscape:version="0.38.1"
   width="48.000000pt"
   height="48.000000pt"
   sodipodi:docbase="/home/dan/Projects/Lila-icons/scalable/apps"
   sodipodi:docname="gconf-editor.svg"
   xmlns="http://www.w3.org/2000/svg"
   xmlns:inkscape="http://www.inkscape.org/namespaces/inkscape"
   xmlns:sodipodi="http://sodipodi.sourceforge.net/DTD/sodipodi-0.dtd"
   xmlns:xlink="http://www.w3.org/1999/xlink">
  <defs
     id="defs3">
    <linearGradient
       id="linearGradient1118">
      <stop
         style="stop-color:#ffffff;stop-opacity:1.0000000;"
         offset="0.0000000"
         id="stop1119" />
      <stop
         style="stop-color:#d9cce6;stop-opacity:1.0000000;"
         offset="1.0000000"
         id="stop1120" />
    </linearGradient>
    <linearGradient
       id="linearGradient953">
      <stop
         style="stop-color:#ffffff;stop-opacity:1.0000000;"
         offset="0.0000000"
         id="stop954" />
      <stop
         style="stop-color:#ffffff;stop-opacity:0.0000000;"
         offset="1.0000000"
         id="stop955" />
    </linearGradient>
    <linearGradient
       id="linearGradient904">
      <stop
         style="stop-color:#000000;stop-opacity:0.0000000;"
         offset="0.0000000"
         id="stop905" />
      <stop
         style="stop-color:#ffffff;stop-opacity:0.25000000;"
         offset="1.0000000"
         id="stop906" />
    </linearGradient>
    <linearGradient
       id="linearGradient849">
      <stop
         style="stop-color:#ffffff;stop-opacity:1.0000000;"
         offset="0.0000000"
         id="stop850" />
      <stop
         style="stop-color:#4c4c4c;stop-opacity:1.0000000;"
         offset="1.0000000"
         id="stop851" />
    </linearGradient>
    <linearGradient
       id="linearGradient846">
      <stop
         style="stop-color:#73667f;stop-opacity:1.0000000;"
         offset="0.0000000"
         id="stop847" />
      <stop
         style="stop-color:#d9cce6;stop-opacity:1.0000000;"
         offset="1.0000000"
         id="stop848" />
    </linearGradient>
    <linearGradient
       id="linearGradient835">
      <stop
         style="stop-color:#a80000;stop-opacity:1.0000000;"
         offset="0.0000000"
         id="stop836" />
      <stop
         style="stop-color:#f50000;stop-opacity:1.0000000;"
         offset="1.0000000"
         id="stop837" />
    </linearGradient>
    <linearGradient
       xlink:href="#linearGradient846"
       id="linearGradient838"
       x1="-0.17226891"
       y1="0.88995218"
       x2="1.0000000"
       y2="0.50000000"
       spreadMethod="pad"
       gradientUnits="objectBoundingBox" />
    <linearGradient
       xlink:href="#linearGradient953"
       id="linearGradient845"
       x1="0.018348623"
       y1="0.095693782"
       x2="0.47014925"
       y2="0.42583731" />
    <linearGradient
       xlink:href="#linearGradient953"
       id="linearGradient868"
       x1="0.012820513"
       y1="0.019138755"
       x2="0.55448717"
       y2="0.62679428" />
    <linearGradient
       xlink:href="#linearGradient849"
       id="linearGradient901"
       y2="0.43362832"
       x2="0.72522497"
       y1="0.43362832"
       x1="0.38258350"
       spreadMethod="reflect"
       gradientUnits="objectBoundingBox" />
    <linearGradient
       xlink:href="#linearGradient849"
       id="linearGradient903"
       x1="0.39766082"
       y1="0.063492067"
       x2="0.64327484"
       y2="1.2698413" />
    <linearGradient
       xlink:href="#linearGradient849"
       id="linearGradient907"
       x1="0.28747237"
       y1="0.080517083"
       x2="1.0181818"
       y2="0.50239235" />
    <radialGradient
       xlink:href="#linearGradient849"
       id="radialGradient908"
       cx="0.50000000"
       cy="0.50000000"
       r="0.71299905"
       fx="0.50000000"
       fy="0.50000000" />
    <radialGradient
       xlink:href="#linearGradient953"
       id="radialGradient957" />
    <linearGradient
       xlink:href="#linearGradient846"
       id="linearGradient965"
       x1="0.20760234"
       y1="1.3167702"
       x2="0.71929824"
       y2="0.049689442" />
    <linearGradient
       xlink:href="#linearGradient849"
       id="linearGradient978"
       x1="0.25885257"
       y1="0.063993432"
       x2="1.0181818"
       y2="0.50239235" />
    <linearGradient
       xlink:href="#linearGradient849"
       id="linearGradient884"
       x1="0.35632184"
       y1="0.33492824"
       x2="0.99532712"
       y2="0.99521530" />
    <radialGradient
       xlink:href="#linearGradient953"
       id="radialGradient965" />
    <radialGradient
       xlink:href="#linearGradient953"
       id="radialGradient966" />
    <radialGradient
       xlink:href="#linearGradient953"
       id="radialGradient967" />
    <radialGradient
       xlink:href="#linearGradient953"
       id="radialGradient968" />
    <radialGradient
       xlink:href="#linearGradient953"
       id="radialGradient969" />
    <radialGradient
       xlink:href="#linearGradient953"
       id="radialGradient970" />
    <radialGradient
       xlink:href="#linearGradient953"
       id="radialGradient971" />
    <radialGradient
       xlink:href="#linearGradient953"
       id="radialGradient972" />
    <radialGradient
       xlink:href="#linearGradient953"
       id="radialGradient973" />
    <radialGradient
       xlink:href="#linearGradient953"
       id="radialGradient974" />
    <linearGradient
       xlink:href="#linearGradient953"
       id="linearGradient1049"
       x1="0.023391813"
       y1="0.028985508"
       x2="0.60000002"
       y2="0.51674640" />
    <linearGradient
       xlink:href="#linearGradient953"
       id="linearGradient1086"
       x1="0.0069444445"
       y1="0.0077519380"
       x2="0.55072463"
       y2="0.55038762" />
    <linearGradient
       xlink:href="#linearGradient953"
       id="linearGradient1089"
       x1="0.0032894737"
       y1="-1.3300819e-13"
       x2="0.99671054"
       y2="1.0000000" />
    <linearGradient
       xlink:href="#linearGradient953"
       id="linearGradient1091"
       x1="0.029411765"
       y1="0.015503876"
       x2="1.0588236"
       y2="0.97674417" />
    <linearGradient
       xlink:href="#linearGradient953"
       id="linearGradient1094"
       x1="-0.11184210"
       y1="-0.26229507"
       x2="0.58223683"
       y2="0.54098362" />
    <linearGradient
       xlink:href="#linearGradient953"
       id="linearGradient1096"
       x1="0.016949153"
       y1="1.2484722e-15"
       x2="0.95762712"
       y2="0.96124029" />
  </defs>
  <sodipodi:namedview
     id="base"
     pagecolor="#ffffff"
     bordercolor="#666666"
     borderopacity="1.0"
     inkscape:pageopacity="0.0"
     inkscape:pageshadow="2"
     inkscape:zoom="5.6568542"
     inkscape:cx="29.959980"
     inkscape:cy="33.816004"
     inkscape:window-width="582"
     inkscape:window-height="525"
     inkscape:window-x="203"
     inkscape:window-y="116" />
  <path
     style="fill:#000000;fill-opacity:0.30000001;fill-rule:evenodd;stroke:none;stroke-width:1.2586827pt;"
     d="M 44.178539,4.8345646 L 41.804501,8.3467283 C 41.167220,9.2604620 42.092437,11.025490 42.820654,12.062041 C 42.828844,12.073689 42.844046,12.082138 42.852409,12.093796 L 40.629572,15.396296 C 38.361385,13.418307 38.525511,10.513750 38.202974,10.188507 C 38.202974,10.188507 6.8387250,33.415782 6.0168282,36.386225 C 4.9861259,40.111336 5.7485869,44.502305 5.7627897,48.611826 L 5.6992801,48.611826 L 5.6992801,54.137163 C 5.6992790,55.674596 6.2913808,56.747446 7.7315880,56.741057 L 12.050242,56.709302 L 12.050242,58.551081 C 12.050242,59.164096 12.548646,59.662500 13.161660,59.662500 L 15.384497,59.662500 C 15.997511,59.662501 16.464161,59.164096 16.464161,58.551081 L 16.464161,56.709302 L 40.470798,56.614039 L 40.470798,58.551081 C 40.470798,59.164096 40.969201,59.662500 41.582217,59.662500 L 43.773298,59.662500 C 44.386314,59.662501 44.884717,59.164096 44.884717,58.551081 L 44.884717,56.582284 L 51.934285,56.550529 C 53.475384,56.543694 55.871881,55.623525 55.871881,53.978389 L 55.871881,49.342187 C 55.943997,49.115860 56.092854,48.922193 56.094165,48.675336 L 56.221184,28.384012 C 56.534881,29.044044 50.163829,23.632241 43.995582,18.317739 L 46.472457,14.634181 C 47.653127,14.983816 49.281371,15.256200 49.870222,14.411897 L 52.276015,10.867979 L 47.869669,12.252570 L 44.503659,9.7439400 L 44.178539,4.8345646 z "
     id="path947"
     sodipodi:nodetypes="ccccccccccccccccccccccccccccccccccc" />
  <path
     style="fill:url(#linearGradient965);fill-opacity:1.00000000;fill-rule:evenodd;stroke:none;stroke-width:1.2500000;stroke-linejoin:round;stroke-opacity:1.0000000;stroke-dasharray:none;"
     d="M 8.7187500 26.562500 L 53.500000 26.562500 L 53.500000 26.187500 C 54.029920 27.302482 36.735186 9.2455365 35.500000 8.0000000 C 34.264803 6.7544636 32.189614 5.6250000 30.062500 5.6250000 L 12.093750 5.6250000 C 10.569458 5.6250003 8.7812500 6.8099286 8.7812500 7.9062500 L 8.7812500 26.406250 C 8.7812500 26.466338 8.7218823 26.503535 8.7187500 26.562500 z "
     id="path1115" />
  <path
     style="fill:url(#linearGradient903);fill-opacity:1.00000000;fill-rule:evenodd;stroke:#20152b;stroke-width:1.8750000;stroke-opacity:1.0000000;stroke-dasharray:none;"
     d="M 2.9949083,46.402782 L 2.9949083,51.924978 C 2.9949083,53.462409 3.5809937,54.556420 5.0212012,54.550032 L 49.227033,54.353931 C 50.768135,54.347094 53.165022,53.413264 53.165022,51.768128 L 53.165022,46.402782 L 2.9949083,46.402782 z "
     id="path971"
     sodipodi:nodetypes="csssscc" />
  <path
     style="fill:url(#linearGradient838);fill-opacity:1.00000000;fill-rule:evenodd;stroke:none;stroke-width:1.2500000;stroke-linejoin:round;stroke-opacity:1.0000000;stroke-dasharray:none;"
     d="M 8.7187500 26.562500 C 8.5523716 29.694597 4.1192093 31.271946 3.3125000 34.187500 C 2.2294499 38.101789 3.1383609 42.778161 3.0625000 47.062500 C 3.0387899 48.401568 3.8704037 50.414816 5.1250000 50.406250 L 48.218750 50.125000 C 50.293446 50.110835 53.394462 48.683494 53.406250 46.468750 L 53.500000 26.562500 L 8.7187500 26.562500 z "
     id="path1116" />
  <path
     sodipodi:type="arc"
     style="fill:url(#radialGradient908);fill-rule:evenodd;stroke:#20152b;stroke-width:1.6266795;stroke-opacity:1.0000000;stroke-dasharray:none;stroke-linejoin:miter;stroke-linecap:butt;"
     id="R-Light"
     sodipodi:cx="7.0312500"
     sodipodi:cy="45.937500"
     sodipodi:rx="4.5312500"
     sodipodi:ry="4.3750000"
     d="M 11.562500 45.937500 A 4.5312500 4.3750000 0 1 0 2.5000000,45.937500 A 4.5312500 4.3750000 0 1 0 11.562500 45.937500 z"
     transform="matrix(1.115444,0.000000,0.000000,1.191107,3.908137,-16.96742)" />
  <path
     style="fill:url(#linearGradient901);fill-opacity:1.00000000;fill-rule:evenodd;stroke:#20152b;stroke-width:1.2500000;stroke-opacity:1.0000000;stroke-dasharray:none;stroke-linejoin:round;"
     d="M 14.623073,27.993400 L 46.235684,27.993400 C 39.899026,29.418539 36.343927,32.193366 34.053172,37.937500 L 20.018941,37.937500 L 14.623073,27.993400 z "
     id="Engine"
     sodipodi:nodetypes="ccccc" />
  <path
     style="fill:url(#linearGradient868);fill-opacity:1.00000000;fill-rule:evenodd;stroke-width:1.0000000pt;"
     d="M 49.088034,29.526484 C 43.558462,30.743354 38.714184,34.452827 36.491705,37.806347 C 35.763213,38.776803 35.576594,34.159423 41.574003,31.162455 C 48.550484,27.676237 51.462067,28.976337 49.088034,29.526484 z "
     id="path960"
     sodipodi:nodetypes="csss" />
  <path
     style="fill:none;fill-opacity:1.0000000;fill-rule:evenodd;stroke:#20152b;stroke-width:1.8750000;stroke-linejoin:round;stroke-opacity:1.0000000;stroke-dasharray:none;"
     d="M 12.078851,5.6216824 C 10.554559,5.6216825 8.7915548,6.8198261 8.7915548,7.9161475 L 8.7915548,26.396457 C 8.7915548,29.648300 4.1261928,31.227196 3.3042958,34.197639 C 2.2212458,38.111928 3.1525747,42.766314 3.0767138,47.050653 C 3.0530038,48.389720 3.8713518,50.429425 5.1259487,50.420859 L 48.203332,50.126707 C 50.278030,50.112540 53.383628,48.677094 53.395416,46.462350 L 53.503256,26.200357 C 54.033177,27.315339 36.732851,9.2426652 35.497665,7.9971287 C 34.262467,6.7515921 32.188095,5.6216824 30.060981,5.6216824 L 12.078851,5.6216824 z "
     id="path1113"
     sodipodi:nodetypes="ccsssssscccc" />
  <path
     style="fill:url(#linearGradient1089);fill-rule:evenodd;stroke:none;stroke-opacity:1;stroke-width:1pt;stroke-linejoin:miter;stroke-linecap:butt;fill-opacity:1;"
     d="M 4.3750000,52.500000 L 4.2187500,51.562500 L 50.156250,51.406250 L 4.3750000,52.500000 z "
     id="path1088" />
  <rect
     style="fill:url(#linearGradient907);fill-opacity:1.00000000;fill-rule:evenodd;stroke:#20152b;stroke-width:1.8750000;stroke-opacity:1.0000000;stroke-dasharray:none;"
     id="rect974"
     width="4.4260944"
     height="10.139999"
     rx="1.1065236"
     x="37.758274"
     y="47.328522" />
  <rect
     style="fill:url(#linearGradient978);fill-opacity:1.00000000;fill-rule:evenodd;stroke:#20152b;stroke-width:1.8750000;stroke-opacity:1.0000000;stroke-dasharray:none;"
     id="rect975"
     width="4.4260944"
     height="10.139999"
     rx="1.1065236"
     x="9.3442982"
     y="47.328522" />
  <path
     style="fill:url(#linearGradient845);fill-rule:evenodd;stroke:none;stroke-opacity:1;stroke-width:1pt;stroke-linejoin:miter;stroke-linecap:butt;fill-opacity:1.0000000;"
     d="M 4.8593012,48.338450 C 7.3481300,48.161037 4.0518523,39.137496 5.8730692,35.104859 C 7.5419206,31.035403 9.6160317,30.946660 11.707889,28.635802 C 12.134364,28.199225 6.7378523,31.008393 4.9014360,34.189159 C 3.7170534,36.240570 4.3347794,48.342647 4.8593012,48.338450 z "
     id="path917"
     sodipodi:nodetypes="cssss" />
  <path
     style="fill:none;fill-opacity:1.00000000;fill-rule:evenodd;stroke:#000000;stroke-width:1.8750000;stroke-opacity:0.62000000;stroke-dasharray:none;"
     d="M 18.680632,45.976452 L 37.337919,45.976452 C 38.570740,45.548739 34.525173,41.828645 32.532255,41.170788 C 29.531052,40.792128 25.299196,40.763934 22.779582,41.170788 C 20.964673,41.800450 17.453269,45.571304 18.680632,45.976452 z "
     id="path975"
     sodipodi:nodetypes="ccccc" />
  <path
     sodipodi:type="arc"
     style="fill:url(#radialGradient908);fill-rule:evenodd;stroke:#20152b;stroke-width:1.6266795;stroke-opacity:1.0000000;stroke-dasharray:none;stroke-linejoin:miter;stroke-linecap:butt;"
     id="path977"
     sodipodi:cx="7.0312500"
     sodipodi:cy="45.937500"
     sodipodi:rx="4.5312500"
     sodipodi:ry="4.3750000"
     d="M 11.562500 45.937500 A 4.5312500 4.3750000 0 1 0 2.5000000,45.937500 A 4.5312500 4.3750000 0 1 0 11.562500 45.937500 z"
     transform="matrix(1.115444,0.000000,0.000000,1.191107,38.26684,-16.96742)" />
  <path
     style="fill:url(#linearGradient1049);fill-rule:evenodd;stroke:none;stroke-opacity:1;stroke-width:1pt;stroke-linejoin:miter;stroke-linecap:butt;fill-opacity:0.75;"
     d="M 10.940167,24.280442 C 10.571308,27.456061 10.176543,11.449309 11.773407,9.0279970 C 13.598787,6.5229020 34.991104,7.8422238 31.669240,7.9776600 C 14.016624,8.6910070 12.469190,9.7714030 10.940167,24.280442 z "
     id="path1048"
     sodipodi:nodetypes="csss" />
  <path
     style="fill:url(#linearGradient884);fill-opacity:1.00000000;fill-rule:evenodd;stroke:#261933;stroke-width:1.8750000;stroke-dasharray:none;stroke-linecap:round;stroke-linejoin:round;"
     d="M 41.472410,2.7935995 L 39.097035,6.1472441 C 38.459754,7.0609768 38.757601,9.7632404 39.485817,10.799791 C 39.494001,10.811440 39.516737,10.816991 39.525098,10.828649 L 31.318254,22.918553 C 31.304904,22.914261 31.292254,22.893814 31.278972,22.889695 C 30.097140,22.522995 27.566391,23.147185 26.953834,24.079082 L 24.188271,27.646695 C 25.518466,27.448722 27.907952,25.968104 29.116355,26.271525 C 30.371530,26.586690 31.813889,27.629257 32.516505,28.721203 C 33.208760,29.797045 32.101980,32.204911 32.363468,33.556140 L 35.139949,29.972403 C 35.705961,29.111314 35.550770,26.666544 34.838378,25.625412 L 43.154423,13.374251 C 44.335092,13.723886 46.585093,13.046125 47.173948,12.201822 L 49.560245,8.8320512 C 48.246785,9.0342698 46.336500,10.373588 45.151114,10.063707 C 43.904216,9.7377456 42.484874,8.6554218 41.794642,7.5495232 C 41.102389,6.4403860 41.736071,4.1705741 41.472410,2.7935995 z "
     id="path883"
     sodipodi:nodetypes="ccccccccssccccccssc" />
  <path
     style="fill:url(#linearGradient1086);fill-rule:evenodd;stroke:none;stroke-opacity:1;stroke-width:1pt;stroke-linejoin:miter;stroke-linecap:butt;fill-opacity:1;"
     d="M 8.2812500,39.062500 C 8.1692766,38.894540 7.7312571,36.103323 9.5312500,34.687500 C 11.439844,33.174465 13.483363,34.365669 13.593750,34.531250 C 13.691696,34.678169 12.209602,34.016793 10.156250,35.625000 C 8.2402107,37.074113 8.3776100,39.207040 8.2812500,39.062500 z "
     id="path1085"
     sodipodi:nodetypes="cssss" />
  <path
     style="fill:url(#linearGradient1086);fill-rule:evenodd;stroke:none;stroke-opacity:1;stroke-width:1pt;stroke-linejoin:miter;stroke-linecap:butt;fill-opacity:1;"
     d="M 42.718121,39.281789 C 42.606147,39.113829 42.168128,36.322612 43.968121,34.906789 C 45.876715,33.393754 47.920234,34.584958 48.030621,34.750539 C 48.128567,34.897458 46.646473,34.236082 44.593121,35.844289 C 42.677082,37.293402 42.814481,39.426329 42.718121,39.281789 z "
     id="path1087"
     sodipodi:nodetypes="cssss" />
  <path
     style="fill:url(#linearGradient1091);fill-rule:evenodd;stroke:none;stroke-opacity:1;stroke-width:1pt;stroke-linejoin:miter;stroke-linecap:butt;fill-opacity:1;"
     d="M 10.606602,55.912039 C 10.528226,55.755287 10.344039,50.775108 10.827573,48.840971 C 10.933294,48.418085 12.297432,48.687097 12.374369,48.840971 C 12.444746,48.981725 11.378678,49.288199 11.269514,49.724855 C 10.789422,51.645221 10.675540,56.049915 10.606602,55.912039 z "
     id="path1090"
     sodipodi:nodetypes="cssss" />
  <path
     style="fill:url(#linearGradient1091);fill-rule:evenodd;stroke:none;stroke-opacity:1;stroke-width:1pt;stroke-linejoin:miter;stroke-linecap:butt;fill-opacity:1;"
     d="M 39.049921,56.023961 C 38.971545,55.867209 38.787358,50.887030 39.270892,48.952893 C 39.376613,48.530007 40.740751,48.799019 40.817688,48.952893 C 40.888065,49.093647 39.821997,49.400121 39.712833,49.836777 C 39.232741,51.757143 39.118859,56.161837 39.049921,56.023961 z "
     id="path1092"
     sodipodi:nodetypes="cssss" />
  <path
     style="fill:url(#linearGradient1094);fill-rule:evenodd;stroke:none;stroke-opacity:1;stroke-width:1pt;stroke-linejoin:miter;stroke-linecap:butt;fill-opacity:1;"
     d="M 20.781250,44.531250 C 20.716918,44.454051 22.386245,42.687210 23.437500,42.500000 C 26.188328,42.010127 32.120961,42.420153 32.187500,42.500000 C 32.251169,42.576403 26.858053,42.819656 24.159581,43.300206 C 23.055970,43.496740 20.847126,44.610301 20.781250,44.531250 z "
     id="path1093"
     sodipodi:nodetypes="cssss" />
  <path
     style="fill:url(#linearGradient1096);fill-rule:evenodd;stroke:none;stroke-opacity:1;stroke-width:1pt;stroke-linejoin:miter;stroke-linecap:butt;fill-opacity:1;"
     d="M 27.812500,25.000000 C 27.855185,24.928858 29.052095,24.230969 29.687500,24.218750 C 30.406262,24.204928 31.339246,24.988582 31.796875,24.453125 C 35.167371,20.509415 41.159013,10.691216 41.171875,10.781250 C 41.185055,10.873507 35.264525,21.000360 31.875000,25.000000 C 31.358275,25.609735 30.295766,24.704768 29.453125,24.609375 C 28.915558,24.548518 27.777060,25.059067 27.812500,25.000000 z "
     id="path1095"
     sodipodi:nodetypes="cssssss" />
</svg>
