<?xml version="1.0" encoding="UTF-8" standalone="no"?>
<!DOCTYPE svg PUBLIC "-//W3C//DTD SVG 20010904//EN"
"http://www.w3.org/TR/2001/REC-SVG-20010904/DTD/svg10.dtd">
<!-- Created with Inkscape (http://www.inkscape.org/) -->
<svg
   id="svg1"
   sodipodi:version="0.32"
   inkscape:version="0.38.1"
   width="48.000000pt"
   height="48.000000pt"
   sodipodi:docbase="/home/dan/Projects/Lila-icons/scalable/apps"
   sodipodi:docname="epiphany-bookmarks.svg"
   xmlns="http://www.w3.org/2000/svg"
   xmlns:inkscape="http://www.inkscape.org/namespaces/inkscape"
   xmlns:sodipodi="http://sodipodi.sourceforge.net/DTD/sodipodi-0.dtd"
   xmlns:xlink="http://www.w3.org/1999/xlink">
  <defs
     id="defs3">
    <linearGradient
       id="linearGradient841">
      <stop
         style="stop-color:#ffffff;stop-opacity:1.0000000;"
         offset="0.0000000"
         id="stop842" />
      <stop
         style="stop-color:#ffffff;stop-opacity:0.0000000;"
         offset="1.0000000"
         id="stop843" />
    </linearGradient>
    <linearGradient
       id="linearGradient834">
      <stop
         style="stop-color:#d9cce6;stop-opacity:1.0000000;"
         offset="0.0000000"
         id="stop835" />
      <stop
         style="stop-color:#73667f;stop-opacity:1.0000000;"
         offset="1.0000000"
         id="stop836" />
    </linearGradient>
    <linearGradient
       id="linearGradient829">
      <stop
         style="stop-color:#f50000;stop-opacity:1.0000000;"
         offset="0.0000000"
         id="stop830" />
      <stop
         style="stop-color:#a80000;stop-opacity:1.0000000;"
         offset="1.0000000"
         id="stop831" />
    </linearGradient>
    <linearGradient
       xlink:href="#linearGradient829"
       id="linearGradient832"
       x1="0.51162791"
       y1="0.0095693776"
       x2="0.53488374"
       y2="0.74641150" />
    <linearGradient
       xlink:href="#linearGradient834"
       id="linearGradient833"
       x1="7.8698983e-15"
       y1="0.50000000"
       x2="0.64803219"
       y2="0.49687439" />
    <linearGradient
       xlink:href="#linearGradient841"
       id="linearGradient840"
       x1="0.50604159"
       y1="0.46514577"
       x2="0.50007290"
       y2="-0.12972745"
       spreadMethod="reflect" />
    <radialGradient
       xlink:href="#linearGradient841"
       id="radialGradient844"
       cx="0.50000000"
       cy="0.50000000"
       r="0.50000000"
       fx="0.50000000"
       fy="0.50000000" />
    <linearGradient
       xlink:href="#linearGradient841"
       id="linearGradient849"
       x1="-0.35855263"
       y1="-0.58208954"
       x2="0.99013156"
       y2="0.97014928" />
    <linearGradient
       xlink:href="#linearGradient841"
       id="linearGradient854"
       x1="-0.33125001"
       y1="-0.32558140"
       x2="0.78750002"
       y2="0.76744187" />
    <linearGradient
       xlink:href="#linearGradient834"
       id="linearGradient922"
       x1="1.5043305e-17"
       y1="0.50000000"
       x2="1.0000000"
       y2="0.50000000" />
  </defs>
  <sodipodi:namedview
     id="base"
     pagecolor="#ffffff"
     bordercolor="#666666"
     borderopacity="1.0"
     inkscape:pageopacity="0.0"
     inkscape:pageshadow="2"
     inkscape:zoom="8.0000000"
     inkscape:cx="23.482422"
     inkscape:cy="21.101894"
     inkscape:window-width="719"
     inkscape:window-height="711"
     inkscape:window-x="61"
     inkscape:window-y="70" />
  <path
     style="fill:#000000;fill-rule:evenodd;stroke:none;stroke-width:1.7712934;fill-opacity:0.29770991;"
     d="M 19.892947,8.8486789 C 18.930334,8.8486789 18.155375,9.6236370 18.155375,10.586250 L 7.1853097,45.465244 L 8.1944444,47.384924 L 42.643607,52.878909 C 43.606220,52.878909 44.381178,52.103951 44.381178,51.141339 L 56.079682,16.080233 C 56.079682,15.117620 55.304724,14.342662 54.342111,14.342662 L 19.892947,8.8486789 z "
     id="path1026"
     sodipodi:nodetypes="ccccccccc" />
  <path
     style="fill:url(#linearGradient833);fill-rule:evenodd;stroke:#000000;stroke-width:1.8750000;stroke-dasharray:none;"
     d="M 19.127448,7.4351967 C 18.209290,7.4351967 17.470122,8.1743634 17.470122,9.0925200 L 7.0066859,42.360699 L 7.9692167,44.191723 L 40.827414,49.431979 C 41.745571,49.431979 42.484739,48.692812 42.484739,47.774655 L 53.642971,14.332775 C 53.642971,13.414617 52.903804,12.675451 51.985646,12.675451 L 19.127448,7.4351967 z "
     id="path866"
     sodipodi:nodetypes="ccccccccc" />
  <path
     style="fill:#ffffff;fill-rule:evenodd;stroke:#000000;stroke-width:0.98454994;"
     d="M 20.729416,6.3557927 C 19.811258,6.3557927 19.072089,7.0949611 19.072089,8.0131179 L 7.9138567,41.454998 C 7.9138567,42.373157 8.6530245,43.112324 9.5711820,43.112324 L 38.172876,46.615591 C 39.091034,46.615591 39.830202,45.876424 39.830202,44.958266 L 50.988434,11.516385 C 50.988434,10.598227 50.249267,9.8590600 49.331108,9.8590600 L 20.729416,6.3557927 z "
     id="path856"
     sodipodi:nodetypes="ccccccccc" />
  <path
     style="fill:url(#linearGradient832);fill-opacity:1.00000000;fill-rule:evenodd;stroke:#000000;stroke-width:1.8750000;stroke-linecap:square;stroke-dasharray:none;"
     d="M 14.675278,34.102215 C 11.903005,35.824473 10.954143,41.759824 10.954143,45.588630 C 10.954143,49.417437 12.956987,55.268060 14.675278,57.075046 C 15.418362,57.856488 16.820327,53.353912 18.338267,53.353912 C 21.743076,53.353912 28.231568,58.349561 29.443526,57.075046 C 30.692943,55.761135 25.722392,49.417437 25.722392,45.588630 C 25.722392,41.759824 31.099915,35.824473 29.443526,34.102215 C 27.417544,31.995667 18.066132,31.995667 14.675278,34.102215 z "
     id="path828"
     sodipodi:nodetypes="csssssss" />
  <rect
     style="fill:url(#linearGradient840);fill-opacity:1.00000000;fill-rule:evenodd;stroke-width:1.0000000pt;opacity:0.70202020;"
     id="rect846"
     width="14.768276"
     height="2.2972873"
     x="15.034681"
     y="42.854893"
     ry="1.1486435"
     transform="matrix(0.995030,9.958006e-2,-9.958006e-2,0.995030,0.000000,0.000000)" />
  <path
     style="fill:none;fill-opacity:1.00000000;fill-rule:evenodd;stroke:#000000;stroke-width:1.9690998;stroke-linecap:square;"
     d="M 14.675278,34.102215 C 11.903005,35.824473 10.954143,41.759824 10.954143,45.588630 C 10.954143,49.417437 12.956987,55.268060 14.675278,57.075046 C 15.418362,57.856488 16.820327,53.353912 18.338267,53.353912 C 21.743076,53.353912 28.231568,58.349561 29.443526,57.075046 C 30.692943,55.761135 25.722392,49.417437 25.722392,45.588630 C 25.722392,41.759824 31.099915,35.824473 29.443526,34.102215 C 27.417544,31.995667 18.066132,31.995667 14.675278,34.102215 z "
     id="path845"
     sodipodi:nodetypes="csssssss" />
  <path
     style="fill:#ffffff;fill-rule:evenodd;stroke:#000000;stroke-width:0.98454994;"
     d="M 20.635427,5.0182929 C 19.717268,5.0182929 18.978101,5.7574602 18.978101,6.6756212 L 7.8198693,40.117500 C 7.8198693,41.035658 8.5590370,41.774827 9.4771941,41.774827 L 36.877273,44.453765 C 37.795430,44.453765 38.534599,43.714598 38.534599,42.796440 L 49.692830,9.3545600 C 49.692830,8.4363994 48.953663,7.6972327 48.035504,7.6972327 L 20.635427,5.0182929 z "
     id="path855"
     sodipodi:nodetypes="ccccccccc" />
  <path
     style="fill:#ffffff;fill-rule:evenodd;stroke:#000000;stroke-width:0.98455000;"
     d="M 20.288028,3.4822657 C 19.369870,3.4822657 18.630702,4.2214344 18.630702,5.1395899 L 7.4724707,38.581473 C 7.4724707,39.499632 8.2116379,40.238798 9.1297970,40.238798 L 36.182474,42.323186 C 37.100634,42.323186 37.839800,41.584019 37.839800,40.665860 L 48.998032,7.2239780 C 48.998032,6.3058219 48.258865,5.5666537 47.340708,5.5666537 L 20.288028,3.4822657 z "
     id="path826"
     sodipodi:nodetypes="ccccccccc" />
  <path
     style="fill:url(#linearGradient922);fill-opacity:1.00000000;fill-rule:evenodd;stroke:#000000;stroke-width:1.8750000;stroke-dasharray:none;"
     d="M 18.900362,2.3169532 C 17.982206,2.3169532 17.232852,3.0315654 17.232852,3.9497235 L 6.2203372,36.987267 C 5.5224122,39.081043 6.0573930,41.388468 6.1854409,43.280752 C 6.2098357,44.103204 7.9844685,44.775588 8.9300414,44.768981 L 8.8431913,41.839285 C 8.7386452,38.312622 9.3452458,38.887748 12.695343,38.909588 L 37.555631,39.071655 C 38.473789,39.071653 39.223141,38.322302 39.223141,37.404145 L 50.374615,3.9497235 C 50.374616,3.0315653 49.660001,2.3169532 48.741844,2.3169532 L 18.900362,2.3169532 z "
     id="path924"
     sodipodi:nodetypes="ccsccssccccc" />
  <path
     style="fill:url(#linearGradient854);fill-rule:evenodd;stroke:none;stroke-width:1.7712935;fill-opacity:0.30000001;"
     d="M 10.115772,32.582391 C 11.784899,29.145036 16.751262,11.335833 22.987203,7.3806871 C 27.132753,4.8668436 42.981830,4.9869041 45.560502,4.1612944 C 46.357957,3.9439579 28.561542,3.5729559 20.092033,4.9186941 C 18.040560,6.7975774 9.0740695,34.765970 10.115772,32.582391 z "
     id="path910"
     sodipodi:nodetypes="csscs" />
  <path
     style="fill:url(#linearGradient849);fill-rule:evenodd;stroke:none;stroke-opacity:1.0000000;stroke-width:1pt;stroke-linejoin:miter;stroke-linecap:butt;fill-opacity:1.00000000;"
     d="M 7.2997398,42.620052 C 7.4585688,42.524755 7.6344225,38.347633 8.8506869,37.828430 C 15.621162,35.621927 37.277712,37.583353 37.277712,37.265186 C 37.277712,36.946456 9.1788295,35.347305 7.9647343,36.507170 C 7.0965021,37.424454 7.0384013,42.776854 7.2997398,42.620052 z "
     id="path925"
     sodipodi:nodetypes="cssss" />
</svg>
