<?xml version="1.0" encoding="UTF-8" standalone="no"?>
<!DOCTYPE svg PUBLIC "-//W3C//DTD SVG 20010904//EN"
"http://www.w3.org/TR/2001/REC-SVG-20010904/DTD/svg10.dtd">
<!-- Created with Inkscape (http://www.inkscape.org/) -->
<svg
   version="1.0"
   x="0.0000000"
   y="0.0000000"
   width="48.000000pt"
   height="48.000000pt"
   id="svg1"
   sodipodi:version="0.32"
   inkscape:version="0.38.1"
   sodipodi:docname="gftp.svg"
   sodipodi:docbase="/home/dan/svg-icons/lila/gnome/scalable/apps"
   xmlns="http://www.w3.org/2000/svg"
   xmlns:inkscape="http://www.inkscape.org/namespaces/inkscape"
   xmlns:sodipodi="http://sodipodi.sourceforge.net/DTD/sodipodi-0.dtd"
   xmlns:xlink="http://www.w3.org/1999/xlink">
  <sodipodi:namedview
     id="base"
     pagecolor="#ffffff"
     bordercolor="#666666"
     borderopacity="1.0"
     inkscape:pageopacity="0.0"
     inkscape:pageshadow="2"
     inkscape:zoom="6.9465337"
     inkscape:cx="10.305771"
     inkscape:cy="24.870666"
     inkscape:window-width="640"
     inkscape:window-height="525"
     inkscape:window-x="10"
     inkscape:window-y="75" />
  <defs
     id="defs3">
    <linearGradient
       id="linearGradient866">
      <stop
         style="stop-color:#ffffff;stop-opacity:1;"
         offset="0.00000000"
         id="stop867" />
      <stop
         style="stop-color:#d9cce6;stop-opacity:1;"
         offset="1.00000000"
         id="stop868" />
    </linearGradient>
    <linearGradient
       xlink:href="#linearGradient866"
       id="linearGradient586"
       x1="-0.00000000"
       y1="0.01562500"
       x2="0.99122804"
       y2="0.98437500" />
    <linearGradient
       id="linearGradient584">
      <stop
         style="stop-color:#ffffff;stop-opacity:1;"
         offset="0.00000000"
         id="stop585" />
      <stop
         style="stop-color:#ffffff;stop-opacity:0;"
         offset="1.00000000"
         id="stop586" />
    </linearGradient>
    <linearGradient
       xlink:href="#linearGradient584"
       id="linearGradient587"
       x1="0.00000000"
       y1="-0.00000000"
       x2="1.00000000"
       y2="1.00000000" />
    <linearGradient
       id="linearGradient872">
      <stop
         style="stop-color:#d9cce6;stop-opacity:1.0000000;"
         offset="0.0000000"
         id="stop873" />
      <stop
         style="stop-color:#73667f;stop-opacity:1.0000000;"
         offset="1.0000000"
         id="stop874" />
    </linearGradient>
    <linearGradient
       id="linearGradient570">
      <stop
         style="stop-color:#ffffff;stop-opacity:1.0000000;"
         offset="0.0000000"
         id="stop571" />
      <stop
         style="stop-color:#ffffff;stop-opacity:0.0000000;"
         offset="1.0000000"
         id="stop572" />
    </linearGradient>
    <linearGradient
       x1="0.032786880"
       y1="0.054687500"
       x2="0.96721309"
       y2="0.96093750"
       id="linearGradient649"
       xlink:href="#linearGradient646" />
    <linearGradient
       x1="-0.012345000"
       y1="0.015622000"
       x2="0.96296299"
       y2="0.97656202"
       id="linearGradient651"
       xlink:href="#linearGradient652" />
    <linearGradient
       x1="0.0061349999"
       y1="0.015626000"
       x2="0.97545999"
       y2="1.0000000"
       id="linearGradient656"
       xlink:href="#linearGradient652" />
    <linearGradient
       x1="0.015757000"
       y1="0.039053999"
       x2="0.99212599"
       y2="0.97656202"
       id="linearGradient658"
       xlink:href="#linearGradient652" />
    <linearGradient
       x1="0.071428567"
       y1="0.062500007"
       x2="0.98214287"
       y2="0.95312500"
       id="linearGradient663"
       xlink:href="#linearGradient646" />
    <linearGradient
       x1="0.035714172"
       y1="0.10156250"
       x2="0.98214293"
       y2="0.97656244"
       id="linearGradient664"
       xlink:href="#linearGradient646" />
    <linearGradient
       x1="0.089285612"
       y1="0.085937440"
       x2="0.98214304"
       y2="0.96093750"
       id="linearGradient665"
       xlink:href="#linearGradient646" />
    <linearGradient
       id="linearGradient646">
      <stop
         style="stop-color:#ffffff;stop-opacity:1.0000000;"
         offset="0.0000000"
         id="stop647" />
      <stop
         style="stop-color:#d9cce6;stop-opacity:1.0000000;"
         offset="1.0000000"
         id="stop648" />
    </linearGradient>
    <linearGradient
       x1="0.044642739"
       y1="0.093749940"
       x2="1.0089288"
       y2="0.99218732"
       id="linearGradient666"
       xlink:href="#linearGradient646" />
    <linearGradient
       id="linearGradient652">
      <stop
         style="stop-color:#ffffff;stop-opacity:1.0000000;"
         offset="0.0000000"
         id="stop653" />
      <stop
         style="stop-color:#ffffff;stop-opacity:0.0000000;"
         offset="1.0000000"
         id="stop654" />
    </linearGradient>
    <linearGradient
       x1="0.0097120004"
       y1="0.0078119999"
       x2="0.99029100"
       y2="0.96875000"
       id="linearGradient668"
       xlink:href="#linearGradient652" />
    <linearGradient
       x1="47.378834"
       y1="15.255445"
       x2="124.07145"
       y2="92.059898"
       id="linearGradient1061"
       xlink:href="#linearGradient646"
       gradientUnits="userSpaceOnUse"
       gradientTransform="scale(0.951960,1.050464)"
       spreadMethod="pad" />
    <linearGradient
       x1="-0.74109882"
       y1="8.6274891"
       x2="43.626400"
       y2="47.089310"
       id="linearGradient1063"
       xlink:href="#linearGradient872"
       gradientUnits="userSpaceOnUse"
       gradientTransform="scale(0.951960,1.050464)"
       spreadMethod="pad" />
    <linearGradient
       x1="-0.022222223"
       y1="-0.025974026"
       x2="0.54761904"
       y2="0.68750000"
       id="linearGradient573"
       xlink:href="#linearGradient570" />
  </defs>
  <rect
     width="38.648815"
     height="34.802685"
     ry="2.6021824"
     x="4.8513726"
     y="16.641507"
     style="fill:#000000;fill-rule:evenodd;stroke:none;stroke-width:0.86482650;fill-opacity:1.0000000;opacity:0.29896907;"
     id="rect935" />
  <rect
     width="38.648815"
     height="34.802685"
     ry="2.6021824"
     x="2.8004143"
     y="14.585078"
     style="fill:url(#linearGradient1063);fill-rule:evenodd;stroke:#261933;stroke-width:1.8750000;stroke-dasharray:none;"
     id="rect938" />
  <g
     transform="matrix(0.461241,0.000000,0.000000,0.461241,0.598714,55.31300)"
     id="g1067">
    <path
       d="M 78.009188,-43.758432 C 76.801057,-43.758432 75.891085,-43.162111 75.279276,-41.969469 C 74.675213,-40.784571 74.373177,-38.999479 74.373177,-36.614195 C 74.373177,-34.236654 74.675213,-32.451564 75.279276,-31.258924 C 75.891085,-30.074026 76.801057,-29.481577 78.009188,-29.481577 C 79.225064,-29.481577 80.135032,-30.074026 80.739099,-31.258924 C 81.350908,-32.451564 81.656812,-34.236654 81.656812,-36.614195 C 81.656812,-38.999479 81.350908,-40.784571 80.739099,-41.969469 C 80.135032,-43.162111 79.225064,-43.758432 78.009188,-43.758432 z M 78.009188,-45.617094 C 79.953038,-45.617094 81.436096,-44.846524 82.458360,-43.305383 C 83.488370,-41.771986 84.003373,-39.541589 84.003373,-36.614195 C 84.003373,-33.694546 83.488370,-31.464150 82.458360,-29.923010 C 81.436096,-28.389612 79.953038,-27.622914 78.009188,-27.622914 C 76.065337,-27.622914 74.578407,-28.389612 73.548397,-29.923010 C 72.526132,-31.464150 72.014999,-33.694546 72.014999,-36.614195 C 72.014999,-39.541589 72.526132,-41.771986 73.548397,-43.305383 C 74.578407,-44.846524 76.065337,-45.617094 78.009188,-45.617094 z M 58.260894,-29.934624 L 62.094389,-29.934624 L 62.094389,-43.165983 L 57.924012,-42.329585 L 57.924012,-44.467047 L 62.071153,-45.303445 L 64.417717,-45.303445 L 64.417717,-29.934624 L 68.251208,-29.934624 L 68.251208,-27.959797 L 58.260894,-27.959797 L 58.260894,-29.934624 z M 47.736218,-43.758432 C 46.528087,-43.758432 45.618119,-43.162111 45.006307,-41.969469 C 44.402243,-40.784571 44.100211,-38.999479 44.100211,-36.614195 C 44.100211,-34.236654 44.402243,-32.451564 45.006307,-31.258924 C 45.618119,-30.074026 46.528087,-29.481577 47.736218,-29.481577 C 48.952094,-29.481577 49.862066,-30.074026 50.466129,-31.258924 C 51.077938,-32.451564 51.383842,-34.236654 51.383842,-36.614195 C 51.383842,-38.999479 51.077938,-40.784571 50.466129,-41.969469 C 49.862066,-43.162111 48.952094,-43.758432 47.736218,-43.758432 z M 47.736218,-45.617094 C 49.680069,-45.617094 51.163129,-44.846524 52.185393,-43.305383 C 53.215400,-41.771986 53.730406,-39.541589 53.730406,-36.614195 C 53.730406,-33.694546 53.215400,-31.464150 52.185393,-29.923010 C 51.163129,-28.389612 49.680069,-27.622914 47.736218,-27.622914 C 45.792368,-27.622914 44.305437,-28.389612 43.275428,-29.923010 C 42.253163,-31.464150 41.742033,-33.694546 41.742033,-36.614195 C 41.742033,-39.541589 42.253163,-41.771986 43.275428,-43.305383 C 44.305437,-44.846524 45.792368,-45.617094 47.736218,-45.617094 z M 32.599735,-43.758432 C 31.391604,-43.758432 30.481632,-43.162111 29.869823,-41.969469 C 29.265758,-40.784571 28.963725,-38.999479 28.963725,-36.614195 C 28.963725,-34.236654 29.265758,-32.451564 29.869823,-31.258924 C 30.481632,-30.074026 31.391604,-29.481577 32.599735,-29.481577 C 33.815611,-29.481577 34.725579,-30.074026 35.329646,-31.258924 C 35.941455,-32.451564 36.247360,-34.236654 36.247360,-36.614195 C 36.247360,-38.999479 35.941455,-40.784571 35.329646,-41.969469 C 34.725579,-43.162111 33.815611,-43.758432 32.599735,-43.758432 z M 32.599735,-45.617094 C 34.543585,-45.617094 36.026643,-44.846524 37.048907,-43.305383 C 38.078917,-41.771986 38.593920,-39.541589 38.593920,-36.614195 C 38.593920,-33.694546 38.078917,-31.464150 37.048907,-29.923010 C 36.026643,-28.389612 34.543585,-27.622914 32.599735,-27.622914 C 30.655884,-27.622914 29.168953,-28.389612 28.138943,-29.923010 C 27.116679,-31.464150 26.605547,-33.694546 26.605547,-36.614195 C 26.605547,-39.541589 27.116679,-41.771986 28.138943,-43.305383 C 29.168953,-44.846524 30.655884,-45.617094 32.599735,-45.617094 z M 12.851442,-29.934624 L 16.684934,-29.934624 L 16.684934,-43.165983 L 12.514560,-42.329585 L 12.514560,-44.467047 L 16.661701,-45.303445 L 19.008263,-45.303445 L 19.008263,-29.934624 L 22.841755,-29.934624 L 22.841755,-27.959797 L 12.851442,-27.959797 L 12.851442,-29.934624 z M 62.872704,-19.967545 C 61.664573,-19.967545 60.754602,-19.371224 60.142793,-18.178582 C 59.538726,-16.993684 59.236694,-15.208594 59.236694,-12.823311 C 59.236694,-10.445767 59.538726,-8.6606773 60.142793,-7.4680373 C 60.754602,-6.2831393 61.664573,-5.6906903 62.872704,-5.6906903 C 64.088577,-5.6906903 64.998548,-6.2831393 65.602612,-7.4680373 C 66.214424,-8.6606773 66.520329,-10.445767 66.520329,-12.823311 C 66.520329,-15.208594 66.214424,-16.993684 65.602612,-18.178582 C 64.998548,-19.371224 64.088577,-19.967545 62.872704,-19.967545 z M 62.872704,-21.826208 C 64.816555,-21.826208 66.299612,-21.055638 67.321877,-19.514498 C 68.351887,-17.981098 68.866890,-15.750703 68.866890,-12.823311 C 68.866890,-9.9036583 68.351887,-7.6732633 67.321877,-6.1321233 C 66.299612,-4.5987243 64.816555,-3.8320273 62.872704,-3.8320273 C 60.928850,-3.8320273 59.441920,-4.5987243 58.411913,-6.1321233 C 57.389649,-7.6732633 56.878515,-9.9036583 56.878515,-12.823311 C 56.878515,-15.750703 57.389649,-17.981098 58.411913,-19.514498 C 59.441920,-21.055638 60.928850,-21.826208 62.872704,-21.826208 z M 43.124412,-6.1437373 L 46.957903,-6.1437373 L 46.957903,-19.375096 L 42.787530,-18.538697 L 42.787530,-20.676160 L 46.934670,-21.512558 L 49.281231,-21.512558 L 49.281231,-6.1437373 L 53.114725,-6.1437373 L 53.114725,-4.1689093 L 43.124412,-4.1689093 L 43.124412,-6.1437373 z M 32.599735,-19.967545 C 31.391604,-19.967545 30.481632,-19.371224 29.869823,-18.178582 C 29.265758,-16.993684 28.963725,-15.208594 28.963725,-12.823311 C 28.963725,-10.445767 29.265758,-8.6606773 29.869823,-7.4680373 C 30.481632,-6.2831393 31.391604,-5.6906903 32.599735,-5.6906903 C 33.815611,-5.6906903 34.725579,-6.2831393 35.329646,-7.4680373 C 35.941455,-8.6606773 36.247360,-10.445767 36.247360,-12.823311 C 36.247360,-15.208594 35.941455,-16.993684 35.329646,-18.178582 C 34.725579,-19.371224 33.815611,-19.967545 32.599735,-19.967545 z M 32.599735,-21.826208 C 34.543585,-21.826208 36.026643,-21.055638 37.048907,-19.514498 C 38.078917,-17.981098 38.593920,-15.750703 38.593920,-12.823311 C 38.593920,-9.9036583 38.078917,-7.6732633 37.048907,-6.1321233 C 36.026643,-4.5987243 34.543585,-3.8320273 32.599735,-3.8320273 C 30.655884,-3.8320273 29.168953,-4.5987243 28.138943,-6.1321233 C 27.116679,-7.6732633 26.605547,-9.9036583 26.605547,-12.823311 C 26.605547,-15.750703 27.116679,-17.981098 28.138943,-19.514498 C 29.168953,-21.055638 30.655884,-21.826208 32.599735,-21.826208 z M 12.851442,-6.1437373 L 16.684934,-6.1437373 L 16.684934,-19.375096 L 12.514560,-18.538697 L 12.514560,-20.676160 L 16.661701,-21.512558 L 19.008263,-21.512558 L 19.008263,-6.1437373 L 22.841755,-6.1437373 L 22.841755,-4.1689093 L 12.851442,-4.1689093 L 12.851442,-6.1437373 z M 43.124412,17.647149 L 46.957903,17.647149 L 46.957903,4.4157897 L 42.787530,5.2521877 L 42.787530,3.1147257 L 46.934670,2.2783277 L 49.281231,2.2783277 L 49.281231,17.647149 L 53.114725,17.647149 L 53.114725,19.621977 L 43.124412,19.621977 L 43.124412,17.647149 z M 32.599735,3.8233407 C 31.391604,3.8233407 30.481632,4.4196627 29.869823,5.6123027 C 29.265758,6.7972007 28.963725,8.5822907 28.963725,10.967576 C 28.963725,13.345117 29.265758,15.130207 29.869823,16.322849 C 30.481632,17.507747 31.391604,18.100197 32.599735,18.100197 C 33.815611,18.100197 34.725579,17.507747 35.329646,16.322849 C 35.941455,15.130207 36.247360,13.345117 36.247360,10.967576 C 36.247360,8.5822907 35.941455,6.7972007 35.329646,5.6123027 C 34.725579,4.4196627 33.815611,3.8233407 32.599735,3.8233407 z M 32.599735,1.9646777 C 34.543585,1.9646777 36.026643,2.7352477 37.048907,4.2763887 C 38.078917,5.8097867 38.593920,8.0401817 38.593920,10.967576 C 38.593920,13.887226 38.078917,16.117623 37.048907,17.658763 C 36.026643,19.192162 34.543585,19.958859 32.599735,19.958859 C 30.655884,19.958859 29.168953,19.192162 28.138943,17.658763 C 27.116679,16.117623 26.605547,13.887226 26.605547,10.967576 C 26.605547,8.0401817 27.116679,5.8097867 28.138943,4.2763887 C 29.168953,2.7352477 30.655884,1.9646777 32.599735,1.9646777 z M 17.463249,3.8233407 C 16.255118,3.8233407 15.345148,4.4196627 14.733339,5.6123027 C 14.129273,6.7972007 13.827240,8.5822907 13.827240,10.967576 C 13.827240,13.345117 14.129273,15.130207 14.733339,16.322849 C 15.345148,17.507747 16.255118,18.100197 17.463249,18.100197 C 18.679125,18.100197 19.589095,17.507747 20.193160,16.322849 C 20.804970,15.130207 21.110875,13.345117 21.110875,10.967576 C 21.110875,8.5822907 20.804970,6.7972007 20.193160,5.6123027 C 19.589095,4.4196627 18.679125,3.8233407 17.463249,3.8233407 z M 17.463249,1.9646777 C 19.407101,1.9646777 20.890159,2.7352477 21.912423,4.2763887 C 22.942432,5.8097867 23.457437,8.0401817 23.457437,10.967576 C 23.457437,13.887226 22.942432,16.117623 21.912423,17.658763 C 20.890159,19.192162 19.407101,19.958859 17.463249,19.958859 C 15.519398,19.958859 14.032468,19.192162 13.002459,17.658763 C 11.980194,16.117623 11.469062,13.887226 11.469062,10.967576 C 11.469062,8.0401817 11.980194,5.8097867 13.002459,4.2763887 C 14.032468,2.7352477 15.519398,1.9646777 17.463249,1.9646777 z "
       transform="translate(0.000000,-35.43308)"
       style="font-size:72.000000;fill-opacity:0.39887640;stroke-width:1.0000000pt;font-family:Bitstream Vera Sans;"
       id="path1055" />
    <path
       d="M 80.277287,-81.578490 C 79.069156,-81.578490 78.159184,-80.982169 77.547375,-79.789528 C 76.943312,-78.604630 76.641276,-76.819540 76.641276,-74.434256 C 76.641276,-72.056715 76.943312,-70.271625 77.547375,-69.078985 C 78.159184,-67.894087 79.069156,-67.301638 80.277287,-67.301638 C 81.493163,-67.301638 82.403131,-67.894087 83.007198,-69.078985 C 83.619007,-70.271625 83.924911,-72.056715 83.924911,-74.434256 C 83.924911,-76.819540 83.619007,-78.604630 83.007198,-79.789528 C 82.403131,-80.982169 81.493163,-81.578490 80.277287,-81.578490 z M 80.277287,-83.437153 C 82.221137,-83.437153 83.704195,-82.666582 84.726459,-81.125441 C 85.756469,-79.592045 86.271472,-77.361650 86.271472,-74.434256 C 86.271472,-71.514607 85.756469,-69.284211 84.726459,-67.743071 C 83.704195,-66.209672 82.221137,-65.442975 80.277287,-65.442975 C 78.333436,-65.442975 76.846506,-66.209672 75.816496,-67.743071 C 74.794231,-69.284211 74.283098,-71.514607 74.283098,-74.434256 C 74.283098,-77.361650 74.794231,-79.592045 75.816496,-81.125441 C 76.846506,-82.666582 78.333436,-83.437153 80.277287,-83.437153 z M 60.528993,-67.754685 L 64.362488,-67.754685 L 64.362488,-80.986041 L 60.192111,-80.149644 L 60.192111,-82.287105 L 64.339252,-83.123503 L 66.685816,-83.123503 L 66.685816,-67.754685 L 70.519307,-67.754685 L 70.519307,-65.779857 L 60.528993,-65.779857 L 60.528993,-67.754685 z M 50.004316,-81.578490 C 48.796185,-81.578490 47.886217,-80.982169 47.274405,-79.789528 C 46.670341,-78.604630 46.368309,-76.819540 46.368309,-74.434256 C 46.368309,-72.056715 46.670341,-70.271625 47.274405,-69.078985 C 47.886217,-67.894087 48.796185,-67.301638 50.004316,-67.301638 C 51.220192,-67.301638 52.130164,-67.894087 52.734228,-69.078985 C 53.346037,-70.271625 53.651941,-72.056715 53.651941,-74.434256 C 53.651941,-76.819540 53.346037,-78.604630 52.734228,-79.789528 C 52.130164,-80.982169 51.220192,-81.578490 50.004316,-81.578490 z M 50.004316,-83.437153 C 51.948167,-83.437153 53.431228,-82.666582 54.453492,-81.125441 C 55.483499,-79.592045 55.998505,-77.361650 55.998505,-74.434256 C 55.998505,-71.514607 55.483499,-69.284211 54.453492,-67.743071 C 53.431228,-66.209672 51.948167,-65.442975 50.004316,-65.442975 C 48.060466,-65.442975 46.573535,-66.209672 45.543526,-67.743071 C 44.521261,-69.284211 44.010131,-71.514607 44.010131,-74.434256 C 44.010131,-77.361650 44.521261,-79.592045 45.543526,-81.125441 C 46.573535,-82.666582 48.060466,-83.437153 50.004316,-83.437153 z M 34.867833,-81.578490 C 33.659702,-81.578490 32.749730,-80.982169 32.137921,-79.789528 C 31.533856,-78.604630 31.231823,-76.819540 31.231823,-74.434256 C 31.231823,-72.056715 31.533856,-70.271625 32.137921,-69.078985 C 32.749730,-67.894087 33.659702,-67.301638 34.867833,-67.301638 C 36.083709,-67.301638 36.993677,-67.894087 37.597744,-69.078985 C 38.209553,-70.271625 38.515458,-72.056715 38.515458,-74.434256 C 38.515458,-76.819540 38.209553,-78.604630 37.597744,-79.789528 C 36.993677,-80.982169 36.083709,-81.578490 34.867833,-81.578490 z M 34.867833,-83.437153 C 36.811683,-83.437153 38.294741,-82.666582 39.317005,-81.125441 C 40.347015,-79.592045 40.862018,-77.361650 40.862018,-74.434256 C 40.862018,-71.514607 40.347015,-69.284211 39.317005,-67.743071 C 38.294741,-66.209672 36.811683,-65.442975 34.867833,-65.442975 C 32.923982,-65.442975 31.437051,-66.209672 30.407041,-67.743071 C 29.384777,-69.284211 28.873645,-71.514607 28.873645,-74.434256 C 28.873645,-77.361650 29.384777,-79.592045 30.407041,-81.125441 C 31.437051,-82.666582 32.923982,-83.437153 34.867833,-83.437153 z M 15.119540,-67.754685 L 18.953032,-67.754685 L 18.953032,-80.986041 L 14.782658,-80.149644 L 14.782658,-82.287105 L 18.929799,-83.123503 L 21.276361,-83.123503 L 21.276361,-67.754685 L 25.109853,-67.754685 L 25.109853,-65.779857 L 15.119540,-65.779857 L 15.119540,-67.754685 z M 65.140803,-57.787606 C 63.932672,-57.787606 63.022701,-57.191285 62.410892,-55.998644 C 61.806825,-54.813746 61.504793,-53.028656 61.504793,-50.643373 C 61.504793,-48.265831 61.806825,-46.480741 62.410892,-45.288101 C 63.022701,-44.103203 63.932672,-43.510754 65.140803,-43.510754 C 66.356676,-43.510754 67.266647,-44.103203 67.870711,-45.288101 C 68.482523,-46.480741 68.788428,-48.265831 68.788428,-50.643373 C 68.788428,-53.028656 68.482523,-54.813746 67.870711,-55.998644 C 67.266647,-57.191285 66.356676,-57.787606 65.140803,-57.787606 z M 65.140803,-59.646269 C 67.084654,-59.646269 68.567711,-58.875699 69.589976,-57.334559 C 70.619986,-55.801160 71.134989,-53.570765 71.134989,-50.643373 C 71.134989,-47.723722 70.619986,-45.493327 69.589976,-43.952187 C 68.567711,-42.418788 67.084654,-41.652091 65.140803,-41.652091 C 63.196949,-41.652091 61.710019,-42.418788 60.680012,-43.952187 C 59.657748,-45.493327 59.146614,-47.723722 59.146614,-50.643373 C 59.146614,-53.570765 59.657748,-55.801160 60.680012,-57.334559 C 61.710019,-58.875699 63.196949,-59.646269 65.140803,-59.646269 z M 45.392510,-43.963801 L 49.226001,-43.963801 L 49.226001,-57.195157 L 45.055628,-56.358759 L 45.055628,-58.496221 L 49.202768,-59.332619 L 51.549329,-59.332619 L 51.549329,-43.963801 L 55.382824,-43.963801 L 55.382824,-41.988973 L 45.392510,-41.988973 L 45.392510,-43.963801 z M 34.867833,-57.787606 C 33.659702,-57.787606 32.749730,-57.191285 32.137921,-55.998644 C 31.533856,-54.813746 31.231823,-53.028656 31.231823,-50.643373 C 31.231823,-48.265831 31.533856,-46.480741 32.137921,-45.288101 C 32.749730,-44.103203 33.659702,-43.510754 34.867833,-43.510754 C 36.083709,-43.510754 36.993677,-44.103203 37.597744,-45.288101 C 38.209553,-46.480741 38.515458,-48.265831 38.515458,-50.643373 C 38.515458,-53.028656 38.209553,-54.813746 37.597744,-55.998644 C 36.993677,-57.191285 36.083709,-57.787606 34.867833,-57.787606 z M 34.867833,-59.646269 C 36.811683,-59.646269 38.294741,-58.875699 39.317005,-57.334559 C 40.347015,-55.801160 40.862018,-53.570765 40.862018,-50.643373 C 40.862018,-47.723722 40.347015,-45.493327 39.317005,-43.952187 C 38.294741,-42.418788 36.811683,-41.652091 34.867833,-41.652091 C 32.923982,-41.652091 31.437051,-42.418788 30.407041,-43.952187 C 29.384777,-45.493327 28.873645,-47.723722 28.873645,-50.643373 C 28.873645,-53.570765 29.384777,-55.801160 30.407041,-57.334559 C 31.437051,-58.875699 32.923982,-59.646269 34.867833,-59.646269 z M 15.119540,-43.963801 L 18.953032,-43.963801 L 18.953032,-57.195157 L 14.782658,-56.358759 L 14.782658,-58.496221 L 18.929799,-59.332619 L 21.276361,-59.332619 L 21.276361,-43.963801 L 25.109853,-43.963801 L 25.109853,-41.988973 L 15.119540,-41.988973 L 15.119540,-43.963801 z M 45.392510,-20.172918 L 49.226001,-20.172918 L 49.226001,-33.404274 L 45.055628,-32.567876 L 45.055628,-34.705338 L 49.202768,-35.541736 L 51.549329,-35.541736 L 51.549329,-20.172918 L 55.382824,-20.172918 L 55.382824,-18.198090 L 45.392510,-18.198090 L 45.392510,-20.172918 z M 34.867833,-33.996723 C 33.659702,-33.996723 32.749730,-33.400401 32.137921,-32.207761 C 31.533856,-31.022863 31.231823,-29.237773 31.231823,-26.852489 C 31.231823,-24.474948 31.533856,-22.689858 32.137921,-21.497218 C 32.749730,-20.312320 33.659702,-19.719870 34.867833,-19.719870 C 36.083709,-19.719870 36.993677,-20.312320 37.597744,-21.497218 C 38.209553,-22.689858 38.515458,-24.474948 38.515458,-26.852489 C 38.515458,-29.237773 38.209553,-31.022863 37.597744,-32.207761 C 36.993677,-33.400401 36.083709,-33.996723 34.867833,-33.996723 z M 34.867833,-35.855386 C 36.811683,-35.855386 38.294741,-35.084816 39.317005,-33.543675 C 40.347015,-32.010277 40.862018,-29.779882 40.862018,-26.852489 C 40.862018,-23.932839 40.347015,-21.702444 39.317005,-20.161304 C 38.294741,-18.627905 36.811683,-17.861208 34.867833,-17.861208 C 32.923982,-17.861208 31.437051,-18.627905 30.407041,-20.161304 C 29.384777,-21.702444 28.873645,-23.932839 28.873645,-26.852489 C 28.873645,-29.779882 29.384777,-32.010277 30.407041,-33.543675 C 31.437051,-35.084816 32.923982,-35.855386 34.867833,-35.855386 z M 19.731347,-33.996723 C 18.523216,-33.996723 17.613246,-33.400401 17.001437,-32.207761 C 16.397371,-31.022863 16.095338,-29.237773 16.095338,-26.852489 C 16.095338,-24.474948 16.397371,-22.689858 17.001437,-21.497218 C 17.613246,-20.312320 18.523216,-19.719870 19.731347,-19.719870 C 20.947223,-19.719870 21.857193,-20.312320 22.461258,-21.497218 C 23.073068,-22.689858 23.378973,-24.474948 23.378973,-26.852489 C 23.378973,-29.237773 23.073068,-31.022863 22.461258,-32.207761 C 21.857193,-33.400401 20.947223,-33.996723 19.731347,-33.996723 z M 19.731347,-35.855386 C 21.675199,-35.855386 23.158257,-35.084816 24.180521,-33.543675 C 25.210530,-32.010277 25.725535,-29.779882 25.725535,-26.852489 C 25.725535,-23.932839 25.210530,-21.702444 24.180521,-20.161304 C 23.158257,-18.627905 21.675199,-17.861208 19.731347,-17.861208 C 17.787496,-17.861208 16.300566,-18.627905 15.270557,-20.161304 C 14.248292,-21.702444 13.737160,-23.932839 13.737160,-26.852489 C 13.737160,-29.779882 14.248292,-32.010277 15.270557,-33.543675 C 16.300566,-35.084816 17.787496,-35.855386 19.731347,-35.855386 z "
       style="font-size:72.000000;fill:#ffffff;stroke-width:1.0000000pt;font-family:Bitstream Vera Sans;"
       id="path1054" />
  </g>
  <path
     d="M 23.989933,16.072285 C 16.148085,16.164374 5.4985571,15.412565 4.6580273,16.513433 C 3.8811180,17.614302 4.0360319,32.312663 4.3756654,46.479484 C 4.6896087,38.479191 3.8878808,21.132326 6.0900759,18.343915 C 7.9610860,15.920797 14.144243,16.557890 23.989933,16.072285 z "
     style="font-size:12.000000;fill:url(#linearGradient573);fill-opacity:1.00000000;fill-rule:evenodd;stroke-width:1.0000000pt;"
     id="path616"
     sodipodi:nodetypes="czcsc" />
  <path
     d="M 16.833283,46.911629 C 17.495681,48.890597 44.926124,57.789031 46.727128,56.295781 C 48.339223,54.945119 60.401761,14.742471 59.594085,13.148069 C 58.754550,11.390243 30.924471,7.0118015 29.603495,8.2141050 C 27.976338,9.7037604 16.137598,44.641020 16.833283,46.911629 z "
     style="font-size:12;opacity:0.302675;fill-rule:evenodd;stroke-width:12.5;"
     id="path639" />
  <path
     d="M 16.927581,45.273711 C 17.547335,47.125185 43.210592,55.450354 44.895565,54.053306 C 46.403797,52.789655 57.689234,15.176992 56.933596,13.685275 C 56.148138,12.040695 30.110964,7.9443578 28.875093,9.0692054 C 27.352763,10.462892 16.276711,43.149383 16.927581,45.273711 z "
     style="font-size:12.000000;fill:url(#linearGradient586);fill-rule:evenodd;stroke:#261933;stroke-width:1.8750000;stroke-dasharray:none;"
     id="path634" />
  <path
     d="M 18.673626,43.539408 C 18.405794,42.860875 29.047651,11.312320 30.042546,10.661707 C 31.285963,9.8131474 51.386548,13.569563 51.653754,14.246502 C 51.898667,14.866939 35.971188,11.969817 32.427687,15.139383 C 25.631569,21.047620 18.917907,44.158285 18.673626,43.539408 z "
     style="font-size:12;opacity:0.699936;fill:url(#linearGradient587);fill-rule:evenodd;stroke:none;stroke-width:0.100121pt;"
     id="path640" />
  <ellipse
     cx="235.50473"
     cy="137.50008"
     rx="62.354645"
     ry="72.145889"
     d="M 297.85938 137.50008 A 62.354645 72.145889 0 1 0 173.15009,137.50008 A 62.354645 72.145889 0 1 0 297.85938 137.50008 z"
     transform="matrix(3.090435e-2,7.406097e-3,-7.406097e-3,3.090435e-2,40.15484,27.31994)"
     style="opacity:0.29636899;fill-rule:evenodd;stroke-width:22.242701;"
     id="path680" />
  <ellipse
     cx="235.50473"
     cy="137.50008"
     rx="62.354645"
     ry="72.145889"
     d="M 297.85938 137.50008 A 62.354645 72.145889 0 1 0 173.15009,137.50008 A 62.354645 72.145889 0 1 0 297.85938 137.50008 z"
     transform="matrix(2.803195e-2,6.717739e-3,-6.717739e-3,2.803195e-2,38.93234,23.33441)"
     style="opacity:0.29636899;fill-rule:evenodd;stroke-width:17.385099;"
     id="path678" />
  <ellipse
     cx="235.50473"
     cy="137.50008"
     rx="62.354645"
     ry="72.145889"
     d="M 297.85938 137.50008 A 62.354645 72.145889 0 1 0 173.15009,137.50008 A 62.354645 72.145889 0 1 0 297.85938 137.50008 z"
     transform="matrix(3.334955e-2,7.992073e-3,-7.992073e-3,3.334955e-2,34.41816,18.25255)"
     style="opacity:0.29636899;fill-rule:evenodd;stroke-width:14.975200;"
     id="path677" />
  <ellipse
     cx="235.50473"
     cy="137.50008"
     rx="62.354645"
     ry="72.145889"
     d="M 297.85938 137.50008 A 62.354645 72.145889 0 1 0 173.15009,137.50008 A 62.354645 72.145889 0 1 0 297.85938 137.50008 z"
     transform="matrix(4.328725e-2,1.037361e-2,-1.037361e-2,4.328725e-2,27.15854,13.04266)"
     style="opacity:0.30267498;fill-rule:evenodd;stroke-width:12.500000;"
     id="path676" />
  <path
     d="M 30.729743,34.236311 C 30.683057,33.708276 27.699581,32.107835 27.969464,29.749082 C 28.249144,27.344080 32.444932,24.679015 35.814316,25.415514 C 40.342130,26.367362 44.888578,33.103610 44.568287,36.225812 C 44.217290,39.700522 31.276673,44.247725 28.202714,43.092038 C 25.206745,42.004830 25.042868,39.246908 25.862429,37.561937 C 26.688382,35.900394 30.699209,34.708007 30.729743,34.236311 z M 35.239147,30.188296 C 36.478278,29.490011 37.824950,31.455352 37.104517,32.230585 C 36.276396,33.068152 34.019178,30.875752 35.239147,30.188296 z "
     style="opacity:0.29636899;fill-rule:evenodd;stroke-width:12.500000;stroke-linejoin:round;"
     id="path674" />
  <path
     d="M 30.668264,33.659326 C 30.625263,33.172480 27.874437,31.696893 28.123280,29.522088 C 28.381142,27.304633 32.249731,24.847397 35.356372,25.526417 C 39.531077,26.404083 43.722945,32.614959 43.427666,35.493737 C 43.104055,38.697433 31.172579,42.890074 28.338348,41.824467 C 25.576007,40.822089 25.424916,38.279191 26.180557,36.725667 C 26.942100,35.193696 30.640111,34.094238 30.668264,33.659326 z M 34.825996,29.927037 C 35.968543,29.283218 37.210199,31.095296 36.545911,31.810016 C 35.782417,32.582279 33.701222,30.560847 34.825996,29.927037 z "
     style="fill:url(#linearGradient649);fill-rule:evenodd;stroke:#261e2e;stroke-width:1.2500000;stroke-linejoin:round;stroke-dasharray:none;"
     id="path594" />
  <path
     d="M 27.288217,40.455373 C 26.536324,39.760990 26.390730,37.721483 26.844559,37.188202 C 27.813517,36.049624 31.039140,34.465071 31.158404,34.542280 C 31.270617,34.614887 28.509084,36.531798 27.787030,37.980225 C 27.010613,39.436238 27.455051,40.616660 27.288217,40.455373 z "
     style="opacity:0.69993597;fill:url(#linearGradient651);fill-rule:evenodd;stroke:#ffffff;stroke-width:0.044512868pt;"
     id="path650" />
  <path
     d="M 30.706349,32.688360 C 28.622878,30.277744 28.249017,29.018317 30.909720,27.311888 C 32.320851,26.446154 35.571895,25.380407 38.964993,28.345910 C 35.760174,26.651576 32.375053,28.464188 31.449240,28.997985 C 30.680138,29.439580 29.644908,30.227420 30.706349,32.688360 z "
     style="opacity:0.69999999;fill:url(#linearGradient656);fill-rule:evenodd;stroke:#ffffff;stroke-width:0.044512868pt;"
     id="path655" />
  <path
     d="M 34.728900,32.779340 C 34.618124,32.656348 36.345061,32.997619 36.809682,32.638338 C 37.313381,32.248815 37.518311,30.404594 37.634028,30.533065 C 37.787741,30.703712 38.103582,33.160299 37.618054,33.535708 C 37.135223,33.909044 34.887597,32.955476 34.728900,32.779340 z "
     style="opacity:0.69999999;fill:url(#linearGradient658);fill-rule:evenodd;stroke:#ffffff;stroke-width:0.060356045pt;"
     id="path657" />
  <ellipse
     cx="235.50473"
     cy="137.50008"
     rx="62.354645"
     ry="72.145889"
     d="M 297.85938 137.50008 A 62.354645 72.145889 0 1 0 173.15009,137.50008 A 62.354645 72.145889 0 1 0 297.85938 137.50008 z"
     transform="matrix(4.328725e-2,1.037361e-2,-1.037361e-2,4.328725e-2,26.82815,12.25581)"
     style="fill:url(#linearGradient663);fill-rule:evenodd;stroke:#261e2e;stroke-width:28.081750;stroke-dasharray:none;"
     id="path659" />
  <ellipse
     cx="235.50473"
     cy="137.50008"
     rx="62.354645"
     ry="72.145889"
     d="M 297.85938 137.50008 A 62.354645 72.145889 0 1 0 173.15009,137.50008 A 62.354645 72.145889 0 1 0 297.85938 137.50008 z"
     transform="matrix(3.334955e-2,7.992073e-3,-7.992073e-3,3.334955e-2,34.21088,17.54240)"
     style="fill:url(#linearGradient664);fill-rule:evenodd;stroke:#261e2e;stroke-width:36.449722;stroke-dasharray:none;"
     id="path660" />
  <ellipse
     cx="235.50473"
     cy="137.50008"
     rx="62.354645"
     ry="72.145889"
     d="M 297.85938 137.50008 A 62.354645 72.145889 0 1 0 173.15009,137.50008 A 62.354645 72.145889 0 1 0 297.85938 137.50008 z"
     transform="matrix(2.803195e-2,6.717739e-3,-6.717739e-3,2.803195e-2,38.75901,22.67958)"
     style="fill:url(#linearGradient665);fill-rule:evenodd;stroke:#261e2e;stroke-width:43.364153;stroke-dasharray:none;"
     id="path661" />
  <ellipse
     cx="235.50473"
     cy="137.50008"
     rx="62.354645"
     ry="72.145889"
     d="M 297.85938 137.50008 A 62.354645 72.145889 0 1 0 173.15009,137.50008 A 62.354645 72.145889 0 1 0 297.85938 137.50008 z"
     transform="matrix(2.361116e-2,5.658319e-3,-5.658319e-3,2.361116e-2,41.34132,28.14768)"
     style="fill:url(#linearGradient666);fill-rule:evenodd;stroke:#261e2e;stroke-width:51.483355;stroke-dasharray:none;"
     id="path662" />
  <path
     d="M 33.969055,22.332643 C 33.880667,22.177592 33.148590,19.930477 34.414191,18.777020 C 35.606011,17.657365 37.467004,18.926903 37.552514,19.076964 C 37.626101,19.206173 36.216279,18.401044 34.891623,19.614858 C 33.692007,20.760347 34.039821,22.456852 33.969055,22.332643 z "
     style="opacity:0.69999999;fill:url(#linearGradient668);fill-rule:evenodd;stroke:#ffffff;stroke-width:0.042661276pt;"
     id="path667" />
  <path
     d="M 39.844381,25.108575 C 39.783660,25.002076 39.280840,23.458645 40.150170,22.666372 C 40.968676,21.897381 42.246860,22.769371 42.305627,22.872397 C 42.356228,22.961169 41.387843,22.408141 40.478056,23.241890 C 39.654132,24.028678 39.892968,25.193904 39.844381,25.108575 z "
     style="opacity:0.69999999;fill:url(#linearGradient668);fill-rule:evenodd;stroke:#ffffff;stroke-width:0.029301578pt;"
     id="path669" />
  <path
     d="M 43.539434,29.111169 C 43.490160,29.024707 43.081895,27.771507 43.787738,27.128184 C 44.452344,26.503781 45.490253,27.211802 45.537936,27.295448 C 45.578987,27.367546 44.792720,26.918495 44.054021,27.595478 C 43.384973,28.234330 43.578899,29.180453 43.539434,29.111169 z "
     style="opacity:0.69999999;fill:url(#linearGradient668);fill-rule:evenodd;stroke:#ffffff;stroke-width:0.023792137pt;"
     id="path670" />
  <path
     d="M 45.465058,33.522804 C 45.425301,33.453145 45.096265,32.443104 45.665120,31.924642 C 46.200779,31.421457 47.037245,31.992043 47.075680,32.059437 C 47.108760,32.117593 46.475110,31.755689 45.879748,32.301270 C 45.340529,32.816128 45.496825,33.578655 45.465058,33.522804 z "
     style="opacity:0.69999999;fill:url(#linearGradient668);fill-rule:evenodd;stroke:#ffffff;stroke-width:0.017004026;"
     id="path671" />
</svg>
