<?xml version="1.0" encoding="UTF-8" standalone="no"?>
<!DOCTYPE svg PUBLIC "-//W3C//DTD SVG 20010904//EN"
"http://www.w3.org/TR/2001/REC-SVG-20010904/DTD/svg10.dtd">
<!-- Created with Inkscape (http://www.inkscape.org/) -->
<svg
   id="svg1"
   sodipodi:version="0.32"
   inkscape:version="0.37"
   width="48pt"
   height="48pt"
   sodipodi:docbase="/home/dan/Projects/Lila-icons/scalable/apps"
   sodipodi:docname="glade-2.svg"
   xmlns="http://www.w3.org/2000/svg"
   xmlns:inkscape="http://www.inkscape.org/namespaces/inkscape"
   xmlns:sodipodi="http://sodipodi.sourceforge.net/DTD/sodipodi-0.dtd"
   xmlns:xlink="http://www.w3.org/1999/xlink">
  <defs
     id="defs3">
    <linearGradient
       id="linearGradient642">
      <stop
         style="stop-color:#d9cce6;stop-opacity:1;"
         offset="0.00000000"
         id="stop643" />
      <stop
         style="stop-color:#73667f;stop-opacity:1;"
         offset="1.00000000"
         id="stop644" />
    </linearGradient>
    <linearGradient
       id="linearGradient866">
      <stop
         style="stop-color:#ffffff;stop-opacity:1;"
         offset="0.00000000"
         id="stop867" />
      <stop
         style="stop-color:#d9cce6;stop-opacity:1;"
         offset="1.00000000"
         id="stop868" />
    </linearGradient>
    <linearGradient
       id="linearGradient584">
      <stop
         style="stop-color:#ffffff;stop-opacity:1;"
         offset="0.00000000"
         id="stop585" />
      <stop
         style="stop-color:#ffffff;stop-opacity:0;"
         offset="1.00000000"
         id="stop586" />
    </linearGradient>
    <linearGradient
       xlink:href="#linearGradient866"
       id="linearGradient586"
       x1="-0.00000000"
       y1="0.01562500"
       x2="0.99122804"
       y2="0.98437500" />
    <linearGradient
       xlink:href="#linearGradient584"
       id="linearGradient587"
       x1="0.00000000"
       y1="-0.00000000"
       x2="1.00000000"
       y2="1.00000000" />
    <linearGradient
       xlink:href="#linearGradient866"
       id="linearGradient638"
       x1="0.00000000"
       y1="0.00000000"
       x2="0.98684210"
       y2="1.02343750" />
    <radialGradient
       xlink:href="#linearGradient866"
       id="radialGradient639" />
    <linearGradient
       xlink:href="#linearGradient642"
       id="linearGradient640"
       x1="0.00000000"
       y1="-0.00000000"
       x2="0.98684210"
       y2="1.02343750" />
    <linearGradient
       xlink:href="#linearGradient584"
       id="linearGradient641"
       x1="0.00000000"
       y1="0.00000000"
       x2="0.99270076"
       y2="0.95238096" />
    <linearGradient
       xlink:href="#linearGradient584"
       id="linearGradient645"
       x1="-0.00000000"
       y1="-0.00000000"
       x2="0.99270076"
       y2="0.94999999" />
    <linearGradient
       xlink:href="#linearGradient584"
       id="linearGradient699"
       x1="0.00000000"
       y1="0.00000000"
       x2="0.98701298"
       y2="1.00781250" />
    <linearGradient
       xlink:href="#linearGradient584"
       id="linearGradient700"
       x1="-0.00000000"
       y1="-0.00000000"
       x2="0.96875000"
       y2="0.99218750" />
    <linearGradient
       xlink:href="#linearGradient584"
       id="linearGradient701"
       x1="-0.00000000"
       y1="-0.00000000"
       x2="0.97058821"
       y2="0.97656250" />
    <linearGradient
       xlink:href="#linearGradient584"
       id="linearGradient702"
       x1="-0.00000000"
       y1="0.00000000"
       x2="1.01485145"
       y2="1.02343750" />
    <linearGradient
       xlink:href="#linearGradient584"
       id="linearGradient703"
       x1="0.00000000"
       y1="-0.00000000"
       x2="1.01315784"
       y2="1.00781250" />
    <linearGradient
       xlink:href="#linearGradient642"
       id="linearGradient704"
       x1="0.26760563"
       y1="0.31250000"
       x2="0.65492958"
       y2="0.65625000" />
  </defs>
  <sodipodi:namedview
     id="base"
     pagecolor="#ffffff"
     bordercolor="#666666"
     borderopacity="1.0"
     inkscape:pageopacity="0.0"
     inkscape:pageshadow="2"
     inkscape:zoom="7.97947193"
     inkscape:cx="21.3503690"
     inkscape:cy="24.2738768"
     inkscape:window-width="771"
     inkscape:window-height="689"
     inkscape:window-x="74"
     inkscape:window-y="49" />
  <path
     style="font-size:12;opacity:0.302675;fill-rule:evenodd;stroke-width:1.25;"
     d="M 9.3783753 47.916545 C 8.5785553 46.548457 17.210769 18.400701 19.334565 17.491866 C 20.928533 16.806794 57.128037 23.662713 57.873936 25.194314 C 58.696294 27.065176 50.143097 57.695825 48.323042 58.389018 C 46.551174 59.131095 10.249219 49.539294 9.3783753 47.916545 z "
     id="path627"
     sodipodi:nodetypes="cssss" />
  <path
     style="font-size:12;fill:url(#linearGradient638);fill-rule:evenodd;stroke:#000000;stroke-width:1.875;stroke-dasharray:none;"
     d="M 9.5430983 44.779617 C 8.7850183 43.482924 16.966747 16.804102 18.97971 15.942695 C 20.490493 15.293375 54.800871 21.791507 55.507844 23.24318 C 56.287286 25.016408 48.180451 54.048549 46.455377 54.705568 C 44.775977 55.408918 10.368496 46.317679 9.5430983 44.779617 z "
     id="path628"
     sodipodi:nodetypes="cssss" />
  <path
     style="font-size:12;fill:url(#linearGradient640);fill-rule:evenodd;stroke:#000000;stroke-width:1.875;stroke-dasharray:none;"
     d="M 17.098431 20.426118 C 16.525536 20.113114 18.437114 16.279541 18.97971 15.942695 C 20.315853 14.984153 54.536844 21.953093 55.507844 23.24318 C 55.934135 23.871641 55.036367 27.734561 54.130461 28.209838 C 52.645125 29.262864 18.442549 21.539788 17.098431 20.426118 z "
     id="path629"
     sodipodi:nodetypes="cssss" />
  <path
     style="font-size:12;fill:#261933;fill-rule:evenodd;stroke-width:0.799318pt;"
     d="M 18.729522 28.541564 C 18.271597 28.291374 19.011385 26.889572 19.445092 26.620325 C 20.513095 25.854145 47.866544 31.424543 48.642681 32.455733 C 48.983423 32.958073 48.714618 33.896654 47.990511 34.276552 C 46.803255 35.118254 19.803901 29.43174 18.729522 28.541564 z "
     id="path630"
     sodipodi:nodetypes="cssss" />
  <path
     style="font-size:12;fill:#261933;fill-rule:evenodd;stroke-width:0.799318pt;"
     d="M 16.704384 34.015565 C 16.246459 33.765375 16.986247 32.363573 17.419954 32.094326 C 18.487957 31.328146 42.397889 36.355094 43.174026 37.386284 C 43.514768 37.888624 43.245963 38.827205 42.521856 39.207103 C 41.3346 40.048805 17.778763 34.90574 16.704384 34.015565 z "
     id="path631"
     sodipodi:nodetypes="cssss" />
  <path
     style="font-size:12;fill:url(#linearGradient640);fill-rule:evenodd;stroke:#000000;stroke-width:1.875;stroke-dasharray:none;"
     d="M 34.504575 47.866322 C 34.270381 47.530382 35.843998 43.276529 36.203851 43.173902 C 36.575406 43.010181 45.352807 44.673573 45.678833 45.000788 C 46.010865 45.359219 44.488322 49.581206 44.073755 49.771806 C 43.771246 49.91084 34.727678 48.246212 34.504575 47.866322 z "
     id="path632"
     sodipodi:nodetypes="cssss" />
  <path
     style="font-size:12;fill-rule:evenodd;stroke-width:1pt;"
     d="M 49.8594 23.373013 C 49.528318 23.59538 50.373727 24.777638 50.358831 24.991958 C 50.348181 25.185784 48.914912 25.794373 49.101066 26.065758 C 49.251087 26.347384 50.743599 25.453009 50.944911 25.52753 C 51.09662 25.573624 51.585896 26.851422 51.90771 26.705321 C 52.221921 26.538962 51.614936 25.293059 51.640948 25.081506 C 51.700241 24.893922 53.263397 24.397498 53.133818 24.119171 C 52.943951 23.821843 51.272688 24.6237 51.047099 24.512008 C 50.858459 24.397387 50.184555 23.18139 49.8594 23.373013 z "
     id="path633"
     sodipodi:nodetypes="cssssssss" />
  <path
     style="font-size:12;fill:url(#linearGradient641);fill-rule:evenodd;stroke-width:1pt;"
     d="M 36.265071 46.701939 C 36.155693 46.555394 36.356864 44.771121 36.921681 44.70964 C 38.563165 44.530961 42.777993 45.839472 42.883972 45.981461 C 42.977567 46.10686 39.190218 45.330045 37.5204 45.511807 C 36.983917 45.570204 36.355266 46.822783 36.265071 46.701939 z "
     id="path635"
     sodipodi:nodetypes="cssss" />
  <path
     style="font-size:12;fill:url(#linearGradient645);fill-rule:evenodd;stroke-width:1pt;"
     d="M 18.925994 19.015948 C 18.857534 18.844398 19.290911 17.158333 19.936479 17.249011 C 30.107786 18.677691 51.314692 23.418841 51.376621 23.574025 C 51.437521 23.726633 30.594433 19.617662 20.304964 18.172383 C 19.777558 18.098302 18.980363 19.152189 18.925994 19.015948 z "
     id="path636"
     sodipodi:nodetypes="cssss" />
  <path
     style="font-size:12;opacity:0.302675;fill-rule:evenodd;stroke-width:1.25;"
     d="M 4.2012961 31.583057 C 3.5174808 30.413394 10.897692 6.3481446 12.713456 5.5711256 C 14.076237 4.9854146 45.025423 10.846962 45.663138 12.156422 C 46.366222 13.755937 39.053568 39.943965 37.49749 40.536619 C 35.982611 41.171066 4.9458343 32.970445 4.2012961 31.583057 z "
     id="path726"
     sodipodi:nodetypes="cssss" />
  <path
     style="font-size:12;fill:url(#linearGradient638);fill-rule:evenodd;stroke:#000000;stroke-width:1.875;stroke-dasharray:none;"
     d="M 4.342128 28.901104 C 3.6939987 27.792481 10.689062 4.9831136 12.410069 4.2466436 C 13.70173 3.6914996 43.035785 9.2471532 43.64022 10.488277 C 44.306613 12.004319 37.375581 36.825685 35.900709 37.387411 C 34.464886 37.988748 5.0478116 30.216088 4.342128 28.901104 z "
     id="path727"
     sodipodi:nodetypes="cssss" />
  <path
     style="font-size:12;fill:url(#linearGradient640);fill-rule:evenodd;stroke:#000000;stroke-width:1.875;stroke-dasharray:none;"
     d="M 10.801647 8.0797976 C 10.311844 7.8121916 11.94617 4.5346336 12.410069 4.2466436 C 13.552419 3.4271266 42.810052 9.3853022 43.64022 10.488277 C 44.004683 11.025587 43.237125 14.328236 42.462611 14.734579 C 41.192705 15.634876 11.950817 9.0319436 10.801647 8.0797976 z "
     id="path728"
     sodipodi:nodetypes="cssss" />
  <path
     style="font-size:12;fill:#261933;fill-rule:evenodd;stroke-width:0.799318pt;"
     d="M 12.196167 15.018192 C 11.804659 14.804289 12.437149 13.605802 12.807952 13.375607 C 13.721054 12.720552 37.107202 17.483028 37.770769 18.364656 C 38.062091 18.794138 37.832273 19.596588 37.213189 19.921387 C 36.198131 20.641009 13.11472 15.779258 12.196167 15.018192 z "
     id="path729"
     sodipodi:nodetypes="cssss" />
  <path
     style="font-size:12;fill:#261933;fill-rule:evenodd;stroke-width:0.799318pt;"
     d="M 10.464752 19.698253 C 10.073244 19.48435 10.705734 18.285863 11.076537 18.055667 C 11.989639 17.400613 28.738264 21.035533 29.401831 21.917161 C 29.693152 22.346642 29.463334 23.149093 28.844251 23.473891 C 27.829192 24.193514 11.383305 20.459318 10.464752 19.698253 z "
     id="path730"
     sodipodi:nodetypes="cssss" />
  <path
     style="font-size:12;fill:url(#linearGradient640);fill-rule:evenodd;stroke:#000000;stroke-width:1.875;stroke-dasharray:none;"
     d="M 25.683232 31.540118 C 25.483005 31.252902 26.828387 27.616021 27.136048 27.528279 C 27.453713 27.388304 34.958054 28.81044 35.236793 29.090196 C 35.520668 29.396641 34.218952 33.006278 33.864513 33.169234 C 33.60588 33.288102 25.873976 31.864909 25.683232 31.540118 z "
     id="path731"
     sodipodi:nodetypes="cssss" />
  <path
     style="font-size:12;fill-rule:evenodd;stroke-width:1pt;"
     d="M 38.811017 10.599279 C 38.527955 10.789395 39.250747 11.80018 39.238012 11.983415 C 39.228906 12.149129 38.003517 12.669449 38.162671 12.901473 C 38.290933 13.142252 39.566974 12.377596 39.739088 12.441309 C 39.868793 12.480717 40.287105 13.573186 40.562244 13.448275 C 40.830882 13.306044 40.311933 12.240845 40.334173 12.059975 C 40.384866 11.899598 41.721304 11.475175 41.610519 11.237216 C 41.44819 10.983012 40.019324 11.668569 39.826454 11.573076 C 39.665175 11.47508 39.089013 10.435449 38.811017 10.599279 z "
     id="path732"
     sodipodi:nodetypes="cssssssss" />
  <path
     style="font-size:12;fill:url(#linearGradient641);fill-rule:evenodd;stroke-width:1pt;"
     d="M 27.188388 30.544615 C 27.094874 30.419325 27.266868 28.89384 27.749765 28.841276 C 29.15317 28.688512 32.756686 29.807239 32.847294 29.928634 C 32.927315 30.035846 29.689277 29.371699 28.261646 29.527098 C 27.802974 29.577025 27.265502 30.647932 27.188388 30.544615 z "
     id="path733"
     sodipodi:nodetypes="cssss" />
  <path
     style="font-size:12;fill:url(#linearGradient645);fill-rule:evenodd;stroke-width:1pt;"
     d="M 12.364143 6.8741566 C 12.305613 6.7274886 12.676133 5.2859676 13.228069 5.3634936 C 21.924146 6.5849606 40.055236 10.638461 40.108183 10.771137 C 40.16025 10.901611 22.340211 7.3885996 13.54311 6.1529416 C 13.092198 6.0896046 12.410627 6.9906376 12.364143 6.8741566 z "
     id="path734"
     sodipodi:nodetypes="cssss" />
  <path
     style="font-size:12;fill:url(#linearGradient640);fill-rule:evenodd;stroke:#000000;stroke-width:1.875;stroke-dasharray:none;"
     d="M 21.137402 44.662759 C 20.916962 44.317638 22.661036 40.130784 23.024739 40.042769 C 23.402601 39.894182 32.10569 41.910586 32.418239 42.250697 C 32.73553 42.622241 31.043775 46.779316 30.621851 46.953024 C 30.313975 47.079731 21.344986 45.051346 21.137402 44.662759 z "
     id="path735"
     sodipodi:nodetypes="cssss" />
  <path
     style="font-size:12;fill:url(#linearGradient641);fill-rule:evenodd;stroke-width:1pt;"
     d="M 22.943472 43.570401 C 22.8401 43.41956 23.113143 41.644863 23.679982 41.606236 C 25.327341 41.493974 29.485905 42.971582 29.586065 43.117734 C 29.674521 43.24681 25.921622 42.317722 24.245827 42.431921 C 23.707424 42.468611 23.028715 43.694788 22.943472 43.570401 z "
     id="path736"
     sodipodi:nodetypes="cssss" />
</svg>
