<?xml version="1.0" encoding="UTF-8" standalone="no"?>
<!DOCTYPE svg PUBLIC "-//W3C//DTD SVG 20010904//EN"
"http://www.w3.org/TR/2001/REC-SVG-20010904/DTD/svg10.dtd">
<!-- Created with Inkscape (http://www.inkscape.org/) -->
<svg
   id="svg1"
   sodipodi:version="0.32"
   inkscape:version="0.39"
   width="48.000000pt"
   height="48.000000pt"
   sodipodi:docbase="/home/stefan/new-lila-icons/makzu"
   sodipodi:docname="glines.svg"
   xmlns="http://www.w3.org/2000/svg"
   xmlns:cc="http://web.resource.org/cc/"
   xmlns:inkscape="http://www.inkscape.org/namespaces/inkscape"
   xmlns:sodipodi="http://sodipodi.sourceforge.net/DTD/sodipodi-0.dtd"
   xmlns:rdf="http://www.w3.org/1999/02/22-rdf-syntax-ns#"
   xmlns:dc="http://purl.org/dc/elements/1.1/"
   xmlns:xlink="http://www.w3.org/1999/xlink">
  <defs
     id="defs3">
    <linearGradient
       id="linearGradient8046">
      <stop
         offset="0.0000000"
         style="stop-color:#ffffff;stop-opacity:1.0000000;"
         id="stop8048" />
      <stop
         offset="1.0000000"
         style="stop-color:#ffffff;stop-opacity:0.0000000;"
         id="stop8047" />
    </linearGradient>
    <linearGradient
       id="linearGradient4866">
      <stop
         offset="0.0000000"
         style="stop-color:#f50000;stop-opacity:1.0000000;"
         id="stop4867" />
      <stop
         offset="1.0000000"
         style="stop-color:#a80000;stop-opacity:1.0000000;"
         id="stop4868" />
    </linearGradient>
    <linearGradient
       id="linearGradient4861">
      <stop
         offset="0.0000000"
         style="stop-color:#80ff80;stop-opacity:1.0000000;"
         id="stop4862" />
      <stop
         offset="1.0000000"
         style="stop-color:#408040;stop-opacity:1.0000000;"
         id="stop4863" />
    </linearGradient>
    <linearGradient
       id="linearGradient2984">
      <stop
         offset="0.0000000"
         style="stop-color:#ffffff;stop-opacity:1.0000000;"
         id="stop2986" />
      <stop
         offset="1.0000000"
         style="stop-color:#d9cce6;stop-opacity:1.0000000;"
         id="stop2985" />
    </linearGradient>
    <linearGradient
       id="linearGradient2308">
      <stop
         offset="0.0000000"
         style="stop-color:#d9cce6;stop-opacity:1.0000000;"
         id="stop2310" />
      <stop
         offset="1.0000000"
         style="stop-color:#73667f;stop-opacity:1.0000000;"
         id="stop2309" />
    </linearGradient>
    <linearGradient
       id="linearGradient2304">
      <stop
         style="stop-color:#000;stop-opacity:1;"
         offset="0"
         id="stop2305" />
      <stop
         style="stop-color:#fff;stop-opacity:1;"
         offset="1"
         id="stop2306" />
    </linearGradient>
    <defs
       id="defs920">
      <linearGradient
         id="linearGradient642"
         x1="0.0000000"
         y1="0.50000000"
         x2="1.0000000"
         y2="0.50000000"
         gradientUnits="objectBoundingBox"
         spreadMethod="pad"
         xlink:href="#linearGradient2308" />
      <linearGradient
         id="linearGradient866"
         x1="0.0000000"
         y1="0.50000000"
         x2="1.0000000"
         y2="0.50000000"
         gradientUnits="objectBoundingBox"
         spreadMethod="pad"
         xlink:href="#linearGradient2984" />
      <linearGradient
         id="linearGradient584"
         x1="0.0000000"
         y1="0.50000000"
         x2="1.0000000"
         y2="0.50000000"
         gradientUnits="objectBoundingBox"
         spreadMethod="pad"
         xlink:href="#linearGradient8046" />
      <linearGradient
         xlink:href="#linearGradient866"
         id="linearGradient586"
         x1="-0.0000000"
         y1="0.015625000"
         x2="0.99122804"
         y2="0.98437500" />
      <linearGradient
         xlink:href="#linearGradient584"
         id="linearGradient587"
         x1="0.0000000"
         y1="-0.0000000"
         x2="1.0000000"
         y2="1.0000000" />
      <linearGradient
         xlink:href="#linearGradient584"
         id="linearGradient638"
         x1="0.0000000"
         y1="-0.0000000"
         x2="0.99253732"
         y2="1.0000000" />
      <radialGradient
         xlink:href="#linearGradient866"
         id="radialGradient639" />
      <linearGradient
         xlink:href="#linearGradient584"
         id="linearGradient640"
         x1="-0.0000000"
         y1="0.0000000"
         x2="1.0000000"
         y2="0.99218750" />
      <linearGradient
         xlink:href="#linearGradient642"
         id="linearGradient641"
         x1="0.0000000"
         y1="0.0000000"
         x2="0.96666664"
         y2="0.98437500" />
      <linearGradient
         xlink:href="#linearGradient584"
         id="linearGradient645"
         x1="0.014925370"
         y1="0.0078125000"
         x2="0.97761196"
         y2="0.97656250" />
    </defs>
    <sodipodi:namedview
       id="namedview937"
       pagecolor="#ffffff"
       bordercolor="#666666"
       borderopacity="1.0"
       inkscape:pageopacity="0.0"
       inkscape:pageshadow="2"
       inkscape:zoom="7.9794719"
       inkscape:cx="25.952554"
       inkscape:cy="22.124632"
       inkscape:window-width="704"
       inkscape:window-height="586"
       inkscape:window-x="96"
       inkscape:window-y="207"
       showguides="true"
       snaptoguides="true" />
    <linearGradient
       inkscape:collect="always"
       xlink:href="#linearGradient8046"
       id="linearGradient8045"
       x1="0.0078125000"
       y1="-0.0078125000"
       x2="0.87500000"
       y2="0.92968750" />
    <radialGradient
       inkscape:collect="always"
       xlink:href="#linearGradient4866"
       id="radialGradient3628"
       cx="0.38268062"
       cy="0.33845630"
       r="0.50000000"
       fx="0.36638781"
       fy="0.33215120" />
    <radialGradient
       inkscape:collect="always"
       xlink:href="#linearGradient2308"
       id="radialGradient3629"
       cx="0.38644585"
       cy="0.36164337"
       r="0.50000000"
       fx="0.35581201"
       fy="0.36454415" />
    <radialGradient
       inkscape:collect="always"
       xlink:href="#linearGradient2984"
       id="radialGradient3630"
       cx="0.38718238"
       cy="0.36942148"
       r="0.50000000"
       fx="0.37731430"
       fy="0.34681231" />
    <radialGradient
       inkscape:collect="always"
       xlink:href="#linearGradient2308"
       id="radialGradient3631"
       cx="0.31089091"
       cy="0.29816711"
       r="0.50000000"
       fx="0.31781280"
       fy="0.28966376" />
    <radialGradient
       inkscape:collect="always"
       xlink:href="#linearGradient4861"
       id="radialGradient3632"
       cx="0.35419050"
       cy="0.28621906"
       r="0.50000000"
       fx="0.33863425"
       fy="0.28769213" />
    <radialGradient
       inkscape:collect="always"
       xlink:href="#linearGradient2984"
       id="radialGradient3634"
       cx="0.32234150"
       cy="0.28138709"
       r="0.50000000"
       fx="0.33716124"
       fy="0.27213591" />
    <radialGradient
       inkscape:collect="always"
       xlink:href="#linearGradient4866"
       id="radialGradient3635"
       cx="0.35345396"
       cy="0.27844095"
       r="0.50000000"
       fx="0.33510837"
       fy="0.26448244" />
    <radialGradient
       inkscape:collect="always"
       xlink:href="#linearGradient4861"
       id="radialGradient3636"
       cx="0.29410094"
       cy="0.28406128"
       r="0.50000000"
       fx="0.27186212"
       fy="0.29401502" />
    <radialGradient
       inkscape:collect="always"
       xlink:href="#linearGradient2984"
       id="radialGradient3637"
       cx="0.31456336"
       cy="0.28212363"
       r="0.50000000"
       fx="0.31382683"
       fy="0.27434549" />
    <radialGradient
       inkscape:collect="always"
       xlink:href="#linearGradient2308"
       id="radialGradient3638"
       cx="0.36974674"
       cy="0.28474599"
       r="0.50000000"
       fx="0.35345396"
       fy="0.27844092" />
  </defs>
  <sodipodi:namedview
     id="base"
     pagecolor="#ffffff"
     bordercolor="#666666"
     borderopacity="1.0"
     inkscape:pageopacity="0.0"
     inkscape:pageshadow="2"
     inkscape:zoom="12.166667"
     inkscape:cx="24.000001"
     inkscape:cy="22.532261"
     inkscape:window-width="820"
     inkscape:window-height="788"
     inkscape:window-x="135"
     inkscape:window-y="25"
     showguides="true"
     inkscape:guide-bbox="true" />
  <metadata
     id="metadata4">
    <rdf:RDF
       id="RDF5">
      <cc:Work
         rdf:about=""
         id="Work6">
        <dc:format
           id="format7">image/svg+xml</dc:format>
        <dc:type
           id="type9"
           rdf:resource="http://purl.org/dc/dcmitype/StillImage" />
      </cc:Work>
    </rdf:RDF>
  </metadata>
  <path
     style="opacity:0.29999998;fill:#000000;fill-opacity:1.0000000;fill-rule:evenodd;stroke:none;stroke-width:2.3350840;stroke-linecap:butt;stroke-linejoin:miter;stroke-miterlimit:4.0000000;stroke-opacity:1.0000000;"
     d="M 14.118742,4.3969519 C 11.760664,4.7909684 9.7613492,6.5620693 9.1704894,9.0323104 C 8.3826761,12.325965 10.401305,15.635650 13.694959,16.423464 C 16.988613,17.211277 20.298297,15.192650 21.086111,11.898995 C 21.873926,8.6053401 19.855913,5.2639128 16.562259,4.4760991 C 15.738845,4.2791457 14.904769,4.2656132 14.118742,4.3969519 z M 26.817104,6.1991847 C 24.459026,6.5932013 22.459712,8.3643025 21.868851,10.834543 C 21.081038,14.128198 23.099667,17.437883 26.393321,18.225697 C 29.686975,19.013510 32.997276,16.963140 33.785090,13.669485 C 34.572904,10.375831 32.554275,7.0661456 29.260621,6.2783319 C 28.437207,6.0813785 27.603131,6.0678458 26.817104,6.1991847 z M 39.547208,8.0020331 C 37.189130,8.3960496 35.158690,10.134793 34.567829,12.605034 C 33.780016,15.898688 35.829771,19.240730 39.123425,20.028546 C 42.417079,20.816359 45.727379,18.765989 46.515194,15.472334 C 47.303008,12.178680 45.252637,8.8683785 41.958983,8.0805647 C 41.135569,7.8836112 40.333235,7.8706943 39.547208,8.0020331 z M 12.317740,17.031830 C 9.9596625,17.425846 7.9603477,19.196948 7.3694880,21.667189 C 6.5816743,24.960843 8.6320442,28.271145 11.925699,29.058958 C 15.219353,29.846771 18.529654,27.796402 19.317468,24.502746 C 20.105282,21.209092 18.054911,17.898791 14.761257,17.110977 C 13.937844,16.914023 13.103767,16.900492 12.317740,17.031830 z M 50.476928,22.408018 C 48.118848,22.802034 46.087791,24.572519 45.496932,27.042761 C 44.709119,30.336415 46.759490,33.646716 50.053143,34.434530 C 53.346798,35.222343 56.656484,33.203715 57.444297,29.910060 C 58.232110,26.616406 56.182356,23.274362 52.888701,22.486549 C 52.065288,22.289596 51.262953,22.276679 50.476928,22.408018 z M 23.247460,31.437815 C 20.889381,31.831831 18.890066,33.602931 18.299206,36.073173 C 17.511393,39.366827 19.530020,42.676515 22.823676,43.464327 C 26.117330,44.252140 29.458758,42.234129 30.246571,38.940473 C 31.034385,35.646819 28.984630,32.304776 25.690975,31.516963 C 24.867562,31.320009 24.033485,31.306476 23.247460,31.437815 z M 35.977564,33.240664 C 33.619485,33.634679 31.588430,35.405164 30.997568,37.875406 C 30.209755,41.169060 32.260127,44.479363 35.553780,45.267175 C 38.847434,46.054989 42.157735,44.004617 42.945549,40.710964 C 43.733362,37.417310 41.682993,34.107009 38.389338,33.319195 C 37.565924,33.122242 36.763590,33.109325 35.977564,33.240664 z M 8.7798379,42.271076 C 6.4217592,42.665093 4.3907031,44.435577 3.7998427,46.905819 C 3.0120290,50.199474 5.0623999,53.509775 8.3560541,54.297588 C 11.649708,55.085401 14.960009,53.035031 15.747822,49.741377 C 16.535637,46.447723 14.485266,43.137420 11.191612,42.349608 C 10.368198,42.152654 9.5658645,42.139737 8.7798379,42.271076 z M 21.478199,44.073309 C 19.120121,44.467326 17.120807,46.238426 16.529947,48.708668 C 15.742133,52.002321 17.760761,55.312008 21.054416,56.099821 C 24.348070,56.887634 27.658371,54.837265 28.446186,51.543609 C 29.233999,48.249956 27.215371,44.940270 23.921716,44.152456 C 23.098302,43.955503 22.264226,43.941970 21.478199,44.073309 z M 46.907282,47.646648 C 44.549203,48.040666 42.518146,49.811152 41.927287,52.281391 C 41.139473,55.575045 43.189842,58.885346 46.483498,59.673160 C 49.777152,60.460973 53.086839,58.442345 53.874652,55.148690 C 54.662465,51.855036 52.612096,48.544737 49.318440,47.756922 C 48.495027,47.559968 47.693308,47.515309 46.907282,47.646648 z "
     id="path6164"
     transform="matrix(1.006100,0.000000,0.000000,1.006100,0.942792,-0.209478)" />
  <path
     sodipodi:type="arc"
     style="fill:url(#radialGradient3629);fill-opacity:1.00000000;fill-rule:evenodd;stroke:#261933;stroke-width:2.2845223;stroke-linecap:round;stroke-linejoin:round;stroke-miterlimit:4.0000000;stroke-opacity:1.0000000;stroke-dasharray:none;"
     id="path2314"
     sodipodi:cx="19.090910"
     sodipodi:cy="18.099174"
     sodipodi:rx="7.5206614"
     sodipodi:ry="7.5206614"
     d="M 26.611571 18.099174 A 7.5206614 7.5206614 0 1 0 11.570249,18.099174 A 7.5206614 7.5206614 0 1 0 26.611571 18.099174 z"
     transform="matrix(0.798224,0.190928,-0.190928,0.798224,14.59763,-9.167485)" />
  <path
     sodipodi:type="arc"
     style="fill:url(#radialGradient3630);fill-opacity:1.00000000;fill-rule:evenodd;stroke:#261933;stroke-width:2.2845223;stroke-linecap:round;stroke-linejoin:round;stroke-miterlimit:4.0000000;stroke-opacity:1.0000000;stroke-dasharray:none;"
     id="path2315"
     sodipodi:cx="19.090910"
     sodipodi:cy="18.099174"
     sodipodi:rx="7.5206614"
     sodipodi:ry="7.5206614"
     d="M 26.611571 18.099174 A 7.5206614 7.5206614 0 1 0 11.570249,18.099174 A 7.5206614 7.5206614 0 1 0 26.611571 18.099174 z"
     transform="matrix(0.798224,0.190928,-0.190928,0.798224,27.38529,-7.360620)" />
  <path
     sodipodi:type="arc"
     style="fill:url(#radialGradient3632);fill-opacity:1.00000000;fill-rule:evenodd;stroke:#261933;stroke-width:2.2845223;stroke-linecap:round;stroke-linejoin:round;stroke-miterlimit:4.0000000;stroke-opacity:1.0000000;stroke-dasharray:none;"
     id="path2323"
     sodipodi:cx="19.090910"
     sodipodi:cy="18.099174"
     sodipodi:rx="7.5206614"
     sodipodi:ry="7.5206614"
     d="M 26.611571 18.099174 A 7.5206614 7.5206614 0 1 0 11.570249,18.099174 A 7.5206614 7.5206614 0 1 0 26.611571 18.099174 z"
     transform="matrix(0.798224,0.190928,-0.190928,0.798224,1.551792e-2,1.725441)" />
  <path
     sodipodi:type="arc"
     style="fill:url(#radialGradient3631);fill-opacity:1.00000000;fill-rule:evenodd;stroke:#261933;stroke-width:2.2845223;stroke-linecap:round;stroke-linejoin:round;stroke-miterlimit:4.0000000;stroke-opacity:1.0000000;stroke-dasharray:none;"
     id="path2326"
     sodipodi:cx="19.090910"
     sodipodi:cy="18.099174"
     sodipodi:rx="7.5206614"
     sodipodi:ry="7.5206614"
     d="M 26.611571 18.099174 A 7.5206614 7.5206614 0 1 0 11.570249,18.099174 A 7.5206614 7.5206614 0 1 0 26.611571 18.099174 z"
     transform="matrix(0.798224,0.190928,-0.190928,0.798224,38.37852,7.146034)" />
  <path
     sodipodi:type="arc"
     style="fill:url(#radialGradient3634);fill-opacity:1.00000000;fill-rule:evenodd;stroke:#261933;stroke-width:2.2845223;stroke-linecap:round;stroke-linejoin:round;stroke-miterlimit:4.0000000;stroke-opacity:1.0000000;stroke-dasharray:none;"
     id="path2330"
     sodipodi:cx="19.090910"
     sodipodi:cy="18.099174"
     sodipodi:rx="7.5206614"
     sodipodi:ry="7.5206614"
     d="M 26.611571 18.099174 A 7.5206614 7.5206614 0 1 0 11.570249,18.099174 A 7.5206614 7.5206614 0 1 0 26.611571 18.099174 z"
     transform="matrix(0.798224,0.190928,-0.190928,0.798224,11.00873,16.23209)" />
  <path
     sodipodi:type="arc"
     style="fill:url(#radialGradient3635);fill-opacity:1.0000000;fill-rule:evenodd;stroke:#261933;stroke-width:2.2845223;stroke-linecap:round;stroke-linejoin:round;stroke-miterlimit:4.0000000;stroke-opacity:1.0000000;stroke-dasharray:none;"
     id="path2331"
     sodipodi:cx="19.090910"
     sodipodi:cy="18.099174"
     sodipodi:rx="7.5206614"
     sodipodi:ry="7.5206614"
     d="M 26.611571 18.099174 A 7.5206614 7.5206614 0 1 0 11.570249,18.099174 A 7.5206614 7.5206614 0 1 0 26.611571 18.099174 z"
     transform="matrix(0.798224,0.190928,-0.190928,0.798224,23.79639,18.03894)" />
  <path
     sodipodi:type="arc"
     style="fill:url(#radialGradient3638);fill-opacity:1.00000000;fill-rule:evenodd;stroke:#261933;stroke-width:2.2845223;stroke-linecap:round;stroke-linejoin:round;stroke-miterlimit:4.0000000;stroke-opacity:1.0000000;stroke-dasharray:none;"
     id="path2333"
     sodipodi:cx="19.090910"
     sodipodi:cy="18.099174"
     sodipodi:rx="7.5206614"
     sodipodi:ry="7.5206614"
     d="M 26.611571 18.099174 A 7.5206614 7.5206614 0 1 0 11.570249,18.099174 A 7.5206614 7.5206614 0 1 0 26.611571 18.099174 z"
     transform="matrix(0.798224,0.190928,-0.190928,0.798224,-3.573376,27.12501)" />
  <path
     sodipodi:type="arc"
     style="fill:url(#radialGradient3637);fill-opacity:1.00000000;fill-rule:evenodd;stroke:#261933;stroke-width:2.2845223;stroke-linecap:round;stroke-linejoin:round;stroke-miterlimit:4.0000000;stroke-opacity:1.0000000;stroke-dasharray:none;"
     id="path2334"
     sodipodi:cx="19.090910"
     sodipodi:cy="18.099174"
     sodipodi:rx="7.5206614"
     sodipodi:ry="7.5206614"
     d="M 26.611571 18.099174 A 7.5206614 7.5206614 0 1 0 11.570249,18.099174 A 7.5206614 7.5206614 0 1 0 26.611571 18.099174 z"
     transform="matrix(0.798224,0.190928,-0.190928,0.798224,9.214289,28.93188)" />
  <path
     sodipodi:type="arc"
     style="fill:url(#radialGradient3636);fill-opacity:1.0000000;fill-rule:evenodd;stroke:#261933;stroke-width:2.2845223;stroke-linecap:round;stroke-linejoin:round;stroke-miterlimit:4.0000000;stroke-opacity:1.0000000;stroke-dasharray:none;"
     id="path2336"
     sodipodi:cx="19.090910"
     sodipodi:cy="18.099174"
     sodipodi:rx="7.5206614"
     sodipodi:ry="7.5206614"
     d="M 26.611571 18.099174 A 7.5206614 7.5206614 0 1 0 11.570249,18.099174 A 7.5206614 7.5206614 0 1 0 26.611571 18.099174 z"
     transform="matrix(0.798224,0.190928,-0.190928,0.798224,34.78962,32.54561)" />
  <path
     sodipodi:type="arc"
     style="fill:url(#radialGradient3628);fill-opacity:1.0000000;fill-rule:evenodd;stroke:#261933;stroke-width:2.2845223;stroke-linecap:round;stroke-linejoin:round;stroke-miterlimit:4.0000000;stroke-opacity:1.0000000;stroke-dasharray:none;"
     id="path2313"
     sodipodi:cx="19.090910"
     sodipodi:cy="18.099174"
     sodipodi:rx="7.5206614"
     sodipodi:ry="7.5206614"
     d="M 26.611571 18.099174 A 7.5206614 7.5206614 0 1 0 11.570249,18.099174 A 7.5206614 7.5206614 0 1 0 26.611571 18.099174 z"
     transform="matrix(0.798224,0.190928,-0.190928,0.798224,1.809966,-10.97435)" />
  <path
     style="fill:url(#linearGradient8045);fill-opacity:1.0000000;fill-rule:evenodd;stroke:none;stroke-width:1.8064715;stroke-linecap:butt;stroke-linejoin:miter;stroke-miterlimit:4.0000000;stroke-opacity:1.0000000;"
     d="M 3.2140202,9.2705443 C 2.2225132,8.5958993 2.1688240,5.0257537 3.9805379,3.6068296 C 5.8127314,2.1718660 8.5399213,2.6501244 9.4739154,3.2661550 C 7.9522960,3.3082648 6.0103906,3.6990956 4.8748087,4.5862690 C 3.7654785,5.4529332 3.2635324,7.8933560 3.2140202,9.2705443 z "
     id="path6802"
     sodipodi:nodetypes="czczc"
     transform="matrix(1.030533,0.145612,-0.145612,1.030533,7.456164,-1.163041)" />
  <path
     style="fill:url(#linearGradient8045);fill-opacity:1.0000000;fill-rule:evenodd;stroke:none;stroke-width:1.8064715;stroke-linecap:butt;stroke-linejoin:miter;stroke-miterlimit:4.0000000;stroke-opacity:1.0000000;"
     d="M 15.963189,9.4238717 C 14.953602,8.7369247 14.898933,5.1016777 16.743684,3.6568797 C 18.609288,2.1957493 21.386208,2.6827287 22.337233,3.3099927 C 20.787867,3.3528707 18.810551,3.7508277 17.654262,4.6541787 C 16.524703,5.5366467 16.013604,8.0215707 15.963189,9.4238717 z "
     id="path6133"
     sodipodi:nodetypes="czczc"
     transform="matrix(1.012078,0.143004,-0.143004,1.012078,7.457217,-1.159416)" />
  <path
     style="fill:url(#linearGradient8045);fill-opacity:1.0000000;fill-rule:evenodd;stroke:none;stroke-width:1.8064715;stroke-linecap:butt;stroke-linejoin:miter;stroke-miterlimit:4.0000000;stroke-opacity:1.0000000;"
     d="M 28.702916,9.5266119 C 27.693329,8.8396649 27.638660,5.2044169 29.483411,3.7596189 C 31.349014,2.2984889 34.125935,2.7854689 35.076960,3.4127329 C 33.527594,3.4556099 31.550278,3.8535679 30.393989,4.7569189 C 29.264430,5.6393869 28.753331,8.1243109 28.702916,9.5266119 z "
     id="path6134"
     sodipodi:nodetypes="czczc"
     transform="matrix(1.012078,0.143004,-0.143004,1.012078,7.457217,-1.159416)" />
  <path
     style="fill:url(#linearGradient8045);fill-opacity:1.0000000;fill-rule:evenodd;stroke:none;stroke-width:1.8064715;stroke-linecap:butt;stroke-linejoin:miter;stroke-miterlimit:4.0000000;stroke-opacity:1.0000000;"
     d="M 3.2234629,21.958119 C 2.2138759,21.271172 2.1592079,17.635925 4.0039579,16.191127 C 5.8695619,14.729996 8.6464819,15.216976 9.5975079,15.844240 C 8.0481419,15.887117 6.0708259,16.285075 4.9145359,17.188426 C 3.7849769,18.070894 3.2738779,20.555818 3.2234629,21.958119 z "
     id="path6135"
     sodipodi:nodetypes="czczc"
     transform="matrix(1.012078,0.143004,-0.143004,1.012078,7.457217,-1.159416)" />
  <path
     style="fill:url(#linearGradient8045);fill-opacity:1.0000000;fill-rule:evenodd;stroke:none;stroke-width:1.8064715;stroke-linecap:butt;stroke-linejoin:miter;stroke-miterlimit:4.0000000;stroke-opacity:1.0000000;"
     d="M 16.065929,34.595105 C 15.056342,33.908157 15.001674,30.272910 16.846425,28.828112 C 18.712028,27.366982 21.488948,27.853961 22.439974,28.481225 C 20.890608,28.524103 18.913292,28.922060 17.757002,29.825411 C 16.627444,30.707879 16.116344,33.192803 16.065929,34.595105 z "
     id="path6136"
     sodipodi:nodetypes="czczc"
     transform="matrix(1.012078,0.143004,-0.143004,1.012078,7.457217,-1.159416)" />
  <path
     style="fill:url(#linearGradient8045);fill-opacity:1.0000000;fill-rule:evenodd;stroke:none;stroke-width:1.8064715;stroke-linecap:butt;stroke-linejoin:miter;stroke-miterlimit:4.0000000;stroke-opacity:1.0000000;"
     d="M 28.497436,34.595105 C 27.487849,33.908158 27.433180,30.272911 29.277931,28.828113 C 31.143535,27.366982 33.920455,27.853962 34.871480,28.481226 C 33.322114,28.524103 31.344798,28.922061 30.188509,29.825412 C 29.058950,30.707880 28.547851,33.192804 28.497436,34.595105 z "
     id="path6137"
     sodipodi:nodetypes="czczc"
     transform="matrix(1.012078,0.143004,-0.143004,1.012078,7.457217,-1.159416)" />
  <path
     style="fill:url(#linearGradient8045);fill-opacity:1.0000000;fill-rule:evenodd;stroke:none;stroke-width:1.8064715;stroke-linecap:butt;stroke-linejoin:miter;stroke-miterlimit:4.0000000;stroke-opacity:1.0000000;"
     d="M 41.134422,21.958118 C 40.124835,21.271171 40.070167,17.635924 41.914918,16.191126 C 43.780521,14.729996 46.557441,15.216975 47.508467,15.844239 C 45.959101,15.887117 43.981785,16.285074 42.825495,17.188425 C 41.695937,18.070893 41.184838,20.555817 41.134422,21.958118 z "
     id="path6138"
     sodipodi:nodetypes="czczc"
     transform="matrix(1.012078,0.143004,-0.143004,1.012078,7.457217,-1.159416)" />
  <path
     style="fill:url(#linearGradient8045);fill-opacity:1.0000000;fill-rule:evenodd;stroke:none;stroke-width:1.8064715;stroke-linecap:butt;stroke-linejoin:miter;stroke-miterlimit:4.0000000;stroke-opacity:1.0000000;"
     d="M 16.065929,47.232091 C 15.056341,46.545144 15.001673,42.909897 16.846424,41.465099 C 18.712027,40.003969 21.488947,40.490948 22.439973,41.118212 C 20.890607,41.161090 18.913291,41.559047 17.757002,42.462398 C 16.627443,43.344866 16.116344,45.829790 16.065929,47.232091 z "
     id="path6139"
     sodipodi:nodetypes="czczc"
     transform="matrix(1.012078,0.143004,-0.143004,1.012078,7.457217,-1.159416)" />
  <path
     style="fill:url(#linearGradient8045);fill-opacity:1.0000000;fill-rule:evenodd;stroke:none;stroke-width:1.8064715;stroke-linecap:butt;stroke-linejoin:miter;stroke-miterlimit:4.0000000;stroke-opacity:1.0000000;"
     d="M 3.2234635,47.232092 C 2.2138765,46.545144 2.1592075,42.909897 4.0039585,41.465099 C 5.8695615,40.003969 8.6464825,40.490948 9.5975075,41.118212 C 8.0481415,41.161090 6.0708255,41.559047 4.9145365,42.462398 C 3.7849775,43.344866 3.2738785,45.829790 3.2234635,47.232092 z "
     id="path6140"
     sodipodi:nodetypes="czczc"
     transform="matrix(1.012078,0.143004,-0.143004,1.012078,7.457217,-1.159416)" />
  <path
     style="fill:url(#linearGradient8045);fill-opacity:1.0000000;fill-rule:evenodd;stroke:none;stroke-width:1.8064715;stroke-linecap:butt;stroke-linejoin:miter;stroke-miterlimit:4.0000000;stroke-opacity:1.0000000;"
     d="M 41.237162,47.334831 C 40.227575,46.647884 40.172907,43.012637 42.017657,41.567839 C 43.883261,40.106708 46.660181,40.593688 47.611207,41.220952 C 46.061841,41.263829 44.084525,41.661787 42.928235,42.565138 C 41.798676,43.447606 41.287577,45.932530 41.237162,47.334831 z "
     id="path6141"
     sodipodi:nodetypes="czczc"
     transform="matrix(1.012078,0.143004,-0.143004,1.012078,7.457217,-1.159416)" />
</svg>
