<?xml version="1.0" encoding="UTF-8" standalone="no"?>
<!DOCTYPE svg PUBLIC "-//W3C//DTD SVG 20010904//EN"
"http://www.w3.org/TR/2001/REC-SVG-20010904/DTD/svg10.dtd">
<!-- Created with Inkscape (http://www.inkscape.org/) -->
<svg
   id="svg1"
   sodipodi:version="0.32"
   inkscape:version="0.39"
   width="48.000000pt"
   height="48.000000pt"
   sodipodi:docbase="/home/stefan/new-lila-icons/makzu"
   sodipodi:docname="gnect-icon.svg"
   xmlns="http://www.w3.org/2000/svg"
   xmlns:cc="http://web.resource.org/cc/"
   xmlns:inkscape="http://www.inkscape.org/namespaces/inkscape"
   xmlns:sodipodi="http://sodipodi.sourceforge.net/DTD/sodipodi-0.dtd"
   xmlns:rdf="http://www.w3.org/1999/02/22-rdf-syntax-ns#"
   xmlns:dc="http://purl.org/dc/elements/1.1/"
   xmlns:xlink="http://www.w3.org/1999/xlink">
  <defs
     id="defs3">
    <linearGradient
       id="linearGradient3442">
      <stop
         style="stop-color:#ffffff;stop-opacity:1.0000000;"
         offset="0.0000000"
         id="stop3443" />
      <stop
         style="stop-color:#ffffff;stop-opacity:0.0000000;"
         offset="1.0000000"
         id="stop3444" />
    </linearGradient>
    <linearGradient
       id="linearGradient1573">
      <stop
         style="stop-color:#ffffff;stop-opacity:1.0000000;"
         offset="0.0000000"
         id="stop1574" />
      <stop
         style="stop-color:#d9cce6;stop-opacity:1.0000000;"
         offset="1.0000000"
         id="stop1575" />
    </linearGradient>
    <linearGradient
       id="linearGradient1570">
      <stop
         style="stop-color:#d9cce6;stop-opacity:1.0000000;"
         offset="0.0000000"
         id="stop1571" />
      <stop
         style="stop-color:#73667f;stop-opacity:1.0000000;"
         offset="1.0000000"
         id="stop1572" />
    </linearGradient>
    <linearGradient
       id="linearGradient1556">
      <stop
         style="stop-color:#000;stop-opacity:1;"
         offset="0"
         id="stop1557" />
      <stop
         style="stop-color:#fff;stop-opacity:1;"
         offset="1"
         id="stop1558" />
    </linearGradient>
    <linearGradient
       inkscape:collect="always"
       xlink:href="#linearGradient3442"
       id="linearGradient3441"
       x1="3.9243782e-14"
       y1="0.023437500"
       x2="0.98275864"
       y2="1.0156250" />
    <radialGradient
       inkscape:collect="always"
       xlink:href="#linearGradient1573"
       id="radialGradient4076"
       cx="0.41406250"
       cy="0.35156250"
       r="0.50000000"
       fx="0.42187500"
       fy="0.35937500" />
    <radialGradient
       inkscape:collect="always"
       xlink:href="#linearGradient1570"
       id="radialGradient4077"
       cx="0.39062500"
       cy="0.34375000"
       r="0.50000000"
       fx="0.39062500"
       fy="0.34375000" />
    <radialGradient
       inkscape:collect="always"
       xlink:href="#linearGradient1573"
       id="radialGradient4078"
       cx="0.41538462"
       cy="0.34375000"
       r="0.50000000"
       fx="0.39230767"
       fy="0.33593750" />
    <radialGradient
       inkscape:collect="always"
       xlink:href="#linearGradient1570"
       id="radialGradient4079"
       cx="0.39062500"
       cy="0.35156250"
       r="0.50000000"
       fx="0.39062500"
       fy="0.35156250" />
    <radialGradient
       inkscape:collect="always"
       xlink:href="#linearGradient1570"
       id="radialGradient4080"
       cx="0.40625000"
       cy="0.33593750"
       r="0.50000000"
       fx="0.39843750"
       fy="0.34375000" />
    <radialGradient
       inkscape:collect="always"
       xlink:href="#linearGradient1570"
       id="radialGradient4081"
       cx="0.40769231"
       cy="0.33593750"
       r="0.50000000"
       fx="0.40769231"
       fy="0.33593750" />
    <radialGradient
       inkscape:collect="always"
       xlink:href="#linearGradient1570"
       id="radialGradient4082"
       cx="0.39062500"
       cy="0.35156250"
       r="0.50000000"
       fx="0.38281250"
       fy="0.34375000" />
    <radialGradient
       inkscape:collect="always"
       xlink:href="#linearGradient1570"
       id="radialGradient4083"
       cx="0.39062500"
       cy="0.35156250"
       r="0.50000000"
       fx="0.38281250"
       fy="0.35156250" />
    <radialGradient
       inkscape:collect="always"
       xlink:href="#linearGradient1573"
       id="radialGradient4084"
       cx="0.40625000"
       cy="0.33593750"
       r="0.50000000"
       fx="0.40625000"
       fy="0.32812500" />
    <radialGradient
       inkscape:collect="always"
       xlink:href="#linearGradient1573"
       id="radialGradient4085"
       cx="0.35937500"
       cy="0.34375000"
       r="0.50000000"
       fx="0.35937500"
       fy="0.34375000" />
    <radialGradient
       inkscape:collect="always"
       xlink:href="#linearGradient1573"
       id="radialGradient4086"
       cx="0.40625000"
       cy="0.35937500"
       r="0.50000000"
       fx="0.40625000"
       fy="0.35937500" />
  </defs>
  <sodipodi:namedview
     id="base"
     pagecolor="#ffffff"
     bordercolor="#666666"
     borderopacity="1.0"
     inkscape:pageopacity="0.0"
     inkscape:pageshadow="2"
     inkscape:zoom="9.9583333"
     inkscape:cx="24.000000"
     inkscape:cy="24.663636"
     inkscape:window-width="754"
     inkscape:window-height="644"
     inkscape:window-x="274"
     inkscape:window-y="25" />
  <metadata
     id="metadata4">
    <rdf:RDF
       id="RDF5">
      <cc:Work
         rdf:about=""
         id="Work6">
        <dc:format
           id="format7">image/svg+xml</dc:format>
        <dc:type
           id="type9"
           rdf:resource="http://purl.org/dc/dcmitype/StillImage" />
      </cc:Work>
    </rdf:RDF>
  </metadata>
  <path
     style="opacity:0.29999998;fill:#000000;fill-opacity:1.0000000;fill-rule:evenodd;stroke:none;stroke-width:2.4263113;stroke-linecap:butt;stroke-linejoin:miter;stroke-miterlimit:4.0000000;stroke-opacity:1.0000000;"
     d="M 50.901935,5.7613755 C 47.552805,5.7613755 44.839435,8.4747455 44.839435,11.823876 C 44.839435,15.173006 47.552805,17.886375 50.901935,17.886376 C 54.251065,17.886376 56.964437,15.173007 56.964435,11.823876 C 56.964435,8.4747455 54.251066,5.7613755 50.901935,5.7613755 z M 37.714435,18.948876 C 34.365305,18.948876 31.651935,21.662246 31.651935,25.011376 C 31.651935,28.360506 34.365305,31.105126 37.714435,31.105126 C 41.063565,31.105126 43.776936,28.360507 43.776935,25.011376 C 43.776935,21.662246 41.063566,18.948876 37.714435,18.948876 z M 50.901935,18.948876 C 47.552805,18.948876 44.839435,21.662246 44.839435,25.011376 C 44.839435,28.360506 47.552805,31.105126 50.901935,31.105126 C 54.251065,31.105126 56.964437,28.360507 56.964435,25.011376 C 56.964435,21.662246 54.251066,18.948876 50.901935,18.948876 z M 11.370685,32.167626 C 8.0215551,32.167626 5.3081851,34.880995 5.3081851,38.230126 C 5.3081851,41.579256 8.0215551,44.292626 11.370685,44.292626 C 14.719815,44.292626 17.433185,41.579256 17.433185,38.230126 C 17.433185,34.880996 14.719816,32.167625 11.370685,32.167626 z M 24.526935,32.167626 C 21.177805,32.167626 18.464436,34.880995 18.464435,38.230126 C 18.464435,41.579256 21.177806,44.292626 24.526935,44.292626 C 27.876065,44.292626 30.620683,41.579256 30.620685,38.230126 C 30.620685,34.880996 27.876067,32.167625 24.526935,32.167626 z M 37.714435,32.167626 C 34.365305,32.167626 31.651935,34.880995 31.651935,38.230126 C 31.651935,41.579256 34.365305,44.292626 37.714435,44.292626 C 41.063565,44.292626 43.776936,41.579256 43.776935,38.230126 C 43.776935,34.880996 41.063566,32.167625 37.714435,32.167626 z M 50.901935,32.167626 C 47.552805,32.167626 44.839435,34.880995 44.839435,38.230126 C 44.839435,41.579256 47.552805,44.292626 50.901935,44.292626 C 54.251065,44.292626 56.964437,41.579256 56.964435,38.230126 C 56.964435,34.880996 54.251066,32.167625 50.901935,32.167626 z M 11.370685,45.386376 C 8.0215551,45.386376 5.3081851,48.099745 5.3081851,51.448876 C 5.3081851,54.798006 8.0215551,57.511377 11.370685,57.511376 C 14.719815,57.511376 17.433185,54.798006 17.433185,51.448876 C 17.433185,48.099746 14.719816,45.386375 11.370685,45.386376 z M 24.526935,45.386376 C 21.177805,45.386376 18.464436,48.099745 18.464435,51.448876 C 18.464435,54.798006 21.177806,57.511377 24.526935,57.511376 C 27.876065,57.511376 30.620683,54.798006 30.620685,51.448876 C 30.620685,48.099746 27.876067,45.386375 24.526935,45.386376 z M 37.714435,45.386376 C 34.365305,45.386376 31.651935,48.099745 31.651935,51.448876 C 31.651935,54.798006 34.365305,57.511377 37.714435,57.511376 C 41.063565,57.511376 43.776936,54.798006 43.776935,51.448876 C 43.776935,48.099746 41.063566,45.386375 37.714435,45.386376 z M 50.901935,45.386376 C 47.552805,45.386376 44.839435,48.099745 44.839435,51.448876 C 44.839435,54.798006 47.552805,57.511377 50.901935,57.511376 C 54.251065,57.511376 56.964437,54.798006 56.964435,51.448876 C 56.964435,48.099746 54.251066,45.386375 50.901935,45.386376 z "
     id="path4087"
     transform="matrix(1.062709,0.000000,0.000000,1.062709,-0.802609,-1.119913)" />
  <path
     sodipodi:type="arc"
     style="fill:url(#radialGradient4082);fill-opacity:1.00000000;fill-rule:evenodd;stroke:#261933;stroke-width:2.2831385;stroke-linecap:round;stroke-linejoin:round;stroke-miterlimit:4.0000000;stroke-opacity:1.0000000;"
     id="path922"
     sodipodi:cx="9.3388433"
     sodipodi:cy="9.6694212"
     sodipodi:rx="7.8512397"
     sodipodi:ry="7.8512397"
     d="M 17.190083 9.6694212 A 7.8512397 7.8512397 0 1 0 1.4876037,9.6694212 A 7.8512397 7.8512397 0 1 0 17.190083 9.6694212 z"
     transform="matrix(0.821238,0.000000,0.000000,0.821238,41.99389,-0.553603)" />
  <path
     sodipodi:type="arc"
     style="fill:url(#radialGradient4083);fill-opacity:1.00000000;fill-rule:evenodd;stroke:#261933;stroke-width:2.2831385;stroke-linecap:round;stroke-linejoin:round;stroke-miterlimit:4.0000000;stroke-opacity:1.0000000;"
     id="path925"
     sodipodi:cx="9.3388433"
     sodipodi:cy="9.6694212"
     sodipodi:rx="7.8512397"
     sodipodi:ry="7.8512397"
     d="M 17.190083 9.6694212 A 7.8512397 7.8512397 0 1 0 1.4876037,9.6694212 A 7.8512397 7.8512397 0 1 0 17.190083 9.6694212 z"
     transform="matrix(0.821238,0.000000,0.000000,0.821238,27.98986,13.48691)" />
  <path
     sodipodi:type="arc"
     style="fill:url(#radialGradient4086);fill-opacity:1.00000000;fill-rule:evenodd;stroke:#261933;stroke-width:2.2831385;stroke-linecap:round;stroke-linejoin:round;stroke-miterlimit:4.0000000;stroke-opacity:1.0000000;"
     id="path926"
     sodipodi:cx="9.3388433"
     sodipodi:cy="9.6694212"
     sodipodi:rx="7.8512397"
     sodipodi:ry="7.8512397"
     d="M 17.190083 9.6694212 A 7.8512397 7.8512397 0 1 0 1.4876037,9.6694212 A 7.8512397 7.8512397 0 1 0 17.190083 9.6694212 z"
     transform="matrix(0.821238,0.000000,0.000000,0.821238,41.99389,13.48691)" />
  <path
     sodipodi:type="arc"
     style="fill:url(#radialGradient4076);fill-opacity:1.00000000;fill-rule:evenodd;stroke:#261933;stroke-width:2.2831385;stroke-linecap:round;stroke-linejoin:round;stroke-miterlimit:4.0000000;stroke-opacity:1.0000000;"
     id="path927"
     sodipodi:cx="9.3388433"
     sodipodi:cy="9.6694212"
     sodipodi:rx="7.8512397"
     sodipodi:ry="7.8512397"
     d="M 17.190083 9.6694212 A 7.8512397 7.8512397 0 1 0 1.4876037,9.6694212 A 7.8512397 7.8512397 0 1 0 17.190083 9.6694212 z"
     transform="matrix(0.821238,0.000000,0.000000,0.821238,-1.818521e-2,27.52744)" />
  <path
     sodipodi:type="arc"
     style="fill:url(#radialGradient4081);fill-opacity:1.00000000;fill-rule:evenodd;stroke:#261933;stroke-width:2.2831385;stroke-linecap:round;stroke-linejoin:round;stroke-miterlimit:4.0000000;stroke-opacity:1.0000000;"
     id="path928"
     sodipodi:cx="9.3388433"
     sodipodi:cy="9.6694212"
     sodipodi:rx="7.8512397"
     sodipodi:ry="7.8512397"
     d="M 17.190083 9.6694212 A 7.8512397 7.8512397 0 1 0 1.4876037,9.6694212 A 7.8512397 7.8512397 0 1 0 17.190083 9.6694212 z"
     transform="matrix(0.821238,0.000000,0.000000,0.821238,13.98583,27.52744)" />
  <path
     sodipodi:type="arc"
     style="fill:url(#radialGradient4084);fill-opacity:1.00000000;fill-rule:evenodd;stroke:#261933;stroke-width:2.2831385;stroke-linecap:round;stroke-linejoin:round;stroke-miterlimit:4.0000000;stroke-opacity:1.0000000;"
     id="path929"
     sodipodi:cx="9.3388433"
     sodipodi:cy="9.6694212"
     sodipodi:rx="7.8512397"
     sodipodi:ry="7.8512397"
     d="M 17.190083 9.6694212 A 7.8512397 7.8512397 0 1 0 1.4876037,9.6694212 A 7.8512397 7.8512397 0 1 0 17.190083 9.6694212 z"
     transform="matrix(0.821238,0.000000,0.000000,0.821238,27.98986,27.52744)" />
  <path
     sodipodi:type="arc"
     style="fill:url(#radialGradient4085);fill-opacity:1.00000000;fill-rule:evenodd;stroke:#261933;stroke-width:2.2831385;stroke-linecap:round;stroke-linejoin:round;stroke-miterlimit:4.0000000;stroke-opacity:1.0000000;"
     id="path930"
     sodipodi:cx="9.3388433"
     sodipodi:cy="9.6694212"
     sodipodi:rx="7.8512397"
     sodipodi:ry="7.8512397"
     d="M 17.190083 9.6694212 A 7.8512397 7.8512397 0 1 0 1.4876037,9.6694212 A 7.8512397 7.8512397 0 1 0 17.190083 9.6694212 z"
     transform="matrix(0.821238,0.000000,0.000000,0.821238,41.99389,27.52744)" />
  <path
     sodipodi:type="arc"
     style="fill:url(#radialGradient4077);fill-opacity:1.00000000;fill-rule:evenodd;stroke:#261933;stroke-width:2.2831385;stroke-linecap:round;stroke-linejoin:round;stroke-miterlimit:4.0000000;stroke-opacity:1.0000000;"
     id="path931"
     sodipodi:cx="9.3388433"
     sodipodi:cy="9.6694212"
     sodipodi:rx="7.8512397"
     sodipodi:ry="7.8512397"
     d="M 17.190083 9.6694212 A 7.8512397 7.8512397 0 1 0 1.4876037,9.6694212 A 7.8512397 7.8512397 0 1 0 17.190083 9.6694212 z"
     transform="matrix(0.821238,0.000000,0.000000,0.821238,-1.818521e-2,41.56795)" />
  <path
     sodipodi:type="arc"
     style="fill:url(#radialGradient4078);fill-opacity:1.00000000;fill-rule:evenodd;stroke:#261933;stroke-width:2.2831385;stroke-linecap:round;stroke-linejoin:round;stroke-miterlimit:4.0000000;stroke-opacity:1.0000000;"
     id="path932"
     sodipodi:cx="9.3388433"
     sodipodi:cy="9.6694212"
     sodipodi:rx="7.8512397"
     sodipodi:ry="7.8512397"
     d="M 17.190083 9.6694212 A 7.8512397 7.8512397 0 1 0 1.4876037,9.6694212 A 7.8512397 7.8512397 0 1 0 17.190083 9.6694212 z"
     transform="matrix(0.821238,0.000000,0.000000,0.821238,13.98583,41.56795)" />
  <path
     sodipodi:type="arc"
     style="fill:url(#radialGradient4079);fill-opacity:1.00000000;fill-rule:evenodd;stroke:#261933;stroke-width:2.2831385;stroke-linecap:round;stroke-linejoin:round;stroke-miterlimit:4.0000000;stroke-opacity:1.0000000;"
     id="path933"
     sodipodi:cx="9.3388433"
     sodipodi:cy="9.6694212"
     sodipodi:rx="7.8512397"
     sodipodi:ry="7.8512397"
     d="M 17.190083 9.6694212 A 7.8512397 7.8512397 0 1 0 1.4876037,9.6694212 A 7.8512397 7.8512397 0 1 0 17.190083 9.6694212 z"
     transform="matrix(0.821238,0.000000,0.000000,0.821238,27.98986,41.56795)" />
  <path
     sodipodi:type="arc"
     style="fill:url(#radialGradient4080);fill-opacity:1.00000000;fill-rule:evenodd;stroke:#261933;stroke-width:2.2831385;stroke-linecap:round;stroke-linejoin:round;stroke-miterlimit:4.0000000;stroke-opacity:1.0000000;"
     id="path934"
     sodipodi:cx="9.3388433"
     sodipodi:cy="9.6694212"
     sodipodi:rx="7.8512397"
     sodipodi:ry="7.8512397"
     d="M 17.190083 9.6694212 A 7.8512397 7.8512397 0 1 0 1.4876037,9.6694212 A 7.8512397 7.8512397 0 1 0 17.190083 9.6694212 z"
     transform="matrix(0.821238,0.000000,0.000000,0.821238,41.99389,41.56795)" />
  <path
     style="fill:url(#linearGradient3441);fill-opacity:1.0000000;fill-rule:evenodd;stroke:none;stroke-width:1.0000000pt;stroke-linecap:butt;stroke-linejoin:miter;stroke-opacity:1.0000000;"
     d="M 44.407312,11.599588 C 42.909437,10.340506 42.187637,6.9811454 43.983999,4.9242836 C 45.766344,2.8834713 49.248263,3.1224944 50.333678,4.1753471 C 48.705554,3.6109312 46.268799,4.3001698 45.091123,5.5429702 C 43.928739,6.7696330 43.343605,9.3310698 44.407312,11.599588 z "
     id="path2198"
     sodipodi:nodetypes="czczc"
     transform="matrix(1.062709,0.000000,0.000000,1.062709,-0.802609,-1.119913)" />
  <path
     style="fill:url(#linearGradient3441);fill-opacity:1.0000000;fill-rule:evenodd;stroke:none;stroke-width:1.0000000pt;stroke-linecap:butt;stroke-linejoin:miter;stroke-opacity:1.0000000;"
     d="M 31.167560,24.820239 C 29.669685,23.561157 28.947885,20.201796 30.744247,18.144935 C 32.526592,16.104122 36.008511,16.343145 37.093926,17.395998 C 35.465802,16.831582 33.029047,17.520821 31.851371,18.763621 C 30.688987,19.990284 30.103853,22.551721 31.167560,24.820239 z "
     id="path3445"
     sodipodi:nodetypes="czczc"
     transform="matrix(1.062709,0.000000,0.000000,1.062709,-0.802609,-1.119913)" />
  <path
     style="fill:url(#linearGradient3441);fill-opacity:1.0000000;fill-rule:evenodd;stroke:none;stroke-width:1.0000000pt;stroke-linecap:butt;stroke-linejoin:miter;stroke-opacity:1.0000000;"
     d="M 18.238689,38.125678 C 16.740814,36.866596 16.019014,33.507236 17.815376,31.450374 C 19.597721,29.409561 23.079640,29.648585 24.165055,30.701437 C 22.536931,30.137021 20.100176,30.826260 18.922500,32.069060 C 17.760116,33.295723 17.174982,35.857160 18.238689,38.125678 z "
     id="path3446"
     sodipodi:nodetypes="czczc"
     transform="matrix(1.062709,0.000000,0.000000,1.062709,-0.802609,-1.119913)" />
  <path
     style="fill:url(#linearGradient3441);fill-opacity:1.0000000;fill-rule:evenodd;stroke:none;stroke-width:1.0000000pt;stroke-linecap:butt;stroke-linejoin:miter;stroke-opacity:1.0000000;"
     d="M 5.0587731,51.431117 C 3.5608981,50.172035 2.8390981,46.812674 4.6354601,44.755813 C 6.4178051,42.715000 9.8997238,42.954023 10.985139,44.006876 C 9.3570148,43.442460 6.9202601,44.131699 5.7425841,45.374499 C 4.5802001,46.601162 3.9950661,49.162599 5.0587731,51.431117 z "
     id="path3447"
     sodipodi:nodetypes="czczc"
     transform="matrix(1.062709,0.000000,0.000000,1.062709,-0.802609,-1.119913)" />
  <path
     style="fill:url(#linearGradient3441);fill-opacity:1.0000000;fill-rule:evenodd;stroke:none;stroke-width:1.0000000pt;stroke-linecap:butt;stroke-linejoin:miter;stroke-opacity:1.0000000;"
     d="M 5.0587723,38.251201 C 3.5608973,36.992119 2.8390973,33.632758 4.6354593,31.575897 C 6.4178043,29.535084 9.8997238,29.774107 10.985139,30.826960 C 9.3570148,30.262544 6.9202593,30.951783 5.7425833,32.194583 C 4.5801993,33.421246 3.9950653,35.982683 5.0587723,38.251201 z "
     id="path3448"
     sodipodi:nodetypes="czczc"
     transform="matrix(1.062709,0.000000,0.000000,1.062709,-0.802609,-1.119913)" />
  <path
     style="fill:url(#linearGradient3441);fill-opacity:1.0000000;fill-rule:evenodd;stroke:none;stroke-width:1.0000000pt;stroke-linecap:butt;stroke-linejoin:miter;stroke-opacity:1.0000000;"
     d="M 44.598522,25.071284 C 43.100647,23.812202 42.378847,20.452842 44.175209,18.395980 C 45.957554,16.355167 49.439473,16.594191 50.524888,17.647043 C 48.896764,17.082627 46.460009,17.771866 45.282333,19.014666 C 44.119949,20.241329 43.534815,22.802766 44.598522,25.071284 z "
     id="path3449"
     sodipodi:nodetypes="czczc"
     transform="matrix(1.062709,0.000000,0.000000,1.062709,-0.802609,-1.119913)" />
  <path
     style="fill:url(#linearGradient3441);fill-opacity:1.0000000;fill-rule:evenodd;stroke:none;stroke-width:1.0000000pt;stroke-linecap:butt;stroke-linejoin:miter;stroke-opacity:1.0000000;"
     d="M 31.418605,38.376723 C 29.920730,37.117641 29.198930,33.758281 30.995292,31.701419 C 32.777637,29.660607 36.259556,29.899630 37.344971,30.952483 C 35.716847,30.388067 33.280092,31.077305 32.102416,32.320106 C 30.940032,33.546769 30.354898,36.108205 31.418605,38.376723 z "
     id="path3450"
     sodipodi:nodetypes="czczc"
     transform="matrix(1.062709,0.000000,0.000000,1.062709,-0.802609,-1.119913)" />
  <path
     style="fill:url(#linearGradient3441);fill-opacity:1.0000000;fill-rule:evenodd;stroke:none;stroke-width:1.0000000pt;stroke-linecap:butt;stroke-linejoin:miter;stroke-opacity:1.0000000;"
     d="M 44.724045,38.125678 C 43.226170,36.866596 42.504370,33.507235 44.300732,31.450373 C 46.083077,29.409561 49.564996,29.648584 50.650411,30.701437 C 49.022287,30.137021 46.585532,30.826260 45.407856,32.069060 C 44.245472,33.295723 43.660338,35.857160 44.724045,38.125678 z "
     id="path3451"
     sodipodi:nodetypes="czczc"
     transform="matrix(1.062709,0.000000,0.000000,1.062709,-0.802609,-1.119913)" />
  <path
     style="fill:url(#linearGradient3441);fill-opacity:1.0000000;fill-rule:evenodd;stroke:none;stroke-width:1.0000000pt;stroke-linecap:butt;stroke-linejoin:miter;stroke-opacity:1.0000000;"
     d="M 18.238689,51.682163 C 16.740814,50.423081 16.019014,47.063721 17.815376,45.006859 C 19.597721,42.966046 23.079640,43.205070 24.165055,44.257922 C 22.536931,43.693506 20.100176,44.382745 18.922500,45.625545 C 17.760116,46.852208 17.174982,49.413645 18.238689,51.682163 z "
     id="path3452"
     sodipodi:nodetypes="czczc"
     transform="matrix(1.062709,0.000000,0.000000,1.062709,-0.802609,-1.119913)" />
  <path
     style="fill:url(#linearGradient3441);fill-opacity:1.0000000;fill-rule:evenodd;stroke:none;stroke-width:1.0000000pt;stroke-linecap:butt;stroke-linejoin:miter;stroke-opacity:1.0000000;"
     d="M 31.293083,51.305594 C 29.795208,50.046512 29.073408,46.687151 30.869770,44.630290 C 32.652115,42.589477 36.134034,42.828500 37.219449,43.881353 C 35.591325,43.316937 33.154570,44.006176 31.976894,45.248976 C 30.814510,46.475639 30.229376,49.037076 31.293083,51.305594 z "
     id="path3453"
     sodipodi:nodetypes="czczc"
     transform="matrix(1.062709,0.000000,0.000000,1.062709,-0.802609,-1.119913)" />
  <path
     style="fill:url(#linearGradient3441);fill-opacity:1.0000000;fill-rule:evenodd;stroke:none;stroke-width:1.0000000pt;stroke-linecap:butt;stroke-linejoin:miter;stroke-opacity:1.0000000;"
     d="M 44.472998,51.305594 C 42.975123,50.046512 42.253323,46.687151 44.049685,44.630289 C 45.832030,42.589477 49.313949,42.828500 50.399364,43.881353 C 48.771240,43.316937 46.334485,44.006176 45.156809,45.248976 C 43.994425,46.475639 43.409291,49.037076 44.472998,51.305594 z "
     id="path3454"
     sodipodi:nodetypes="czczc"
     transform="matrix(1.062709,0.000000,0.000000,1.062709,-0.802609,-1.119913)" />
</svg>
