<?xml version="1.0" encoding="UTF-8" standalone="no"?>
<!DOCTYPE svg PUBLIC "-//W3C//DTD SVG 20010904//EN"
"http://www.w3.org/TR/2001/REC-SVG-20010904/DTD/svg10.dtd">
<!-- Created with Inkscape (http://www.inkscape.org/) -->
<svg
   id="svg1"
   sodipodi:version="0.32"
   inkscape:version="0.37"
   width="48pt"
   height="48pt"
   sodipodi:docbase="/home/dan/Projects/Lila-icons/scalable/apps"
   sodipodi:docname="gnome-starthere.svg"
   xmlns="http://www.w3.org/2000/svg"
   xmlns:inkscape="http://www.inkscape.org/namespaces/inkscape"
   xmlns:sodipodi="http://sodipodi.sourceforge.net/DTD/sodipodi-0.dtd"
   xmlns:xlink="http://www.w3.org/1999/xlink">
  <defs
     id="defs3">
    <linearGradient
       id="linearGradient1450">
      <stop
         style="stop-color:#ffffff;stop-opacity:1;"
         offset="0.00000000"
         id="stop1451" />
      <stop
         style="stop-color:#d9cce6;stop-opacity:1;"
         offset="1.00000000"
         id="stop1452" />
    </linearGradient>
    <linearGradient
       id="linearGradient584">
      <stop
         style="stop-color:#ffffff;stop-opacity:1;"
         offset="0.00000000"
         id="stop585" />
      <stop
         style="stop-color:#ffffff;stop-opacity:0;"
         offset="1.00000000"
         id="stop586" />
    </linearGradient>
    <linearGradient
       id="linearGradient578">
      <stop
         style="stop-color:#d9cce6;stop-opacity:1;"
         offset="0.00000000"
         id="stop579" />
      <stop
         style="stop-color:#73667f;stop-opacity:1;"
         offset="1.00000000"
         id="stop580" />
    </linearGradient>
    <linearGradient
       xlink:href="#linearGradient584"
       id="linearGradient581"
       x1="-0.00684932"
       y1="0.00775194"
       x2="0.97945207"
       y2="1.00000000" />
    <linearGradient
       xlink:href="#linearGradient584"
       id="linearGradient583"
       x1="0.01094890"
       y1="0.01030928"
       x2="1.01459849"
       y2="0.96907216" />
    <linearGradient
       xlink:href="#linearGradient584"
       id="linearGradient860"
       x1="-0.02500000"
       y1="0.03100775"
       x2="0.97500002"
       y2="0.97674417" />
    <linearGradient
       xlink:href="#linearGradient578"
       id="linearGradient861"
       x1="0.00000000"
       y1="0.02325581"
       x2="0.98611110"
       y2="0.97674417" />
    <linearGradient
       xlink:href="#linearGradient578"
       id="linearGradient862"
       x1="-0.00000000"
       y1="0.00775194"
       x2="1.00000000"
       y2="0.99224806" />
    <linearGradient
       xlink:href="#linearGradient1450"
       id="linearGradient1449"
       x1="0.00000000"
       y1="0.00000000"
       x2="0.96153843"
       y2="1.00781250" />
    <linearGradient
       xlink:href="#linearGradient584"
       id="linearGradient1454"
       x1="0.00000000"
       y1="-0.00000000"
       x2="0.96666664"
       y2="0.97656250" />
    <linearGradient
       xlink:href="#linearGradient1450"
       id="linearGradient1457" />
  </defs>
  <sodipodi:namedview
     id="base"
     pagecolor="#ffffff"
     bordercolor="#666666"
     borderopacity="1.0"
     inkscape:pageopacity="0.0"
     inkscape:pageshadow="2"
     inkscape:zoom="5.64233871"
     inkscape:cx="25.5142873"
     inkscape:cy="23.6061039"
     inkscape:window-width="640"
     inkscape:window-height="535"
     inkscape:window-x="58"
     inkscape:window-y="190" />
  <path
     style="fill:#000000;fill-rule:evenodd;stroke:none;stroke-opacity:1;stroke-width:1.875;stroke-linejoin:miter;stroke-linecap:butt;fill-opacity:1;stroke-dasharray:none;opacity:0.302675;"
     d="M 26.944139 29.922821 C 27.511186 28.93966 37.317657 35.525365 38.536385 35.40564 C 39.883084 35.602036 46.454075 27.501317 47.778852 27.573042 C 49.188306 27.501181 59.930467 32.98368 59.997705 34.152424 C 59.924502 35.446307 59.768285 59.512585 59.057793 59.843348 C 58.0702 60.433155 47.844481 52.76326 46.995591 52.950661 C 45.822218 53.087626 40.652956 59.750133 39.162993 59.843348 C 37.571048 59.952744 27.850716 55.179052 26.944139 53.890573 C 26.529749 53.235627 26.434757 30.946723 26.944139 29.922821 z "
     id="path1456"
     sodipodi:nodetypes="cssssssss" />
  <path
     d="M 11.267699 56.622671 C 2.7670491 52.988532 1.5072003 22.031864 3.2623489 8.9840518 C 3.8256059 4.7962807 15.938655 3.472312 19.798169 3.9971948 C 21.406915 4.2160343 21.378639 11.507009 23.210262 11.477541 C 32.2712 11.332006 44.430229 0.76734911 50.900965 4.3909154 C 56.460229 7.5040954 60.504727 30.459332 55.887824 36.543835 C 47.293672 47.869915 20.265076 60.469119 11.267699 56.622671 z "
     style="font-size:12;opacity:0.302675;fill-rule:evenodd;stroke-width:18.75;stroke-linecap:round;stroke-linejoin:round;"
     id="path574" />
  <path
     d="M 12.139826 53.057395 C 4.4358786 49.763875 3.2941018 21.708704 4.8847766 9.8838331 C 5.3952944 6.0885706 16.372984 4.8886949 19.870756 5.3643818 C 21.328716 5.5627101 21.303091 12.170315 22.963041 12.143616 C 31.174718 12.011721 42.194107 2.4372512 48.058362 5.7212004 C 53.096567 8.5425896 56.761979 29.346283 52.577815 34.860499 C 44.789173 45.125018 20.293899 56.543325 12.139826 53.057395 z "
     style="font-size:12;fill:url(#linearGradient862);fill-rule:evenodd;stroke:#261933;stroke-width:1.875;stroke-linecap:round;stroke-linejoin:round;stroke-dasharray:none;"
     id="path562" />
  <path
     d="M 12.258693 50.559882 C 7.4089087 46.66513 4.939118 20.098282 7.1445784 10.835314 C 7.9124818 7.6100593 18.684985 7.0429585 19.038143 8.218823 C 16.042544 8.3471655 11.54075 11.186964 10.831526 14.165551 C 8.5673316 23.675193 11.592 47.964062 12.258693 50.559882 z "
     style="font-size:12;opacity:0.7;fill:url(#linearGradient860);fill-rule:evenodd;stroke:none;stroke-width:1pt;"
     id="path567" />
  <path
     d="M 24.865895 14.284529 C 35.796025 12.309317 43.904665 5.7889249 46.155401 7.6241632 C 46.764487 8.1484053 38.257583 12.922933 33.072508 14.641453 C 31.319639 15.222337 24.343156 14.377984 24.865895 14.284529 z "
     style="font-size:12;opacity:0.699936;fill:url(#linearGradient583);fill-rule:evenodd;stroke:none;stroke-width:1pt;"
     id="path568" />
  <path
     d="M 12.781217 53.288995 C 10.696831 52.955325 9.6412329 30.343407 14.967781 25.167164 C 23.545752 16.83113 45.392125 11.696557 54.494881 13.897547 C 59.072474 15.004506 56.543842 30.171901 52.308313 35.291506 C 43.287927 46.313802 21.364248 54.560575 12.781217 53.288995 z "
     style="font-size:12;fill:url(#linearGradient861);fill-rule:evenodd;stroke:#261933;stroke-width:1.875;stroke-linecap:round;stroke-linejoin:round;stroke-dasharray:none;"
     id="path576"
     sodipodi:nodetypes="ccccc" />
  <path
     d="M 14.401113 49.584604 C 11.616441 44.363682 14.275678 29.630321 16.419605 27.019102 C 25.801832 16.983232 50.734136 15.502838 52.703206 16.434182 C 37.135833 18.753718 29.798296 20.903717 20.701323 29.873544 C 16.657556 34.512083 13.876868 42.425293 14.401113 49.584604 z "
     style="font-size:12;opacity:0.7;fill:url(#linearGradient581);fill-rule:evenodd;stroke:none;stroke-width:1.25;"
     id="path577"
     sodipodi:nodetypes="ccccc" />
  <path
     style="fill:url(#linearGradient1449);fill-rule:evenodd;stroke:#261933;stroke-opacity:1;stroke-width:1.875;stroke-linejoin:miter;stroke-linecap:butt;fill-opacity:1;stroke-dasharray:none;"
     d="M 25.064315 27.103086 C 25.631362 26.119925 35.437833 32.70563 36.656561 32.585905 C 38.00326 32.782301 44.574251 24.681582 45.899028 24.753307 C 47.308482 24.681446 58.050643 30.163945 58.117881 31.332689 C 58.044678 32.626572 57.888461 56.69285 57.177969 57.023613 C 56.190376 57.61342 45.964657 49.943525 45.115767 50.130926 C 43.942394 50.267891 38.773132 56.930398 37.283169 57.023613 C 35.691224 57.133009 25.970892 52.359317 25.064315 51.070838 C 24.649925 50.415892 24.554933 28.126988 25.064315 27.103086 z "
     id="path1448"
     sodipodi:nodetypes="cssssssss" />
  <path
     style="fill:url(#linearGradient1454);fill-rule:evenodd;stroke:none;stroke-opacity:1;stroke-width:1pt;stroke-linejoin:miter;stroke-linecap:butt;fill-opacity:1;"
     d="M 26.787487 50.600882 C 26.469315 49.848839 24.992396 33.820235 26.944139 30.236126 C 27.864349 28.546286 35.06611 33.981933 35.403345 34.779033 C 35.640501 35.339584 29.504921 32.770921 28.667311 34.309077 C 26.632968 38.044871 27.043706 51.20649 26.787487 50.600882 z "
     id="path1453"
     sodipodi:nodetypes="cssss" />
  <path
     style="fill:#261933;fill-rule:evenodd;stroke:none;stroke-opacity:1;stroke-width:1pt;stroke-linejoin:miter;stroke-linecap:butt;fill-opacity:1;opacity:0.245924;"
     d="M 37.909777 54.517181 C 37.214283 54.264821 37.108924 35.737639 37.753125 34.309077 C 38.670264 32.431905 44.651191 26.883149 45.115767 27.41639 C 46.303756 28.623314 44.666566 47.038871 44.332508 48.407754 C 44.026633 49.5045 38.528686 54.798592 37.909777 54.517181 z "
     id="path1455"
     sodipodi:nodetypes="cssss" />
</svg>
