<?xml version="1.0" encoding="UTF-8" standalone="no"?>
<!DOCTYPE svg PUBLIC "-//W3C//DTD SVG 20010904//EN"
"http://www.w3.org/TR/2001/REC-SVG-20010904/DTD/svg10.dtd">
<!-- Created with Inkscape (http://www.inkscape.org/) -->
<svg
   version="1.0"
   x="0.0000000"
   y="0.0000000"
   width="60.000000"
   height="60.000000"
   id="svg1"
   sodipodi:version="0.32"
   inkscape:version="0.38.1"
   sodipodi:docname="gnome-db.svg"
   sodipodi:docbase="/home/ed/Desktop/Lila"
   xmlns="http://www.w3.org/2000/svg"
   xmlns:inkscape="http://www.inkscape.org/namespaces/inkscape"
   xmlns:sodipodi="http://sodipodi.sourceforge.net/DTD/sodipodi-0.dtd"
   xmlns:xlink="http://www.w3.org/1999/xlink">
  <sodipodi:namedview
     id="base"
     pagecolor="#ffffff"
     bordercolor="#666666"
     borderopacity="1.0"
     inkscape:pageopacity="0.0"
     inkscape:pageshadow="2"
     inkscape:zoom="6.0833335"
     inkscape:cx="23.999999"
     inkscape:cy="22.321755"
     inkscape:window-width="1024"
     inkscape:window-height="722"
     inkscape:window-x="544"
     inkscape:window-y="41"
     showguides="true"
     snaptoguides="true" />
  <defs
     id="defs3">
    <linearGradient
       id="linearGradient642">
      <stop
         style="stop-color:#d9cce6;stop-opacity:1.0000000;"
         offset="0.0000000"
         id="stop643" />
      <stop
         style="stop-color:#73667f;stop-opacity:1.0000000;"
         offset="1.0000000"
         id="stop644" />
    </linearGradient>
    <linearGradient
       id="linearGradient866">
      <stop
         style="stop-color:#ffffff;stop-opacity:1.0000000;"
         offset="0.0000000"
         id="stop867" />
      <stop
         style="stop-color:#d9cce6;stop-opacity:1.0000000;"
         offset="1.0000000"
         id="stop868" />
    </linearGradient>
    <linearGradient
       id="linearGradient584">
      <stop
         style="stop-color:#ffffff;stop-opacity:1.0000000;"
         offset="0.0000000"
         id="stop585" />
      <stop
         style="stop-color:#ffffff;stop-opacity:0.0000000;"
         offset="1.0000000"
         id="stop586" />
    </linearGradient>
    <linearGradient
       id="linearGradient586"
       xlink:href="#linearGradient866"
       x1="0.036363635"
       y1="0.015625000"
       x2="0.97272730"
       y2="0.94531250" />
    <linearGradient
       x1="0.0000000"
       y1="-0.0000000"
       x2="1.0000000"
       y2="1.0000000"
       id="linearGradient587"
       xlink:href="#linearGradient584" />
    <linearGradient
       x1="3.2352593e-16"
       y1="0.50000000"
       x2="1.0000000"
       y2="0.50000000"
       id="linearGradient638"
       xlink:href="#linearGradient866" />
    <radialGradient
       id="radialGradient639"
       xlink:href="#linearGradient866" />
    <linearGradient
       x1="6.6092964e-16"
       y1="0.50000000"
       x2="1.0000000"
       y2="0.50000000"
       id="linearGradient640"
       xlink:href="#linearGradient642" />
    <linearGradient
       id="linearGradient641"
       xlink:href="#linearGradient642" />
    <linearGradient
       id="linearGradient645"
       xlink:href="#linearGradient866"
       x1="-2.9663771e-16"
       y1="0.50000000"
       x2="1.0000000"
       y2="0.50000000" />
    <linearGradient
       xlink:href="#linearGradient866"
       id="linearGradient856"
       x1="-2.6107588e-16"
       y1="0.50000000"
       x2="1.0000000"
       y2="0.50000000" />
  </defs>
  <path
     d="M 19.492636,21.689947 C 13.665605,13.532101 27.192313,2.0909906 34.476101,11.559916 C 41.419979,2.3823415 55.781792,17.089832 46.701333,23.208216 C 57.966929,24.519297 54.033681,42.437420 43.205115,39.960931 C 51.071608,48.604361 33.007809,68.319153 26.306721,54.528511 C 15.818066,63.997438 3.4567662,48.028435 17.732994,41.035996 C 6.2731612,38.365274 9.3924477,21.592831 19.492636,21.689947 z "
     id="path863"
     nodetypes="ccccccc"
     style="fill:#000000;fill-opacity:0.30000001;stroke:none;stroke-width:1.6910433;stroke-linejoin:round;" />
  <path
     d="M 15.833995,18.677398 C 10.006964,10.519552 23.533671,-0.92155914 30.817459,8.5473660 C 37.761338,-0.63020818 52.123150,14.077283 43.042692,20.195667 C 54.308288,21.506748 50.375040,39.424871 39.546474,36.948382 C 47.412967,45.591812 29.349168,65.306604 22.648080,51.515962 C 12.159424,60.984889 -0.20187490,45.015885 14.074353,38.023447 C 2.6145201,35.352725 5.7338059,18.580282 15.833995,18.677398 z "
     id="path865"
     nodetypes="ccccccc"
     style="fill:url(#linearGradient586);fill-opacity:1.0000000;stroke:#261933;stroke-width:1.8750000;stroke-linejoin:round;stroke-dasharray:none;" />
  <path
     d="M 39.626032,8.4262923 C 39.480357,12.553775 39.336601,18.277925 39.919305,22.696758 C 41.084714,25.658833 56.231154,25.563637 57.105210,21.970299 C 57.493679,17.454348 57.600422,12.417336 57.260512,7.7557080 C 55.605030,5.0178014 40.407460,4.7544619 39.626032,8.4262923 z "
     style="fill:#000000;stroke:none;stroke-width:1.6910437;stroke-linejoin:round;fill-opacity:0.29804385;"
     id="path872"
     sodipodi:nodetypes="ccccc" />
  <path
     style="fill:#000000;fill-rule:evenodd;stroke-width:1.0000000pt;fill-opacity:0.29804131;"
     d="M 7.6949712,53.001466 L 19.553420,55.827310 C 19.553420,55.827310 27.425412,51.033469 27.374950,50.730700 C 27.324488,50.427931 27.274028,40.133789 27.274028,40.133789 L 15.566963,37.610714 L 7.4426632,40.587941 L 7.6949712,53.001466 z "
     id="path874" />
  <path
     style="fill:url(#linearGradient641);fill-opacity:1.00000000;fill-rule:evenodd;stroke:#261933;stroke-width:1.8750000;stroke-linejoin:round;"
     d="M 3.8016850,37.024602 L 11.995647,33.862020 L 23.437855,36.356296 L 23.783454,47.231117 L 15.876999,51.974990 L 4.0891922,49.387424 L 3.8016850,37.024602 z "
     id="path870"
     sodipodi:nodetypes="ccccccc" />
  <path
     d="M 5.5115281,48.173708 C 5.4182167,46.708418 5.2504295,38.825615 5.6502906,38.562325 C 6.0389913,38.329081 13.445382,40.060980 14.640644,40.320083 C 15.242265,40.456248 7.6662042,39.348446 6.6432955,39.749384 C 5.6209015,40.099658 5.5541179,49.630130 5.5115281,48.173708 z "
     style="font-size:12.000000;opacity:0.69993597;fill:url(#linearGradient587);fill-rule:evenodd;stroke-width:0.10012100pt;"
     id="path871"
     sodipodi:nodetypes="cssss" />
  <path
     d="M 15.947034,49.941172 C 15.853723,48.475882 15.383166,40.794925 15.783027,40.531634 C 16.171728,40.298391 20.096276,38.245677 21.644768,37.747858 C 22.216070,37.515255 17.445711,40.409449 16.675109,41.163616 C 15.879182,41.894697 15.989624,51.397595 15.947034,49.941172 z "
     style="font-size:12.000000;opacity:0.69993597;fill:url(#linearGradient587);fill-rule:evenodd;stroke-width:0.10012100pt;"
     id="path873"
     sodipodi:nodetypes="cssss" />
  <path
     d="M 5.9051957,37.931335 C 7.1743447,37.222968 11.722483,35.465662 12.200261,35.435023 C 12.689885,35.353164 19.036584,36.681371 20.585077,37.243243 C 21.170798,37.436685 13.323134,36.019726 12.234497,36.167928 C 11.565335,36.265894 4.6012257,38.581444 5.9051957,37.931335 z "
     style="font-size:12.000000;opacity:0.69993597;fill:url(#linearGradient587);fill-rule:evenodd;stroke-width:0.10012100pt;"
     id="path875"
     sodipodi:nodetypes="cssss" />
  <path
     style="fill:none;fill-opacity:1.00000000;fill-rule:evenodd;stroke:#261933;stroke-width:1.8750000;stroke-linecap:round;stroke-linejoin:round;stroke-dasharray:none;"
     d="M 22.510094,30.967985 C 24.646672,26.112126 27.948658,23.878431 31.979022,22.518791 L 31.250643,26.597712"
     id="path858"
     sodipodi:nodetypes="ccc" />
  <path
     style="fill:none;fill-opacity:1.00000000;fill-rule:evenodd;stroke:#261933;stroke-width:1.8750000;stroke-linecap:round;stroke-linejoin:round;stroke-dasharray:none;"
     d="M 18.358335,23.538519 L 18.813571,28.855687 C 21.505650,23.430521 26.540459,19.265363 30.740778,18.439868"
     id="path859"
     sodipodi:nodetypes="ccc" />
  <path
     d="M 35.912278,4.7125386 C 35.766603,8.8400209 35.622848,14.564171 36.205552,18.983004 C 37.370960,21.945080 52.517400,21.849884 53.391456,18.256546 C 53.779926,13.740594 53.886667,8.7035824 53.546759,4.0419543 C 51.891276,1.3040477 36.693706,1.0407082 35.912278,4.7125386 z "
     style="fill:url(#linearGradient640);stroke:#261933;stroke-width:1.8750000;stroke-linejoin:round;stroke-dasharray:none;"
     id="path869"
     sodipodi:nodetypes="ccccc" />
  <path
     d="M 37.712633,17.696340 C 37.443167,16.442919 36.997381,6.0270234 37.397242,5.7637328 C 37.785943,5.5304892 41.485147,6.8620513 44.793725,6.7702855 C 48.102304,6.6785211 51.037448,5.4462128 51.988818,5.3516466 C 52.590113,5.2081327 48.042970,7.3750007 44.915942,7.8358574 C 41.788913,8.2967155 39.874578,7.6608290 38.793939,7.8590970 C 38.023853,8.0075254 38.291519,19.040974 37.712633,17.696340 z "
     style="font-size:12.000000;opacity:0.69993597;fill:url(#linearGradient587);fill-rule:evenodd;stroke-width:0.10012100pt;"
     id="path864"
     sodipodi:nodetypes="csscssc" />
</svg>
