<?xml version="1.0" encoding="UTF-8" standalone="no"?>
<!DOCTYPE svg PUBLIC "-//W3C//DTD SVG 20010904//EN"
"http://www.w3.org/TR/2001/REC-SVG-20010904/DTD/svg10.dtd">
<!-- Created with Inkscape (http://www.inkscape.org/) -->
<svg
   id="svg1"
   sodipodi:version="0.32"
   inkscape:version="0.37"
   width="48pt"
   height="48pt"
   sodipodi:docbase="/home/dan/Projects/Lila-icons/scalable/apps"
   sodipodi:docname="gcalctool.svg"
   xmlns="http://www.w3.org/2000/svg"
   xmlns:inkscape="http://www.inkscape.org/namespaces/inkscape"
   xmlns:sodipodi="http://sodipodi.sourceforge.net/DTD/sodipodi-0.dtd"
   xmlns:xlink="http://www.w3.org/1999/xlink">
  <defs
     id="defs3">
    <linearGradient
       id="linearGradient765">
      <stop
         style="stop-color:#3fbf3f;stop-opacity:1;"
         offset="0.00000000"
         id="stop766" />
      <stop
         style="stop-color:#7fff7f;stop-opacity:1;"
         offset="1.00000000"
         id="stop767" />
    </linearGradient>
    <linearGradient
       id="linearGradient599">
      <stop
         style="stop-color:#ffffff;stop-opacity:1;"
         offset="0.00000000"
         id="stop600" />
      <stop
         style="stop-color:#d9cce6;stop-opacity:1;"
         offset="1.00000000"
         id="stop601" />
    </linearGradient>
    <linearGradient
       id="linearGradient584">
      <stop
         style="stop-color:#ffffff;stop-opacity:1;"
         offset="0.00000000"
         id="stop585" />
      <stop
         style="stop-color:#ffffff;stop-opacity:0;"
         offset="1.00000000"
         id="stop586" />
    </linearGradient>
    <linearGradient
       id="linearGradient578">
      <stop
         style="stop-color:#d9cce6;stop-opacity:1;"
         offset="0.00000000"
         id="stop579" />
      <stop
         style="stop-color:#73667f;stop-opacity:1;"
         offset="1.00000000"
         id="stop580" />
    </linearGradient>
    <linearGradient
       xlink:href="#linearGradient578"
       id="linearGradient581"
       x1="0.00000000"
       y1="0.00000000"
       x2="0.97169811"
       y2="0.98437500" />
    <linearGradient
       xlink:href="#linearGradient765"
       id="linearGradient583"
       x1="0.98540145"
       y1="0.97413790"
       x2="0.00000000"
       y2="0.02586207" />
    <linearGradient
       xlink:href="#linearGradient584"
       id="linearGradient860"
       x1="-0.00000000"
       y1="-0.00000000"
       x2="0.97540987"
       y2="0.97656250" />
    <linearGradient
       xlink:href="#linearGradient599"
       id="linearGradient861"
       x1="-0.00609756"
       y1="0.02343750"
       x2="0.98780495"
       y2="0.96093744" />
    <linearGradient
       xlink:href="#linearGradient584"
       id="linearGradient862"
       x1="-0.00000000"
       y1="-0.00000000"
       x2="0.99635035"
       y2="0.96296299" />
    <radialGradient
       xlink:href="#linearGradient578"
       id="radialGradient595"
       cx="0.33846155"
       cy="0.34375000"
       r="0.66501766"
       fx="0.33076921"
       fy="0.33593750" />
    <linearGradient
       xlink:href="#linearGradient599"
       id="linearGradient801"
       x1="-0.00609756"
       y1="0.00000000"
       x2="0.97560978"
       y2="0.96875000" />
    <linearGradient
       xlink:href="#linearGradient599"
       id="linearGradient802"
       x1="0.01219512"
       y1="0.01562500"
       x2="0.98780489"
       y2="0.98437500" />
    <linearGradient
       xlink:href="#linearGradient599"
       id="linearGradient803"
       x1="0.00609756"
       y1="0.02343750"
       x2="1.00000000"
       y2="1.00781250" />
    <linearGradient
       xlink:href="#linearGradient599"
       id="linearGradient804"
       x1="0.00609756"
       y1="0.01562500"
       x2="0.97560978"
       y2="0.99218750" />
    <linearGradient
       xlink:href="#linearGradient599"
       id="linearGradient805"
       x1="-0.00609756"
       y1="-0.00000000"
       x2="0.97560978"
       y2="0.96875000" />
    <linearGradient
       xlink:href="#linearGradient599"
       id="linearGradient806"
       x1="0.00609756"
       y1="0.01562499"
       x2="0.98780519"
       y2="0.97656220" />
    <linearGradient
       xlink:href="#linearGradient599"
       id="linearGradient807"
       x1="0.00609756"
       y1="0.00000000"
       x2="1.00609767"
       y2="0.96093738" />
    <linearGradient
       xlink:href="#linearGradient599"
       id="linearGradient808"
       x1="0.01219512"
       y1="0.01562500"
       x2="0.98780501"
       y2="0.99999988" />
  </defs>
  <sodipodi:namedview
     id="base"
     pagecolor="#ffffff"
     bordercolor="#666666"
     borderopacity="1.0"
     inkscape:pageopacity="0.0"
     inkscape:pageshadow="2"
     inkscape:zoom="7.97947193"
     inkscape:cx="26.7410421"
     inkscape:cy="23.4042671"
     inkscape:window-width="640"
     inkscape:window-height="535"
     inkscape:window-x="160"
     inkscape:window-y="106" />
  <path
     style="font-size:12;fill:#000000;fill-rule:evenodd;stroke:none;stroke-width:1.875;stroke-dasharray:none;fill-opacity:1;opacity:0.296369;"
     d="M 19.410238 4.0739991 C 17.147853 5.4557326 7.2961912 46.834708 8.2712004 49.73245 C 9.245283 52.323645 39.818182 61.041947 41.984224 59.538373 C 44.141047 58.123564 55.681623 13.2299 53.755377 10.387058 C 51.810733 7.8147937 21.329811 2.7194013 19.410238 4.0739991 z "
     id="path800"
     sodipodi:nodetypes="cssss" />
  <path
     style="font-size:12;fill:url(#linearGradient581);fill-rule:evenodd;stroke:#261933;stroke-width:1.875;stroke-dasharray:none;stroke-opacity:1;"
     d="M 18.611137 3.1239877 C 16.45026 4.4437258 7.0406221 43.966115 7.9718847 46.733841 C 8.9022619 49.208775 38.10342 57.535905 40.172276 56.099794 C 42.232327 54.748464 53.255102 11.869083 51.415283 9.1537932 C 49.557891 6.6969412 20.444583 1.8301678 18.611137 3.1239877 z "
     id="path763"
     sodipodi:nodetypes="cssss" />
  <path
     style="font-size:12;fill:url(#linearGradient583);fill-rule:evenodd;stroke:#003300;stroke-width:1.70378;"
     d="M 21.927234 8.5684844 C 23.499343 7.6586356 44.485919 11.609582 45.740982 13.034231 C 47.005707 14.248746 45.931861 18.560929 44.345906 19.376164 C 43.14619 20.087062 21.164496 15.860877 20.145701 14.727374 C 19.56414 13.927993 20.337244 9.3888372 21.927234 8.5684844 z "
     id="path764"
     sodipodi:nodetypes="cssss" />
  <path
     style="font-size:12;fill:url(#linearGradient801);fill-rule:evenodd;stroke:#261933;stroke-width:1.25;stroke-dasharray:none;stroke-opacity:1;"
     d="M 16.917309 19.783611 C 17.539197 18.994935 23.991101 20.462568 24.240377 21.435956 C 24.51698 22.252063 23.668051 25.541229 23.052481 26.260371 C 22.575998 26.87458 15.828264 25.271852 15.623279 24.498811 C 15.523773 23.944005 16.299822 20.506853 16.917309 19.783611 z "
     id="path790"
     sodipodi:nodetypes="cssss" />
  <path
     style="font-size:12;fill:url(#linearGradient803);fill-rule:evenodd;stroke:#261933;stroke-width:1.25;stroke-dasharray:none;stroke-opacity:1;"
     d="M 37.438721 24.796474 C 38.060609 24.007798 44.512513 25.475431 44.761789 26.448819 C 45.038392 27.264926 44.189463 30.554092 43.573893 31.273234 C 43.09741 31.887443 36.349676 30.284715 36.144691 29.511674 C 36.045185 28.956868 36.821234 25.519716 37.438721 24.796474 z "
     id="path791"
     sodipodi:nodetypes="cssss" />
  <path
     style="font-size:12;fill:url(#linearGradient861);fill-rule:evenodd;stroke:#261933;stroke-width:1.25;stroke-dasharray:none;stroke-opacity:1;"
     d="M 14.567529 29.026077 C 15.189417 28.237401 21.641321 29.705034 21.890597 30.678422 C 22.1672 31.494529 21.318271 34.783695 20.702701 35.502837 C 20.226218 36.117046 13.478484 34.514318 13.273499 33.741277 C 13.173993 33.186471 13.950042 29.749319 14.567529 29.026077 z "
     id="path792"
     sodipodi:nodetypes="cssss" />
  <path
     style="font-size:12;fill:url(#linearGradient808);fill-rule:evenodd;stroke:#261933;stroke-width:1.25;stroke-dasharray:none;stroke-opacity:1;"
     d="M 24.593255 31.845813 C 25.215143 31.057137 31.667047 32.52477 31.916323 33.498158 C 32.192926 34.314265 31.343997 37.603431 30.728427 38.322573 C 30.251944 38.936782 23.50421 37.334054 23.299225 36.561013 C 23.199719 36.006207 23.975768 32.569055 24.593255 31.845813 z "
     id="path793"
     sodipodi:nodetypes="cssss" />
  <path
     style="font-size:12;fill:url(#linearGradient807);fill-rule:evenodd;stroke:#261933;stroke-width:1.25;stroke-dasharray:none;stroke-opacity:1;"
     d="M 35.088941 34.352244 C 35.710829 33.563568 42.162733 35.031201 42.412009 36.004589 C 42.688612 36.820696 41.839683 40.109862 41.224113 40.829004 C 40.74763 41.443213 33.999896 39.840485 33.794911 39.067444 C 33.695405 38.512638 34.471454 35.075486 35.088941 34.352244 z "
     id="path794"
     sodipodi:nodetypes="cssss" />
  <path
     style="font-size:12;fill:url(#linearGradient806);fill-rule:evenodd;stroke:#261933;stroke-width:1.25;stroke-dasharray:none;stroke-opacity:1;"
     d="M 12.21775 38.738496 C 12.839638 37.94982 19.291542 39.417453 19.540818 40.390841 C 19.817421 41.206948 18.968492 44.496114 18.352922 45.215256 C 17.876439 45.829465 11.128705 44.226737 10.92372 43.453696 C 10.824214 42.89889 11.600263 39.461738 12.21775 38.738496 z "
     id="path795"
     sodipodi:nodetypes="cssss" />
  <path
     style="font-size:12;fill:url(#linearGradient805);fill-rule:evenodd;stroke:#261933;stroke-width:1.25;stroke-dasharray:none;stroke-opacity:1;"
     d="M 21.930172 41.714888 C 22.55206 40.926212 29.003964 42.393845 29.25324 43.367233 C 29.529843 44.18334 28.680914 47.472506 28.065344 48.191648 C 27.588861 48.805857 20.841127 47.203129 20.636142 46.430088 C 20.536636 45.875282 21.312685 42.43813 21.930172 41.714888 z "
     id="path796"
     sodipodi:nodetypes="cssss" />
  <path
     style="font-size:12;fill:url(#linearGradient804);fill-rule:evenodd;stroke:#261933;stroke-width:1.25;stroke-dasharray:none;stroke-opacity:1;"
     d="M 32.425859 44.691276 C 33.047747 43.9026 39.499651 45.370233 39.748927 46.343621 C 40.02553 47.159728 39.176601 50.448894 38.561031 51.168036 C 38.084548 51.782245 31.336814 50.179517 31.131829 49.406476 C 31.032323 48.85167 31.808372 45.414518 32.425859 44.691276 z "
     id="path797"
     sodipodi:nodetypes="cssss" />
  <path
     style="font-size:12;fill:url(#linearGradient802);fill-rule:evenodd;stroke:#261933;stroke-width:1.25;stroke-dasharray:none;stroke-opacity:1;"
     d="M 27.256338 22.290043 C 27.878226 21.501367 34.33013 22.969 34.579406 23.942388 C 34.856009 24.758495 34.00708 28.047661 33.39151 28.766803 C 32.915027 29.381012 26.167293 27.778284 25.962308 27.005243 C 25.862802 26.450437 26.638851 23.013285 27.256338 22.290043 z "
     id="path798"
     sodipodi:nodetypes="cssss" />
  <path
     style="fill:url(#linearGradient862);fill-rule:evenodd;stroke:none;stroke-opacity:1;stroke-width:1pt;stroke-linejoin:miter;stroke-linecap:butt;fill-opacity:1;"
     d="M 21.617972 13.474365 C 21.499107 13.206919 21.747151 9.8328752 22.871188 9.8713692 C 29.37088 10.093961 44.382656 14.01799 44.48916 14.257624 C 44.591525 14.487946 30.207393 11.511017 23.497796 11.281237 C 22.583664 11.249931 21.707977 13.676875 21.617972 13.474365 z "
     id="path799"
     sodipodi:nodetypes="cssss" />
  <path
     style="fill:url(#linearGradient860);fill-rule:evenodd;stroke:none;stroke-opacity:1;stroke-width:1pt;stroke-linejoin:miter;stroke-linecap:butt;fill-opacity:1;"
     d="M 16.706108 23.82445 C 16.630591 23.698589 17.382268 20.740196 17.594137 20.615877 C 17.794819 20.475351 22.369375 21.320857 22.445913 21.448421 C 22.513626 21.561276 18.652688 20.897815 18.105217 21.415459 C 17.400749 22.08316 16.774843 23.939008 16.706108 23.82445 z "
     id="path809"
     sodipodi:nodetypes="cssss" />
  <path
     style="fill:url(#linearGradient860);fill-rule:evenodd;stroke:none;stroke-opacity:1;stroke-width:1pt;stroke-linejoin:miter;stroke-linecap:butt;fill-opacity:1;"
     d="M 27.007688 26.372152 C 26.932171 26.246291 27.683848 23.287898 27.895717 23.163579 C 28.096399 23.023053 32.670955 23.868559 32.747493 23.996123 C 32.815206 24.108978 28.954268 23.445517 28.406797 23.963161 C 27.702329 24.630862 27.076423 26.48671 27.007688 26.372152 z "
     id="path810"
     sodipodi:nodetypes="cssss" />
  <path
     style="fill:url(#linearGradient860);fill-rule:evenodd;stroke:none;stroke-opacity:1;stroke-width:1pt;stroke-linejoin:miter;stroke-linecap:butt;fill-opacity:1;"
     d="M 37.198497 28.7537 C 37.12298 28.627839 37.874657 25.669446 38.086526 25.545127 C 38.287208 25.404601 42.861764 26.250107 42.938302 26.377671 C 43.006015 26.490526 39.145077 25.827065 38.597606 26.344709 C 37.893138 27.01241 37.267232 28.868258 37.198497 28.7537 z "
     id="path811"
     sodipodi:nodetypes="cssss" />
  <path
     style="fill:url(#linearGradient860);fill-rule:evenodd;stroke:none;stroke-opacity:1;stroke-width:1pt;stroke-linejoin:miter;stroke-linecap:butt;fill-opacity:1;"
     d="M 14.269175 32.962948 C 14.193658 32.837087 14.945335 29.878694 15.157204 29.754375 C 15.357886 29.613849 19.932442 30.459355 20.00898 30.586919 C 20.076693 30.699774 16.215755 30.036313 15.668284 30.553957 C 14.963816 31.221658 14.33791 33.077506 14.269175 32.962948 z "
     id="path812"
     sodipodi:nodetypes="cssss" />
  <path
     style="fill:url(#linearGradient860);fill-rule:evenodd;stroke:none;stroke-opacity:1;stroke-width:1pt;stroke-linejoin:miter;stroke-linecap:butt;fill-opacity:1;"
     d="M 24.459985 35.787575 C 24.384468 35.661714 25.136145 32.703321 25.348014 32.579002 C 25.548696 32.438476 30.123252 33.283982 30.19979 33.411546 C 30.267503 33.524401 26.406565 32.86094 25.859094 33.378584 C 25.154626 34.046285 24.52872 35.902133 24.459985 35.787575 z "
     id="path813"
     sodipodi:nodetypes="cssss" />
  <path
     style="fill:url(#linearGradient860);fill-rule:evenodd;stroke:none;stroke-opacity:1;stroke-width:1pt;stroke-linejoin:miter;stroke-linecap:butt;fill-opacity:1;"
     d="M 34.927719 38.335277 C 34.852202 38.209416 35.603879 35.251023 35.815748 35.126704 C 36.01643 34.986178 40.590986 35.831684 40.667524 35.959248 C 40.735237 36.072103 36.874299 35.408642 36.326828 35.926286 C 35.62236 36.593987 34.996454 38.449835 34.927719 38.335277 z "
     id="path814"
     sodipodi:nodetypes="cssss" />
  <path
     style="fill:url(#linearGradient860);fill-rule:evenodd;stroke:none;stroke-opacity:1;stroke-width:1pt;stroke-linejoin:miter;stroke-linecap:butt;fill-opacity:1;"
     d="M 11.943012 42.655294 C 11.867495 42.529433 12.619172 39.57104 12.831041 39.446721 C 13.031723 39.306195 17.606279 40.151701 17.682817 40.279265 C 17.75053 40.39212 13.889592 39.728659 13.342121 40.246303 C 12.637653 40.914004 12.011747 42.769852 11.943012 42.655294 z "
     id="path815"
     sodipodi:nodetypes="cssss" />
  <path
     style="fill:url(#linearGradient860);fill-rule:evenodd;stroke:none;stroke-opacity:1;stroke-width:1pt;stroke-linejoin:miter;stroke-linecap:butt;fill-opacity:1;"
     d="M 21.746128 45.756845 C 21.670611 45.630984 22.422288 42.672591 22.634157 42.548272 C 22.834839 42.407746 27.409395 43.253252 27.485933 43.380816 C 27.553646 43.493671 23.692708 42.83021 23.145237 43.347854 C 22.440769 44.015555 21.814863 45.871403 21.746128 45.756845 z "
     id="path816"
     sodipodi:nodetypes="cssss" />
  <path
     style="fill:url(#linearGradient860);fill-rule:evenodd;stroke:none;stroke-opacity:1;stroke-width:1pt;stroke-linejoin:miter;stroke-linecap:butt;fill-opacity:1;"
     d="M 32.269247 48.747626 C 32.19373 48.621765 32.945407 45.663372 33.157276 45.539053 C 33.357958 45.398527 37.932514 46.244033 38.009052 46.371597 C 38.076765 46.484452 34.215827 45.820991 33.668356 46.338635 C 32.963888 47.006336 32.337982 48.862184 32.269247 48.747626 z "
     id="path817"
     sodipodi:nodetypes="cssss" />
  <path
     style="fill:url(#linearGradient860);fill-rule:evenodd;stroke:none;stroke-opacity:1;stroke-width:1pt;stroke-linejoin:miter;stroke-linecap:butt;fill-opacity:1;"
     d="M 9.8690741 44.961411 C 9.3770244 44.141328 18.357648 5.9818481 19.738148 5.1718104 C 21.045747 4.2561697 47.280142 9.5101432 47.778851 10.341325 C 48.220054 11.076663 26.125094 6.4985089 22.557884 9.8713692 C 17.967714 14.221976 10.316936 45.707848 9.8690741 44.961411 z "
     id="path788"
     sodipodi:nodetypes="cssss" />
</svg>
