<?xml version="1.0" encoding="UTF-8" standalone="no"?>
<!DOCTYPE svg PUBLIC "-//W3C//DTD SVG 20010904//EN"
"http://www.w3.org/TR/2001/REC-SVG-20010904/DTD/svg10.dtd">
<!-- Created with Inkscape (http://www.inkscape.org/) -->
<svg
   id="svg1"
   sodipodi:version="0.32"
   inkscape:version="0.39"
   width="48pt"
   height="48pt"
   sodipodi:docbase="/home/scaba/files/lila/work/lila-gnome/Lila/scalable/apps"
   sodipodi:docname="gnome-desktop-config2.svg"
   xmlns="http://www.w3.org/2000/svg"
   xmlns:cc="http://web.resource.org/cc/"
   xmlns:inkscape="http://www.inkscape.org/namespaces/inkscape"
   xmlns:sodipodi="http://sodipodi.sourceforge.net/DTD/sodipodi-0.dtd"
   xmlns:rdf="http://www.w3.org/1999/02/22-rdf-syntax-ns#"
   xmlns:dc="http://purl.org/dc/elements/1.1/"
   xmlns:xlink="http://www.w3.org/1999/xlink">
  <defs
     id="defs3">
    <linearGradient
       xlink:href="#linearGradient1304"
       id="linearGradient1352"
       x1="0.22535211"
       y1="0.25000000"
       x2="0.67605633"
       y2="0.74218750" />
    <linearGradient
       xlink:href="#linearGradient584"
       id="linearGradient1351"
       x1="-0.00000000"
       y1="-0.00000000"
       x2="0.99504948"
       y2="0.99218750" />
    <linearGradient
       xlink:href="#linearGradient584"
       id="linearGradient1350"
       x1="-0.00000000"
       y1="0.00000000"
       x2="0.97368419"
       y2="0.99218750" />
    <linearGradient
       xlink:href="#linearGradient584"
       id="linearGradient1349"
       x1="0.00000000"
       y1="-0.00000000"
       x2="0.99019605"
       y2="0.99218750" />
    <linearGradient
       id="linearGradient1304">
      <stop
         style="stop-color:#d9cce6;stop-opacity:1;"
         offset="0.00000000"
         id="stop1305" />
      <stop
         style="stop-color:#73667f;stop-opacity:1;"
         offset="1.00000000"
         id="stop1306" />
    </linearGradient>
    <linearGradient
       id="linearGradient1299">
      <stop
         style="stop-color:#c7b397;stop-opacity:1;"
         offset="0.00000000"
         id="stop1300" />
      <stop
         style="stop-color:#faebdc;stop-opacity:1;"
         offset="1.00000000"
         id="stop1301" />
    </linearGradient>
    <linearGradient
       id="linearGradient866">
      <stop
         style="stop-color:#ffffff;stop-opacity:1;"
         offset="0.00000000"
         id="stop867" />
      <stop
         style="stop-color:#d9cce6;stop-opacity:1;"
         offset="1.00000000"
         id="stop868" />
    </linearGradient>
    <linearGradient
       id="linearGradient584">
      <stop
         style="stop-color:#ffffff;stop-opacity:1;"
         offset="0.00000000"
         id="stop585" />
      <stop
         style="stop-color:#ffffff;stop-opacity:0;"
         offset="1.00000000"
         id="stop586" />
    </linearGradient>
    <linearGradient
       xlink:href="#linearGradient866"
       id="linearGradient586"
       x1="-0.00000000"
       y1="0.01562500"
       x2="0.99122804"
       y2="0.98437500" />
    <linearGradient
       xlink:href="#linearGradient584"
       id="linearGradient587"
       x1="0.00000000"
       y1="-0.00000000"
       x2="1.00000000"
       y2="1.00000000" />
    <linearGradient
       xlink:href="#linearGradient1299"
       id="linearGradient1298"
       x1="0.98734176"
       y1="0.98437500"
       x2="-0.00632911"
       y2="0.00781250" />
    <linearGradient
       xlink:href="#linearGradient1304"
       id="linearGradient1303"
       x1="0.00000000"
       y1="0.00000000"
       x2="0.96551722"
       y2="0.99218750" />
    <linearGradient
       xlink:href="#linearGradient584"
       id="linearGradient1323"
       x1="0.00000000"
       y1="0.00000000"
       x2="1.00000000"
       y2="1.03906250" />
    <linearGradient
       xlink:href="#linearGradient584"
       id="linearGradient1325"
       x1="-0.00000000"
       y1="-0.00000000"
       x2="0.93750000"
       y2="0.99218750" />
    <linearGradient
       xlink:href="#linearGradient584"
       id="linearGradient1327"
       x1="0.00877193"
       y1="0.00781250"
       x2="1.00000000"
       y2="0.98437500" />
    <radialGradient
       xlink:href="#linearGradient1304"
       id="radialGradient1329" />
    <linearGradient
       xlink:href="#linearGradient584"
       id="linearGradient1330"
       x1="-0.00000000"
       y1="-0.00000000"
       x2="0.99270076"
       y2="0.95714283" />
  </defs>
  <sodipodi:namedview
     id="base"
     pagecolor="#ffffff"
     bordercolor="#666666"
     borderopacity="1.0"
     inkscape:pageopacity="0.0"
     inkscape:pageshadow="2"
     inkscape:zoom="4.0000000"
     inkscape:cx="30.003571"
     inkscape:cy="17.671654"
     inkscape:window-width="528"
     inkscape:window-height="526"
     inkscape:window-x="546"
     inkscape:window-y="136" />
  <g
     id="g632"
     style="opacity:0.29999998;"
     transform="translate(62.47410,-35.21964)">
    <path
       style="font-size:12.000000;fill:#000000;fill-opacity:1.0000000;fill-rule:evenodd;stroke:none;stroke-width:1.8242500;"
       d="M -54.485256,47.213579 C -55.932300,47.977082 -56.219927,85.294270 -54.883367,86.825600 C -53.496589,88.186400 -6.9969087,88.485940 -5.7166887,87.223710 C -4.4002347,85.929170 -4.3084167,48.215442 -5.5176317,47.213579 C -6.7976157,45.988162 -52.863475,46.252852 -54.485256,47.213579 z "
       id="path627" />
    <path
       style="font-size:12.000000;fill:#000000;fill-opacity:1.0000000;fill-rule:evenodd;stroke:none;stroke-width:1.8242500;"
       d="M -55.472439,46.405297 C -57.611447,48.815066 -57.320466,59.969996 -55.624852,59.969996 C -53.357746,59.969996 -43.614967,49.136638 -43.584278,46.405297 C -43.564163,44.615071 -53.597923,44.293499 -55.472439,46.405297 z "
       id="path628" />
    <path
       style="font-size:12.000000;fill:#000000;fill-opacity:1.0000000;fill-rule:evenodd;stroke:none;stroke-width:1.8242500;"
       d="M -4.7922577,46.620841 C -2.6532497,49.030609 -2.9442307,60.185539 -4.6398447,60.185539 C -6.9069507,60.185539 -16.649730,49.352181 -16.680419,46.620841 C -16.700534,44.830615 -6.6667737,44.509043 -4.7922577,46.620841 z "
       id="path629" />
    <path
       style="font-size:12.000000;fill:#000000;fill-opacity:1.0000000;fill-rule:evenodd;stroke:none;stroke-width:1.8242500;"
       d="M -4.7922577,87.602640 C -2.6532497,85.192880 -2.9442307,74.037945 -4.6398447,74.037945 C -6.9069507,74.037945 -16.649730,84.871300 -16.680419,87.602640 C -16.700534,89.392870 -6.6667747,89.714440 -4.7922577,87.602640 z "
       id="path630" />
    <path
       style="font-size:12.000000;fill:#000000;fill-opacity:1.0000000;fill-rule:evenodd;stroke:none;stroke-width:1.8242500;"
       d="M -55.687983,87.387100 C -57.826990,84.977330 -57.536010,73.822402 -55.840395,73.822402 C -53.573289,73.822402 -43.830511,84.655760 -43.799822,87.387100 C -43.779708,89.177330 -53.813466,89.498900 -55.687983,87.387100 z "
       id="path631" />
  </g>
  <path
     style="font-size:12.000000;fill:url(#linearGradient1298);fill-rule:evenodd;stroke:#333300;stroke-width:1.8242548;stroke-opacity:1.0000000;"
     d="M 5.5519051,8.6708501 C 4.1048617,9.4343531 3.8172345,46.751545 5.1537943,48.282872 C 6.5405726,49.643673 53.040253,49.943206 54.320473,48.680983 C 55.636927,47.386445 55.728745,9.6727131 54.519530,8.6708501 C 53.239546,7.4454327 7.1736869,7.7101233 5.5519051,8.6708501 z "
     id="path1208"
     sodipodi:nodetypes="cssss" />
  <metadata
     id="metadata48">
    <rdf:RDF
       id="RDF49">
      <cc:Work
         rdf:about=""
         id="Work50">
        <dc:format
           id="format51">image/svg+xml</dc:format>
        <dc:type
           id="type53"
           rdf:resource="http://purl.org/dc/dcmitype/StillImage" />
      </cc:Work>
    </rdf:RDF>
  </metadata>
  <path
     style="fill:url(#linearGradient1303);fill-opacity:1.0000000;fill-rule:evenodd;stroke:#261933;stroke-width:1.8242548;stroke-linecap:butt;stroke-linejoin:miter;stroke-opacity:1.0000000;"
     d="M 4.5647223,7.8625682 C 2.4257149,10.272337 2.7166957,21.427267 4.4123099,21.427267 C 6.6794159,21.427267 16.422195,10.593909 16.452884,7.8625682 C 16.472999,6.0723418 6.4392389,5.7507700 4.5647223,7.8625682 z "
     id="path952"
     sodipodi:nodetypes="csss" />
  <path
     style="fill:url(#linearGradient1323);fill-opacity:1.0000000;fill-rule:evenodd;stroke:none;stroke-width:1.0000000pt;stroke-linecap:butt;stroke-linejoin:miter;stroke-opacity:1.0000000;"
     d="M 4.7171336,18.531432 C 4.4750185,18.289317 4.0995772,10.749741 5.7840201,8.9294541 C 7.2494318,7.3458643 13.921772,8.0748781 14.166699,8.3198051 C 14.379009,8.5321151 8.6018049,8.7384731 7.1557313,10.301166 C 5.4519503,12.142349 4.9322556,18.746554 4.7171336,18.531432 z "
     id="path953"
     sodipodi:nodetypes="cssss" />
  <path
     style="fill:url(#linearGradient1303);fill-opacity:1.0000000;fill-rule:evenodd;stroke:#261933;stroke-width:1.8242548;stroke-linecap:butt;stroke-linejoin:miter;stroke-opacity:1.0000000;"
     d="M 55.244904,8.0781121 C 57.383912,10.487880 57.092931,21.642810 55.397317,21.642810 C 53.130211,21.642810 43.387432,10.809452 43.356743,8.0781121 C 43.336628,6.2878855 53.370388,5.9663139 55.244904,8.0781121 z "
     id="path954"
     sodipodi:nodetypes="csss" />
  <path
     style="fill:url(#linearGradient1323);fill-opacity:1.0000000;fill-rule:evenodd;stroke:none;stroke-width:1.0000000pt;stroke-linecap:butt;stroke-linejoin:miter;stroke-opacity:1.0000000;"
     d="M 55.092492,18.746975 C 55.334607,18.504860 55.710049,10.965284 54.025606,9.1449991 C 52.560195,7.5614083 45.887855,8.2904221 45.642928,8.5353491 C 45.430618,8.7476591 51.207822,8.9540171 52.653895,10.516709 C 54.357676,12.357892 54.877371,18.962097 55.092492,18.746975 z "
     id="path955"
     sodipodi:nodetypes="cssss" />
  <path
     style="fill:url(#linearGradient1303);fill-opacity:1.0000000;fill-rule:evenodd;stroke:#261933;stroke-width:1.8242548;stroke-linecap:butt;stroke-linejoin:miter;stroke-opacity:1.0000000;"
     d="M 55.244904,8.0781121 C 57.383912,10.487880 57.092931,21.642810 55.397317,21.642810 C 53.130211,21.642810 43.387432,10.809452 43.356743,8.0781121 C 43.336628,6.2878855 53.370388,5.9663139 55.244904,8.0781121 z "
     id="path956"
     sodipodi:nodetypes="csss" />
  <path
     style="fill:url(#linearGradient1303);fill-opacity:1.0000000;fill-rule:evenodd;stroke:#261933;stroke-width:1.8242548;stroke-linecap:butt;stroke-linejoin:miter;stroke-opacity:1.0000000;"
     d="M 55.244904,49.059915 C 57.383912,46.650146 57.092931,35.495216 55.397317,35.495216 C 53.130211,35.495216 43.387432,46.328574 43.356743,49.059915 C 43.336628,50.850141 53.370387,51.171712 55.244904,49.059915 z "
     id="path958"
     sodipodi:nodetypes="csss" />
  <path
     style="fill:url(#linearGradient1303);fill-opacity:1.0000000;fill-rule:evenodd;stroke:#261933;stroke-width:1.8242548;stroke-linecap:butt;stroke-linejoin:miter;stroke-opacity:1.0000000;"
     d="M 4.3491785,48.844371 C 2.2101713,46.434603 2.5011520,35.279673 4.1967662,35.279673 C 6.4638722,35.279673 16.206651,46.113031 16.237340,48.844371 C 16.257454,50.634598 6.2236952,50.956169 4.3491785,48.844371 z "
     id="path960"
     sodipodi:nodetypes="csss" />
  <path
     style="fill:url(#linearGradient1325);fill-opacity:1.0000000;fill-rule:evenodd;stroke:none;stroke-width:1.0000000pt;stroke-linecap:butt;stroke-linejoin:miter;stroke-opacity:1.0000000;"
     d="M 5.1555974,47.634332 C 4.9360612,47.359911 4.3752931,39.854549 4.5459480,37.422706 C 4.5785093,36.958715 5.7280408,38.323626 5.7652468,38.946830 C 5.9312569,41.727501 5.3424935,47.867952 5.1555974,47.634332 z "
     id="path1324"
     sodipodi:nodetypes="csss" />
  <path
     style="fill:url(#linearGradient1330);fill-opacity:1.0000000;fill-rule:evenodd;stroke:none;stroke-width:1.0000000pt;stroke-linecap:butt;stroke-linejoin:miter;stroke-opacity:1.0000000;"
     d="M 44.887402,8.5644771 C 45.317650,8.2202791 51.978910,8.2228911 53.574905,8.7168901 C 54.112682,8.8833451 52.169241,10.561284 51.288719,10.545837 C 49.273406,10.510481 44.555589,8.8299281 44.887402,8.5644771 z "
     id="path1328"
     sodipodi:nodetypes="csss" />
  <path
     style="fill:url(#linearGradient1327);fill-opacity:1.0000000;fill-rule:evenodd;stroke:none;stroke-width:1.0000000pt;stroke-linecap:butt;stroke-linejoin:miter;stroke-opacity:1.0000000;"
     d="M 45.203057,48.459526 C 45.527672,47.692254 52.658774,39.397528 54.652621,37.638250 C 55.249783,37.111342 53.900012,40.542926 52.976086,41.600971 C 50.750158,44.150018 44.968827,49.013160 45.203057,48.459526 z "
     id="path1326"
     sodipodi:nodetypes="csss" />
  <path
     d="M 14.747132,38.918867 C 16.224947,39.698011 17.525816,36.109216 20.255429,39.235148 C 23.335396,42.764817 19.058317,43.183319 19.491852,44.696175 C 19.831048,45.705082 23.967289,44.718892 24.901769,43.614046 C 25.850947,42.491963 24.024078,39.369505 25.142755,38.015588 C 28.851610,33.527187 34.282975,29.044065 39.384494,26.087365 C 41.045409,25.124824 44.112215,27.176910 45.430116,26.257731 C 46.708940,25.365676 48.098865,21.172980 47.174475,20.653729 C 45.753752,19.824541 43.791724,24.471617 41.189585,21.398065 C 38.570142,18.303399 43.089739,16.709567 42.779342,15.433952 C 42.495930,14.399438 37.991295,15.347166 36.866205,16.514546 C 35.756550,17.665892 37.285243,20.953373 36.075102,22.390134 C 32.320615,26.847535 26.988997,31.271597 21.972260,34.197030 C 20.517192,35.045525 17.840294,32.940457 16.659618,33.712054 C 15.431940,34.514381 13.795944,38.363738 14.747132,38.918867 z "
     style="font-size:12.000000;opacity:0.30267498;fill-rule:evenodd;stroke-width:12.500000;"
     id="path636" />
  <path
     d="M 13.726694,37.752622 C 15.204503,38.531767 16.505352,34.942970 19.234964,38.068902 C 22.314932,41.598572 18.037853,42.017074 18.471386,43.529932 C 18.810583,44.538838 22.946825,43.552648 23.881304,42.447801 C 24.830482,41.325718 23.003614,38.203259 24.122291,36.849344 C 27.831146,32.360943 33.262509,27.877821 38.364032,24.921118 C 40.024940,23.958579 43.091746,26.010666 44.409654,25.091485 C 45.688471,24.199430 47.078398,20.006735 46.154013,19.487483 C 44.733282,18.658297 42.771256,23.305372 40.169117,20.231820 C 37.549678,17.137153 42.069278,15.543321 41.758874,14.267741 C 41.475469,13.233220 36.970831,14.180974 35.845741,15.348301 C 34.736085,16.499647 36.264778,19.787128 35.054638,21.223889 C 31.300151,25.681289 25.968534,30.105351 20.951796,33.030786 C 19.496728,33.879279 16.819829,31.774212 15.639173,32.545808 C 14.411502,33.348135 12.775505,37.197493 13.726694,37.752622 z "
     style="font-size:12.000000;fill:url(#linearGradient1352);fill-rule:evenodd;stroke:#261933;stroke-width:1.6250000;"
     id="path1248" />
  <path
     d="M 14.316317,36.757411 C 14.275970,36.569072 15.172021,33.893644 16.065671,33.477415 C 16.945634,33.067532 19.599149,34.101825 19.637165,34.279141 C 19.672038,34.441958 17.221828,34.061137 16.284276,34.497811 C 15.448195,34.887251 14.348840,36.909206 14.316317,36.757411 z "
     style="font-size:12.000000;opacity:0.69993597;fill:url(#linearGradient1351);fill-rule:evenodd;stroke:none;stroke-width:0.099920303pt;"
     id="path1249" />
  <path
     d="M 19.637165,42.807107 C 19.567280,42.772166 20.901219,41.830071 21.167861,41.203588 C 21.387199,40.688212 21.027291,39.347524 21.094970,39.381396 C 21.173072,39.420413 21.831890,40.889644 21.605202,41.422258 C 21.345910,42.031572 19.713060,42.845057 19.637165,42.807107 z "
     style="font-size:12.000000;opacity:0.69993597;fill:url(#linearGradient1350);fill-rule:evenodd;stroke:none;stroke-width:0.099920303pt;"
     id="path632" />
  <path
     d="M 21.612016,33.836254 C 21.552289,33.725883 26.960604,30.339389 29.399456,28.309084 C 31.742371,26.358549 35.898655,21.785098 35.957448,21.893732 C 36.017778,22.005105 32.137421,26.987035 29.756626,28.969037 C 27.355587,30.967876 21.671345,33.945890 21.612016,33.836254 z "
     style="font-size:12.000000;opacity:0.69999999;fill:url(#linearGradient586);fill-rule:evenodd;stroke:none;stroke-width:0.099920303pt;"
     id="path633" />
  <path
     d="M 36.401605,18.826793 C 36.252083,18.677271 36.010362,16.623246 36.547319,16.057028 C 37.346640,15.214079 40.271343,14.460149 40.410439,14.599228 C 40.538583,14.727391 38.198073,15.963493 37.349113,16.858754 C 36.861796,17.372661 36.519325,18.944514 36.401605,18.826793 z "
     style="font-size:12.000000;opacity:0.69999999;fill:url(#linearGradient587);fill-rule:evenodd;stroke:none;stroke-width:0.099920303pt;"
     id="path634" />
  <path
     d="M 41.430901,22.106792 C 41.419545,21.993280 42.566950,22.309627 43.034420,22.106792 C 43.854658,21.750825 45.282663,20.317605 45.293956,20.430314 C 45.306984,20.560527 43.931488,22.477924 43.107314,22.835627 C 42.643848,23.036793 41.443867,22.236203 41.430901,22.106792 z "
     style="font-size:12.000000;opacity:0.69993597;fill:url(#linearGradient1349);fill-rule:evenodd;stroke:none;stroke-width:0.099920303pt;"
     id="path635" />
</svg>
