<?xml version="1.0" encoding="UTF-8" standalone="no"?>
<!DOCTYPE svg PUBLIC "-//W3C//DTD SVG 20010904//EN"
"http://www.w3.org/TR/2001/REC-SVG-20010904/DTD/svg10.dtd">
<!-- Created with Inkscape (http://www.inkscape.org/) -->
<svg
   id="svg8867"
   sodipodi:version="0.32"
   inkscape:version="0.39"
   width="48.000000pt"
   height="48.000000pt"
   sodipodi:docbase="/home/stefan/new-lila-icons/makzu"
   sodipodi:docname="gnome-gtetris.svg"
   xmlns="http://www.w3.org/2000/svg"
   xmlns:cc="http://web.resource.org/cc/"
   xmlns:inkscape="http://www.inkscape.org/namespaces/inkscape"
   xmlns:sodipodi="http://sodipodi.sourceforge.net/DTD/sodipodi-0.dtd"
   xmlns:rdf="http://www.w3.org/1999/02/22-rdf-syntax-ns#"
   xmlns:dc="http://purl.org/dc/elements/1.1/"
   xmlns:xlink="http://www.w3.org/1999/xlink">
  <defs
     id="defs8869">
    <linearGradient
       id="linearGradient570">
      <stop
         style="stop-color:#ffffff;stop-opacity:1;"
         offset="0"
         id="stop571" />
      <stop
         style="stop-color:#ffffff;stop-opacity:0;"
         offset="1"
         id="stop572" />
    </linearGradient>
    <linearGradient
       id="linearGradient563">
      <stop
         style="stop-color:#d9cce6;stop-opacity:1;"
         offset="0.00000000"
         id="stop564" />
      <stop
         style="stop-color:#73667f;stop-opacity:1;"
         offset="1.00000000"
         id="stop565" />
    </linearGradient>
    <linearGradient
       id="linearGradient566"
       xlink:href="#linearGradient570"
       x1="0.012987013"
       y1="0.015625000"
       x2="0.96753246"
       y2="0.98437500" />
    <linearGradient
       inkscape:collect="always"
       xlink:href="#linearGradient563"
       id="linearGradient10783"
       x1="0.045454547"
       y1="0.039062500"
       x2="1.0000000"
       y2="0.96875000" />
    <linearGradient
       inkscape:collect="always"
       xlink:href="#linearGradient563"
       id="linearGradient10784"
       x1="0.0058823531"
       y1="1.7377592e-15"
       x2="0.98823529"
       y2="1.0078125" />
    <linearGradient
       id="linearGradient575"
       xlink:href="#linearGradient570"
       x1="-3.5824208e-15"
       y1="0.0078125000"
       x2="0.99350649"
       y2="0.98437500" />
    <linearGradient
       id="linearGradient573"
       xlink:href="#linearGradient570"
       x1="0.0064935065"
       y1="0.015625000"
       x2="1.0000000"
       y2="1.0078125" />
    <linearGradient
       id="linearGradient569"
       xlink:href="#linearGradient570"
       x1="0.0064935065"
       y1="0.023437500"
       x2="0.98701298"
       y2="0.99218750" />
    <linearGradient
       inkscape:collect="always"
       xlink:href="#linearGradient570"
       id="linearGradient12659"
       x1="0.0064935065"
       y1="0.023437500"
       x2="0.98051947"
       y2="1.0000000" />
    <linearGradient
       inkscape:collect="always"
       xlink:href="#linearGradient570"
       id="linearGradient2198"
       x1="0.0064935065"
       y1="0.023437500"
       x2="0.97402596"
       y2="0.98437500" />
    <linearGradient
       inkscape:collect="always"
       xlink:href="#linearGradient570"
       id="linearGradient2199"
       x1="-0.019480519"
       y1="0.046875000"
       x2="0.97402596"
       y2="1.0000000" />
    <linearGradient
       inkscape:collect="always"
       xlink:href="#linearGradient570"
       id="linearGradient2200"
       x1="2.5530251e-16"
       y1="0.023437500"
       x2="0.94805193"
       y2="0.99218750" />
  </defs>
  <sodipodi:namedview
     id="base"
     pagecolor="#ffffff"
     bordercolor="#666666"
     borderopacity="1.0"
     inkscape:pageopacity="0.0"
     inkscape:pageshadow="2"
     inkscape:zoom="7.5625000"
     inkscape:cx="24.000000"
     inkscape:cy="24.000000"
     inkscape:window-width="764"
     inkscape:window-height="529"
     showgrid="false"
     inkscape:grid-bbox="false"
     gridspacingy="9.0000000pt"
     gridspacingx="9.0000000pt"
     gridoriginy="0.0000000pt"
     gridoriginx="0.0000000pt"
     inkscape:window-x="82"
     inkscape:window-y="51" />
  <metadata
     id="metadata8870">
    <rdf:RDF
       id="RDF8871">
      <cc:Work
         rdf:about=""
         id="Work8872">
        <dc:format
           id="format8873">image/svg+xml</dc:format>
        <dc:type
           id="type8875"
           rdf:resource="http://purl.org/dc/dcmitype/StillImage" />
      </cc:Work>
    </rdf:RDF>
  </metadata>
  <path
     style="opacity:0.29999998;fill:#000000;fill-opacity:1.0000000;fill-rule:evenodd;stroke:none;stroke-width:2.0110865;stroke-linecap:butt;stroke-linejoin:miter;stroke-miterlimit:4.0000000;stroke-opacity:1.0000000;"
     d="M 39.555527,5.2264979 C 38.429365,5.1284849 37.634517,5.1141449 37.430527,5.2889979 C 36.547098,6.0462419 32.702253,28.322669 33.118027,28.788998 C 33.582714,29.310185 44.223805,30.600022 44.618027,31.163998 C 44.954688,31.645624 42.130054,42.100024 42.524277,42.663998 C 42.968669,43.299745 54.148611,45.273636 54.868027,44.757748 C 55.660793,44.189260 59.596693,22.276806 59.024277,21.601498 C 58.393497,20.857339 47.695473,19.649421 47.274277,18.882748 C 46.900791,18.202920 49.595799,8.1574749 49.305527,7.4139979 C 49.056142,6.7752439 42.934013,5.5205369 39.555527,5.2264979 z M 24.618027,30.820248 C 23.496527,30.693675 22.660672,30.702005 22.461777,30.882748 C 21.721532,31.555433 20.989471,41.899801 20.149277,42.320248 C 19.376756,42.706830 9.9621769,40.132482 8.9930269,40.726498 C 7.9673329,41.355170 6.0481139,51.957138 6.8992769,52.632748 C 7.6830479,53.254866 41.464436,59.532527 42.149277,58.945248 C 42.889309,58.310642 44.885163,47.944180 44.274277,47.070248 C 43.623039,46.138584 33.417430,45.143123 32.868027,44.476498 C 32.270497,43.751475 34.822212,33.720006 34.368027,33.070248 C 34.055386,32.622984 27.982525,31.199967 24.618027,30.820248 z "
     id="path954"
     transform="matrix(1.019300,0.000000,0.000000,1.019300,-0.310470,-8.844919e-2)" />
  <path
     style="fill:url(#linearGradient10784);fill-opacity:1.00000000;fill-rule:evenodd;stroke:#261933;stroke-width:1.8394977;stroke-linecap:round;stroke-linejoin:round;stroke-miterlimit:4.0000000;stroke-opacity:1.0000000;stroke-dasharray:none;"
     d="M 3.7124422,36.643496 C 4.6815931,36.049480 14.079546,38.610727 14.852067,38.224145 C 15.692262,37.803698 16.434910,27.446803 17.175155,26.774118 C 17.970737,26.051145 28.670550,28.386326 29.087404,28.982678 C 29.541589,29.632436 26.962272,39.652195 27.559802,40.377218 C 28.109205,41.043843 38.312036,42.026556 38.963274,42.958220 C 39.574160,43.832152 37.598399,54.205121 36.858367,54.839727 C 36.173526,55.427005 2.3913054,49.147122 1.6075344,48.525004 C 0.75637193,47.849394 2.6867478,37.272168 3.7124422,36.643496 z "
     id="path10143"
     sodipodi:nodetypes="czzzzzzzz"
     transform="matrix(1.019300,0.000000,0.000000,1.019300,-0.310470,-8.844919e-2)" />
  <path
     style="fill:url(#linearGradient10783);fill-opacity:1.00000000;fill-rule:evenodd;stroke:#261933;stroke-width:1.8394977;stroke-linecap:round;stroke-linejoin:round;stroke-miterlimit:4.0000000;stroke-opacity:1.0000000;stroke-dasharray:none;"
     d="M 49.568500,40.666844 C 48.849083,41.182732 37.658952,39.197682 37.214560,38.561935 C 36.820337,37.997961 39.656128,27.555746 39.319467,27.074120 C 38.925245,26.510144 28.290541,25.205353 27.825854,24.684166 C 27.410080,24.217837 31.236778,1.9634408 32.120207,1.2061961 C 32.936168,0.50678279 43.669201,2.4594318 44.001714,3.3111038 C 44.291985,4.0545811 41.598080,14.090798 41.971566,14.770626 C 42.392762,15.537299 53.110156,16.764354 53.740936,17.508513 C 54.313353,18.183821 50.361266,40.098356 49.568500,40.666844 z "
     id="path10145"
     sodipodi:nodetypes="czzzzzzzz"
     transform="matrix(1.019300,0.000000,0.000000,1.019300,-0.310470,-8.844919e-2)" />
  <path
     style="fill:url(#linearGradient2200);fill-opacity:1.0000000;fill-rule:evenodd;stroke:none;stroke-width:1.0000000pt;stroke-linecap:butt;stroke-linejoin:miter;stroke-opacity:1.0000000;"
     d="M 2.7903618,47.476367 C 2.6021680,47.188974 3.7766161,39.189725 4.6837425,38.307256 C 5.1194323,37.883409 13.588162,39.585861 13.776356,39.873255 C 13.964549,40.160648 7.4215978,38.500877 5.5905998,39.768062 C 4.1480807,41.373067 2.9785557,47.763761 2.7903618,47.476367 z "
     id="path11406"
     sodipodi:nodetypes="csccc"
     transform="matrix(1.019300,0.000000,0.000000,1.019300,-0.310470,-8.844919e-2)" />
  <path
     style="fill:url(#linearGradient2199);fill-opacity:1.0000000;fill-rule:evenodd;stroke:none;stroke-width:1.0000000pt;stroke-linecap:butt;stroke-linejoin:miter;stroke-opacity:1.0000000;"
     d="M 16.888041,37.727009 C 16.699847,37.439616 17.874295,29.440366 18.781421,28.557897 C 19.217110,28.134049 27.685840,29.836502 27.874033,30.123895 C 28.062227,30.411289 21.519276,28.751518 19.688279,30.018704 C 18.245759,31.623708 17.076234,38.014401 16.888041,37.727009 z "
     id="path13281"
     sodipodi:nodetypes="csccc"
     transform="matrix(1.019300,0.000000,0.000000,1.019300,-0.310470,-8.844919e-2)" />
  <path
     style="fill:url(#linearGradient2198);fill-opacity:1.0000000;fill-rule:evenodd;stroke:none;stroke-width:1.0000000pt;stroke-linecap:butt;stroke-linejoin:miter;stroke-opacity:1.0000000;"
     d="M 14.762099,49.537788 C 14.573906,49.250395 15.748354,41.251146 16.655480,40.368677 C 17.091170,39.944829 25.559899,41.647282 25.748092,41.934675 C 25.936287,42.222068 19.393336,40.562298 17.562337,41.829483 C 16.119818,43.434488 14.950292,49.825181 14.762099,49.537788 z "
     id="path13282"
     sodipodi:nodetypes="csccc"
     transform="matrix(1.019300,0.000000,0.000000,1.019300,-0.310470,-8.844919e-2)" />
  <path
     style="fill:url(#linearGradient12659);fill-opacity:1.0000000;fill-rule:evenodd;stroke:none;stroke-width:1.0000000pt;stroke-linecap:butt;stroke-linejoin:miter;stroke-opacity:1.0000000;"
     d="M 26.415402,51.821205 C 26.227209,51.533811 27.401657,43.534562 28.308784,42.652093 C 28.744473,42.228246 37.213202,43.930698 37.401395,44.218091 C 37.589590,44.505485 31.046640,42.845714 29.215640,44.112899 C 27.773121,45.717904 26.603597,52.108597 26.415402,51.821205 z "
     id="path13283"
     sodipodi:nodetypes="csccc"
     transform="matrix(1.019300,0.000000,0.000000,1.019300,-0.310470,-8.844919e-2)" />
  <path
     style="fill:url(#linearGradient566);fill-opacity:1.0000000;fill-rule:evenodd;stroke:none;stroke-width:1.0000000pt;stroke-linecap:butt;stroke-linejoin:miter;stroke-opacity:1.0000000;"
     d="M 31.486390,12.114974 C 31.298196,11.827581 32.472644,3.8283308 33.379771,2.9458623 C 33.815461,2.5220143 42.284189,4.2244668 42.472383,4.5118599 C 42.660577,4.7992540 36.117627,3.1394832 34.286627,4.4066685 C 32.844109,6.0116725 31.674585,12.402366 31.486390,12.114974 z "
     id="path13284"
     sodipodi:nodetypes="csccc"
     transform="matrix(1.019300,0.000000,0.000000,1.019300,-0.310470,-8.844919e-2)" />
  <path
     style="fill:url(#linearGradient575);fill-opacity:1.0000000;fill-rule:evenodd;stroke:none;stroke-width:1.0000000pt;stroke-linecap:butt;stroke-linejoin:miter;stroke-opacity:1.0000000;"
     d="M 29.596666,23.768276 C 29.408472,23.480883 30.582921,15.481634 31.490047,14.599166 C 31.925736,14.175318 40.394465,15.877770 40.582659,16.165163 C 40.770853,16.452558 34.227902,14.792786 32.396904,16.059972 C 30.954385,17.664975 29.784860,24.055668 29.596666,23.768276 z "
     id="path13285"
     sodipodi:nodetypes="csccc"
     transform="matrix(1.019300,0.000000,0.000000,1.019300,-0.310470,-8.844919e-2)" />
  <path
     style="fill:url(#linearGradient573);fill-opacity:1.0000000;fill-rule:evenodd;stroke:none;stroke-width:1.0000000pt;stroke-linecap:butt;stroke-linejoin:miter;stroke-opacity:1.0000000;"
     d="M 41.171229,26.366650 C 40.983036,26.079256 42.157483,18.080007 43.064610,17.197538 C 43.500300,16.773690 51.969029,18.476143 52.157224,18.763536 C 52.345417,19.050929 45.802466,17.391159 43.971467,18.658343 C 42.528948,20.263348 41.359424,26.654042 41.171229,26.366650 z "
     id="path13286"
     sodipodi:nodetypes="csccc"
     transform="matrix(1.019300,0.000000,0.000000,1.019300,-0.310470,-8.844919e-2)" />
  <path
     style="fill:url(#linearGradient569);fill-opacity:1.0000000;fill-rule:evenodd;stroke:none;stroke-width:1.0000000pt;stroke-linecap:butt;stroke-linejoin:miter;stroke-opacity:1.0000000;"
     d="M 39.360244,37.390043 C 39.172050,37.102650 40.346498,29.103400 41.253626,28.220931 C 41.689315,27.797083 50.158044,29.499536 50.346237,29.786929 C 50.534431,30.074323 43.991481,28.414552 42.160481,29.681737 C 40.717963,31.286741 39.548438,37.677435 39.360244,37.390043 z "
     id="path13287"
     sodipodi:nodetypes="csccc"
     transform="matrix(1.019300,0.000000,0.000000,1.019300,-0.310470,-8.844919e-2)" />
</svg>
