<?xml version="1.0" encoding="UTF-8" standalone="no"?>
<!DOCTYPE svg PUBLIC "-//W3C//DTD SVG 20010904//EN"
"http://www.w3.org/TR/2001/REC-SVG-20010904/DTD/svg10.dtd">
<!-- Created with Inkscape (http://www.inkscape.org/) -->
<svg
   version="1.0"
   x="0"
   y="0"
   width="48pt"
   height="48pt"
   id="svg1"
   xmlns="http://www.w3.org/2000/svg"
   xmlns:xlink="http://www.w3.org/1999/xlink"
   xmlns:sodipodi="http://sodipodi.sourceforge.net/DTD/sodipodi-0.dtd"
   xmlns:inkscape="http://www.inkscape.org/namespaces/inkscape"
   sodipodi:version="0.32"
   inkscape:version="0.37"
   sodipodi:docname="gnome-server-config.svg"
   sodipodi:docbase="/home/dan/Projects/Lila-icons/scalable/apps">
  <sodipodi:namedview
     id="base"
     pagecolor="#ffffff"
     bordercolor="#666666"
     borderopacity="1.0"
     inkscape:pageopacity="0.0"
     inkscape:pageshadow="2"
     inkscape:zoom="6.94653375"
     inkscape:cx="29.2554848"
     inkscape:cy="23.6502986"
     inkscape:window-width="640"
     inkscape:window-height="500"
     inkscape:window-x="36"
     inkscape:window-y="167" />
  <defs
     id="defs3">
    <linearGradient
       id="linearGradient570">
      <stop
         style="stop-color:#ffffff;stop-opacity:1;"
         offset="0"
         id="stop571" />
      <stop
         style="stop-color:#ffffff;stop-opacity:0;"
         offset="1"
         id="stop572" />
    </linearGradient>
    <linearGradient
       id="linearGradient563">
      <stop
         style="stop-color:#d9cce6;stop-opacity:1;"
         offset="0.00000000"
         id="stop564" />
      <stop
         style="stop-color:#73667f;stop-opacity:1;"
         offset="1.00000000"
         id="stop565" />
    </linearGradient>
    <linearGradient
       x1="0.00000000"
       y1="0.01562500"
       x2="0.98275864"
       y2="0.99218750"
       id="linearGradient566"
       xlink:href="#linearGradient563" />
    <linearGradient
       x1="-0.000000"
       y1="0.027779"
       x2="0.992727"
       y2="0.972222"
       id="linearGradient569"
       xlink:href="#linearGradient570" />
    <linearGradient
       x1="0.027027"
       y1="0.015625"
       x2="0.864865"
       y2="0.984375"
       id="linearGradient573"
       xlink:href="#linearGradient570" />
    <linearGradient
       x1="-0.023529"
       y1="0.000000"
       x2="0.917647"
       y2="0.960938"
       id="linearGradient575"
       xlink:href="#linearGradient570" />
    <linearGradient
       id="linearGradient578"
       xlink:href="#linearGradient570" />
    <linearGradient
       xlink:href="#linearGradient570"
       id="linearGradient1192"
       x1="-0.00000000"
       y1="0.00000000"
       x2="0.94230771"
       y2="0.99218750" />
    <linearGradient
       xlink:href="#linearGradient570"
       id="linearGradient1193" />
  </defs>
  <path
     d="M 8.4370922 55.214287 C 9.3069287 56.493116 17.736861 60.50284 22.260994 59.628637 C 33.767886 57.405118 55.502197 47.454755 56.530266 45.920908 C 57.495622 44.596719 57.705063 7.9667742 56.994951 6.6564287 C 56.463825 5.4845822 41.537959 3.8193172 40.266905 3.9845318 C 38.633072 4.2182558 8.6246044 9.0847121 7.8562413 10.257591 C 7.0566393 11.552924 7.7767013 54.188991 8.4370922 55.214287 z "
     style="font-size:12;opacity:0.302675;fill-rule:evenodd;stroke-width:12.5;"
     id="path716" />
  <path
     d="M 7.1798002 52.657523 C 8.0182784 53.890246 16.144334 57.755411 20.505361 56.912726 C 31.597403 54.769368 52.548156 45.177738 53.539147 43.699189 C 54.469701 42.42274 54.671589 7.1134289 53.987079 5.8502835 C 53.4751 4.7207344 39.087349 3.1155061 37.862119 3.2747643 C 36.28719 3.5000621 7.3605518 8.1911019 6.6198605 9.3216147 C 5.8491892 10.570248 6.5432809 51.669189 7.1798002 52.657523 z "
     style="font-size:12;fill:url(#linearGradient566);fill-rule:evenodd;stroke:#261933;stroke-width:1.875;stroke-opacity:1;stroke-dasharray:none;"
     id="path616" />
  <path
     d="M 20.953288 55.00914 C 20.610157 54.704089 21.106839 15.749738 21.737159 14.584654 C 22.294604 13.459295 50.955154 7.7836558 51.299619 8.0898463 C 51.627053 8.3809064 25.233637 13.428502 23.752728 16.37626 C 21.84329 20.043944 21.282047 55.30136 20.953288 55.00914 z "
     style="font-size:12;opacity:0.990000;fill:url(#linearGradient575);fill-rule:evenodd;stroke:none;stroke-width:0.102641pt;"
     id="path618" />
  <path
     d="M 9.867301 10.105488 C 9.9427422 9.8789568 28.737199 5.7341754 38.198065 4.954429 C 42.324043 4.614368 50.701426 6.5250161 50.627735 6.7460961 C 50.552081 6.9729339 42.017349 5.9464888 37.750138 6.2981786 C 28.430506 7.0662853 9.7935013 10.326885 9.867301 10.105488 z "
     style="font-size:12;opacity:0.990000;fill:url(#linearGradient569);fill-rule:evenodd;stroke:none;stroke-width:0.102641pt;"
     id="path619" />
  <ellipse
     cx="410.204895"
     cy="422.408997"
     rx="11.720139"
     ry="11.720139"
     transform="matrix(0.149299,0.000000,0.000000,0.149299,-47.89606,-15.96460)"
     style="font-size:12;fill:#80ff80;fill-rule:evenodd;stroke:#003f00;stroke-width:6.25;stroke-linecap:round;stroke-linejoin:round;"
     id="path722" />
  <path
     d="M 9.6433377 16.37626 C 8.9588828 16.438461 9.0555105 18.789974 9.7553193 19.175701 C 11.967036 20.394978 16.193909 21.38988 18.377707 21.191372 C 19.068073 21.128657 19.070536 18.77386 18.377707 18.391931 C 16.159114 17.168857 11.833089 16.177238 9.6433377 16.37626 z "
     style="font-size:12;opacity:0.498153;fill:none;fill-rule:evenodd;stroke:#261933;stroke-width:1.875;stroke-opacity:1;stroke-dasharray:none;"
     id="path712" />
  <path
     d="M 9.4193744 23.319024 C 8.7349196 23.381225 8.8315052 25.732739 9.5313561 26.118466 C 11.743072 27.337743 15.969945 28.332645 18.153743 28.134137 C 18.844108 28.071422 18.846572 25.716624 18.153743 25.334696 C 15.93515 24.111622 11.609125 23.120004 9.4193744 23.319024 z "
     style="font-size:12;opacity:0.498153;fill:none;fill-rule:evenodd;stroke:#261933;stroke-width:1.875;stroke-dasharray:none;stroke-opacity:1;"
     id="path713" />
  <path
     d="M 9.3073913 29.925743 C 8.6229379 29.987944 8.7195237 32.339456 9.4193744 32.725183 C 11.63109 33.94446 15.857964 34.939362 18.041762 34.740855 C 18.732127 34.678141 18.734591 32.323343 18.041762 31.941414 C 15.823168 30.718339 11.497143 29.726721 9.3073913 29.925743 z "
     style="font-size:12;opacity:0.498153;fill:none;fill-rule:evenodd;stroke:#261933;stroke-width:1.875;stroke-dasharray:none;stroke-opacity:1;"
     id="path714" />
  <path
     d="M 9.083428 36.868507 C 8.3989747 36.930708 8.4955604 39.282222 9.1954097 39.66795 C 11.407126 40.887225 15.634001 41.882128 17.817799 41.68362 C 18.508164 41.620906 18.510628 39.266107 17.817799 38.88418 C 15.599206 37.661104 11.273179 36.669486 9.083428 36.868507 z "
     style="font-size:12;opacity:0.498153;fill:none;fill-rule:evenodd;stroke:#261933;stroke-width:1.875;stroke-dasharray:none;stroke-opacity:1;"
     id="path715" />
  <path
     d="M 8.4114978 51.649688 C 8.1572549 50.984776 7.3111813 11.89658 7.9636731 11.001341 C 8.3923035 10.259551 19.120831 14.22818 19.385543 14.920599 C 19.606016 15.49724 10.20571 12.066245 9.4193744 14.808618 C 8.0927955 19.546954 8.6425427 52.253834 8.4114978 51.649688 z "
     style="font-size:12;opacity:0.990000;fill:url(#linearGradient573);fill-rule:evenodd;stroke:none;stroke-width:0.102641pt;"
     id="path617" />
  <path
     d="M 25.48339 44.795941 C 27.115708 45.094465 27.280377 41.306432 30.797385 43.456306 C 34.766559 45.884502 30.837995 47.554015 31.699078 48.858628 C 32.320779 49.713755 35.946927 47.548194 36.503656 46.223086 C 37.069182 44.877269 34.408681 42.462018 35.065835 40.846061 C 37.244664 35.488875 41.057376 29.624046 45.011801 25.303875 C 46.299279 23.897423 49.816229 24.929325 50.791558 23.666049 C 51.737929 22.440107 51.807263 18.05329 50.776737 17.836342 C 49.183629 17.473404 48.707382 22.461074 45.326763 20.322899 C 41.923462 18.169868 45.732049 15.314391 45.058262 14.197951 C 44.481803 13.301955 40.495105 15.540707 39.776357 16.981804 C 39.067467 18.403114 41.494518 21.063486 40.775346 22.785171 C 38.544049 28.126561 34.808284 33.905736 30.924894 38.171045 C 29.798544 39.408159 26.635316 38.210006 25.746102 39.292588 C 24.821495 40.418279 24.416794 44.55297 25.48339 44.795941 z "
     style="font-size:12;opacity:0.302675;fill-rule:evenodd;stroke-width:12.5;"
     id="path636" />
  <path
     d="M 24.169292 43.994462 C 25.801605 44.29299 25.966255 40.504961 29.483262 42.654834 C 33.452436 45.083032 29.523873 46.752545 30.384956 48.057157 C 31.006657 48.912285 34.632806 46.746724 35.189534 45.421616 C 35.75506 44.075798 33.09456 41.660546 33.751712 40.044591 C 35.93054 34.687405 39.743252 28.822576 43.697681 24.502403 C 44.985151 23.095953 48.502102 24.127857 49.477438 22.864578 C 50.423802 21.638638 50.493137 17.251822 49.462618 17.034871 C 47.869503 16.671935 47.393256 21.659603 44.012637 19.52143 C 40.609339 17.368396 44.417929 14.512919 43.744145 13.396513 C 43.167691 12.500509 39.180999 14.739286 38.462237 16.180332 C 37.753345 17.601642 40.180395 20.262017 39.461224 21.9837 C 37.229927 27.325089 33.494162 33.104266 29.610772 37.369574 C 28.484421 38.606689 25.321193 37.408536 24.431999 38.49111 C 23.507398 39.6168 23.102696 43.751491 24.169292 43.994462 z "
     style="font-size:12;fill:url(#linearGradient566);fill-rule:evenodd;stroke:#261933;stroke-width:1.5;stroke-dasharray:none;"
     id="path630" />
  <path
     d="M 24.431851 42.875884 C 24.337564 42.709414 24.390446 39.907402 25.113426 39.247002 C 25.825322 38.596693 28.647712 38.787099 28.736509 38.943816 C 28.818014 39.087728 26.382767 39.45607 25.624269 40.148907 C 24.947872 40.766786 24.507848 43.010049 24.431851 42.875884 z "
     style="font-size:12;opacity:0.699936;fill:url(#linearGradient578);fill-rule:evenodd;stroke:none;stroke-width:0.0663609pt;"
     id="path631" />
  <path
     d="M 31.274565 47.02523 C 31.197941 47.012916 32.181649 45.723151 32.247878 45.050117 C 32.302347 44.496449 31.562275 43.333078 31.63649 43.345034 C 31.722115 43.358764 32.783701 44.554986 32.727398 45.127177 C 32.663025 45.781754 31.357783 47.038605 31.274565 47.02523 z "
     style="font-size:12;opacity:0.699936;fill-rule:evenodd;stroke:none;stroke-width:0.0663609pt;fill:url(#linearGradient1192);"
     id="path632" />
  <path
     d="M 30.476141 37.936373 C 30.386694 37.849557 34.503937 33.030792 36.210832 30.38096 C 37.850553 27.835275 40.428071 22.264329 40.516117 22.349777 C 40.606433 22.437363 38.411965 28.313278 36.745712 30.900057 C 35.065287 33.508816 30.564992 38.022611 30.476141 37.936373 z "
     style="font-size:12;opacity:0.7;fill:url(#linearGradient575);fill-rule:evenodd;stroke:none;stroke-width:0.0663609pt;"
     id="path633" />
  <path
     d="M 40.024248 19.311245 C 39.838055 19.214054 38.99768 17.339523 39.338006 16.643148 C 39.844597 15.606448 42.391772 14.021559 42.564976 14.111959 C 42.724552 14.195273 40.874483 16.06322 40.336421 17.164267 C 40.027568 17.796298 40.170838 19.387768 40.024248 19.311245 z "
     style="font-size:12;opacity:0.7;fill:url(#linearGradient573);fill-rule:evenodd;stroke:none;stroke-width:0.0663609pt;"
     id="path634" />
  <path
     d="M 45.766371 20.922696 C 45.721827 20.818507 46.9033 20.776805 47.285924 20.445463 C 47.95727 19.86402 48.883952 18.080852 48.928196 18.184298 C 48.979296 18.303815 48.246472 20.53018 47.571914 21.114441 C 47.192587 21.443007 45.817172 21.041472 45.766371 20.922696 z "
     style="font-size:12;opacity:0.699936;fill:url(#linearGradient1193);fill-rule:evenodd;stroke:none;stroke-width:0.0663609pt;"
     id="path635" />
</svg>
