<?xml version="1.0" encoding="UTF-8" standalone="no"?>
<!DOCTYPE svg PUBLIC "-//W3C//DTD SVG 20010904//EN"
"http://www.w3.org/TR/2001/REC-SVG-20010904/DTD/svg10.dtd">
<!-- Created with Inkscape (http://www.inkscape.org/) -->
<svg
   id="svg1"
   sodipodi:version="0.32"
   inkscape:version="0.39"
   width="48pt"
   height="48pt"
   sodipodi:docbase="/home/scaba/files/lila/work/lila-gnome/Lila/scalable/apps"
   sodipodi:docname="gnome-mailcheck.svg"
   xmlns="http://www.w3.org/2000/svg"
   xmlns:inkscape="http://www.inkscape.org/namespaces/inkscape"
   xmlns:sodipodi="http://sodipodi.sourceforge.net/DTD/sodipodi-0.dtd"
   xmlns:xlink="http://www.w3.org/1999/xlink"
   xmlns:rdf="http://www.w3.org/1999/02/22-rdf-syntax-ns#"
   xmlns:cc="http://web.resource.org/cc/"
   xmlns:dc="http://purl.org/dc/elements/1.1/">
  <defs
     id="defs3">
    <linearGradient
       id="linearGradient599">
      <stop
         style="stop-color:#ffffff;stop-opacity:1;"
         offset="0.00000000"
         id="stop600" />
      <stop
         style="stop-color:#d9cce6;stop-opacity:1;"
         offset="1.00000000"
         id="stop601" />
    </linearGradient>
    <linearGradient
       id="linearGradient584">
      <stop
         style="stop-color:#ffffff;stop-opacity:1;"
         offset="0.00000000"
         id="stop585" />
      <stop
         style="stop-color:#ffffff;stop-opacity:0;"
         offset="1.00000000"
         id="stop586" />
    </linearGradient>
    <linearGradient
       id="linearGradient578">
      <stop
         style="stop-color:#d9cce6;stop-opacity:1;"
         offset="0.00000000"
         id="stop579" />
      <stop
         style="stop-color:#73667f;stop-opacity:1;"
         offset="1.00000000"
         id="stop580" />
    </linearGradient>
    <linearGradient
       xlink:href="#linearGradient599"
       id="linearGradient581"
       x1="0.00000000"
       y1="-0.00000000"
       x2="0.98888886"
       y2="0.98437500" />
    <linearGradient
       xlink:href="#linearGradient599"
       id="linearGradient583"
       x1="-0.00000000"
       y1="0.00000000"
       x2="0.97500002"
       y2="0.98437500" />
    <linearGradient
       xlink:href="#linearGradient599"
       id="linearGradient860"
       x1="0.00000000"
       y1="0.00000000"
       x2="0.98905110"
       y2="0.97457629" />
    <linearGradient
       xlink:href="#linearGradient584"
       id="linearGradient861"
       x1="-0.00000000"
       y1="0.00000000"
       x2="1.00000000"
       y2="0.00000000" />
    <linearGradient
       xlink:href="#linearGradient584"
       id="linearGradient862"
       x1="-0.08500000"
       y1="-0.13281250"
       x2="0.99500000"
       y2="0.96875000" />
    <radialGradient
       xlink:href="#linearGradient599"
       id="radialGradient595" />
    <radialGradient
       xlink:href="#linearGradient578"
       id="radialGradient670"
       cx="0.50781250"
       cy="0.50781250"
       r="0.24218750"
       fx="0.48437500"
       fy="0.50781250" />
    <linearGradient
       xlink:href="#linearGradient584"
       id="linearGradient733"
       x1="-0.00000000"
       y1="-0.00000000"
       x2="1.00000000"
       y2="-0.00000000" />
  </defs>
  <sodipodi:namedview
     id="base"
     pagecolor="#ffffff"
     bordercolor="#666666"
     borderopacity="1.0"
     inkscape:pageopacity="0.0"
     inkscape:pageshadow="2"
     inkscape:zoom="7.1798535"
     inkscape:cx="30.123555"
     inkscape:cy="22.282826"
     inkscape:window-width="1022"
     inkscape:window-height="695"
     inkscape:window-x="0"
     inkscape:window-y="26" />
  <metadata
     id="metadata967">
    <rdf:RDF
       id="RDF968">
      <cc:Work
         rdf:about=""
         id="Work969">
        <dc:format
           id="format970">image/svg+xml</dc:format>
        <dc:type
           id="type972"
           rdf:resource="http://purl.org/dc/dcmitype/StillImage" />
      </cc:Work>
    </rdf:RDF>
  </metadata>
  <path
     style="font-size:12.000000;opacity:0.29796097;fill:#000000;fill-opacity:1.0000000;fill-rule:evenodd;stroke:none;stroke-width:1.3462700;"
     d="M 7.4980666,46.317789 C 9.5751339,48.309617 54.511548,48.463278 56.742339,46.025077 C 59.056567,43.740370 60.087533,13.434277 57.277065,11.298736 C 54.428515,8.9363817 10.771850,9.4908370 7.7969557,11.351548 C 4.9265802,13.012150 5.3826555,44.495780 7.4980666,46.317789 z "
     id="path718"
     sodipodi:nodetypes="cssss" />
  <path
     style="font-size:12.000000;fill:url(#linearGradient581);fill-rule:evenodd;stroke:#261933;stroke-width:2.2208865;"
     d="M 6.2405888,43.268055 C 8.2390896,45.184539 51.475763,45.332388 53.622179,42.986413 C 55.848865,40.788125 56.840832,11.628376 54.136674,9.5736120 C 51.395875,7.3006147 9.3905409,7.8340967 6.5281722,9.6244270 C 3.7663699,11.222214 4.2051934,41.514962 6.2405888,43.268055 z "
     id="path1073"
     sodipodi:nodetypes="cssss" />
  <path
     style="font-size:12.000000;fill:url(#linearGradient860);fill-rule:evenodd;stroke:#261933;stroke-width:2.2208865;"
     d="M 6.0117208,43.266097 C 4.2294928,41.616088 22.933576,24.263530 31.122690,24.254410 C 38.726786,24.245940 55.503328,41.273759 53.391359,43.213327 C 51.500667,45.162662 6.7679234,45.036611 6.0117208,43.266097 z "
     id="path1074"
     sodipodi:nodetypes="csss" />
  <path
     style="font-size:12.000000;fill:url(#linearGradient583);fill-rule:evenodd;stroke:#261933;stroke-width:2.2208865;"
     d="M 6.2973478,9.8513400 C 4.6260752,11.912760 22.232031,33.448255 30.128962,33.401312 C 38.025894,33.354372 55.481121,11.559829 53.678942,9.5697000 C 52.028918,7.4845977 7.9024085,7.2500207 6.2973478,9.8513400 z "
     id="path1075"
     sodipodi:nodetypes="csss" />
  <path
     style="font-size:12.000000;fill:url(#linearGradient862);fill-rule:evenodd;stroke-width:1.0000000pt;"
     d="M 8.1047934,39.392944 C 7.4636068,38.781450 6.9453550,13.892406 8.7992449,11.703805 C 10.508172,9.9584970 51.424284,11.471727 52.055340,12.073556 C 52.635137,12.626501 15.924698,12.299512 12.431794,15.168130 C 9.0646739,17.967210 8.6744569,39.936226 8.1047934,39.392944 z "
     id="path1076"
     sodipodi:nodetypes="cssss" />
  <g
     transform="matrix(0.664500,0.000000,0.000000,0.657257,9.517704,16.66237)"
     style="font-size:12.000000;opacity:0.29999998;stroke:#000000;"
     id="g677">
    <ellipse
       cx="47.595680"
       cy="41.555550"
       rx="28.881311"
       ry="28.881311"
       transform="matrix(0.917566,0.000000,0.000000,0.917566,-11.48724,-5.833475)"
       style="fill-rule:evenodd;stroke-width:2.0541799;"
       id="path675"
       d="M 76.476992 41.555550 A 28.881311 28.881311 0 1 0 18.714369,41.555550 A 28.881311 28.881311 0 1 0 76.476992 41.555550 z"
       sodipodi:cx="47.595680"
       sodipodi:cy="41.555550"
       sodipodi:rx="28.881311"
       sodipodi:ry="28.881311" />
    <ellipse
       cx="42.107330"
       cy="34.267742"
       rx="21.773449"
       ry="21.773449"
       transform="matrix(0.934849,0.000000,0.000000,0.934849,-7.035911,0.205833)"
       style="fill-rule:evenodd;stroke-width:1.0000000pt;"
       id="path676"
       d="M 63.880779 34.267742 A 21.773449 21.773449 0 1 0 20.333881,34.267742 A 21.773449 21.773449 0 1 0 63.880779 34.267742 z"
       sodipodi:cx="42.107330"
       sodipodi:cy="34.267742"
       sodipodi:rx="21.773449"
       sodipodi:ry="21.773449" />
  </g>
  <ellipse
     cx="47.595680"
     cy="41.555550"
     rx="28.881311"
     ry="28.881311"
     transform="matrix(0.609722,0.000000,0.000000,0.603076,1.204774,11.70788)"
     style="font-size:12.000000;fill:url(#radialGradient670);fill-opacity:1.00000000;fill-rule:evenodd;stroke:#261933;stroke-width:2.0434501;"
     id="path594"
     d="M 76.476992 41.555550 A 28.881311 28.881311 0 1 0 18.714369,41.555550 A 28.881311 28.881311 0 1 0 76.476992 41.555550 z"
     sodipodi:cx="47.595680"
     sodipodi:cy="41.555550"
     sodipodi:rx="28.881311"
     sodipodi:ry="28.881311" />
  <ellipse
     cx="42.107330"
     cy="34.267742"
     rx="21.773449"
     ry="21.773449"
     transform="matrix(0.621207,0.000000,0.000000,0.614436,4.162684,15.67726)"
     style="font-size:12.000000;fill:url(#radialGradient595);fill-opacity:1.00000000;fill-rule:evenodd;stroke:none;stroke-width:1.0000000pt;stroke-opacity:1.0000000;"
     id="path623"
     d="M 63.880779 34.267742 A 21.773449 21.773449 0 1 0 20.333881,34.267742 A 21.773449 21.773449 0 1 0 63.880779 34.267742 z"
     sodipodi:cx="42.107330"
     sodipodi:cy="34.267742"
     sodipodi:rx="21.773449"
     sodipodi:ry="21.773449" />
  <path
     d="M 29.782804,37.759419 C 29.421114,37.577203 28.818894,36.663287 29.095204,36.287511 L 33.459664,30.352044 L 31.172164,37.333882 C 31.039774,37.737957 30.113434,37.925993 29.782804,37.759419 z "
     style="font-size:12.000000;fill:url(#linearGradient578);fill-opacity:1.00000000;fill-rule:evenodd;stroke:#261933;stroke-width:1.0741000;"
     id="path666" />
  <path
     d="M 31.245154,37.419000 C 31.012024,37.747649 29.863724,38.105852 29.400654,37.695336 L 22.086344,31.211149 L 30.739404,35.808084 C 31.240204,36.074132 31.458274,37.118565 31.245154,37.419000 z "
     style="font-size:12.000000;fill:url(#linearGradient578);fill-opacity:1.00000000;fill-rule:evenodd;stroke:#261933;stroke-width:1.2391300;"
     id="path667" />
  <path
     d="M 44.263614,41.702995 C 43.394654,43.765770 41.860334,45.974145 40.215274,47.496966 C 38.670734,48.926744 36.862114,49.852979 34.817494,50.591129 C 37.087014,50.510236 39.665834,49.759563 41.258024,48.285674 C 42.855434,46.806964 44.140944,44.210682 44.263614,41.702995 z "
     style="font-size:12.000000;fill:url(#linearGradient733);fill-opacity:1.00000000;fill-rule:evenodd;stroke-width:1.0000000pt;"
     id="path668" />
  <path
     d="M 15.181437,38.021974 C 15.307298,33.515476 17.396419,28.212086 20.316554,25.398797 C 23.211184,22.610085 28.673714,21.415152 33.758494,21.888210 C 29.529574,23.294935 24.955764,24.884696 21.902404,27.826331 C 19.140996,30.486698 16.465217,34.274858 15.181437,38.021974 z "
     style="font-size:12.000000;fill:url(#linearGradient861);fill-opacity:1.00000000;fill-rule:evenodd;stroke-width:1.0000000pt;"
     id="path593" />
</svg>
