<?xml version="1.0" encoding="UTF-8" standalone="no"?>
<!DOCTYPE svg PUBLIC "-//W3C//DTD SVG 20010904//EN"
"http://www.w3.org/TR/2001/REC-SVG-20010904/DTD/svg10.dtd">
<!-- Created with Inkscape (http://www.inkscape.org/) -->
<svg
   id="svg1"
   sodipodi:version="0.32"
   inkscape:version="0.37"
   width="48pt"
   height="48pt"
   sodipodi:docbase="/home/tom"
   sodipodi:docname="favourites.svg"
   xmlns="http://www.w3.org/2000/svg"
   xmlns:inkscape="http://www.inkscape.org/namespaces/inkscape"
   xmlns:sodipodi="http://sodipodi.sourceforge.net/DTD/sodipodi-0.dtd"
   xmlns:xlink="http://www.w3.org/1999/xlink">
  <defs
     id="defs3">
    <linearGradient
       id="linearGradient866">
      <stop
         style="stop-color:#ffffff;stop-opacity:1;"
         offset="0.00000000"
         id="stop867" />
      <stop
         style="stop-color:#d9cce6;stop-opacity:1;"
         offset="1.00000000"
         id="stop868" />
    </linearGradient>
    <linearGradient
       id="linearGradient584">
      <stop
         style="stop-color:#ffffff;stop-opacity:1;"
         offset="0.00000000"
         id="stop585" />
      <stop
         style="stop-color:#ffffff;stop-opacity:0;"
         offset="1.00000000"
         id="stop586" />
    </linearGradient>
    <linearGradient
       id="linearGradient578">
      <stop
         style="stop-color:#d9cce6;stop-opacity:1;"
         offset="0.00000000"
         id="stop579" />
      <stop
         style="stop-color:#73667f;stop-opacity:1;"
         offset="1.00000000"
         id="stop580" />
    </linearGradient>
    <linearGradient
       xlink:href="#linearGradient584"
       id="linearGradient581"
       x1="-0.00684932"
       y1="0.00775194"
       x2="0.97945207"
       y2="1.00000000" />
    <linearGradient
       xlink:href="#linearGradient584"
       id="linearGradient583"
       x1="0.01094890"
       y1="0.01030928"
       x2="1.01459849"
       y2="0.96907216" />
    <linearGradient
       xlink:href="#linearGradient584"
       id="linearGradient860"
       x1="-0.02500000"
       y1="0.03100775"
       x2="0.97500002"
       y2="0.97674417" />
    <linearGradient
       xlink:href="#linearGradient578"
       id="linearGradient861"
       x1="0.00000000"
       y1="0.02325581"
       x2="0.98611110"
       y2="0.97674417" />
    <linearGradient
       xlink:href="#linearGradient578"
       id="linearGradient862"
       x1="-0.00000000"
       y1="0.00775194"
       x2="1.00000000"
       y2="0.99224806" />
    <linearGradient
       xlink:href="#linearGradient578"
       id="linearGradient869"
       x1="-0.00684932"
       y1="0.00775194"
       x2="0.97945207"
       y2="1.00000000" />
  </defs>
  <sodipodi:namedview
     id="base"
     pagecolor="#ffffff"
     bordercolor="#666666"
     borderopacity="1.0"
     inkscape:pageopacity="0.0"
     inkscape:pageshadow="2"
     inkscape:zoom="5.64233871"
     inkscape:cx="30.8991131"
     inkscape:cy="23.4072540"
     inkscape:window-width="640"
     inkscape:window-height="516"
     inkscape:window-x="204"
     inkscape:window-y="142" />
  <path
     d="M 25.869298 19.028548 C 39.171813 16.624629 49.040427 8.6889807 51.77969 10.922556 C 52.520984 11.560589 42.167651 17.37142 35.857161 19.462951 C 33.723828 20.169908 25.233098 19.142295 25.869298 19.028548 z "
     style="font-size:12;opacity:0.699936;fill:url(#linearGradient583);fill-rule:evenodd;stroke:none;stroke-width:1pt;"
     id="path568" />
  <path
     d="M 31.050487 17.486298 C 28.069178 11.324393 22.782783 7.5216311 15.8499 7.0890787 C 6.9399541 7.5603684 3.6280718 16.232499 4.706827 25.803349 C 8.8753543 43.695065 17.544285 49.566376 30.933153 59.144914 C 45.791873 49.468234 54.5037 43.948145 58.385824 26.070627 C 58.201654 16.552725 56.700279 7.7088651 45.978572 7.2905257 C 37.050969 7.3189088 33.282366 11.279201 31.050487 17.486298 z "
     style="font-size:12;fill-opacity:0.25;fill-rule:evenodd;stroke-width:1.875;stroke-opacity:0.25;"
     id="path623" />
  <path
     d="M 29.217728 14.24638 C 26.236419 8.0844737 20.950024 4.2817133 14.017141 3.8491609 C 5.1071949 4.3204506 1.7953125 12.99258 2.8740677 22.563431 C 7.0425967 40.455148 15.711527 46.326458 29.100395 55.904997 C 43.959113 46.228317 52.67094 40.708227 56.553065 22.830709 C 57.701803 13.312808 54.86752 4.4689473 44.145813 4.0506079 C 35.218209 4.078991 31.449606 8.0392829 29.217728 14.24638 z "
     style="font-size:12;fill:url(#linearGradient869);fill-rule:evenodd;stroke:#261933;stroke-width:1.91207;"
     id="path618" />
  <path
     d="M 15.170203 5.6886197 C 12.093394 5.8700745 7.8523427 7.3225132 6.0950104 12.031853 C 3.971661 17.394722 4.332031 22.439846 6.0118778 26.928912 C 6.0229099 22.159546 7.752531 16.318954 10.330414 12.390486 C 12.825101 10.005802 15.396604 8.4480711 23.513172 10.026764 C 19.987632 6.3643855 17.659307 6.0568238 15.170203 5.6886197 z "
     style="font-size:12;fill:url(#linearGradient583);fill-opacity:0.75;fill-rule:evenodd;stroke-width:1pt;"
     id="path619" />
  <path
     d="M 29.362149 15.088018 C 29.362149 27.408 29.172492 43.490337 29.172492 55.810319 C 37.770825 49.669052 41.020501 49.180005 48.08211 40.904271 C 51.375088 37.571511 55.203585 28.79015 56.411011 23.547605 C 55.825592 19.840376 56.535596 12.304759 51.340008 6.3507245 C 43.766158 3.9541325 36.211771 0.86427433 29.362149 15.088018 z "
     style="font-size:12;fill:#261e2e;fill-opacity:0.1;fill-rule:evenodd;stroke-width:1pt;"
     id="path622" />
  <path
     d="M 52.436595 29.976049 C 47.915567 40.155142 46.112321 40.627633 43.112051 44.128904 C 38.794591 47.948472 36.234102 49.846325 31.258046 52.767172 C 35.831627 48.947603 37.58268 47.162823 40.795307 44.130004 C 45.189711 39.059641 47.384316 38.075196 52.436595 29.976049 z "
     style="font-size:12;fill:url(#linearGradient612);fill-opacity:0.75;fill-rule:evenodd;stroke-width:1pt;"
     id="path620" />
  <path
     d="M 43.236566 5.8909051 C 40.159758 6.0723598 32.756297 8.3339424 31.196617 15.066141 C 36.781634 10.112428 38.487176 9.6435179 41.756836 8.547053 C 45.140948 7.9829437 46.921851 8.0434992 52.567787 9.9256203 C 49.042247 6.2632422 46.120972 5.753394 43.236566 5.8909051 z "
     style="font-size:12;fill:url(#linearGradient583);fill-opacity:0.75;fill-rule:evenodd;stroke-width:1pt;"
     id="path591" />
</svg>
