<?xml version="1.0" encoding="UTF-8" standalone="no"?>
<!DOCTYPE svg PUBLIC "-//W3C//DTD SVG 20010904//EN"
"http://www.w3.org/TR/2001/REC-SVG-20010904/DTD/svg10.dtd">
<!-- Created with Inkscape (http://www.inkscape.org/) -->
<svg
   version="1.0"
   x="0"
   y="0"
   width="48pt"
   height="48pt"
   id="svg611"
   sodipodi:version="0.32"
   inkscape:version="0.37"
   sodipodi:docname="gnome-graphics.svg"
   sodipodi:docbase="/usr/share/icons/Lila/scalable/apps"
   xmlns="http://www.w3.org/2000/svg"
   xmlns:inkscape="http://www.inkscape.org/namespaces/inkscape"
   xmlns:sodipodi="http://sodipodi.sourceforge.net/DTD/sodipodi-0.dtd"
   xmlns:xlink="http://www.w3.org/1999/xlink">
  <sodipodi:namedview
     id="base"
     pagecolor="#ffffff"
     bordercolor="#666666"
     borderopacity="1.0"
     inkscape:pageopacity="0.0"
     inkscape:pageshadow="2"
     inkscape:zoom="6.94653374"
     inkscape:cx="26.1150001"
     inkscape:cy="23.5915966"
     inkscape:window-width="640"
     inkscape:window-height="500"
     inkscape:window-x="19"
     inkscape:window-y="278" />
  <defs
     id="defs613">
    <linearGradient
       id="linearGradient1272">
      <stop
         style="stop-color:#0000ff;stop-opacity:1;"
         offset="0"
         id="stop1273" />
      <stop
         style="stop-color:#00008d;stop-opacity:1;"
         offset="1"
         id="stop1274" />
    </linearGradient>
    <linearGradient
       id="linearGradient1269">
      <stop
         style="stop-color:#00ff00;stop-opacity:1;"
         offset="0"
         id="stop1270" />
      <stop
         style="stop-color:#008700;stop-opacity:1;"
         offset="1"
         id="stop1271" />
    </linearGradient>
    <linearGradient
       id="linearGradient1256">
      <stop
         style="stop-color:#ffffff;stop-opacity:1;"
         offset="0"
         id="stop1258" />
      <stop
         style="stop-color:#ffffff;stop-opacity:0;"
         offset="1"
         id="stop1257" />
    </linearGradient>
    <linearGradient
       id="linearGradient1253">
      <stop
         style="stop-color:#c7b397;stop-opacity:1;"
         offset="0.00000000"
         id="stop1255" />
      <stop
         style="stop-color:#faebdc;stop-opacity:1;"
         offset="1.00000000"
         id="stop1254" />
    </linearGradient>
    <linearGradient
       id="linearGradient1048">
      <stop
         style="stop-color:#ffffff;stop-opacity:1;"
         offset="0"
         id="stop1049" />
      <stop
         style="stop-color:#7f7f7f;stop-opacity:1;"
         offset="1"
         id="stop1050" />
    </linearGradient>
    <linearGradient
       id="linearGradient1535">
      <stop
         style="stop-color:#ffffff;stop-opacity:1;"
         offset="0"
         id="stop1537" />
      <stop
         style="stop-color:#ffffff;stop-opacity:0;"
         offset="1"
         id="stop1536" />
    </linearGradient>
    <linearGradient
       id="linearGradient1528">
      <stop
         style="stop-color:#d9cce6;stop-opacity:1;"
         offset="0.00000000"
         id="stop1530" />
      <stop
         style="stop-color:#73667f;stop-opacity:1;"
         offset="1.00000000"
         id="stop1529" />
    </linearGradient>
    <linearGradient
       id="linearGradient642">
      <stop
         style="stop-color:#ffffff;stop-opacity:1;"
         offset="0"
         id="stop643" />
      <stop
         style="stop-color:#ffffff;stop-opacity:0;"
         offset="1"
         id="stop644" />
    </linearGradient>
    <linearGradient
       id="linearGradient635">
      <stop
         style="stop-color:#ff0000;stop-opacity:1;"
         offset="0"
         id="stop636" />
      <stop
         style="stop-color:#870000;stop-opacity:1;"
         offset="1"
         id="stop637" />
    </linearGradient>
    <linearGradient
       x1="0.30701753"
       y1="0.32031250"
       x2="0.56140351"
       y2="0.56250000"
       id="linearGradient638"
       xlink:href="#linearGradient1528" />
    <linearGradient
       x1="0.00793651"
       y1="0.01562500"
       x2="0.98412699"
       y2="0.98437500"
       id="linearGradient641"
       xlink:href="#linearGradient1048" />
    <linearGradient
       x1="-0.016529"
       y1="0.007812"
       x2="1.008265"
       y2="1.000000"
       id="linearGradient1522"
       xlink:href="#linearGradient642" />
    <linearGradient
       x1="0.98666668"
       y1="0.98437500"
       x2="0.02000000"
       y2="0.03125000"
       id="linearGradient1527"
       xlink:href="#linearGradient1253" />
    <linearGradient
       x1="0.018182"
       y1="0.020408"
       x2="0.981818"
       y2="0.969388"
       id="linearGradient1532"
       xlink:href="#linearGradient1256" />
    <linearGradient
       x1="0.02307700"
       y1="0.02343756"
       x2="0.99230766"
       y2="1.00781238"
       id="linearGradient1534"
       xlink:href="#linearGradient635" />
    <linearGradient
       x1="0.020099"
       y1="0.023282"
       x2="0.989950"
       y2="1.023435"
       id="linearGradient1539"
       xlink:href="#linearGradient1256"
       gradientTransform="translate(-3.303398e-8,-1.426085e-6)" />
    <linearGradient
       x1="0.006447"
       y1="0.039037"
       x2="0.980645"
       y2="0.984374"
       id="linearGradient1567"
       xlink:href="#linearGradient1256" />
    <linearGradient
       x1="0.00781253"
       y1="0.02343748"
       x2="1.00000000"
       y2="0.99218750"
       id="linearGradient1042"
       xlink:href="#linearGradient1269" />
    <linearGradient
       x1="0.00781262"
       y1="0.03124999"
       x2="0.97656244"
       y2="0.96875000"
       id="linearGradient1044"
       xlink:href="#linearGradient1272" />
    <defs
       id="defs1121">
      <linearGradient
         x1="0.000000"
         y1="0.000000"
         x2="1.000000"
         y2="0.000000"
         id="linearGradient1231"
         xlink:href="#linearGradient1256"
         gradientUnits="objectBoundingBox"
         spreadMethod="pad" />
      <linearGradient
         id="linearGradient1226">
        <stop
           style="stop-color:#e6e6e6;stop-opacity:1;"
           offset="0"
           id="stop1227" />
        <stop
           style="stop-color:#7f7f7f;stop-opacity:1;"
           offset="1"
           id="stop1228" />
      </linearGradient>
      <linearGradient
         id="linearGradient1223">
        <stop
           style="stop-color:#000000;stop-opacity:1;"
           offset="0"
           id="stop1225" />
        <stop
           style="stop-color:#000000;stop-opacity:0;"
           offset="1"
           id="stop1224" />
      </linearGradient>
      <linearGradient
         x1="0.000000"
         y1="0.000000"
         x2="1.000000"
         y2="0.000000"
         id="linearGradient1218"
         xlink:href="#linearGradient1253"
         gradientUnits="objectBoundingBox"
         spreadMethod="pad" />
      <linearGradient
         id="linearGradient1215">
        <stop
           style="stop-color:#7f7366;stop-opacity:1;"
           offset="0"
           id="stop1217" />
        <stop
           style="stop-color:#7f7366;stop-opacity:0;"
           offset="1"
           id="stop1216" />
      </linearGradient>
      <linearGradient
         id="linearGradient1137">
        <stop
           style="stop-color:#ffffff;stop-opacity:1;"
           offset="0"
           id="stop1138" />
        <stop
           style="stop-color:#ffffff;stop-opacity:0;"
           offset="1"
           id="stop1139" />
      </linearGradient>
      <linearGradient
         id="linearGradient1140">
        <stop
           style="stop-color:#e6cfff;stop-opacity:1;"
           offset="0"
           id="stop1141" />
        <stop
           style="stop-color:#ffffff;stop-opacity:1;"
           offset="1"
           id="stop1142" />
      </linearGradient>
      <linearGradient
         x1="0.008696"
         y1="0.000000"
         x2="0.965218"
         y2="0.968750"
         id="linearGradient1143"
         xlink:href="#linearGradient635" />
      <linearGradient
         x1="0.015504"
         y1="0.007812"
         x2="0.697674"
         y2="0.882812"
         id="linearGradient1144"
         xlink:href="#linearGradient642" />
      <linearGradient
         x1="0.030302"
         y1="0.023437"
         x2="0.979798"
         y2="0.976562"
         id="linearGradient1214"
         xlink:href="#linearGradient1218" />
      <linearGradient
         x1="0.977528"
         y1="0.953125"
         x2="0.011236"
         y2="0.039063"
         id="linearGradient1222"
         xlink:href="#linearGradient1226" />
      <linearGradient
         x1="0.003630"
         y1="-0.000003"
         x2="0.960000"
         y2="0.991228"
         id="linearGradient1230"
         xlink:href="#linearGradient1231" />
      <linearGradient
         x1="0.011765"
         y1="0.015625"
         x2="0.705882"
         y2="0.828125"
         id="linearGradient1235"
         xlink:href="#linearGradient1231" />
    </defs>
    <linearGradient
       x1="0.005816"
       y1="0.015632"
       x2="0.994152"
       y2="0.976562"
       id="linearGradient1276"
       xlink:href="#linearGradient1256" />
    <linearGradient
       id="linearGradient1281"
       xlink:href="#linearGradient1272" />
    <radialGradient
       id="radialGradient1285"
       xlink:href="#linearGradient1272" />
    <radialGradient
       id="radialGradient1286"
       xlink:href="#linearGradient1272" />
    <radialGradient
       id="radialGradient1287"
       xlink:href="#linearGradient1272" />
  </defs>
  <path
     d="M 25.790832 9.8145209 C 17.939288 11.039857 4.6354329 18.882934 3.8618346 25.208367 C 2.98958 32.340563 13.936893 46.062671 20.853189 50.187088 C 24.489931 52.355824 31.837288 43.215972 35.520914 44.087719 C 38.178805 44.71658 37.347063 54.724894 39.877641 54.689016 C 44.172773 54.628055 54.645695 48.959004 55.997605 43.797101 C 57.840691 36.760048 54.63797 23.914664 49.462517 18.092256 C 44.569008 12.587136 33.139565 8.6678188 25.790832 9.8145209 z M 48.736399 43.724607 C 48.736399 46.169562 46.752032 48.153932 44.307076 48.153932 C 41.862008 48.153932 39.877641 46.169562 39.877641 43.724607 C 39.877641 41.279545 41.862008 39.295173 44.307076 39.295173 C 46.752032 39.295173 48.736399 41.279545 48.736399 43.724607 z "
     style="font-size:12;opacity:0.302675;fill-rule:evenodd;stroke-width:12.5;"
     id="path1280" />
  <path
     d="M 25.337672 9.7636714 C 17.968113 10.913688 5.4810087 18.275498 4.7548901 24.212529 C 3.93617 30.906899 14.211514 43.78664 20.703139 47.657875 C 24.116731 49.693473 31.013051 41.114694 34.470549 41.932927 C 36.965181 42.523183 36.184597 51.917218 38.559731 51.88344 C 42.591194 51.826225 52.421208 46.505176 53.690233 41.660248 C 55.420172 35.055082 52.414059 22.998243 47.556217 17.533257 C 42.963204 12.366083 32.235286 8.6873827 25.337672 9.7636714 z M 46.874672 41.592104 C 46.874672 43.88697 45.012117 45.749526 42.717247 45.749526 C 40.422286 45.749526 38.559731 43.88697 38.559731 41.592104 C 38.559731 39.297139 40.422286 37.434584 42.717247 37.434584 C 45.012117 37.434584 46.874672 39.297139 46.874672 41.592104 z "
     style="font-size:12;fill:url(#linearGradient1527);fill-rule:evenodd;stroke:#333300;stroke-width:1.875;stroke-dasharray:none;"
     id="path1263" />
  <ellipse
     cx="177.968323"
     cy="277.793854"
     rx="43.652611"
     ry="43.652618"
     transform="matrix(0.101485,0.000000,0.000000,0.101485,-3.968949,-2.684406)"
     style="font-size:12;fill:url(#linearGradient1534);fill-rule:evenodd;stroke:#330000;stroke-width:11.6463;stroke-opacity:1;stroke-dasharray:none;"
     id="path1264" />
  <ellipse
     cx="177.968323"
     cy="277.793854"
     rx="43.652611"
     ry="43.652618"
     transform="matrix(0.101485,0.000000,0.000000,0.101485,8.435273,-7.864203)"
     style="font-size:12;fill:url(#linearGradient1042);fill-rule:evenodd;stroke:#003300;stroke-width:11.6463;stroke-opacity:1;stroke-dasharray:none;"
     id="path1267" />
  <ellipse
     cx="177.968323"
     cy="277.793854"
     rx="43.652611"
     ry="43.652618"
     transform="matrix(0.101485,0.000000,0.000000,0.101485,24.92879,0.314405)"
     style="font-size:12;fill:url(#linearGradient1044);fill-rule:evenodd;stroke:#000033;stroke-width:11.6463;stroke-opacity:1;stroke-dasharray:none;"
     id="path1268" />
  <path
     d="M 6.3906109 26.393457 C 6.4618452 25.799724 11.425033 13.692422 27.109732 11.672021 C 33.376063 10.746107 46.535037 16.137681 48.101467 20.804799 C 48.034417 21.362968 39.371206 12.940643 26.564575 14.670784 C 11.972972 16.0303 6.3255556 26.935634 6.3906109 26.393457 z "
     style="font-size:12;opacity:0.7;fill:url(#linearGradient1532);fill-rule:evenodd;stroke:none;stroke-width:1.02162pt;"
     id="path1259" />
  <g
     transform="matrix(0.101485,0.000000,0.000000,0.101485,-3.968949,-2.411790)"
     style="font-size:12;opacity:0.302675;"
     id="g1288">
    <path
       d="M 193.828 467.434 C 178.941 468.948 161.154 486.272 148.606 498.444 C 130.468 516.075 92.7478 564.2 104.676 592.765 C 111.698 552.141 185.106 555.496 205.456 535.914 C 216.415 526.066 227.005 503.459 224.837 490.691 C 223.129 480.633 204.352 466.364 193.828 467.434 z "
       style="fill-rule:evenodd;stroke-width:0.961965pt;"
       id="path1282" />
    <path
       d="M 229.409 417.471 C 221.482 419.905 190.897 456.406 190.623 463.082 C 190.082 475.91 220.297 500.47 232.768 498.042 C 237.828 496.761 268.98 456.842 269.182 451.097 C 269.654 438.55 241.337 414.372 229.409 417.471 z "
       style="fill-rule:evenodd;stroke-width:11.3244;"
       id="path1283" />
    <path
       d="M 221.358 423.625 C 228.067 386.292 264.417 333.237 298.019 298.291 C 375.96 217.232 538.735 66.7744 555.987 75.6109 C 571.994 83.8099 456.882 263.285 391.15 343.699 C 355.597 386.031 313.676 435.685 270.031 454.046 C 254.863 460.427 218.737 438.21 221.358 423.625 z "
       style="fill-rule:evenodd;stroke-width:11.3244;"
       id="path1284" />
  </g>
  <path
     d="M 14.474854 44.071437 C 12.96405 44.225111 11.15891 45.983264 9.8855185 47.21851 C 8.0447189 49.007854 4.2167457 53.891719 5.4272571 56.790652 C 6.1399262 52.667993 13.58967 53.008428 15.654869 51.021203 C 16.767039 50.021784 17.841857 47.72751 17.621828 46.431667 C 17.448486 45.410987 15.542919 43.962863 14.474854 44.071437 z "
     style="font-size:12;fill-rule:evenodd;stroke:#000000;stroke-width:1.18193;"
     id="path1047" />
  <path
     d="M 18.085826 39.001016 C 17.281303 39.247967 14.177343 42.952316 14.149628 43.629788 C 14.094695 44.93169 17.161007 47.424137 18.42665 47.177682 C 18.940218 47.04775 22.101596 42.99652 22.122158 42.413515 C 22.170038 41.140223 19.29624 38.686518 18.085826 39.001016 z "
     style="font-size:12;fill:url(#linearGradient641);fill-rule:evenodd;stroke:#333333;stroke-width:1.875;stroke-dasharray:none;"
     id="path1046" />
  <path
     d="M 17.268687 39.625544 C 17.949539 35.836759 21.638589 30.452535 25.048604 26.906032 C 32.958453 18.679797 49.477674 3.4106207 51.228473 4.3073883 C 52.852927 5.1394694 41.170881 23.353468 34.500053 31.514241 C 30.89196 35.810336 26.637587 40.849466 22.208283 42.712817 C 20.668967 43.36039 17.002763 41.105655 17.268687 39.625544 z "
     style="font-size:12;fill:url(#linearGradient638);fill-rule:evenodd;stroke:#261933;stroke-width:1.875;stroke-dasharray:none;"
     id="path1045" />
  <path
     d="M 18.79489 39.479321 C 17.285276 41.484622 22.193084 32.645681 27.246022 26.938713 C 33.859135 19.647829 50.522694 5.3856546 49.19189 6.9011878 C 47.093012 9.1362638 23.438561 32.993159 18.79489 39.479321 z "
     style="font-size:12;opacity:0.7;fill:url(#linearGradient1522);fill-rule:evenodd;stroke:none;stroke-width:1.02162pt;"
     id="path1051" />
  <path
     d="M 15.25077 43.841176 C 15.25077 43.632372 16.376548 41.815312 17.02283 41.660248 C 17.512459 41.542634 18.6586 42.819006 18.6586 43.023341 C 18.6586 43.182478 17.526563 42.62977 17.02283 42.750664 C 16.390654 42.902349 15.25077 43.995843 15.25077 43.841176 z "
     style="font-size:12;opacity:0.699936;fill:url(#linearGradient1539);fill-rule:evenodd;stroke:none;stroke-width:1.02162pt;"
     id="path1265" />
  <path
     d="M 5.9816734 53.928082 C 6.0705489 52.825544 9.6703566 47.183147 13.478809 45.613235 C 14.329924 45.280956 16.015262 47.474102 16.068705 47.794163 C 16.106254 48.01926 14.385353 46.863283 13.751389 47.248907 C 11.022919 48.908022 5.9930367 54.191913 5.9816734 53.928082 z "
     style="font-size:12;opacity:0.7;fill:url(#linearGradient1567);fill-rule:evenodd;stroke:none;stroke-width:1.02162pt;"
     id="path1266" />
  <path
     d="M 36.515188 41.52386 C 36.339264 41.247506 35.522025 37.33038 37.741995 36.071391 C 40.274866 34.593366 44.38997 35.535472 44.557456 35.798812 C 44.707945 36.035332 41.25015 35.481632 38.696115 37.570873 C 36.436513 39.333991 36.657339 41.747268 36.515188 41.52386 z "
     style="font-size:12;opacity:0.699936;fill:url(#linearGradient1276);fill-rule:evenodd;stroke:none;stroke-width:1.02162pt;"
     id="path1275" />
  <path
     d="M 10.802193 26.973184 C 10.670971 26.76706 10.061543 23.846078 11.717081 22.90725 C 13.60586 21.805114 16.674557 22.50762 16.799421 22.703909 C 16.911673 22.88033 14.3332 22.467389 12.428628 24.02538 C 10.743586 25.340095 10.908186 27.139869 10.802193 26.973184 z "
     style="font-size:12;opacity:0.699936;fill:url(#linearGradient1276);fill-rule:evenodd;stroke:none;stroke-width:0.761844pt;"
     id="path1277" />
  <path
     d="M 23.236016 21.961171 C 23.104792 21.755049 22.495363 18.834066 24.150903 17.895139 C 26.039682 16.793104 29.108378 17.49551 29.233243 17.691898 C 29.345494 17.868319 26.767022 17.455378 24.862448 19.013368 C 23.177407 20.328083 23.342007 22.127858 23.236016 21.961171 z "
     style="font-size:12;opacity:0.699936;fill:url(#linearGradient1276);fill-rule:evenodd;stroke:none;stroke-width:0.761844pt;"
     id="path1278" />
  <path
     d="M 39.814346 30.15393 C 39.683224 29.947807 39.073791 27.026825 40.729235 26.087998 C 42.618014 24.985862 45.686704 25.688269 45.811677 25.884656 C 45.923926 26.061077 43.345352 25.648136 41.44078 27.206127 C 39.755738 28.520842 39.920336 30.320617 39.814346 30.15393 z "
     style="font-size:12;opacity:0.699936;fill:url(#linearGradient1276);fill-rule:evenodd;stroke:none;stroke-width:0.761844pt;"
     id="path1279" />
</svg>
