<?xml version="1.0" encoding="UTF-8" standalone="no"?>
<!DOCTYPE svg PUBLIC "-//W3C//DTD SVG 20010904//EN"
"http://www.w3.org/TR/2001/REC-SVG-20010904/DTD/svg10.dtd">
<!-- Created with Inkscape (http://www.inkscape.org/) -->
<svg
   id="svg1"
   sodipodi:version="0.32"
   inkscape:version="0.39"
   width="48.000000pt"
   height="48.000000pt"
   sodipodi:docbase="/home/stefan/new-lila-icons"
   sodipodi:docname="gnome_blackjack.svg"
   xmlns="http://www.w3.org/2000/svg"
   xmlns:cc="http://web.resource.org/cc/"
   xmlns:inkscape="http://www.inkscape.org/namespaces/inkscape"
   xmlns:sodipodi="http://sodipodi.sourceforge.net/DTD/sodipodi-0.dtd"
   xmlns:rdf="http://www.w3.org/1999/02/22-rdf-syntax-ns#"
   xmlns:dc="http://purl.org/dc/elements/1.1/"
   xmlns:xlink="http://www.w3.org/1999/xlink">
  <defs
     id="defs3">
    <linearGradient
       id="linearGradient1029">
      <stop
         offset="0.0000000"
         style="stop-color:#d9cce6;stop-opacity:1.0000000;"
         id="stop1031" />
      <stop
         offset="1.0000000"
         style="stop-color:#73667f;stop-opacity:1.0000000;"
         id="stop1030" />
    </linearGradient>
    <linearGradient
       id="linearGradient866">
      <stop
         style="stop-color:#ffffff;stop-opacity:1;"
         offset="0.00000000"
         id="stop867" />
      <stop
         style="stop-color:#d9cce6;stop-opacity:1;"
         offset="1.00000000"
         id="stop868" />
    </linearGradient>
    <linearGradient
       xlink:href="#linearGradient866"
       id="linearGradient586"
       x1="-0.00000000"
       y1="0.01562500"
       x2="0.99122804"
       y2="0.98437500" />
    <linearGradient
       id="linearGradient584">
      <stop
         style="stop-color:#ffffff;stop-opacity:1;"
         offset="0.00000000"
         id="stop585" />
      <stop
         style="stop-color:#ffffff;stop-opacity:0;"
         offset="1.00000000"
         id="stop586" />
    </linearGradient>
    <linearGradient
       xlink:href="#linearGradient584"
       id="linearGradient587"
       x1="0.00000000"
       y1="-0.00000000"
       x2="1.00000000"
       y2="1.00000000" />
    <defs
       id="defs1339">
      <linearGradient
         id="linearGradient1340">
        <stop
           style="stop-color:#ffffff;stop-opacity:1;"
           offset="0.00000000"
           id="stop1341" />
        <stop
           style="stop-color:#d9cce6;stop-opacity:1;"
           offset="1.00000000"
           id="stop1342" />
      </linearGradient>
      <linearGradient
         id="linearGradient1343">
        <stop
           style="stop-color:#ffffff;stop-opacity:1;"
           offset="0.00000000"
           id="stop1344" />
        <stop
           style="stop-color:#ffffff;stop-opacity:0;"
           offset="1.00000000"
           id="stop1345" />
      </linearGradient>
      <linearGradient
         id="linearGradient578"
         x1="0.0000000"
         y1="0.50000000"
         x2="1.0000000"
         y2="0.50000000"
         gradientUnits="objectBoundingBox"
         spreadMethod="pad"
         xlink:href="#linearGradient1029" />
      <linearGradient
         xlink:href="#linearGradient584"
         id="linearGradient581"
         x1="0.010948900"
         y1="0.010309280"
         x2="0.68695652"
         y2="0.72656250" />
      <linearGradient
         xlink:href="#linearGradient584"
         id="linearGradient1350"
         x1="0.010948900"
         y1="0.010309280"
         x2="1.0145985"
         y2="0.96907216" />
      <linearGradient
         xlink:href="#linearGradient584"
         id="linearGradient860"
         x1="0.010948900"
         y1="0.010309280"
         x2="0.83277589"
         y2="0.71875000" />
      <linearGradient
         xlink:href="#linearGradient578"
         id="linearGradient861"
         x1="0.0000000"
         y1="0.023255810"
         x2="0.98611110"
         y2="0.97674417" />
      <linearGradient
         xlink:href="#linearGradient578"
         id="linearGradient862"
         x1="-0.0000000"
         y1="0.0077519398"
         x2="1.0000000"
         y2="0.99224806" />
      <linearGradient
         xlink:href="#linearGradient578"
         id="linearGradient869"
         x1="-0.0068493201"
         y1="0.0077519398"
         x2="0.97945207"
         y2="1.0000000" />
    </defs>
    <sodipodi:namedview
       id="namedview1355"
       pagecolor="#ffffff"
       bordercolor="#666666"
       borderopacity="1.0"
       inkscape:pageopacity="0.0"
       inkscape:pageshadow="2"
       inkscape:zoom="15.958944"
       inkscape:cx="12.882328"
       inkscape:cy="12.067810"
       inkscape:window-width="640"
       inkscape:window-height="525"
       inkscape:window-x="204"
       inkscape:window-y="142" />
    <linearGradient
       inkscape:collect="always"
       xlink:href="#linearGradient1029"
       id="linearGradient1653"
       x1="-0.10772681"
       y1="0.17204319"
       x2="0.98081529"
       y2="0.94635761" />
  </defs>
  <sodipodi:namedview
     id="base"
     pagecolor="#ffffff"
     bordercolor="#666666"
     borderopacity="1.0"
     inkscape:pageopacity="0.0"
     inkscape:pageshadow="2"
     inkscape:zoom="5.6568542"
     inkscape:cx="25.991542"
     inkscape:cy="29.380435"
     inkscape:window-width="876"
     inkscape:window-height="648"
     inkscape:window-x="206"
     inkscape:window-y="107"
     inkscape:current-layer="svg1" />
  <metadata
     id="metadata4">
    <rdf:RDF
       id="RDF5">
      <cc:Work
         rdf:about=""
         id="Work6">
        <dc:format
           id="format7">image/svg+xml</dc:format>
        <dc:type
           id="type9"
           rdf:resource="http://purl.org/dc/dcmitype/StillImage" />
      </cc:Work>
    </rdf:RDF>
  </metadata>
  <path
     style="font-size:12.000000;opacity:0.29999998;fill:#000000;fill-opacity:1.0000000;fill-rule:evenodd;stroke:none;stroke-width:1.8750001;stroke-miterlimit:4.0000000;"
     d="M 30.403008,3.5529046 C 29.907638,4.0064136 28.360183,8.0445316 26.590508,12.927905 C 20.630447,12.050247 15.048941,11.487828 14.496758,11.990405 C 12.931881,13.423044 1.5464483,47.025454 2.2155083,49.209155 C 2.8525843,51.112375 29.233441,59.645249 30.965508,58.209155 C 31.466103,57.789741 33.124285,53.068038 34.965508,47.365405 C 40.746432,49.090904 46.134684,50.414029 46.871758,49.802905 C 48.422151,48.503936 60.023512,9.8363136 59.246758,8.3029046 C 58.439344,6.6123586 31.673424,2.3966186 30.403008,3.5529046 z "
     id="path4759"
     transform="translate(0.258020,0.566805)" />
  <path
     d="M 5.6355059,46.694403 C 6.3927889,48.956733 37.750904,59.129316 39.809786,57.422254 C 41.652712,55.878190 55.442464,9.9190071 54.519149,8.0962671 C 53.559388,6.0867414 21.744382,1.0813985 20.234258,2.4558576 C 18.374113,4.1588139 4.8402049,44.098671 5.6355059,46.694403 z "
     style="font-size:12.000000;fill:url(#linearGradient586);fill-rule:evenodd;stroke:#261933;stroke-width:2.3834615;stroke-miterlimit:4.0000000;"
     id="path1336"
     transform="matrix(0.786671,0.000000,0.000000,0.786671,-3.011350,10.10633)" />
  <g
     id="g1281"
     transform="matrix(0.388354,0.204676,-0.204676,0.388354,15.26605,16.50640)">
    <sodipodi:namedview
       id="namedview1282"
       inkscape:zoom="6.9918719"
       inkscape:cx="19.282786"
       inkscape:cy="26.231670"
       inkscape:window-width="787"
       inkscape:window-height="557"
       inkscape:window-x="79"
       inkscape:window-y="69" />
    <defs
       id="defs550">
      <linearGradient
         x1="0.0000000"
         y1="0.0000000"
         x2="1.0000000"
         y2="0.0000000"
         id="linearGradient1129"
         gradientUnits="objectBoundingBox"
         spreadMethod="pad">
        <stop
           style="stop-color:#d9cce6;stop-opacity:1;"
           offset="0.00000000"
           id="stop1130" />
        <stop
           style="stop-color:#73667f;stop-opacity:1;"
           offset="1.00000000"
           id="stop1131" />
      </linearGradient>
      <linearGradient
         x1="0.0000000"
         y1="0.0000000"
         x2="1.0000000"
         y2="0.0000000"
         id="linearGradient588"
         gradientUnits="objectBoundingBox"
         spreadMethod="pad">
        <stop
           style="stop-color:#a673f3;stop-opacity:1;"
           offset="0.00000000"
           id="stop589" />
        <stop
           style="stop-color:#4c3f8c;stop-opacity:1;"
           offset="1.00000000"
           id="stop590" />
      </linearGradient>
      <linearGradient
         x1="0.0000000"
         y1="0.0000000"
         x2="1.0000000"
         y2="0.0000000"
         id="linearGradient576"
         gradientUnits="objectBoundingBox"
         spreadMethod="pad">
        <stop
           style="stop-color:#000000;stop-opacity:1;"
           offset="0.00000000"
           id="stop577" />
        <stop
           style="stop-color:#000000;stop-opacity:0;"
           offset="1.00000000"
           id="stop578" />
      </linearGradient>
      <linearGradient
         x1="0.0000000"
         y1="0.0000000"
         x2="1.0000000"
         y2="0.0000000"
         id="linearGradient569"
         gradientUnits="objectBoundingBox"
         spreadMethod="pad">
        <stop
           style="stop-color:#73667f;stop-opacity:1.0000000;"
           offset="0.0000000"
           id="stop570" />
        <stop
           style="stop-color:#f3e6ff;stop-opacity:1.0000000;"
           offset="1.0000000"
           id="stop571" />
      </linearGradient>
      <linearGradient
         x1="0.0000000"
         y1="0.0000000"
         x2="1.0000000"
         y2="0.0000000"
         id="linearGradient564"
         gradientUnits="objectBoundingBox"
         spreadMethod="pad">
        <stop
           style="stop-color:#7f7366;stop-opacity:1;"
           offset="0.00000000"
           id="stop565" />
        <stop
           style="stop-color:#7f7366;stop-opacity:0;"
           offset="1.00000000"
           id="stop566" />
      </linearGradient>
      <linearGradient
         x1="0.0000000"
         y1="0.0000000"
         x2="1.0000000"
         y2="0.0000000"
         id="linearGradient558"
         gradientUnits="objectBoundingBox"
         spreadMethod="pad">
        <stop
           style="stop-color:#ffffff;stop-opacity:1;"
           offset="0.00000000"
           id="stop559" />
        <stop
           style="stop-color:#ffffff;stop-opacity:0;"
           offset="1.00000000"
           id="stop560" />
      </linearGradient>
      <linearGradient
         id="linearGradient561"
         xlink:href="#linearGradient1129"
         x1="-0.013513510"
         y1="-0.0000000"
         x2="0.98648649"
         y2="0.98437500" />
      <linearGradient
         x1="0.49351925"
         y1="0.99222833"
         x2="0.49350709"
         y2="0.015625300"
         id="linearGradient563"
         xlink:href="#linearGradient564"
         gradientUnits="objectBoundingBox"
         spreadMethod="pad" />
      <linearGradient
         x1="0.12337894"
         y1="0.99219656"
         x2="0.82467574"
         y2="3.7999999e-07"
         id="linearGradient572"
         xlink:href="#linearGradient569"
         gradientUnits="objectBoundingBox"
         spreadMethod="pad" />
      <linearGradient
         x1="0.032464620"
         y1="0.98445034"
         x2="0.69480515"
         y2="0.24218844"
         id="linearGradient575"
         xlink:href="#linearGradient564"
         gradientUnits="objectBoundingBox"
         spreadMethod="pad" />
      <radialGradient
         cx="0.48876417"
         cy="0.98437452"
         fx="0.48804680"
         fy="0.96095657"
         r="0.79719150"
         id="radialGradient579"
         xlink:href="#linearGradient576"
         gradientUnits="objectBoundingBox"
         spreadMethod="pad" />
      <linearGradient
         x1="0.57826090"
         y1="0.97656250"
         x2="0.29130435"
         y2="0.51562500"
         id="linearGradient583"
         xlink:href="#linearGradient564"
         gradientUnits="objectBoundingBox"
         spreadMethod="pad" />
      <linearGradient
         x1="0.96277922"
         y1="2.7200001e-06"
         x2="0.0053192200"
         y2="0.98437500"
         id="linearGradient585"
         xlink:href="#linearGradient558"
         gradientUnits="objectBoundingBox"
         spreadMethod="pad" />
      <radialGradient
         cx="0.14615387"
         cy="0.39062509"
         fx="0.14615387"
         fy="0.39062509"
         r="0.52400964"
         id="radialGradient587"
         xlink:href="#linearGradient558"
         gradientUnits="objectBoundingBox"
         spreadMethod="pad" />
      <radialGradient
         cx="0.13076705"
         cy="0.41407111"
         fx="0.13076705"
         fy="0.41407111"
         r="0.75421256"
         id="radialGradient592"
         xlink:href="#linearGradient558"
         gradientUnits="objectBoundingBox"
         spreadMethod="pad" />
      <linearGradient
         xlink:href="#linearGradient558"
         id="linearGradient1132"
         x1="0.013157890"
         y1="0.015625000"
         x2="0.96052629"
         y2="0.96875000" />
      <linearGradient
         xlink:href="#linearGradient1129"
         id="linearGradient1133"
         x1="0.015151520"
         y1="0.0000000"
         x2="0.97727275"
         y2="1.0000000" />
      <linearGradient
         xlink:href="#linearGradient558"
         id="linearGradient1134"
         x1="0.010948900"
         y1="0.020408159"
         x2="0.98905110"
         y2="0.97959185" />
      <linearGradient
         xlink:href="#linearGradient558"
         id="linearGradient1135"
         x1="-0.0000000"
         y1="0.015625000"
         x2="1.0000000"
         y2="0.99218750" />
    </defs>
    <path
       d="M 17.504851,31.744830 C 17.016320,30.287152 7.5203515,27.789957 6.6872431,20.955026 C 5.8504963,13.983201 15.882690,3.6310235 25.883232,3.4308204 C 39.296424,3.0552232 56.671761,18.980583 57.878543,28.002780 C 59.237187,38.039684 25.813929,59.610516 16.363307,58.428756 C 7.1787670,57.387534 4.8524719,49.719921 6.0252452,44.413889 C 7.2318121,39.169462 17.737567,33.095771 17.504851,31.744830 z "
       style="font-size:12.000000;opacity:0.29636899;fill:#000000;fill-opacity:1.0000000;fill-rule:evenodd;stroke-width:1.0000000pt;"
       id="path581" />
    <path
       d="M 17.212734,30.695683 C 16.764866,29.359336 8.0592951,27.069996 7.2955292,20.803970 C 6.5284288,14.412448 15.725594,4.9219332 24.893738,4.7383935 C 37.190482,4.3940614 53.119581,18.993873 54.225916,27.265105 C 55.471472,36.466583 24.830204,56.241966 16.166205,55.158577 C 7.7461430,54.204016 5.6134761,47.174615 6.6886322,42.310233 C 7.7947709,37.502325 17.426077,31.934180 17.212734,30.695683 z "
       style="font-size:12.000000;fill:#bfb8cc;fill-rule:evenodd;stroke:#261e2e;stroke-width:2.8013916;"
       id="path552" />
    <path
       d="M 22.935250,28.230636 C 22.500638,26.933840 12.118076,24.703881 10.548027,20.632907 C 8.8942540,16.614834 16.468578,7.9501724 25.338368,7.2346965 C 35.269953,6.4240814 50.907067,18.488388 52.754169,26.712347 C 54.066381,32.745548 24.140140,51.956229 15.820844,50.349644 C 8.6982588,49.137336 8.4293864,45.318110 9.3872839,42.455642 C 10.650020,38.821183 23.142279,29.432484 22.935250,28.230636 z "
       style="font-size:12.000000;fill:url(#radialGradient592);fill-rule:evenodd;stroke-width:1.0000000pt;"
       id="path557" />
    <path
       d="M 23.036437,28.305914 C 22.603299,27.013510 12.255917,24.791109 10.691192,20.733931 C 9.0430209,16.729470 16.591679,8.0941711 25.431412,7.3811207 C 35.329344,6.5732514 50.913466,18.596677 52.754312,26.792769 C 54.062076,32.805525 24.237244,51.951105 15.946140,50.349969 C 8.8476915,49.141765 8.5797284,45.335481 9.5343799,42.482712 C 10.792837,38.860571 23.242766,29.503686 23.036437,28.305914 z "
       style="font-size:12.000000;fill:url(#radialGradient587);fill-rule:evenodd;stroke-width:1.0000000pt;"
       id="path596" />
    <path
       d="M 24.259633,15.900731 C 29.067559,11.436396 37.220926,18.804605 34.822577,23.056316 C 32.008512,27.703672 19.526550,20.295664 24.259633,15.900731 z "
       style="font-size:12.000000;fill:url(#linearGradient572);fill-rule:evenodd;stroke-width:1.0000000pt;"
       id="path568" />
    <path
       d="M 26.363772,17.435214 C 29.135099,14.861938 33.834765,19.109029 32.452338,21.559752 C 30.830288,24.238523 23.635584,19.968489 26.363772,17.435214 z "
       style="font-size:12.000000;fill:#bfb8cc;fill-opacity:1.0000000;fill-rule:evenodd;stroke-width:1.0000000pt;"
       id="path562" />
    <path
       d="M 26.363772,17.435214 C 29.135099,14.861938 33.834765,19.109029 32.452338,21.559752 C 30.830288,24.238523 23.635584,19.968489 26.363772,17.435214 z "
       style="font-size:12.000000;fill:url(#linearGradient563);fill-rule:evenodd;stroke-width:1.0000000pt;"
       id="path567" />
    <path
       d="M 32.453754,20.279779 C 32.419438,21.285357 31.789013,22.648528 30.370702,22.367170 C 28.969645,22.138074 26.694030,21.168256 26.027720,19.436493 C 25.832417,18.914250 28.841598,17.466597 29.978523,17.807290 C 30.855237,18.069786 32.499835,19.493864 32.453754,20.279779 z "
       style="font-size:12.000000;fill:url(#radialGradient579);fill-rule:evenodd;stroke-width:1.0000000pt;"
       id="path574"
       sodipodi:nodetypes="ccccc" />
    <path
       d="M 9.3937109,20.000657 C 9.7154539,25.363647 15.292265,26.866673 18.510026,29.333645 C 19.770340,29.548088 21.007338,28.441544 20.623314,27.667440 C 16.064764,25.629514 10.975766,23.969209 9.3937109,20.000657 z "
       style="font-size:12.000000;fill:url(#linearGradient575);fill-rule:evenodd;stroke-width:1.0000000pt;"
       id="path580"
       sodipodi:nodetypes="cccc" />
    <path
       d="M 8.6395321,47.152524 C 10.099175,51.003481 13.887997,53.177320 17.490409,53.301591 C 26.651969,52.991096 50.533858,36.655596 52.148842,28.891544 C 47.707775,34.233212 29.384846,48.705372 17.117779,50.133945 C 14.012268,50.196083 11.931450,49.792383 8.6395321,47.152524 z "
       style="font-size:12.000000;fill:url(#linearGradient583);fill-rule:evenodd;stroke-width:1.0000000pt;"
       id="path582" />
    <path
       d="M 51.653269,26.341355 C 50.326531,24.622828 38.792375,41.027836 17.675350,49.516923 C 36.617551,43.851127 52.618027,27.608676 51.653269,26.341355 z "
       style="font-size:12.000000;opacity:0.80437499;fill:url(#linearGradient585);fill-rule:evenodd;stroke-width:1.0000000pt;"
       id="path584" />
    <metadata
       id="metadata52">
      <rdf:RDF
         id="RDF1150">
        <cc:Work
           rdf:about=""
           id="Work1151">
          <dc:format
             id="format1152">image/svg+xml</dc:format>
          <dc:type
             id="type1154"
             rdf:resource="http://purl.org/dc/dcmitype/StillImage" />
        </cc:Work>
      </rdf:RDF>
    </metadata>
  </g>
  <path
     style="font-size:12.000000;font-style:normal;font-variant:normal;font-weight:normal;font-stretch:normal;fill:#261933;fill-opacity:1.0000000;stroke:none;stroke-width:1.0000000pt;stroke-linecap:butt;stroke-linejoin:miter;stroke-opacity:1.0000000;font-family:Radio Stars;text-anchor:middle;writing-mode:lr;"
     d="M 17.462898,18.537652 L 14.568493,17.808437 L 13.379907,18.897613 C 13.169084,19.091365 12.936727,19.156259 12.682834,19.092293 C 12.479716,19.041120 12.319351,18.927429 12.201741,18.751221 C 12.085955,18.567759 12.053648,18.374469 12.104822,18.171353 C 12.139546,18.033525 12.213254,17.909375 12.325948,17.798903 L 15.954757,14.281108 C 16.423684,13.828376 16.817742,13.642215 17.136931,13.722624 C 17.354548,13.777457 17.529393,13.910225 17.661465,14.120928 C 17.744683,14.249905 17.835908,14.469610 17.935139,14.780044 L 19.453149,19.594525 C 19.500039,19.745202 19.506126,19.889456 19.471410,20.027286 C 19.420229,20.230400 19.297485,20.380769 19.103177,20.478392 C 18.916107,20.577839 18.724646,20.602891 18.528792,20.553548 C 18.274889,20.489580 18.100101,20.325968 18.004427,20.062711 L 17.462898,18.537652 M 15.645525,16.702729 L 17.027440,17.050888 L 16.621546,15.768294 L 15.645525,16.702729"
     id="text1010" />
  <path
     style="font-size:12.000000;font-style:normal;font-variant:normal;font-weight:normal;font-stretch:normal;fill:#261933;fill-opacity:1.0000000;stroke:none;stroke-width:1.0000000pt;stroke-linecap:butt;stroke-linejoin:miter;stroke-opacity:1.0000000;font-family:Radio Stars;text-anchor:middle;writing-mode:lr;"
     d="M 26.649061,49.087425 L 23.754493,48.358844 L 23.223511,46.836642 C 23.129596,46.566150 22.955685,46.398948 22.701777,46.335038 C 22.498649,46.283909 22.303565,46.308090 22.116527,46.407580 C 21.927660,46.514325 21.807662,46.669260 21.756535,46.872389 C 21.721840,47.010224 21.727959,47.154477 21.774891,47.305146 L 23.304839,52.122036 C 23.503421,52.742864 23.762314,53.093451 24.081516,53.173803 C 24.299150,53.228576 24.516022,53.194451 24.732132,53.071429 C 24.866512,52.997248 25.050911,52.846952 25.285332,52.620538 L 28.902490,49.099206 C 29.015151,48.988708 29.088832,48.864542 29.123534,48.726708 C 29.174655,48.523578 29.137766,48.333010 29.012868,48.155003 C 28.895210,47.978819 28.738447,47.866076 28.542582,47.816775 C 28.288665,47.752863 28.057236,47.814181 27.848289,48.000727 L 26.649061,49.087425 M 24.179395,49.842775 L 25.561389,50.190631 L 24.596452,51.128019 L 24.179395,49.842775"
     id="text1690" />
  <path
     d="M 7.7690109,44.575246 C 7.4417459,43.746143 20.445112,5.1967363 21.660781,4.4017465 C 23.180114,3.3648852 47.741168,7.9548761 48.067664,8.7820341 C 48.366924,9.5401491 28.905025,6.0001363 24.575199,9.8730511 C 16.270973,17.092368 8.0675019,45.331457 7.7690109,44.575246 z "
     style="font-size:12.000000;opacity:0.69993597;fill:url(#linearGradient587);fill-rule:evenodd;stroke:none;stroke-width:0.10012100pt;"
     id="path1337"
     transform="matrix(0.786671,0.000000,0.000000,0.786671,-3.011350,10.10633)" />
  <path
     d="M 5.6355059,46.694403 C 6.3927889,48.956733 37.750904,59.129316 39.809786,57.422254 C 41.652712,55.878190 55.442464,9.9190071 54.519149,8.0962671 C 53.559388,6.0867414 21.744382,1.0813985 20.234258,2.4558576 C 18.374113,4.1588139 4.8402049,44.098671 5.6355059,46.694403 z "
     style="font-size:12.000000;fill:url(#linearGradient586);fill-rule:evenodd;stroke:#261933;stroke-width:2.3834615;stroke-miterlimit:4.0000000;"
     id="path634"
     transform="matrix(0.786671,0.000000,0.000000,0.786671,12.32253,0.252824)" />
  <path
     d="M 13.249998,9.5632160 C 19.844967,8.3714292 24.737516,4.4371841 26.095556,5.5445205 C 26.463067,5.8608373 21.330210,8.7416647 18.201667,9.7785800 C 17.144027,10.129068 12.934591,9.6196090 13.249998,9.5632160 z "
     style="font-size:12.000000;opacity:0.69993597;fill:none;fill-rule:evenodd;stroke:none;stroke-width:1.0000000pt;"
     id="path1356"
     transform="matrix(0.774825,0.297779,-0.297779,0.774825,28.56941,8.186163)" />
  <path
     d="M 26.421230,14.990644 C 24.179846,20.037118 23.285853,20.271364 21.798414,22.007185 C 19.657953,23.900806 18.388542,24.841702 15.921571,26.289767 C 18.189008,24.396145 19.057125,23.511306 20.649845,22.007730 C 22.828452,19.494003 23.916469,19.005947 26.421230,14.990644 z "
     style="font-size:12.000000;fill:url(#linearGradient612);fill-opacity:1.00000000;fill-rule:evenodd;stroke-width:1.0000000pt;"
     id="path620"
     transform="matrix(0.774825,0.297779,-0.297779,0.774825,28.56941,8.186163)" />
  <path
     d="M 37.614535,19.857716 C 37.413794,17.465368 36.161608,15.555328 33.946379,14.541457 C 30.970191,13.574734 28.794875,15.997085 27.943869,19.266065 C 27.057482,25.647828 29.156769,28.660635 32.334818,33.480936 C 38.416666,32.182494 43.154698,30.358879 45.483393,26.107223 C 47.812088,21.855567 47.241786,19.883976 43.784402,18.398064 C 40.858159,17.284124 39.126147,18.106474 37.614535,19.857716 z "
     style="font-size:12.000000;fill:#000000;fill-opacity:0.29999998;fill-rule:evenodd;stroke-width:1.8750000;stroke-opacity:0.24999996;"
     id="path623"
     sodipodi:nodetypes="cccczcc"
     transform="translate(0.258020,0.566805)" />
  <path
     d="M 14.910045,7.1923681 C 13.432005,4.1374885 10.811177,2.2521994 7.3740717,2.0377535 C 2.9568005,2.2714042 1.3148732,6.5707734 1.8496861,11.315701 C 3.9163118,20.185852 8.2140951,23.096663 14.851875,27.845402 C 22.218360,23.048008 26.537411,20.311321 28.462046,11.448209 C 29.031555,6.7295324 27.626406,2.3450241 22.310920,2.1376246 C 17.884895,2.1516961 16.016540,4.1150843 14.910045,7.1923681 z "
     style="font-size:12.000000;fill:url(#linearGradient1653);fill-rule:evenodd;stroke:#261933;stroke-width:1.7669719;stroke-linecap:round;stroke-linejoin:round;stroke-miterlimit:4.0000000;"
     id="path618"
     transform="matrix(0.660338,0.253779,-0.253779,0.660338,29.33614,10.38425)" />
  <path
     d="M 33.198819,14.024436 C 32.168719,13.696729 30.948188,13.638630 29.780373,14.959250 C 28.410509,16.447767 28.217381,18.225667 28.202526,19.906624 C 28.806198,18.346643 29.783619,16.571281 31.121816,15.609537 C 32.238544,15.142722 33.222434,15.172063 35.680970,16.710079 C 34.987581,15.067540 33.967363,14.458145 33.198819,14.024436 z "
     style="font-size:12.000000;fill:url(#linearGradient581);fill-opacity:1.00000000;fill-rule:evenodd;stroke-width:1.0000000pt;"
     id="path619"
     sodipodi:nodetypes="cccccc"
     transform="translate(0.258020,0.566805)" />
  <path
     d="M 14.981644,7.6096257 C 14.981644,13.717486 14.887618,21.690603 14.887618,27.798463 C 19.150402,24.753816 20.761489,24.511362 24.262413,20.408513 C 25.894968,18.756235 27.793016,14.402712 28.391620,11.803624 C 28.101388,9.9656950 28.453386,6.2297733 25.877576,3.2779502 C 22.122700,2.0897951 18.377472,0.55794048 14.981644,7.6096257 z "
     style="font-size:12.000000;fill:#261e2e;fill-opacity:0.20000000;fill-rule:evenodd;stroke-width:1.0000000pt;"
     id="path622"
     transform="matrix(0.660338,0.253779,-0.253779,0.660338,29.33614,10.38425)" />
  <path
     d="M 42.712211,17.567905 C 41.682112,17.240198 39.081746,16.995170 37.724130,19.002891 C 40.175779,18.083852 40.685242,18.090985 41.893599,18.143404 C 43.072446,18.384503 43.459053,18.844161 45.070591,20.170667 C 44.377202,18.528129 43.673793,17.885791 42.712211,17.567905 z "
     style="font-size:12.000000;fill:url(#linearGradient860);fill-opacity:1.00000000;fill-rule:evenodd;stroke-width:1.0000000pt;"
     id="path591"
     sodipodi:nodetypes="ccccc"
     transform="translate(0.258020,0.566805)" />
  <path
     style="font-size:12.000000;font-style:normal;font-variant:normal;font-weight:normal;font-stretch:normal;fill:#261933;fill-opacity:1.0000000;stroke:none;stroke-width:1.0000000pt;stroke-linecap:butt;stroke-linejoin:miter;stroke-opacity:1.0000000;font-family:Radio Stars;text-anchor:start;writing-mode:lr;"
     d="M 37.939919,37.027952 C 38.099863,36.545053 38.417730,36.382396 38.893522,36.539979 L 43.633466,38.137030 C 43.860713,38.212294 44.058741,38.342108 44.139527,38.526474 C 44.220313,38.710839 44.227779,38.902443 44.161923,39.101285 C 44.096067,39.300125 43.975705,39.449391 43.800838,39.549086 C 43.625972,39.648778 43.380905,39.616982 43.153657,39.541719 L 39.127410,38.225056 L 37.843214,42.102460 C 37.767957,42.329702 37.639318,42.480168 37.457297,42.553858 C 37.272939,42.634639 37.084887,42.643281 36.893139,42.579781 C 36.701408,42.516272 36.555691,42.397087 36.455990,42.222224 C 36.353954,42.054455 36.340563,41.856949 36.415818,41.629706 L 37.939919,37.027952"
     id="text1845"
     sodipodi:nodetypes="cccccccccccccc" />
  <path
     style="font-size:12.000000;font-style:normal;font-variant:normal;font-weight:normal;font-stretch:normal;fill:#261933;fill-opacity:1.0000000;stroke:none;stroke-width:1.0000000pt;stroke-linecap:butt;stroke-linejoin:miter;stroke-opacity:1.0000000;font-family:Radio Stars;text-anchor:start;writing-mode:lr;"
     d="M 33.966605,9.6160349 C 33.833334,10.106965 33.524847,10.286777 33.041142,10.155475 L 28.220885,8.8202742 C 27.989859,8.7575621 27.785022,8.6387824 27.694265,8.4591149 C 27.603509,8.2794484 27.585566,8.0885403 27.640439,7.8863916 C 27.695312,7.6842449 27.807323,7.5286143 27.976470,7.4194968 C 28.145617,7.3103825 28.392057,7.3287163 28.623084,7.3914273 L 32.715367,8.4857267 L 33.785395,4.5438411 C 33.848101,4.3128204 33.968311,4.1555385 34.146025,4.0719955 C 34.325685,3.9812442 34.512982,3.9623215 34.707918,4.0152303 C 34.902838,4.0681491 35.054861,4.1791791 35.163984,4.3483225 C 35.275050,4.5102547 35.299232,4.7067316 35.236529,4.9377532 L 33.966605,9.6160349"
     id="path1100"
     sodipodi:nodetypes="cccccccccccccc" />
  <path
     d="M 7.7690109,44.575246 C 7.4417459,43.746143 20.445112,5.1967363 21.660781,4.4017465 C 23.180114,3.3648852 47.741168,7.9548761 48.067664,8.7820341 C 48.366924,9.5401491 28.905025,6.0001363 24.575199,9.8730511 C 16.270973,17.092368 8.0675019,45.331457 7.7690109,44.575246 z "
     style="font-size:12.000000;opacity:0.69993597;fill:url(#linearGradient587);fill-rule:evenodd;stroke:none;stroke-width:0.10012100pt;"
     id="path640"
     transform="matrix(0.786671,0.000000,0.000000,0.786671,12.32253,0.252824)" />
</svg>
