<?xml version="1.0" encoding="UTF-8" standalone="no"?>
<!DOCTYPE svg PUBLIC "-//W3C//DTD SVG 20010904//EN"
"http://www.w3.org/TR/2001/REC-SVG-20010904/DTD/svg10.dtd">
<!-- Created with Inkscape (http://www.inkscape.org/) -->
<svg
   version="1.0"
   x="0"
   y="0"
   width="48pt"
   height="48pt"
   id="svg1"
   sodipodi:version="0.32"
   inkscape:version="0.37"
   sodipodi:docname="gnome-settings.svg"
   sodipodi:docbase="/usr/share/icons/Lila/scalable/apps"
   xmlns="http://www.w3.org/2000/svg"
   xmlns:inkscape="http://www.inkscape.org/namespaces/inkscape"
   xmlns:sodipodi="http://sodipodi.sourceforge.net/DTD/sodipodi-0.dtd"
   xmlns:xlink="http://www.w3.org/1999/xlink">
  <sodipodi:namedview
     id="base"
     pagecolor="#ffffff"
     bordercolor="#666666"
     borderopacity="1.0"
     inkscape:pageopacity="0.0"
     inkscape:pageshadow="2"
     inkscape:zoom="6.94653373"
     inkscape:cx="25.3059434"
     inkscape:cy="24.0994912"
     inkscape:window-width="680"
     inkscape:window-height="619"
     inkscape:window-x="128"
     inkscape:window-y="76"
     showgrid="false"
     vertgrid="false"
     snaptogrid="false"
     horizgrid="false"
     snaptoguides="false" />
  <defs
     id="defs3">
    <linearGradient
       id="linearGradient570">
      <stop
         style="stop-color:#ffffff;stop-opacity:1;"
         offset="0"
         id="stop571" />
      <stop
         style="stop-color:#ffffff;stop-opacity:0;"
         offset="1"
         id="stop572" />
    </linearGradient>
    <linearGradient
       id="linearGradient563">
      <stop
         style="stop-color:#d9cce6;stop-opacity:1;"
         offset="0.00000000"
         id="stop564" />
      <stop
         style="stop-color:#73667f;stop-opacity:1;"
         offset="1.00000000"
         id="stop565" />
    </linearGradient>
    <linearGradient
       id="linearGradient566"
       xlink:href="#linearGradient563"
       x1="-0.00000000"
       y1="-0.00000000"
       x2="0.98214287"
       y2="0.99218750" />
    <linearGradient
       id="linearGradient569"
       xlink:href="#linearGradient570"
       x1="-0.00000000"
       y1="0.00000000"
       x2="1.04999995"
       y2="0.99218750" />
    <linearGradient
       id="linearGradient573"
       xlink:href="#linearGradient570" />
    <linearGradient
       id="linearGradient575"
       xlink:href="#linearGradient570" />
    <linearGradient
       id="linearGradient578"
       xlink:href="#linearGradient570" />
    <linearGradient
       id="linearGradient583"
       xlink:href="#linearGradient570" />
    <linearGradient
       id="linearGradient637"
       xlink:href="#linearGradient563" />
    <linearGradient
       id="linearGradient640"
       xlink:href="#linearGradient563" />
    <linearGradient
       id="linearGradient645"
       xlink:href="#linearGradient570" />
    <linearGradient
       id="linearGradient646"
       xlink:href="#linearGradient570" />
    <linearGradient
       x1="0.000007"
       y1="0.000000"
       x2="0.951807"
       y2="0.984375"
       id="linearGradient647"
       xlink:href="#linearGradient570" />
    <linearGradient
       x1="0.056605"
       y1="0.015625"
       x2="0.943396"
       y2="0.984375"
       id="linearGradient675"
       xlink:href="#linearGradient570" />
    <linearGradient
       x1="0.011765"
       y1="-0.000000"
       x2="1.011765"
       y2="1.015625"
       id="linearGradient676"
       xlink:href="#linearGradient570" />
    <linearGradient
       xlink:href="#linearGradient563"
       id="linearGradient684"
       x1="0.09210526"
       y1="0.12500000"
       x2="0.93421054"
       y2="0.92187500" />
    <linearGradient
       xlink:href="#linearGradient563"
       id="linearGradient685"
       x1="0.06603774"
       y1="0.07812500"
       x2="0.94339621"
       y2="0.95312500" />
  </defs>
  <g
     id="g814"
     style="opacity:0.302675;">
    <path
       style="font-size:12;fill-rule:evenodd;stroke-width:1.875;"
       d="M 40.979715 58.402832 C 41.677442 59.676184 46.183557 59.673108 46.866878 58.402832 C 48.121104 56.071257 47.446888 51.029579 46.792357 47.59728 C 46.428434 45.688906 44.801076 42.393332 43.811515 42.380806 C 42.838689 42.368492 41.237318 45.643632 40.905193 47.522758 C 40.293385 50.984306 39.690213 56.049493 40.979715 58.402832 z "
       id="path809"
       sodipodi:nodetypes="csssss" />
    <rect
       style="font-size:12;fill-rule:evenodd;stroke-width:1.875;stroke-linejoin:round;"
       id="rect808"
       width="50.13293076"
       height="3.43550539"
       x="5.08963784"
       y="10.57625928"
       transform="translate(1.799459,38.68837)" />
  </g>
  <g
     id="g804"
     style="opacity:0.296369;"
     transform="translate(0.000000,-0.179946)">
    <rect
       style="font-size:12;fill-rule:evenodd;stroke-width:1.875;stroke-linejoin:round;"
       id="rect800"
       width="50.13293076"
       height="3.43550539"
       x="5.08963784"
       y="10.57625928"
       transform="translate(1.619513,21.95340)" />
    <path
       style="font-size:12;fill-rule:evenodd;stroke-width:1.875;"
       d="M 16.866969 41.128024 C 17.564696 42.401376 22.070811 42.3983 22.754132 41.128024 C 24.008358 38.796449 23.334142 33.754771 22.679611 30.322472 C 22.315688 28.414098 20.68833 25.118524 19.698769 25.105998 C 18.725943 25.093684 17.124572 28.368824 16.792447 30.24795 C 16.180639 33.709498 15.577467 38.774685 16.866969 41.128024 z "
       id="path801"
       sodipodi:nodetypes="csssss" />
  </g>
  <g
     id="g796"
     style="opacity:0.296369;"
     transform="translate(1.439567,2.519242)">
    <rect
       style="font-size:12;fill:#000000;fill-rule:evenodd;stroke-width:1.875;fill-opacity:1;stroke:none;stroke-opacity:1;stroke-dasharray:none;stroke-linejoin:round;"
       id="rect794"
       width="50.13293076"
       height="3.43550539"
       x="5.08963784"
       y="10.57625928" />
    <path
       style="font-size:12;fill:#000000;fill-rule:evenodd;stroke:none;stroke-width:1.875;stroke-dasharray:none;fill-opacity:1;"
       d="M 27.66372 19.534516 C 28.361447 20.807868 32.867562 20.804792 33.550883 19.534516 C 34.805109 17.202941 34.130893 12.161263 33.476362 8.7289638 C 33.112439 6.8205895 31.485081 3.525016 30.49552 3.51249 C 29.522694 3.5001759 27.921323 6.7753153 27.589198 8.6544418 C 26.97739 12.11599 26.374218 17.181177 27.66372 19.534516 z "
       id="path795"
       sodipodi:nodetypes="csssss" />
  </g>
  <rect
     style="font-size:12;fill:#261933;fill-rule:evenodd;stroke-width:1.875;fill-opacity:1;stroke:#261933;stroke-opacity:1;stroke-dasharray:none;stroke-linejoin:round;"
     id="rect779"
     width="50.13293076"
     height="3.43550539"
     x="5.08963784"
     y="10.57625928" />
  <path
     style="font-size:12;fill:url(#linearGradient566);fill-rule:evenodd;stroke:#261933;stroke-width:1.875;stroke-dasharray:none;"
     d="M 27.66372 19.534516 C 28.361447 20.807868 32.867562 20.804792 33.550883 19.534516 C 34.805109 17.202941 34.130893 12.161263 33.476362 8.7289638 C 33.112439 6.8205895 31.485081 3.525016 30.49552 3.51249 C 29.522694 3.5001759 27.921323 6.7753153 27.589198 8.6544418 C 26.97739 12.11599 26.374218 17.181177 27.66372 19.534516 z "
     id="path780"
     sodipodi:nodetypes="csssss" />
  <path
     style="fill:url(#linearGradient569);fill-rule:evenodd;stroke:none;stroke-opacity:1;stroke-width:1pt;stroke-linejoin:miter;stroke-linecap:butt;fill-opacity:1;"
     d="M 28.493272 15.813871 C 28.273371 15.494014 28.105869 8.3532928 30.282561 5.413627 C 30.580902 4.9888907 31.862189 6.6240832 31.512698 7.2029163 C 29.912607 9.6678028 28.683416 16.090444 28.493272 15.813871 z "
     id="path781"
     sodipodi:nodetypes="csss" />
  <rect
     style="font-size:12;fill:#261933;fill-rule:evenodd;stroke-width:1.875;fill-opacity:1;stroke:#261933;stroke-opacity:1;stroke-dasharray:none;stroke-linejoin:round;"
     id="rect788"
     width="50.13293076"
     height="3.43550539"
     x="5.08963776"
     y="29.47057393" />
  <path
     style="font-size:12;fill:url(#linearGradient566);fill-rule:evenodd;stroke:#261933;stroke-width:1.875;stroke-dasharray:none;"
     d="M 15.967239 38.248886 C 16.664966 39.522238 21.171081 39.519162 21.854402 38.248886 C 23.108628 35.917311 22.434412 30.875633 21.779881 27.443334 C 21.415958 25.534959 19.7886 22.239386 18.799039 22.22686 C 17.826213 22.214546 16.224842 25.489685 15.892717 27.368812 C 15.280909 30.83036 14.677737 35.895547 15.967239 38.248886 z "
     id="path789"
     sodipodi:nodetypes="csssss" />
  <path
     style="fill:url(#linearGradient569);fill-rule:evenodd;stroke:none;stroke-opacity:1;stroke-width:1pt;stroke-linejoin:miter;stroke-linecap:butt;fill-opacity:1;"
     d="M 16.796791 34.528241 C 16.57689 34.208384 16.409388 27.067663 18.58608 24.127997 C 18.884421 23.70326 20.165708 25.338453 19.816217 25.917286 C 18.216126 28.382173 16.986935 34.804814 16.796791 34.528241 z "
     id="path790"
     sodipodi:nodetypes="csss" />
  <rect
     style="font-size:12;fill:#261933;fill-rule:evenodd;stroke-width:1.875;fill-opacity:1;stroke:#261933;stroke-opacity:1;stroke-dasharray:none;stroke-linejoin:round;"
     id="rect791"
     width="50.13293076"
     height="3.43550539"
     x="5.26958379"
     y="46.92532242" />
  <path
     style="font-size:12;fill:url(#linearGradient566);fill-rule:evenodd;stroke:#261933;stroke-width:1.875;stroke-dasharray:none;"
     d="M 39.000309 56.063526 C 39.698036 57.336878 44.204151 57.333802 44.887472 56.063526 C 46.141698 53.731951 45.467482 48.690273 44.812951 45.257974 C 44.449028 43.349599 42.82167 40.054026 41.832109 40.0415 C 40.859283 40.029186 39.257912 43.304325 38.925787 45.183452 C 38.313979 48.645 37.710807 53.710187 39.000309 56.063526 z "
     id="path792"
     sodipodi:nodetypes="csssss" />
  <path
     style="fill:url(#linearGradient569);fill-rule:evenodd;stroke:none;stroke-opacity:1;stroke-width:1pt;stroke-linejoin:miter;stroke-linecap:butt;fill-opacity:1;"
     d="M 39.829861 52.342881 C 39.60996 52.023024 39.442458 44.882303 41.61915 41.942637 C 41.917491 41.5179 43.198778 43.153093 42.849287 43.731926 C 41.249196 46.196813 40.020005 52.619454 39.829861 52.342881 z "
     id="path793"
     sodipodi:nodetypes="csss" />
</svg>
