<?xml version="1.0" encoding="UTF-8" standalone="no"?>
<!DOCTYPE svg PUBLIC "-//W3C//DTD SVG 20010904//EN"
"http://www.w3.org/TR/2001/REC-SVG-20010904/DTD/svg10.dtd">
<!-- Created with Inkscape (http://www.inkscape.org/) -->
<svg
   id="svg1"
   sodipodi:version="0.32"
   inkscape:version="0.39"
   width="48.000000pt"
   height="48.000000pt"
   sodipodi:docbase="/home/stefan/new-lila-icons/makzu"
   sodipodi:docname="gnome-gnobots2.svg"
   xmlns="http://www.w3.org/2000/svg"
   xmlns:cc="http://web.resource.org/cc/"
   xmlns:inkscape="http://www.inkscape.org/namespaces/inkscape"
   xmlns:sodipodi="http://sodipodi.sourceforge.net/DTD/sodipodi-0.dtd"
   xmlns:rdf="http://www.w3.org/1999/02/22-rdf-syntax-ns#"
   xmlns:dc="http://purl.org/dc/elements/1.1/"
   xmlns:xlink="http://www.w3.org/1999/xlink">
  <defs
     id="defs3">
    <linearGradient
       id="linearGradient13672">
      <stop
         offset="0.0000000"
         style="stop-color:#d9cce6;stop-opacity:1.0000000;"
         id="stop13674" />
      <stop
         offset="1.0000000"
         style="stop-color:#73667f;stop-opacity:1.0000000;"
         id="stop13673" />
    </linearGradient>
    <linearGradient
       id="linearGradient9265">
      <stop
         offset="0.0000000"
         style="stop-color:#ffffff;stop-opacity:1.0000000;"
         id="stop9267" />
      <stop
         offset="1.0000000"
         style="stop-color:#ffffff;stop-opacity:0.0000000;"
         id="stop9266" />
    </linearGradient>
    <linearGradient
       id="linearGradient9261">
      <stop
         offset="0.0000000"
         style="stop-color:#ffffff;stop-opacity:1.0000000;"
         id="stop9263" />
      <stop
         offset="1.0000000"
         style="stop-color:#d9cce6;stop-opacity:1.0000000;"
         id="stop9262" />
    </linearGradient>
    <linearGradient
       id="linearGradient4287">
      <stop
         offset="0.0000000"
         style="stop-color:#f50000;stop-opacity:1.0000000;"
         id="stop4289" />
      <stop
         offset="1.0000000"
         style="stop-color:#a80000;stop-opacity:1.0000000;"
         id="stop4288" />
    </linearGradient>
    <linearGradient
       id="linearGradient3585">
      <stop
         offset="0.0000000"
         style="stop-color:#d9cce6;stop-opacity:1.0000000;"
         id="stop3587" />
      <stop
         offset="1.0000000"
         style="stop-color:#73667f;stop-opacity:1.0000000;"
         id="stop3586" />
    </linearGradient>
    <linearGradient
       id="linearGradient3582">
      <stop
         offset="0.0000000"
         style="stop-color:#ffffff;stop-opacity:1.0000000;"
         id="stop3584" />
      <stop
         offset="1.0000000"
         style="stop-color:#d9cce6;stop-opacity:1.0000000;"
         id="stop3583" />
    </linearGradient>
    <linearGradient
       inkscape:collect="always"
       xlink:href="#linearGradient3585"
       id="linearGradient3581"
       x1="0.14642857"
       y1="-0.26470593"
       x2="0.89285713"
       y2="1.0882351" />
    <linearGradient
       inkscape:collect="always"
       xlink:href="#linearGradient3582"
       id="linearGradient3588"
       x1="-0.33673468"
       y1="-0.34375000"
       x2="1.0000000"
       y2="0.96875000" />
    <linearGradient
       inkscape:collect="always"
       xlink:href="#linearGradient4287"
       id="linearGradient7782"
       x1="0.0078125000"
       y1="-5.5164207e-16"
       x2="0.96093750"
       y2="0.96875000" />
    <defs
       id="defs9055">
      <linearGradient
         id="linearGradient1029"
         x1="0.0000000"
         y1="0.50000000"
         x2="1.0000000"
         y2="0.50000000"
         gradientUnits="objectBoundingBox"
         spreadMethod="pad"
         xlink:href="#linearGradient13672" />
      <linearGradient
         id="linearGradient866"
         x1="0.0000000"
         y1="0.50000000"
         x2="1.0000000"
         y2="0.50000000"
         gradientUnits="objectBoundingBox"
         spreadMethod="pad"
         xlink:href="#linearGradient9261" />
      <linearGradient
         xlink:href="#linearGradient866"
         id="linearGradient586"
         x1="-0.0000000"
         y1="0.015625000"
         x2="0.99122804"
         y2="0.98437500" />
      <linearGradient
         id="linearGradient584">
        <stop
           style="stop-color:#ffffff;stop-opacity:1;"
           offset="0.00000000"
           id="stop585" />
        <stop
           style="stop-color:#ffffff;stop-opacity:0;"
           offset="1.00000000"
           id="stop586" />
      </linearGradient>
      <linearGradient
         xlink:href="#linearGradient584"
         id="linearGradient587"
         x1="0.0000000"
         y1="-0.0000000"
         x2="1.0000000"
         y2="1.0000000" />
      <defs
         id="defs1339">
        <linearGradient
           id="linearGradient1340">
          <stop
             style="stop-color:#ffffff;stop-opacity:1;"
             offset="0.00000000"
             id="stop1341" />
          <stop
             style="stop-color:#d9cce6;stop-opacity:1;"
             offset="1.00000000"
             id="stop1342" />
        </linearGradient>
        <linearGradient
           id="linearGradient1343"
           x1="0.0000000"
           y1="0.50000000"
           x2="1.0000000"
           y2="0.50000000"
           gradientUnits="objectBoundingBox"
           spreadMethod="pad"
           xlink:href="#linearGradient9265" />
        <linearGradient
           id="linearGradient578"
           x1="0.0000000"
           y1="0.50000000"
           x2="1.0000000"
           y2="0.50000000"
           gradientUnits="objectBoundingBox"
           spreadMethod="pad"
           xlink:href="#linearGradient1029" />
        <linearGradient
           xlink:href="#linearGradient584"
           id="linearGradient581"
           x1="0.010948900"
           y1="0.010309280"
           x2="0.68695652"
           y2="0.72656250" />
        <linearGradient
           xlink:href="#linearGradient584"
           id="linearGradient1350"
           x1="0.010948900"
           y1="0.010309280"
           x2="1.0145985"
           y2="0.96907216" />
        <linearGradient
           xlink:href="#linearGradient584"
           id="linearGradient860"
           x1="0.010948900"
           y1="0.010309280"
           x2="0.83277589"
           y2="0.71875000" />
        <linearGradient
           xlink:href="#linearGradient578"
           id="linearGradient861"
           x1="0.0000000"
           y1="0.023255810"
           x2="0.98611110"
           y2="0.97674417" />
        <linearGradient
           xlink:href="#linearGradient578"
           id="linearGradient862"
           x1="-0.0000000"
           y1="0.0077519398"
           x2="1.0000000"
           y2="0.99224806" />
        <linearGradient
           xlink:href="#linearGradient578"
           id="linearGradient869"
           x1="-0.0068493201"
           y1="0.0077519398"
           x2="0.97945207"
           y2="1.0000000" />
      </defs>
      <sodipodi:namedview
         id="namedview1355"
         pagecolor="#ffffff"
         bordercolor="#666666"
         borderopacity="1.0"
         inkscape:pageopacity="0.0"
         inkscape:pageshadow="2"
         inkscape:zoom="15.958944"
         inkscape:cx="12.882328"
         inkscape:cy="12.067810"
         inkscape:window-width="640"
         inkscape:window-height="525"
         inkscape:window-x="204"
         inkscape:window-y="142" />
    </defs>
    <sodipodi:namedview
       id="namedview9083"
       pagecolor="#ffffff"
       bordercolor="#666666"
       borderopacity="1.0"
       inkscape:pageopacity="0.0"
       inkscape:pageshadow="2"
       inkscape:zoom="10.041667"
       inkscape:cx="24.000000"
       inkscape:cy="24.000000"
       inkscape:window-width="876"
       inkscape:window-height="648"
       inkscape:window-x="113"
       inkscape:window-y="73" />
    <metadata
       id="metadata9084">
      <rdf:RDF
         id="RDF9085">
        <cc:Work
           rdf:about=""
           id="Work9086">
          <dc:format
             id="format9087">image/svg+xml</dc:format>
          <dc:type
             id="type9089"
             rdf:resource="http://purl.org/dc/dcmitype/StillImage" />
        </cc:Work>
      </rdf:RDF>
    </metadata>
    <linearGradient
       inkscape:collect="always"
       xlink:href="#linearGradient9265"
       id="linearGradient9264"
       x1="0.63333333"
       y1="0.18750000"
       x2="1.6000000"
       y2="0.95312500" />
    <linearGradient
       inkscape:collect="always"
       xlink:href="#linearGradient9265"
       id="linearGradient9268"
       x1="0.16071428"
       y1="-0.085365854"
       x2="0.75714284"
       y2="1.1341463" />
    <linearGradient
       inkscape:collect="always"
       xlink:href="#linearGradient4287"
       id="linearGradient11806"
       x1="-0.015151516"
       y1="0.023437500"
       x2="0.97727275"
       y2="1.0000000" />
    <linearGradient
       inkscape:collect="always"
       xlink:href="#linearGradient9261"
       id="linearGradient13049"
       x1="-0.23387097"
       y1="-0.14843750"
       x2="0.74193549"
       y2="0.95312500" />
    <linearGradient
       inkscape:collect="always"
       xlink:href="#linearGradient13672"
       id="linearGradient13671"
       x1="0.21428572"
       y1="-0.15957446"
       x2="0.62857145"
       y2="0.87234044" />
    <linearGradient
       inkscape:collect="always"
       xlink:href="#linearGradient9265"
       id="linearGradient16790"
       x1="0.39523810"
       y1="0.22656250"
       x2="1.1619048"
       y2="1.3125000" />
    <linearGradient
       inkscape:collect="always"
       xlink:href="#linearGradient9265"
       id="linearGradient16791"
       x1="-0.15277778"
       y1="0.015625000"
       x2="1.0138888"
       y2="1.0078125" />
    <linearGradient
       inkscape:collect="always"
       xlink:href="#linearGradient9265"
       id="linearGradient16792"
       x1="0.10500000"
       y1="0.054687500"
       x2="1.1550000"
       y2="1.0859375" />
    <linearGradient
       inkscape:collect="always"
       xlink:href="#linearGradient9265"
       id="linearGradient16793"
       x1="-0.16417910"
       y1="-0.14843750"
       x2="0.93283582"
       y2="0.94531250" />
  </defs>
  <sodipodi:namedview
     id="base"
     pagecolor="#ffffff"
     bordercolor="#666666"
     borderopacity="1.0"
     inkscape:pageopacity="0.0"
     inkscape:pageshadow="2"
     inkscape:zoom="10.208333"
     inkscape:cx="24.000000"
     inkscape:cy="24.000001"
     inkscape:window-width="754"
     inkscape:window-height="656"
     inkscape:window-x="354"
     inkscape:window-y="100" />
  <metadata
     id="metadata4">
    <rdf:RDF
       id="RDF5">
      <cc:Work
         rdf:about=""
         id="Work6">
        <dc:format
           id="format7">image/svg+xml</dc:format>
        <dc:type
           id="type9"
           rdf:resource="http://purl.org/dc/dcmitype/StillImage" />
      </cc:Work>
    </rdf:RDF>
  </metadata>
  <path
     style="opacity:0.29999998;fill:#000000;fill-opacity:1.0000000;fill-rule:evenodd;stroke:none;stroke-width:1.8750000;stroke-linecap:butt;stroke-linejoin:miter;stroke-miterlimit:4.0000000;stroke-opacity:1.0000000;"
     d="M 39.930485,15.447704 C 24.703908,15.447704 27.274235,15.307687 27.274235,22.291454 C 27.274235,26.600271 32.818741,27.291971 32.867985,29.603954 C 32.881222,30.225391 32.454077,30.855547 31.867985,31.541454 C 29.122902,28.732309 25.417131,26.853954 21.180485,26.853954 C 14.044733,26.853954 8.1293407,31.814944 6.4929847,38.447704 C 6.5399103,38.447704 8.0409781,38.447704 8.2742347,38.447704 L 8.2742347,45.697704 C 7.6804847,45.697704 7.0867347,45.697704 6.4929847,45.697704 C 8.1293407,52.330462 14.044733,57.291453 21.180485,57.291454 C 26.760937,57.291453 31.547344,54.223929 34.180485,49.728954 C 35.835438,49.904273 37.782621,49.916454 40.117985,49.916454 C 48.912712,49.916454 52.774235,49.850982 52.774235,39.728954 C 52.774236,34.082661 47.229729,31.822187 47.180485,29.510204 C 47.132135,27.240162 52.586735,26.524385 52.586735,22.291454 C 52.586737,15.307687 54.965368,15.447703 39.930485,15.447704 z "
     id="path16803"
     transform="matrix(1.195746,0.000000,0.000000,1.195746,-3.033911,-10.69054)" />
  <path
     style="fill:url(#linearGradient13671);fill-opacity:1.00000000;fill-rule:evenodd;stroke:#261933;stroke-width:1.5680588;stroke-linecap:butt;stroke-linejoin:miter;stroke-miterlimit:4.0000000;stroke-opacity:1.0000000;stroke-dasharray:none;"
     d="M 28.925858,14.642010 L 28.925858,21.967272 L 54.884972,21.967272 L 54.884972,14.642010 L 28.925858,14.642010 z "
     id="rect9925"
     sodipodi:nodetypes="ccccc"
     transform="matrix(1.195746,0.000000,0.000000,1.195746,-31.43287,13.22437)" />
  <path
     style="fill:url(#linearGradient13049);fill-opacity:1.00000000;fill-rule:evenodd;stroke:#261933;stroke-width:1.5680588;stroke-linecap:round;stroke-linejoin:round;stroke-miterlimit:4.0000000;stroke-opacity:1.0000000;stroke-dasharray:none;"
     d="M 41.848694,3.1138306 C 34.712942,3.1138306 28.797550,8.0748211 27.161194,14.707581 C 27.935878,14.707581 55.737285,14.707581 56.567444,14.707581 C 54.931088,8.0748207 48.984446,3.1138305 41.848694,3.1138306 z M 27.161194,21.957581 C 28.797550,28.590341 34.712942,33.551330 41.848694,33.551331 C 48.984446,33.551331 54.931088,28.590341 56.567444,21.957581 C 46.765361,21.957581 36.963277,21.957581 27.161194,21.957581 z "
     id="path9281"
     sodipodi:nodetypes="cccccccc"
     transform="matrix(1.195746,0.000000,0.000000,1.195746,-31.43287,13.22437)" />
  <path
     style="fill:url(#linearGradient11806);fill-opacity:1.00000000;fill-rule:evenodd;stroke:#261933;stroke-width:0.90370154;stroke-linecap:butt;stroke-linejoin:round;stroke-miterlimit:4.0000000;stroke-opacity:1.0000000;stroke-dasharray:none;"
     d="M 11.577325,32.468968 L 11.577325,37.390347 L 16.597863,37.390347 L 16.597863,32.468968 L 11.577325,32.468968 z "
     id="rect10557"
     transform="matrix(1.037400,0.000000,0.000000,1.037400,-1.124676,-1.124676)" />
  <path
     style="fill:url(#linearGradient16790);fill-opacity:1.0000000;fill-rule:evenodd;stroke:none;stroke-width:1.0000000pt;stroke-linecap:butt;stroke-linejoin:miter;stroke-opacity:1.0000000;"
     d="M 29.160562,13.234672 C 30.155182,11.188930 31.724159,8.5410484 33.852085,7.0652292 C 35.980010,5.5894101 40.008919,4.1173265 43.624572,4.4680116 C 40.504829,5.1058756 37.274417,6.5251931 35.146491,8.0010122 C 33.018565,9.4768314 30.876631,11.404199 29.160562,13.234672 z "
     id="path13681"
     sodipodi:nodetypes="czczc"
     transform="matrix(1.195746,0.000000,0.000000,1.195746,-31.43287,13.22437)" />
  <path
     style="fill:url(#linearGradient16792);fill-opacity:1.0000000;fill-rule:evenodd;stroke:none;stroke-width:1.0000000pt;stroke-linecap:butt;stroke-linejoin:miter;stroke-opacity:1.0000000;"
     d="M 36.569656,30.799664 C 33.920369,30.524165 28.594629,24.445328 29.159162,23.526882 C 29.567950,22.861818 32.134776,23.338300 40.920115,23.456440 C 38.170669,23.939741 33.825645,24.374198 33.063103,25.577081 C 32.300562,26.779964 35.377513,29.070520 36.569656,30.799664 z "
     id="path14303"
     sodipodi:nodetypes="csczc"
     transform="matrix(1.195746,0.000000,0.000000,1.195746,-31.43287,13.22437)" />
  <path
     style="fill:url(#linearGradient16791);fill-opacity:1.0000000;fill-rule:evenodd;stroke:none;stroke-width:1.0000000pt;stroke-linecap:butt;stroke-linejoin:miter;stroke-opacity:1.0000000;"
     d="M 30.203946,20.579535 C 30.225426,19.054452 29.912145,16.423825 30.200790,16.054982 C 30.497565,15.675750 31.868803,15.881411 32.677462,15.904469 C 31.994528,15.997973 31.094426,16.109932 30.797651,16.438467 C 30.492375,16.776413 30.418747,19.204812 30.203946,20.579535 z "
     id="path14925"
     sodipodi:nodetypes="czczc"
     transform="matrix(1.195746,0.000000,0.000000,1.195746,-31.43287,13.22437)" />
  <path
     style="fill:url(#linearGradient16793);fill-opacity:1.0000000;fill-rule:evenodd;stroke:none;stroke-width:1.0000000pt;stroke-linecap:butt;stroke-linejoin:miter;stroke-opacity:1.0000000;"
     d="M 12.358636,36.343702 C 12.296571,35.437324 12.128634,34.235902 12.399875,33.260674 C 13.307935,33.013238 14.518709,33.173948 15.578126,33.221559 C 14.783136,33.423919 13.487139,33.422003 12.988463,33.942359 C 12.489788,34.462715 12.697458,35.596323 12.358636,36.343702 z "
     id="path15547"
     sodipodi:nodetypes="ccczc"
     transform="matrix(1.037400,0.000000,0.000000,1.037400,-1.124676,-1.124676)" />
  <path
     style="fill:url(#linearGradient3588);fill-opacity:1.00000000;fill-rule:evenodd;stroke:#261933;stroke-width:1.5680588;stroke-linecap:butt;stroke-linejoin:miter;stroke-miterlimit:4.0000000;stroke-opacity:1.0000000;stroke-dasharray:none;"
     d="M 16.548936,18.374677 C 1.3223599,18.374677 3.9004780,18.240648 3.9004780,25.224415 C 3.9004780,29.533232 9.4325015,30.233316 9.4817454,32.545299 C 9.5300963,34.815341 4.0816880,37.048468 4.0816880,42.656817 C 4.0816880,52.996582 7.8813003,52.852720 16.730146,52.852720 C 25.524873,52.852720 29.378604,52.778845 29.378604,42.656817 C 29.378604,37.010525 23.846580,34.748556 23.797336,32.436573 C 23.748985,30.166531 29.197394,29.457346 29.197394,25.224415 C 29.197395,18.240648 31.583819,18.374676 16.548936,18.374677 z "
     id="path917"
     sodipodi:nodetypes="cssszsssz"
     transform="matrix(1.195746,0.000000,0.000000,1.195746,21.23430,-18.67103)" />
  <path
     style="fill:url(#linearGradient9264);fill-opacity:1.0000000;fill-rule:evenodd;stroke:none;stroke-width:1.0000000pt;stroke-linecap:butt;stroke-linejoin:miter;stroke-opacity:1.0000000;"
     d="M 26.928877,20.095313 C 19.798517,19.787657 7.0755365,19.536429 6.0264221,20.421065 C 5.0358064,21.256374 5.2029921,24.873018 5.9178380,26.393196 C 6.6536568,27.957975 11.136520,29.907778 11.227007,32.359971 C 11.317494,34.812164 6.5602944,38.228872 5.9721300,41.214937 C 5.3839656,44.201002 5.2844303,50.281716 10.315497,50.770346 C 9.0305845,48.924415 8.4152742,44.191953 9.1753634,41.214936 C 9.9354526,38.237920 12.930566,35.577607 12.650057,32.365325 C 12.509803,30.759184 9.3294996,27.300302 8.2113051,26.123167 C 7.1160509,24.970180 6.9710416,23.472733 8.3066900,22.538457 C 9.6750003,21.581334 20.165817,20.827883 26.928877,20.095313 z "
     id="path2186"
     sodipodi:nodetypes="czzzzczzzzc"
     transform="matrix(1.195746,0.000000,0.000000,1.195746,21.23430,-18.67103)" />
  <path
     style="fill:url(#linearGradient3581);fill-opacity:1.00000000;fill-rule:evenodd;stroke:#261933;stroke-width:1.0453725;stroke-linecap:butt;stroke-linejoin:miter;stroke-miterlimit:4.0000000;stroke-opacity:1.0000000;stroke-dasharray:none;"
     d="M 7.4516207,24.056141 C 7.4516207,27.389345 25.662478,27.552061 25.662478,24.056141 C 25.662478,20.702248 7.4516207,20.793805 7.4516207,24.056141 z "
     id="path923"
     sodipodi:nodetypes="czz"
     transform="matrix(1.195746,0.000000,0.000000,1.195746,21.23430,-18.67103)" />
  <path
     style="fill:url(#linearGradient7782);fill-opacity:1.00000000;fill-rule:evenodd;stroke:#261933;stroke-width:0.78402936;stroke-linecap:butt;stroke-linejoin:miter;stroke-miterlimit:4.0000000;stroke-opacity:1.0000000;stroke-dasharray:none;"
     d="M 18.365738,24.096181 C 18.365738,25.094578 17.555446,25.904871 16.557049,25.904871 C 15.558652,25.904871 14.748360,25.094578 14.748360,24.096181 C 14.748360,23.097785 15.558652,22.287492 16.557049,22.287492 C 17.555446,22.287492 18.365738,23.097785 18.365738,24.096181 z "
     id="path7159"
     transform="matrix(1.195746,0.000000,0.000000,1.195746,21.23430,-18.67103)" />
  <path
     style="fill:url(#linearGradient9268);fill-opacity:1.0000000;fill-rule:evenodd;stroke:none;stroke-width:1.0000000pt;stroke-linecap:butt;stroke-linejoin:miter;stroke-opacity:1.0000000;"
     d="M 11.793963,25.352176 C 10.733648,25.107488 7.8928024,24.343168 8.6619560,23.835111 C 9.8755755,23.033466 15.816833,22.246469 18.606277,22.466855 C 16.616148,23.037794 10.236131,23.507667 10.227960,24.177673 C 10.219803,24.846487 11.386150,24.976988 11.793963,25.352176 z "
     id="path6537"
     sodipodi:nodetypes="csczc"
     transform="matrix(1.195746,0.000000,0.000000,1.195746,21.23430,-18.67103)" />
</svg>
