<?xml version="1.0" encoding="UTF-8" standalone="no"?>
<!DOCTYPE svg PUBLIC "-//W3C//DTD SVG 20010904//EN"
"http://www.w3.org/TR/2001/REC-SVG-20010904/DTD/svg10.dtd">
<!-- Created with Inkscape (http://www.inkscape.org/) -->
<svg
   version="1.0"
   x="0.0000000"
   y="0.0000000"
   width="60.000000"
   height="60.000000"
   id="svg1"
   sodipodi:version="0.32"
   inkscape:version="0.39"
   sodipodi:docname="gnome-nibbles.svg"
   sodipodi:docbase="/home/stefan/new-lila-icons/makzu"
   xmlns="http://www.w3.org/2000/svg"
   xmlns:cc="http://web.resource.org/cc/"
   xmlns:inkscape="http://www.inkscape.org/namespaces/inkscape"
   xmlns:sodipodi="http://sodipodi.sourceforge.net/DTD/sodipodi-0.dtd"
   xmlns:rdf="http://www.w3.org/1999/02/22-rdf-syntax-ns#"
   xmlns:dc="http://purl.org/dc/elements/1.1/"
   xmlns:xlink="http://www.w3.org/1999/xlink">
  <sodipodi:namedview
     id="base"
     pagecolor="#ffffff"
     bordercolor="#666666"
     borderopacity="1.0"
     inkscape:pageopacity="0.0"
     inkscape:pageshadow="2"
     inkscape:zoom="9.1458333"
     inkscape:cx="24.000000"
     inkscape:cy="24.000000"
     inkscape:window-width="756"
     inkscape:window-height="605"
     inkscape:window-x="282"
     inkscape:window-y="25" />
  <defs
     id="defs3">
    <linearGradient
       id="linearGradient3417">
      <stop
         style="stop-color:#ffffff;stop-opacity:1.0000000;"
         offset="0.0000000"
         id="stop3418" />
      <stop
         style="stop-color:#ffffff;stop-opacity:0.0000000;"
         offset="1.0000000"
         id="stop3419" />
    </linearGradient>
    <linearGradient
       id="linearGradient843">
      <stop
         style="stop-color:#d9cce6;stop-opacity:1.0000000;"
         offset="0.0000000"
         id="stop844" />
      <stop
         style="stop-color:#73667f;stop-opacity:1.0000000;"
         offset="1.0000000"
         id="stop845" />
    </linearGradient>
    <linearGradient
       id="linearGradient826">
      <stop
         style="stop-color:#f50000;stop-opacity:1.0000000;"
         offset="0.0000000"
         id="stop827" />
      <stop
         style="stop-color:#a80000;stop-opacity:1.0000000;"
         offset="1.0000000"
         id="stop828" />
    </linearGradient>
    <linearGradient
       id="linearGradient829"
       xlink:href="#linearGradient3417"
       x1="1.4791666"
       y1="1.4609375"
       x2="0.0069444445"
       y2="-1.3895135e-14" />
    <radialGradient
       cx="0.44529960"
       cy="0.35940814"
       r="0.50000000"
       fx="0.43748525"
       fy="0.36721879"
       id="radialGradient830"
       xlink:href="#linearGradient826" />
    <radialGradient
       id="radialGradient842"
       xlink:href="#linearGradient843"
       cx="0.36847702"
       cy="0.45347145"
       r="0.94467700"
       fx="0.37636128"
       fy="0.49148050" />
    <radialGradient
       inkscape:collect="always"
       xlink:href="#linearGradient826"
       id="radialGradient1545"
       cx="0.37497050"
       cy="0.29692289"
       r="0.50000000"
       fx="0.37497050"
       fy="0.29692289" />
    <radialGradient
       inkscape:collect="always"
       xlink:href="#linearGradient826"
       id="radialGradient1546"
       cx="0.38278481"
       cy="0.32035485"
       r="0.50000000"
       fx="0.38278481"
       fy="0.32035485" />
    <radialGradient
       inkscape:collect="always"
       xlink:href="#linearGradient826"
       id="radialGradient1547"
       cx="0.38278481"
       cy="0.30473354"
       r="0.50000000"
       fx="0.37497050"
       fy="0.29692289" />
    <radialGradient
       inkscape:collect="always"
       xlink:href="#linearGradient826"
       id="radialGradient1548"
       cx="0.39841351"
       cy="0.33597618"
       r="0.50000000"
       fx="0.39841351"
       fy="0.34378684" />
    <radialGradient
       inkscape:collect="always"
       xlink:href="#linearGradient826"
       id="radialGradient1550"
       cx="0.42185655"
       cy="0.35159749"
       r="0.50000000"
       fx="0.42185655"
       fy="0.35940814" />
    <linearGradient
       inkscape:collect="always"
       xlink:href="#linearGradient3417"
       id="linearGradient3416"
       x1="-0.096774191"
       y1="-0.11718750"
       x2="0.81451613"
       y2="0.87500000" />
    <linearGradient
       inkscape:collect="always"
       xlink:href="#linearGradient3417"
       id="linearGradient5289"
       x1="-2.9056618e-17"
       y1="-1.6219665e-16"
       x2="0.97674417"
       y2="1.0000000" />
  </defs>
  <metadata
     id="metadata20">
    <rdf:RDF
       id="RDF21">
      <cc:Work
         rdf:about=""
         id="Work22">
        <dc:format
           id="format23">image/svg+xml</dc:format>
        <dc:type
           id="type25"
           rdf:resource="http://purl.org/dc/dcmitype/StillImage" />
      </cc:Work>
    </rdf:RDF>
  </metadata>
  <path
     d="M 17.475298,11.815016 C 17.475298,8.3755520 14.696475,5.5873150 11.268623,5.5873150 C 7.8407710,5.5873150 5.0619480,8.3755520 5.0619490,11.815016 C 5.0619480,15.254481 7.8407710,18.042718 11.268623,18.042718 C 14.696475,18.042718 17.475298,15.254481 17.475298,11.815016 z "
     style="opacity:0.29999998;fill:#000000;fill-opacity:1.0000000;fill-rule:evenodd;stroke:none;stroke-width:1.8750000;stroke-linecap:round;stroke-linejoin:round;stroke-miterlimit:4.0000000;"
     id="path5290"
     transform="matrix(1.011600,0.000000,0.000000,1.011600,-0.689609,0.187853)" />
  <path
     d="M 31.648526,11.815016 C 31.648526,8.3755520 28.869703,5.5873150 25.441851,5.5873150 C 22.013999,5.5873150 19.235176,8.3755520 19.235177,11.815016 C 19.235176,15.254481 22.013999,18.042718 25.441851,18.042718 C 28.869703,18.042718 31.648526,15.254481 31.648526,11.815016 z "
     style="opacity:0.29999998;fill:#000000;fill-opacity:1.0000000;fill-rule:evenodd;stroke:none;stroke-width:1.8750000;stroke-linecap:round;stroke-linejoin:round;stroke-miterlimit:4.0000000;"
     id="path5291"
     transform="matrix(1.011600,0.000000,0.000000,1.011600,-0.689609,0.187853)" />
  <path
     d="M 45.821759,11.815016 C 45.821759,8.3755520 43.042936,5.5873150 39.615084,5.5873150 C 36.187232,5.5873150 33.408409,8.3755520 33.408410,11.815016 C 33.408409,15.254481 36.187232,18.042718 39.615084,18.042718 C 43.042936,18.042718 45.821759,15.254481 45.821759,11.815016 z "
     style="opacity:0.29999998;fill:#000000;fill-opacity:1.0000000;fill-rule:evenodd;stroke:none;stroke-width:1.8750000;stroke-linecap:round;stroke-linejoin:round;stroke-miterlimit:4.0000000;"
     id="path5292"
     transform="matrix(1.011600,0.000000,0.000000,1.011600,-0.689609,0.187853)" />
  <path
     d="M 59.994999,11.815016 C 59.994999,8.3755520 57.216176,5.5873150 53.788324,5.5873150 C 50.360472,5.5873150 47.581649,8.3755520 47.581650,11.815016 C 47.581649,15.254481 50.360472,18.042718 53.788324,18.042718 C 57.216176,18.042718 59.994999,15.254481 59.994999,11.815016 z "
     style="opacity:0.29999998;fill:#000000;fill-opacity:1.0000000;fill-rule:evenodd;stroke:none;stroke-width:1.8750000;stroke-linecap:round;stroke-linejoin:round;stroke-miterlimit:4.0000000;"
     id="path5293"
     transform="matrix(1.011600,0.000000,0.000000,1.011600,-0.689609,0.187853)" />
  <path
     d="M 59.994999,25.988256 C 59.994999,22.548792 57.216176,19.760555 53.788324,19.760555 C 50.360472,19.760555 47.581649,22.548792 47.581650,25.988256 C 47.581649,29.427721 50.360472,32.215958 53.788324,32.215958 C 57.216176,32.215958 59.994999,29.427721 59.994999,25.988256 z "
     style="opacity:0.29999998;fill:#000000;fill-opacity:1.0000000;fill-rule:evenodd;stroke:none;stroke-width:1.8750000;stroke-linecap:round;stroke-linejoin:round;stroke-miterlimit:4.0000000;"
     id="path5294"
     transform="matrix(1.011600,0.000000,0.000000,1.011600,-0.689609,0.187853)" />
  <path
     d="M 59.994999,40.161484 C 59.994999,36.722020 57.216176,33.933783 53.788324,33.933783 C 50.360472,33.933783 47.581649,36.722020 47.581650,40.161484 C 47.581649,43.600949 50.360472,46.389186 53.788324,46.389186 C 57.216176,46.389186 59.994999,43.600949 59.994999,40.161484 z "
     style="opacity:0.29999998;fill:#000000;fill-opacity:1.0000000;fill-rule:evenodd;stroke:none;stroke-width:1.8750000;stroke-linecap:round;stroke-linejoin:round;stroke-miterlimit:4.0000000;"
     id="path5295"
     transform="matrix(1.011600,0.000000,0.000000,1.011600,-0.689609,0.187853)" />
  <rect
     width="24.351496"
     height="24.351496"
     x="34.540180"
     y="-1.0732447"
     transform="matrix(0.715309,0.715309,-0.715309,0.715309,-0.689609,0.187853)"
     style="opacity:0.29999998;fill:#000000;fill-opacity:1.0000000;fill-rule:evenodd;stroke:none;stroke-width:1.8750006;stroke-linecap:round;stroke-linejoin:round;stroke-miterlimit:4.0000000;"
     id="rect5296" />
  <path
     d="M 14.031234,8.0028554 C 14.031234,4.5633909 11.252411,1.7751540 7.8245594,1.7751540 C 4.3967074,1.7751540 1.6178844,4.5633909 1.6178845,8.0028554 C 1.6178844,11.442320 4.3967074,14.230557 7.8245594,14.230557 C 11.252411,14.230557 14.031234,11.442320 14.031234,8.0028554 z "
     style="fill:url(#radialGradient1545);fill-opacity:1.0000000;fill-rule:evenodd;stroke:#261933;stroke-width:1.8534994;stroke-linecap:round;stroke-linejoin:round;stroke-miterlimit:4.0000000;stroke-dasharray:none;"
     id="path825"
     transform="matrix(1.011600,0.000000,0.000000,1.011600,-0.689609,0.187853)" />
  <path
     d="M 28.204462,8.0028554 C 28.204462,4.5633909 25.425639,1.7751540 21.997787,1.7751540 C 18.569935,1.7751540 15.791112,4.5633909 15.791113,8.0028554 C 15.791112,11.442320 18.569935,14.230557 21.997787,14.230557 C 25.425639,14.230557 28.204462,11.442320 28.204462,8.0028554 z "
     style="fill:url(#radialGradient1546);fill-opacity:1.0000000;fill-rule:evenodd;stroke:#261933;stroke-width:1.8534994;stroke-linecap:round;stroke-linejoin:round;stroke-miterlimit:4.0000000;stroke-dasharray:none;"
     id="path836"
     transform="matrix(1.011600,0.000000,0.000000,1.011600,-0.689609,0.187853)" />
  <path
     d="M 42.377695,8.0028554 C 42.377695,4.5633909 39.598872,1.7751540 36.171020,1.7751540 C 32.743168,1.7751540 29.964345,4.5633909 29.964346,8.0028554 C 29.964345,11.442320 32.743168,14.230557 36.171020,14.230557 C 39.598872,14.230557 42.377695,11.442320 42.377695,8.0028554 z "
     style="fill:url(#radialGradient1547);fill-opacity:1.0000000;fill-rule:evenodd;stroke:#261933;stroke-width:1.8534994;stroke-linecap:round;stroke-linejoin:round;stroke-miterlimit:4.0000000;stroke-dasharray:none;"
     id="path837"
     transform="matrix(1.011600,0.000000,0.000000,1.011600,-0.689609,0.187853)" />
  <path
     d="M 56.550935,8.0028554 C 56.550935,4.5633909 53.772112,1.7751540 50.344260,1.7751540 C 46.916408,1.7751540 44.137585,4.5633909 44.137586,8.0028554 C 44.137585,11.442320 46.916408,14.230557 50.344260,14.230557 C 53.772112,14.230557 56.550935,11.442320 56.550935,8.0028554 z "
     style="fill:url(#radialGradient1548);fill-opacity:1.0000000;fill-rule:evenodd;stroke:#261933;stroke-width:1.8534994;stroke-linecap:round;stroke-linejoin:round;stroke-miterlimit:4.0000000;stroke-dasharray:none;"
     id="path838"
     transform="matrix(1.011600,0.000000,0.000000,1.011600,-0.689609,0.187853)" />
  <path
     d="M 56.550935,22.176095 C 56.550935,18.736631 53.772112,15.948394 50.344260,15.948394 C 46.916408,15.948394 44.137585,18.736631 44.137586,22.176095 C 44.137585,25.615560 46.916408,28.403797 50.344260,28.403797 C 53.772112,28.403797 56.550935,25.615560 56.550935,22.176095 z "
     style="fill:url(#radialGradient1550);fill-opacity:1.0000000;fill-rule:evenodd;stroke:#261933;stroke-width:1.8534994;stroke-linecap:round;stroke-linejoin:round;stroke-miterlimit:4.0000000;stroke-dasharray:none;"
     id="path839"
     transform="matrix(1.011600,0.000000,0.000000,1.011600,-0.689609,0.187853)" />
  <path
     d="M 56.550935,36.349323 C 56.550935,32.909859 53.772112,30.121622 50.344260,30.121622 C 46.916408,30.121622 44.137585,32.909859 44.137586,36.349323 C 44.137585,39.788788 46.916408,42.577025 50.344260,42.577025 C 53.772112,42.577025 56.550935,39.788788 56.550935,36.349323 z "
     style="fill:url(#radialGradient830);fill-opacity:1.0000000;fill-rule:evenodd;stroke:#261933;stroke-width:1.8534994;stroke-linecap:round;stroke-linejoin:round;stroke-miterlimit:4.0000000;stroke-dasharray:none;"
     id="path840"
     transform="matrix(1.011600,0.000000,0.000000,1.011600,-0.689609,0.187853)" />
  <path
     transform="matrix(0.715309,0.715309,-0.715309,0.715309,-0.689609,0.187853)"
     style="fill:url(#radialGradient842);fill-opacity:1.0000000;fill-rule:evenodd;stroke:#261933;stroke-width:1.8535000;stroke-linecap:round;stroke-linejoin:round;stroke-miterlimit:4.0000000;"
     d="M 29.409225,-1.3335245 L 29.409225,23.017956 L 53.760706,23.017956 L 53.760706,-1.3335245 L 29.409225,-1.3335245 z "
     id="rect841" />
  <path
     style="fill:url(#linearGradient3416);fill-opacity:1.0000000;fill-rule:evenodd;stroke:none;stroke-width:1.0000000pt;stroke-linecap:butt;stroke-linejoin:miter;stroke-opacity:1.0000000;"
     d="M 4.3514252,11.705773 C 3.2306035,9.9915752 2.0163801,6.9038214 4.3514252,4.5852589 C 6.6699295,2.2831205 9.7027993,3.0908300 11.241182,4.3215361 C 8.5600007,3.1677491 6.5216437,4.2775823 5.4063162,5.3104964 C 4.2731241,6.3599552 3.4064187,9.4091875 4.3514252,11.705773 z "
     id="path2173"
     sodipodi:nodetypes="czczc"
     transform="matrix(1.011600,0.000000,0.000000,1.011600,-0.689609,0.187853)" />
  <path
     style="fill:url(#linearGradient3416);fill-opacity:1.0000000;fill-rule:evenodd;stroke:none;stroke-width:1.0000000pt;stroke-linecap:butt;stroke-linejoin:miter;stroke-opacity:1.0000000;"
     d="M 18.451686,11.712728 C 17.330864,9.9985299 16.116641,6.9107758 18.451686,4.5922133 C 20.770190,2.2900749 23.803060,3.0977844 25.341443,4.3284905 C 22.660262,3.1747035 20.621905,4.2845367 19.506577,5.3174508 C 18.373385,6.3669096 17.506680,9.4161419 18.451686,11.712728 z "
     id="path3420"
     sodipodi:nodetypes="czczc"
     transform="matrix(1.011600,0.000000,0.000000,1.011600,-0.689609,0.187853)" />
  <path
     style="fill:url(#linearGradient3416);fill-opacity:1.0000000;fill-rule:evenodd;stroke:none;stroke-width:1.0000000pt;stroke-linecap:butt;stroke-linejoin:miter;stroke-opacity:1.0000000;"
     d="M 32.659749,11.646797 C 31.538927,9.9325989 30.324703,6.8448451 32.659749,4.5262826 C 34.978253,2.2241442 38.011123,3.0318537 39.549505,4.2625598 C 36.868324,3.1087728 34.829967,4.2186060 33.714640,5.2515201 C 32.581447,6.3009789 31.714742,9.3502112 32.659749,11.646797 z "
     id="path3421"
     sodipodi:nodetypes="czczc"
     transform="matrix(1.011600,0.000000,0.000000,1.011600,-0.689609,0.187853)" />
  <path
     style="fill:url(#linearGradient3416);fill-opacity:1.0000000;fill-rule:evenodd;stroke:none;stroke-width:1.0000000pt;stroke-linecap:butt;stroke-linejoin:miter;stroke-opacity:1.0000000;"
     d="M 46.801880,11.712727 C 45.681059,9.9985291 44.466835,6.9107758 46.801880,4.5922133 C 49.120385,2.2900749 52.153255,3.0977844 53.691637,4.3284905 C 51.010456,3.1747035 48.972099,4.2845367 47.856771,5.3174508 C 46.723579,6.3669096 45.856874,9.4161421 46.801880,11.712727 z "
     id="path3422"
     sodipodi:nodetypes="czczc"
     transform="matrix(1.011600,0.000000,0.000000,1.011600,-0.689609,0.187853)" />
  <path
     style="fill:url(#linearGradient3416);fill-opacity:1.0000000;fill-rule:evenodd;stroke:none;stroke-width:1.0000000pt;stroke-linecap:butt;stroke-linejoin:miter;stroke-opacity:1.0000000;"
     d="M 46.768915,25.887824 C 45.648094,24.173627 44.433870,21.085873 46.768915,18.767310 C 49.087420,16.465172 52.120289,17.272881 53.658672,18.503587 C 50.977491,17.349800 48.939134,18.459634 47.823806,19.492548 C 46.690614,20.542007 45.823909,23.591239 46.768915,25.887824 z "
     id="path3423"
     sodipodi:nodetypes="czczc"
     transform="matrix(1.011600,0.000000,0.000000,1.011600,-0.689609,0.187853)" />
  <path
     style="fill:url(#linearGradient3416);fill-opacity:1.0000000;fill-rule:evenodd;stroke:none;stroke-width:1.0000000pt;stroke-linecap:butt;stroke-linejoin:miter;stroke-opacity:1.0000000;"
     d="M 46.801881,40.095887 C 45.681059,38.381689 44.466836,35.293936 46.801881,32.975373 C 49.120385,30.673235 52.153255,31.480944 53.691638,32.711650 C 51.010457,31.557863 48.972100,32.667697 47.856772,33.700611 C 46.723580,34.750069 45.856875,37.799302 46.801881,40.095887 z "
     id="path3424"
     sodipodi:nodetypes="czczc"
     transform="matrix(1.011600,0.000000,0.000000,1.011600,-0.689609,0.187853)" />
  <path
     style="fill:url(#linearGradient5289);fill-opacity:1.0000000;fill-rule:evenodd;stroke:none;stroke-width:1.0000000pt;stroke-linecap:butt;stroke-linejoin:miter;stroke-opacity:1.0000000;"
     d="M 11.058408,41.025375 C 10.148491,39.859545 6.7504728,37.283064 7.2367113,36.787416 C 11.348410,32.596151 17.889089,26.286038 21.667384,22.892472 C 22.151506,22.457646 28.653234,29.377494 31.326114,31.936634 C 28.795409,30.429585 22.777859,25.674588 21.622554,25.868483 C 20.463150,26.063066 9.6207735,35.905830 9.6403609,37.138350 C 9.6621198,38.507512 10.745624,39.802675 11.058408,41.025375 z "
     id="path4046"
     sodipodi:nodetypes="cssczzc"
     transform="matrix(1.011600,0.000000,0.000000,1.011600,-0.689609,0.187853)" />
  <path
     style="fill:url(#linearGradient829);fill-opacity:1.0000000;fill-rule:evenodd;stroke:none;stroke-width:1.0000000pt;stroke-linecap:butt;stroke-linejoin:miter;stroke-opacity:1.0000000;"
     d="M 13.729210,38.307907 C 15.215439,38.358563 21.032726,38.474570 21.335588,38.165471 C 21.629000,37.866016 21.551485,32.613944 21.414096,31.372771 C 21.252594,32.493564 21.032197,36.550538 20.318523,37.155609 C 19.604848,37.760681 15.701628,38.120422 13.729210,38.307907 z "
     id="path1573"
     sodipodi:nodetypes="czczc"
     transform="matrix(1.011600,0.000000,0.000000,1.011600,-0.348000,-0.348000)" />
</svg>
