<?xml version="1.0" encoding="UTF-8" standalone="no"?>
<!DOCTYPE svg PUBLIC "-//W3C//DTD SVG 20010904//EN"
"http://www.w3.org/TR/2001/REC-SVG-20010904/DTD/svg10.dtd">
<!-- Created with Inkscape (http://www.inkscape.org/) -->
<svg
   id="svg1"
   sodipodi:version="0.32"
   inkscape:version="0.39"
   width="48pt"
   height="48pt"
   sodipodi:docbase="/home/scaba/files/pre-release/lila-gnome/Lila/scalable/apps"
   sodipodi:docname="gnome-eog.svg"
   xmlns="http://www.w3.org/2000/svg"
   xmlns:inkscape="http://www.inkscape.org/namespaces/inkscape"
   xmlns:sodipodi="http://sodipodi.sourceforge.net/DTD/sodipodi-0.dtd"
   xmlns:xlink="http://www.w3.org/1999/xlink"
   xmlns:rdf="http://www.w3.org/1999/02/22-rdf-syntax-ns#"
   xmlns:cc="http://web.resource.org/cc/"
   xmlns:dc="http://purl.org/dc/elements/1.1/">
  <defs
     id="defs3">
    <linearGradient
       id="linearGradient642">
      <stop
         style="stop-color:#d9cce6;stop-opacity:1;"
         offset="0.00000000"
         id="stop643" />
      <stop
         style="stop-color:#73667f;stop-opacity:1;"
         offset="1.00000000"
         id="stop644" />
    </linearGradient>
    <linearGradient
       id="linearGradient866">
      <stop
         style="stop-color:#ffffff;stop-opacity:1;"
         offset="0.00000000"
         id="stop867" />
      <stop
         style="stop-color:#d9cce6;stop-opacity:1;"
         offset="1.00000000"
         id="stop868" />
    </linearGradient>
    <linearGradient
       id="linearGradient584">
      <stop
         style="stop-color:#ffffff;stop-opacity:1;"
         offset="0.00000000"
         id="stop585" />
      <stop
         style="stop-color:#ffffff;stop-opacity:0;"
         offset="1.00000000"
         id="stop586" />
    </linearGradient>
    <linearGradient
       xlink:href="#linearGradient866"
       id="linearGradient586"
       x1="0.00000000"
       y1="0.00000000"
       x2="0.98484850"
       y2="0.99218750" />
    <linearGradient
       xlink:href="#linearGradient642"
       id="linearGradient587"
       x1="0.00000000"
       y1="0.00000000"
       x2="0.99218750"
       y2="0.98437500" />
    <linearGradient
       xlink:href="#linearGradient866"
       id="linearGradient638"
       x1="0.00000000"
       y1="-0.00000000"
       x2="0.94999999"
       y2="0.97656250" />
    <radialGradient
       xlink:href="#linearGradient866"
       id="radialGradient639" />
    <linearGradient
       xlink:href="#linearGradient584"
       id="linearGradient640"
       x1="0.00000000"
       y1="-0.00000000"
       x2="0.99637681"
       y2="1.00819671" />
    <linearGradient
       xlink:href="#linearGradient584"
       id="linearGradient641"
       x1="0.00000000"
       y1="0.00000000"
       x2="0.95945948"
       y2="0.96093750" />
    <linearGradient
       xlink:href="#linearGradient584"
       id="linearGradient645"
       x1="-0.00000000"
       y1="-0.00000000"
       x2="0.99270076"
       y2="0.94999999" />
    <linearGradient
       xlink:href="#linearGradient584"
       id="linearGradient699"
       x1="0.00000000"
       y1="0.00000000"
       x2="0.98701298"
       y2="1.00781250" />
    <linearGradient
       xlink:href="#linearGradient584"
       id="linearGradient700"
       x1="-0.00000000"
       y1="-0.00000000"
       x2="0.96875000"
       y2="0.99218750" />
    <linearGradient
       xlink:href="#linearGradient584"
       id="linearGradient701"
       x1="-0.00000000"
       y1="-0.00000000"
       x2="0.97058821"
       y2="0.97656250" />
    <linearGradient
       xlink:href="#linearGradient584"
       id="linearGradient702"
       x1="-0.00000000"
       y1="0.00000000"
       x2="1.01485145"
       y2="1.02343750" />
    <linearGradient
       xlink:href="#linearGradient584"
       id="linearGradient703"
       x1="0.00000000"
       y1="-0.00000000"
       x2="1.01315784"
       y2="1.00781250" />
    <linearGradient
       xlink:href="#linearGradient642"
       id="linearGradient704"
       x1="0.26760563"
       y1="0.31250000"
       x2="0.65492958"
       y2="0.65625000" />
  </defs>
  <sodipodi:namedview
     id="base"
     pagecolor="#ffffff"
     bordercolor="#666666"
     borderopacity="1.0"
     inkscape:pageopacity="0.0"
     inkscape:pageshadow="2"
     inkscape:zoom="7.9794719"
     inkscape:cx="21.350369"
     inkscape:cy="24.273877"
     inkscape:window-width="771"
     inkscape:window-height="689"
     inkscape:window-x="74"
     inkscape:window-y="49" />
  <path
     style="opacity:0.29636899;fill:#000000;fill-opacity:1.0000000;fill-rule:evenodd;stroke:none;stroke-width:1.8750000;stroke-linecap:butt;stroke-linejoin:miter;stroke-opacity:1.0000000;"
     d="M 1.6822922,32.270854 C 1.8482261,25.965365 14.013417,13.617603 29.891949,13.355707 C 45.540676,13.100293 59.044797,28.155564 59.079977,33.575347 C 59.278175,38.988570 45.261339,50.194754 28.913580,50.533753 C 13.248966,50.861859 1.5221031,38.358046 1.6822922,32.270854 z "
     id="path788"
     sodipodi:nodetypes="cssss" />
  <path
     style="fill:url(#linearGradient586);fill-opacity:1.0000000;fill-rule:evenodd;stroke:#261933;stroke-width:1.8548468;stroke-linecap:butt;stroke-linejoin:miter;stroke-opacity:1.0000000;"
     d="M 2.3396863,30.657309 C 2.4973841,24.664786 14.058769,12.929891 29.149187,12.680995 C 44.021207,12.438258 56.855065,26.746276 56.888498,31.897054 C 57.076860,37.041599 43.755734,47.691575 28.219379,48.013748 C 13.332261,48.325569 2.1874480,36.442369 2.3396863,30.657309 z "
     id="path742"
     sodipodi:nodetypes="cssss" />
  <path
     style="font-size:12.000000;fill:url(#linearGradient587);fill-rule:evenodd;stroke:#261933;stroke-width:1.8548468;stroke-opacity:1.0000000;"
     d="M 44.456664,30.424854 C 44.456664,38.917353 37.564201,45.809816 29.071703,45.809816 C 20.579204,45.809816 13.686741,38.917353 13.686741,30.424854 C 13.686741,21.932356 20.579204,15.039892 29.071703,15.039892 C 37.564201,15.039892 44.456664,21.932356 44.456664,30.424854 z "
     id="path744" />
  <path
     style="font-size:12.000000;fill:#000000;fill-opacity:1.0000000;fill-rule:evenodd;stroke-width:1.0000000pt;"
     d="M 36.252973,30.424854 C 36.252973,34.388914 33.035764,37.606123 29.071703,37.606123 C 25.107642,37.606123 21.890433,34.388914 21.890433,30.424854 C 21.890433,26.460793 25.107642,23.243584 29.071703,23.243584 C 33.035764,23.243584 36.252973,26.460793 36.252973,30.424854 z "
     id="path745" />
  <g
     id="g766"
     style="opacity:0.40356699;"
     transform="matrix(0.989252,0.000000,0.000000,0.989252,0.170131,0.436235)">
    <path
       style="fill:url(#linearGradient638);fill-opacity:1.0000000;fill-rule:evenodd;stroke:none;stroke-width:1.0000000pt;stroke-linecap:butt;stroke-linejoin:miter;stroke-opacity:1.0000000;"
       d="M 29.353962,38.399915 C 29.190081,38.399915 28.903339,39.268922 28.910884,39.729151 C 28.940263,41.521239 29.298423,45.156864 29.464732,45.156864 C 29.630732,45.156864 29.937013,41.510446 29.907811,39.729151 C 29.900089,39.258129 29.522390,38.399915 29.353962,38.399915 z "
       id="path746"
       sodipodi:nodetypes="cssss" />
    <path
       style="fill:url(#linearGradient638);fill-opacity:1.0000000;fill-rule:evenodd;stroke:none;stroke-width:1.0000000pt;stroke-linecap:butt;stroke-linejoin:miter;stroke-opacity:1.0000000;"
       d="M 37.108915,30.081697 C 37.102991,30.245471 37.961065,30.563438 38.421266,30.572535 C 40.213245,30.607955 43.859440,30.381450 43.865452,30.215250 C 43.871453,30.049358 40.238489,29.611467 38.457303,29.576259 C 37.986309,29.566950 37.115003,29.913379 37.108915,30.081697 z "
       id="path747"
       sodipodi:nodetypes="cssss" />
    <path
       style="fill:url(#linearGradient638);fill-opacity:1.0000000;fill-rule:evenodd;stroke:none;stroke-width:1.0000000pt;stroke-linecap:butt;stroke-linejoin:miter;stroke-opacity:1.0000000;"
       d="M 29.353962,22.338313 C 29.190081,22.338313 28.903339,21.469306 28.910884,21.009077 C 28.940263,19.216989 29.298423,15.581364 29.464732,15.581364 C 29.630732,15.581364 29.937013,19.227782 29.907811,21.009077 C 29.900089,21.480099 29.522390,22.338313 29.353962,22.338313 z "
       id="path748"
       sodipodi:nodetypes="cssss" />
    <path
       style="fill:url(#linearGradient638);fill-opacity:1.0000000;fill-rule:evenodd;stroke:none;stroke-width:1.0000000pt;stroke-linecap:butt;stroke-linejoin:miter;stroke-opacity:1.0000000;"
       d="M 21.157646,30.081697 C 21.163570,30.245471 20.305496,30.563438 19.845295,30.572535 C 18.053316,30.607955 14.407121,30.381450 14.401109,30.215250 C 14.395108,30.049358 18.028072,29.611467 19.809258,29.576259 C 20.280252,29.566950 21.151558,29.913379 21.157646,30.081697 z "
       id="path749"
       sodipodi:nodetypes="cssss" />
    <path
       style="fill:url(#linearGradient638);fill-opacity:1.0000000;fill-rule:evenodd;stroke:none;stroke-width:1.0000000pt;stroke-linecap:butt;stroke-linejoin:miter;stroke-opacity:1.0000000;"
       d="M 31.734419,37.970203 C 31.577967,38.018984 31.562892,38.933952 31.707088,39.371074 C 32.268571,41.073184 33.692681,44.437401 33.851452,44.387897 C 34.009927,44.338485 33.216927,40.766186 32.658825,39.074327 C 32.511248,38.626954 31.895213,37.920068 31.734419,37.970203 z "
       id="path750"
       sodipodi:nodetypes="cssss" />
    <path
       style="fill:url(#linearGradient638);fill-opacity:1.0000000;fill-rule:evenodd;stroke:none;stroke-width:1.0000000pt;stroke-linecap:butt;stroke-linejoin:miter;stroke-opacity:1.0000000;"
       d="M 36.661838,27.720686 C 36.704932,27.878800 37.618757,27.926938 38.060806,27.798639 C 39.782100,27.299050 43.195597,25.997480 43.151865,25.837024 C 43.108214,25.676866 39.509584,26.340217 37.798656,26.836796 C 37.346241,26.968105 36.617548,27.558186 36.661838,27.720686 z "
       id="path751"
       sodipodi:nodetypes="cssss" />
    <path
       style="fill:url(#linearGradient638);fill-opacity:1.0000000;fill-rule:evenodd;stroke:none;stroke-width:1.0000000pt;stroke-linecap:butt;stroke-linejoin:miter;stroke-opacity:1.0000000;"
       d="M 26.953498,22.636649 C 26.797046,22.685430 26.264632,21.941166 26.134842,21.499553 C 25.629454,19.779953 24.889193,16.202515 25.047964,16.153011 C 25.206439,16.103599 26.584235,19.493562 27.086580,21.202806 C 27.219413,21.654776 27.114292,22.586515 26.953498,22.636649 z "
       id="path752"
       sodipodi:nodetypes="cssss" />
    <path
       style="fill:url(#linearGradient638);fill-opacity:1.0000000;fill-rule:evenodd;stroke:none;stroke-width:1.0000000pt;stroke-linecap:butt;stroke-linejoin:miter;stroke-opacity:1.0000000;"
       d="M 21.433617,32.468765 C 21.488021,32.623352 20.763489,33.182322 20.326856,33.327990 C 18.626648,33.895208 15.078308,34.764302 15.023097,34.607425 C 14.967989,34.450839 18.305932,32.951404 19.995900,32.387601 C 20.442773,32.238517 21.377703,32.309889 21.433617,32.468765 z "
       id="path753"
       sodipodi:nodetypes="cssss" />
    <path
       style="fill:url(#linearGradient638);fill-opacity:1.0000000;fill-rule:evenodd;stroke:none;stroke-width:1.0000000pt;stroke-linecap:butt;stroke-linejoin:miter;stroke-opacity:1.0000000;"
       d="M 34.032530,36.738708 C 33.899519,36.834441 34.174431,37.707262 34.449405,38.076393 C 35.520123,39.513753 37.934620,42.255331 38.069603,42.158179 C 38.204334,42.061207 36.322816,38.922727 35.258545,37.494024 C 34.977124,37.116236 34.169232,36.640317 34.032530,36.738708 z "
       id="path754"
       sodipodi:nodetypes="cssss" />
    <path
       style="fill:url(#linearGradient638);fill-opacity:1.0000000;fill-rule:evenodd;stroke:none;stroke-width:1.0000000pt;stroke-linecap:butt;stroke-linejoin:miter;stroke-opacity:1.0000000;"
       d="M 35.467519,25.457180 C 35.558382,25.593566 36.440570,25.350382 36.819400,25.088933 C 38.294525,24.070871 41.121590,21.757055 41.029382,21.618649 C 40.937344,21.480500 37.732901,23.247339 36.266660,24.259269 C 35.878947,24.526851 35.374135,25.317011 35.467519,25.457180 z "
       id="path755"
       sodipodi:nodetypes="cssss" />
    <path
       style="fill:url(#linearGradient638);fill-opacity:1.0000000;fill-rule:evenodd;stroke:none;stroke-width:1.0000000pt;stroke-linecap:butt;stroke-linejoin:miter;stroke-opacity:1.0000000;"
       d="M 24.649916,23.702541 C 24.516905,23.798274 23.776533,23.260462 23.513807,22.882516 C 22.490778,21.410832 20.657671,18.250806 20.792654,18.153654 C 20.927385,18.056682 23.306080,20.837326 24.322948,22.300147 C 24.591835,22.686956 24.786619,23.604152 24.649916,23.702541 z "
       id="path756"
       sodipodi:nodetypes="cssss" />
    <path
       style="fill:url(#linearGradient638);fill-opacity:1.0000000;fill-rule:evenodd;stroke:none;stroke-width:1.0000000pt;stroke-linecap:butt;stroke-linejoin:miter;stroke-opacity:1.0000000;"
       d="M 22.520904,34.775341 C 22.621382,34.904805 22.110684,35.664135 21.742483,35.940351 C 20.308740,37.015909 17.217043,38.962046 17.115075,38.830664 C 17.013297,38.699526 19.706139,36.221871 21.131246,35.152789 C 21.508082,34.870096 22.417637,34.642285 22.520904,34.775341 z "
       id="path757"
       sodipodi:nodetypes="cssss" />
    <path
       style="fill:url(#linearGradient638);fill-opacity:1.0000000;fill-rule:evenodd;stroke:none;stroke-width:1.0000000pt;stroke-linecap:butt;stroke-linejoin:miter;stroke-opacity:1.0000000;"
       d="M 36.008876,34.607812 C 35.917360,34.743758 36.478116,35.466908 36.864113,35.717657 C 38.367143,36.694049 41.583080,38.427195 41.675953,38.289233 C 41.768652,38.151527 38.914809,35.861168 37.420830,34.890658 C 37.025782,34.634028 36.102931,34.468091 36.008876,34.607812 z "
       id="path758"
       sodipodi:nodetypes="cssss" />
    <path
       style="fill:url(#linearGradient638);fill-opacity:1.0000000;fill-rule:evenodd;stroke:none;stroke-width:1.0000000pt;stroke-linecap:butt;stroke-linejoin:miter;stroke-opacity:1.0000000;"
       d="M 33.439138,23.529522 C 33.571688,23.625893 34.314635,23.091642 34.579174,22.714963 C 35.609259,21.248208 37.457522,18.097024 37.323008,17.999224 C 37.188744,17.901607 34.796720,20.670794 33.772838,22.128714 C 33.502097,22.514228 33.302910,23.430477 33.439138,23.529522 z "
       id="path759"
       sodipodi:nodetypes="cssss" />
    <path
       style="fill:url(#linearGradient638);fill-opacity:1.0000000;fill-rule:evenodd;stroke:none;stroke-width:1.0000000pt;stroke-linecap:butt;stroke-linejoin:miter;stroke-opacity:1.0000000;"
       d="M 22.684992,25.638464 C 22.593475,25.774411 21.712466,25.526994 21.334896,25.263727 C 19.864678,24.238593 17.048758,21.911226 17.141631,21.773264 C 17.234331,21.635558 20.430250,23.417768 21.891614,24.436728 C 22.278038,24.706168 22.779049,25.498745 22.684992,25.638464 z "
       id="path760"
       sodipodi:nodetypes="cssss" />
    <path
       style="fill:url(#linearGradient638);fill-opacity:1.0000000;fill-rule:evenodd;stroke:none;stroke-width:1.0000000pt;stroke-linecap:butt;stroke-linejoin:miter;stroke-opacity:1.0000000;"
       d="M 24.531405,36.761878 C 24.670571,36.848421 24.455163,37.737800 24.205717,38.124638 C 23.234397,39.630952 21.010341,42.529161 20.869112,42.441336 C 20.728146,42.353674 22.393665,39.095421 23.359134,37.598178 C 23.614429,37.202267 24.388377,36.672935 24.531405,36.761878 z "
       id="path761"
       sodipodi:nodetypes="cssss" />
    <path
       style="fill:url(#linearGradient638);fill-opacity:1.0000000;fill-rule:evenodd;stroke:none;stroke-width:1.0000000pt;stroke-linecap:butt;stroke-linejoin:miter;stroke-opacity:1.0000000;"
       d="M 36.997653,32.505422 C 36.949490,32.662065 37.695848,33.191539 38.137971,33.319585 C 39.859552,33.818184 43.439882,34.544323 43.488760,34.385358 C 43.537544,34.226688 40.142172,32.862279 38.430960,32.366684 C 37.978469,32.235635 37.047151,32.344431 36.997653,32.505422 z "
       id="path762"
       sodipodi:nodetypes="cssss" />
    <path
       style="fill:url(#linearGradient638);fill-opacity:1.0000000;fill-rule:evenodd;stroke:none;stroke-width:1.0000000pt;stroke-linecap:butt;stroke-linejoin:miter;stroke-opacity:1.0000000;"
       d="M 31.325900,22.648279 C 31.480700,22.702073 32.036806,21.975340 32.180752,21.538136 C 32.741256,19.835703 33.596343,16.283962 33.439249,16.229369 C 33.282447,16.174880 31.796193,19.518713 31.239063,21.210893 C 31.091744,21.658351 31.166804,22.592992 31.325900,22.648279 z "
       id="path763"
       sodipodi:nodetypes="cssss" />
    <path
       style="fill:url(#linearGradient638);fill-opacity:1.0000000;fill-rule:evenodd;stroke:none;stroke-width:1.0000000pt;stroke-linecap:butt;stroke-linejoin:miter;stroke-opacity:1.0000000;"
       d="M 21.645354,27.785041 C 21.597190,27.941684 20.682290,27.960368 20.244602,27.817899 C 18.540289,27.263137 15.170480,25.852313 15.219357,25.693348 C 15.268142,25.534678 18.843543,26.313577 20.537591,26.864998 C 20.985543,27.010808 21.694855,27.624051 21.645354,27.785041 z "
       id="path764"
       sodipodi:nodetypes="cssss" />
    <path
       style="fill:url(#linearGradient638);fill-opacity:1.0000000;fill-rule:evenodd;stroke:none;stroke-width:1.0000000pt;stroke-linecap:butt;stroke-linejoin:miter;stroke-opacity:1.0000000;"
       d="M 26.637945,37.895116 C 26.796227,37.937586 26.847972,38.851215 26.721417,39.293765 C 26.228624,41.017017 24.940534,44.435623 24.779906,44.392524 C 24.619577,44.349506 25.268724,40.748287 25.758548,39.035413 C 25.888070,38.582483 26.475271,37.851469 26.637945,37.895116 z "
       id="path765"
       sodipodi:nodetypes="cssss" />
  </g>
  <path
     style="fill:url(#linearGradient640);fill-opacity:1.0000000;fill-rule:evenodd;stroke:none;stroke-width:1.0000000pt;stroke-linecap:butt;stroke-linejoin:miter;stroke-opacity:1.0000000;"
     d="M 4.0053989,30.533720 C 3.9098198,29.864666 8.9959919,19.328304 20.003944,15.740544 C 29.559998,12.552128 40.512621,16.191011 40.604810,16.836335 C 40.695254,17.469434 33.278607,15.166136 20.551840,19.575812 C 8.3235765,23.774794 4.0924518,31.143089 4.0053989,30.533720 z "
     id="path787"
     sodipodi:nodetypes="cssss" />
  <path
     style="fill:url(#linearGradient641);fill-opacity:1.0000000;fill-rule:evenodd;stroke:none;stroke-width:1.0000000pt;stroke-linecap:butt;stroke-linejoin:miter;stroke-opacity:1.0000000;"
     d="M 24.744292,31.277087 C 24.264127,31.330857 23.191687,28.490590 24.322736,26.851497 C 25.239846,25.345414 27.994425,26.246242 27.484405,26.497449 C 24.416104,27.831702 25.318017,31.212841 24.744292,31.277087 z "
     id="path789"
     sodipodi:nodetypes="csss" />
  <metadata
     id="metadata960">
    <rdf:RDF
       id="RDF961">
      <cc:Work
         rdf:about=""
         id="Work962">
        <dc:format
           id="format963">image/svg+xml</dc:format>
        <dc:type
           id="type965"
           rdf:resource="http://purl.org/dc/dcmitype/StillImage" />
      </cc:Work>
    </rdf:RDF>
  </metadata>
</svg>
