<?xml version="1.0" encoding="UTF-8" standalone="no"?>
<!DOCTYPE svg PUBLIC "-//W3C//DTD SVG 20010904//EN"
"http://www.w3.org/TR/2001/REC-SVG-20010904/DTD/svg10.dtd">
<!-- Created with Inkscape (http://www.inkscape.org/) -->
<svg
   id="svg1"
   sodipodi:version="0.32"
   inkscape:version="0.37"
   width="48pt"
   height="48pt"
   sodipodi:docbase="/home/dan/Projects/Lila-icons/scalable/apps"
   sodipodi:docname="gnome-ghex.svg"
   xmlns="http://www.w3.org/2000/svg"
   xmlns:inkscape="http://www.inkscape.org/namespaces/inkscape"
   xmlns:sodipodi="http://sodipodi.sourceforge.net/DTD/sodipodi-0.dtd"
   xmlns:xlink="http://www.w3.org/1999/xlink">
  <defs
     id="defs3">
    <linearGradient
       id="linearGradient584">
      <stop
         style="stop-color:#ffffff;stop-opacity:1;"
         offset="0.00000000"
         id="stop585" />
      <stop
         style="stop-color:#ffffff;stop-opacity:0;"
         offset="1.00000000"
         id="stop586" />
    </linearGradient>
    <linearGradient
       id="linearGradient578">
      <stop
         style="stop-color:#d9cce6;stop-opacity:1;"
         offset="0.00000000"
         id="stop579" />
      <stop
         style="stop-color:#73667f;stop-opacity:1;"
         offset="1.00000000"
         id="stop580" />
    </linearGradient>
    <linearGradient
       xlink:href="#linearGradient578"
       id="linearGradient581"
       x1="-0.00000000"
       y1="0.00000000"
       x2="0.99342108"
       y2="1.02343750" />
    <linearGradient
       xlink:href="#linearGradient584"
       id="linearGradient583"
       x1="0.00000000"
       y1="-0.00000000"
       x2="0.98717946"
       y2="0.97656250" />
    <linearGradient
       xlink:href="#linearGradient584"
       id="linearGradient860"
       x1="-0.22727273"
       y1="-0.17968750"
       x2="0.96590906"
       y2="0.98437500" />
    <linearGradient
       xlink:href="#linearGradient584"
       id="linearGradient861"
       x1="-0.00000000"
       y1="-0.00000000"
       x2="1.54999995"
       y2="1.32812500" />
    <linearGradient
       xlink:href="#linearGradient584"
       id="linearGradient862"
       x1="-0.27586207"
       y1="-0.14062500"
       x2="0.96774191"
       y2="1.00781250" />
    <linearGradient
       xlink:href="#linearGradient584"
       id="linearGradient702"
       x1="0.00000000"
       y1="0.00000000"
       x2="0.99635035"
       y2="0.89999998" />
    <linearGradient
       xlink:href="#linearGradient584"
       id="linearGradient704" />
  </defs>
  <sodipodi:namedview
     id="base"
     pagecolor="#ffffff"
     bordercolor="#666666"
     borderopacity="1.0"
     inkscape:pageopacity="0.0"
     inkscape:pageshadow="2"
     inkscape:zoom="5.64233871"
     inkscape:cx="22.1932038"
     inkscape:cy="23.4807741"
     inkscape:window-width="640"
     inkscape:window-height="535"
     inkscape:window-x="95"
     inkscape:window-y="85" />
  <path
     style="fill:#000000;fill-rule:evenodd;stroke:none;stroke-opacity:1;stroke-width:1.875;stroke-linejoin:miter;stroke-linecap:butt;fill-opacity:1;stroke-dasharray:none;opacity:0.302675;"
     d="M 16.300911 9.3869802 C 17.622744 8.7885856 43.562781 8.2926751 45.479811 9.5556442 C 47.302222 10.659185 57.890059 29.715335 57.960958 31.819313 C 58.192106 33.849368 47.809574 53.76819 46.491796 54.926302 C 45.195429 56.08342 16.085833 56.100951 15.120262 54.757638 C 13.970008 53.224309 3.0878464 33.338222 2.9764432 31.650648 C 2.8646874 29.788536 14.750423 10.184911 16.300911 9.3869802 z "
     id="path703"
     sodipodi:nodetypes="cssssss" />
  <path
     style="fill:url(#linearGradient581);fill-rule:evenodd;stroke:black;stroke-opacity:1;stroke-width:1.875;stroke-linejoin:miter;stroke-linecap:butt;fill-opacity:1;stroke-dasharray:none;"
     d="M 16.291805 9.2447617 C 17.519497 8.688985 41.612096 8.2283926 43.392596 9.4014136 C 45.085216 10.426361 54.918992 28.125341 54.984842 30.079474 C 55.199527 31.96495 45.556435 50.465162 44.332508 51.540794 C 43.128468 52.615502 16.092045 52.631785 15.195241 51.384142 C 14.126908 49.960016 4.0197684 31.490207 3.9162993 29.922822 C 3.8125027 28.193328 14.851742 9.9858651 16.291805 9.2447617 z "
     id="path692"
     sodipodi:nodetypes="cssssss" />
  <path
     style="fill:url(#linearGradient583);fill-rule:evenodd;stroke:none;stroke-opacity:1;stroke-width:1pt;stroke-linejoin:miter;stroke-linecap:butt;fill-opacity:1;"
     d="M 6.2660788 29.76617 C 5.9978258 29.336965 15.372267 11.96604 17.545021 11.124585 C 19.397226 10.346604 42.653868 10.851202 42.92264 11.281237 C 43.176041 11.686679 25.673889 10.635102 19.11154 13.631017 C 13.297386 16.146566 6.5199988 30.172442 6.2660788 29.76617 z "
     id="path693"
     sodipodi:nodetypes="cssss" />
  <path
     style="fill:#261933;fill-rule:evenodd;stroke:none;stroke-opacity:1;stroke-width:1pt;stroke-linejoin:miter;stroke-linecap:butt;fill-opacity:1;"
     d="M 32.896913 19.113836 C 31.990718 20.319676 32.021612 43.700148 32.740261 44.961411 C 33.076902 45.630559 37.282455 45.443003 37.753124 44.804759 C 38.22239 44.090326 37.380152 33.378407 37.596473 32.272601 C 37.837244 31.368992 43.484654 32.634473 44.019203 32.115949 C 44.489693 31.728503 44.396986 28.159878 44.019203 27.729694 C 43.523916 27.26256 38.230878 28.516853 37.439821 28.042998 C 36.678561 27.628076 36.851373 25.052958 37.439821 24.440003 C 38.077964 23.771202 44.157159 24.718199 45.115767 24.126699 C 45.830683 23.627152 45.809954 18.979257 44.959115 18.487228 C 43.930109 17.855587 33.739047 18.149892 32.896913 19.113836 z "
     id="path694"
     sodipodi:nodetypes="cssssssssss" />
  <path
     style="fill:#261933;fill-rule:evenodd;stroke:none;stroke-opacity:1;stroke-width:1pt;stroke-linejoin:miter;stroke-linecap:butt;fill-opacity:1;"
     d="M 21.253332 24.228153 C 22.639773 24.228156 22.781165 24.427148 23.1017 25.13408 C 24.496485 28.210251 24.435478 35.513678 23.015543 38.602994 C 22.371735 40.003713 19.570124 40.160384 18.935009 38.759646 C 17.534271 35.670349 17.521125 28.366885 18.935009 25.290732 C 19.259937 24.583791 19.866891 24.22815 21.253332 24.228153 z M 21.28205 18.599353 C 18.896426 18.599349 16.499535 19.220907 15.940434 20.437329 C 13.507592 25.730406 13.530211 38.297354 15.940434 43.613051 C 17.033267 46.023273 25.343566 46.023241 26.451356 43.613051 C 28.894611 38.297321 28.994929 25.730437 26.594948 20.437329 C 26.043411 19.220924 23.667673 18.599357 21.28205 18.599353 z "
     id="path697"
     sodipodi:nodetypes="cccccccccccc" />
  <path
     style="fill:url(#linearGradient860);fill-rule:evenodd;stroke:none;stroke-opacity:1;stroke-width:1pt;stroke-linejoin:miter;stroke-linecap:butt;fill-opacity:1;"
     d="M 14.732366 35.298363 C 14.51936 35.0079 14.578355 23.678488 16.83699 20.455228 C 18.122984 18.620007 25.151105 19.829532 25.366255 20.122919 C 25.55726 20.38338 19.324148 20.306243 18.055456 22.116773 C 15.779519 25.364725 14.925515 35.561748 14.732366 35.298363 z "
     id="path698"
     sodipodi:nodetypes="cssss" />
  <path
     style="fill:url(#linearGradient861);fill-rule:evenodd;stroke:none;stroke-opacity:1;stroke-width:1pt;stroke-linejoin:miter;stroke-linecap:butt;fill-opacity:1;"
     d="M 19.827771 40.282999 C 19.710195 40.165424 22.814187 40.485393 23.3724 39.618381 C 24.549578 37.789998 24.909928 32.072795 25.033946 32.196813 C 25.168391 32.331258 25.286387 38.625306 24.147788 40.393768 C 23.550996 41.320701 19.968658 40.423886 19.827771 40.282999 z "
     id="path699"
     sodipodi:nodetypes="cssss" />
  <path
     style="fill:url(#linearGradient862);fill-rule:evenodd;stroke:none;stroke-opacity:1;stroke-width:1pt;stroke-linejoin:miter;stroke-linecap:butt;fill-opacity:1;"
     d="M 33.009362 43.495319 C 32.801661 43.3065 32.577582 21.297693 33.452441 19.901379 C 34.080458 18.662684 43.762075 18.710375 43.975559 18.904452 C 44.16823 19.079608 35.558238 19.025134 34.670907 21.009076 C 32.587137 25.56989 33.207816 43.675732 33.009362 43.495319 z "
     id="path700"
     sodipodi:nodetypes="cssss" />
  <path
     style="fill:url(#linearGradient702);fill-rule:evenodd;stroke:none;stroke-opacity:1;stroke-width:1pt;stroke-linejoin:miter;stroke-linecap:butt;fill-opacity:1;"
     d="M 37.440149 28.652183 C 37.690062 28.464748 42.053143 28.065726 43.200172 28.209105 C 43.530071 28.250342 42.391627 29.165979 41.870935 29.206032 C 40.471619 29.313672 37.246983 28.797057 37.440149 28.652183 z "
     id="path701"
     sodipodi:nodetypes="csss" />
</svg>
