<?xml version="1.0" encoding="UTF-8" standalone="no"?>
<!DOCTYPE svg PUBLIC "-//W3C//DTD SVG 20010904//EN"
"http://www.w3.org/TR/2001/REC-SVG-20010904/DTD/svg10.dtd">
<!-- Created with Inkscape (http://www.inkscape.org/) -->
<svg
   id="svg1"
   sodipodi:version="0.32"
   inkscape:version="0.39"
   width="48.000000pt"
   height="48.000000pt"
   sodipodi:docbase="/home/stefan/new-lila-icons/makzu"
   sodipodi:docname="gnome-gnotravex.svg"
   xmlns="http://www.w3.org/2000/svg"
   xmlns:cc="http://web.resource.org/cc/"
   xmlns:inkscape="http://www.inkscape.org/namespaces/inkscape"
   xmlns:sodipodi="http://sodipodi.sourceforge.net/DTD/sodipodi-0.dtd"
   xmlns:rdf="http://www.w3.org/1999/02/22-rdf-syntax-ns#"
   xmlns:dc="http://purl.org/dc/elements/1.1/"
   xmlns:xlink="http://www.w3.org/1999/xlink">
  <defs
     id="defs3">
    <linearGradient
       id="linearGradient2345">
      <stop
         offset="0.0000000"
         style="stop-color:#d9cce6;stop-opacity:1.0000000;"
         id="stop2347" />
      <stop
         offset="1.0000000"
         style="stop-color:#73667f;stop-opacity:1.0000000;"
         id="stop2346" />
    </linearGradient>
    <linearGradient
       id="linearGradient2342">
      <stop
         offset="0.0000000"
         style="stop-color:#ffffff;stop-opacity:1.0000000;"
         id="stop2344" />
      <stop
         offset="1.0000000"
         style="stop-color:#d9cce6;stop-opacity:1.0000000;"
         id="stop2343" />
    </linearGradient>
    <linearGradient
       id="linearGradient2339">
      <stop
         offset="0.0000000"
         style="stop-color:#ffffff;stop-opacity:1.0000000;"
         id="stop2341" />
      <stop
         offset="1.0000000"
         style="stop-color:#ffffff;stop-opacity:0.0000000;"
         id="stop2340" />
    </linearGradient>
    <linearGradient
       id="linearGradient2336">
      <stop
         offset="0.0000000"
         style="stop-color:#ffffff;stop-opacity:1.0000000;"
         id="stop2338" />
      <stop
         offset="1.0000000"
         style="stop-color:#d9cce6;stop-opacity:1.0000000;"
         id="stop2337" />
    </linearGradient>
    <linearGradient
       id="linearGradient2256">
      <stop
         offset="0.0000000"
         style="stop-color:#ffffff;stop-opacity:1.0000000;"
         id="stop2258" />
      <stop
         offset="1.0000000"
         style="stop-color:#d9cce6;stop-opacity:1.0000000;"
         id="stop2257" />
    </linearGradient>
    <linearGradient
       id="linearGradient2252">
      <stop
         style="stop-color:#000;stop-opacity:1;"
         offset="0"
         id="stop2253" />
      <stop
         style="stop-color:#fff;stop-opacity:1;"
         offset="1"
         id="stop2254" />
    </linearGradient>
    <linearGradient
       inkscape:collect="always"
       xlink:href="#linearGradient2345"
       id="linearGradient2255"
       x1="-0.015625000"
       y1="0.0078125000"
       x2="0.97656250"
       y2="0.97656250" />
    <defs
       id="defs1551">
      <linearGradient
         id="linearGradient13672"
         x1="0.0000000"
         y1="0.50000000"
         x2="1.0000000"
         y2="0.50000000"
         gradientUnits="objectBoundingBox"
         spreadMethod="pad"
         xlink:href="#linearGradient2345" />
      <linearGradient
         id="linearGradient9265"
         x1="0.0000000"
         y1="0.50000000"
         x2="1.0000000"
         y2="0.50000000"
         gradientUnits="objectBoundingBox"
         spreadMethod="pad"
         xlink:href="#linearGradient2339" />
      <linearGradient
         id="linearGradient9261"
         x1="0.0000000"
         y1="0.50000000"
         x2="1.0000000"
         y2="0.50000000"
         gradientUnits="objectBoundingBox"
         spreadMethod="pad"
         xlink:href="#linearGradient2342" />
      <linearGradient
         id="linearGradient4287">
        <stop
           offset="0.0000000"
           style="stop-color:#f50000;stop-opacity:1.0000000;"
           id="stop4289" />
        <stop
           offset="1.0000000"
           style="stop-color:#a80000;stop-opacity:1.0000000;"
           id="stop4288" />
      </linearGradient>
      <linearGradient
         id="linearGradient3585">
        <stop
           offset="0.0000000"
           style="stop-color:#d9cce6;stop-opacity:1.0000000;"
           id="stop3587" />
        <stop
           offset="1.0000000"
           style="stop-color:#73667f;stop-opacity:1.0000000;"
           id="stop3586" />
      </linearGradient>
      <linearGradient
         id="linearGradient3582"
         x1="0.0000000"
         y1="0.50000000"
         x2="1.0000000"
         y2="0.50000000"
         gradientUnits="objectBoundingBox"
         spreadMethod="pad"
         xlink:href="#linearGradient2336" />
      <defs
         id="defs9055">
        <linearGradient
           id="linearGradient1029"
           x1="0.0000000"
           y1="0.50000000"
           x2="1.0000000"
           y2="0.50000000"
           gradientUnits="objectBoundingBox"
           spreadMethod="pad"
           xlink:href="#linearGradient13672" />
        <linearGradient
           id="linearGradient866"
           x1="0.0000000"
           y1="0.50000000"
           x2="1.0000000"
           y2="0.50000000"
           gradientUnits="objectBoundingBox"
           spreadMethod="pad"
           xlink:href="#linearGradient9261" />
        <linearGradient
           xlink:href="#linearGradient866"
           id="linearGradient586"
           x1="-0.0000000"
           y1="0.015625000"
           x2="0.99122804"
           y2="0.98437500" />
        <linearGradient
           id="linearGradient584">
          <stop
             style="stop-color:#ffffff;stop-opacity:1;"
             offset="0.00000000"
             id="stop585" />
          <stop
             style="stop-color:#ffffff;stop-opacity:0;"
             offset="1.00000000"
             id="stop586" />
        </linearGradient>
        <linearGradient
           xlink:href="#linearGradient584"
           id="linearGradient587"
           x1="0.0000000"
           y1="-0.0000000"
           x2="1.0000000"
           y2="1.0000000" />
        <defs
           id="defs1339">
          <linearGradient
             id="linearGradient1340"
             x1="0.0000000"
             y1="0.50000000"
             x2="1.0000000"
             y2="0.50000000"
             gradientUnits="objectBoundingBox"
             spreadMethod="pad"
             xlink:href="#linearGradient2256" />
          <linearGradient
             id="linearGradient1343"
             x1="0.0000000"
             y1="0.50000000"
             x2="1.0000000"
             y2="0.50000000"
             gradientUnits="objectBoundingBox"
             spreadMethod="pad"
             xlink:href="#linearGradient9265" />
          <linearGradient
             id="linearGradient578"
             x1="0.0000000"
             y1="0.50000000"
             x2="1.0000000"
             y2="0.50000000"
             gradientUnits="objectBoundingBox"
             spreadMethod="pad"
             xlink:href="#linearGradient1029" />
          <linearGradient
             xlink:href="#linearGradient584"
             id="linearGradient581"
             x1="0.010948900"
             y1="0.010309280"
             x2="0.68695652"
             y2="0.72656250" />
          <linearGradient
             xlink:href="#linearGradient584"
             id="linearGradient1350"
             x1="0.010948900"
             y1="0.010309280"
             x2="1.0145985"
             y2="0.96907216" />
          <linearGradient
             xlink:href="#linearGradient584"
             id="linearGradient860"
             x1="0.010948900"
             y1="0.010309280"
             x2="0.83277589"
             y2="0.71875000" />
          <linearGradient
             xlink:href="#linearGradient578"
             id="linearGradient861"
             x1="0.0000000"
             y1="0.023255810"
             x2="0.98611110"
             y2="0.97674417" />
          <linearGradient
             xlink:href="#linearGradient578"
             id="linearGradient862"
             x1="-0.0000000"
             y1="0.0077519398"
             x2="1.0000000"
             y2="0.99224806" />
          <linearGradient
             xlink:href="#linearGradient578"
             id="linearGradient869"
             x1="-0.0068493201"
             y1="0.0077519398"
             x2="0.97945207"
             y2="1.0000000" />
        </defs>
        <sodipodi:namedview
           id="namedview1355"
           pagecolor="#ffffff"
           bordercolor="#666666"
           borderopacity="1.0"
           inkscape:pageopacity="0.0"
           inkscape:pageshadow="2"
           inkscape:zoom="15.958944"
           inkscape:cx="12.882328"
           inkscape:cy="12.067810"
           inkscape:window-width="640"
           inkscape:window-height="525"
           inkscape:window-x="204"
           inkscape:window-y="142" />
      </defs>
      <sodipodi:namedview
         id="namedview9083"
         pagecolor="#ffffff"
         bordercolor="#666666"
         borderopacity="1.0"
         inkscape:pageopacity="0.0"
         inkscape:pageshadow="2"
         inkscape:zoom="10.041667"
         inkscape:cx="24.000000"
         inkscape:cy="24.000000"
         inkscape:window-width="876"
         inkscape:window-height="648"
         inkscape:window-x="113"
         inkscape:window-y="73" />
      <metadata
         id="metadata9084">
        <rdf:RDF
           id="RDF9085">
          <cc:Work
             rdf:about=""
             id="Work9086">
            <dc:format
               id="format9087">image/svg+xml</dc:format>
            <dc:type
               id="type9089"
               rdf:resource="http://purl.org/dc/dcmitype/StillImage" />
          </cc:Work>
        </rdf:RDF>
      </metadata>
    </defs>
    <sodipodi:namedview
       id="namedview1610"
       pagecolor="#ffffff"
       bordercolor="#666666"
       borderopacity="1.0"
       inkscape:pageopacity="0.0"
       inkscape:pageshadow="2"
       inkscape:zoom="10.208333"
       inkscape:cx="24.000000"
       inkscape:cy="24.000000"
       inkscape:window-width="754"
       inkscape:window-height="656"
       inkscape:window-x="354"
       inkscape:window-y="100" />
    <metadata
       id="metadata1611">
      <rdf:RDF
         id="RDF1612">
        <cc:Work
           rdf:about=""
           id="Work1613">
          <dc:format
             id="format1614">image/svg+xml</dc:format>
          <dc:type
             id="type1616"
             rdf:resource="http://purl.org/dc/dcmitype/StillImage" />
        </cc:Work>
      </rdf:RDF>
    </metadata>
    <linearGradient
       inkscape:collect="always"
       xlink:href="#linearGradient2339"
       id="linearGradient3605"
       x1="0.28214285"
       y1="0.0087719299"
       x2="0.99285716"
       y2="0.99122804" />
    <linearGradient
       inkscape:collect="always"
       xlink:href="#linearGradient2339"
       id="linearGradient4849"
       x1="-0.72727275"
       y1="0.015625000"
       x2="1.7818182"
       y2="0.99218750" />
    <linearGradient
       inkscape:collect="always"
       xlink:href="#linearGradient2339"
       id="linearGradient7956"
       x1="0.34375000"
       y1="0.023437500"
       x2="1.0468750"
       y2="1.0156250" />
    <linearGradient
       inkscape:collect="always"
       xlink:href="#linearGradient2339"
       id="linearGradient9200"
       x1="-0.20108695"
       y1="-0.22656250"
       x2="1.0000000"
       y2="0.95312500" />
  </defs>
  <sodipodi:namedview
     id="base"
     pagecolor="#ffffff"
     bordercolor="#666666"
     borderopacity="1.0"
     inkscape:pageopacity="0.0"
     inkscape:pageshadow="2"
     inkscape:zoom="11.770833"
     inkscape:cx="23.999999"
     inkscape:cy="24.721176"
     inkscape:window-width="919"
     inkscape:window-height="731"
     inkscape:window-x="165"
     inkscape:window-y="56" />
  <metadata
     id="metadata4">
    <rdf:RDF
       id="RDF5">
      <cc:Work
         rdf:about=""
         id="Work6">
        <dc:format
           id="format7">image/svg+xml</dc:format>
        <dc:type
           id="type9"
           rdf:resource="http://purl.org/dc/dcmitype/StillImage" />
      </cc:Work>
    </rdf:RDF>
  </metadata>
  <path
     style="opacity:0.29999998;fill:#000000;fill-opacity:1.0000000;fill-rule:evenodd;stroke:none;stroke-width:1.8750000;stroke-linecap:butt;stroke-linejoin:round;stroke-miterlimit:4.0000000;stroke-opacity:1.0000000;"
     d="M 12.982947,6.0235614 L 5.8308311,52.674334 L 52.481601,59.826451 L 59.633719,13.175679 L 12.982947,6.0235614 z "
     id="path9240"
     transform="matrix(1.005200,0.000000,0.000000,1.005200,-0.346704,-0.136883)" />
  <path
     style="fill:url(#linearGradient2255);fill-opacity:1.00000000;fill-rule:evenodd;stroke:#261933;stroke-width:1.8653004;stroke-linecap:butt;stroke-linejoin:round;stroke-miterlimit:4.0000000;stroke-opacity:1.0000000;stroke-dasharray:none;"
     d="M 8.8353296,1.0730122 L 1.6832141,47.723784 L 48.333985,54.875900 L 55.486101,8.2251266 L 8.8353296,1.0730122 z "
     id="rect1549"
     transform="matrix(1.005200,0.000000,0.000000,1.005200,-0.346704,-0.136883)" />
  <path
     style="font-size:12.000000;font-style:normal;font-variant:normal;font-weight:normal;font-stretch:normal;fill:#261933;fill-opacity:1.0000000;stroke:none;stroke-width:1.0000000pt;stroke-linecap:butt;stroke-linejoin:miter;stroke-opacity:1.0000000;font-family:Radio Stars;text-anchor:middle;writing-mode:lr;"
     d="M 38.671761,19.496917 C 38.526931,20.434020 37.985970,20.830165 37.048882,20.685353 L 25.886306,18.960354 C 24.962978,18.817669 24.573725,18.277773 24.718541,17.340668 L 25.191319,14.281296 C 25.257211,14.037503 25.353301,13.826591 25.479586,13.648561 C 25.768226,13.241649 26.208335,13.041569 26.799915,13.048324 C 25.956141,12.847387 25.564758,12.321275 25.625765,11.469981 L 26.098541,8.4106097 C 26.243353,7.4735150 26.777420,7.0763052 27.700749,7.2189788 L 38.863323,8.9439769 C 39.800412,9.0888023 40.196557,9.6297618 40.051759,10.566858 L 39.578982,13.626229 C 39.513071,13.870031 39.418047,14.074052 39.293912,14.238294 C 38.993599,14.629303 38.549794,14.807646 37.962491,14.773322 C 38.817897,14.990178 39.211912,15.544918 39.144537,16.437545 L 38.671761,19.496917 M 36.788339,13.194980 L 37.043893,11.541264 L 28.671962,10.247516 L 28.416406,11.901230 L 36.788339,13.194980 M 36.098338,17.660009 L 36.353895,16.006294 L 27.981963,14.712546 L 27.726407,16.366261 L 36.098338,17.660009"
     id="text2971"
     transform="matrix(1.005200,0.000000,0.000000,1.005200,-0.346704,-0.136883)" />
  <path
     style="font-size:12.000000;font-style:normal;font-variant:normal;font-weight:normal;font-stretch:normal;fill:#261933;fill-opacity:1.0000000;stroke:none;stroke-width:1.0000000pt;stroke-linecap:butt;stroke-linejoin:miter;stroke-opacity:1.0000000;font-family:Radio Stars;text-anchor:middle;writing-mode:lr;"
     d="M 33.746104,48.910098 C 33.601275,49.847200 33.060314,50.243344 32.123224,50.098531 L 20.960651,48.373534 C 20.519656,48.305385 20.196430,48.114336 19.990967,47.800384 C 19.799282,47.488559 19.733254,47.139715 19.792887,46.753850 C 19.852513,46.367983 20.020762,46.055342 20.297632,45.815926 C 20.588280,45.578641 20.954100,45.494073 21.395093,45.562219 L 31.172683,47.073189 L 31.428237,45.419474 L 20.265664,43.694476 L 21.390107,36.418132 L 33.937668,38.357157 C 34.378641,38.425315 34.701868,38.616365 34.907350,38.930309 C 35.112798,39.244269 35.185716,39.594178 35.126103,39.980037 C 35.066458,40.365911 34.891317,40.677485 34.600684,40.914766 C 34.310017,41.152057 33.944198,41.236626 33.503223,41.168472 L 23.746306,39.660698 L 23.490751,41.314411 L 33.247667,42.822188 C 34.184757,42.967006 34.580902,43.507967 34.436103,44.445068 L 33.746104,48.910098"
     id="text9206"
     transform="matrix(1.005200,0.000000,0.000000,1.005200,-0.346704,-0.136883)" />
  <path
     style="fill:url(#linearGradient3605);fill-opacity:1.00000000;fill-rule:evenodd;stroke:none;stroke-width:1.0000000pt;stroke-linecap:butt;stroke-linejoin:miter;stroke-opacity:1.0000000;"
     d="M 4.4966095,46.638810 C 12.429693,40.813791 27.802857,29.142881 28.295858,29.163756 C 28.847561,29.187113 32.229231,34.153441 33.611863,35.898635 C 32.114762,34.919542 28.363792,33.080542 27.147579,33.227332 C 25.881632,33.380120 12.315224,41.579892 4.4966095,46.638810 z "
     id="path2983"
     sodipodi:nodetypes="ccczc"
     transform="matrix(1.005200,0.000000,0.000000,1.005200,-0.346704,-0.136883)" />
  <path
     style="font-size:12.000000;font-style:normal;font-variant:normal;font-weight:normal;font-stretch:normal;fill:#261933;fill-opacity:1.0000000;stroke:none;stroke-width:1.0000000pt;stroke-linecap:butt;stroke-linejoin:miter;stroke-opacity:1.0000000;font-family:Radio Stars;text-anchor:middle;writing-mode:lr;"
     d="M 48.697027,36.552331 C 48.628863,36.993321 48.437814,37.316547 48.123877,37.522014 C 47.812040,37.713694 47.463195,37.779722 47.077343,37.720095 C 46.705242,37.662594 46.399491,37.495408 46.160091,37.218541 C 45.922793,36.927889 45.838224,36.562072 45.906383,36.121081 L 46.379160,33.061709 L 36.601573,31.550737 C 35.678246,31.408057 35.288991,30.868163 35.433809,29.931053 L 36.123807,25.466024 C 36.191954,25.025044 36.381938,24.708707 36.693764,24.517011 C 37.007713,24.311559 37.350732,24.237577 37.722822,24.295065 C 38.108683,24.354706 38.420260,24.529845 38.657550,24.820484 C 38.896960,25.097362 38.982594,25.456294 38.914451,25.897273 L 38.441675,28.956645 L 46.813605,30.250395 L 47.286381,27.191022 C 47.354517,26.750042 47.544502,26.433702 47.856338,26.242010 C 48.170276,26.036556 48.513294,25.962573 48.885397,26.020062 C 49.271247,26.079702 49.582824,26.254842 49.820126,26.545484 C 50.059523,26.822359 50.145158,27.181289 50.077027,27.622272 L 48.697027,36.552331"
     id="text9209"
     transform="matrix(1.005200,0.000000,0.000000,1.005200,-0.346704,-0.136883)" />
  <path
     style="fill:url(#linearGradient4849);fill-opacity:1.00000000;fill-rule:evenodd;stroke:none;stroke-width:1.0000000pt;stroke-linecap:butt;stroke-linejoin:miter;stroke-opacity:1.0000000;"
     d="M 42.513491,44.821884 C 36.827706,37.273674 30.108496,29.036120 30.271605,28.209577 C 30.445512,27.328328 45.677688,16.940939 53.463913,11.104136 C 46.705714,17.023440 35.908299,25.949186 35.664444,28.640332 C 35.408517,31.464714 37.855730,37.356174 42.513491,44.821884 z "
     id="path4227"
     sodipodi:nodetypes="ccccc"
     transform="matrix(1.005200,0.000000,0.000000,1.005200,-0.346704,-0.136883)" />
  <path
     style="font-size:12.000000;font-style:normal;font-variant:normal;font-weight:normal;font-stretch:normal;fill:#261933;fill-opacity:1.0000000;stroke:none;stroke-width:1.0000000pt;stroke-linecap:butt;stroke-linejoin:miter;stroke-opacity:1.0000000;font-family:Radio Stars;text-anchor:middle;writing-mode:lr;"
     d="M 22.125537,27.455722 C 21.980707,28.392829 21.439749,28.788976 20.502658,28.644157 L 10.745740,27.136381 L 10.490187,28.790095 L 20.247102,30.297871 C 20.688078,30.366022 21.011305,30.557072 21.216786,30.871023 C 21.422235,31.184975 21.495151,31.534884 21.435538,31.920753 C 21.375894,32.306619 21.200755,32.618194 20.910118,32.855480 C 20.619455,33.092765 20.253636,33.177334 19.812659,33.109188 L 7.2650981,31.170160 L 8.1723191,25.299474 C 8.3171321,24.362376 8.8512003,23.965166 9.7745272,24.107843 L 19.552115,25.618815 L 19.807671,23.965100 L 10.030081,22.454130 C 9.5890883,22.385989 9.2658621,22.194940 9.0603996,21.880978 C 8.8687116,21.569164 8.8026881,21.220322 8.8623190,20.834445 C 8.9219453,20.448589 9.0901930,20.135948 9.3670665,19.896520 C 9.6577122,19.659247 10.023532,19.574678 10.464526,19.642813 L 21.627102,21.367813 C 22.564191,21.512636 22.960333,22.053597 22.815537,22.990691 L 22.125537,27.455722"
     id="text9203"
     transform="matrix(1.005200,0.000000,0.000000,1.005200,-0.346704,-0.136883)" />
  <path
     style="fill:url(#linearGradient7956);fill-opacity:1.0000000;fill-rule:evenodd;stroke:none;stroke-width:1.0000000pt;stroke-linecap:butt;stroke-linejoin:miter;stroke-opacity:1.0000000;"
     d="M 3.7638479,45.056984 C 5.8639495,31.458334 9.4936163,4.3883785 10.064154,4.2610358 C 10.665197,4.1268848 17.072558,13.303612 18.753000,15.656351 C 17.474686,14.485622 13.476635,13.280466 12.212541,13.925867 C 11.029039,14.530123 6.2660760,32.640342 3.7638479,45.056984 z "
     id="path5471"
     sodipodi:nodetypes="ccczc"
     transform="matrix(1.005200,0.000000,0.000000,1.005200,-0.346704,-0.136883)" />
  <path
     style="fill:url(#linearGradient9200);fill-opacity:1.0000000;fill-rule:evenodd;stroke:none;stroke-width:1.0000000pt;stroke-linecap:butt;stroke-linejoin:miter;stroke-opacity:1.0000000;"
     d="M 28.694499,26.688215 C 23.132296,18.953193 11.473800,3.9931240 12.007891,3.4831485 C 12.498398,3.0147886 38.023864,7.3246070 51.031849,9.2453354 C 40.231723,8.6945372 19.820969,7.1623168 19.206965,8.0849707 C 18.619811,8.9672793 25.340157,20.323121 28.694499,26.688215 z "
     id="path7957"
     sodipodi:nodetypes="ccccc"
     transform="matrix(1.005200,0.000000,0.000000,1.005200,-0.346704,-0.136883)" />
</svg>
