<?xml version="1.0" encoding="UTF-8" standalone="no"?>
<!DOCTYPE svg PUBLIC "-//W3C//DTD SVG 20010904//EN"
"http://www.w3.org/TR/2001/REC-SVG-20010904/DTD/svg10.dtd">
<!-- Created with Inkscape (http://www.inkscape.org/) -->
<svg
   version="1"
   x="0.00000000"
   y="0.00000000"
   width="48pt"
   height="48pt"
   id="svg548"
   sodipodi:version="0.32"
   inkscape:version="0.39"
   sodipodi:docname="gnome-eyes.svg"
   sodipodi:docbase="/home/scaba/files/lila/work/lila-gnome/Lila/scalable/apps"
   xmlns="http://www.w3.org/2000/svg"
   xmlns:cc="http://web.resource.org/cc/"
   xmlns:inkscape="http://www.inkscape.org/namespaces/inkscape"
   xmlns:sodipodi="http://sodipodi.sourceforge.net/DTD/sodipodi-0.dtd"
   xmlns:rdf="http://www.w3.org/1999/02/22-rdf-syntax-ns#"
   xmlns:dc="http://purl.org/dc/elements/1.1/"
   xmlns:xlink="http://www.w3.org/1999/xlink">
  <sodipodi:namedview
     id="base"
     inkscape:zoom="1.0000000"
     inkscape:cx="25.401031"
     inkscape:cy="23.348801"
     inkscape:window-width="723"
     inkscape:window-height="585"
     inkscape:window-x="158"
     inkscape:window-y="91" />
  <defs
     id="defs550">
    <linearGradient
       x1="0.00000000"
       y1="0.00000000"
       x2="1.00000000"
       y2="0.00000000"
       id="linearGradient596"
       gradientUnits="objectBoundingBox"
       spreadMethod="pad">
      <stop
         style="stop-color:#ffffff;stop-opacity:1;"
         offset="0.00000000"
         id="stop597" />
      <stop
         style="stop-color:#ffffff;stop-opacity:0;"
         offset="1.00000000"
         id="stop598" />
    </linearGradient>
    <linearGradient
       x1="0.00000000"
       y1="0.00000000"
       x2="1.00000000"
       y2="0.00000000"
       id="linearGradient613"
       gradientUnits="objectBoundingBox"
       spreadMethod="pad">
      <stop
         style="stop-color:#ffffff;stop-opacity:1;"
         offset="0.00000000"
         id="stop614" />
      <stop
         style="stop-color:#d9cce6;stop-opacity:1;"
         offset="1.00000000"
         id="stop615" />
    </linearGradient>
    <linearGradient
       x1="0.00000000"
       y1="0.00000000"
       x2="1.00000000"
       y2="0.00000000"
       id="linearGradient576"
       gradientUnits="objectBoundingBox"
       spreadMethod="pad">
      <stop
         style="stop-color:#f3ffb7;stop-opacity:0.854902;"
         offset="0.00000000"
         id="stop577" />
      <stop
         style="stop-color:#edca2a;stop-opacity:0.952941;"
         offset="1.00000000"
         id="stop578" />
    </linearGradient>
    <linearGradient
       x1="0.00000000"
       y1="0.00000000"
       x2="1.00000000"
       y2="0.00000000"
       id="linearGradient553"
       gradientUnits="objectBoundingBox"
       spreadMethod="pad">
      <stop
         style="stop-color:#d9cce6;stop-opacity:1;"
         offset="0.00000000"
         id="stop554" />
      <stop
         style="stop-color:#73667f;stop-opacity:1;"
         offset="1.00000000"
         id="stop555" />
    </linearGradient>
    <linearGradient
       x1="-0.14718680"
       y1="0.15963815"
       x2="1.06099808"
       y2="0.80974162"
       id="linearGradient556"
       xlink:href="#linearGradient613"
       gradientUnits="objectBoundingBox"
       spreadMethod="pad" />
    <linearGradient
       x1="0.00000320"
       y1="-0.00000338"
       x2="0.77868861"
       y2="0.83593744"
       id="linearGradient558"
       xlink:href="#linearGradient596"
       gradientUnits="objectBoundingBox"
       spreadMethod="pad" />
    <linearGradient
       x1="0.01012245"
       y1="0.01567149"
       x2="0.87000453"
       y2="0.90625161"
       id="linearGradient560"
       xlink:href="#linearGradient596"
       gradientUnits="objectBoundingBox"
       gradientTransform="translate(1.608839e-6,6.124947e-7)"
       spreadMethod="pad" />
    <linearGradient
       x1="0.02271967"
       y1="0.01562500"
       x2="0.96590889"
       y2="0.96093738"
       id="linearGradient562"
       xlink:href="#linearGradient613"
       gradientUnits="objectBoundingBox"
       spreadMethod="pad" />
    <linearGradient
       x1="-0.12717241"
       y1="0.29160193"
       x2="1.28247404"
       y2="0.70541745"
       id="linearGradient564"
       xlink:href="#linearGradient553"
       gradientUnits="objectBoundingBox"
       spreadMethod="pad" />
    <linearGradient
       x1="0.01136383"
       y1="0.00781196"
       x2="0.97727299"
       y2="0.97656238"
       id="linearGradient575"
       xlink:href="#linearGradient613"
       gradientUnits="objectBoundingBox"
       spreadMethod="pad" />
    <linearGradient
       x1="0.00000093"
       y1="0.02343896"
       x2="0.59259260"
       y2="0.53125006"
       id="linearGradient623"
       xlink:href="#linearGradient596"
       gradientUnits="objectBoundingBox"
       spreadMethod="pad" />
    <radialGradient
       cx="0.54163635"
       cy="0.48528421"
       fx="0.54163635"
       fy="0.48528421"
       r="0.44431308"
       id="radialGradient599"
       xlink:href="#linearGradient613"
       gradientUnits="objectBoundingBox"
       spreadMethod="pad" />
    <linearGradient
       x1="0.00791449"
       y1="0.02343800"
       x2="0.49206322"
       y2="0.57812494"
       id="linearGradient600"
       xlink:href="#linearGradient596"
       gradientUnits="objectBoundingBox"
       spreadMethod="pad" />
    <linearGradient
       x1="-0.00000316"
       y1="0.01563059"
       x2="0.65306103"
       y2="0.78906244"
       id="linearGradient601"
       xlink:href="#linearGradient596"
       gradientUnits="objectBoundingBox"
       spreadMethod="pad" />
    <linearGradient
       x1="0.00000000"
       y1="0.00000000"
       x2="1.00000000"
       y2="0.00000000"
       id="linearGradient605"
       xlink:href="#linearGradient596"
       gradientUnits="objectBoundingBox"
       spreadMethod="pad" />
  </defs>
  <ellipse
     cx="345.16455"
     cy="198.05354"
     rx="90.430557"
     ry="134.37218"
     transform="matrix(0.132848,0.000000,0.000000,0.132848,-1.346238,3.318775)"
     style="font-size:12.000000;fill:url(#linearGradient562);fill-rule:evenodd;stroke:#261933;stroke-width:24.420300;stroke-opacity:1.0000000;"
     id="path581"
     d="M 435.59511 198.05354 A 90.430557 134.37218 0 1 0 254.73399,198.05354 A 90.430557 134.37218 0 1 0 435.59511 198.05354 z"
     sodipodi:cx="345.16455"
     sodipodi:cy="198.05354"
     sodipodi:rx="90.430557"
     sodipodi:ry="134.37218" />
  <path
     d="M 36.216198,28.741087 C 35.521934,27.852864 36.765657,18.607644 40.906268,16.233993 C 45.053521,13.543869 49.348639,16.859347 49.348639,16.859347 C 49.348639,16.859347 45.572427,17.089534 41.376152,21.003347 C 37.533252,24.338901 36.584185,29.924369 36.216198,28.741087 z "
     style="font-size:12.000000;opacity:0.85000002;fill:url(#linearGradient600);fill-rule:evenodd;stroke:#ffffff;stroke-width:0.13284813pt;"
     id="path602" />
  <ellipse
     cx="354.71704"
     cy="257.91602"
     rx="41.394272"
     ry="40.120605"
     transform="matrix(0.132848,0.000000,0.000000,0.132848,-4.431899,0.377142)"
     style="font-size:12.000000;fill-rule:evenodd;stroke-width:1.0000000pt;"
     id="path582"
     d="M 396.11131 257.91602 A 41.394272 40.120605 0 1 0 313.32277,257.91602 A 41.394272 40.120605 0 1 0 396.11131 257.91602 z"
     sodipodi:cx="354.71704"
     sodipodi:cy="257.91602"
     sodipodi:rx="41.394272"
     sodipodi:ry="40.120605" />
  <ellipse
     cx="345.16455"
     cy="198.05354"
     rx="90.430557"
     ry="134.37218"
     transform="matrix(0.132848,0.000000,0.000000,0.132848,-29.94437,3.919102)"
     style="font-size:12.000000;fill:url(#linearGradient575);fill-rule:evenodd;stroke:#261933;stroke-width:24.420300;stroke-opacity:1.0000000;"
     id="path587"
     d="M 435.59511 198.05354 A 90.430557 134.37218 0 1 0 254.73399,198.05354 A 90.430557 134.37218 0 1 0 435.59511 198.05354 z"
     sodipodi:cx="345.16455"
     sodipodi:cy="198.05354"
     sodipodi:rx="90.430557"
     sodipodi:ry="134.37218" />
  <ellipse
     cx="354.71704"
     cy="257.91602"
     rx="41.394272"
     ry="40.120605"
     transform="matrix(-0.132848,0.000000,0.000000,0.132848,65.39339,-8.519856)"
     style="font-size:12.000000;fill-rule:evenodd;stroke-width:1.0000000pt;"
     id="path588"
     d="M 396.11131 257.91602 A 41.394272 40.120605 0 1 0 313.32277,257.91602 A 41.394272 40.120605 0 1 0 396.11131 257.91602 z"
     sodipodi:cx="354.71704"
     sodipodi:cy="257.91602"
     sodipodi:rx="41.394272"
     sodipodi:ry="40.120605" />
  <path
     d="M 7.6500367,29.433417 C 6.9557716,28.545194 8.1994950,19.299969 12.340107,16.926319 C 16.487359,14.236199 20.782474,17.551676 20.782474,17.551676 C 20.782474,17.551676 17.241009,17.547024 13.044734,21.460931 C 9.2018338,24.796485 8.0180264,30.616695 7.6500367,29.433417 z "
     style="font-size:12.000000;opacity:0.85000002;fill:url(#linearGradient600);fill-rule:evenodd;stroke:#ffffff;stroke-width:0.13284813pt;"
     id="path599" />
  <path
     sodipodi:type="arc"
     style="fill:#ffffff;fill-opacity:1.0000000;fill-rule:evenodd;stroke:none;stroke-width:1.0000000pt;stroke-linecap:butt;stroke-linejoin:miter;stroke-opacity:1.0000000;"
     id="path647"
     d="M 273.52351 183.91235 A 12.790665 12.790680 0 1 0 247.94218,183.91235 A 12.790665 12.790680 0 1 0 273.52351 183.91235 z"
     sodipodi:cx="260.73285"
     sodipodi:cy="183.91235"
     sodipodi:rx="12.790665"
     sodipodi:ry="12.790680"
     transform="matrix(-0.122629,0.000000,0.000000,0.122629,52.05888,1.472264)" />
  <path
     sodipodi:type="arc"
     style="fill:#ffffff;fill-opacity:1.0000000;fill-rule:evenodd;stroke:none;stroke-width:1.0000000pt;stroke-linecap:butt;stroke-linejoin:miter;stroke-opacity:1.0000000;"
     id="path648"
     d="M 273.52351 183.91235 A 12.790665 12.790680 0 1 0 247.94218,183.91235 A 12.790665 12.790680 0 1 0 273.52351 183.91235 z"
     sodipodi:cx="260.73285"
     sodipodi:cy="183.91235"
     sodipodi:rx="12.790665"
     sodipodi:ry="12.790680"
     transform="matrix(0.122629,0.000000,0.000000,0.122629,9.011691,10.43107)" />
  <metadata
     id="metadata45">
    <rdf:RDF
       id="RDF46">
      <cc:Work
         rdf:about=""
         id="Work47">
        <dc:format
           id="format48">image/svg+xml</dc:format>
        <dc:type
           id="type50"
           rdf:resource="http://purl.org/dc/dcmitype/StillImage" />
      </cc:Work>
    </rdf:RDF>
  </metadata>
</svg>
