<?xml version="1.0" encoding="UTF-8" standalone="no"?>
<!DOCTYPE svg PUBLIC "-//W3C//DTD SVG 20010904//EN"
"http://www.w3.org/TR/2001/REC-SVG-20010904/DTD/svg10.dtd">
<!-- Created with Inkscape (http://www.inkscape.org/) -->
<svg
   id="svg1"
   sodipodi:version="0.32"
   inkscape:version="0.39"
   width="48.000000pt"
   height="48.000000pt"
   sodipodi:docbase="/home/stefan/new-lila-icons/makzu"
   sodipodi:docname="gnome-stones2.svg"
   xmlns="http://www.w3.org/2000/svg"
   xmlns:cc="http://web.resource.org/cc/"
   xmlns:inkscape="http://www.inkscape.org/namespaces/inkscape"
   xmlns:sodipodi="http://sodipodi.sourceforge.net/DTD/sodipodi-0.dtd"
   xmlns:rdf="http://www.w3.org/1999/02/22-rdf-syntax-ns#"
   xmlns:dc="http://purl.org/dc/elements/1.1/"
   xmlns:xlink="http://www.w3.org/1999/xlink">
  <defs
     id="defs3">
    <linearGradient
       id="linearGradient27393">
      <stop
         offset="0.0000000"
         style="stop-color:#ffffff;stop-opacity:1.0000000;"
         id="stop27395" />
      <stop
         offset="1.0000000"
         style="stop-color:#ffffff;stop-opacity:0.0000000;"
         id="stop27394" />
    </linearGradient>
    <linearGradient
       id="linearGradient17327">
      <stop
         offset="0.0000000"
         style="stop-color:#d9cce6;stop-opacity:1.0000000;"
         id="stop17329" />
      <stop
         offset="1.0000000"
         style="stop-color:#73667f;stop-opacity:1.0000000;"
         id="stop17328" />
    </linearGradient>
    <linearGradient
       id="linearGradient16702">
      <stop
         offset="0.0000000"
         style="stop-color:#ffffff;stop-opacity:1.0000000;"
         id="stop16704" />
      <stop
         offset="1.0000000"
         style="stop-color:#d9cce6;stop-opacity:1.0000000;"
         id="stop16703" />
    </linearGradient>
    <linearGradient
       id="linearGradient16582">
      <stop
         style="stop-color:#261933;stop-opacity:1.0000000;"
         offset="0.0000000"
         id="stop16583" />
      <stop
         style="stop-color:#ffffff;stop-opacity:0.0000000;"
         offset="1.0000000"
         id="stop16584" />
    </linearGradient>
    <defs
       id="defs861" />
    <sodipodi:namedview
       id="namedview8456"
       pagecolor="#ffffff"
       bordercolor="#666666"
       borderopacity="1.0"
       inkscape:pageopacity="0.0"
       inkscape:pageshadow="2"
       inkscape:zoom="2.2076496"
       inkscape:cx="141.73228"
       inkscape:cy="141.23587"
       inkscape:window-width="1017"
       inkscape:window-height="763"
       showgrid="true"
       snaptogrid="true"
       showguides="true"
       snaptoguides="true"
       inkscape:window-x="-2"
       inkscape:window-y="27" />
    <defs
       id="defs16594">
      <linearGradient
         id="linearGradient703"
         x1="0.0000000"
         y1="0.50000000"
         x2="1.0000000"
         y2="0.50000000"
         gradientUnits="objectBoundingBox"
         spreadMethod="pad"
         xlink:href="#linearGradient17327" />
      <linearGradient
         id="linearGradient866"
         x1="0.0000000"
         y1="0.50000000"
         x2="1.0000000"
         y2="0.50000000"
         gradientUnits="objectBoundingBox"
         spreadMethod="pad"
         xlink:href="#linearGradient16702" />
      <linearGradient
         id="linearGradient584"
         x1="0.0000000"
         y1="0.50000000"
         x2="1.0000000"
         y2="0.50000000"
         gradientUnits="objectBoundingBox"
         spreadMethod="pad"
         xlink:href="#linearGradient27393" />
      <linearGradient
         xlink:href="#linearGradient866"
         id="linearGradient586"
         x1="-0.0000000"
         y1="0.015625000"
         x2="0.99122804"
         y2="0.98437500" />
      <linearGradient
         xlink:href="#linearGradient584"
         id="linearGradient587"
         x1="0.0000000"
         y1="-0.0000000"
         x2="1.0000000"
         y2="1.0000000" />
      <linearGradient
         xlink:href="#linearGradient584"
         id="linearGradient700"
         x1="0.0000000"
         y1="-0.0000000"
         x2="0.98795182"
         y2="1.0000000" />
      <linearGradient
         xlink:href="#linearGradient703"
         id="linearGradient701"
         x1="-0.0000000"
         y1="-0.0000000"
         x2="0.99264705"
         y2="0.99218750" />
      <linearGradient
         xlink:href="#linearGradient703"
         id="linearGradient702"
         x1="-0.0000000"
         y1="0.0000000"
         x2="0.97457629"
         y2="0.96093750" />
      <linearGradient
         xlink:href="#linearGradient584"
         id="linearGradient845"
         x1="-0.0000000"
         y1="-0.0000000"
         x2="0.99635035"
         y2="0.97727275" />
      <radialGradient
         xlink:href="#linearGradient703"
         id="radialGradient846" />
      <linearGradient
         xlink:href="#linearGradient584"
         id="linearGradient847"
         x1="0.0000000"
         y1="-0.0000000"
         x2="0.98540145"
         y2="0.93902439" />
      <linearGradient
         xlink:href="#linearGradient703"
         id="linearGradient848"
         x1="0.012195110"
         y1="0.015625030"
         x2="0.99999994"
         y2="1.0000001" />
      <linearGradient
         xlink:href="#linearGradient584"
         id="linearGradient849"
         x1="0.0000000"
         y1="-0.0000000"
         x2="0.98514849"
         y2="1.0234375" />
      <linearGradient
         xlink:href="#linearGradient703"
         id="linearGradient850"
         x1="-0.0000000"
         y1="0.0000000"
         x2="1.0000000"
         y2="0.95652175" />
      <linearGradient
         xlink:href="#linearGradient584"
         id="linearGradient863"
         x1="-0.0000000"
         y1="-0.0000000"
         x2="0.99635035"
         y2="0.82142860" />
    </defs>
    <sodipodi:namedview
       id="namedview16616"
       pagecolor="#ffffff"
       bordercolor="#666666"
       borderopacity="1.0"
       inkscape:pageopacity="0.0"
       inkscape:pageshadow="2"
       inkscape:zoom="7.9794719"
       inkscape:cx="23.825571"
       inkscape:cy="25.500275"
       inkscape:window-width="640"
       inkscape:window-height="516"
       inkscape:window-x="24"
       inkscape:window-y="167" />
    <linearGradient
       inkscape:collect="always"
       xlink:href="#linearGradient17327"
       id="linearGradient17326"
       x1="-7.8149293e-16"
       y1="0.015625000"
       x2="1.0000000"
       y2="1.0234375" />
    <linearGradient
       inkscape:collect="always"
       xlink:href="#linearGradient17327"
       id="linearGradient17331"
       x1="0.24731277"
       y1="0.0053629531"
       x2="0.76709741"
       y2="0.91090178" />
    <linearGradient
       inkscape:collect="always"
       xlink:href="#linearGradient27393"
       id="linearGradient28646"
       x1="-8.7286949e-15"
       y1="0.023437500"
       x2="1.0592105"
       y2="0.95312500" />
    <linearGradient
       inkscape:collect="always"
       xlink:href="#linearGradient27393"
       id="linearGradient31134"
       x1="4.1134630e-15"
       y1="0.023437500"
       x2="0.99425286"
       y2="0.95312500" />
    <linearGradient
       inkscape:collect="always"
       xlink:href="#linearGradient16702"
       id="linearGradient6792"
       x1="1.0572055e-15"
       y1="0.015625000"
       x2="0.98181820"
       y2="0.99218750" />
    <linearGradient
       inkscape:collect="always"
       xlink:href="#linearGradient17327"
       id="linearGradient6793"
       x1="0.25261095"
       y1="0.013128259"
       x2="0.74352360"
       y2="0.95546067" />
    <linearGradient
       inkscape:collect="always"
       xlink:href="#linearGradient27393"
       id="linearGradient8081"
       x1="-2.2022933e-16"
       y1="2.0174834e-15"
       x2="0.96071428"
       y2="0.95535713" />
    <linearGradient
       inkscape:collect="always"
       xlink:href="#linearGradient27393"
       id="linearGradient8710"
       x1="0.26694915"
       y1="0.031250000"
       x2="0.80508476"
       y2="1.0078125" />
    <linearGradient
       inkscape:collect="always"
       xlink:href="#linearGradient27393"
       id="linearGradient10593"
       x1="0.011627907"
       y1="0.015625000"
       x2="0.89534885"
       y2="0.96875000" />
    <linearGradient
       inkscape:collect="always"
       xlink:href="#linearGradient27393"
       id="linearGradient11840"
       x1="0.30357143"
       y1="-0.53448278"
       x2="0.77857143"
       y2="1.5517242" />
    <linearGradient
       inkscape:collect="always"
       xlink:href="#linearGradient27393"
       id="linearGradient14331"
       x1="0.28928572"
       y1="-0.10000000"
       x2="0.75000000"
       y2="1.1100000" />
    <linearGradient
       inkscape:collect="always"
       xlink:href="#linearGradient27393"
       id="linearGradient14954"
       x1="0.27857143"
       y1="-1.8846154"
       x2="0.71785712"
       y2="2.8461537" />
    <linearGradient
       inkscape:collect="always"
       xlink:href="#linearGradient17327"
       id="linearGradient16889"
       x1="0.22086620"
       y1="0.0098364884"
       x2="0.79965836"
       y2="0.99806935" />
  </defs>
  <sodipodi:namedview
     id="base"
     pagecolor="#ffffff"
     bordercolor="#666666"
     borderopacity="1.0"
     inkscape:pageopacity="0.0"
     inkscape:pageshadow="2"
     inkscape:zoom="9.3333333"
     inkscape:cx="24.204753"
     inkscape:cy="24.000000"
     inkscape:window-width="770"
     inkscape:window-height="614"
     inkscape:window-x="290"
     inkscape:window-y="51"
     showguides="true"
     inkscape:guide-bbox="true" />
  <metadata
     id="metadata4">
    <rdf:RDF
       id="RDF5">
      <cc:Work
         rdf:about=""
         id="Work6">
        <dc:format
           id="format7">image/svg+xml</dc:format>
        <dc:type
           id="type9"
           rdf:resource="http://purl.org/dc/dcmitype/StillImage" />
      </cc:Work>
    </rdf:RDF>
  </metadata>
  <path
     style="opacity:0.29999998;fill:#000000;fill-opacity:1.0000000;fill-rule:evenodd;stroke:none;stroke-width:1.8750000;stroke-linecap:round;stroke-linejoin:round;stroke-miterlimit:4.0000000;stroke-opacity:1.0000000;"
     d="M 33.669643,3.9375000 C 31.973029,5.9531325 30.122157,9.0630263 27.450893,10.156250 C 24.093765,9.0630263 18.716433,7.8686338 15.575893,10.875000 C 19.474495,11.250796 21.925544,14.814347 20.950893,16.625000 C 17.196684,17.137450 11.893184,18.066464 9.7633926,20.218750 C 15.936179,21.585280 18.655679,22.396176 20.388393,25.812500 C 20.601688,25.267042 20.875878,24.850925 21.107143,24.343750 C 20.913052,25.359300 20.634075,26.480087 20.732143,27.156250 C 21.329131,31.272381 25.667715,37.532021 32.138393,37.375000 C 38.605754,37.218060 43.263393,29.617215 43.263393,25.406250 C 43.263393,24.592368 42.924149,23.396918 42.575893,22.218750 C 42.617391,22.288973 42.659654,22.335007 42.700893,22.406250 C 42.556501,17.657560 48.342711,16.357789 52.638393,15.093750 C 50.797387,12.224036 44.782674,11.912603 40.450893,12.937500 C 41.461641,11.058521 44.421861,9.1165300 46.732143,7.7500000 C 43.699897,5.8710224 38.708372,7.2205973 36.325893,9.0312500 C 34.954163,8.2113310 34.283312,5.4748462 33.669643,3.9375000 z M 44.075893,36.062500 C 40.992545,37.020437 43.416578,46.830330 46.044643,46.843750 C 48.653043,46.857075 59.495209,46.040507 57.169643,40.718750 C 54.862475,35.440709 50.228214,40.338352 47.888393,39.593750 C 45.548575,38.849150 47.108485,35.120894 44.075893,36.062500 z M 19.388393,36.781250 C 16.355800,35.839644 17.915713,39.567903 15.575893,40.312500 C 13.236073,41.057102 8.6018109,36.159458 6.2946429,41.437500 C 3.9690769,46.759257 14.842495,47.575824 17.450893,47.562500 C 20.078957,47.549080 22.471742,37.739186 19.388393,36.781250 z M 35.044643,51.500000 C 35.315193,54.080211 35.586592,56.669790 35.857143,59.250000 C 41.413282,58.927936 46.957254,58.603314 52.513393,58.281250 C 51.985982,51.408524 40.037166,51.464679 35.044643,51.500000 z M 28.169643,52.062500 C 23.180367,51.992938 11.228960,51.843432 10.825893,58.718750 C 16.383521,59.079179 21.924516,59.452073 27.482143,59.812500 C 27.705956,57.231813 27.945832,54.643187 28.169643,52.062500 z "
     id="path1680"
     transform="matrix(1.006500,0.000000,0.000000,1.006500,-0.596815,-0.202479)" />
  <path
     style="fill:url(#linearGradient17331);fill-opacity:1.00000000;fill-rule:evenodd;stroke:#261933;stroke-width:1.8628912;stroke-linecap:round;stroke-linejoin:round;stroke-miterlimit:4.0000000;stroke-opacity:1.0000000;stroke-dasharray:none;"
     d="M 49.494174,56.141512 C 43.938035,56.463577 38.381896,56.785641 32.825757,57.107705 C 32.555206,54.527494 32.284655,51.947260 32.014105,49.367049 C 37.006627,49.331729 48.966763,49.268786 49.494174,56.141512 z "
     id="path13474"
     sodipodi:nodetypes="cccc"
     transform="matrix(1.006500,0.000000,0.000000,1.006500,0.693981,-0.876475)" />
  <path
     style="fill:url(#linearGradient31134);fill-opacity:1.0000000;fill-rule:evenodd;stroke:none;stroke-width:1.0000000pt;stroke-linecap:butt;stroke-linejoin:miter;stroke-opacity:1.0000000;"
     d="M 34.583135,55.284837 C 34.493514,54.033591 33.998819,51.871011 34.360846,51.321024 C 34.713437,50.785375 44.215244,51.565549 45.878359,52.919478 C 43.570566,52.019073 36.364681,51.851234 35.859790,52.287921 C 35.334727,52.742060 34.779577,54.306865 34.583135,55.284837 z "
     id="path30512"
     sodipodi:nodetypes="czczc"
     transform="matrix(1.006500,0.000000,0.000000,1.006500,0.693981,-0.876475)" />
  <path
     style="fill:url(#linearGradient16889);fill-opacity:1.00000000;fill-rule:evenodd;stroke:#261933;stroke-width:1.8628912;stroke-linecap:round;stroke-linejoin:round;stroke-miterlimit:4.0000000;stroke-opacity:1.0000000;stroke-dasharray:none;"
     d="M 9.0764597,55.907922 C 14.634086,56.268350 20.191711,56.628780 25.749338,56.989207 C 25.973151,54.408521 26.196962,51.827811 26.420773,49.247124 C 21.431497,49.177561 9.4795265,49.032604 9.0764597,55.907922 z "
     id="path7431"
     sodipodi:nodetypes="cccc"
     transform="matrix(1.006500,0.000000,0.000000,1.006500,-0.596815,-0.202479)" />
  <path
     style="fill:url(#linearGradient8081);fill-opacity:1.0000000;fill-rule:evenodd;stroke:none;stroke-width:1.0000000pt;stroke-linecap:butt;stroke-linejoin:miter;stroke-opacity:1.0000000;"
     d="M 11.199731,54.458619 C 11.644668,53.959929 12.280335,52.529256 15.226305,51.605833 C 18.106014,50.703181 20.989895,50.583412 24.292879,50.648811 C 21.183019,51.161897 19.325619,51.399729 16.427203,52.107448 C 14.459552,52.587897 13.240164,53.316517 11.199731,54.458619 z "
     id="path8080"
     sodipodi:nodetypes="cscsc"
     transform="matrix(1.006500,0.000000,0.000000,1.006500,-0.596815,-0.202479)" />
  <path
     style="fill:url(#linearGradient17326);fill-opacity:1.00000000;fill-rule:evenodd;stroke:#261933;stroke-width:1.8628912;stroke-linecap:round;stroke-linejoin:round;stroke-miterlimit:4.0000000;stroke-opacity:1.0000000;stroke-dasharray:none;"
     d="M 42.345768,33.247130 C 39.262420,34.205066 41.662565,44.019365 44.290630,44.032785 C 46.899029,44.046108 57.759748,43.242737 55.434182,37.920980 C 53.127014,32.642937 48.498824,37.539473 46.159003,36.794871 C 43.819185,36.050272 45.378360,32.305524 42.345768,33.247130 z "
     id="path11602"
     sodipodi:nodetypes="czzzz"
     transform="matrix(1.006500,0.000000,0.000000,1.006500,-0.596815,-0.202479)" />
  <path
     style="fill:url(#linearGradient28646);fill-opacity:1.0000000;fill-rule:evenodd;stroke:none;stroke-width:1.0000000pt;stroke-linecap:butt;stroke-linejoin:miter;stroke-opacity:1.0000000;"
     d="M 44.541754,42.544136 C 42.792379,40.579033 42.245320,35.891478 42.865843,35.333060 C 43.168126,35.061031 42.954948,38.231022 45.425028,38.292260 C 47.935665,38.353498 49.817990,37.642698 52.280818,36.823289 C 51.501340,38.487725 45.362632,39.021529 44.713311,39.467184 C 44.086998,39.897053 44.712056,41.626452 44.541754,42.544136 z "
     id="path27403"
     sodipodi:nodetypes="cszczc"
     transform="matrix(1.006500,0.000000,0.000000,1.006500,-0.596815,-0.202479)" />
  <path
     style="fill:url(#linearGradient17326);fill-opacity:1.00000000;fill-rule:evenodd;stroke:#261933;stroke-width:1.8628912;stroke-linecap:round;stroke-linejoin:round;stroke-miterlimit:4.0000000;stroke-opacity:1.0000000;stroke-dasharray:none;"
     d="M 17.654233,33.966024 C 20.737581,34.923960 18.337435,44.738259 15.709371,44.751679 C 13.100972,44.765002 2.2402533,43.961631 4.5658192,38.639874 C 6.8729872,33.361831 11.501177,38.258367 13.840997,37.513765 C 16.180816,36.769166 14.621640,33.024418 17.654233,33.966024 z "
     id="path8079"
     sodipodi:nodetypes="czzzz"
     transform="matrix(1.006500,0.000000,0.000000,1.006500,-0.596815,-0.202479)" />
  <path
     style="fill:url(#linearGradient8710);fill-opacity:1.0000000;fill-rule:evenodd;stroke:none;stroke-width:1.0000000pt;stroke-linecap:butt;stroke-linejoin:miter;stroke-opacity:1.0000000;"
     d="M 5.7940286,40.551668 C 5.9512332,39.544283 6.6911960,37.853678 7.7328848,37.662845 C 8.8245819,37.462849 12.183530,39.488846 14.178265,39.040592 C 16.221923,38.581343 16.414062,36.966564 17.060347,35.351786 C 16.920610,36.996193 16.300524,39.610949 14.807083,40.151677 C 13.313641,40.692405 9.9948806,38.722080 8.4665042,38.818374 C 6.9381277,38.914668 6.3704449,39.573913 5.7940286,40.551668 z "
     id="path8709"
     sodipodi:nodetypes="czzczzc"
     transform="matrix(1.006500,0.000000,0.000000,1.006500,-0.596815,-0.202479)" />
  <path
     style="fill:url(#linearGradient6792);fill-opacity:1.0000000;fill-rule:evenodd;stroke:#261933;stroke-width:1.6583916;stroke-linecap:round;stroke-linejoin:round;stroke-miterlimit:4.0000000;stroke-opacity:1.0000000;stroke-dasharray:none;"
     d="M 21.655162,21.936480 C 22.172176,25.703099 25.942036,31.434166 31.545883,31.290478 C 37.146858,31.146864 41.168743,24.171375 41.168743,20.317975 C 41.168743,16.459437 36.802183,6.5887383 31.373545,6.6461843 C 25.858737,6.7036302 21.126537,18.085269 21.655162,21.936480 z "
     id="path3044"
     sodipodi:nodetypes="czzzz"
     transform="matrix(1.162190,0.000000,0.000000,1.099895,-6.657531,0.185052)" />
  <path
     style="fill:url(#linearGradient6793);fill-opacity:1.0000000;fill-rule:evenodd;stroke:#261933;stroke-width:1.6583916;stroke-linecap:round;stroke-linejoin:round;stroke-miterlimit:4.0000000;stroke-opacity:1.0000000;stroke-dasharray:none;"
     d="M 21.372509,20.692536 C 19.871916,17.566301 17.520295,16.824884 12.174434,15.574390 C 14.018912,13.604861 18.599575,12.760778 21.850859,12.291842 C 22.694942,10.634937 20.566332,7.3795637 17.189998,7.0356774 C 19.909823,4.2845901 24.570685,5.3828627 27.478082,6.3832577 C 29.791496,5.3828627 31.399463,2.5352172 32.868794,0.69073760 C 33.400253,2.0975436 33.980652,4.6013029 35.168621,5.3516003 C 37.231936,3.6946951 41.562500,2.4536987 44.188537,4.1731271 C 42.187747,5.4236213 39.607876,7.1960785 38.732531,8.9155084 C 42.484013,7.9776381 47.695329,8.2712668 49.289709,10.897305 C 45.569489,12.054011 40.563875,13.225089 40.688924,17.570555 C 34.780340,6.7850434 25.780500,8.7815798 21.372509,20.692536 z "
     id="path1799"
     sodipodi:nodetypes="cccccccccccc"
     transform="matrix(1.162190,0.000000,0.000000,1.099895,-6.657531,0.185052)" />
  <path
     sodipodi:type="arc"
     style="fill:none;fill-opacity:1.00000000;fill-rule:evenodd;stroke:#261933;stroke-width:0.51512021;stroke-linecap:butt;stroke-linejoin:round;stroke-miterlimit:4.0000000;stroke-opacity:1.0000000;"
     id="path4915"
     sodipodi:cx="-42.941357"
     sodipodi:cy="-26.396540"
     sodipodi:rx="0.95425236"
     sodipodi:ry="0.95425236"
     d="M -41.987104 -26.396540 A 0.95425236 0.95425236 0 1 0 -43.895609,-26.396540 A 0.95425236 0.95425236 0 1 0 -41.987104 -26.396540 z"
     transform="matrix(1.882953,0.000000,0.000000,1.782023,107.0136,67.29341)" />
  <path
     sodipodi:type="arc"
     style="fill:none;fill-opacity:1.00000000;fill-rule:evenodd;stroke:#261933;stroke-width:0.51512021;stroke-linecap:butt;stroke-linejoin:round;stroke-miterlimit:4.0000000;stroke-opacity:1.0000000;"
     id="path4916"
     sodipodi:cx="-42.941357"
     sodipodi:cy="-26.396540"
     sodipodi:rx="0.95425236"
     sodipodi:ry="0.95425236"
     d="M -41.987104 -26.396540 A 0.95425236 0.95425236 0 1 0 -43.895609,-26.396540 A 0.95425236 0.95425236 0 1 0 -41.987104 -26.396540 z"
     transform="matrix(1.882953,0.000000,0.000000,1.782023,114.4774,67.16260)" />
  <path
     style="fill:none;fill-opacity:1.00000000;fill-rule:evenodd;stroke:#261933;stroke-width:0.83458537;stroke-linecap:round;stroke-linejoin:round;stroke-miterlimit:4.0000000;stroke-opacity:1.0000000;"
     d="M 23.855312,21.293471 C 29.286336,28.785908 32.947371,29.084847 38.721258,21.650253"
     id="path4917"
     sodipodi:nodetypes="cc"
     transform="matrix(1.162190,0.000000,0.000000,1.099895,-6.681355,0.626975)" />
  <path
     style="fill:none;fill-opacity:1.00000000;fill-rule:evenodd;stroke:#261933;stroke-width:0.83458537;stroke-linecap:round;stroke-linejoin:round;stroke-miterlimit:4.0000000;stroke-opacity:1.0000000;"
     d="M 29.969032,22.045450 C 30.956760,21.198223 32.113937,21.222429 32.871705,22.045450"
     id="path4918"
     sodipodi:nodetypes="cc"
     transform="matrix(1.162190,0.000000,0.000000,1.099895,-6.681355,0.626975)" />
  <path
     style="fill:url(#linearGradient10593);fill-opacity:1.0000000;fill-rule:evenodd;stroke:none;stroke-width:1.0000000pt;stroke-linecap:butt;stroke-linejoin:miter;stroke-opacity:1.0000000;"
     d="M 24.998605,27.047294 C 23.212990,25.117387 21.562649,21.582231 23.158880,18.065111 C 24.496362,15.118118 28.894492,11.103018 32.465721,12.113062 C 28.641980,12.762376 25.512645,16.495934 24.241071,19.039082 C 22.969497,21.582230 24.204998,24.828803 24.998605,27.047294 z "
     id="path9350"
     sodipodi:nodetypes="csczc"
     transform="matrix(1.162190,0.000000,0.000000,1.099895,-5.806724,0.185052)" />
  <path
     style="fill:url(#linearGradient11840);fill-opacity:1.0000000;fill-rule:evenodd;stroke:none;stroke-width:1.0000000pt;stroke-linecap:butt;stroke-linejoin:miter;stroke-opacity:1.0000000;"
     d="M 31.781250,3.3125000 C 30.637708,4.9059609 27.763133,7.5197766 26.814741,7.5200865 C 26.190432,7.5202904 21.370589,5.7917857 19.468750,6.7812500 C 22.049460,8.3235678 22.920392,11.334348 22.250704,12.666432 C 21.505873,14.147985 18.564546,13.179872 14.569757,15.042136 C 17.604216,14.384334 22.218769,14.296180 22.727525,12.704235 C 23.541898,10.155981 22.549594,8.3507266 22.937500,7.9062500 C 23.292649,7.4993074 26.602180,7.9089061 27.038507,7.8953641 C 27.455322,7.8824277 31.137342,4.9946684 31.531250,4.8750000 C 31.923982,4.7556890 32.719133,5.5944777 33.136719,5.8828125 C 32.525587,5.0824181 31.920446,3.9289402 31.781250,3.3125000 z "
     id="path11218"
     sodipodi:nodetypes="cscscsczccc"
     transform="matrix(1.162190,0.000000,0.000000,1.099895,-5.806724,0.185052)" />
  <path
     style="fill:url(#linearGradient14331);fill-opacity:1.0000000;fill-rule:evenodd;stroke:none;stroke-width:1.0000000pt;stroke-linecap:butt;stroke-linejoin:miter;stroke-opacity:1.0000000;"
     d="M 34.802911,6.6907779 C 35.539481,5.9726226 36.810064,5.3695563 37.868883,5.0058750 C 38.927701,4.6421938 39.802377,4.4902763 40.934853,4.5086905 C 39.866827,4.6744187 39.169128,4.9855985 38.145095,5.3373313 C 37.051490,5.7129609 35.880144,6.2672504 34.802911,6.6907779 z "
     id="path13088"
     sodipodi:nodetypes="czcsc"
     transform="matrix(1.162190,0.000000,0.000000,1.099895,-5.806724,0.185052)" />
  <path
     style="fill:url(#linearGradient14954);fill-opacity:1.0000000;fill-rule:evenodd;stroke:none;stroke-width:1.0000000pt;stroke-linecap:butt;stroke-linejoin:miter;stroke-opacity:1.0000000;"
     d="M 38.014574,10.227721 C 39.136174,9.7713777 41.580499,9.5339503 42.774476,9.6244258 C 43.995917,9.7169826 45.094970,9.9780796 46.398762,10.344445 C 45.100557,10.173122 43.817374,10.171389 42.528005,10.107712 C 41.123102,10.038331 39.420041,10.156617 38.014574,10.227721 z "
     id="path14332"
     sodipodi:nodetypes="czcsc"
     transform="matrix(1.162190,0.000000,0.000000,1.099895,-5.806724,0.185052)" />
</svg>
