<?xml version="1.0" encoding="UTF-8" standalone="no"?>
<!DOCTYPE svg PUBLIC "-//W3C//DTD SVG 20010904//EN"
"http://www.w3.org/TR/2001/REC-SVG-20010904/DTD/svg10.dtd">
<!-- Created with Inkscape (http://www.inkscape.org/) -->
<svg
   id="svg1"
   sodipodi:version="0.32"
   inkscape:version="0.37"
   width="48pt"
   height="48pt"
   sodipodi:docbase="/usr/share/icons/Lila/scalable/apps"
   sodipodi:docname="gnome-applications.svg"
   xmlns="http://www.w3.org/2000/svg"
   xmlns:inkscape="http://www.inkscape.org/namespaces/inkscape"
   xmlns:sodipodi="http://sodipodi.sourceforge.net/DTD/sodipodi-0.dtd"
   xmlns:xlink="http://www.w3.org/1999/xlink">
  <defs
     id="defs3">
    <linearGradient
       id="linearGradient866">
      <stop
         style="stop-color:#ffffff;stop-opacity:1;"
         offset="0.00000000"
         id="stop867" />
      <stop
         style="stop-color:#d9cce6;stop-opacity:1;"
         offset="1.00000000"
         id="stop868" />
    </linearGradient>
    <linearGradient
       id="linearGradient584">
      <stop
         style="stop-color:#ffffff;stop-opacity:1;"
         offset="0.00000000"
         id="stop585" />
      <stop
         style="stop-color:#ffffff;stop-opacity:0;"
         offset="1.00000000"
         id="stop586" />
    </linearGradient>
    <linearGradient
       xlink:href="#linearGradient866"
       id="linearGradient586"
       x1="-0.00000000"
       y1="0.01562500"
       x2="0.99122804"
       y2="0.98437500" />
    <linearGradient
       xlink:href="#linearGradient584"
       id="linearGradient587"
       x1="0.00000000"
       y1="-0.00000000"
       x2="1.00000000"
       y2="1.00000000" />
  </defs>
  <sodipodi:namedview
     id="base"
     pagecolor="#ffffff"
     bordercolor="#666666"
     borderopacity="1.0"
     inkscape:pageopacity="0.0"
     inkscape:pageshadow="2"
     inkscape:zoom="5.64233871"
     inkscape:cx="24.3345633"
     inkscape:cy="21.7103741"
     inkscape:window-width="640"
     inkscape:window-height="516"
     inkscape:window-x="78"
     inkscape:window-y="82" />
  <path
     d="M 18.790835 39.271248 C 19.404868 41.10572 44.832452 49.354423 46.501958 47.97021 C 47.996344 46.718165 59.178122 9.4509499 58.429425 7.972964 C 57.651179 6.3434874 31.853143 2.2847412 30.628621 3.3992578 C 29.120271 4.7801449 18.145947 37.16643 18.790835 39.271248 z "
     style="font-size:12;opacity:0.302675;fill-rule:evenodd;stroke-width:12.5;"
     id="path588" />
  <path
     d="M 19.060151 37.752923 C 19.634654 39.469211 43.424083 47.186509 44.986026 45.891469 C 46.384139 44.720086 56.845556 9.8537436 56.145094 8.4709455 C 55.416985 6.9464454 31.280941 3.1492063 30.135305 4.1919219 C 28.724131 5.4838473 18.456806 35.783705 19.060151 37.752923 z "
     style="font-size:12;fill:url(#linearGradient586);fill-rule:evenodd;stroke:#261933;stroke-width:1.875;stroke-dasharray:none;"
     id="path589" />
  <path
     d="M 20.678707 36.145253 C 20.430431 35.516264 30.295267 6.271254 31.217519 5.6681456 C 32.370141 4.8815437 51.003067 8.3636815 51.25076 8.9911937 C 51.477789 9.5663289 36.71327 6.8807429 33.428504 9.8188799 C 27.12861 15.295722 20.905153 36.718941 20.678707 36.145253 z "
     style="font-size:12;opacity:0.699936;fill:url(#linearGradient587);fill-rule:evenodd;stroke-width:0.100121pt;"
     id="path590" />
  <path
     d="M 11.563941 44.416247 C 12.177973 46.250718 37.605558 54.499423 39.275063 53.115209 C 40.769448 51.863163 51.951226 14.595949 51.202529 13.117963 C 50.424285 11.488486 24.626247 7.4297399 23.401725 8.5442564 C 21.893375 9.9251435 10.919052 42.311428 11.563941 44.416247 z "
     style="font-size:12;opacity:0.302675;fill-rule:evenodd;stroke-width:12.5;"
     id="path591" />
  <path
     d="M 11.651352 42.897922 C 12.225856 44.61421 36.015285 52.331507 37.577228 51.036467 C 38.975341 49.865084 49.436758 14.998742 48.736296 13.615944 C 48.008187 12.091444 23.872144 8.2942049 22.726507 9.3369205 C 21.315333 10.628846 11.048008 40.928703 11.651352 42.897922 z "
     style="font-size:12;fill:url(#linearGradient586);fill-rule:evenodd;stroke:#261933;stroke-width:1.875;stroke-dasharray:none;"
     id="path592" />
  <path
     d="M 13.269909 41.290251 C 13.021633 40.661262 22.886469 11.416253 23.808721 10.813144 C 24.961343 10.026542 43.594269 13.50868 43.841961 14.136193 C 44.068991 14.711328 29.304472 12.025742 26.019707 14.963878 C 19.719812 20.44072 13.496355 41.86394 13.269909 41.290251 z "
     style="font-size:12;opacity:0.699936;fill:url(#linearGradient587);fill-rule:evenodd;stroke-width:0.100121pt;"
     id="path593" />
  <path
     d="M 3.743546 49.561242 C 4.3575782 51.395715 29.785164 59.644418 31.454669 58.260205 C 32.949054 57.00816 44.130832 19.740945 43.382135 18.262959 C 42.603891 16.633482 16.805853 12.574735 15.581331 13.689253 C 14.072981 15.070139 3.0986574 47.456425 3.743546 49.561242 z "
     style="font-size:12;opacity:0.302675;fill-rule:evenodd;stroke-width:12.5;"
     id="path639" />
  <path
     d="M 3.8309577 48.042918 C 4.4054611 49.759205 28.19489 57.476504 29.756834 56.181463 C 31.154946 55.010079 41.616363 20.143739 40.915902 18.76094 C 40.187793 17.23644 16.051749 13.439201 14.906112 14.481917 C 13.494938 15.773842 3.227613 46.073699 3.8309577 48.042918 z "
     style="font-size:12;fill:url(#linearGradient586);fill-rule:evenodd;stroke:#261933;stroke-width:1.875;stroke-dasharray:none;"
     id="path634" />
  <path
     d="M 5.4495138 46.435247 C 5.2012387 45.806259 15.066074 16.561248 15.988327 15.958141 C 17.140948 15.171539 35.773875 18.653676 36.021567 19.281188 C 36.248597 19.856324 21.484078 17.170738 18.199312 20.108875 C 11.899418 25.585716 5.6759604 47.008936 5.4495138 46.435247 z "
     style="font-size:12;opacity:0.699936;fill:url(#linearGradient587);fill-rule:evenodd;stroke-width:0.100121pt;"
     id="path640" />
  <path
     style="font-size:12;opacity:0.498153;fill:#261933;fill-rule:evenodd;stroke-width:1pt;"
     d="M 16.622997 19.640559 C 22.84261 20.271535 30.219359 21.469929 35.977493 22.987577 C 36.476827 23.119185 35.924746 24.642027 35.395403 24.588325 C 29.23071 23.962922 21.713418 22.483697 15.895384 20.950263 C 15.455949 20.834442 16.148574 19.592429 16.622997 19.640559 z "
     id="path602"
     sodipodi:nodetypes="cssss" />
  <path
     style="font-size:12;opacity:0.498153;fill:#261933;fill-rule:evenodd;stroke-width:1pt;"
     d="M 25.063303 26.189073 C 24.171842 27.056852 21.151214 36.557642 21.716285 37.539829 C 22.172739 37.751131 29.838619 40.424557 30.738682 39.577145 C 31.756088 38.764777 34.855994 28.628689 34.376745 27.644297 C 33.962124 26.938173 25.884335 25.50201 25.063303 26.189073 z "
     id="path604"
     sodipodi:nodetypes="cssss" />
  <path
     style="font-size:12;opacity:0.498153;fill:#261933;fill-rule:evenodd;stroke-width:1pt;"
     d="M 10.401468 38.244889 C 16.566611 39.280616 23.849371 40.958105 29.496126 42.848482 C 29.985801 43.012412 29.335466 44.495957 28.81076 44.407807 C 22.700055 43.381226 15.295388 41.41433 9.5898928 39.504289 C 9.1589575 39.360023 9.9311992 38.165885 10.401468 38.244889 z "
     id="path605"
     sodipodi:nodetypes="cssss" />
  <path
     style="font-size:12;opacity:0.498153;fill:#261933;fill-rule:evenodd;stroke-width:1pt;"
     d="M 8.9279555 43.273906 C 15.047983 44.549438 22.259731 46.509858 27.828413 48.619158 C 28.311318 48.802072 27.603584 50.259109 27.082717 50.150549 C 21.016729 48.886281 13.694462 46.631917 8.0678508 44.500674 C 7.6428737 44.339702 8.4611282 43.17661 8.9279555 43.273906 z "
     id="path606"
     sodipodi:nodetypes="cssss" />
  <path
     style="font-size:12;opacity:0.498153;fill:#261933;fill-rule:evenodd;stroke-width:1pt;"
     d="M 15.091298 24.56174 C 18.073371 24.955568 20.585232 25.503804 23.33248 26.317361 C 23.570715 26.387911 23.017679 27.699034 22.763878 27.665515 C 19.808137 27.275164 17.087423 26.745573 14.311596 25.923554 C 14.101939 25.861466 14.86383 24.5317 15.091298 24.56174 z "
     id="path607"
     sodipodi:nodetypes="cssss" />
  <path
     style="font-size:12;opacity:0.498153;fill:#261933;fill-rule:evenodd;stroke-width:1pt;"
     d="M 13.345027 28.636371 C 16.327101 29.030199 18.838961 29.578435 21.586209 30.391992 C 21.824445 30.46254 21.271409 31.773665 21.017608 31.740146 C 18.061866 31.349795 15.341152 30.820203 12.565325 29.998184 C 12.355668 29.936097 13.117559 28.606331 13.345027 28.636371 z "
     id="path608"
     sodipodi:nodetypes="cssss" />
</svg>
