<?xml version="1.0" encoding="UTF-8" standalone="no"?>
<!DOCTYPE svg PUBLIC "-//W3C//DTD SVG 20010904//EN"
"http://www.w3.org/TR/2001/REC-SVG-20010904/DTD/svg10.dtd">
<!-- Created with Inkscape (http://www.inkscape.org/) -->
<svg
   id="svg634"
   sodipodi:version="0.32"
   width="48pt"
   height="48pt"
   xml:space="preserve"
   sodipodi:docbase="/home/scaba/files/pre-release/lila-gnome/Lila"
   sodipodi:docname="gnome-settings-theme.svg"
   inkscape:version="0.39"
   xmlns="http://www.w3.org/2000/svg"
   xmlns:cc="http://web.resource.org/cc/"
   xmlns:inkscape="http://www.inkscape.org/namespaces/inkscape"
   xmlns:sodipodi="http://sodipodi.sourceforge.net/DTD/sodipodi-0.dtd"
   xmlns:rdf="http://www.w3.org/1999/02/22-rdf-syntax-ns#"
   xmlns:xml="http://www.w3.org/XML/1998/namespace"
   xmlns:dc="http://purl.org/dc/elements/1.1/"
   xmlns:xlink="http://www.w3.org/1999/xlink"><defs
   id="defs636"><linearGradient
   id="linearGradient866">
  <stop
     style="stop-color:#ffffff;stop-opacity:1;"
     offset="0.00000000"
     id="stop867" />
  <stop
     style="stop-color:#d9cce6;stop-opacity:1;"
     offset="1.00000000"
     id="stop868" />
</linearGradient>
<linearGradient
   xlink:href="#linearGradient866"
   id="linearGradient638"
   x1="0.00000000"
   y1="0.00000000"
   x2="0.98684210"
   y2="1.02343750" />
<linearGradient
   id="linearGradient642">
  <stop
     style="stop-color:#d9cce6;stop-opacity:1;"
     offset="0.00000000"
     id="stop643" />
  <stop
     style="stop-color:#73667f;stop-opacity:1;"
     offset="1.00000000"
     id="stop644" />
</linearGradient>
<linearGradient
   xlink:href="#linearGradient642"
   id="linearGradient640"
   x1="0.00000000"
   y1="-0.00000000"
   x2="0.98684210"
   y2="1.02343750" />
<linearGradient
   id="linearGradient584">
  <stop
     style="stop-color:#ffffff;stop-opacity:1;"
     offset="0.00000000"
     id="stop585" />
  <stop
     style="stop-color:#ffffff;stop-opacity:0;"
     offset="1.00000000"
     id="stop586" />
</linearGradient>
<linearGradient
   xlink:href="#linearGradient584"
   id="linearGradient645"
   x1="-0.00000000"
   y1="-0.00000000"
   x2="0.99270076"
   y2="0.94999999" />
<radialGradient
   cx="0.13076705"
   cy="0.41407111"
   fx="0.13076705"
   fy="0.41407111"
   r="0.75421256"
   id="radialGradient592"
   xlink:href="#linearGradient558"
   gradientUnits="objectBoundingBox"
   spreadMethod="pad" />
<radialGradient
   cx="0.14615387"
   cy="0.39062509"
   fx="0.14615387"
   fy="0.39062509"
   r="0.52400964"
   id="radialGradient587"
   xlink:href="#linearGradient558"
   gradientUnits="objectBoundingBox"
   spreadMethod="pad" />
<linearGradient
   x1="0.00000000"
   y1="0.00000000"
   x2="1.00000000"
   y2="0.00000000"
   id="linearGradient569"
   gradientUnits="objectBoundingBox"
   spreadMethod="pad">
  <stop
     style="stop-color:#73667f;stop-opacity:1.0000000;"
     offset="0.0000000"
     id="stop570" />
  <stop
     style="stop-color:#f3e6ff;stop-opacity:1.0000000;"
     offset="1.0000000"
     id="stop571" />
</linearGradient>
<linearGradient
   x1="0.12337894"
   y1="0.99219656"
   x2="0.82467574"
   y2="0.00000038"
   id="linearGradient572"
   xlink:href="#linearGradient569"
   gradientUnits="objectBoundingBox"
   spreadMethod="pad" />
<linearGradient
   x1="0.49351925"
   y1="0.99222833"
   x2="0.49350709"
   y2="0.01562530"
   id="linearGradient563"
   xlink:href="#linearGradient564"
   gradientUnits="objectBoundingBox"
   spreadMethod="pad" />
<linearGradient
   x1="0.00000000"
   y1="0.00000000"
   x2="1.00000000"
   y2="0.00000000"
   id="linearGradient576"
   gradientUnits="objectBoundingBox"
   spreadMethod="pad">
  <stop
     style="stop-color:#000000;stop-opacity:1;"
     offset="0.00000000"
     id="stop577" />
  <stop
     style="stop-color:#000000;stop-opacity:0;"
     offset="1.00000000"
     id="stop578" />
</linearGradient>
<radialGradient
   cx="0.48876417"
   cy="0.98437452"
   fx="0.48804680"
   fy="0.96095657"
   r="0.79719150"
   id="radialGradient579"
   xlink:href="#linearGradient576"
   gradientUnits="objectBoundingBox"
   spreadMethod="pad" />
<linearGradient
   x1="0.03246462"
   y1="0.98445034"
   x2="0.69480515"
   y2="0.24218844"
   id="linearGradient575"
   xlink:href="#linearGradient564"
   gradientUnits="objectBoundingBox"
   spreadMethod="pad" />
<linearGradient
   x1="0.00000000"
   y1="0.00000000"
   x2="1.00000000"
   y2="0.00000000"
   id="linearGradient564"
   gradientUnits="objectBoundingBox"
   spreadMethod="pad">
  <stop
     style="stop-color:#7f7366;stop-opacity:1;"
     offset="0.00000000"
     id="stop565" />
  <stop
     style="stop-color:#7f7366;stop-opacity:0;"
     offset="1.00000000"
     id="stop566" />
</linearGradient>
<linearGradient
   x1="0.57826090"
   y1="0.97656250"
   x2="0.29130435"
   y2="0.51562500"
   id="linearGradient583"
   xlink:href="#linearGradient564"
   gradientUnits="objectBoundingBox"
   spreadMethod="pad" />
<linearGradient
   x1="0.00000000"
   y1="0.00000000"
   x2="1.00000000"
   y2="0.00000000"
   id="linearGradient558"
   gradientUnits="objectBoundingBox"
   spreadMethod="pad">
  <stop
     style="stop-color:#ffffff;stop-opacity:1;"
     offset="0.00000000"
     id="stop559" />
  <stop
     style="stop-color:#ffffff;stop-opacity:0;"
     offset="1.00000000"
     id="stop560" />
</linearGradient>
<linearGradient
   x1="0.96277922"
   y1="0.00000272"
   x2="0.00531922"
   y2="0.98437500"
   id="linearGradient585"
   xlink:href="#linearGradient558"
   gradientUnits="objectBoundingBox"
   spreadMethod="pad" />

    <linearGradient
   id="linearGradient670">
      <stop
   offset="0.00000000"
   style="stop-color:#ffffff;stop-opacity:1;"
   id="stop671" />


      <stop
   offset="1.00000000"
   style="stop-color:#ffffff;stop-opacity:0;"
   id="stop672" />


    </linearGradient>


    <linearGradient
   id="linearGradient725">
      <stop
   offset="0"
   style="stop-color:#d9cce6;stop-opacity:1;"
   id="stop726" />


      <stop
   offset="1"
   style="stop-color:#73667f;stop-opacity:1;"
   id="stop727" />


    </linearGradient>


    <linearGradient
   id="linearGradient796">
      <stop
   offset="0"
   style="stop-color:#dfd8e6;stop-opacity:1;"
   id="stop797" />


      <stop
   offset="1"
   style="stop-color:#79727f;stop-opacity:1;"
   id="stop798" />


    </linearGradient>


    <linearGradient
   id="linearGradient799">
      <stop
   offset="0"
   style="stop-color:#d8e6e6;stop-opacity:1;"
   id="stop800" />


      <stop
   offset="1"
   style="stop-color:#727F7f;stop-opacity:1;"
   id="stop801" />


    </linearGradient>


    <linearGradient
   xlink:href="#linearGradient725"
   id="linearGradient686"
   x1="-0.00000000"
   y1="0.00000000"
   x2="1.00000000"
   y2="0.98101264" />


    <linearGradient
   xlink:href="#linearGradient796"
   id="linearGradient795"
   x1="-1.71303893e-9"
   y1="4.26109592e-9"
   x2="0.99999994"
   y2="4.26109592e-9" />


    <linearGradient
   xlink:href="#linearGradient799"
   id="linearGradient812"
   x1="-1.71303893e-9"
   y1="4.26109592e-9"
   x2="0.99999994"
   y2="4.26109592e-9" />


    <linearGradient
   xlink:href="#linearGradient670"
   id="linearGradient669"
   x1="0.00000000"
   y1="0.00000000"
   x2="0.99156117"
   y2="0.98734176" />


    <linearGradient
   xlink:href="#linearGradient670"
   id="linearGradient674"
   x1="-0.00000000"
   y1="0.00000000"
   x2="0.95238096"
   y2="0.98734176" />


    <linearGradient
   xlink:href="#linearGradient670"
   id="linearGradient676"
   x1="0.00000000"
   y1="-0.00000000"
   x2="1.00558662"
   y2="1.01898730" />


    <linearGradient
   xlink:href="#linearGradient796"
   id="linearGradient743"
   x1="-0.00000000"
   y1="0.00000000"
   x2="1.00000000"
   y2="0.98101264" />


    <linearGradient
   xlink:href="#linearGradient799"
   id="linearGradient767"
   x1="-0.00000000"
   y1="0.00000000"
   x2="1.00000000"
   y2="0.98101264" />


  </defs>
<sodipodi:namedview
   id="base"
   inkscape:zoom="8.2384672"
   inkscape:cx="28.886202"
   inkscape:cy="17.353645"
   inkscape:window-width="761"
   inkscape:window-height="785"
   inkscape:window-x="248"
   inkscape:window-y="26" />
<path
   style="font-size:12.000000;opacity:0.29597899;fill-rule:evenodd;stroke-width:1.8750000;stroke-linejoin:round;"
   d="M 15.873861,14.468017 C 16.046628,14.414456 18.717246,12.720389 20.262458,11.707957 C 21.052618,11.199703 23.038093,9.8505280 23.913608,9.1136605 C 24.647149,8.5946755 24.936998,8.2623456 26.476806,7.1427134 C 28.086432,5.9113233 28.747094,5.4807263 30.307882,4.4563913 C 31.128976,3.9741966 31.921911,3.9006828 32.192599,3.7927571 C 32.601538,3.8278836 33.184324,4.4124878 34.512355,5.1653114 C 35.400210,5.6946802 36.334000,6.2411860 37.841060,6.3484430 C 39.639509,6.2411860 40.477868,5.6517153 41.770870,4.8602802 C 42.040503,4.6858081 43.180030,3.9678104 43.819240,3.9142492 C 44.472489,3.9853740 44.785447,4.1857606 44.988602,4.3264800 C 45.387159,4.3893305 48.438944,6.5099193 48.596783,6.7178541 C 48.876441,6.8603156 53.764270,10.689283 54.059527,10.952008 C 54.387629,11.207978 58.690816,13.908603 59.419389,14.323958 C 58.774344,15.060962 58.166256,15.619147 56.807627,17.048165 C 54.816397,19.181885 53.834387,20.339190 53.147578,21.087727 C 51.929222,21.079821 51.226893,20.554305 50.364130,20.101577 C 48.804553,18.785051 47.781920,17.993684 47.405348,17.973140 C 47.334804,18.305750 47.556112,20.405302 48.022959,23.844748 C 48.950623,30.732990 50.088554,38.896399 49.547477,39.549136 C 47.334804,40.206683 44.360849,40.088752 39.716721,40.040553 C 35.953266,39.999765 32.248678,39.562855 30.544024,39.524103 C 29.135187,39.494212 26.632312,40.242458 26.322161,39.501458 C 26.014410,38.918395 26.320632,36.935835 27.578585,24.239407 C 28.221965,18.247254 28.459268,18.147400 28.345856,17.916241 C 27.386394,18.629661 26.494234,18.964380 25.799101,19.534245 L 24.537715,20.568240 C 24.058383,20.961165 23.026460,21.114446 22.612110,20.976910 C 21.379094,20.567862 19.747387,18.090713 19.235859,17.491604 C 17.890265,16.184145 16.138603,14.708959 15.873861,14.468017 z "
   id="path691"
   sodipodi:nodetypes="ccccccccccccccccccscsssscssscc" />
<path
   style="font-size:12.000000;fill:url(#linearGradient767);fill-rule:evenodd;stroke:#000000;stroke-width:1.7888074;stroke-linejoin:round;"
   d="M 14.850307,12.782130 C 15.020638,12.729324 17.653591,11.059151 19.177011,10.060996 C 19.956027,9.5599102 21.913499,8.2297626 22.776665,7.5032874 C 23.499863,6.9916217 23.785624,6.6639789 25.303715,5.5601371 C 26.890640,4.3461141 27.541986,3.9215894 29.080761,2.9117005 C 29.890274,2.4363069 30.672026,2.3638293 30.938898,2.2574262 C 31.342071,2.2920576 31.916635,2.8684161 33.225938,3.6106232 C 34.101270,4.1325257 35.021891,4.6713239 36.507698,4.7770687 C 38.280783,4.6713239 39.107316,4.0901667 40.382083,3.3098937 C 40.647915,3.1378820 41.771371,2.4300103 42.401565,2.3772048 C 43.045602,2.4473261 43.354146,2.6448866 43.554434,2.7836218 C 43.947371,2.8455861 46.956118,4.9362678 47.111730,5.1412698 C 47.387444,5.2817222 52.206338,9.0566877 52.497432,9.3157071 C 52.820906,9.5680672 57.063403,12.230605 57.781703,12.640104 C 57.145756,13.366713 56.546242,13.917026 55.206773,15.325890 C 53.243627,17.429518 52.275467,18.570500 51.598344,19.308482 C 50.397172,19.300688 49.704746,18.782582 48.854151,18.336238 C 47.316569,17.038279 46.308358,16.258073 45.937098,16.237820 C 45.867549,16.565739 46.085736,18.635680 46.545998,22.026620 C 47.460580,28.817714 48.582463,36.865993 48.049016,37.509525 C 45.867549,38.157798 42.935536,38.041531 38.356905,37.994010 C 34.646528,37.953798 30.994187,37.523051 29.313572,37.484844 C 27.924606,37.455374 25.457028,38.193069 25.151252,37.462520 C 24.847842,36.887678 25.149745,34.933080 26.389955,22.415712 C 27.024263,16.508068 27.258220,16.409622 27.146407,16.181722 C 26.200475,16.885082 25.320898,17.215081 24.635570,17.776910 L 23.391972,18.796320 C 22.919401,19.183704 21.902030,19.334823 21.493525,19.199226 C 20.277898,18.795948 18.669204,16.353735 18.164889,15.763075 C 16.838273,14.474056 15.111316,13.019674 14.850307,12.782130 z "
   id="path692"
   sodipodi:nodetypes="ccccccccccccccccccscsssscssscc" />
<path
   style="font-size:12.000000;fill:none;fill-rule:evenodd;stroke:#000000;stroke-width:1.1925383;stroke-linecap:round;stroke-linejoin:round;"
   d="M 17.476576,10.836155 C 18.175929,11.413725 19.571206,12.896364 21.327686,14.759234 C 22.882559,16.827591 24.080094,18.257922 24.176756,18.292553"
   id="path693"
   sodipodi:nodetypes="ccc" />
<path
   style="font-size:12.000000;fill:none;fill-rule:evenodd;stroke:#000000;stroke-width:1.1925383;stroke-linecap:round;stroke-linejoin:round;"
   d="M 48.945684,18.467211 C 49.715777,17.470125 50.043163,16.773787 51.440340,14.930953 C 53.234691,13.027376 53.774882,12.458183 55.218797,11.080867"
   id="path694"
   sodipodi:nodetypes="ccc" />
<path
   style="font-size:12.000000;fill:none;fill-rule:evenodd;stroke:#000000;stroke-linecap:round;stroke-linejoin:round;"
   d="M 28.909288,3.9904619 C 29.075346,4.3829978 29.651104,6.0637516 29.813060,6.3644907 C 29.995309,6.7029998 30.428515,7.5894754 30.624549,7.8867705 C 30.766108,8.0922687 31.102471,8.4347847 31.399509,8.7283686 C 31.502163,8.8721887 32.345477,9.4443208 32.653391,9.6159032 C 33.067134,9.8212584 33.524278,10.017598 34.018199,10.142099 C 34.389898,10.235756 36.321124,10.385520 36.687471,10.385596 C 37.267236,10.385664 38.237093,10.178591 38.561234,10.084933 C 38.917250,9.9821078 39.453568,9.7463479 39.754193,9.6159032 C 40.105992,9.4531933 40.319465,9.3100124 40.602611,9.1272679 C 40.857682,8.9626308 41.064763,8.8042141 41.303491,8.6009292 C 41.577011,8.3681075 41.856771,7.9269066 42.041243,7.6801275 C 42.230675,7.4513795 42.886122,5.8752161 43.055634,5.3872294 C 43.194865,5.0396284 43.537992,3.9949649 43.572022,3.6709761"
   id="path695"
   sodipodi:nodetypes="csssssssssssss" />
<path
   style="font-size:12.000000;fill:none;fill-rule:evenodd;stroke:#000000;stroke-linecap:round;stroke-linejoin:round;"
   d="M 31.362720,2.8359618 C 31.362720,2.9978893 31.483346,3.9421602 31.565565,4.3019252 C 31.690305,4.7671677 32.123464,5.6114085 32.340276,5.9557849 C 32.568480,6.2892187 33.326820,6.9497226 33.649759,7.2713454 C 33.997742,7.5710064 34.815680,7.8321054 35.143685,7.9668337 C 35.424905,8.0823954 35.993621,8.2156257 36.324088,8.2486830 C 36.680943,8.2408790 37.349337,8.1801359 37.670445,8.0796001 C 38.090810,7.9667669 38.580581,7.7114683 38.943093,7.4593085 C 39.312751,7.1884211 39.838087,6.6732445 40.141966,6.2565240 C 40.351891,5.9432680 40.994726,4.7540689 41.027269,4.3394949 C 41.073157,3.9664881 41.141618,3.4415804 41.101006,2.9863648"
   id="path696"
   sodipodi:nodetypes="cssssssssss" />
<path
   style="font-size:12.000000;fill:#ffffff;fill-rule:evenodd;stroke:#000000;stroke-width:0.51785827;stroke-linecap:round;stroke-linejoin:round;"
   d="M 37.523349,4.7186152 C 36.739575,5.0755848 35.084313,4.5571169 35.059290,4.7867330 L 34.881610,6.4176865 L 37.504889,6.5048467 C 37.574628,6.1733497 37.608869,5.0748694 37.523349,4.7186152 z "
   id="path697"
   sodipodi:nodetypes="csccc" />
<path
   d="M 32.964238,22.693573 C 32.841140,22.338798 30.448221,21.730994 30.238266,20.067489 C 30.027417,18.370651 32.555473,15.851084 35.075546,15.802353 C 38.455580,15.710937 42.834057,19.586925 43.138172,21.782808 C 43.480525,24.225641 35.058087,29.475672 32.676587,29.188031 C 30.362148,28.934612 29.775925,27.068433 30.071454,25.777048 C 30.375505,24.500621 33.022891,23.022370 32.964238,22.693573 z M 35.479625,19.173142 C 36.241380,18.489980 37.533195,19.617530 37.153186,20.268141 C 36.707338,20.979313 34.729719,19.845677 35.479625,19.173142 z "
   style="font-size:12.000000;fill:none;fill-rule:evenodd;stroke:#000000;stroke-linejoin:round;"
   id="path698" />
<path
   style="font-size:12.000000;fill:url(#linearGradient669);fill-rule:evenodd;stroke-width:1.0000000pt;"
   d="M 17.187223,12.911082 C 16.620081,13.055885 21.699811,10.293015 23.856175,8.8356102 C 26.176654,7.2672869 29.677911,4.0738557 30.617752,3.8338968 C 31.129025,3.7033588 29.431863,6.8979827 28.209519,7.7241187 C 24.955021,9.9237106 18.071195,12.685386 17.187223,12.911082 z "
   id="path699"
   sodipodi:nodetypes="cssss" />
<path
   style="font-size:12.000000;fill:url(#linearGradient674);fill-rule:evenodd;stroke-width:1.0000000pt;"
   d="M 26.759264,35.848392 C 26.654739,34.364143 28.109221,19.505209 28.704017,16.605571 C 28.928063,15.513347 29.457856,21.477673 29.215794,23.872807 C 28.809604,27.891947 26.825331,36.786556 26.759264,35.848392 z "
   id="path700"
   sodipodi:nodetypes="csss" />
<path
   style="font-size:12.000000;fill:url(#linearGradient676);fill-rule:evenodd;stroke-width:1.0000000pt;"
   d="M 36.890535,8.9728618 C 36.819861,8.8904088 38.604971,9.2406792 40.654099,7.0187038 C 41.312874,6.3023241 41.816170,3.8991907 41.884494,3.9789019 C 41.960923,4.0680685 41.719722,6.8762766 40.943604,7.5253369 C 38.995556,9.1426211 36.964614,9.0592864 36.890535,8.9728618 z "
   id="path701"
   sodipodi:nodetypes="cssss" />
<path
   style="font-size:12.000000;opacity:0.29597899;fill-rule:evenodd;stroke-width:1.8750000;stroke-linejoin:round;"
   d="M 10.052280,23.968806 C 10.223705,23.915661 12.873565,22.234763 14.406767,21.230200 C 15.190784,20.725896 17.160825,19.387208 18.029535,18.656069 C 18.757375,18.141119 19.044971,17.811371 20.572810,16.700442 C 22.169925,15.478624 22.825451,15.051374 24.374107,14.035001 C 25.188819,13.556554 25.975590,13.483612 26.244174,13.376525 C 26.649936,13.411378 27.228190,13.991439 28.545899,14.738410 C 29.426852,15.263664 30.353384,15.805922 31.848731,15.912346 C 33.633200,15.805922 34.465042,15.221033 35.747993,14.435750 C 36.015530,14.262634 37.146201,13.550217 37.780442,13.497073 C 38.428615,13.567645 38.739138,13.766474 38.940714,13.906099 C 39.336174,13.968462 42.364236,16.072566 42.520848,16.278885 C 42.798333,16.420240 47.648169,20.219444 47.941131,20.480126 C 48.266682,20.734107 52.536420,23.413740 53.259331,23.825867 C 52.619300,24.557142 52.015939,25.110988 50.667870,26.528899 C 48.692118,28.646034 47.717741,29.794343 47.036271,30.537061 C 45.827386,30.529216 45.130514,30.007785 44.274458,29.558577 C 42.727003,28.252284 41.712320,27.467067 41.338675,27.446684 C 41.268679,27.776708 41.488266,29.859940 41.951484,33.272652 C 42.871939,40.107351 44.001024,48.207306 43.464153,48.854970 C 41.268679,49.507405 38.317841,49.390392 33.709812,49.342567 C 29.975610,49.302095 26.299817,48.868582 24.608414,48.830130 C 23.210527,48.800471 20.727108,49.542902 20.419368,48.807662 C 20.114008,48.229130 20.417850,46.261982 21.666024,33.664243 C 22.304403,27.718667 22.539862,27.619588 22.427332,27.390227 C 21.475328,28.098102 20.590102,28.430220 19.900373,28.995655 L 18.648792,30.021613 C 18.173186,30.411483 17.149283,30.563571 16.738154,30.427105 C 15.514723,30.021238 13.895699,27.563343 13.388147,26.968889 C 12.053013,25.671595 10.314965,24.207875 10.052280,23.968806 z "
   id="path703"
   sodipodi:nodetypes="ccccccccccccccccccscsssscssscc" />
<path
   style="font-size:12.000000;fill:url(#linearGradient743);fill-rule:evenodd;stroke:#000000;stroke-width:1.7749029;stroke-linejoin:round;"
   d="M 9.0366824,22.296023 C 9.2056892,22.243627 11.818179,20.586437 13.329756,19.596041 C 14.102716,19.098850 16.044973,17.779042 16.901430,17.058213 C 17.619006,16.550525 17.902546,16.225430 19.408838,15.130167 C 20.983428,13.925581 21.629710,13.504356 23.156525,12.502316 C 23.959747,12.030619 24.735421,11.958704 25.000217,11.853129 C 25.400257,11.887490 25.970355,12.459369 27.269480,13.195806 C 28.138009,13.713652 29.051473,14.248264 30.525732,14.353186 C 32.285034,14.248264 33.105144,13.671623 34.370002,12.897415 C 34.633767,12.726741 35.748491,12.024371 36.373786,11.971976 C 37.012818,12.041552 37.318963,12.237577 37.517695,12.375234 C 37.907577,12.436717 40.892935,14.511147 41.047337,14.714555 C 41.320909,14.853917 46.102347,18.599539 46.391178,18.856545 C 46.712137,19.106944 50.921657,21.748785 51.634373,22.155100 C 51.003369,22.876062 50.408516,23.422097 49.079460,24.820012 C 47.131573,26.907288 46.170939,28.039402 45.499078,28.771645 C 44.307243,28.763911 43.620199,28.249834 42.776216,27.806959 C 41.250586,26.519090 40.250212,25.744948 39.881837,25.724852 C 39.812829,26.050222 40.029320,28.104073 40.486005,31.468655 C 41.393477,38.206963 42.506640,46.192682 41.977340,46.831212 C 39.812829,47.474447 36.903606,47.359083 32.360566,47.311931 C 28.679028,47.272032 25.055077,46.844633 23.387527,46.806724 C 22.009356,46.777483 19.560960,47.509442 19.257559,46.784573 C 18.956508,46.214199 19.256063,44.274793 20.486634,31.854723 C 21.116010,25.993000 21.348149,25.895318 21.237206,25.669191 C 20.298628,26.367083 19.425887,26.694517 18.745886,27.251979 L 17.511954,28.263464 C 17.043055,28.647837 16.033594,28.797781 15.628263,28.663239 C 14.422086,28.263095 12.825896,25.839865 12.325502,25.253797 C 11.009198,23.974797 9.2956621,22.531721 9.0366824,22.296023 z "
   id="path704"
   sodipodi:nodetypes="ccccccccccccccccccscsssscssscc" />
<path
   style="font-size:12.000000;fill:none;fill-rule:evenodd;stroke:#000000;stroke-width:1.1832688;stroke-linecap:round;stroke-linejoin:round;"
   d="M 11.642539,20.365174 C 12.336455,20.938254 13.720886,22.409370 15.463713,24.257759 C 17.006501,26.310038 18.194728,27.729251 18.290639,27.763613"
   id="path705"
   sodipodi:nodetypes="ccc" />
<path
   style="font-size:12.000000;fill:none;fill-rule:evenodd;stroke:#000000;stroke-width:1.1832688;stroke-linecap:round;stroke-linejoin:round;"
   d="M 42.867037,27.936914 C 43.631145,26.947578 43.955985,26.256654 45.342304,24.428143 C 47.122706,22.539363 47.658699,21.974594 49.091391,20.607985"
   id="path706"
   sodipodi:nodetypes="ccc" />
<path
   style="font-size:12.000000;fill:none;fill-rule:evenodd;stroke:#000000;stroke-linecap:round;stroke-linejoin:round;"
   d="M 22.986385,13.572693 C 23.151153,13.962179 23.722435,15.629868 23.883132,15.928268 C 24.063963,16.264147 24.493803,17.143731 24.688312,17.438717 C 24.828772,17.642617 25.162520,17.982470 25.457248,18.273772 C 25.559104,18.416475 26.395864,18.984160 26.701384,19.154408 C 27.111912,19.358167 27.565501,19.552980 28.055583,19.676514 C 28.424393,19.769443 30.340607,19.918042 30.704108,19.918118 C 31.279365,19.918184 32.241685,19.712721 32.563306,19.619792 C 32.916556,19.517766 33.448704,19.283838 33.746992,19.154408 C 34.096056,18.992962 34.307871,18.850894 34.588817,18.669571 C 34.841903,18.506213 35.047375,18.349028 35.284246,18.147323 C 35.555642,17.916311 35.833227,17.478540 36.016264,17.233679 C 36.204224,17.006709 36.854578,15.442797 37.022772,14.958604 C 37.160920,14.613704 37.501380,13.577161 37.535147,13.255691"
   id="path707"
   sodipodi:nodetypes="csssssssssssss" />
<path
   style="font-size:12.000000;fill:none;fill-rule:evenodd;stroke:#000000;stroke-linecap:round;stroke-linejoin:round;"
   d="M 25.420745,12.427167 C 25.420745,12.587836 25.540435,13.524767 25.622014,13.881736 C 25.745784,14.343361 26.175576,15.181040 26.390703,15.522740 C 26.617133,15.853581 27.369579,16.508951 27.690009,16.828075 C 28.035286,17.125406 28.846866,17.384476 29.172321,17.518157 C 29.451356,17.632821 30.015652,17.765014 30.343550,17.797815 C 30.697631,17.790072 31.360830,17.729801 31.679441,17.630047 C 32.096539,17.518091 32.582501,17.264777 32.942197,17.014577 C 33.308981,16.745795 33.830234,16.234623 34.131750,15.821140 C 34.340044,15.510320 34.977882,14.330364 35.010171,13.919013 C 35.055704,13.548906 35.123633,13.028078 35.083335,12.576401"
   id="path708"
   sodipodi:nodetypes="cssssssssss" />
<path
   style="font-size:12.000000;fill:#ffffff;fill-rule:evenodd;stroke:#000000;stroke-width:0.51383299;stroke-linecap:round;stroke-linejoin:round;"
   d="M 31.533489,14.295187 C 30.755807,14.649382 29.113410,14.134944 29.088582,14.362774 L 28.912284,15.981051 L 31.515172,16.067534 C 31.584370,15.738614 31.618344,14.648671 31.533489,14.295187 z "
   id="path709"
   sodipodi:nodetypes="csccc" />
<path
   d="M 27.009815,32.130424 C 26.887673,31.778407 24.513355,31.175328 24.305033,29.524753 C 24.095821,27.841104 26.604228,25.341123 29.104711,25.292769 C 32.458474,25.202065 36.802916,29.047925 37.104668,31.226738 C 37.444361,33.650584 29.087388,38.859805 26.724401,38.574402 C 24.427951,38.322952 23.846285,36.471279 24.139518,35.189931 C 24.441204,33.923427 27.068012,32.456666 27.009815,32.130424 z M 29.505651,28.637359 C 30.261484,27.959506 31.543258,29.078292 31.166201,29.723846 C 30.723820,30.429490 28.761573,29.304666 29.505651,28.637359 z "
   style="font-size:12.000000;fill:none;fill-rule:evenodd;stroke:#000000;stroke-linejoin:round;"
   id="path710" />
<path
   style="font-size:12.000000;fill:url(#linearGradient669);fill-rule:evenodd;stroke-width:1.0000000pt;"
   d="M 11.355435,22.423973 C 10.792701,22.567650 15.832947,19.826256 17.972550,18.380181 C 20.274991,16.824048 23.749034,13.655439 24.681568,13.417345 C 25.188867,13.287822 23.504898,16.457614 22.292054,17.277328 C 19.062854,19.459822 12.232536,22.200031 11.355435,22.423973 z "
   id="path711"
   sodipodi:nodetypes="cssss" />
<path
   style="font-size:12.000000;fill:url(#linearGradient674);fill-rule:evenodd;stroke-width:1.0000000pt;"
   d="M 20.853073,45.182992 C 20.749360,43.710280 22.192535,28.966843 22.782708,26.089744 C 23.005013,25.006010 23.530687,30.923976 23.290508,33.300492 C 22.887475,37.288392 20.918626,46.113863 20.853073,45.182992 z "
   id="path712"
   sodipodi:nodetypes="csss" />
<path
   style="font-size:12.000000;fill:url(#linearGradient676);fill-rule:evenodd;stroke-width:1.0000000pt;"
   d="M 30.905594,18.516365 C 30.835469,18.434552 32.606703,18.782101 34.639903,16.577397 C 35.293559,15.866585 35.792942,13.482131 35.860735,13.561223 C 35.936569,13.649696 35.697242,16.436077 34.927157,17.080092 C 32.994252,18.684804 30.979096,18.602117 30.905594,18.516365 z "
   id="path713"
   sodipodi:nodetypes="cssss" />
<path
   style="font-size:12.000000;opacity:0.29597899;fill:#000000;fill-opacity:1.0000000;fill-rule:evenodd;stroke:none;stroke-width:1.8750000;stroke-linejoin:round;"
   d="M 3.5398825,33.332796 C 3.7126498,33.279234 6.3832679,31.585169 7.9284801,30.572736 C 8.7186396,30.064482 10.704115,28.715308 11.579629,27.978441 C 12.313172,27.459456 12.603020,27.127126 14.142828,26.007493 C 15.752454,24.776103 16.413117,24.345507 17.973904,23.321171 C 18.794998,22.838977 19.587933,22.765463 19.858621,22.657537 C 20.267562,22.692663 20.850346,23.277267 22.178378,24.030092 C 23.066232,24.559461 24.000022,25.105966 25.507083,25.213222 C 27.305532,25.105966 28.143891,24.516495 29.436892,23.725060 C 29.706526,23.550587 30.846053,22.832590 31.485262,22.779028 C 32.138513,22.850154 32.451470,23.050540 32.654624,23.191260 C 33.053182,23.254110 36.104965,25.374699 36.262805,25.582634 C 36.542464,25.725096 41.430293,29.554062 41.725550,29.816787 C 42.053651,30.072757 46.356838,32.773382 47.085412,33.188738 C 46.440367,33.925742 45.832279,34.483926 44.473648,35.912944 C 42.482420,38.046665 41.500410,39.203969 40.813601,39.952506 C 39.595245,39.944601 38.892914,39.419084 38.030152,38.966356 C 36.470574,37.649830 35.447943,36.858462 35.071370,36.837919 C 35.000826,37.170531 35.222135,39.270081 35.688980,42.709528 C 36.616646,49.597769 37.754577,57.761178 37.213500,58.413916 C 35.000826,59.071462 32.026873,58.953532 27.382744,58.905332 C 23.619289,58.864544 19.914701,58.427634 18.210047,58.388883 C 16.801210,58.358991 14.298335,59.107237 13.988183,58.366239 C 13.680433,57.783174 13.986654,55.800614 15.244607,43.104186 C 15.887987,37.112034 16.125291,37.012179 16.011879,36.781021 C 15.052417,37.494440 14.160255,37.829160 13.465125,38.399026 L 12.203737,39.433019 C 11.724406,39.825945 10.692482,39.979225 10.278132,39.841689 C 9.0451158,39.432641 7.4134084,36.955493 6.9018803,36.356383 C 5.5562873,35.048924 3.8046247,33.573738 3.5398825,33.332796 z "
   id="path677"
   sodipodi:nodetypes="ccccccccccccccccccscsssscssscc" />
<path
   style="font-size:12.000000;fill:url(#linearGradient686);fill-rule:evenodd;stroke:#000000;stroke-width:1.7888074;stroke-linejoin:round;"
   d="M 2.5163283,31.646910 C 2.6866590,31.594105 5.3196126,29.923929 6.8430326,28.925775 C 7.6220481,28.424690 9.5795202,27.094543 10.442687,26.368067 C 11.165885,25.856402 11.451647,25.528758 12.969737,24.424917 C 14.556663,23.210894 15.208008,22.786370 16.746784,21.776480 C 17.556298,21.301087 18.338049,21.228609 18.604920,21.122206 C 19.008093,21.156837 19.582659,21.733195 20.891960,22.475403 C 21.767293,22.997305 22.687913,23.536103 24.173721,23.641849 C 25.946806,23.536103 26.773339,22.954947 28.048105,22.174673 C 28.313937,22.002662 29.437393,21.294790 30.067588,21.241984 C 30.711625,21.312105 31.020168,21.509667 31.220458,21.648402 C 31.613395,21.710366 34.622139,23.801048 34.777751,24.006049 C 35.053467,24.146502 39.872360,27.921468 40.163455,28.180487 C 40.486928,28.432848 44.729426,31.095384 45.447725,31.504882 C 44.811778,32.231492 44.212265,32.781806 42.872796,34.190670 C 40.909649,36.294298 39.941489,37.435280 39.264366,38.173261 C 38.063194,38.165467 37.370768,37.647361 36.520173,37.201017 C 34.982591,35.903059 33.974382,35.122853 33.603120,35.102600 C 33.533572,35.430518 33.751757,37.500459 34.212021,40.891399 C 35.126602,47.682494 36.248485,55.730773 35.715039,56.374304 C 33.533572,57.022577 30.601559,56.906310 26.022927,56.858789 C 22.312550,56.818577 18.660209,56.387829 16.979595,56.349623 C 15.590628,56.320153 13.123051,57.057848 12.817274,56.327300 C 12.513864,55.752458 12.815767,53.797859 14.055978,41.280491 C 14.690284,35.372848 14.924242,35.274401 14.812429,35.046501 C 13.866498,35.749861 12.986920,36.079860 12.301592,36.641689 L 11.057994,37.661099 C 10.585422,38.048484 9.5680522,38.199602 9.1595466,38.064006 C 7.9439200,37.660727 6.3352249,35.218514 5.8309110,34.627854 C 4.5042953,33.338835 2.7773367,31.884453 2.5163283,31.646910 z "
   id="path552"
   sodipodi:nodetypes="ccccccccccccccccccscsssscssscc" />
<path
   style="font-size:12.000000;fill:none;fill-rule:evenodd;stroke:#000000;stroke-width:1.1925383;stroke-linecap:round;stroke-linejoin:round;"
   d="M 5.1425971,29.700934 C 5.8419502,30.278504 7.2372266,31.761143 8.9937067,33.624012 C 10.548581,35.692370 11.746116,37.122701 11.842779,37.157332"
   id="path553"
   sodipodi:nodetypes="ccc" />
<path
   style="font-size:12.000000;fill:none;fill-rule:evenodd;stroke:#000000;stroke-width:1.1925383;stroke-linecap:round;stroke-linejoin:round;"
   d="M 36.611707,37.331991 C 37.381801,36.334905 37.709185,35.638567 39.106362,33.795732 C 40.900712,31.892156 41.440904,31.322962 42.884820,29.945647"
   id="path554"
   sodipodi:nodetypes="ccc" />
<path
   style="font-size:12.000000;fill:none;fill-rule:evenodd;stroke:#000000;stroke-width:0.95403057;stroke-linecap:round;stroke-linejoin:round;"
   d="M 16.575311,22.855242 C 16.741369,23.247778 17.317127,24.928532 17.479083,25.229271 C 17.661331,25.567780 18.094538,26.454255 18.290571,26.751550 C 18.432130,26.957048 18.768493,27.299565 19.065531,27.593149 C 19.168184,27.736969 20.011500,28.309101 20.319412,28.480684 C 20.733157,28.686039 21.190300,28.882378 21.684221,29.006878 C 22.055920,29.100536 23.987146,29.250299 24.353493,29.250376 C 24.933257,29.250442 25.903115,29.043371 26.227256,28.949713 C 26.583272,28.846887 27.119590,28.611128 27.420215,28.480684 C 27.772013,28.317973 27.985488,28.174793 28.268635,27.992047 C 28.523703,27.827411 28.730786,27.668994 28.969513,27.465709 C 29.243034,27.232887 29.522794,26.791687 29.707264,26.544907 C 29.896698,26.316159 30.552144,24.739996 30.721656,24.252010 C 30.860888,23.904408 31.204015,22.859745 31.238045,22.535757"
   id="path555"
   sodipodi:nodetypes="csssssssssssss" />
<path
   style="font-size:12.000000;fill:none;fill-rule:evenodd;stroke:#000000;stroke-width:0.95403057;stroke-linecap:round;stroke-linejoin:round;"
   d="M 19.028741,21.700742 C 19.028741,21.862669 19.149370,22.806941 19.231587,23.166706 C 19.356327,23.631948 19.789485,24.476189 20.006298,24.820566 C 20.234502,25.153999 20.992843,25.814503 21.315781,26.136125 C 21.663765,26.435786 22.481703,26.696885 22.809708,26.831613 C 23.090927,26.947175 23.659644,27.080405 23.990111,27.113462 C 24.346966,27.105659 25.015360,27.044916 25.336466,26.944380 C 25.756832,26.831546 26.246603,26.576249 26.609116,26.324089 C 26.978774,26.053201 27.504111,25.538025 27.807989,25.121304 C 28.017914,24.808048 28.660749,23.618849 28.693291,23.204275 C 28.739179,22.831268 28.807641,22.306361 28.767027,21.851145"
   id="path556"
   sodipodi:nodetypes="cssssssssss" />
<path
   style="font-size:12.000000;fill:#ffffff;fill-rule:evenodd;stroke:#000000;stroke-width:0.51785827;stroke-linecap:round;stroke-linejoin:round;"
   d="M 25.189373,23.583395 C 24.405598,23.940365 22.750335,23.421896 22.725311,23.651513 L 22.547633,25.282467 L 25.170911,25.369626 C 25.240651,25.038129 25.274891,23.939650 25.189373,23.583395 z "
   id="path557"
   sodipodi:nodetypes="csccc" />
<path
   style="fill:url(#linearGradient669);fill-opacity:1.0000000;fill-rule:evenodd;stroke:none;stroke-width:1.0000000pt;stroke-linecap:butt;stroke-linejoin:miter;stroke-opacity:1.0000000;"
   d="M 4.8532457,31.775860 C 4.2861024,31.920664 9.3658327,29.157795 11.522198,27.700390 C 13.842676,26.132067 17.343934,22.938635 18.283774,22.698676 C 18.795048,22.568139 17.097885,25.762763 15.875541,26.588899 C 12.621044,28.788491 5.7372169,31.550166 4.8532457,31.775860 z "
   id="path668"
   sodipodi:nodetypes="cssss" />
<path
   style="fill:url(#linearGradient674);fill-opacity:1.0000000;fill-rule:evenodd;stroke:none;stroke-width:1.0000000pt;stroke-linecap:butt;stroke-linejoin:miter;stroke-opacity:1.0000000;"
   d="M 14.425286,54.713171 C 14.320762,53.228922 15.775242,38.369988 16.370040,35.470350 C 16.594086,34.378126 17.123878,40.342452 16.881817,42.737586 C 16.475626,46.756727 14.491354,55.651335 14.425286,54.713171 z "
   id="path673"
   sodipodi:nodetypes="csss" />
<path
   style="fill:url(#linearGradient676);fill-opacity:1.0000000;fill-rule:evenodd;stroke:none;stroke-width:1.0000000pt;stroke-linecap:butt;stroke-linejoin:miter;stroke-opacity:1.0000000;"
   d="M 24.556558,27.837642 C 24.485884,27.755189 26.270994,28.105459 28.320122,25.883483 C 28.978897,25.167104 29.482193,22.763970 29.550516,22.843682 C 29.626945,22.932848 29.385743,25.741057 28.609625,26.390117 C 26.661578,28.007401 24.630636,27.924066 24.556558,27.837642 z "
   id="path675"
   sodipodi:nodetypes="cssss" />
<metadata
   id="metadata2315">
  <rdf:RDF
   id="RDF2316">
    <cc:Work
   rdf:about=""
   id="Work2317">
      <dc:format
   id="format2318">image/svg+xml</dc:format>

      <dc:type
   id="type2320"
   rdf:resource="http://purl.org/dc/dcmitype/StillImage" />

    </cc:Work>

  </rdf:RDF>

</metadata>

  

  

  
    

    

    

    

    

    

    

    

    

    

  
  
    

    

    

    

    

    

    

    

    

    

    

  
  
    

    

    

    

    

    

    

    

    <path
   d="M 20.866989,42.153370 C 20.727925,41.738426 18.024789,41.027572 17.787635,39.081929 C 17.549446,37.097321 20.405225,34.150455 23.251991,34.093465 C 27.070210,33.986547 32.016297,38.519882 32.359822,41.088153 C 32.746576,43.945272 23.232264,50.085655 20.542038,49.749253 C 17.927553,49.452859 17.265347,47.270185 17.599189,45.759762 C 17.942653,44.266877 20.933237,42.537931 20.866989,42.153370 z "
   style="font-size:12.000000;opacity:0.29636899;fill:#000000;fill-opacity:1.0000000;fill-rule:evenodd;stroke-width:1.0000000pt;"
   id="path581" />
<path
   d="M 20.783836,41.854719 C 20.656345,41.474313 18.178205,40.822626 17.960791,39.038930 C 17.742427,37.219509 20.360505,34.517928 22.970322,34.465681 C 26.470730,34.367662 31.005128,38.523666 31.320060,40.878166 C 31.674621,43.497471 22.952235,49.126760 20.485930,48.818361 C 18.089062,48.546633 17.481976,46.545634 17.788031,45.160932 C 18.102906,43.792307 20.844567,42.207272 20.783836,41.854719 z "
   style="font-size:12.000000;fill:#bfb8cc;fill-rule:evenodd;stroke:#261e2e;stroke-width:0.79744804;"
   id="path1304" />
<path
   d="M 22.412814,41.153016 C 22.289099,40.783867 19.333582,40.149085 18.886652,38.990237 C 18.415887,37.846445 20.572003,35.379951 23.096890,35.176282 C 25.924027,34.945530 30.375312,38.379775 30.901111,40.720816 C 31.274646,42.438236 22.755802,47.906776 20.387619,47.449444 C 18.360092,47.104346 18.283556,46.017160 18.556234,45.202324 C 18.915684,44.167735 22.471749,41.495135 22.412814,41.153016 z "
   style="font-size:12.000000;fill:url(#radialGradient592);fill-rule:evenodd;stroke-width:1.0000000pt;"
   id="path1305" />
<path
   d="M 22.441619,41.174445 C 22.318321,40.806546 19.372821,40.173914 18.927405,39.018993 C 18.458234,37.879076 20.607045,35.420940 23.123376,35.217963 C 25.940936,34.987995 30.377134,38.410598 30.901150,40.743709 C 31.273422,42.455309 22.783443,47.905318 20.423284,47.449536 C 18.402631,47.105606 18.326354,46.022105 18.598105,45.210031 C 18.956340,44.178947 22.500352,41.515404 22.441619,41.174445 z "
   style="font-size:12.000000;fill:url(#radialGradient587);fill-rule:evenodd;stroke-width:1.0000000pt;"
   id="path596" />


    

    

    

  

<path
   d="M 22.789816,37.643168 C 24.158447,36.372345 26.479396,38.469788 25.796679,39.680087 C 24.995624,41.003009 21.442491,38.894236 22.789816,37.643168 z "
   style="font-size:12.000000;fill:url(#linearGradient572);fill-rule:evenodd;stroke-width:1.0000000pt;"
   id="path568" />
<path
   d="M 23.388783,38.079976 C 24.177673,37.347463 25.515486,38.556446 25.121965,39.254072 C 24.660228,40.016615 22.612175,38.801102 23.388783,38.079976 z "
   style="font-size:12.000000;fill:#bfb8cc;fill-opacity:1.0000000;fill-rule:evenodd;stroke-width:1.0000000pt;"
   id="path562" />
<path
   d="M 23.388783,38.079976 C 24.177673,37.347463 25.515486,38.556446 25.121965,39.254072 C 24.660228,40.016615 22.612175,38.801102 23.388783,38.079976 z "
   style="font-size:12.000000;fill:url(#linearGradient563);fill-rule:evenodd;stroke-width:1.0000000pt;"
   id="path567" />
<path
   d="M 25.122365,38.889713 C 25.112598,39.175962 24.933141,39.564004 24.529401,39.483912 C 24.130574,39.418699 23.482795,39.142628 23.293123,38.649663 C 23.237526,38.501001 24.094124,38.088909 24.417764,38.185891 C 24.667331,38.260613 25.135484,38.665994 25.122365,38.889713 z "
   style="font-size:12.000000;fill:url(#radialGradient579);fill-rule:evenodd;stroke-width:1.0000000pt;"
   id="path574"
   sodipodi:nodetypes="ccccc" />
<path
   d="M 18.558062,38.810257 C 18.649650,40.336894 20.237153,40.764747 21.153125,41.467000 C 21.511889,41.528043 21.864012,41.213053 21.754697,40.992695 C 20.457053,40.412576 19.008413,39.939952 18.558062,38.810257 z "
   style="font-size:12.000000;fill:url(#linearGradient575);fill-rule:evenodd;stroke-width:1.0000000pt;"
   id="path580"
   sodipodi:nodetypes="cccc" />
<path
   d="M 18.343376,46.539346 C 18.758881,47.635565 19.837412,48.254374 20.862878,48.289748 C 23.470823,48.201362 30.269074,43.551277 30.728797,41.341151 C 29.464596,42.861717 24.248766,46.981383 20.756807,47.388041 C 19.872786,47.405730 19.280458,47.290812 18.343376,46.539346 z "
   style="font-size:12.000000;fill:url(#linearGradient583);fill-rule:evenodd;stroke-width:1.0000000pt;"
   id="path582" />
<path
   d="M 30.587726,40.615210 C 30.210055,40.126012 26.926727,44.795884 20.915525,47.212401 C 26.307638,45.599568 30.862355,40.975966 30.587726,40.615210 z "
   style="font-size:12.000000;opacity:0.80437499;fill:url(#linearGradient585);fill-rule:evenodd;stroke-width:1.0000000pt;"
   id="path584" />
</svg>
