<?xml version="1.0" encoding="UTF-8" standalone="no"?>
<!DOCTYPE svg PUBLIC "-//W3C//DTD SVG 20010904//EN"
"http://www.w3.org/TR/2001/REC-SVG-20010904/DTD/svg10.dtd">
<!-- Created with Inkscape (http://www.inkscape.org/) -->
<svg
   version="1.0"
   x="0"
   y="0"
   width="48pt"
   height="48pt"
   id="svg611"
   sodipodi:version="0.32"
   inkscape:version="0.38.1"
   sodipodi:docname="gnomemeeting-logo-icon.svg"
   sodipodi:docbase="/home/scaba/files/lila-artwork/devel/lila-gnome-0.5.1_pre1"
   xmlns="http://www.w3.org/2000/svg"
   xmlns:inkscape="http://www.inkscape.org/namespaces/inkscape"
   xmlns:sodipodi="http://sodipodi.sourceforge.net/DTD/sodipodi-0.dtd"
   xmlns:xlink="http://www.w3.org/1999/xlink">
  <sodipodi:namedview
     id="base"
     pagecolor="#ffffff"
     bordercolor="#666666"
     borderopacity="1.0"
     inkscape:pageopacity="0.0"
     inkscape:pageshadow="2"
     inkscape:zoom="5.6568542"
     inkscape:cx="9.9102549"
     inkscape:cy="19.740149"
     inkscape:window-width="671"
     inkscape:window-height="525"
     inkscape:window-x="21"
     inkscape:window-y="78" />
  <defs
     id="defs613">
    <linearGradient
       id="linearGradient895">
      <stop
         offset="0.0000000"
         style="stop-color:#d9cce6;stop-opacity:1.0000000;"
         id="stop897" />
      <stop
         offset="1.0000000"
         style="stop-color:#73667f;stop-opacity:1.0000000;"
         id="stop896" />
    </linearGradient>
    <linearGradient
       id="linearGradient1535">
      <stop
         style="stop-color:#ffffff;stop-opacity:1;"
         offset="0"
         id="stop1537" />
      <stop
         style="stop-color:#ffffff;stop-opacity:0;"
         offset="1"
         id="stop1536" />
    </linearGradient>
    <linearGradient
       id="linearGradient1528">
      <stop
         style="stop-color:#d9cce6;stop-opacity:1.0000000;"
         offset="0.0000000"
         id="stop1530" />
      <stop
         style="stop-color:#73667f;stop-opacity:1.0000000;"
         offset="1.0000000"
         id="stop1529" />
    </linearGradient>
    <linearGradient
       id="linearGradient642">
      <stop
         style="stop-color:#ffffff;stop-opacity:1;"
         offset="0"
         id="stop643" />
      <stop
         style="stop-color:#ffffff;stop-opacity:0;"
         offset="1"
         id="stop644" />
    </linearGradient>
    <linearGradient
       id="linearGradient635">
      <stop
         style="stop-color:#ffffff;stop-opacity:1.0000000;"
         offset="0.0000000"
         id="stop636" />
      <stop
         style="stop-color:#d9cce6;stop-opacity:1.0000000;"
         offset="1.0000000"
         id="stop637" />
    </linearGradient>
    <linearGradient
       x1="0.00833333"
       y1="0.00000000"
       x2="0.94166666"
       y2="0.95312500"
       id="linearGradient638"
       xlink:href="#linearGradient1528" />
    <linearGradient
       x1="0.027523"
       y1="0.023438"
       x2="1.000000"
       y2="1.015625"
       id="linearGradient641"
       xlink:href="#linearGradient642" />
    <linearGradient
       x1="-0.000009"
       y1="0.015624"
       x2="0.727272"
       y2="0.984375"
       id="linearGradient1522"
       xlink:href="#linearGradient642" />
    <linearGradient
       x1="0.027523"
       y1="0.007813"
       x2="1.009174"
       y2="0.992188"
       id="linearGradient1527"
       xlink:href="#linearGradient1535" />
    <linearGradient
       id="linearGradient1532"
       xlink:href="#linearGradient635" />
    <linearGradient
       id="linearGradient1534"
       xlink:href="#linearGradient635"
       x1="1.5829352e-17"
       y1="0.50000000"
       x2="1.0000000"
       y2="0.50000000" />
    <linearGradient
       id="linearGradient1539"
       xlink:href="#linearGradient1528"
       x1="0.00000000"
       y1="-0.00000000"
       x2="1.00000000"
       y2="-0.00000000" />
    <linearGradient
       id="linearGradient1567"
       xlink:href="#linearGradient635"
       x1="0.66521740"
       y1="0.21093750"
       x2="0.32608697"
       y2="0.73437500" />
    <sodipodi:namedview
       id="namedview859"
       pagecolor="#ffffff"
       bordercolor="#666666"
       borderopacity="1.0"
       inkscape:pageopacity="0.0"
       inkscape:pageshadow="2"
       inkscape:zoom="6.94653374"
       inkscape:cx="31.2964525"
       inkscape:cy="22.2940622"
       inkscape:window-width="640"
       inkscape:window-height="500"
       inkscape:window-x="69"
       inkscape:window-y="340" />
    <defs
       id="defs3">
      <linearGradient
         id="linearGradient570">
        <stop
           style="stop-color:#ffffff;stop-opacity:1;"
           offset="0"
           id="stop571" />
        <stop
           style="stop-color:#ffffff;stop-opacity:0;"
           offset="1"
           id="stop572" />
      </linearGradient>
      <linearGradient
         id="linearGradient563"
         x1="0.0000000"
         y1="0.50000000"
         x2="1.0000000"
         y2="0.50000000"
         gradientUnits="objectBoundingBox"
         spreadMethod="pad"
         xlink:href="#linearGradient895" />
      <linearGradient
         x1="0.03846154"
         y1="0.07031250"
         x2="0.98461539"
         y2="0.96875000"
         id="linearGradient566"
         xlink:href="#linearGradient563" />
      <linearGradient
         x1="0.006536"
         y1="0.015625"
         x2="0.849673"
         y2="0.867188"
         id="linearGradient569"
         xlink:href="#linearGradient570" />
      <linearGradient
         x1="0.007280"
         y1="0.021274"
         x2="0.960000"
         y2="0.946808"
         id="linearGradient573"
         xlink:href="#linearGradient570" />
      <linearGradient
         x1="0.980392"
         y1="0.976562"
         x2="0.006536"
         y2="0.007812"
         id="linearGradient575"
         xlink:href="#linearGradient563" />
      <linearGradient
         x1="-0.006622"
         y1="0.007813"
         x2="0.920530"
         y2="0.921875"
         id="linearGradient578"
         xlink:href="#linearGradient570" />
    </defs>
    <linearGradient
       xlink:href="#linearGradient635"
       id="linearGradient4054"
       x1="-9.0000003e-06"
       y1="0.015624000"
       x2="0.72727197"
       y2="0.98437500" />
    <linearGradient
       xlink:href="#linearGradient635"
       id="linearGradient4066"
       x1="2.0518526e-17"
       y1="0.50000000"
       x2="1.0000000"
       y2="0.50000000" />
    <linearGradient
       xlink:href="#linearGradient635"
       id="linearGradient4067"
       x1="-1.9515639e-17"
       y1="0.50000000"
       x2="1.0000000"
       y2="0.50000000" />
    <linearGradient
       xlink:href="#linearGradient635"
       id="linearGradient4068"
       x1="-3.9204751e-16"
       y1="0.50000000"
       x2="1.0000000"
       y2="0.50000000" />
    <linearGradient
       xlink:href="#linearGradient635"
       id="linearGradient4069"
       x1="-5.4470317e-16"
       y1="0.50000000"
       x2="1.0000000"
       y2="0.50000000" />
    <linearGradient
       xlink:href="#linearGradient635"
       id="linearGradient4070"
       x1="-6.8781786e-16"
       y1="0.50000000"
       x2="1.0000000"
       y2="0.50000000" />
  </defs>
  <ellipse
     cx="286.926392"
     cy="278.069977"
     rx="278.198608"
     ry="278.198578"
     transform="matrix(7.258348e-2,0.000000,0.000000,7.258348e-2,3.868489,4.427763)"
     style="font-size:12.000000;opacity:0.30267498;fill-rule:evenodd;stroke-width:13.253600;"
     id="path1023" />
  <ellipse
     cx="286.926392"
     cy="278.069977"
     rx="278.198608"
     ry="278.198578"
     transform="matrix(7.258348e-2,0.000000,0.000000,7.258348e-2,2.105301,2.244764)"
     style="font-size:12.000000;fill:url(#linearGradient566);fill-rule:evenodd;stroke:#261933;stroke-width:25.832324;stroke-dasharray:none;"
     id="path983" />
  <path
     d="M 8.4327557,8.8865893 C 9.1683383,8.4790096 9.9765698,9.9197757 10.971276,10.057533 C 11.859699,10.180439 14.019885,8.7858487 15.180593,9.4492422 C 15.949729,9.7787074 15.295263,12.674399 15.061074,14.408072 C 14.766242,15.799505 13.824792,17.792535 13.235895,19.517821 C 12.929749,20.273720 10.802349,23.012335 10.715383,23.186264 C 10.628572,23.360040 11.549089,25.680840 10.976200,25.967439 C 10.379068,26.320839 9.6416399,22.923985 8.3688018,21.969375 C 7.8195391,21.639756 6.5530047,21.792599 6.1090690,22.143383 C 5.5801622,22.430211 6.0353414,25.436185 6.8042622,26.315143 C 7.5925087,27.497169 8.7795357,28.406450 9.4987249,29.617644 C 10.430786,31.187623 11.005138,32.978401 11.758343,34.658740 C 11.758343,34.658740 11.136738,36.803691 11.223703,36.803691 C 11.310668,36.803691 12.540564,39.265019 12.540564,39.265019 C 10.015203,37.346875 7.9822320,35.475287 6.2828823,33.181194 C 5.0851797,31.564190 4.1299390,29.345204 3.8493056,27.531801 C 3.7533209,26.911658 4.9133672,26.539558 5.1530273,25.880551 C 5.5924529,24.781873 3.2881365,22.055032 3.1950163,21.164222 C 3.0806459,20.204995 3.6608925,16.367393 4.9791832,14.060445 C 5.9230497,12.258431 7.0245444,9.6667315 8.4327557,8.8865893 z "
     style="font-size:12.000000;opacity:0.50445902;fill:#261933;fill-rule:evenodd;stroke:#000000;stroke-width:0.087886667pt;"
     id="path565" />
  <path
     d="M 23.404752,15.451031 C 22.934913,16.125739 22.432056,17.333469 22.709342,17.971235 C 23.011486,18.665953 24.318419,19.434703 25.142966,19.448864 C 25.998836,19.463640 26.872561,18.504876 27.750365,18.058277 C 28.523889,17.664782 29.270091,17.061724 30.097023,16.928353 C 31.066333,16.772048 32.439374,16.722793 33.138938,17.189247 C 33.656107,17.534104 33.861974,18.678266 33.747380,19.362053 C 33.504420,19.883456 32.691416,20.332364 32.965084,20.665753 C 33.204663,20.868850 34.867300,19.643804 35.137895,18.927538 C 35.359845,18.340181 34.306648,17.502858 34.442638,16.754654 C 34.552536,16.260419 36.358399,16.385401 36.963151,16.493991 C 37.462004,16.615358 37.946389,17.852487 38.440780,17.797614 C 38.893688,17.797614 40.024306,16.336148 40.146823,16.342996 C 40.618359,16.420879 40.961138,17.797614 40.961138,17.797614 C 40.149827,18.550897 39.495360,19.584852 38.527588,20.057387 C 37.003860,20.801510 35.205540,21.249570 33.486641,21.447972 C 30.686150,21.771127 27.365951,20.633892 24.969115,21.621748 C 23.078211,22.401196 20.651051,24.967884 20.623500,26.749658 C 20.593100,28.705053 21.861553,32.028257 24.136178,32.229274 C 26.889801,32.532267 29.767404,33.152329 30.759569,34.420861 C 31.534709,35.412024 30.631354,39.146885 30.756184,40.381785 C 30.803133,40.791211 31.994775,40.065863 32.704426,39.699612 C 33.791093,39.138881 35.105570,38.031585 35.485523,36.831471 C 36.206483,34.555081 36.287594,31.731730 36.007156,29.270091 C 35.766116,27.154467 33.665576,23.324870 33.921311,23.099300 C 34.158040,22.890430 36.017929,27.123067 37.484553,27.966470 C 38.335575,28.455704 40.288430,27.734514 40.874246,27.097210 C 41.273593,26.662694 40.156903,25.003670 40.439655,24.750627 C 40.707399,24.511051 42.408519,26.190159 42.525578,25.619888 C 43.458171,21.289743 42.581598,18.092370 41.057103,14.083303 C 39.809587,11.023303 36.273206,6.8109062 32.497249,4.7460573 C 31.965531,4.4527024 29.661277,5.7510288 27.883197,6.8883272 C 26.869560,7.3956471 25.816287,8.9232990 26.336844,9.2898591 C 26.795755,9.6519546 28.156098,8.4304491 29.118787,8.2135761 C 30.844534,7.8010710 31.646380,8.0247169 32.965084,8.6717179 C 32.965084,8.6717179 34.834134,10.218380 34.008043,11.365928 C 33.483643,12.060566 31.748350,12.061259 31.748350,12.061259 C 31.371709,11.858624 30.978752,11.376394 30.618425,11.452891 C 30.022837,11.579336 29.520057,12.383106 28.880213,12.669780 C 27.578899,13.252443 26.058019,13.371501 24.795262,14.060445 C 24.081228,14.225216 23.697353,15.006743 23.404752,15.451031 z "
     style="font-size:12.000000;opacity:0.49999997;fill:#261933;fill-rule:evenodd;stroke:#000000;stroke-width:0.087886667pt;"
     id="path566" />
  <path
     d="M 7.2727394,33.301093 C 7.0039961,32.495018 -3.1748422,14.264850 16.172605,4.9221650 C 24.944641,0.64570698 37.904291,8.5736715 39.345905,13.318322 C 39.567931,14.036125 30.578409,3.7892781 17.767905,9.4560914 C 1.0891402,16.786055 7.5077762,34.006279 7.2727394,33.301093 z "
     style="font-size:12.000000;opacity:0.69999999;fill:url(#linearGradient569);fill-rule:evenodd;stroke-width:0.099890900pt;"
     id="path984" />
  <path
     d="M 23.902637,58.345979 C 24.386644,58.667138 26.443344,59.541995 27.461274,59.323801 C 28.312899,59.048354 57.709648,49.448273 58.433033,48.321122 C 59.189681,47.090343 58.212932,23.143038 57.319136,22.330620 C 56.354833,21.445636 25.031191,18.288973 24.068037,18.260654 C 23.195160,18.150822 21.064904,18.902870 20.653793,19.360189 C 19.835537,20.260989 23.000685,57.684133 23.902637,58.345979 z "
     style="font-size:12;opacity:0.3;fill-rule:evenodd;stroke-width:12.5;"
     id="path839" />
  <path
     d="M 23.430766,56.268566 C 23.892007,56.574384 25.850734,57.407589 26.820368,57.199910 C 27.631679,56.937477 55.631297,47.793614 56.320217,46.720024 C 57.040910,45.547736 56.110664,22.738441 55.259342,21.964554 C 54.340934,21.121703 24.505689,18.115097 23.588382,18.088100 C 22.756987,17.983487 20.728003,18.699742 20.336383,19.135336 C 19.557034,19.993352 22.571675,55.638170 23.430766,56.268566 z "
     style="font-size:12.000000;fill:url(#linearGradient638);fill-rule:evenodd;stroke:#261933;stroke-width:1.8750000;stroke-dasharray:none;"
     id="path834" />
  <path
     d="M 26.260038,55.649629 C 26.019179,55.408771 23.125023,20.291484 23.519264,19.312167 C 23.761142,19.019504 53.956813,22.430267 54.198302,22.671753 C 54.428257,22.901864 26.216338,19.219527 25.022398,20.992016 C 23.726308,22.827489 26.490620,55.880207 26.260038,55.649629 z "
     style="font-size:12;opacity:0.7;fill:url(#linearGradient641);fill-rule:evenodd;stroke:none;stroke-width:0.105188pt;"
     id="path835" />
  <path
     d="M 24.049782,55.119183 C 23.960342,54.984947 21.347529,31.084647 21.220533,19.842615 C 21.212915,19.443353 22.710934,19.160779 22.811906,19.312167 C 22.887773,19.426006 21.744946,20.328413 21.751020,20.638322 C 21.882636,31.881286 24.137103,55.250211 24.049782,55.119183 z "
     style="font-size:12;opacity:0.699936;fill:url(#linearGradient1522);fill-rule:evenodd;stroke:none;stroke-width:0.105188pt;"
     id="path836" />
  <path
     d="M 26.871915,22.752877 C 26.395375,23.359498 27.794398,51.561998 28.520114,52.090480 C 29.269524,52.576280 52.819994,45.028987 53.407548,44.261690 C 53.961681,43.620392 53.203795,25.632755 52.830742,24.978040 C 52.350589,24.279940 27.392468,22.172775 26.871915,22.752877 z "
     style="font-size:12.000000;fill:#261933;fill-opacity:0.49999997;fill-rule:evenodd;stroke:#261933;stroke-width:0.62500000;stroke-dasharray:none;"
     id="path837" />
  <path
     d="M 28.849707,50.524738 C 28.666669,50.299255 27.002622,24.270526 27.448879,23.659434 C 28.039494,22.963296 50.175328,25.082386 50.358361,25.307633 C 50.532538,25.521739 30.296981,23.262526 28.520114,24.977961 C 27.308993,26.148914 29.023721,50.738764 28.849707,50.524738 z "
     style="font-size:12;opacity:0.699936;fill:url(#linearGradient1527);fill-rule:evenodd;stroke:none;stroke-width:0.0980447pt;"
     id="path838" />
  <path
     style="fill-opacity:0.29999998;stroke:#261933;stroke-width:0.0000000;"
     d="M 4.7106983,22.843690 C 7.6318846,19.956735 7.1733586,20.085458 9.8330406,18.903380 C 11.162875,18.312416 11.659467,18.052135 12.971656,18.045274 C 14.283860,18.038263 16.137462,18.216059 17.439375,18.637879 C 20.043153,19.481518 18.908656,19.395901 20.386217,19.001973 C 21.863776,18.607898 21.653910,18.312416 21.752355,17.228782 C 21.850799,16.145209 21.949393,9.4467720 22.737395,7.9691683 C 23.525397,6.4915623 23.426954,6.0975313 24.411993,7.7721453 C 25.397033,9.4467570 25.791109,13.584046 26.382223,14.963130 C 26.973188,16.342231 27.170225,17.130278 27.465707,17.327286 C 27.761190,17.524309 27.564301,17.721317 29.041861,17.425805 C 30.519420,17.130278 32.095575,17.228782 33.376097,17.327286 C 34.656769,17.425805 35.247733,17.524309 35.838847,17.425805 C 36.429811,17.327286 36.528404,17.524309 36.922331,16.834751 C 37.316406,16.145209 38.399891,13.387022 38.498485,12.007936 C 38.596929,10.628835 38.301448,5.8020043 37.710483,4.7184303 C 37.119369,3.6348663 37.710483,3.1423274 38.991005,4.7184303 C 40.271527,6.2945543 41.436737,8.7572293 41.929257,10.037796 C 42.421777,11.318378 42.228189,11.063624 42.499902,12.935245 C 42.302865,14.806880 42.068650,16.306287 41.335891,17.260077 C 40.989682,18.103338 40.468565,18.965999 41.650643,18.903380 C 42.832721,18.509305 43.325241,17.721317 44.507319,16.933270 C 45.689397,16.145209 48.644666,14.569114 51.008822,14.273588 C 53.372979,13.978061 53.865499,14.175084 54.850538,14.569114 C 55.835579,14.963130 55.835579,14.470596 57.116251,15.455665 C 58.396773,16.440735 59.972925,17.524309 58.790849,19.001973 C 57.608771,20.479534 56.131209,20.184052 55.441652,20.972054 C 54.752094,21.760056 52.978902,22.351169 51.993863,22.548208 C 51.008822,22.745097 45.985028,22.942134 45.295471,22.745097 C 44.605912,22.548208 43.029759,21.267537 43.817762,23.139172 C 44.605912,25.010809 45.590952,29.542082 45.787991,31.315274 C 45.985028,33.088317 46.674586,38.900261 47.068513,41.461455 C 47.462588,44.022649 47.758071,46.288212 47.955108,48.947999 C 48.152147,51.607637 47.462588,51.903120 47.265551,53.085197 C 47.068513,53.770090 47.167106,53.774755 45.787991,54.759795 C 44.408875,55.744836 44.267174,55.025446 42.494132,55.616410 C 40.720941,56.207523 40.468565,56.040466 38.793968,56.926914 C 37.119369,57.813509 33.868617,59.192625 32.588095,58.108991 C 31.307424,57.025507 29.534381,54.562757 27.564301,52.888159 C 25.594071,51.213562 22.934434,47.371845 22.343319,41.067379 C 21.752355,34.762914 20.270470,28.133135 19.396850,26.060135 C 18.523231,23.987137 19.250825,23.704631 16.827005,25.109253 C 14.403201,26.514023 12.591228,26.586961 10.818111,26.586961 C 9.0449786,26.586961 6.2867916,25.404883 4.8092023,24.616733 C 3.3315993,23.828730 3.5286113,24.025768 4.7106983,22.843690 z "
     id="path4368"
     sodipodi:nodetypes="ccccccccccccccccccccccccccccccccccccccccccccc"
     transform="matrix(0.540266,0.000000,0.000000,0.540266,22.48353,19.38924)" />
  <path
     style="fill:#261933;stroke:#261933;stroke-width:0.0000000;"
     d="M 2.4785706,21.314150 C 5.3997572,18.427195 4.9412304,18.555918 7.6009132,17.373840 C 8.9307470,16.782876 9.4273392,16.522595 10.739528,16.515734 C 12.051732,16.508723 13.905334,16.686519 15.207247,17.108339 C 17.811025,17.951978 16.676528,17.866361 18.154089,17.472433 C 19.631648,17.078358 19.421782,16.782876 19.520227,15.699242 C 19.618671,14.615669 19.717265,7.9172318 20.505267,6.4396275 C 21.293269,4.9620222 21.194826,4.5679910 22.179865,6.2426046 C 23.164905,7.9172172 23.558981,12.054506 24.150095,13.433590 C 24.741060,14.812691 24.938097,15.600738 25.233579,15.797746 C 25.529062,15.994769 25.332173,16.191777 26.809733,15.896265 C 28.287292,15.600738 29.863447,15.699242 31.143969,15.797746 C 32.424641,15.896265 33.015605,15.994769 33.606719,15.896265 C 34.197683,15.797746 34.296276,15.994769 34.690203,15.305211 C 35.084278,14.615669 36.167763,11.857482 36.266357,10.478396 C 36.364801,9.0992954 36.069320,4.2724639 35.478355,3.1888899 C 34.887241,2.1053255 35.478355,1.6127872 36.758877,3.1888899 C 38.039399,4.7650139 39.204609,7.2276890 39.697129,8.5082558 C 40.189649,9.7888382 39.996061,9.5340840 40.267774,11.405705 C 40.070737,13.277340 39.836522,14.776747 39.103763,15.730537 C 38.757554,16.573798 38.236437,17.436459 39.418515,17.373840 C 40.600593,16.979765 41.093113,16.191777 42.275191,15.403730 C 43.457269,14.615669 46.412538,13.039574 48.776694,12.744048 C 51.140851,12.448521 51.633371,12.645544 52.618410,13.039574 C 53.603451,13.433590 53.603451,12.941056 54.884123,13.926125 C 56.164645,14.911195 57.740797,15.994769 56.558721,17.472433 C 55.376643,18.949994 53.899081,18.654512 53.209524,19.442514 C 52.519966,20.230516 50.746774,20.821629 49.761735,21.018668 C 48.776694,21.215557 43.752900,21.412594 43.063343,21.215557 C 42.373784,21.018668 40.797631,19.737997 41.585634,21.609632 C 42.373784,23.481269 43.358824,28.012542 43.555863,29.785734 C 43.752900,31.558777 44.442458,37.370721 44.836385,39.931915 C 45.230460,42.493109 45.525943,44.758672 45.722980,47.418459 C 45.920019,50.078097 45.230460,50.373580 45.033423,51.555657 C 44.836385,52.240550 44.934978,52.245215 43.555863,53.230255 C 42.176747,54.215296 42.035046,53.495906 40.262004,54.086870 C 38.488813,54.677983 38.236437,54.510926 36.561840,55.397374 C 34.887241,56.283969 31.636489,57.663085 30.355967,56.579451 C 29.075296,55.495967 27.302253,53.033217 25.332173,51.358619 C 23.361943,49.684022 20.702306,45.842305 20.111191,39.537839 C 19.520227,33.233374 18.038342,26.603595 17.164722,24.530595 C 16.291103,22.457597 17.018697,22.175091 14.594877,23.579713 C 12.171073,24.984483 10.359100,25.057421 8.5859832,25.057421 C 6.8128511,25.057421 4.0546643,23.875343 2.5770746,23.087193 C 1.0994716,22.299190 1.2964836,22.496228 2.4785706,21.314150 z "
     id="path1221"
     sodipodi:nodetypes="ccccccccccccccccccccccccccccccccccccccccccccc"
     transform="matrix(0.540266,0.000000,0.000000,0.540266,22.48353,19.38924)" />
  <path
     style="fill:url(#linearGradient4066);stroke:#261933;stroke-width:0.0000000;"
     d="M 44.761526,15.526345 C 46.250344,15.148311 46.561941,15.113941 47.185131,14.804642 C 47.808322,14.495343 48.293044,14.529711 49.678048,14.564079 C 51.063053,14.598449 51.616933,14.770274 52.240124,15.045220 C 52.863466,15.320150 53.140407,15.388872 52.240124,15.526345 C 51.339993,15.663817 49.089511,15.870011 47.669853,15.973101 C 46.250344,16.076205 45.073122,16.213709 44.380620,16.557390 C 43.688117,16.901071 43.099582,16.935322 43.480487,16.557390 C 43.861243,16.179310 44.207494,15.698185 44.761526,15.526345 z "
     id="path1224"
     sodipodi:nodetypes="ccccccccc"
     transform="matrix(0.540266,0.000000,0.000000,0.540266,22.48353,19.38924)" />
  <path
     style="fill:url(#linearGradient1534);stroke:#261933;stroke-width:0.0000000;"
     d="M 47.458966,17.382197 C 49.294035,17.244603 50.367292,17.141560 51.232921,16.901071 C 52.098546,16.660434 51.925421,16.832275 52.825553,16.797879 C 53.725836,16.763479 53.829650,16.866674 53.691182,17.107161 C 53.552710,17.347798 52.894865,17.931967 52.237017,18.138207 C 51.579172,18.344447 51.094449,18.310048 50.263477,18.894216 C 49.432505,19.478537 48.151468,19.719024 46.731809,19.684626 C 45.312300,19.650377 44.308203,19.890865 43.581044,19.547183 C 42.854038,19.203501 42.611603,18.997413 43.200290,18.447491 C 43.788826,17.897571 44.239043,17.931967 45.312300,17.725879 C 46.385559,17.519639 46.870279,17.416446 47.458966,17.382197 z "
     id="path1225"
     sodipodi:nodetypes="ccccccccccc"
     transform="matrix(0.540266,0.000000,0.000000,0.540266,22.48353,19.38924)" />
  <path
     style="fill:url(#linearGradient4068);stroke:#261933;stroke-width:0.0000000;"
     d="M 20.736032,13.830826 C 20.772962,11.931359 20.995356,11.200789 21.217749,10.470220 C 21.440142,9.7396501 21.403050,9.8857720 21.699466,10.470220 C 21.995883,11.054669 22.403577,12.588869 22.551786,13.100257 C 22.699994,13.611661 23.107687,14.634455 23.292989,15.036270 C 23.478289,15.438068 23.700683,15.839931 22.996572,15.912896 C 22.292462,15.986019 21.995883,16.095546 21.514165,16.095546 C 21.032448,16.095546 20.624755,15.766808 20.661847,15.109330 C 20.698939,14.451805 20.698939,14.013476 20.736032,13.830826 z "
     id="path1226"
     sodipodi:nodetypes="ccccccccc"
     transform="matrix(0.540266,0.000000,0.000000,0.540266,22.48353,19.38924)" />
  <path
     style="fill:url(#linearGradient4067);stroke:#261933;stroke-width:0.0000000;"
     d="M 37.459144,11.412117 C 37.559057,10.526575 37.499613,9.7722168 37.499613,9.4442368 C 37.499613,9.1162710 37.504547,8.7157005 37.504547,8.4861188 C 37.504547,8.2565371 37.525752,7.8371360 37.525752,7.5091559 C 37.525752,7.1811901 37.302894,5.3610879 37.668952,6.4106269 C 38.035011,7.4601517 38.700316,8.8158688 38.822815,10.076022 C 39.055656,11.059948 38.737737,12.105753 38.737737,12.532117 C 38.737737,12.958495 38.490711,13.642364 38.191261,14.527906 C 37.891811,15.413462 37.804948,16.263251 37.305818,16.296050 C 36.806831,16.328849 36.394418,16.069422 35.928591,16.069422 C 35.462764,16.069422 35.496069,16.003823 35.828823,15.577445 C 36.161577,15.151066 37.226303,13.183215 37.459144,11.412117 z "
     id="path1227"
     sodipodi:nodetypes="cccccccccccc"
     transform="matrix(0.540266,0.000000,0.000000,0.540266,22.48353,19.38924)" />
  <path
     style="fill:url(#linearGradient4054);stroke:#261933;stroke-width:0.0000000;"
     d="M 22.084966,33.556261 C 21.731894,30.873040 21.661372,29.390231 21.096427,27.624873 C 20.531635,25.859669 18.978151,21.693639 18.483881,20.563748 C 17.989612,19.434011 18.272007,19.151615 19.472420,18.869066 C 20.672833,18.586670 25.191935,17.174383 27.875156,17.315735 C 30.558377,17.456933 32.535455,16.468394 35.359875,18.021725 C 38.184294,19.575209 39.102311,18.798544 39.808300,21.764161 C 40.514444,24.729778 41.361785,31.649705 41.785532,33.838657 C 42.209126,36.027609 43.127143,43.583003 43.409539,44.571542 C 43.691935,45.560081 43.974484,45.842477 42.067928,45.771955 C 40.161372,45.701279 37.690024,45.560081 34.724407,46.972368 C 31.758790,48.384501 29.287289,50.220381 28.581299,51.067722 C 27.875156,51.915063 27.875156,51.491469 26.957139,50.714650 C 26.039276,49.937985 24.203396,47.254764 23.779648,44.924614 C 23.356054,42.594464 22.367515,37.934165 22.296840,36.733752 C 22.226164,35.533339 22.084966,34.474124 22.084966,33.556261 z "
     id="path1228"
     sodipodi:nodetypes="cccccccccccccccc"
     transform="matrix(0.540266,0.000000,0.000000,0.540266,22.48353,19.38924)" />
  <path
     style="fill:#261933;stroke:#261933;stroke-width:0.0000000;"
     d="M 25.385484,29.639542 C 26.979950,28.987311 27.487258,28.914928 28.212030,29.567160 C 28.936802,30.219391 29.661573,31.324684 28.936802,32.049298 C 28.212030,32.774069 27.849644,32.755934 27.052490,33.335783 C 26.255178,33.915632 25.385484,33.625629 24.878175,33.335783 C 24.370866,33.045938 24.225944,32.611012 24.081021,31.958780 C 23.936098,31.306549 24.443407,30.291932 25.385484,29.639542 z "
     id="path1229"
     sodipodi:nodetypes="ccccccc"
     transform="matrix(0.540266,0.000000,0.000000,0.540266,22.48353,19.38924)" />
  <path
     style="fill:#261933;stroke:#261933;stroke-width:0.0000000;"
     d="M 35.728856,25.073775 C 37.029493,25.120068 37.470789,25.445328 37.470789,26.374412 C 37.470789,27.303295 36.402220,27.884074 35.751901,27.884074 C 35.101582,27.884074 34.404972,27.326543 34.218993,26.583436 C 34.033217,25.840128 34.311982,25.050527 35.728856,25.073775 z "
     id="path1230"
     sodipodi:nodetypes="ccccc"
     transform="matrix(0.540266,0.000000,0.000000,0.540266,22.48353,19.38924)" />
  <path
     style="fill:url(#linearGradient4070);stroke-width:0.62500000;"
     d="M 14.139202,20.835913 C 14.742777,20.863369 14.697703,20.940553 14.697702,21.297281 C 14.697702,21.653891 14.769310,21.566558 14.357745,21.758652 C 13.946239,21.950747 11.738935,22.725891 10.861042,22.972785 C 9.9831498,23.219676 9.2233469,23.479544 8.8941471,23.507003 C 8.5649360,23.534342 7.7827156,23.345158 6.4658823,22.851372 C 5.7251673,22.659276 5.3807684,22.524000 5.7374025,22.414285 C 6.0940479,22.304567 6.1379707,22.245195 6.8786883,22.025762 C 7.6194033,21.806326 10.341096,21.267655 11.273848,21.103020 C 12.206611,20.938385 13.535649,20.808452 14.139202,20.835913 z "
     id="path1009"
     transform="matrix(0.540266,0.000000,0.000000,0.540266,22.48353,19.38924)" />
  <path
     style="fill:url(#linearGradient4069);stroke-width:0.62500000;"
     d="M 9.8126320,18.990430 C 12.192522,19.092081 12.659756,19.405194 13.472245,19.709839 C 14.284749,20.014487 13.674620,20.093002 12.658998,19.991348 C 11.643375,19.889852 8.3105098,19.960070 7.4980037,19.960070 C 6.6855188,19.960070 6.6619605,19.732978 7.3728917,19.428331 C 8.0838196,19.123532 8.8985682,18.990430 9.8126320,18.990430 z "
     id="path1008"
     transform="matrix(0.540266,0.000000,0.000000,0.540266,22.48353,19.38924)" />
</svg>
