<?xml version="1.0" encoding="UTF-8" standalone="no"?>
<!DOCTYPE svg PUBLIC "-//W3C//DTD SVG 20010904//EN"
"http://www.w3.org/TR/2001/REC-SVG-20010904/DTD/svg10.dtd">
<!-- Created with Inkscape (http://www.inkscape.org/) -->
<svg
   version="1.0"
   x="0"
   y="0"
   width="48pt"
   height="48pt"
   id="svg1"
   sodipodi:version="0.32"
   inkscape:version="0.37"
   sodipodi:docname="gnome-devel.svg"
   sodipodi:docbase="/usr/share/icons/Lila/scalable/apps"
   xmlns="http://www.w3.org/2000/svg"
   xmlns:inkscape="http://www.inkscape.org/namespaces/inkscape"
   xmlns:sodipodi="http://sodipodi.sourceforge.net/DTD/sodipodi-0.dtd"
   xmlns:xlink="http://www.w3.org/1999/xlink">
  <sodipodi:namedview
     id="base"
     pagecolor="#ffffff"
     bordercolor="#666666"
     borderopacity="1.0"
     inkscape:pageopacity="0.0"
     inkscape:pageshadow="2"
     inkscape:zoom="4.91194111"
     inkscape:cx="25.8149002"
     inkscape:cy="21.8599436"
     inkscape:window-width="640"
     inkscape:window-height="500"
     inkscape:window-x="188"
     inkscape:window-y="244"
     showgrid="false"
     vertgrid="false"
     snaptogrid="false"
     horizgrid="false"
     snaptoguides="false" />
  <defs
     id="defs3">
    <linearGradient
       id="linearGradient570">
      <stop
         style="stop-color:#ffffff;stop-opacity:1;"
         offset="0"
         id="stop571" />
      <stop
         style="stop-color:#ffffff;stop-opacity:0;"
         offset="1"
         id="stop572" />
    </linearGradient>
    <linearGradient
       id="linearGradient563">
      <stop
         style="stop-color:#d9cce6;stop-opacity:1;"
         offset="0.00000000"
         id="stop564" />
      <stop
         style="stop-color:#73667f;stop-opacity:1;"
         offset="1.00000000"
         id="stop565" />
    </linearGradient>
    <linearGradient
       x1="0.40845069"
       y1="0.34375000"
       x2="0.66197181"
       y2="0.60156250"
       id="linearGradient566"
       xlink:href="#linearGradient563" />
    <linearGradient
       x1="0.009905"
       y1="0.007809"
       x2="0.985224"
       y2="1.015625"
       id="linearGradient569"
       xlink:href="#linearGradient570" />
    <linearGradient
       x1="0.015742"
       y1="0.015626"
       x2="0.976382"
       y2="0.999995"
       id="linearGradient573"
       xlink:href="#linearGradient570"
       gradientTransform="scale(0.999995,1.000005)" />
    <linearGradient
       x1="0.006623"
       y1="0.007813"
       x2="0.973510"
       y2="0.984375"
       id="linearGradient575"
       xlink:href="#linearGradient570" />
    <linearGradient
       x1="0.000005"
       y1="0.023436"
       x2="1.000000"
       y2="1.007812"
       id="linearGradient578"
       xlink:href="#linearGradient570" />
    <linearGradient
       x1="0.012999"
       y1="0.015680"
       x2="1.012987"
       y2="1.000001"
       id="linearGradient583"
       xlink:href="#linearGradient570" />
    <linearGradient
       x1="0.07954545"
       y1="0.06250000"
       x2="0.95454544"
       y2="0.97656250"
       id="linearGradient637"
       xlink:href="#linearGradient563" />
    <linearGradient
       x1="0.03225806"
       y1="0.05468750"
       x2="0.99596775"
       y2="1.00000000"
       id="linearGradient640"
       xlink:href="#linearGradient563" />
    <linearGradient
       x1="0.010877"
       y1="0.038449"
       x2="0.989090"
       y2="0.987177"
       id="linearGradient645"
       xlink:href="#linearGradient570" />
    <linearGradient
       x1="0.056578"
       y1="0.023450"
       x2="0.867923"
       y2="0.976563"
       id="linearGradient646"
       xlink:href="#linearGradient570" />
    <linearGradient
       x1="0.000007"
       y1="0.000000"
       x2="0.951807"
       y2="0.984375"
       id="linearGradient647"
       xlink:href="#linearGradient570" />
    <linearGradient
       x1="0.056605"
       y1="0.015625"
       x2="0.943396"
       y2="0.984375"
       id="linearGradient675"
       xlink:href="#linearGradient570" />
    <linearGradient
       x1="0.011765"
       y1="-0.000000"
       x2="1.011765"
       y2="1.015625"
       id="linearGradient676"
       xlink:href="#linearGradient570" />
    <linearGradient
       xlink:href="#linearGradient563"
       id="linearGradient684"
       x1="0.09210526"
       y1="0.12500000"
       x2="0.93421054"
       y2="0.92187500" />
    <linearGradient
       xlink:href="#linearGradient563"
       id="linearGradient685"
       x1="0.06603774"
       y1="0.07812500"
       x2="0.94339621"
       y2="0.95312500" />
  </defs>
  <g
     transform="matrix(9.631684e-2,2.659307e-2,-2.659307e-2,9.631684e-2,9.606894,-12.78050)"
     style="font-size:12;opacity:0.3;"
     id="g658">
    <path
       d="M 458.397 438.146 C 490.322 428.458 610.846 466.416 609.855 478.809 C 609.212 487.551 486.762 521.042 456.293 509.84 C 437.305 502.859 437.592 444.459 458.397 438.146 z "
       transform="translate(12.00077,18.54668)"
       style="fill-rule:evenodd;stroke-width:12.5;"
       id="path651" />
    <path
       d="M 430.935 369.712 C 399.408 360.368 369.142 392.002 364.386 441.716 C 358.334 503.587 374.06 560.893 413.48 573.724 C 452.564 586.103 485.634 540.29 492.03 480.991 C 497.2 422.142 471.619 381.447 430.935 369.712 z "
       transform="translate(12.00077,18.54668)"
       style="fill-rule:evenodd;stroke-width:12.5;"
       id="path652" />
  </g>
  <path
     d="M 42.106607 41.610461 C 45.43916 41.526327 56.038231 48.387476 55.613172 49.554747 C 55.318807 50.379691 42.634189 50.349116 39.997386 48.459916 C 38.354191 47.282552 39.934833 41.665318 42.106607 41.610461 z "
     style="font-size:12;fill:url(#linearGradient640);fill-rule:evenodd;stroke:#261933;stroke-width:1.87351;"
     id="path639" />
  <path
     d="M 6.4128263 45.060819 C 8.6230193 46.226092 10.568574 40.858758 14.65093 45.533843 C 19.257269 50.812747 12.860552 51.43865 13.508938 53.70125 C 14.016234 55.210151 20.202317 53.735224 21.599907 52.082838 C 23.019478 50.404672 20.287248 45.734784 21.96032 43.709892 C 27.507213 36.997127 35.630255 30.292256 43.259988 25.870271 C 45.744021 24.430714 50.330677 27.499775 52.301704 26.125068 C 54.214288 24.790928 56.293037 18.520412 54.910533 17.74383 C 52.785727 16.503714 49.851357 23.453791 45.959648 18.857045 C 42.042059 14.228723 48.801482 11.845018 48.337257 9.937233 C 47.913393 8.3900337 41.176348 9.8074374 39.493684 11.55335 C 37.834105 13.275281 40.120388 18.191973 38.310525 20.340765 C 32.695388 27.007168 24.721525 33.623709 17.218589 37.998931 C 15.042418 39.267923 11.0389 36.119624 9.2731032 37.273609 C 7.4370124 38.473555 4.9902471 44.230579 6.4128263 45.060819 z "
     style="font-size:12;opacity:0.302675;fill-rule:evenodd;stroke-width:12.5;"
     id="path636" />
  <path
     d="M 4.8866787 43.316605 C 7.0968623 44.481879 9.0423867 39.114544 13.124743 43.789628 C 17.731082 49.068534 11.334366 49.694436 11.98275 51.957038 C 12.490047 53.465939 18.67613 51.991012 20.073719 50.338625 C 21.493291 48.660458 18.761062 43.990569 20.434134 41.96568 C 25.981025 35.252914 34.104067 28.548043 41.733805 24.126056 C 44.217827 22.6865 48.804483 25.755562 50.775521 24.380854 C 52.688095 23.046714 54.766842 16.7762 53.384351 15.999616 C 51.259532 14.759501 48.325164 21.709577 44.433455 17.112831 C 40.515872 12.484508 47.2753 10.100803 46.811064 8.1930699 C 46.387209 6.64586 39.650161 8.0633028 37.967498 9.809135 C 36.307918 11.531067 38.594201 16.447759 36.784338 18.596551 C 31.169201 25.262953 23.195339 31.879495 15.692402 36.254718 C 13.516231 37.523709 9.5127129 34.375411 7.7469463 35.529394 C 5.9108648 36.72934 3.4640996 42.486365 4.8866787 43.316605 z "
     style="font-size:12;fill:url(#linearGradient566);fill-rule:evenodd;stroke:#261933;stroke-width:1.87351;"
     id="path630" />
  <path
     d="M 5.7685079 41.828187 C 5.7081657 41.546511 7.0482817 37.545192 8.3848089 36.922687 C 9.7008634 36.309674 13.66941 37.856544 13.726265 38.121734 C 13.778422 38.365239 10.113935 37.795692 8.7117496 38.448773 C 7.4613231 39.031211 5.8171499 42.055208 5.7685079 41.828187 z "
     style="font-size:12;opacity:0.699936;fill:url(#linearGradient578);fill-rule:evenodd;stroke:#ffffff;stroke-width:0.0999203pt;"
     id="path631" />
  <path
     d="M 13.726265 50.875996 C 13.621748 50.823738 15.616761 49.414758 16.015546 48.477803 C 16.343584 47.707017 15.805312 45.70191 15.906531 45.752568 C 16.023339 45.810922 17.008655 48.008275 16.669625 48.804843 C 16.281833 49.71612 13.839774 50.932753 13.726265 50.875996 z "
     style="font-size:12;opacity:0.699936;fill:url(#linearGradient583);fill-rule:evenodd;stroke:#ffffff;stroke-width:0.0999203pt;"
     id="path632" />
  <path
     d="M 16.679816 37.459361 C 16.590489 37.294292 24.679059 32.229516 28.32656 29.193031 C 31.830576 26.275849 38.046635 19.435884 38.134565 19.598356 C 38.224793 19.764922 32.421405 27.215801 28.860736 30.180045 C 25.26979 33.16947 16.768546 37.62333 16.679816 37.459361 z "
     style="font-size:12;opacity:0.7;fill:url(#linearGradient575);fill-rule:evenodd;stroke:#ffffff;stroke-width:0.0999203pt;"
     id="path633" />
  <path
     d="M 38.798838 15.011501 C 38.575215 14.78788 38.213702 11.715919 39.016764 10.869093 C 40.212213 9.6083947 44.586343 8.4808317 44.794372 8.6888362 C 44.986021 8.8805141 41.485601 10.729204 40.215912 12.06814 C 39.48709 12.83673 38.974897 15.187562 38.798838 15.011501 z "
     style="font-size:12;opacity:0.7;fill:url(#linearGradient573);fill-rule:evenodd;stroke:#ffffff;stroke-width:0.0999203pt;"
     id="path634" />
  <path
     d="M 46.320555 19.917003 C 46.303572 19.747237 48.019608 20.220361 48.718748 19.917003 C 49.94548 19.384626 52.081176 17.24113 52.098065 17.409695 C 52.11755 17.60444 50.060384 20.472061 48.827766 21.007036 C 48.134615 21.307896 46.339947 20.110548 46.320555 19.917003 z "
     style="font-size:12;opacity:0.699936;fill:url(#linearGradient569);fill-rule:evenodd;stroke:#ffffff;stroke-width:0.0999203pt;"
     id="path635" />
  <path
     d="M 41.281364 34.28888 C 38.49328 32.550461 34.736966 34.792479 32.95678 39.454274 C 30.728551 45.252566 30.719258 51.190347 34.174913 53.474432 C 37.610182 55.706158 42.013682 52.172966 44.206636 46.63157 C 46.269595 41.100966 44.887903 36.501021 41.281364 34.28888 z "
     style="font-size:12;fill:url(#linearGradient637);fill-rule:evenodd;stroke:#261933;stroke-width:1.87351;"
     id="path638" />
  <path
     d="M 42.456729 35.6469 L 31.948281 49.378587 L 32.619149 51.003295 L 43.61451 37.24603 L 42.456729 35.6469 z "
     style="font-size:12;fill:#261933;fill-rule:evenodd;stroke-width:1pt;fill-opacity:1;"
     id="path641" />
  <path
     d="M 32.753043 43.469284 C 32.656219 43.243863 33.871155 38.722256 36.313014 36.309773 C 38.316221 34.254306 41.260181 35.447758 41.353707 35.665786 C 41.443635 35.875419 39.594605 34.933268 36.863575 37.592555 C 33.713878 40.605061 32.839874 43.671423 32.753043 43.469284 z "
     style="font-size:12;opacity:0.699936;fill:url(#linearGradient647);fill-rule:evenodd;stroke:#ffffff;stroke-width:0.0999203pt;"
     id="path642" />
  <path
     d="M 34.055807 51.858316 C 33.889339 51.854219 33.191892 51.280375 33.389137 50.995801 C 36.262053 46.850595 43.114007 38.565081 43.26629 38.568779 C 43.413572 38.572375 37.193014 46.826016 34.287823 51.017684 C 34.122753 51.255896 34.188901 51.861513 34.055807 51.858316 z "
     style="font-size:12;opacity:0.7;fill:url(#linearGradient646);fill-rule:evenodd;stroke:#ffffff;stroke-width:0.0999203pt;"
     id="path643" />
  <path
     d="M 45.373616 46.501375 C 45.345733 46.124374 45.826152 44.251563 46.403195 44.410836 C 48.453169 44.976885 53.233664 48.39407 53.25455 48.677344 C 53.273328 48.932742 48.447863 46.445518 46.131106 45.805826 C 45.820858 45.720194 45.385606 46.663145 45.373616 46.501375 z "
     style="font-size:12;opacity:0.7;fill:url(#linearGradient645);fill-rule:evenodd;stroke:#ffffff;stroke-width:0.0999203pt;"
     id="path644" />
  <path
     d="M 44.633804 49.180944 L 48.176979 44.335095 L 49.111743 45.045531 L 45.780592 49.327927 L 44.633804 49.180944 z "
     style="font-size:12;opacity:0.296369;fill:#3f003f;fill-rule:evenodd;stroke-width:1pt;"
     id="path648" />
  <path
     d="M 47.782791 49.650572 L 50.640426 45.695014 L 51.575179 46.40535 L 48.929685 49.797553 L 47.782791 49.650572 z "
     style="font-size:12;opacity:0.296369;fill:#3f003f;fill-rule:evenodd;stroke-width:1pt;"
     id="path649" />
  <path
     d="M 51.277719 49.735903 L 52.97427 47.378976 L 53.909033 48.089312 L 52.424612 49.882886 L 51.277719 49.735903 z "
     style="font-size:12;opacity:0.296369;fill:#3f003f;fill-rule:evenodd;stroke-width:1pt;"
     id="path650" />
  <g
     transform="matrix(-5.589348e-2,8.206758e-2,-8.282539e-2,-5.701649e-2,85.61376,6.209690)"
     style="font-size:12;opacity:0.3;"
     id="g661">
    <path
       d="M 458.397 438.146 C 490.322 428.458 610.846 466.416 609.855 478.809 C 609.212 487.551 486.762 521.042 456.293 509.84 C 437.305 502.859 437.592 444.459 458.397 438.146 z "
       transform="translate(12.00077,18.54668)"
       style="fill-rule:evenodd;stroke-width:12.5;"
       id="path662" />
    <path
       d="M 430.935 369.712 C 399.408 360.368 369.142 392.002 364.386 441.716 C 358.334 503.587 374.06 560.893 413.48 573.724 C 452.564 586.103 485.634 540.29 492.03 480.991 C 497.2 422.142 471.619 381.447 430.935 369.712 z "
       transform="translate(12.00077,18.54668)"
       style="fill-rule:evenodd;stroke-width:12.5;"
       id="path663" />
  </g>
  <path
     d="M 20.156954 16.689367 C 19.174935 19.861746 9.2944865 27.588605 8.3234579 26.800631 C 7.6353244 26.24947 11.70557 14.290673 14.33638 12.428853 C 15.975877 11.268574 20.796845 14.62191 20.156954 16.689367 z "
     style="font-size:12;fill:url(#linearGradient685);fill-rule:evenodd;stroke:#261933;stroke-width:1.87351;"
     id="path664" />
  <path
     d="M 27.359928 18.337357 C 29.896013 16.28279 28.967551 11.995298 25.115812 8.7704817 C 20.329615 4.7461592 14.704187 2.7693206 11.438183 5.2729213 C 8.2283332 7.774613 10.174386 13.100719 14.728368 17.006615 C 19.313524 20.786212 24.114007 21.007235 27.359928 18.337357 z "
     style="font-size:12;fill:url(#linearGradient684);fill-rule:evenodd;stroke:#261933;stroke-width:1.87351;"
     id="path665" />
  <path
     d="M 25.698248 18.996333 L 16.030034 4.5295013 L 14.276228 4.6239969 L 23.813548 19.558687 L 25.698248 18.996333 z "
     style="font-size:12;fill:#261933;fill-rule:evenodd;stroke-width:1pt;fill-opacity:1;"
     id="path666" />
  <path
     d="M 14.845575 18.529205 C 14.646132 18.206561 13.152819 16.959753 12.777419 17.421186 C 11.444479 19.060982 9.5705667 24.590788 9.720348 24.833195 C 9.8555401 25.051721 12.313488 20.252536 13.820189 18.399209 C 14.02193 18.151205 14.931107 18.667595 14.845575 18.529205 z "
     style="font-size:12;opacity:0.7;fill:url(#linearGradient645);fill-rule:evenodd;stroke:#ffffff;stroke-width:0.0999203pt;"
     id="path669" />
  <path
     d="M 12.175797 16.564667 L 15.640244 21.514033 L 14.669015 22.160619 L 11.671097 17.598045 L 12.175797 16.564667 z "
     style="font-size:12;opacity:0.296369;fill:#3f003f;fill-rule:evenodd;stroke-width:1pt;"
     id="path670" />
  <path
     d="M 10.727348 19.380328 L 13.566392 23.387744 L 12.595262 24.034329 L 10.222648 20.413807 L 10.727348 19.380328 z "
     style="font-size:12;opacity:0.296369;fill:#3f003f;fill-rule:evenodd;stroke-width:1pt;"
     id="path671" />
  <path
     d="M 9.5329968 22.64973 L 11.226651 25.031737 L 10.255522 25.678324 L 9.0282981 23.683208 L 9.5329968 22.64973 z "
     style="font-size:12;opacity:0.296369;fill:#3f003f;fill-rule:evenodd;stroke-width:1pt;"
     id="path672" />
  <path
     d="M 12.309191 13.04896 C 12.146719 12.982014 10.567375 9.809135 10.946573 7.8164494 C 11.264822 6.0892118 13.94639 5.1336318 14.10796 5.2001784 C 14.255244 5.2608101 12.364646 6.0290504 11.873237 8.1979864 C 11.26602 10.932643 12.455573 13.109213 12.309191 13.04896 z "
     style="font-size:12;opacity:0.7;fill:url(#linearGradient675);fill-rule:evenodd;stroke:#ffffff;stroke-width:0.0999203pt;"
     id="path673" />
  <path
     d="M 25.336136 17.572965 C 25.052862 17.328759 18.836202 8.5413534 17.378362 5.6907283 C 17.059016 5.0419349 20.010769 6.5748361 20.376179 6.8898555 C 20.537651 7.0290454 18.787242 6.6833197 18.959005 7.0533663 C 20.440528 10.244388 25.579743 17.782997 25.336136 17.572965 z "
     style="font-size:12;opacity:0.7;fill:url(#linearGradient676);fill-rule:evenodd;stroke:#ffffff;stroke-width:0.0999203pt;"
     id="path674" />
</svg>
