<?xml version="1.0" encoding="UTF-8" standalone="no"?>
<!DOCTYPE svg PUBLIC "-//W3C//DTD SVG 20010904//EN"
"http://www.w3.org/TR/2001/REC-SVG-20010904/DTD/svg10.dtd">
<!-- Created with Inkscape (http://www.inkscape.org/) -->
<svg
   id="svg1"
   sodipodi:version="0.32"
   inkscape:version="0.39"
   width="48.000000pt"
   height="48.000000pt"
   sodipodi:docbase="/home/stefan/new-lila-icons/makzu"
   sodipodi:docname="gnome-gtali.svg"
   xmlns="http://www.w3.org/2000/svg"
   xmlns:cc="http://web.resource.org/cc/"
   xmlns:inkscape="http://www.inkscape.org/namespaces/inkscape"
   xmlns:sodipodi="http://sodipodi.sourceforge.net/DTD/sodipodi-0.dtd"
   xmlns:rdf="http://www.w3.org/1999/02/22-rdf-syntax-ns#"
   xmlns:dc="http://purl.org/dc/elements/1.1/"
   xmlns:xlink="http://www.w3.org/1999/xlink">
  <defs
     id="defs3">
    <linearGradient
       id="linearGradient4908">
      <stop
         offset="0.0000000"
         style="stop-color:#ffffff;stop-opacity:1.0000000;"
         id="stop4909" />
      <stop
         offset="1.0000000"
         style="stop-color:#d9cce6;stop-opacity:1.0000000;"
         id="stop4910" />
    </linearGradient>
    <linearGradient
       id="linearGradient3342">
      <stop
         offset="0.0000000"
         style="stop-color:#ffffff;stop-opacity:1.0000000;"
         id="stop3344" />
      <stop
         offset="1.0000000"
         style="stop-color:#ffffff;stop-opacity:0.0000000;"
         id="stop3343" />
    </linearGradient>
    <linearGradient
       id="linearGradient1734">
      <stop
         offset="0.0000000"
         style="stop-color:#d9cce6;stop-opacity:1.0000000;"
         id="stop1736" />
      <stop
         offset="1.0000000"
         style="stop-color:#73667f;stop-opacity:1.0000000;"
         id="stop1735" />
    </linearGradient>
    <sodipodi:namedview
       id="namedview957"
       pagecolor="#ffffff"
       bordercolor="#666666"
       borderopacity="1.0"
       inkscape:pageopacity="0.0"
       inkscape:pageshadow="2"
       inkscape:zoom="5.6400000"
       inkscape:cx="29.853687"
       inkscape:cy="21.920711"
       inkscape:window-width="640"
       inkscape:window-height="526"
       inkscape:window-x="326"
       inkscape:window-y="81"
       showguides="true"
       snaptoguides="true" />
    <defs
       id="defs958">
      <linearGradient
         id="linearGradient570"
         x1="0.0000000"
         y1="0.50000000"
         x2="1.0000000"
         y2="0.50000000"
         gradientUnits="objectBoundingBox"
         spreadMethod="pad"
         xlink:href="#linearGradient3342" />
      <linearGradient
         id="linearGradient563"
         x1="0.0000000"
         y1="0.50000000"
         x2="1.0000000"
         y2="0.50000000"
         gradientUnits="objectBoundingBox"
         spreadMethod="pad"
         xlink:href="#linearGradient1734" />
      <linearGradient
         x1="0.01973684"
         y1="0.00000000"
         x2="0.98026317"
         y2="0.96875000"
         id="linearGradient566"
         xlink:href="#linearGradient563" />
      <linearGradient
         x1="0.007275"
         y1="0.062497"
         x2="1.003636"
         y2="0.968750"
         id="linearGradient569"
         xlink:href="#linearGradient570" />
      <linearGradient
         x1="0.017699"
         y1="0.007811"
         x2="0.982301"
         y2="0.992187"
         id="linearGradient573"
         xlink:href="#linearGradient570" />
      <linearGradient
         x1="0.040005"
         y1="0.015624"
         x2="1.000000"
         y2="0.984375"
         id="linearGradient575"
         xlink:href="#linearGradient570" />
      <linearGradient
         id="linearGradient578"
         xlink:href="#linearGradient570" />
    </defs>
    <metadata
       id="metadata26">
      <rdf:RDF
         id="RDF27">
        <cc:Work
           rdf:about=""
           id="Work28">
          <dc:format
             id="format29">image/svg+xml</dc:format>
          <dc:type
             id="type31"
             rdf:resource="http://purl.org/dc/dcmitype/StillImage" />
        </cc:Work>
      </rdf:RDF>
    </metadata>
    <linearGradient
       inkscape:collect="always"
       xlink:href="#linearGradient4908"
       id="linearGradient6437"
       x1="-0.0040113265"
       y1="0.11277823"
       x2="0.98663163"
       y2="0.88314903" />
    <linearGradient
       inkscape:collect="always"
       xlink:href="#linearGradient4908"
       id="linearGradient6439"
       x1="0.022058224"
       y1="0.13075994"
       x2="0.97794175"
       y2="0.90090036" />
    <linearGradient
       inkscape:collect="always"
       xlink:href="#linearGradient4908"
       id="linearGradient6440"
       x1="0.013368375"
       y1="0.11685096"
       x2="0.96925193"
       y2="0.90282148" />
    <linearGradient
       inkscape:collect="always"
       xlink:href="#linearGradient4908"
       id="linearGradient6442"
       x1="-0.0040113265"
       y1="0.12069330"
       x2="1.0213910"
       y2="0.89129454" />
    <linearGradient
       inkscape:collect="always"
       xlink:href="#linearGradient4908"
       id="linearGradient6443"
       x1="0.0046785241"
       y1="0.12668720"
       x2="0.99532145"
       y2="0.92080325" />
    <linearGradient
       inkscape:collect="always"
       xlink:href="#linearGradient4908"
       id="linearGradient6445"
       x1="0.0046785241"
       y1="0.11877213"
       x2="0.99532145"
       y2="0.91288817" />
    <linearGradient
       inkscape:collect="always"
       xlink:href="#linearGradient4908"
       id="linearGradient6446"
       x1="-0.017701361"
       y1="-0.14432487"
       x2="1.0061969"
       y2="1.1488509" />
    <linearGradient
       inkscape:collect="always"
       xlink:href="#linearGradient4908"
       id="linearGradient6448"
       x1="0.0063717118"
       y1="-0.12297174"
       x2="0.98265874"
       y2="1.1512939" />
    <linearGradient
       inkscape:collect="always"
       xlink:href="#linearGradient4908"
       id="linearGradient6450"
       x1="-0.016651658"
       y1="-0.12895191"
       x2="0.98295701"
       y2="1.1427981" />
    <linearGradient
       inkscape:collect="always"
       xlink:href="#linearGradient4908"
       id="linearGradient6452"
       x1="-0.017701361"
       y1="-0.12862119"
       x2="0.99469239"
       y2="1.1455252" />
    <linearGradient
       inkscape:collect="always"
       xlink:href="#linearGradient4908"
       id="linearGradient6454"
       x1="-0.015567323"
       y1="-0.14506057"
       x2="1.0155673"
       y2="1.1686805" />
    <linearGradient
       inkscape:collect="always"
       xlink:href="#linearGradient4908"
       id="linearGradient6455"
       x1="0.68177181"
       y1="-0.22051559"
       x2="0.28939000"
       y2="1.2356067" />
    <linearGradient
       inkscape:collect="always"
       xlink:href="#linearGradient4908"
       id="linearGradient6457"
       x1="0.70205313"
       y1="-0.22070567"
       x2="0.30064145"
       y2="1.1984491" />
    <linearGradient
       inkscape:collect="always"
       xlink:href="#linearGradient4908"
       id="linearGradient6459"
       x1="0.70596135"
       y1="-0.21580200"
       x2="0.27571142"
       y2="1.2184439" />
    <linearGradient
       inkscape:collect="always"
       xlink:href="#linearGradient4908"
       id="linearGradient6461"
       x1="0.68103129"
       y1="-0.19580722"
       x2="0.28157365"
       y2="1.2257994" />
    <linearGradient
       inkscape:collect="always"
       xlink:href="#linearGradient4908"
       id="linearGradient6463"
       x1="0.68103129"
       y1="-0.19580722"
       x2="0.31506056"
       y2="1.1909035" />
  </defs>
  <sodipodi:namedview
     id="base"
     pagecolor="#ffffff"
     bordercolor="#666666"
     borderopacity="1.0"
     inkscape:pageopacity="0.0"
     inkscape:pageshadow="2"
     inkscape:zoom="8.4791667"
     inkscape:cx="24.000000"
     inkscape:cy="24.000000"
     inkscape:window-width="753"
     inkscape:window-height="573"
     inkscape:window-x="263"
     inkscape:window-y="25"
     showgrid="false"
     inkscape:grid-bbox="false" />
  <metadata
     id="metadata4">
    <rdf:RDF
       id="RDF5">
      <cc:Work
         rdf:about=""
         id="Work6">
        <dc:format
           id="format7">image/svg+xml</dc:format>
        <dc:type
           id="type9"
           rdf:resource="http://purl.org/dc/dcmitype/StillImage" />
      </cc:Work>
    </rdf:RDF>
  </metadata>
  <path
     d="M -34.741530,27.012298 C -34.014568,27.753357 -17.778418,31.890645 -16.743652,31.662989 C -15.840812,31.548898 -2.7857741,25.594155 -2.2616121,24.982990 C -1.5319801,24.014625 -1.6737251,6.7173065 -2.3453101,5.9576355 C -3.0921771,4.9924975 -19.250776,3.0564355 -20.343254,3.0826805 C -21.337073,3.1834845 -34.460244,6.0595875 -34.992636,6.8032045 C -35.383677,7.4115385 -35.470741,26.354241 -34.741530,27.012298 z "
     style="font-size:12.000000;opacity:0.30267498;fill-rule:evenodd;stroke-width:12.500000;"
     id="path6498"
     transform="translate(36.83490,-0.210158)" />
  <path
     d="M -34.935632,25.511516 C -34.239732,26.220915 -18.697313,30.181431 -17.706759,29.963507 C -16.842496,29.854283 -4.3452581,24.153966 -3.8434921,23.568914 C -3.1450351,22.641919 -3.2807231,6.0836675 -3.9236141,5.3564545 C -4.6385701,4.4325535 -20.106762,2.5792195 -21.152563,2.6043385 C -22.103918,2.7008445 -34.666365,5.4540425 -35.176028,6.1658925 C -35.550362,6.7482315 -35.633706,24.881573 -34.935632,25.511516 z "
     style="font-size:12.000000;fill:url(#linearGradient566);fill-rule:evenodd;stroke:#261933;stroke-width:1.8750000;stroke-linecap:round;stroke-linejoin:round;stroke-miterlimit:4.0000000;"
     id="path6499"
     transform="translate(36.83490,-0.210158)" />
  <path
     sodipodi:type="arc"
     style="fill:url(#linearGradient6437);fill-opacity:1.00000000;fill-rule:evenodd;stroke:#261933;stroke-width:1.3524172;stroke-linecap:round;stroke-linejoin:round;stroke-miterlimit:4.0000000;stroke-opacity:1.0000000;"
     id="path6503"
     sodipodi:cx="-78.280602"
     sodipodi:cy="15.793491"
     sodipodi:rx="3.9013999"
     sodipodi:ry="3.9013999"
     d="M -74.379202 15.793491 A 3.9013999 3.9013999 0 1 0 -82.182001,15.793491 A 3.9013999 3.9013999 0 1 0 -74.379202 15.793491 z"
     transform="matrix(0.569829,0.140034,0.000000,0.633404,50.30141,11.69828)" />
  <path
     sodipodi:type="arc"
     style="fill:url(#linearGradient6440);fill-opacity:1.00000000;fill-rule:evenodd;stroke:#261933;stroke-width:1.3524172;stroke-linecap:round;stroke-linejoin:round;stroke-miterlimit:4.0000000;stroke-opacity:1.0000000;"
     id="path6504"
     sodipodi:cx="-78.280602"
     sodipodi:cy="15.793491"
     sodipodi:rx="3.9013999"
     sodipodi:ry="3.9013999"
     d="M -74.379202 15.793491 A 3.9013999 3.9013999 0 1 0 -82.182001,15.793491 A 3.9013999 3.9013999 0 1 0 -74.379202 15.793491 z"
     transform="matrix(0.569829,0.140034,0.000000,0.633404,50.30141,17.43232)" />
  <path
     sodipodi:type="arc"
     style="fill:url(#linearGradient6443);fill-opacity:1.00000000;fill-rule:evenodd;stroke:#261933;stroke-width:1.3524172;stroke-linecap:round;stroke-linejoin:round;stroke-miterlimit:4.0000000;stroke-opacity:1.0000000;"
     id="path6505"
     sodipodi:cx="-78.280602"
     sodipodi:cy="15.793491"
     sodipodi:rx="3.9013999"
     sodipodi:ry="3.9013999"
     d="M -74.379202 15.793491 A 3.9013999 3.9013999 0 1 0 -82.182001,15.793491 A 3.9013999 3.9013999 0 1 0 -74.379202 15.793491 z"
     transform="matrix(0.569829,0.140034,0.000000,0.633404,50.30141,23.16637)" />
  <path
     sodipodi:type="arc"
     style="fill:url(#linearGradient6442);fill-opacity:1.00000000;fill-rule:evenodd;stroke:#261933;stroke-width:1.3524172;stroke-linecap:round;stroke-linejoin:round;stroke-miterlimit:4.0000000;stroke-opacity:1.0000000;"
     id="path6506"
     sodipodi:cx="-78.280602"
     sodipodi:cy="15.793491"
     sodipodi:rx="3.9013999"
     sodipodi:ry="3.9013999"
     d="M -74.379202 15.793491 A 3.9013999 3.9013999 0 1 0 -82.182001,15.793491 A 3.9013999 3.9013999 0 1 0 -74.379202 15.793491 z"
     transform="matrix(0.569829,0.140034,0.000000,0.633404,60.61687,19.96732)" />
  <path
     sodipodi:type="arc"
     style="fill:url(#linearGradient6445);fill-opacity:1.00000000;fill-rule:evenodd;stroke:#261933;stroke-width:1.3524172;stroke-linecap:round;stroke-linejoin:round;stroke-miterlimit:4.0000000;stroke-opacity:1.0000000;"
     id="path6507"
     sodipodi:cx="-78.280602"
     sodipodi:cy="15.793491"
     sodipodi:rx="3.9013999"
     sodipodi:ry="3.9013999"
     d="M -74.379202 15.793491 A 3.9013999 3.9013999 0 1 0 -82.182001,15.793491 A 3.9013999 3.9013999 0 1 0 -74.379202 15.793491 z"
     transform="matrix(0.569829,0.140034,0.000000,0.633404,60.61687,25.70137)" />
  <path
     sodipodi:type="arc"
     style="fill:url(#linearGradient6439);fill-opacity:1.00000000;fill-rule:evenodd;stroke:#261933;stroke-width:1.3524172;stroke-linecap:round;stroke-linejoin:round;stroke-miterlimit:4.0000000;stroke-opacity:1.0000000;"
     id="path6508"
     sodipodi:cx="-78.280602"
     sodipodi:cy="15.793491"
     sodipodi:rx="3.9013999"
     sodipodi:ry="3.9013999"
     d="M -74.379202 15.793491 A 3.9013999 3.9013999 0 1 0 -82.182001,15.793491 A 3.9013999 3.9013999 0 1 0 -74.379202 15.793491 z"
     transform="matrix(0.569829,0.140034,0.000000,0.633404,60.61687,14.23328)" />
  <path
     sodipodi:type="arc"
     style="fill:url(#linearGradient6446);fill-opacity:1.00000000;fill-rule:evenodd;stroke:#261933;stroke-width:1.5711993;stroke-linecap:round;stroke-linejoin:round;stroke-miterlimit:4.0000000;stroke-opacity:1.0000000;"
     id="path6514"
     sodipodi:cx="-78.280602"
     sodipodi:cy="15.793491"
     sodipodi:rx="3.9013999"
     sodipodi:ry="3.9013999"
     d="M -74.379202 15.793491 A 3.9013999 3.9013999 0 1 0 -82.182001,15.793491 A 3.9013999 3.9013999 0 1 0 -74.379202 15.793491 z"
     transform="matrix(0.426943,-0.181066,0.000000,0.626346,55.68135,-0.205507)" />
  <path
     sodipodi:type="arc"
     style="fill:url(#linearGradient6454);fill-opacity:1.00000000;fill-rule:evenodd;stroke:#261933;stroke-width:1.6100001;stroke-linecap:round;stroke-linejoin:round;stroke-miterlimit:4.0000000;stroke-opacity:1.0000000;"
     id="path6517"
     sodipodi:cx="-78.280602"
     sodipodi:cy="15.793491"
     sodipodi:rx="3.9013999"
     sodipodi:ry="3.9013999"
     d="M -74.379202 15.793491 A 3.9013999 3.9013999 0 1 0 -82.182001,15.793491 A 3.9013999 3.9013999 0 1 0 -74.379202 15.793491 z"
     transform="matrix(0.426943,-0.172444,0.000000,0.596520,63.41019,-13.06520)" />
  <path
     sodipodi:type="arc"
     style="fill:url(#linearGradient6457);fill-opacity:1.00000000;fill-rule:evenodd;stroke:#261933;stroke-width:2.1664007;stroke-linecap:round;stroke-linejoin:round;stroke-miterlimit:4.0000000;stroke-opacity:1.0000000;"
     id="path6521"
     sodipodi:cx="-78.280602"
     sodipodi:cy="15.793491"
     sodipodi:rx="3.9013999"
     sodipodi:ry="3.9013999"
     d="M -74.379202 15.793491 A 3.9013999 3.9013999 0 1 0 -82.182001,15.793491 A 3.9013999 3.9013999 0 1 0 -74.379202 15.793491 z"
     transform="matrix(0.443485,-0.106531,0.552949,8.490408e-2,34.47634,-3.343907)" />
  <path
     sodipodi:type="arc"
     style="fill:url(#linearGradient6461);fill-opacity:1.00000000;fill-rule:evenodd;stroke:#261933;stroke-width:2.1664007;stroke-linecap:round;stroke-linejoin:round;stroke-miterlimit:4.0000000;stroke-opacity:1.0000000;"
     id="path6523"
     sodipodi:cx="-78.280602"
     sodipodi:cy="15.793491"
     sodipodi:rx="3.9013999"
     sodipodi:ry="3.9013999"
     d="M -74.379202 15.793491 A 3.9013999 3.9013999 0 1 0 -82.182001,15.793491 A 3.9013999 3.9013999 0 1 0 -74.379202 15.793491 z"
     transform="matrix(0.443485,-0.106531,0.552949,8.490408e-2,44.48776,-1.806677)" />
  <path
     sodipodi:type="arc"
     style="fill:url(#linearGradient6463);fill-opacity:1.00000000;fill-rule:evenodd;stroke:#261933;stroke-width:2.1664007;stroke-linecap:round;stroke-linejoin:round;stroke-miterlimit:4.0000000;stroke-opacity:1.0000000;"
     id="path6525"
     sodipodi:cx="-78.280602"
     sodipodi:cy="15.793491"
     sodipodi:rx="3.9013999"
     sodipodi:ry="3.9013999"
     d="M -74.379202 15.793491 A 3.9013999 3.9013999 0 1 0 -82.182001,15.793491 A 3.9013999 3.9013999 0 1 0 -74.379202 15.793491 z"
     transform="matrix(0.443485,-0.106531,0.552949,8.490408e-2,52.51605,-3.735187)" />
  <path
     sodipodi:type="arc"
     style="fill:url(#linearGradient6455);fill-opacity:1.00000000;fill-rule:evenodd;stroke:#261933;stroke-width:2.1664007;stroke-linecap:round;stroke-linejoin:round;stroke-miterlimit:4.0000000;stroke-opacity:1.0000000;"
     id="path6526"
     sodipodi:cx="-78.280602"
     sodipodi:cy="15.793491"
     sodipodi:rx="3.9013999"
     sodipodi:ry="3.9013999"
     d="M -74.379202 15.793491 A 3.9013999 3.9013999 0 1 0 -82.182001,15.793491 A 3.9013999 3.9013999 0 1 0 -74.379202 15.793491 z"
     transform="matrix(0.443485,-0.106531,0.552949,8.490408e-2,42.50463,-5.272417)" />
  <path
     d="M -33.701595,25.120715 C -33.987424,24.687635 -34.361482,7.6700225 -33.781729,7.1510975 C -33.384383,6.8047035 -18.679524,9.3116335 -18.395933,9.7413455 C -18.145337,10.121071 -29.725051,7.2142725 -32.179022,9.5794225 C -34.155034,11.480174 -33.453186,25.497073 -33.701595,25.120715 z "
     style="font-size:12.000000;opacity:0.99000001;fill:url(#linearGradient573);fill-rule:evenodd;stroke:none;stroke-width:0.10586100pt;"
     id="path6527"
     transform="translate(36.83490,-0.210158)" />
  <path
     d="M -31.730268,6.3890705 C -31.730268,6.2259235 -22.096046,3.8972645 -20.831940,3.8798225 C -19.800271,3.8645115 -9.4528831,5.1743385 -9.4528831,5.3367765 C -9.4528831,5.4980645 -17.055227,4.6727265 -20.831940,4.8511275 C -24.481022,5.0235155 -31.730268,6.5497145 -31.730268,6.3890705 z "
     style="font-size:12.000000;opacity:0.99000001;fill:url(#linearGradient569);fill-rule:evenodd;stroke:none;stroke-width:0.10586100pt;"
     id="path6528"
     transform="translate(36.83490,-0.210158)" />
  <path
     d="M -17.306014,28.430197 C -17.526109,28.235654 -17.890205,10.125240 -17.466321,9.6511525 C -17.008100,9.1299745 -5.4274911,6.6220815 -5.2057341,6.8181135 C -5.0001541,6.9998075 -15.185318,8.9261355 -16.184183,10.784381 C -17.730345,13.563103 -17.098773,28.613379 -17.306014,28.430197 z "
     style="font-size:12.000000;opacity:0.99000001;fill:url(#linearGradient575);fill-rule:evenodd;stroke:none;stroke-width:0.10586100pt;"
     id="path6529"
     transform="translate(36.83490,-0.210158)" />
  <path
     d="M -57.522707,44.370457 C -56.795745,45.111516 -40.559595,49.248804 -39.524829,49.021148 C -38.621989,48.907057 -25.566951,42.952314 -25.042789,42.341149 C -24.313157,41.372784 -24.454902,24.075465 -25.126487,23.315794 C -25.873354,22.350656 -42.031953,20.414594 -43.124431,20.440839 C -44.118250,20.541643 -57.241421,23.417746 -57.773813,24.161363 C -58.164854,24.769697 -58.251918,43.712400 -57.522707,44.370457 z "
     style="font-size:12.000000;opacity:0.30267498;fill-rule:evenodd;stroke-width:12.500000;"
     id="path7202"
     transform="translate(84.11856,-5.448020)" />
  <path
     d="M -57.716809,42.869675 C -57.020909,43.579074 -41.478490,47.539590 -40.487936,47.321666 C -39.623673,47.212442 -27.126435,41.512125 -26.624669,40.927073 C -25.926212,40.000078 -26.061900,23.441826 -26.704791,22.714613 C -27.419747,21.790712 -42.887939,19.937378 -43.933740,19.962497 C -44.885095,20.059003 -57.447542,22.812201 -57.957205,23.524051 C -58.331539,24.106390 -58.414883,42.239732 -57.716809,42.869675 z "
     style="font-size:12.000000;fill:url(#linearGradient566);fill-rule:evenodd;stroke:#261933;stroke-width:1.8750000;stroke-linecap:round;stroke-linejoin:round;stroke-miterlimit:4.0000000;"
     id="path7203"
     transform="translate(84.11856,-5.448020)" />
  <path
     sodipodi:type="arc"
     style="fill:url(#linearGradient6437);fill-opacity:1.00000000;fill-rule:evenodd;stroke:#261933;stroke-width:1.3524172;stroke-linecap:round;stroke-linejoin:round;stroke-miterlimit:4.0000000;stroke-opacity:1.0000000;"
     id="path7207"
     sodipodi:cx="-78.280602"
     sodipodi:cy="15.793491"
     sodipodi:rx="3.9013999"
     sodipodi:ry="3.9013999"
     d="M -74.379202 15.793491 A 3.9013999 3.9013999 0 1 0 -82.182001,15.793491 A 3.9013999 3.9013999 0 1 0 -74.379202 15.793491 z"
     transform="matrix(0.569829,0.140034,0.000000,0.633404,74.80389,23.81858)" />
  <path
     sodipodi:type="arc"
     style="fill:url(#linearGradient6440);fill-opacity:1.00000000;fill-rule:evenodd;stroke:#261933;stroke-width:1.3524172;stroke-linecap:round;stroke-linejoin:round;stroke-miterlimit:4.0000000;stroke-opacity:1.0000000;"
     id="path7208"
     sodipodi:cx="-78.280602"
     sodipodi:cy="15.793491"
     sodipodi:rx="3.9013999"
     sodipodi:ry="3.9013999"
     d="M -74.379202 15.793491 A 3.9013999 3.9013999 0 1 0 -82.182001,15.793491 A 3.9013999 3.9013999 0 1 0 -74.379202 15.793491 z"
     transform="matrix(0.569829,0.140034,0.000000,0.633404,74.80389,29.55262)" />
  <path
     sodipodi:type="arc"
     style="fill:url(#linearGradient6443);fill-opacity:1.00000000;fill-rule:evenodd;stroke:#261933;stroke-width:1.3524172;stroke-linecap:round;stroke-linejoin:round;stroke-miterlimit:4.0000000;stroke-opacity:1.0000000;"
     id="path7209"
     sodipodi:cx="-78.280602"
     sodipodi:cy="15.793491"
     sodipodi:rx="3.9013999"
     sodipodi:ry="3.9013999"
     d="M -74.379202 15.793491 A 3.9013999 3.9013999 0 1 0 -82.182001,15.793491 A 3.9013999 3.9013999 0 1 0 -74.379202 15.793491 z"
     transform="matrix(0.569829,0.140034,0.000000,0.633404,74.80389,35.28667)" />
  <path
     sodipodi:type="arc"
     style="fill:url(#linearGradient6442);fill-opacity:1.00000000;fill-rule:evenodd;stroke:#261933;stroke-width:1.3524172;stroke-linecap:round;stroke-linejoin:round;stroke-miterlimit:4.0000000;stroke-opacity:1.0000000;"
     id="path7210"
     sodipodi:cx="-78.280602"
     sodipodi:cy="15.793491"
     sodipodi:rx="3.9013999"
     sodipodi:ry="3.9013999"
     d="M -74.379202 15.793491 A 3.9013999 3.9013999 0 1 0 -82.182001,15.793491 A 3.9013999 3.9013999 0 1 0 -74.379202 15.793491 z"
     transform="matrix(0.569829,0.140034,0.000000,0.633404,85.11935,32.08762)" />
  <path
     sodipodi:type="arc"
     style="fill:url(#linearGradient6445);fill-opacity:1.00000000;fill-rule:evenodd;stroke:#261933;stroke-width:1.3524172;stroke-linecap:round;stroke-linejoin:round;stroke-miterlimit:4.0000000;stroke-opacity:1.0000000;"
     id="path7211"
     sodipodi:cx="-78.280602"
     sodipodi:cy="15.793491"
     sodipodi:rx="3.9013999"
     sodipodi:ry="3.9013999"
     d="M -74.379202 15.793491 A 3.9013999 3.9013999 0 1 0 -82.182001,15.793491 A 3.9013999 3.9013999 0 1 0 -74.379202 15.793491 z"
     transform="matrix(0.569829,0.140034,0.000000,0.633404,85.11935,37.82167)" />
  <path
     sodipodi:type="arc"
     style="fill:url(#linearGradient6439);fill-opacity:1.00000000;fill-rule:evenodd;stroke:#261933;stroke-width:1.3524172;stroke-linecap:round;stroke-linejoin:round;stroke-miterlimit:4.0000000;stroke-opacity:1.0000000;"
     id="path7212"
     sodipodi:cx="-78.280602"
     sodipodi:cy="15.793491"
     sodipodi:rx="3.9013999"
     sodipodi:ry="3.9013999"
     d="M -74.379202 15.793491 A 3.9013999 3.9013999 0 1 0 -82.182001,15.793491 A 3.9013999 3.9013999 0 1 0 -74.379202 15.793491 z"
     transform="matrix(0.569829,0.140034,0.000000,0.633404,85.11935,26.35358)" />
  <path
     sodipodi:type="arc"
     style="fill:url(#linearGradient6450);fill-opacity:1.00000000;fill-rule:evenodd;stroke:#261933;stroke-width:1.5902448;stroke-linecap:round;stroke-linejoin:round;stroke-miterlimit:4.0000000;stroke-opacity:1.0000000;"
     id="path7213"
     sodipodi:cx="-78.280602"
     sodipodi:cy="15.793491"
     sodipodi:rx="3.9013999"
     sodipodi:ry="3.9013999"
     d="M -74.379202 15.793491 A 3.9013999 3.9013999 0 1 0 -82.182001,15.793491 A 3.9013999 3.9013999 0 1 0 -74.379202 15.793491 z"
     transform="matrix(0.426943,-0.176755,0.000000,0.611433,84.04825,5.443100)" />
  <path
     sodipodi:type="arc"
     style="fill:url(#linearGradient6452);fill-opacity:1.00000000;fill-rule:evenodd;stroke:#261933;stroke-width:1.5711993;stroke-linecap:round;stroke-linejoin:round;stroke-miterlimit:4.0000000;stroke-opacity:1.0000000;"
     id="path7216"
     sodipodi:cx="-78.280602"
     sodipodi:cy="15.793491"
     sodipodi:rx="3.9013999"
     sodipodi:ry="3.9013999"
     d="M -74.379202 15.793491 A 3.9013999 3.9013999 0 1 0 -82.182001,15.793491 A 3.9013999 3.9013999 0 1 0 -74.379202 15.793491 z"
     transform="matrix(0.426943,-0.181066,0.000000,0.626346,80.18383,0.574480)" />
  <path
     sodipodi:type="arc"
     style="fill:url(#linearGradient6446);fill-opacity:1.00000000;fill-rule:evenodd;stroke:#261933;stroke-width:1.5711993;stroke-linecap:round;stroke-linejoin:round;stroke-miterlimit:4.0000000;stroke-opacity:1.0000000;"
     id="path7218"
     sodipodi:cx="-78.280602"
     sodipodi:cy="15.793491"
     sodipodi:rx="3.9013999"
     sodipodi:ry="3.9013999"
     d="M -74.379202 15.793491 A 3.9013999 3.9013999 0 1 0 -82.182001,15.793491 A 3.9013999 3.9013999 0 1 0 -74.379202 15.793491 z"
     transform="matrix(0.426943,-0.181066,0.000000,0.626346,80.18383,11.91479)" />
  <path
     sodipodi:type="arc"
     style="fill:url(#linearGradient6448);fill-opacity:1.00000000;fill-rule:evenodd;stroke:#261933;stroke-width:1.6100001;stroke-linecap:round;stroke-linejoin:round;stroke-miterlimit:4.0000000;stroke-opacity:1.0000000;"
     id="path7220"
     sodipodi:cx="-78.280602"
     sodipodi:cy="15.793491"
     sodipodi:rx="3.9013999"
     sodipodi:ry="3.9013999"
     d="M -74.379202 15.793491 A 3.9013999 3.9013999 0 1 0 -82.182001,15.793491 A 3.9013999 3.9013999 0 1 0 -74.379202 15.793491 z"
     transform="matrix(0.426943,-0.172444,0.000000,0.596520,87.91267,9.855390)" />
  <path
     sodipodi:type="arc"
     style="fill:url(#linearGradient6454);fill-opacity:1.00000000;fill-rule:evenodd;stroke:#261933;stroke-width:1.6100001;stroke-linecap:round;stroke-linejoin:round;stroke-miterlimit:4.0000000;stroke-opacity:1.0000000;"
     id="path7221"
     sodipodi:cx="-78.280602"
     sodipodi:cy="15.793491"
     sodipodi:rx="3.9013999"
     sodipodi:ry="3.9013999"
     d="M -74.379202 15.793491 A 3.9013999 3.9013999 0 1 0 -82.182001,15.793491 A 3.9013999 3.9013999 0 1 0 -74.379202 15.793491 z"
     transform="matrix(0.426943,-0.172444,0.000000,0.596520,87.91267,-0.944900)" />
  <path
     sodipodi:type="arc"
     style="fill:url(#linearGradient6459);fill-opacity:1.00000000;fill-rule:evenodd;stroke:#261933;stroke-width:2.1664007;stroke-linecap:round;stroke-linejoin:round;stroke-miterlimit:4.0000000;stroke-opacity:1.0000000;"
     id="path7222"
     sodipodi:cx="-78.280602"
     sodipodi:cy="15.793491"
     sodipodi:rx="3.9013999"
     sodipodi:ry="3.9013999"
     d="M -74.379202 15.793491 A 3.9013999 3.9013999 0 1 0 -82.182001,15.793491 A 3.9013999 3.9013999 0 1 0 -74.379202 15.793491 z"
     transform="matrix(0.443485,-0.106531,0.552949,8.490408e-2,67.99867,8.580750)" />
  <path
     sodipodi:type="arc"
     style="fill:url(#linearGradient6457);fill-opacity:1.00000000;fill-rule:evenodd;stroke:#261933;stroke-width:2.1664007;stroke-linecap:round;stroke-linejoin:round;stroke-miterlimit:4.0000000;stroke-opacity:1.0000000;"
     id="path7225"
     sodipodi:cx="-78.280602"
     sodipodi:cy="15.793491"
     sodipodi:rx="3.9013999"
     sodipodi:ry="3.9013999"
     d="M -74.379202 15.793491 A 3.9013999 3.9013999 0 1 0 -82.182001,15.793491 A 3.9013999 3.9013999 0 1 0 -74.379202 15.793491 z"
     transform="matrix(0.443485,-0.106531,0.552949,8.490408e-2,58.97882,8.776390)" />
  <path
     sodipodi:type="arc"
     style="fill:url(#linearGradient6463);fill-opacity:1.00000000;fill-rule:evenodd;stroke:#261933;stroke-width:2.1664007;stroke-linecap:round;stroke-linejoin:round;stroke-miterlimit:4.0000000;stroke-opacity:1.0000000;"
     id="path7229"
     sodipodi:cx="-78.280602"
     sodipodi:cy="15.793491"
     sodipodi:rx="3.9013999"
     sodipodi:ry="3.9013999"
     d="M -74.379202 15.793491 A 3.9013999 3.9013999 0 1 0 -82.182001,15.793491 A 3.9013999 3.9013999 0 1 0 -74.379202 15.793491 z"
     transform="matrix(0.443485,-0.106531,0.552949,8.490408e-2,77.01853,8.385110)" />
  <path
     d="M -56.482772,42.478874 C -56.768601,42.045794 -57.142659,25.028181 -56.562906,24.509256 C -56.165560,24.162862 -41.460701,26.669792 -41.177110,27.099504 C -40.926514,27.479230 -52.506228,24.572431 -54.960199,26.937581 C -56.936211,28.838333 -56.234363,42.855232 -56.482772,42.478874 z "
     style="font-size:12.000000;opacity:0.99000001;fill:url(#linearGradient573);fill-rule:evenodd;stroke:none;stroke-width:0.10586100pt;"
     id="path7231"
     transform="translate(84.11856,-5.448020)" />
  <path
     d="M -54.511445,23.747229 C -54.511445,23.584082 -44.877223,21.255423 -43.613117,21.237981 C -42.581448,21.222670 -32.234060,22.532497 -32.234060,22.694935 C -32.234060,22.856223 -39.836404,22.030885 -43.613117,22.209286 C -47.262199,22.381674 -54.511445,23.907873 -54.511445,23.747229 z "
     style="font-size:12.000000;opacity:0.99000001;fill:url(#linearGradient569);fill-rule:evenodd;stroke:none;stroke-width:0.10586100pt;"
     id="path7232"
     transform="translate(84.11856,-5.448020)" />
  <path
     d="M -40.087191,45.788356 C -40.307286,45.593813 -40.671382,27.483399 -40.247498,27.009311 C -39.789277,26.488133 -28.208668,23.980240 -27.986911,24.176272 C -27.781331,24.357966 -37.966495,26.284294 -38.965360,28.142540 C -40.511522,30.921262 -39.879950,45.971538 -40.087191,45.788356 z "
     style="font-size:12.000000;opacity:0.99000001;fill:url(#linearGradient575);fill-rule:evenodd;stroke:none;stroke-width:0.10586100pt;"
     id="path7233"
     transform="translate(84.11856,-5.448020)" />
  <path
     d="M -57.522707,44.370457 C -56.795745,45.111516 -40.559595,49.248804 -39.524829,49.021148 C -38.621989,48.907057 -25.566951,42.952314 -25.042789,42.341149 C -24.313157,41.372784 -24.454902,24.075465 -25.126487,23.315794 C -25.873354,22.350656 -42.031953,20.414594 -43.124431,20.440839 C -44.118250,20.541643 -57.241421,23.417746 -57.773813,24.161363 C -58.164854,24.769697 -58.251918,43.712400 -57.522707,44.370457 z "
     style="font-size:12.000000;opacity:0.30267498;fill-rule:evenodd;stroke-width:12.500000;"
     id="path7287"
     transform="translate(60.90569,9.513380)" />
  <path
     d="M -57.716809,42.869675 C -57.020909,43.579074 -41.478490,47.539590 -40.487936,47.321666 C -39.623673,47.212442 -27.126435,41.512125 -26.624669,40.927073 C -25.926212,40.000078 -26.061900,23.441826 -26.704791,22.714613 C -27.419747,21.790712 -42.887939,19.937378 -43.933740,19.962497 C -44.885095,20.059003 -57.447542,22.812201 -57.957205,23.524051 C -58.331539,24.106390 -58.414883,42.239732 -57.716809,42.869675 z "
     style="font-size:12.000000;fill:url(#linearGradient566);fill-rule:evenodd;stroke:#261933;stroke-width:1.8750000;stroke-linecap:round;stroke-linejoin:round;stroke-miterlimit:4.0000000;"
     id="path7288"
     transform="translate(60.90569,9.513380)" />
  <path
     sodipodi:type="arc"
     style="fill:url(#linearGradient6437);fill-opacity:1.00000000;fill-rule:evenodd;stroke:#261933;stroke-width:1.3524172;stroke-linecap:round;stroke-linejoin:round;stroke-miterlimit:4.0000000;stroke-opacity:1.0000000;"
     id="path7292"
     sodipodi:cx="-78.280602"
     sodipodi:cy="15.793491"
     sodipodi:rx="3.9013999"
     sodipodi:ry="3.9013999"
     d="M -74.379202 15.793491 A 3.9013999 3.9013999 0 1 0 -82.182001,15.793491 A 3.9013999 3.9013999 0 1 0 -74.379202 15.793491 z"
     transform="matrix(0.569829,0.140034,0.000000,0.633404,51.59102,38.77998)" />
  <path
     sodipodi:type="arc"
     style="fill:url(#linearGradient6445);fill-opacity:1.00000000;fill-rule:evenodd;stroke:#261933;stroke-width:1.3524172;stroke-linecap:round;stroke-linejoin:round;stroke-miterlimit:4.0000000;stroke-opacity:1.0000000;"
     id="path7296"
     sodipodi:cx="-78.280602"
     sodipodi:cy="15.793491"
     sodipodi:rx="3.9013999"
     sodipodi:ry="3.9013999"
     d="M -74.379202 15.793491 A 3.9013999 3.9013999 0 1 0 -82.182001,15.793491 A 3.9013999 3.9013999 0 1 0 -74.379202 15.793491 z"
     transform="matrix(0.569829,0.140034,0.000000,0.633404,61.90648,52.78307)" />
  <path
     sodipodi:type="arc"
     style="fill:url(#linearGradient6450);fill-opacity:1.00000000;fill-rule:evenodd;stroke:#261933;stroke-width:1.5902448;stroke-linecap:round;stroke-linejoin:round;stroke-miterlimit:4.0000000;stroke-opacity:1.0000000;"
     id="path7298"
     sodipodi:cx="-78.280602"
     sodipodi:cy="15.793491"
     sodipodi:rx="3.9013999"
     sodipodi:ry="3.9013999"
     d="M -74.379202 15.793491 A 3.9013999 3.9013999 0 1 0 -82.182001,15.793491 A 3.9013999 3.9013999 0 1 0 -74.379202 15.793491 z"
     transform="matrix(0.426943,-0.176755,0.000000,0.611433,60.83538,20.40450)" />
  <path
     sodipodi:type="arc"
     style="fill:url(#linearGradient6446);fill-opacity:1.00000000;fill-rule:evenodd;stroke:#261933;stroke-width:1.5711993;stroke-linecap:round;stroke-linejoin:round;stroke-miterlimit:4.0000000;stroke-opacity:1.0000000;"
     id="path7303"
     sodipodi:cx="-78.280602"
     sodipodi:cy="15.793491"
     sodipodi:rx="3.9013999"
     sodipodi:ry="3.9013999"
     d="M -74.379202 15.793491 A 3.9013999 3.9013999 0 1 0 -82.182001,15.793491 A 3.9013999 3.9013999 0 1 0 -74.379202 15.793491 z"
     transform="matrix(0.426943,-0.181066,0.000000,0.626346,56.97096,26.87619)" />
  <path
     sodipodi:type="arc"
     style="fill:url(#linearGradient6454);fill-opacity:1.00000000;fill-rule:evenodd;stroke:#261933;stroke-width:1.6100001;stroke-linecap:round;stroke-linejoin:round;stroke-miterlimit:4.0000000;stroke-opacity:1.0000000;"
     id="path7306"
     sodipodi:cx="-78.280602"
     sodipodi:cy="15.793491"
     sodipodi:rx="3.9013999"
     sodipodi:ry="3.9013999"
     d="M -74.379202 15.793491 A 3.9013999 3.9013999 0 1 0 -82.182001,15.793491 A 3.9013999 3.9013999 0 1 0 -74.379202 15.793491 z"
     transform="matrix(0.426943,-0.172444,0.000000,0.596520,64.69980,14.01650)" />
  <path
     sodipodi:type="arc"
     style="fill:url(#linearGradient6459);fill-opacity:1.00000000;fill-rule:evenodd;stroke:#261933;stroke-width:1.7431473;stroke-linecap:round;stroke-linejoin:round;stroke-miterlimit:4.0000000;stroke-opacity:1.0000000;"
     id="path7307"
     sodipodi:cx="-78.280602"
     sodipodi:cy="15.793491"
     sodipodi:rx="3.9013999"
     sodipodi:ry="3.9013999"
     d="M -74.379202 15.793491 A 3.9013999 3.9013999 0 1 0 -82.182001,15.793491 A 3.9013999 3.9013999 0 1 0 -74.379202 15.793491 z"
     transform="matrix(0.665228,-0.159796,0.829424,0.127356,57.77744,18.70203)" />
  <path
     d="M -56.482772,42.478874 C -56.768601,42.045794 -57.142659,25.028181 -56.562906,24.509256 C -56.165560,24.162862 -41.460701,26.669792 -41.177110,27.099504 C -40.926514,27.479230 -52.506228,24.572431 -54.960199,26.937581 C -56.936211,28.838333 -56.234363,42.855232 -56.482772,42.478874 z "
     style="font-size:12.000000;opacity:0.99000001;fill:url(#linearGradient573);fill-rule:evenodd;stroke:none;stroke-width:0.10586100pt;"
     id="path7316"
     transform="translate(60.90569,9.513380)" />
  <path
     d="M -54.511445,23.747229 C -54.511445,23.584082 -44.877223,21.255423 -43.613117,21.237981 C -42.581448,21.222670 -32.234060,22.532497 -32.234060,22.694935 C -32.234060,22.856223 -39.836404,22.030885 -43.613117,22.209286 C -47.262199,22.381674 -54.511445,23.907873 -54.511445,23.747229 z "
     style="font-size:12.000000;opacity:0.99000001;fill:url(#linearGradient569);fill-rule:evenodd;stroke:none;stroke-width:0.10586100pt;"
     id="path7317"
     transform="translate(60.90569,9.513380)" />
  <path
     d="M -40.087191,45.788356 C -40.307286,45.593813 -40.671382,27.483399 -40.247498,27.009311 C -39.789277,26.488133 -28.208668,23.980240 -27.986911,24.176272 C -27.781331,24.357966 -37.966495,26.284294 -38.965360,28.142540 C -40.511522,30.921262 -39.879950,45.971538 -40.087191,45.788356 z "
     style="font-size:12.000000;opacity:0.99000001;fill:url(#linearGradient575);fill-rule:evenodd;stroke:none;stroke-width:0.10586100pt;"
     id="path7318"
     transform="translate(60.90569,9.513380)" />
</svg>
