<?xml version="1.0" encoding="UTF-8" standalone="no"?>
<!DOCTYPE svg PUBLIC "-//W3C//DTD SVG 20010904//EN"
"http://www.w3.org/TR/2001/REC-SVG-20010904/DTD/svg10.dtd">
<!-- Created with Inkscape (http://www.inkscape.org/) -->
<svg
   id="svg1"
   sodipodi:version="0.32"
   inkscape:version="0.39"
   width="48pt"
   height="48pt"
   sodipodi:docbase="/home/scaba/files/lila/work/lila-gnome/Lila/scalable/apps"
   sodipodi:docname="gnome-run.svg"
   xmlns="http://www.w3.org/2000/svg"
   xmlns:inkscape="http://www.inkscape.org/namespaces/inkscape"
   xmlns:sodipodi="http://sodipodi.sourceforge.net/DTD/sodipodi-0.dtd"
   xmlns:xlink="http://www.w3.org/1999/xlink"
   xmlns:rdf="http://www.w3.org/1999/02/22-rdf-syntax-ns#"
   xmlns:cc="http://web.resource.org/cc/"
   xmlns:dc="http://purl.org/dc/elements/1.1/">
  <defs
     id="defs3">
    <linearGradient
       id="linearGradient584">
      <stop
         style="stop-color:#ffffff;stop-opacity:1;"
         offset="0.00000000"
         id="stop585" />
      <stop
         style="stop-color:#ffffff;stop-opacity:0;"
         offset="1.00000000"
         id="stop586" />
    </linearGradient>
    <linearGradient
       id="linearGradient578">
      <stop
         style="stop-color:#d9cce6;stop-opacity:1;"
         offset="0.00000000"
         id="stop579" />
      <stop
         style="stop-color:#73667f;stop-opacity:1;"
         offset="1.00000000"
         id="stop580" />
    </linearGradient>
    <linearGradient
       xlink:href="#linearGradient578"
       id="linearGradient581"
       x1="0.00000000"
       y1="-0.00000000"
       x2="0.99242425"
       y2="1.02343750" />
    <linearGradient
       xlink:href="#linearGradient584"
       id="linearGradient583"
       x1="0.00000000"
       y1="0.00000000"
       x2="0.98148149"
       y2="0.97656250" />
    <linearGradient
       xlink:href="#linearGradient584"
       id="linearGradient599"
       x1="-0.00000000"
       y1="-0.00000000"
       x2="1.00000000"
       y2="0.99218750" />
    <linearGradient
       xlink:href="#linearGradient584"
       id="linearGradient600"
       x1="-0.00000000"
       y1="0.00000000"
       x2="0.98540145"
       y2="0.96610171" />
    <linearGradient
       xlink:href="#linearGradient584"
       id="linearGradient841"
       x1="0.01162791"
       y1="0.03125000"
       x2="0.98255813"
       y2="0.97656250" />
    <linearGradient
       xlink:href="#linearGradient584"
       id="linearGradient842"
       x1="-0.00000000"
       y1="0.00000000"
       x2="0.99206346"
       y2="0.99218750" />
    <linearGradient
       xlink:href="#linearGradient584"
       id="linearGradient845"
       x1="-0.00000000"
       y1="-0.00000000"
       x2="1.00862074"
       y2="1.00781250" />
  </defs>
  <sodipodi:namedview
     id="base"
     pagecolor="#ffffff"
     bordercolor="#666666"
     borderopacity="1.0"
     inkscape:pageopacity="0.0"
     inkscape:pageshadow="2"
     inkscape:zoom="7.9794719"
     inkscape:cx="24.511601"
     inkscape:cy="23.525278"
     inkscape:window-width="1022"
     inkscape:window-height="695"
     inkscape:window-x="0"
     inkscape:window-y="26" />
  <path
     d="M 59.205498,32.871018 C 59.344386,40.140015 53.011312,35.188862 49.827430,40.578900 C 46.730871,45.959693 55.909936,48.183994 50.974440,53.202901 C 45.901823,58.499583 44.921626,49.489092 39.459742,50.530466 C 33.395011,51.808535 39.159207,59.492763 32.029097,59.492763 C 25.730698,59.354236 30.892228,53.876347 25.014401,50.946770 C 18.994481,47.876704 17.864370,56.157200 13.083756,51.538944 C 7.8148159,46.439480 17.986540,45.748432 14.923943,40.717786 C 11.874508,35.618677 5.4071734,40.833020 5.1299319,33.425672 C 4.9912254,26.295386 12.425782,31.954124 14.785417,26.410974 C 17.067157,20.915658 8.9390623,18.321997 13.638227,14.480330 C 18.971542,10.278021 20.444331,19.212751 25.153103,17.152589 C 29.747355,15.220460 24.898810,6.8039265 32.029097,6.5265083 C 39.713860,6.3878029 34.029686,13.884953 38.905264,16.597933 C 43.704372,19.191234 47.144324,11.271024 51.251858,15.034804 C 55.498970,18.938362 47.911131,20.594319 49.272775,25.440373 C 50.705376,30.677656 58.650847,25.740908 59.205498,32.871018 z M 43.718598,34.232845 C 43.718598,41.863544 40.783864,44.979846 33.152453,44.979846 C 25.521747,44.979846 21.319616,41.682515 21.319616,34.051813 C 21.159388,27.221889 25.779789,22.942746 32.609355,22.942746 C 40.240772,22.942746 43.718598,26.601786 43.718598,34.232845 z "
     style="font-size:12.000000;opacity:0.30267498;fill:#000000;fill-opacity:1.0000000;fill-rule:evenodd;stroke:none;stroke-width:2.1217699;"
     id="path843"
     sodipodi:nodetypes="cccccccccccccccccccccc" />
  <path
     d="M 26.086144,42.915686 C 31.206231,44.044183 37.009503,44.354612 41.139813,39.343551 C 43.868701,36.139995 43.360699,26.867546 40.764802,22.613621 C 43.336567,25.231742 47.438233,36.576294 42.499224,40.980739 C 36.540046,46.406224 29.540045,45.210534 26.086144,42.915686 z "
     style="font-size:12.000000;opacity:0.69993597;fill-rule:evenodd;stroke:#ffffff;stroke-width:0.17361506pt;"
     id="path1580" />
  <path
     d="M 56.481688,30.137244 C 56.617285,37.233949 50.434318,32.400149 47.325903,37.662431 C 44.302740,42.915686 53.264238,45.087266 48.445725,49.987213 C 43.493342,55.158350 42.536377,46.361430 37.203953,47.378122 C 31.282971,48.625897 36.910542,56.127990 29.949432,56.127990 C 23.800320,55.992746 28.839509,50.644696 23.101002,47.784557 C 17.223767,44.787260 16.120443,52.871488 11.453141,48.362696 C 6.3090868,43.384101 16.239717,42.709432 13.249711,37.798026 C 10.272555,32.819778 3.9585110,37.910527 3.6878409,30.678751 C 3.5524220,23.717470 10.810762,29.242083 13.114468,23.830318 C 15.342125,18.465255 7.4066858,15.933069 11.994470,12.182459 C 17.201373,8.0797539 18.639253,16.802710 23.236416,14.791378 C 27.721773,12.905047 22.988150,4.6880042 29.949432,4.4171615 C 37.452048,4.2817438 31.902602,11.601194 36.662618,14.249870 C 41.347975,16.781704 44.706393,9.0492207 48.716568,12.723791 C 52.863013,16.534825 45.455024,18.151531 46.784394,22.882723 C 48.183039,27.995870 55.940183,23.176135 56.481688,30.137244 z M 41.361865,31.466792 C 41.361865,38.115489 37.535327,41.638610 31.046162,41.959064 C 24.237231,41.959064 19.333564,38.098978 19.493791,31.290051 C 19.493791,24.641002 23.066100,20.444295 30.515936,20.444295 C 37.325562,20.284068 41.201638,24.817745 41.361865,31.466792 z "
     style="font-size:12.000000;fill:url(#linearGradient581);fill-rule:evenodd;stroke:#261933;stroke-width:2.1701958;"
     id="path1579"
     sodipodi:nodetypes="cccccccccccccccccccccc" />
  <path
     d="M 5.7788700,33.058321 C 5.5965726,32.799463 4.8578401,29.890015 5.6470919,29.259443 C 7.0986924,28.099694 12.342920,27.462002 12.501428,27.687358 C 12.650392,27.898647 8.1730224,29.288439 6.5698614,30.569200 C 5.9321700,31.078760 5.9042195,33.236104 5.7788700,33.058321 z "
     style="font-size:12.000000;opacity:0.99000001;fill:url(#linearGradient841);fill-rule:evenodd;stroke:none;stroke-width:1.0515400pt;"
     id="path1581" />
  <path
     d="M 11.876761,15.185485 C 11.876761,14.917595 13.724550,12.611639 14.729261,12.564761 C 15.807414,12.514587 18.125006,14.634084 18.125006,14.894159 C 18.125006,15.119509 15.840749,13.968963 14.729261,14.020698 C 13.757885,14.066015 11.876761,15.403025 11.876761,15.185485 z "
     style="font-size:12.000000;opacity:0.99000001;fill:url(#linearGradient600);fill-rule:evenodd;stroke:none;stroke-width:1.1253500pt;"
     id="path1582" />
  <path
     d="M 26.874874,13.063382 C 26.751611,12.751745 26.755428,8.1952068 27.790003,7.0038594 C 28.629084,6.0376883 32.384387,6.3087049 32.495849,6.5906526 C 32.602272,6.8595844 29.383965,7.5733180 28.443667,8.6563302 C 27.510307,9.7310092 26.969496,13.302453 26.874874,13.063382 z "
     style="font-size:12.000000;opacity:0.99000001;fill:url(#linearGradient583);fill-rule:evenodd;stroke:none;stroke-width:1.0736800pt;"
     id="path1583" />
  <path
     d="M 40.871059,16.508954 C 41.574719,15.704944 45.554677,13.189430 45.989062,13.189430 C 46.292374,13.189430 44.193012,15.790015 43.084309,16.508954 C 42.486892,16.896463 40.606467,16.811394 40.871059,16.508954 z "
     style="font-size:12.000000;opacity:0.99000001;fill:url(#linearGradient599);fill-rule:evenodd;stroke:none;stroke-width:1.1833400pt;"
     id="path1584" />
  <path
     d="M 11.752282,45.924961 C 11.959228,45.353244 15.259657,41.925211 15.989887,41.557145 C 16.342669,41.379190 15.636054,43.632545 15.000968,44.287073 C 14.223521,45.088481 11.629704,46.263165 11.752282,45.924961 z "
     style="font-size:12.000000;opacity:0.99000001;fill:url(#linearGradient842);fill-rule:evenodd;stroke:none;stroke-width:1.1111300pt;"
     id="path1585" />
  <path
     style="fill:url(#linearGradient845);fill-opacity:1.0000000;fill-rule:evenodd;stroke:none;stroke-width:1.0000000pt;stroke-linecap:butt;stroke-linejoin:miter;stroke-opacity:1.0000000;"
     d="M 29.582688,44.309302 C 29.234632,43.861801 37.609394,44.333482 40.798599,39.342256 C 44.598756,33.497586 42.863925,27.691666 43.202009,28.126345 C 43.611653,28.653029 44.804509,37.928216 42.400872,40.784301 C 40.264735,43.322534 29.982360,44.823165 29.582688,44.309302 z "
     id="path844"
     sodipodi:nodetypes="cssss" />
  <metadata
     id="metadata26">
    <rdf:RDF
       id="RDF27">
      <cc:Work
         rdf:about=""
         id="Work28">
        <dc:format
           id="format29">image/svg+xml</dc:format>
        <dc:type
           id="type31"
           rdf:resource="http://purl.org/dc/dcmitype/StillImage" />
      </cc:Work>
    </rdf:RDF>
  </metadata>
</svg>
