<?xml version="1.0" encoding="UTF-8" standalone="no"?>
<!DOCTYPE svg PUBLIC "-//W3C//DTD SVG 20010904//EN"
"http://www.w3.org/TR/2001/REC-SVG-20010904/DTD/svg10.dtd">
<!-- Created with Inkscape (http://www.inkscape.org/) -->
<svg
   version="1.0"
   x="0"
   y="0"
   width="48pt"
   height="48pt"
   id="svg1"
   sodipodi:version="0.32"
   inkscape:version="0.39"
   sodipodi:docname="gnome-mahjongg.svg"
   sodipodi:docbase="/home/bill/art/lila/gnome-games"
   xmlns="http://www.w3.org/2000/svg"
   xmlns:cc="http://web.resource.org/cc/"
   xmlns:inkscape="http://www.inkscape.org/namespaces/inkscape"
   xmlns:sodipodi="http://sodipodi.sourceforge.net/DTD/sodipodi-0.dtd"
   xmlns:rdf="http://www.w3.org/1999/02/22-rdf-syntax-ns#"
   xmlns:dc="http://purl.org/dc/elements/1.1/"
   xmlns:xlink="http://www.w3.org/1999/xlink">
  <sodipodi:namedview
     id="base"
     inkscape:zoom="10.270833"
     inkscape:cx="23.999999"
     inkscape:cy="24.000000"
     inkscape:window-width="688"
     inkscape:window-height="659"
     inkscape:window-x="369"
     inkscape:window-y="74" />
  <defs
     id="defs3">
    <linearGradient
       id="linearGradient570">
      <stop
         style="stop-color:#ffffff;stop-opacity:1;"
         offset="0"
         id="stop571" />
      <stop
         style="stop-color:#ffffff;stop-opacity:0;"
         offset="1"
         id="stop572" />
    </linearGradient>
    <linearGradient
       id="linearGradient563">
      <stop
         style="stop-color:#d9cce6;stop-opacity:1;"
         offset="0.00000000"
         id="stop564" />
      <stop
         style="stop-color:#73667f;stop-opacity:1;"
         offset="1.00000000"
         id="stop565" />
    </linearGradient>
    <linearGradient
       x1="0.00980392"
       y1="0.01562500"
       x2="0.98529410"
       y2="0.97656250"
       id="linearGradient566"
       xlink:href="#linearGradient563" />
    <linearGradient
       x1="0.007273"
       y1="-0.030301"
       x2="0.985455"
       y2="1.045454"
       id="linearGradient569"
       xlink:href="#linearGradient570" />
    <linearGradient
       x1="0.007273"
       y1="0.013158"
       x2="0.978182"
       y2="0.973684"
       id="linearGradient573"
       xlink:href="#linearGradient570" />
    <linearGradient
       x1="0.006712"
       y1="0.046874"
       x2="1.020134"
       y2="0.984375"
       id="linearGradient575"
       xlink:href="#linearGradient570" />
    <linearGradient
       id="linearGradient578"
       xlink:href="#linearGradient570" />
    <g
       id="season">
      <rect
         x="1"
         y="1"
         fill="#E3E4FF"
         width="43"
         height="67"
         id="rect1006" />
      <polygon
         fill="#CAE0FF"
         stroke="#99B9FF"
         points="4.69,42.38 9.02,39.76 10.2,44.33 6.26,48.26 8.62,49.89 10.2,48.26 10.98,51.52 14.91,51.19 14.52,47.93 17.27,49.24 18.85,47.28 14.13,44.01 13.34,39.44 19.24,41.4 20.81,45.97 23.56,44.99 22.77,42.7 26.71,44.33 28.28,41.07 23.96,39.44 27.11,38.45 25.92,36.17 20.42,37.8 14.91,35.84 20.03,32.9 25.92,33.88 26.31,31.27 23.17,30.94 26.31,28.98 23.96,26.37 20.81,28 20.81,26.04 18.06,25.71 17.27,30.61 12.55,33.23 11.77,28.66 15.7,24.41 12.95,23.1 11.38,25.06 10.58,21.47 7.05,22.12 7.45,25.39 4.69,24.08 3.12,25.71 7.45,28.66 8.23,33.55 3.12,31.92 1,27.81 1,34.92 1.16,34.86 6.26,36.82 1.55,39.76 1,39.66 1,45.06 1.16,44.99 1,45.91 1,47.31 3.51,47.6"
         id="polygon1007" />
      <path
         fill="#99B9FF"
         stroke="#678ED3"
         d="M40.63,26.67c1.1,0,2.17-0.13,3.21-0.35V1.5h-14.3c-2.44,2.67-3.95,6.22-3.95,10.13C25.59,19.94,32.32,26.67,40.63,26.67z"
         id="path1008" />
      <polygon
         fill="#C9D3F2"
         stroke="#9EB3E8"
         stroke-width="0.5"
         points="22.61,14.9 22.3,14.59 20.96,16.9 23.27,18.23 23.39,17.81"
         id="polygon1009" />
      <polygon
         fill="#C9D3F2"
         stroke="#9EB3E8"
         stroke-width="0.5"
         points="34.45,28.87 34.03,28.98 35.36,31.29 37.67,29.96 37.35,29.65"
         id="polygon1010" />
      <polygon
         fill="#798CD8"
         points="43.83,30.1 43.83,29.71 43.59,29.96"
         id="polygon1011" />
      <polygon
         fill="#C9D3F2"
         stroke="#9EB3E8"
         stroke-width="0.5"
         points="23.39,5.45 23.27,5.03 20.96,6.36 22.3,8.67 22.61,8.36"
         id="polygon1012" />
      <polygon
         fill="#99B9FF"
         stroke="#678ED3"
         points="23.31,15.6 23.31,7.66 22.61,8.36 22.3,8.67 19.34,11.63 22.3,14.59 22.61,14.9"
         id="polygon1013" />
      <polygon
         fill="#C9D3F2"
         stroke="#9EB3E8"
         stroke-width="0.5"
         points="26.66,23.47 26.23,23.36 26.23,26.02 28.9,26.02 28.78,25.6"
         id="polygon1014" />
      <polygon
         fill="#99B9FF"
         stroke="#678ED3"
         points="37.35,29.65 37.67,29.96 40.63,32.92 43.59,29.96 43.83,29.71 43.83,28.95 36.66,28.95"
         id="polygon1015" />
      <polygon
         fill="#99B9FF"
         stroke="#678ED3"
         points="35.41,28.61 28.53,24.64 28.78,25.6 28.9,26.02 29.98,30.07 34.03,28.98 34.45,28.87"
         id="polygon1016" />
      <polygon
         fill="#99B9FF"
         stroke="#678ED3"
         points="27.61,23.73 23.64,16.85 23.39,17.81 23.27,18.23 22.19,22.27 26.23,23.36 26.66,23.47"
         id="polygon1017" />
      <polygon
         fill="#99B9FF"
         stroke="#678ED3"
         points="23.39,5.45 23.64,6.41 26.48,1.5 22.33,1.5 23.27,5.03 "
         id="polygon1018" />
      <path
         fill="#99B9FF"
         stroke="#678ED3"
         d="M30.67,46.67c0,0,2.32-3,7-3c5.67,0,5.67,9.33,5.67,9.33H19.67c0,0-0.33-6.67,7.67-6.67c3.67,0,6,4,6,4"
         id="path1019" />
      <line
         fill="#99B9FF"
         stroke="#678ED3"
         x1="29.5"
         y1="57.27"
         x2="24.83"
         y2="65.36"
         id="line1020" />
      <line
         fill="#99B9FF"
         stroke="#678ED3"
         x1="34.22"
         y1="55.68"
         x2="28.68"
         y2="65.95"
         id="line1021" />
      <line
         fill="#99B9FF"
         stroke="#678ED3"
         x1="23.33"
         y1="61"
         x2="20.5"
         y2="65.91"
         id="line1022" />
      <line
         fill="#99B9FF"
         stroke="#678ED3"
         x1="37.46"
         y1="54.63"
         x2="33.25"
         y2="62.59"
         id="line1023" />
      <line
         fill="#99B9FF"
         stroke="#678ED3"
         x1="40.46"
         y1="62.17"
         x2="38.13"
         y2="66.21"
         id="line1024" />
      <line
         fill="#99B9FF"
         stroke="#678ED3"
         x1="27.11"
         y1="54.52"
         x2="24.44"
         y2="59.14"
         id="line1025" />
      <line
         fill="#99B9FF"
         stroke="#678ED3"
         x1="31.67"
         y1="54"
         x2="30.67"
         y2="55.73"
         id="line1026" />
      <line
         fill="#99B9FF"
         stroke="#678ED3"
         x1="40.98"
         y1="55.6"
         x2="37.81"
         y2="61.09"
         id="line1027" />
      <line
         fill="#99B9FF"
         stroke="#678ED3"
         x1="23.84"
         y1="55.04"
         x2="22.18"
         y2="57.92"
         id="line1028" />
      <line
         fill="#99B9FF"
         stroke="#678ED3"
         x1="21.13"
         y1="55.63"
         x2="16.91"
         y2="63.59"
         id="line1029" />
      <line
         fill="#99B9FF"
         stroke="#678ED3"
         x1="36"
         y1="63.6"
         x2="35"
         y2="65.33"
         id="line1030" />
      <path
         fill="#678ED3"
         d="M44,0H0v69h45V0H44z M43,2c0,1.91,0,63.09,0,65c-1.86,0-39.14,0-41,0C2,65.09,2,3.91,2,2C3.86,2,41.14,2,43,2z"
         id="path1031" />
    </g>
    <g
       id="flower">
      <rect
         x="1"
         y="1"
         fill="#F8F6D8"
         stroke="#F8F6D8"
         width="43"
         height="67"
         id="rect976" />
      <path
         fill="#D3BB54"
         d="M11.27,58.16l-0.71-8.35c1.76-0.67,2.92-1.76,2.83-2.86c-0.09-1.1-1.42-1.91-3.26-2.16l-0.71-8.36c1.76-0.67,2.92-1.76,2.83-2.86c-0.13-1.56-2.69-2.54-5.71-2.19c-3.02,0.35-5.37,1.89-5.23,3.44c0.09,1.1,1.42,1.91,3.25,2.16l0.71,8.36c-1.76,0.67-2.92,1.76-2.83,2.86c0.09,1.1,1.42,1.91,3.25,2.16l0.71,8.36c-1.76,0.67-2.92,1.76-2.83,2.86c0.13,1.55,2.69,2.53,5.71,2.19c3.02-0.35,5.37-1.89,5.23-3.44C14.43,59.22,13.11,58.41,11.27,58.16z M4.34,34.47c-0.05-0.58,1-1.18,2.34-1.34c1.34-0.15,2.47,0.2,2.52,0.78c0.04,0.49-0.7,0.99-1.74,1.23l0.61,7.13c0.05,0.56-0.19,1.04-0.52,1.08c-0.34,0.04-0.65-0.38-0.7-0.94l-0.61-7.13C5.19,35.28,4.38,34.96,4.34,34.47z M4.57,47.95c-0.05-0.58,1.41-1.23,3.25-1.44c1.85-0.21,3.39,0.09,3.43,0.67c0.05,0.58-1.41,1.23-3.25,1.44C6.15,48.84,4.62,48.54,4.57,47.95z M9.15,62c-1.34,0.15-2.47-0.19-2.52-0.78c-0.04-0.49,0.7-0.99,1.74-1.23l-0.61-7.13c-0.05-0.56,0.19-1.04,0.52-1.08c0.33-0.04,0.65,0.38,0.69,0.94l0.61,7.13c1.06,0,1.87,0.32,1.91,0.81C11.54,61.25,10.49,61.85,9.15,62z"
         id="path977" />
      <path
         fill="none"
         stroke="#7C5A2D"
         stroke-width="0.25"
         d="M11.27,58.16l-0.71-8.35c1.76-0.67,2.92-1.76,2.83-2.86c-0.09-1.1-1.42-1.91-3.26-2.16l-0.71-8.36c1.76-0.67,2.92-1.76,2.83-2.86c-0.13-1.56-2.69-2.54-5.71-2.19c-3.02,0.35-5.37,1.89-5.23,3.44c0.09,1.1,1.42,1.91,3.25,2.16l0.71,8.36c-1.76,0.67-2.92,1.76-2.83,2.86c0.09,1.1,1.42,1.91,3.25,2.16l0.71,8.36c-1.76,0.67-2.92,1.76-2.83,2.86c0.13,1.55,2.69,2.53,5.71,2.19c3.02-0.35,5.37-1.89,5.23-3.44C14.43,59.22,13.11,58.41,11.27,58.16z M4.34,34.47c-0.05-0.58,1-1.18,2.34-1.34c1.34-0.15,2.47,0.2,2.52,0.78c0.04,0.49-0.7,0.99-1.74,1.23l0.61,7.13c0.05,0.56-0.19,1.04-0.52,1.08c-0.34,0.04-0.65-0.38-0.7-0.94l-0.61-7.13C5.19,35.28,4.38,34.96,4.34,34.47z M4.57,47.95c-0.05-0.58,1.41-1.23,3.25-1.44c1.85-0.21,3.39,0.09,3.43,0.67c0.05,0.58-1.41,1.23-3.25,1.44C6.15,48.84,4.62,48.54,4.57,47.95z M9.15,62c-1.34,0.15-2.47-0.19-2.52-0.78c-0.04-0.49,0.7-0.99,1.74-1.23l-0.61-7.13c-0.05-0.56,0.19-1.04,0.52-1.08c0.33-0.04,0.65,0.38,0.69,0.94l0.61,7.13c1.06,0,1.87,0.32,1.91,0.81C11.54,61.25,10.49,61.85,9.15,62z"
         id="path978" />
      <path
         fill="#EADDA7"
         stroke="#7C5A2D"
         stroke-width="0.25"
         d="M5.23,67.99c2.49-8.18-3.33-18.78-3.33-18.78s10.4,10.59,7.48,18.78H5.23z"
         id="path979" />
      <path
         fill="#DBC879"
         d="M19.02,36.17c-2.92-0.98-5.59-0.56-5.97,0.94c-0.27,1.06,0.7,2.38,2.33,3.41l-2.03,8.06c-1.85-0.14-3.28,0.37-3.54,1.43c-0.27,1.06,0.7,2.38,2.33,3.41l-2.03,8.06c-1.84-0.14-3.27,0.37-3.54,1.43c-0.38,1.5,1.68,3.51,4.6,4.5c2.92,0.98,5.59,0.56,5.96-0.94c0.27-1.06-0.7-2.38-2.32-3.41l2.03-8.06c1.85,0.14,3.28-0.37,3.55-1.43c0.27-1.06-0.71-2.38-2.33-3.41l2.03-8.06c1.84,0.14,3.28-0.37,3.54-1.43C23.99,39.16,21.94,37.15,19.02,36.17z M14.41,57.04l-1.73,6.88c0.98,0.45,1.63,1.1,1.51,1.58c-0.14,0.56-1.31,0.66-2.6,0.23c-1.3-0.44-2.23-1.25-2.09-1.81c0.12-0.47,0.97-0.62,2.01-0.39l1.73-6.88c0.13-0.54,0.51-0.88,0.83-0.77C14.39,55.98,14.54,56.5,14.41,57.04z M18.32,52.88c-0.14,0.56-1.7,0.53-3.48-0.07c-1.78-0.6-3.11-1.54-2.97-2.11c0.14-0.56,1.7-0.53,3.48,0.07C17.13,51.37,18.46,52.32,18.32,52.88z M20.68,39.67c-0.12,0.47-0.97,0.62-2.01,0.39l-1.73,6.88c-0.13,0.54-0.51,0.88-0.83,0.77c-0.32-0.11-0.48-0.63-0.34-1.17l1.73-6.88c-0.98-0.45-1.63-1.1-1.51-1.58c0.14-0.56,1.31-0.67,2.6-0.23C19.89,38.3,20.82,39.11,20.68,39.67z"
         id="path980" />
      <path
         fill="none"
         stroke="#7C5A2D"
         stroke-width="0.25"
         d="M19.02,36.17c-2.92-0.98-5.59-0.56-5.97,0.94c-0.27,1.06,0.7,2.38,2.33,3.41l-2.03,8.06c-1.85-0.14-3.28,0.37-3.54,1.43c-0.27,1.06,0.7,2.38,2.33,3.41l-2.03,8.06c-1.84-0.14-3.27,0.37-3.54,1.43c-0.38,1.5,1.68,3.51,4.6,4.5c2.92,0.98,5.59,0.56,5.96-0.94c0.27-1.06-0.7-2.38-2.32-3.41l2.03-8.06c1.85,0.14,3.28-0.37,3.55-1.43c0.27-1.06-0.71-2.38-2.33-3.41l2.03-8.06c1.84,0.14,3.28-0.37,3.54-1.43C23.99,39.16,21.94,37.15,19.02,36.17z M14.41,57.04l-1.73,6.88c0.98,0.45,1.63,1.1,1.51,1.58c-0.14,0.56-1.31,0.66-2.6,0.23c-1.3-0.44-2.23-1.25-2.09-1.81c0.12-0.47,0.97-0.62,2.01-0.39l1.73-6.88c0.13-0.54,0.51-0.88,0.83-0.77C14.39,55.98,14.54,56.5,14.41,57.04z M18.32,52.88c-0.14,0.56-1.7,0.53-3.48-0.07c-1.78-0.6-3.11-1.54-2.97-2.11c0.14-0.56,1.7-0.53,3.48,0.07C17.13,51.37,18.46,52.32,18.32,52.88z M20.68,39.67c-0.12,0.47-0.97,0.62-2.01,0.39l-1.73,6.88c-0.13,0.54-0.51,0.88-0.83,0.77c-0.32-0.11-0.48-0.63-0.34-1.17l1.73-6.88c-0.98-0.45-1.63-1.1-1.51-1.58c0.14-0.56,1.31-0.67,2.6-0.23C19.89,38.3,20.82,39.11,20.68,39.67z"
         id="path981" />
      <path
         fill="#EADA9B"
         stroke="#7C5A2D"
         stroke-width="0.25"
         d="M19.85,67.7c-1.77-5.79,2.35-13.28,2.35-13.28s-7.35,7.49-5.29,13.28H19.85z"
         id="path982" />
      <path
         fill="#BFAA52"
         stroke="#7C5A2D"
         d="M30.33,52.2c-10.89,0-12.13-1.84-15.85-5.97c4.7-3.44,10.9-3.9,16.34,4.82L30.33,52.2z"
         id="path983" />
      <path
         fill="#DBC775"
         d="M27.52,50.68c-6.89,0-7.68-1.16-10.03-3.78c2.98-2.18,6.9-2.47,10.34,3.05L27.52,50.68z"
         id="path984" />
      <path
         fill="#BFAA52"
         stroke="#7C5A2D"
         d="M42.27,47.51c-0.36,2.52-6.85,4.67-9.62,5.14c-2.77,0.47,1.52-5.63,6.18-9.5C41.78,42.64,42.5,45.94,42.27,47.51z"
         id="path985" />
      <path
         fill="#DBC775"
         d="M37.59,49.31c-0.15,1.08-2.95,2.01-4.14,2.21c-1.19,0.2,0.66-2.42,2.66-4.09C37.38,47.21,37.69,48.63,37.59,49.31z"
         id="path986" />
      <path
         fill="#E5D389"
         stroke="#7C5A2D"
         stroke-width="0.75"
         d="M38.25,67.92c-7.82-3.7-5.44-11.92-5.44-18.72l-2.23-0.29c0,0-2.8,17.48,4.83,18.76L38.25,67.92z"
         id="path987" />
      <path
         fill="#BFAA52"
         stroke="#7C5A2D"
         d="M43.33,52.91v7.75c0,0-2.47,2.07-4.21,2.07c-1.73,0-6.93-9.55-6.44-10.59C33.19,51.1,42.84,50.85,43.33,52.91z"
         id="path988" />
      <path
         fill="#DBC775"
         d="M40.06,53.5c1.02,0.72,0,3.43,0,3.43s-1.33,0.91-2.27,0.91c-0.93,0-3.73-4.22-3.47-4.68S39.04,52.79,40.06,53.5z"
         id="path989" />
      <path
         fill="#BFAA52"
         stroke="#7C5A2D"
         d="M31.45,52.39c-12.87-1.29-10.89,4.39-14.11,10.07C27.49,65.3,28.23,57.04,31.45,52.39z"
         id="path990" />
      <path
         fill="#E2CF7F"
         d="M30.26,53.1c-8.21-0.82-6.95,2.8-9,6.42C27.74,61.34,28.21,56.07,30.26,53.1z"
         id="path991" />
      <path
         fill="#BFAA52"
         stroke="#7C5A2D"
         d="M32.93,50.42c0,0,3.69-9.06-0.25-11.11c-4.04-2.11-6.64-1.29-7.13,0c-0.5,1.29,3.91,12.41,5.65,12.66C32.93,52.23,32.93,50.42,32.93,50.42z"
         id="path992" />
      <path
         fill="#DBC775"
         d="M32.14,50.27c0,0,2.05-5.67-0.14-6.95c-2.24-1.32-3.68-0.81-3.96,0c-0.28,0.81,2.17,7.76,3.13,7.92C32.14,51.4,32.14,50.27,32.14,50.27z"
         id="path993" />
      <path
         fill="#EADDA7"
         stroke="#7C5A2D"
         stroke-width="0.25"
         d="M31.45,51.12c0,0-1.48-2.54-1.23-4.87"
         id="path994" />
      <path
         fill="#BFAA52"
         stroke="#7C5A2D"
         d="M30.33,52.6c0,0-4.13,5.57-2.01,5.48c2.41-0.11,2.6,0,5.1,0.46c2.57,0.47,0.2-5.55-1.6-6.32L30.33,52.6z"
         id="path995" />
      <path
         fill="#DBC879"
         stroke="#7C5A2D"
         stroke-width="0.5"
         d="M27.27,48.13c0,0,2.02,2.93,3.35,2.93c1.33,0,0.61,2.18,0,1.56C30,51.99,28.15,50.19,27.05,50C26.23,50,26.04,47.66,27.27,48.13z"
         id="path996" />
      <path
         fill="#D3BB54"
         stroke="#AF9A41"
         d="M44,12.51c-4.46,0-8.54,2.85-8.54,6.37c0,3.52,4.08,6.37,8.54,6.37V12.51z"
         id="path997" />
      <path
         fill="#D3BB54"
         stroke="#AF9A41"
         d="M33.33,7.64c0-3.52-3.62-6.23-8.08-6.23c-4.46,0-8.08,2.71-8.08,6.23s3.62,6.37,8.08,6.37C29.71,14.01,33.33,11.16,33.33,7.64z"
         id="path998" />
      <ellipse
         fill="#D3BB54"
         stroke="#AF9A41"
         cx="29.56"
         cy="17.54"
         rx="8.08"
         ry="6.37"
         id="ellipse999" />
      <path
         fill="#DBC879"
         stroke="#AF9A41"
         d="M44,16.35V1.42H30.9c-2.93,1.56-3.79,4.49-3.79,7.49c0,4.79,4.93,8.68,11.02,8.68C40.21,17.58,42.34,17.13,44,16.35z"
         id="path1000" />
      <path
         fill="#D3BB54"
         stroke="#AF9A41"
         d="M31.94,15.47c0,0-0.72,1.82-3.03,1.82"
         id="path1001" />
      <path
         fill="#D3BB54"
         stroke="#AF9A41"
         d="M27.19,6.62c0,0-1.73,0.57-3.17-1.02"
         id="path1002" />
      <path
         fill="#663333"
         d="M44,0H0v69h45V0H44z M43,2c0,1.91,0,63.09,0,65c-1.86,0-39.14,0-41,0C2,65.09,2,3.91,2,2C3.86,2,41.14,2,43,2z"
         id="path1003" />
      <path
         fill="#E2CF7F"
         d="M31.13,52.9c0,0-1.71,2.31-0.83,2.27c1-0.04,1.08,0,2.11,0.19c1.06,0.2,0.08-2.3-0.66-2.62L31.13,52.9z"
         id="path1004" />
    </g>
    <g
       id="nums">
      <path
         fill="#BA0000"
         d="M18.01,0.14c0,0-4.39,3.33-4.78,3.63c-0.32-0.33-3.2-3.27-3.2-3.27l2.22,8.92l0.6-0.03c0.75-4.76,4.35-6.63,5.33-7.05c0.14,0.2,0.26,0.42,0.26,0.72c0,0.09-0.01,0.18-0.02,0.28c-0.21,1.67-2.39,4.64-6.68,7.21l-0.31,0.18l0.81,1.01l0.2-0.06c0.06-0.02,6.59-2.06,10.36-1.88l1.14,0.05l-0.96-0.63c-0.08-0.05-1.95-1.25-3.93-1.03c0.28-0.63,2.26-2.56,4.15-4.16l0.31-0.26L18.19,0L18.01,0.14z"
         id="path973" />
      <path
         fill="#BA0000"
         d="M33.78,24.64c-0.17-0.17-4.21-4.28-5.63-5.01c-0.53-0.27-1.71-0.18-5.75,0.16c0,0-0.17,0.01-0.43,0.04c1.19-2.79,2.72-5.86,3.57-6.25l0.55-0.25l-2.13-2.09l-0.21,0.03c-5.11,0.87-13.08,2.09-14.11,1.9l-0.35-0.07l-0.12,0.33c-0.2,0.56,0.32,4.93,0.86,7.37C5.45,21.2,0,21.66,0,21.66l0.3,0.56l0.68,1.27l0.32-0.09c1.72-0.51,2.52-0.57,4.6-0.54c0.19,0.49,2.6,6.77,2.6,6.77l0.79-0.2c0,0-0.69-5.69-0.8-6.52c0.78,0.02,7.99,0.22,9.67,0.26c-1.09,0.92-3.56,3.02-3.56,3.02l0.4,0.71c0,0,5.15-1.76,5.41-1.85c0.25,0.1,4.3,1.65,4.3,1.65s-2.13-2.57-2.81-3.38c3.78,0.2,4.75,0.42,5.01,0.74c0.33,0.39,0.5,0.96,0.5,1.6c0,1.16-0.58,2.57-1.8,3.73c-1.82-0.46-5.17-2.34-5.21-2.36l-0.52,0.62L24.96,34l0.24-0.05c3.82-0.78,8.44-8.48,8.63-8.81L34,24.87L33.78,24.64z M21.02,16.65c-1.22,0.16-2.77,0.37-3.21,0.43c0-0.33,0-1.17,0-2c1.62-0.13,3.11-0.25,3.49-0.29C21.25,15.06,21.15,15.77,21.02,16.65z M16.09,15.22c0.02,0.84,0.04,1.75,0.05,2.06c-1.41,0.16-2.6,0.26-3.55,0.3c0.1-0.62,0.19-1.31,0.3-2.1C13.13,15.46,14.51,15.35,16.09,15.22z M12.03,20.65c0.08-0.35,0.17-0.76,0.26-1.24c1.3-0.24,2.61-0.46,3.89-0.63c0.01,0.48,0.03,1.1,0.04,1.52C15.97,20.31,14.26,20.46,12.03,20.65zM17.8,20.17c0-0.48,0-1.18,0-1.6c0.98-0.1,1.36-0.08,1.96-0.02l0.96,0.06c-0.07,0.46-0.14,0.92-0.2,1.35C19.43,20.04,18.19,20.14,17.8,20.17z"
         id="path974" />
    </g>
    <g
       id="dots2">
      <path
         fill="#9C0000"
         d="M9,1.42c-4.18,0-7.58,3.4-7.58,7.58s3.4,7.58,7.58,7.58c4.18,0,7.58-3.4,7.58-7.58S13.18,1.42,9,1.42zM9,15.11c-1.36,0-2.49-0.97-2.75-2.25c0.78,0.56,1.72,0.89,2.75,0.89c1.03,0,1.97-0.34,2.75-0.89C11.49,14.14,10.36,15.11,9,15.11z M9,2.89c1.36,0,2.49,0.97,2.75,2.25C10.97,4.59,10.03,4.25,9,4.25c-1.03,0-1.97,0.34-2.75,0.89C6.51,3.86,7.64,2.89,9,2.89z M12.75,9c0,0.57-0.14,1.11-0.37,1.59C12.04,9.92,11.51,9.37,10.85,9c0.66-0.37,1.19-0.92,1.53-1.59C12.61,7.89,12.75,8.43,12.75,9z M5.25,9c0-0.57,0.14-1.11,0.37-1.59C5.96,8.08,6.49,8.63,7.15,9c-0.66,0.37-1.19,0.92-1.53,1.59C5.39,10.11,5.25,9.57,5.25,9z M11.59,11.7c-1.02-0.27-1.82-1.1-2.03-2.14c1.04,0.21,1.87,1.01,2.14,2.03C11.66,11.63,11.63,11.66,11.59,11.7z M6.3,11.59c0.27-1.02,1.1-1.82,2.15-2.03c-0.21,1.04-1.01,1.87-2.03,2.14C6.37,11.66,6.34,11.63,6.3,11.59z M6.41,6.3c1.02,0.27,1.82,1.1,2.03,2.15C7.4,8.23,6.57,7.43,6.3,6.41C6.34,6.37,6.37,6.34,6.41,6.3z M11.7,6.41c-0.27,1.02-1.1,1.82-2.14,2.03c0.21-1.05,1.01-1.87,2.03-2.15C11.63,6.34,11.66,6.37,11.7,6.41z M9,7.15C8.63,6.49,8.08,5.96,7.41,5.62C7.89,5.39,8.43,5.25,9,5.25s1.11,0.14,1.59,0.37C9.92,5.96,9.37,6.49,9,7.15z M9,10.85c0.37,0.66,0.92,1.19,1.59,1.53c-0.49,0.23-1.02,0.37-1.59,0.37s-1.11-0.14-1.59-0.37C8.08,12.04,8.63,11.51,9,10.85z M5.14,11.75C3.86,11.49,2.89,10.36,2.89,9s0.97-2.49,2.25-2.75C4.59,7.03,4.25,7.97,4.25,9C4.25,10.03,4.59,10.97,5.14,11.75z M12.86,6.25c1.28,0.26,2.25,1.39,2.25,2.75s-0.97,2.49-2.25,2.75c0.56-0.78,0.89-1.72,0.89-2.75C13.75,7.97,13.41,7.03,12.86,6.25z M15.01,6.33c-0.59-0.6-1.38-0.99-2.25-1.09c-0.11-0.88-0.49-1.66-1.09-2.25C13.15,3.65,14.35,4.85,15.01,6.33z M6.33,2.99c-0.6,0.59-0.98,1.38-1.09,2.25C4.36,5.35,3.58,5.73,2.99,6.33C3.65,4.85,4.85,3.65,6.33,2.99z M2.99,11.67c0.59,0.6,1.38,0.99,2.25,1.09c0.11,0.88,0.49,1.66,1.09,2.25C4.85,14.35,3.65,13.15,2.99,11.67z M11.67,15.01c0.6-0.59,0.99-1.38,1.09-2.25c0.88-0.11,1.66-0.49,2.25-1.09C14.35,13.15,13.15,14.35,11.67,15.01z"
         id="path970" />
      <path
         fill="#9C0000"
         d="M9,0C4.04,0,0,4.04,0,9c0,4.96,4.04,9,9,9c4.96,0,9-4.04,9-9C18,4.04,13.96,0,9,0z M9,17c-4.41,0-8-3.59-8-8s3.59-8,8-8s8,3.59,8,8S13.41,17,9,17z"
         id="path971" />
    </g>
    <g
       id="dots">
      <path
         fill="#10106C"
         d="M9,1.42c-4.18,0-7.58,3.4-7.58,7.58s3.4,7.58,7.58,7.58c4.18,0,7.58-3.4,7.58-7.58S13.18,1.42,9,1.42zM9,15.11c-1.36,0-2.49-0.97-2.75-2.25c0.78,0.56,1.72,0.89,2.75,0.89c1.03,0,1.97-0.34,2.75-0.89C11.49,14.14,10.36,15.11,9,15.11z M9,2.89c1.36,0,2.49,0.97,2.75,2.25C10.97,4.59,10.03,4.25,9,4.25c-1.03,0-1.97,0.34-2.75,0.89C6.51,3.86,7.64,2.89,9,2.89z M12.75,9c0,0.57-0.14,1.11-0.37,1.59C12.04,9.92,11.51,9.37,10.85,9c0.66-0.37,1.19-0.92,1.53-1.59C12.61,7.89,12.75,8.43,12.75,9z M5.25,9c0-0.57,0.14-1.11,0.37-1.59C5.96,8.08,6.49,8.63,7.15,9c-0.66,0.37-1.19,0.92-1.53,1.59C5.39,10.11,5.25,9.57,5.25,9z M11.59,11.7c-1.02-0.27-1.82-1.1-2.03-2.14c1.04,0.21,1.87,1.01,2.14,2.03C11.66,11.63,11.63,11.66,11.59,11.7z M6.3,11.59c0.27-1.02,1.1-1.82,2.15-2.03c-0.21,1.04-1.01,1.87-2.03,2.14C6.37,11.66,6.34,11.63,6.3,11.59z M6.41,6.3c1.02,0.27,1.82,1.1,2.03,2.15C7.4,8.23,6.57,7.43,6.3,6.41C6.34,6.37,6.37,6.34,6.41,6.3z M11.7,6.41c-0.27,1.02-1.1,1.82-2.14,2.03c0.21-1.05,1.01-1.87,2.03-2.15C11.63,6.34,11.66,6.37,11.7,6.41z M9,7.15C8.63,6.49,8.08,5.96,7.41,5.62C7.89,5.39,8.43,5.25,9,5.25s1.11,0.14,1.59,0.37C9.92,5.96,9.37,6.49,9,7.15z M9,10.85c0.37,0.66,0.92,1.19,1.59,1.53c-0.49,0.23-1.02,0.37-1.59,0.37s-1.11-0.14-1.59-0.37C8.08,12.04,8.63,11.51,9,10.85z M5.14,11.75C3.86,11.49,2.89,10.36,2.89,9s0.97-2.49,2.25-2.75C4.59,7.03,4.25,7.97,4.25,9C4.25,10.03,4.59,10.97,5.14,11.75z M12.86,6.25c1.28,0.26,2.25,1.39,2.25,2.75s-0.97,2.49-2.25,2.75c0.56-0.78,0.89-1.72,0.89-2.75C13.75,7.97,13.41,7.03,12.86,6.25z M15.01,6.33c-0.59-0.6-1.38-0.99-2.25-1.09c-0.11-0.88-0.49-1.66-1.09-2.25C13.15,3.65,14.35,4.85,15.01,6.33z M6.33,2.99c-0.6,0.59-0.98,1.38-1.09,2.25C4.36,5.35,3.58,5.73,2.99,6.33C3.65,4.85,4.85,3.65,6.33,2.99z M2.99,11.67c0.59,0.6,1.38,0.99,2.25,1.09c0.11,0.88,0.49,1.66,1.09,2.25C4.85,14.35,3.65,13.15,2.99,11.67z M11.67,15.01c0.6-0.59,0.99-1.38,1.09-2.25c0.88-0.11,1.66-0.49,2.25-1.09C14.35,13.15,13.15,14.35,11.67,15.01z"
         id="path967" />
      <path
         fill="#10106C"
         d="M9,0C4.04,0,0,4.04,0,9c0,4.96,4.04,9,9,9c4.96,0,9-4.04,9-9C18,4.04,13.96,0,9,0z M9,17c-4.41,0-8-3.59-8-8s3.59-8,8-8s8,3.59,8,8S13.41,17,9,17z"
         id="path968" />
    </g>
    <path
       id="bams2"
       fill="#9C0000"
       d="M11,13.5c0-0.92-1.25-1.71-3.06-2.09V4.44C9.75,4.06,11,3.27,11,2.35C11,1.05,8.54,0,5.5,0S0,1.05,0,2.35c0,0.92,1.25,1.71,3.06,2.09v6.97C1.25,11.79,0,12.58,0,13.5c0,0.92,1.25,1.71,3.06,2.09v6.96C1.25,22.94,0,23.73,0,24.65C0,25.95,2.46,27,5.5,27s5.5-1.05,5.5-2.35c0-0.92-1.25-1.71-3.06-2.09v-6.96C9.75,15.21,11,14.42,11,13.5z M5.5,1.47c1.35,0,2.44,0.39,2.44,0.88c0,0.41-0.78,0.75-1.83,0.85v5.94c0,0.46-0.28,0.84-0.61,0.84S4.89,9.6,4.89,9.14V3.2C3.84,3.1,3.06,2.76,3.06,2.35C3.06,1.86,4.15,1.47,5.5,1.47z M5.5,25.53c-1.35,0-2.44-0.39-2.44-0.88c0-0.41,0.78-0.75,1.83-0.85v-5.94c0-0.46,0.28-0.84,0.61-0.84s0.61,0.38,0.61,0.84v5.94c1.05,0.1,1.83,0.44,1.83,0.85C7.94,25.14,6.85,25.53,5.5,25.53z M5.5,14.38c-1.86,0-3.36-0.39-3.36-0.88c0-0.49,1.5-0.88,3.36-0.88s3.36,0.39,3.36,0.88C8.86,13.99,7.36,14.38,5.5,14.38z" />
    <path
       id="bams"
       fill="#006C00"
       d="M11,13.5c0-0.92-1.25-1.71-3.06-2.09V4.44C9.75,4.06,11,3.27,11,2.35C11,1.05,8.54,0,5.5,0S0,1.05,0,2.35c0,0.92,1.25,1.71,3.06,2.09v6.97C1.25,11.79,0,12.58,0,13.5c0,0.92,1.25,1.71,3.06,2.09v6.96C1.25,22.94,0,23.73,0,24.65C0,25.95,2.46,27,5.5,27s5.5-1.05,5.5-2.35c0-0.92-1.25-1.71-3.06-2.09v-6.96C9.75,15.21,11,14.42,11,13.5z M5.5,1.47c1.35,0,2.44,0.39,2.44,0.88c0,0.41-0.78,0.75-1.83,0.85v5.94c0,0.46-0.28,0.84-0.61,0.84S4.89,9.6,4.89,9.14V3.2C3.84,3.1,3.06,2.76,3.06,2.35C3.06,1.86,4.15,1.47,5.5,1.47z M5.5,25.53c-1.35,0-2.44-0.39-2.44-0.88c0-0.41,0.78-0.75,1.83-0.85v-5.94c0-0.46,0.28-0.84,0.61-0.84s0.61,0.38,0.61,0.84v5.94c1.05,0.1,1.83,0.44,1.83,0.85C7.94,25.14,6.85,25.53,5.5,25.53z M5.5,14.38c-1.86,0-3.36-0.39-3.36-0.88c0-0.49,1.5-0.88,3.36-0.88s3.36,0.39,3.36,0.88C8.86,13.99,7.36,14.38,5.5,14.38z" />
    <g
       id="bt2">
      <path
         fill="#0000FF"
         d="M9,0C8.47,0,7.96,0.21,7.59,0.59l-7,7C0.21,7.96,0,8.47,0,9v77c0,1.1,0.9,2,2,2h53c0.53,0,1.04-0.21,1.41-0.59l7-7C63.79,80.04,64,79.53,64,79V2c0-1.1-0.9-2-2-2H9z"
         id="path951" />
      <path
         fill="#8F8FFF"
         d="M11.75,78.25l-9,9h9H55c0.33,0,0.65-0.13,0.88-0.37l7-7c0.23-0.23,0.37-1.3,0.37-1.63H11.75z"
         id="path952" />
      <path
         fill="#C7C7FF"
         d="M8.12,1.12l-7,7C0.88,8.35,0.75,8.67,0.75,9v66.25v1v9l2,2l7-7v-4v-1V0.75C9.42,0.75,8.35,0.88,8.12,1.12z"
         id="path953" />
      <path
         fill="#AFAFFF"
         d="M1.61,86.89l10.14-10.14v-0.5L1.34,86.66C1.42,86.75,1.51,86.82,1.61,86.89z"
         id="path954" />
      <path
         fill="#A7A7FF"
         d="M1.93,87.07l9.82-9.82v-0.5L1.61,86.89C1.71,86.96,1.82,87.02,1.93,87.07z"
         id="path955" />
      <path
         fill="#9F9FFF"
         d="M2.3,87.2l9.45-9.45v-0.5l-9.82,9.82C2.05,87.12,2.17,87.17,2.3,87.2z"
         id="path956" />
      <path
         fill="#9797FF"
         d="M11.75,77.75L2.3,87.2c0.14,0.03,0.29,0.05,0.45,0.05l9-9V77.75z"
         id="path957" />
      <path
         fill="#B7B7FF"
         d="M1.34,86.66l10.41-10.41h-0.5L1.11,86.39C1.18,86.49,1.25,86.58,1.34,86.66z"
         id="path958" />
      <path
         fill="#BDBDFF"
         d="M1.11,86.39l10.14-10.14h-0.5l-9.82,9.82C0.98,86.18,1.04,86.29,1.11,86.39z"
         id="path959" />
      <path
         fill="#C2C2FF"
         d="M0.93,86.07l9.82-9.82h-0.5L0.8,85.7C0.83,85.83,0.88,85.95,0.93,86.07z"
         id="path960" />
      <path
         fill="#C7C7FF"
         d="M10.25,76.25h-0.5l-9,9c0,0.15,0.02,0.3,0.05,0.45L10.25,76.25z"
         id="path961" />
      <path
         fill="#E3E3FF"
         d="M61.25,0.75H9.75c-1.1,0-2,0.9-2,2v75.5c0,1.1,0.9,2,2,2h51.5c1.1,0,2-0.9,2-2V2.75C63.25,1.65,62.35,0.75,61.25,0.75z"
         id="path962" />
      <path
         fill="#FFFFFF"
         stroke="#0000FF"
         stroke-width="3"
         d="M60,74.19c0,1.55-1.22,2.81-2.72,2.81H13.72c-1.5,0-2.72-1.26-2.72-2.81V6.81C11,5.26,12.22,4,13.72,4h43.56C58.78,4,60,5.26,60,6.81V74.19z"
         id="path963" />
    </g>
    <g
       id="bt1">
      <path
         d="M9,0C8.47,0,7.96,0.21,7.59,0.59l-7,7C0.21,7.96,0,8.47,0,9v77c0,1.1,0.9,2,2,2h53c0.53,0,1.04-0.21,1.41-0.59l7-7C63.79,80.04,64,79.53,64,79V2c0-1.1-0.9-2-2-2H9z"
         id="path937" />
      <path
         fill="#9F9F9F"
         d="M11.75,78.25l-9,9h9H55c0.33,0,0.65-0.13,0.88-0.37l7-7c0.23-0.23,0.37-1.3,0.37-1.63H11.75z"
         id="path938" />
      <path
         fill="#D7D7D7"
         d="M8.12,1.12l-7,7C0.88,8.35,0.75,8.67,0.75,9v66.25v1v9l2,2l7-7v-4v-1V0.75C9.42,0.75,8.35,0.88,8.12,1.12z"
         id="path939" />
      <path
         fill="#BFBFBF"
         d="M1.61,86.89l10.14-10.14v-0.5L1.34,86.66C1.42,86.75,1.51,86.82,1.61,86.89z"
         id="path940" />
      <path
         fill="#B7B7B7"
         d="M1.93,87.07l9.82-9.82v-0.5L1.61,86.89C1.71,86.96,1.82,87.02,1.93,87.07z"
         id="path941" />
      <path
         fill="#AFAFAF"
         d="M2.3,87.2l9.45-9.45v-0.5l-9.82,9.82C2.05,87.12,2.17,87.17,2.3,87.2z"
         id="path942" />
      <path
         fill="#A7A7A7"
         d="M11.75,77.75L2.3,87.2c0.14,0.03,0.29,0.05,0.45,0.05l9-9V77.75z"
         id="path943" />
      <path
         fill="#C7C7C7"
         d="M1.34,86.66l10.41-10.41h-0.5L1.11,86.39C1.18,86.49,1.25,86.58,1.34,86.66z"
         id="path944" />
      <path
         fill="#CDCDCD"
         d="M1.11,86.39l10.14-10.14h-0.5l-9.82,9.82C0.98,86.18,1.04,86.29,1.11,86.39z"
         id="path945" />
      <path
         fill="#D2D2D2"
         d="M0.93,86.07l9.82-9.82h-0.5L0.8,85.7C0.83,85.83,0.88,85.95,0.93,86.07z"
         id="path946" />
      <path
         fill="#D7D7D7"
         d="M10.25,76.25h-0.5l-9,9c0,0.15,0.02,0.3,0.05,0.45L10.25,76.25z"
         id="path947" />
      <path
         fill="#F6F6F6"
         d="M63.25,78.25V2.75c0-1.1-0.9-2-2-2h-50.5c-1.1,0-2,0.9-2,2v75.5c0,1.1,0.9,2,2,2h50.5C62.35,80.25,63.25,79.35,63.25,78.25z"
         id="path948" />
      <path
         fill="#FFFFFF"
         d="M8.75,78.25V2.75c0-1.1,0.9-2,2-2h-1c-1.1,0-2,0.9-2,2v75.5c0,1.1,0.9,2,2,2h1C9.65,80.25,8.75,79.35,8.75,78.25z"
         id="path949" />
    </g>
  </defs>
  <metadata
     id="metadata8104">
    <rdf:RDF
       id="RDF8105">
      <cc:Work
         rdf:about=""
         id="Work8106">
        <dc:format
           id="format8107">image/svg+xml</dc:format>
        <dc:type
           id="type8109"
           rdf:resource="http://purl.org/dc/dcmitype/StillImage" />
      </cc:Work>
    </rdf:RDF>
  </metadata>
  <path
     d="M 2.1976212,45.319455 C 3.1625552,45.904480 31.077707,52.933948 32.851323,52.592022 C 34.645931,52.270782 58.074943,32.660219 58.989057,30.939784 C 59.765015,29.644520 59.907345,27.662431 58.989057,26.963596 C 57.784877,26.212403 31.679645,20.822573 29.977448,21.343918 C 28.220845,21.840101 2.6924369,38.602153 1.7870744,39.855643 C 0.91908407,41.037207 1.4447099,44.734129 2.1976212,45.319455 z "
     style="font-size:12.000000;opacity:0.30267498;fill-rule:evenodd;stroke-width:12.500000;"
     id="path776"
     sodipodi:nodetypes="ccccccc"
     transform="matrix(1.021998,0.000000,0.000000,1.818841,-0.937134,-35.67848)" />
  <path
     d="M 2.6932141,42.767704 C 3.6126394,43.325133 30.211247,50.023073 31.901216,49.697178 C 33.611184,49.391277 55.935229,30.705508 56.806233,29.066212 C 57.545594,27.832035 57.681213,26.192320 56.806233,25.526454 C 55.658842,24.810776 30.784795,19.675046 29.162879,20.171901 C 27.489120,20.644685 3.1646930,36.616194 2.3020298,37.810478 C 1.4749760,38.936314 1.9758121,42.209883 2.6932141,42.767704 z "
     style="font-size:12.000000;fill:url(#linearGradient566);fill-rule:evenodd;stroke:#261933;stroke-width:1.3752412;stroke-miterlimit:4.0000000;stroke-linejoin:round;stroke-linecap:round;stroke-dasharray:none;"
     id="path679"
     sodipodi:nodetypes="ccccccc"
     transform="matrix(1.021998,0.000000,0.000000,1.818841,-0.937134,-35.67848)" />
  <path
     fill="#101040"
     d="M 30.188712,24.441035 L 32.360731,21.606597 L 34.431971,22.934633 L 35.095254,21.759542 L 32.859297,20.934486 L 34.753845,18.380462 C 35.729510,19.312589 36.728315,20.400806 37.636033,21.143605 C 39.463040,22.707248 32.411830,27.062600 32.411830,27.062600 C 32.411830,27.062600 44.501668,26.028074 39.592845,19.816636 C 38.965541,19.351308 37.330805,18.277604 35.696070,17.203900 L 36.992340,15.456410 L 40.984413,17.097895 L 37.657094,14.560261 L 38.986601,12.767964 L 38.055541,9.7155784 L 35.387899,13.780013 L 32.698185,13.660306 L 34.867666,14.574977 L 33.893675,16.075290 C 33.020666,15.566626 32.270509,15.079630 31.800767,14.870106 C 25.916684,12.033535 26.531958,22.909361 26.531958,22.909361 C 26.531958,22.909361 29.392938,15.306813 31.841362,16.220012 C 32.344342,16.384730 32.747609,16.683869 33.240491,17.049483 L 31.093082,20.318954 L 29.449720,19.725090 L 30.860418,20.632606 L 29.587288,22.536186 C 21.443245,24.900017 15.242768,23.426394 15.242768,23.426394 C 15.242768,23.426394 20.178741,26.323757 28.159539,24.741848 L 22.392165,33.453214 C 21.232856,31.551308 20.452202,29.513508 20.452202,29.513508 C 20.452202,29.513508 19.167705,33.492540 20.455753,36.531886 L 24.077594,35.675927 C 23.695995,35.253935 23.302827,34.753898 22.942896,34.209054 L 29.314434,25.806926 C 29.460628,28.138181 29.857145,33.503098 30.900757,34.624553 L 35.930556,36.271721 C 34.561723,34.839558 30.957796,26.400789 30.188712,24.441035 z "
     id="path5645"
     style="opacity:0.29999998;fill:#000000;fill-opacity:1.0000000;stroke:none;stroke-width:0.52302498;stroke-linecap:round;stroke-linejoin:bevel;stroke-miterlimit:4.0000000;stroke-opacity:1.0000000;"
     transform="matrix(1.075397,0.000000,0.000000,1.045035,-1.575577,-2.047936)" />
  <path
     d="M 3.9508545,41.862214 C 3.6909906,41.328567 3.3327526,38.929586 4.2320438,38.904536 C 5.6091437,38.862404 29.721379,44.786327 29.945247,45.246006 C 30.156007,45.678789 9.6814031,39.822037 5.2276730,40.235011 C 3.9564773,40.341509 4.1256376,42.221119 3.9508545,41.862214 z "
     style="font-size:12.000000;opacity:0.69999999;fill:url(#linearGradient569);fill-rule:evenodd;stroke:none;stroke-width:0.10669100pt;"
     id="path680"
     sodipodi:nodetypes="ccccc"
     transform="matrix(1.021998,0.000000,0.000000,1.818841,-0.937134,-35.67848)" />
  <path
     d="M 31.753404,48.469973 C 31.422457,48.184558 30.476421,45.705511 31.433582,44.666095 C 32.390743,43.626679 54.149731,27.779292 54.459225,28.046264 C 54.758230,28.304201 34.504654,43.567618 33.536459,44.871270 C 32.613032,46.114644 32.030958,47.631694 31.753404,48.469973 z "
     style="font-size:12.000000;opacity:0.69999999;fill:url(#linearGradient575);fill-rule:evenodd;stroke:none;stroke-width:0.10669100pt;"
     id="path683"
     sodipodi:nodetypes="czczc"
     transform="matrix(1.021998,0.000000,0.000000,1.818841,-0.937134,-35.67848)" />
  <path
     fill="#101040"
     d="M 29.669754,22.807702 L 31.841773,19.973264 L 33.913013,21.301300 L 34.576296,20.126209 L 32.340339,19.301153 L 34.234887,16.747129 C 35.210552,17.679256 36.209357,18.767473 37.117075,19.510272 C 38.944082,21.073915 31.892872,25.429267 31.892872,25.429267 C 31.892872,25.429267 43.982710,24.394741 39.073887,18.183303 C 38.446583,17.717975 36.811847,16.644271 35.177112,15.570567 L 36.473382,13.823077 L 40.465455,15.464562 L 37.138136,12.926928 L 38.467643,11.134631 L 37.536583,8.0822452 L 34.868941,12.146680 L 32.179227,12.026973 L 34.348708,12.941644 L 33.374717,14.441957 C 32.501708,13.933293 31.751551,13.446297 31.281809,13.236773 C 25.397726,10.400202 26.013000,21.276028 26.013000,21.276028 C 26.013000,21.276028 28.873980,13.673480 31.322404,14.586679 C 31.825384,14.751397 32.228651,15.050536 32.721533,15.416150 L 30.574124,18.685621 L 28.930762,18.091757 L 30.341460,18.999273 L 29.068330,20.902853 C 20.924287,23.266684 14.723810,21.793061 14.723810,21.793061 C 14.723810,21.793061 19.659783,24.690424 27.640581,23.108515 L 21.873207,31.819881 C 20.713898,29.917975 19.933244,27.880175 19.933244,27.880175 C 19.933244,27.880175 18.648747,31.859207 19.936795,34.898553 L 23.558636,34.042594 C 23.177037,33.620602 22.783869,33.120565 22.423938,32.575721 L 28.795476,24.173593 C 28.941670,26.504848 29.338187,31.869765 30.381799,32.991220 L 35.411598,34.638388 C 34.042765,33.206225 30.438838,24.767456 29.669754,22.807702 z "
     id="path1366"
     style="fill:#261933;fill-opacity:1.0000000;stroke:#261933;stroke-width:0.48459944;stroke-linecap:round;stroke-linejoin:bevel;stroke-miterlimit:4.0000000;stroke-opacity:1.0000000;"
     transform="matrix(1.075397,0.000000,0.000000,1.045035,-1.575577,-2.047936)" />
  <path
     d="M 5.0356293,37.618304 C 5.0799172,37.243869 28.341903,21.542236 29.940616,21.397103 C 31.595054,21.258761 54.889124,26.069370 54.845728,26.436726 C 54.802237,26.804370 35.901429,22.962520 29.864214,24.270192 C 24.368608,25.488740 4.9929919,37.978764 5.0356293,37.618304 z "
     style="font-size:12.000000;opacity:0.69999999;fill:url(#linearGradient573);fill-rule:evenodd;stroke:none;stroke-width:0.10669100pt;"
     id="path682"
     sodipodi:nodetypes="ccccc"
     transform="matrix(1.021998,0.000000,0.000000,1.818841,-0.937134,-35.67848)" />
</svg>
