<?xml version="1.0" encoding="UTF-8" standalone="no"?>
<!DOCTYPE svg PUBLIC "-//W3C//DTD SVG 20010904//EN"
"http://www.w3.org/TR/2001/REC-SVG-20010904/DTD/svg10.dtd">
<!-- Created with Inkscape (http://www.inkscape.org/) -->
<svg
   version="1.0"
   x="0.0000000"
   y="0.0000000"
   width="60.000000"
   height="60.000000"
   id="svg867"
   sodipodi:version="0.32"
   inkscape:version="0.39"
   sodipodi:docname="gnome-emacs.svg"
   sodipodi:docbase="/home/stefan/software/Lila-themes/lila-gnome/Lila/scalable/apps"
   xmlns="http://www.w3.org/2000/svg"
   xmlns:cc="http://web.resource.org/cc/"
   xmlns:inkscape="http://www.inkscape.org/namespaces/inkscape"
   xmlns:sodipodi="http://sodipodi.sourceforge.net/DTD/sodipodi-0.dtd"
   xmlns:rdf="http://www.w3.org/1999/02/22-rdf-syntax-ns#"
   xmlns:dc="http://purl.org/dc/elements/1.1/"
   xmlns:xlink="http://www.w3.org/1999/xlink">
  <sodipodi:namedview
     id="base"
     pagecolor="#ffffff"
     bordercolor="#666666"
     borderopacity="1.0"
     inkscape:pageopacity="0.0"
     inkscape:pageshadow="2"
     inkscape:zoom="5.5831973"
     inkscape:cx="24.000030"
     inkscape:cy="24.000005"
     inkscape:window-width="640"
     inkscape:window-height="526"
     inkscape:window-x="499"
     inkscape:window-y="214" />
  <defs
     id="defs869">
    <linearGradient
       id="linearGradient902">
      <stop
         style="stop-color:#c7b397;stop-opacity:1.0000000;"
         offset="0.0000000"
         id="stop903" />
      <stop
         style="stop-color:#faebdc;stop-opacity:1.0000000;"
         offset="1.0000000"
         id="stop904" />
    </linearGradient>
    <linearGradient
       id="linearGradient897">
      <stop
         style="stop-color:#ffffff;stop-opacity:1.0000000;"
         offset="0.0000000"
         id="stop898" />
      <stop
         style="stop-color:#ffffff;stop-opacity:0.0000000;"
         offset="1.0000000"
         id="stop899" />
    </linearGradient>
    <linearGradient
       id="linearGradient850">
      <stop
         style="stop-color:#73667f;stop-opacity:1.0000000;"
         offset="0.0000000"
         id="stop851" />
      <stop
         style="stop-color:#d9cce6;stop-opacity:1.0000000;"
         offset="1.0000000"
         id="stop852" />
    </linearGradient>
    <linearGradient
       id="linearGradient895">
      <stop
         style="stop-color:#0000ff;stop-opacity:1.0000000;"
         offset="0.0000000"
         id="stop896" />
      <stop
         style="stop-color:#0000cc;stop-opacity:1.0000000;"
         offset="1.0000000"
         id="stop897" />
    </linearGradient>
    <linearGradient
       id="linearGradient873">
      <stop
         style="stop-color:#ffffff;stop-opacity:1.0000000;"
         offset="0.0000000"
         id="stop874" />
      <stop
         style="stop-color:#d9cce6;stop-opacity:1.0000000;"
         offset="1.0000000"
         id="stop875" />
    </linearGradient>
    <linearGradient
       x1="0.028985493"
       y1="0.96093750"
       x2="1.3115944"
       y2="-0.16406250"
       id="linearGradient876"
       xlink:href="#linearGradient902" />
    <linearGradient
       x1="0.36000001"
       y1="0.46093750"
       x2="1.2800000"
       y2="1.0468750"
       id="linearGradient878"
       xlink:href="#linearGradient850" />
    <linearGradient
       x1="0.28571430"
       y1="0.35156250"
       x2="0.48571429"
       y2="0.57031250"
       id="linearGradient894"
       xlink:href="#linearGradient902" />
    <linearGradient
       x1="-0.26966292"
       y1="0.015625000"
       x2="0.82584268"
       y2="0.77343750"
       id="linearGradient847"
       xlink:href="#linearGradient897" />
    <linearGradient
       x1="0.083333336"
       y1="0.11718750"
       x2="0.85000002"
       y2="0.81250000"
       id="linearGradient848"
       xlink:href="#linearGradient850" />
    <linearGradient
       x1="0.55769229"
       y1="0.64062500"
       x2="0.51923078"
       y2="0.13281250"
       id="linearGradient849"
       xlink:href="#linearGradient897" />
    <linearGradient
       x1="-1.8041124e-16"
       y1="0.50000000"
       x2="1.0000000"
       y2="0.50000000"
       id="linearGradient896"
       xlink:href="#linearGradient850" />
    <linearGradient
       x1="0.98611116"
       y1="0.99218750"
       x2="-0.42361113"
       y2="-0.21875000"
       id="linearGradient905"
       xlink:href="#linearGradient902" />
    <linearGradient
       x1="0.044281919"
       y1="0.070287913"
       x2="0.62431163"
       y2="0.50781220"
       id="linearGradient911"
       xlink:href="#linearGradient897" />
    <linearGradient
       x1="-0.34782609"
       y1="0.0078125000"
       x2="0.95652175"
       y2="0.82031250"
       id="linearGradient913"
       xlink:href="#linearGradient897" />
    <linearGradient
       id="linearGradient915"
       xlink:href="#linearGradient902"
       x1="0.28571430"
       y1="0.35156250"
       x2="0.48571429"
       y2="0.57031250" />
    <linearGradient
       x1="-0.059829060"
       y1="0.054687500"
       x2="0.61965811"
       y2="0.66406250"
       id="linearGradient919"
       xlink:href="#linearGradient897" />
    <linearGradient
       x1="-0.064705886"
       y1="0.015625000"
       x2="0.69411767"
       y2="0.75000000"
       id="linearGradient920"
       xlink:href="#linearGradient897" />
    <linearGradient
       x1="0.013888889"
       y1="-0.26744187"
       x2="0.92361110"
       y2="0.76744187"
       id="linearGradient921"
       xlink:href="#linearGradient897" />
    <defs
       id="defs882">
      <linearGradient
         id="linearGradient883">
        <stop
           style="stop-color:#5c4033;stop-opacity:1.0000000;"
           offset="0.0000000"
           id="stop884" />
        <stop
           style="stop-color:#cd7f32;stop-opacity:1.0000000;"
           offset="1.0000000"
           id="stop885" />
      </linearGradient>
      <linearGradient
         id="linearGradient886">
        <stop
           style="stop-color:#ffffff;stop-opacity:1.0000000;"
           offset="0.0000000"
           id="stop887" />
        <stop
           style="stop-color:#ffffff;stop-opacity:0.0000000;"
           offset="1.0000000"
           id="stop888" />
      </linearGradient>
      <linearGradient
         id="linearGradient889">
        <stop
           style="stop-color:#73667f;stop-opacity:1.0000000;"
           offset="0.0000000"
           id="stop890" />
        <stop
           style="stop-color:#d9cce6;stop-opacity:1.0000000;"
           offset="1.0000000"
           id="stop891" />
      </linearGradient>
      <linearGradient
         id="linearGradient892">
        <stop
           style="stop-color:#0000ff;stop-opacity:1.0000000;"
           offset="0.0000000"
           id="stop893" />
        <stop
           style="stop-color:#0000cc;stop-opacity:1.0000000;"
           offset="1.0000000"
           id="stop894" />
      </linearGradient>
      <linearGradient
         id="linearGradient898">
        <stop
           style="stop-color:#ffffff;stop-opacity:1.0000000;"
           offset="0.0000000"
           id="stop900" />
        <stop
           style="stop-color:#d9cce6;stop-opacity:1.0000000;"
           offset="1.0000000"
           id="stop901" />
      </linearGradient>
      <linearGradient
         x1="0.10144927"
         y1="0.90625000"
         x2="0.89855075"
         y2="0.30468750"
         id="linearGradient903"
         xlink:href="#linearGradient902" />
      <linearGradient
         x1="0.36000001"
         y1="0.46093750"
         x2="1.2800000"
         y2="1.0468750"
         id="linearGradient904"
         xlink:href="#linearGradient850" />
      <linearGradient
         x1="0.28571430"
         y1="0.35156250"
         x2="0.48571429"
         y2="0.57031250"
         id="linearGradient906"
         xlink:href="#linearGradient895" />
      <linearGradient
         x1="-0.26966292"
         y1="0.015625000"
         x2="0.82584268"
         y2="0.77343750"
         id="linearGradient907"
         xlink:href="#linearGradient897" />
      <linearGradient
         x1="0.083333336"
         y1="0.11718750"
         x2="0.85000002"
         y2="0.81250000"
         id="linearGradient908"
         xlink:href="#linearGradient850" />
      <linearGradient
         x1="0.55769229"
         y1="0.64062500"
         x2="0.51923078"
         y2="0.13281250"
         id="linearGradient909"
         xlink:href="#linearGradient897" />
      <linearGradient
         x1="-1.8041124e-16"
         y1="0.50000000"
         x2="1.0000000"
         y2="0.50000000"
         id="linearGradient910"
         xlink:href="#linearGradient850" />
      <linearGradient
         x1="0.90277779"
         y1="0.89843750"
         x2="0.076388888"
         y2="0.18750000"
         id="linearGradient912"
         xlink:href="#linearGradient902" />
      <linearGradient
         x1="0.044281919"
         y1="0.070287913"
         x2="0.62431163"
         y2="0.50781220"
         id="linearGradient914"
         xlink:href="#linearGradient897" />
      <linearGradient
         x1="-0.34782609"
         y1="0.0078125000"
         x2="0.95652175"
         y2="0.82031250"
         id="linearGradient916"
         xlink:href="#linearGradient897" />
      <linearGradient
         x1="0.0058823531"
         y1="0.0078125000"
         x2="1.0000000"
         y2="0.96875000"
         id="linearGradient917"
         xlink:href="#linearGradient897" />
      <linearGradient
         x1="-0.059829060"
         y1="0.054687500"
         x2="0.61965811"
         y2="0.66406250"
         id="linearGradient918"
         xlink:href="#linearGradient897" />
      <linearGradient
         x1="-0.064705886"
         y1="0.015625000"
         x2="0.69411767"
         y2="0.75000000"
         id="linearGradient922"
         xlink:href="#linearGradient897" />
      <linearGradient
         x1="0.013888889"
         y1="-0.26744187"
         x2="0.92361110"
         y2="0.76744187"
         id="linearGradient923"
         xlink:href="#linearGradient897" />
    </defs>
  </defs>
  <path
     d="M 16.153583,29.151152 C 17.177082,27.308854 17.323957,23.134818 19.940531,21.474906 C 22.197339,19.984942 25.467428,19.700841 28.230877,18.813808 C 25.910945,20.007890 22.437738,21.607780 20.349931,23.214855 C 18.661305,24.453921 17.620599,27.615903 16.153583,29.151152 z "
     style="fill:url(#linearGradient847);fill-rule:evenodd;stroke-width:1.0000000pt;"
     id="path909" />
  <path
     d="M 24.648629,29.151152 C 23.795712,31.368735 22.271919,33.546619 22.089880,35.803899 C 21.930753,37.777084 23.932179,43.207212 24.853329,45.117745 C 24.239229,43.070745 22.848106,37.721792 23.011029,35.701550 C 23.189273,33.491327 24.102762,31.334618 24.648629,29.151152 z "
     style="fill:url(#linearGradient913);fill-rule:evenodd;stroke-width:1.0000000pt;"
     id="path912" />
  <path
     d="M 7.0444367,11.342260 C 7.8291197,9.9093613 8.4602777,8.5105787 10.421985,6.5318130 C 12.486043,4.5530473 14.754800,4.5530472 16.870032,3.8707142 C 15.130084,4.7918637 13.100143,5.6788967 11.650184,6.7365128 C 10.200226,7.7941290 8.2044028,10.148178 7.0444367,11.342260 z "
     style="fill:url(#linearGradient920);fill-rule:evenodd;stroke-width:1.0000000pt;"
     id="path914" />
  <path
     d="M 20.452280,16.920334 C 21.134613,15.385085 22.686921,13.986302 24.546279,12.519286 C 26.405637,10.949919 28.674394,11.256970 30.584926,11.802836 C 28.435578,11.905186 27.531485,11.973420 25.058028,13.133387 C 22.993970,14.293353 22.021647,15.623901 20.452280,16.920334 z "
     style="fill:url(#linearGradient919);fill-rule:evenodd;stroke-width:1.0000000pt;"
     id="path916" />
  <path
     d="M 35.674648,14.374446 C 35.904890,13.169377 35.954587,12.761993 36.828273,12.379649 C 37.709417,11.989848 40.649337,12.996920 42.662220,14.156885 C 40.329788,13.383371 37.848836,13.219345 37.447019,13.277130 C 37.045203,13.327459 36.419053,13.515946 35.674648,14.374446 z "
     style="fill:url(#linearGradient921);fill-rule:evenodd;stroke-width:1.0000000pt;"
     id="path917" />
  <path
     d="M 45.779247,6.6489314 C 46.964467,5.5523711 49.095534,4.7700657 50.772996,4.3409236 C 52.461158,3.9117816 53.480856,4.3453911 55.718864,5.8081918 C 53.505318,5.2336486 52.167617,5.3246883 51.601522,5.3504824 C 51.024728,5.3762764 49.167568,5.0315065 45.779247,6.6489314 z "
     style="fill:url(#linearGradient919);fill-rule:evenodd;stroke-width:1.0000000pt;"
     id="path922" />
  <path
     d="M 16.266178,2.5120411 C 15.122728,2.6033601 13.983703,2.8343286 12.975041,3.1887235 C 11.097411,3.8484311 9.2185283,5.2519343 7.9306813,6.7874438 C 6.4815333,8.5152740 5.3807603,10.786902 4.7625773,12.969861 C 4.2578913,14.752035 4.3135663,16.809992 4.5472693,18.660145 C 4.7346413,20.143510 5.2604233,21.710026 6.0236673,22.997064 C 7.0499973,24.727737 8.3466613,26.597106 9.9299700,27.733841 C 10.933674,28.454449 12.353017,28.577089 13.651724,28.779623 C 13.496615,29.603722 13.392455,31.712519 13.190349,32.132277 C 12.962266,32.605988 13.268753,33.315402 12.882766,33.947016 C 12.496779,34.578632 11.150981,35.455050 10.852718,35.946305 C 10.554456,36.437560 10.494585,36.359842 9.7761790,37.607253 C 10.952744,37.352985 10.630940,37.610926 11.929258,37.207395 C 12.328775,37.083221 14.358661,36.248750 16.204662,35.515689 C 16.251030,36.147623 16.273865,36.680538 16.327695,37.361187 C 16.317887,38.257663 16.286757,39.167062 16.327695,39.944883 C 16.380018,40.939013 16.538938,41.879608 16.727553,42.836163 C 16.741459,43.018073 17.177191,44.503277 17.281202,44.835452 C 17.654734,45.887900 18.042446,46.927888 18.480775,47.942039 C 20.459133,50.182470 21.941074,52.855307 25.216842,54.954930 C 27.635736,56.300634 29.142807,55.727116 30.691818,56.062229 C 30.790613,56.078568 30.811114,56.077449 30.907126,56.092987 C 32.098180,57.343894 33.302832,58.551987 33.921438,58.984266 C 35.377660,59.896598 38.307320,59.485062 38.658215,59.414883 C 39.009112,59.344703 37.783112,59.159715 37.397125,58.984266 C 37.011139,58.808818 36.544336,58.702454 36.351344,58.369101 C 36.158350,58.035749 36.245856,57.213059 36.228310,56.984977 C 36.212600,56.780745 36.367532,55.996239 36.689685,55.385546 C 36.697072,55.371544 36.712815,55.368622 36.720443,55.354788 C 36.722703,55.345706 36.718253,55.333115 36.720443,55.324030 C 36.746393,55.278570 36.722499,55.244049 36.751201,55.200996 C 37.172277,54.569383 38.267677,54.132681 38.565941,53.816873 C 38.864203,53.501066 40.034114,52.537141 40.349922,51.940617 C 40.665729,51.344093 40.494830,50.740167 40.442196,50.248911 C 40.389562,49.757656 40.024793,49.391351 40.042339,48.987821 C 40.059883,48.584290 39.262085,47.933253 36.966509,47.942039 C 37.229682,47.643777 41.049576,47.361745 41.611012,47.203840 C 42.172446,47.045937 43.496808,47.229609 43.917884,46.896257 C 44.338960,46.562905 44.115646,45.730898 44.133192,45.204551 C 44.150736,44.678207 43.830377,44.131684 44.040917,43.728153 C 44.251455,43.324622 45.043385,43.143089 45.394282,42.774646 C 45.745178,42.406204 46.272838,41.969720 46.132481,41.513556 C 45.992122,41.057391 44.721710,40.440691 44.563808,40.037158 C 44.405904,39.633627 44.810532,39.504728 45.178974,39.083651 C 45.547415,38.662575 46.409964,37.988690 46.778405,37.514978 C 47.146847,37.041268 47.358482,37.008316 47.393571,36.253888 C 47.428661,35.499461 47.191037,33.590035 46.962954,32.993509 C 46.734872,32.396984 46.513915,32.637623 46.040206,32.655168 C 45.566496,32.672712 44.571812,33.191053 44.133192,33.085784 C 43.694570,32.980515 43.500263,32.285629 43.394993,32.040002 C 43.289723,31.794375 43.504811,32.012917 43.487267,31.609386 C 43.469723,31.205855 43.117457,30.341535 43.056651,29.763888 C 42.995847,29.186243 42.485709,29.453478 42.595277,26.872609 C 43.378956,28.934581 43.694822,29.191346 44.440774,29.825405 C 45.098409,30.384395 45.954125,30.817020 46.778405,31.086495 C 47.778787,31.413543 48.857620,31.526396 49.915751,31.609386 C 50.647193,31.666754 51.534750,31.769093 52.130348,31.517111 C 52.447082,31.383108 52.707376,30.701200 53.022338,29.825405 C 52.300424,30.102392 51.627297,30.379325 51.392149,30.040713 C 50.750053,29.116096 50.629437,27.700791 50.038784,26.657301 C 49.917664,26.443322 51.529878,26.133733 52.437931,25.919102 C 53.364700,25.700048 54.317105,25.232540 55.083144,24.658012 C 56.001410,23.969312 56.924191,23.117262 57.513049,22.135832 C 58.292688,20.836432 58.888696,19.323302 59.173997,17.829671 C 59.485220,16.200322 59.375082,14.463387 59.297030,12.785311 C 59.234721,11.445674 59.254037,10.009701 58.774139,8.7867328 C 58.166258,7.2376165 57.269782,5.4988951 56.036651,4.4498135 C 54.918773,3.4987836 53.152644,2.8326156 51.699732,2.7581074 C 50.415647,2.6922569 49.117264,3.6133323 47.824187,4.0499557 C 46.415358,4.5256640 44.982894,5.3430848 43.610301,5.4955955 C 43.088053,5.5536229 42.701672,5.4154806 42.133903,4.6651216 C 42.025196,5.1289928 41.930599,5.5008523 42.041628,5.8339367 C 42.141138,6.1324664 42.453025,6.4048063 42.749068,6.5721357 C 43.260086,6.8609719 43.853451,7.1195335 44.440774,7.1873016 C 45.678114,7.3300714 46.999318,7.0058610 48.224044,7.1873016 C 48.894163,7.2865783 49.565173,7.6661797 50.131059,8.0485338 C 50.863493,8.5434217 51.588221,9.1408378 52.130348,9.8325143 C 52.605823,10.439155 53.008140,11.175764 53.176130,11.924079 C 53.394127,12.895159 53.360982,13.959461 53.299163,14.969150 C 53.255711,15.678855 53.174420,16.464435 52.868547,17.091472 C 52.472625,17.903111 51.833244,18.698286 51.176841,19.306069 C 50.885825,19.575528 50.428337,19.762654 50.038784,19.736685 C 49.375648,19.692476 48.553557,19.526596 48.039495,19.090761 C 46.939432,18.158099 46.156958,16.746466 45.178974,15.615074 C 44.367384,14.676175 43.614512,13.647181 42.656794,12.877586 C 41.649490,12.068146 40.486077,11.781687 39.304140,11.308913 C 38.731592,11.079894 38.023547,10.748057 37.397125,10.786022 C 36.865589,10.818236 36.311668,10.884211 35.828453,11.093605 C 35.258977,11.340378 34.597207,11.684569 34.229021,12.139387 C 34.000683,12.421453 33.923774,12.966441 34.013713,13.308202 C 34.055483,13.466923 34.181302,13.924797 34.413571,14.477017 C 34.269699,14.459207 34.126827,14.433311 33.982955,14.415500 C 33.981987,14.395186 34.015749,14.373934 34.013713,14.353984 C 33.915444,13.390969 33.084153,12.145618 32.229732,11.524221 C 31.154221,10.742030 29.594302,10.367289 28.231154,10.140097 C 27.278383,9.9813023 26.132094,9.9403953 25.278358,10.355405 C 23.605638,11.168534 22.016840,12.478867 20.664614,13.831093 C 19.174577,15.321130 18.271737,17.452380 16.758311,18.875453 C 15.920730,19.663029 14.595436,20.444126 13.590207,20.444126 C 12.840953,20.444125 11.908511,19.592721 11.498642,18.875453 C 10.925999,17.873328 10.668168,16.503088 10.668168,15.307491 C 10.668168,14.011721 10.892184,12.532151 11.498642,11.401188 C 12.190501,10.110964 13.365467,8.9471970 14.543714,8.0485338 C 15.435758,7.3681615 16.634736,7.0234381 17.711818,6.6644106 C 18.108502,6.5321825 18.553108,6.5404527 18.972908,6.5721357 C 20.412860,6.6808115 21.843259,7.0732720 23.279069,7.0950267 C 24.159177,7.1083617 25.246990,7.0901374 25.924282,6.6644106 C 26.475129,6.3181644 26.946671,5.0922653 26.970064,4.7881547 C 26.558919,5.2401623 26.353936,5.2045052 26.016557,5.3110457 C 25.687232,5.4150431 25.290434,5.5343284 24.970775,5.4033206 C 23.149964,4.6570863 21.520087,3.0160636 19.618832,2.6658325 C 18.569348,2.4725065 17.409629,2.4207220 16.266178,2.5120411 z "
     style="fill-opacity:0.29999998;fill-rule:evenodd;stroke-width:1.8750000;"
     id="path880" />
  <path
     d="M 29.844021,34.211439 C 25.216638,33.916812 18.821490,32.270365 14.194107,31.975738 C 14.339546,34.729504 14.811274,39.996800 15.012252,42.739501 C 15.590909,44.250409 16.073583,45.818044 16.711484,47.293937 C 18.721469,49.570185 20.227440,52.277872 23.555575,54.411060 C 26.013137,55.778277 27.542346,55.188124 29.116119,55.528594 C 33.198027,56.203702 34.930248,56.213855 35.251300,54.800693 C 35.794521,52.617588 34.350087,50.329288 34.939342,45.441939"
     style="fill:url(#linearGradient878);fill-rule:evenodd;stroke-width:1.9049748;stroke:#261933;stroke-opacity:1.0000000;stroke-dasharray:none;"
     id="path907"
     transform="matrix(0.984265,0.000000,0.000000,0.984265,-1.096300,0.318982)" />
  <path
     d="M 22.343750,11.968750 C 22.343750,11.968750 21.562732,15.165838 21.062500,17.125000 C 13.495841,19.338229 13.466619,25.148295 13.468750,25.593750 C 13.470979,26.059437 11.973039,27.152184 11.875000,27.375000 C 11.678921,27.820633 11.575479,30.737467 11.343750,31.218750 C 11.112021,31.700034 11.423407,32.420789 11.031250,33.062500 C 10.639093,33.704213 9.2717803,34.594641 8.9687500,35.093750 C 8.6657196,35.592858 8.6048916,35.513898 7.8750000,36.781250 C 9.0703749,36.522917 8.7434270,36.784982 10.062500,36.375000 C 10.722037,36.170009 16.269385,34.012645 17.125000,33.593750 C 17.714512,33.305134 20.432320,28.781770 20.818403,28.549068 C 20.839746,28.819777 18.123435,33.747155 18.187500,33.906250 C 18.217158,37.290124 18.977130,40.824256 20.875542,43.738681 C 22.978959,46.757090 23.230893,48.401235 25.031250,50.593750 C 26.724654,52.893215 30.926748,57.466132 32.406250,58.500000 C 33.885751,59.426916 36.862245,59.008801 37.218750,58.937500 C 37.575256,58.866199 36.329657,58.678253 35.937500,58.500000 C 35.545343,58.321747 35.071078,58.213682 34.875000,57.875000 C 34.678921,57.536319 34.767826,56.700478 34.750000,56.468750 C 34.732175,56.237021 34.853444,55.297963 35.281250,54.656250 C 35.709057,54.014539 36.821968,53.570856 37.125000,53.250000 C 37.428030,52.929144 38.616644,51.949810 38.937500,51.343750 C 39.258356,50.737689 39.084725,50.124109 39.031250,49.625000 C 38.977774,49.125891 38.607174,48.753731 38.625000,48.343750 C 38.642825,47.933768 37.832273,47.272323 35.500000,47.281250 C 35.767380,46.978220 39.648339,46.691679 40.218750,46.531250 C 40.789160,46.370822 42.134693,46.557431 42.562500,46.218750 C 42.990308,45.880069 42.763424,45.034761 42.781250,44.500000 C 42.799075,43.965241 42.473595,43.409982 42.687500,43.000000 C 42.901404,42.590018 43.705994,42.405583 44.062500,42.031250 C 44.419006,41.656918 44.955101,41.213456 44.812500,40.750000 C 44.669898,40.286542 43.379177,39.659984 43.218750,39.250000 C 43.058322,38.840018 43.469419,38.709058 43.843750,38.281250 C 44.218081,37.853442 45.094419,37.168785 45.468750,36.687500 C 45.843082,36.206217 46.058100,36.172738 46.093750,35.406250 C 46.129401,34.639762 45.887979,32.699812 45.656250,32.093750 C 45.424521,31.487689 45.200032,31.732175 44.718750,31.750000 C 44.237467,31.767825 43.226882,32.294452 42.781250,32.187500 C 42.335617,32.080548 42.138203,31.374554 42.031250,31.125000 C 41.924298,30.875446 42.142824,31.097482 42.125000,30.687500 C 42.107175,30.277518 41.747765,29.410806 41.685987,28.823925 C 41.624210,28.237045 41.118855,28.485702 41.230175,25.863575 C 42.026382,27.958510 42.335873,28.230805 43.093750,28.875000 C 43.761898,29.442926 44.631293,29.882467 45.468750,30.156250 C 46.485125,30.488526 47.581204,30.603183 48.656250,30.687500 C 49.399385,30.745785 50.301131,30.849760 50.906250,30.593750 C 51.228048,30.457605 51.492503,29.764796 51.812500,28.875000 C 51.079045,29.156415 50.395157,29.437775 50.156250,29.093750 C 49.503890,28.154352 49.381346,26.716422 48.781250,25.656250 C 48.311829,24.826939 47.430410,24.259019 46.937500,23.437500 C 46.040038,21.941730 45.660232,20.024646 44.593750,18.718750 C 43.913351,17.885608 42.750668,17.363083 41.718750,17.000000 C 41.305374,16.854553 40.827169,16.873228 40.375000,16.843750 C 40.021949,15.996001 39.505605,15.051709 38.500000,13.968750 C 33.114583,13.302083 27.729167,12.635417 22.343750,11.968750 z "
     style="fill:url(#linearGradient848);fill-rule:evenodd;stroke:#261933;stroke-width:1.9049748;stroke-dasharray:none;"
     id="path894"
     transform="matrix(0.984265,0.000000,0.000000,0.984265,-1.096300,0.318982)" />
  <path
     d="M 40.962565,24.705883 C 40.962833,24.115032 40.436031,23.635923 39.786095,23.635923 C 39.136158,23.635923 38.609356,24.115032 38.609624,24.705883 C 38.609356,25.296734 39.136158,25.775843 39.786094,25.775843 C 40.436031,25.775843 40.962833,25.296734 40.962565,24.705883 z "
     transform="matrix(1.100032,0.000000,0.000000,1.100032,-5.807495,-2.541152)"
     style="fill:url(#linearGradient894);fill-rule:evenodd;stroke:#000000;stroke-width:0.37500000;"
     id="path898" />
  <path
     d="M 40.748663,3.3155080 C 41.325511,4.0778623 41.715393,4.2300781 42.245989,4.1711230 C 43.640527,4.0161743 45.092714,3.1571098 46.524064,2.6737968 C 47.837812,2.2301935 49.176671,1.3234711 50.481283,1.3903743 C 51.957420,1.4660736 53.730562,2.1353710 54.866310,3.1016043 C 56.119154,4.1674566 57.029460,5.9127503 57.647059,7.4866310 C 58.134630,8.7291496 58.118513,10.189750 58.181818,11.550802 C 58.261116,13.255704 58.391065,15.029096 58.074866,16.684492 C 57.785005,18.202001 57.155739,19.749347 56.363636,21.069519 C 55.765365,22.066638 54.836689,22.936655 53.903743,23.636364 C 53.125459,24.220077 52.171532,24.697230 51.229947,24.919786 C 50.210748,25.160688 48.710171,25.624548 48.021390,25.026738 C 46.820688,23.984619 46.556587,21.550489 45.561497,20.000000 C 45.023611,19.161898 44.215045,18.460757 43.422460,17.860963 C 42.895972,17.462540 42.247071,17.174504 41.604278,17.005348 C 40.214985,16.639744 38.383882,16.871614 37.326203,16.256684 C 36.850905,15.980348 35.361398,16.177640 34.117647,15.080213 C 32.937156,14.038603 32.600247,12.415698 32.513369,12.085561 C 32.421994,11.738337 32.495284,11.195666 32.727273,10.909091 C 33.101344,10.447003 33.752972,10.090290 34.331551,9.8395722 C 34.822491,9.6268314 35.395795,9.5514459 35.935829,9.5187166 C 36.572265,9.4801447 37.279263,9.8207959 37.860963,10.053476 C 39.061794,10.533808 40.260016,10.835374 41.283422,11.657754 C 42.256450,12.439652 43.025703,13.484595 43.850267,14.438503 C 44.843885,15.587982 45.620319,17.020342 46.737968,17.967914 C 47.260248,18.410717 48.096316,18.564710 48.770053,18.609626 C 49.165835,18.636011 49.650856,18.455585 49.946524,18.181818 C 50.613423,17.564319 51.255503,16.760443 51.657754,15.935829 C 51.968516,15.298768 52.041415,14.517842 52.085561,13.796791 C 52.148367,12.770961 52.200092,11.681791 51.978610,10.695187 C 51.807936,9.9349102 51.392167,9.1724883 50.909091,8.5561497 C 50.358299,7.8534153 49.621148,7.2407672 48.877005,6.7379679 C 48.302075,6.3495016 47.632703,5.9832167 46.951872,5.8823529 C 45.707569,5.6980117 44.358724,6.0274051 43.101604,5.8823529 C 42.504891,5.8135014 41.909561,5.5340953 41.390374,5.2406417 C 41.089597,5.0706372 40.742812,4.7952807 40.641711,4.4919786 C 40.528908,4.1535695 40.638219,3.7867947 40.748663,3.3155080 z "
     style="fill:url(#linearGradient876);fill-rule:evenodd;stroke:#261933;stroke-width:1.9049748;stroke-dasharray:none;stroke-opacity:1.0000000;"
     id="path901"
     transform="matrix(0.984265,0.000000,0.000000,0.984265,-1.096300,0.318982)" />
  <path
     d="M 25.347594,3.4224599 C 24.929875,3.8816932 24.727799,3.8489756 24.385027,3.9572193 C 24.050437,4.0628793 23.640277,4.1972732 23.315508,4.0641711 C 21.465589,3.3060076 19.792611,1.6392524 17.860963,1.2834225 C 15.728440,0.89058928 13.172569,1.0980612 11.122995,1.8181818 C 9.2153496,2.4884356 7.2977393,3.8944891 5.9893048,5.4545455 C 4.5169905,7.2099971 3.4088140,9.5468503 2.7807487,11.764706 C 2.2679941,13.575371 2.3294054,15.660377 2.5668449,17.540107 C 2.7572128,19.047187 3.2887262,20.617521 4.0641711,21.925134 C 5.1069081,23.683475 6.4127699,25.583061 8.0213904,26.737968 C 9.1935185,27.579496 10.951108,27.629704 12.406417,27.914439 C 12.591036,27.950560 12.883722,27.872898 12.941176,27.700535 C 13.311529,26.589475 13.281997,25.222444 13.689840,24.064171 C 14.173263,22.691249 14.630438,21.107627 15.614973,20.106952 C 16.805126,18.897288 18.583689,18.081735 20.213904,17.433155 C 21.899197,16.762662 23.769049,16.338412 25.561497,16.149733 C 26.478496,16.053207 27.440139,16.679665 28.342246,16.577540 C 29.329622,16.465761 30.486577,16.117965 31.229947,15.508021 C 31.876952,14.977145 32.591784,13.923550 32.513369,13.155080 C 32.413531,12.176670 31.563267,10.898711 30.695187,10.267380 C 29.602482,9.4726855 28.015955,9.1078286 26.631016,8.8770053 C 25.663014,8.7156716 24.503748,8.6692641 23.636364,9.0909091 C 21.936903,9.9170360 20.304324,11.246478 18.930481,12.620321 C 17.416624,14.134178 16.510882,16.308189 14.973262,17.754011 C 14.122291,18.554178 12.786005,19.358289 11.764706,19.358289 C 11.003474,19.358289 10.042089,18.482746 9.6256684,17.754011 C 9.0438709,16.735866 8.7700535,15.332357 8.7700535,14.117647 C 8.7700535,12.801163 9.0095146,11.309471 9.6256684,10.160428 C 10.328588,8.8495784 11.530190,7.6509973 12.727273,6.7379679 C 13.633577,6.0467192 14.841528,5.7123606 15.935829,5.3475936 C 16.338854,5.2132519 16.792740,5.2084522 17.219251,5.2406417 C 18.682223,5.3510547 20.145515,5.7532986 21.604278,5.7754011 C 22.498456,5.7889493 23.589955,5.7801261 24.278075,5.3475936 C 24.837727,4.9958124 25.323827,3.7314320 25.347594,3.4224599 z "
     style="fill:url(#linearGradient905);fill-rule:evenodd;stroke:#261933;stroke-width:1.9049748;stroke-dasharray:none;stroke-opacity:1.0000000;"
     id="path900"
     transform="matrix(0.984265,0.000000,0.000000,0.984265,-1.096300,0.318982)" />
  <path
     d="M 38.823529,19.358289 C 38.502674,19.964350 38.074867,20.516935 37.860963,21.176471 C 37.647059,21.836008 37.361854,22.549020 37.540107,23.315508 C 37.718360,24.081996 38.395722,24.919786 38.930481,25.775401 C 39.465240,26.631016 40.285205,27.522282 40.748663,28.449198 C 41.212121,29.376114 41.390374,30.374331 41.711230,31.336898"
     style="fill:none;fill-rule:evenodd;stroke:#261933;stroke-width:0.50799327;stroke-dasharray:none;"
     id="path892"
     transform="matrix(0.984265,0.000000,0.000000,0.984265,-1.096300,0.318982)" />
  <path
     d="M 28.021390,36.042781 C 28.377896,36.221034 28.859995,36.265127 29.090909,36.577540 C 30.072116,37.905056 30.624928,39.646220 31.657754,40.962567 C 32.443110,41.963511 33.497621,42.874516 34.545455,43.529412 C 34.923646,43.765782 35.499218,43.756432 35.935829,43.636364 C 36.925242,43.364275 37.812330,42.495141 38.823529,42.352941 C 40.093970,42.174285 41.461676,42.566845 42.780749,42.673797"
     style="fill:none;fill-rule:evenodd;stroke:#261933;stroke-width:1.8750000;"
     id="path891"
     transform="matrix(0.984265,0.000000,0.000000,0.984265,-1.096300,0.318982)" />
  <path
     d="M 40.962565,24.705883 C 40.962833,24.115032 40.436031,23.635923 39.786095,23.635923 C 39.136158,23.635923 38.609356,24.115032 38.609624,24.705883 C 38.609356,25.296734 39.136158,25.775843 39.786094,25.775843 C 40.436031,25.775843 40.962833,25.296734 40.962565,24.705883 z "
     transform="matrix(1.100032,0.000000,0.000000,1.100032,-16.07123,-2.500904)"
     style="fill:url(#linearGradient915);fill-rule:evenodd;stroke:#000000;stroke-width:0.37500000;"
     id="path893" />
  <path
     d="M 40.327184,34.367379 C 38.890873,33.299353 37.500123,32.151216 36.018252,31.163302 C 35.621870,30.899047 35.196521,30.710862 34.741689,30.591169 C 34.496779,30.526719 33.902532,30.517220 33.653011,30.571464 C 33.055477,30.701363 32.573677,30.801232 32.151262,31.163302 C 31.800279,31.464145 31.534157,32.035003 31.372227,32.520792 C 31.276357,32.808401 31.318738,33.233826 31.377863,33.483496 C 31.479699,33.999512 31.687033,34.534398 31.930291,35.030292"
     style="fill:none;fill-rule:evenodd;stroke:#261933;stroke-width:0.50799327;stroke-dasharray:none;"
     id="path899"
     transform="matrix(0.984265,0.000000,0.000000,0.984265,-1.096300,0.318982)" />
  <path
     d="M 37.954938,33.535530 C 37.954938,32.530506 36.418584,31.715773 34.523395,31.715773 C 32.628207,31.715773 31.091853,32.530506 31.091853,33.535530 C 31.091853,34.540554 32.628207,35.355287 34.523395,35.355287 C 36.418584,35.355287 37.954938,34.540554 37.954938,33.535530 L 37.954938,33.535530 z "
     transform="matrix(0.852399,0.492132,-0.492132,0.852399,21.34263,-11.22539)"
     style="fill:url(#linearGradient896);fill-rule:evenodd;stroke:#261933;stroke-width:0.50799318;stroke-dasharray:none;"
     id="path915" />
  <path
     style="stroke-width:1.0000000pt;"
     id="path927"
     transform="matrix(0.984265,0.000000,0.000000,0.984265,-1.096300,0.318982)" />
  <path
     d="M 33.930577,58.055932 C 32.793182,57.779934 32.803662,57.781361 32.085321,57.019811 C 28.492093,53.535705 24.787771,49.169074 23.804371,46.940300 C 23.190523,45.201551 32.562581,47.355936 37.143295,48.354457 C 37.982496,48.571053 37.935536,49.679190 38.166740,50.339677 C 38.124077,51.078732 37.398621,51.841694 36.539805,52.525000 C 35.779030,53.165114 34.422609,53.777633 34.081627,54.937309 C 33.668221,56.375567 33.778127,56.565879 33.930577,58.055932 z "
     style="fill:url(#linearGradient849);fill-rule:evenodd;stroke-width:1.0000000pt;"
     id="path936"
     transform="matrix(0.984265,0.000000,0.000000,0.984265,-1.096300,0.318982)"
     sodipodi:nodetypes="cccccccc" />
  <path
     d="M 13.726170,27.868284 C 14.766031,25.996534 14.915254,21.755772 17.573657,20.069324 C 19.866543,18.555541 23.188908,18.266898 25.996534,17.365685 C 23.639515,18.578856 20.110785,20.204322 17.989602,21.837088 C 16.273981,23.095962 15.216638,26.308492 13.726170,27.868284 z "
     style="fill:url(#linearGradient847);fill-rule:evenodd;stroke-width:1.0000000pt;"
     id="path937"
     transform="matrix(0.984265,0.000000,0.000000,0.984265,-1.096300,0.318982)" />
  <path
     d="M 31.645850,33.335000 C 31.620620,32.832870 31.723890,31.790060 32.375630,31.251130 C 32.942920,30.785100 34.691970,30.657040 35.170260,31.052000 C 34.363050,30.934470 33.352490,31.334250 33.021720,31.584380 C 32.590650,31.897520 31.879020,32.708760 31.645850,33.335000 z "
     style="fill:url(#linearGradient911);fill-rule:evenodd;stroke-width:1.0000000pt;"
     id="path910"
     transform="matrix(0.984265,0.000000,0.000000,0.984265,-1.096300,0.318982)" />
  <path
     d="M 22.357019,27.868284 C 21.490468,30.121317 19.942315,32.334017 19.757366,34.627383 C 19.595695,36.632111 21.629116,42.149046 22.564992,44.090121 C 21.941075,42.010398 20.527713,36.575935 20.693241,34.523397 C 20.874334,32.277841 21.802426,30.086655 22.357019,27.868284 z "
     style="fill:url(#linearGradient913);fill-rule:evenodd;stroke-width:1.0000000pt;"
     id="path939"
     transform="matrix(0.984265,0.000000,0.000000,0.984265,-1.096300,0.318982)" />
  <path
     d="M 4.4714038,9.7746967 C 5.2686308,8.3188908 5.9098786,6.8977470 7.9029463,4.8873484 C 10.000000,2.8769498 12.305026,2.8769497 14.454073,2.1837088 C 12.686309,3.1195840 10.623917,4.0207972 9.1507799,5.0953206 C 7.6776429,6.1698440 5.6499133,8.5615251 4.4714038,9.7746967 z "
     style="fill:url(#linearGradient920);fill-rule:evenodd;stroke-width:1.0000000pt;"
     id="path940"
     transform="matrix(0.984265,0.000000,0.000000,0.984265,-1.096300,0.318982)" />
  <path
     d="M 18.093587,15.441942 C 18.786828,13.882150 20.363951,12.461006 22.253033,10.970538 C 24.142115,9.3760835 26.447141,9.6880425 28.388215,10.242635 C 26.204507,10.346621 25.285961,10.415946 22.772963,11.594456 C 20.675909,12.772965 19.688042,14.124784 18.093587,15.441942 z "
     style="fill:url(#linearGradient919);fill-rule:evenodd;stroke-width:1.0000000pt;"
     id="path941"
     transform="matrix(0.984265,0.000000,0.000000,0.984265,-1.096300,0.318982)" />
  <path
     d="M 33.559302,12.855355 C 33.793225,11.631021 33.843716,11.217125 34.731369,10.828669 C 35.626599,10.432636 38.613518,11.455807 40.658579,12.634316 C 38.288860,11.848436 35.768247,11.681788 35.360007,11.740497 C 34.951767,11.791630 34.315607,11.983131 33.559302,12.855355 z "
     style="fill:url(#linearGradient921);fill-rule:evenodd;stroke-width:1.0000000pt;"
     id="path942"
     transform="matrix(0.984265,0.000000,0.000000,0.984265,-1.096300,0.318982)" />
  <path
     d="M 43.825435,5.0063391 C 45.029602,3.8922490 47.194737,3.0974375 48.899015,2.6614351 C 50.614164,2.2254327 51.650163,2.6659740 53.923949,4.1521593 C 51.675016,3.5684313 50.315931,3.6609264 49.740786,3.6871328 C 49.154771,3.7133392 47.267922,3.3630577 43.825435,5.0063391 z "
     style="fill:url(#linearGradient919);fill-rule:evenodd;stroke-width:1.0000000pt;"
     id="path943"
     transform="matrix(0.984265,0.000000,0.000000,0.984265,-1.096300,0.318982)" />
  <metadata
     id="metadata89">
    <rdf:RDF
       id="RDF90">
      <cc:Work
         rdf:about=""
         id="Work91">
        <dc:format
           id="format92">image/svg+xml</dc:format>
        <dc:type
           id="type94"
           rdf:resource="http://purl.org/dc/dcmitype/StillImage" />
      </cc:Work>
    </rdf:RDF>
  </metadata>
</svg>
