<?xml version="1.0" encoding="UTF-8" standalone="no"?>
<!DOCTYPE svg PUBLIC "-//W3C//DTD SVG 20010904//EN"
"http://www.w3.org/TR/2001/REC-SVG-20010904/DTD/svg10.dtd">
<!-- Created with Inkscape (http://www.inkscape.org/) -->
<svg
   id="svg1"
   sodipodi:version="0.32"
   inkscape:version="0.37"
   width="48pt"
   height="48pt"
   sodipodi:docbase="/home/dan/Projects/Lila-icons/scalable/apps"
   sodipodi:docname="gnome-grecord.svg"
   xmlns="http://www.w3.org/2000/svg"
   xmlns:inkscape="http://www.inkscape.org/namespaces/inkscape"
   xmlns:sodipodi="http://sodipodi.sourceforge.net/DTD/sodipodi-0.dtd"
   xmlns:xlink="http://www.w3.org/1999/xlink">
  <defs
     id="defs3">
    <linearGradient
       id="linearGradient649">
      <stop
         style="stop-color:#ffffff;stop-opacity:1;"
         offset="0.00000000"
         id="stop650" />
      <stop
         style="stop-color:#d9cce6;stop-opacity:1;"
         offset="1.00000000"
         id="stop651" />
    </linearGradient>
    <linearGradient
       id="linearGradient584">
      <stop
         style="stop-color:#ffffff;stop-opacity:1;"
         offset="0.00000000"
         id="stop585" />
      <stop
         style="stop-color:#ffffff;stop-opacity:0;"
         offset="1.00000000"
         id="stop586" />
    </linearGradient>
    <linearGradient
       id="linearGradient578">
      <stop
         style="stop-color:#d9cce6;stop-opacity:1;"
         offset="0.00000000"
         id="stop579" />
      <stop
         style="stop-color:#73667f;stop-opacity:1;"
         offset="1.00000000"
         id="stop580" />
    </linearGradient>
    <linearGradient
       xlink:href="#linearGradient578"
       id="linearGradient581"
       x1="0.00000000"
       y1="-0.00000000"
       x2="0.99137932"
       y2="1.02343750" />
    <linearGradient
       xlink:href="#linearGradient649"
       id="linearGradient583"
       x1="-0.00000000"
       y1="-0.00000000"
       x2="0.99230760"
       y2="1.01562488" />
    <linearGradient
       xlink:href="#linearGradient584"
       id="linearGradient860"
       x1="0.00000000"
       y1="-0.00000000"
       x2="1.00000000"
       y2="0.98437500" />
    <linearGradient
       xlink:href="#linearGradient584"
       id="linearGradient861"
       x1="-0.00000000"
       y1="-0.00000000"
       x2="0.99358976"
       y2="1.00781250" />
    <linearGradient
       xlink:href="#linearGradient578"
       id="linearGradient862"
       x1="-0.00000000"
       y1="0.00000000"
       x2="1.00000000"
       y2="1.00781250" />
    <linearGradient
       xlink:href="#linearGradient584"
       id="linearGradient607"
       x1="-0.00000000"
       y1="-0.00000000"
       x2="0.98809522"
       y2="0.98437500" />
    <linearGradient
       xlink:href="#linearGradient584"
       id="linearGradient643"
       x1="0.00000000"
       y1="-0.00000000"
       x2="1.01315784"
       y2="0.98437500" />
    <linearGradient
       xlink:href="#linearGradient584"
       id="linearGradient646"
       x1="-0.00000000"
       y1="0.02272727"
       x2="1.00362325"
       y2="1.00000000" />
    <radialGradient
       xlink:href="#linearGradient649"
       id="radialGradient654" />
  </defs>
  <sodipodi:namedview
     id="base"
     pagecolor="#ffffff"
     bordercolor="#666666"
     borderopacity="1.0"
     inkscape:pageopacity="0.0"
     inkscape:pageshadow="2"
     inkscape:zoom="5.64233871"
     inkscape:cx="28.7317189"
     inkscape:cy="23.9288071"
     inkscape:window-width="645"
     inkscape:window-height="535"
     inkscape:window-x="43"
     inkscape:window-y="105" />
  <path
     style="fill:#000000;fill-rule:evenodd;stroke:none;stroke-opacity:1;stroke-width:1pt;stroke-linejoin:miter;stroke-linecap:butt;fill-opacity:1;opacity:0.296369;"
     d="M 13.495291 47.885396 C 13.865124 47.614185 15.024938 48.399426 14.905159 48.825307 C 14.554982 50.070381 12.638755 51.68074 12.085423 53.133237 C 11.803278 53.873868 11.551407 56.192705 13.965247 58.772707 C 11.003125 58.020311 10.447035 54.084815 10.597229 53.054911 C 10.812556 51.578383 12.298604 48.762967 13.495291 47.885396 z "
     id="path746"
     sodipodi:nodetypes="csscss" />
  <g
     id="g742"
     style="opacity:0.296369;"
     transform="matrix(1.063512,0.000000,0.000000,1.063512,0.596120,-4.428261)">
    <path
       style="fill:#000000;fill-rule:evenodd;stroke:none;stroke-opacity:1;stroke-width:1.875;stroke-linejoin:miter;stroke-linecap:butt;fill-opacity:1;stroke-dasharray:none;"
       d="M 11.963124 52.689202 C 13.902231 54.143532 36.298797 37.38425 40.32016 29.87065 C 41.911127 26.898054 31.517999 19.043567 28.800114 21.230615 C 22.065654 26.649751 10.062216 51.263521 11.963124 52.689202 z "
       id="path740"
       sodipodi:nodetypes="csss" />
    <path
       transform="translate(-3.766169,-2.880011)"
       style="font-size:12;fill:#000000;fill-rule:evenodd;stroke:none;stroke-width:1.875;fill-opacity:1;"
       d="M 54.277137 22.781391 C 54.277137 29.140456 49.116157 34.301436 42.757092 34.301436 C 36.398027 34.301436 31.237046 29.140456 31.237046 22.781391 C 31.237046 16.422326 36.398027 11.261346 42.757092 11.261346 C 49.116157 11.261346 54.277137 16.422326 54.277137 22.781391 z "
       id="path741" />
  </g>
  <path
     style="fill:url(#linearGradient581);fill-rule:evenodd;stroke:#261933;stroke-opacity:1;stroke-width:1.875;stroke-linejoin:miter;stroke-linecap:butt;fill-opacity:1;stroke-dasharray:none;"
     d="M 13.260872 48.166651 C 15.199979 49.620981 37.596545 32.861698 41.617908 25.348099 C 43.208875 22.375503 32.815747 14.521015 30.097862 16.708064 C 23.363402 22.127199 11.359963 46.740969 13.260872 48.166651 z "
     id="path647"
     sodipodi:nodetypes="csss" />
  <path
     style="font-size:12;fill:url(#linearGradient583);fill-rule:evenodd;stroke:#261933;stroke-width:1.875;"
     d="M 51.808716 15.378829 C 51.808716 21.737894 46.647736 26.898874 40.288671 26.898874 C 33.929606 26.898874 28.768625 21.737894 28.768625 15.378829 C 28.768625 9.0197636 33.929606 3.8587836 40.288671 3.8587836 C 46.647736 3.8587836 51.808716 9.0197636 51.808716 15.378829 z "
     id="path655" />
  <path
     style="fill:url(#linearGradient860);fill-rule:evenodd;stroke:none;stroke-opacity:1;stroke-width:1pt;stroke-linejoin:miter;stroke-linecap:butt;fill-opacity:1;"
     d="M 15.632918 44.335594 C 15.792128 43.619152 22.759084 27.736321 28.4822 21.738582 C 29.137771 21.023888 29.990867 24.254234 29.811436 25.061672 C 29.695481 25.58347 28.114111 25.177968 27.596042 25.72629 C 21.74988 31.900909 15.496742 44.948388 15.632918 44.335594 z "
     id="path652"
     sodipodi:nodetypes="cssss" />
  <g
     id="g671"
     style="opacity:0.500000;"
     transform="translate(1.297748,-4.522551)">
    <path
       style="font-size:12;fill-rule:evenodd;stroke-width:1pt;"
       d="M 31.347818 25.550631 C 31.347818 26.223225 30.801946 26.769098 30.129352 26.769098 C 29.456759 26.769098 28.910886 26.223225 28.910886 25.550631 C 28.910886 24.878038 29.456759 24.332165 30.129352 24.332165 C 30.801946 24.332165 31.347818 24.878038 31.347818 25.550631 z "
       id="path657" />
    <path
       style="font-size:12;fill-rule:evenodd;stroke-width:1pt;"
       d="M 41.649397 21.562923 C 41.649397 22.235517 41.103525 22.78139 40.430931 22.78139 C 39.758338 22.78139 39.212465 22.235517 39.212465 21.562923 C 39.212465 20.89033 39.758338 20.344457 40.430931 20.344457 C 41.103525 20.344457 41.649397 20.89033 41.649397 21.562923 z "
       id="path658"
       transform="translate(-0.886157,5.981562)" />
    <path
       style="font-size:12;fill-rule:evenodd;stroke-width:1pt;"
       d="M 41.649397 21.562923 C 41.649397 22.235517 41.103525 22.78139 40.430931 22.78139 C 39.758338 22.78139 39.212465 22.235517 39.212465 21.562923 C 39.212465 20.89033 39.758338 20.344457 40.430931 20.344457 C 41.103525 20.344457 41.649397 20.89033 41.649397 21.562923 z "
       id="path659"
       transform="translate(-4.984635,3.544629)" />
    <path
       style="font-size:12;fill-rule:evenodd;stroke-width:1pt;"
       d="M 41.649397 21.562923 C 41.649397 22.235517 41.103525 22.78139 40.430931 22.78139 C 39.758338 22.78139 39.212465 22.235517 39.212465 21.562923 C 39.212465 20.89033 39.758338 20.344457 40.430931 20.344457 C 41.103525 20.344457 41.649397 20.89033 41.649397 21.562923 z "
       id="path660"
       transform="translate(2.990781,2.990781)" />
    <path
       style="font-size:12;fill-rule:evenodd;stroke-width:1pt;"
       d="M 41.649397 21.562923 C 41.649397 22.235517 41.103525 22.78139 40.430931 22.78139 C 39.758338 22.78139 39.212465 22.235517 39.212465 21.562923 C 39.212465 20.89033 39.758338 20.344457 40.430931 20.344457 C 41.103525 20.344457 41.649397 20.89033 41.649397 21.562923 z "
       id="path661"
       transform="translate(6.646180,-1.218466)" />
    <path
       style="font-size:12;fill-rule:evenodd;stroke-width:1pt;"
       d="M 41.649397 21.562923 C 41.649397 22.235517 41.103525 22.78139 40.430931 22.78139 C 39.758338 22.78139 39.212465 22.235517 39.212465 21.562923 C 39.212465 20.89033 39.758338 20.344457 40.430931 20.344457 C 41.103525 20.344457 41.649397 20.89033 41.649397 21.562923 z "
       id="path662"
       transform="translate(-1.107697,-0.886157)" />
    <path
       style="font-size:12;fill-rule:evenodd;stroke-width:1pt;"
       d="M 41.649397 21.562923 C 41.649397 22.235517 41.103525 22.78139 40.430931 22.78139 C 39.758338 22.78139 39.212465 22.235517 39.212465 21.562923 C 39.212465 20.89033 39.758338 20.344457 40.430931 20.344457 C 41.103525 20.344457 41.649397 20.89033 41.649397 21.562923 z "
       id="path663"
       transform="translate(-9.083113,-0.664618)" />
    <path
       style="font-size:12;fill-rule:evenodd;stroke-width:1pt;"
       d="M 41.649397 21.562923 C 41.649397 22.235517 41.103525 22.78139 40.430931 22.78139 C 39.758338 22.78139 39.212465 22.235517 39.212465 21.562923 C 39.212465 20.89033 39.758338 20.344457 40.430931 20.344457 C 41.103525 20.344457 41.649397 20.89033 41.649397 21.562923 z "
       id="path664"
       transform="translate(-5.316944,-4.430787)" />
    <path
       style="font-size:12;fill-rule:evenodd;stroke-width:1pt;"
       d="M 41.649397 21.562923 C 41.649397 22.235517 41.103525 22.78139 40.430931 22.78139 C 39.758338 22.78139 39.212465 22.235517 39.212465 21.562923 C 39.212465 20.89033 39.758338 20.344457 40.430931 20.344457 C 41.103525 20.344457 41.649397 20.89033 41.649397 21.562923 z "
       id="path665"
       transform="translate(2.769242,-4.763096)" />
    <path
       style="font-size:12;fill-rule:evenodd;stroke-width:1pt;"
       d="M 41.649397 21.562923 C 41.649397 22.235517 41.103525 22.78139 40.430931 22.78139 C 39.758338 22.78139 39.212465 22.235517 39.212465 21.562923 C 39.212465 20.89033 39.758338 20.344457 40.430931 20.344457 C 41.103525 20.344457 41.649397 20.89033 41.649397 21.562923 z "
       id="path666"
       transform="translate(-1.993854,-9.415422)" />
    <path
       style="font-size:12;fill-rule:evenodd;stroke-width:1pt;"
       d="M 41.649397 21.562923 C 41.649397 22.235517 41.103525 22.78139 40.430931 22.78139 C 39.758338 22.78139 39.212465 22.235517 39.212465 21.562923 C 39.212465 20.89033 39.758338 20.344457 40.430931 20.344457 C 41.103525 20.344457 41.649397 20.89033 41.649397 21.562923 z "
       id="path667"
       transform="translate(-9.083113,-7.753877)" />
    <path
       style="font-size:12;fill-rule:evenodd;stroke-width:1pt;"
       d="M 41.649397 21.562923 C 41.649397 22.235517 41.103525 22.78139 40.430931 22.78139 C 39.758338 22.78139 39.212465 22.235517 39.212465 21.562923 C 39.212465 20.89033 39.758338 20.344457 40.430931 20.344457 C 41.103525 20.344457 41.649397 20.89033 41.649397 21.562923 z "
       id="path668"
       transform="translate(5.760023,-8.750804)" />
    <path
       style="font-size:12;fill-rule:evenodd;stroke-width:1pt;"
       d="M 41.649397 21.562923 C 41.649397 22.235517 41.103525 22.78139 40.430931 22.78139 C 39.758338 22.78139 39.212465 22.235517 39.212465 21.562923 C 39.212465 20.89033 39.758338 20.344457 40.430931 20.344457 C 41.103525 20.344457 41.649397 20.89033 41.649397 21.562923 z "
       id="path669"
       transform="translate(6.313871,5.538484)" />
    <path
       style="font-size:12;fill-rule:evenodd;stroke-width:1pt;"
       d="M 41.649397 21.562923 C 41.649397 22.235517 41.103525 22.78139 40.430931 22.78139 C 39.758338 22.78139 39.212465 22.235517 39.212465 21.562923 C 39.212465 20.89033 39.758338 20.344457 40.430931 20.344457 C 41.103525 20.344457 41.649397 20.89033 41.649397 21.562923 z "
       id="path670"
       transform="translate(-5.760023,7.864647)" />
  </g>
  <g
     id="g718"
     style="opacity:0.252229;"
     transform="translate(1.297748,-4.522551)">
    <path
       style="font-size:12;fill-rule:evenodd;stroke-width:1pt;"
       d="M 33.665816 17.548234 C 33.982202 18.141768 33.757272 18.880253 33.163738 19.196639 C 32.570205 19.513025 31.831719 19.288093 31.515333 18.694559 C 31.198947 18.101026 31.423879 17.362541 32.017412 17.046155 C 32.610946 16.729769 33.34943 16.954701 33.665816 17.548234 z "
       id="path690" />
    <path
       style="font-size:12;fill-rule:evenodd;stroke-width:1pt;"
       d="M 44.241641 26.952623 C 44.558027 27.546157 44.333097 28.284642 43.739563 28.601028 C 43.14603 28.917414 42.407544 28.692483 42.091158 28.098949 C 41.774772 27.505416 41.999704 26.76693 42.593237 26.450545 C 43.186771 26.134158 43.925255 26.35909 44.241641 26.952623 z "
       id="path691" />
    <path
       style="font-size:12;fill-rule:evenodd;stroke-width:1pt;"
       d="M 40.143211 23.406963 C 40.459597 24.000497 40.234667 24.738982 39.641133 25.055368 C 39.0476 25.371754 38.309114 25.146823 37.992728 24.553289 C 37.676342 23.959756 37.901274 23.22127 38.494807 22.904884 C 39.088341 22.588498 39.826825 22.81343 40.143211 23.406963 z "
       id="path692" />
    <path
       style="font-size:12;fill-rule:evenodd;stroke-width:1pt;"
       d="M 44.816004 20.606619 C 45.13239 21.200153 44.90746 21.938638 44.313926 22.255024 C 43.720393 22.57141 42.981908 22.346478 42.665521 21.752944 C 42.349136 21.159411 42.574067 20.420926 43.1676 20.10454 C 43.761134 19.788154 44.499618 20.013086 44.816004 20.606619 z "
       id="path693" />
    <path
       style="font-size:12;fill-rule:evenodd;stroke-width:1pt;"
       d="M 41.649397 21.562923 C 41.649397 22.235517 41.103525 22.78139 40.430931 22.78139 C 39.758338 22.78139 39.212465 22.235517 39.212465 21.562923 C 39.212465 20.89033 39.758338 20.344457 40.430931 20.344457 C 41.103525 20.344457 41.649397 20.89033 41.649397 21.562923 z "
       id="path694"
       transform="matrix(0.882455,-0.470397,0.470397,0.882455,0.272556,16.06841)" />
    <path
       style="font-size:12;fill-rule:evenodd;stroke-width:1pt;"
       d="M 39.929431 17.008675 C 40.245817 17.602209 40.020886 18.340694 39.427352 18.65708 C 38.833819 18.973466 38.095334 18.748535 37.778948 18.155001 C 37.462562 17.561468 37.687493 16.822982 38.281026 16.506596 C 38.87456 16.19021 39.613045 16.415142 39.929431 17.008675 z "
       id="path695" />
    <path
       style="font-size:12;fill-rule:evenodd;stroke-width:1pt;"
       d="M 41.649397 21.562923 C 41.649397 22.235517 41.103525 22.78139 40.430931 22.78139 C 39.758338 22.78139 39.212465 22.235517 39.212465 21.562923 C 39.212465 20.89033 39.758338 20.344457 40.430931 20.344457 C 41.103525 20.344457 41.649397 20.89033 41.649397 21.562923 z "
       id="path696"
       transform="matrix(0.882455,-0.470397,0.470397,0.882455,-13.34731,23.95616)" />
    <path
       style="font-size:12;fill-rule:evenodd;stroke-width:1pt;"
       d="M 36.20912 20.513041 C 36.525506 21.106575 36.300575 21.84506 35.707041 22.161446 C 35.113508 22.477832 34.375023 22.252901 34.058637 21.659367 C 33.742251 21.065834 33.967182 20.327348 34.560715 20.010963 C 35.154249 19.694576 35.892734 19.919508 36.20912 20.513041 z "
       id="path697" />
    <path
       style="font-size:12;fill-rule:evenodd;stroke-width:1pt;"
       d="M 42.85619 13.4253 C 43.172576 14.018834 42.947645 14.757319 42.354111 15.073705 C 41.760578 15.390091 41.022093 15.16516 40.705707 14.571626 C 40.389321 13.978093 40.614252 13.239607 41.207785 12.923221 C 41.801319 12.606835 42.539804 12.831767 42.85619 13.4253 z "
       id="path698" />
    <path
       style="font-size:12;fill-rule:evenodd;stroke-width:1pt;"
       d="M 41.649397 21.562923 C 41.649397 22.235517 41.103525 22.78139 40.430931 22.78139 C 39.758338 22.78139 39.212465 22.235517 39.212465 21.562923 C 39.212465 20.89033 39.758338 20.344457 40.430931 20.344457 C 41.103525 20.344457 41.649397 20.89033 41.649397 21.562923 z "
       id="path699"
       transform="matrix(0.882455,-0.470397,0.470397,0.882455,-11.20771,12.89921)" />
    <path
       style="font-size:12;fill-rule:evenodd;stroke-width:1pt;"
       d="M 30.436322 16.915228 C 30.752708 17.508762 30.527778 18.247247 29.934244 18.563634 C 29.340711 18.880019 28.602226 18.655088 28.285839 18.061554 C 27.969454 17.468021 28.194385 16.729536 28.787918 16.41315 C 29.381452 16.096764 30.119937 16.321695 30.436322 16.915228 z "
       id="path700" />
    <path
       style="font-size:12;fill-rule:evenodd;stroke-width:1pt;"
       d="M 41.649397 21.562923 C 41.649397 22.235517 41.103525 22.78139 40.430931 22.78139 C 39.758338 22.78139 39.212465 22.235517 39.212465 21.562923 C 39.212465 20.89033 39.758338 20.344457 40.430931 20.344457 C 41.103525 20.344457 41.649397 20.89033 41.649397 21.562923 z "
       id="path701"
       transform="matrix(0.882455,-0.470397,0.470397,0.882455,-4.052627,9.838302)" />
    <path
       style="font-size:12;fill-rule:evenodd;stroke-width:1pt;"
       d="M 41.649397 21.562923 C 41.649397 22.235517 41.103525 22.78139 40.430931 22.78139 C 39.758338 22.78139 39.212465 22.235517 39.212465 21.562923 C 39.212465 20.89033 39.758338 20.344457 40.430931 20.344457 C 41.103525 20.344457 41.649397 20.89033 41.649397 21.562923 z "
       id="path702"
       transform="matrix(0.882455,-0.470397,0.470397,0.882455,3.157757,22.18743)" />
    <path
       style="font-size:12;fill-rule:evenodd;stroke-width:1pt;"
       d="M 41.649397 21.562923 C 41.649397 22.235517 41.103525 22.78139 40.430931 22.78139 C 39.758338 22.78139 39.212465 22.235517 39.212465 21.562923 C 39.212465 20.89033 39.758338 20.344457 40.430931 20.344457 C 41.103525 20.344457 41.649397 20.89033 41.649397 21.562923 z "
       id="path703"
       transform="matrix(0.882455,-0.470397,0.470397,0.882455,-6.402691,29.91968)" />
  </g>
  <path
     style="fill:url(#linearGradient861);fill-rule:evenodd;stroke:none;stroke-opacity:1;stroke-width:1pt;stroke-linejoin:miter;stroke-linecap:butt;fill-opacity:1;"
     d="M 32.001534 20.387408 C 31.77433 19.961401 27.893232 12.269261 33.724706 7.8552496 C 41.099718 2.4189277 48.074856 8.8554616 48.293339 9.2651176 C 48.492594 9.6387216 41.3478 5.2448209 34.977922 10.20503 C 29.903643 13.939723 32.192069 20.744661 32.001534 20.387408 z "
     id="path653"
     sodipodi:nodetypes="cssss" />
  <path
     style="font-size:12;opacity:0.300000;fill-rule:evenodd;stroke-width:1pt;"
     d="M 25.108847 24.147055 C 25.342491 24.447455 24.832349 25.883205 25.265499 26.496834 C 26.712173 28.546288 30.250148 31.432634 30.748318 32.136305 C 31.330702 32.762135 26.101969 29.653316 24.325588 27.75005 C 23.908842 27.303536 23.105978 26.423935 23.229024 25.870227 C 23.314847 25.484023 24.97697 23.977499 25.108847 24.147055 z "
     id="path686"
     sodipodi:nodetypes="csssss" />
  <path
     style="font-size:12;opacity:0.300000;fill-rule:evenodd;stroke-width:1pt;"
     d="M 22.915719 27.280094 C 23.149363 27.580494 22.639221 29.016244 23.072371 29.629873 C 24.519045 31.679327 27.392402 34.011825 27.890572 34.715496 C 28.472956 35.341326 23.908841 32.786355 22.13246 30.883089 C 21.715714 30.436575 20.91285 29.556974 21.035896 29.003266 C 21.121719 28.617062 22.783842 27.110538 22.915719 27.280094 z "
     id="path687"
     sodipodi:nodetypes="csssss" />
  <path
     style="font-size:12;opacity:0.300000;fill-rule:evenodd;stroke-width:1pt;"
     d="M 20.722592 30.256482 C 20.956236 30.556882 20.446094 31.992632 20.879244 32.606261 C 22.325918 34.655715 24.645427 36.323595 25.143597 37.027266 C 25.725981 37.653096 21.715714 35.762743 19.939333 33.859477 C 19.522587 33.412963 18.719723 32.533362 18.842769 31.979654 C 18.928592 31.59345 20.590715 30.086926 20.722592 30.256482 z "
     id="path688"
     sodipodi:nodetypes="csssss" />
  <path
     style="fill:#261933;fill-rule:evenodd;stroke:none;stroke-opacity:1;stroke-width:1pt;stroke-linejoin:miter;stroke-linecap:butt;fill-opacity:1;"
     d="M 12.498364 47.331547 C 12.868197 47.060336 14.028011 47.845577 13.908232 48.271458 C 13.558055 49.516532 11.641828 51.126891 11.088496 52.579388 C 10.806351 53.320019 10.55448 55.638856 12.96832 58.218858 C 10.006198 57.466462 9.4501077 53.530966 9.6003017 52.501062 C 9.8156287 51.024534 11.301677 48.209118 12.498364 47.331547 z "
     id="path745"
     sodipodi:nodetypes="csscss" />
</svg>
