<?xml version="1.0" encoding="UTF-8" standalone="no"?>
<!DOCTYPE svg PUBLIC "-//W3C//DTD SVG 20010904//EN"
"http://www.w3.org/TR/2001/REC-SVG-20010904/DTD/svg10.dtd">
<!-- Created with Inkscape (http://www.inkscape.org/) -->
<svg
   id="svg1"
   sodipodi:version="0.32"
   inkscape:version="0.37"
   width="48pt"
   height="48pt"
   sodipodi:docbase="/home/dan/Projects/Lila-icons/scalable/apps"
   sodipodi:docname="wilber-icon.svg"
   xmlns="http://www.w3.org/2000/svg"
   xmlns:inkscape="http://www.inkscape.org/namespaces/inkscape"
   xmlns:sodipodi="http://sodipodi.sourceforge.net/DTD/sodipodi-0.dtd"
   xmlns:xlink="http://www.w3.org/1999/xlink">
  <defs
     id="defs3">
    <linearGradient
       id="linearGradient612">
      <stop
         style="stop-color:#000000;stop-opacity:1;"
         offset="0.00000000"
         id="stop613" />
      <stop
         style="stop-color:#000000;stop-opacity:0;"
         offset="1.00000000"
         id="stop614" />
    </linearGradient>
    <linearGradient
       id="linearGradient584">
      <stop
         style="stop-color:#ffffff;stop-opacity:1;"
         offset="0.00000000"
         id="stop585" />
      <stop
         style="stop-color:#ffffff;stop-opacity:0;"
         offset="1.00000000"
         id="stop586" />
    </linearGradient>
    <linearGradient
       id="linearGradient578">
      <stop
         style="stop-color:#d9cce6;stop-opacity:1;"
         offset="0.00000000"
         id="stop579" />
      <stop
         style="stop-color:#73667f;stop-opacity:1;"
         offset="1.00000000"
         id="stop580" />
    </linearGradient>
    <linearGradient
       xlink:href="#linearGradient578"
       id="linearGradient581"
       x1="-0.00000000"
       y1="-0.00000000"
       x2="0.99418604"
       y2="0.99218750" />
    <linearGradient
       xlink:href="#linearGradient584"
       id="linearGradient583"
       x1="-0.00000000"
       y1="0.00000000"
       x2="0.97159094"
       y2="1.00000000" />
    <linearGradient
       xlink:href="#linearGradient584"
       id="linearGradient860"
       x1="0.00000000"
       y1="-0.00000000"
       x2="1.37000000"
       y2="1.18750000" />
    <linearGradient
       xlink:href="#linearGradient584"
       id="linearGradient861"
       x1="0.00000000"
       y1="-0.00000000"
       x2="1.00617290"
       y2="1.02343750" />
    <linearGradient
       xlink:href="#linearGradient612"
       id="linearGradient862"
       x1="0.02564103"
       y1="0.99218750"
       x2="0.97435898"
       y2="0.00000000" />
    <linearGradient
       xlink:href="#linearGradient612"
       id="linearGradient616" />
  </defs>
  <sodipodi:namedview
     id="base"
     pagecolor="#ffffff"
     bordercolor="#666666"
     borderopacity="1.0"
     inkscape:pageopacity="0.0"
     inkscape:pageshadow="2"
     inkscape:zoom="7.97947193"
     inkscape:cx="27.1784638"
     inkscape:cy="23.9441695"
     inkscape:window-width="750"
     inkscape:window-height="685"
     inkscape:window-x="99"
     inkscape:window-y="53" />
  <path
     style="fill:#000000;fill-rule:evenodd;stroke:none;stroke-opacity:1;stroke-width:1pt;stroke-linejoin:miter;stroke-linecap:butt;fill-opacity:1;opacity:0.296369;"
     d="M 1.7958171 32.757919 C 3.2650302 35.896693 24.4614 51.224071 33.040148 52.391034 C 39.078706 53.212455 47.844571 47.689827 51.580483 42.395375 C 56.604207 35.275864 60.510904 17.983807 59.319057 15.149144 C 58.52252 13.254676 52.252321 23.642352 47.010991 26.312462 C 43.707645 27.995298 39.774777 28.807188 37.176555 26.634903 C 33.218485 23.325698 27.020549 10.510407 25.946455 11.763517 C 24.441024 13.519853 29.485511 32.444503 25.946455 37.236324 C 23.412881 40.666739 0.90046603 30.845124 1.7958171 32.757919 z "
     id="path615"
     sodipodi:nodetypes="cssssssss" />
  <path
     style="font-size:12;fill:#ffffff;fill-rule:evenodd;stroke:#333333;stroke-width:1.875;stroke-dasharray:none;"
     d="M 33.814576 30.34779 C 33.814576 34.54585 30.407455 37.952972 26.209395 37.952972 C 22.011335 37.952972 18.604212 34.54585 18.604212 30.34779 C 18.604212 26.149729 22.011335 22.742608 26.209395 22.742608 C 30.407455 22.742608 33.814576 26.149729 33.814576 30.34779 z "
     id="path601" />
  <path
     style="font-size:12;fill:#261933;fill-rule:evenodd;stroke:none;stroke-width:0.262626pt;fill-opacity:1;"
     d="M 25.789836 32.222866 C 25.789836 33.325388 24.895037 34.220187 23.792517 34.220187 C 22.689996 34.220187 21.795195 33.325388 21.795195 32.222866 C 21.795195 31.120345 22.689996 30.225546 23.792517 30.225546 C 24.895037 30.225546 25.789836 31.120345 25.789836 32.222866 z "
     id="path602" />
  <path
     style="fill:url(#linearGradient583);fill-rule:evenodd;stroke:none;stroke-opacity:1;stroke-width:1pt;stroke-linejoin:miter;stroke-linecap:butt;fill-opacity:1;"
     d="M 22.19213 33.123807 C 22.155767 33.032899 21.805716 31.65665 23.101219 30.901589 C 24.302038 30.238056 25.389441 30.96559 25.424447 31.053104 C 25.456781 31.13394 24.759665 30.480168 23.303239 31.40664 C 21.951645 32.275613 22.223107 33.201248 22.19213 33.123807 z "
     id="path608"
     sodipodi:nodetypes="cssss" />
  <path
     style="font-size:12;fill:url(#linearGradient581);fill-rule:evenodd;stroke:#261933;stroke-width:1.875;stroke-dasharray:none;"
     d="M 2.4421747 31.073251 C 3.8423082 34.064445 24.042067 48.671161 32.21746 49.783255 C 37.972097 50.566055 46.325806 45.30309 49.886064 40.257573 C 54.673582 33.472807 58.396594 16.993787 57.260786 14.292406 C 56.5017 12.487012 50.526314 22.386279 45.531421 24.930846 C 42.383392 26.534559 38.635441 27.308276 36.159381 25.238127 C 32.387411 22.084514 26.480891 9.871773 25.457298 11.065964 C 24.02265 12.739721 28.829955 30.774572 25.457298 35.341091 C 23.042847 38.610215 1.5889213 29.250392 2.4421747 31.073251 z "
     id="path597"
     sodipodi:nodetypes="cssssssss" />
  <path
     style="fill:url(#linearGradient860);fill-rule:evenodd;stroke:none;stroke-opacity:1;stroke-width:1pt;stroke-linejoin:miter;stroke-linecap:butt;fill-opacity:1;"
     d="M 9.978806 34.486315 C 9.656406 34.248757 24.179069 39.476195 26.492074 36.550474 C 29.647279 32.559454 26.051093 13.491209 26.383435 13.736092 C 26.739146 13.998196 31.742434 34.504541 28.664871 38.397352 C 26.274225 41.421282 10.344459 34.755744 9.978806 34.486315 z "
     id="path609"
     sodipodi:nodetypes="cssss" />
  <path
     style="font-size:12;fill:#ffffff;fill-rule:evenodd;stroke:#333333;stroke-width:1.875;stroke-dasharray:none;"
     d="M 40.667665 30.501431 C 40.667665 34.69949 37.260543 38.106611 33.062483 38.106611 C 28.864423 38.106611 25.457301 34.69949 25.457301 30.501431 C 25.457301 26.303369 28.864423 22.896248 33.062483 22.896248 C 37.260543 22.896248 40.667665 26.303369 40.667665 30.501431 z "
     id="path600" />
  <path
     style="font-size:12;fill:#261933;fill-rule:evenodd;stroke:none;stroke-width:0.262626pt;fill-opacity:1;"
     d="M 33.907503 33.036492 C 33.907503 34.139012 33.012703 35.033811 31.910183 35.033811 C 30.807662 35.033811 29.912863 34.139012 29.912863 33.036492 C 29.912863 31.93397 30.807662 31.03917 31.910183 31.03917 C 33.012703 31.03917 33.907503 31.93397 33.907503 33.036492 z "
     id="path603" />
  <path
     style="font-size:12;fill:#261933;fill-rule:evenodd;stroke:none;stroke-width:0.607163pt;fill-opacity:1;"
     d="M 11.260329 32.391711 C 11.260329 35.195045 8.9851592 37.470215 6.181825 37.470215 C 3.3784908 37.470215 1.1033203 35.195045 1.1033203 32.391711 C 1.1033203 29.588375 3.3784908 27.313206 6.181825 27.313206 C 8.9851592 27.313206 11.260329 29.588375 11.260329 32.391711 z "
     id="path604" />
  <path
     style="fill:#261933;fill-rule:evenodd;stroke:none;stroke-opacity:1;stroke-width:1pt;stroke-linejoin:miter;stroke-linecap:butt;fill-opacity:1;"
     d="M 22.581037 45.458947 C 30.210064 46.278431 35.862832 42.619113 36.269666 42.851589 C 36.623312 43.053672 32.606528 47.967306 25.297035 47.305825 C 24.47585 47.23039 21.945607 45.398885 22.581037 45.458947 z "
     id="path605"
     sodipodi:nodetypes="csss" />
  <path
     style="fill:url(#linearGradient583);fill-rule:evenodd;stroke:none;stroke-opacity:1;stroke-width:1pt;stroke-linejoin:miter;stroke-linecap:butt;fill-opacity:1;"
     d="M 1.7634453 34.085968 C 1.677417 33.870896 0.84926743 30.614981 3.9141606 28.828663 C 6.7550471 27.258878 9.3276164 28.980074 9.4104329 29.187115 C 9.4869287 29.378354 7.8376983 27.831668 4.3920974 30.023504 C 1.1945051 32.079316 1.8367293 34.269178 1.7634453 34.085968 z "
     id="path606"
     sodipodi:nodetypes="cssss" />
  <path
     style="fill:url(#linearGradient583);fill-rule:evenodd;stroke:none;stroke-opacity:1;stroke-width:1pt;stroke-linejoin:miter;stroke-linecap:butt;fill-opacity:1;"
     d="M 30.213949 34.05699 C 30.177585 33.966082 29.827534 32.589833 31.123038 31.834773 C 32.323856 31.171239 33.411259 31.898772 33.446265 31.986288 C 33.478599 32.067123 32.781483 31.413351 31.325057 32.339822 C 29.973463 33.208795 30.244925 34.134431 30.213949 34.05699 z "
     id="path607"
     sodipodi:nodetypes="cssss" />
  <path
     style="fill:url(#linearGradient862);fill-rule:evenodd;stroke:none;stroke-opacity:1;stroke-width:1pt;stroke-linejoin:miter;stroke-linecap:butt;fill-opacity:1;opacity:0.201783;"
     d="M 46.155897 28.40248 C 45.319845 30.478678 48.282011 36.819482 49.306455 35.898634 C 51.504995 33.922418 56.426668 21.1432 55.82485 19.711287 C 55.376482 18.644482 47.492643 25.082895 46.155897 28.40248 z "
     id="path611"
     sodipodi:nodetypes="csss" />
  <path
     style="fill:url(#linearGradient861);fill-rule:evenodd;stroke:none;stroke-opacity:1;stroke-width:1pt;stroke-linejoin:miter;stroke-linecap:butt;fill-opacity:1;"
     d="M 41.158461 27.96792 C 47.164789 25.298301 49.714985 25.400995 56.04213 16.23481 C 56.682652 15.290669 54.655829 20.370894 53.321873 21.973558 C 49.555109 26.476772 40.336641 28.339922 41.158461 27.96792 z "
     id="path610"
     sodipodi:nodetypes="csss" />
</svg>
