<?xml version="1.0" encoding="UTF-8" standalone="no"?>
<!DOCTYPE svg PUBLIC "-//W3C//DTD SVG 20010904//EN"
"http://www.w3.org/TR/2001/REC-SVG-20010904/DTD/svg10.dtd">
<!-- Created with Inkscape (http://www.inkscape.org/) -->
<svg
   version="1.0"
   x="0"
   y="0"
   width="48.000000pt"
   height="48.000000pt"
   id="svg1"
   sodipodi:version="0.32"
   inkscape:version="0.39"
   sodipodi:docname="gnome-main-menu2.svg"
   sodipodi:docbase="/home/scaba/files/lila/work/lila-gnome/Lila/scalable/apps"
   xmlns="http://www.w3.org/2000/svg"
   xmlns:inkscape="http://www.inkscape.org/namespaces/inkscape"
   xmlns:sodipodi="http://sodipodi.sourceforge.net/DTD/sodipodi-0.dtd"
   xmlns:xlink="http://www.w3.org/1999/xlink"
   xmlns:rdf="http://www.w3.org/1999/02/22-rdf-syntax-ns#"
   xmlns:cc="http://web.resource.org/cc/"
   xmlns:dc="http://purl.org/dc/elements/1.1/">
  <sodipodi:namedview
     id="base"
     pagecolor="#ffffff"
     bordercolor="#666666"
     borderopacity="1.0"
     inkscape:pageopacity="0.0"
     inkscape:pageshadow="2"
     inkscape:zoom="6.9465337"
     inkscape:cx="29.614161"
     inkscape:cy="20.003742"
     inkscape:window-width="662"
     inkscape:window-height="601"
     inkscape:window-x="60"
     inkscape:window-y="26" />
  <defs
     id="defs3">
    <linearGradient
       id="linearGradient652">
      <stop
         style="stop-color:#ffffff;stop-opacity:1;"
         offset="0"
         id="stop653" />
      <stop
         style="stop-color:#ffffff;stop-opacity:0;"
         offset="1"
         id="stop654" />
    </linearGradient>
    <linearGradient
       id="linearGradient646">
      <stop
         style="stop-color:#d9cce6;stop-opacity:1;"
         offset="0.00000000"
         id="stop647" />
      <stop
         style="stop-color:#73667f;stop-opacity:1;"
         offset="1.00000000"
         id="stop648" />
    </linearGradient>
    <defs
       id="defs588" />
    <linearGradient
       x1="0.03278688"
       y1="0.05468750"
       x2="0.96721309"
       y2="0.96093750"
       id="linearGradient649"
       xlink:href="#linearGradient646" />
    <linearGradient
       x1="-0.012345"
       y1="0.015622"
       x2="0.962963"
       y2="0.976562"
       id="linearGradient651"
       xlink:href="#linearGradient652" />
    <linearGradient
       x1="0.006135"
       y1="0.015626"
       x2="0.975460"
       y2="1.000000"
       id="linearGradient656"
       xlink:href="#linearGradient652" />
    <linearGradient
       x1="0.015757"
       y1="0.039054"
       x2="0.992126"
       y2="0.976562"
       id="linearGradient658"
       xlink:href="#linearGradient652" />
    <linearGradient
       x1="0.07142857"
       y1="0.06250001"
       x2="0.98214287"
       y2="0.95312500"
       id="linearGradient663"
       xlink:href="#linearGradient646" />
    <linearGradient
       x1="0.03571417"
       y1="0.10156250"
       x2="0.98214293"
       y2="0.97656244"
       id="linearGradient664"
       xlink:href="#linearGradient646" />
    <linearGradient
       x1="0.08928561"
       y1="0.08593744"
       x2="0.98214304"
       y2="0.96093750"
       id="linearGradient665"
       xlink:href="#linearGradient646" />
    <linearGradient
       x1="0.04464274"
       y1="0.09374994"
       x2="1.00892878"
       y2="0.99218732"
       id="linearGradient666"
       xlink:href="#linearGradient646" />
    <linearGradient
       x1="0.009712"
       y1="0.007812"
       x2="0.990291"
       y2="0.968750"
       id="linearGradient668"
       xlink:href="#linearGradient652" />
    <linearGradient
       id="linearGradient675"
       xlink:href="#linearGradient652" />
    <radialGradient
       xlink:href="#linearGradient652"
       id="radialGradient860"
       cx="0.50000000"
       cy="0.50000000"
       r="0.50000000"
       fx="0.50000000"
       fy="0.50000000" />
  </defs>
  <ellipse
     cx="235.50473"
     cy="137.50008"
     rx="62.354645"
     ry="72.145889"
     transform="matrix(6.772019e-2,0.000000,0.000000,6.772019e-2,36.70468,20.81653)"
     style="font-size:12.000000;opacity:0.29636899;fill-rule:evenodd;stroke-width:22.242701;"
     id="path680"
     d="M 297.85938 137.50008 A 62.354645 72.145889 0 1 0 173.15009,137.50008 A 62.354645 72.145889 0 1 0 297.85938 137.50008 z"
     sodipodi:cx="235.50473"
     sodipodi:cy="137.50008"
     sodipodi:rx="62.354645"
     sodipodi:ry="72.145889" />
  <ellipse
     cx="235.50473"
     cy="137.50008"
     rx="62.354645"
     ry="72.145889"
     transform="matrix(6.142572e-2,0.000000,0.000000,6.142572e-2,32.19208,13.16458)"
     style="font-size:12.000000;opacity:0.29636899;fill-rule:evenodd;stroke-width:17.385099;"
     id="path678"
     d="M 297.85938 137.50008 A 62.354645 72.145889 0 1 0 173.15009,137.50008 A 62.354645 72.145889 0 1 0 297.85938 137.50008 z"
     sodipodi:cx="235.50473"
     sodipodi:cy="137.50008"
     sodipodi:rx="62.354645"
     sodipodi:ry="72.145889" />
  <ellipse
     cx="235.50473"
     cy="137.50008"
     rx="62.354645"
     ry="72.145889"
     transform="matrix(7.307815e-2,0.000000,0.000000,7.307815e-2,20.31374,4.875370)"
     style="font-size:12.000000;opacity:0.29636899;fill-rule:evenodd;stroke-width:14.975200;"
     id="path677"
     d="M 297.85938 137.50008 A 62.354645 72.145889 0 1 0 173.15009,137.50008 A 62.354645 72.145889 0 1 0 297.85938 137.50008 z"
     sodipodi:cx="235.50473"
     sodipodi:cy="137.50008"
     sodipodi:rx="62.354645"
     sodipodi:ry="72.145889" />
  <ellipse
     cx="235.50473"
     cy="137.50008"
     rx="62.354645"
     ry="72.145889"
     transform="matrix(9.485424e-2,0.000000,0.000000,9.485424e-2,2.682633,-2.315759)"
     style="font-size:12.000000;opacity:0.30267498;fill-rule:evenodd;stroke-width:12.500000;"
     id="path676"
     d="M 297.85938 137.50008 A 62.354645 72.145889 0 1 0 173.15009,137.50008 A 62.354645 72.145889 0 1 0 297.85938 137.50008 z"
     sodipodi:cx="235.50473"
     sodipodi:cy="137.50008"
     sodipodi:rx="62.354645"
     sodipodi:ry="72.145889" />
  <path
     d="M 20.608118,39.829685 C 20.249138,38.758639 13.271784,36.923724 12.659681,31.901733 C 12.044898,26.779028 19.416199,19.172629 26.764221,19.025583 C 36.619760,18.749508 49.386509,30.451006 50.273293,37.080099 C 51.271510,44.454942 26.713280,60.304410 19.769278,59.436075 C 13.020918,58.670919 11.311703,53.037146 12.173281,49.138434 C 13.059743,45.285093 20.779083,40.822328 20.608118,39.829685 z M 27.942526,29.201701 C 30.163558,27.139302 33.930237,30.543246 32.822295,32.507507 C 31.522153,34.654429 25.755815,31.232142 27.942526,29.201701 z "
     style="font-size:12.000000;opacity:0.29636899;fill-rule:evenodd;stroke-width:12.500000;stroke-linejoin:round;"
     id="path674" />
  <path
     d="M 20.194184,38.664553 C 19.863296,37.677032 13.430061,35.985308 12.865691,31.354951 C 12.298851,26.631732 19.095310,19.618504 25.870312,19.482825 C 34.957279,19.228381 46.728335,30.017255 47.546062,36.129492 C 48.466437,42.929114 25.823339,57.542687 19.420859,56.741968 C 13.198755,56.036582 11.622833,50.842052 12.417223,47.247471 C 13.234556,43.694628 20.351816,39.579785 20.194184,38.664553 z M 26.956625,28.865477 C 29.004554,26.963907 32.477496,30.102400 31.455856,31.913388 C 30.257203,33.892880 24.940541,30.737477 26.956625,28.865477 z "
     style="font-size:12.000000;fill:url(#linearGradient649);fill-rule:evenodd;stroke:#261e2e;stroke-width:1.8542005;stroke-linejoin:round;"
     id="path594" />
  <path
     d="M 16.564796,54.426344 C 14.661844,53.360799 13.347289,49.206695 14.022911,47.876221 C 15.465430,45.035587 21.362876,40.150088 21.648371,40.250859 C 21.916961,40.345595 17.146274,45.689353 16.369290,49.049458 C 15.483427,52.452290 16.990620,54.677724 16.564796,54.426344 z "
     style="font-size:12.000000;opacity:0.69993597;fill:url(#linearGradient651);fill-rule:evenodd;stroke:#ffffff;stroke-width:0.094854355pt;"
     id="path650" />
  <path
     d="M 19.790909,36.633538 C 14.276269,32.672768 12.876076,30.248559 17.542330,25.391050 C 20.036653,22.896235 26.244416,19.073221 34.748520,23.533488 C 27.265855,21.613922 21.151149,27.051228 19.497697,28.617162 C 18.123214,29.914211 16.369190,32.060931 19.790909,36.633538 z "
     style="font-size:12.000000;opacity:0.69999999;fill:url(#linearGradient656);fill-rule:evenodd;stroke:#ffffff;stroke-width:0.094854355pt;"
     id="path655" />
  <path
     d="M 41.357427,41.640609 C 41.005584,41.615681 43.343573,37.771288 43.525290,36.532983 C 43.722248,35.190494 41.672733,31.241008 42.040255,31.267043 C 42.528439,31.301614 45.738143,35.420738 45.548205,36.714700 C 45.359332,38.001499 41.861377,41.676234 41.357427,41.640609 z "
     style="font-size:12.000000;opacity:0.69999999;fill:url(#linearGradient658);fill-rule:evenodd;stroke:#ffffff;stroke-width:0.12861525pt;"
     id="path657"
     sodipodi:nodetypes="ccccc" />
  <ellipse
     cx="235.50473"
     cy="137.50008"
     rx="62.354645"
     ry="72.145889"
     transform="matrix(9.485424e-2,0.000000,0.000000,9.485424e-2,1.607246,-3.782204)"
     style="font-size:12.000000;fill:url(#linearGradient663);fill-rule:evenodd;stroke:#261e2e;stroke-width:19.547899;"
     id="path659"
     d="M 297.85938 137.50008 A 62.354645 72.145889 0 1 0 173.15009,137.50008 A 62.354645 72.145889 0 1 0 297.85938 137.50008 z"
     sodipodi:cx="235.50473"
     sodipodi:cy="137.50008"
     sodipodi:rx="62.354645"
     sodipodi:ry="72.145889" />
  <ellipse
     cx="235.50473"
     cy="137.50008"
     rx="62.354645"
     ry="72.145889"
     transform="matrix(7.307815e-2,0.000000,0.000000,7.307815e-2,19.53164,3.506694)"
     style="font-size:12.000000;fill:url(#linearGradient664);fill-rule:evenodd;stroke:#261e2e;stroke-width:25.372801;"
     id="path660"
     d="M 297.85938 137.50008 A 62.354645 72.145889 0 1 0 173.15009,137.50008 A 62.354645 72.145889 0 1 0 297.85938 137.50008 z"
     sodipodi:cx="235.50473"
     sodipodi:cy="137.50008"
     sodipodi:rx="62.354645"
     sodipodi:ry="72.145889" />
  <ellipse
     cx="235.50473"
     cy="137.50008"
     rx="62.354645"
     ry="72.145889"
     transform="matrix(6.142572e-2,0.000000,0.000000,6.142572e-2,31.50772,11.89370)"
     style="font-size:12.000000;fill:url(#linearGradient665);fill-rule:evenodd;stroke:#261e2e;stroke-width:30.186001;"
     id="path661"
     d="M 297.85938 137.50008 A 62.354645 72.145889 0 1 0 173.15009,137.50008 A 62.354645 72.145889 0 1 0 297.85938 137.50008 z"
     sodipodi:cx="235.50473"
     sodipodi:cy="137.50008"
     sodipodi:rx="62.354645"
     sodipodi:ry="72.145889" />
  <ellipse
     cx="235.50473"
     cy="137.50008"
     rx="62.354645"
     ry="72.145889"
     transform="matrix(5.173854e-2,0.000000,0.000000,5.173854e-2,39.57449,21.94264)"
     style="font-size:12.000000;fill:url(#linearGradient666);fill-rule:evenodd;stroke:#261e2e;stroke-width:35.837799;"
     id="path662"
     d="M 297.85938 137.50008 A 62.354645 72.145889 0 1 0 173.15009,137.50008 A 62.354645 72.145889 0 1 0 297.85938 137.50008 z"
     sodipodi:cx="235.50473"
     sodipodi:cy="137.50008"
     sodipodi:rx="62.354645"
     sodipodi:ry="72.145889" />
  <path
     d="M 21.409360,13.553423 C 21.149193,13.276010 18.516190,8.9829467 20.566031,5.9641619 C 22.479770,3.0520675 26.966710,4.7587008 27.218440,5.0272046 C 27.435100,5.2584134 24.113730,4.2901035 21.971480,7.4632902 C 20.054423,10.432791 21.617678,13.775677 21.409360,13.553423 z "
     style="font-size:12.000000;opacity:0.69999999;fill:url(#linearGradient668);fill-rule:evenodd;stroke:#ffffff;stroke-width:0.090908736pt;"
     id="path667" />
  <path
     d="M 34.963160,16.388152 C 34.784441,16.197610 32.975977,13.248913 34.384015,11.175393 C 35.698297,9.1753615 38.780072,10.347600 38.953018,10.531910 C 39.101950,10.690744 36.820565,10.025629 35.349289,12.205188 C 34.032626,14.244797 35.106231,16.540846 34.963160,16.388152 z "
     style="font-size:12.000000;opacity:0.69999999;fill:url(#linearGradient668);fill-rule:evenodd;stroke:#ffffff;stroke-width:0.062439978pt;"
     id="path669" />
  <path
     d="M 44.608033,22.847596 C 44.462981,22.692894 42.994590,20.298676 44.137815,18.615010 C 45.204972,16.991031 47.707400,17.942801 47.847756,18.092457 C 47.968629,18.221480 46.116273,17.681392 44.921687,19.451131 C 43.852496,21.107256 44.724215,22.971570 44.608033,22.847596 z "
     style="font-size:12.000000;opacity:0.69999999;fill:url(#linearGradient668);fill-rule:evenodd;stroke:#ffffff;stroke-width:0.050699663pt;"
     id="path670" />
  <path
     d="M 50.789296,31.033395 C 50.672319,30.908792 49.488877,28.979122 50.410219,27.622230 C 51.270353,26.313478 53.287101,27.080489 53.400219,27.201063 C 53.497643,27.305149 52.004836,26.869860 51.042015,28.296116 C 50.180300,29.630820 50.882861,31.133362 50.789296,31.033395 z "
     style="font-size:12.000000;opacity:0.69999999;fill:url(#linearGradient668);fill-rule:evenodd;stroke:#ffffff;stroke-width:0.040860352pt;"
     id="path671" />
  <metadata
     id="metadata40">
    <rdf:RDF
       id="RDF41">
      <cc:Work
         rdf:about=""
         id="Work42">
        <dc:format
           id="format43">image/svg+xml</dc:format>
        <dc:type
           id="type45"
           rdf:resource="http://purl.org/dc/dcmitype/StillImage" />
      </cc:Work>
    </rdf:RDF>
  </metadata>
</svg>
