<?xml version="1.0" encoding="UTF-8" standalone="no"?>
<!DOCTYPE svg PUBLIC "-//W3C//DTD SVG 20010904//EN"
"http://www.w3.org/TR/2001/REC-SVG-20010904/DTD/svg10.dtd">
<!-- Created with Inkscape (http://www.inkscape.org/) -->
<svg
   id="svg1"
   sodipodi:version="0.32"
   inkscape:version="0.37"
   width="48pt"
   height="48pt"
   sodipodi:docbase="/home/dan/Projects/Lila-icons/scalable/apps"
   sodipodi:docname="gnome-settings-font.svg"
   xmlns="http://www.w3.org/2000/svg"
   xmlns:inkscape="http://www.inkscape.org/namespaces/inkscape"
   xmlns:sodipodi="http://sodipodi.sourceforge.net/DTD/sodipodi-0.dtd"
   xmlns:xlink="http://www.w3.org/1999/xlink">
  <defs
     id="defs3">
    <linearGradient
       id="linearGradient584">
      <stop
         style="stop-color:#ffffff;stop-opacity:1;"
         offset="0.00000000"
         id="stop585" />
      <stop
         style="stop-color:#ffffff;stop-opacity:0;"
         offset="1.00000000"
         id="stop586" />
    </linearGradient>
    <linearGradient
       id="linearGradient578">
      <stop
         style="stop-color:#ffffff;stop-opacity:1;"
         offset="0.00000000"
         id="stop579" />
      <stop
         style="stop-color:#d9cce6;stop-opacity:1;"
         offset="1.00000000"
         id="stop580" />
    </linearGradient>
    <linearGradient
       xlink:href="#linearGradient578"
       id="linearGradient581"
       x1="0.00000000"
       y1="0.00000000"
       x2="1.00000000"
       y2="0.99218750" />
    <linearGradient
       xlink:href="#linearGradient584"
       id="linearGradient583"
       x1="-0.00000000"
       y1="0.00000000"
       x2="0.99264705"
       y2="0.97656250" />
    <linearGradient
       xlink:href="#linearGradient584"
       id="linearGradient654"
       x1="-0.00000000"
       y1="-0.00000000"
       x2="0.96341461"
       y2="0.99218750" />
    <linearGradient
       xlink:href="#linearGradient584"
       id="linearGradient655"
       x1="-0.00000000"
       y1="-0.00000000"
       x2="0.98148149"
       y2="0.95312500" />
    <linearGradient
       xlink:href="#linearGradient584"
       id="linearGradient713"
       x1="-0.00000000"
       y1="-0.00000000"
       x2="0.95454544"
       y2="0.99218750" />
    <linearGradient
       xlink:href="#linearGradient584"
       id="linearGradient1245"
       x1="0.00000000"
       y1="0.00000000"
       x2="0.97692305"
       y2="0.99218750" />
  </defs>
  <sodipodi:namedview
     id="base"
     pagecolor="#ffffff"
     bordercolor="#666666"
     borderopacity="1.0"
     inkscape:pageopacity="0.0"
     inkscape:pageshadow="2"
     inkscape:zoom="5.64233870"
     inkscape:cx="24.3049481"
     inkscape:cy="23.5023385"
     inkscape:window-width="637"
     inkscape:window-height="516"
     inkscape:window-x="169"
     inkscape:window-y="143" />
  <path
     style="fill:#000000;fill-rule:evenodd;stroke:none;stroke-opacity:1;stroke-width:1.875;stroke-linejoin:miter;stroke-linecap:butt;fill-opacity:1;stroke-dasharray:none;opacity:0.296369;"
     d="M 7.1868452 7.9441926 C 9.42878 6.0057716 56.506175 6.008534 58.453988 7.9441926 C 60.421504 9.7244595 59.741231 55.956242 57.929069 57.811551 C 56.402537 59.378594 9.0868708 59.833611 7.1868452 57.986524 C 5.145072 55.826666 4.7553959 10.070304 7.1868452 7.9441926 z "
     id="path712"
     sodipodi:nodetypes="cssss" />
  <path
     style="font-size:12;fill:url(#linearGradient581);fill-rule:evenodd;stroke:#261933;stroke-width:1.875;stroke-dasharray:none;"
     d="M 5.9004566 6.6209014 C 8.025818 4.7832713 52.655346 4.7858901 54.501879 6.6209013 C 56.36709 8.308599 55.722189 52.136483 54.004254 53.895323 C 52.557096 55.380884 7.701687 55.812241 5.9004566 54.061197 C 3.9648487 52.013644 3.5954344 8.6364611 5.9004566 6.6209014 z "
     id="path684"
     sodipodi:nodetypes="cssss" />
  <path
     style="fill:#261933;fill-rule:evenodd;stroke:none;stroke-opacity:1;stroke-width:1pt;stroke-linejoin:miter;stroke-linecap:butt;fill-opacity:1;"
     d="M 10.102039 34.557887 C 9.3901642 33.64776 16.804553 11.036712 20.284907 10.797865 C 23.593132 10.570828 31.162819 31.637074 30.131105 34.843574 C 29.782144 36.451299 26.286767 26.66661 23.47953 24.974012 C 21.761047 23.937869 17.21272 25.654842 16.890617 24.300678 C 16.602803 22.92235 22.252937 23.256095 22.880539 21.779389 C 23.384367 20.593908 21.186125 16.086233 20.284907 16.987451 C 16.926623 20.345731 11.112039 35.465621 10.102039 34.557887 z "
     id="path663"
     sodipodi:nodetypes="csssssss" />
  <path
     style="fill:url(#linearGradient583);fill-rule:evenodd;stroke:none;stroke-opacity:1;stroke-width:1pt;stroke-linejoin:miter;stroke-linecap:butt;fill-opacity:1;"
     d="M 7.3933331 50.080193 C 6.6679984 49.354858 6.2074668 11.534699 7.7250834 8.943154 C 9.047055 6.851575 50.294511 8.2191651 51.0185 8.943154 C 51.676804 9.6014583 15.538383 9.7065422 11.871962 13.090032 C 7.7474953 16.730348 8.0502912 50.737151 7.3933331 50.080193 z "
     id="path691"
     sodipodi:nodetypes="cssss" />
  <path
     style="fill:#261933;fill-rule:evenodd;stroke:none;stroke-opacity:1;stroke-width:1pt;stroke-linejoin:miter;stroke-linecap:butt;fill-opacity:1;"
     d="M 35.441094 26.276227 L 27.944998 49.72233 L 35.333027 49.832271 L 36.87022 43.32377 L 40.853474 43.32377 L 41.621646 49.61239 L 49.559379 49.832271 L 43.049004 26.276227 L 35.441094 26.276227 z M 39.422828 31.318225 L 40.523086 40.025261 L 37.530713 40.025261 L 39.422828 31.318225 z "
     id="path690"
     sodipodi:nodetypes="ccccccccccccc" />
  <path
     style="fill:url(#linearGradient654);fill-rule:evenodd;stroke:none;stroke-opacity:1;stroke-width:1pt;stroke-linejoin:miter;stroke-linecap:butt;fill-opacity:1;"
     d="M 29.014846 48.398724 L 36.179388 27.125544 L 42.351917 27.125544 C 40.404632 27.786888 37.572621 27.402956 36.950955 28.448229 C 34.297668 32.984584 31.843922 41.748559 29.014846 48.398724 z "
     id="path692"
     sodipodi:nodetypes="cccsc" />
  <path
     style="fill:url(#linearGradient655);fill-rule:evenodd;stroke:none;stroke-opacity:1;stroke-width:1pt;stroke-linejoin:miter;stroke-linecap:butt;fill-opacity:1;"
     d="M 37.75951 40.683063 C 37.659689 40.59988 40.210509 40.808737 40.955998 40.462616 C 41.239262 40.3311 40.760366 39.178981 40.845773 39.250154 C 40.980814 39.362688 41.958956 40.855127 41.61734 41.013734 C 40.930201 41.332764 37.880137 40.783586 37.75951 40.683063 z "
     id="path693"
     sodipodi:nodetypes="cssss" />
  <path
     style="fill:url(#linearGradient713);fill-rule:evenodd;stroke:none;stroke-opacity:1;stroke-width:1pt;stroke-linejoin:miter;stroke-linecap:butt;fill-opacity:1;"
     d="M 11.278942 30.706081 C 11.021128 30.6803 15.6329 16.972108 19.424844 11.672867 C 19.709008 11.261379 21.313049 11.478057 20.991364 11.829519 C 15.72212 17.500924 11.543301 30.732517 11.278942 30.706081 z "
     id="path1243"
     sodipodi:nodetypes="csss" />
  <path
     style="fill:url(#linearGradient1245);fill-rule:evenodd;stroke:none;stroke-opacity:1;stroke-width:1pt;stroke-linejoin:miter;stroke-linecap:butt;fill-opacity:1;"
     d="M 18.093303 23.813395 C 17.902494 23.706065 22.733596 23.242491 23.41947 22.090223 C 24.039029 21.049364 21.821376 17.128135 22.009602 17.234012 C 22.239114 17.363113 25.300369 21.740648 24.672685 22.795157 C 23.994936 23.933776 18.320233 23.941043 18.093303 23.813395 z "
     id="path1244"
     sodipodi:nodetypes="cssss" />
</svg>
