<?xml version="1.0" encoding="UTF-8" standalone="no"?>
<!DOCTYPE svg PUBLIC "-//W3C//DTD SVG 20010904//EN"
"http://www.w3.org/TR/2001/REC-SVG-20010904/DTD/svg10.dtd">
<!-- Created with Inkscape (http://www.inkscape.org/) -->
<svg
   id="svg1"
   sodipodi:version="0.32"
   inkscape:version="0.39"
   width="48.000000pt"
   height="48.000000pt"
   sodipodi:docbase="/home/bill/art/lila/gnome-games"
   sodipodi:docname="gnome-gsame.svg"
   xmlns="http://www.w3.org/2000/svg"
   xmlns:cc="http://web.resource.org/cc/"
   xmlns:inkscape="http://www.inkscape.org/namespaces/inkscape"
   xmlns:sodipodi="http://sodipodi.sourceforge.net/DTD/sodipodi-0.dtd"
   xmlns:rdf="http://www.w3.org/1999/02/22-rdf-syntax-ns#"
   xmlns:dc="http://purl.org/dc/elements/1.1/"
   xmlns:xlink="http://www.w3.org/1999/xlink">
  <defs
     id="defs3">
    <linearGradient
       id="linearGradient1812">
      <stop
         offset="0.0000000"
         style="stop-color:#d9cce6;stop-opacity:1.0000000;"
         id="stop1814" />
      <stop
         offset="1.0000000"
         style="stop-color:#73667f;stop-opacity:1.0000000;"
         id="stop1813" />
    </linearGradient>
    <linearGradient
       id="linearGradient1807">
      <stop
         offset="0.0000000"
         style="stop-color:#ffffff;stop-opacity:1.0000000;"
         id="stop1809" />
      <stop
         offset="1.0000000"
         style="stop-color:#d9cce6;stop-opacity:1.0000000;"
         id="stop1808" />
    </linearGradient>
    <linearGradient
       id="linearGradient1801">
      <stop
         offset="0.0000000"
         style="stop-color:#80ff80;stop-opacity:1.0000000;"
         id="stop1803" />
      <stop
         offset="1.0000000"
         style="stop-color:#408040;stop-opacity:1.0000000;"
         id="stop1802" />
    </linearGradient>
    <linearGradient
       id="linearGradient1177">
      <stop
         offset="0.0000000"
         style="stop-color:#f50000;stop-opacity:1.0000000;"
         id="stop1179" />
      <stop
         offset="1.0000000"
         style="stop-color:#a80000;stop-opacity:1.0000000;"
         id="stop1178" />
    </linearGradient>
    <defs
       id="defs920">
      <linearGradient
         id="linearGradient8046">
        <stop
           offset="0.0000000"
           style="stop-color:#ffffff;stop-opacity:1.0000000;"
           id="stop8048" />
        <stop
           offset="1.0000000"
           style="stop-color:#ffffff;stop-opacity:0.0000000;"
           id="stop8047" />
      </linearGradient>
      <linearGradient
         id="linearGradient4866"
         x1="0.0000000"
         y1="0.50000000"
         x2="1.0000000"
         y2="0.50000000"
         gradientUnits="objectBoundingBox"
         spreadMethod="pad"
         xlink:href="#linearGradient1177" />
      <linearGradient
         id="linearGradient4861"
         x1="0.0000000"
         y1="0.50000000"
         x2="1.0000000"
         y2="0.50000000"
         gradientUnits="objectBoundingBox"
         spreadMethod="pad"
         xlink:href="#linearGradient1801" />
      <linearGradient
         id="linearGradient2984"
         x1="0.0000000"
         y1="0.50000000"
         x2="1.0000000"
         y2="0.50000000"
         gradientUnits="objectBoundingBox"
         spreadMethod="pad"
         xlink:href="#linearGradient1807" />
      <linearGradient
         id="linearGradient2308"
         x1="0.0000000"
         y1="0.50000000"
         x2="1.0000000"
         y2="0.50000000"
         gradientUnits="objectBoundingBox"
         spreadMethod="pad"
         xlink:href="#linearGradient1812" />
      <linearGradient
         id="linearGradient2304">
        <stop
           style="stop-color:#000;stop-opacity:1;"
           offset="0"
           id="stop2305" />
        <stop
           style="stop-color:#fff;stop-opacity:1;"
           offset="1"
           id="stop2306" />
      </linearGradient>
      <defs
         id="defs939">
        <linearGradient
           id="linearGradient642"
           x1="0.0000000"
           y1="0.50000000"
           x2="1.0000000"
           y2="0.50000000"
           gradientUnits="objectBoundingBox"
           spreadMethod="pad"
           xlink:href="#linearGradient2308" />
        <linearGradient
           id="linearGradient866"
           x1="0.0000000"
           y1="0.50000000"
           x2="1.0000000"
           y2="0.50000000"
           gradientUnits="objectBoundingBox"
           spreadMethod="pad"
           xlink:href="#linearGradient2984" />
        <linearGradient
           id="linearGradient584"
           x1="0.0000000"
           y1="0.50000000"
           x2="1.0000000"
           y2="0.50000000"
           gradientUnits="objectBoundingBox"
           spreadMethod="pad"
           xlink:href="#linearGradient8046" />
        <linearGradient
           xlink:href="#linearGradient866"
           id="linearGradient586"
           x1="-0.0000000"
           y1="0.015625000"
           x2="0.99122804"
           y2="0.98437500" />
        <linearGradient
           xlink:href="#linearGradient584"
           id="linearGradient587"
           x1="0.0000000"
           y1="-0.0000000"
           x2="1.0000000"
           y2="1.0000000" />
        <linearGradient
           xlink:href="#linearGradient584"
           id="linearGradient638"
           x1="0.0000000"
           y1="-0.0000000"
           x2="0.99253732"
           y2="1.0000000" />
        <radialGradient
           xlink:href="#linearGradient866"
           id="radialGradient639" />
        <linearGradient
           xlink:href="#linearGradient584"
           id="linearGradient640"
           x1="-0.0000000"
           y1="0.0000000"
           x2="1.0000000"
           y2="0.99218750" />
        <linearGradient
           xlink:href="#linearGradient642"
           id="linearGradient641"
           x1="0.0000000"
           y1="0.0000000"
           x2="0.96666664"
           y2="0.98437500" />
        <linearGradient
           xlink:href="#linearGradient584"
           id="linearGradient645"
           x1="0.014925370"
           y1="0.0078125000"
           x2="0.97761196"
           y2="0.97656250" />
      </defs>
      <sodipodi:namedview
         id="namedview937"
         pagecolor="#ffffff"
         bordercolor="#666666"
         borderopacity="1.0"
         inkscape:pageopacity="0.0"
         inkscape:pageshadow="2"
         inkscape:zoom="7.9794719"
         inkscape:cx="25.952554"
         inkscape:cy="22.124632"
         inkscape:window-width="704"
         inkscape:window-height="586"
         inkscape:window-x="96"
         inkscape:window-y="207"
         showguides="true"
         snaptoguides="true" />
      <linearGradient
         inkscape:collect="always"
         xlink:href="#linearGradient8046"
         id="linearGradient8045"
         x1="0.0078125000"
         y1="-0.0078125000"
         x2="0.87500000"
         y2="0.92968750" />
      <radialGradient
         inkscape:collect="always"
         xlink:href="#linearGradient4866"
         id="radialGradient3628"
         cx="0.38268062"
         cy="0.33845630"
         r="0.50000000"
         fx="0.36638781"
         fy="0.33215120" />
    </defs>
    <sodipodi:namedview
       id="namedview962"
       pagecolor="#ffffff"
       bordercolor="#666666"
       borderopacity="1.0"
       inkscape:pageopacity="0.0"
       inkscape:pageshadow="2"
       inkscape:zoom="12.166667"
       inkscape:cx="24.000000"
       inkscape:cy="22.532262"
       inkscape:window-width="760"
       inkscape:window-height="750"
       inkscape:window-x="437"
       inkscape:window-y="62"
       showguides="true"
       inkscape:guide-bbox="true" />
    <metadata
       id="metadata963">
      <rdf:RDF
         id="RDF964">
        <cc:Work
           rdf:about=""
           id="Work965">
          <dc:format
             id="format966">image/svg+xml</dc:format>
          <dc:type
             id="type968"
             rdf:resource="http://purl.org/dc/dcmitype/StillImage" />
        </cc:Work>
      </rdf:RDF>
    </metadata>
    <radialGradient
       inkscape:collect="always"
       xlink:href="#linearGradient1801"
       id="radialGradient1804"
       cx="0.38268062"
       cy="0.33845630"
       r="0.50000000"
       fx="0.36638781"
       fy="0.33215120" />
    <radialGradient
       inkscape:collect="always"
       xlink:href="#linearGradient1801"
       id="radialGradient1805"
       cx="0.38268062"
       cy="0.33845630"
       r="0.50000000"
       fx="0.36638781"
       fy="0.33215120" />
    <radialGradient
       inkscape:collect="always"
       xlink:href="#linearGradient1801"
       id="radialGradient1806"
       cx="0.38268062"
       cy="0.33845630"
       r="0.50000000"
       fx="0.36638781"
       fy="0.33215120" />
    <radialGradient
       inkscape:collect="always"
       xlink:href="#linearGradient1807"
       id="radialGradient1810"
       cx="0.38268062"
       cy="0.33845630"
       r="0.50000000"
       fx="0.36638781"
       fy="0.33215120" />
    <radialGradient
       inkscape:collect="always"
       xlink:href="#linearGradient1807"
       id="radialGradient1811"
       cx="0.38268062"
       cy="0.33845630"
       r="0.50000000"
       fx="0.36638781"
       fy="0.33215120" />
    <radialGradient
       inkscape:collect="always"
       xlink:href="#linearGradient1812"
       id="radialGradient1815"
       cx="0.38268062"
       cy="0.33845630"
       r="0.50000000"
       fx="0.36638781"
       fy="0.33215120" />
    <radialGradient
       inkscape:collect="always"
       xlink:href="#linearGradient1812"
       id="radialGradient1816"
       cx="0.38268062"
       cy="0.33845630"
       r="0.50000000"
       fx="0.36638781"
       fy="0.33215120" />
    <radialGradient
       inkscape:collect="always"
       xlink:href="#linearGradient1807"
       id="radialGradient2443"
       cx="0.38268062"
       cy="0.33845630"
       r="0.50000000"
       fx="0.36638781"
       fy="0.33215120" />
  </defs>
  <sodipodi:namedview
     id="base"
     pagecolor="#ffffff"
     bordercolor="#666666"
     borderopacity="1.0"
     inkscape:pageopacity="0.0"
     inkscape:pageshadow="2"
     inkscape:zoom="8.9583333"
     inkscape:cx="24.000000"
     inkscape:cy="24.000000"
     inkscape:window-width="866"
     inkscape:window-height="658"
     inkscape:window-x="214"
     inkscape:window-y="25"
     showguides="true"
     inkscape:guide-bbox="true" />
  <metadata
     id="metadata4">
    <rdf:RDF
       id="RDF5">
      <cc:Work
         rdf:about=""
         id="Work6">
        <dc:format
           id="format7">image/svg+xml</dc:format>
        <dc:type
           id="type9"
           rdf:resource="http://purl.org/dc/dcmitype/StillImage" />
      </cc:Work>
    </rdf:RDF>
  </metadata>
  <path
     style="opacity:0.29999998;fill:#000000;fill-opacity:1.0000000;fill-rule:evenodd;stroke:none;stroke-width:2.4309878;stroke-linecap:butt;stroke-linejoin:miter;stroke-miterlimit:4.0000000;stroke-opacity:1.0000000;"
     d="M 11.144447,4.0476862 C 7.7378009,3.6820130 4.6885980,6.1250090 4.3229250,9.5316548 C 3.9572519,12.938301 6.4336860,16.020943 9.8403325,16.386616 C 13.246979,16.752289 16.296181,14.275855 16.661855,10.869209 C 17.027528,7.4625622 14.551093,4.4133593 11.144447,4.0476862 z M 25.121880,4.0476862 C 21.715234,3.6820131 18.666031,6.1250089 18.300358,9.5316548 C 17.934684,12.938301 20.411118,16.020943 23.817765,16.386616 C 27.224411,16.752289 30.273615,14.275856 30.639287,10.869209 C 31.004960,7.4625622 28.528526,4.4133595 25.121880,4.0476862 z M 39.099312,4.0476862 C 35.692666,3.6820131 32.643463,6.1250089 32.277790,9.5316548 C 31.912117,12.938301 34.388550,16.020943 37.795198,16.386616 C 41.201843,16.752289 44.251046,14.275856 44.616719,10.869209 C 44.982392,7.4625622 42.505959,4.4133595 39.099312,4.0476862 z M 53.076744,4.0476862 C 49.670099,3.6820131 46.620893,6.1250089 46.255223,9.5316548 C 45.889549,12.938301 48.365984,16.020943 51.772630,16.386616 C 55.179275,16.752289 58.228480,14.275856 58.594152,10.869209 C 58.959825,7.4625622 56.483390,4.4133595 53.076744,4.0476862 z M 54.581492,17.724169 C 53.462155,17.350963 53.243996,20.584249 52.073580,20.733665 C 50.903163,20.883079 49.853129,17.817382 48.863451,18.459824 C 47.873772,19.102265 50.245468,21.297063 49.632544,22.305289 C 49.019620,23.313515 45.968728,22.234453 45.853956,23.408771 C 45.739183,24.583089 48.958925,24.073206 49.365033,25.181029 C 49.771144,26.288852 47.013725,28.003953 47.860287,28.825862 C 48.706846,29.647771 50.318904,26.814153 51.438241,27.187359 C 52.557578,27.560565 52.173841,30.780974 53.344255,30.631559 C 54.514669,30.482144 53.324302,27.461975 54.313981,26.819533 C 55.303660,26.177090 57.579962,28.496536 58.192886,27.488309 C 58.805810,26.480082 55.703954,25.552815 55.818729,24.378497 C 55.933502,23.204179 59.134018,22.844653 58.727907,21.736829 C 58.321797,20.629007 55.662122,22.458421 54.815564,21.636513 C 53.969004,20.814603 55.700828,18.097375 54.581492,17.724169 z M 11.144447,18.025119 C 7.7378009,17.659445 4.6885980,20.102441 4.3229250,23.509088 C 3.9572520,26.915733 6.4336868,29.998375 9.8403325,30.364049 C 13.246979,30.729722 16.296180,28.253287 16.661855,24.846641 C 17.027528,21.439995 14.551094,18.390791 11.144447,18.025119 z M 25.121880,18.025119 C 21.715234,17.659445 18.666031,20.102441 18.300358,23.509088 C 17.934684,26.915733 20.411118,29.998375 23.817765,30.364049 C 27.224411,30.729722 30.273615,28.253287 30.639287,24.846641 C 31.004960,21.439995 28.528526,18.390791 25.121880,18.025119 z M 39.099312,18.025119 C 35.692666,17.659445 32.643463,20.102441 32.277790,23.509088 C 31.912117,26.915733 34.388550,29.998375 37.795198,30.364049 C 41.201843,30.729722 44.251046,28.253287 44.616719,24.846641 C 44.982392,21.439995 42.505959,18.390791 39.099312,18.025119 z M 40.938448,31.801918 C 39.819111,31.428712 39.567514,34.662000 38.397096,34.811413 C 37.226681,34.960828 36.176647,31.895131 35.186968,32.537573 C 34.197289,33.180014 36.602424,35.374812 35.989501,36.383038 C 35.376576,37.391264 32.292248,36.312199 32.177474,37.486520 C 32.062700,38.660838 35.282442,38.150955 35.688551,39.258778 C 36.094661,40.366600 33.337243,42.081702 34.183804,42.903610 C 35.030362,43.725520 36.642421,40.925341 37.761759,41.298547 C 38.881095,41.671753 38.497358,44.892161 39.667773,44.742747 C 40.838187,44.593332 39.647819,41.573160 40.637499,40.930720 C 41.627178,40.288278 43.903479,42.607722 44.516403,41.599497 C 45.129328,40.591270 42.027472,39.630564 42.142245,38.456246 C 42.257018,37.281927 45.490975,36.955838 45.084863,35.848017 C 44.678753,34.740194 41.985639,36.569609 41.139081,35.747700 C 40.292522,34.925792 42.057784,32.175123 40.938448,31.801918 z M 55.216830,31.801918 C 54.097493,31.428712 53.845896,34.662000 52.675478,34.811413 C 51.505063,34.960828 50.488468,31.895131 49.498789,32.537573 C 48.509110,33.180014 50.880807,35.374812 50.267882,36.383038 C 49.654957,37.391264 46.604067,36.312199 46.489294,37.486520 C 46.374520,38.660838 49.594263,38.150955 50.000372,39.258778 C 50.406481,40.366600 47.615625,42.081702 48.462185,42.903610 C 49.308744,43.725520 50.954243,40.925341 52.073580,41.298547 C 53.192915,41.671753 52.775740,44.892161 53.946154,44.742747 C 55.116569,44.593332 53.926200,41.573160 54.915880,40.930720 C 55.905560,40.288278 58.181861,42.607722 58.794784,41.599497 C 59.407710,40.591270 56.305855,39.630564 56.420627,38.456246 C 56.535400,37.281927 59.769357,36.955838 59.363245,35.848017 C 58.957135,34.740194 56.264021,36.569609 55.417463,35.747700 C 54.570904,34.925792 56.336167,32.175123 55.216830,31.801918 z M 11.144447,31.969113 C 7.7378009,31.603439 4.6885980,34.079875 4.3229250,37.486520 C 3.9572520,40.893165 6.4336868,43.975806 9.8403325,44.341480 C 13.246979,44.707154 16.296180,42.230720 16.661855,38.824074 C 17.027528,35.417428 14.551094,32.334784 11.144447,31.969113 z M 27.061332,32.236623 C 25.941996,31.863417 25.690397,35.096704 24.519980,35.246118 C 23.349565,35.395532 22.299532,32.329835 21.309853,32.972277 C 20.320174,33.614720 22.725311,35.809516 22.112384,36.817744 C 21.499460,37.825970 18.415132,36.713469 18.300358,37.887786 C 18.185583,39.062104 21.405325,38.585659 21.811435,39.693483 C 22.217545,40.801306 19.460128,42.482967 20.306687,43.304877 C 21.153246,44.126786 22.765306,41.326605 23.884643,41.699813 C 25.003979,42.073019 24.620242,45.293426 25.790657,45.144013 C 26.961071,44.994599 25.770704,41.974430 26.760383,41.331986 C 27.750062,40.689543 30.026362,43.008989 30.639287,42.000762 C 31.252212,40.992536 28.150356,40.031829 28.265130,38.857512 C 28.379903,37.683194 31.613857,37.357108 31.207748,36.249283 C 30.801637,35.141460 28.108524,36.970874 27.261965,36.148966 C 26.415406,35.327057 28.180669,32.609829 27.061332,32.236623 z M 12.080735,45.879667 C 10.961398,45.506461 10.743237,48.739747 9.5728218,48.889162 C 8.4024065,49.038576 7.3523729,45.972878 6.3626938,46.615321 C 5.3730146,47.257763 7.7447120,49.452563 7.1317870,50.460787 C 6.5188621,51.469013 3.4679723,50.356512 3.3531988,51.530830 C 3.2384255,52.705148 6.4581660,52.228706 6.8642763,53.336527 C 7.2703868,54.444349 4.5129696,56.159453 5.3595288,56.981359 C 6.2060879,57.803269 7.8181472,54.969652 8.9374840,55.342857 C 10.056820,55.716063 9.6396427,58.936474 10.810060,58.787056 C 11.980474,58.637642 10.790106,55.617473 11.779785,54.975029 C 12.769465,54.332588 15.045765,56.652034 15.658689,55.643806 C 16.271615,54.635580 13.169760,53.674873 13.284533,52.500556 C 13.399305,51.326238 16.633260,51.000151 16.227150,49.892327 C 15.821040,48.784505 13.161365,50.613921 12.314806,49.792011 C 11.468247,48.970101 13.200072,46.252874 12.080735,45.879667 z M 39.099312,45.946544 C 35.692666,45.580872 32.643463,48.057307 32.277790,51.463952 C 31.912117,54.870598 34.388550,57.919802 37.795198,58.285474 C 41.201843,58.651148 44.251046,56.208151 44.616719,52.801505 C 44.982392,49.394860 42.505959,46.312216 39.099312,45.946544 z M 53.076744,45.946544 C 49.670099,45.580872 46.620893,48.057307 46.255223,51.463952 C 45.889549,54.870598 48.365984,57.919802 51.772630,58.285474 C 55.179275,58.651148 58.228480,56.208151 58.594152,52.801505 C 58.959825,49.394860 56.483390,46.312216 53.076744,45.946544 z M 26.024728,46.314372 C 24.905392,45.941166 24.653793,49.174453 23.483377,49.323867 C 22.312961,49.473281 21.262928,46.407583 20.273249,47.050026 C 19.283570,47.692468 21.688706,49.887265 21.075781,50.895492 C 20.462856,51.903719 17.378527,50.791217 17.263754,51.965535 C 17.148981,53.139853 20.368721,52.663408 20.774831,53.771231 C 21.180941,54.879055 18.423524,56.594154 19.270084,57.416065 C 20.116642,58.237973 21.728702,55.404354 22.848039,55.777562 C 23.967376,56.150768 23.583638,59.371175 24.754053,59.221762 C 25.924467,59.072347 24.734101,56.052178 25.723779,55.409735 C 26.713458,54.767292 28.989758,57.086739 29.602683,56.078511 C 30.215608,55.070284 27.113753,54.109578 27.228526,52.935261 C 27.343299,51.760943 30.577254,51.434857 30.171144,50.327031 C 29.765034,49.219209 27.071921,51.048623 26.225361,50.226715 C 25.378802,49.404806 27.144064,46.687576 26.024728,46.314372 z "
     id="path3132"
     transform="matrix(1.005800,0.000000,0.000000,1.005800,0.257047,0.271383)" />
  <path
     sodipodi:type="arc"
     style="fill:url(#radialGradient3628);fill-opacity:1.0000000;fill-rule:evenodd;stroke:#261933;stroke-width:2.2587604;stroke-linecap:butt;stroke-linejoin:miter;stroke-miterlimit:4.0000000;stroke-opacity:1.0000000;stroke-dasharray:none;"
     id="path2313"
     sodipodi:cx="19.090910"
     sodipodi:cy="18.099174"
     sodipodi:rx="7.5206614"
     sodipodi:ry="7.5206614"
     d="M 26.611571 18.099174 A 7.5206614 7.5206614 0 1 0 11.570249,18.099174 A 7.5206614 7.5206614 0 1 0 26.611571 18.099174 z"
     transform="matrix(0.825360,8.859509e-2,-8.859509e-2,0.825360,-6.504040,-9.285084)" />
  <path
     style="fill:url(#linearGradient8045);fill-opacity:1.0000000;fill-rule:evenodd;stroke:none;stroke-width:1.9579484;stroke-linecap:butt;stroke-linejoin:miter;stroke-miterlimit:4.0000000;stroke-opacity:1.0000000;"
     d="M 3.4091193,9.3038645 C 2.3803573,8.5848636 2.3709524,4.8480388 4.2854850,3.3868883 C 6.2216595,1.9092210 9.0693694,2.4454484 10.038713,3.1023564 C 8.4458018,3.1264858 6.4084964,3.5100412 5.2084965,4.4235795 C 4.0362377,5.3159990 3.4789789,7.8632998 3.4091193,9.3038645 z "
     id="path6802"
     sodipodi:nodetypes="czczc"
     transform="matrix(1.005800,0.000000,0.000000,1.005800,0.257047,0.271383)" />
  <path
     sodipodi:type="arc"
     style="fill:url(#radialGradient2443);fill-opacity:1.0000000;fill-rule:evenodd;stroke:#261933;stroke-width:2.2587604;stroke-linecap:butt;stroke-linejoin:miter;stroke-miterlimit:4.0000000;stroke-opacity:1.0000000;stroke-dasharray:none;"
     id="path1124"
     sodipodi:cx="19.090910"
     sodipodi:cy="18.099174"
     sodipodi:rx="7.5206614"
     sodipodi:ry="7.5206614"
     d="M 26.611571 18.099174 A 7.5206614 7.5206614 0 1 0 11.570249,18.099174 A 7.5206614 7.5206614 0 1 0 26.611571 18.099174 z"
     transform="matrix(0.825360,8.859507e-2,-8.859507e-2,0.825360,7.557043,-9.285079)" />
  <path
     sodipodi:type="arc"
     style="fill:url(#radialGradient1806);fill-opacity:1.0000000;fill-rule:evenodd;stroke:#261933;stroke-width:2.2587604;stroke-linecap:butt;stroke-linejoin:miter;stroke-miterlimit:4.0000000;stroke-opacity:1.0000000;stroke-dasharray:none;"
     id="path1126"
     sodipodi:cx="19.090910"
     sodipodi:cy="18.099174"
     sodipodi:rx="7.5206614"
     sodipodi:ry="7.5206614"
     d="M 26.611571 18.099174 A 7.5206614 7.5206614 0 1 0 11.570249,18.099174 A 7.5206614 7.5206614 0 1 0 26.611571 18.099174 z"
     transform="matrix(0.825360,8.859507e-2,-8.859507e-2,0.825360,21.61813,-9.285079)" />
  <path
     sodipodi:type="arc"
     style="fill:url(#radialGradient3628);fill-opacity:1.0000000;fill-rule:evenodd;stroke:#261933;stroke-width:2.2587604;stroke-linecap:butt;stroke-linejoin:miter;stroke-miterlimit:4.0000000;stroke-opacity:1.0000000;stroke-dasharray:none;"
     id="path1128"
     sodipodi:cx="19.090910"
     sodipodi:cy="18.099174"
     sodipodi:rx="7.5206614"
     sodipodi:ry="7.5206614"
     d="M 26.611571 18.099174 A 7.5206614 7.5206614 0 1 0 11.570249,18.099174 A 7.5206614 7.5206614 0 1 0 26.611571 18.099174 z"
     transform="matrix(0.825360,8.859507e-2,-8.859507e-2,0.825360,35.67919,-9.285079)" />
  <path
     sodipodi:type="arc"
     style="fill:url(#radialGradient1810);fill-opacity:1.0000000;fill-rule:evenodd;stroke:#261933;stroke-width:2.2587604;stroke-linecap:butt;stroke-linejoin:miter;stroke-miterlimit:4.0000000;stroke-opacity:1.0000000;stroke-dasharray:none;"
     id="path1130"
     sodipodi:cx="19.090910"
     sodipodi:cy="18.099174"
     sodipodi:rx="7.5206614"
     sodipodi:ry="7.5206614"
     d="M 26.611571 18.099174 A 7.5206614 7.5206614 0 1 0 11.570249,18.099174 A 7.5206614 7.5206614 0 1 0 26.611571 18.099174 z"
     transform="matrix(0.825360,8.859507e-2,-8.859507e-2,0.825360,-6.504036,4.768396)" />
  <path
     sodipodi:type="arc"
     style="fill:url(#radialGradient1804);fill-opacity:1.0000000;fill-rule:evenodd;stroke:#261933;stroke-width:2.2587604;stroke-linecap:butt;stroke-linejoin:miter;stroke-miterlimit:4.0000000;stroke-opacity:1.0000000;stroke-dasharray:none;"
     id="path1132"
     sodipodi:cx="19.090910"
     sodipodi:cy="18.099174"
     sodipodi:rx="7.5206614"
     sodipodi:ry="7.5206614"
     d="M 26.611571 18.099174 A 7.5206614 7.5206614 0 1 0 11.570249,18.099174 A 7.5206614 7.5206614 0 1 0 26.611571 18.099174 z"
     transform="matrix(0.825360,8.859507e-2,-8.859507e-2,0.825360,7.557043,4.768396)" />
  <path
     sodipodi:type="arc"
     style="fill:url(#radialGradient1805);fill-opacity:1.0000000;fill-rule:evenodd;stroke:#261933;stroke-width:2.2587604;stroke-linecap:butt;stroke-linejoin:miter;stroke-miterlimit:4.0000000;stroke-opacity:1.0000000;stroke-dasharray:none;"
     id="path1134"
     sodipodi:cx="19.090910"
     sodipodi:cy="18.099174"
     sodipodi:rx="7.5206614"
     sodipodi:ry="7.5206614"
     d="M 26.611571 18.099174 A 7.5206614 7.5206614 0 1 0 11.570249,18.099174 A 7.5206614 7.5206614 0 1 0 26.611571 18.099174 z"
     transform="matrix(0.825360,8.859507e-2,-8.859507e-2,0.825360,21.61813,4.768396)" />
  <path
     sodipodi:type="arc"
     style="fill:url(#radialGradient1811);fill-opacity:1.0000000;fill-rule:evenodd;stroke:#261933;stroke-width:2.2587604;stroke-linecap:butt;stroke-linejoin:miter;stroke-miterlimit:4.0000000;stroke-opacity:1.0000000;stroke-dasharray:none;"
     id="path1138"
     sodipodi:cx="19.090910"
     sodipodi:cy="18.099174"
     sodipodi:rx="7.5206614"
     sodipodi:ry="7.5206614"
     d="M 26.611571 18.099174 A 7.5206614 7.5206614 0 1 0 11.570249,18.099174 A 7.5206614 7.5206614 0 1 0 26.611571 18.099174 z"
     transform="matrix(0.825360,8.859507e-2,-8.859507e-2,0.825360,-6.504036,18.82186)" />
  <path
     sodipodi:type="arc"
     style="fill:url(#radialGradient1815);fill-opacity:1.0000000;fill-rule:evenodd;stroke:#261933;stroke-width:2.2587604;stroke-linecap:butt;stroke-linejoin:miter;stroke-miterlimit:4.0000000;stroke-opacity:1.0000000;stroke-dasharray:none;"
     id="path1150"
     sodipodi:cx="19.090910"
     sodipodi:cy="18.099174"
     sodipodi:rx="7.5206614"
     sodipodi:ry="7.5206614"
     d="M 26.611571 18.099174 A 7.5206614 7.5206614 0 1 0 11.570249,18.099174 A 7.5206614 7.5206614 0 1 0 26.611571 18.099174 z"
     transform="matrix(0.825360,8.859507e-2,-8.859507e-2,0.825360,21.61813,32.87535)" />
  <path
     sodipodi:type="arc"
     style="fill:url(#radialGradient1816);fill-opacity:1.0000000;fill-rule:evenodd;stroke:#261933;stroke-width:2.2587604;stroke-linecap:butt;stroke-linejoin:miter;stroke-miterlimit:4.0000000;stroke-opacity:1.0000000;stroke-dasharray:none;"
     id="path1152"
     sodipodi:cx="19.090910"
     sodipodi:cy="18.099174"
     sodipodi:rx="7.5206614"
     sodipodi:ry="7.5206614"
     d="M 26.611571 18.099174 A 7.5206614 7.5206614 0 1 0 11.570249,18.099174 A 7.5206614 7.5206614 0 1 0 26.611571 18.099174 z"
     transform="matrix(0.825360,8.859507e-2,-8.859507e-2,0.825360,35.67919,32.87535)" />
  <path
     sodipodi:type="star"
     style="fill:#f5f56d;fill-opacity:1.0000000;fill-rule:evenodd;stroke:#261933;stroke-width:1.1028776;stroke-linecap:butt;stroke-linejoin:miter;stroke-miterlimit:4.0000000;stroke-opacity:1.0000000;"
     id="path1170"
     sodipodi:sides="7"
     sodipodi:cx="67.933884"
     sodipodi:cy="13.553719"
     sodipodi:r1="7.8316417"
     sodipodi:r2="3.9158206"
     sodipodi:arg1="1.4438235"
     sodipodi:arg2="1.8926225"
     inkscape:flatsided="false"
     inkscape:rounded="0.30000000"
     d="M 68.925620,21.322314 C 67.548740,21.498086 68.012101,17.707539 66.695312,17.268499 C 65.378522,16.829458 63.474383,20.139624 62.478489,19.172729 C 61.482594,18.205833 64.735064,16.204736 64.257315,14.901491 C 63.779565,13.598246 60.004362,14.173385 60.139381,12.791914 C 60.274401,11.410444 63.866803,12.705663 64.587849,11.519584 C 65.308895,10.333504 62.505433,7.7405246 63.669693,6.9847542 C 64.833954,6.2289838 66.061137,9.8451931 67.438016,9.6694212 C 68.814895,9.4936493 69.094238,5.6851175 70.411028,6.1241581 C 71.727818,6.5631987 69.665687,9.7773182 70.661581,10.744214 C 71.657475,11.711109 74.809273,9.5549275 75.287022,10.858173 C 75.764771,12.161418 71.966154,12.553150 71.831135,13.934621 C 71.696115,15.316092 75.346999,16.435909 74.625953,17.621988 C 73.904907,18.808068 71.230239,16.082430 70.065979,16.838201 C 68.901718,17.593971 70.302499,21.146542 68.925620,21.322314 z "
     transform="matrix(0.854979,0.000000,0.000000,0.854979,-50.94350,37.97879)" />
  <path
     sodipodi:type="star"
     style="fill:#f5f56d;fill-opacity:1.0000000;fill-rule:evenodd;stroke:#261933;stroke-width:1.1028776;stroke-linecap:butt;stroke-linejoin:miter;stroke-miterlimit:4.0000000;stroke-opacity:1.0000000;"
     id="path1172"
     sodipodi:sides="7"
     sodipodi:cx="67.933884"
     sodipodi:cy="13.553719"
     sodipodi:r1="7.8316417"
     sodipodi:r2="3.9158206"
     sodipodi:arg1="1.4438235"
     sodipodi:arg2="1.8926225"
     inkscape:flatsided="false"
     inkscape:rounded="0.30000000"
     d="M 68.925620,21.322314 C 67.548740,21.498086 68.012101,17.707539 66.695312,17.268499 C 65.378522,16.829458 63.474383,20.139624 62.478489,19.172729 C 61.482594,18.205833 64.735064,16.204736 64.257315,14.901491 C 63.779565,13.598246 60.004362,14.173385 60.139381,12.791914 C 60.274401,11.410444 63.866803,12.705663 64.587849,11.519584 C 65.308895,10.333504 62.505433,7.7405246 63.669693,6.9847542 C 64.833954,6.2289838 66.061137,9.8451931 67.438016,9.6694212 C 68.814895,9.4936493 69.094238,5.6851175 70.411028,6.1241581 C 71.727818,6.5631987 69.665687,9.7773182 70.661581,10.744214 C 71.657475,11.711109 74.809273,9.5549275 75.287022,10.858173 C 75.764771,12.161418 71.966154,12.553150 71.831135,13.934621 C 71.696115,15.316092 75.346999,16.435909 74.625953,17.621988 C 73.904907,18.808068 71.230239,16.082430 70.065979,16.838201 C 68.901718,17.593971 70.302499,21.146542 68.925620,21.322314 z "
     transform="matrix(0.854979,0.000000,0.000000,0.854979,-36.93911,38.41803)" />
  <path
     sodipodi:type="star"
     style="fill:#f5f56d;fill-opacity:1.0000000;fill-rule:evenodd;stroke:#261933;stroke-width:1.1028776;stroke-linecap:butt;stroke-linejoin:miter;stroke-miterlimit:4.0000000;stroke-opacity:1.0000000;"
     id="path1173"
     sodipodi:sides="7"
     sodipodi:cx="67.933884"
     sodipodi:cy="13.553719"
     sodipodi:r1="7.8316417"
     sodipodi:r2="3.9158206"
     sodipodi:arg1="1.4438235"
     sodipodi:arg2="1.8926225"
     inkscape:flatsided="false"
     inkscape:rounded="0.30000000"
     d="M 68.925620,21.322314 C 67.548740,21.498086 68.012101,17.707539 66.695312,17.268499 C 65.378522,16.829458 63.474383,20.139624 62.478489,19.172729 C 61.482594,18.205833 64.735064,16.204736 64.257315,14.901491 C 63.779565,13.598246 60.004362,14.173385 60.139381,12.791914 C 60.274401,11.410444 63.866803,12.705663 64.587849,11.519584 C 65.308895,10.333504 62.505433,7.7405246 63.669693,6.9847542 C 64.833954,6.2289838 66.061137,9.8451931 67.438016,9.6694212 C 68.814895,9.4936493 69.094238,5.6851175 70.411028,6.1241581 C 71.727818,6.5631987 69.665687,9.7773182 70.661581,10.744214 C 71.657475,11.711109 74.809273,9.5549275 75.287022,10.858173 C 75.764771,12.161418 71.966154,12.553150 71.831135,13.934621 C 71.696115,15.316092 75.346999,16.435909 74.625953,17.621988 C 73.904907,18.808068 71.230239,16.082430 70.065979,16.838201 C 68.901718,17.593971 70.302499,21.146542 68.925620,21.322314 z "
     transform="matrix(0.854979,0.000000,0.000000,0.854979,-35.89741,24.25117)" />
  <path
     sodipodi:type="star"
     style="fill:#f5f56d;fill-opacity:1.0000000;fill-rule:evenodd;stroke:#261933;stroke-width:1.1028776;stroke-linecap:butt;stroke-linejoin:miter;stroke-miterlimit:4.0000000;stroke-opacity:1.0000000;"
     id="path1174"
     sodipodi:sides="7"
     sodipodi:cx="67.933884"
     sodipodi:cy="13.553719"
     sodipodi:r1="7.8316417"
     sodipodi:r2="3.9158206"
     sodipodi:arg1="1.4438235"
     sodipodi:arg2="1.8926225"
     inkscape:flatsided="false"
     inkscape:rounded="0.30000000"
     d="M 68.925620,21.322314 C 67.548740,21.498086 68.012101,17.707539 66.695312,17.268499 C 65.378522,16.829458 63.474383,20.139624 62.478489,19.172729 C 61.482594,18.205833 64.735064,16.204736 64.257315,14.901491 C 63.779565,13.598246 60.004362,14.173385 60.139381,12.791914 C 60.274401,11.410444 63.866803,12.705663 64.587849,11.519584 C 65.308895,10.333504 62.505433,7.7405246 63.669693,6.9847542 C 64.833954,6.2289838 66.061137,9.8451931 67.438016,9.6694212 C 68.814895,9.4936493 69.094238,5.6851175 70.411028,6.1241581 C 71.727818,6.5631987 69.665687,9.7773182 70.661581,10.744214 C 71.657475,11.711109 74.809273,9.5549275 75.287022,10.858173 C 75.764771,12.161418 71.966154,12.553150 71.831135,13.934621 C 71.696115,15.316092 75.346999,16.435909 74.625953,17.621988 C 73.904907,18.808068 71.230239,16.082430 70.065979,16.838201 C 68.901718,17.593971 70.302499,21.146542 68.925620,21.322314 z "
     transform="matrix(0.854979,0.000000,0.000000,0.854979,-21.93891,23.83451)" />
  <path
     sodipodi:type="star"
     style="fill:#f5f56d;fill-opacity:1.0000000;fill-rule:evenodd;stroke:#261933;stroke-width:1.1028776;stroke-linecap:butt;stroke-linejoin:miter;stroke-miterlimit:4.0000000;stroke-opacity:1.0000000;"
     id="path1175"
     sodipodi:sides="7"
     sodipodi:cx="67.933884"
     sodipodi:cy="13.553719"
     sodipodi:r1="7.8316417"
     sodipodi:r2="3.9158206"
     sodipodi:arg1="1.4438235"
     sodipodi:arg2="1.8926225"
     inkscape:flatsided="false"
     inkscape:rounded="0.30000000"
     d="M 68.925620,21.322314 C 67.548740,21.498086 68.012101,17.707539 66.695312,17.268499 C 65.378522,16.829458 63.474383,20.139624 62.478489,19.172729 C 61.482594,18.205833 64.735064,16.204736 64.257315,14.901491 C 63.779565,13.598246 60.004362,14.173385 60.139381,12.791914 C 60.274401,11.410444 63.866803,12.705663 64.587849,11.519584 C 65.308895,10.333504 62.505433,7.7405246 63.669693,6.9847542 C 64.833954,6.2289838 66.061137,9.8451931 67.438016,9.6694212 C 68.814895,9.4936493 69.094238,5.6851175 70.411028,6.1241581 C 71.727818,6.5631987 69.665687,9.7773182 70.661581,10.744214 C 71.657475,11.711109 74.809273,9.5549275 75.287022,10.858173 C 75.764771,12.161418 71.966154,12.553150 71.831135,13.934621 C 71.696115,15.316092 75.346999,16.435909 74.625953,17.621988 C 73.904907,18.808068 71.230239,16.082430 70.065979,16.838201 C 68.901718,17.593971 70.302499,21.146542 68.925620,21.322314 z "
     transform="matrix(0.854979,0.000000,0.000000,0.854979,-7.563717,23.83451)" />
  <path
     sodipodi:type="star"
     style="fill:#f5f56d;fill-opacity:1.0000000;fill-rule:evenodd;stroke:#261933;stroke-width:1.1028776;stroke-linecap:butt;stroke-linejoin:miter;stroke-miterlimit:4.0000000;stroke-opacity:1.0000000;"
     id="path1176"
     sodipodi:sides="7"
     sodipodi:cx="67.933884"
     sodipodi:cy="13.553719"
     sodipodi:r1="7.8316417"
     sodipodi:r2="3.9158206"
     sodipodi:arg1="1.4438235"
     sodipodi:arg2="1.8926225"
     inkscape:flatsided="false"
     inkscape:rounded="0.30000000"
     d="M 68.925620,21.322314 C 67.548740,21.498086 68.012101,17.707539 66.695312,17.268499 C 65.378522,16.829458 63.474383,20.139624 62.478489,19.172729 C 61.482594,18.205833 64.735064,16.204736 64.257315,14.901491 C 63.779565,13.598246 60.004362,14.173385 60.139381,12.791914 C 60.274401,11.410444 63.866803,12.705663 64.587849,11.519584 C 65.308895,10.333504 62.505433,7.7405246 63.669693,6.9847542 C 64.833954,6.2289838 66.061137,9.8451931 67.438016,9.6694212 C 68.814895,9.4936493 69.094238,5.6851175 70.411028,6.1241581 C 71.727818,6.5631987 69.665687,9.7773182 70.661581,10.744214 C 71.657475,11.711109 74.809273,9.5549275 75.287022,10.858173 C 75.764771,12.161418 71.966154,12.553150 71.831135,13.934621 C 71.696115,15.316092 75.346999,16.435909 74.625953,17.621988 C 73.904907,18.808068 71.230239,16.082430 70.065979,16.838201 C 68.901718,17.593971 70.302499,21.146542 68.925620,21.322314 z "
     transform="matrix(0.854979,0.000000,0.000000,0.854979,-8.188728,9.667648)" />
  <path
     style="fill:url(#linearGradient8045);fill-opacity:1.0000000;fill-rule:evenodd;stroke:none;stroke-width:1.9579484;stroke-linecap:butt;stroke-linejoin:miter;stroke-miterlimit:4.0000000;stroke-opacity:1.0000000;"
     d="M 17.751350,9.6257936 C 16.722587,8.9067930 16.713182,5.1699683 18.627716,3.7088175 C 20.563890,2.2311511 23.411600,2.7673777 24.380942,3.4242865 C 22.788031,3.4484161 20.750726,3.8319709 19.550726,4.7455090 C 18.378468,5.6379286 17.821209,8.1852285 17.751350,9.6257936 z "
     id="path2449"
     sodipodi:nodetypes="czczc"
     transform="matrix(1.005800,0.000000,0.000000,1.005800,0.257047,0.271383)" />
  <path
     style="fill:url(#linearGradient8045);fill-opacity:1.0000000;fill-rule:evenodd;stroke:none;stroke-width:1.9579484;stroke-linecap:butt;stroke-linejoin:miter;stroke-miterlimit:4.0000000;stroke-opacity:1.0000000;"
     d="M 31.565301,9.4509333 C 30.536539,8.7319328 30.527134,4.9951080 32.441667,3.5339584 C 34.377842,2.0562908 37.225550,2.5925186 38.194894,3.2494261 C 36.601983,3.2735558 34.564678,3.6571106 33.364678,4.5706486 C 32.192420,5.4630684 31.635161,8.0103681 31.565301,9.4509333 z "
     id="path2450"
     sodipodi:nodetypes="czczc"
     transform="matrix(1.005800,0.000000,0.000000,1.005800,0.257047,0.271383)" />
  <path
     style="fill:url(#linearGradient8045);fill-opacity:1.0000000;fill-rule:evenodd;stroke:none;stroke-width:1.9579484;stroke-linecap:butt;stroke-linejoin:miter;stroke-miterlimit:4.0000000;stroke-opacity:1.0000000;"
     d="M 45.554114,9.4509337 C 44.525351,8.7319331 44.515947,4.9951084 46.430478,3.5339575 C 48.366652,2.0562912 51.214362,2.5925177 52.183705,3.2494265 C 50.590796,3.2735549 48.553490,3.6571110 47.353489,4.5706490 C 46.181232,5.4630688 45.623973,8.0103685 45.554114,9.4509337 z "
     id="path2451"
     sodipodi:nodetypes="czczc"
     transform="matrix(1.005800,0.000000,0.000000,1.005800,0.257047,0.271383)" />
  <path
     style="fill:url(#linearGradient8045);fill-opacity:1.0000000;fill-rule:evenodd;stroke:none;stroke-width:1.9579484;stroke-linecap:butt;stroke-linejoin:miter;stroke-miterlimit:4.0000000;stroke-opacity:1.0000000;"
     d="M 31.565301,23.439745 C 30.536539,22.720745 30.527134,18.983919 32.441667,17.522770 C 34.377841,16.045102 37.225550,16.581330 38.194894,17.238237 C 36.601983,17.262367 34.564677,17.645922 33.364678,18.559460 C 32.192420,19.451880 31.635161,21.999181 31.565301,23.439745 z "
     id="path2452"
     sodipodi:nodetypes="czczc"
     transform="matrix(1.005800,0.000000,0.000000,1.005800,0.257047,0.271383)" />
  <path
     style="fill:url(#linearGradient8045);fill-opacity:1.0000000;fill-rule:evenodd;stroke:none;stroke-width:1.9579484;stroke-linecap:butt;stroke-linejoin:miter;stroke-miterlimit:4.0000000;stroke-opacity:1.0000000;"
     d="M 17.751350,23.614606 C 16.722587,22.895604 16.713184,19.158780 18.627716,17.697630 C 20.563890,16.219963 23.411600,16.756190 24.380942,17.413098 C 22.788032,17.437228 20.750726,17.820783 19.550726,18.734321 C 18.378469,19.626740 17.821209,22.174042 17.751350,23.614606 z "
     id="path2453"
     sodipodi:nodetypes="czczc"
     transform="matrix(1.005800,0.000000,0.000000,1.005800,0.257047,0.271383)" />
  <path
     style="fill:url(#linearGradient8045);fill-opacity:1.0000000;fill-rule:evenodd;stroke:none;stroke-width:1.9579484;stroke-linecap:butt;stroke-linejoin:miter;stroke-miterlimit:4.0000000;stroke-opacity:1.0000000;"
     d="M 31.565302,51.417370 C 30.536539,50.698368 30.527134,46.961545 32.441668,45.500393 C 34.377842,44.022728 37.225552,44.558954 38.194894,45.215863 C 36.601983,45.239992 34.564678,45.623548 33.364678,46.537086 C 32.192420,47.429505 31.635161,49.976805 31.565302,51.417370 z "
     id="path2454"
     sodipodi:nodetypes="czczc"
     transform="matrix(1.005800,0.000000,0.000000,1.005800,0.257047,0.271383)" />
  <path
     style="fill:url(#linearGradient8045);fill-opacity:1.0000000;fill-rule:evenodd;stroke:none;stroke-width:1.9579484;stroke-linecap:butt;stroke-linejoin:miter;stroke-miterlimit:4.0000000;stroke-opacity:1.0000000;"
     d="M 45.379253,51.592230 C 44.350490,50.873229 44.341086,47.136404 46.255619,45.675254 C 48.191793,44.197586 51.039502,44.733815 52.008845,45.390721 C 50.415935,45.414851 48.378629,45.798407 47.178629,46.711945 C 46.006372,47.604364 45.449112,50.151665 45.379253,51.592230 z "
     id="path2455"
     sodipodi:nodetypes="czczc"
     transform="matrix(1.005800,0.000000,0.000000,1.005800,0.257047,0.271383)" />
  <path
     style="fill:url(#linearGradient8045);fill-opacity:1.0000000;fill-rule:evenodd;stroke:none;stroke-width:1.9579484;stroke-linecap:butt;stroke-linejoin:miter;stroke-miterlimit:4.0000000;stroke-opacity:1.0000000;"
     d="M 3.6141095,37.639202 C 2.5853477,36.920201 2.5759428,33.183378 4.4904751,31.722227 C 6.4266495,30.244560 9.2743590,30.780787 10.243703,31.437695 C 8.6507915,31.461825 6.6134863,31.845381 5.4134866,32.758919 C 4.2412279,33.651337 3.6839692,36.198638 3.6141095,37.639202 z "
     id="path2456"
     sodipodi:nodetypes="czczc"
     transform="matrix(1.005800,0.000000,0.000000,1.005800,0.257047,0.271383)" />
  <path
     style="fill:url(#linearGradient8045);fill-opacity:1.0000000;fill-rule:evenodd;stroke:none;stroke-width:1.9579484;stroke-linecap:butt;stroke-linejoin:miter;stroke-miterlimit:4.0000000;stroke-opacity:1.0000000;"
     d="M 3.7007264,23.520670 C 2.6719644,22.801669 2.6625595,19.064844 4.5770919,17.603693 C 6.5132662,16.126027 9.3609757,16.662253 10.330319,17.319162 C 8.7374082,17.343291 6.7001030,17.726847 5.5001033,18.640385 C 4.3278447,19.532805 3.7705859,22.080104 3.7007264,23.520670 z "
     id="path2457"
     sodipodi:nodetypes="czczc"
     transform="matrix(1.005800,0.000000,0.000000,1.005800,0.257047,0.271383)" />
</svg>
