<?xml version="1.0" encoding="UTF-8" standalone="no"?>
<!DOCTYPE svg PUBLIC "-//W3C//DTD SVG 20010904//EN"
"http://www.w3.org/TR/2001/REC-SVG-20010904/DTD/svg10.dtd">
<!-- Created with Inkscape (http://www.inkscape.org/) -->
<svg
   version="1.0"
   x="0"
   y="0"
   width="48pt"
   height="48pt"
   id="svg1"
   sodipodi:version="0.32"
   inkscape:version="0.39"
   sodipodi:docname="gnome-modem.svg"
   sodipodi:docbase="/home/scaba/files/lila/work/lila-gnome/Lila/scalable/apps"
   xmlns="http://www.w3.org/2000/svg"
   xmlns:cc="http://web.resource.org/cc/"
   xmlns:inkscape="http://www.inkscape.org/namespaces/inkscape"
   xmlns:sodipodi="http://sodipodi.sourceforge.net/DTD/sodipodi-0.dtd"
   xmlns:rdf="http://www.w3.org/1999/02/22-rdf-syntax-ns#"
   xmlns:dc="http://purl.org/dc/elements/1.1/"
   xmlns:xlink="http://www.w3.org/1999/xlink">
  <sodipodi:namedview
     id="base"
     inkscape:zoom="22.627417"
     inkscape:cx="22.032262"
     inkscape:cy="10.042959"
     inkscape:window-width="1022"
     inkscape:window-height="695"
     inkscape:window-x="0"
     inkscape:window-y="26"
     showguides="true"
     inkscape:guide-bbox="true" />
  <defs
     id="defs3">
    <linearGradient
       xlink:href="#linearGradient563"
       id="linearGradient603"
       x1="-0.00000000"
       y1="0.00000000"
       x2="1.00000000"
       y2="0.00000000" />
    <linearGradient
       xlink:href="#linearGradient570"
       id="linearGradient608"
       x1="0.36140350"
       y1="0.00757576"
       x2="0.69473684"
       y2="1.38636363" />
    <linearGradient
       id="linearGradient600">
      <stop
         style="stop-color:#d9cce6;stop-opacity:1;"
         offset="0.00000000"
         id="stop601" />
      <stop
         style="stop-color:#ffffff;stop-opacity:1;"
         offset="1.00000000"
         id="stop602" />
    </linearGradient>
    <linearGradient
       xlink:href="#linearGradient600"
       id="linearGradient612"
       x1="0.91228080"
       y1="0.16176464"
       x2="-1.12631643"
       y2="1.61029375" />
    <linearGradient
       xlink:href="#linearGradient570"
       id="linearGradient614"
       x1="-0.09917355"
       y1="0.04929578"
       x2="1.08264458"
       y2="0.69014084" />
    <linearGradient
       id="linearGradient570">
      <stop
         style="stop-color:#ffffff;stop-opacity:1;"
         offset="0"
         id="stop571" />
      <stop
         style="stop-color:#ffffff;stop-opacity:0;"
         offset="1"
         id="stop572" />
    </linearGradient>
    <linearGradient
       id="linearGradient563">
      <stop
         style="stop-color:#d9cce6;stop-opacity:1;"
         offset="0.00000000"
         id="stop564" />
      <stop
         style="stop-color:#73667f;stop-opacity:1;"
         offset="1.00000000"
         id="stop565" />
    </linearGradient>
    <linearGradient
       x1="0.00980392"
       y1="0.01562500"
       x2="0.98529410"
       y2="0.97656250"
       id="linearGradient566"
       xlink:href="#linearGradient563" />
    <linearGradient
       x1="0.007273"
       y1="-0.030301"
       x2="0.985455"
       y2="1.045454"
       id="linearGradient569"
       xlink:href="#linearGradient570" />
    <linearGradient
       x1="0.007273"
       y1="0.013158"
       x2="0.978182"
       y2="0.973684"
       id="linearGradient573"
       xlink:href="#linearGradient570" />
    <linearGradient
       x1="0.006712"
       y1="0.046874"
       x2="1.020134"
       y2="0.984375"
       id="linearGradient575"
       xlink:href="#linearGradient570" />
    <linearGradient
       id="linearGradient578"
       xlink:href="#linearGradient570" />
  </defs>
  <metadata
     id="metadata26">
    <rdf:RDF
       id="RDF27">
      <cc:Work
         rdf:about=""
         id="Work28">
        <dc:format
           id="format29">image/svg+xml</dc:format>
        <dc:type
           id="type31"
           rdf:resource="http://purl.org/dc/dcmitype/StillImage" />
      </cc:Work>
    </rdf:RDF>
  </metadata>
  <ellipse
     cx="286.92639"
     cy="278.06998"
     rx="278.19861"
     ry="278.19858"
     transform="matrix(9.079702e-2,0.000000,0.000000,9.079702e-2,3.846630,4.963591)"
     style="font-size:12.000000;opacity:0.30267498;fill-rule:evenodd;stroke-width:13.253600;"
     id="ellipse1111"
     d="M 565.12500 278.06998 A 278.19861 278.19858 0 1 0 8.7277832,278.06998 A 278.19861 278.19858 0 1 0 565.12500 278.06998 z"
     sodipodi:cx="286.92639"
     sodipodi:cy="278.06998"
     sodipodi:rx="278.19861"
     sodipodi:ry="278.19858" />
  <ellipse
     cx="286.92639"
     cy="278.06998"
     rx="278.19861"
     ry="278.19858"
     transform="matrix(9.079702e-2,0.000000,0.000000,9.079702e-2,1.640992,2.232807)"
     style="font-size:12.000000;fill:url(#linearGradient566);fill-rule:evenodd;stroke:#261933;stroke-width:19.880501;stroke-opacity:1.0000000;"
     id="ellipse1112"
     d="M 565.12500 278.06998 A 278.19861 278.19858 0 1 0 8.7277832,278.06998 A 278.19861 278.19858 0 1 0 565.12500 278.06998 z"
     sodipodi:cx="286.92639"
     sodipodi:cy="278.06998"
     sodipodi:rx="278.19861"
     sodipodi:ry="278.19858" />
  <path
     d="M 9.5562161,10.541275 C 10.476380,10.031421 11.487423,11.833721 12.731733,12.006047 C 13.843090,12.159793 16.545336,10.415256 17.997304,11.245115 C 18.959441,11.657254 18.140748,15.279568 17.847793,17.448276 C 17.478979,19.188865 16.301288,21.682010 15.564618,23.840226 C 15.181650,24.785804 12.520416,28.211627 12.411628,28.429201 C 12.303034,28.646583 13.454538,31.549746 12.737892,31.908262 C 11.990921,32.350342 11.068448,28.101107 9.4762142,26.906955 C 8.7891237,26.494624 7.2047749,26.685820 6.6494413,27.124627 C 5.9878143,27.483429 6.5572131,31.243700 7.5190810,32.343217 C 8.5051240,33.821851 9.9900143,34.959300 10.889671,36.474422 C 12.055617,38.438360 12.774092,40.678502 13.716300,42.780493 C 13.716300,42.780493 12.938715,45.463680 13.047502,45.463680 C 13.156289,45.463680 14.694806,48.542635 14.694806,48.542635 C 11.535750,46.143167 8.9926414,43.801937 6.8668700,40.932182 C 5.3686247,38.909419 4.1736833,36.133619 3.8226298,33.865174 C 3.7025595,33.089417 5.1536989,32.623945 5.4534985,31.799571 C 6.0031892,30.425199 3.1206463,27.014107 3.0041582,25.899763 C 2.8610886,24.699835 3.5869378,19.899254 5.2360312,17.013418 C 6.4167437,14.759221 7.7946391,11.517180 9.5562161,10.541275 z "
     style="font-size:12.000000;opacity:0.50445902;fill:#261933;fill-rule:evenodd;stroke:#000000;stroke-width:0.10994027pt;"
     id="path1113" />
  <path
     d="M 28.285170,18.752947 C 27.697433,19.596962 27.068393,21.107749 27.415259,21.905552 C 27.793221,22.774597 29.428106,23.736251 30.459558,23.753965 C 31.530194,23.772450 32.623164,22.573100 33.721238,22.014436 C 34.688864,21.522200 35.622312,20.767815 36.656748,20.600977 C 37.869290,20.405451 39.586870,20.343835 40.461978,20.927338 C 41.108921,21.358731 41.366447,22.790000 41.223098,23.645371 C 40.919172,24.297611 39.902158,24.859164 40.244498,25.276212 C 40.544196,25.530272 42.624042,23.997822 42.962538,23.101822 C 43.240182,22.367079 41.922704,21.319644 42.092818,20.383692 C 42.230294,19.765437 44.489306,19.921781 45.245809,20.057620 C 45.869842,20.209442 46.475774,21.757006 47.094223,21.688363 C 47.660781,21.688363 49.075107,19.860168 49.228368,19.868735 C 49.818227,19.966162 50.247021,21.688363 50.247021,21.688363 C 49.232125,22.630670 48.413432,23.924078 47.202815,24.515186 C 45.296733,25.446035 43.047157,26.006527 40.896931,26.254715 C 37.393707,26.658960 33.240362,25.236356 30.242082,26.472097 C 27.876689,27.447134 24.840477,30.657887 24.806012,32.886766 C 24.767984,35.332832 26.354732,39.489936 29.200134,39.741395 C 32.644730,40.120419 36.244418,40.896074 37.485548,42.482922 C 38.455196,43.722800 37.325160,48.394857 37.481314,49.939634 C 37.540043,50.451798 39.030708,49.544437 39.918432,49.086282 C 41.277780,48.384845 42.922102,46.999692 43.397397,45.498432 C 44.299269,42.650821 44.400734,39.119001 44.049924,36.039657 C 43.748399,33.393155 41.120767,28.602588 41.440674,28.320415 C 41.736806,28.059133 44.063401,33.353875 45.898048,34.408915 C 46.962619,35.020913 49.405508,34.118753 50.138326,33.321530 C 50.637881,32.777980 49.240978,30.702653 49.594680,30.386113 C 49.929610,30.086419 52.057596,32.186871 52.204029,31.473500 C 53.370640,26.056781 52.274107,22.057084 50.367067,17.042012 C 48.806509,13.214159 44.382736,7.9447357 39.659269,5.3617495 C 38.994125,4.9947824 36.111659,6.6189008 33.887401,8.0415842 C 32.619410,8.6762075 31.301837,10.587197 31.953018,11.045738 C 32.527086,11.498695 34.228782,9.9706748 35.433041,9.6993814 C 37.591834,9.1833655 38.594888,9.4631313 40.244498,10.272486 C 40.244498,10.272486 42.582553,12.207254 41.549169,13.642760 C 40.893181,14.511705 38.722446,14.512572 38.722446,14.512572 C 38.251294,14.259089 37.759731,13.655852 37.308987,13.751544 C 36.563947,13.909719 35.935003,14.915181 35.134602,15.273790 C 33.506746,16.002663 31.604227,16.151596 30.024604,17.013418 C 29.131396,17.219535 28.651193,18.197172 28.285170,18.752947 z "
     style="font-size:12.000000;opacity:0.49999997;fill:#261933;fill-rule:evenodd;stroke:#000000;stroke-width:0.10994027pt;"
     id="path1114" />
  <path
     d="M 8.1051143,41.082167 C 7.7689346,40.073823 -4.9641027,17.269115 19.238244,5.5820483 C 30.211466,0.23248862 46.423112,10.149836 48.226474,16.085072 C 48.504213,16.982995 37.258929,4.1648834 21.233856,11.253683 C 0.36985066,20.422972 8.3991294,41.964308 8.1051143,41.082167 z "
     style="font-size:12.000000;opacity:0.69999999;fill:url(#linearGradient569);fill-rule:evenodd;stroke:none;stroke-width:0.099890900pt;"
     id="path1115" />
  <path
     d="M 11.257264,53.306240 C 12.067741,53.797621 35.514520,59.701883 37.004233,59.414690 C 38.511578,59.144871 58.190312,42.673367 58.958103,41.228322 C 59.609853,40.140390 59.729401,34.041099 58.958103,33.454127 C 57.946677,32.823178 36.020106,28.296096 34.590378,28.733991 C 33.114954,29.150752 11.672874,43.229702 10.912433,44.282546 C 10.183382,45.274977 10.624872,52.814609 11.257264,53.306240 z "
     style="font-size:12.000000;opacity:0.30267498;fill-rule:evenodd;stroke-width:12.500000;"
     id="path776" />
  <path
     d="M 11.673526,51.162948 C 12.445782,51.631150 34.786752,57.256952 36.206210,56.983223 C 37.642462,56.726288 56.393102,41.031547 57.124684,39.654653 C 57.745696,38.618030 57.859607,32.806311 57.124684,32.247028 C 56.160955,31.645909 35.268493,27.332255 33.906197,27.749576 C 32.500356,28.146683 12.069535,41.561636 11.344958,42.564751 C 10.650292,43.510374 11.070959,50.694419 11.673526,51.162948 z "
     style="font-size:12.000000;fill:url(#linearGradient566);fill-rule:evenodd;stroke:#261933;stroke-width:1.5748692;"
     id="path679" />
  <path
     d="M 12.440171,49.972455 C 12.221901,49.524231 11.465788,43.511758 12.221128,43.490722 C 13.377797,43.455332 34.375299,48.482710 34.563331,48.868808 C 34.740356,49.232316 19.777843,45.398690 13.471224,45.926498 C 12.403510,46.015949 12.586976,50.273911 12.440171,49.972455 z "
     style="font-size:12.000000;opacity:0.69999999;fill:url(#linearGradient569);fill-rule:evenodd;stroke:none;stroke-width:0.10669100pt;"
     id="path680" />
  <path
     d="M 13.425862,42.697003 C 13.463064,42.382505 33.001506,29.194230 34.344314,29.072329 C 35.733925,28.956133 55.299318,32.996705 55.262868,33.305259 C 55.226338,33.614054 39.350980,30.387169 34.280141,31.485524 C 29.664216,32.509017 13.390052,42.999765 13.425862,42.697003 z "
     style="font-size:12.000000;opacity:0.69999999;fill:url(#linearGradient573);fill-rule:evenodd;stroke:none;stroke-width:0.10669100pt;"
     id="path682" />
  <path
     d="M 36.206210,54.866676 C 35.928237,54.626947 35.175864,49.730524 35.813428,48.504074 C 36.556507,47.152947 54.893408,34.139256 55.153360,34.363494 C 55.404503,34.580143 42.246807,43.608384 37.191786,49.078612 C 35.931173,50.442864 36.439334,55.068001 36.206210,54.866676 z "
     style="font-size:12.000000;opacity:0.69999999;fill:url(#linearGradient575);fill-rule:evenodd;stroke:none;stroke-width:0.10669100pt;"
     id="path683" />
  <path
     style="font-size:12.000000;fill:#f50000;fill-rule:evenodd;stroke:#3f0000;stroke-width:0.76244682;stroke-linecap:round;stroke-linejoin:round;"
     d="M 17.638592,48.344264 C 17.638592,49.274324 16.977756,50.002872 16.249579,50.002872 C 15.521485,50.002872 14.861409,49.284531 14.861409,48.310659 C 14.861409,47.338769 15.542820,46.651158 16.241544,46.651158 C 16.999687,46.651158 17.638592,47.414108 17.638592,48.344264 z "
     id="path943"
     sodipodi:nodetypes="ccscc" />
  <ellipse
     cx="410.20490"
     cy="422.40900"
     rx="11.720139"
     ry="11.720139"
     transform="matrix(0.118605,0.000000,0.000000,0.143249,-25.68360,-10.50967)"
     style="font-size:12.000000;fill:#80ff80;fill-rule:evenodd;stroke:#003f00;stroke-width:6.2500000;stroke-linecap:round;stroke-linejoin:round;"
     id="ellipse942"
     d="M 421.92503 422.40900 A 11.720139 11.720139 0 1 0 398.48476,422.40900 A 11.720139 11.720139 0 1 0 421.92503 422.40900 z"
     sodipodi:cx="410.20490"
     sodipodi:cy="422.40900"
     sodipodi:rx="11.720139"
     sodipodi:ry="11.720139" />
  <ellipse
     cx="410.20490"
     cy="422.40900"
     rx="11.720139"
     ry="11.720139"
     transform="matrix(0.118605,0.000000,0.000000,0.143249,-21.38672,-9.572166)"
     style="font-size:12.000000;fill:#80ff80;fill-rule:evenodd;stroke:#003f00;stroke-width:6.2500000;stroke-linecap:round;stroke-linejoin:round;"
     id="ellipse940"
     d="M 421.92503 422.40900 A 11.720139 11.720139 0 1 0 398.48476,422.40900 A 11.720139 11.720139 0 1 0 421.92503 422.40900 z"
     sodipodi:cx="410.20490"
     sodipodi:cy="422.40900"
     sodipodi:rx="11.720139"
     sodipodi:ry="11.720139" />
  <ellipse
     cx="410.20490"
     cy="422.40900"
     rx="11.720139"
     ry="11.720139"
     transform="matrix(0.118605,0.000000,0.000000,0.143249,-17.03461,-8.602305)"
     style="font-size:12.000000;fill:#80ff80;fill-rule:evenodd;stroke:#003f00;stroke-width:6.2500000;stroke-linecap:round;stroke-linejoin:round;"
     id="ellipse941"
     d="M 421.92503 422.40900 A 11.720139 11.720139 0 1 0 398.48476,422.40900 A 11.720139 11.720139 0 1 0 421.92503 422.40900 z"
     sodipodi:cx="410.20490"
     sodipodi:cy="422.40900"
     sodipodi:rx="11.720139"
     sodipodi:ry="11.720139" />
</svg>
