<?xml version="1.0" encoding="UTF-8" standalone="no"?>
<!DOCTYPE svg PUBLIC "-//W3C//DTD SVG 20010904//EN"
"http://www.w3.org/TR/2001/REC-SVG-20010904/DTD/svg10.dtd">
<!-- Created with Inkscape (http://www.inkscape.org/) -->
<svg
   id="svg1"
   sodipodi:version="0.32"
   inkscape:version="0.39"
   width="48.000000pt"
   height="48.000000pt"
   sodipodi:docbase="/home/stefan/new-lila-icons"
   sodipodi:docname="gnotski-icon.svg"
   xmlns="http://www.w3.org/2000/svg"
   xmlns:cc="http://web.resource.org/cc/"
   xmlns:inkscape="http://www.inkscape.org/namespaces/inkscape"
   xmlns:sodipodi="http://sodipodi.sourceforge.net/DTD/sodipodi-0.dtd"
   xmlns:rdf="http://www.w3.org/1999/02/22-rdf-syntax-ns#"
   xmlns:dc="http://purl.org/dc/elements/1.1/"
   xmlns:xlink="http://www.w3.org/1999/xlink">
  <defs
     id="defs3">
    <linearGradient
       id="linearGradient4672">
      <stop
         style="stop-color:#ffffff;stop-opacity:1.0000000;"
         offset="0.0000000"
         id="stop4673" />
      <stop
         style="stop-color:#ffffff;stop-opacity:0.0000000;"
         offset="1.0000000"
         id="stop4674" />
    </linearGradient>
    <linearGradient
       id="linearGradient1561">
      <stop
         style="stop-color:#ffffff;stop-opacity:1.0000000;"
         offset="0.0000000"
         id="stop1562" />
      <stop
         style="stop-color:#d9cce6;stop-opacity:1.0000000;"
         offset="1.0000000"
         id="stop1563" />
    </linearGradient>
    <linearGradient
       id="linearGradient1556">
      <stop
         style="stop-color:#d9cce6;stop-opacity:1.0000000;"
         offset="0.0000000"
         id="stop1557" />
      <stop
         style="stop-color:#73667f;stop-opacity:1.0000000;"
         offset="1.0000000"
         id="stop1558" />
    </linearGradient>
    <linearGradient
       id="linearGradient1548">
      <stop
         style="stop-color:#000;stop-opacity:1;"
         offset="0"
         id="stop1549" />
      <stop
         style="stop-color:#fff;stop-opacity:1;"
         offset="1"
         id="stop1550" />
    </linearGradient>
    <linearGradient
       inkscape:collect="always"
       xlink:href="#linearGradient4672"
       id="linearGradient4671"
       x1="-4.0982842e-17"
       y1="0.015625000"
       x2="0.95312500"
       y2="1.0078125" />
    <linearGradient
       inkscape:collect="always"
       xlink:href="#linearGradient1556"
       id="linearGradient1592"
       x1="0.0079681277"
       y1="0.011363637"
       x2="0.99203187"
       y2="0.99242425" />
    <linearGradient
       inkscape:collect="always"
       xlink:href="#linearGradient1561"
       id="linearGradient1593"
       x1="0.0079681277"
       y1="0.011363637"
       x2="0.99203187"
       y2="0.99242425" />
    <linearGradient
       inkscape:collect="always"
       xlink:href="#linearGradient1561"
       id="linearGradient1646"
       x1="0.0079681277"
       y1="0.011363637"
       x2="0.99203187"
       y2="0.99242425" />
    <linearGradient
       inkscape:collect="always"
       xlink:href="#linearGradient1561"
       id="linearGradient1647"
       x1="0.0079681277"
       y1="0.011363637"
       x2="0.99203187"
       y2="0.99242425" />
  </defs>
  <sodipodi:namedview
     id="base"
     pagecolor="#ffffff"
     bordercolor="#666666"
     borderopacity="1.0"
     inkscape:pageopacity="0.0"
     inkscape:pageshadow="2"
     inkscape:zoom="5.6568542"
     inkscape:cx="31.855567"
     inkscape:cy="27.720434"
     inkscape:window-width="778"
     inkscape:window-height="635"
     inkscape:window-x="136"
     inkscape:window-y="274" />
  <metadata
     id="metadata4">
    <rdf:RDF
       id="RDF5">
      <cc:Work
         rdf:about=""
         id="Work6">
        <dc:format
           id="format7">image/svg+xml</dc:format>
        <dc:type
           id="type9"
           rdf:resource="http://purl.org/dc/dcmitype/StillImage" />
      </cc:Work>
    </rdf:RDF>
  </metadata>
  <path
     style="opacity:0.29999998;fill:#000000;fill-opacity:1.0000000;fill-rule:evenodd;stroke:none;stroke-width:0.81585151;stroke-linecap:butt;stroke-linejoin:miter;stroke-miterlimit:4.0000000;stroke-opacity:1.0000000;"
     d="M 28.222874,6.1266017 C 22.817494,5.9996987 17.330437,6.1947097 13.535374,6.7203517 C 11.957561,6.9388887 13.725350,11.486244 13.097874,12.220352 C 12.347999,13.097656 8.8732434,12.715676 8.0041244,13.564102 C 6.4652704,15.066314 5.7462584,46.808922 7.1603744,48.345352 C 9.5253154,50.914849 12.486317,48.323326 13.129124,49.939102 C 13.364094,50.529734 11.238166,55.406636 12.910374,55.845352 C 19.168614,57.487248 30.224994,57.227945 36.597874,55.751602 C 38.034834,55.418716 37.602404,50.926526 36.347874,50.407852 C 32.339404,48.750583 25.393584,51.606717 24.035374,50.939102 C 23.011874,50.436009 25.472374,46.012686 23.566624,44.251602 C 21.501714,42.343435 17.100358,45.604724 17.316624,44.251602 C 18.242214,38.460457 18.726294,21.343589 18.066624,17.657852 C 17.779523,16.053751 23.228144,18.651832 24.097874,17.657852 C 25.127834,16.480758 22.903934,12.503104 24.504124,11.939102 C 26.582704,11.206490 34.020404,13.311771 42.379124,11.501602 C 43.488704,11.261311 43.556814,7.6922837 42.379124,7.4391017 C 38.951964,6.7023217 33.628254,6.2535047 28.222874,6.1266017 z M 50.004124,11.814102 C 48.145874,11.933169 46.262094,12.418677 45.472874,13.189102 C 43.934024,14.691314 43.626204,20.216675 44.972874,21.814102 C 46.316724,23.408179 52.099974,24.152826 53.535374,22.751602 C 55.217264,21.109764 55.749854,14.389207 54.316624,12.689102 C 53.687984,11.943402 51.862374,11.695035 50.004124,11.814102 z M 33.097874,16.157852 C 31.921734,16.233213 30.722394,16.576478 30.222874,17.064102 C 29.248894,18.014895 29.058034,21.490544 29.910374,22.501602 C 30.760934,23.510537 34.439364,23.982227 35.347874,23.095352 C 36.412384,22.056187 36.723764,17.796396 35.816624,16.720352 C 35.418734,16.248377 34.274014,16.082491 33.097874,16.157852 z M 43.535374,28.916893 C 38.254824,28.983532 32.932334,29.370819 32.160374,30.010643 C 31.393294,30.646422 30.965134,33.127910 31.941624,34.104393 C 33.231414,35.394184 43.578974,34.699623 44.347874,35.198143 C 45.045724,35.650599 43.835204,52.561112 45.347874,54.407852 C 46.669024,56.020786 52.474974,56.746576 53.910374,55.345352 C 55.592254,53.703514 56.124854,31.554498 54.691624,29.854393 C 54.062984,29.108693 48.815924,28.850254 43.535374,28.916893 z M 32.655932,38.135643 C 31.479792,38.211004 30.280452,38.523019 29.780932,39.010643 C 28.806952,39.961436 28.616082,43.468335 29.468432,44.479393 C 30.318992,45.488328 33.997422,45.960018 34.905932,45.073143 C 35.970442,44.033978 36.281812,39.774187 35.374682,38.698143 C 34.976792,38.226168 33.832072,38.060282 32.655932,38.135643 z "
     id="path1623"
     sodipodi:nodetypes="cccccccccccccccccccccccccccccccccccccccccccc" />
  <path
     style="fill:url(#linearGradient1593);fill-opacity:1.00000000;fill-rule:evenodd;stroke:#261933;stroke-width:1.8750000;stroke-linecap:butt;stroke-linejoin:miter;stroke-miterlimit:4.0000000;stroke-opacity:1.0000000;stroke-dasharray:none;"
     d="M 43.051253,11.743297 C 41.512402,13.245509 41.203593,18.774065 42.550261,20.371492 C 43.894106,21.965569 49.687391,22.719034 51.122792,21.317810 C 52.804675,19.675972 53.335341,12.942410 51.902112,11.242305 C 50.644828,9.7509059 44.629685,10.202447 43.051253,11.743297 z "
     id="rect965"
     sodipodi:nodetypes="cssss" />
  <path
     style="fill:url(#linearGradient4671);fill-opacity:1.0000000;fill-rule:evenodd;stroke:none;stroke-width:1.0000000pt;stroke-linecap:butt;stroke-linejoin:miter;stroke-opacity:1.0000000;"
     d="M 42.680183,18.943130 C 42.491835,18.694065 41.603352,14.194409 43.440143,12.283111 C 45.050215,10.607728 50.046195,10.940000 50.227089,11.179209 C 50.389603,11.394112 45.445949,12.288097 44.192037,13.589781 C 43.060200,14.764739 42.835243,19.148177 42.680183,18.943130 z "
     id="path1594"
     sodipodi:nodetypes="cssss" />
  <path
     style="fill:url(#linearGradient1647);fill-opacity:1.00000000;fill-rule:evenodd;stroke:#261933;stroke-width:1.8750000;stroke-linecap:butt;stroke-linejoin:miter;stroke-miterlimit:4.0000000;stroke-opacity:1.0000000;stroke-dasharray:none;"
     d="M 25.812500,4.6875000 C 20.407117,4.5605970 14.920063,4.7556078 11.125000,5.2812500 C 9.5471899,5.4997875 11.314976,10.047142 10.687500,10.781250 C 9.9376278,11.658554 6.4628695,11.276574 5.5937500,12.125000 C 4.0548987,13.627212 3.3177877,45.376414 4.7319043,46.912844 C 7.0968475,49.482342 10.057847,46.890818 10.700654,48.506594 C 10.935626,49.097227 8.8277922,53.967534 10.500000,54.406250 C 16.758243,56.048146 27.814619,55.788843 34.187500,54.312500 C 35.624457,53.979614 35.192027,49.487424 33.937500,48.968750 C 29.929027,47.311481 22.983212,50.167615 21.625000,49.500000 C 20.601495,48.996907 23.061996,44.573584 21.156250,42.812500 C 19.091338,40.904333 14.689984,44.165622 14.906250,42.812500 C 15.831834,37.021355 16.315914,19.904487 15.656250,16.218750 C 15.369152,14.614649 20.817768,17.212730 21.687500,16.218750 C 22.717456,15.041656 20.493558,11.064002 22.093750,10.500000 C 24.172324,9.7673884 31.610029,11.872669 39.968750,10.062500 C 41.078325,9.8222098 41.146435,6.2531821 39.968750,6.0000000 C 36.541593,5.2632198 31.217883,4.8144030 25.812500,4.6875000 z "
     id="path1596"
     sodipodi:nodetypes="cccssssssssssccccc" />
  <path
     style="fill:url(#linearGradient4671);fill-opacity:1.0000000;fill-rule:evenodd;stroke:none;stroke-width:1.0000000pt;stroke-linecap:butt;stroke-linejoin:miter;stroke-opacity:1.0000000;"
     d="M 5.2355755,44.659378 C 5.0472275,44.410313 4.1980355,14.618455 5.9955355,12.670160 C 6.7740510,11.826334 9.8510539,12.478435 10.031948,12.717644 C 10.194462,12.932547 8.0013415,12.675146 6.7474295,13.976830 C 5.6155925,15.151789 5.3906355,44.864425 5.2355755,44.659378 z "
     id="path1598"
     sodipodi:nodetypes="cssss" />
  <path
     style="fill:url(#linearGradient1646);fill-opacity:1.00000000;fill-rule:evenodd;stroke:#261933;stroke-width:1.8750000;stroke-linecap:butt;stroke-linejoin:miter;stroke-miterlimit:4.0000000;stroke-opacity:1.0000000;stroke-dasharray:none;"
     d="M 29.747602,28.356254 C 28.980523,28.992033 28.536333,31.455706 29.512816,32.432189 C 30.802607,33.721980 41.172003,33.042229 41.940898,33.540749 C 42.638746,33.993204 41.405863,51.116068 42.918528,52.962808 C 44.239682,54.575741 50.055658,55.310350 51.491059,53.909126 C 53.172942,52.267288 53.703608,29.895678 52.270379,28.195573 C 51.013095,26.704174 31.291517,27.076606 29.747602,28.356254 z "
     id="path1600"
     sodipodi:nodetypes="cssssss" />
  <path
     style="fill:url(#linearGradient4671);fill-opacity:1.0000000;fill-rule:evenodd;stroke:none;stroke-width:1.0000000pt;stroke-linecap:butt;stroke-linejoin:miter;stroke-opacity:1.0000000;"
     d="M 43.048450,51.534446 C 42.045949,49.747537 43.380353,34.444009 42.496719,32.500766 C 42.244529,31.946163 41.318811,32.091514 41.142137,31.849171 C 40.309576,30.707153 44.366833,30.967908 44.017535,31.907746 C 43.449184,33.436981 43.174233,51.758648 43.048450,51.534446 z "
     id="path1602"
     sodipodi:nodetypes="cssss" />
  <path
     style="fill:url(#linearGradient4671);fill-opacity:1.0000000;fill-rule:evenodd;stroke:none;stroke-width:1.0000000pt;stroke-linecap:butt;stroke-linejoin:miter;stroke-opacity:1.0000000;"
     d="M 30.250759,32.670070 C 30.062411,32.421005 29.158816,30.663686 30.106105,29.402354 C 30.887105,28.362438 35.717081,28.511550 35.897975,28.750759 C 36.060489,28.965662 31.799792,29.460610 31.038922,30.121025 C 30.384920,30.688680 30.405819,32.875117 30.250759,32.670070 z "
     id="path1605"
     sodipodi:nodetypes="cssss" />
  <path
     style="fill:url(#linearGradient4671);fill-opacity:1.0000000;fill-rule:evenodd;stroke:none;stroke-width:1.0000000pt;stroke-linecap:butt;stroke-linejoin:miter;stroke-opacity:1.0000000;"
     d="M 11.495250,9.8118280 C 11.306902,9.5627630 10.610317,6.9181183 11.231756,6.0302745 C 12.564195,4.1266339 32.997722,5.9664812 33.178616,6.2056902 C 33.341130,6.4205932 13.983698,6.2475144 12.495377,7.2729786 C 11.811301,7.7443119 11.650310,10.016875 11.495250,9.8118280 z "
     id="path1614"
     sodipodi:nodetypes="cssss" />
  <path
     style="fill:url(#linearGradient1592);fill-opacity:1.00000000;fill-rule:evenodd;stroke:#261933;stroke-width:1.2500000;stroke-linecap:butt;stroke-linejoin:miter;stroke-miterlimit:4.0000000;stroke-opacity:1.0000000;stroke-dasharray:none;"
     d="M 27.812761,15.606057 C 26.838778,16.556849 26.643324,20.056030 27.495669,21.067088 C 28.346226,22.076024 32.012962,22.552914 32.921468,21.666039 C 33.985980,20.626873 34.321854,16.365009 33.414722,15.288965 C 32.618951,14.345016 28.811795,14.630809 27.812761,15.606057 z "
     id="path1615"
     sodipodi:nodetypes="cssss" />
  <path
     style="fill:url(#linearGradient4671);fill-opacity:1.0000000;fill-rule:evenodd;stroke:none;stroke-width:1.0000000pt;stroke-linecap:butt;stroke-linejoin:miter;stroke-opacity:1.0000000;"
     d="M 27.577900,20.163036 C 27.458689,20.005396 26.896343,17.157435 28.058900,15.947720 C 29.077961,14.887323 32.240059,15.097627 32.354552,15.249029 C 32.457412,15.385047 29.328432,15.950876 28.534795,16.774749 C 27.818424,17.518414 27.676042,20.292817 27.577900,20.163036 z "
     id="path1617"
     sodipodi:nodetypes="cssss" />
  <path
     style="fill:url(#linearGradient1592);fill-opacity:1.00000000;fill-rule:evenodd;stroke:#261933;stroke-width:1.2500000;stroke-linecap:butt;stroke-linejoin:miter;stroke-miterlimit:4.0000000;stroke-opacity:1.0000000;"
     d="M 27.370818,37.576195 C 26.396835,38.526987 26.201381,42.026168 27.053726,43.037226 C 27.904283,44.046162 31.571019,44.523052 32.479525,43.636177 C 33.544037,42.597011 33.879911,38.335147 32.972779,37.259103 C 32.177008,36.315154 28.369852,36.600947 27.370818,37.576195 z "
     id="path1618"
     sodipodi:nodetypes="cssss" />
  <path
     style="fill:url(#linearGradient4671);fill-opacity:1.0000000;fill-rule:evenodd;stroke:none;stroke-width:1.0000000pt;stroke-linecap:butt;stroke-linejoin:miter;stroke-opacity:1.0000000;"
     d="M 27.135957,42.133174 C 27.016746,41.975534 26.454400,39.127573 27.616957,37.917858 C 28.636018,36.857461 31.798116,37.067765 31.912609,37.219167 C 32.015469,37.355185 28.886489,37.921014 28.092852,38.744887 C 27.376481,39.488552 27.234099,42.262955 27.135957,42.133174 z "
     id="path1619"
     sodipodi:nodetypes="cssss" />
  <path
     style="fill:url(#linearGradient1592);fill-opacity:1.00000000;fill-rule:evenodd;stroke:#261933;stroke-width:1.2500000;stroke-linecap:butt;stroke-linejoin:miter;stroke-miterlimit:4.0000000;stroke-opacity:1.0000000;stroke-dasharray:none;"
     d="M 7.8585243,17.381601 C 6.8845413,18.332393 6.6890873,21.831574 7.5414323,22.842632 C 8.3919893,23.851568 12.058725,24.328458 12.967231,23.441583 C 14.031743,22.402417 14.367617,18.140553 13.460485,17.064509 C 12.664714,16.120560 8.8575583,16.406353 7.8585243,17.381601 z "
     id="path1640"
     sodipodi:nodetypes="cssss" />
  <path
     style="fill:url(#linearGradient4671);fill-opacity:1.0000000;fill-rule:evenodd;stroke:none;stroke-width:1.0000000pt;stroke-linecap:butt;stroke-linejoin:miter;stroke-opacity:1.0000000;"
     d="M 7.6236633,21.938580 C 7.5044523,21.780940 6.9421063,18.932979 8.1046633,17.723264 C 9.1237243,16.662867 12.285822,16.873171 12.400315,17.024573 C 12.503175,17.160591 9.3741953,17.726420 8.5805583,18.550293 C 7.8641873,19.293958 7.7218053,22.068361 7.6236633,21.938580 z "
     id="path1641"
     sodipodi:nodetypes="cssss" />
  <path
     style="fill:url(#linearGradient1592);fill-opacity:1.00000000;fill-rule:evenodd;stroke:#261933;stroke-width:1.2500000;stroke-linecap:butt;stroke-linejoin:miter;stroke-miterlimit:4.0000000;stroke-opacity:1.0000000;stroke-dasharray:none;"
     d="M 7.1348330,27.151433 C 6.1608500,28.102225 5.9653960,31.601406 6.8177410,32.612464 C 7.6682982,33.621400 11.335034,34.098290 12.243540,33.211415 C 13.308052,32.172249 13.643926,27.910385 12.736794,26.834341 C 11.941023,25.890392 8.1338672,26.176185 7.1348330,27.151433 z "
     id="path1642"
     sodipodi:nodetypes="cssss" />
  <path
     style="fill:url(#linearGradient4671);fill-opacity:1.0000000;fill-rule:evenodd;stroke:none;stroke-width:1.0000000pt;stroke-linecap:butt;stroke-linejoin:miter;stroke-opacity:1.0000000;"
     d="M 6.8999720,31.708412 C 6.7807610,31.550772 6.2184150,28.702811 7.3809720,27.493096 C 8.4000332,26.432699 11.562131,26.643003 11.676624,26.794405 C 11.779484,26.930423 8.6505042,27.496252 7.8568672,28.320125 C 7.1404960,29.063790 6.9981140,31.838193 6.8999720,31.708412 z "
     id="path1643"
     sodipodi:nodetypes="cssss" />
  <path
     style="fill:url(#linearGradient1592);fill-opacity:1.00000000;fill-rule:evenodd;stroke:#261933;stroke-width:1.2500000;stroke-linecap:butt;stroke-linejoin:miter;stroke-miterlimit:4.0000000;stroke-opacity:1.0000000;stroke-dasharray:none;"
     d="M 6.9539101,36.378499 C 5.9799271,37.329291 5.7844731,40.828472 6.6368181,41.839530 C 7.4873751,42.848466 11.154111,43.325356 12.062617,42.438481 C 13.127129,41.399315 13.463003,37.137451 12.555871,36.061407 C 11.760100,35.117458 7.9529441,35.403251 6.9539101,36.378499 z "
     id="path1644"
     sodipodi:nodetypes="cssss" />
  <path
     style="fill:url(#linearGradient4671);fill-opacity:1.0000000;fill-rule:evenodd;stroke:none;stroke-width:1.0000000pt;stroke-linecap:butt;stroke-linejoin:miter;stroke-opacity:1.0000000;"
     d="M 6.7190491,40.935478 C 6.5998381,40.777838 6.0374921,37.929877 7.2000491,36.720162 C 8.2191101,35.659765 11.381208,35.870069 11.495701,36.021471 C 11.598561,36.157489 8.4695811,36.723318 7.6759441,37.547191 C 6.9595731,38.290856 6.8171911,41.065259 6.7190491,40.935478 z "
     id="path1645"
     sodipodi:nodetypes="cssss" />
</svg>
