<?xml version="1.0" encoding="UTF-8" standalone="no"?>
<!DOCTYPE svg PUBLIC "-//W3C//DTD SVG 20010904//EN"
"http://www.w3.org/TR/2001/REC-SVG-20010904/DTD/svg10.dtd">
<!-- Created with Inkscape (http://www.inkscape.org/) -->
<svg
   version="1.0"
   x="0"
   y="0"
   width="48pt"
   height="48pt"
   id="svg611"
   sodipodi:version="0.32"
   inkscape:version="0.38.1"
   sodipodi:docname="gok.svg"
   sodipodi:docbase="/home/scaba/files/lila-artwork/devel"
   xmlns="http://www.w3.org/2000/svg"
   xmlns:inkscape="http://www.inkscape.org/namespaces/inkscape"
   xmlns:sodipodi="http://sodipodi.sourceforge.net/DTD/sodipodi-0.dtd"
   xmlns:xlink="http://www.w3.org/1999/xlink">
  <sodipodi:namedview
     id="base"
     pagecolor="#ffffff"
     bordercolor="#666666"
     borderopacity="1.0"
     inkscape:pageopacity="0.0"
     inkscape:pageshadow="2"
     inkscape:zoom="5.6568540"
     inkscape:cx="31.414495"
     inkscape:cy="21.079063"
     inkscape:window-width="793"
     inkscape:window-height="705"
     inkscape:window-x="52"
     inkscape:window-y="26" />
  <defs
     id="defs613">
    <linearGradient
       id="linearGradient935">
      <stop
         offset="0.0000000"
         style="stop-color:#d9cce6;stop-opacity:1.0000000;"
         id="stop937" />
      <stop
         offset="1.0000000"
         style="stop-color:#73667f;stop-opacity:1.0000000;"
         id="stop936" />
    </linearGradient>
    <linearGradient
       id="linearGradient932">
      <stop
         offset="0.0000000"
         style="stop-color:#ffffff;stop-opacity:1.0000000;"
         id="stop934" />
      <stop
         offset="1.0000000"
         style="stop-color:#ffffff;stop-opacity:0.0000000;"
         id="stop933" />
    </linearGradient>
    <linearGradient
       id="linearGradient929">
      <stop
         offset="0.0000000"
         style="stop-color:#faf8fd;stop-opacity:1.0000000;"
         id="stop931" />
      <stop
         offset="1.0000000"
         style="stop-color:#d9cce6;stop-opacity:1.0000000;"
         id="stop930" />
    </linearGradient>
    <linearGradient
       id="linearGradient1535">
      <stop
         style="stop-color:#ffffff;stop-opacity:1;"
         offset="0"
         id="stop1537" />
      <stop
         style="stop-color:#ffffff;stop-opacity:0;"
         offset="1"
         id="stop1536" />
    </linearGradient>
    <linearGradient
       id="linearGradient1528">
      <stop
         style="stop-color:#d9cce6;stop-opacity:1.0000000;"
         offset="0.0000000"
         id="stop1530" />
      <stop
         style="stop-color:#73667f;stop-opacity:1.0000000;"
         offset="1.0000000"
         id="stop1529" />
    </linearGradient>
    <linearGradient
       id="linearGradient642">
      <stop
         style="stop-color:#ffffff;stop-opacity:1;"
         offset="0"
         id="stop643" />
      <stop
         style="stop-color:#ffffff;stop-opacity:0;"
         offset="1"
         id="stop644" />
    </linearGradient>
    <linearGradient
       id="linearGradient635">
      <stop
         style="stop-color:#ffffff;stop-opacity:1.0000000;"
         offset="0.0000000"
         id="stop636" />
      <stop
         style="stop-color:#d9cce6;stop-opacity:1.0000000;"
         offset="1.0000000"
         id="stop637" />
    </linearGradient>
    <linearGradient
       x1="0.00833333"
       y1="0.00000000"
       x2="0.94166666"
       y2="0.95312500"
       id="linearGradient638"
       xlink:href="#linearGradient1528" />
    <linearGradient
       x1="0.027523"
       y1="0.023438"
       x2="1.000000"
       y2="1.015625"
       id="linearGradient641"
       xlink:href="#linearGradient642" />
    <linearGradient
       x1="-0.000009"
       y1="0.015624"
       x2="0.727272"
       y2="0.984375"
       id="linearGradient1522"
       xlink:href="#linearGradient642" />
    <linearGradient
       x1="0.027523"
       y1="0.007813"
       x2="1.009174"
       y2="0.992188"
       id="linearGradient1527"
       xlink:href="#linearGradient1535" />
    <linearGradient
       id="linearGradient1532"
       xlink:href="#linearGradient635"
       x1="2.0328791e-18"
       y1="0.50000000"
       x2="1.0000000"
       y2="0.50000000" />
    <linearGradient
       id="linearGradient1534"
       xlink:href="#linearGradient1528"
       y2="0.00000000"
       x2="1.00000000"
       y1="0.00000000"
       x1="0.00000000" />
    <linearGradient
       id="linearGradient1539"
       xlink:href="#linearGradient1528"
       y2="-0.00000000"
       x2="1.00000000"
       y1="-0.00000000"
       x1="0.00000000" />
    <linearGradient
       id="linearGradient1567"
       xlink:href="#linearGradient635"
       x1="0.66521740"
       y1="0.21093750"
       x2="0.32608697"
       y2="0.73437500" />
    <defs
       id="defs3">
      <linearGradient
         id="linearGradient656"
         x1="0.0000000"
         y1="0.50000000"
         x2="1.0000000"
         y2="0.50000000"
         gradientUnits="objectBoundingBox"
         spreadMethod="pad"
         xlink:href="#linearGradient935" />
      <linearGradient
         id="linearGradient584"
         x1="0.0000000"
         y1="0.50000000"
         x2="1.0000000"
         y2="0.50000000"
         gradientUnits="objectBoundingBox"
         spreadMethod="pad"
         xlink:href="#linearGradient932" />
      <linearGradient
         id="linearGradient578"
         x1="0.0000000"
         y1="0.50000000"
         x2="1.0000000"
         y2="0.50000000"
         gradientUnits="objectBoundingBox"
         spreadMethod="pad"
         xlink:href="#linearGradient929" />
      <linearGradient
         xlink:href="#linearGradient578"
         id="linearGradient581"
         x1="0.00000000"
         y1="0.00000000"
         x2="0.98941797"
         y2="0.98734176" />
      <linearGradient
         xlink:href="#linearGradient656"
         id="linearGradient583"
         x1="0.00000000"
         y1="-0.00000000"
         x2="1.01003349"
         y2="0.96938777" />
      <linearGradient
         xlink:href="#linearGradient584"
         id="linearGradient654"
         x1="-0.00000000"
         y1="0.00000000"
         x2="1.00000000"
         y2="0.93333334" />
      <linearGradient
         xlink:href="#linearGradient578"
         id="linearGradient655"
         x1="0.00000000"
         y1="-0.00000000"
         x2="0.98757762"
         y2="1.00632906" />
      <linearGradient
         xlink:href="#linearGradient584"
         id="linearGradient713"
         x1="-0.00000000"
         y1="-0.00000000"
         x2="0.98773009"
         y2="0.99367088" />
    </defs>
    <sodipodi:namedview
       id="namedview874"
       pagecolor="#ffffff"
       bordercolor="#666666"
       borderopacity="1.0"
       inkscape:pageopacity="0.0"
       inkscape:pageshadow="2"
       inkscape:zoom="5.64233870"
       inkscape:cx="27.1710079"
       inkscape:cy="23.8130291"
       inkscape:window-width="640"
       inkscape:window-height="525"
       inkscape:window-x="95"
       inkscape:window-y="79"
       showborder="true" />
  </defs>
  <path
     d="M 11.323296 57.160451 C 11.951521 57.577304 14.621051 58.71284 15.942291 58.429631 C 17.047672 58.07211 55.203686 45.61152 56.142616 44.148515 C 57.124721 42.551005 55.856932 11.468189 54.696814 10.413698 C 53.445181 9.265018 12.788123 5.1677725 11.53798 5.1310154 C 10.405014 4.9884573 7.6400123 5.9645902 7.1064044 6.5581759 C 6.0443342 7.7273842 10.152592 56.301396 11.323296 57.160451 z "
     style="font-size:12;opacity:0.3;fill-rule:evenodd;stroke-width:12.5;"
     id="path839" />
  <path
     d="M 10.710824 54.464037 C 11.309499 54.860979 13.851862 55.942451 15.110416 55.672891 C 16.163471 55.332261 52.506055 43.463828 53.400251 42.070343 C 54.335686 40.548752 53.128257 10.943036 52.023269 9.9385553 C 50.831206 8.844563 12.106038 4.9420868 10.915404 4.907046 C 9.8362807 4.7712615 7.2027255 5.7009364 6.6944162 6.2663239 C 5.6828474 7.3800001 9.5957511 53.645804 10.710824 54.464037 z "
     style="font-size:12;fill:url(#linearGradient638);fill-rule:evenodd;stroke:#261933;stroke-width:1.875;stroke-dasharray:none;"
     id="path834" />
  <path
     d="M 14.383126 53.660677 C 14.070498 53.348051 10.313979 7.7669659 10.825691 6.4958449 C 11.139641 6.1159772 50.332629 10.543036 50.646074 10.856477 C 50.944548 11.155154 14.326404 6.3756002 12.77671 8.676233 C 11.094427 11.058617 14.682413 53.959959 14.383126 53.660677 z "
     style="font-size:12;opacity:0.7;fill:url(#linearGradient641);fill-rule:evenodd;stroke:none;stroke-width:0.105188pt;"
     id="path835" />
  <path
     d="M 11.514286 52.972175 C 11.398196 52.797942 8.00685 21.776137 7.8420129 7.1843481 C 7.8321255 6.6661201 9.7765052 6.2993477 9.9075644 6.4958449 C 10.006036 6.6436043 8.5226851 7.8148987 8.5305678 8.2171495 C 8.701402 22.810149 11.627626 53.142245 11.514286 52.972175 z "
     style="font-size:12;opacity:0.699936;fill:url(#linearGradient1522);fill-rule:evenodd;stroke:none;stroke-width:0.105188pt;"
     id="path836" />
  <path
     d="M 15.177322 10.961774 C 14.558788 11.749148 16.374674 48.355066 17.31663 49.041019 C 18.289339 49.671571 48.857076 39.875433 49.619702 38.879506 C 50.338948 38.047123 49.355237 14.69976 48.871027 13.849962 C 48.247804 12.943851 15.852983 10.20882 15.177322 10.961774 z "
     style="font-size:12;fill:#261933;fill-rule:evenodd;stroke:none;stroke-width:0.613348;fill-opacity:0.50000000;"
     id="path837" />
  <path
     d="M 17.744431 47.008737 C 17.506854 46.716067 15.346975 12.931632 15.926202 12.138455 C 16.692801 11.234891 45.424386 13.9854 45.661957 14.277763 C 45.888033 14.555666 19.622945 11.623281 17.31663 13.84986 C 15.744634 15.369718 17.970295 47.286535 17.744431 47.008737 z "
     style="font-size:12;opacity:0.699936;fill:url(#linearGradient1527);fill-rule:evenodd;stroke:none;stroke-width:0.0980447pt;"
     id="path838" />
  <path
     d="M 15.177322 10.961774 C 14.558788 11.749148 16.374674 48.355066 17.31663 49.041019 C 18.289339 49.671571 48.857076 39.875433 49.619702 38.879506 C 50.338948 38.047123 49.355237 14.69976 48.871027 13.849962 C 48.247804 12.943851 15.852983 10.20882 15.177322 10.961774 z "
     style="font-size:12;fill:none;fill-rule:evenodd;stroke:#261933;stroke-width:0.613348;fill-opacity:0.50000000;"
     id="path2414" />
  <g
     id="g1589"
     transform="matrix(0.974893,0.000000,0.000000,0.974893,0.550193,0.589776)">
    <path
       d="M 17.865376,34.915861 C 17.355661,37.455341 21.707640,45.772151 23.611182,45.148714 C 26.957413,44.088962 48.797827,23.956087 49.022931,22.738176 C 49.248220,20.921485 47.501310,16.324763 46.210613,15.083825 C 44.534758,13.599627 18.495979,32.324556 17.865376,34.915861 z "
       style="font-size:12.000000;fill:url(#linearGradient1532);fill-rule:evenodd;stroke:#261933;stroke-width:0.62197644;"
       id="path2415"
       sodipodi:nodetypes="cssss" />
    <path
       style="font-size:12.000000;fill-opacity:1.0000000;stroke-width:3.0000000pt;font-family:Radio Stars;fill:#271a34;"
       d="M 30.107914,26.888253 C 29.605091,27.292252 29.511905,27.757165 29.789233,28.324587 L 32.855962,34.468972 C 33.133291,35.036394 33.500243,35.131602 34.003065,34.727601 L 40.010090,29.448300 C 40.520416,29.038271 40.635417,28.555837 40.358089,27.988412 L 37.713509,22.577569 C 37.436178,22.010146 37.047418,21.932463 36.537089,22.342493 L 30.107914,26.888253 z M 31.963212,28.091950 L 36.603302,24.649863 L 38.419457,28.365745 L 33.907568,32.086231 L 31.963212,28.091950 z "
       id="path2426"
       sodipodi:nodetypes="cccccccccccccc" />
    <path
       style="font-size:12.000000;fill-opacity:1.0000000;stroke-width:3.0000000pt;font-family:Radio Stars;fill:#271a34;"
       d="M 39.247398,20.347097 C 39.088663,20.477184 38.992579,20.624369 38.932259,20.821040 C 38.869816,21.047059 38.896667,21.274669 38.999432,21.484923 L 41.626677,26.928659 C 41.729441,27.138912 41.850392,27.262659 42.025776,27.284568 C 42.197953,27.299907 42.368226,27.255552 42.526962,27.125462 C 42.685695,26.995375 42.812497,26.796271 42.875485,26.588212 C 42.935260,26.373580 42.900660,26.179070 42.797895,25.968814 L 41.730303,23.740263 L 45.312851,20.804274 L 45.891570,22.154392 C 45.994336,22.364649 46.138252,22.469574 46.313637,22.491485 C 46.485813,22.506821 46.656084,22.462466 46.814820,22.332378 C 46.973553,22.202288 47.077393,22.022006 47.140380,21.813946 C 47.200155,21.599318 47.188520,21.385985 47.085752,21.175729 L 46.180877,19.158296 C 45.962498,18.711502 45.651522,18.657502 45.257624,18.980311 L 43.581177,20.354204 L 45.050340,17.963951 C 45.248546,17.645075 45.290315,17.336218 45.152222,17.053686 C 45.062303,16.869712 44.932263,16.744212 44.753120,16.697776 C 44.579859,16.646520 44.404006,16.696312 44.239393,16.831217 C 44.162967,16.893851 44.083997,16.984449 44.011866,17.089574 L 40.927452,22.097642 L 40.170649,20.525081 C 40.067884,20.314825 39.920515,20.185985 39.736035,20.162325 C 39.572953,20.148740 39.406131,20.217011 39.247398,20.347097 z "
       id="path2429"
       sodipodi:nodetypes="ccccccccccccccccccccccccccc" />
    <path
       style="font-size:12.000000;fill-opacity:1.0000000;stroke-width:3.0000000pt;font-family:Radio Stars;fill:#271a34;"
       d="M 20.300926,34.232200 C 19.744833,34.681551 19.616228,35.226256 19.936876,35.860211 L 23.186823,42.323126 C 23.507472,42.957083 23.952600,43.038181 24.508696,42.588829 L 31.155865,37.026592 C 31.711960,36.577241 31.840562,36.032542 31.519916,35.398583 L 29.512181,31.429065 L 25.297376,34.834837 C 25.031777,35.049454 24.883812,35.316767 24.828721,35.623946 C 24.773631,35.931123 24.801291,36.201809 24.933324,36.462849 C 25.065355,36.723890 25.248121,36.869242 25.491827,36.934978 C 25.735535,37.000715 25.989595,36.943166 26.255194,36.728551 L 28.784076,34.685087 L 29.355085,35.814033 L 24.297316,39.900959 L 22.095836,35.711806 L 28.098214,30.981274 C 28.363812,30.766657 28.511777,30.499346 28.566866,30.192166 C 28.621957,29.884987 28.594297,29.614303 28.462266,29.353262 C 28.330234,29.092222 28.147469,28.946869 27.903763,28.881133 C 27.660054,28.815395 27.405994,28.872945 27.140397,29.087558 L 20.300926,34.232200 z "
       id="path2428"
       sodipodi:nodetypes="cccccccccccccccccccccc" />
  </g>
</svg>
