<?xml version="1.0" encoding="UTF-8" standalone="no"?>
<!DOCTYPE svg PUBLIC "-//W3C//DTD SVG 20010904//EN"
"http://www.w3.org/TR/2001/REC-SVG-20010904/DTD/svg10.dtd">
<!-- Created with Inkscape (http://www.inkscape.org/) -->
<svg
   version="1"
   x="0.00000000"
   y="0.00000000"
   width="48pt"
   height="48pt"
   id="svg548"
   sodipodi:version="0.32"
   inkscape:version="0.37"
   sodipodi:docname="gossip.svg"
   sodipodi:docbase="/home/dan/Projects/Lila-icons/scalable/apps"
   xmlns="http://www.w3.org/2000/svg"
   xmlns:inkscape="http://www.inkscape.org/namespaces/inkscape"
   xmlns:sodipodi="http://sodipodi.sourceforge.net/DTD/sodipodi-0.dtd"
   xmlns:xlink="http://www.w3.org/1999/xlink">
  <sodipodi:namedview
     id="base"
     inkscape:zoom="8.30924368"
     inkscape:cx="25.4010188"
     inkscape:cy="23.3487958"
     inkscape:window-width="530"
     inkscape:window-height="585"
     inkscape:window-x="85"
     inkscape:window-y="95" />
  <defs
     id="defs550">
    <linearGradient
       x1="0.00000000"
       y1="0.00000000"
       x2="1.00000000"
       y2="0.00000000"
       id="linearGradient596"
       gradientUnits="objectBoundingBox"
       spreadMethod="pad">
      <stop
         style="stop-color:#ffffff;stop-opacity:1;"
         offset="0.00000000"
         id="stop597" />
      <stop
         style="stop-color:#ffffff;stop-opacity:0;"
         offset="1.00000000"
         id="stop598" />
    </linearGradient>
    <linearGradient
       x1="0.00000000"
       y1="0.00000000"
       x2="1.00000000"
       y2="0.00000000"
       id="linearGradient613"
       gradientUnits="objectBoundingBox"
       spreadMethod="pad">
      <stop
         style="stop-color:#ffffff;stop-opacity:1;"
         offset="0.00000000"
         id="stop614" />
      <stop
         style="stop-color:#d9cce6;stop-opacity:1;"
         offset="1.00000000"
         id="stop615" />
    </linearGradient>
    <linearGradient
       x1="0.00000000"
       y1="0.00000000"
       x2="1.00000000"
       y2="0.00000000"
       id="linearGradient576"
       gradientUnits="objectBoundingBox"
       spreadMethod="pad">
      <stop
         style="stop-color:#f3ffb7;stop-opacity:0.854902;"
         offset="0.00000000"
         id="stop577" />
      <stop
         style="stop-color:#edca2a;stop-opacity:0.952941;"
         offset="1.00000000"
         id="stop578" />
    </linearGradient>
    <linearGradient
       x1="0.00000000"
       y1="0.00000000"
       x2="1.00000000"
       y2="0.00000000"
       id="linearGradient553"
       gradientUnits="objectBoundingBox"
       spreadMethod="pad">
      <stop
         style="stop-color:#d9cce6;stop-opacity:1;"
         offset="0.00000000"
         id="stop554" />
      <stop
         style="stop-color:#73667f;stop-opacity:1;"
         offset="1.00000000"
         id="stop555" />
    </linearGradient>
    <linearGradient
       x1="-0.14718680"
       y1="0.15963815"
       x2="1.06099808"
       y2="0.80974162"
       id="linearGradient556"
       xlink:href="#linearGradient613"
       gradientUnits="objectBoundingBox"
       spreadMethod="pad" />
    <linearGradient
       x1="0.00000320"
       y1="-0.00000338"
       x2="0.77868861"
       y2="0.83593744"
       id="linearGradient558"
       xlink:href="#linearGradient596"
       gradientUnits="objectBoundingBox"
       spreadMethod="pad" />
    <linearGradient
       x1="0.01012245"
       y1="0.01567149"
       x2="0.87000453"
       y2="0.90625161"
       id="linearGradient560"
       xlink:href="#linearGradient596"
       gradientUnits="objectBoundingBox"
       gradientTransform="translate(1.608839e-6,6.124947e-7)"
       spreadMethod="pad" />
    <linearGradient
       x1="0.02271967"
       y1="0.01562500"
       x2="0.96590889"
       y2="0.96093738"
       id="linearGradient562"
       xlink:href="#linearGradient613"
       gradientUnits="objectBoundingBox"
       spreadMethod="pad" />
    <linearGradient
       x1="-0.12717241"
       y1="0.29160193"
       x2="1.28247404"
       y2="0.70541745"
       id="linearGradient564"
       xlink:href="#linearGradient553"
       gradientUnits="objectBoundingBox"
       spreadMethod="pad" />
    <linearGradient
       x1="0.01136383"
       y1="0.00781196"
       x2="0.97727299"
       y2="0.97656238"
       id="linearGradient575"
       xlink:href="#linearGradient613"
       gradientUnits="objectBoundingBox"
       spreadMethod="pad" />
    <linearGradient
       x1="0.00000093"
       y1="0.02343896"
       x2="0.59259260"
       y2="0.53125006"
       id="linearGradient623"
       xlink:href="#linearGradient596"
       gradientUnits="objectBoundingBox"
       spreadMethod="pad" />
    <radialGradient
       cx="0.54163635"
       cy="0.48528421"
       fx="0.54163635"
       fy="0.48528421"
       r="0.44431308"
       id="radialGradient599"
       xlink:href="#linearGradient613"
       gradientUnits="objectBoundingBox"
       spreadMethod="pad" />
    <linearGradient
       x1="0.00791449"
       y1="0.02343800"
       x2="0.49206322"
       y2="0.57812494"
       id="linearGradient600"
       xlink:href="#linearGradient596"
       gradientUnits="objectBoundingBox"
       spreadMethod="pad" />
    <linearGradient
       x1="-0.00000316"
       y1="0.01563059"
       x2="0.65306103"
       y2="0.78906244"
       id="linearGradient601"
       xlink:href="#linearGradient596"
       gradientUnits="objectBoundingBox"
       spreadMethod="pad" />
    <linearGradient
       x1="0.00000000"
       y1="0.00000000"
       x2="1.00000000"
       y2="0.00000000"
       id="linearGradient605"
       xlink:href="#linearGradient596"
       gradientUnits="objectBoundingBox"
       spreadMethod="pad" />
  </defs>
  <path
     d="M 30.242912 43.244365 C 34.376462 45.330326 33.929031 47.405472 33.628001 48.930374 C 32.592064 51.597969 23.538647 60.012092 15.114239 55.205769 C 5.1570697 48.99849 1.9322242 29.79545 5.447189 20.013862 C 8.9578259 10.444351 19.985722 5.2122754 34.787372 13.633096 C 41.92946 18.055188 43.487697 23.439911 41.516053 27.12286 C 39.544634 30.805268 36.481246 33.045055 27.133417 33.873259 C 18.802983 34.703567 15.424156 28.95221 14.673244 30.942654 C 14.055772 33.017717 14.929733 43.721243 17.787517 46.821044 C 20.840862 48.649573 22.967628 45.557083 24.1561 43.03083 C 25.040634 40.589107 30.310275 43.287083 30.242912 43.244365 z "
     style="font-size:12;opacity:0.302675;fill:#000000;fill-rule:evenodd;stroke-width:2.65295;fill-opacity:1;"
     id="path577"
     sodipodi:nodetypes="ccccccccccc" />
  <path
     d="M 28.714656 41.01305 C 32.848205 43.099011 32.400776 45.174156 32.099746 46.699057 C 31.063809 49.366654 22.010392 57.780778 13.585984 52.974452 C 3.6288129 46.767175 0.40396737 27.564135 3.9189339 17.782547 C 7.4295691 8.2130353 18.457467 2.9809604 33.259115 11.401778 C 40.401203 15.823873 41.959443 21.208596 39.987796 24.891545 C 38.016379 28.573952 34.952991 30.813739 25.605159 31.641944 C 17.274729 32.47225 13.593903 25.361267 12.842993 27.351711 C 12.22552 29.426774 13.401478 41.489928 16.259261 44.589729 C 19.312606 46.418256 21.439371 43.325768 22.627846 40.799515 C 23.512378 38.357791 28.782018 41.055767 28.714656 41.01305 z "
     style="font-size:12;fill:url(#linearGradient564);fill-rule:evenodd;stroke:#261933;stroke-width:1.875;stroke-dasharray:none;stroke-opacity:1;"
     id="path563"
     sodipodi:nodetypes="ccccccccccc" />
  <path
     d="M 5.7066658 36.950235 C 4.2609577 32.432393 3.2870353 22.613776 7.1523827 15.987464 C 12.393097 7.3131859 26.48877 7.4939039 28.295877 9.8431799 C 21.609446 9.9636487 14.630558 13.774419 10.585991 18.336718 C 7.100817 22.267958 5.4657212 31.468567 5.7066658 36.950235 z "
     style="font-size:12;opacity:0.64949;fill:url(#linearGradient623);fill-rule:evenodd;stroke:#ffffff;stroke-width:0.0767805pt;"
     id="path595" />
  <ellipse
     cx="345.164551"
     cy="198.053543"
     rx="90.430557"
     ry="134.372177"
     transform="matrix(7.678049e-2,0.000000,0.000000,7.678049e-2,7.670749,-0.512716)"
     style="font-size:12;fill:url(#linearGradient562);fill-rule:evenodd;stroke:#261933;stroke-width:24.4203;stroke-dasharray:none;stroke-opacity:1;"
     id="path581" />
  <path
     d="M 29.380207 14.180286 C 28.978953 13.666932 29.697771 8.3235927 32.090866 6.9517252 C 34.4878 5.3969494 36.970192 7.3131526 36.970192 7.3131526 C 36.970192 7.3131526 34.787705 7.4461911 32.362439 9.7082063 C 30.141408 11.636012 29.592888 14.864172 29.380207 14.180286 z "
     style="font-size:12;opacity:0.85;fill:url(#linearGradient600);fill-rule:evenodd;stroke:#ffffff;stroke-width:0.0767805pt;"
     id="path602" />
  <ellipse
     cx="354.717041"
     cy="257.916016"
     rx="41.394272"
     ry="40.120605"
     transform="matrix(7.678049e-2,0.000000,0.000000,7.678049e-2,7.434954,-3.180768)"
     style="font-size:12;fill-rule:evenodd;stroke-width:1pt;"
     id="path582" />
  <ellipse
     cx="345.164551"
     cy="198.053543"
     rx="90.430557"
     ry="134.372177"
     transform="matrix(7.678049e-2,0.000000,0.000000,7.678049e-2,-4.455574,-2.374626e-2)"
     style="font-size:12;fill:url(#linearGradient575);fill-rule:evenodd;stroke:#261933;stroke-width:24.4203;stroke-dasharray:none;stroke-opacity:1;"
     id="path587" />
  <ellipse
     cx="354.717041"
     cy="257.916016"
     rx="41.394272"
     ry="40.120605"
     transform="matrix(7.678049e-2,0.000000,0.000000,7.678049e-2,-5.042331,-2.691798)"
     style="font-size:12;fill-rule:evenodd;stroke-width:1pt;"
     id="path588" />
  <path
     d="M 17.272373 14.722429 C 16.871118 14.209075 17.589936 8.8657331 19.983032 7.4938655 C 22.379965 5.9390915 24.862356 7.8552947 24.862356 7.8552947 C 24.862356 7.8552947 22.815542 7.8526068 20.390276 10.114676 C 18.169246 12.042482 17.485056 15.406313 17.272373 14.722429 z "
     style="font-size:12;opacity:0.85;fill:url(#linearGradient600);fill-rule:evenodd;stroke:#ffffff;stroke-width:0.0767805pt;"
     id="path599" />
  <path
     d="M 19.079478 46.708808 C 22.061711 45.696304 23.002963 42.61226 24.320209 41.829482 C 24.784502 41.489882 27.092601 42.058904 26.669539 42.190889 C 23.981991 42.973282 21.25014 47.238363 19.079478 46.708808 z "
     style="font-size:12;opacity:0.64949;fill:url(#linearGradient601);fill-rule:evenodd;stroke:#ffffff;stroke-width:0.0767805pt;"
     id="path603" />
  <path
     d="M 58.310711 33.59684 C 56.337988 42.089917 42.770487 42.089302 36.076685 39.821513 C 47.524891 36.631819 37.649764 36.243234 38.953038 29.252137 C 40.022897 24.485295 45.22731 21.589827 50.570083 22.788907 C 55.912779 23.988067 59.38057 28.829998 58.310711 33.59684 z "
     style="font-size:12;opacity:0.302675;fill:#000000;fill-rule:evenodd;stroke-width:26.1855;fill-opacity:1;"
     id="path641" />
  <path
     d="M 57.110613 31.917765 C 55.13793 40.410854 41.570404 40.410211 34.876593 38.142433 C 46.324789 34.952698 36.449671 34.564152 37.752952 27.573049 C 38.822837 22.806217 44.027255 19.910703 49.369997 21.109851 C 54.712705 22.308992 58.180498 27.150934 57.110613 31.917765 z "
     style="font-size:12;fill:url(#linearGradient556);fill-rule:evenodd;stroke:#333333;stroke-width:1.875;stroke-dasharray:none;stroke-opacity:1;"
     id="path864" />
  <ellipse
     cx="333.750031"
     cy="231.249939"
     rx="31.250000"
     ry="133.750031"
     transform="matrix(4.217786e-2,9.466529e-3,-7.472704e-3,3.329437e-2,35.51375,17.06455)"
     style="font-size:12;fill-rule:evenodd;stroke:#3f3d33;stroke-width:11.8114;"
     id="path866" />
  <ellipse
     cx="336.250031"
     cy="443.749969"
     rx="31.250000"
     ry="31.250000"
     transform="matrix(3.765870e-2,8.452257e-3,-7.472704e-3,3.329437e-2,36.88077,17.37136)"
     style="font-size:12;fill-rule:evenodd;stroke:#3f3d33;stroke-width:12.5;"
     id="path867" />
  <path
     d="M 41.221656 32.777536 C 40.66253 32.40482 36.897638 29.35154 40.826584 24.843893 C 43.307868 21.939674 46.994064 21.597079 51.710083 23.496116 C 45.773088 22.410819 43.115918 24.572102 41.807489 26.201279 C 40.735635 27.605081 40.520261 30.395102 41.221656 32.777536 z "
     style="font-size:12;opacity:0.85;fill:url(#linearGradient558);fill-rule:evenodd;stroke:#ffffff;stroke-width:0.0385955pt;"
     id="path873" />
  <path
     d="M 38.952815 38.026735 C 38.952815 38.026735 40.736763 37.570868 41.315058 36.974695 C 41.862462 36.46945 41.840101 35.775648 42.088313 35.071572 C 42.121706 35.844705 42.257466 36.741209 41.837677 37.289772 C 41.417888 37.838335 39.083469 38.105504 38.952815 38.026735 z "
     style="font-size:12;opacity:0.85;fill:url(#linearGradient560);fill-rule:evenodd;stroke:#ffffff;stroke-width:0.0385955pt;"
     id="path874" />
  <path
     sodipodi:type="arc"
     style="fill-rule:evenodd;stroke:none;fill:#ffffff;fill-opacity:1;stroke-opacity:1;stroke-width:1pt;stroke-linejoin:miter;stroke-linecap:butt;"
     id="path647"
     d="M 273.523499 183.912354 A 12.790665 12.790680 0 1 0 247.942184,183.912354 A 12.7907 12.7907 0 1 0 273.523 183.912 L 260.732849 183.912354 z"
     sodipodi:cx="260.732849"
     sodipodi:cy="183.912354"
     sodipodi:rx="12.790665"
     sodipodi:ry="12.790680"
     transform="matrix(7.087435e-2,0.000000,0.000000,7.087429e-2,2.664439,3.083221)" />
  <path
     sodipodi:type="arc"
     style="fill-rule:evenodd;stroke:none;fill:#ffffff;fill-opacity:1;stroke-opacity:1;stroke-width:1pt;stroke-linejoin:miter;stroke-linecap:butt;"
     id="path648"
     d="M 273.523499 183.912354 A 12.790665 12.790680 0 1 0 247.942184,183.912354 A 12.7907 12.7907 0 1 0 273.523 183.912 L 260.732849 183.912354 z"
     sodipodi:cx="260.732849"
     sodipodi:cy="183.912354"
     sodipodi:rx="12.790665"
     sodipodi:ry="12.790680"
     transform="matrix(7.087435e-2,0.000000,0.000000,7.087429e-2,15.20478,2.629967)" />
</svg>
