<?xml version="1.0" encoding="UTF-8" standalone="no"?>
<!DOCTYPE svg PUBLIC "-//W3C//DTD SVG 20010904//EN"
"http://www.w3.org/TR/2001/REC-SVG-20010904/DTD/svg10.dtd">
<!-- Created with Inkscape (http://www.inkscape.org/) -->
<svg
   id="svg1"
   sodipodi:version="0.32"
   inkscape:version="0.39"
   width="48pt"
   height="48pt"
   sodipodi:docbase="/home/stefan/software/Lila-themes/lila-gnome/Lila/scalable/apps"
   sodipodi:docname="gqview.svg"
   xmlns="http://www.w3.org/2000/svg"
   xmlns:inkscape="http://www.inkscape.org/namespaces/inkscape"
   xmlns:sodipodi="http://sodipodi.sourceforge.net/DTD/sodipodi-0.dtd"
   xmlns:xlink="http://www.w3.org/1999/xlink"
   xmlns:rdf="http://www.w3.org/1999/02/22-rdf-syntax-ns#"
   xmlns:cc="http://web.resource.org/cc/"
   xmlns:dc="http://purl.org/dc/elements/1.1/">
  <defs
     id="defs3">
    <linearGradient
       id="linearGradient652">
      <stop
         style="stop-color:#ffffff;stop-opacity:1;"
         offset="0.00000000"
         id="stop653" />
      <stop
         style="stop-color:#000000;stop-opacity:1;"
         offset="1.00000000"
         id="stop654" />
    </linearGradient>
    <linearGradient
       id="linearGradient916">
      <stop
         style="stop-color:#cccccc;stop-opacity:1;"
         offset="0.00000000"
         id="stop917" />
      <stop
         style="stop-color:#7f7f7f;stop-opacity:1;"
         offset="1.00000000"
         id="stop918" />
    </linearGradient>
    <linearGradient
       id="linearGradient866">
      <stop
         style="stop-color:#ffffff;stop-opacity:1;"
         offset="0.00000000"
         id="stop867" />
      <stop
         style="stop-color:#d9d1e1;stop-opacity:1;"
         offset="1.00000000"
         id="stop868" />
    </linearGradient>
    <linearGradient
       id="linearGradient584">
      <stop
         style="stop-color:#ffffff;stop-opacity:1;"
         offset="0.00000000"
         id="stop585" />
      <stop
         style="stop-color:#ffffff;stop-opacity:0;"
         offset="1.00000000"
         id="stop586" />
    </linearGradient>
    <linearGradient
       id="linearGradient578">
      <stop
         style="stop-color:#d9cce6;stop-opacity:1;"
         offset="0.00000000"
         id="stop579" />
      <stop
         style="stop-color:#73667f;stop-opacity:1;"
         offset="1.00000000"
         id="stop580" />
    </linearGradient>
    <linearGradient
       xlink:href="#linearGradient652"
       id="linearGradient581" />
    <linearGradient
       xlink:href="#linearGradient584"
       id="linearGradient583"
       x1="-0.03076923"
       y1="0.02325581"
       x2="0.97692305"
       y2="1.03100777" />
    <linearGradient
       xlink:href="#linearGradient578"
       id="linearGradient860"
       x1="0.0041151899"
       y1="0.012396690"
       x2="0.99588472"
       y2="0.98347110" />
    <linearGradient
       xlink:href="#linearGradient578"
       id="linearGradient861"
       x1="0.01562500"
       y1="0.01550388"
       x2="0.98437500"
       y2="0.97674417" />
    <linearGradient
       xlink:href="#linearGradient866"
       id="linearGradient862"
       x1="0.00617284"
       y1="0.01550388"
       x2="1.00000000"
       y2="0.96899223" />
    <linearGradient
       xlink:href="#linearGradient916"
       id="linearGradient869"
       x1="0.00641026"
       y1="0.01550388"
       x2="0.97435898"
       y2="0.95348835" />
    <linearGradient
       xlink:href="#linearGradient578"
       id="linearGradient915"
       x1="0.00411519"
       y1="0.01239669"
       x2="0.99588472"
       y2="0.98347110" />
    <linearGradient
       xlink:href="#linearGradient578"
       id="linearGradient655"
       x1="0.0041151899"
       y1="0.012396690"
       x2="0.99588472"
       y2="0.98347110" />
    <linearGradient
       xlink:href="#linearGradient584"
       id="linearGradient644"
       x1="-0.00000000"
       y1="-0.00000000"
       x2="0.75652176"
       y2="0.60714287" />
    <linearGradient
       xlink:href="#linearGradient584"
       id="linearGradient646"
       x1="0.00653595"
       y1="0.99173552"
       x2="0.69111967"
       y2="0.25206611" />
  </defs>
  <sodipodi:namedview
     id="base"
     pagecolor="#ffffff"
     bordercolor="#666666"
     borderopacity="1.0"
     inkscape:pageopacity="0.0"
     inkscape:pageshadow="2"
     inkscape:zoom="16.000000"
     inkscape:cx="35.166559"
     inkscape:cy="22.642025"
     inkscape:window-width="1269"
     inkscape:window-height="970"
     inkscape:window-x="0"
     inkscape:window-y="0"
     borderlayer="top" />
  <path
     style="font-size:12;fill:#000000;fill-opacity:1;fill-rule:evenodd;stroke:none;stroke-width:1.875;stroke-dasharray:none;opacity:0.300000;"
     d="M 38.363607 39.934603 C 38.702108 40.664342 39.205814 41.271363 39.68824 41.90457 C 39.210406 41.314637 38.725575 40.735456 38.363607 39.934603 z M 25.626751 16.159139 C 20.301861 17.322105 15.24287 22.795551 9.867014 26.246729 C 10.578174 25.772103 11.070187 25.589272 11.633192 25.29571 C 7.8070222 27.037489 5.1119214 30.839583 5.1119214 35.31537 C 5.1119214 41.422727 10.077141 46.387944 16.184495 46.387944 C 19.159906 46.387944 21.837517 45.175999 23.826608 43.263168 C 23.848748 43.241527 23.838685 43.216766 23.860573 43.195239 C 23.955451 43.102901 24.040763 43.019182 24.132293 42.923519 C 27.019783 40.271503 29.96304 35.409927 32.75939 35.51916 C 35.311384 35.618847 37.587699 39.800277 40.163749 42.583869 C 40.435986 42.890565 40.708532 43.158179 41.012873 43.432993 C 41.15425 43.560816 41.276789 43.759621 41.420452 43.874538 C 41.30489 43.774549 41.229208 43.603675 41.114768 43.500923 C 43.065721 45.223859 45.543812 46.387944 48.349302 46.387944 C 54.456657 46.387944 59.421876 41.422727 59.421875 35.31537 C 59.421875 30.734854 56.633462 26.806239 52.66285 25.125886 C 51.339313 24.565768 51.483461 24.609314 52.66285 25.125886 C 53.456385 25.473453 54.202385 25.853439 55.040397 26.518448 C 50.581467 22.636361 46.433908 17.472187 41.420452 16.159139 C 38.747698 15.459131 34.70632 19.571476 33.336794 21.355776 C 31.778238 19.502851 28.145623 15.609011 25.626751 16.159139 z "
     id="path651"
     sodipodi:nodetypes="cccccccccccccccccccccccc" />
  <path
     style="font-size:12;fill:url(#linearGradient915);fill-opacity:0.75;fill-rule:evenodd;stroke:#261933;stroke-width:1.875;stroke-linejoin:round;stroke-dasharray:none;"
     d="M 39.028589 40.995187 C 37.045073 39.278979 35.184128 37.226044 34.90962 32.422599 C 34.90962 26.315244 39.866315 21.358549 45.97367 21.358549 C 49.061443 21.427177 50.577136 21.972436 52.660642 23.625816 C 48.201716 19.743729 44.042045 14.582974 39.028589 13.269926 C 36.355835 12.569919 32.316794 16.701269 30.947268 18.485568 C 29.388713 16.632643 25.763278 12.719798 23.244406 13.269926 C 17.919517 14.432894 12.857803 19.893824 7.4819467 23.345002 C 9.949855 21.697929 11.122414 21.221296 13.798425 21.358549 C 19.905781 21.358549 24.862475 26.315244 24.862475 32.422599 C 24.999728 35.922134 24.179961 37.712335 21.447715 40.383164 C 24.433939 37.815474 27.485528 32.509579 30.381601 32.622707 C 33.341688 32.738336 35.903628 38.495519 39.028589 40.995187 z "
     id="path642"
     sodipodi:nodetypes="ccccccccccccc" />
  <path
     style="font-size:12;fill:url(#linearGradient860);fill-opacity:0.75;fill-rule:evenodd;stroke:#261933;stroke-width:1.875;stroke-dasharray:none;"
     d="M 57.03772 32.422599 C 57.03772 38.529956 52.081026 43.486649 45.97367 43.486649 C 39.866315 43.486649 34.90962 38.529956 34.90962 32.422599 C 34.90962 26.315244 39.866315 21.358549 45.97367 21.358549 C 52.081026 21.358549 57.03772 26.315244 57.03772 32.422599 z "
     id="path628" />
  <path
     style="font-size:12;fill:url(#linearGradient655);fill-opacity:0.75;fill-rule:evenodd;stroke:#261933;stroke-width:1.875;stroke-dasharray:none;"
     d="M 24.862475 32.422599 C 24.862475 38.529956 19.905781 43.486649 13.798425 43.486649 C 7.6910697 43.486649 2.734375 38.529956 2.734375 32.422599 C 2.734375 26.315244 7.6910697 21.358549 13.798425 21.358549 C 19.905781 21.358549 24.862475 26.315244 24.862475 32.422599 z "
     id="path630" />
  <path
     style="fill:url(#linearGradient644);fill-rule:evenodd;stroke:none;stroke-opacity:1;stroke-width:0.125;stroke-linejoin:miter;stroke-linecap:butt;fill-opacity:0.75;stroke-dasharray:none;"
     d="M 13.575056 20.185666 C 17.479619 17.245403 21.596194 14.447771 23.608976 14.325343 C 25.178942 14.225675 26.805888 15.671804 28.082835 16.994802 C 26.707643 17.396502 22.183151 21.058118 20.891602 22.547147 C 19.357421 21.221639 16.253335 20.418217 13.575056 20.185666 z "
     id="path643"
     sodipodi:nodetypes="csccc" />
  <path
     style="fill:url(#linearGradient646);fill-rule:evenodd;stroke:none;stroke-opacity:1;stroke-width:0.125;stroke-linejoin:miter;stroke-linecap:butt;fill-opacity:0.75;stroke-dasharray:none;"
     d="M 31.069442 19.547198 C 31.976365 19.541865 32.359696 17.560535 36.314881 14.996037 C 37.757172 14.851088 42.490436 20.348874 42.101628 20.920064 C 41.240259 21.218536 38.154651 22.311622 35.799466 25.813054 C 34.570807 23.734074 33.047056 22.842761 31.076868 22.522321 C 31.111684 21.407117 31.052045 20.819327 31.069442 19.547198 z "
     id="path645"
     sodipodi:nodetypes="cccccc" />
  <path
     style="font-size:12;fill:none;fill-opacity:0.75;fill-rule:evenodd;stroke:#261933;stroke-width:1.875;stroke-dasharray:none;"
     d="M 24.656817 30.128337 C 24.296564 28.327073 24.893801 26.628333 25.73279 25.562117 C 26.815149 24.186621 28.254443 23.505486 30.505773 23.538273 C 32.377335 23.565528 33.856836 24.663058 34.679584 25.929655 C 35.377903 27.0047 35.424369 28.667311 35.104144 30.308463 "
     id="path652"
     sodipodi:nodetypes="cssss" />
  <metadata
     id="metadata36">
    <rdf:RDF
       id="RDF37">
      <cc:Work
         rdf:about=""
         id="Work38">
        <dc:format
           id="format39">image/svg+xml</dc:format>
        <dc:type
           id="type41"
           rdf:resource="http://purl.org/dc/dcmitype/StillImage" />
      </cc:Work>
    </rdf:RDF>
  </metadata>
  <path
     style="font-size:12.000000;opacity:0.34545454;fill:#000000;fill-opacity:1.0000000;fill-rule:evenodd;stroke:none;stroke-width:1.8750000;"
     d="M 56.114493,32.421875 C 56.114493,38.011732 51.577799,42.548425 45.987943,42.548425 C 40.398088,42.548425 35.861393,38.011732 35.861393,32.421875 C 35.861393,26.832020 40.398088,22.295325 45.987943,22.295325 C 51.577799,22.295325 56.114493,26.832020 56.114493,32.421875 z "
     id="path1562" />
  <path
     style="font-size:12.000000;opacity:0.34545454;fill:#000000;fill-opacity:1.0000000;fill-rule:evenodd;stroke:none;stroke-width:1.8750000;"
     d="M 23.912229,32.444636 C 23.912229,38.034493 19.375535,42.571186 13.785679,42.571186 C 8.1958243,42.571186 3.6591294,38.034493 3.6591294,32.444636 C 3.6591294,26.854781 8.1958243,22.318086 13.785679,22.318086 C 19.375535,22.318086 23.912229,26.854781 23.912229,32.444636 z "
     id="path2186" />
</svg>
