<?xml version="1.0" encoding="UTF-8" standalone="no"?>
<!DOCTYPE svg PUBLIC "-//W3C//DTD SVG 20010904//EN"
"http://www.w3.org/TR/2001/REC-SVG-20010904/DTD/svg10.dtd">
<!-- Created with Inkscape (http://www.inkscape.org/) -->
<svg
   width="48pt"
   height="48pt"
   xmlns="http://www.w3.org/2000/svg"
   xmlns:cc="http://web.resource.org/cc/"
   xmlns:inkscape="http://www.inkscape.org/namespaces/inkscape"
   xmlns:sodipodi="http://sodipodi.sourceforge.net/DTD/sodipodi-0.dtd"
   xmlns:rdf="http://www.w3.org/1999/02/22-rdf-syntax-ns#"
   xmlns:dc="http://purl.org/dc/elements/1.1/"
   xmlns:xlink="http://www.w3.org/1999/xlink"
   id="svg4531"
   sodipodi:version="0.32"
   inkscape:version="0.40"
   sodipodi:docbase="/home/pinuz"
   sodipodi:docname="gripicon3.svg">
  <defs
     id="defs3">
    <linearGradient
       xlink:href="#linearGradient584"
       id="linearGradient654"
       gradientTransform="scale(0.865842,1.154945)"
       x1="15.243068"
       y1="38.676094"
       x2="34.921941"
       y2="38.676094"
       gradientUnits="userSpaceOnUse" />
    <linearGradient
       xlink:href="#linearGradient584"
       id="linearGradient583"
       gradientTransform="scale(0.880310,1.135964)"
       x1="35.460467"
       y1="13.645152"
       x2="55.558683"
       y2="13.645152"
       gradientUnits="userSpaceOnUse" />
    <linearGradient
       id="linearGradient584"
       x1="0.0000000"
       y1="0.50000000"
       x2="1.0000000"
       y2="0.50000000"
       gradientUnits="objectBoundingBox"
       spreadMethod="pad"
       xlink:href="#linearGradient4030" />
    <linearGradient
       xlink:href="#linearGradient584"
       id="linearGradient581"
       x1="5.4427566"
       y1="7.3336703"
       x2="45.667449"
       y2="45.183026"
       gradientTransform="scale(1.070410,0.934221)"
       gradientUnits="userSpaceOnUse" />
    <linearGradient
       id="linearGradient578">
      <stop
         style="stop-color:#ffffff;stop-opacity:1;"
         offset="0.00000000"
         id="stop579" />
      <stop
         style="stop-color:#d9cce6;stop-opacity:1;"
         offset="1.00000000"
         id="stop580" />
    </linearGradient>
    <linearGradient
       xlink:href="#linearGradient578"
       id="linearGradient655"
       x1="2.3435844"
       y1="2.2820689"
       x2="55.475528"
       y2="56.672470"
       gradientUnits="userSpaceOnUse" />
    <linearGradient
       id="linearGradient1528">
      <stop
         style="stop-color:#d9cce6;stop-opacity:1;"
         offset="0.00000000"
         id="stop1530" />
      <stop
         style="stop-color:#73667f;stop-opacity:1;"
         offset="1.00000000"
         id="stop1529" />
    </linearGradient>
    <linearGradient
       inkscape:collect="always"
       xlink:href="#linearGradient1528"
       id="linearGradient4050"
       gradientTransform="matrix(1.009597,0.000000,0.000000,0.990494,2.618450,1.102349)"
       x1="32.150883"
       y1="14.381178"
       x2="58.001198"
       y2="14.381178"
       gradientUnits="userSpaceOnUse" />
    <linearGradient
       id="linearGradient4030">
      <stop
         offset="0.0000000"
         style="stop-color:#ffffff;stop-opacity:1.0000000;"
         id="stop4032" />
      <stop
         offset="1.0000000"
         style="stop-color:#ffffff;stop-opacity:0.0000000;"
         id="stop4031" />
    </linearGradient>
    <linearGradient
       inkscape:collect="always"
       xlink:href="#linearGradient4030"
       id="linearGradient4036"
       gradientTransform="matrix(1.066157,0.000000,0.000000,0.937948,4.047026,2.673782)"
       x1="33.437988"
       y1="12.092749"
       x2="49.303459"
       y2="12.092749"
       gradientUnits="userSpaceOnUse" />
  </defs>
  <sodipodi:namedview
     id="base"
     pagecolor="#ffffff"
     bordercolor="#666666"
     borderopacity="1.0"
     inkscape:pageopacity="0.0"
     inkscape:pageshadow="2"
     inkscape:zoom="1.0000000"
     inkscape:cx="24.000000"
     inkscape:cy="24.000000"
     inkscape:current-layer="layer1"
     showgrid="false"
     inkscape:grid-bbox="false"
     gridspacingy="1.0000000pt"
     gridspacingx="1.0000000pt"
     gridoriginy="0.0000000pt"
     gridoriginx="0.0000000pt"
     inkscape:window-width="638"
     inkscape:window-height="542"
     inkscape:window-x="2"
     inkscape:window-y="48" />
  <metadata
     id="metadata4">
    <rdf:RDF
       id="RDF5">
      <cc:Work
         rdf:about=""
         id="Work6">
        <dc:format
           id="format7">image/svg+xml</dc:format>
        <dc:type
           id="type9"
           rdf:resource="http://purl.org/dc/dcmitype/StillImage" />
      </cc:Work>
    </rdf:RDF>
  </metadata>
  <g
     id="layer1"
     inkscape:label="Layer 1"
     inkscape:groupmode="layer">
    <g
       id="g2966"
       transform="matrix(1.482878,0.000000,0.000000,1.482878,61.76224,-5.880253)"
       style="opacity:0.29999998;fill:none;fill-opacity:1.0000000;stroke:#000000;stroke-width:1.2054266;stroke-miterlimit:4.0000000;stroke-opacity:1.0000000;">
      <path
         sodipodi:type="arc"
         style="stroke-linecap:round;stroke-linejoin:round"
         id="path2967"
         sodipodi:cx="-29.938877"
         sodipodi:cy="35.819729"
         sodipodi:rx="3.9076257"
         sodipodi:ry="3.7901032"
         d="M -26.031251 35.819729 A 3.9076257 3.7901032 0 1 1  -33.846503,35.819729 A 3.9076257 3.7901032 0 1 1  -26.031251 35.819729 z" />
      <path
         style="fill-rule:evenodd;stroke-linecap:round;stroke-linejoin:round"
         d="M -25.972489,32.499717 C -25.580748,35.927459 -25.600335,38.473782 -25.972490,41.725239 C -25.854967,43.331380 -30.849676,44.526194 -33.258889,42.371613"
         id="path2968"
         sodipodi:nodetypes="ccz" />
      <path
         style="fill-rule:evenodd;stroke-linecap:round;stroke-linejoin:round"
         d="M -22.211767,32.558478 L -22.211767,40.961343"
         id="path2969" />
      <path
         style="fill-rule:evenodd;stroke-linecap:round;stroke-linejoin:round"
         d="M -21.976722,35.261498 L -18.744851,32.617240"
         id="path2970" />
      <path
         style="fill-rule:evenodd;stroke-linecap:round;stroke-linejoin:round"
         d="M -16.241615,32.638786 L -16.241615,41.041651"
         id="path2971" />
      <path
         sodipodi:type="arc"
         style="fill:#000000;stroke-linecap:round;stroke-linejoin:round"
         id="path2972"
         sodipodi:cx="-17.628387"
         sodipodi:cy="27.769434"
         sodipodi:rx="3.2906322"
         sodipodi:ry="3.0262063"
         d="M -14.337755 27.769434 A 3.2906322 3.0262063 0 1 1  -20.919020,27.769434 A 3.2906322 3.0262063 0 1 1  -14.337755 27.769434 z"
         transform="matrix(0.455357,0.000000,0.000000,0.455357,-8.243780,16.54747)" />
      <path
         sodipodi:type="arc"
         style="stroke-linecap:round;stroke-linejoin:round"
         id="path2973"
         sodipodi:cx="-29.938877"
         sodipodi:cy="35.819729"
         sodipodi:rx="3.9076257"
         sodipodi:ry="3.7901032"
         d="M -26.031251 35.819729 A 3.9076257 3.7901032 0 1 1  -33.846503,35.819729 A 3.9076257 3.7901032 0 1 1  -26.031251 35.819729 z"
         transform="translate(21.05405,0.268023)" />
      <path
         style="fill-rule:evenodd;stroke-linecap:round;stroke-linejoin:round"
         d="M -12.943327,32.733508 L -12.943327,42.952022"
         id="path2974" />
    </g>
    <g
       id="g3384">
      <defs
         id="defs4604">
        <linearGradient
           id="linearGradient4605"
           x1="0.0000000"
           y1="0.50000000"
           x2="1.0000000"
           y2="0.50000000"
           gradientUnits="objectBoundingBox"
           spreadMethod="pad"
           xlink:href="#linearGradient4030" />
        <linearGradient
           id="linearGradient4606">
          <stop
             style="stop-color:#ffffff;stop-opacity:1;"
             offset="0.00000000"
             id="stop4607" />
          <stop
             style="stop-color:#d9cce6;stop-opacity:1;"
             offset="1.00000000"
             id="stop4608" />
        </linearGradient>
        <linearGradient
           xlink:href="#linearGradient584"
           id="linearGradient4609"
           x1="0.01351351"
           y1="0.04687500"
           x2="0.99324322"
           y2="0.96875000" />
        <linearGradient
           xlink:href="#linearGradient584"
           id="linearGradient4610" />
        <linearGradient
           xlink:href="#linearGradient584"
           id="linearGradient4611" />
        <linearGradient
           xlink:href="#linearGradient578"
           id="linearGradient4612"
           x1="0.00000000"
           y1="-0.00000000"
           x2="0.96923077"
           y2="0.99218750" />
        <linearGradient
           xlink:href="#linearGradient584"
           id="linearGradient713" />
      </defs>
      <sodipodi:namedview
         id="namedview3397"
         pagecolor="#ffffff"
         bordercolor="#666666"
         borderopacity="1.0"
         inkscape:pageopacity="0.0"
         inkscape:pageshadow="2"
         inkscape:zoom="5.64233871"
         inkscape:cx="23.0963011"
         inkscape:cy="23.9821367"
         inkscape:window-width="640"
         inkscape:window-height="516"
         inkscape:window-x="96"
         inkscape:window-y="127" />
      <path
         d="M 36.118897 32.546487 C 36.118897 34.871102 34.232321 36.757678 31.907706 36.757678 C 29.583089 36.757678 27.696413 34.871102 27.696413 32.546487 C 27.696413 30.22187 29.583089 28.335194 31.907706 28.335194 C 34.232321 28.335194 36.118897 30.22187 36.118897 32.546487 z M 58.669514 32.138888 C 58.669514 47.061377 46.55843 59.172358 31.635941 59.172358 C 16.713451 59.172358 4.6024598 47.061377 4.6024598 32.138888 C 4.6024598 17.2164 16.713451 5.1053163 31.635941 5.1053163 C 46.55843 5.1053163 58.669514 17.2164 58.669514 32.138888 z "
         style="font-size:12;opacity:0.302675;fill-rule:evenodd;stroke-width:12.5;"
         id="path782" />
      <path
         d="M 34.142707 30.090541 C 34.142707 32.366857 32.295328 34.214238 30.019011 34.214238 C 27.742693 34.214238 25.895215 32.366857 25.895215 30.090541 C 25.895215 27.814224 27.742693 25.966746 30.019011 25.966746 C 32.295328 25.966746 34.142707 27.814224 34.142707 30.090541 z M 56.224788 29.691414 C 56.224788 44.303857 44.365336 56.163209 29.752893 56.163209 C 15.140448 56.163209 3.2810857 44.303857 3.2810857 29.691414 C 3.2810857 15.078969 15.140448 3.2195676 29.752893 3.2195676 C 44.365336 3.2195676 56.224788 15.078969 56.224788 29.691414 z "
         style="font-size:12;fill:url(#linearGradient655);fill-rule:evenodd;stroke:#261933;stroke-width:1.875;stroke-dasharray:none;"
         id="path773" />
      <path
         d="M 9.0011055 43.392896 C 4.1204139 37.981788 1.0217144 15.522169 19.11093 7.210253 C 33.787948 0.52499748 48.148535 11.238426 49.174482 14.260508 C 49.477048 15.112445 36.930363 4.5046413 21.90453 12.265166 C -0.14499078 23.553358 9.6014807 44.077157 9.0011055 43.392896 z "
         style="font-size:12;opacity:0.7;fill-rule:evenodd;stroke:none;stroke-width:0.0778586pt;fill:url(#linearGradient581);"
         id="path774" />
      <path
         d="M 39.82112 30.278517 C 39.82112 35.464806 34.97533 39.8566 29.980089 40.025561 C 24.417649 40.025561 19.766075 35.370817 19.950882 30.184529 C 20.142324 24.810364 24.417649 20.061235 29.980089 20.061235 C 35.166277 20.061235 40.01593 24.90772 39.82112 30.278517 z M 37.202325 30.223452 C 37.202325 34.262073 33.924622 37.539775 29.886001 37.539775 C 25.847379 37.539775 22.569677 34.262073 22.569677 30.223452 C 22.569677 26.184831 25.847379 22.907127 29.886001 22.907127 C 33.924622 22.907127 37.202325 26.184831 37.202325 30.223452 z "
         style="font-size:12;opacity:0.100892;fill:#3f003f;fill-rule:evenodd;stroke-width:1pt;"
         id="path779" />
      <path
         d="M 31.216196 25.235045 C 31.210947 25.612088 33.486473 27.095298 33.810233 26.897813 C 38.868164 22.772731 48.783377 16.593181 48.908464 12.398175 C 48.994925 9.4338322 34.085957 3.3896875 33.610668 4.1506354 C 31.562637 7.7161848 31.329796 18.518304 31.216196 25.235045 z "
         style="font-size:12;fill:url(#linearGradient583);fill-rule:evenodd;stroke-width:1pt;"
         id="path780" />
      <path
         d="M 29.473007 34.718049 C 29.439136 34.342493 27.022281 33.103018 26.720708 33.332986 C 22.117364 37.959801 12.895625 45.133311 13.205717 49.318609 C 13.426772 52.276018 28.881644 56.743083 29.275523 55.937104 C 30.943145 52.178566 30.055853 41.410426 29.473007 34.718049 z "
         style="font-size:12;fill:url(#linearGradient654);fill-rule:evenodd;stroke-width:1pt;"
         id="path781" />
    </g>
    <path
       style="fill:url(#linearGradient4050);fill-opacity:1.0;fill-rule:evenodd;stroke:#261933;stroke-width:1.8750000;stroke-linecap:butt;stroke-linejoin:round;stroke-miterlimit:4.0000000;stroke-opacity:1.0000000;"
       d="M 34.689683,21.834263 C 36.570568,22.134946 37.946181,23.469995 38.168394,25.394986 C 45.388680,24.259210 50.841800,22.147256 56.906030,19.186128 C 53.616852,9.6369887 49.126713,6.1829879 40.633993,3.6653998 C 37.057329,7.0974358 34.507148,17.473697 34.689683,21.834263 z "
       id="path4046"
       sodipodi:nodetypes="ccccc" />
    <path
       style="fill:url(#linearGradient4036);fill-opacity:1.0000000;fill-rule:evenodd;stroke:none;stroke-width:0.25000000pt;stroke-linecap:butt;stroke-linejoin:miter;stroke-opacity:1.0000000;"
       d="M 36.152388,20.531930 C 36.437990,14.070396 38.969726,8.1847479 40.861532,5.1875952 C 47.106552,6.4722852 52.710597,12.005189 53.850944,15.716400 C 49.568644,12.861534 46.713892,8.2211194 41.682190,7.6144601 C 39.897899,11.468530 38.150794,13.680251 36.152388,20.531930 z "
       id="path4025"
       sodipodi:nodetypes="ccccc" />
    <path
       style="fill:none;fill-opacity:0.75000000;fill-rule:evenodd;stroke:#261933;stroke-width:3.1250000;stroke-linecap:round;stroke-linejoin:round;stroke-miterlimit:4.0000000;stroke-opacity:1.0000000;"
       d="M 27.365684,40.961088 L 27.365684,53.421512"
       id="path3474" />
    <path
       sodipodi:type="arc"
       style="fill:none;fill-opacity:0.30386737;stroke:#261933;stroke-width:2.1073885;stroke-linecap:round;stroke-linejoin:round;stroke-miterlimit:4.0000000;stroke-opacity:1.0000000;"
       id="path2851"
       sodipodi:cx="-29.938877"
       sodipodi:cy="35.819729"
       sodipodi:rx="3.9076257"
       sodipodi:ry="3.7901032"
       d="M -26.031251 35.819729 A 3.9076257 3.7901032 0 1 1  -33.846503,35.819729 A 3.9076257 3.7901032 0 1 1  -26.031251 35.819729 z"
       transform="matrix(1.482878,0.000000,0.000000,1.482878,60.30301,-7.319163)" />
    <path
       style="fill:none;fill-opacity:0.75000000;fill-rule:evenodd;stroke:#261933;stroke-width:3.1250000;stroke-linecap:round;stroke-linejoin:round;stroke-miterlimit:4.0000000;stroke-opacity:1.0000000;"
       d="M 27.714228,44.969337 L 32.506698,41.048225"
       id="path3475" />
    <path
       style="fill:none;fill-opacity:0.75000000;fill-rule:evenodd;stroke:#261933;stroke-width:3.1250000;stroke-linecap:round;stroke-linejoin:round;stroke-miterlimit:4.0000000;stroke-opacity:1.0000000;"
       d="M 21.788992,40.873953 C 22.369896,45.956876 22.340851,49.732763 21.788991,54.554277 C 21.963263,56.935988 14.556718,58.707752 10.984150,55.512771"
       id="path3473"
       sodipodi:nodetypes="ccz" />
    <path
       style="fill:none;fill-opacity:0.75000000;fill-rule:evenodd;stroke:#261933;stroke-width:3.1250000;stroke-linecap:round;stroke-linejoin:round;stroke-miterlimit:4.0000000;stroke-opacity:1.0000000;"
       d="M 36.218692,41.080175 L 36.218692,53.540599"
       id="path3477" />
    <path
       sodipodi:type="arc"
       style="fill:none;fill-opacity:0.30386737;stroke:#261933;stroke-width:2.1073885;stroke-linecap:round;stroke-linejoin:round;stroke-miterlimit:4.0000000;stroke-opacity:1.0000000;"
       id="path3487"
       sodipodi:cx="-29.938877"
       sodipodi:cy="35.819729"
       sodipodi:rx="3.9076257"
       sodipodi:ry="3.7901032"
       d="M -26.031251 35.819729 A 3.9076257 3.7901032 0 1 1  -33.846503,35.819729 A 3.9076257 3.7901032 0 1 1  -26.031251 35.819729 z"
       transform="matrix(1.482878,0.000000,0.000000,1.482878,91.52360,-6.921718)" />
    <path
       sodipodi:type="arc"
       style="fill:#261933;fill-opacity:1.0000000;stroke:#261933;stroke-width:1.2054266;stroke-linecap:round;stroke-linejoin:round;stroke-miterlimit:4.0000000;stroke-opacity:1.0000000;"
       id="path3479"
       sodipodi:cx="-17.628387"
       sodipodi:cy="27.769434"
       sodipodi:rx="3.2906322"
       sodipodi:ry="3.0262063"
       d="M -14.337755 27.769434 A 3.2906322 3.0262063 0 1 1  -20.919020,27.769434 A 3.2906322 3.0262063 0 1 1  -14.337755 27.769434 z"
       transform="matrix(0.675239,0.000000,0.000000,0.675239,48.07849,17.21870)" />
    <path
       style="fill:none;fill-opacity:0.75000000;fill-rule:evenodd;stroke:#261933;stroke-width:3.1250000;stroke-linecap:round;stroke-linejoin:round;stroke-miterlimit:4.0000000;stroke-opacity:1.0000000;"
       d="M 41.109650,41.220636 L 41.109650,56.373446"
       id="path3488" />
  </g>
</svg>
