<?xml version="1.0" encoding="UTF-8" standalone="no"?>
<!DOCTYPE svg PUBLIC "-//W3C//DTD SVG 20010904//EN"
"http://www.w3.org/TR/2001/REC-SVG-20010904/DTD/svg10.dtd">
<!-- Created with Inkscape (http://www.inkscape.org/) -->
<svg
   id="svg1"
   sodipodi:version="0.32"
   inkscape:version="0.38"
   width="48.000000pt"
   height="48.000000pt"
   sodipodi:docbase="/home/dan/Projects/Lila-icons/scalable/apps"
   sodipodi:docname="gtetrinet.svg"
   xmlns="http://www.w3.org/2000/svg"
   xmlns:inkscape="http://www.inkscape.org/namespaces/inkscape"
   xmlns:sodipodi="http://sodipodi.sourceforge.net/DTD/sodipodi-0.dtd"
   xmlns:xlink="http://www.w3.org/1999/xlink">
  <defs
     id="defs3">
    <linearGradient
       id="linearGradient843">
      <stop
         style="stop-color:#ffffff;stop-opacity:1.0000000;"
         offset="0.0000000"
         id="stop844" />
      <stop
         style="stop-color:#ffffff;stop-opacity:0.0000000;"
         offset="1.0000000"
         id="stop846" />
    </linearGradient>
    <linearGradient
       id="linearGradient839">
      <stop
         style="stop-color:#ffffff;stop-opacity:1.0000000;"
         offset="0.0000000"
         id="stop840" />
      <stop
         style="stop-color:#73667f;stop-opacity:1.0000000;"
         offset="1.0000000"
         id="stop841" />
    </linearGradient>
    <linearGradient
       id="linearGradient837">
      <stop
         style="stop-color:#d9cce6;stop-opacity:1.0000000;"
         offset="0.0000000"
         id="stop838" />
      <stop
         style="stop-color:#73667f;stop-opacity:1.0000000;"
         offset="1.0000000"
         id="stop839" />
    </linearGradient>
    <linearGradient
       xlink:href="#linearGradient843"
       id="linearGradient840"
       x1="-0.18867925"
       y1="0.28906250"
       x2="0.51886791"
       y2="0.55468750" />
    <linearGradient
       xlink:href="#linearGradient837"
       id="linearGradient841"
       x1="0.083663590"
       y1="0.14910249"
       x2="0.95034951"
       y2="0.86446333" />
    <linearGradient
       xlink:href="#linearGradient837"
       id="linearGradient853"
       x1="0.0056497175"
       y1="0.019480519"
       x2="0.99435025"
       y2="0.97402596" />
    <linearGradient
       xlink:href="#linearGradient843"
       id="linearGradient855"
       x1="2.8126644e-15"
       y1="-1.7371636e-15"
       x2="0.53142858"
       y2="0.52597404" />
    <linearGradient
       xlink:href="#linearGradient843"
       id="linearGradient868" />
    <linearGradient
       xlink:href="#linearGradient843"
       id="linearGradient869" />
    <linearGradient
       xlink:href="#linearGradient843"
       id="linearGradient870" />
    <linearGradient
       xlink:href="#linearGradient843"
       id="linearGradient871" />
  </defs>
  <sodipodi:namedview
     id="base"
     pagecolor="#ffffff"
     bordercolor="#666666"
     borderopacity="1.0"
     inkscape:pageopacity="0.0"
     inkscape:pageshadow="2"
     inkscape:zoom="7.9794720"
     inkscape:cx="32.100604"
     inkscape:cy="23.570740"
     inkscape:window-width="1022"
     inkscape:window-height="713"
     inkscape:window-x="0"
     inkscape:window-y="25" />
  <g
     id="g872"
     style="opacity:0.29896907;"
     transform="matrix(0.976186,0.000000,0.000000,0.976186,9.821727,-16.03928)">
    <path
       style="fill:#000000;fill-rule:evenodd;stroke:none;stroke-width:1.8750000;stroke-dasharray:none;fill-opacity:1.0000000;"
       d="M -1.3674298,33.337262 C -2.0153678,34.195625 3.0966955,53.152405 4.1810812,53.612370 C 5.3551320,54.123470 26.713905,48.202730 27.272179,47.293232 C 27.779318,46.473401 22.737654,27.497353 21.723668,27.018123 C 20.620015,26.487760 -0.78989019,32.498163 -1.3674298,33.337262 z "
       id="path864"
       sodipodi:nodetypes="czzzz" />
    <path
       style="fill:#000000;fill-rule:evenodd;stroke:none;stroke-width:1.8750000;stroke-dasharray:none;fill-opacity:1.0000000;"
       d="M 21.324452,26.922830 C 20.662108,27.800279 25.887827,47.178521 26.996322,47.648713 C 28.196476,48.171176 50.030114,42.118801 50.600799,41.189083 C 51.119213,40.351024 45.965459,20.953086 44.928930,20.463201 C 43.800740,19.921046 21.914831,26.065078 21.324452,26.922830 z "
       id="path865"
       sodipodi:nodetypes="czzzz" />
    <path
       style="fill:#000000;fill-rule:evenodd;stroke:none;stroke-width:1.8750000;stroke-dasharray:none;fill-opacity:1.0000000;"
       d="M -5.4650888,56.105626 C -6.1122026,56.962898 -1.0066427,75.895563 0.076363497,76.354943 C 1.2489212,76.865392 22.580524,70.952184 23.138087,70.043844 C 23.644581,69.225054 18.609331,50.273148 17.596634,49.794527 C 16.494385,49.264837 -4.8882839,55.267597 -5.4650888,56.105626 z "
       id="path866"
       sodipodi:nodetypes="czzzz" />
    <path
       style="fill:#000000;fill-rule:evenodd;stroke:none;stroke-width:1.8750000;stroke-dasharray:none;fill-opacity:1.0000000;"
       d="M 17.706134,50.260191 C 17.076683,51.094062 22.042883,69.509946 23.096328,69.956787 C 24.236880,70.453303 44.986220,64.701501 45.528565,63.817955 C 46.021234,63.021515 41.123424,44.586915 40.138370,44.121358 C 39.066208,43.606127 18.267195,49.445036 17.706134,50.260191 z "
       id="path867"
       sodipodi:nodetypes="czzzz" />
  </g>
  <path
     style="fill:url(#linearGradient853);fill-rule:evenodd;stroke:#261933;stroke-width:1.8750000;stroke-dasharray:none;"
     d="M 7.3804098,14.830201 C 6.7762948,15.630510 11.542606,33.305157 12.553650,33.734012 C 13.648294,34.210543 33.562477,28.690251 34.082992,27.842267 C 34.555831,27.077884 29.855158,9.3852731 28.909752,8.9384550 C 27.880744,8.4439620 7.9188878,14.047855 7.3804098,14.830201 z "
     id="path852"
     sodipodi:nodetypes="czzzz" />
  <path
     style="fill:url(#linearGradient855);fill-rule:evenodd;stroke:none;stroke-opacity:1;stroke-width:1pt;stroke-linejoin:miter;stroke-linecap:butt;fill-opacity:1;"
     d="M 13.435311,31.799442 C 12.971477,31.479535 8.4268820,17.107281 9.3509055,15.843140 C 10.143652,14.614923 26.740671,10.637395 27.204506,10.957303 C 27.668339,11.277210 14.428775,14.288897 12.133909,17.762587 C 9.8390433,21.236276 13.899145,32.119351 13.435311,31.799442 z "
     id="path854"
     sodipodi:nodetypes="czzzz" />
  <path
     style="fill:url(#linearGradient853);fill-rule:evenodd;stroke:#261933;stroke-width:1.8750000;stroke-dasharray:none;"
     d="M 30.154263,8.5835793 C 29.550148,9.3838881 34.316460,27.058535 35.327503,27.487391 C 36.422148,27.963922 56.336329,22.443629 56.856844,21.595646 C 57.329684,20.831263 52.629010,3.1386519 51.683604,2.6918340 C 50.654598,2.1973409 30.692741,7.8012343 30.154263,8.5835793 z "
     id="path858"
     sodipodi:nodetypes="czzzz" />
  <path
     style="fill:url(#linearGradient855);fill-rule:evenodd;stroke:none;stroke-opacity:1;stroke-width:1pt;stroke-linejoin:miter;stroke-linecap:butt;fill-opacity:1;"
     d="M 36.209165,25.552819 C 35.745331,25.232913 31.200735,10.860659 32.124759,9.5965181 C 32.917506,8.3683011 49.514524,4.3907731 49.978358,4.7106809 C 50.442192,5.0305891 37.202627,8.0422759 34.907762,11.515966 C 32.612897,14.989655 36.672998,25.872728 36.209165,25.552819 z "
     id="path859"
     sodipodi:nodetypes="czzzz" />
  <path
     style="fill:url(#linearGradient853);fill-rule:evenodd;stroke:#261933;stroke-width:1.8750000;stroke-dasharray:none;"
     d="M 2.4271933,37.740579 C 1.8230781,38.540888 6.5893891,56.215535 7.6004328,56.644390 C 8.6950777,57.120922 28.609260,51.600629 29.129775,50.752645 C 29.602615,49.988262 24.901941,32.295652 23.956535,31.848834 C 22.927528,31.354340 2.9656711,36.958234 2.4271933,37.740579 z "
     id="path860"
     sodipodi:nodetypes="czzzz" />
  <path
     style="fill:url(#linearGradient855);fill-rule:evenodd;stroke:none;stroke-opacity:1;stroke-width:1pt;stroke-linejoin:miter;stroke-linecap:butt;fill-opacity:1;"
     d="M 8.4820939,54.709820 C 8.0182605,54.389913 3.4736652,40.017659 4.3976889,38.753519 C 5.1904361,37.525301 21.787455,33.547773 22.251289,33.867680 C 22.715122,34.187588 9.4755581,37.199276 7.1806923,40.672965 C 4.8858266,44.146655 8.9459279,55.029728 8.4820939,54.709820 z "
     id="path861"
     sodipodi:nodetypes="czzzz" />
  <path
     style="fill:url(#linearGradient853);fill-rule:evenodd;stroke:#261933;stroke-width:1.8750000;stroke-dasharray:none;"
     d="M 25.201047,31.493958 C 24.596931,32.294267 29.363242,49.968913 30.374286,50.397769 C 31.468931,50.874300 51.383113,45.354007 51.903628,44.506024 C 52.376467,43.741641 47.675794,26.049031 46.730388,25.602213 C 45.701380,25.107720 25.739525,30.711613 25.201047,31.493958 z "
     id="path862"
     sodipodi:nodetypes="czzzz" />
  <path
     style="fill:url(#linearGradient855);fill-rule:evenodd;stroke:none;stroke-opacity:1;stroke-width:1pt;stroke-linejoin:miter;stroke-linecap:butt;fill-opacity:1;"
     d="M 31.255947,48.463197 C 30.792114,48.143290 26.247518,33.771037 27.171542,32.506896 C 27.964289,31.278679 44.561307,27.301151 45.025142,27.621059 C 45.488975,27.940967 32.249411,30.952654 29.954544,34.426344 C 27.659680,37.900033 31.719781,48.783106 31.255947,48.463197 z "
     id="path863"
     sodipodi:nodetypes="czzzz" />
</svg>
