<?xml version="1.0" encoding="UTF-8" standalone="no"?>
<!DOCTYPE svg PUBLIC "-//W3C//DTD SVG 20010904//EN"
"http://www.w3.org/TR/2001/REC-SVG-20010904/DTD/svg10.dtd">
<!-- Created with Inkscape (http://www.inkscape.org/) -->
<svg
   id="svg1"
   sodipodi:version="0.32"
   inkscape:version="0.38.1"
   width="48pt"
   height="48pt"
   sodipodi:docbase="/home/scaba/files/lila-artwork/devel"
   sodipodi:docname="gucharmap.svg"
   xmlns="http://www.w3.org/2000/svg"
   xmlns:inkscape="http://www.inkscape.org/namespaces/inkscape"
   xmlns:sodipodi="http://sodipodi.sourceforge.net/DTD/sodipodi-0.dtd"
   xmlns:xlink="http://www.w3.org/1999/xlink">
  <defs
     id="defs3">
    <linearGradient
       id="linearGradient866">
      <stop
         style="stop-color:#d9cce6;stop-opacity:1;"
         offset="0.00000000"
         id="stop867" />
      <stop
         style="stop-color:#73667f;stop-opacity:1;"
         offset="1.00000000"
         id="stop868" />
    </linearGradient>
    <linearGradient
       id="linearGradient584">
      <stop
         style="stop-color:#ffffff;stop-opacity:1;"
         offset="0.00000000"
         id="stop585" />
      <stop
         style="stop-color:#ffffff;stop-opacity:0;"
         offset="1.00000000"
         id="stop586" />
    </linearGradient>
    <linearGradient
       xlink:href="#linearGradient584"
       id="linearGradient586"
       x1="-0.00000000"
       y1="0.01562500"
       x2="0.99122804"
       y2="0.98437500" />
    <linearGradient
       xlink:href="#linearGradient584"
       id="linearGradient587"
       x1="0.00000000"
       y1="-0.00000000"
       x2="1.00000000"
       y2="1.00000000" />
    <linearGradient
       xlink:href="#linearGradient584"
       id="linearGradient753"
       x1="0.00000000"
       y1="0.00000000"
       x2="0.97222191"
       y2="1.00781238" />
    <linearGradient
       xlink:href="#linearGradient866"
       id="linearGradient754"
       x1="0.00000000"
       y1="-0.00000000"
       x2="0.98905110"
       y2="0.98214281" />
    <linearGradient
       xlink:href="#linearGradient866"
       id="linearGradient755"
       x1="0.00000000"
       y1="-0.00000000"
       x2="0.98958331"
       y2="0.98437494" />
  </defs>
  <sodipodi:namedview
     id="base"
     pagecolor="#ffffff"
     bordercolor="#666666"
     borderopacity="1.0"
     inkscape:pageopacity="0.0"
     inkscape:pageshadow="2"
     inkscape:zoom="3.9897360"
     inkscape:cx="24.619295"
     inkscape:cy="28.334846"
     inkscape:window-width="640"
     inkscape:window-height="516"
     inkscape:window-x="137"
     inkscape:window-y="73" />
  <path
     style="font-size:12;fill:#000000;fill-rule:evenodd;stroke:none;stroke-width:1.875;stroke-dasharray:none;fill-opacity:1;opacity:0.296369;"
     d="M 8.8183032 19.524222 C 7.7309527 18.471408 1.3891133 38.957132 3.0555246 41.077538 C 4.4400673 43.054783 27.606914 56.553048 30.610284 56.310012 C 33.999157 56.27876 57.842044 42.413087 59.034844 39.99981 C 60.570604 37.093489 51.559307 13.643551 50.130206 15.739253 C 46.621771 21.185967 33.80923 26.444577 30.839328 26.636727 C 27.636956 26.830777 12.583607 22.970676 8.8183032 19.524222 z "
     id="path756"
     sodipodi:nodetypes="cssssss" />
  <path
     style="font-size:12;fill:url(#linearGradient754);fill-rule:evenodd;stroke:#261933;stroke-width:1.875;stroke-dasharray:none;"
     d="M 8.1283666 19.655817 C 7.7418656 21.941113 26.982611 29.521973 29.897315 29.323049 C 33.402658 29.097247 48.626983 19.912685 49.224038 17.122037 C 50.10572 14.029437 32.623553 8.0781796 29.271411 8.1001686 C 26.576981 8.1191046 8.3902458 16.762346 8.1283666 19.655817 z "
     id="path554"
     sodipodi:nodetypes="cssss" />
  <path
     style="font-size:12;fill:url(#linearGradient755);fill-rule:evenodd;stroke:#261933;stroke-width:1.875;stroke-dasharray:none;"
     d="M 8.4343507 20.239682 C 7.3858585 19.224491 1.2706575 35.952382 2.8775163 37.997012 C 4.2125797 39.903596 26.329974 53.01448 29.226013 52.780129 C 32.493778 52.749994 55.706134 39.284833 56.856306 36.957798 C 58.337182 34.155339 50.296279 14.893346 48.918249 16.914154 C 45.535194 22.166219 32.868371 28.761785 30.004604 28.947069 C 26.916675 29.134184 12.065094 23.562969 8.4343507 20.239682 z "
     id="path555"
     sodipodi:nodetypes="cssssss" />
  <path
     style="font-size:12;opacity:0.990000;fill:url(#linearGradient587);fill-rule:evenodd;stroke:none;stroke-width:1pt;"
     d="M 5.1350523 36.482957 C 4.5902259 35.324095 6.9214546 25.430986 8.3343825 24.395088 C 9.6176546 23.286963 16.942124 26.741342 17.13402 27.344067 C 17.294192 27.8473 11.499032 26.5996 9.5664495 27.712779 C 7.9792107 28.627157 5.331776 36.967954 5.1350523 36.482957 z "
     id="path583"
     sodipodi:nodetypes="cssss" />
  <path
     style="font-size:12;opacity:0.990000;fill-rule:evenodd;stroke:none;stroke-width:1pt;fill:url(#linearGradient753);"
     d="M 29.200189 49.64703 C 28.907775 49.953267 28.903096 34.02003 29.933956 31.686416 C 30.560506 30.570709 40.568067 27.27082 40.237267 27.549484 C 38.991604 28.470001 32.858594 32.559965 31.976527 33.46694 C 30.065669 35.616019 29.55312 49.277415 29.200189 49.64703 z "
     id="path584"
     sodipodi:nodetypes="cssss" />
  <path
     style="font-size:12;opacity:0.990000;fill:url(#linearGradient586);fill-rule:evenodd;stroke:none;stroke-width:1pt;"
     d="M 16.863253 21.901802 C 16.088254 21.901802 10.247127 19.490516 10.837859 18.930703 C 13.517535 16.559369 27.922904 9.8226526 28.502388 9.8226526 C 28.978765 9.8226526 14.032773 17.236651 13.837516 18.930703 C 13.932373 20.238514 17.144113 21.901802 16.863253 21.901802 z "
     id="path585"
     sodipodi:nodetypes="cssss" />
  <path
     style="font-size:12;opacity:0.99;fill:#261933;fill-rule:evenodd;stroke-width:1pt;fill-opacity:1;"
     d="M 16.226720,19.625656 C 16.698723,18.520926 34.532614,12.169236 36.177123,13.064484 C 37.343149,13.726809 32.290613,24.958827 31.383630,25.365114 C 30.562413,25.795656 27.813747,24.646206 27.618520,24.007845 C 27.363688,23.062175 29.632465,21.161972 27.570085,19.917036 C 24.432853,18.743595 21.865150,21.849386 20.705352,21.864524 C 19.462277,21.875735 15.801294,20.481491 16.226720,19.625656 z M 29.259435,18.368558 C 32.106895,20.325491 33.154995,15.187455 33.154995,15.187455 C 33.154995,15.187455 26.242001,16.546086 29.259435,18.368558 z "
     id="path616"
     sodipodi:nodetypes="cccccccccc" />
</svg>
