<?xml version="1.0" encoding="UTF-8" standalone="no"?>
<!DOCTYPE svg PUBLIC "-//W3C//DTD SVG 20010904//EN"
"http://www.w3.org/TR/2001/REC-SVG-20010904/DTD/svg10.dtd">
<!-- Created with Inkscape (http://www.inkscape.org/) -->
<svg
   version="1.0"
   x="0"
   y="0"
   width="60"
   height="60"
   id="svg568"
   xmlns="http://www.w3.org/2000/svg"
   xmlns:xlink="http://www.w3.org/1999/xlink"
   xmlns:sodipodi="http://sodipodi.sourceforge.net/DTD/sodipodi-0.dtd"
   xmlns:inkscape="http://www.inkscape.org/namespaces/inkscape"
   sodipodi:version="0.32"
   inkscape:version="0.37"
   sodipodi:docname="gvim.svg"
   sodipodi:docbase="/home/dan/Projects/Lila-icons/scalable/apps">
  <sodipodi:namedview
     id="base"
     pagecolor="#ffffff"
     bordercolor="#666666"
     borderopacity="1.0"
     inkscape:pageopacity="0.0"
     inkscape:pageshadow="2"
     inkscape:zoom="6.94653375"
     inkscape:cx="19.2176293"
     inkscape:cy="24.9916817"
     inkscape:window-width="640"
     inkscape:window-height="500"
     inkscape:window-x="0"
     inkscape:window-y="25" />
  <defs
     id="defs570">
    <linearGradient
       id="linearGradient589">
      <stop
         style="stop-color:#ffffff;stop-opacity:1;"
         offset="0.00000000"
         id="stop590" />
      <stop
         style="stop-color:#ffffff;stop-opacity:0;"
         offset="1.00000000"
         id="stop591" />
    </linearGradient>
    <linearGradient
       id="linearGradient595">
      <stop
         style="stop-color:#ffffff;stop-opacity:1;"
         offset="0"
         id="stop596" />
      <stop
         style="stop-color:#d9cce6;stop-opacity:1;"
         offset="1"
         id="stop597" />
    </linearGradient>
    <linearGradient
       id="linearGradient553">
      <stop
         style="stop-color:#73667f;stop-opacity:1;"
         offset="0"
         id="stop554" />
      <stop
         style="stop-color:#d9cce6;stop-opacity:1;"
         offset="1"
         id="stop555" />
    </linearGradient>
    <linearGradient
       x1="1.10033011"
       y1="0.52573299"
       x2="-0.05333394"
       y2="0.53661740"
       id="linearGradient556"
       xlink:href="#linearGradient553" />
    <linearGradient
       x1="0.01333333"
       y1="0.01562500"
       x2="0.75333333"
       y2="0.77343750"
       id="linearGradient594"
       xlink:href="#linearGradient595" />
    <linearGradient
       xlink:href="#linearGradient589"
       id="linearGradient588"
       x1="-0.00000000"
       y1="-0.00000000"
       x2="1.00000000"
       y2="0.98437500" />
    <linearGradient
       xlink:href="#linearGradient589"
       id="linearGradient596"
       x1="-0.00000000"
       y1="0.00000000"
       x2="0.98484850"
       y2="1.00781250" />
    <linearGradient
       xlink:href="#linearGradient589"
       id="linearGradient598"
       x1="0.00000000"
       y1="-0.00000000"
       x2="0.97445256"
       y2="0.82758623" />
    <linearGradient
       xlink:href="#linearGradient589"
       id="linearGradient601"
       x1="0.00000000"
       y1="0.00000000"
       x2="0.87500000"
       y2="0.97656250" />
  </defs>
  <g
     transform="matrix(0.939522,0.000000,0.000000,0.939522,-1.193614,-1.260273)"
     style="font-size:12;opacity:0.3;"
     id="g603">
    <rect
       width="35.3300858"
       height="35.3262215"
       x="29.1949253"
       y="-14.9045229"
       transform="matrix(0.718512,0.695515,-0.715932,0.698170,0.000000,0.000000)"
       style="fill-rule:evenodd;stroke:#000000;stroke-width:1.87539;"
       id="rect601" />
    <path
       d="M 29.327804 13.658935 C 31.833018 16.050275 31.163996 22.90454 29.249258 23.028141 C 26.094784 23.336916 23.743853 22.362356 23.428415 23.974038 L 23.480778 46.586633 L 46.212652 23.869307 C 46.865971 22.314007 40.256903 23.619418 39.340349 22.778367 C 37.696958 21.36684 37.943203 13.733847 40.943723 13.698416 L 60.96965 13.461942 C 62.424066 13.444768 62.583424 22.105598 60.83832 23.816525 L 25.124048 58.831345 C 23.784165 60.263905 17.397279 61.275883 13.428749 58.818045 L 13.520595 24.079183 C 13.292849 22.314145 10.645758 23.53122 8.3435118 22.817848 C 6.6032524 22.278613 5.9043779 16.11594 9.2636429 13.724599 C 15.185059 13.610726 23.406388 13.772808 29.327804 13.658935 z "
       style="fill-rule:evenodd;stroke:#000000;stroke-width:1.875;"
       id="path602" />
  </g>
  <rect
     width="33.1934166"
     height="33.1897736"
     x="22.7641716"
     y="-14.5223055"
     transform="matrix(0.718512,0.695515,-0.715932,0.698170,0.000000,0.000000)"
     style="font-size:12;fill:url(#linearGradient556);fill-opacity:0.75;fill-rule:evenodd;stroke:#261933;stroke-width:1.87539;stroke-dasharray:none;"
     id="rect591" />
  <path
     style="fill:url(#linearGradient588);fill-rule:evenodd;stroke:none;stroke-opacity:1;stroke-width:1pt;stroke-linejoin:miter;stroke-linecap:butt;fill-opacity:1;"
     d="M 5.9803241 28.82597 C 6.0255431 27.898982 20.849156 12.922348 26.593356 8.7219016 C 27.635339 7.9599515 27.931173 13.51925 26.338874 13.93878 C 19.88323 15.800443 5.9407157 29.637941 5.9803241 28.82597 z "
     id="path587"
     sodipodi:nodetypes="csss" />
  <path
     d="M 23.70431 9.2257425 C 26.058015 11.47246 25.212062 17.839732 23.413122 17.955858 C 20.449424 18.245959 19.327628 17.402802 19.031267 18.917013 L 19.080463 40.162052 L 40.582496 18.818616 C 41.196304 17.357377 36.79853 18.656304 35.937407 17.866117 C 34.393405 16.539956 33.755192 11.180181 36.067001 9.1903717 L 54.302098 9.113127 C 55.668554 9.0969916 55.80805 17.15121 54.17871 18.769026 L 20.729498 51.981671 C 19.470648 53.327593 13.36488 53.962931 9.6363572 51.653738 L 9.7226486 19.015799 C 9.5086764 17.357506 7.528921 18.57344 5.3659093 17.903211 C 4.0932155 17.179195 2.567042 11.534154 5.7231467 9.2874355 C 11.28645 9.1804495 18.141007 9.3327285 23.70431 9.2257425 z "
     style="font-size:12;fill:url(#linearGradient594);fill-rule:evenodd;stroke:#261933;stroke-width:1.875;stroke-dasharray:none;"
     id="path592" />
  <path
     style="fill:url(#linearGradient596);fill-rule:evenodd;stroke:none;stroke-opacity:1;stroke-width:1pt;stroke-linejoin:miter;stroke-linecap:butt;fill-opacity:1;"
     d="M 19.794045 41.825468 C 20.68903 40.586258 37.05488 24.486954 41.567494 20.591856 C 42.753166 19.568434 38.785871 25.21997 36.888902 27.069907 C 31.528055 32.29784 19.129499 42.745609 19.794045 41.825468 z "
     id="path593"
     sodipodi:nodetypes="csss" />
  <path
     style="fill:url(#linearGradient598);fill-rule:evenodd;stroke:none;stroke-opacity:1;stroke-width:1pt;stroke-linejoin:miter;stroke-linecap:butt;fill-opacity:1;"
     d="M 5.5783217 13.933859 C 5.5042406 13.637535 5.3830451 11.042049 6.2981052 10.87478 C 10.961367 10.022356 22.25275 10.632631 22.313287 10.87478 C 22.372714 11.112486 11.621769 11.406991 6.6579969 12.314347 C 6.0434472 12.426684 5.6242045 14.11739 5.5783217 13.933859 z "
     id="path597"
     sodipodi:nodetypes="cssss" />
  <path
     style="fill:url(#linearGradient598);fill-rule:evenodd;stroke:none;stroke-opacity:1;stroke-width:1pt;stroke-linejoin:miter;stroke-linecap:butt;fill-opacity:1;"
     d="M 36.349064 14.113805 C 36.274983 13.817481 36.153787 11.221995 37.068848 11.054726 C 41.732109 10.202302 53.023492 10.812577 53.084029 11.054726 C 53.143456 11.292432 42.392511 11.586937 37.428739 12.494293 C 36.81419 12.60663 36.394947 14.297336 36.349064 14.113805 z "
     id="path599"
     sodipodi:nodetypes="cssss" />
  <path
     style="fill:url(#linearGradient601);fill-rule:evenodd;stroke:none;stroke-opacity:1;stroke-width:1pt;stroke-linejoin:miter;stroke-linecap:butt;fill-opacity:1;"
     d="M 11.156643 49.203248 C 10.912466 47.528892 11.096532 24.30582 11.516535 18.612452 C 11.63637 16.988021 12.810218 24.354558 12.776156 27.249853 C 12.690254 34.55149 11.33234 50.408026 11.156643 49.203248 z "
     id="path600"
     sodipodi:nodetypes="csss" />
</svg>
