<?xml version="1.0" encoding="UTF-8" standalone="no"?>
<!DOCTYPE svg PUBLIC "-//W3C//DTD SVG 20010904//EN"
"http://www.w3.org/TR/2001/REC-SVG-20010904/DTD/svg10.dtd">
<!-- Created with Inkscape (http://www.inkscape.org/) -->
<svg
   version="1.0"
   x="0"
   y="0"
   width="48pt"
   height="48pt"
   id="svg611"
   sodipodi:version="0.32"
   inkscape:version="0.38.1"
   sodipodi:docname="gxine-logo.svg"
   sodipodi:docbase="/home/ed/Desktop/Lila"
   xmlns="http://www.w3.org/2000/svg"
   xmlns:inkscape="http://www.inkscape.org/namespaces/inkscape"
   xmlns:sodipodi="http://sodipodi.sourceforge.net/DTD/sodipodi-0.dtd"
   xmlns:xlink="http://www.w3.org/1999/xlink">
  <sodipodi:namedview
     id="base"
     pagecolor="#ffffff"
     bordercolor="#666666"
     borderopacity="1.0"
     inkscape:pageopacity="0.0"
     inkscape:pageshadow="2"
     inkscape:zoom="13.468930"
     inkscape:cx="22.016720"
     inkscape:cy="24.031300"
     inkscape:window-width="1001"
     inkscape:window-height="768"
     inkscape:window-x="80"
     inkscape:window-y="84"
     showguides="true"
     snaptoguides="true" />
  <defs
     id="defs613">
    <linearGradient
       id="linearGradient1535">
      <stop
         style="stop-color:#ffffff;stop-opacity:1;"
         offset="0"
         id="stop1537" />
      <stop
         style="stop-color:#ffffff;stop-opacity:0;"
         offset="1"
         id="stop1536" />
    </linearGradient>
    <linearGradient
       id="linearGradient1528">
      <stop
         style="stop-color:#d9cce6;stop-opacity:1.0000000;"
         offset="0.0000000"
         id="stop1530" />
      <stop
         style="stop-color:#73667f;stop-opacity:1.0000000;"
         offset="1.0000000"
         id="stop1529" />
    </linearGradient>
    <linearGradient
       id="linearGradient642">
      <stop
         style="stop-color:#ffffff;stop-opacity:1;"
         offset="0"
         id="stop643" />
      <stop
         style="stop-color:#ffffff;stop-opacity:0;"
         offset="1"
         id="stop644" />
    </linearGradient>
    <linearGradient
       id="linearGradient635">
      <stop
         style="stop-color:#ffffff;stop-opacity:1.0000000;"
         offset="0.0000000"
         id="stop636" />
      <stop
         style="stop-color:#d9cce6;stop-opacity:1.0000000;"
         offset="1.0000000"
         id="stop637" />
    </linearGradient>
    <linearGradient
       id="linearGradient638"
       xlink:href="#linearGradient1528"
       x1="0.0047619049"
       y1="0.023437500"
       x2="0.99047619"
       y2="0.97656250" />
    <linearGradient
       id="linearGradient641"
       xlink:href="#linearGradient1535"
       x1="0.010204081"
       y1="0.034482758"
       x2="0.99319726"
       y2="0.98275864" />
    <linearGradient
       id="linearGradient1522"
       xlink:href="#linearGradient642"
       x1="0.020547945"
       y1="0.046875000"
       x2="0.95890409"
       y2="0.96093750" />
    <linearGradient
       id="linearGradient1527"
       xlink:href="#linearGradient1535"
       x1="0.0034013605"
       y1="0.029411765"
       x2="0.97959185"
       y2="0.93137252" />
    <linearGradient
       x1="0.010743"
       y1="0.031251"
       x2="0.967741"
       y2="0.992187"
       id="linearGradient1532"
       xlink:href="#linearGradient635" />
    <linearGradient
       x1="0.007275"
       y1="-0.012819"
       x2="0.996364"
       y2="0.974359"
       id="linearGradient1534"
       xlink:href="#linearGradient635" />
    <linearGradient
       id="linearGradient1539"
       xlink:href="#linearGradient1528"
       x1="0.019607844"
       y1="0.0078125000"
       x2="0.96078432"
       y2="0.98437500" />
    <linearGradient
       id="linearGradient1567"
       xlink:href="#linearGradient1528"
       x1="0.021276595"
       y1="0.015625000"
       x2="0.96808511"
       y2="0.99218750" />
    <linearGradient
       xlink:href="#linearGradient1535"
       id="linearGradient896"
       x1="0.011904762"
       y1="3.7947076e-17"
       x2="0.98809522"
       y2="0.99218750" />
    <linearGradient
       xlink:href="#linearGradient1535"
       id="linearGradient899"
       x1="0.10000000"
       y1="-0.0078125000"
       x2="0.69999999"
       y2="0.98437500" />
    <linearGradient
       xlink:href="#linearGradient1535"
       id="linearGradient901"
       x1="-1.0690233e-16"
       y1="4.0657581e-18"
       x2="0.98333335"
       y2="0.97656250" />
    <linearGradient
       xlink:href="#linearGradient1535"
       id="linearGradient905"
       x1="0.0048523550"
       y1="-0.097928792"
       x2="0.99029034"
       y2="1.0497539" />
    <linearGradient
       xlink:href="#linearGradient1535"
       id="linearGradient939"
       x1="0.0041322312"
       y1="0.023437500"
       x2="0.98347110"
       y2="0.97656250" />
    <linearGradient
       xlink:href="#linearGradient1535"
       id="linearGradient948" />
    <radialGradient
       xlink:href="#linearGradient1535"
       id="radialGradient921" />
  </defs>
  <path
     style="fill:#000000;fill-rule:evenodd;stroke-width:1.8750000;stroke-linejoin:round;stroke:none;stroke-opacity:1.0000000;fill-opacity:0.29838711;"
     d="M 7.0281817,15.969293 C 6.1803608,15.961001 5.4221227,16.495528 5.1450355,17.296834 C 4.8679482,18.098140 5.1340314,18.986871 5.8058748,19.504071 L 22.455677,32.652129 L 5.8389101,45.767152 C 5.1670667,46.284352 4.9009835,47.173084 5.1780708,47.974389 C 5.4551580,48.775696 6.2133961,49.310224 7.0612170,49.301931 L 20.506593,49.301931 C 20.950765,49.300510 21.381451,49.149187 21.728900,48.872472 L 32.366273,40.481501 L 42.970611,48.872472 C 43.318059,49.149187 43.748746,49.300510 44.192918,49.301931 L 57.671330,49.301931 C 58.519150,49.310224 59.277388,48.775696 59.554476,47.974389 C 59.831563,47.173084 59.565480,46.284352 58.893636,45.767152 L 42.276870,32.652129 L 58.926672,19.504071 C 59.598515,18.986871 59.864598,18.098140 59.587511,17.296834 C 59.310424,16.495528 58.552185,15.961001 57.704365,15.969293 L 44.225954,15.969293 C 43.781781,15.970715 43.351095,16.122038 43.003647,16.398752 L 32.366273,24.822758 L 21.695864,16.398752 C 21.348416,16.122038 20.917730,15.970715 20.473557,15.969293 L 7.0281817,15.969293 z "
     id="path910" />
  <path
     style="fill:url(#linearGradient638);fill-rule:evenodd;stroke:#261933;stroke-width:1.8750000;stroke-linejoin:round;stroke-dasharray:none;"
     d="M 4.3924123,12.778540 C 3.5445914,12.770248 2.7863533,13.304775 2.5092661,14.106081 C 2.2321788,14.907387 2.4982620,15.796118 3.1701054,16.313318 L 19.819907,29.461376 L 3.2031407,42.576399 C 2.5312973,43.093599 2.2652141,43.982330 2.5423014,44.783636 C 2.8193886,45.584943 3.5776267,46.119470 4.4254476,46.111178 L 17.870823,46.111178 C 18.314996,46.109756 18.745682,45.958433 19.093130,45.681719 L 29.730504,37.290747 L 40.334842,45.681719 C 40.682290,45.958433 41.112977,46.109756 41.557149,46.111178 L 55.035560,46.111178 C 55.883381,46.119470 56.641619,45.584943 56.918707,44.783636 C 57.195793,43.982330 56.929710,43.093599 56.257867,42.576399 L 39.641100,29.461376 L 56.290902,16.313318 C 56.962746,15.796118 57.228829,14.907387 56.951742,14.106081 C 56.674654,13.304775 55.916416,12.770248 55.068595,12.778540 L 41.590184,12.778540 C 41.146012,12.779962 40.715325,12.931284 40.367877,13.207999 L 29.730504,21.632005 L 19.060095,13.207999 C 18.712647,12.931284 18.281960,12.779962 17.837788,12.778540 L 4.3924123,12.778540 z "
     id="path909" />
  <path
     style="fill:url(#linearGradient641);fill-rule:evenodd;stroke:none;stroke-opacity:1.0000000;stroke-width:0.12500000;stroke-linejoin:miter;stroke-linecap:butt;stroke-dasharray:none;fill-opacity:1.0000000;"
     d="M 7.5173008,18.237218 C 3.2482164,15.081807 1.9489298,13.968133 5.9395957,13.875327 C 9.9302616,13.782521 13.920927,13.968133 15.684245,13.968133 C 17.447562,13.968133 17.818787,13.782521 19.118074,14.803389 C 20.417360,15.824257 4.8259215,12.668847 7.5173008,18.237218 z "
     id="path912"
     sodipodi:nodetypes="ccccc" />
  <path
     style="fill:url(#linearGradient1522);fill-rule:evenodd;stroke:none;stroke-opacity:1.0000000;stroke-width:0.12500000;stroke-linejoin:miter;stroke-linecap:butt;stroke-dasharray:none;fill-opacity:1.0000000;"
     d="M 20.695779,30.023603 C 13.642509,35.499168 5.6611771,42.088407 4.3618906,42.923662 C 3.0626040,43.758918 3.1554102,45.615041 5.4755648,45.058204 C 3.1554102,44.037336 14.848989,36.520036 20.695779,30.023603 z "
     id="path913"
     sodipodi:nodetypes="cccc" />
  <path
     style="fill:url(#linearGradient1527);fill-rule:evenodd;stroke:none;stroke-opacity:1.0000000;stroke-width:0.12500000;stroke-linejoin:miter;stroke-linecap:butt;stroke-dasharray:none;fill-opacity:1.0000000;"
     d="M 30.254816,22.506302 C 35.080737,18.608442 40.092271,14.896195 40.834720,14.153746 C 41.391558,13.596908 42.134007,13.504102 43.526100,13.596908 C 44.918193,13.689715 53.456361,13.875327 55.126873,13.875327 C 56.797384,13.875327 56.240547,14.989001 55.405291,15.731451 C 54.291617,14.432164 43.062068,14.432165 41.113139,15.360226 C 39.164209,16.288288 33.781451,20.650179 30.254816,22.506302 z "
     id="path914"
     sodipodi:nodetypes="ccccccc" />
</svg>
