<?xml version="1.0" encoding="UTF-8" standalone="no"?>
<!DOCTYPE svg PUBLIC "-//W3C//DTD SVG 20010904//EN"
"http://www.w3.org/TR/2001/REC-SVG-20010904/DTD/svg10.dtd">
<!-- Created with Inkscape (http://www.inkscape.org/) -->
<svg
   id="svg1"
   sodipodi:version="0.32"
   inkscape:version="0.39"
   width="48.000000pt"
   height="48.000000pt"
   sodipodi:docbase="/home/stefan/new-lila-icons/makzu"
   sodipodi:docname="iagno.svg"
   xmlns="http://www.w3.org/2000/svg"
   xmlns:cc="http://web.resource.org/cc/"
   xmlns:inkscape="http://www.inkscape.org/namespaces/inkscape"
   xmlns:sodipodi="http://sodipodi.sourceforge.net/DTD/sodipodi-0.dtd"
   xmlns:rdf="http://www.w3.org/1999/02/22-rdf-syntax-ns#"
   xmlns:dc="http://purl.org/dc/elements/1.1/"
   xmlns:xlink="http://www.w3.org/1999/xlink">
  <defs
     id="defs3">
    <linearGradient
       id="linearGradient4672">
      <stop
         style="stop-color:#ffffff;stop-opacity:1.0000000;"
         offset="0.0000000"
         id="stop4673" />
      <stop
         style="stop-color:#ffffff;stop-opacity:0.0000000;"
         offset="1.0000000"
         id="stop4674" />
    </linearGradient>
    <linearGradient
       id="linearGradient1561">
      <stop
         style="stop-color:#ffffff;stop-opacity:1.0000000;"
         offset="0.0000000"
         id="stop1562" />
      <stop
         style="stop-color:#d9cce6;stop-opacity:1.0000000;"
         offset="1.0000000"
         id="stop1563" />
    </linearGradient>
    <linearGradient
       id="linearGradient1556">
      <stop
         style="stop-color:#d9cce6;stop-opacity:1.0000000;"
         offset="0.0000000"
         id="stop1557" />
      <stop
         style="stop-color:#73667f;stop-opacity:1.0000000;"
         offset="1.0000000"
         id="stop1558" />
    </linearGradient>
    <linearGradient
       id="linearGradient1548">
      <stop
         style="stop-color:#000;stop-opacity:1;"
         offset="0"
         id="stop1549" />
      <stop
         style="stop-color:#fff;stop-opacity:1;"
         offset="1"
         id="stop1550" />
    </linearGradient>
    <linearGradient
       inkscape:collect="always"
       xlink:href="#linearGradient1556"
       id="linearGradient1555"
       x1="0.0078125000"
       y1="0.0078125000"
       x2="0.97656250"
       y2="0.99218750" />
    <linearGradient
       inkscape:collect="always"
       xlink:href="#linearGradient1556"
       id="linearGradient1559"
       x1="0.039062500"
       y1="0.039062500"
       x2="0.99218750"
       y2="1.0078125" />
    <linearGradient
       inkscape:collect="always"
       xlink:href="#linearGradient1556"
       id="linearGradient1560"
       x1="0.015625000"
       y1="0.054687500"
       x2="1.0078125"
       y2="1.0078125" />
    <linearGradient
       inkscape:collect="always"
       xlink:href="#linearGradient1556"
       id="linearGradient1564"
       x1="-7.4359328e-17"
       y1="0.023437500"
       x2="0.98437500"
       y2="0.99218750" />
    <linearGradient
       inkscape:collect="always"
       xlink:href="#linearGradient4672"
       id="linearGradient4671"
       x1="-4.0982842e-17"
       y1="0.015625000"
       x2="0.95312500"
       y2="1.0078125" />
    <linearGradient
       inkscape:collect="always"
       xlink:href="#linearGradient1561"
       id="linearGradient7196"
       x1="-1.1024981e-16"
       y1="0.023437500"
       x2="0.98437500"
       y2="0.99218750" />
    <linearGradient
       inkscape:collect="always"
       xlink:href="#linearGradient1561"
       id="linearGradient7197"
       x1="-1.4137996e-16"
       y1="0.023437500"
       x2="0.98437500"
       y2="0.99218750" />
    <linearGradient
       inkscape:collect="always"
       xlink:href="#linearGradient1556"
       id="linearGradient7819"
       x1="0.0078125000"
       y1="0.039062500"
       x2="0.97656250"
       y2="0.98437500" />
    <linearGradient
       inkscape:collect="always"
       xlink:href="#linearGradient1556"
       id="linearGradient7820"
       x1="0.015625000"
       y1="0.031250000"
       x2="0.95312500"
       y2="0.99218750" />
  </defs>
  <sodipodi:namedview
     id="base"
     pagecolor="#ffffff"
     bordercolor="#666666"
     borderopacity="1.0"
     inkscape:pageopacity="0.0"
     inkscape:pageshadow="2"
     inkscape:zoom="9.7708333"
     inkscape:cx="24.000000"
     inkscape:cy="24.000000"
     inkscape:window-width="778"
     inkscape:window-height="635"
     inkscape:window-x="257"
     inkscape:window-y="81" />
  <metadata
     id="metadata4">
    <rdf:RDF
       id="RDF5">
      <cc:Work
         rdf:about=""
         id="Work6">
        <dc:format
           id="format7">image/svg+xml</dc:format>
        <dc:type
           id="type9"
           rdf:resource="http://purl.org/dc/dcmitype/StillImage" />
      </cc:Work>
    </rdf:RDF>
  </metadata>
  <path
     style="opacity:0.29999998;fill:#000000;fill-opacity:1.0000000;fill-rule:evenodd;stroke:none;stroke-width:1.8750000;stroke-linecap:butt;stroke-linejoin:miter;stroke-miterlimit:4.0000000;stroke-opacity:1.0000000;"
     d="M 17.805304,6.7150187 C 11.053568,6.7150187 5.5865538,12.213283 5.5865538,18.965019 C 5.5865538,25.716754 11.053568,31.183769 17.805304,31.183769 C 24.557040,31.183769 30.024054,25.716754 30.024054,18.965019 C 30.024054,12.213283 24.557040,6.7150187 17.805304,6.7150187 z M 45.899054,6.7150187 C 39.147318,6.7150187 33.680304,12.213283 33.680304,18.965019 C 33.680304,25.716754 39.147318,31.183769 45.899054,31.183769 C 52.650790,31.183769 58.149055,25.716754 58.149054,18.965019 C 58.149054,12.213283 52.650790,6.7150187 45.899054,6.7150187 z M 17.805304,34.840019 C 11.053568,34.840019 5.5865538,40.307035 5.5865538,47.058769 C 5.5865538,53.810504 11.053568,59.277519 17.805304,59.277519 C 24.557040,59.277519 30.024054,53.810506 30.024054,47.058769 C 30.024054,40.307033 24.557040,34.840019 17.805304,34.840019 z M 45.899054,34.840019 C 39.147318,34.840019 33.680304,40.307035 33.680304,47.058769 C 33.680304,53.810504 39.147318,59.277519 45.899054,59.277519 C 52.650790,59.277519 58.149055,53.810506 58.149054,47.058769 C 58.149054,40.307033 52.650790,34.840019 45.899054,34.840019 z "
     id="path4678"
     transform="matrix(1.036676,0.000000,0.000000,1.036676,-1.038300,-1.451875)" />
  <path
     style="fill:url(#linearGradient7819);fill-opacity:1.00000000;fill-rule:evenodd;stroke:#261933;stroke-width:1.8086654;stroke-linecap:round;stroke-linejoin:round;stroke-miterlimit:4.0000000;stroke-opacity:1.0000000;stroke-dasharray:none;"
     d="M 32.396694,17.024794 C 32.396694,23.776529 26.917025,29.256199 20.165289,29.256199 C 13.413553,29.256199 7.9338837,23.776529 7.9338837,17.024794 C 7.9338837,10.273058 13.413553,4.7933884 20.165289,4.7933884 C 26.917025,4.7933884 32.396694,10.273058 32.396694,17.024794 z "
     id="path919"
     transform="matrix(1.036676,0.000000,0.000000,1.036676,-6.521547,-4.022146)" />
  <path
     transform="matrix(1.036676,0.000000,0.000000,1.036676,22.60820,-4.022146)"
     style="fill:url(#linearGradient1560);fill-opacity:1.00000000;fill-rule:evenodd;stroke:#261933;stroke-width:1.8086654;stroke-linecap:round;stroke-linejoin:round;stroke-miterlimit:4.0000000;stroke-opacity:1.0000000;stroke-dasharray:none;"
     d="M 32.396694,17.024794 C 32.396694,23.776529 26.917025,29.256199 20.165289,29.256199 C 13.413553,29.256199 7.9338837,23.776529 7.9338837,17.024794 C 7.9338837,10.273058 13.413553,4.7933884 20.165289,4.7933884 C 26.917025,4.7933884 32.396694,10.273058 32.396694,17.024794 z "
     id="path920" />
  <path
     transform="matrix(1.036676,0.000000,0.000000,1.036676,-6.521547,25.10761)"
     style="fill:url(#linearGradient1564);fill-opacity:1.00000000;fill-rule:evenodd;stroke:#261933;stroke-width:1.8086654;stroke-linecap:round;stroke-linejoin:round;stroke-miterlimit:4.0000000;stroke-opacity:1.0000000;stroke-dasharray:none;"
     d="M 32.396694,17.024794 C 32.396694,23.776529 26.917025,29.256199 20.165289,29.256199 C 13.413553,29.256199 7.9338837,23.776529 7.9338837,17.024794 C 7.9338837,10.273058 13.413553,4.7933884 20.165289,4.7933884 C 26.917025,4.7933884 32.396694,10.273058 32.396694,17.024794 z "
     id="path921" />
  <path
     transform="matrix(1.036676,0.000000,0.000000,1.036676,22.60820,25.10761)"
     style="fill:url(#linearGradient1559);fill-opacity:1.00000000;fill-rule:evenodd;stroke:#261933;stroke-width:1.8086654;stroke-linecap:round;stroke-linejoin:round;stroke-miterlimit:4.0000000;stroke-opacity:1.0000000;stroke-dasharray:none;"
     d="M 32.396694,17.024794 C 32.396694,23.776529 26.917025,29.256199 20.165289,29.256199 C 13.413553,29.256199 7.9338837,23.776529 7.9338837,17.024794 C 7.9338837,10.273058 13.413553,4.7933884 20.165289,4.7933884 C 26.917025,4.7933884 32.396694,10.273058 32.396694,17.024794 z "
     id="path922" />
  <path
     style="fill:url(#linearGradient7820);fill-opacity:1.00000000;fill-rule:evenodd;stroke:#261933;stroke-width:1.2377464;stroke-linecap:round;stroke-linejoin:round;stroke-miterlimit:4.0000000;stroke-opacity:1.0000000;stroke-dasharray:none;"
     d="M 23.965636,13.799992 C 23.965636,18.998054 19.746918,23.216773 14.548854,23.216773 C 9.3507905,23.216773 5.1320729,18.998054 5.1320729,13.799992 C 5.1320729,8.6019273 9.3507905,4.3832093 14.548854,4.3832093 C 19.746918,4.3832093 23.965636,8.6019273 23.965636,13.799992 z "
     id="path5949"
     transform="matrix(1.009900,0.000000,0.000000,1.009900,-0.309554,-0.309554)" />
  <path
     style="fill:url(#linearGradient4671);fill-opacity:1.0000000;fill-rule:evenodd;stroke:none;stroke-width:1.0000000pt;stroke-linecap:butt;stroke-linejoin:miter;stroke-opacity:1.0000000;"
     d="M 7.2082328,22.236515 C 5.2732794,20.344089 1.5790295,12.157442 7.7823398,6.6080460 C 14.021164,1.0268796 21.454593,5.4810951 22.581543,7.2459427 C 18.073740,5.1621468 12.928040,5.3641472 9.6960299,8.3941567 C 6.5278094,11.360377 5.4008587,17.345974 7.2082328,22.236515 z "
     id="path2186"
     sodipodi:nodetypes="czczc"
     transform="matrix(1.036676,0.000000,0.000000,1.036676,-1.038300,-1.451875)" />
  <path
     style="fill:url(#linearGradient1555);fill-opacity:1.00000000;fill-rule:evenodd;stroke:#261933;stroke-width:1.2377464;stroke-linecap:round;stroke-linejoin:round;stroke-miterlimit:4.0000000;stroke-opacity:1.0000000;stroke-dasharray:none;"
     d="M 52.809823,42.644190 C 52.809823,47.842252 48.591105,52.060971 43.393041,52.060971 C 38.194978,52.060971 33.976260,47.842252 33.976260,42.644190 C 33.976260,37.446125 38.194978,33.227407 43.393041,33.227407 C 48.591105,33.227407 52.809823,37.446125 52.809823,42.644190 z "
     id="path6572"
     transform="matrix(1.009900,0.000000,0.000000,1.009900,-0.309554,-0.309554)" />
  <path
     style="fill:url(#linearGradient4671);fill-opacity:1.0000000;fill-rule:evenodd;stroke:none;stroke-width:1.0000000pt;stroke-linecap:butt;stroke-linejoin:miter;stroke-opacity:1.0000000;"
     d="M 35.529753,50.292288 C 33.594800,48.399862 29.900550,40.213215 36.103860,34.663819 C 42.342685,29.082652 49.776114,33.536868 50.903064,35.301715 C 46.395261,33.217920 41.249561,33.419920 38.017550,36.449929 C 34.849330,39.416150 33.722379,45.401747 35.529753,50.292288 z "
     id="path4676"
     sodipodi:nodetypes="czczc"
     transform="matrix(1.036676,0.000000,0.000000,1.036676,-1.038300,-1.451875)" />
  <path
     style="fill:url(#linearGradient7197);fill-opacity:1.00000000;fill-rule:evenodd;stroke:#261933;stroke-width:1.2377464;stroke-linecap:round;stroke-linejoin:round;stroke-miterlimit:4.0000000;stroke-opacity:1.0000000;stroke-dasharray:none;"
     d="M 52.809823,13.799992 C 52.809823,18.998054 48.591105,23.216773 43.393041,23.216773 C 38.194978,23.216773 33.976260,18.998054 33.976260,13.799992 C 33.976260,8.6019276 38.194978,4.3832096 43.393041,4.3832096 C 48.591105,4.3832096 52.809823,8.6019276 52.809823,13.799992 z "
     id="path6573"
     transform="matrix(1.009900,0.000000,0.000000,1.009900,-0.309554,-0.309554)" />
  <path
     style="fill:url(#linearGradient7196);fill-opacity:1.00000000;fill-rule:evenodd;stroke:#261933;stroke-width:1.2377464;stroke-linecap:round;stroke-linejoin:round;stroke-miterlimit:4.0000000;stroke-opacity:1.0000000;stroke-dasharray:none;"
     d="M 23.965636,42.644190 C 23.965636,47.842252 19.746918,52.060971 14.548854,52.060971 C 9.3507910,52.060971 5.1320730,47.842252 5.1320730,42.644190 C 5.1320730,37.446125 9.3507910,33.227407 14.548854,33.227407 C 19.746918,33.227407 23.965636,37.446125 23.965636,42.644190 z "
     id="path6574"
     transform="matrix(1.009900,0.000000,0.000000,1.009900,-0.309554,-0.309554)" />
  <path
     style="fill:url(#linearGradient4671);fill-opacity:1.0000000;fill-rule:evenodd;stroke:none;stroke-width:1.0000000pt;stroke-linecap:butt;stroke-linejoin:miter;stroke-opacity:1.0000000;"
     d="M 7.1433507,50.292289 C 5.2083967,48.399863 1.5141473,40.213216 7.7174577,34.663820 C 13.956282,29.082653 21.389711,33.536869 22.516661,35.301716 C 18.008858,33.217921 12.863158,33.419921 9.6311477,36.449930 C 6.4629267,39.416151 5.3359767,45.401748 7.1433507,50.292289 z "
     id="path4677"
     sodipodi:nodetypes="czczc"
     transform="matrix(1.036676,0.000000,0.000000,1.036676,-1.038300,-1.451875)" />
  <path
     style="fill:url(#linearGradient4671);fill-opacity:1.0000000;fill-rule:evenodd;stroke:none;stroke-width:1.0000000pt;stroke-linecap:butt;stroke-linejoin:miter;stroke-opacity:1.0000000;"
     d="M 35.083226,22.288623 C 33.148273,20.396197 29.454023,12.209550 35.657333,6.6601541 C 41.896157,1.0789877 49.329586,5.5332032 50.456536,7.2980508 C 45.948733,5.2142549 40.803033,5.4162553 37.571023,8.4462646 C 34.402803,11.412485 33.275852,17.398082 35.083226,22.288623 z "
     id="path4675"
     sodipodi:nodetypes="czczc"
     transform="matrix(1.036676,0.000000,0.000000,1.036676,-1.038300,-1.451875)" />
</svg>
