<?xml version="1.0" encoding="UTF-8" standalone="no"?>
<!DOCTYPE svg PUBLIC "-//W3C//DTD SVG 20010904//EN"
"http://www.w3.org/TR/2001/REC-SVG-20010904/DTD/svg10.dtd">
<!-- Created with Inkscape (http://www.inkscape.org/) -->
<svg
   version="1.0"
   x="0"
   y="0"
   width="48pt"
   height="48pt"
   id="svg1"
   sodipodi:version="0.32"
   inkscape:version="0.37"
   sodipodi:docname="inkscape.svg"
   sodipodi:docbase="/usr/share/icons/Lila/scalable/apps"
   xmlns="http://www.w3.org/2000/svg"
   xmlns:inkscape="http://www.inkscape.org/namespaces/inkscape"
   xmlns:sodipodi="http://sodipodi.sourceforge.net/DTD/sodipodi-0.dtd"
   xmlns:xlink="http://www.w3.org/1999/xlink">
  <sodipodi:namedview
     id="base"
     pagecolor="#ffffff"
     bordercolor="#666666"
     borderopacity="1.0"
     inkscape:pageopacity="0.0"
     inkscape:pageshadow="2"
     inkscape:zoom="4.91194111"
     inkscape:cx="25.1897203"
     inkscape:cy="25.2799353"
     inkscape:window-width="640"
     inkscape:window-height="500"
     inkscape:window-x="84"
     inkscape:window-y="178" />
  <defs
     id="defs3">
    <linearGradient
       id="linearGradient578">
      <stop
         style="stop-color:#ffffff;stop-opacity:1;"
         offset="0"
         id="stop579" />
      <stop
         style="stop-color:#ffffff;stop-opacity:0;"
         offset="1"
         id="stop580" />
    </linearGradient>
    <linearGradient
       id="linearGradient564">
      <stop
         style="stop-color:#d9cce6;stop-opacity:1;"
         offset="0.00000000"
         id="stop565" />
      <stop
         style="stop-color:#73667f;stop-opacity:1;"
         offset="1.00000000"
         id="stop566" />
    </linearGradient>
    <linearGradient
       x1="-0.00000000"
       y1="0.00781250"
       x2="0.96212119"
       y2="0.97656250"
       id="linearGradient567"
       xlink:href="#linearGradient564" />
    <linearGradient
       x1="0.972423"
       y1="0.984454"
       x2="0.027587"
       y2="0.023439"
       id="linearGradient573"
       xlink:href="#linearGradient564" />
    <linearGradient
       x1="0.992514"
       y1="0.992126"
       x2="0.007491"
       y2="-0.007814"
       id="linearGradient574"
       xlink:href="#linearGradient564" />
    <linearGradient
       x1="0.969075"
       y1="0.976666"
       x2="-0.015502"
       y2="0.000002"
       id="linearGradient575"
       xlink:href="#linearGradient564"
       gradientTransform="translate(6.694477e-7,1.043426e-6)" />
    <linearGradient
       x1="0.014815"
       y1="0.007812"
       x2="0.985185"
       y2="0.992188"
       id="linearGradient577"
       xlink:href="#linearGradient578" />
    <linearGradient
       x1="-0.000010"
       y1="0.015606"
       x2="0.999999"
       y2="0.992188"
       id="linearGradient586"
       xlink:href="#linearGradient578" />
    <linearGradient
       x1="0.007073"
       y1="0.039061"
       x2="0.971629"
       y2="1.000000"
       id="linearGradient587"
       xlink:href="#linearGradient578" />
    <linearGradient
       x1="-0.000014"
       y1="-0.013910"
       x2="1.007272"
       y2="1.013889"
       id="linearGradient588"
       xlink:href="#linearGradient578" />
    <linearGradient
       x1="-0.000049"
       y1="0.015616"
       x2="0.935998"
       y2="0.960937"
       id="linearGradient589"
       xlink:href="#linearGradient578" />
    <linearGradient
       x1="0.009665"
       y1="0.015647"
       x2="1.004831"
       y2="1.039063"
       id="linearGradient590"
       xlink:href="#linearGradient578" />
  </defs>
  <g
     transform="matrix(0.107078,0.000000,0.000000,0.107078,-2.794383,-2.330485)"
     style="font-size:12;opacity:0.302675;"
     id="g604">
    <path
       d="M 39.8518 307.973 C 74.9724 229.545 276.742 43.7989 309.27 43.9655 C 339.591 43.0276 579.769 283.087 579.769 319.875 C 579.769 331.777 413.098 384.517 414.223 408.599 C 413.962 426.185 470.118 440.883 463.995 454.043 C 453.167 477.31 383.235 495.745 363.369 517.881 C 357.989 523.877 392.758 527.792 388.255 538.439 C 382.205 554.196 338.505 573.968 316.844 571.981 C 299.193 570.362 288.499 537.353 270.318 527.619 C 252.793 518.236 215.227 525.257 209.726 514.635 C 204.767 505.06 238.939 485.646 238.939 467.027 C 235.694 451.879 111.48 416.161 111.264 406.434 C 111.022 396.7 172.938 375.057 165.364 365.319 C 135.074 330.703 27.0037 336.664 39.8518 307.973 z "
       style="fill-rule:evenodd;stroke-width:12.244;"
       id="path591" />
    <path
       d="M 189.769 477.748 C 186.409 471.423 163.648 472.898 154.641 477.748 C 146.083 482.355 133.738 499.838 137.076 506.121 C 141.395 514.25 169.001 525.619 177.61 520.983 C 186.566 516.16 194.065 485.834 189.769 477.748 z "
       style="fill-rule:evenodd;stroke-width:12.5;"
       id="path592" />
    <path
       d="M 475.558 488.122 C 470.238 491.129 474.609 525.016 481.364 528.769 C 487.673 532.274 515.645 516.142 514.753 509.896 C 513.709 502.593 481.368 484.838 475.558 488.122 z "
       style="fill-rule:evenodd;stroke-width:12.5;"
       id="path593" />
    <path
       d="M 503.098 432.621 C 494.642 435.264 486.805 458.641 493.179 462.382 C 508.535 471.396 548.518 477.062 568.286 470.884 C 578.75 467.614 591.072 438.264 583.875 434.039 C 569.342 425.509 524.874 425.815 503.098 432.621 z "
       style="fill-rule:evenodd;stroke-width:12.5;"
       id="path594" />
  </g>
  <path
     d="M 2.8024422 29.482754 C 6.3050993 21.660951 26.427993 3.1360675 29.672086 3.1526828 C 32.696068 3.059144 56.649567 27.000817 56.649567 30.669768 C 56.649567 31.856781 40.027088 37.116662 40.139286 39.518416 C 40.113257 41.272307 45.713823 42.738171 45.103161 44.050648 C 44.023259 46.371121 37.048781 48.209684 35.067502 50.417359 C 34.530941 51.015352 37.998532 51.405805 37.54944 52.467656 C 36.946059 54.039136 32.587758 56.011042 30.427458 55.812874 C 28.667082 55.65141 27.600546 52.359346 25.787313 51.388552 C 24.039504 50.452762 20.292961 51.152985 19.744333 50.093626 C 19.249761 49.138691 22.657814 47.202487 22.657814 45.345574 C 22.334183 43.83483 9.9460361 40.272591 9.9244933 39.302494 C 9.9003586 38.331702 16.075381 36.173195 15.320011 35.202001 C 12.29912 31.749668 1.5210713 32.344173 2.8024422 29.482754 z "
     style="font-size:12;fill:url(#linearGradient567);fill-rule:evenodd;stroke:#261933;stroke-width:1.87322;"
     id="path563" />
  <path
     d="M 17.556308 18.576031 C 16.92201 18.20014 17.047174 16.383119 17.666511 15.71172 C 20.976426 12.123352 25.31857 5.711694 29.344165 5.7966553 C 33.543493 5.8876014 40.392208 13.677281 42.013355 15.821825 C 42.624315 16.578594 38.786316 13.498662 37.606686 13.949052 C 36.766541 14.269791 37.628526 17.485858 36.945759 17.915006 C 36.343276 18.293689 34.78496 16.182257 33.750837 16.372746 C 31.994051 16.696378 29.624213 20.033818 28.573035 19.457367 C 27.347427 18.785271 27.725908 12.662805 26.92047 12.627002 C 26.073443 12.589401 25.326149 18.150373 23.615542 19.237056 C 22.20473 20.133351 18.905087 19.375286 17.556308 18.576031 z "
     style="font-size:12;fill:#ffffff;fill-rule:evenodd;stroke-width:1pt;"
     id="path568" />
  <path
     d="M 21.522362 35.651993 C 21.363387 35.987593 26.474568 37.356817 28.903547 37.414662 C 29.559187 37.43032 31.327641 36.02669 30.776421 35.872301 C 28.573433 35.255459 21.693901 35.289866 21.522362 35.651993 z "
     style="font-size:12;fill:#ffffff;fill-rule:evenodd;stroke-width:1pt;"
     id="path569" />
  <path
     d="M 17.753977 46.414801 C 17.418876 45.783996 15.14887 45.931102 14.250582 46.414801 C 13.397072 46.874268 12.165877 48.617888 12.498783 49.244509 C 12.929529 50.055231 15.682736 51.189087 16.541331 50.726728 C 17.434535 50.245719 18.182426 47.221239 17.753977 46.414801 z "
     style="font-size:12;fill:url(#linearGradient573);fill-rule:evenodd;stroke:#261933;stroke-width:1.86997;"
     id="path570" />
  <path
     d="M 46.256367 47.449426 C 45.72579 47.74932 46.16172 51.12895 46.835413 51.503243 C 47.464621 51.852804 50.254335 50.243925 50.165373 49.620998 C 50.061252 48.892651 46.83581 47.121904 46.256367 47.449426 z "
     style="font-size:12;fill:url(#linearGradient575);fill-rule:evenodd;stroke:#261933;stroke-width:1.86997;"
     id="path571" />
  <path
     d="M 49.002994 41.914184 C 48.159657 42.177779 47.378054 44.509218 48.013749 44.882317 C 49.545238 45.781303 53.532833 46.346386 55.504341 45.73024 C 56.54794 45.404116 57.776841 42.476972 57.059067 42.055604 C 55.609658 41.204887 51.174763 41.235407 49.002994 41.914184 z "
     style="font-size:12;fill:url(#linearGradient574);fill-rule:evenodd;stroke:#261933;stroke-width:1.86997;"
     id="path572" />
  <path
     d="M 4.6667974 29.37235 C 4.7260081 28.109341 21.640544 9.4053491 29.234061 4.9152315 C 30.691646 4.0745087 32.033846 12.398913 29.895085 12.957514 C 19.416715 15.584362 4.6158344 30.459532 4.6667974 29.37235 z "
     style="font-size:12;opacity:0.7;fill:url(#linearGradient577);fill-rule:evenodd;stroke:#ffffff;stroke-width:0.0997316pt;"
     id="path576" />
  <path
     d="M 12.819123 39.287434 C 12.992859 38.96161 16.12934 36.96487 16.895383 36.753537 C 17.19428 36.671058 16.504631 38.101119 16.014046 38.406101 C 15.145878 38.945751 12.699146 39.512432 12.819123 39.287434 z "
     style="font-size:12;opacity:0.7;fill:url(#linearGradient590);fill-rule:evenodd;stroke:#ffffff;stroke-width:0.0997316pt;"
     id="path581" />
  <path
     d="M 21.742669 49.202519 C 21.742669 48.857346 23.468537 46.92204 23.946055 46.778825 C 24.202965 46.701732 24.264699 48.191034 23.946055 48.541494 C 23.530271 48.998866 21.742669 49.444969 21.742669 49.202519 z "
     style="font-size:12;opacity:0.7;fill:url(#linearGradient589);fill-rule:evenodd;stroke:#ffffff;stroke-width:0.0997316pt;"
     id="path582" />
  <path
     d="M 48.733716 44.134822 C 48.673476 44.014246 49.028823 42.804694 49.504946 42.702669 C 51.085303 42.363977 54.846406 42.699475 54.903055 42.812771 C 54.956511 42.919787 51.462589 43.014928 49.835358 43.363593 C 49.406111 43.455545 48.783582 44.234556 48.733716 44.134822 z "
     style="font-size:12;opacity:0.7;fill:url(#linearGradient588);fill-rule:evenodd;stroke:#ffffff;stroke-width:0.0997316pt;"
     id="path583" />
  <path
     d="M 47.081252 49.863546 C 46.904427 49.75743 46.911707 48.829621 47.081252 48.761802 C 47.278921 48.682715 48.182895 49.23194 48.182895 49.422828 C 48.182895 49.599153 47.27164 49.977836 47.081252 49.863546 z "
     style="font-size:12;opacity:0.699936;fill:url(#linearGradient587);fill-rule:evenodd;stroke:#ffffff;stroke-width:0.0997316pt;"
     id="path584" />
  <path
     d="M 13.810663 48.872005 C 13.770868 48.772572 14.274617 47.77605 14.691996 47.549955 C 15.15595 47.298629 16.416966 47.345704 16.454665 47.43985 C 16.490469 47.529312 15.401591 47.83579 14.912305 48.100776 C 14.520257 48.313206 13.844371 48.95618 13.810663 48.872005 z "
     style="font-size:12;opacity:0.7;fill:url(#linearGradient586);fill-rule:evenodd;stroke:#ffffff;stroke-width:0.0997316pt;"
     id="path585" />
</svg>
