<?xml version="1.0" encoding="UTF-8" standalone="no"?>
<!DOCTYPE svg PUBLIC "-//W3C//DTD SVG 20010904//EN"
"http://www.w3.org/TR/2001/REC-SVG-20010904/DTD/svg10.dtd">
<!-- Created with Inkscape (http://www.inkscape.org/) -->
<svg
   id="svg1"
   sodipodi:version="0.32"
   inkscape:version="0.38.1"
   width="48pt"
   height="48pt"
   sodipodi:docbase="/home/dan/svg-icons/lila/gnome/scalable/apps"
   sodipodi:docname="kaffeine.svg"
   xmlns="http://www.w3.org/2000/svg"
   xmlns:inkscape="http://www.inkscape.org/namespaces/inkscape"
   xmlns:sodipodi="http://sodipodi.sourceforge.net/DTD/sodipodi-0.dtd"
   xmlns:xlink="http://www.w3.org/1999/xlink">
  <defs
     id="defs3">
    <linearGradient
       id="linearGradient589">
      <stop
         style="stop-color:#d9cce6;stop-opacity:1;"
         offset="0.00000000"
         id="stop590" />
      <stop
         style="stop-color:#73667f;stop-opacity:1;"
         offset="1.00000000"
         id="stop591" />
    </linearGradient>
    <linearGradient
       id="linearGradient866">
      <stop
         style="stop-color:#ffffff;stop-opacity:1;"
         offset="0.00000000"
         id="stop867" />
      <stop
         style="stop-color:#d9cce6;stop-opacity:1;"
         offset="1.00000000"
         id="stop868" />
    </linearGradient>
    <linearGradient
       id="linearGradient584">
      <stop
         style="stop-color:#ffffff;stop-opacity:1;"
         offset="0.00000000"
         id="stop585" />
      <stop
         style="stop-color:#ffffff;stop-opacity:0;"
         offset="1.00000000"
         id="stop586" />
    </linearGradient>
    <linearGradient
       xlink:href="#linearGradient584"
       id="linearGradient586"
       x1="-0.00000000"
       y1="-0.00000000"
       x2="1.00000000"
       y2="-0.00000000" />
    <linearGradient
       xlink:href="#linearGradient584"
       id="linearGradient587" />
    <linearGradient
       xlink:href="#linearGradient589"
       id="linearGradient588"
       x1="0.00000000"
       y1="0.00000000"
       x2="1.00000000"
       y2="0.00000000" />
    <linearGradient
       xlink:href="#linearGradient589"
       id="linearGradient593" />
    <linearGradient
       xlink:href="#linearGradient584"
       id="linearGradient597"
       x1="0.00000000"
       y1="0.00000000"
       x2="1.00000000"
       y2="0.00000000" />
    <linearGradient
       xlink:href="#linearGradient589"
       id="linearGradient790" />
    <linearGradient
       xlink:href="#linearGradient589"
       id="linearGradient791" />
    <linearGradient
       xlink:href="#linearGradient589"
       id="linearGradient792" />
    <linearGradient
       xlink:href="#linearGradient589"
       id="linearGradient793" />
    <linearGradient
       xlink:href="#linearGradient589"
       id="linearGradient794" />
    <linearGradient
       xlink:href="#linearGradient589"
       id="linearGradient795" />
  </defs>
  <sodipodi:namedview
     id="base"
     pagecolor="#ffffff"
     bordercolor="#666666"
     borderopacity="1.0"
     inkscape:pageopacity="0.0"
     inkscape:pageshadow="2"
     inkscape:zoom="8.0000000"
     inkscape:cx="25.704171"
     inkscape:cy="22.444389"
     inkscape:window-width="568"
     inkscape:window-height="566"
     inkscape:window-x="0"
     inkscape:window-y="175" />
  <path
     style="fill:#000000;fill-opacity:0.29600000;fill-rule:evenodd;stroke:none;stroke-width:1.3285950pt;"
     d="M 28.783068,23.985808 C 25.466531,24.012553 22.084009,24.288114 18.724866,24.832458 C 16.331297,25.067739 14.422792,25.776698 12.256461,26.932150 C 10.079412,28.306802 8.7887492,29.446298 8.4296027,31.741122 C 8.1944210,32.706369 8.2081126,36.548354 8.7682627,39.123910 C 9.9648617,44.266975 12.164260,49.626322 15.405998,54.194279 C 16.829835,56.390168 19.631194,57.923106 22.077600,58.393663 C 28.320353,59.313838 33.457191,58.961750 39.586321,58.156601 C 40.879950,57.464039 43.013692,55.962307 44.022767,53.889485 C 44.893910,51.945170 45.760584,49.818162 46.596583,47.692007 C 46.410035,48.305777 46.207411,48.907001 46.020861,49.520771 C 51.236849,49.533374 55.732377,45.130245 56.383856,42.307313 C 57.421250,38.182135 58.682849,33.867855 57.230506,30.792874 C 56.727021,29.991922 56.430346,28.992633 55.096948,29.031842 C 53.634918,28.716782 52.071538,28.913138 51.439421,29.438234 C 50.864013,30.020744 50.075895,30.609911 49.915451,31.402462 C 49.863804,32.918799 49.722630,34.349770 49.610657,35.805042 C 49.677404,33.856290 49.717927,31.804143 49.339729,29.810760 C 49.289657,28.749006 48.317074,27.804130 46.562717,26.627356 C 44.837740,25.747392 41.852116,25.116870 38.536475,24.696994 C 35.347761,24.206141 32.099604,23.959063 28.783068,23.985808 z M 51.608751,34.721330 C 51.955411,34.671795 52.314835,34.717027 52.726329,34.890660 C 53.204914,34.561599 52.948611,37.172978 52.286071,39.259374 C 52.102100,40.424394 51.934604,41.267490 51.439421,42.747571 C 51.361826,43.093725 49.486362,43.889752 47.985089,43.831283 C 48.659302,41.721595 49.217485,39.582534 49.542925,37.362878 C 49.877708,36.617261 50.224124,35.873338 50.558905,35.127722 C 50.918531,34.933785 51.262091,34.770864 51.608751,34.721330 z "
     id="path1482" />
  <path
     style="fill:url(#linearGradient593);fill-opacity:1.00000000;fill-rule:evenodd;stroke:#261933;stroke-width:1.8750000;stroke-dasharray:none;"
     d="M 47.821975,29.465095 C 47.982420,28.672545 48.765294,28.090035 49.340702,27.507525 C 49.972820,26.982426 51.538583,26.772386 53.000614,27.087446 C 54.334011,27.048240 54.630000,28.059229 55.133485,28.860181 C 56.585827,31.935159 55.340967,36.270379 54.303573,40.395557 C 53.652094,43.218490 49.162284,47.616721 43.946296,47.604118 C 44.521704,45.710961 45.097097,43.817803 45.672504,41.924646 C 47.206457,42.085676 49.259092,41.196509 49.340702,40.832440 C 49.835887,39.352360 50.019842,38.502400 50.203812,37.337380 C 50.866354,35.250985 51.113947,32.639494 50.635362,32.968556 C 49.812376,32.621290 49.196856,32.799124 48.477604,33.186997 C 48.117979,33.987947 47.758338,34.788899 47.398712,35.589850 C 47.470634,33.478250 47.750053,31.576694 47.821975,29.465095 z "
     id="path592"
     sodipodi:nodetypes="ccccccccccccc" />
  <path
     style="fill:url(#linearGradient588);fill-opacity:1.00000000;fill-rule:evenodd;stroke:#261933;stroke-width:1.8750000;stroke-dasharray:none;"
     d="M 16.649907,22.916178 C 23.368193,21.827492 30.086481,21.774001 36.463910,22.755709 C 39.779550,23.175584 42.754311,23.825506 44.479288,24.705470 C 46.233644,25.882246 47.192661,26.828978 47.242733,27.890731 C 47.689264,30.244284 47.681321,32.712857 47.559758,34.951388 C 46.754087,41.081396 44.210717,46.866338 41.928006,51.961149 C 40.918931,54.033973 38.796578,55.543292 37.502949,56.235853 C 31.373819,57.041006 26.221412,57.374469 19.978659,56.454295 C 17.532253,55.983734 14.744990,54.477977 13.321153,52.282089 C 10.079415,47.714132 7.8602463,42.341024 6.6636478,37.197959 C 6.1034977,34.622405 6.1114412,30.781613 6.3466227,29.816365 C 6.7057694,27.521540 7.9738653,26.376931 10.150913,25.002280 C 12.317245,23.846826 14.256337,23.151460 16.649907,22.916178 z "
     id="path587"
     sodipodi:nodetypes="ccccccccccccc" />
  <path
     sodipodi:type="arc"
     style="font-size:12.000000;fill:#261933;fill-opacity:0.92000002;fill-rule:evenodd;stroke:#261933;stroke-width:1.0000000pt;"
     id="path586"
     sodipodi:cx="90.49881744"
     sodipodi:cy="46.09840775"
     sodipodi:rx="13.73543930"
     sodipodi:ry="3.60001421"
     d="M 104.234257 46.098408 A 13.735439 3.600014 0 1 0 76.763378,46.098408 A 13.7354 3.60001 0 1 0 104.234 46.0984 L 90.498817 46.098408 z"
     transform="matrix(1.165577,0.000000,0.000000,0.913780,-78.37168,-13.51098)" />
  <path
     style="fill:url(#linearGradient597);fill-rule:evenodd;stroke-width:1.0000000pt;"
     d="M 16.332647,51.946328 C 18.756930,52.853321 18.967736,52.960025 18.704227,51.626211 C 18.440717,47.358007 17.860998,43.409916 15.858331,39.941999 C 14.909701,38.128011 15.700225,36.314025 16.806963,36.420730 C 25.344648,36.207319 33.408015,35.033563 41.471386,32.419288 C 33.829630,33.646397 25.397349,34.393332 17.123174,32.739403 C 14.909698,32.419288 12.221910,32.099172 10.166539,30.338538 C 9.6395216,30.018422 9.5868207,29.538250 9.0598029,29.218134 C 9.1125049,28.151082 8.0584693,31.885763 8.2692762,33.379634 C 8.6908889,37.487780 10.377348,41.115757 11.905699,45.063845 C 12.854330,47.464712 14.277278,49.545461 16.332647,51.946328 z "
     id="path596"
     sodipodi:nodetypes="ccccccccccc" />
  <path
     d="M 29.086206,24.879997 C 28.222403,25.476018 23.665549,26.602262 22.990160,26.109872 C 22.258983,25.475127 25.290280,22.230947 25.378903,17.679099 C 25.400560,16.544563 30.932934,16.623726 31.583237,17.509256 C 31.919081,18.022002 29.839249,24.260403 29.086206,24.879997 z "
     style="font-size:12.000000;fill:url(#linearGradient827);fill-rule:evenodd;stroke:#261933;stroke-width:0.85342318;"
     id="path649" />
  <path
     d="M 30.310047,13.175571 C 30.210734,13.988382 24.420720,15.148069 23.340947,14.866167 C 22.115116,14.509761 15.176792,10.202396 15.290020,9.2875988 C 15.415242,8.1271546 21.268518,6.5863384 22.583996,6.7742053 C 23.917295,6.9463085 30.448017,12.182297 30.310047,13.175571 z "
     style="font-size:12.000000;fill:url(#linearGradient826);fill-rule:evenodd;stroke:#261933;stroke-width:0.85674584;"
     id="path650" />
  <path
     d="M 30.299766,19.470037 C 30.537735,19.763797 30.932453,18.074024 30.578861,17.935096 C 29.630135,17.562376 26.439276,17.679647 26.392808,17.935096 C 26.346202,18.191294 29.142954,18.074708 30.299766,19.470037 z "
     style="font-size:12;opacity:0.7;fill:url(#linearGradient824);fill-rule:evenodd;stroke:none;stroke-width:0.0632452pt;"
     id="path657" />
  <path
     d="M 28.146529,12.267970 C 28.121784,12.020267 24.540731,8.4218744 22.425604,7.8028245 C 20.726781,7.3056142 16.681511,8.6873264 16.704675,8.9191291 C 16.727978,9.1524371 20.736513,8.6629971 22.565148,9.1982207 C 24.550465,9.7792984 28.168257,12.485378 28.146529,12.267970 z "
     style="font-size:12;opacity:0.699936;fill:url(#linearGradient823);fill-rule:evenodd;stroke:none;stroke-width:0.0632452pt;"
     id="path658" />
  <path
     d="M 36.967430,14.642935 C 37.014927,12.544185 28.847001,5.9140804 23.711610,4.0382780 C 21.079553,3.0768673 13.712992,5.8434993 13.665015,6.1313040 C 13.619985,6.4016468 20.838021,4.7650174 23.432516,5.7126997 C 28.605470,7.6022175 36.980453,14.919765 36.967430,14.642935 z "
     style="font-size:12;opacity:0.7;fill:url(#linearGradient822);fill-rule:evenodd;stroke:none;stroke-width:0.0632452pt;"
     id="path655" />
  <path
     d="M 29.086206,24.879997 C 28.222403,25.476018 23.665549,26.602262 22.990160,26.109872 C 22.258983,25.475127 25.290280,22.230947 25.378903,17.679099 C 25.400560,16.544563 30.932934,16.623726 31.583237,17.509256 C 31.919081,18.022002 29.839249,24.260403 29.086206,24.879997 z "
     style="font-size:12.000000;fill:url(#linearGradient827);fill-rule:evenodd;stroke:#261933;stroke-width:0.85342318;"
     id="path969" />
  <path
     d="M 30.310047,13.175571 C 30.210734,13.988382 24.420720,15.148069 23.340947,14.866167 C 22.115116,14.509761 15.176792,10.202396 15.290020,9.2875988 C 15.415242,8.1271546 21.268518,6.5863384 22.583996,6.7742053 C 23.917295,6.9463085 30.448017,12.182297 30.310047,13.175571 z "
     style="font-size:12.000000;fill:url(#linearGradient826);fill-rule:evenodd;stroke:#261933;stroke-width:0.85674584;"
     id="path970" />
  <path
     d="M 30.299766,19.470037 C 30.537735,19.763797 30.932453,18.074024 30.578861,17.935096 C 29.630135,17.562376 26.439276,17.679647 26.392808,17.935096 C 26.346202,18.191294 29.142954,18.074708 30.299766,19.470037 z "
     style="font-size:12;opacity:0.7;fill:url(#linearGradient824);fill-rule:evenodd;stroke:none;stroke-width:0.0632452pt;"
     id="path972" />
  <path
     d="M 28.146529,12.267970 C 28.121784,12.020267 24.540731,8.4218744 22.425604,7.8028245 C 20.726781,7.3056142 16.681511,8.6873264 16.704675,8.9191291 C 16.727978,9.1524371 20.736513,8.6629971 22.565148,9.1982207 C 24.550465,9.7792984 28.168257,12.485378 28.146529,12.267970 z "
     style="font-size:12;opacity:0.699936;fill:url(#linearGradient823);fill-rule:evenodd;stroke:none;stroke-width:0.0632452pt;"
     id="path973" />
  <path
     d="M 36.967430,14.642935 C 37.014927,12.544185 28.847001,5.9140804 23.711610,4.0382780 C 21.079553,3.0768673 13.712992,5.8434993 13.665015,6.1313040 C 13.619985,6.4016468 20.838021,4.7650174 23.432516,5.7126997 C 28.605470,7.6022175 36.980453,14.919765 36.967430,14.642935 z "
     style="font-size:12;opacity:0.7;fill:url(#linearGradient822);fill-rule:evenodd;stroke:none;stroke-width:0.0632452pt;"
     id="path974" />
  <path
     d="M 35.772650,28.718488 C 35.847494,29.025682 34.718100,29.619372 34.237772,29.526570 C 33.555325,29.394905 32.396733,28.506289 32.284328,28.045087 C 32.210716,27.743032 33.231544,27.150508 33.679658,27.237005 C 34.394319,27.374975 35.661478,28.262493 35.772650,28.718488 z M 32.632854,25.727353 C 32.393169,25.933520 31.351435,25.196721 31.216003,24.726676 C 31.023475,24.058757 31.289339,22.807227 31.649173,22.497703 C 31.884946,22.294963 32.876304,22.751366 33.002692,23.189884 C 33.204267,23.889329 32.988711,25.421325 32.632854,25.727353 z M 33.766633,21.051724 C 33.479248,21.183389 32.682404,20.186823 32.682544,19.697657 C 32.682611,19.002530 33.335862,17.696713 33.767385,17.499047 C 34.050115,17.369572 34.825157,18.259698 34.825089,18.716102 C 34.824951,19.443991 34.193362,20.856318 33.766633,21.051724 z M 35.652293,15.853275 C 35.537970,16.147994 34.271976,15.988706 33.931129,15.637855 C 33.446692,15.139366 33.005022,13.747671 33.176714,13.305110 C 33.289187,13.015258 34.465393,13.113336 34.783418,13.440684 C 35.290678,13.962747 35.822135,15.415718 35.652293,15.853275 z M 33.630377,11.361809 C 33.664716,11.676063 32.467672,12.118006 32.003523,11.963655 C 31.343901,11.744465 30.310665,10.712741 30.259191,10.240846 C 30.225471,9.9318005 31.314564,9.4769037 31.747664,9.6209052 C 32.438406,9.8505113 33.579520,10.895262 33.630377,11.361809 z M 29.789763,8.1721156 C 29.824103,8.4863704 28.627059,8.9283125 28.162909,8.7739605 C 27.503284,8.5547743 26.470051,7.5230676 26.418579,7.0511728 C 26.384855,6.7421285 27.473950,6.2872447 27.907051,6.4312462 C 28.597792,6.6608392 29.738907,7.7055668 29.789763,8.1721156 z M 25.908848,5.4557656 C 26.020431,5.7515464 24.971298,6.4778404 24.483296,6.4440221 C 23.789880,6.3961133 22.532111,5.6543981 22.364738,5.2102225 C 22.255076,4.9193542 23.196398,4.2074129 23.651773,4.2389554 C 24.377951,4.2891952 25.743327,5.0166130 25.908848,5.4557656 z M 22.648287,30.670974 C 22.617720,30.985637 21.355837,31.174122 20.932878,30.928271 C 20.331923,30.579131 19.530699,29.358443 19.576550,28.885998 C 19.606502,28.576543 20.765574,28.353378 21.160157,28.582643 C 21.789488,28.948369 22.693523,30.203807 22.648287,30.670974 z M 20.419930,26.830154 C 20.139671,26.976349 19.292593,26.022279 19.267505,25.533728 C 19.231728,24.839629 19.816644,23.501738 20.237409,23.282136 C 20.513006,23.138205 21.333012,23.987203 21.356454,24.442923 C 21.393876,25.169854 20.835964,26.612884 20.419930,26.830154 z M 22.633139,22.729161 C 22.352880,22.875355 21.505802,21.921286 21.480716,21.432734 C 21.444939,20.738635 22.029855,19.400744 22.450618,19.181143 C 22.726216,19.037210 23.546223,19.886208 23.569664,20.341930 C 23.607085,21.068858 23.049174,22.511891 22.633139,22.729161 z M 23.011271,17.052238 C 23.025185,17.368067 21.802236,17.731805 21.348986,17.547776 C 20.704986,17.286365 19.740292,16.190215 19.719386,15.716057 C 19.705610,15.405437 20.821914,15.021889 21.244734,15.193445 C 21.919162,15.467191 22.990506,16.583425 23.011271,17.052238 z M 18.905137,13.689275 C 19.008699,13.987971 17.940785,14.686114 17.453813,14.639300 C 16.761975,14.572888 15.524218,13.798183 15.368633,13.349799 C 15.266647,13.056039 16.226750,12.369410 16.680961,12.413000 C 17.405492,12.482500 18.751196,13.245962 18.905137,13.689275 z M 14.719222,11.102660 C 14.797425,11.408966 13.674815,12.015265 13.193464,11.927879 C 12.509645,11.803822 11.341044,10.928296 11.223501,10.468464 C 11.146462,10.167164 12.160641,9.5632647 12.609577,9.6447566 C 13.325744,9.7746384 14.602911,10.647969 14.719222,11.102660 z M 38.419200,30.408920 C 39.086648,28.105378 35.615349,28.366812 34.684308,24.985962 C 33.769170,21.662891 39.407204,16.487058 37.849396,13.529919 C 35.450924,8.9769755 28.151804,4.0248974 22.815386,2.4555568 C 21.437536,2.0115492 6.1349185,7.2551945 5.9428024,8.3268795 C 5.8028453,11.113903 17.305218,14.909345 19.657974,19.146598 C 20.909849,21.401138 15.715308,25.325780 16.756766,27.802251 C 18.748456,32.538881 21.266986,29.152366 25.524591,31.266948 C 26.401280,31.767904 38.138432,31.250588 38.419200,30.408920 z "
     style="font-size:12.000000;fill:#261e2e;fill-rule:evenodd;stroke:#261e2e;stroke-width:0.067731999;"
     id="path976"
     sodipodi:nodetypes="cccccccccccccccccccccccccccccccccccccccccccccccccccccccccccccccccccccccccc" />
  <path
     d="M 29.086206,24.879997 C 28.222403,25.476018 23.665549,26.602262 22.990160,26.109872 C 22.258983,25.475127 25.290280,22.230947 25.378903,17.679099 C 25.400560,16.544563 30.932934,16.623726 31.583237,17.509256 C 31.919081,18.022002 29.839249,24.260403 29.086206,24.879997 z "
     style="font-size:12.000000;fill:url(#linearGradient827);fill-rule:evenodd;stroke:#261933;stroke-width:0.85342318;"
     id="path978" />
  <path
     d="M 30.310047,13.175571 C 30.210734,13.988382 24.420720,15.148069 23.340947,14.866167 C 22.115116,14.509761 15.176792,10.202396 15.290020,9.2875988 C 15.415242,8.1271546 21.268518,6.5863384 22.583996,6.7742053 C 23.917295,6.9463085 30.448017,12.182297 30.310047,13.175571 z "
     style="font-size:12.000000;fill:url(#linearGradient826);fill-rule:evenodd;stroke:#261933;stroke-width:0.85674584;"
     id="path979" />
  <path
     d="M 30.299766,19.470037 C 30.537735,19.763797 30.932453,18.074024 30.578861,17.935096 C 29.630135,17.562376 26.439276,17.679647 26.392808,17.935096 C 26.346202,18.191294 29.142954,18.074708 30.299766,19.470037 z "
     style="font-size:12;opacity:0.7;fill:url(#linearGradient824);fill-rule:evenodd;stroke:none;stroke-width:0.0632452pt;"
     id="path981" />
  <path
     d="M 28.146529,12.267970 C 28.121784,12.020267 24.540731,8.4218744 22.425604,7.8028245 C 20.726781,7.3056142 16.681511,8.6873264 16.704675,8.9191291 C 16.727978,9.1524371 20.736513,8.6629971 22.565148,9.1982207 C 24.550465,9.7792984 28.168257,12.485378 28.146529,12.267970 z "
     style="font-size:12;opacity:0.699936;fill:url(#linearGradient823);fill-rule:evenodd;stroke:none;stroke-width:0.0632452pt;"
     id="path982" />
  <path
     d="M 36.967430,14.642935 C 37.014927,12.544185 28.847001,5.9140804 23.711610,4.0382780 C 21.079553,3.0768673 13.712992,5.8434993 13.665015,6.1313040 C 13.619985,6.4016468 20.838021,4.7650174 23.432516,5.7126997 C 28.605470,7.6022175 36.980453,14.919765 36.967430,14.642935 z "
     style="font-size:12;opacity:0.7;fill:url(#linearGradient822);fill-rule:evenodd;stroke:none;stroke-width:0.0632452pt;"
     id="path983" />
  <path
     d="M 37.149175,30.365095 C 37.224022,30.672287 36.094628,31.265975 35.614302,31.173176 C 34.931854,31.041511 33.773262,30.152895 33.660857,29.691694 C 33.587245,29.389639 34.608074,28.797114 35.056185,28.883611 C 35.770848,29.021583 37.038006,29.909099 37.149175,30.365095 z M 34.009379,27.373959 C 33.769699,27.580125 32.727964,26.843327 32.592533,26.373283 C 32.400004,25.705366 32.665869,24.453831 33.025702,24.144309 C 33.261477,23.941567 34.252835,24.397973 34.379221,24.836488 C 34.580794,25.535935 34.365238,27.067932 34.009379,27.373959 z M 35.143162,22.698329 C 34.855777,22.829995 34.058935,21.833429 34.059073,21.344264 C 34.059141,20.649134 34.712392,19.343321 35.143916,19.145651 C 35.426641,19.016181 36.201687,19.906304 36.201618,20.362708 C 36.201481,21.090597 35.569889,22.502924 35.143162,22.698329 z M 37.028822,17.499879 C 36.914497,17.794602 35.648505,17.635315 35.307657,17.284460 C 34.823221,16.785973 34.381552,15.394277 34.553240,14.951719 C 34.665717,14.661864 35.841922,14.759944 36.159946,15.087288 C 36.667206,15.609354 37.198661,17.062322 37.028822,17.499879 z M 35.006906,13.008415 C 35.041243,13.322668 33.844201,13.764613 33.380052,13.610260 C 32.720425,13.391072 31.687194,12.359346 31.635720,11.887451 C 31.601998,11.578408 32.691092,11.123509 33.124193,11.267511 C 33.814934,11.497118 34.956049,12.541868 35.006906,13.008415 z M 31.166294,9.8187227 C 31.200631,10.132978 30.003587,10.574917 29.539440,10.420569 C 28.879813,10.201379 27.846581,9.1696530 27.795107,8.6977582 C 27.761384,8.3887139 28.850477,7.9338648 29.283581,8.0778652 C 29.974322,8.3074604 31.115437,9.3521750 31.166294,9.8187227 z M 27.285377,7.1023847 C 27.396962,7.3981654 26.347826,8.1244605 25.859824,8.0906433 C 25.166409,8.0427324 23.908641,7.3010182 23.741267,6.8568426 C 23.631605,6.5659722 24.572925,5.8540330 25.028302,5.8855734 C 25.754479,5.9358143 27.119854,6.6632299 27.285377,7.1023847 z M 21.796459,28.476762 C 21.516200,28.622955 20.669117,27.668887 20.644034,27.180336 C 20.608258,26.486236 21.193174,25.148345 21.613936,24.928744 C 21.889535,24.784811 22.709543,25.633811 22.732981,26.089531 C 22.770404,26.816459 22.212493,28.259491 21.796459,28.476762 z M 24.009669,24.375766 C 23.729409,24.521962 22.882330,23.567891 22.857244,23.079343 C 22.821467,22.385241 23.406385,21.047349 23.827148,20.827748 C 24.102743,20.683814 24.922751,21.532816 24.946194,21.988534 C 24.983614,22.715465 24.425704,24.158496 24.009669,24.375766 z M 24.387800,18.698842 C 24.401716,19.014672 23.178764,19.378410 22.725510,19.194384 C 22.081513,18.932973 21.116821,17.836819 21.095915,17.362664 C 21.082139,17.052042 22.198444,16.668494 22.621261,16.840050 C 23.295690,17.113796 24.367033,18.230031 24.387800,18.698842 z M 20.281666,15.335882 C 20.385229,15.634577 19.317315,16.332721 18.830342,16.285908 C 18.138503,16.219493 16.900746,15.444791 16.745162,14.996405 C 16.643177,14.702644 17.603280,14.016015 18.057489,14.059607 C 18.782021,14.129106 20.127725,14.892568 20.281666,15.335882 z M 16.095750,12.749268 C 16.173952,13.055571 15.051345,13.661870 14.569994,13.574483 C 13.886171,13.450427 12.717575,12.574903 12.600026,12.115070 C 12.522991,11.813774 13.537170,11.209869 13.986103,11.291363 C 14.702273,11.421247 15.979438,12.294578 16.095750,12.749268 z M 42.609457,30.379247 C 43.276894,28.075701 36.991879,30.013417 36.060838,26.632569 C 35.145696,23.309496 40.783699,18.133664 39.225924,15.176528 C 36.827452,10.623583 29.528334,5.6715186 24.191914,4.1021747 C 22.814064,3.6581704 7.5114483,8.9017995 7.3193311,9.9734844 C 7.1793741,12.760508 18.681747,16.555954 21.034505,20.793204 C 22.286378,23.047745 17.091835,26.972386 18.133294,29.448859 C 20.124984,34.185488 27.911827,29.661496 32.169432,31.776079 C 33.046122,32.277034 42.328689,31.220913 42.609457,30.379247 z "
     style="font-size:12;opacity:0.302675;fill-rule:evenodd;stroke-width:1.25;"
     id="path984"
     sodipodi:nodetypes="ccccccccccccccccccccccccccccccccccccccccccccccccccccccccccccccccccccc" />
  <path
     d="M 39.317208,29.989850 C 39.984656,27.686307 35.615349,28.366812 34.684308,24.985962 C 33.769170,21.662891 39.407204,16.487058 37.849396,13.529919 C 35.450924,8.9769755 28.151804,4.0248974 22.815386,2.4555568 C 21.437536,2.0115492 6.1349185,7.2551945 5.9428024,8.3268795 C 5.8028453,11.113903 17.305218,14.909345 19.657974,19.146598 C 20.909849,21.401138 15.715308,25.325780 16.756766,27.802251 C 13.959081,32.059944 19.830173,30.170108 22.650966,31.326816 C 23.527655,31.827771 39.036440,30.831518 39.317208,29.989850 z M 14.719222,11.102660 C 14.797425,11.408966 13.674815,12.015265 13.193464,11.927879 C 12.509645,11.803822 11.341044,10.928296 11.223501,10.468464 C 11.146462,10.167164 12.160641,9.5632647 12.609577,9.6447566 C 13.325744,9.7746384 14.602911,10.647969 14.719222,11.102660 z M 18.905137,13.689275 C 19.008699,13.987971 17.940785,14.686114 17.453813,14.639300 C 16.761975,14.572888 15.524218,13.798183 15.368633,13.349799 C 15.266647,13.056039 16.226750,12.369410 16.680961,12.413000 C 17.405492,12.482500 18.751196,13.245962 18.905137,13.689275 z M 23.011271,17.052238 C 23.025185,17.368067 21.802236,17.731805 21.348986,17.547776 C 20.704986,17.286365 19.740292,16.190215 19.719386,15.716057 C 19.705610,15.405437 20.821914,15.021889 21.244734,15.193445 C 21.919162,15.467191 22.990506,16.583425 23.011271,17.052238 z M 22.633139,22.729161 C 22.352880,22.875355 21.505802,21.921286 21.480716,21.432734 C 21.444939,20.738635 22.029855,19.400744 22.450618,19.181143 C 22.726216,19.037210 23.546223,19.886208 23.569664,20.341930 C 23.607085,21.068858 23.049174,22.511891 22.633139,22.729161 z M 20.419930,26.830154 C 20.139671,26.976349 19.292593,26.022279 19.267505,25.533728 C 19.231728,24.839629 19.816644,23.501738 20.237409,23.282136 C 20.513006,23.138205 21.333012,23.987203 21.356454,24.442923 C 21.393876,25.169854 20.835964,26.612884 20.419930,26.830154 z M 25.908848,5.4557656 C 26.020431,5.7515464 24.971298,6.4778404 24.483296,6.4440221 C 23.789880,6.3961133 22.532111,5.6543981 22.364738,5.2102225 C 22.255076,4.9193542 23.196398,4.2074129 23.651773,4.2389554 C 24.377951,4.2891952 25.743327,5.0166130 25.908848,5.4557656 z M 29.789763,8.1721156 C 29.824103,8.4863704 28.627059,8.9283125 28.162909,8.7739605 C 27.503284,8.5547743 26.470051,7.5230676 26.418579,7.0511728 C 26.384855,6.7421285 27.473950,6.2872447 27.907051,6.4312462 C 28.597792,6.6608392 29.738907,7.7055668 29.789763,8.1721156 z M 33.630377,11.361809 C 33.664716,11.676063 32.467672,12.118006 32.003523,11.963655 C 31.343901,11.744465 30.310665,10.712741 30.259191,10.240846 C 30.225471,9.9318005 31.314564,9.4769037 31.747664,9.6209052 C 32.438406,9.8505113 33.579520,10.895262 33.630377,11.361809 z M 35.652293,15.853275 C 35.537970,16.147994 34.271976,15.988706 33.931129,15.637855 C 33.446692,15.139366 33.005022,13.747671 33.176714,13.305110 C 33.289187,13.015258 34.465393,13.113336 34.783418,13.440684 C 35.290678,13.962747 35.822135,15.415718 35.652293,15.853275 z M 33.766633,21.051724 C 33.479248,21.183389 32.682404,20.186823 32.682544,19.697657 C 32.682611,19.002530 33.335862,17.696713 33.767385,17.499047 C 34.050115,17.369572 34.825157,18.259698 34.825089,18.716102 C 34.824951,19.443991 34.193362,20.856318 33.766633,21.051724 z M 32.632854,25.727353 C 32.393169,25.933520 31.351435,25.196721 31.216003,24.726676 C 31.023475,24.058757 31.289339,22.807227 31.649173,22.497703 C 31.884946,22.294963 32.876304,22.751366 33.002692,23.189884 C 33.204267,23.889329 32.988711,25.421325 32.632854,25.727353 z "
     style="font-size:12.000000;fill:#261e2e;fill-rule:evenodd;stroke:#261e2e;stroke-width:0.067731999;"
     id="path985"
     sodipodi:nodetypes="cccccccccccccccccccccccccccccccccccccccccccccccccccccccccccccccc" />
  <path
     d="M 29.086206,24.879997 C 28.222403,25.476018 23.665549,26.602262 22.990160,26.109872 C 22.258983,25.475127 25.290280,22.230947 25.378903,17.679099 C 25.400560,16.544563 30.932934,16.623726 31.583237,17.509256 C 31.919081,18.022002 29.839249,24.260403 29.086206,24.879997 z "
     style="font-size:12.000000;fill:url(#linearGradient827);fill-rule:evenodd;stroke:#261933;stroke-width:0.85342318;"
     id="path987" />
  <path
     d="M 30.310047,13.175571 C 30.210734,13.988382 24.420720,15.148069 23.340947,14.866167 C 22.115116,14.509761 15.176792,10.202396 15.290020,9.2875988 C 15.415242,8.1271546 21.268518,6.5863384 22.583996,6.7742053 C 23.917295,6.9463085 30.448017,12.182297 30.310047,13.175571 z "
     style="font-size:12.000000;fill:url(#linearGradient826);fill-rule:evenodd;stroke:#261933;stroke-width:0.85674584;"
     id="path988" />
  <path
     d="M 30.299766,19.470037 C 30.537735,19.763797 30.932453,18.074024 30.578861,17.935096 C 29.630135,17.562376 26.439276,17.679647 26.392808,17.935096 C 26.346202,18.191294 29.142954,18.074708 30.299766,19.470037 z "
     style="font-size:12;opacity:0.7;fill:url(#linearGradient824);fill-rule:evenodd;stroke:none;stroke-width:0.0632452pt;"
     id="path990" />
  <path
     d="M 28.146529,12.267970 C 28.121784,12.020267 24.540731,8.4218744 22.425604,7.8028245 C 20.726781,7.3056142 16.681511,8.6873264 16.704675,8.9191291 C 16.727978,9.1524371 20.736513,8.6629971 22.565148,9.1982207 C 24.550465,9.7792984 28.168257,12.485378 28.146529,12.267970 z "
     style="font-size:12;opacity:0.699936;fill:url(#linearGradient823);fill-rule:evenodd;stroke:none;stroke-width:0.0632452pt;"
     id="path991" />
  <path
     d="M 37.326633,14.343598 C 37.374130,12.244848 29.206204,5.6147440 24.070813,3.7389420 C 21.438756,2.7775313 7.3534450,8.2004129 7.3054680,8.4882176 C 7.2604380,8.7585604 21.197224,4.4656814 23.791719,5.4133632 C 28.964673,7.3028811 37.339656,14.620428 37.326633,14.343598 z "
     style="font-size:12;opacity:0.7;fill:url(#linearGradient586);fill-rule:evenodd;stroke:none;stroke-width:0.0632452pt;"
     id="path992"
     sodipodi:nodetypes="ccccc" />
  <path
     d="M 29.086206,24.879997 C 28.222403,25.476018 23.665549,26.602262 22.990160,26.109872 C 22.258983,25.475127 25.290280,22.230947 25.378903,17.679099 C 25.400560,16.544563 30.932934,16.623726 31.583237,17.509256 C 31.919081,18.022002 29.839249,24.260403 29.086206,24.879997 z "
     style="font-size:12;opacity:0.302675;fill-rule:evenodd;stroke-width:1.25;"
     id="path996" />
  <path
     d="M 30.310047,13.175571 C 30.210734,13.988382 24.420720,15.148069 23.340947,14.866167 C 22.115116,14.509761 15.176792,10.202396 15.290020,9.2875988 C 15.415242,8.1271546 21.268518,6.5863384 22.583996,6.7742053 C 23.917295,6.9463085 30.448017,12.182297 30.310047,13.175571 z "
     style="font-size:12;opacity:0.302675;fill-rule:evenodd;stroke-width:1.25;"
     id="path997" />
  <path
     d="M 30.299766,19.470037 C 30.537735,19.763797 30.932453,18.074024 30.578861,17.935096 C 29.630135,17.562376 26.439276,17.679647 26.392808,17.935096 C 26.346202,18.191294 29.142954,18.074708 30.299766,19.470037 z "
     style="font-size:12;opacity:0.302675;fill-rule:evenodd;stroke-width:1.25;"
     id="path999" />
  <path
     d="M 28.146529,12.267970 C 28.121784,12.020267 24.540731,8.4218744 22.425604,7.8028245 C 20.726781,7.3056142 16.681511,8.6873264 16.704675,8.9191291 C 16.727978,9.1524371 20.736513,8.6629971 22.565148,9.1982207 C 24.550465,9.7792984 28.168257,12.485378 28.146529,12.267970 z "
     style="font-size:12;opacity:0.302675;fill-rule:evenodd;stroke-width:1.25;"
     id="path1000" />
  <path
     d="M 29.086206,24.879997 C 28.222403,25.476018 23.665549,26.602262 22.990160,26.109872 C 22.258983,25.475127 25.290280,22.230947 25.378903,17.679099 C 25.400560,16.544563 30.932934,16.623726 31.583237,17.509256 C 31.919081,18.022002 29.839249,24.260403 29.086206,24.879997 z "
     style="font-size:12.000000;fill:url(#linearGradient794);fill-rule:evenodd;stroke:#261933;stroke-width:0.85342318;"
     id="path1005" />
  <path
     d="M 30.310047,13.175571 C 30.210734,13.988382 24.420720,15.148069 23.340947,14.866167 C 22.115116,14.509761 15.176792,10.202396 15.290020,9.2875988 C 15.415242,8.1271546 21.268518,6.5863384 22.583996,6.7742053 C 23.917295,6.9463085 30.448017,12.182297 30.310047,13.175571 z "
     style="font-size:12.000000;fill:url(#linearGradient795);fill-rule:evenodd;stroke:#261933;stroke-width:0.85674584;"
     id="path1006" />
  <path
     d="M 30.299766,19.470037 C 30.537735,19.763797 30.932453,18.074024 30.578861,17.935096 C 29.630135,17.562376 26.439276,17.679647 26.392808,17.935096 C 26.346202,18.191294 29.142954,18.074708 30.299766,19.470037 z "
     style="font-size:12;opacity:0.7;fill:url(#linearGradient790);fill-rule:evenodd;stroke:none;stroke-width:0.0632452pt;"
     id="path1008" />
  <path
     d="M 28.146529,12.267970 C 28.121784,12.020267 24.540731,8.4218744 22.425604,7.8028245 C 20.726781,7.3056142 16.681511,8.6873264 16.704675,8.9191291 C 16.727978,9.1524371 20.736513,8.6629971 22.565148,9.1982207 C 24.550465,9.7792984 28.168257,12.485378 28.146529,12.267970 z "
     style="font-size:12;opacity:0.699936;fill:url(#linearGradient587);fill-rule:evenodd;stroke:none;stroke-width:0.0632452pt;"
     id="path1009" />
</svg>
