<?xml version="1.0" encoding="UTF-8" standalone="no"?>
<!DOCTYPE svg PUBLIC "-//W3C//DTD SVG 20010904//EN"
"http://www.w3.org/TR/2001/REC-SVG-20010904/DTD/svg10.dtd">
<!-- Created with Inkscape (http://www.inkscape.org/) -->
<svg
   version="1.0"
   x="0.0000000"
   y="0.0000000"
   width="48.000000pt"
   height="48.000000pt"
   id="svg1"
   sodipodi:version="0.32"
   inkscape:version="0.38.1"
   sodipodi:docname="knode.svg"
   sodipodi:docbase="/home/dan/svg-icons/lila/gnome/scalable/apps"
   xmlns="http://www.w3.org/2000/svg"
   xmlns:inkscape="http://www.inkscape.org/namespaces/inkscape"
   xmlns:sodipodi="http://sodipodi.sourceforge.net/DTD/sodipodi-0.dtd"
   xmlns:xlink="http://www.w3.org/1999/xlink">
  <sodipodi:namedview
     id="base"
     pagecolor="#ffffff"
     bordercolor="#666666"
     borderopacity="1.0"
     inkscape:pageopacity="0.0"
     inkscape:pageshadow="2"
     inkscape:zoom="8.0000000"
     inkscape:cx="32.371359"
     inkscape:cy="19.528984"
     inkscape:window-width="1018"
     inkscape:window-height="714"
     inkscape:window-x="0"
     inkscape:window-y="29" />
  <defs
     id="defs3">
    <linearGradient
       id="linearGradient652">
      <stop
         style="stop-color:#ffffff;stop-opacity:1.0000000;"
         offset="0.0000000"
         id="stop653" />
      <stop
         style="stop-color:#ffffff;stop-opacity:0.0000000;"
         offset="1.0000000"
         id="stop654" />
    </linearGradient>
    <linearGradient
       id="linearGradient872">
      <stop
         style="stop-color:#a792b5;stop-opacity:1.0000000;"
         offset="0.0000000"
         id="stop873" />
      <stop
         style="stop-color:#73667f;stop-opacity:1.0000000;"
         offset="1.0000000"
         id="stop874" />
    </linearGradient>
    <linearGradient
       id="linearGradient646">
      <stop
         style="stop-color:#ffffff;stop-opacity:1.0000000;"
         offset="0.0000000"
         id="stop647" />
      <stop
         style="stop-color:#d9cce6;stop-opacity:1.0000000;"
         offset="1.0000000"
         id="stop648" />
    </linearGradient>
    <linearGradient
       id="linearGradient584">
      <stop
         style="stop-color:#ffffff;stop-opacity:1;"
         offset="0.00000000"
         id="stop585" />
      <stop
         style="stop-color:#ffffff;stop-opacity:0;"
         offset="1.00000000"
         id="stop586" />
    </linearGradient>
    <linearGradient
       id="linearGradient866">
      <stop
         style="stop-color:#ffffff;stop-opacity:1;"
         offset="0.00000000"
         id="stop867" />
      <stop
         style="stop-color:#d9cce6;stop-opacity:1;"
         offset="1.00000000"
         id="stop868" />
    </linearGradient>
    <linearGradient
       xlink:href="#linearGradient866"
       id="linearGradient586" />
    <linearGradient
       xlink:href="#linearGradient866"
       id="linearGradient587"
       x1="-0.00000000"
       y1="0.00000000"
       x2="1.00000000"
       y2="0.00000000" />
    <linearGradient
       id="linearGradient570">
      <stop
         style="stop-color:#ffffff;stop-opacity:1.0000000;"
         offset="0.0000000"
         id="stop571" />
      <stop
         style="stop-color:#ffffff;stop-opacity:0.0000000;"
         offset="1.0000000"
         id="stop572" />
    </linearGradient>
    <linearGradient
       id="linearGradient649"
       xlink:href="#linearGradient872"
       x1="0.0096153850"
       y1="0.023437500"
       x2="0.94711536"
       y2="0.89843750" />
    <linearGradient
       id="linearGradient651"
       xlink:href="#linearGradient652"
       x1="0.010752688"
       y1="0.015625000"
       x2="1.0053763"
       y2="1.0000000" />
    <linearGradient
       id="linearGradient656"
       xlink:href="#linearGradient652"
       x1="-0.27941176"
       y1="-0.30468750"
       x2="0.95220590"
       y2="0.98437500" />
    <linearGradient
       x1="0.015757000"
       y1="0.039053999"
       x2="0.99212599"
       y2="0.97656202"
       id="linearGradient658"
       xlink:href="#linearGradient652" />
    <linearGradient
       x1="0.071428567"
       y1="0.062500007"
       x2="0.98214287"
       y2="0.95312500"
       id="linearGradient663"
       xlink:href="#linearGradient646" />
    <linearGradient
       x1="0.035714172"
       y1="0.10156250"
       x2="0.98214293"
       y2="0.97656244"
       id="linearGradient664"
       xlink:href="#linearGradient646" />
    <linearGradient
       x1="0.089285612"
       y1="0.085937440"
       x2="0.98214304"
       y2="0.96093750"
       id="linearGradient665"
       xlink:href="#linearGradient646" />
    <linearGradient
       x1="0.044642739"
       y1="0.093749940"
       x2="1.0089288"
       y2="0.99218732"
       id="linearGradient666"
       xlink:href="#linearGradient646" />
    <linearGradient
       x1="0.0097120004"
       y1="0.0078119999"
       x2="0.99029100"
       y2="0.96875000"
       id="linearGradient668"
       xlink:href="#linearGradient652" />
    <linearGradient
       x1="47.378834"
       y1="15.255445"
       x2="124.07145"
       y2="92.059898"
       id="linearGradient1061"
       xlink:href="#linearGradient646"
       gradientUnits="userSpaceOnUse"
       gradientTransform="scale(0.951960,1.050464)"
       spreadMethod="pad" />
    <linearGradient
       x1="19.473392"
       y1="16.373957"
       x2="117.50826"
       y2="88.331528"
       id="linearGradient1063"
       xlink:href="#linearGradient872"
       gradientUnits="userSpaceOnUse"
       gradientTransform="scale(0.951960,1.050464)"
       spreadMethod="pad" />
    <linearGradient
       x1="-0.022222223"
       y1="-0.025974026"
       x2="0.73333335"
       y2="0.75974023"
       id="linearGradient573"
       xlink:href="#linearGradient570" />
  </defs>
  <path
     style="font-size:12;fill:#000000;fill-opacity:0.30000001;fill-rule:evenodd;stroke:none;stroke-width:1.8750000;stroke-linejoin:round;stroke-dasharray:none;"
     d="M 30.572573,12.266493 C 23.916065,13.825956 12.930896,24.266238 7.3538228,31.735243 C 4.4753331,35.182475 4.3038944,42.047743 6.8225728,42.047743 C 17.616909,46.233669 28.403237,50.441588 39.197573,51.672743 C 38.747810,49.620816 36.687361,44.104533 38.666323,40.328993 C 38.871679,39.744820 39.321866,39.085190 39.666323,38.453993 C 37.633629,43.336633 37.878896,50.904668 40.572573,51.672743 C 44.170685,52.657666 45.585142,49.688916 48.103823,48.703993 C 45.045427,44.435990 45.765051,42.143321 48.103823,38.860243 C 52.241652,33.935624 54.778493,30.487436 58.916323,26.547743 C 58.736420,24.085434 59.635947,17.680282 58.916323,18.172743 C 58.739885,18.258987 58.621048,18.366842 58.447573,18.453993 C 59.163737,17.707387 59.570293,17.175639 59.166323,17.203993 C 55.028493,15.069992 41.187003,12.430647 30.572573,12.266493 z "
     id="path1225" />
  <path
     style="font-size:12;fill:url(#linearGradient587);fill-opacity:0.75;fill-rule:evenodd;stroke:#261933;stroke-width:1.8750000;stroke-dasharray:none;"
     d="M 56.939815,16.630493 C 57.659439,16.138032 56.759912,22.540035 56.939815,25.002344 C 52.801985,28.942039 50.283307,32.389272 46.145478,37.313891 C 43.806705,40.596970 43.087083,42.895124 46.145479,47.163127 C 43.626800,48.148051 42.187556,51.102821 38.589444,50.117898 C 35.710954,49.297128 35.531048,40.596969 38.049727,35.836505 C 41.647840,27.957115 46.865103,21.555111 56.939815,16.630493 z "
     id="path634"
     sodipodi:nodetypes="ccccccc" />
  <path
     style="font-size:12;fill:url(#linearGradient586);fill-opacity:0.75;fill-rule:evenodd;stroke:#261933;stroke-width:1.8750000;stroke-linejoin:round;stroke-dasharray:none;"
     d="M 28.604683,10.720951 C 21.948175,12.280414 10.973934,22.704189 5.3968603,30.173194 C 2.5183707,33.620427 2.3384652,40.514892 4.8571436,40.514892 C 15.651480,44.700818 26.445815,48.886743 37.240151,50.117898 C 36.790387,48.065974 34.721473,42.566816 36.700435,38.791276 C 39.758830,30.091117 59.548447,15.481416 57.209673,15.645570 C 53.071845,13.511568 39.219113,10.885105 28.604683,10.720951 z "
     id="path633"
     sodipodi:nodetypes="ccccccc" />
  <path
     style="font-size:12;fill:none;fill-opacity:0.75;fill-rule:evenodd;stroke:#261933;stroke-width:1.8750000;stroke-linecap:round;stroke-dasharray:none;"
     d="M 30.223833,14.660646 C 36.700434,14.906877 44.256470,16.630493 49.653638,18.354109"
     id="path635"
     sodipodi:nodetypes="cc" />
  <path
     style="fill:url(#linearGradient649);fill-opacity:1.00000000;fill-rule:evenodd;stroke:#261933;stroke-width:1.0207343pt;"
     d="M 37.240445,19.743146 C 35.964171,19.805449 29.550501,25.527180 29.509398,26.797302 C 29.414159,27.570086 36.886524,29.719958 37.695213,29.287003 C 38.836171,28.601936 44.713093,22.682235 44.971492,21.817898 C 45.163854,21.076441 38.438362,19.691096 37.240445,19.743146 z "
     id="path636"
     sodipodi:nodetypes="cssss" />
  <path
     style="font-size:12;fill:none;fill-opacity:0.75;fill-rule:evenodd;stroke:#261933;stroke-width:0.666466;"
     d="M 35.081284,18.600341 C 28.784588,23.689113 23.567326,29.270347 21.048648,33.866657 C 19.249592,37.149736 19.069686,40.925277 20.508931,43.715894"
     id="path637"
     sodipodi:nodetypes="ccc" />
  <path
     style="font-size:12;fill:none;fill-opacity:0.75;fill-rule:evenodd;stroke:#261933;stroke-width:1.33293;stroke-linecap:round;"
     d="M 22.667798,17.246071 L 31.842984,18.969687"
     id="path639" />
  <path
     style="font-size:12;fill:none;fill-opacity:0.75;fill-rule:evenodd;stroke:#261933;stroke-width:1.33293;stroke-linecap:round;"
     d="M 20.239072,19.462149 L 29.414258,21.185765"
     id="path640" />
  <path
     style="font-size:12;fill:none;fill-opacity:0.75;fill-rule:evenodd;stroke:#261933;stroke-width:1.33293;stroke-linecap:round;"
     d="M 17.810347,21.924458 L 26.985533,23.648074"
     id="path641" />
  <path
     style="font-size:12;fill:none;fill-opacity:0.75;fill-rule:evenodd;stroke:#261933;stroke-width:1.33293;stroke-linecap:round;"
     d="M 15.516550,24.509881 L 22.263011,25.987267"
     id="path642" />
  <path
     style="font-size:12;fill:none;fill-opacity:0.75;fill-rule:evenodd;stroke:#261933;stroke-width:1.33293;stroke-linecap:round;"
     d="M 13.087825,27.095307 L 21.723293,29.311385"
     id="path643"
     sodipodi:nodetypes="cc" />
  <path
     style="font-size:12;fill:none;fill-opacity:0.75;fill-rule:evenodd;stroke:#261933;stroke-width:1.33293;stroke-linecap:round;"
     d="M 10.928957,29.557616 L 19.564426,31.773694"
     id="path644"
     sodipodi:nodetypes="cc" />
  <path
     style="font-size:12;fill:none;fill-opacity:0.75;fill-rule:evenodd;stroke:#261933;stroke-width:1.33293;stroke-linecap:round;"
     d="M 9.0399490,32.266157 L 17.675418,34.482235"
     id="path645"
     sodipodi:nodetypes="cc" />
  <path
     style="font-size:12;fill:none;fill-opacity:0.75;fill-rule:evenodd;stroke:#261933;stroke-width:1.33293;stroke-linecap:round;"
     d="M 8.3653030,35.220927 L 17.000772,37.929467"
     id="path646"
     sodipodi:nodetypes="cc" />
  <path
     style="font-size:12;fill:none;fill-opacity:0.75;fill-rule:evenodd;stroke:#261933;stroke-width:1.33293;stroke-linecap:round;"
     d="M 8.7700900,38.545045 L 17.405559,41.499816"
     id="path647"
     sodipodi:nodetypes="cc" />
  <path
     style="font-size:12;fill:none;fill-opacity:0.75;fill-rule:evenodd;stroke:#261933;stroke-width:1.33293;stroke-linecap:round;"
     d="M 27.390320,29.065153 L 34.406639,31.281232"
     id="path648"
     sodipodi:nodetypes="cc" />
  <path
     style="font-size:12;fill:none;fill-opacity:0.75;fill-rule:evenodd;stroke:#261933;stroke-width:1.33293;stroke-linecap:round;"
     d="M 25.771169,31.650579 L 34.676497,34.851581"
     id="path649"
     sodipodi:nodetypes="cc" />
  <path
     style="font-size:12;fill:none;fill-opacity:0.75;fill-rule:evenodd;stroke:#261933;stroke-width:1.33293;stroke-linecap:round;"
     d="M 23.882161,34.112888 L 31.168338,36.575197"
     id="path650"
     sodipodi:nodetypes="cc" />
  <path
     style="font-size:12;fill:none;fill-opacity:0.75;fill-rule:evenodd;stroke:#261933;stroke-width:1.33293;stroke-linecap:round;"
     d="M 22.532869,37.313890 L 32.247771,40.268661"
     id="path651"
     sodipodi:nodetypes="cc" />
  <path
     style="font-size:12;fill:none;fill-opacity:0.75;fill-rule:evenodd;stroke:#261933;stroke-width:1.33293;stroke-linecap:round;"
     d="M 21.858223,40.268661 L 29.684116,42.484739"
     id="path652"
     sodipodi:nodetypes="cc" />
  <path
     style="font-size:12;fill:none;fill-opacity:0.75;fill-rule:evenodd;stroke:#261933;stroke-width:1.33293;stroke-linecap:round;"
     d="M 22.263010,43.100317 L 32.247771,46.055088"
     id="path653"
     sodipodi:nodetypes="cc" />
  <path
     style="font-size:12;fill:none;fill-opacity:0.75;fill-rule:evenodd;stroke:#261933;stroke-width:0.666466;"
     d="M 55.706284,21.725341 C 49.409588,26.814113 43.254826,33.332847 40.736148,37.929157 C 38.937092,41.212236 39.069686,46.237777 40.508931,49.028394"
     id="path654"
     sodipodi:nodetypes="ccc" />
  <path
     style="font-size:12;fill:none;fill-opacity:0.75;fill-rule:evenodd;stroke:#261933;stroke-width:0.666466;"
     d="M 56.643784,22.506591 C 50.347088,27.595363 45.129826,33.176597 42.611148,37.772907 C 40.812092,41.055986 40.632186,45.456527 43.008931,48.247144"
     id="path655"
     sodipodi:nodetypes="ccc" />
  <path
     style="fill:url(#linearGradient651);fill-rule:evenodd;stroke:none;stroke-opacity:1;stroke-width:1pt;stroke-linejoin:miter;stroke-linecap:butt;fill-opacity:1;"
     d="M 4.6875000,38.125000 C 4.5511471,37.988647 4.9192576,34.270724 5.9375000,32.812500 C 9.1380076,28.229057 13.131108,23.800215 17.343750,20.000000 C 20.579025,17.081465 24.259429,13.699887 28.281250,12.656250 C 32.488596,11.564470 42.057174,13.412283 42.031250,13.593750 C 42.005091,13.776866 32.329159,12.412313 28.125000,13.750000 C 24.308326,14.964396 21.040611,18.402363 17.968750,21.250000 C 13.905194,25.016946 10.131218,29.257908 6.7187500,33.593750 C 5.7041351,34.882908 4.8115638,38.249064 4.6875000,38.125000 z "
     id="path1221"
     sodipodi:nodetypes="cssssssss" />
  <path
     style="fill:url(#linearGradient656);fill-rule:evenodd;stroke:none;stroke-opacity:1;stroke-width:1pt;stroke-linejoin:miter;stroke-linecap:butt;fill-opacity:1;"
     d="M 30.800870,26.640265 C 30.760565,26.458897 34.778407,21.973621 37.151639,21.112743 C 38.777040,20.523138 42.756321,22.106796 42.796768,22.288811 C 42.834723,22.459616 39.005167,21.584168 37.386853,22.171204 C 35.006534,23.034653 30.838971,26.811717 30.800870,26.640265 z "
     id="path1222"
     sodipodi:nodetypes="cssss" />
</svg>
