<?xml version="1.0" encoding="UTF-8" standalone="no"?>
<!DOCTYPE svg PUBLIC "-//W3C//DTD SVG 20010904//EN"
"http://www.w3.org/TR/2001/REC-SVG-20010904/DTD/svg10.dtd">
<!-- Created with Inkscape (http://www.inkscape.org/) -->
<svg
   version="1.0"
   x="0"
   y="0"
   width="48pt"
   height="48pt"
   id="svg1"
   sodipodi:version="0.32"
   inkscape:version="0.38.1"
   sodipodi:docname="liferea.svg"
   sodipodi:docbase="/home/ed"
   xmlns="http://www.w3.org/2000/svg"
   xmlns:inkscape="http://www.inkscape.org/namespaces/inkscape"
   xmlns:sodipodi="http://sodipodi.sourceforge.net/DTD/sodipodi-0.dtd"
   xmlns:xlink="http://www.w3.org/1999/xlink">
  <sodipodi:namedview
     id="base"
     pagecolor="#ffffff"
     bordercolor="#666666"
     borderopacity="1.0"
     inkscape:pageopacity="0.0"
     inkscape:pageshadow="2"
     inkscape:zoom="11.313708"
     inkscape:cx="21.987967"
     inkscape:cy="21.000002"
     inkscape:window-width="1592"
     inkscape:window-height="935"
     inkscape:window-x="0"
     inkscape:window-y="27"
     showguides="true"
     snaptoguides="true"
     guidetolerance="1.0000000px" />
  <defs
     id="defs3">
    <linearGradient
       id="linearGradient849">
      <stop
         style="stop-color:#ffffff;stop-opacity:1.0000000;"
         offset="0.0000000"
         id="stop850" />
      <stop
         style="stop-color:#d9cce6;stop-opacity:1.0000000;"
         offset="1.0000000"
         id="stop851" />
    </linearGradient>
    <linearGradient
       id="linearGradient570">
      <stop
         style="stop-color:#ffffff;stop-opacity:1;"
         offset="0"
         id="stop571" />
      <stop
         style="stop-color:#ffffff;stop-opacity:0;"
         offset="1"
         id="stop572" />
    </linearGradient>
    <linearGradient
       id="linearGradient563">
      <stop
         style="stop-color:#d9cce6;stop-opacity:1.0000000;"
         offset="0.0000000"
         id="stop564" />
      <stop
         style="stop-color:#73667f;stop-opacity:1.0000000;"
         offset="1.0000000"
         id="stop565" />
    </linearGradient>
    <linearGradient
       id="linearGradient566"
       xlink:href="#linearGradient570" />
    <linearGradient
       x1="0.006536"
       y1="0.015625"
       x2="0.849673"
       y2="0.867188"
       id="linearGradient569"
       xlink:href="#linearGradient570" />
    <linearGradient
       id="linearGradient573"
       xlink:href="#linearGradient563"
       x1="-2.0729946e-16"
       y1="0.50000000"
       x2="1.0000000"
       y2="0.50000000" />
    <linearGradient
       id="linearGradient575"
       xlink:href="#linearGradient570"
       x1="1.9342167e-16"
       y1="0.50000000"
       x2="1.0000000"
       y2="0.50000000" />
    <linearGradient
       id="linearGradient578"
       xlink:href="#linearGradient849"
       x1="-3.2932641e-18"
       y1="0.50000000"
       x2="1.0000000"
       y2="0.50000000" />
    <linearGradient
       xlink:href="#linearGradient570"
       id="linearGradient996" />
  </defs>
  <rect
     style="fill-opacity:0.29999998;fill-rule:evenodd;stroke-width:1.8750000;"
     id="rect852"
     width="51.044270"
     height="46.321594"
     rx="1.4363106"
     x="7.1893268"
     y="9.7228031"
     ry="1.7677670" />
  <rect
     style="fill:url(#linearGradient578);fill-opacity:0.55645162;fill-rule:evenodd;stroke:#000000;stroke-width:1.8750000;"
     id="rect992"
     width="51.044270"
     height="46.321594"
     rx="0.77339804"
     x="3.6460195"
     y="6.1794958"
     ry="0.77339798" />
  <rect
     style="fill:#000000;fill-opacity:1.0000000;fill-rule:evenodd;stroke:none;stroke-width:1.0841084;"
     id="rect994"
     width="51.044270"
     height="13.852549"
     rx="0.0000000"
     x="3.6460195"
     y="39.318289" />
  <path
     style="fill:#000000;fill-opacity:0.30000001;fill-rule:evenodd;stroke:none;stroke-width:2.3963101;stroke-dasharray:none;"
     d="M 29.545357,32.204397 C 31.249319,33.135844 33.124690,34.281213 34.848043,36.967353 C 34.694541,38.433478 34.972023,39.727447 35.707122,41.009665 C 37.573640,44.265391 41.730828,45.392866 45.027976,43.502431 C 48.313715,41.592236 49.415886,37.428266 47.529611,34.183950 C 46.786726,32.906226 45.804850,32.018937 44.458405,31.418806 C 42.993817,28.583271 42.939577,26.386469 43.004951,24.443723 C 42.970140,22.500976 43.024379,20.304173 44.488967,17.468638 C 45.835412,16.868507 46.817289,15.981219 47.560173,14.703494 C 49.446448,11.459178 48.344277,7.2952080 45.058538,5.3850133 C 41.761391,3.4945787 37.604202,4.6220536 35.737684,7.8777795 C 35.002585,9.1599969 34.725104,10.453967 34.878606,11.920091 C 33.155253,14.606231 31.279884,15.751600 29.585370,16.693174 C 27.940945,17.721502 26.011341,18.772935 22.823401,18.922330 C 21.630448,18.056337 20.371097,17.649656 18.893114,17.645162 C 15.140313,17.633752 12.085296,20.670247 12.073888,24.470878 C 12.085296,28.271508 15.140313,31.308002 18.893114,31.296592 C 20.371097,31.292099 21.630448,30.885417 22.823401,30.019424 C 26.011341,30.168819 27.940945,31.220252 29.545357,32.204397 z M 40.374641,24.382593 C 40.403944,26.087838 40.292327,27.694559 39.802301,29.209864 C 39.570687,29.964796 39.244685,30.704103 38.898904,31.401590 C 38.675482,31.481805 38.464063,31.591518 38.229406,31.726963 C 37.994779,31.862458 37.794057,31.990693 37.612880,32.144073 C 36.835943,32.094791 36.032685,32.007461 35.263095,31.830576 C 33.705787,31.497304 32.258513,30.790606 30.892883,29.930278 C 29.467384,29.173645 28.131730,28.273622 27.064454,27.091589 C 26.526469,26.513542 26.049209,25.861566 25.618063,25.213361 C 25.660305,24.979765 25.670998,24.741818 25.671027,24.470878 C 25.670998,24.199937 25.660305,23.961989 25.618063,23.728394 C 26.049209,23.080189 26.526469,22.428212 27.064454,21.850166 C 28.131730,20.668133 29.467384,19.768109 30.908166,18.984322 C 32.289078,18.096839 33.736349,17.390140 35.293658,17.056869 C 36.063247,16.879983 36.866506,16.792653 37.643442,16.743372 C 37.824619,16.896751 38.025342,17.024986 38.259968,17.160482 C 38.494626,17.295926 38.706045,17.405639 38.929466,17.485855 C 39.275248,18.183341 39.601249,18.922648 39.832863,19.677581 C 40.322890,21.192885 40.434507,22.799607 40.374641,24.382593 z "
     id="path1010" />
  <path
     style="font-size:12.000000;fill:#ffffff;stroke-width:3.0000000pt;font-family:Radio Stars;"
     d="M 16.340700,44.918384 L 16.340700,43.642147 L 9.8637959,43.642147 L 9.8637959,44.918384 L 16.340700,44.918384 z M 18.478398,46.003186 C 18.478398,46.726387 18.122115,47.087988 17.409549,47.087988 L 14.394438,47.087988 C 15.000651,47.332600 16.138629,47.789918 17.808373,48.459943 C 18.265692,48.640743 18.494351,48.959803 18.494351,49.417121 C 18.494351,49.704274 18.393315,49.964839 18.191245,50.198816 C 17.999809,50.422158 17.755197,50.533829 17.457408,50.533829 C 17.308514,50.533829 17.159619,50.501923 17.010725,50.438111 L 9.8637959,47.566577 L 9.8637959,49.449027 C 9.8637959,49.789357 9.7574428,50.055240 9.5447365,50.246675 C 9.3320303,50.427476 9.0821005,50.517876 8.7949471,50.517876 C 8.5077937,50.517876 8.2578638,50.427476 8.0451576,50.246675 C 7.8324514,50.055240 7.7260983,49.789357 7.7260983,49.449027 L 7.7260983,42.557345 C 7.7260983,41.834144 8.0823812,41.472543 8.7949471,41.472543 L 17.409549,41.472543 C 18.122115,41.472543 18.478398,41.834144 18.478398,42.557345 L 18.478398,46.003186 z "
     id="path1022" />
  <path
     style="font-size:12.000000;fill:#ffffff;stroke-width:3.0000000pt;font-family:Radio Stars;"
     d="M 33.100924,48.364226 C 33.079653,47.726107 32.856311,47.077353 32.430899,46.417964 C 32.058663,45.854293 31.585392,45.349115 31.011085,44.902432 C 29.894377,44.062243 28.697905,43.642148 27.421667,43.642148 L 26.639972,43.642148 L 26.639972,48.364226 L 33.100924,48.364226 z M 35.254574,49.449028 C 35.254574,50.172229 34.892974,50.533830 34.169772,50.533830 L 24.486321,50.533830 L 24.486321,41.472544 L 26.639972,41.472544 C 29.213717,41.472544 31.282285,42.169157 32.845676,43.562383 C 34.451608,44.998150 35.254574,46.960365 35.254574,49.449028 z "
     id="path1025" />
  <path
     style="font-size:12.000000;fill:#ffffff;fill-opacity:1.0000000;stroke-width:3.0000000pt;font-family:Radio Stars;"
     d="M 50.929998,47.087989 L 43.384245,47.087989 L 43.384245,49.449028 C 43.384245,49.789358 43.277892,50.055241 43.065185,50.246676 C 42.852479,50.427477 42.602549,50.517877 42.315396,50.517877 C 42.028242,50.517877 41.778313,50.427477 41.565606,50.246676 C 41.352900,50.055241 41.246547,49.789358 41.246547,49.449028 L 41.246547,42.557346 C 41.246547,41.834145 41.602830,41.472544 42.315396,41.472544 L 50.929998,41.472544 C 51.270328,41.472544 51.536211,41.578897 51.727647,41.791604 C 51.919082,42.004310 52.014800,42.259557 52.014800,42.557346 C 52.014800,42.855135 51.919082,43.110382 51.727647,43.323088 C 51.536211,43.535795 51.270328,43.642148 50.929998,43.642148 L 43.384245,43.642148 L 43.384245,44.918385 L 50.929998,44.918385 C 51.270328,44.918385 51.536211,45.024738 51.727647,45.237444 C 51.919082,45.450151 52.014800,45.705398 52.014800,46.003187 C 52.014800,46.300976 51.919082,46.556223 51.727647,46.768929 C 51.536211,46.981636 51.270328,47.087989 50.929998,47.087989 z "
     id="path1015" />
  <path
     style="fill:url(#linearGradient573);fill-opacity:1.00000000;fill-rule:evenodd;stroke:#261933;stroke-width:2.3963101;stroke-dasharray:none;"
     d="M 69.510699,68.799839 C 71.688417,69.990258 74.085201,71.454076 76.287701,74.887049 C 76.091521,76.760803 76.446151,78.414538 77.385631,80.053253 C 79.771101,84.214175 85.084121,85.655125 89.297981,83.239088 C 93.497261,80.797798 94.905871,75.476111 92.495151,71.329771 C 91.545721,69.696798 90.290851,68.562815 88.570051,67.795828 C 86.698261,64.171924 86.628941,61.364340 86.712491,58.881448 C 86.668001,56.398555 86.737321,53.590971 88.609111,49.967067 C 90.329911,49.200080 91.584781,48.066097 92.534211,46.433124 C 94.944931,42.286784 93.536321,36.965097 89.337041,34.523807 C 85.123181,32.107771 79.810161,33.548720 77.424691,37.709642 C 76.485211,39.348357 76.130581,41.002092 76.326761,42.875846 C 74.124261,46.308819 71.727480,47.772637 69.561837,48.975998 C 67.460208,50.290235 64.994113,51.634000 60.919823,51.824932 C 59.395191,50.718165 57.785701,50.198413 55.896791,50.192670 C 51.100591,50.178088 47.196181,54.058825 47.181601,58.916153 C 47.196181,63.773480 51.100591,67.654217 55.896791,67.639635 C 57.785701,67.633892 59.395191,67.114140 60.919823,66.007373 C 64.994113,66.198305 67.460208,67.542070 69.510699,68.799839 z M 83.350871,58.803322 C 83.388321,60.982680 83.245671,63.036121 82.619401,64.972729 C 82.323391,65.937557 81.906751,66.882415 81.464831,67.773825 C 81.179291,67.876343 80.909091,68.016560 80.609191,68.189662 C 80.309331,68.362830 80.052801,68.526718 79.821251,68.722742 C 78.828301,68.659759 77.801711,68.548148 76.818151,68.322083 C 74.827861,67.896151 72.978199,66.992968 71.232880,65.893441 C 69.411046,64.926441 67.704038,63.776182 66.340025,62.265506 C 65.652463,61.526744 65.042510,60.693497 64.491491,59.865070 C 64.545477,59.566528 64.559143,59.262423 64.559181,58.916153 C 64.559143,58.569882 64.545477,58.265777 64.491491,57.967235 C 65.042510,57.138808 65.652463,56.305561 66.340025,55.566799 C 67.704038,54.056123 69.411046,52.905864 71.252412,51.904159 C 73.017262,50.769927 74.866921,49.866744 76.857211,49.440812 C 77.840771,49.214747 78.867361,49.103136 79.860311,49.040153 C 80.091861,49.236177 80.348391,49.400065 80.648251,49.573233 C 80.948151,49.746335 81.218351,49.886552 81.503891,49.989070 C 81.945811,50.880480 82.362451,51.825338 82.658461,52.790166 C 83.284731,54.726774 83.427381,56.780215 83.350871,58.803322 z "
     id="path973"
     transform="matrix(0.782453,0.000000,0.000000,0.782453,-26.72175,-23.39601)" />
  <path
     style="fill:url(#linearGradient575);fill-opacity:1.00000000;fill-rule:evenodd;stroke-width:3.0000000pt;"
     d="M 56.375231,51.738822 C 54.540860,51.618989 52.646427,52.181605 51.156481,53.488822 C 51.115728,53.524577 50.941996,53.685473 50.898647,53.734905 C 48.161117,56.380776 47.963021,60.753196 50.500231,63.645072 L 50.593981,63.551322 C 49.556417,61.226913 49.749737,58.551219 51.125231,56.426322 C 51.465652,56.724852 51.887220,56.957572 52.375231,56.957572 C 53.442902,56.957572 54.312730,56.087744 54.312731,55.020072 C 54.312731,54.607176 54.095935,54.271817 53.875231,53.957572 C 56.252122,52.747072 59.094914,52.906235 61.343981,54.363822 L 61.437731,54.301322 C 61.392898,54.247259 61.359049,54.197867 61.312731,54.145072 C 60.005514,52.655126 58.209602,51.858655 56.375231,51.738822 z "
     id="path982"
     sodipodi:nodetypes="ccccccccccccc"
     transform="matrix(0.782453,0.000000,0.000000,0.782453,-26.72175,-23.39601)" />
  <path
     style="fill:url(#linearGradient575);fill-opacity:1.00000000;fill-rule:evenodd;stroke-width:3.0000000pt;"
     d="M 85.432901,34.503094 C 83.598531,34.383261 81.704101,34.945877 80.214151,36.253094 C 80.173401,36.288849 79.999661,36.449745 79.956321,36.499177 C 77.218791,39.145048 77.020691,43.517468 79.557901,46.409344 L 79.651651,46.315594 C 78.614091,43.991185 78.807411,41.315491 80.182901,39.190594 C 80.523321,39.489124 80.944891,39.721844 81.432901,39.721844 C 82.500571,39.721844 83.370401,38.852016 83.370401,37.784344 C 83.370401,37.371448 83.153601,37.036089 82.932901,36.721844 C 85.309791,35.511344 88.152581,35.670507 90.401651,37.128094 L 90.495401,37.065594 C 90.450571,37.011531 90.416721,36.962139 90.370401,36.909344 C 89.063181,35.419398 87.267271,34.622927 85.432901,34.503094 z "
     id="path985"
     sodipodi:nodetypes="ccccccccccccc"
     transform="matrix(0.782453,0.000000,0.000000,0.782453,-26.72175,-23.39601)" />
  <path
     style="fill:url(#linearGradient575);fill-opacity:1.00000000;fill-rule:evenodd;stroke-width:3.0000000pt;"
     d="M 85.101441,68.422122 C 83.267071,68.302289 81.372641,68.864905 79.882691,70.172122 C 79.841941,70.207877 79.668201,70.368773 79.624861,70.418205 C 76.887331,73.064076 76.689231,77.436496 79.226441,80.328372 L 79.320191,80.234622 C 78.282631,77.910213 78.475951,75.234519 79.851441,73.109622 C 80.191861,73.408152 80.613431,73.640872 81.101441,73.640872 C 82.169111,73.640872 83.038941,72.771044 83.038941,71.703372 C 83.038941,71.290476 82.822141,70.955117 82.601441,70.640872 C 84.978331,69.430372 87.821121,69.589535 90.070191,71.047122 L 90.163941,70.984622 C 90.119111,70.930559 90.085261,70.881167 90.038941,70.828372 C 88.731721,69.338426 86.935811,68.541955 85.101441,68.422122 z "
     id="path986"
     sodipodi:nodetypes="ccccccccccccc"
     transform="matrix(0.782453,0.000000,0.000000,0.782453,-26.72175,-23.39601)" />
</svg>
