<?xml version="1.0" encoding="UTF-8" standalone="no"?>
<!DOCTYPE svg PUBLIC "-//W3C//DTD SVG 20010904//EN"
"http://www.w3.org/TR/2001/REC-SVG-20010904/DTD/svg10.dtd">
<!-- Created with Inkscape (http://www.inkscape.org/) -->
<svg
   version="1.0"
   x="0"
   y="0"
   width="48pt"
   height="48pt"
   id="svg611"
   sodipodi:version="0.32"
   inkscape:version="0.38.1"
   sodipodi:docname="login-photo.svg"
   sodipodi:docbase="/home/scaba/files/lila-artwork/devel/icons"
   xmlns="http://www.w3.org/2000/svg"
   xmlns:inkscape="http://www.inkscape.org/namespaces/inkscape"
   xmlns:sodipodi="http://sodipodi.sourceforge.net/DTD/sodipodi-0.dtd"
   xmlns:xlink="http://www.w3.org/1999/xlink">
  <sodipodi:namedview
     id="base"
     pagecolor="#ffffff"
     bordercolor="#666666"
     borderopacity="1.0"
     inkscape:pageopacity="0.0"
     inkscape:pageshadow="2"
     inkscape:zoom="5.6568540"
     inkscape:cx="20.674213"
     inkscape:cy="14.618815"
     inkscape:window-width="537"
     inkscape:window-height="526"
     inkscape:window-x="63"
     inkscape:window-y="114"
     showguides="true"
     snaptoguides="true"
     showgrid="false"
     snaptogrid="false" />
  <defs
     id="defs613">
    <linearGradient
       id="linearGradient1535">
      <stop
         style="stop-color:#ffffff;stop-opacity:1;"
         offset="0"
         id="stop1537" />
      <stop
         style="stop-color:#ffffff;stop-opacity:0;"
         offset="1"
         id="stop1536" />
    </linearGradient>
    <linearGradient
       id="linearGradient1528">
      <stop
         style="stop-color:#d9cce6;stop-opacity:1.0000000;"
         offset="0.0000000"
         id="stop1530" />
      <stop
         style="stop-color:#73667f;stop-opacity:1.0000000;"
         offset="1.0000000"
         id="stop1529" />
    </linearGradient>
    <linearGradient
       id="linearGradient642">
      <stop
         style="stop-color:#ffffff;stop-opacity:1;"
         offset="0"
         id="stop643" />
      <stop
         style="stop-color:#ffffff;stop-opacity:0;"
         offset="1"
         id="stop644" />
    </linearGradient>
    <linearGradient
       id="linearGradient635">
      <stop
         style="stop-color:#ffffff;stop-opacity:1.0000000;"
         offset="0.0000000"
         id="stop636" />
      <stop
         style="stop-color:#d9cce6;stop-opacity:1.0000000;"
         offset="1.0000000"
         id="stop637" />
    </linearGradient>
    <linearGradient
       id="linearGradient638"
       xlink:href="#linearGradient642"
       x1="0.020547945"
       y1="0.039062500"
       x2="0.96575344"
       y2="0.95312500" />
    <linearGradient
       id="linearGradient641"
       xlink:href="#linearGradient1528"
       x1="0.90540540"
       y1="0.93333334"
       x2="0.24324325"
       y2="0.21333334" />
    <linearGradient
       id="linearGradient1522"
       xlink:href="#linearGradient635" />
    <linearGradient
       id="linearGradient1527"
       xlink:href="#linearGradient635"
       x1="-2.8189256e-16"
       y1="0.50000000"
       x2="1.0000000"
       y2="0.50000000" />
    <linearGradient
       id="linearGradient1532"
       xlink:href="#linearGradient635"
       x1="-7.7412035e-17"
       y1="0.50000000"
       x2="1.0000000"
       y2="0.50000000" />
    <linearGradient
       id="linearGradient1534"
       xlink:href="#linearGradient635"
       x1="6.1257423e-17"
       y1="0.50000000"
       x2="1.0000000"
       y2="0.50000000" />
    <linearGradient
       id="linearGradient1539"
       xlink:href="#linearGradient635"
       x1="-3.2439329e-16"
       y1="0.50000000"
       x2="1.0000000"
       y2="0.50000000" />
    <linearGradient
       id="linearGradient1567"
       xlink:href="#linearGradient635"
       x1="-3.3436795e-16"
       y1="0.50000000"
       x2="1.0000000"
       y2="0.50000000" />
    <linearGradient
       xlink:href="#linearGradient635"
       id="linearGradient896"
       x1="-8.4611138e-16"
       y1="0.50000000"
       x2="1.0000000"
       y2="0.50000000" />
    <linearGradient
       xlink:href="#linearGradient1528"
       id="linearGradient899" />
    <linearGradient
       xlink:href="#linearGradient635"
       id="linearGradient901"
       x1="0.035714287"
       y1="0.015625000"
       x2="0.97321427"
       y2="0.97656250" />
    <linearGradient
       xlink:href="#linearGradient1535"
       id="linearGradient905"
       x1="0.0048523550"
       y1="-0.097928792"
       x2="0.99029034"
       y2="1.0497539" />
    <linearGradient
       xlink:href="#linearGradient1535"
       id="linearGradient939"
       x1="0.0041322312"
       y1="0.023437500"
       x2="0.98347110"
       y2="0.97656250" />
    <linearGradient
       xlink:href="#linearGradient1535"
       id="linearGradient948" />
    <radialGradient
       xlink:href="#linearGradient1535"
       id="radialGradient921" />
    <linearGradient
       xlink:href="#linearGradient1535"
       id="linearGradient1136" />
    <linearGradient
       xlink:href="#linearGradient1535"
       id="linearGradient1138" />
    <linearGradient
       xlink:href="#linearGradient1535"
       id="linearGradient1140" />
    <linearGradient
       xlink:href="#linearGradient1535"
       id="linearGradient1142" />
    <linearGradient
       xlink:href="#linearGradient1535"
       id="linearGradient1144" />
    <linearGradient
       xlink:href="#linearGradient1535"
       id="linearGradient1146" />
    <linearGradient
       xlink:href="#linearGradient1535"
       id="linearGradient1148" />
    <linearGradient
       xlink:href="#linearGradient1535"
       id="linearGradient1150" />
    <linearGradient
       xlink:href="#linearGradient1535"
       id="linearGradient1152" />
    <linearGradient
       xlink:href="#linearGradient1535"
       id="linearGradient1154" />
    <linearGradient
       xlink:href="#linearGradient1535"
       id="linearGradient1156" />
    <linearGradient
       xlink:href="#linearGradient1535"
       id="linearGradient1158" />
    <linearGradient
       xlink:href="#linearGradient1535"
       id="linearGradient1160" />
    <linearGradient
       xlink:href="#linearGradient1535"
       id="linearGradient1162" />
    <linearGradient
       xlink:href="#linearGradient1535"
       id="linearGradient1165" />
    <linearGradient
       xlink:href="#linearGradient1528"
       id="linearGradient1167"
       x1="-8.7603536e-16"
       y1="0.50000000"
       x2="1.0000000"
       y2="0.50000000" />
    <linearGradient
       xlink:href="#linearGradient1528"
       id="linearGradient1169"
       x1="1.9428903e-16"
       y1="0.50000000"
       x2="1.0000000"
       y2="0.50000000" />
    <linearGradient
       xlink:href="#linearGradient1528"
       id="linearGradient1171"
       x1="2.9004577e-15"
       y1="0.50000000"
       x2="1.0000000"
       y2="0.50000000" />
    <linearGradient
       xlink:href="#linearGradient1528"
       id="linearGradient1173"
       x1="7.4593109e-16"
       y1="0.50000000"
       x2="1.0000000"
       y2="0.50000000" />
    <linearGradient
       xlink:href="#linearGradient1528"
       id="linearGradient1175"
       x1="1.2507356e-15"
       y1="0.50000000"
       x2="1.0000000"
       y2="0.50000000" />
    <linearGradient
       xlink:href="#linearGradient1528"
       id="linearGradient1177"
       x1="1.4398205e-16"
       y1="0.50000000"
       x2="1.0000000"
       y2="0.50000000" />
    <linearGradient
       xlink:href="#linearGradient1528"
       id="linearGradient1179"
       x1="2.5396352e-15"
       y1="0.50000000"
       x2="1.0000000"
       y2="0.50000000" />
    <linearGradient
       xlink:href="#linearGradient1528"
       id="linearGradient1181"
       x1="-9.5236319e-16"
       y1="0.50000000"
       x2="1.0000000"
       y2="0.50000000" />
    <linearGradient
       xlink:href="#linearGradient1528"
       id="linearGradient1183"
       x1="-1.5404344e-15"
       y1="0.50000000"
       x2="1.0000000"
       y2="0.50000000" />
    <linearGradient
       xlink:href="#linearGradient1528"
       id="linearGradient1185"
       x1="1.3166551e-15"
       y1="0.50000000"
       x2="1.0000000"
       y2="0.50000000" />
    <linearGradient
       xlink:href="#linearGradient1528"
       id="linearGradient1187"
       x1="-1.1518564e-15"
       y1="0.50000000"
       x2="1.0000000"
       y2="0.50000000" />
    <linearGradient
       xlink:href="#linearGradient1528"
       id="linearGradient1189"
       x1="2.3019781e-15"
       y1="0.50000000"
       x2="1.0000000"
       y2="0.50000000" />
    <linearGradient
       xlink:href="#linearGradient1528"
       id="linearGradient1191"
       x1="1.0633855e-15"
       y1="0.50000000"
       x2="1.0000000"
       y2="0.50000000" />
    <linearGradient
       xlink:href="#linearGradient1528"
       id="linearGradient1193"
       x1="-1.5959456e-15"
       y1="0.50000000"
       x2="1.0000000"
       y2="0.50000000" />
    <linearGradient
       xlink:href="#linearGradient1528"
       id="linearGradient1195"
       x1="-2.7183117e-15"
       y1="0.50000000"
       x2="1.0000000"
       y2="0.50000000" />
    <linearGradient
       xlink:href="#linearGradient1528"
       id="linearGradient1197"
       x1="-3.2153100e-15"
       y1="0.50000000"
       x2="1.0000000"
       y2="0.50000000" />
    <linearGradient
       xlink:href="#linearGradient1528"
       id="linearGradient1199"
       x1="2.6298408e-15"
       y1="0.50000000"
       x2="1.0000000"
       y2="0.50000000" />
    <linearGradient
       xlink:href="#linearGradient1528"
       id="linearGradient1201"
       x1="3.3252481e-16"
       y1="0.50000000"
       x2="1.0000000"
       y2="0.50000000" />
    <linearGradient
       xlink:href="#linearGradient1535"
       id="linearGradient1447" />
    <linearGradient
       xlink:href="#linearGradient1528"
       id="linearGradient1449"
       x1="1.5254725e-16"
       y1="0.50000000"
       x2="1.0000000"
       y2="0.50000000" />
    <linearGradient
       xlink:href="#linearGradient1535"
       id="linearGradient1451" />
    <linearGradient
       xlink:href="#linearGradient1528"
       id="linearGradient1454"
       x1="-2.1412993e-17"
       y1="0.50000000"
       x2="1.0000000"
       y2="0.50000000" />
    <linearGradient
       xlink:href="#linearGradient1535"
       id="linearGradient1456" />
    <linearGradient
       xlink:href="#linearGradient1528"
       id="linearGradient1458"
       x1="3.5778672e-18"
       y1="0.50000000"
       x2="1.0000000"
       y2="0.50000000" />
    <linearGradient
       xlink:href="#linearGradient1535"
       id="linearGradient1460" />
    <linearGradient
       xlink:href="#linearGradient1528"
       id="linearGradient1462"
       x1="-2.7430315e-17"
       y1="0.50000000"
       x2="1.0000000"
       y2="0.50000000" />
    <linearGradient
       xlink:href="#linearGradient1535"
       id="linearGradient1473" />
    <linearGradient
       xlink:href="#linearGradient1528"
       id="linearGradient1477"
       x1="-3.1528599e-16"
       y1="0.50000000"
       x2="1.0000000"
       y2="0.50000000" />
    <linearGradient
       xlink:href="#linearGradient1528"
       id="linearGradient1479"
       x1="4.2674198e-16"
       y1="0.50000000"
       x2="1.0000000"
       y2="0.50000000" />
    <linearGradient
       xlink:href="#linearGradient1535"
       id="linearGradient1481" />
    <linearGradient
       xlink:href="#linearGradient1535"
       id="linearGradient1483" />
    <linearGradient
       xlink:href="#linearGradient1528"
       id="linearGradient1485"
       x1="6.1105634e-16"
       y1="0.50000000"
       x2="1.0000000"
       y2="0.50000000" />
    <linearGradient
       xlink:href="#linearGradient1535"
       id="linearGradient1487" />
    <linearGradient
       xlink:href="#linearGradient1528"
       id="linearGradient1489"
       x1="-3.9464959e-17"
       y1="0.50000000"
       x2="1.0000000"
       y2="0.50000000" />
    <linearGradient
       xlink:href="#linearGradient1535"
       id="linearGradient1503" />
    <linearGradient
       xlink:href="#linearGradient1528"
       id="linearGradient1506"
       x1="4.2121254e-17"
       y1="0.50000000"
       x2="1.0000000"
       y2="0.50000000" />
    <linearGradient
       xlink:href="#linearGradient1535"
       id="linearGradient1509" />
    <linearGradient
       xlink:href="#linearGradient1528"
       id="linearGradient1511"
       x1="1.0737938e-15"
       y1="0.50000000"
       x2="1.0000000"
       y2="0.50000000" />
    <linearGradient
       xlink:href="#linearGradient1535"
       id="linearGradient1523"
       x1="-1.9434324e-17"
       y1="0.50000000"
       x2="1.0000000"
       y2="0.50000000" />
  </defs>
  <path
     style="fill:#000000;fill-rule:evenodd;stroke:none;stroke-width:1.8750000;stroke-dasharray:none;fill-opacity:0.30000001;"
     d="M 11.192508,6.2216423 C 13.582329,4.0708033 49.190662,4.5487666 51.580483,9.5673912 C 53.970302,14.586015 57.794016,41.113028 55.404196,43.980813 C 53.014375,46.848599 21.229755,62.143453 17.167060,58.558721 C 13.104364,54.973990 7.1298136,8.8504448 11.192508,6.2216423 z "
     id="path1013" />
  <path
     style="fill:url(#linearGradient901);fill-rule:evenodd;stroke:#261933;stroke-width:1.8424841;"
     d="M 8.3539717,3.1566598 C 10.743793,1.0058209 46.352125,1.4837842 48.741946,6.5024088 C 51.131766,11.521034 54.955479,38.048046 52.565659,40.915831 C 50.175839,43.783617 18.391219,59.078470 14.328524,55.493738 C 10.265828,51.909007 4.2912769,5.7854625 8.3539717,3.1566598 z "
     id="path924" />
  <path
     style="fill:url(#linearGradient641);fill-rule:evenodd;stroke:#261933;stroke-width:1.2283227;"
     d="M 11.359144,6.0596145 C 13.460028,4.8077933 44.295505,4.7148759 46.281522,8.0697529 C 48.267539,11.424630 51.449721,32.505036 50.346321,34.123871 C 48.836360,36.339182 15.913934,49.678755 14.304792,46.186174 C 12.558158,42.395171 8.0977795,8.0029130 11.359144,6.0596145 z "
     id="path1001"
     sodipodi:nodetypes="cssss" />
  <path
     style="fill:url(#linearGradient638);fill-rule:evenodd;stroke:none;stroke-opacity:1.0000000;stroke-width:0.12500000;stroke-linejoin:miter;stroke-linecap:butt;stroke-dasharray:none;fill-opacity:1.0000000;"
     d="M 13.844976,36.623954 C 12.002492,26.183210 11.081250,8.3725308 12.002492,6.9906677 C 12.923734,5.6088046 36.108325,5.9158853 44.553044,8.2189904 C 52.997763,10.522096 19.833049,5.7623450 15.226839,8.9866921 C 10.620629,12.211039 15.226839,32.324824 13.844976,36.623954 z "
     id="path1016" />
  <path
     style="fill-opacity:0.29999998;stroke:#261933;stroke-width:0.0000000;"
     d="M 11.380756,21.436529 C 13.411934,19.429152 13.093109,19.518658 14.942456,18.696727 C 15.867125,18.285815 16.212419,18.104833 17.124818,18.100064 C 18.037229,18.095188 19.326087,18.218815 20.231342,18.512118 C 22.041818,19.098722 21.252971,19.039189 22.280359,18.765282 C 23.307745,18.491272 23.161819,18.285815 23.230270,17.532334 C 23.298721,16.778897 23.367276,12.121298 23.915195,11.093881 C 24.463114,10.066462 24.394663,9.7924813 25.079587,10.956884 C 25.764511,12.121287 26.038523,14.998054 26.449540,15.956966 C 26.860454,16.915892 26.997459,17.463843 27.202916,17.600827 C 27.408373,17.737822 27.271471,17.874808 28.298857,17.669331 C 29.326242,17.463843 30.422185,17.532334 31.312565,17.600827 C 32.203050,17.669331 32.613964,17.737822 33.024982,17.669331 C 33.435894,17.600827 33.504448,17.737822 33.778356,17.258355 C 34.052367,16.778897 34.805743,14.861057 34.874297,13.902143 C 34.942749,12.943218 34.737292,9.5869936 34.326379,8.8335559 C 33.915362,8.0801251 34.326379,7.7376498 35.216760,8.8335559 C 36.107141,9.9294766 36.917342,11.641840 37.259803,12.532252 C 37.602267,13.422675 37.467659,13.245537 37.656588,14.546925 C 37.519584,15.848323 37.356728,16.890900 36.847221,17.554096 C 36.606493,18.140437 36.244147,18.740268 37.066077,18.696727 C 37.888007,18.422717 38.230469,17.874808 39.052399,17.326857 C 39.874329,16.778897 41.929206,15.682997 43.573067,15.477511 C 45.216927,15.272022 45.559389,15.409017 46.244312,15.682997 C 46.929238,15.956966 46.929238,15.614496 47.819723,16.299439 C 48.710103,16.984386 49.806044,17.737822 48.984115,18.765282 C 48.162184,19.792667 47.134798,19.587212 46.655330,20.135131 C 46.175862,20.683050 44.942915,21.094067 44.257991,21.231072 C 43.573067,21.367975 40.079890,21.504980 39.600422,21.367975 C 39.120954,21.231072 38.025013,20.340588 38.572932,21.641986 C 39.120954,22.943384 39.805878,26.094098 39.942884,27.327045 C 40.079890,28.559888 40.559357,32.601088 40.833264,34.381953 C 41.107276,36.162819 41.312732,37.738126 41.449737,39.587544 C 41.586745,41.436861 41.107276,41.642319 40.970270,42.464247 C 40.833264,42.940473 40.901820,42.943716 39.942884,43.628642 C 38.983948,44.313567 38.885420,43.813355 37.652577,44.224268 C 36.419630,44.635283 36.244147,44.519124 35.079755,45.135496 C 33.915362,45.751968 31.655028,46.710905 30.764647,45.957424 C 29.874163,45.204050 28.641318,43.491635 27.271471,42.327242 C 25.901517,41.162851 24.052201,38.491605 23.641184,34.107942 C 23.230270,29.724280 22.199877,25.114420 21.592425,23.673008 C 20.984976,22.231598 21.490891,22.035163 19.805544,23.011834 C 18.120210,23.988608 16.860297,24.039325 15.627403,24.039325 C 14.394496,24.039325 12.476655,23.217394 11.449249,22.669372 C 10.421832,22.121453 10.558819,22.258459 11.380756,21.436529 z "
     id="path4368"
     sodipodi:nodetypes="ccccccccccccccccccccccccccccccccccccccccccccc" />
  <path
     style="fill:#261933;stroke:#261933;stroke-width:0.0000000;"
     d="M 9.8286987,20.372999 C 11.859878,18.365622 11.541051,18.455128 13.390398,17.633198 C 14.315067,17.222285 14.660361,17.041304 15.572762,17.036533 C 16.485172,17.031659 17.774029,17.155286 18.679283,17.448588 C 20.489760,18.035193 19.700913,17.975660 20.728302,17.701751 C 21.755687,17.427742 21.609763,17.222285 21.678213,16.468804 C 21.746664,15.715368 21.815219,11.057768 22.363137,10.030350 C 22.911057,9.0029317 22.842607,8.7289515 23.527530,9.8933546 C 24.212453,11.057758 24.486465,13.934524 24.897482,14.893439 C 25.308397,15.852364 25.445402,16.400312 25.650858,16.537298 C 25.856315,16.674293 25.719412,16.811278 26.746799,16.605800 C 27.774185,16.400312 28.870127,16.468804 29.760509,16.537298 C 30.650995,16.605800 31.061906,16.674293 31.472924,16.605800 C 31.883836,16.537298 31.952391,16.674293 32.226298,16.194825 C 32.500309,15.715368 33.253686,13.797528 33.322240,12.838612 C 33.390692,11.879688 33.185235,8.5234637 32.774321,7.7700260 C 32.363304,7.0165949 32.774321,6.6741200 33.664703,7.7700260 C 34.555083,8.8659467 35.365284,10.578311 35.707747,11.468723 C 36.050210,12.359146 35.915603,12.182007 36.104532,13.483396 C 35.967527,14.784793 35.804670,15.827371 35.295164,16.490566 C 35.054435,17.076908 34.692089,17.676738 35.514019,17.633198 C 36.335949,17.359187 36.678411,16.811278 37.500340,16.263327 C 38.322270,15.715368 40.377147,14.619468 42.021009,14.413981 C 43.664869,14.208492 44.007331,14.345489 44.692255,14.619468 C 45.377180,14.893439 45.377180,14.550966 46.267665,15.235909 C 47.158046,15.920856 48.253987,16.674293 47.432058,17.701751 C 46.610126,18.729140 45.582739,18.523682 45.103272,19.071602 C 44.623805,19.619519 43.390856,20.030537 42.705934,20.167542 C 42.021009,20.304445 38.527832,20.441450 38.048364,20.304445 C 37.568896,20.167542 36.472955,19.277058 37.020874,20.578456 C 37.568896,21.879854 38.253820,25.030568 38.390826,26.263515 C 38.527832,27.496360 39.007300,31.537558 39.281208,33.318424 C 39.555218,35.099289 39.760676,36.674596 39.897680,38.524016 C 40.034686,40.373332 39.555218,40.578789 39.418213,41.400720 C 39.281208,41.876944 39.349762,41.880187 38.390826,42.565111 C 37.431891,43.250036 37.333362,42.749825 36.100518,43.160738 C 34.867572,43.571756 34.692089,43.455595 33.527697,44.071965 C 32.363304,44.688439 30.102971,45.647375 29.212589,44.893897 C 28.322106,44.140521 27.089262,42.428105 25.719412,41.263713 C 24.349460,40.099322 22.500143,37.428074 22.089126,33.044412 C 21.678213,28.660750 20.647820,24.050890 20.040369,22.609478 C 19.432918,21.168067 19.938833,20.971635 18.253487,21.948305 C 16.568152,22.925078 15.308240,22.975795 14.075345,22.975795 C 12.842438,22.975795 10.924598,22.153865 9.8971913,21.605843 C 8.8697748,21.057923 9.0067622,21.194929 9.8286987,20.372999 z "
     id="path1221"
     sodipodi:nodetypes="ccccccccccccccccccccccccccccccccccccccccccccc" />
  <path
     style="fill:url(#linearGradient1532);stroke:#261933;stroke-width:0.0000000;"
     d="M 39.229155,16.348585 C 40.264371,16.085728 40.481032,16.061830 40.914352,15.846767 C 41.347674,15.631703 41.684714,15.655599 42.647743,15.679496 C 43.610775,15.703395 43.995902,15.822870 44.429223,16.014046 C 44.862649,16.205212 45.055213,16.252998 44.429223,16.348585 C 43.803338,16.444174 42.238519,16.587546 41.251393,16.659227 C 40.264371,16.730917 39.445817,16.826527 38.964302,17.065498 C 38.482787,17.304469 38.073562,17.328284 38.338416,17.065498 C 38.603166,16.802609 38.843922,16.468071 39.229155,16.348585 z "
     id="path1224"
     sodipodi:nodetypes="ccccccccc" />
  <path
     style="fill:url(#linearGradient1527);stroke:#261933;stroke-width:0.0000000;"
     d="M 41.104757,17.639007 C 42.380730,17.543336 43.126994,17.471688 43.728888,17.304469 C 44.330779,17.137147 44.210401,17.256633 44.836287,17.232717 C 45.462278,17.208797 45.534463,17.280551 45.438182,17.447770 C 45.341899,17.615090 44.884482,18.021278 44.427063,18.164682 C 43.969645,18.308085 43.632604,18.284168 43.054809,18.690354 C 42.477011,19.096650 41.586272,19.263867 40.599146,19.239949 C 39.612123,19.216134 38.913949,19.383351 38.408335,19.144381 C 37.902829,18.905410 37.734258,18.762111 38.143587,18.379734 C 38.552812,17.997362 38.865859,18.021278 39.612123,17.877980 C 40.358389,17.734577 40.695428,17.662823 41.104757,17.639007 z "
     id="path1225"
     sodipodi:nodetypes="ccccccccccc" />
  <path
     style="fill:url(#linearGradient1539);stroke:#261933;stroke-width:0.0000000;"
     d="M 22.523594,15.169645 C 22.549274,13.848897 22.703910,13.340912 22.858545,12.832928 C 23.013181,12.324943 22.987390,12.426546 23.193495,12.832928 C 23.399603,13.239310 23.683083,14.306081 23.786137,14.661662 C 23.889189,15.017254 24.172669,15.728432 24.301514,16.007823 C 24.430359,16.287205 24.584996,16.566629 24.095408,16.617364 C 23.605820,16.668210 23.399603,16.744366 23.064650,16.744366 C 22.729701,16.744366 22.446220,16.515785 22.472011,16.058623 C 22.497802,15.601430 22.497802,15.296648 22.523594,15.169645 z "
     id="path1226"
     sodipodi:nodetypes="ccccccccc" />
  <path
     style="fill:url(#linearGradient1534);stroke:#261933;stroke-width:0.0000000;"
     d="M 34.151616,13.487855 C 34.221089,12.872112 34.179755,12.347587 34.179755,12.119534 C 34.179755,11.891491 34.183187,11.612964 34.183187,11.453329 C 34.183187,11.293695 34.197931,11.002075 34.197931,10.774022 C 34.197931,10.545978 34.042971,9.2804126 34.297501,10.010186 C 34.552032,10.739948 35.014636,11.682613 35.099813,12.558832 C 35.261712,13.242981 35.040657,13.970158 35.040657,14.266619 C 35.040657,14.563090 34.868892,15.038602 34.660676,15.654345 C 34.452461,16.270095 34.392064,16.860976 34.045005,16.883781 C 33.698046,16.906587 33.411284,16.726201 33.087382,16.726201 C 32.763481,16.726201 32.786639,16.680588 33.018011,16.384116 C 33.249383,16.087642 33.989716,14.719346 34.151616,13.487855 z "
     id="path1227"
     sodipodi:nodetypes="cccccccccccc" />
  <path
     style="fill:url(#linearGradient1522);stroke:#261933;stroke-width:0.0000000;"
     d="M 23.461545,28.885263 C 23.216043,27.019547 23.167008,25.988512 22.774188,24.761012 C 22.381472,23.533619 21.301293,20.636869 20.957614,19.851226 C 20.613936,19.065688 20.810293,18.869332 21.644972,18.672867 C 22.479651,18.476510 25.621901,17.494510 27.487616,17.592795 C 29.353331,17.690975 30.728045,17.003617 32.691940,18.083689 C 34.655833,19.163868 35.294153,18.623832 35.785047,20.685904 C 36.276048,22.747975 36.865226,27.559584 37.159869,29.081620 C 37.454404,30.603657 38.092726,35.857122 38.289084,36.544480 C 38.485442,37.231836 38.681904,37.428193 37.356226,37.379158 C 36.030548,37.330016 34.312152,37.231836 32.250082,38.213836 C 30.188010,39.195731 28.469510,40.472266 27.978616,41.061445 C 27.487616,41.650624 27.487616,41.356087 26.849296,40.815945 C 26.211080,40.275909 24.934544,38.410195 24.639901,36.789980 C 24.345364,35.169764 23.658008,31.929336 23.608866,31.094656 C 23.559723,30.259978 23.461545,29.523477 23.461545,28.885263 z "
     id="path1228"
     sodipodi:nodetypes="cccccccccccccccc" />
  <path
     style="fill:#261933;stroke:#261933;stroke-width:0.0000000;"
     d="M 25.756482,26.161865 C 26.865156,25.708351 27.217900,25.658021 27.721854,26.111535 C 28.225807,26.565049 28.729759,27.333589 28.225807,27.837432 C 27.721854,28.341384 27.469877,28.328774 26.915594,28.731959 C 26.361203,29.135143 25.756482,28.933496 25.403736,28.731959 C 25.050991,28.530422 24.950222,28.228006 24.849454,27.774493 C 24.748685,27.320978 25.101431,26.615489 25.756482,26.161865 z "
     id="path1229"
     sodipodi:nodetypes="ccccccc" />
  <path
     style="fill:#261933;stroke:#261933;stroke-width:0.0000000;"
     d="M 32.948502,22.987166 C 33.852869,23.019354 34.159713,23.245517 34.159713,23.891532 C 34.159713,24.537410 33.416709,24.941242 32.964525,24.941242 C 32.512342,24.941242 32.027970,24.553574 31.898654,24.036874 C 31.769478,23.520032 31.963311,22.971002 32.948502,22.987166 z "
     id="path1230"
     sodipodi:nodetypes="ccccc" />
  <path
     style="fill:url(#linearGradient1534);stroke-width:0.62500000;"
     d="M 17.936644,20.040468 C 18.356325,20.059560 18.324984,20.113226 18.324984,20.361270 C 18.324984,20.609230 18.374775,20.548505 18.088602,20.682073 C 17.802472,20.815642 16.267675,21.354620 15.657253,21.526292 C 15.046831,21.697962 14.518520,21.878655 14.289619,21.897748 C 14.060710,21.916757 13.516811,21.785213 12.601182,21.441871 C 12.086143,21.308301 11.846675,21.214240 12.094651,21.137952 C 12.342635,21.061663 12.373177,21.020379 12.888217,20.867802 C 13.403256,20.715222 15.295720,20.340671 15.944288,20.226195 C 16.592862,20.111720 17.516978,20.021374 17.936644,20.040468 z "
     id="path1009" />
  <path
     style="fill:url(#linearGradient1532);stroke-width:0.62500000;"
     d="M 14.928267,18.757256 C 16.583065,18.827936 16.907947,19.045652 17.472891,19.257479 C 18.037847,19.469310 17.613609,19.523904 16.907419,19.453220 C 16.201231,19.382647 13.883800,19.431471 13.318843,19.431471 C 12.753900,19.431471 12.737520,19.273569 13.231850,19.061740 C 13.726177,18.849804 14.292693,18.757256 14.928267,18.757256 z "
     id="path1008" />
</svg>
