<?xml version="1.0" encoding="UTF-8" standalone="no"?>
<!DOCTYPE svg PUBLIC "-//W3C//DTD SVG 20010904//EN"
"http://www.w3.org/TR/2001/REC-SVG-20010904/DTD/svg10.dtd">
<!-- Created with Inkscape (http://www.inkscape.org/) -->
<svg
   id="svg1"
   sodipodi:version="0.32"
   inkscape:version="0.38.1"
   width="48.000000pt"
   height="48.000000pt"
   sodipodi:docbase="/home/bill"
   sodipodi:docname="pencil.svg"
   xmlns="http://www.w3.org/2000/svg"
   xmlns:inkscape="http://www.inkscape.org/namespaces/inkscape"
   xmlns:sodipodi="http://sodipodi.sourceforge.net/DTD/sodipodi-0.dtd"
   xmlns:xlink="http://www.w3.org/1999/xlink">
  <defs
     id="defs3">
    <linearGradient
       id="linearGradient2073">
      <stop
         style="stop-color:#ffffff;stop-opacity:1.0000000;"
         offset="0.0000000"
         id="stop2074" />
      <stop
         style="stop-color:#ffffff;stop-opacity:0.0000000;"
         offset="1.0000000"
         id="stop2075" />
    </linearGradient>
    <linearGradient
       id="linearGradient2067">
      <stop
         style="stop-color:#e6e6e6;stop-opacity:1.0000000;"
         offset="0.0000000"
         id="stop2068" />
      <stop
         style="stop-color:#7f7f7f;stop-opacity:1.0000000;"
         offset="1.0000000"
         id="stop2069" />
    </linearGradient>
    <linearGradient
       id="linearGradient1958">
      <stop
         style="stop-color:#ffffff;stop-opacity:1.0000000;"
         offset="0.0000000"
         id="stop1959" />
      <stop
         style="stop-color:#d9cce6;stop-opacity:1.0000000;"
         offset="1.0000000"
         id="stop1960" />
    </linearGradient>
    <linearGradient
       id="linearGradient1954">
      <stop
         style="stop-color:#f50000;stop-opacity:0.50000000;"
         offset="0.0000000"
         id="stop1955" />
      <stop
         style="stop-color:#a80000;stop-opacity:0.50000000;"
         offset="1.0000000"
         id="stop1956" />
    </linearGradient>
    <linearGradient
       id="linearGradient835">
      <stop
         style="stop-color:#d9cce6;stop-opacity:1.0000000;"
         offset="0.0000000"
         id="stop836" />
      <stop
         style="stop-color:#73667f;stop-opacity:1.0000000;"
         offset="1.0000000"
         id="stop837" />
    </linearGradient>
    <linearGradient
       id="linearGradient827">
      <stop
         style="stop-color:#338f33;stop-opacity:1.0000000;"
         offset="0.0000000"
         id="stop828" />
      <stop
         style="stop-color:#7fdc7f;stop-opacity:1.0000000;"
         offset="1.0000000"
         id="stop829" />
    </linearGradient>
    <radialGradient
       xlink:href="#linearGradient835"
       id="radialGradient830"
       r="0.50000000"
       fy="0.50000000"
       fx="0.50000000"
       cy="0.50000000"
       cx="0.50000000" />
    <linearGradient
       xlink:href="#linearGradient835"
       id="linearGradient833"
       x1="-0.26470590"
       y1="0.070312478"
       x2="1.3529412"
       y2="1.0390625" />
    <radialGradient
       xlink:href="#linearGradient835"
       id="radialGradient834" />
    <linearGradient
       xlink:href="#linearGradient835"
       id="linearGradient1952"
       x1="-0.71428573"
       y1="1.7862448e-13"
       x2="0.31746033"
       y2="0.78125000" />
    <linearGradient
       xlink:href="#linearGradient1954"
       id="linearGradient1953"
       x1="-0.020270269"
       y1="-0.0078125000"
       x2="1.1351352"
       y2="1.0078125" />
    <linearGradient
       xlink:href="#linearGradient835"
       id="linearGradient1957"
       x1="0.29245284"
       y1="0.085937493"
       x2="1.6037736"
       y2="0.86718744" />
    <linearGradient
       xlink:href="#linearGradient1958"
       id="linearGradient1961"
       x1="-0.55932206"
       y1="0.046875000"
       x2="0.52542371"
       y2="0.75000000" />
    <linearGradient
       xlink:href="#linearGradient2067"
       id="linearGradient1962"
       x1="-0.25373128"
       y1="0.078125000"
       x2="0.81343287"
       y2="0.85937500" />
    <linearGradient
       xlink:href="#linearGradient2073"
       id="linearGradient2072"
       y2="0.94531250"
       x2="1.0000000"
       y1="0.062499996"
       x1="-0.45833331" />
  </defs>
  <sodipodi:namedview
     id="base"
     pagecolor="#ffffff"
     bordercolor="#666666"
     borderopacity="1.0"
     inkscape:pageopacity="0.0"
     inkscape:pageshadow="2"
     inkscape:zoom="1.0000000"
     inkscape:cx="24.000000"
     inkscape:cy="24.807114"
     inkscape:window-width="663"
     inkscape:window-height="538"
     inkscape:window-x="384"
     inkscape:window-y="163" />
  <g
     id="g1381"
     transform="matrix(1.015799,0.000000,0.000000,1.015799,-0.473972,-0.473971)">
    <path
       style="fill-opacity:0.29999998;fill-rule:evenodd;stroke-width:1.8750000;stroke-linecap:round;stroke-linejoin:round;stroke-opacity:0.29999998;"
       d="M 13.144986,61.023111 L 15.611984,39.128502 L 39.973590,7.0575268 C 48.505292,6.2865899 55.186746,12.145710 56.780015,20.163454 L 33.189346,51.926056 L 13.144986,61.023111 z "
       id="path2076"
       sodipodi:nodetypes="cccccc"
       transform="translate(-3.759756,-2.080198)" />
    <path
       style="fill:url(#linearGradient1957);fill-rule:evenodd;stroke:#261933;stroke-width:1.8750000;stroke-linecap:round;stroke-linejoin:round;"
       d="M 10.793117,57.224627 L 13.260115,35.330018 L 37.621721,3.2590428 C 46.153423,2.4881059 52.834877,8.3472264 54.428146,16.364970 L 30.837477,48.127572 L 10.793117,57.224627 z "
       id="path1745"
       sodipodi:nodetypes="cccccc"
       transform="translate(-2.875873,-1.196315)" />
    <path
       style="fill:url(#linearGradient833);fill-opacity:1.00000000;fill-rule:evenodd;stroke:#261933;stroke-width:1.0000000pt;"
       d="M 48.983389,24.132128 L 41.286582,16.585321 L 24.325969,38.479930 C 26.330405,41.563677 28.168092,46.951861 30.635090,48.339547 L 48.983389,24.132128 z "
       id="path1925"
       sodipodi:nodetypes="ccccc"
       transform="translate(-2.875873,-1.196315)" />
    <path
       style="fill:url(#linearGradient1961);fill-opacity:1.00000000;fill-rule:evenodd;stroke:#261933;stroke-width:1.0000000pt;stroke-linecap:round;stroke-linejoin:round;"
       d="M 13.510701,35.233619 C 19.061447,37.649222 20.591483,33.155121 25.363953,37.103045 C 30.260284,41.153432 26.015860,43.354155 30.847065,48.185360 L 10.850905,57.128228 L 13.510701,35.233619 z "
       id="path1802"
       sodipodi:nodetypes="csccc"
       transform="translate(-2.875873,-1.196315)" />
    <path
       style="fill:url(#linearGradient1962);fill-opacity:1.00000000;fill-rule:evenodd;stroke:#261933;stroke-width:1.0000000pt;stroke-linecap:round;stroke-linejoin:round;"
       d="M 30.384503,12.703084 C 39.224580,12.497501 47.043133,21.359951 47.402903,26.242552 L 54.428146,16.210783 C 54.016980,12.510286 47.129943,1.4087942 37.159159,3.2590428 L 30.384503,12.703084 z "
       id="path1803"
       sodipodi:nodetypes="ccccc"
       transform="translate(-2.875873,-1.196315)" />
    <path
       style="fill:url(#linearGradient1953);fill-opacity:1.00000000;fill-rule:evenodd;stroke:#261933;stroke-width:1.0000000pt;"
       d="M 34.923314,6.5742000 C 43.711995,6.5741999 50.110899,14.360534 51.652773,19.911280 L 54.428146,16.364970 C 53.965584,12.561681 50.110900,2.7450847 37.313347,3.1048554 L 34.923314,6.5742000 z "
       id="path1804"
       sodipodi:nodetypes="ccccc"
       transform="translate(-2.875873,-1.196315)" />
    <path
       style="fill:url(#linearGradient1952);fill-rule:evenodd;stroke:#261933;stroke-width:1.0000000pt;stroke-linecap:round;stroke-linejoin:round;"
       d="M 11.718241,49.515258 C 15.315947,49.566654 16.909217,50.543174 17.885737,53.832505 L 11.062880,56.916252 L 11.718241,49.515258 z "
       id="path1746"
       sodipodi:nodetypes="cccc"
       transform="translate(-2.875873,-1.196315)" />
    <path
       style="fill:url(#linearGradient2072);fill-opacity:1.00000000;fill-rule:evenodd;stroke-width:1.0000000pt;"
       d="M 49.556250,10.837500 C 51.124161,9.7156124 42.818161,3.9494161 39.078125,5.9312500 C 36.194678,8.7609233 17.472977,34.875926 16.037500,36.506250 C 15.138757,37.526986 14.177598,49.917203 13.408848,54.999495 C 13.867745,54.537139 16.886748,53.093132 16.690512,52.551346 C 16.406944,51.768443 15.222854,52.098448 15.366485,51.315991 C 15.622108,49.923438 16.821805,45.839621 20.396875,37.606250 C 25.838007,28.595275 33.693750,19.348958 40.100000,10.850000 C 42.888542,8.6562500 45.845028,9.8239994 49.556250,10.837500 z "
       id="path2071"
       sodipodi:nodetypes="ccscccccc"
       transform="translate(-3.759756,-2.080198)" />
  </g>
</svg>
