<?xml version="1.0" encoding="UTF-8" standalone="no"?>
<!DOCTYPE svg PUBLIC "-//W3C//DTD SVG 20010904//EN"
"http://www.w3.org/TR/2001/REC-SVG-20010904/DTD/svg10.dtd">
<!-- Created with Inkscape (http://www.inkscape.org/) -->
<svg
   id="svg1"
   sodipodi:version="0.32"
   inkscape:version="0.38.1"
   width="48pt"
   height="48pt"
   sodipodi:docbase="/home/scaba/files/lila-artwork/devel"
   sodipodi:docname="logviewer.svg"
   xmlns="http://www.w3.org/2000/svg"
   xmlns:inkscape="http://www.inkscape.org/namespaces/inkscape"
   xmlns:sodipodi="http://sodipodi.sourceforge.net/DTD/sodipodi-0.dtd"
   xmlns:xml="http://www.w3.org/XML/1998/namespace"
   xmlns:xlink="http://www.w3.org/1999/xlink">
  <defs
     id="defs3">
    <linearGradient
       id="linearGradient866">
      <stop
         style="stop-color:#ffffff;stop-opacity:1;"
         offset="0.00000000"
         id="stop867" />
      <stop
         style="stop-color:#d9cce6;stop-opacity:1;"
         offset="1.00000000"
         id="stop868" />
    </linearGradient>
    <linearGradient
       xlink:href="#linearGradient866"
       id="linearGradient586"
       x1="-0.00000000"
       y1="0.01562500"
       x2="0.99122804"
       y2="0.98437500" />
    <linearGradient
       xlink:href="#linearGradient584"
       id="linearGradient587"
       x1="0.00000000"
       y1="-0.00000000"
       x2="1.00000000"
       y2="1.00000000" />
    <linearGradient
       id="linearGradient584">
      <stop
         style="stop-color:#ffffff;stop-opacity:1;"
         offset="0.00000000"
         id="stop585" />
      <stop
         style="stop-color:#ffffff;stop-opacity:0;"
         offset="1.00000000"
         id="stop586" />
    </linearGradient>
    <linearGradient
       id="linearGradient578">
      <stop
         style="stop-color:#d9cce6;stop-opacity:1;"
         offset="0.00000000"
         id="stop579" />
      <stop
         style="stop-color:#73667f;stop-opacity:1;"
         offset="1.00000000"
         id="stop580" />
    </linearGradient>
    <linearGradient
       xlink:href="#linearGradient578"
       id="linearGradient581"
       x1="0.00000000"
       y1="-0.00000000"
       x2="1.00704229"
       y2="1.01562500" />
    <linearGradient
       xlink:href="#linearGradient578"
       id="linearGradient583"
       x1="0.02307692"
       y1="0.01562500"
       x2="0.96923077"
       y2="0.97656250" />
    <linearGradient
       xlink:href="#linearGradient584"
       id="linearGradient654"
       x1="-0.12337659"
       y1="-0.14666668"
       x2="0.99242425"
       y2="1.0000001" />
    <linearGradient
       xlink:href="#linearGradient584"
       id="linearGradient655"
       x1="0.00000000"
       y1="-0.00000000"
       x2="0.96551722"
       y2="0.98437500" />
    <linearGradient
       xlink:href="#linearGradient584"
       id="linearGradient653"
       x1="0.00000000"
       y1="-0.00000000"
       x2="0.97945207"
       y2="0.97656250" />
    <linearGradient
       xlink:href="#linearGradient584"
       id="linearGradient682"
       x1="0.02307692"
       y1="0.01562500"
       x2="0.96923077"
       y2="0.97656250" />
    <linearGradient
       xlink:href="#linearGradient866"
       id="linearGradient964" />
  </defs>
  <sodipodi:namedview
     id="base"
     pagecolor="#ffffff"
     bordercolor="#666666"
     borderopacity="1.0"
     inkscape:pageopacity="0.0"
     inkscape:pageshadow="2"
     inkscape:zoom="5.6423387"
     inkscape:cx="13.972734"
     inkscape:cy="15.820018"
     inkscape:window-width="762"
     inkscape:window-height="594"
     inkscape:window-x="36"
     inkscape:window-y="72" />
  <path
     d="M -69.585361,49.796806 C -68.775973,52.214921 -35.258517,63.087978 -33.057853,61.263371 C -31.088024,59.612983 -16.348726,10.489080 -17.335624,8.5408693 C -18.361470,6.3929691 -52.367237,1.0429190 -53.981346,2.5120227 C -55.969582,4.3322434 -70.435424,47.022332 -69.585361,49.796806 z "
     style="font-size:12.000000;opacity:0.30267498;fill-rule:evenodd;stroke-width:12.500000;"
     id="path639"
     transform="matrix(0.866630,0.000000,0.000000,0.866630,63.71324,0.580998)" />
  <path
     d="M -69.470139,47.795421 C -68.712856,50.057751 -37.354741,60.230334 -35.295859,58.523272 C -33.452933,56.979208 -19.663181,11.020025 -20.586496,9.1972851 C -21.546257,7.1877594 -53.361263,2.1824165 -54.871387,3.5568756 C -56.731532,5.2598319 -70.265440,45.199689 -69.470139,47.795421 z "
     style="font-size:12.000000;fill:url(#linearGradient586);fill-rule:evenodd;stroke:#261933;stroke-width:1.8750000;"
     id="path634"
     transform="matrix(0.866630,0.000000,0.000000,0.866630,63.71324,0.580998)" />
  <path
     d="M -67.336634,45.676264 C -67.663899,44.847161 -54.660533,6.2977543 -53.444864,5.5027645 C -51.925531,4.4659032 -27.364477,9.0558946 -27.037981,9.8830524 C -26.738721,10.641168 -46.200620,7.1011543 -50.530446,10.974069 C -58.834672,18.193386 -67.038143,46.432475 -67.336634,45.676264 z "
     style="font-size:12.000000;opacity:0.69993597;fill:url(#linearGradient587);fill-rule:evenodd;stroke-width:0.10012100pt;"
     id="path640"
     transform="matrix(0.866630,0.000000,0.000000,0.866630,63.71324,0.580998)" />
  <text
     xml:space="preserve"
     style="font-size:12.000000;stroke-width:1.0000000pt;font-family:helvetica;"
     x="-68.934895"
     y="56.897675"
     id="text863"
     transform="matrix(0.834059,0.235354,-0.235354,0.834059,63.71324,0.580998)"><tspan
       id="tspan864"></tspan></text>
  <path
     style="font-size:12.000000;fill:#261933;fill-opacity:0.40000001;stroke-width:1.0000000pt;font-family:Radio Stars;"
     d="M -40.141733,18.246068 C -40.190343,18.439012 -40.288615,18.574559 -40.436548,18.652708 C -40.576932,18.726348 -40.731538,18.741901 -40.900363,18.699367 C -41.063160,18.658352 -41.191941,18.571404 -41.286707,18.438521 C -41.379955,18.299609 -41.402273,18.133681 -41.353663,17.940737 L -40.738442,15.498789 C -40.945245,15.606993 -41.136075,15.639068 -41.310930,15.595015 C -41.467697,15.555520 -41.585155,15.461806 -41.663305,15.313872 C -41.735425,15.167458 -41.750978,15.012853 -41.709964,14.850056 C -41.662872,14.663142 -41.548744,14.515559 -41.367579,14.407309 L -40.090376,13.651834 C -39.871468,13.521032 -39.671571,13.478416 -39.490686,13.523987 C -39.339949,13.561964 -39.234549,13.652641 -39.174487,13.796016 C -39.108397,13.940911 -39.102695,14.121889 -39.157381,14.338952 L -40.141733,18.246068 z "
     id="path1008"
     transform="matrix(0.866630,0.000000,0.000000,0.866630,63.71324,0.580998)" />
  <path
     style="font-size:12.000000;fill:#261933;fill-opacity:0.60000002;stroke-width:1.0000000pt;font-family:Radio Stars;"
     d="M -38.289655,26.748910 C -38.413159,27.217386 -38.709148,27.389872 -39.177622,27.266369 L -44.757987,25.795230 C -45.219573,25.673543 -45.388614,25.378463 -45.265111,24.909987 L -44.088200,20.445695 C -43.964697,19.977221 -43.672153,19.803827 -43.210567,19.925513 L -37.630202,21.396652 C -37.161727,21.520154 -36.989241,21.816143 -37.112744,22.284619 L -38.289655,26.748910 z M -39.499492,25.678413 L -38.693091,22.619547 L -42.878363,21.516193 L -43.684765,24.575060 L -39.499492,25.678413 z M -46.502468,24.572734 C -46.560587,24.793192 -46.674886,24.947264 -46.845364,25.034947 C -47.007138,25.117558 -47.184475,25.133437 -47.377376,25.082582 C -47.563388,25.033544 -47.709850,24.932304 -47.816761,24.778861 C -47.921856,24.618528 -47.945345,24.428132 -47.887225,24.207672 L -47.151656,21.417491 C -47.389962,21.538870 -47.609011,21.573225 -47.808802,21.520554 C -47.987925,21.473332 -48.121328,21.364482 -48.209012,21.194004 C -48.289807,21.025340 -48.305685,20.848004 -48.256647,20.661991 C -48.200343,20.448422 -48.067725,20.280759 -47.858792,20.159004 L -46.385924,19.309445 C -46.133463,19.162325 -45.903892,19.116008 -45.697211,19.170495 C -45.524978,19.215900 -45.405354,19.321119 -45.338338,19.486148 C -45.264433,19.652994 -45.260173,19.860425 -45.325557,20.108443 L -46.502468,24.572734 z "
     id="path1007"
     transform="matrix(0.866630,0.000000,0.000000,0.866630,63.71324,0.580998)" />
  <path
     style="font-size:12.000000;fill:#261933;fill-opacity:0.80000001;stroke-width:1.0000000pt;font-family:Radio Stars;"
     d="M -35.057217,36.704240 C -35.203657,37.233336 -35.541425,37.424665 -36.070521,37.278226 L -42.372986,35.533878 C -42.894302,35.389593 -43.081740,35.052901 -42.935301,34.523805 L -41.539823,29.481832 C -41.393383,28.952737 -41.059506,28.760332 -40.538192,28.904617 L -34.235726,30.648964 C -33.706630,30.795404 -33.515300,31.133171 -33.661739,31.662267 L -35.057217,36.704240 z M -36.413176,35.474509 L -35.457015,32.019823 L -40.183865,30.711563 L -41.140025,34.166248 L -36.413176,35.474509 z M -44.332619,34.124501 C -44.401531,34.373488 -44.533178,34.546473 -44.727558,34.643457 C -44.912001,34.734814 -45.113156,34.750344 -45.331019,34.690046 C -45.541102,34.631900 -45.705646,34.515156 -45.824653,34.339813 C -45.941507,34.156686 -45.965476,33.940630 -45.896564,33.691644 L -45.024390,30.540410 C -45.296091,30.674634 -45.544763,30.710518 -45.770407,30.648067 C -45.972709,30.592076 -46.122352,30.466889 -46.219336,30.272511 C -46.308540,30.080284 -46.324068,29.879130 -46.265924,29.669047 C -46.199165,29.427841 -46.046574,29.239711 -45.808150,29.104656 L -44.127509,28.162498 C -43.839413,27.999306 -43.578654,27.950014 -43.345228,28.014619 C -43.150707,28.068457 -43.016626,28.189335 -42.942984,28.377255 C -42.861562,28.567328 -42.859614,28.802418 -42.937141,29.082528 L -44.332619,34.124501 z M -48.315739,33.034649 C -48.462178,33.563745 -48.799946,33.755073 -49.329042,33.608634 L -55.631507,31.864287 C -56.152824,31.720001 -56.340261,31.383310 -56.193823,30.854214 L -54.798345,25.812241 C -54.651904,25.283145 -54.318029,25.090741 -53.796714,25.235027 L -47.494247,26.979373 C -46.965151,27.125813 -46.773823,27.463581 -46.920261,27.992677 L -48.315739,33.034649 z M -49.671698,31.804918 L -48.715536,28.350233 L -53.442386,27.041972 L -54.398547,30.496658 L -49.671698,31.804918 z "
     id="path1006"
     transform="matrix(0.866630,0.000000,0.000000,0.866630,63.71324,0.580998)" />
  <path
     style="font-size:12.000000;fill:#261933;stroke-width:1.0000000pt;font-family:Radio Stars;fill-opacity:1.0000000;"
     d="M -35.105934,47.211703 C -35.188987,47.504145 -35.345259,47.706661 -35.574751,47.819253 C -35.792510,47.925300 -36.029331,47.941989 -36.285218,47.869318 C -36.531965,47.799242 -36.724666,47.660573 -36.863321,47.453306 C -36.999381,47.236900 -37.025885,46.982477 -36.942833,46.690035 L -35.891709,42.988824 C -36.212479,43.144625 -36.505377,43.184890 -36.770402,43.109626 C -37.008011,43.042146 -37.183111,42.893660 -37.295702,42.664167 C -37.399154,42.437270 -37.415842,42.200447 -37.345767,41.953700 C -37.265311,41.670397 -37.084273,41.450225 -36.802653,41.293182 L -34.817606,40.197781 C -34.477316,40.008020 -34.170089,39.952072 -33.895924,40.029933 C -33.667455,40.094818 -33.510633,40.238113 -33.425458,40.459818 C -33.331145,40.684120 -33.330706,40.960769 -33.424138,41.289766 L -35.105934,47.211703 z M -39.794137,45.880281 C -39.877187,46.172723 -40.033458,46.375239 -40.262951,46.487830 C -40.480710,46.593877 -40.717532,46.610566 -40.973419,46.537896 C -41.220166,46.467820 -41.412868,46.329149 -41.551521,46.121883 C -41.687581,45.905478 -41.714084,45.651054 -41.631033,45.358612 L -40.579910,41.657401 C -40.900681,41.813202 -41.193578,41.853468 -41.458603,41.778203 C -41.696212,41.710723 -41.871311,41.562238 -41.983902,41.332743 C -42.087354,41.105848 -42.104043,40.869025 -42.033968,40.622278 C -41.953512,40.338975 -41.772474,40.118803 -41.490853,39.961760 L -39.505807,38.866357 C -39.165517,38.676598 -38.858288,38.620649 -38.584125,38.698510 C -38.355655,38.763394 -38.198834,38.906689 -38.113658,39.128396 C -38.019345,39.352697 -38.018906,39.629346 -38.112338,39.958344 L -39.794137,45.880281 z M -44.472522,44.566460 C -44.649006,45.187898 -45.047967,45.410374 -45.669405,45.233889 L -53.071827,43.131642 C -53.684127,42.957753 -53.902033,42.560089 -53.725549,41.938651 L -52.043752,36.016713 C -51.867268,35.395276 -51.472874,35.171501 -50.860576,35.345391 L -43.458153,37.447637 C -42.836716,37.624123 -42.614239,38.023084 -42.790724,38.644522 L -44.472522,44.566460 z M -46.058399,43.108740 L -44.906057,39.051117 L -50.457873,37.474432 L -51.610216,41.532055 L -46.058399,43.108740 z M -55.366639,41.457778 C -55.449689,41.750219 -55.605962,41.952736 -55.835456,42.065326 C -56.053213,42.171374 -56.290036,42.188062 -56.545921,42.115392 C -56.792669,42.045317 -56.985370,41.906645 -57.124024,41.699380 C -57.260083,41.482973 -57.286587,41.228550 -57.203535,40.936109 L -56.152412,37.234898 C -56.473183,37.390697 -56.766081,37.430964 -57.031105,37.355699 C -57.268714,37.288219 -57.443813,37.139734 -57.556404,36.910241 C -57.659856,36.683344 -57.676546,36.446521 -57.606472,36.199774 C -57.526015,35.916472 -57.344977,35.696298 -57.063356,35.539257 L -55.078310,34.443854 C -54.738019,34.254095 -54.430792,34.198146 -54.156628,34.276007 C -53.928158,34.340890 -53.771337,34.484186 -53.686162,34.705892 C -53.591848,34.930194 -53.591408,35.206844 -53.684842,35.535840 L -55.366639,41.457778 z M -60.054839,40.126355 C -60.137891,40.418796 -60.294162,40.621313 -60.523655,40.733902 C -60.741413,40.839952 -60.978236,40.856639 -61.234122,40.783969 C -61.480870,40.713895 -61.673570,40.575223 -61.812225,40.367957 C -61.948284,40.151552 -61.974787,39.897128 -61.891736,39.604687 L -60.840613,35.903476 C -61.161384,36.059274 -61.454280,36.099541 -61.719305,36.024275 C -61.956915,35.956797 -62.132014,35.808310 -62.244604,35.578818 C -62.348057,35.351921 -62.364746,35.115098 -62.294672,34.868351 C -62.214214,34.585049 -62.033177,34.364876 -61.751557,34.207834 L -59.766511,33.112431 C -59.426220,32.922672 -59.118993,32.866723 -58.844830,32.944584 C -58.616359,33.009468 -58.459536,33.152763 -58.374362,33.374470 C -58.280049,33.598772 -58.279609,33.875421 -58.373042,34.204417 L -60.054839,40.126355 z "
     id="path1005"
     transform="matrix(0.866630,0.000000,0.000000,0.866630,63.71324,0.580998)" />
  <path
     d="M 50.761394 29.850076 C 50.761394 42.22776 40.715686 52.273466 28.338007 52.273466 C 15.960147 52.273466 5.9144335 42.22776 5.9144335 29.850076 C 5.9144335 17.472398 15.960147 7.426687 28.338007 7.426687 C 40.715686 7.426687 50.761394 17.472398 50.761394 29.850076 z M 45.205129 29.850076 C 45.205129 38.941685 37.648542 46.320356 28.338007 46.320356 C 19.027289 46.320356 11.470879 38.941685 11.470879 29.850076 C 11.470879 20.758468 19.027289 13.379619 28.338007 13.379619 C 37.648542 13.379619 45.205129 20.758468 45.205129 29.850076 z "
     style="font-size:12.000000;opacity:0.29999998;fill-rule:evenodd;stroke-width:13.490400;"
     id="path1566"
     transform="matrix(0.843307,0.000000,0.000000,0.843307,7.554286,8.624664)" />
  <path
     d="M 48.846925 26.976392 C 48.846925 39.354071 38.161177 50.039818 25.783494 50.039818 C 13.405636 50.039818 2.7198871 39.354071 2.7198871 26.976392 C 2.7198871 14.598711 13.405636 3.9129603 25.783494 3.9129603 C 38.161177 3.9129603 48.846925 14.598711 48.846925 26.976392 z M 41.37055 26.976392 C 41.37055 36.068 35.09403 42.166593 25.783494 42.166593 C 16.472781 42.166593 10.196445 36.068 10.196445 26.976392 C 10.196445 17.884781 16.472781 11.786008 25.783494 11.786008 C 35.09403 11.786008 41.37055 17.884781 41.37055 26.976392 z "
     style="font-size:12.000000;fill:url(#linearGradient583);fill-rule:evenodd;stroke:#261933;stroke-width:1.8750000;"
     id="path1525"
     sodipodi:nodetypes="cccccccccs"
     transform="matrix(0.843307,0.000000,0.000000,0.843307,7.554286,8.624664)" />
  <path
     d="M 39.944131 44.540075 C 39.72299 44.105174 41.523852 42.119064 41.958561 42.347013 C 43.515473 43.162825 44.920858 45.563559 46.686837 46.793925 C 50.300188 49.311367 55.39059 50.813414 58.09674 53.590827 C 58.966064 54.482972 58.154601 57.30981 57.303214 58.021281 C 56.369736 58.801606 53.092008 59.824282 51.974409 58.943551 C 48.867489 56.495742 46.746596 52.016801 43.97139 48.694013 C 42.736504 47.215546 40.64985 45.928397 39.944131 44.540075 z "
     style="font-size:12.000000;opacity:0.29999998;fill-rule:evenodd;stroke-width:13.490400;"
     id="path1565"
     sodipodi:nodetypes="ccsccccc"
     transform="matrix(0.843307,0.000000,0.000000,0.843307,7.554286,8.624664)" />
  <ellipse
     cx="373.574921"
     cy="328.786621"
     rx="115.024445"
     ry="115.024429"
     transform="matrix(0.109240,0.000000,0.000000,0.106671,-11.51198,-3.697628)"
     style="font-size:12.000000;fill:url(#linearGradient654);fill-rule:evenodd;stroke-width:1.0000000pt;"
     id="path1521" />
  <path
     d="M 39.09658 42.166681 C 38.875438 41.731781 40.566624 39.965029 41.001331 40.192979 C 42.558243 41.008788 43.963635 43.40951 45.729607 44.639888 C 49.342968 47.157321 54.433357 48.659379 57.139519 51.436792 C 58.00884 52.328936 56.978014 55.155772 56.126627 55.867243 C 55.19315 56.647571 52.24446 57.45089 51.126858 56.570158 C 48.019937 54.122349 45.899046 49.643408 43.12384 46.320621 C 41.888953 44.842153 39.802297 43.555004 39.09658 42.166681 z "
     style="font-size:12.000000;fill:url(#linearGradient581);fill-rule:evenodd;stroke:#261933;stroke-width:1.8750000;"
     id="path1531"
     sodipodi:nodetypes="cccccccc"
     transform="matrix(0.843307,0.000000,0.000000,0.843307,7.554286,8.624664)" />
  <path
     d="M 7.2710428 35.325294 C 5.6744278 32.132066 4.0779956 21.594675 10.943306 13.452108 C 19.245546 5.9482635 27.867151 7.065659 31.379556 7.5446962 C 25.7915 7.8640547 20.043767 7.0658394 12.539918 14.410189 C 5.5149282 21.275315 7.4307212 31.493531 7.2710428 35.325294 z "
     style="font-size:12.000000;opacity:0.69999999;fill:url(#linearGradient655);fill-rule:evenodd;stroke-width:1.0000000pt;"
     id="path1533"
     transform="matrix(0.843307,0.000000,0.000000,0.843307,7.554286,8.624664)" />
  <path
     d="M 39.971751 42.013051 C 39.963887 41.962033 40.122502 41.695244 40.204882 41.758727 C 40.956054 42.338052 42.465016 43.893813 42.472305 43.941378 C 42.479113 43.985683 41.008988 42.621624 40.247267 42.034244 C 40.175439 41.978815 39.978079 42.053903 39.971751 42.013051 z "
     style="font-size:12.000000;opacity:0.69999999;fill:url(#linearGradient653);fill-rule:evenodd;stroke-width:1.0000000pt;"
     id="path1538"
     transform="matrix(0.843307,0.000000,0.000000,0.843307,7.554286,8.624664)" />
  <path
     style="fill:url(#linearGradient682);fill-rule:evenodd;stroke-width:1.0000000pt;"
     d="M 16.200522 28.05286 C 16.057424 27.883744 15.86971 26.017972 16.467633 25.849201 C 18.629846 25.2389 22.760985 26.776843 24.147044 25.448538 C 25.432086 24.217039 23.856055 20.198374 24.414154 18.236568 C 24.590607 17.616311 26.565016 17.790101 26.684588 17.969459 C 26.787609 18.123989 25.072677 18.48316 24.948374 19.104677 C 24.516198 21.265556 25.935433 24.791824 24.681265 25.982757 C 23.286593 27.307109 19.447545 26.168805 17.001852 26.650532 C 16.509335 26.747544 16.302275 28.173112 16.200522 28.05286 z "
     id="path651"
     sodipodi:nodetypes="cssssssss"
     transform="matrix(0.843307,0.000000,0.000000,0.843307,7.554286,8.624664)" />
</svg>
