<?xml version="1.0" encoding="UTF-8" standalone="no"?>
<!DOCTYPE svg PUBLIC "-//W3C//DTD SVG 20010904//EN"
"http://www.w3.org/TR/2001/REC-SVG-20010904/DTD/svg10.dtd">
<!-- Created with Inkscape (http://www.inkscape.org/) -->
<svg
   version="1.0"
   x="0"
   y="0"
   width="48pt"
   height="48pt"
   id="svg611"
   sodipodi:version="0.32"
   inkscape:version="0.39"
   sodipodi:docname="meld (copy).svg"
   sodipodi:docbase="/home/stefan/software/Lila-themes/new-lila-icons"
   xmlns="http://www.w3.org/2000/svg"
   xmlns:cc="http://web.resource.org/cc/"
   xmlns:inkscape="http://www.inkscape.org/namespaces/inkscape"
   xmlns:sodipodi="http://sodipodi.sourceforge.net/DTD/sodipodi-0.dtd"
   xmlns:rdf="http://www.w3.org/1999/02/22-rdf-syntax-ns#"
   xmlns:dc="http://purl.org/dc/elements/1.1/"
   xmlns:xlink="http://www.w3.org/1999/xlink">
  <sodipodi:namedview
     id="base"
     pagecolor="#ffffff"
     bordercolor="#666666"
     borderopacity="1.0"
     inkscape:pageopacity="0.0"
     inkscape:pageshadow="2"
     inkscape:zoom="11.540757"
     inkscape:cx="32.526379"
     inkscape:cy="25.256362"
     inkscape:window-width="931"
     inkscape:window-height="704"
     inkscape:window-x="338"
     inkscape:window-y="227"
     showguides="true"
     snaptoguides="true" />
  <defs
     id="defs613">
    <linearGradient
       id="linearGradient1535">
      <stop
         style="stop-color:#ffffff;stop-opacity:1;"
         offset="0"
         id="stop1537" />
      <stop
         style="stop-color:#ffffff;stop-opacity:0;"
         offset="1"
         id="stop1536" />
    </linearGradient>
    <linearGradient
       id="linearGradient1528">
      <stop
         style="stop-color:#d9cce6;stop-opacity:1.0000000;"
         offset="0.0000000"
         id="stop1530" />
      <stop
         style="stop-color:#73667f;stop-opacity:1.0000000;"
         offset="1.0000000"
         id="stop1529" />
    </linearGradient>
    <linearGradient
       id="linearGradient642">
      <stop
         style="stop-color:#ffffff;stop-opacity:1;"
         offset="0"
         id="stop643" />
      <stop
         style="stop-color:#ffffff;stop-opacity:0;"
         offset="1"
         id="stop644" />
    </linearGradient>
    <linearGradient
       id="linearGradient635">
      <stop
         style="stop-color:#ffffff;stop-opacity:1.0000000;"
         offset="0.0000000"
         id="stop636" />
      <stop
         style="stop-color:#d9cce6;stop-opacity:1.0000000;"
         offset="1.0000000"
         id="stop637" />
    </linearGradient>
    <linearGradient
       id="linearGradient638"
       xlink:href="#linearGradient1535" />
    <linearGradient
       x1="0.027523"
       y1="0.023438"
       x2="1.000000"
       y2="1.015625"
       id="linearGradient641"
       xlink:href="#linearGradient642" />
    <linearGradient
       x1="-0.000009"
       y1="0.015624"
       x2="0.727272"
       y2="0.984375"
       id="linearGradient1522"
       xlink:href="#linearGradient642" />
    <linearGradient
       x1="0.027523"
       y1="0.007813"
       x2="1.009174"
       y2="0.992188"
       id="linearGradient1527"
       xlink:href="#linearGradient1535" />
    <linearGradient
       x1="0.010743"
       y1="0.031251"
       x2="0.967741"
       y2="0.992187"
       id="linearGradient1532"
       xlink:href="#linearGradient635" />
    <linearGradient
       x1="0.007275"
       y1="-0.012819"
       x2="0.996364"
       y2="0.974359"
       id="linearGradient1534"
       xlink:href="#linearGradient635" />
    <linearGradient
       id="linearGradient1539"
       xlink:href="#linearGradient1528"
       x1="0.019607844"
       y1="0.0078125000"
       x2="0.96078432"
       y2="0.98437500" />
    <linearGradient
       id="linearGradient1567"
       xlink:href="#linearGradient1528"
       x1="0.021276595"
       y1="0.015625000"
       x2="0.96808511"
       y2="0.99218750" />
    <linearGradient
       xlink:href="#linearGradient1535"
       id="linearGradient896"
       x1="0.011904762"
       y1="3.7947076e-17"
       x2="0.98809522"
       y2="0.99218750" />
    <linearGradient
       xlink:href="#linearGradient1535"
       id="linearGradient899"
       x1="0.10000000"
       y1="-0.0078125000"
       x2="0.69999999"
       y2="0.98437500" />
    <linearGradient
       xlink:href="#linearGradient1535"
       id="linearGradient901"
       x1="-1.0690233e-16"
       y1="4.0657581e-18"
       x2="0.98333335"
       y2="0.97656250" />
    <linearGradient
       xlink:href="#linearGradient1535"
       id="linearGradient905"
       x1="0.0048523550"
       y1="-0.097928792"
       x2="0.99029034"
       y2="1.0497539" />
    <linearGradient
       xlink:href="#linearGradient1535"
       id="linearGradient939"
       x1="0.0041322312"
       y1="0.023437500"
       x2="0.98347110"
       y2="0.97656250" />
    <linearGradient
       xlink:href="#linearGradient1535"
       id="linearGradient948" />
    <radialGradient
       xlink:href="#linearGradient1535"
       id="radialGradient921" />
  </defs>
  <metadata
     id="metadata983">
    <rdf:RDF
       id="RDF984">
      <cc:Work
         rdf:about=""
         id="Work985">
        <dc:format
           id="format986">image/svg+xml</dc:format>
        <dc:type
           id="type988"
           rdf:resource="http://purl.org/dc/dcmitype/StillImage" />
      </cc:Work>
    </rdf:RDF>
  </metadata>
  <path
     id="path1581"
     style="font-size:12.000000;font-style:normal;font-variant:normal;font-weight:100;font-stretch:ultra-condensed;opacity:0.29999998;color:#000000;fill:#000000;fill-opacity:1.0000000;fill-rule:evenodd;stroke:none;stroke-width:1.8237783;stroke-linecap:butt;stroke-linejoin:miter;stroke-miterlimit:4.0000000;stroke-dashoffset:0.0000000;stroke-opacity:1.0000000;marker:none;marker-start:none;marker-mid:none;marker-end:none;font-family:Bitstream Vera Sans;letter-spacing:0.0000000;text-anchor:start;writing-mode:lr;"
     d="M 41.488879,59.215777 C 40.078294,58.919517 46.493267,56.107170 48.470416,48.412718 C 50.411634,40.858100 47.574550,33.862422 45.934344,33.872549 C 44.487736,33.881481 46.401051,35.183408 40.959989,43.824120 C 38.320882,48.015170 33.734970,51.396014 26.158296,51.253001 C 16.738123,51.075192 8.9555495,45.170447 5.9729079,35.308342 C 3.8823943,28.396059 5.9581928,17.880626 8.6963758,15.122974 C 11.642806,12.155593 19.816182,7.7421098 20.673338,7.9221351 C 22.083567,8.2183204 16.111187,11.059035 14.180439,20.133249 C 12.070220,30.050954 14.967994,33.492115 16.608200,33.481988 C 18.054808,33.473056 16.574739,29.571646 20.282813,22.880546 C 22.683529,18.548532 29.032491,16.025803 34.326324,16.318159 C 46.889873,17.011994 53.049705,25.627036 55.378205,32.046195 C 57.823899,38.788429 56.254075,50.320741 54.093021,52.461698 C 49.075355,57.432702 42.345857,59.395765 41.488879,59.215777 z "
     sodipodi:nodetypes="cssssssssssssss" />
  <path
     id="path990"
     style="font-size:12.000000;font-style:normal;font-variant:normal;font-weight:100;font-stretch:ultra-condensed;color:#000000;fill:url(#linearGradient1539);fill-opacity:1.0000000;fill-rule:evenodd;stroke:#261933;stroke-width:1.8237783;stroke-linecap:butt;stroke-linejoin:miter;stroke-miterlimit:4.0000000;stroke-dashoffset:0.0000000;stroke-opacity:1.0000000;marker:none;marker-start:none;marker-mid:none;marker-end:none;font-family:Bitstream Vera Sans;letter-spacing:0.0000000;text-anchor:start;writing-mode:lr;"
     d="M 40.211586,55.254678 C 38.801001,54.958418 45.215974,52.146071 47.193123,44.451619 C 49.134341,36.897001 46.297257,29.901323 44.657051,29.911450 C 43.210443,29.920382 45.123758,31.222309 39.682696,39.863021 C 37.043589,44.054071 32.457677,47.434915 24.881003,47.291902 C 15.460830,47.114093 7.6782570,41.209348 4.6956154,31.347243 C 2.6051018,24.434960 4.6809003,13.919527 7.4190833,11.161874 C 10.365513,8.1944933 18.538889,3.7810099 19.396045,3.9610352 C 20.806274,4.2572205 14.833894,7.0979355 12.903146,16.172150 C 10.792927,26.089855 13.690701,29.531016 15.330907,29.520889 C 16.777515,29.511957 15.297446,25.610547 19.005520,18.919447 C 21.406236,14.587433 27.755198,12.064703 33.049031,12.357060 C 45.612580,13.050895 51.772412,21.665937 54.100912,28.085096 C 56.546606,34.827330 54.976782,46.359642 52.815728,48.500599 C 47.798062,53.471603 41.068564,55.434666 40.211586,55.254678 z "
     sodipodi:nodetypes="cssssssssssssss" />
  <path
     style="fill:url(#linearGradient896);fill-opacity:1.00000000;fill-rule:evenodd;stroke:none;stroke-width:0.50000000;stroke-linecap:butt;stroke-linejoin:miter;stroke-opacity:1.0000000;font-size:12.000000;font-style:normal;font-variant:normal;font-weight:100;font-stretch:ultra-condensed;color:#000000;marker:none;marker-start:none;marker-mid:none;marker-end:none;stroke-miterlimit:4.0000000;stroke-dasharray:none;stroke-dashoffset:0;font-family:Bitstream Vera Sans;letter-spacing:0.0000000;text-anchor:start;writing-mode:lr;"
     d="M 4.9020391,24.537632 C 4.7476900,22.222395 4.9080836,17.417117 7.5367086,12.770234 C 8.8292552,10.485270 14.696163,7.0186899 14.775031,7.4799590 C 14.879751,8.0924241 12.221113,9.8726054 10.455577,12.158026 C 8.3730239,14.853816 4.9445615,25.175469 4.9020391,24.537632 z "
     id="path999"
     sodipodi:nodetypes="cssss" />
  <path
     style="fill:url(#linearGradient896);fill-opacity:1.00000000;fill-rule:evenodd;stroke:none;stroke-width:0.50000000;stroke-linecap:butt;stroke-linejoin:miter;stroke-opacity:1.0000000;font-size:12.000000;font-style:normal;font-variant:normal;font-weight:100;font-stretch:ultra-condensed;color:#000000;marker:none;marker-start:none;marker-mid:none;marker-end:none;stroke-miterlimit:4.0000000;stroke-dasharray:none;stroke-dashoffset:0;font-family:Bitstream Vera Sans;letter-spacing:0.0000000;text-anchor:start;writing-mode:lr;"
     d="M 16.911857,29.119809 C 17.931336,22.323285 19.838705,18.305763 22.857404,16.074551 C 25.876102,13.843339 30.820850,12.701312 36.900915,14.005485 C 41.654927,15.025220 46.047145,17.831878 45.388790,17.767524 C 43.892025,17.621217 31.535850,12.687859 23.594970,19.555937 C 16.626919,25.589616 16.750106,30.198150 16.911857,29.119809 z "
     id="path1000"
     sodipodi:nodetypes="csssss" />
</svg>
