<?xml version="1.0" encoding="UTF-8" standalone="no"?>
<!DOCTYPE svg PUBLIC "-//W3C//DTD SVG 20010904//EN"
"http://www.w3.org/TR/2001/REC-SVG-20010904/DTD/svg10.dtd">
<!-- Created with Inkscape (http://www.inkscape.org/) -->
<svg
   id="svg1"
   sodipodi:version="0.32"
   inkscape:version="0.39"
   width="48.000000pt"
   height="48.000000pt"
   sodipodi:docbase="/home/scaba/files/pre-release/lila-gnome/Lila/scalable/apps"
   sodipodi:docname="mozilla-icon.svg"
   xmlns="http://www.w3.org/2000/svg"
   xmlns:inkscape="http://www.inkscape.org/namespaces/inkscape"
   xmlns:sodipodi="http://sodipodi.sourceforge.net/DTD/sodipodi-0.dtd"
   xmlns:xlink="http://www.w3.org/1999/xlink"
   xmlns:rdf="http://www.w3.org/1999/02/22-rdf-syntax-ns#"
   xmlns:cc="http://web.resource.org/cc/"
   xmlns:dc="http://purl.org/dc/elements/1.1/">
  <defs
     id="defs3">
    <linearGradient
       id="linearGradient591">
      <stop
         style="stop-color:#ffffff;stop-opacity:1;"
         offset="0.00000000"
         id="stop592" />
      <stop
         style="stop-color:#ffffff;stop-opacity:0;"
         offset="1.00000000"
         id="stop593" />
    </linearGradient>
    <linearGradient
       id="linearGradient582">
      <stop
         style="stop-color:#d9cce6;stop-opacity:1;"
         offset="0.00000000"
         id="stop583" />
      <stop
         style="stop-color:#73667f;stop-opacity:1;"
         offset="1.00000000"
         id="stop584" />
    </linearGradient>
    <linearGradient
       id="linearGradient577">
      <stop
         style="stop-color:#000000;stop-opacity:1;"
         offset="0.00000000"
         id="stop578" />
      <stop
         style="stop-color:#ffffff;stop-opacity:1;"
         offset="1.00000000"
         id="stop579" />
    </linearGradient>
    <linearGradient
       xlink:href="#linearGradient582"
       id="linearGradient580"
       x1="0.013422819"
       y1="0.012987013"
       x2="0.99328858"
       y2="0.96753246" />
    <radialGradient
       xlink:href="#linearGradient591"
       id="radialGradient581"
       cx="0.98863637"
       cy="0.01562500"
       r="1.16435087"
       fx="0.98863637"
       fy="0.01562500" />
    <linearGradient
       xlink:href="#linearGradient591"
       id="linearGradient590"
       x1="0.019607844"
       y1="0.012987013"
       x2="0.98039216"
       y2="0.98051947" />
    <radialGradient
       xlink:href="#linearGradient591"
       id="radialGradient601"
       cx="1.10000002"
       cy="0.98437500"
       r="1.15056360"
       fx="1.10000002"
       fy="0.98437500" />
    <linearGradient
       xlink:href="#linearGradient591"
       id="linearGradient632"
       x1="0.42105263"
       y1="0.04687500"
       x2="0.68421054"
       y2="0.26562500" />
    <linearGradient
       xlink:href="#linearGradient591"
       id="linearGradient633"
       x1="0.03174603"
       y1="0.04687500"
       x2="0.52380955"
       y2="0.48437500" />
    <linearGradient
       xlink:href="#linearGradient591"
       id="linearGradient634"
       x1="0.06172840"
       y1="0.09375000"
       x2="0.92592591"
       y2="0.67187500" />
    <linearGradient
       xlink:href="#linearGradient591"
       id="linearGradient635"
       x1="0.07432432"
       y1="0.07812500"
       x2="0.72297299"
       y2="0.46875000" />
    <linearGradient
       xlink:href="#linearGradient591"
       id="linearGradient636"
       x1="0.06060606"
       y1="0.18750000"
       x2="0.65151513"
       y2="0.50000000" />
    <linearGradient
       xlink:href="#linearGradient591"
       id="linearGradient637"
       x1="0.04385965"
       y1="0.17187500"
       x2="0.60526317"
       y2="0.60937500" />
    <linearGradient
       xlink:href="#linearGradient591"
       id="linearGradient638"
       x1="0.14864865"
       y1="0.10937500"
       x2="0.47297296"
       y2="0.50000000" />
    <linearGradient
       xlink:href="#linearGradient591"
       id="linearGradient639"
       x1="0.08870967"
       y1="0.10937500"
       x2="0.68548387"
       y2="0.51562500" />
    <linearGradient
       xlink:href="#linearGradient591"
       id="linearGradient640" />
    <linearGradient
       xlink:href="#linearGradient591"
       id="linearGradient641" />
    <linearGradient
       xlink:href="#linearGradient591"
       id="linearGradient642" />
    <linearGradient
       xlink:href="#linearGradient591"
       id="linearGradient643" />
  </defs>
  <sodipodi:namedview
     id="base"
     pagecolor="#ffffff"
     bordercolor="#666666"
     borderopacity="1.0"
     inkscape:pageopacity="0.0"
     inkscape:pageshadow="2"
     inkscape:zoom="6.6118421"
     inkscape:cx="36.673855"
     inkscape:cy="13.454816"
     inkscape:window-width="997"
     inkscape:window-height="808"
     showgrid="false"
     gridspacingy="2pt"
     gridspacingx="2pt"
     gridtolerance="0.1px"
     inkscape:window-x="47"
     inkscape:window-y="92"
     inkscape:grid-bbox="false" />
  <path
     style="font-size:12.000000;opacity:0.30412367;fill:#000000;fill-opacity:1.0000000;fill-rule:evenodd;stroke:none;stroke-width:1.8750000;stroke-linejoin:round;stroke-opacity:1.0000000;"
     d="M 40.945707,14.257596 C 41.397407,12.860159 40.474826,7.3063807 43.623440,5.8200843 C 52.214321,1.6835180 55.989995,5.5888291 53.908479,13.130391 C 53.259341,16.653023 47.768467,16.251315 45.897870,17.338212 C 44.029438,18.863248 44.230305,20.158362 44.546134,21.798361 C 44.741575,23.708476 48.487630,25.775255 51.371058,26.131306 C 53.126696,26.226171 54.643065,26.321032 56.637969,25.932225 C 58.054595,25.119191 58.035623,29.747466 56.222160,29.055353 C 54.651327,28.770766 52.808526,27.851802 52.314389,28.776393 C 50.965384,29.983553 53.357702,30.857743 54.281721,32.185820 C 55.649696,33.359587 53.309051,36.226204 51.925471,33.893347 C 51.093853,32.707563 50.975362,31.371077 49.904479,31.515393 C 49.001878,31.530069 48.702113,33.630135 48.876208,35.458581 C 49.618789,37.976482 44.398410,36.999676 45.739156,34.801776 C 46.236658,34.030859 47.074370,32.643436 46.734441,30.905173 C 46.833575,28.834893 43.613852,26.522776 40.841795,25.661674 C 37.210890,24.960201 35.214569,27.987039 32.526712,30.647441 C 30.431147,32.845979 26.356113,34.242062 26.055042,36.803353 C 26.092064,39.667950 29.272245,40.699127 31.821558,40.903528 C 33.724059,40.889283 35.396639,41.063264 37.041184,40.257983 C 39.596135,37.638417 41.477170,44.759590 38.843021,43.246157 C 36.037920,42.776953 35.491829,42.700290 33.643789,43.174601 C 32.093457,43.504601 35.907919,47.281651 36.649299,47.562215 C 40.329949,49.142437 33.470719,53.515688 33.599754,49.605160 C 33.490324,47.827655 31.121884,45.178113 30.574134,45.741523 C 28.968032,46.631739 29.791963,49.786047 31.010335,50.716182 C 32.803287,53.267372 25.815316,53.866006 26.693253,50.601225 C 27.567821,48.616339 27.637664,47.781069 27.247663,46.026111 C 26.291518,41.478023 23.867075,39.972532 21.953865,40.865751 C 17.438410,43.192543 16.511942,44.672912 17.379970,51.110918 C 17.472373,53.767072 18.521838,58.236994 17.657176,59.079381 C 16.839634,60.076815 12.911634,54.423771 11.974459,50.826330 C 11.419130,45.884112 11.581598,40.095470 16.050851,36.725187 C 17.220869,34.002887 14.414966,32.828690 11.278197,32.645664 C 9.6421925,32.415846 8.4847214,33.516125 6.7290851,34.132731 C 4.5839530,34.855580 4.1136824,31.104466 6.0360712,30.859969 C 7.7455067,30.575383 10.205442,30.913255 9.6418519,30.024078 C 9.6534783,29.170314 7.1201104,28.661433 5.4568758,27.807669 C 3.0749253,26.496289 5.2390275,23.612974 6.5656989,24.961789 C 7.9079739,26.268492 10.078336,27.024217 11.779511,27.121735 C 12.772067,27.232658 11.643933,24.629772 10.841994,22.685086 C 9.8293260,19.844853 15.478730,19.193056 14.810945,22.400498 C 14.309054,25.407389 14.433358,27.048440 15.064227,28.277304 C 16.645769,30.546669 18.135708,33.565369 19.597618,32.328114 C 21.747643,29.534345 21.285884,28.880682 24.470562,24.362496 C 27.898598,20.500374 32.326133,20.771570 32.713792,19.969915 C 33.109102,18.279086 32.634275,17.410851 28.722799,16.445530 C 26.129733,16.073416 23.775932,16.426812 22.259561,17.747550 C 20.427128,19.580037 18.714324,14.278365 21.069045,14.417999 C 23.579619,14.540092 26.882739,14.898063 26.789421,13.188515 C 26.643756,12.107057 23.525957,11.715366 21.604488,11.280194 C 19.365811,10.642435 22.280696,6.0399914 23.846916,8.3775254 C 25.157289,9.9854074 28.405147,11.587334 28.882761,10.523106 C 29.938039,8.3626416 27.988480,8.1189936 27.249264,6.0794467 C 25.984398,3.3504444 30.940445,2.9188831 30.991542,5.5102706 C 31.268748,7.5498175 31.545954,10.435790 31.823159,11.628911 C 32.175326,13.647082 34.593958,16.051833 37.936949,16.981742 C 39.484139,16.416590 40.548127,15.397551 40.945707,14.257596 z "
     id="path863"
     sodipodi:nodetypes="cccccccccccccccccccccccccccccccccccccccccccccccccccccccccc" />
  <path
     style="font-size:12.000000;fill:url(#linearGradient580);fill-rule:evenodd;stroke:#261933;stroke-width:1.3539356;stroke-linejoin:round;"
     d="M 39.794257,12.480952 C 40.245958,11.083517 39.323376,5.5297378 42.471991,4.0434408 C 51.062872,-0.093124653 54.838546,3.8121855 52.757029,11.353748 C 52.107892,14.876380 46.617018,14.474671 44.746420,15.561568 C 42.877988,17.086604 43.078855,18.381719 43.394683,20.021716 C 43.590126,21.931833 47.336180,23.998610 50.219609,24.354664 C 51.975245,24.449527 53.491617,24.544388 55.486519,24.155580 C 56.903145,23.342548 56.884174,27.970823 55.070711,27.278708 C 53.499879,26.994122 51.657076,26.075160 51.162940,26.999751 C 49.813934,28.206909 52.206251,29.081099 53.130272,30.409176 C 54.498247,31.582941 52.157602,34.449560 50.774021,32.116703 C 49.942403,30.930921 49.823913,29.594435 48.753030,29.738749 C 47.850428,29.753425 47.550663,31.853492 47.724757,33.681938 C 48.467339,36.199838 43.246961,35.223032 44.587706,33.025132 C 45.085208,32.254215 45.922921,30.866793 45.582992,29.128530 C 45.682125,27.058250 42.462403,24.746133 39.690346,23.885031 C 36.059440,23.183557 34.063120,26.210396 31.375263,28.870798 C 29.279698,31.069335 25.204664,32.465420 24.903591,35.026711 C 24.940615,37.891309 28.120796,38.922483 30.670109,39.126885 C 32.572609,39.112640 34.245189,39.286620 35.889734,38.481340 C 38.444685,35.861773 40.325721,42.982947 37.691572,41.469514 C 34.886470,41.000309 34.340379,40.923647 32.492339,41.397959 C 30.942008,41.727957 34.756469,45.505008 35.497849,45.785572 C 39.178498,47.365794 32.319269,51.739044 32.448304,47.828517 C 32.338875,46.051012 29.970435,43.401471 29.422685,43.964880 C 27.816583,44.855094 28.640515,48.009403 29.858886,48.939539 C 31.651837,51.490727 24.663867,52.089363 25.541803,48.824581 C 26.416372,46.839696 26.486215,46.004427 26.096214,44.249468 C 25.140069,39.701379 22.715625,38.195887 20.802415,39.089107 C 16.286960,41.415900 15.360492,42.896269 16.228521,49.334274 C 16.320924,51.990428 17.370388,56.460350 16.505726,57.302738 C 15.688185,58.300171 11.760184,52.647126 10.823009,49.049688 C 10.267680,44.107469 10.430149,38.318826 14.899402,34.948544 C 16.069418,32.226242 13.263517,31.052046 10.126747,30.869021 C 8.4907434,30.639202 7.3332719,31.739480 5.5776353,32.356087 C 3.4325032,33.078936 2.9622326,29.327822 4.8846215,29.083326 C 6.5940568,28.798738 9.0539927,29.136611 8.4904020,28.247433 C 8.5020285,27.393669 5.9686606,26.884790 4.3054260,26.031026 C 1.9234757,24.719646 4.0875778,21.836331 5.4142492,23.185147 C 6.7565241,24.491846 8.9268864,25.247571 10.628062,25.345092 C 11.620617,25.456013 10.492484,22.853128 9.6905458,20.908443 C 8.6778767,18.068210 14.327280,17.416412 13.659496,20.623855 C 13.157604,23.630746 13.281910,25.271796 13.912778,26.500660 C 15.494319,28.770025 16.984259,31.788726 18.446167,30.551470 C 20.596192,27.757702 20.134434,27.104038 23.319112,22.585853 C 26.747148,18.723732 31.174683,18.994926 31.562342,18.193272 C 31.957651,16.502442 31.482827,15.634209 27.571349,14.668885 C 24.978284,14.296772 22.624482,14.650167 21.108112,15.970907 C 19.275677,17.803394 17.562876,12.501721 19.917596,12.641357 C 22.428169,12.763449 25.731291,13.121419 25.637971,11.411869 C 25.492307,10.330414 22.374508,9.9387214 20.453037,9.5035504 C 18.214362,8.8657919 21.129246,4.2633477 22.695467,6.6008825 C 24.005839,8.2087639 27.253698,9.8106894 27.731312,8.7464620 C 28.786590,6.5859976 26.837030,6.3423488 26.097814,4.3028027 C 24.832949,1.5738009 29.788995,1.1422395 29.840092,3.7336274 C 30.117299,5.7731737 30.394504,8.6591465 30.671710,9.8522664 C 31.023877,11.870438 33.442509,14.275190 36.785500,15.205098 C 38.332689,14.639947 39.396676,13.620908 39.794257,12.480952 z "
     id="path631"
     sodipodi:nodetypes="cccccccccccccccccccccccccccccccccccccccccccccccccccccccccc" />
  <path
     style="fill:url(#linearGradient639);fill-opacity:1.00000000;fill-rule:evenodd;stroke:none;stroke-width:1.0000000pt;stroke-linecap:butt;stroke-linejoin:miter;stroke-opacity:1.0000000;"
     d="M 41.157096,10.480614 C 41.296155,9.2695384 41.122105,7.4360140 43.083626,5.1942745 C 43.779376,4.4115564 47.703588,3.7185708 48.637646,3.8820313 C 47.306613,4.1388973 44.436145,5.0681407 42.965003,6.7260935 C 42.124350,7.7302062 41.543038,9.3698644 41.157096,10.480614 z "
     id="path671"
     sodipodi:nodetypes="csccc" />
  <path
     sodipodi:type="arc"
     style="font-size:12.000000;fill:#ff0000;fill-opacity:1.00000000;fill-rule:evenodd;stroke:#330000;stroke-width:1.0000000pt;stroke-opacity:1.0000000;"
     id="path575"
     sodipodi:cx="60.895523"
     sodipodi:cy="10.268657"
     sodipodi:rx="0.55721390"
     sodipodi:ry="0.71641791"
     d="M 61.452737 10.268657 A 0.55721390 0.71641791 0 1 0 60.338309,10.268657 A 0.55721390 0.71641791 0 1 0 61.452737 10.268657 z"
     transform="matrix(0.722098,0.000000,0.000000,0.722098,1.473537,0.212257)" />
  <path
     sodipodi:type="arc"
     style="font-size:12.000000;fill:#ff0000;fill-opacity:1.00000000;fill-rule:evenodd;stroke:#330000;stroke-width:1.0000000pt;stroke-opacity:1.0000000;"
     id="path576"
     sodipodi:cx="60.895523"
     sodipodi:cy="10.268657"
     sodipodi:rx="0.55721390"
     sodipodi:ry="0.71641791"
     d="M 61.452737 10.268657 A 0.55721390 0.71641791 0 1 0 60.338309,10.268657 A 0.55721390 0.71641791 0 1 0 61.452737 10.268657 z"
     transform="matrix(0.722098,0.000000,0.000000,0.722098,4.318822,2.712662)" />
  <path
     style="fill:url(#linearGradient590);fill-opacity:1.00000000;fill-rule:evenodd;stroke:none;stroke-width:1.0000000pt;stroke-linecap:butt;stroke-linejoin:round;stroke-opacity:1.0000000;"
     d="M 20.808545,30.066201 C 22.130598,27.048474 22.791623,25.913234 24.860921,23.269130 C 26.930220,20.625026 27.519395,21.127982 30.925116,19.834671 C 26.824839,21.920733 23.838248,25.256999 20.808545,30.066201 z "
     id="path663"
     sodipodi:nodetypes="cccc" />
  <path
     style="fill:url(#linearGradient632);fill-opacity:1.00000000;fill-rule:evenodd;stroke:none;stroke-width:1.0000000pt;stroke-linecap:butt;stroke-linejoin:miter;stroke-opacity:1.0000000;"
     d="M 15.405377,35.929214 C 11.688303,39.454684 11.305099,45.279377 12.186468,48.689888 C 12.684632,44.704573 13.872563,39.454684 15.405377,35.929214 z "
     id="path664"
     sodipodi:nodetypes="ccc" />
  <path
     style="fill:url(#linearGradient633);fill-opacity:1.0000000;fill-rule:evenodd;stroke:none;stroke-width:1.0000000pt;stroke-linecap:butt;stroke-linejoin:miter;stroke-opacity:1.0000000;"
     d="M 4.8014839,31.464053 C 4.5965636,31.019210 4.6213512,30.270928 4.7909768,30.067377 C 5.0045547,29.811084 5.6628503,29.866281 6.1510141,29.951240 C 5.4411154,30.162500 4.8387747,30.387243 4.8014839,31.464053 z "
     id="path665"
     sodipodi:nodetypes="cscc" />
  <path
     style="fill:url(#linearGradient636);fill-opacity:1.0000000;fill-rule:evenodd;stroke:none;stroke-width:1.0000000pt;stroke-linecap:butt;stroke-linejoin:miter;stroke-opacity:1.0000000;"
     d="M 27.431990,4.6607780 C 27.093788,4.3158952 26.692047,4.1505832 27.088282,3.2974227 C 27.501254,2.3749092 28.593236,3.0296870 28.781519,3.7477260 C 27.072021,3.2259462 27.402641,3.8172074 27.431990,4.6607780 z "
     id="path666"
     sodipodi:nodetypes="cscc" />
  <path
     style="fill:url(#linearGradient637);fill-opacity:1.0000000;fill-rule:evenodd;stroke:none;stroke-width:1.0000000pt;stroke-linecap:butt;stroke-linejoin:miter;stroke-opacity:1.0000000;"
     d="M 21.067100,8.6558879 C 20.562301,8.5109247 20.428414,8.1049818 20.989954,7.3591716 C 21.564466,6.5479985 21.828507,6.9581564 22.183392,7.5429147 C 21.373533,7.3876559 21.104391,7.8789564 21.067100,8.6558879 z "
     id="path667"
     sodipodi:nodetypes="cscc" />
  <path
     style="fill:url(#linearGradient638);fill-opacity:1.0000000;fill-rule:evenodd;stroke:none;stroke-width:1.0000000pt;stroke-linecap:butt;stroke-linejoin:miter;stroke-opacity:1.0000000;"
     d="M 20.197001,14.939226 C 19.858800,14.760943 19.583708,13.946021 19.753334,13.742470 C 19.966911,13.486177 20.825127,13.474734 21.346611,13.559694 C 20.336833,13.704314 19.801132,13.929056 20.197001,14.939226 z "
     id="path668"
     sodipodi:nodetypes="cscc" />
  <path
     style="fill:url(#linearGradient635);fill-opacity:1.0000000;fill-rule:evenodd;stroke:none;stroke-width:1.0000000pt;stroke-linecap:butt;stroke-linejoin:miter;stroke-opacity:1.0000000;"
     d="M 11.262552,21.130025 C 10.457872,20.518581 10.482659,20.136820 10.652285,19.933269 C 10.865862,19.676976 11.624118,19.332334 12.512123,19.450611 C 11.668944,19.695192 10.900004,20.219813 11.262552,21.130025 z "
     id="path669"
     sodipodi:nodetypes="cscc" />
  <path
     style="fill:url(#linearGradient634);fill-opacity:1.0000000;fill-rule:evenodd;stroke:none;stroke-width:1.0000000pt;stroke-linecap:butt;stroke-linejoin:miter;stroke-opacity:1.0000000;"
     d="M 4.9384039,25.214033 C 4.3336437,24.935791 4.1251913,24.287469 4.2948168,24.083918 C 4.5083948,23.827626 5.1333704,23.916142 5.8214541,24.567541 C 5.2448355,24.279002 4.2759749,24.270503 4.9384039,25.214033 z "
     id="path670"
     sodipodi:nodetypes="cscc" />
  <metadata
     id="metadata42">
    <rdf:RDF
       id="RDF43">
      <cc:Work
         rdf:about=""
         id="Work44">
        <dc:format
           id="format45">image/svg+xml</dc:format>
        <dc:type
           id="type47"
           rdf:resource="http://purl.org/dc/dcmitype/StillImage" />
      </cc:Work>
    </rdf:RDF>
  </metadata>
</svg>
