<?xml version="1.0" encoding="UTF-8" standalone="no"?>
<!DOCTYPE svg PUBLIC "-//W3C//DTD SVG 20010904//EN"
"http://www.w3.org/TR/2001/REC-SVG-20010904/DTD/svg10.dtd">
<!-- Created with Inkscape (http://www.inkscape.org/) -->
<svg
   id="svg1"
   sodipodi:version="0.32"
   inkscape:version="0.37"
   width="48pt"
   height="48pt"
   sodipodi:docbase="/home/dan/Projects/Lila-icons/scalable/apps"
   sodipodi:docname="mplayer.svg"
   xmlns="http://www.w3.org/2000/svg"
   xmlns:inkscape="http://www.inkscape.org/namespaces/inkscape"
   xmlns:sodipodi="http://sodipodi.sourceforge.net/DTD/sodipodi-0.dtd"
   xmlns:xlink="http://www.w3.org/1999/xlink">
  <defs
     id="defs3">
    <linearGradient
       id="linearGradient599">
      <stop
         style="stop-color:#ffffff;stop-opacity:1;"
         offset="0.00000000"
         id="stop600" />
      <stop
         style="stop-color:#d9cce6;stop-opacity:1;"
         offset="1.00000000"
         id="stop601" />
    </linearGradient>
    <linearGradient
       id="linearGradient584">
      <stop
         style="stop-color:#ffffff;stop-opacity:1;"
         offset="0.00000000"
         id="stop585" />
      <stop
         style="stop-color:#ffffff;stop-opacity:0;"
         offset="1.00000000"
         id="stop586" />
    </linearGradient>
    <linearGradient
       id="linearGradient578">
      <stop
         style="stop-color:#d9cce6;stop-opacity:1;"
         offset="0.00000000"
         id="stop579" />
      <stop
         style="stop-color:#73667f;stop-opacity:1;"
         offset="1.00000000"
         id="stop580" />
    </linearGradient>
    <linearGradient
       xlink:href="#linearGradient578"
       id="linearGradient581"
       x1="0.00000000"
       y1="-0.00000000"
       x2="1.00362325"
       y2="0.90625000" />
    <linearGradient
       xlink:href="#linearGradient599"
       id="linearGradient583"
       x1="-0.00000000"
       y1="0.00000000"
       x2="1.00000000"
       y2="0.99218750" />
    <linearGradient
       xlink:href="#linearGradient599"
       id="linearGradient860"
       x1="0.00000000"
       y1="0.00000000"
       x2="1.00000000"
       y2="0.96875000" />
    <linearGradient
       xlink:href="#linearGradient578"
       id="linearGradient861"
       x1="-0.00000000"
       y1="-0.00000000"
       x2="0.99637681"
       y2="0.93750000" />
    <linearGradient
       xlink:href="#linearGradient578"
       id="linearGradient862"
       x1="0.00000000"
       y1="0.00000000"
       x2="0.99218750"
       y2="1.01562500" />
    <radialGradient
       xlink:href="#linearGradient578"
       id="radialGradient595"
       cx="0.33846155"
       cy="0.34375000"
       r="0.66501766"
       fx="0.33076921"
       fy="0.33593750" />
    <linearGradient
       xlink:href="#linearGradient599"
       id="linearGradient652"
       x1="0.00000000"
       y1="-0.00000000"
       x2="0.98611110"
       y2="0.99218750" />
    <linearGradient
       xlink:href="#linearGradient584"
       id="linearGradient654"
       x1="-0.00000000"
       y1="-0.00000000"
       x2="0.99358976"
       y2="0.99218750" />
    <linearGradient
       xlink:href="#linearGradient584"
       id="linearGradient661"
       x1="-0.00000000"
       y1="-0.00000000"
       x2="0.99637681"
       y2="0.90909094" />
    <linearGradient
       xlink:href="#linearGradient584"
       id="linearGradient616"
       x1="-0.00000000"
       y1="-0.00000000"
       x2="0.99637681"
       y2="0.92500001" />
    <linearGradient
       xlink:href="#linearGradient584"
       id="linearGradient618"
       x1="0.00000000"
       y1="-0.00000000"
       x2="1.00000000"
       y2="1.00781250" />
    <linearGradient
       xlink:href="#linearGradient584"
       id="linearGradient620"
       x1="-0.00000000"
       y1="0.00000000"
       x2="1.00000000"
       y2="0.99218750" />
    <linearGradient
       xlink:href="#linearGradient584"
       id="linearGradient633"
       x1="0.00000000"
       y1="0.00000000"
       x2="1.02777779"
       y2="1.00781250" />
  </defs>
  <sodipodi:namedview
     id="base"
     pagecolor="#ffffff"
     bordercolor="#666666"
     borderopacity="1.0"
     inkscape:pageopacity="0.0"
     inkscape:pageshadow="2"
     inkscape:zoom="0.99743399"
     inkscape:cx="22.8375625"
     inkscape:cy="23.7328193"
     inkscape:window-width="640"
     inkscape:window-height="535"
     inkscape:window-x="80"
     inkscape:window-y="101"
     showborder="true" />
  <g
     id="g626"
     style="opacity:0.296369;"
     transform="translate(2.193128,2.193128)">
    <path
       style="font-size:12;fill:#000000;fill-rule:evenodd;stroke:none;stroke-width:1.875;stroke-dasharray:none;stroke-linejoin:round;stroke-linecap:round;stroke-opacity:1;fill-opacity:1;"
       d="M 9.2630586 9.4180245 C 8.2333812 9.1242465 34.220512 2.9851887 47.082848 2.5082763 C 51.337989 2.3556659 53.702407 9.1366235 51.938704 9.1395515 C 40.322838 9.0196015 11.11923 9.8083715 9.2630586 9.4180245 z "
       id="path621"
       sodipodi:nodetypes="csss" />
    <path
       style="font-size:12;fill:#000000;fill-rule:evenodd;stroke:none;stroke-width:1.875;stroke-dasharray:none;stroke-linejoin:round;stroke-linecap:round;stroke-opacity:1;fill-opacity:1;"
       d="M 51.151137 49.769936 C 52.180814 50.063713 27.458033 57.050918 14.595697 57.52783 C 10.340554 57.68044 7.8194846 50.272876 9.5831869 50.269947 C 21.199054 50.389897 49.294966 49.379588 51.151137 49.769936 z "
       id="path622"
       sodipodi:nodetypes="csss" />
    <path
       style="font-size:12;fill:#000000;fill-rule:evenodd;stroke:none;stroke-width:1.875;stroke-dasharray:none;stroke-linejoin:round;stroke-linecap:round;stroke-opacity:1;fill-opacity:1;"
       d="M 7.8434116 46.090703 C 7.6092251 46.841313 3.0694955 26.016189 2.9507628 16.56527 C 2.9152734 13.438792 8.4800597 11.6734 8.4504831 12.968201 C 8.1534772 21.49334 8.1633583 44.735095 7.8434116 46.090703 z "
       id="path623"
       sodipodi:nodetypes="csss" />
    <path
       style="font-size:12;fill:#000000;fill-rule:evenodd;stroke:none;stroke-width:1.875;stroke-dasharray:none;stroke-linejoin:round;stroke-linecap:round;stroke-opacity:1;fill-opacity:1;"
       d="M 52.870868 12.445514 C 53.105055 11.694904 57.174829 32.520028 57.293562 41.970947 C 57.329051 45.097425 52.23422 46.862816 52.263797 45.568016 C 52.560802 37.042877 52.550921 13.801122 52.870868 12.445514 z "
       id="path624"
       sodipodi:nodetypes="csss" />
    <path
       style="font-size:12;fill:#000000;fill-rule:evenodd;stroke:none;stroke-width:1.875;fill-opacity:1;"
       d="M 44.972486 29.649111 C 44.972486 37.231074 38.819009 43.384551 31.237047 43.384551 C 23.655084 43.384551 17.501607 37.231074 17.501607 29.649111 C 17.501607 22.067149 23.655084 15.913672 31.237047 15.913672 C 38.819009 15.913672 44.972486 22.067149 44.972486 29.649111 z "
       id="path625" />
  </g>
  <path
     style="font-size:12;fill:url(#linearGradient581);fill-rule:evenodd;stroke:#261933;stroke-width:1.875;stroke-dasharray:none;stroke-linejoin:round;stroke-linecap:round;stroke-opacity:1;"
     d="M 9.2630586 9.4180245 C 8.2333812 9.1242465 34.220512 2.9851887 47.082848 2.5082763 C 51.337989 2.3556659 53.702407 9.1366235 51.938704 9.1395515 C 40.322838 9.0196015 11.11923 9.8083715 9.2630586 9.4180245 z "
     id="path606"
     sodipodi:nodetypes="csss" />
  <path
     style="font-size:12;fill:url(#linearGradient861);fill-rule:evenodd;stroke:#261933;stroke-width:1.875;stroke-dasharray:none;stroke-linejoin:round;stroke-linecap:round;stroke-opacity:1;"
     d="M 51.151137 49.769936 C 52.180814 50.063713 27.458033 57.050918 14.595697 57.52783 C 10.340554 57.68044 7.8194846 50.272876 9.5831869 50.269947 C 21.199054 50.389897 49.294966 49.379588 51.151137 49.769936 z "
     id="path607"
     sodipodi:nodetypes="csss" />
  <path
     style="font-size:12;fill:url(#linearGradient860);fill-rule:evenodd;stroke:#261933;stroke-width:1.875;stroke-dasharray:none;stroke-linejoin:round;stroke-linecap:round;stroke-opacity:1;"
     d="M 7.8434116 46.090703 C 7.6092251 46.841313 3.0694955 26.016189 2.9507628 16.56527 C 2.9152734 13.438792 8.4800597 11.6734 8.4504831 12.968201 C 8.1534772 21.49334 8.1633583 44.735095 7.8434116 46.090703 z "
     id="path608"
     sodipodi:nodetypes="csss" />
  <path
     style="font-size:12;fill:url(#linearGradient583);fill-rule:evenodd;stroke:#261933;stroke-width:1.875;stroke-dasharray:none;stroke-linejoin:round;stroke-linecap:round;stroke-opacity:1;"
     d="M 52.870868 12.445514 C 53.105055 11.694904 57.174829 32.520028 57.293562 41.970947 C 57.329051 45.097425 52.23422 46.862816 52.263797 45.568016 C 52.560802 37.042877 52.550921 13.801122 52.870868 12.445514 z "
     id="path609"
     sodipodi:nodetypes="csss" />
  <path
     style="font-size:12;fill:url(#linearGradient862);fill-rule:evenodd;stroke:#261933;stroke-width:1.875;"
     d="M 44.254113 29.87065 C 44.254113 37.452613 38.100636 43.60609 30.518674 43.60609 C 22.936711 43.60609 16.783234 37.452613 16.783234 29.87065 C 16.783234 22.288688 22.936711 16.135211 30.518674 16.135211 C 38.100636 16.135211 44.254113 22.288688 44.254113 29.87065 z "
     id="path611" />
  <path
     style="fill:url(#linearGradient652);fill-rule:evenodd;stroke:black;stroke-opacity:1;stroke-width:1.875;stroke-linejoin:miter;stroke-linecap:butt;fill-opacity:1;stroke-dasharray:none;"
     d="M 25.42327 23.224469 C 24.098124 23.98585 24.169187 36.559435 25.644809 37.181447 C 27.473011 37.998773 39.768161 32.161697 39.823327 30.535267 C 39.773881 28.83806 26.714455 22.53983 25.42327 23.224469 z "
     id="path612"
     sodipodi:nodetypes="csss" />
  <path
     style="fill:url(#linearGradient654);fill-rule:evenodd;stroke:none;stroke-opacity:1;stroke-width:1pt;stroke-linejoin:miter;stroke-linecap:butt;fill-opacity:1;"
     d="M 19.803035 34.698401 C 19.31862 34.014521 16.559414 25.130489 23.40603 20.129768 C 30.118942 15.341121 38.432436 20.702318 38.914575 21.382984 C 39.320131 21.955534 32.789889 17.66953 25.912462 22.949503 C 18.637329 28.655071 20.206315 35.267737 19.803035 34.698401 z "
     id="path613"
     sodipodi:nodetypes="cssss" />
  <path
     style="fill:url(#linearGradient661);fill-rule:evenodd;stroke:none;stroke-opacity:1;stroke-width:1pt;stroke-linejoin:miter;stroke-linecap:butt;fill-opacity:1;"
     d="M 11.90555 54.360529 C 11.627143 54.236793 9.8798495 51.742934 10.495682 51.697446 C 19.070099 51.064109 38.608768 51.433718 38.849689 51.540794 C 39.078724 51.642587 21.424957 51.992074 12.68881 52.637357 C 12.234708 52.670899 12.097099 54.445662 11.90555 54.360529 z "
     id="path614"
     sodipodi:nodetypes="cssss" />
  <path
     style="fill:url(#linearGradient616);fill-rule:evenodd;stroke:none;stroke-opacity:1;stroke-width:1pt;stroke-linejoin:miter;stroke-linecap:butt;fill-opacity:1;"
     d="M 21.148016 7.8348939 C 21.280773 7.7021371 38.699937 4.7990563 47.308895 3.9185946 C 47.890186 3.8591444 48.835301 4.8986199 48.718763 5.0151584 C 48.574215 5.1597066 47.258387 4.9402178 46.525635 5.0151584 C 38.068138 5.8801297 21.019686 7.9632237 21.148016 7.8348939 z "
     id="path615"
     sodipodi:nodetypes="cssss" />
  <path
     style="fill:url(#linearGradient618);fill-rule:evenodd;stroke:none;stroke-opacity:1;stroke-width:1pt;stroke-linejoin:miter;stroke-linecap:butt;fill-opacity:1;"
     d="M 5.9527749 31.489341 C 5.8193023 31.382563 3.926185 20.592145 4.2296032 15.824144 C 4.2917062 14.848239 6.9139076 14.14928 7.0493387 14.257625 C 7.1749943 14.358149 5.0734333 15.498935 5.0128631 16.450752 C 4.707912 21.24284 6.0803889 31.591432 5.9527749 31.489341 z "
     id="path617"
     sodipodi:nodetypes="cssss" />
  <path
     style="fill:url(#linearGradient620);fill-rule:evenodd;stroke:none;stroke-opacity:1;stroke-width:1pt;stroke-linejoin:miter;stroke-linecap:butt;fill-opacity:1;"
     d="M 53.574974 43.708195 C 53.454882 42.747459 53.64047 28.313776 53.888278 24.596655 C 53.953774 23.614217 54.542391 27.931732 54.514886 29.609518 C 54.437956 34.302245 53.663751 44.418413 53.574974 43.708195 z "
     id="path619"
     sodipodi:nodetypes="csss" />
  <path
     style="fill:url(#linearGradient633);fill-rule:evenodd;stroke:none;stroke-opacity:1;stroke-width:1pt;stroke-linejoin:miter;stroke-linecap:butt;fill-opacity:1;"
     d="M 26.198657 34.522975 C 26.056648 34.198384 25.128708 26.550379 26.198657 24.886014 C 26.790253 23.965753 31.038918 26.4391 31.183292 26.769098 C 31.29738 27.029872 27.551606 25.759901 26.974045 26.658329 C 25.890061 28.344526 26.315111 34.789156 26.198657 34.522975 z "
     id="path632"
     sodipodi:nodetypes="cssss" />
</svg>
