<?xml version="1.0" encoding="UTF-8" standalone="no"?>
<!DOCTYPE svg PUBLIC "-//W3C//DTD SVG 20010904//EN"
"http://www.w3.org/TR/2001/REC-SVG-20010904/DTD/svg10.dtd">
<!-- Created with Inkscape (http://www.inkscape.org/) -->
<svg
   id="svg1"
   sodipodi:version="0.32"
   inkscape:version="0.39"
   width="48pt"
   height="48pt"
   sodipodi:docbase="/home/scaba/files/lila/work/lila-gnome/Lila/scalable/apps"
   sodipodi:docname="muine4.svg"
   xmlns="http://www.w3.org/2000/svg"
   xmlns:inkscape="http://www.inkscape.org/namespaces/inkscape"
   xmlns:sodipodi="http://sodipodi.sourceforge.net/DTD/sodipodi-0.dtd"
   xmlns:xlink="http://www.w3.org/1999/xlink"
   xmlns:rdf="http://www.w3.org/1999/02/22-rdf-syntax-ns#"
   xmlns:cc="http://web.resource.org/cc/"
   xmlns:dc="http://purl.org/dc/elements/1.1/">
  <defs
     id="defs3">
    <linearGradient
       id="linearGradient584">
      <stop
         style="stop-color:#ffffff;stop-opacity:1;"
         offset="0.00000000"
         id="stop585" />
      <stop
         style="stop-color:#ffffff;stop-opacity:0;"
         offset="1.00000000"
         id="stop586" />
    </linearGradient>
    <linearGradient
       id="linearGradient578">
      <stop
         style="stop-color:#d9cce6;stop-opacity:1;"
         offset="0.00000000"
         id="stop579" />
      <stop
         style="stop-color:#73667f;stop-opacity:1;"
         offset="1.00000000"
         id="stop580" />
    </linearGradient>
    <linearGradient
       xlink:href="#linearGradient584"
       id="linearGradient581"
       x1="-0.010101010"
       y1="0.0059523811"
       x2="1.1515151"
       y2="1.0714285" />
    <linearGradient
       xlink:href="#linearGradient584"
       id="linearGradient583"
       x1="0.00000000"
       y1="-0.00000000"
       x2="0.98717946"
       y2="1.00000000" />
    <linearGradient
       xlink:href="#linearGradient578"
       id="linearGradient860"
       x1="6.7654216e-17"
       y1="0.50000000"
       x2="1.0000000"
       y2="0.50000000" />
    <linearGradient
       xlink:href="#linearGradient578"
       id="linearGradient861"
       x1="6.7654216e-17"
       y1="2.0599203"
       x2="1.0000000"
       y2="2.0599203" />
    <linearGradient
       xlink:href="#linearGradient578"
       id="linearGradient862"
       x1="-8.1315163e-19"
       y1="0.50000000"
       x2="1.0000000"
       y2="0.50000000" />
    <radialGradient
       xlink:href="#linearGradient584"
       id="radialGradient595" />
    <linearGradient
       xlink:href="#linearGradient584"
       id="linearGradient612" />
    <linearGradient
       xlink:href="#linearGradient584"
       id="linearGradient613"
       x1="-1.6219665e-16"
       y1="0.50000000"
       x2="1.0000000"
       y2="0.50000000" />
    <linearGradient
       xlink:href="#linearGradient584"
       id="linearGradient859" />
    <linearGradient
       xlink:href="#linearGradient584"
       id="linearGradient863" />
    <linearGradient
       xlink:href="#linearGradient584"
       id="linearGradient864" />
  </defs>
  <sodipodi:namedview
     id="base"
     pagecolor="#ffffff"
     bordercolor="#666666"
     borderopacity="1.0"
     inkscape:pageopacity="0.0"
     inkscape:pageshadow="2"
     inkscape:zoom="11.041667"
     inkscape:cx="24.000000"
     inkscape:cy="24.000000"
     inkscape:window-width="1022"
     inkscape:window-height="695"
     inkscape:window-x="0"
     inkscape:window-y="26"
     showguides="true"
     inkscape:guide-bbox="true" />
  <path
     sodipodi:type="arc"
     style="fill:#000000;fill-opacity:0.29999998;fill-rule:evenodd;stroke:none;stroke-width:1.8750000;stroke-opacity:1.0000000;"
     id="path935"
     sodipodi:cx="44.307869"
     sodipodi:cy="8.3813334"
     sodipodi:rx="3.3230901"
     sodipodi:ry="3.3230901"
     d="M 47.630959 8.3813334 A 3.3230901 3.3230901 0 1 0 40.984779,8.3813334 A 3.3230901 3.3230901 0 1 0 47.630959 8.3813334 z"
     transform="matrix(1.245882,0.000000,0.000000,1.245882,-4.659762,3.174018)" />
  <path
     style="fill:#000000;fill-opacity:0.29999998;fill-rule:evenodd;stroke:none;stroke-width:1.8750000;stroke-linecap:butt;stroke-linejoin:miter;stroke-opacity:1.0000000;"
     d="M 10.659907,57.690846 C 10.659907,57.690846 7.4337416,59.558618 10.829701,59.219022 C 14.678456,58.653029 40.604168,43.186181 43.333521,25.037688 C 44.766384,3.6925711 31.000167,3.4915985 25.006426,3.1713993 C 16.096617,2.9018117 9.6642369,10.686369 9.6642369,16.272302 C 9.7774359,21.858233 11.484630,26.822743 18.419731,26.709545 C 22.977661,26.483148 25.193079,24.015884 25.193079,20.342775 C 25.306277,14.745289 19.299874,15.198084 18.010812,18.850424 C 14.573316,19.924642 13.409007,9.7484577 24.580871,9.7484577 C 33.604304,9.5336147 37.686324,18.127356 36.826954,27.365629 C 35.108204,43.264051 10.659907,57.690846 10.659907,57.690846 z "
     id="path852"
     sodipodi:nodetypes="ccccccccccc" />
  <path
     style="fill:url(#linearGradient862);fill-opacity:1.0000000;fill-rule:evenodd;stroke:#000000;stroke-width:1.8183300;stroke-linecap:butt;stroke-linejoin:miter;stroke-opacity:1.0000000;"
     d="M 8.2939796,55.976784 C 8.2939796,55.976784 5.8036092,57.674764 9.1995686,57.335168 C 13.048323,56.769175 39.527053,39.728877 40.522840,22.825597 C 41.425080,8.2046732 34.303985,1.8130418 22.905731,1.9262494 C 14.390528,1.9493570 8.9962791,7.9534762 8.9962791,14.558196 C 8.9962791,20.370524 11.609063,23.523856 15.261403,24.316246 C 21.064518,24.882239 22.600745,21.848983 22.600745,19.307861 C 23.166738,16.087547 19.763902,13.483978 17.342853,16.909921 C 13.678961,20.587708 11.382665,7.9211534 22.554530,7.9211534 C 31.577958,7.7063098 34.641243,13.243502 33.781870,22.481775 C 31.836706,38.606612 8.2939796,55.976784 8.2939796,55.976784 z "
     id="path847"
     sodipodi:nodetypes="ccccccccccc" />
  <path
     sodipodi:type="arc"
     style="fill:url(#linearGradient861);fill-opacity:1.00000000;fill-rule:evenodd;stroke:#000000;stroke-width:1.8750000;stroke-opacity:1.0000000;"
     id="path848"
     sodipodi:cx="44.307869"
     sodipodi:cy="8.3813334"
     sodipodi:rx="3.3230901"
     sodipodi:ry="3.3230901"
     d="M 47.630959 8.3813334 A 3.3230901 3.3230901 0 1 0 40.984779,8.3813334 A 3.3230901 3.3230901 0 1 0 47.630959 8.3813334 z"
     transform="translate(5.406041,4.262574)" />
  <path
     style="fill:url(#linearGradient612);fill-opacity:1.00000000;fill-rule:evenodd;stroke:none;stroke-width:1.0000000pt;stroke-linecap:butt;stroke-linejoin:miter;stroke-opacity:1.0000000;"
     d="M 11.688351,20.184944 C 9.8856790,15.746868 9.9395955,12.600194 11.428821,9.5312263 C 12.895855,6.5079916 16.216038,2.8658651 26.117286,3.3190913 C 16.355357,4.5458946 13.601865,8.9821745 13.286714,9.6219377 C 12.993793,10.216574 10.373541,12.769942 11.688351,20.184944 z "
     id="path851"
     sodipodi:nodetypes="czczc" />
  <path
     style="fill:url(#linearGradient613);fill-opacity:1.00000000;fill-rule:evenodd;stroke:none;stroke-width:1.0000000pt;stroke-linecap:butt;stroke-linejoin:miter;stroke-opacity:1.0000000;"
     d="M 47.782627,13.632497 C 47.276638,11.861535 47.905456,10.444960 50.189744,10.505600 C 47.769495,10.879878 47.782627,13.632497 47.782627,13.632497 z "
     id="path854"
     sodipodi:nodetypes="ccc" />
  <path
     style="fill:url(#linearGradient581);fill-opacity:1.0000000;fill-rule:evenodd;stroke:none;stroke-width:1.0000000pt;stroke-linecap:butt;stroke-linejoin:miter;stroke-opacity:1.0000000;"
     d="M 15.445451,51.311767 C 15.221042,51.457563 29.754529,40.843525 34.034711,27.363807 C 36.796311,18.666608 34.091495,12.818686 34.239804,13.032546 C 35.022815,14.161626 37.853577,20.492008 36.214119,25.293408 C 32.019669,37.577486 20.669115,47.918032 15.445451,51.311767 z "
     id="path939"
     sodipodi:nodetypes="cssss" />
  <metadata
     id="metadata31">
    <rdf:RDF
       id="RDF32">
      <cc:Work
         rdf:about=""
         id="Work33">
        <dc:format
           id="format34">image/svg+xml</dc:format>
        <dc:type
           id="type36"
           rdf:resource="http://purl.org/dc/dcmitype/StillImage" />
      </cc:Work>
    </rdf:RDF>
  </metadata>
  <path
     sodipodi:type="arc"
     style="fill:#000000;fill-opacity:0.29999998;fill-rule:evenodd;stroke:none;stroke-width:1.8750000;stroke-opacity:1.0000000;"
     id="path936"
     sodipodi:cx="44.307869"
     sodipodi:cy="8.3813334"
     sodipodi:rx="3.3230901"
     sodipodi:ry="3.3230901"
     d="M 47.630959 8.3813334 A 3.3230901 3.3230901 0 1 0 40.984779,8.3813334 A 3.3230901 3.3230901 0 1 0 47.630959 8.3813334 z"
     transform="matrix(1.245882,0.000000,0.000000,1.245882,-4.615433,16.70379)" />
  <path
     sodipodi:type="arc"
     style="fill:url(#linearGradient861);fill-opacity:1.00000000;fill-rule:evenodd;stroke:#000000;stroke-width:1.8750000;stroke-opacity:1.0000000;"
     id="path937"
     sodipodi:cx="44.307869"
     sodipodi:cy="8.3813334"
     sodipodi:rx="3.3230901"
     sodipodi:ry="3.3230901"
     d="M 47.630959 8.3813334 A 3.3230901 3.3230901 0 1 0 40.984779,8.3813334 A 3.3230901 3.3230901 0 1 0 47.630959 8.3813334 z"
     transform="translate(5.450370,17.79235)" />
  <path
     style="fill:url(#linearGradient613);fill-opacity:1.00000000;fill-rule:evenodd;stroke:none;stroke-width:1.0000000pt;stroke-linecap:butt;stroke-linejoin:miter;stroke-opacity:1.0000000;"
     d="M 47.826956,27.162271 C 47.320967,25.391309 47.949785,23.974734 50.234073,24.035374 C 47.813824,24.409652 47.826956,27.162271 47.826956,27.162271 z "
     id="path938"
     sodipodi:nodetypes="ccc" />
</svg>
