<?xml version="1.0" encoding="UTF-8" standalone="no"?>
<!DOCTYPE svg PUBLIC "-//W3C//DTD SVG 20010904//EN"
"http://www.w3.org/TR/2001/REC-SVG-20010904/DTD/svg10.dtd">
<!-- Created with Inkscape (http://www.inkscape.org/) -->
<svg
   id="svg1"
   sodipodi:version="0.32"
   inkscape:version="0.37"
   width="48pt"
   height="48pt"
   sodipodi:docbase="/home/stefan/software/Lila-themes"
   sodipodi:docname="nicotine.svg"
   xmlns="http://www.w3.org/2000/svg"
   xmlns:inkscape="http://www.inkscape.org/namespaces/inkscape"
   xmlns:sodipodi="http://sodipodi.sourceforge.net/DTD/sodipodi-0.dtd"
   xmlns:xlink="http://www.w3.org/1999/xlink">
  <defs
     id="defs3">
    <linearGradient
       id="linearGradient652">
      <stop
         style="stop-color:#ffffff;stop-opacity:0;"
         offset="0.00000000"
         id="stop653" />
      <stop
         style="stop-color:#000000;stop-opacity:1;"
         offset="1.00000000"
         id="stop654" />
    </linearGradient>
    <linearGradient
       id="linearGradient916">
      <stop
         style="stop-color:#cccccc;stop-opacity:1;"
         offset="0.00000000"
         id="stop917" />
      <stop
         style="stop-color:#7f7f7f;stop-opacity:1;"
         offset="1.00000000"
         id="stop918" />
    </linearGradient>
    <linearGradient
       id="linearGradient866">
      <stop
         style="stop-color:#ffffff;stop-opacity:1;"
         offset="0.00000000"
         id="stop867" />
      <stop
         style="stop-color:#d9d1e1;stop-opacity:1;"
         offset="1.00000000"
         id="stop868" />
    </linearGradient>
    <linearGradient
       id="linearGradient584">
      <stop
         style="stop-color:#ffffff;stop-opacity:1;"
         offset="0.00000000"
         id="stop585" />
      <stop
         style="stop-color:#ffffff;stop-opacity:0;"
         offset="1.00000000"
         id="stop586" />
    </linearGradient>
    <linearGradient
       id="linearGradient578">
      <stop
         style="stop-color:#d9cce6;stop-opacity:1;"
         offset="0.00000000"
         id="stop579" />
      <stop
         style="stop-color:#73667f;stop-opacity:1;"
         offset="1.00000000"
         id="stop580" />
    </linearGradient>
    <linearGradient
       xlink:href="#linearGradient584"
       id="linearGradient581"
       x1="0.00649351"
       y1="-0.00000000"
       x2="0.96753246"
       y2="0.97674417" />
    <linearGradient
       xlink:href="#linearGradient584"
       id="linearGradient583"
       x1="-0.03076923"
       y1="0.02325581"
       x2="0.97692305"
       y2="1.03100777" />
    <linearGradient
       xlink:href="#linearGradient578"
       id="linearGradient860"
       x1="0.23396227"
       y1="0.15289256"
       x2="0.66415095"
       y2="0.64462811" />
    <linearGradient
       xlink:href="#linearGradient578"
       id="linearGradient861"
       x1="0.01562500"
       y1="0.01550388"
       x2="0.98437500"
       y2="0.97674417" />
    <linearGradient
       xlink:href="#linearGradient866"
       id="linearGradient862"
       x1="0.00617284"
       y1="0.01550388"
       x2="1.00000000"
       y2="0.96899223" />
    <linearGradient
       xlink:href="#linearGradient916"
       id="linearGradient869"
       x1="0.00641026"
       y1="0.01550388"
       x2="0.97435898"
       y2="0.95348835" />
    <linearGradient
       xlink:href="#linearGradient584"
       id="linearGradient915"
       x1="-0.00000000"
       y1="0.00531915"
       x2="0.98550725"
       y2="0.97872341" />
    <linearGradient
       xlink:href="#linearGradient584"
       id="linearGradient655"
       x1="-0.00317460"
       y1="-0.00000000"
       x2="0.99047619"
       y2="0.98347110" />
    <linearGradient
       xlink:href="#linearGradient584"
       id="linearGradient616"
       x1="0.00289855"
       y1="0.01639344"
       x2="0.99130434"
       y2="0.99180329" />
    <linearGradient
       xlink:href="#linearGradient584"
       id="linearGradient618"
       x1="0.00579710"
       y1="-0.00000000"
       x2="0.99710143"
       y2="1.00000000" />
  </defs>
  <sodipodi:namedview
     id="base"
     pagecolor="#ffffff"
     bordercolor="#666666"
     borderopacity="1.0"
     inkscape:pageopacity="0.0"
     inkscape:pageshadow="2"
     inkscape:zoom="181.019336"
     inkscape:cx="13.7203650"
     inkscape:cy="7.61977325"
     inkscape:window-width="1269"
     inkscape:window-height="970"
     inkscape:window-x="0"
     inkscape:window-y="0"
     borderlayer="top" />
  <path
     style="fill:#000000;fill-rule:evenodd;stroke:none;stroke-opacity:1;stroke-width:1.875;stroke-linejoin:miter;stroke-linecap:butt;fill-opacity:1;stroke-dasharray:none;opacity:0.300000;"
     d="M 14.921875 50.390625 C 14.86759 49.854622 18.010469 51.648341 18.828125 50.859375 C 21.863102 48.507544 23.979914 44.908957 23.93861 42.017846 C 23.015883 39.298911 19.45076 42.452239 11.459542 35.331635 C 7.2445065 31.684515 3.4203678 23.579228 5.2075667 21.888404 C 6.8571132 20.106839 11.195574 25.069553 16.628296 27.654469 C 22.226726 30.428714 28.165028 29.90474 28.698683 27.726523 C 29.269148 25.227816 25.227082 23.703019 24.907134 21.185316 C 24.671981 18.420826 24.998908 16.337122 23.615006 15.103307 C 22.140826 13.886175 19.578174 14.679485 19.361596 14.049096 C 19.239436 13.693526 20.384804 12.307281 21.816431 11.973951 C 23.248057 11.64062 24.969537 12.363888 25.546875 11.796875 C 26.435215 10.870167 24.215024 8.7738657 24.683574 8.7176397 C 25.100341 8.6676277 26.533947 8.5634783 27.404391 9.1471468 C 28.274835 9.7308154 29.017476 10.488049 29.287397 11.43861 C 29.864299 11.389085 32.634254 11.324474 33.973609 12.36577 C 35.312964 13.407067 36.625224 14.916586 36.650103 16.392846 C 40.762943 15.935611 43.830112 17.227415 43.828125 18.359375 C 43.825243 20.111635 40.653819 21.608538 38.671875 21.953125 C 37.509863 25.729533 35.958549 23.672264 35.777324 24.81139 C 35.593965 25.963931 36.263735 28.675411 37.578125 28.551911 C 49.935123 26.399448 52.476982 21.019525 58.174691 22.292433 C 58.955805 22.46694 59.345578 24.921509 58.671875 25.546875 C 41.820024 36.420914 34.174171 43.415265 23.828125 55.078125 C 23.115174 55.740151 24.092485 58.211072 23.671875 58.433574 C 22.827409 58.821849 19.580411 57.810991 19.958161 55.013404 C 16.553259 55.369393 15.373109 54.79079 14.921875 50.390625 z "
     id="path619"
     sodipodi:nodetypes="ccsssssssssscscscscccsccscs" />
  <path
     style="fill:url(#linearGradient860);fill-rule:evenodd;stroke:#261933;stroke-opacity:1;stroke-width:1.875;stroke-linejoin:miter;stroke-linecap:butt;fill-opacity:0.75;stroke-dasharray:none;"
     d="M 12.5 48.28125 C 12.445715 47.745247 15.588594 49.538966 16.40625 48.75 C 19.441227 46.398169 21.558039 42.799582 21.516735 39.908471 C 20.594008 37.189536 17.028885 40.342864 9.0376666 33.22226 C 4.8226315 29.57514 0.99849282 21.469853 2.7856917 19.779029 C 4.4352382 17.997464 8.773699 22.960178 14.206421 25.545094 C 19.804851 28.319339 25.743153 27.795365 26.276808 25.617148 C 26.847273 23.118441 22.805207 21.593644 22.485259 19.075941 C 22.250106 16.311451 22.577033 14.227747 21.193131 12.993932 C 19.718951 11.7768 17.156299 12.57011 16.939721 11.939721 C 16.817561 11.584151 17.962929 10.197906 19.394556 9.8645757 C 20.826182 9.5312447 22.547662 10.254513 23.125 9.6875001 C 24.01334 8.7607925 21.793149 6.6644907 22.261699 6.6082647 C 22.678466 6.5582527 24.112072 6.4541033 24.982516 7.0377718 C 25.85296 7.6214404 26.595601 8.3786743 26.865522 9.3292355 C 27.442424 9.2797103 30.212379 9.2150988 31.551734 10.256395 C 32.891089 11.297692 34.203349 12.807211 34.228228 14.283471 C 38.341068 13.826236 41.408237 15.11804 41.40625 16.25 C 41.403368 18.00226 38.231944 19.499163 36.25 19.84375 C 35.087988 23.620158 33.536674 21.562889 33.355449 22.702015 C 33.17209 23.854556 33.84186 26.566036 35.15625 26.442536 C 47.513248 24.290073 50.055107 18.91015 55.752816 20.183058 C 56.53393 20.357565 56.923703 22.812134 56.25 23.4375 C 39.398149 34.311539 31.752296 41.30589 21.40625 52.96875 C 20.693299 53.630776 21.67061 56.101697 21.25 56.324199 C 20.405534 56.712474 17.158536 55.701616 17.536286 52.904029 C 14.131384 53.260018 12.951234 52.681415 12.5 48.28125 z "
     id="path610"
     sodipodi:nodetypes="ccsssssssssscscscscccsccscs" />
  <path
     style="fill:url(#linearGradient655);fill-rule:evenodd;stroke:none;stroke-opacity:1;stroke-width:0.125;stroke-linejoin:miter;stroke-linecap:butt;fill-opacity:0.75;stroke-dasharray:none;"
     d="M 6.3085938 28.417969 C 4.1113382 25.013637 2.9198559 21.560965 3.4765625 20.507813 C 3.980811 19.536482 9.779118 24.684955 13.320312 26.191406 C 13.887298 26.430799 6.6389343 23.353566 6.09375 24.21875 C 5.4410177 25.254608 6.6538389 28.954578 6.3085938 28.417969 z "
     id="path613"
     sodipodi:nodetypes="cssss" />
  <path
     style="fill:url(#linearGradient915);fill-rule:evenodd;stroke:none;stroke-opacity:1;stroke-width:0.125;stroke-linejoin:miter;stroke-linecap:butt;fill-opacity:0.75;stroke-dasharray:none;"
     d="M 19.102712 11.148993 C 20.234979 10.49685 22.778918 11.577451 23.846268 10.509775 C 24.540716 9.8330867 24.600321 8.9738587 24.089308 7.8030219 C 24.695002 8.1104322 25.764907 8.9096052 26.080346 10.389812 C 26.967363 10.543034 29.20851 9.962008 31.020364 11.239709 C 31.28302 11.427798 26.058545 11.243985 24.6875 12.1875 C 23.63667 12.910652 23.380183 14.775876 23.147069 14.140485 C 22.550932 12.543234 21.703579 11.392827 19.102712 11.148993 z "
     id="path614"
     sodipodi:nodetypes="csccsssc" />
  <path
     style="fill:url(#linearGradient616);fill-rule:evenodd;stroke:none;stroke-opacity:1;stroke-width:0.125;stroke-linejoin:miter;stroke-linecap:butt;fill-opacity:0.75;stroke-dasharray:none;"
     d="M 43.90625 25.15625 C 49.667869 22.910254 51.523438 20.546875 55.273437 21.210938 C 55.546875 22.656251 56.062431 22.212044 52.851562 24.335938 C 51.166894 25.4298 53.574727 23.213704 52.773437 22.929688 C 51.590297 22.471262 43.158097 25.442822 43.90625 25.15625 z "
     id="path615"
     sodipodi:nodetypes="ccsss" />
  <path
     style="fill:url(#linearGradient618);fill-rule:evenodd;stroke:none;stroke-opacity:1;stroke-width:0.125;stroke-linejoin:miter;stroke-linecap:butt;fill-opacity:0.75;stroke-dasharray:none;"
     d="M 13.662397 49.485079 C 16.444797 50.255443 16.471507 50.182408 18.865388 47.79136 C 17.499191 51.369489 15.101231 50.337534 14.915534 50.608739 C 14.663893 50.788683 14.636673 51.728001 14.508118 51.610013 C 14.064741 51.107158 13.790845 50.34061 13.662397 49.485079 z "
     id="path617"
     sodipodi:nodetypes="ccccc" />
</svg>
