<?xml version="1.0" encoding="UTF-8" standalone="no"?>
<!DOCTYPE svg PUBLIC "-//W3C//DTD SVG 20010904//EN"
"http://www.w3.org/TR/2001/REC-SVG-20010904/DTD/svg10.dtd">
<!-- Created with Inkscape (http://www.inkscape.org/) -->
<svg
   id="svg1"
   sodipodi:version="0.32"
   inkscape:version="0.39"
   width="48pt"
   height="48pt"
   sodipodi:docbase="/home/scaba/files/pre-release/lila-gnome/Lila"
   sodipodi:docname="ximian-openoffice-calc.svg"
   xmlns="http://www.w3.org/2000/svg"
   xmlns:cc="http://web.resource.org/cc/"
   xmlns:inkscape="http://www.inkscape.org/namespaces/inkscape"
   xmlns:sodipodi="http://sodipodi.sourceforge.net/DTD/sodipodi-0.dtd"
   xmlns:rdf="http://www.w3.org/1999/02/22-rdf-syntax-ns#"
   xmlns:dc="http://purl.org/dc/elements/1.1/"
   xmlns:xlink="http://www.w3.org/1999/xlink">
  <defs
     id="defs3">
    <linearGradient
       id="linearGradient2614">
      <stop
         offset="0.0000000"
         style="stop-color:#d7a600;stop-opacity:1.0000000;"
         id="stop2616" />
      <stop
         offset="1.0000000"
         style="stop-color:#fff300;stop-opacity:1.0000000;"
         id="stop2615" />
    </linearGradient>
    <linearGradient
       id="linearGradient1422"
       x1="0.0000000"
       y1="0.50000000"
       x2="1.0000000"
       y2="0.50000000"
       gradientUnits="objectBoundingBox"
       spreadMethod="pad"
       xlink:href="#linearGradient2614" />
    <linearGradient
       x1="0.64516127"
       y1="0.66406250"
       x2="0.32258064"
       y2="0.32031250"
       id="linearGradient1425"
       xlink:href="#linearGradient1422" />
    <linearGradient
       id="linearGradient1428">
      <stop
         style="stop-color:#f50000;stop-opacity:1;"
         offset="0.00000000"
         id="stop1429" />
      <stop
         style="stop-color:#a90000;stop-opacity:1;"
         offset="1.00000000"
         id="stop1430" />
    </linearGradient>
    <linearGradient
       x1="0.01923077"
       y1="0.00781250"
       x2="0.98076922"
       y2="0.98437500"
       id="linearGradient1427"
       xlink:href="#linearGradient1428" />
    <linearGradient
       id="linearGradient2617">
      <stop
         offset="0.0000000"
         style="stop-color:#7f7f7f;stop-opacity:1.0000000;"
         id="stop2619" />
      <stop
         offset="1.0000000"
         style="stop-color:#e6e6e6;stop-opacity:1.0000000;"
         id="stop2618" />
    </linearGradient>
    <linearGradient
       id="linearGradient1432"
       x1="0.0000000"
       y1="0.50000000"
       x2="1.0000000"
       y2="0.50000000"
       gradientUnits="objectBoundingBox"
       spreadMethod="pad"
       xlink:href="#linearGradient2617" />
    <linearGradient
       x1="0.98101264"
       y1="0.92187500"
       x2="0.01898734"
       y2="0.02343750"
       id="linearGradient1435"
       xlink:href="#linearGradient1432" />
    <linearGradient
       id="linearGradient1439">
      <stop
         style="stop-color:#ffffff;stop-opacity:1;"
         offset="0"
         id="stop1440" />
      <stop
         style="stop-color:#ffffff;stop-opacity:0;"
         offset="1"
         id="stop1441" />
    </linearGradient>
    <linearGradient
       x1="0.015748"
       y1="0.023437"
       x2="0.984252"
       y2="0.984375"
       id="linearGradient1438"
       xlink:href="#linearGradient1439" />
    <linearGradient
       xlink:href="#linearGradient863"
       id="linearGradient1017"
       x1="-0.41784036"
       y1="-0.32812500"
       x2="0.42723006"
       y2="0.72656250" />
    <linearGradient
       id="linearGradient997">
      <stop
         style="stop-color:#ffffff;stop-opacity:0.50000000;"
         offset="0.0000000"
         id="stop998" />
      <stop
         style="stop-color:#bfbfbf;stop-opacity:0.0000000;"
         offset="1.0000000"
         id="stop999" />
    </linearGradient>
    <linearGradient
       xlink:href="#linearGradient997"
       id="linearGradient996"
       y2="0.87559807"
       x2="0.87500000"
       y1="0.066985644"
       x1="0.33571428"
       spreadMethod="reflect" />
    <linearGradient
       id="linearGradient1256">
      <stop
         style="stop-color:#ffffff;stop-opacity:1;"
         offset="0"
         id="stop1258" />
      <stop
         style="stop-color:#ffffff;stop-opacity:0;"
         offset="1"
         id="stop1257" />
    </linearGradient>
    <linearGradient
       x1="0.006447"
       y1="0.039037"
       x2="0.980645"
       y2="0.984374"
       id="linearGradient1567"
       xlink:href="#linearGradient1256" />
    <linearGradient
       id="linearGradient1535">
      <stop
         style="stop-color:#ffffff;stop-opacity:1;"
         offset="0"
         id="stop1537" />
      <stop
         style="stop-color:#ffffff;stop-opacity:0;"
         offset="1"
         id="stop1536" />
    </linearGradient>
    <linearGradient
       id="linearGradient641"
       xlink:href="#linearGradient1535"
       x1="0.53333336"
       y1="-0.17346939"
       x2="0.58947366"
       y2="0.68367344" />
    <linearGradient
       id="linearGradient692">
      <stop
         offset="0.0000000"
         style="stop-color:#d9cce6;stop-opacity:1.0000000;"
         id="stop694" />
      <stop
         offset="1.0000000"
         style="stop-color:#ffffff;stop-opacity:1.0000000;"
         id="stop693" />
    </linearGradient>
    <linearGradient
       id="linearGradient950">
      <stop
         style="stop-color:#d9cce6;stop-opacity:1.0000000;"
         offset="0.0000000"
         id="stop951" />
      <stop
         style="stop-color:#ffffff;stop-opacity:1.0000000;"
         offset="1.0000000"
         id="stop952" />
    </linearGradient>
    <linearGradient
       id="linearGradient703">
      <stop
         style="stop-color:#d9cce6;stop-opacity:1;"
         offset="0.00000000"
         id="stop704" />
      <stop
         style="stop-color:#73667f;stop-opacity:1;"
         offset="1.00000000"
         id="stop705" />
    </linearGradient>
    <linearGradient
       id="linearGradient866">
      <stop
         style="stop-color:#ffffff;stop-opacity:1;"
         offset="0.00000000"
         id="stop867" />
      <stop
         style="stop-color:#d9cce6;stop-opacity:1;"
         offset="1.00000000"
         id="stop868" />
    </linearGradient>
    <linearGradient
       id="linearGradient584">
      <stop
         style="stop-color:#ffffff;stop-opacity:1;"
         offset="0.00000000"
         id="stop585" />
      <stop
         style="stop-color:#ffffff;stop-opacity:0;"
         offset="1.00000000"
         id="stop586" />
    </linearGradient>
    <linearGradient
       xlink:href="#linearGradient866"
       id="linearGradient586"
       x1="0.52898550"
       y1="0.022900764"
       x2="0.51449275"
       y2="0.94656491" />
    <linearGradient
       xlink:href="#linearGradient584"
       id="linearGradient587"
       x1="0.00000000"
       y1="-0.00000000"
       x2="1.00000000"
       y2="1.00000000" />
    <linearGradient
       xlink:href="#linearGradient584"
       id="linearGradient700"
       x1="0.00000000"
       y1="-0.00000000"
       x2="0.98453611"
       y2="0.99218750" />
    <linearGradient
       xlink:href="#linearGradient584"
       id="linearGradient701"
       x1="0.00367647"
       y1="0.01562500"
       x2="1.01102936"
       y2="1.01562500" />
    <linearGradient
       xlink:href="#linearGradient703"
       id="linearGradient702"
       x1="-0.00000000"
       y1="0.00000000"
       x2="0.97457629"
       y2="0.96093750" />
    <linearGradient
       xlink:href="#linearGradient584"
       id="linearGradient845"
       x1="-0.00000000"
       y1="-0.00000000"
       x2="0.99635035"
       y2="0.97727275" />
    <radialGradient
       xlink:href="#linearGradient703"
       id="radialGradient846" />
    <linearGradient
       xlink:href="#linearGradient584"
       id="linearGradient847"
       x1="0.00000000"
       y1="-0.00000000"
       x2="0.98540145"
       y2="0.93902439" />
    <linearGradient
       xlink:href="#linearGradient703"
       id="linearGradient848"
       x1="0.01219511"
       y1="0.01562503"
       x2="0.99999994"
       y2="1.00000012" />
    <linearGradient
       xlink:href="#linearGradient584"
       id="linearGradient849"
       x1="0.00000000"
       y1="-0.00000000"
       x2="0.98514849"
       y2="1.02343750" />
    <linearGradient
       xlink:href="#linearGradient703"
       id="linearGradient850"
       x1="-0.00000000"
       y1="0.00000000"
       x2="1.00000000"
       y2="0.95652175" />
    <linearGradient
       xlink:href="#linearGradient584"
       id="linearGradient863"
       x1="-0.00000000"
       y1="-0.00000000"
       x2="0.99635035"
       y2="0.82142860" />
    <linearGradient
       id="linearGradient1532"
       xlink:href="#linearGradient692"
       x1="0.97058821"
       y1="0.95312500"
       x2="-0.029411765"
       y2="-0.031250000" />
  </defs>
  <sodipodi:namedview
     id="base"
     pagecolor="#ffffff"
     bordercolor="#666666"
     borderopacity="1.0"
     inkscape:pageopacity="0.0"
     inkscape:pageshadow="2"
     inkscape:zoom="5.6423387"
     inkscape:cx="41.762623"
     inkscape:cy="16.072311"
     inkscape:window-width="668"
     inkscape:window-height="530"
     inkscape:window-x="72"
     inkscape:window-y="26" />
  <path
     d="M 10.602166,30.620773 C 10.316323,30.034209 13.517728,20.312357 16.713923,18.030616 C 19.275984,16.201439 23.879763,16.885544 27.153848,16.804779 C 29.341903,13.511863 31.752913,9.7897371 34.464436,8.8468245 C 38.230505,7.2973413 48.695040,11.056020 49.019265,11.721344 C 49.302304,12.302154 40.145520,11.744098 36.707891,13.450508 C 33.571129,15.007194 31.804643,18.864797 29.296014,21.510932 C 25.799703,21.435169 21.692677,20.767686 18.747226,22.203056 C 15.461469,23.804264 10.853552,31.136631 10.602166,30.620773 z "
     style="font-size:12.000000;opacity:0.29636899;fill:#000000;fill-opacity:1.0000000;fill-rule:evenodd;stroke:none;stroke-width:2.0340500;"
     id="path852"
     sodipodi:nodetypes="ccccccccc" />
  <path
     d="M 8.2757940,29.613200 C 7.9899499,29.026634 11.191356,19.304782 14.387551,17.023040 C 16.949612,15.193866 20.997801,15.259320 24.271886,15.178557 C 26.459939,11.885641 29.426540,8.7821617 32.138061,7.8392505 C 35.904134,6.2897664 46.368667,10.048443 46.692891,10.713768 C 46.975931,11.294581 37.819147,10.736522 34.381517,12.442935 C 31.244755,13.999618 29.478272,17.857220 26.969643,20.503358 C 23.473332,20.427594 19.366305,19.760112 16.420855,21.195481 C 13.135095,22.796690 8.5271794,30.129057 8.2757940,29.613200 z "
     style="font-size:12.000000;fill:url(#linearGradient850);fill-rule:evenodd;stroke:#261933;stroke-width:1.8750000;"
     id="path674"
     sodipodi:nodetypes="ccccccccc" />
  <path
     d="M 11.210856,23.888202 C 11.190042,23.691798 13.795615,19.199284 15.626184,17.810425 C 16.553433,17.106701 19.224795,16.936290 19.243738,17.116447 C 19.263968,17.309397 16.780985,18.142157 15.743626,18.929127 C 14.023173,20.234299 11.229219,24.064685 11.210856,23.888202 z "
     style="font-size:12.000000;opacity:0.69999999;fill:url(#linearGradient847);fill-rule:evenodd;stroke:none;stroke-width:0.11529599pt;"
     id="path676"
     sodipodi:nodetypes="ccccc" />
  <path
     d="M 26.175943,16.518072 C 26.155350,16.321670 30.219996,10.874464 32.050518,9.4857387 C 32.977900,8.7820585 35.649303,8.6117374 35.668070,8.7919818 C 35.688433,8.9847551 33.205452,9.8172966 32.168000,10.604528 C 30.447680,11.909747 26.194567,16.694644 26.175943,16.518072 z "
     style="font-size:12.000000;opacity:0.69999999;fill:url(#linearGradient845);fill-rule:evenodd;stroke:none;stroke-width:0.11529599pt;"
     id="path677" />
  <path
     d="M 4.8847413,19.004340 C 4.6868552,18.598268 6.9031582,11.867920 9.1158548,10.288290 C 10.889546,9.0219696 14.076698,9.4955679 16.343317,9.4396556 C 17.858088,7.1600008 19.527206,4.5832070 21.404367,3.9304393 C 24.011583,2.8577448 31.256085,5.4598435 31.480543,5.9204408 C 31.676488,6.3225308 25.337331,5.9361919 22.957490,7.1175251 C 20.785939,8.1952047 19.563019,10.865786 17.826318,12.697682 C 15.405855,12.645233 12.562600,12.183139 10.523491,13.176832 C 8.2487905,14.285334 5.0587741,19.361464 4.8847413,19.004340 z "
     style="font-size:12.000000;opacity:0.29636899;fill:#000000;fill-opacity:1.0000000;fill-rule:evenodd;stroke:none;stroke-width:2.0340500;"
     id="path853"
     sodipodi:nodetypes="ccccccccc" />
  <path
     d="M 3.2742155,18.306806 C 3.0763284,17.900732 5.2926318,11.170384 7.5053278,9.5907560 C 9.2790200,8.3244351 12.218604,8.0292814 14.485223,7.9733688 C 15.999992,5.6937142 17.916682,3.8856714 19.793841,3.2329041 C 22.401058,2.1602099 29.645559,4.7623076 29.870017,5.2229058 C 30.065962,5.6249967 23.726805,5.2386586 21.346964,6.4199906 C 19.175415,7.4976694 17.952494,10.168252 16.215792,12.000148 C 13.795330,11.947698 10.952073,11.485605 8.9129645,12.479298 C 6.6382647,13.587800 3.4482484,18.663931 3.2742155,18.306806 z "
     style="font-size:12.000000;fill:url(#linearGradient850);fill-rule:evenodd;stroke:#261933;stroke-width:1.8750000;"
     id="path854"
     sodipodi:nodetypes="ccccccccc" />
  <path
     d="M 5.3061319,14.343444 C 5.2917231,14.207476 7.0955381,11.097348 8.3628220,10.135855 C 9.0047489,9.6486722 10.854107,9.5306983 10.867221,9.6554200 C 10.881226,9.7889976 9.1622806,10.365510 8.4441260,10.910321 C 7.2530718,11.813881 5.3188448,14.465622 5.3061319,14.343444 z "
     style="font-size:12.000000;opacity:0.69999999;fill:url(#linearGradient847);fill-rule:evenodd;stroke:none;stroke-width:0.11529599pt;"
     id="path855"
     sodipodi:nodetypes="ccccc" />
  <path
     d="M 15.666321,9.2411709 C 15.652066,9.1052041 18.465983,5.3341544 19.733236,4.3727516 C 20.375253,3.8856013 22.224641,3.7676896 22.237633,3.8924708 C 22.251732,4.0259261 20.532788,4.6022852 19.814569,5.1472796 C 18.623606,6.0508716 15.679217,9.3634095 15.666321,9.2411709 z "
     style="font-size:12.000000;opacity:0.69999999;fill:url(#linearGradient845);fill-rule:evenodd;stroke:none;stroke-width:0.11529599pt;"
     id="path856" />
  <metadata
     id="metadata1096">
    <rdf:RDF
       id="RDF1097">
      <cc:Work
         rdf:about=""
         id="Work1098">
        <dc:format
           id="format1099">image/svg+xml</dc:format>
        <dc:type
           id="type1101"
           rdf:resource="http://purl.org/dc/dcmitype/StillImage" />
      </cc:Work>
    </rdf:RDF>
  </metadata>
  <path
     d="M 60.023836,22.138577 C 60.003022,21.942173 62.608595,17.449659 64.439164,16.060800 C 65.366413,15.357076 68.037775,15.186665 68.056718,15.366822 C 68.076948,15.559772 65.593965,16.392532 64.556606,17.179502 C 62.836153,18.484674 60.042199,22.315060 60.023836,22.138577 z "
     style="font-size:12.000000;opacity:0.69999999;fill:url(#linearGradient847);fill-rule:evenodd;stroke:none;stroke-width:0.11529599pt;"
     id="path1677"
     sodipodi:nodetypes="ccccc" />
  <path
     style="font-size:12.000000;opacity:0.69999999;fill:url(#linearGradient863);fill-rule:evenodd;stroke:none;stroke-width:0.13532900pt;"
     d="M 61.438566,37.584560 C 64.214751,37.259384 75.790897,37.338374 76.614831,37.584560 C 77.215889,37.764074 69.267312,38.861505 65.713533,38.861505 C 64.208511,38.861505 60.581078,37.684931 61.438566,37.584560 z "
     id="path1678"
     sodipodi:nodetypes="csss" />
  <path
     style="fill-opacity:0.29999998;fill-rule:evenodd;stroke-width:1.0000000pt;stroke-linecap:round;stroke-linejoin:bevel;"
     d="M 41.282830,29.079344 C 32.758624,27.739373 24.241517,30.971591 21.217615,37.119444 C 20.519813,38.538140 20.262994,40.001354 20.223370,41.463030 C 20.066764,47.240341 24.711602,52.937189 32.390169,55.381435 C 37.191353,56.909753 41.924515,56.981847 46.539391,55.589106 C 53.344241,53.526661 57.291967,48.743019 57.095041,43.285998 C 57.097812,43.277001 57.095591,43.265476 57.098332,43.256468 C 57.121292,43.181506 57.103514,43.095682 57.124773,43.020241 C 57.086857,42.405956 57.026791,41.796686 56.883328,41.169445 C 56.878896,41.150016 56.894583,41.129849 56.889941,41.110388 L 56.860418,41.107084 C 56.814488,40.958992 56.741546,40.820239 56.699958,40.670559 C 55.348717,35.808624 51.149391,31.916746 44.924532,29.935243 C 43.721870,29.552410 42.500568,29.270770 41.282830,29.079344 z "
     id="path1054" />
  <path
     style="fill:#73667f;fill-opacity:1.0000000;fill-rule:evenodd;stroke-width:1.0000000pt;stroke-linecap:round;stroke-linejoin:bevel;"
     d="M 39.833941,26.983212 C 31.310187,25.643293 22.793503,28.875561 19.769723,35.023431 C 19.071949,36.442129 18.815134,37.905343 18.775503,39.367020 C 18.990850,40.069324 19.218339,40.769297 19.561438,41.428224 C 20.018202,42.305447 20.598065,43.134019 21.255945,43.919958 C 21.913824,44.705896 22.661993,45.435306 23.492080,46.113509 C 24.322167,46.791714 25.211171,47.415424 26.184561,47.969439 C 27.157953,48.523456 28.193150,49.008706 29.280937,49.422084 C 30.267253,49.796904 31.320013,50.090312 32.377722,50.336610 L 37.208522,40.562218 L 55.161205,39.102539 C 55.179803,38.925262 55.240880,38.753418 55.250194,38.574329 C 53.899073,33.712403 49.699977,29.820554 43.475452,27.839089 C 42.272856,27.456265 41.051621,27.174630 39.833941,26.983212 z "
     id="path879" />
  <path
     style="fill:url(#linearGradient1017);fill-opacity:1.0000000;fill-rule:evenodd;stroke:none;stroke-width:1.0000000pt;stroke-linecap:butt;stroke-linejoin:miter;stroke-opacity:1.0000000;"
     d="M 21.586123,45.059466 C 21.435067,44.490434 18.431929,31.578072 31.454883,29.231467 C 44.679941,26.723428 51.578138,34.979661 51.729194,35.548694 C 51.880251,36.117727 43.223276,29.873260 32.038354,32.241458 C 21.055537,34.448221 21.737178,45.628501 21.586123,45.059466 z "
     id="path862"
     sodipodi:nodetypes="czzzz" />
  <path
     style="fill:#ff0000;fill-opacity:1.00000000;fill-rule:evenodd;stroke-width:1.0000000pt;stroke-linecap:round;stroke-linejoin:bevel;"
     d="M 55.250194,38.574329 C 55.240880,38.753418 55.179803,38.925262 55.161205,39.102539 L 55.433574,39.073216 C 55.393307,38.899749 55.297745,38.745393 55.250194,38.574329 z "
     id="path880" />
  <path
     style="fill:#512966;fill-rule:evenodd;stroke-width:1.0000000pt;stroke-linecap:round;stroke-linejoin:bevel;"
     d="M 32.377722,50.336610 C 31.320013,50.090312 30.267253,49.796904 29.280937,49.422084 C 28.193150,49.008706 27.157953,48.523456 26.184561,47.969439 C 25.211171,47.415424 24.322167,46.791714 23.492080,46.113509 C 22.661993,45.435306 21.913824,44.705896 21.255945,43.919958 C 20.598065,43.134019 20.018202,42.305447 19.561438,41.428224 C 19.218339,40.769297 18.990850,40.069324 18.775503,39.367020 C 18.618874,45.144329 23.263441,50.841146 30.941594,53.285345 L 32.377722,50.336610 z "
     id="path881" />
  <path
     style="fill:#7f7f00;fill-rule:evenodd;stroke-width:1.0000000pt;stroke-linecap:round;stroke-linejoin:bevel;"
     d="M 43.349933,50.607417 C 42.540375,50.766078 41.744411,50.945441 40.882142,51.018983 C 39.624596,51.126234 38.371384,51.131705 37.141521,51.048962 C 35.911656,50.966218 34.696006,50.780793 33.522727,50.524507 C 33.154122,50.443990 32.814441,50.292155 32.453296,50.195575 L 30.941594,53.285345 C 35.751971,54.816640 40.496362,54.897559 45.119607,53.496234 L 43.349933,50.607417 z "
     id="path883" />
  <path
     style="fill:#cccc00;fill-rule:evenodd;stroke-width:1.0000000pt;stroke-linecap:round;stroke-linejoin:bevel;"
     d="M 43.349933,50.607417 L 37.208522,40.562218 L 32.369894,50.344028 C 32.731041,50.440608 33.954093,50.731889 34.173249,50.765701 C 34.517870,50.817823 35.911656,50.966218 37.141521,51.048962 C 38.371384,51.131705 39.624596,51.126234 40.882142,51.018983 C 41.744411,50.945441 42.540375,50.766078 43.349933,50.607417 z "
     id="path884"
     sodipodi:nodetypes="ccccccc" />
  <path
     style="fill:#237f24;fill-rule:evenodd;stroke-width:1.0000000pt;stroke-linecap:round;stroke-linejoin:bevel;"
     d="M 55.674980,40.924008 C 55.653730,40.999449 55.671508,41.085272 55.648549,41.160236 C 55.383782,42.024866 55.014770,42.846746 54.534351,43.636719 C 54.053931,44.426692 53.466324,45.168660 52.790328,45.863349 C 52.114332,46.558039 51.333662,47.208907 50.482169,47.787682 C 49.630666,48.366456 48.715283,48.888808 47.708365,49.331038 C 46.701447,49.773268 45.621092,50.119778 44.478830,50.404835 C 44.110853,50.496667 43.701058,50.530009 43.320406,50.604113 L 45.090080,53.492931 C 52.009016,51.395769 56.018760,46.495566 55.674980,40.924008 z "
     id="path886" />
  <path
     style="fill:#66cc65;fill-rule:evenodd;stroke-width:1.0000000pt;stroke-linecap:round;stroke-linejoin:bevel;"
     d="M 55.674980,40.924008 C 55.635912,40.290698 55.594774,39.661950 55.440187,39.014158 L 37.208522,40.562218 L 43.320406,50.604113 C 43.701058,50.530009 44.110853,50.496667 44.478830,50.404835 C 45.621092,50.119778 46.701447,49.773268 47.708365,49.331038 C 48.715283,48.888808 49.630666,48.366456 50.482169,47.787682 C 51.333662,47.208907 52.114332,46.558039 52.790328,45.863349 C 53.466324,45.168660 54.053931,44.426692 54.534351,43.636719 C 55.014770,42.846746 55.383782,42.024866 55.648549,41.160236 C 55.671508,41.085272 55.653730,40.999449 55.674980,40.924008 z "
     id="path887" />
  <path
     style="fill:url(#linearGradient996);fill-rule:evenodd;stroke:#261933;stroke-width:1.7827648;stroke-linecap:round;stroke-linejoin:bevel;stroke-opacity:1.0000000;"
     d="M 39.930727,26.932966 C 31.406972,25.593045 22.890290,28.825311 19.866509,34.973178 C 19.168732,36.391876 18.911919,37.855091 18.872288,39.316766 C 18.715658,45.094075 23.360224,50.790893 31.038373,53.235090 C 35.839298,54.763379 40.572221,54.835446 45.186857,53.442679 C 51.991379,51.380199 55.938905,46.596535 55.742028,41.139519 C 55.744810,41.130523 55.742579,41.118995 55.745330,41.109990 C 55.768281,41.035027 55.750503,40.949202 55.771762,40.873762 C 55.733856,40.259478 55.673789,39.650211 55.530346,39.022970 C 55.525915,39.003541 55.541602,38.983372 55.536959,38.963912 L 55.507427,38.960608 C 55.461517,38.812516 55.388575,38.673765 55.346986,38.524082 C 53.995845,33.662158 49.796769,29.770310 43.572239,27.788843 C 42.369643,27.406018 41.148407,27.124382 39.930727,26.932966 z "
     id="path995" />
</svg>
