<?xml version="1.0" encoding="UTF-8" standalone="no"?>
<!DOCTYPE svg PUBLIC "-//W3C//DTD SVG 20010904//EN"
"http://www.w3.org/TR/2001/REC-SVG-20010904/DTD/svg10.dtd">
<!-- Created with Inkscape (http://www.inkscape.org/) -->
<svg
   version="1.0"
   x="0"
   y="0"
   width="60"
   height="60"
   id="svg1"
   xmlns="http://www.w3.org/2000/svg"
   xmlns:xlink="http://www.w3.org/1999/xlink"
   xmlns:sodipodi="http://sodipodi.sourceforge.net/DTD/sodipodi-0.dtd"
   xmlns:inkscape="http://www.inkscape.org/namespaces/inkscape"
   sodipodi:version="0.32"
   inkscape:version="0.37"
   sodipodi:docname="opera.svg"
   sodipodi:docbase="/home/dan/Projects/Lila-icons/scalable/apps">
  <sodipodi:namedview
     id="base"
     pagecolor="#ffffff"
     bordercolor="#666666"
     borderopacity="1.0"
     inkscape:pageopacity="0.0"
     inkscape:pageshadow="2"
     inkscape:zoom="6.94653375"
     inkscape:cx="24.5514283"
     inkscape:cy="24.2394500"
     inkscape:window-width="640"
     inkscape:window-height="500"
     inkscape:window-x="0"
     inkscape:window-y="25" />
  <defs
     id="defs3">
    <linearGradient
       id="linearGradient570">
      <stop
         style="stop-color:#ffffff;stop-opacity:1;"
         offset="0"
         id="stop571" />
      <stop
         style="stop-color:#ffffff;stop-opacity:0;"
         offset="1"
         id="stop572" />
    </linearGradient>
    <linearGradient
       id="linearGradient563">
      <stop
         style="stop-color:#d9cce6;stop-opacity:1;"
         offset="0"
         id="stop564" />
      <stop
         style="stop-color:#73667f;stop-opacity:1;"
         offset="1"
         id="stop565" />
    </linearGradient>
    <linearGradient
       x1="0.00000000"
       y1="0.00000000"
       x2="0.98076922"
       y2="0.97656250"
       id="linearGradient566"
       xlink:href="#linearGradient563" />
    <linearGradient
       x1="-0.00000000"
       y1="-0.00000000"
       x2="0.98717946"
       y2="0.99218750"
       id="linearGradient569"
       xlink:href="#linearGradient570" />
    <linearGradient
       x1="0.00000000"
       y1="0.00000000"
       x2="1.45833337"
       y2="1.06250000"
       id="linearGradient573"
       xlink:href="#linearGradient570" />
    <linearGradient
       id="linearGradient575"
       xlink:href="#linearGradient570" />
    <linearGradient
       x1="-0.00662200"
       y1="0.00781300"
       x2="0.92053002"
       y2="0.92187500"
       id="linearGradient578"
       xlink:href="#linearGradient570" />
  </defs>
  <g
     transform="matrix(0.974775,0.000000,0.000000,0.974775,-55.37076,-25.88470)"
     style="font-size:12;opacity:0.3;"
     id="g657">
    <path
       d="M 74.156017 33.383062 C 81.369028 28.829226 97.455499 28.663286 104.57537 33.188067 C 111.36521 37.503099 111.92633 51.097679 111.92633 59.902501 C 111.92633 67.737328 110.96824 79.538902 104.57537 83.107011 C 96.993532 87.338737 81.566557 87.472784 73.961021 83.302006 C 67.461855 79.737947 66.369232 67.604981 66.400023 59.722555 C 66.434231 50.965333 67.264326 37.734037 74.156017 33.383062 z "
       style="fill-rule:evenodd;stroke:#000000;stroke-width:1.875;"
       id="path655" />
    <path
       d="M 83.910298 36.20286 C 86.305197 32.193962 91.646307 32.04788 94.010283 36.031198 C 96.264677 39.829869 96.450982 51.797642 96.450982 59.548829 C 96.450982 66.446093 96.132873 76.835422 94.010283 79.976551 C 91.492922 83.701885 86.370782 83.819891 83.845554 80.148211 C 81.687669 77.010649 81.324891 66.329583 81.335114 59.390414 C 81.346472 51.681132 81.622084 40.033172 83.910298 36.20286 z "
       style="fill:#ffffff;fill-rule:evenodd;stroke:#000000;stroke-width:1.82609;"
       id="path656" />
  </g>
  <path
     d="M 29.982319 1.8124662 C 24.315727 1.8564452 18.632527 3.0046965 15.116994 5.2241803 C 8.3991438 9.4654038 7.5958294 22.367096 7.5624843 30.903421 C 7.53247 38.587016 8.5989962 50.397409 14.934224 53.871567 C 22.347913 57.937139 37.365665 57.813778 44.75626 53.688797 C 50.987865 50.210692 51.945228 38.723387 51.945229 31.086191 C 51.945229 22.503467 51.374819 9.2475981 44.75626 5.0414099 C 41.28612 2.8360877 35.648912 1.7684873 29.982319 1.8124662 z M 29.555855 4.9804864 C 31.437305 4.9417703 33.308021 5.8720072 34.460194 7.8134275 C 36.65772 11.516279 36.836209 23.164984 36.836209 30.72065 C 36.836209 37.443933 36.529243 47.580728 34.460194 50.642623 C 32.00633 54.273986 27.021661 54.373996 24.560131 50.794932 C 22.456677 47.736515 22.113227 37.332473 22.123192 30.568342 C 22.134264 23.053524 22.39056 11.699431 24.621055 7.9657362 C 25.788299 6.0118485 27.674405 5.0192025 29.555855 4.9804864 z "
     style="font-size:12;fill:url(#linearGradient566);fill-opacity:0.75;fill-rule:evenodd;stroke:#261933;stroke-width:1.875;stroke-dasharray:none;"
     id="path736" />
  <path
     d="M 25.273918 4.5069156 C 19.836308 3.9222262 15.100323 6.670266 12.995442 10.646153 C 10.715154 14.622041 9.3119002 24.912575 9.8381204 29.414683 C 10.890561 25.380327 13.774629 15.686766 15.801952 12.400223 C 18.003362 9.1158189 20.187121 6.6702664 25.273918 4.5069156 z "
     style="font-size:12;fill:url(#linearGradient569);fill-opacity:0.75;fill-rule:evenodd;stroke-width:1pt;"
     id="path596" />
  <path
     d="M 38.303841 12.485284 C 39.780024 17.042906 39.152439 47.337958 37.244664 49.918234 C 35.685233 52.220234 34.735539 53.203296 32.356455 54.851173 C 36.303118 53.886512 38.170023 52.311401 39.050541 50.732903 C 40.316372 48.636526 41.160273 16.02613 38.303841 12.485284 z "
     style="font-size:12;fill:url(#linearGradient573);fill-opacity:0.75;fill-rule:evenodd;stroke-width:1pt;"
     id="path648"
     sodipodi:nodetypes="ccccc" />
</svg>
