<?xml version="1.0" encoding="UTF-8" standalone="no"?>
<!DOCTYPE svg PUBLIC "-//W3C//DTD SVG 20010904//EN"
"http://www.w3.org/TR/2001/REC-SVG-20010904/DTD/svg10.dtd">
<!-- Created with Inkscape (http://www.inkscape.org/) -->
<svg
   id="svg1"
   sodipodi:version="0.32"
   inkscape:version="0.38.1"
   width="48pt"
   height="48pt"
   sodipodi:docbase="/home/ed"
   sodipodi:docname="panel-force-quit.svg"
   xmlns="http://www.w3.org/2000/svg"
   xmlns:inkscape="http://www.inkscape.org/namespaces/inkscape"
   xmlns:sodipodi="http://sodipodi.sourceforge.net/DTD/sodipodi-0.dtd"
   xmlns:xlink="http://www.w3.org/1999/xlink">
  <defs
     id="defs3">
    <linearGradient
       id="linearGradient887">
      <stop
         offset="0.0000000"
         style="stop-color:#f50000;stop-opacity:1.0000000;"
         id="stop889" />
      <stop
         offset="1.0000000"
         style="stop-color:#a90000;stop-opacity:1.0000000;"
         id="stop888" />
    </linearGradient>
    <linearGradient
       id="linearGradient642">
      <stop
         style="stop-color:#d9cce6;stop-opacity:1;"
         offset="0.00000000"
         id="stop643" />
      <stop
         style="stop-color:#73667f;stop-opacity:1;"
         offset="1.00000000"
         id="stop644" />
    </linearGradient>
    <linearGradient
       id="linearGradient866">
      <stop
         style="stop-color:#ffffff;stop-opacity:1;"
         offset="0.00000000"
         id="stop867" />
      <stop
         style="stop-color:#d9cce6;stop-opacity:1;"
         offset="1.00000000"
         id="stop868" />
    </linearGradient>
    <linearGradient
       id="linearGradient584">
      <stop
         style="stop-color:#ffffff;stop-opacity:1;"
         offset="0.00000000"
         id="stop585" />
      <stop
         style="stop-color:#ffffff;stop-opacity:0;"
         offset="1.00000000"
         id="stop586" />
    </linearGradient>
    <linearGradient
       xlink:href="#linearGradient866"
       id="linearGradient586"
       x1="-0.00000000"
       y1="0.01562500"
       x2="0.99122804"
       y2="0.98437500" />
    <linearGradient
       xlink:href="#linearGradient584"
       id="linearGradient587"
       x1="0.00000000"
       y1="-0.00000000"
       x2="1.00000000"
       y2="1.00000000" />
    <linearGradient
       xlink:href="#linearGradient866"
       id="linearGradient638"
       x1="0.00000000"
       y1="0.00000000"
       x2="0.98684210"
       y2="1.02343750" />
    <radialGradient
       xlink:href="#linearGradient866"
       id="radialGradient639" />
    <linearGradient
       xlink:href="#linearGradient642"
       id="linearGradient640"
       x1="0.00000000"
       y1="-0.00000000"
       x2="0.98684210"
       y2="1.02343750" />
    <linearGradient
       xlink:href="#linearGradient584"
       id="linearGradient641"
       x1="0.00000000"
       y1="0.00000000"
       x2="0.99270076"
       y2="0.95238096" />
    <linearGradient
       xlink:href="#linearGradient584"
       id="linearGradient645"
       x1="-0.00000000"
       y1="-0.00000000"
       x2="0.99270076"
       y2="0.94999999" />
    <linearGradient
       xlink:href="#linearGradient584"
       id="linearGradient699"
       x1="0.00000000"
       y1="0.00000000"
       x2="0.98701298"
       y2="1.00781250" />
    <linearGradient
       xlink:href="#linearGradient584"
       id="linearGradient700"
       x1="-0.00000000"
       y1="-0.00000000"
       x2="0.96875000"
       y2="0.99218750" />
    <linearGradient
       xlink:href="#linearGradient584"
       id="linearGradient701"
       x1="-0.00000000"
       y1="-0.00000000"
       x2="0.97058821"
       y2="0.97656250" />
    <linearGradient
       xlink:href="#linearGradient584"
       id="linearGradient702"
       x1="-0.00000000"
       y1="0.00000000"
       x2="1.01485145"
       y2="1.02343750" />
    <linearGradient
       xlink:href="#linearGradient584"
       id="linearGradient703"
       x1="0.00000000"
       y1="-0.00000000"
       x2="1.01315784"
       y2="1.00781250" />
    <linearGradient
       xlink:href="#linearGradient642"
       id="linearGradient704"
       x1="0.26760563"
       y1="0.31250000"
       x2="0.65492958"
       y2="0.65625000" />
    <defs
       id="defs858">
      <linearGradient
         id="linearGradient859">
        <stop
           style="stop-color:#ffffff;stop-opacity:1;"
           offset="0.00000000"
           id="stop860" />
        <stop
           style="stop-color:#ffffff;stop-opacity:0;"
           offset="1.00000000"
           id="stop861" />
      </linearGradient>
      <linearGradient
         id="linearGradient578"
         x1="0.0000000"
         y1="0.50000000"
         x2="1.0000000"
         y2="0.50000000"
         gradientUnits="objectBoundingBox"
         spreadMethod="pad"
         xlink:href="#linearGradient887" />
      <linearGradient
         xlink:href="#linearGradient578"
         id="linearGradient581"
         x1="0.01538462"
         y1="0.03125000"
         x2="0.99230766"
         y2="0.98437500" />
      <linearGradient
         xlink:href="#linearGradient584"
         id="linearGradient583"
         x1="-0.01086957"
         y1="0.00000000"
         x2="0.98369563"
         y2="0.96875000" />
      <linearGradient
         xlink:href="#linearGradient584"
         id="linearGradient599"
         x1="0.00675676"
         y1="0.01562500"
         x2="1.36486483"
         y2="1.32031250" />
      <linearGradient
         xlink:href="#linearGradient584"
         id="linearGradient600"
         x1="-0.00000000"
         y1="0.01562500"
         x2="1.00000000"
         y2="1.00781250" />
    </defs>
    <sodipodi:namedview
       id="namedview869"
       pagecolor="#ffffff"
       bordercolor="#666666"
       borderopacity="1.0"
       inkscape:pageopacity="0.0"
       inkscape:pageshadow="2"
       inkscape:zoom="3.98973597"
       inkscape:cx="24.6369548"
       inkscape:cy="20.6429740"
       inkscape:window-width="508"
       inkscape:window-height="527"
       inkscape:window-x="183"
       inkscape:window-y="84" />
  </defs>
  <sodipodi:namedview
     id="base"
     pagecolor="#ffffff"
     bordercolor="#666666"
     borderopacity="1.0"
     inkscape:pageopacity="0.0"
     inkscape:pageshadow="2"
     inkscape:zoom="7.9794719"
     inkscape:cx="21.350369"
     inkscape:cy="24.273877"
     inkscape:window-width="771"
     inkscape:window-height="689"
     inkscape:window-x="530"
     inkscape:window-y="280" />
  <path
     style="font-size:12;opacity:0.302675;fill-rule:evenodd;stroke-width:1.25;"
     d="M 2.0249778 41.039993 C 1.0833744 39.429385 11.245813 6.2919 13.746093 5.221956 C 15.622622 4.4154423 58.239182 12.486704 59.117306 14.289811 C 60.085443 16.492319 50.016028 52.552838 47.873333 53.368912 C 45.787368 54.242537 3.0501952 42.950405 2.0249778 41.039993 z "
     id="path627"
     sodipodi:nodetypes="cssss" />
  <path
     style="font-size:12;fill:url(#linearGradient638);fill-rule:evenodd;stroke:#000000;stroke-width:1.875;stroke-dasharray:none;"
     d="M 2.2189011 37.346984 C 1.3264369 35.820428 10.958534 4.4122731 13.328333 3.3981652 C 15.106932 2.6337408 55.499482 10.283791 56.331779 11.992801 C 57.249392 14.080368 47.705465 48.259012 45.674589 49.0325 C 43.697483 49.860532 3.1906164 39.157697 2.2189011 37.346984 z "
     id="path628"
     sodipodi:nodetypes="cssss" />
  <path
     style="font-size:12;fill:url(#linearGradient640);fill-rule:evenodd;stroke:#000000;stroke-width:1.875;stroke-dasharray:none;"
     d="M 11.113561 8.676361 C 10.43911 8.307871 12.689552 3.7947236 13.328333 3.3981652 C 14.901333 2.2697032 55.188651 10.474021 56.331779 11.992801 C 56.833638 12.732669 55.776724 17.280365 54.710228 17.839894 C 52.961588 19.079589 12.69595 9.98745 11.113561 8.676361 z "
     id="path629"
     sodipodi:nodetypes="cssss" />
  <path
     style="font-size:12;fill-rule:evenodd;stroke-width:1pt;"
     d="M 49.68204 12.145649 C 49.292267 12.407435 50.287541 13.799271 50.270005 14.051583 C 50.257467 14.279769 48.570123 14.996242 48.789277 15.315735 C 48.965892 15.647285 50.72298 14.594365 50.959979 14.682096 C 51.138581 14.736361 51.714591 16.240673 52.093452 16.068673 C 52.463363 15.872824 51.748778 14.40606 51.779402 14.157006 C 51.849205 13.936169 53.689461 13.351744 53.536911 13.024078 C 53.313387 12.674043 51.34586 13.618045 51.080281 13.486553 C 50.858201 13.351613 50.064835 11.920058 49.68204 12.145649 z "
     id="path633"
     sodipodi:nodetypes="cssssssss" />
  <path
     style="font-size:12;fill:url(#linearGradient645);fill-rule:evenodd;stroke-width:1pt;"
     d="M 13.265095 7.016211 C 13.184499 6.814251 13.694701 4.8292983 14.454708 4.9360507 C 26.429074 6.617992 51.39531 12.199601 51.468218 12.382295 C 51.539913 12.561955 27.001989 7.72459 14.888514 6.023108 C 14.267615 5.935895 13.329102 7.176603 13.265095 7.016211 z "
     id="path636"
     sodipodi:nodetypes="cssss" />
  <path
     style="opacity:0.29999998;fill-rule:evenodd;stroke-width:18.750000;"
     d="M 6.9343421 57.521581 C 8.6697699 59.269489 30.340458 42.753724 33.163015 42.585814 C 35.496203 42.585814 55.852471 59.147552 57.388115 57.521581 C 58.948921 55.868962 42.450042 35.01578 42.452338 32.750056 C 42.454776 30.538321 59.141756 9.1884812 57.570255 7.4320985 C 56.045307 5.727753 35.305967 22.370314 33.163015 22.367873 C 30.792285 22.179666 8.9251706 5.4728096 7.2986293 7.2499548 C 5.6465865 9.0549664 23.321268 30.419816 23.327264 33.114342 C 23.150472 35.518854 5.2704576 55.662281 6.9343421 57.521581 z "
     id="path601"
     sodipodi:nodetypes="cssssssss"
     transform="matrix(0.772029,0.000000,0.000000,0.772029,14.71467,14.86596)" />
  <path
     style="font-size:12.000000;fill:url(#linearGradient581);fill-rule:evenodd;stroke:#330000;stroke-width:2.4286652;stroke-dasharray:none;"
     d="M 8.6789349 52.921631 C 10.201644 54.455286 29.216052 39.96394 31.692638 39.816608 C 33.739832 39.81661 51.60094 54.348291 52.948352 52.921631 C 54.317837 51.471577 39.841309 33.174476 39.843326 31.18647 C 39.845462 29.245838 54.487041 10.512949 53.108167 8.9718535 C 51.770142 7.476417 33.572918 22.079021 31.692638 22.076881 C 29.612497 21.911742 10.425738 7.2527237 8.9985705 8.8120369 C 7.5490258 10.395798 23.057238 29.141858 23.0625 31.506106 C 22.907378 33.615884 7.219001 51.290239 8.6789349 52.921631 z "
     id="path589"
     sodipodi:nodetypes="cssssssss"
     transform="matrix(0.772029,0.000000,0.000000,0.772029,14.71467,14.86596)" />
  <path
     style="font-size:12.000000;fill:url(#linearGradient600);fill-rule:evenodd;stroke-width:1.0000000pt;"
     d="M 11.425068 50.323641 C 11.667991 49.575931 22.742805 35.368244 26.375023 31.706693 C 27.0736 31.002476 25.95968 36.622014 25.056727 37.705778 C 21.185667 42.351995 11.224771 50.940143 11.425068 50.323641 z "
     id="path596"
     sodipodi:nodetypes="csss"
     transform="matrix(0.772029,0.000000,0.000000,0.772029,14.71467,14.86596)" />
  <path
     style="opacity:0.75038201;fill:url(#linearGradient599);fill-rule:evenodd;stroke-width:1.0000000pt;"
     d="M 19.863314 23.039014 C 18.904982 22.113726 10.930725 11.494995 11.549574 11.207671 C 12.266137 10.874983 24.231025 19.334637 25.148082 20.220071 C 25.614127 20.670048 15.529076 14.447013 15.219429 14.574634 C 15.041851 14.657082 20.288086 23.449137 19.863314 23.039014 z "
     id="path597"
     sodipodi:nodetypes="cssss"
     transform="matrix(0.772029,0.000000,0.000000,0.772029,14.71467,14.86596)" />
  <path
     style="fill:url(#linearGradient583);fill-rule:evenodd;stroke-width:1.0000000pt;"
     d="M 32.61609 24.462783 C 35.912102 21.298612 49.32133 12.110487 50.071639 12.168203 C 50.706412 12.217033 43.026197 20.214299 38.724604 23.195602 C 37.645678 23.943372 31.916665 25.134229 32.61609 24.462783 z "
     id="path598"
     sodipodi:nodetypes="csss"
     transform="matrix(0.772029,0.000000,0.000000,0.772029,14.71467,14.86596)" />
</svg>
