<?xml version="1.0" encoding="UTF-8" standalone="no"?>
<!DOCTYPE svg PUBLIC "-//W3C//DTD SVG 20010904//EN"
"http://www.w3.org/TR/2001/REC-SVG-20010904/DTD/svg10.dtd">
<!-- Created with Inkscape (http://www.inkscape.org/) -->
<svg
   id="svg1"
   sodipodi:version="0.32"
   inkscape:version="0.39"
   width="48pt"
   height="48pt"
   sodipodi:docbase="/home/scaba/files/lila/work/lila-gnome/Lila/scalable/apps"
   sodipodi:docname="panel-window-menu.svg"
   xmlns="http://www.w3.org/2000/svg"
   xmlns:cc="http://web.resource.org/cc/"
   xmlns:inkscape="http://www.inkscape.org/namespaces/inkscape"
   xmlns:sodipodi="http://sodipodi.sourceforge.net/DTD/sodipodi-0.dtd"
   xmlns:rdf="http://www.w3.org/1999/02/22-rdf-syntax-ns#"
   xmlns:dc="http://purl.org/dc/elements/1.1/"
   xmlns:xlink="http://www.w3.org/1999/xlink">
  <defs
     id="defs3">
    <linearGradient
       id="linearGradient866">
      <stop
         style="stop-color:#ffffff;stop-opacity:1;"
         offset="0.00000000"
         id="stop867" />
      <stop
         style="stop-color:#d9cce6;stop-opacity:1;"
         offset="1.00000000"
         id="stop868" />
    </linearGradient>
    <linearGradient
       xlink:href="#linearGradient866"
       id="linearGradient638"
       x1="0.00000000"
       y1="0.00000000"
       x2="0.98684210"
       y2="1.02343750" />
    <linearGradient
       id="linearGradient642">
      <stop
         style="stop-color:#d9cce6;stop-opacity:1;"
         offset="0.00000000"
         id="stop643" />
      <stop
         style="stop-color:#73667f;stop-opacity:1;"
         offset="1.00000000"
         id="stop644" />
    </linearGradient>
    <linearGradient
       xlink:href="#linearGradient642"
       id="linearGradient640"
       x1="0.00000000"
       y1="-0.00000000"
       x2="0.98684210"
       y2="1.02343750" />
    <linearGradient
       xlink:href="#linearGradient584"
       id="linearGradient645"
       x1="-0.00000000"
       y1="-0.00000000"
       x2="0.99270076"
       y2="0.94999999" />
    <linearGradient
       id="linearGradient584">
      <stop
         style="stop-color:#ffffff;stop-opacity:1;"
         offset="0.00000000"
         id="stop585" />
      <stop
         style="stop-color:#ffffff;stop-opacity:0;"
         offset="1.00000000"
         id="stop586" />
    </linearGradient>
    <linearGradient
       id="linearGradient578">
      <stop
         style="stop-color:#faf8fd;stop-opacity:1;"
         offset="0.00000000"
         id="stop579" />
      <stop
         style="stop-color:#d9cce6;stop-opacity:1;"
         offset="1.00000000"
         id="stop580" />
    </linearGradient>
    <linearGradient
       xlink:href="#linearGradient578"
       id="linearGradient581"
       x1="0.00000000"
       y1="0.00000000"
       x2="0.98666668"
       y2="1.00781250" />
    <linearGradient
       xlink:href="#linearGradient584"
       id="linearGradient583"
       x1="0.00000000"
       y1="0.00000000"
       x2="1.00364959"
       y2="0.95238096" />
    <linearGradient
       xlink:href="#linearGradient584"
       id="linearGradient654"
       x1="-0.00000000"
       y1="-0.00000000"
       x2="0.96341461"
       y2="0.99218750" />
    <linearGradient
       xlink:href="#linearGradient584"
       id="linearGradient655"
       x1="-0.00000000"
       y1="-0.00000000"
       x2="0.98148149"
       y2="0.95312500" />
    <linearGradient
       xlink:href="#linearGradient584"
       id="linearGradient713"
       x1="-0.00000000"
       y1="-0.00000000"
       x2="0.95454544"
       y2="0.99218750" />
    <linearGradient
       xlink:href="#linearGradient584"
       id="linearGradient1245"
       x1="0.00000000"
       y1="0.00000000"
       x2="0.97692305"
       y2="0.99218750" />
  </defs>
  <sodipodi:namedview
     id="base"
     pagecolor="#ffffff"
     bordercolor="#666666"
     borderopacity="1.0"
     inkscape:pageopacity="0.0"
     inkscape:pageshadow="2"
     inkscape:zoom="8.0000000"
     inkscape:cx="26.135040"
     inkscape:cy="14.951275"
     inkscape:window-width="810"
     inkscape:window-height="662"
     inkscape:window-x="27"
     inkscape:window-y="26" />
  <path
     style="font-size:12.000000;opacity:0.30267498;fill-rule:evenodd;stroke-width:1.2500000;"
     d="M 2.7387867,39.824771 C 1.8332752,38.275902 11.606173,6.4086183 14.010616,5.3796872 C 15.815214,4.6040894 56.798216,12.365969 57.642675,14.099961 C 58.573701,16.218042 48.890278,50.896315 46.829722,51.681109 C 44.823711,52.521244 3.7247058,41.661956 2.7387867,39.824771 z "
     id="path627"
     sodipodi:nodetypes="cssss" />
  <path
     style="font-size:12.000000;fill:url(#linearGradient638);fill-rule:evenodd;stroke:#000000;stroke-width:1.8031287;"
     d="M 2.9252766,36.273321 C 2.0670208,34.805281 11.329914,4.6010398 13.608877,3.6258045 C 15.319298,2.8906812 54.163527,10.247496 54.963923,11.890997 C 55.846354,13.898544 46.668273,46.767076 44.715238,47.510916 C 42.813929,48.307207 3.8597430,38.014629 2.9252766,36.273321 z "
     id="path628"
     sodipodi:nodetypes="cssss" />
  <path
     style="font-size:12.000000;fill:url(#linearGradient640);fill-rule:evenodd;stroke:#000000;stroke-width:1.8031287;"
     d="M 11.478989,8.7016815 C 10.830399,8.3473156 12.994579,4.0071648 13.608877,3.6258045 C 15.121579,2.5405986 53.864605,10.430434 54.963923,11.890997 C 55.446553,12.602505 54.430134,16.975880 53.404530,17.513963 C 51.722927,18.706140 13.000728,9.9625157 11.478989,8.7016815 z "
     id="path629"
     sodipodi:nodetypes="cssss" />
  <path
     style="font-size:12.000000;fill-rule:evenodd;stroke-width:1.0000000pt;"
     d="M 48.569070,12.037985 C 48.194244,12.289738 49.151356,13.628224 49.134501,13.870865 C 49.122440,14.090304 47.499802,14.779312 47.710546,15.086558 C 47.880388,15.405400 49.570113,14.392841 49.798038,14.477208 C 49.969785,14.529392 50.523711,15.976042 50.888055,15.810635 C 51.243795,15.622294 50.556594,14.211751 50.586033,13.972246 C 50.653175,13.759874 52.422887,13.197850 52.276184,12.882745 C 52.061230,12.546127 50.169137,13.453944 49.913721,13.327493 C 49.700146,13.197725 48.937197,11.821044 48.569070,12.037985 z "
     id="path633"
     sodipodi:nodetypes="cssssssss" />
  <path
     style="font-size:12.000000;fill:url(#linearGradient645);fill-rule:evenodd;stroke-width:1.0000000pt;"
     d="M 13.548050,7.1051678 C 13.470553,6.9109490 13.961199,5.0020808 14.692068,5.1047424 C 26.207434,6.7222133 50.216668,12.089869 50.286798,12.265562 C 50.355733,12.438335 26.758387,7.7863931 15.109241,6.1501307 C 14.512142,6.0662606 13.609611,7.2594107 13.548050,7.1051678 z "
     id="path636"
     sodipodi:nodetypes="cssss" />
  <path
     style="font-size:12.000000;opacity:0.30267498;fill-rule:evenodd;stroke-width:1.2500000;"
     d="M 13.642454,49.261823 C 12.888780,47.972668 21.022940,21.448908 23.024227,20.592503 C 24.526227,19.946961 58.637172,26.407325 59.340061,27.850559 C 60.114958,29.613479 52.055241,58.476884 50.340185,59.130083 C 48.670556,59.829346 14.463052,50.790946 13.642454,49.261823 z "
     id="path1337"
     sodipodi:nodetypes="cssss" />
  <path
     style="font-size:12.000000;fill:url(#linearGradient638);fill-rule:evenodd;stroke:#000000;stroke-width:2.0676687;"
     d="M 13.797673,46.305878 C 13.083332,45.084002 20.793013,19.944425 22.689829,19.132717 C 24.113468,18.520858 56.444281,24.644078 57.110461,26.011995 C 57.844939,27.682918 50.205827,55.040038 48.580287,55.659150 C 46.997771,56.321921 14.575446,47.755204 13.797673,46.305878 z "
     id="path1338"
     sodipodi:nodetypes="cssss" />
  <path
     style="font-size:12.000000;fill:url(#linearGradient640);fill-rule:evenodd;stroke:#000000;stroke-width:2.0676687;"
     d="M 20.917101,23.357467 C 20.377260,23.062520 22.178547,19.450130 22.689829,19.132717 C 23.948893,18.229475 56.195492,24.796341 57.110461,26.011995 C 57.512167,26.604199 56.666189,30.244244 55.812559,30.692100 C 54.412909,31.684373 22.183671,24.406882 20.917101,23.357467 z "
     id="path1339"
     sodipodi:nodetypes="cssss" />
  <path
     style="font-size:12.000000;fill-rule:evenodd;stroke-width:1.0000000pt;"
     d="M 51.787905,26.134339 C 51.475927,26.343876 52.272568,27.457923 52.258517,27.659876 C 52.248492,27.842522 50.897908,28.415996 51.073326,28.671724 C 51.214680,28.937101 52.621098,28.094331 52.810793,28.164551 C 52.953741,28.207985 53.414795,29.412060 53.718043,29.274388 C 54.014133,29.117627 53.442160,27.943607 53.466693,27.744259 C 53.522542,27.567499 54.995522,27.099716 54.873411,26.837446 C 54.694509,26.557272 53.119642,27.312866 52.907064,27.207618 C 52.729314,27.099612 52.094307,25.953770 51.787905,26.134339 z "
     id="path1340"
     sodipodi:nodetypes="cssssssss" />
  <path
     style="font-size:12.000000;fill:url(#linearGradient645);fill-rule:evenodd;stroke-width:1.0000000pt;"
     d="M 22.639218,22.028656 C 22.574706,21.867004 22.983076,20.278217 23.591403,20.363661 C 33.175892,21.709914 53.159250,26.177522 53.217591,26.323755 C 53.274977,26.467555 33.634455,22.595653 23.938627,21.233761 C 23.441643,21.163955 22.690454,22.157035 22.639218,22.028656 z "
     id="path1341"
     sodipodi:nodetypes="cssss" />
  <path
     style="fill:#261933;fill-opacity:1.0000000;fill-rule:evenodd;stroke:none;stroke-width:1.0000000pt;stroke-linecap:butt;stroke-linejoin:miter;stroke-opacity:1.0000000;"
     d="M 30.089324,34.742730 C 30.116420,32.693458 34.147605,29.727221 37.418980,30.261461 C 38.999130,30.569053 40.875913,34.863622 40.297914,36.605610 C 39.244794,39.753816 36.349404,38.716197 35.414980,40.287952 C 34.792510,41.296925 34.472549,43.662881 34.176859,44.153799 C 33.885850,44.688387 31.832533,44.272977 31.732850,43.664542 C 31.533354,42.783334 32.087726,40.858805 32.680397,39.728740 C 33.640912,37.818159 36.568323,37.946152 37.324494,36.187180 C 37.801502,35.118813 37.454399,33.291170 36.161013,32.932838 C 34.268071,32.402840 33.032234,35.656197 31.532863,35.982532 C 30.869467,36.126919 30.052975,35.336814 30.089324,34.742730 z "
     id="path1465"
     sodipodi:nodetypes="cssssssssss" />
  <metadata
     id="metadata928">
    <rdf:RDF
       id="RDF929">
      <cc:Work
         rdf:about=""
         id="Work930">
        <dc:format
           id="format931">image/svg+xml</dc:format>
        <dc:type
           id="type933"
           rdf:resource="http://purl.org/dc/dcmitype/StillImage" />
      </cc:Work>
    </rdf:RDF>
  </metadata>
  <path
     style="font-size:12.000000;fill:#261933;fill-opacity:1.0000000;fill-rule:evenodd;stroke-width:1.0000000pt;"
     d="M 33.701012,47.448472 C 33.483075,48.353709 32.571516,48.911515 31.666283,48.693580 C 30.761047,48.475644 30.203240,47.564086 30.421175,46.658850 C 30.639111,45.753617 31.550670,45.195810 32.455905,45.413747 C 33.361139,45.631682 33.918948,46.543240 33.701012,47.448472 z "
     id="path962" />
  <path
     style="fill:url(#linearGradient655);fill-opacity:1.0000000;fill-rule:evenodd;stroke:none;stroke-width:1.0000000pt;stroke-linecap:butt;stroke-linejoin:miter;stroke-opacity:1.0000000;"
     d="M 30.773226,47.504411 C 30.743768,47.441592 30.383331,46.601798 31.223405,45.890075 C 31.981377,45.233228 32.733082,45.831028 32.761284,45.891166 C 32.787287,45.946619 32.180680,45.610281 31.386020,46.236852 C 30.381083,47.050158 30.797974,47.557185 30.773226,47.504411 z "
     id="path853"
     sodipodi:nodetypes="cssss" />
  <path
     style="fill:url(#linearGradient654);fill-opacity:1.0000000;fill-rule:evenodd;stroke:none;stroke-width:1.0000000pt;stroke-linecap:butt;stroke-linejoin:miter;stroke-opacity:1.0000000;"
     d="M 30.796527,33.895245 C 34.349312,29.829624 36.928227,30.174616 37.636446,30.670880 C 37.868139,30.833232 38.357390,31.664568 38.138344,31.465765 C 35.093702,28.702492 30.184665,34.595427 30.796527,33.895245 z "
     id="path965"
     sodipodi:nodetypes="csss" />
</svg>
