<?xml version="1.0" encoding="UTF-8" standalone="no"?>
<!DOCTYPE svg PUBLIC "-//W3C//DTD SVG 20010904//EN"
"http://www.w3.org/TR/2001/REC-SVG-20010904/DTD/svg10.dtd">
<!-- Created with Inkscape (http://www.inkscape.org/) -->
<svg
   id="svg1"
   sodipodi:version="0.32"
   inkscape:version="0.39"
   width="48pt"
   height="48pt"
   sodipodi:docbase="/home/scaba/files/lila/work/lila-gnome/Lila/scalable/apps"
   sodipodi:docname="panel-window-list.svg"
   xmlns="http://www.w3.org/2000/svg"
   xmlns:cc="http://web.resource.org/cc/"
   xmlns:inkscape="http://www.inkscape.org/namespaces/inkscape"
   xmlns:sodipodi="http://sodipodi.sourceforge.net/DTD/sodipodi-0.dtd"
   xmlns:rdf="http://www.w3.org/1999/02/22-rdf-syntax-ns#"
   xmlns:dc="http://purl.org/dc/elements/1.1/"
   xmlns:xlink="http://www.w3.org/1999/xlink">
  <defs
     id="defs3">
    <linearGradient
       id="linearGradient703">
      <stop
         style="stop-color:#d9cce6;stop-opacity:1;"
         offset="0.00000000"
         id="stop704" />
      <stop
         style="stop-color:#73667f;stop-opacity:1;"
         offset="1.00000000"
         id="stop705" />
    </linearGradient>
    <linearGradient
       xlink:href="#linearGradient703"
       id="linearGradient587"
       x1="0.00000000"
       y1="0.00000000"
       x2="1.00000000"
       y2="0.00000000" />
    <linearGradient
       id="linearGradient866">
      <stop
         style="stop-color:#ffffff;stop-opacity:1;"
         offset="0.00000000"
         id="stop867" />
      <stop
         style="stop-color:#d9cce6;stop-opacity:1;"
         offset="1.00000000"
         id="stop868" />
    </linearGradient>
    <linearGradient
       xlink:href="#linearGradient866"
       id="linearGradient638"
       x1="0.00000000"
       y1="0.00000000"
       x2="0.98684210"
       y2="1.02343750" />
    <linearGradient
       id="linearGradient642">
      <stop
         style="stop-color:#d9cce6;stop-opacity:1;"
         offset="0.00000000"
         id="stop643" />
      <stop
         style="stop-color:#73667f;stop-opacity:1;"
         offset="1.00000000"
         id="stop644" />
    </linearGradient>
    <linearGradient
       xlink:href="#linearGradient642"
       id="linearGradient640"
       x1="0.00000000"
       y1="-0.00000000"
       x2="0.98684210"
       y2="1.02343750" />
    <linearGradient
       xlink:href="#linearGradient584"
       id="linearGradient645"
       x1="-0.00000000"
       y1="-0.00000000"
       x2="0.99270076"
       y2="0.94999999" />
    <linearGradient
       id="linearGradient584">
      <stop
         style="stop-color:#ffffff;stop-opacity:1;"
         offset="0.00000000"
         id="stop585" />
      <stop
         style="stop-color:#ffffff;stop-opacity:0;"
         offset="1.00000000"
         id="stop586" />
    </linearGradient>
    <linearGradient
       id="linearGradient578">
      <stop
         style="stop-color:#faf8fd;stop-opacity:1;"
         offset="0.00000000"
         id="stop579" />
      <stop
         style="stop-color:#d9cce6;stop-opacity:1;"
         offset="1.00000000"
         id="stop580" />
    </linearGradient>
    <linearGradient
       xlink:href="#linearGradient578"
       id="linearGradient581"
       x1="0.00000000"
       y1="0.00000000"
       x2="0.98666668"
       y2="1.00781250" />
    <linearGradient
       xlink:href="#linearGradient584"
       id="linearGradient583"
       x1="0.00000000"
       y1="0.00000000"
       x2="1.00364959"
       y2="0.95238096" />
    <linearGradient
       xlink:href="#linearGradient584"
       id="linearGradient654"
       x1="-0.00000000"
       y1="-0.00000000"
       x2="0.96341461"
       y2="0.99218750" />
    <linearGradient
       xlink:href="#linearGradient584"
       id="linearGradient655"
       x1="-0.00000000"
       y1="-0.00000000"
       x2="0.98148149"
       y2="0.95312500" />
    <linearGradient
       xlink:href="#linearGradient584"
       id="linearGradient713"
       x1="-0.00000000"
       y1="-0.00000000"
       x2="0.95454544"
       y2="0.99218750" />
    <linearGradient
       xlink:href="#linearGradient584"
       id="linearGradient1245"
       x1="0.00000000"
       y1="0.00000000"
       x2="0.97692305"
       y2="0.99218750" />
  </defs>
  <sodipodi:namedview
     id="base"
     pagecolor="#ffffff"
     bordercolor="#666666"
     borderopacity="1.0"
     inkscape:pageopacity="0.0"
     inkscape:pageshadow="2"
     inkscape:zoom="8.0000000"
     inkscape:cx="28.120964"
     inkscape:cy="18.491604"
     inkscape:window-width="810"
     inkscape:window-height="662"
     inkscape:window-x="27"
     inkscape:window-y="26" />
  <path
     style="font-size:12.000000;opacity:0.30267498;fill-rule:evenodd;stroke-width:1.2500000;"
     d="M 3.0980232,44.424476 C 2.1691079,42.835576 12.194595,10.144651 14.661184,9.0891264 C 16.512423,8.2934826 58.554672,16.255976 59.420957,18.034784 C 60.376046,20.207608 50.442345,55.782176 48.328531,56.587254 C 46.270673,57.449103 4.1094244,46.309146 3.0980232,44.424476 z "
     id="path627"
     sodipodi:nodetypes="cssss" />
  <path
     style="font-size:12.000000;fill:url(#linearGradient638);fill-rule:evenodd;stroke:#000000;stroke-width:1.8497324;"
     d="M 3.2893332,40.781236 C 2.4088949,39.275253 11.911197,8.2903542 14.249061,7.2899129 C 16.003691,6.5357896 55.851886,14.082749 56.672969,15.768727 C 57.578207,17.828160 48.162910,51.546212 46.159397,52.309278 C 44.208947,53.126150 4.2479517,42.567550 3.2893332,40.781236 z "
     id="path628"
     sodipodi:nodetypes="cssss" />
  <path
     style="font-size:12.000000;fill:url(#linearGradient640);fill-rule:evenodd;stroke:#000000;stroke-width:1.8497324;"
     d="M 12.064124,12.496981 C 11.398771,12.133456 13.618886,7.6811299 14.249061,7.2899129 C 15.800861,6.1766589 55.545238,14.270415 56.672969,15.768727 C 57.168073,16.498625 56.125384,20.985034 55.073273,21.537024 C 53.348207,22.760014 13.625194,13.790402 12.064124,12.496981 z "
     id="path629"
     sodipodi:nodetypes="cssss" />
  <path
     style="font-size:12.000000;fill-rule:evenodd;stroke-width:1.0000000pt;"
     d="M 50.112835,15.919514 C 49.728322,16.177774 50.710171,17.550854 50.692880,17.799767 C 50.680507,18.024878 49.015932,18.731694 49.232121,19.046881 C 49.406353,19.373963 51.139751,18.335234 51.373567,18.421781 C 51.549753,18.475314 52.117996,19.959354 52.491757,19.789672 C 52.856691,19.596463 52.151729,18.149464 52.181929,17.903767 C 52.250806,17.685907 54.066258,17.109358 53.915763,16.786108 C 53.695253,16.440790 51.754258,17.372070 51.492241,17.242351 C 51.273145,17.109229 50.490477,15.696966 50.112835,15.919514 z "
     id="path633"
     sodipodi:nodetypes="cssssssss" />
  <path
     style="font-size:12.000000;fill:url(#linearGradient645);fill-rule:evenodd;stroke-width:1.0000000pt;"
     d="M 14.186663,10.859204 C 14.107162,10.659965 14.610489,8.7017604 15.360249,8.8070754 C 27.173240,10.466352 51.803017,15.972739 51.874959,16.152973 C 51.945676,16.330212 27.738434,11.558035 15.788204,9.8794824 C 15.175672,9.7934449 14.249815,11.017433 14.186663,10.859204 z "
     id="path636"
     sodipodi:nodetypes="cssss" />
  <metadata
     id="metadata928">
    <rdf:RDF
       id="RDF929">
      <cc:Work
         rdf:about=""
         id="Work930">
        <dc:format
           id="format931">image/svg+xml</dc:format>
        <dc:type
           id="type933"
           rdf:resource="http://purl.org/dc/dcmitype/StillImage" />
      </cc:Work>
    </rdf:RDF>
  </metadata>
  <path
     style="font-size:12.000000;fill:none;fill-opacity:1.00000000;fill-rule:evenodd;stroke:#261933;stroke-width:0.75200529pt;stroke-linecap:round;"
     d="M 23.034904,25.357039 L 48.757633,32.440386"
     id="path637" />
  <path
     style="font-size:12.000000;fill:none;fill-opacity:1.00000000;fill-rule:evenodd;stroke:#261933;stroke-width:0.75060258pt;stroke-linecap:round;"
     d="M 46.356058,43.129022 L 20.075962,36.005518"
     id="path638" />
  <rect
     style="font-size:12.000000;fill:url(#linearGradient587);fill-opacity:1.00000000;fill-rule:evenodd;stroke:#261933;stroke-width:0.94528894pt;"
     id="rect672"
     width="8.6601067"
     height="8.5398273"
     x="18.356501"
     y="12.288309"
     ry="2.5448132"
     transform="matrix(0.958509,0.285063,-0.285063,0.958509,0.000000,0.000000)"
     rx="2.5448132" />
  <path
     style="font-size:12.000000;fill:none;fill-opacity:1.00000000;fill-rule:evenodd;stroke:#261933;stroke-width:0.75200529pt;stroke-linecap:round;"
     d="M 23.686278,23.068169 L 49.409008,30.151515"
     id="path651" />
  <path
     style="font-size:12.000000;fill:none;fill-opacity:1.00000000;fill-rule:evenodd;stroke:#261933;stroke-width:0.75200529pt;stroke-linecap:round;"
     d="M 19.575608,38.599457 L 45.298336,45.682805"
     id="path652" />
  <rect
     style="font-size:12.000000;fill:url(#linearGradient587);fill-opacity:1.00000000;fill-rule:evenodd;stroke:#261933;stroke-width:0.94528894pt;"
     id="rect653"
     width="8.6601048"
     height="8.5398264"
     x="18.519964"
     y="26.119631"
     ry="2.5448127"
     transform="matrix(0.958509,0.285063,-0.285063,0.958509,0.000000,0.000000)"
     rx="2.5448127" />
</svg>
