<?xml version="1.0" encoding="UTF-8" standalone="no"?>
<!DOCTYPE svg PUBLIC "-//W3C//DTD SVG 20010904//EN"
"http://www.w3.org/TR/2001/REC-SVG-20010904/DTD/svg10.dtd">
<!-- Created with Sodipodi ("http://www.sodipodi.com/") -->
<svg
   id="svg613"
   sodipodi:version="0.32"
   width="48.000000pt"
   height="48.000000pt"
   xml:space="preserve"
   sodipodi:docbase="/home/scaba/files/pre-release/lila-gnome/Lila/scalable/apps"
   sodipodi:docname="porthole.svg"
   inkscape:version="0.39"
   xmlns="http://www.w3.org/2000/svg"
   xmlns:inkscape="http://www.inkscape.org/namespaces/inkscape"
   xmlns:sodipodi="http://sodipodi.sourceforge.net/DTD/sodipodi-0.dtd"
   xmlns:xml="http://www.w3.org/XML/1998/namespace"
   xmlns:xlink="http://www.w3.org/1999/xlink"
   xmlns:rdf="http://www.w3.org/1999/02/22-rdf-syntax-ns#"
   xmlns:cc="http://web.resource.org/cc/"
   xmlns:dc="http://purl.org/dc/elements/1.1/">
  <defs
   id="defs615">
    <linearGradient
   id="linearGradient693">
      <stop
   style="stop-color:#ffffff;stop-opacity:1.0000000;"
   offset="0.0000000"
   id="stop694" />

      <stop
   style="stop-color:#ffffff;stop-opacity:0.0000000;"
   offset="1.0000000"
   id="stop695" />

    </linearGradient>

    <linearGradient
   id="linearGradient669">
      <stop
   style="stop-color:#d9cce6;stop-opacity:1;"
   offset="0"
   id="stop670" />

      <stop
   style="stop-color:#73667f;stop-opacity:1;"
   offset="1"
   id="stop671" />

    </linearGradient>

    <linearGradient
   xlink:href="#linearGradient669"
   id="linearGradient672"
   x1="9.3132257e-10"
   y1="9.3132257e-10"
   x2="0.95483869"
   y2="0.96753246" />

    <linearGradient
   xlink:href="#linearGradient693"
   id="linearGradient679"
   x1="0.011299435"
   y1="0.0064935065"
   x2="0.64406782"
   y2="0.66233766" />

    <linearGradient
   xlink:href="#linearGradient669"
   id="linearGradient682" />

    <radialGradient
   xlink:href="#linearGradient693"
   id="radialGradient692"
   cx="0.30718955"
   cy="0.28571430"
   r="0.96838760"
   fx="0.30065361"
   fy="0.29220784" />

    <linearGradient
   xlink:href="#linearGradient693"
   id="linearGradient696"
   x1="0.011299435"
   y1="0.0064935065"
   x2="1.0960453"
   y2="1.1233766" />

    <linearGradient
   xlink:href="#linearGradient693"
   id="linearGradient861" />

  </defs>

  <sodipodi:namedview
   id="base"
   inkscape:zoom="7.1299934"
   inkscape:cx="22.651160"
   inkscape:cy="21.623706"
   inkscape:window-width="728"
   inkscape:window-height="620"
   inkscape:window-x="0"
   inkscape:window-y="26" />

  <path
   style="font-size:12.000000;opacity:0.30412367;fill:#000000;fill-opacity:1.0000000;fill-rule:evenodd;stroke:none;stroke-width:1.8750000;"
   d="M 31.482229,4.5567371 C 16.443114,4.5567371 4.3358109,16.664040 4.3358109,31.703157 C 4.3358109,46.742272 16.443114,58.849572 31.482229,58.849572 C 46.521345,58.849572 58.628650,46.742272 58.628650,31.703157 C 58.628650,16.664040 46.521345,4.5567371 31.482229,4.5567371 z M 31.482229,18.129947 C 39.001787,18.129947 45.055438,24.183599 45.055438,31.703157 C 45.055438,39.222714 39.001787,45.276364 31.482229,45.276364 C 23.962671,45.276364 17.909020,39.222714 17.909020,31.703157 C 17.909020,24.183599 23.962671,18.129947 31.482229,18.129947 z "
   id="path860" />

  <path
   style="font-size:12.000000;fill:url(#linearGradient672);fill-rule:evenodd;stroke:#000000;stroke-width:1.2614310;"
   d="M 29.675269,2.5894267 C 14.766837,2.5894267 2.7647424,14.591522 2.7647424,29.499954 C 2.7647424,44.408385 14.766837,56.410480 29.675269,56.410480 C 44.583700,56.410480 56.585795,44.408385 56.585795,29.499954 C 56.585795,14.591522 44.583700,2.5894267 29.675269,2.5894267 z M 29.675269,16.044691 C 37.129484,16.044691 43.130533,22.045738 43.130533,29.499954 C 43.130533,36.954169 37.129484,42.955218 29.675269,42.955218 C 22.221053,42.955218 16.220006,36.954169 16.220006,29.499954 C 16.220006,22.045738 22.221053,16.044691 29.675269,16.044691 z "
   id="path847" />

  <rect
   style="font-size:12.000000;fill:url(#linearGradient682);fill-rule:evenodd;stroke:#000000;stroke-width:1.2614310;"
   id="rect683"
   rx="50.000000"
   width="8.0731573"
   height="8.0731573"
   x="5.4557948"
   y="25.463373"
   ry="50.000000" />

  <rect
   style="font-size:12.000000;fill:url(#linearGradient682);fill-rule:evenodd;stroke:#000000;stroke-width:1.2614310;"
   id="rect684"
   rx="50.000000"
   width="8.0731573"
   height="8.0731573"
   y="5.2804790"
   x="25.638689"
   ry="50.000000" />

  <rect
   style="font-size:12.000000;fill:url(#linearGradient682);fill-rule:evenodd;stroke:#000000;stroke-width:1.2614310;"
   id="rect685"
   rx="50.000000"
   width="8.0731573"
   height="8.0731573"
   x="45.821587"
   y="25.463373"
   ry="50.000000" />

  <rect
   style="font-size:12.000000;fill:url(#linearGradient682);fill-rule:evenodd;stroke:#000000;stroke-width:1.2614310;"
   id="rect686"
   rx="50.000000"
   width="8.0731573"
   height="8.0731573"
   y="45.646271"
   x="25.638689"
   ry="50.000000" />

  <rect
   style="font-size:12.000000;fill:url(#linearGradient682);fill-rule:evenodd;stroke:#000000;stroke-width:1.2614310;"
   id="rect687"
   rx="50.000000"
   width="8.0731573"
   height="8.0731573"
   x="11.369385"
   y="39.732677"
   ry="50.000000" />

  <rect
   style="font-size:12.000000;fill:url(#linearGradient682);fill-rule:evenodd;stroke:#000000;stroke-width:1.2614310;"
   id="rect688"
   rx="50.000000"
   width="8.0731573"
   height="8.0731573"
   x="11.369385"
   y="11.194069"
   ry="50.000000" />

  <rect
   style="font-size:12.000000;fill:url(#linearGradient682);fill-rule:evenodd;stroke:#000000;stroke-width:1.2614310;"
   id="rect689"
   rx="50.000000"
   width="8.0731573"
   height="8.0731573"
   x="39.907993"
   y="11.194069"
   ry="50.000000" />

  <rect
   style="font-size:12.000000;fill:url(#linearGradient682);fill-rule:evenodd;stroke:#000000;stroke-width:1.2614310;"
   id="rect690"
   rx="50.000000"
   width="8.0731573"
   height="8.0731573"
   x="39.907993"
   y="39.732677"
   ry="50.000000" />

  <path
   style="fill:url(#radialGradient692);fill-rule:evenodd;stroke-width:1.0000000pt;"
   d="M 42.435528,29.416553 C 42.435528,36.506254 36.718931,42.260213 29.675268,42.260213 C 22.631606,42.260213 16.915009,36.506254 16.915009,29.416553 C 16.915009,22.326852 22.631606,16.572892 29.675268,16.572892 C 36.718931,16.572892 42.435528,22.326852 42.435528,29.416553 z "
   id="path849" />

  <path
   style="fill:url(#linearGradient679);fill-opacity:1.0000000;fill-rule:evenodd;stroke:none;stroke-width:1.0000000pt;stroke-linecap:butt;stroke-linejoin:miter;stroke-opacity:1.0000000;"
   d="M 7.9077665,42.427015 C 7.3517640,41.676412 -2.3226817,19.769908 16.081005,8.5664543 C 34.484691,-2.4701977 47.717553,11.485468 48.273556,12.236072 C 48.829559,12.986676 35.985899,-0.13498625 18.583017,10.901667 C 0.84653354,22.271920 8.4637692,43.177618 7.9077665,42.427015 z "
   id="path850"
   sodipodi:nodetypes="czzzz" />

  <path
   style="fill:url(#linearGradient696);fill-opacity:1.0000000;fill-rule:evenodd;stroke:none;stroke-width:1.0000000pt;stroke-linecap:butt;stroke-linejoin:miter;stroke-opacity:1.0000000;"
   d="M 44.477401,22.216013 C 44.825071,22.685367 50.874535,36.383578 39.366648,43.389135 C 27.858761,50.290390 19.584207,41.563865 19.236537,41.094510 C 18.888866,40.625155 26.920051,48.830174 37.802130,41.928919 C 48.892813,34.819061 44.129732,21.746656 44.477401,22.216013 z "
   id="path851"
   sodipodi:nodetypes="czzzz" />

  <path
   style="fill:url(#linearGradient679);fill-opacity:1.0000000;fill-rule:evenodd;stroke:none;stroke-width:1.0000000pt;stroke-linecap:butt;stroke-linejoin:miter;stroke-opacity:1.0000000;"
   d="M 12.747138,45.612982 C 12.674837,45.515374 11.416793,42.666703 13.809966,41.209833 C 16.203140,39.774653 17.923909,41.589415 17.996211,41.687021 C 18.068512,41.784628 16.087896,40.654153 14.223781,41.867336 C 12.300695,43.080518 12.819438,45.710588 12.747138,45.612982 z "
   id="path852"
   sodipodi:nodetypes="czzzz" />

  <path
   style="fill:url(#linearGradient679);fill-opacity:1.0000000;fill-rule:evenodd;stroke:none;stroke-width:1.0000000pt;stroke-linecap:butt;stroke-linejoin:miter;stroke-opacity:1.0000000;"
   d="M 26.986728,51.456458 C 26.914427,51.358851 25.656383,48.510180 28.049557,47.053310 C 30.442729,45.618129 32.163500,47.432890 32.235801,47.530498 C 32.308102,47.628104 30.327484,46.497629 28.463371,47.710812 C 26.540285,48.923995 27.059028,51.554064 26.986728,51.456458 z "
   id="path853"
   sodipodi:nodetypes="czzzz" />

  <path
   style="fill:url(#linearGradient679);fill-opacity:1.0000000;fill-rule:evenodd;stroke:none;stroke-width:1.0000000pt;stroke-linecap:butt;stroke-linejoin:miter;stroke-opacity:1.0000000;"
   d="M 41.261415,45.560300 C 41.189114,45.462693 39.931071,42.614022 42.324243,41.157152 C 44.717417,39.721971 46.438187,41.536734 46.510489,41.634340 C 46.582790,41.731946 44.602172,40.601472 42.738059,41.814655 C 40.814972,43.027837 41.333716,45.657907 41.261415,45.560300 z "
   id="path854"
   sodipodi:nodetypes="czzzz" />

  <path
   style="fill:url(#linearGradient679);fill-opacity:1.0000000;fill-rule:evenodd;stroke:none;stroke-width:1.0000000pt;stroke-linecap:butt;stroke-linejoin:miter;stroke-opacity:1.0000000;"
   d="M 47.099740,31.288839 C 47.027439,31.191232 45.769396,28.342560 48.162569,26.885691 C 50.555743,25.450510 52.276513,27.265272 52.348815,27.362879 C 52.421115,27.460485 50.440498,26.330011 48.576385,27.543194 C 46.653298,28.756377 47.172041,31.386445 47.099740,31.288839 z "
   id="path855"
   sodipodi:nodetypes="czzzz" />

  <path
   style="fill:url(#linearGradient679);fill-opacity:1.0000000;fill-rule:evenodd;stroke:none;stroke-width:1.0000000pt;stroke-linecap:butt;stroke-linejoin:miter;stroke-opacity:1.0000000;"
   d="M 41.202442,17.076351 C 41.130141,16.978744 39.872098,14.130073 42.265270,12.673203 C 44.658443,11.238021 46.379214,13.052784 46.451515,13.150391 C 46.523816,13.247997 44.543199,12.117522 42.679086,13.330706 C 40.755999,14.543888 41.274743,17.173956 41.202442,17.076351 z "
   id="path856"
   sodipodi:nodetypes="czzzz" />

  <path
   style="fill:url(#linearGradient679);fill-opacity:1.0000000;fill-rule:evenodd;stroke:none;stroke-width:1.0000000pt;stroke-linecap:butt;stroke-linejoin:miter;stroke-opacity:1.0000000;"
   d="M 26.989953,11.061105 C 26.917653,10.963499 25.659609,8.1148273 28.052782,6.6579565 C 30.445954,5.2227760 32.166725,7.0375381 32.239026,7.1351447 C 32.311327,7.2327513 30.330710,6.1022763 28.466596,7.3154591 C 26.543510,8.5286412 27.062254,11.158712 26.989953,11.061105 z "
   id="path857"
   sodipodi:nodetypes="czzzz" />

  <path
   style="fill:url(#linearGradient679);fill-opacity:1.0000000;fill-rule:evenodd;stroke:none;stroke-width:1.0000000pt;stroke-linecap:butt;stroke-linejoin:miter;stroke-opacity:1.0000000;"
   d="M 12.718491,17.017377 C 12.646191,16.919770 11.388148,14.071099 13.781320,12.614229 C 16.174492,11.179047 17.895263,12.993810 17.967564,13.091417 C 18.039866,13.189023 16.059249,12.058548 14.195136,13.271731 C 12.272048,14.484914 12.790792,17.114983 12.718491,17.017377 z "
   id="path858"
   sodipodi:nodetypes="czzzz" />

  <path
   style="fill:url(#linearGradient679);fill-opacity:1.0000000;fill-rule:evenodd;stroke:none;stroke-width:1.0000000pt;stroke-linecap:butt;stroke-linejoin:miter;stroke-opacity:1.0000000;"
   d="M 6.7032473,31.347811 C 6.6309461,31.250206 5.3729032,28.401534 7.7660760,26.944665 C 10.159249,25.509482 11.880019,27.324245 11.952321,27.421853 C 12.024622,27.519457 10.044005,26.388984 8.1798910,27.602167 C 6.2568044,28.815349 6.7755478,31.445418 6.7032473,31.347811 z "
   id="path859"
   sodipodi:nodetypes="czzzz" />

<metadata
   id="metadata76">
  <rdf:RDF
     id="RDF77">
    <cc:Work
       rdf:about=""
       id="Work78">
      <dc:format
         id="format79">image/svg+xml</dc:format>
      <dc:type
         id="type81"
         rdf:resource="http://purl.org/dc/dcmitype/StillImage" />
    </cc:Work>
  </rdf:RDF>
</metadata>
</svg>
