<?xml version="1.0" encoding="UTF-8" standalone="no"?>
<!DOCTYPE svg PUBLIC "-//W3C//DTD SVG 1.0//EN"
"http://www.w3.org/TR/2001/REC-SVG-20010904/DTD/svg10.dtd">
<!-- Created with Inkscape (http://www.inkscape.org/) -->
<svg
   xmlns="http://www.w3.org/2000/svg"
   xmlns:xlink="http://www.w3.org/1999/xlink"
   version="1.0"
   x="0.0000000"
   y="0.0000000"
   width="60.000000"
   height="60.000000"
   id="svg1">
  <defs
     id="defs3">
    <defs
       id="defs910">
      <linearGradient
         id="linearGradient1152">
        <stop
           style="stop-color:#ffffff;stop-opacity:1.0000000;"
           offset="0.0000000"
           id="stop1154" />
        <stop
           style="stop-color:#ffffff;stop-opacity:0.0000000;"
           offset="1.0000000"
           id="stop1153" />
      </linearGradient>
      <linearGradient
         id="linearGradient1149">
        <stop
           style="stop-color:#ffffff;stop-opacity:1.0000000;"
           offset="0.0000000"
           id="stop1151" />
        <stop
           style="stop-color:#ffffff;stop-opacity:0.0000000;"
           offset="1.0000000"
           id="stop1150" />
      </linearGradient>
      <linearGradient
         id="linearGradient1146">
        <stop
           style="stop-color:#ffffff;stop-opacity:1.0000000;"
           offset="0.0000000"
           id="stop1148" />
        <stop
           style="stop-color:#d9cce6;stop-opacity:1.0000000;"
           offset="1.0000000"
           id="stop1147" />
      </linearGradient>
      <linearGradient
         id="linearGradient778">
        <stop
           style="stop-color:#d9cce6;stop-opacity:1.0000000;"
           offset="0.0000000"
           id="stop780" />
        <stop
           style="stop-color:#73667f;stop-opacity:1.0000000;"
           offset="1.0000000"
           id="stop779" />
      </linearGradient>
      <linearGradient
         id="linearGradient570">
        <stop
           style="stop-color:#ffffff;stop-opacity:1.0000000;"
           offset="0.0000000"
           id="stop571" />
        <stop
           style="stop-color:#ffffff;stop-opacity:0.0000000;"
           offset="1.0000000"
           id="stop572" />
      </linearGradient>
      <linearGradient
         id="linearGradient563">
        <stop
           style="stop-color:#cac5fa;stop-opacity:1.0000000;"
           offset="0.0000000"
           id="stop564" />
        <stop
           style="stop-color:#9500ed;stop-opacity:1.0000000;"
           offset="1.0000000"
           id="stop565" />
      </linearGradient>
      <linearGradient
         x1="0.025423730"
         y1="0.0078125000"
         x2="0.97457629"
         y2="0.98437500"
         id="linearGradient566"
         xlink:href="#linearGradient778" />
      <linearGradient
         x1="4.9999999e-06"
         y1="6.0000002e-06"
         x2="0.98181802"
         y2="0.85000098"
         id="linearGradient569"
         xlink:href="#linearGradient570" />
      <linearGradient
         x1="0.0077519999"
         y1="0.015627000"
         x2="0.97674400"
         y2="0.99218798"
         id="linearGradient573"
         xlink:href="#linearGradient570" />
      <linearGradient
         x1="-0.14634500"
         y1="2.0000000e-06"
         x2="0.97561002"
         y2="0.70312500"
         id="linearGradient575"
         xlink:href="#linearGradient570" />
      <linearGradient
         x1="0.0052083302"
         y1="0.031250071"
         x2="1.0052083"
         y2="0.98437488"
         id="linearGradient578"
         xlink:href="#linearGradient778" />
      <linearGradient
         x1="0.018433999"
         y1="0.031280000"
         x2="1.0092170"
         y2="1.0078130"
         id="linearGradient583"
         xlink:href="#linearGradient570" />
      <linearGradient
         x1="0.0083333300"
         y1="0.0078125000"
         x2="0.98333329"
         y2="0.96875006"
         id="linearGradient637"
         xlink:href="#linearGradient778" />
      <linearGradient
         x1="0.033783779"
         y1="0.025806449"
         x2="0.98648649"
         y2="0.95483869"
         id="linearGradient640"
         xlink:href="#linearGradient1146" />
      <linearGradient
         x1="0.010877000"
         y1="0.038449001"
         x2="0.98909003"
         y2="0.98717701"
         id="linearGradient645"
         xlink:href="#linearGradient570" />
      <linearGradient
         x1="0.056577999"
         y1="0.023450000"
         x2="0.86792302"
         y2="0.97656298"
         id="linearGradient646"
         xlink:href="#linearGradient570" />
      <linearGradient
         x1="7.0000001e-06"
         y1="0.0000000"
         x2="0.95180702"
         y2="0.98437500"
         id="linearGradient647"
         xlink:href="#linearGradient570" />
      <linearGradient
         x1="0.056605000"
         y1="0.015625000"
         x2="0.94339597"
         y2="0.98437500"
         id="linearGradient675"
         xlink:href="#linearGradient570" />
      <linearGradient
         x1="0.011765000"
         y1="-0.0000000"
         x2="1.0117650"
         y2="1.0156250"
         id="linearGradient676"
         xlink:href="#linearGradient570" />
      <defs
         id="defs613">
        <linearGradient
           x1="0.0000000"
           y1="0.0000000"
           x2="1.0000000"
           y2="0.0000000"
           id="linearGradient1535"
           xlink:href="#linearGradient1149"
           gradientUnits="objectBoundingBox"
           spreadMethod="pad" />
        <linearGradient
           x1="0.0000000"
           y1="0.0000000"
           x2="1.0000000"
           y2="0.0000000"
           id="linearGradient1528"
           xlink:href="#linearGradient778"
           gradientUnits="objectBoundingBox"
           spreadMethod="pad" />
        <linearGradient
           x1="0.0000000"
           y1="0.0000000"
           x2="1.0000000"
           y2="0.0000000"
           id="linearGradient642"
           xlink:href="#linearGradient1152"
           gradientUnits="objectBoundingBox"
           spreadMethod="pad" />
        <linearGradient
           x1="0.0000000"
           y1="0.0000000"
           x2="1.0000000"
           y2="0.0000000"
           id="linearGradient635"
           xlink:href="#linearGradient1146"
           gradientUnits="objectBoundingBox"
           spreadMethod="pad" />
        <linearGradient
           x1="0.98400003"
           y1="0.96093798"
           x2="-0.0080000004"
           y2="0.0078130001"
           id="linearGradient638"
           xlink:href="#linearGradient1528" />
        <linearGradient
           x1="0.027523000"
           y1="0.023437999"
           x2="1.0000000"
           y2="1.0156250"
           id="linearGradient641"
           xlink:href="#linearGradient642" />
        <linearGradient
           x1="-9.0000003e-06"
           y1="0.015624000"
           x2="0.72727197"
           y2="0.98437500"
           id="linearGradient1522"
           xlink:href="#linearGradient642" />
        <linearGradient
           x1="0.027523000"
           y1="0.0078130001"
           x2="1.0091740"
           y2="0.99218798"
           id="linearGradient1527"
           xlink:href="#linearGradient1535" />
        <linearGradient
           x1="0.010743000"
           y1="0.031250998"
           x2="0.96774101"
           y2="0.99218702"
           id="linearGradient1532"
           xlink:href="#linearGradient635" />
        <linearGradient
           x1="0.0072750002"
           y1="-0.012819000"
           x2="0.99636400"
           y2="0.97435898"
           id="linearGradient1534"
           xlink:href="#linearGradient635" />
        <linearGradient
           x1="0.017093999"
           y1="0.0000000"
           x2="0.97435898"
           y2="0.98437500"
           id="linearGradient1539"
           xlink:href="#linearGradient1535" />
        <linearGradient
           id="linearGradient1567"
           xlink:href="#linearGradient1535" />
      </defs>
    </defs>
  </defs>
  <g
     id="g982">
    <path
       d="M 5.5924086,46.622814 C 6.0354871,46.916817 7.9182691,47.717692 8.8501214,47.517944 C 9.6297314,47.265791 36.540642,38.477514 37.202847,37.445675 C 37.895516,36.318977 37.001366,14.396695 36.183148,13.652978 C 35.300385,12.842829 6.6255295,9.9530992 5.7438214,9.9271750 C 4.9447569,9.8266303 2.9946384,10.515084 2.6182932,10.933731 C 1.8692296,11.758358 4.7667262,46.016937 5.5924086,46.622814 z "
       transform="matrix(1.273265,0.000000,0.000000,1.273265,4.726126,-10.98601)"
       style="font-size:12.000000;opacity:0.29999998;fill-rule:evenodd;stroke-width:12.500000"
       id="path839" />
    <path
       d="M 24.696135,13.561914 C 24.671590,13.439098 31.242687,11.307597 34.163335,11.342980 C 39.378467,11.406161 49.078741,13.733627 49.103572,13.857686 C 49.128020,13.980120 39.148272,12.755031 33.972064,12.692328 C 31.012491,12.656467 24.720869,13.685688 24.696135,13.561914 z "
       style="font-size:12.000000;opacity:0.69999999;fill:url(#linearGradient569);fill-rule:evenodd;stroke:none;stroke-width:0.095874798pt"
       id="path680" />
    <path
       d="M 22.912118,38.451291 C 18.554460,38.646790 8.2111406,46.874614 9.9804795,49.928107 C 10.553985,51.017390 15.962475,55.443043 22.427247,55.424184 C 28.121652,55.407107 34.501350,50.503289 35.197226,48.796602 C 35.661353,47.423394 26.959973,38.269622 22.912118,38.451291 z "
       transform="matrix(1.273265,0.000000,0.000000,1.273265,4.726126,-10.98601)"
       style="font-size:12.000000;opacity:0.29636899;fill-rule:evenodd;stroke-width:12.500000"
       id="path748" />
    <path
       d="M 229.89000,398.19600 C 188.29700,400.06200 89.572500,478.59500 106.46000,507.74000 C 111.93400,518.13700 163.55700,560.37900 225.26200,560.19900 C 279.61400,560.03600 340.50700,513.23000 347.14900,496.94000 C 351.57900,483.83300 268.52600,396.46200 229.89000,398.19600 z "
       transform="matrix(0.122074,0.000000,0.000000,0.122074,5.093713,-11.06232)"
       style="font-size:12.000000;fill:url(#linearGradient578);fill-rule:evenodd;stroke:#261933;stroke-width:19.556700;stroke-opacity:1.0000000"
       id="path746" />
    <path
       d="M 123.43100,496.94000 C 123.43100,494.27600 161.94300,436.41100 225.26200,413.62500 C 237.54600,409.40100 265.37700,427.92000 265.37700,430.59600 C 265.37700,433.06300 237.81400,426.07700 225.26200,429.05300 C 166.49000,444.16200 123.43100,499.41800 123.43100,496.94000 z "
       transform="matrix(0.122074,0.000000,0.000000,0.122074,5.093713,-11.06232)"
       style="font-size:12.000000;opacity:0.69999999;fill:url(#linearGradient583);fill-rule:evenodd;stroke:none;stroke-width:1.0000000pt"
       id="path747" />
    <path
       d="M 117.08800,552.85600 C 122.96700,556.75400 147.93300,567.37400 160.29200,564.72700 C 170.63300,561.38200 527.51700,444.83400 536.29800,431.15000 C 545.48400,416.20800 533.62700,125.48000 522.77600,115.61600 C 511.07000,104.87300 130.78900,66.550700 119.09700,66.206600 C 108.50000,64.873200 82.638500,74.002600 77.646900,79.554700 C 67.713300,90.491000 106.13800,544.82100 117.08800,552.85600 z "
       transform="matrix(9.057348e-2,0.000000,0.000000,9.057348e-2,1.084715,-4.083900)"
       style="font-size:12.000000;fill:url(#linearGradient637);fill-rule:evenodd;stroke:#261933;stroke-width:26.358400;stroke-opacity:1.0000000"
       id="path834" />
    <path
       d="M 153.15000,544.96700 C 150.08000,541.89700 113.19100,94.291000 118.21600,81.808600 C 121.29900,78.078300 506.17400,121.55200 509.25200,124.63000 C 512.18300,127.56300 152.59300,80.627800 137.37500,103.22000 C 120.85500,126.61500 156.08900,547.90600 153.15000,544.96700 z "
       transform="matrix(9.057348e-2,0.000000,0.000000,9.057348e-2,1.084715,-4.083900)"
       style="font-size:12.000000;opacity:0.69999999;fill:url(#linearGradient641);fill-rule:evenodd;stroke:none;stroke-width:1.0329400pt"
       id="path835" />
    <path
       d="M 124.97800,538.20600 C 123.83800,536.49500 90.535000,231.86100 88.916300,88.569700 C 88.819200,83.480700 107.91300,79.879000 109.20000,81.808600 C 110.16700,83.259600 95.600500,94.761700 95.677900,98.711800 C 97.355500,242.01500 126.09100,539.87600 124.97800,538.20600 z "
       transform="matrix(9.057348e-2,0.000000,0.000000,9.057348e-2,1.084715,-4.083900)"
       style="font-size:12.000000;opacity:0.69993597;fill:url(#linearGradient1522);fill-rule:evenodd;stroke:none;stroke-width:1.0329400pt"
       id="path836" />
    <path
       d="M 160.94900,125.66400 C 154.87500,133.39600 172.70700,492.86600 181.95700,499.60200 C 191.50900,505.79400 491.68400,409.59600 499.17300,399.81600 C 506.23600,391.64200 496.57600,162.37100 491.82100,154.02600 C 485.70100,145.12800 167.58400,118.27000 160.94900,125.66400 z "
       transform="matrix(9.057348e-2,0.000000,0.000000,9.057348e-2,1.084715,-4.083900)"
       style="font-size:12.000000;fill:#261933;fill-opacity:1.0000000;fill-rule:evenodd;stroke:#261933;stroke-width:6.5017400;stroke-opacity:1.0000000"
       id="path837" />
    <path
       d="M 186.15800,479.64500 C 183.82500,476.77100 162.61500,145.00800 168.30300,137.21900 C 175.83100,128.34600 457.97500,155.35600 460.30800,158.22700 C 462.52800,160.95600 204.60500,132.16000 181.95700,154.02500 C 166.52000,168.95000 188.37600,482.37300 186.15800,479.64500 z "
       transform="matrix(9.057348e-2,0.000000,0.000000,9.057348e-2,1.084715,-4.083900)"
       style="font-size:12.000000;opacity:0.69993597;fill:url(#linearGradient1527);fill-rule:evenodd;stroke:none;stroke-width:0.96279802pt"
       id="path838" />
    <path
       d="M 12.067538,30.132436 L 16.257003,28.844204 L 18.173767,20.635024 L 20.587672,35.617401 L 21.418904,26.078331 L 31.155047,23.084531"
       transform="matrix(1.273265,0.000000,0.000000,1.273265,4.726126,-10.98601)"
       style="fill:none;fill-opacity:1.00000000;fill-rule:evenodd;stroke:#cbcbcb;stroke-width:0.87773809pt;stroke-linecap:round;stroke-linejoin:round;stroke-opacity:1.0000000"
       id="path1674" />
  </g>
</svg>
