<?xml version="1.0" encoding="UTF-8" standalone="no"?>
<!DOCTYPE svg PUBLIC "-//W3C//DTD SVG 20010904//EN"
"http://www.w3.org/TR/2001/REC-SVG-20010904/DTD/svg10.dtd">
<!-- Created with Inkscape (http://www.inkscape.org/) -->
<svg
   width="48pt"
   height="48pt"
   id="svg2735"
   sodipodi:version="0.32"
   inkscape:version="0.40"
   sodipodi:docbase="/home/pinuz/lila-inkscape/icon theme"
   sodipodi:docname="realplay.svg"
   xmlns="http://www.w3.org/2000/svg"
   xmlns:cc="http://web.resource.org/cc/"
   xmlns:inkscape="http://www.inkscape.org/namespaces/inkscape"
   xmlns:sodipodi="http://sodipodi.sourceforge.net/DTD/sodipodi-0.dtd"
   xmlns:rdf="http://www.w3.org/1999/02/22-rdf-syntax-ns#"
   xmlns:dc="http://purl.org/dc/elements/1.1/"
   xmlns:xlink="http://www.w3.org/1999/xlink">
  <defs
     id="defs3">
    <linearGradient
       id="linearGradient3414">
      <stop
         style="stop-color:#ffffff;stop-opacity:1.0000000;"
         offset="0.0000000"
         id="stop3415" />
      <stop
         style="stop-color:#ffffff;stop-opacity:0.0000000;"
         offset="1.0000000"
         id="stop3416" />
    </linearGradient>
    <linearGradient
       id="linearGradient3397">
      <stop
         style="stop-color:#ffffff;stop-opacity:1.0000000;"
         offset="0.0000000"
         id="stop3398" />
      <stop
         style="stop-color:#d9cce6;stop-opacity:1.0000000;"
         offset="1.0000000"
         id="stop3399" />
    </linearGradient>
    <linearGradient
       id="linearGradient3392">
      <stop
         style="stop-color:#d9cce6;stop-opacity:1.0000000;"
         offset="0.0000000"
         id="stop3393" />
      <stop
         style="stop-color:#73667f;stop-opacity:1.0000000;"
         offset="1.0000000"
         id="stop3394" />
    </linearGradient>
    <linearGradient
       inkscape:collect="always"
       xlink:href="#linearGradient3392"
       id="linearGradient3395"
       gradientTransform="scale(1.105293,0.904737)"
       x1="9.9828625"
       y1="11.063726"
       x2="38.205387"
       y2="46.586163"
       gradientUnits="userSpaceOnUse" />
    <linearGradient
       inkscape:collect="always"
       xlink:href="#linearGradient3397"
       id="linearGradient3400"
       gradientTransform="matrix(1.304875,0.000000,0.000000,1.033369,-5.401330,-5.419502)"
       x1="13.032163"
       y1="16.689814"
       x2="36.678867"
       y2="38.833889"
       gradientUnits="userSpaceOnUse" />
    <linearGradient
       inkscape:collect="always"
       xlink:href="#linearGradient3392"
       id="linearGradient3404"
       gradientTransform="matrix(1.203424,0.000000,0.000000,0.988781,-2.458488,-4.156636)"
       x1="20.508265"
       y1="28.434414"
       x2="37.985611"
       y2="28.434414"
       gradientUnits="userSpaceOnUse" />
    <linearGradient
       inkscape:collect="always"
       xlink:href="#linearGradient3392"
       id="linearGradient3412"
       gradientUnits="userSpaceOnUse"
       gradientTransform="matrix(1.283481,0.000000,0.000000,1.050593,-5.401330,-5.419502)"
       x1="9.9828625"
       y1="11.063726"
       x2="38.205387"
       y2="46.586163" />
    <linearGradient
       inkscape:collect="always"
       xlink:href="#linearGradient3414"
       id="linearGradient3421"
       gradientTransform="scale(1.764892,0.566607)"
       x1="-5.3388405"
       y1="37.674553"
       x2="33.237923"
       y2="1.1146827"
       gradientUnits="userSpaceOnUse" />
    <linearGradient
       inkscape:collect="always"
       xlink:href="#linearGradient3414"
       id="linearGradient3381"
       gradientTransform="scale(0.580160,1.723663)"
       x1="31.079140"
       y1="10.680266"
       x2="57.341888"
       y2="15.124421"
       gradientUnits="userSpaceOnUse" />
  </defs>
  <sodipodi:namedview
     id="base"
     pagecolor="#ffffff"
     bordercolor="#666666"
     borderopacity="1.0"
     inkscape:pageopacity="0.0"
     inkscape:pageshadow="2"
     inkscape:zoom="3.9375000"
     inkscape:cx="22.500000"
     inkscape:cy="12.000000"
     inkscape:current-layer="svg2735"
     showgrid="false"
     inkscape:grid-bbox="false"
     gridspacingy="1.0000000pt"
     gridspacingx="1.0000000pt"
     gridoriginy="0.0000000pt"
     gridoriginx="0.0000000pt"
     inkscape:window-width="640"
     inkscape:window-height="542"
     inkscape:window-x="179"
     inkscape:window-y="334" />
  <metadata
     id="metadata4">
    <rdf:RDF
       id="RDF5">
      <cc:Work
         rdf:about=""
         id="Work6">
        <dc:format
           id="format7">image/svg+xml</dc:format>
        <dc:type
           id="type9"
           rdf:resource="http://purl.org/dc/dcmitype/StillImage" />
      </cc:Work>
    </rdf:RDF>
  </metadata>
  <g
     id="layer1"
     inkscape:label="Layer 1"
     inkscape:groupmode="layer" />
  <path
     style="opacity:0.30208334;fill:#000000;fill-opacity:1.0000000;stroke:none;stroke-width:1.3124995;stroke-linecap:round;stroke-linejoin:round;stroke-miterlimit:4.0000000;stroke-opacity:1.0000000;"
     d="M 59.191531,27.239638 C 59.191531,32.033921 55.558344,40.368237 26.616484,54.398691 C 21.307930,56.972175 32.692385,44.247343 29.435086,44.247343 C 14.755705,43.521584 4.3960732,36.465321 4.0331940,27.239638 C 4.0331940,17.651078 16.388662,9.8690552 31.612362,9.8690552 C 50.646296,10.231934 59.191531,17.651078 59.191531,27.239638 z "
     id="path3407"
     sodipodi:nodetypes="cscccc" />
  <path
     style="fill:url(#linearGradient3412);fill-opacity:1.0000000;stroke:#261933;stroke-width:1.2500000;stroke-linecap:round;stroke-linejoin:round;stroke-miterlimit:4.0000000;stroke-opacity:1.0000000;stroke-dasharray:none;"
     d="M 56.288497,24.336605 C 56.288497,29.130886 52.655309,37.465202 23.713449,51.495656 C 18.404896,54.069140 29.789352,41.344309 26.532052,41.344309 C 11.852670,40.618549 1.4930390,33.562288 1.1301598,24.336605 C 1.1301598,14.748043 13.485628,6.9660210 28.709328,6.9660210 C 47.743261,7.3289001 56.288497,14.748043 56.288497,24.336605 z "
     id="path2747"
     sodipodi:nodetypes="cscccc" />
  <path
     style="fill:url(#linearGradient3400);fill-opacity:1.0000000;stroke:#261933;stroke-width:1.2500000;stroke-linecap:round;stroke-linejoin:round;stroke-miterlimit:4.0000000;stroke-opacity:1.0000000;stroke-dasharray:none;"
     d="M 51.993405,24.115858 C 51.993405,27.650488 51.854961,32.706404 30.517302,43.050486 C 26.603521,44.947814 32.456663,36.654949 30.055187,36.654949 C 19.232676,36.119876 11.594940,30.917580 11.327405,24.115858 C 11.327405,17.046602 20.436589,11.309233 31.660406,11.309233 C 45.693351,11.576769 51.993405,17.046602 51.993405,24.115858 z "
     id="path3370"
     sodipodi:nodetypes="cscccc" />
  <path
     style="fill:url(#linearGradient3404);fill-opacity:1.0000000;fill-rule:evenodd;stroke:#261933;stroke-width:1.2500000;stroke-linecap:round;stroke-linejoin:round;stroke-miterlimit:4.0000000;stroke-opacity:1.0000000;stroke-dasharray:none;"
     d="M 22.937538,31.806863 C 25.091976,26.791867 26.625964,21.699316 27.539503,16.296539 C 29.812077,15.986314 32.007097,15.908760 34.357227,16.296539 C 34.124559,17.128013 34.047003,17.959487 34.357227,19.023628 C 35.576482,18.269712 36.563069,17.283125 37.084318,16.296539 C 38.902377,15.986314 40.797993,15.908760 42.538497,16.296539 C 42.094804,18.347268 41.263329,20.010214 39.733851,21.518050 C 37.838234,21.130270 35.787507,21.750719 34.202115,22.138498 C 32.905306,24.921501 31.996275,27.859617 31.552581,31.883516 C 28.655047,31.599446 25.757515,31.548042 22.937538,31.806863 z "
     id="path3374"
     sodipodi:nodetypes="cccccccccc" />
  <path
     style="fill:url(#linearGradient3421);fill-opacity:1.0;fill-rule:evenodd;stroke:none;stroke-width:0.25000000pt;stroke-linecap:butt;stroke-linejoin:miter;stroke-opacity:1.0000000;"
     d="M 34.848394,8.6102743 C 32.874927,8.1304073 17.903797,6.6517475 7.3163900,14.681026 C 5.0543827,16.396487 7.5866301,17.748626 8.2850085,17.197243 C 21.341920,6.8885688 37.665183,9.2952031 34.848394,8.6102743 z "
     id="path3413"
     sodipodi:nodetypes="csss" />
  <path
     style="fill:url(#linearGradient3381);fill-opacity:1.0;fill-rule:evenodd;stroke:none;stroke-width:0.25000000pt;stroke-linecap:butt;stroke-linejoin:miter;stroke-opacity:1.0000000;"
     d="M 28.655239,17.245599 C 28.689558,19.331240 26.044283,26.166365 24.738805,30.626748 C 26.240105,26.558009 29.849768,19.173951 29.631434,18.284927 C 29.584465,17.762735 29.242704,17.441421 28.655239,17.245599 z "
     id="path2756"
     sodipodi:nodetypes="cccc" />
</svg>
