<?xml version="1.0" encoding="UTF-8" standalone="no"?>
<!DOCTYPE svg PUBLIC "-//W3C//DTD SVG 20010904//EN"
"http://www.w3.org/TR/2001/REC-SVG-20010904/DTD/svg10.dtd">
<!-- Created with Inkscape (http://www.inkscape.org/) -->
<svg
   id="svg953"
   sodipodi:version="0.32"
   inkscape:version="0.38.1"
   width="48.000000pt"
   height="48.000000pt"
   sodipodi:docbase="/home/dan/svg-icons/lila/gnome/scalable/apps"
   sodipodi:docname="samba.svg"
   xmlns="http://www.w3.org/2000/svg"
   xmlns:inkscape="http://www.inkscape.org/namespaces/inkscape"
   xmlns:sodipodi="http://sodipodi.sourceforge.net/DTD/sodipodi-0.dtd"
   xmlns:xlink="http://www.w3.org/1999/xlink">
  <defs
     id="defs955">
    <linearGradient
       id="linearGradient1107">
      <stop
         style="stop-color:#d7a600;stop-opacity:1.0000000;"
         offset="0.0000000"
         id="stop1108" />
      <stop
         style="stop-color:#fff300;stop-opacity:1.0000000;"
         offset="1.0000000"
         id="stop1109" />
    </linearGradient>
    <linearGradient
       id="linearGradient1065">
      <stop
         style="stop-color:#00ff00;stop-opacity:1.0000000;"
         offset="0.0000000"
         id="stop1066" />
      <stop
         style="stop-color:#008700;stop-opacity:1.0000000;"
         offset="1.0000000"
         id="stop1067" />
    </linearGradient>
    <linearGradient
       id="linearGradient1059">
      <stop
         style="stop-color:#0000ff;stop-opacity:1.0000000;"
         offset="0.0000000"
         id="stop1060" />
      <stop
         style="stop-color:#00007f;stop-opacity:1.0000000;"
         offset="1.0000000"
         id="stop1061" />
    </linearGradient>
    <linearGradient
       id="linearGradient964">
      <stop
         style="stop-color:#ffffff;stop-opacity:1.0000000;"
         offset="0.0000000"
         id="stop965" />
      <stop
         style="stop-color:#ffffff;stop-opacity:0.0000000;"
         offset="1.0000000"
         id="stop966" />
    </linearGradient>
    <linearGradient
       id="linearGradient958">
      <stop
         style="stop-color:#f50000;stop-opacity:1.0000000;"
         offset="0.0000000"
         id="stop959" />
      <stop
         style="stop-color:#a80000;stop-opacity:1.0000000;"
         offset="1.0000000"
         id="stop960" />
    </linearGradient>
    <linearGradient
       xlink:href="#linearGradient958"
       id="linearGradient961"
       x1="0.0071428572"
       y1="0.023437500"
       x2="0.98571426"
       y2="0.99218750" />
    <linearGradient
       xlink:href="#linearGradient964"
       id="linearGradient963"
       x1="-0.0064935065"
       y1="0.031250000"
       x2="0.55844158"
       y2="0.50781250" />
    <linearGradient
       xlink:href="#linearGradient1059"
       id="linearGradient1062"
       x1="0.0071428572"
       y1="0.023437500"
       x2="0.98571426"
       y2="0.99218750" />
    <linearGradient
       xlink:href="#linearGradient1065"
       id="linearGradient1064"
       x1="0.0071428572"
       y1="0.023437500"
       x2="0.98571426"
       y2="0.99218750" />
    <linearGradient
       xlink:href="#linearGradient964"
       id="linearGradient1071"
       x1="0.98305082"
       y1="0.99218750"
       x2="0.65254235"
       y2="0.63281250" />
    <linearGradient
       xlink:href="#linearGradient1107"
       id="linearGradient1110"
       x1="0.0071428572"
       y1="0.023437500"
       x2="0.98571426"
       y2="0.99218750" />
    <linearGradient
       xlink:href="#linearGradient964"
       id="linearGradient862"
       x1="-0.11538462"
       y1="-1.8333859e-16"
       x2="0.39743590"
       y2="0.54687500" />
    <linearGradient
       xlink:href="#linearGradient964"
       id="linearGradient868"
       x1="1.0897436"
       y1="1.0625000"
       x2="0.55128205"
       y2="0.45312500" />
  </defs>
  <sodipodi:namedview
     id="base"
     pagecolor="#ffffff"
     bordercolor="#666666"
     borderopacity="1.0"
     inkscape:pageopacity="0.0"
     inkscape:pageshadow="2"
     inkscape:zoom="5.6718750"
     inkscape:cx="25.367144"
     inkscape:cy="23.026429"
     inkscape:window-width="668"
     inkscape:window-height="525"
     inkscape:window-x="71"
     inkscape:window-y="274" />
  <g
     id="g1040"
     style="opacity:0.30000000;"
     transform="translate(1.480442,2.103786)">
    <path
       style="fill:#000000;fill-opacity:1.0000000;fill-rule:evenodd;stroke:none;stroke-width:1.8750000;stroke-dasharray:none;"
       d="M 10.420991,7.4518677 C 8.8072103,14.893187 8.4037654,18.031092 6.6555032,27.624116 C 12.079598,23.589667 21.538141,23.724149 28.979458,27.624116 C 30.593238,18.569019 31.265647,15.700077 32.744945,7.4518677 C 26.244998,2.4760464 16.248529,2.6105279 10.420991,7.4518677 z "
       id="path1036"
       sodipodi:nodetypes="ccccc" />
    <path
       style="fill:#000000;fill-opacity:1.0000000;fill-rule:evenodd;stroke:none;stroke-width:1.8750000;stroke-dasharray:none;"
       d="M 6.1741408,31.263390 C 4.5603610,38.704709 4.1569162,41.842613 2.4086547,51.435637 C 7.8327472,47.401187 17.291292,47.535669 24.732610,51.435637 C 26.346389,42.380539 27.018798,39.511599 28.498096,31.263390 C 21.998149,26.287569 12.001680,26.422050 6.1741408,31.263390 z "
       id="path1037"
       sodipodi:nodetypes="ccccc" />
    <path
       style="fill:#000000;fill-opacity:1.0000000;fill-rule:evenodd;stroke:none;stroke-width:1.8750000;stroke-dasharray:none;"
       d="M 54.428495,29.110432 C 56.042274,21.669114 56.445719,18.531209 58.193981,8.9381846 C 52.769887,12.972634 43.311345,12.838152 35.870027,8.9381846 C 34.256247,17.993282 33.583838,20.862224 32.104540,29.110432 C 38.604487,34.086253 48.600956,33.951772 54.428495,29.110432 z "
       id="path1038"
       sodipodi:nodetypes="ccccc" />
    <path
       style="fill:#000000;fill-opacity:1.0000000;fill-rule:evenodd;stroke:none;stroke-width:1.8750000;stroke-dasharray:none;stroke-opacity:1.0000000;"
       d="M 50.064499,52.987700 C 51.678278,45.546381 52.081723,42.408476 53.829985,32.815453 C 48.405891,36.849902 38.947349,36.715419 31.506031,32.815453 C 29.892252,41.870550 29.219843,44.739491 27.740545,52.987700 C 34.240491,57.963520 44.236960,57.829040 50.064499,52.987700 z "
       id="path1039"
       sodipodi:nodetypes="ccccc" />
  </g>
  <path
     style="fill:url(#linearGradient961);fill-rule:evenodd;stroke:#330000;stroke-width:1.8750000;stroke-dasharray:none;stroke-linejoin:round;stroke-linecap:round;"
     d="M 10.109319,7.4518677 C 8.4955379,14.893187 8.0920930,18.031092 6.3438308,27.624116 C 11.767926,23.589667 21.226469,23.724149 28.667786,27.624116 C 30.281566,18.569019 30.953975,15.700077 32.433273,7.4518677 C 25.933326,2.4760464 15.936857,2.6105279 10.109319,7.4518677 z "
     id="path957"
     sodipodi:nodetypes="ccccc" />
  <path
     style="fill:url(#linearGradient963);fill-rule:evenodd;stroke:none;stroke-opacity:1;stroke-width:1pt;stroke-linejoin:miter;stroke-linecap:butt;"
     d="M 25.574709,5.9725696 C 25.283331,5.6363651 18.605827,2.8484370 11.992062,7.8553126 C 10.541946,8.9236191 8.7608492,17.790352 8.6300196,22.379332 C 8.6340056,27.388479 8.6004146,12.969189 14.278250,8.7966842 C 20.225616,4.3200787 25.866085,6.3087733 25.574709,5.9725696 z "
     id="path962"
     sodipodi:nodetypes="cssss" />
  <path
     style="fill:url(#linearGradient1062);fill-rule:evenodd;stroke:#010033;stroke-width:1.8750000;stroke-dasharray:none;stroke-linejoin:round;stroke-linecap:round;"
     d="M 5.8624684,31.263390 C 4.2486886,38.704709 3.8452438,41.842613 2.0969823,51.435637 C 7.5210748,47.401187 16.979620,47.535669 24.420938,51.435637 C 26.034717,42.380539 26.707126,39.511599 28.186424,31.263390 C 21.686477,26.287569 11.690008,26.422050 5.8624684,31.263390 z "
     id="path968"
     sodipodi:nodetypes="ccccc" />
  <path
     style="fill:url(#linearGradient963);fill-rule:evenodd;stroke:none;stroke-opacity:1;stroke-width:1pt;stroke-linejoin:miter;stroke-linecap:butt;"
     d="M 21.327859,29.784092 C 21.036482,29.447888 14.358977,26.659960 7.7452108,31.666835 C 6.2950963,32.735142 4.5140004,41.601873 4.3831706,46.190853 C 4.3871558,51.200000 4.3535656,36.780710 10.031401,32.608207 C 15.978766,28.131601 21.619236,30.120296 21.327859,29.784092 z "
     id="path969"
     sodipodi:nodetypes="cssss" />
  <path
     style="fill:url(#linearGradient1064);fill-rule:evenodd;stroke:#003300;stroke-width:1.8750000;stroke-dasharray:none;stroke-linejoin:round;"
     d="M 54.116823,29.110432 C 55.730602,21.669114 56.134047,18.531209 57.882309,8.9381846 C 52.458215,12.972634 42.999673,12.838152 35.558355,8.9381846 C 33.944575,17.993282 33.272166,20.862224 31.792868,29.110432 C 38.292815,34.086253 48.289284,33.951772 54.116823,29.110432 z "
     id="path1063"
     sodipodi:nodetypes="ccccc" />
  <path
     style="fill:url(#linearGradient862);fill-rule:evenodd;stroke:none;stroke-opacity:1.0000000;stroke-width:1pt;stroke-linejoin:miter;stroke-linecap:butt;"
     d="M 34.124583,24.476654 C 35.541345,16.555424 35.792697,10.737955 37.777850,11.355955 C 47.241359,14.362857 48.185151,12.706663 51.322382,13.298084 C 44.594826,14.292308 43.312558,14.141474 38.312859,13.205984 C 36.599623,12.889274 33.996507,29.546995 34.124583,24.476654 z "
     id="path1069"
     sodipodi:nodetypes="cscsc" />
  <path
     style="fill:url(#linearGradient1110);fill-rule:evenodd;stroke:#333300;stroke-width:1.8750000;stroke-dasharray:none;stroke-opacity:1.0000000;stroke-linejoin:round;stroke-linecap:round;"
     d="M 49.752827,52.987700 C 51.366606,45.546381 51.770051,42.408476 53.518313,32.815453 C 48.094219,36.849902 38.635677,36.715419 31.194359,32.815453 C 29.580580,41.870550 28.908171,44.739491 27.428873,52.987700 C 33.928819,57.963520 43.925288,57.829040 49.752827,52.987700 z "
     id="path1072"
     sodipodi:nodetypes="ccccc" />
  <path
     style="fill:url(#linearGradient862);fill-rule:evenodd;stroke:none;stroke-opacity:1.0000000;stroke-width:1pt;stroke-linejoin:miter;stroke-linecap:butt;"
     d="M 29.822365,48.334030 C 31.239127,40.412800 31.490480,34.595331 33.475633,35.213332 C 42.939141,38.220233 43.882933,36.564040 47.020164,37.155460 C 40.292608,38.149685 39.010340,37.998851 34.010641,37.063361 C 32.297405,36.746651 29.694289,53.404372 29.822365,48.334030 z "
     id="path864"
     sodipodi:nodetypes="cscsc" />
  <path
     style="fill:url(#linearGradient1071);fill-rule:evenodd;stroke:none;stroke-opacity:1;stroke-width:1pt;stroke-linejoin:miter;stroke-linecap:butt;opacity:0.50000000;"
     d="M 38.485813,30.507262 C 38.777190,30.843467 45.454695,33.631395 52.068460,28.624519 C 53.518575,27.556213 55.299671,18.689481 55.430501,14.100501 C 55.426515,9.0913533 55.460106,23.510644 49.782271,27.683148 C 43.834906,32.159753 38.194436,30.171058 38.485813,30.507262 z "
     id="path865"
     sodipodi:nodetypes="cssss" />
  <path
     style="fill:url(#linearGradient1071);fill-rule:evenodd;stroke:none;stroke-opacity:1;stroke-width:1pt;stroke-linejoin:miter;stroke-linecap:butt;opacity:0.71649485;"
     d="M 34.154724,54.428504 C 34.446102,54.764708 41.123606,57.552636 47.737371,52.545761 C 49.187486,51.477454 50.968583,42.610723 51.099412,38.021743 C 51.095426,33.012595 51.129017,47.431885 45.451182,51.604389 C 39.503817,56.080994 33.863348,54.092300 34.154724,54.428504 z "
     id="path866"
     sodipodi:nodetypes="cssss" />
  <path
     style="fill:url(#linearGradient868);fill-rule:evenodd;stroke:none;stroke-opacity:1.0000000;stroke-width:1pt;stroke-linejoin:miter;stroke-linecap:butt;opacity:0.50000000;"
     d="M 30.103867,12.135142 C 28.687105,20.056373 28.435752,25.873842 26.450599,25.255841 C 16.987091,22.248940 16.043299,23.905133 12.906068,23.313713 C 19.633624,22.319488 20.915892,22.470322 25.915591,23.405812 C 27.628827,23.722522 30.231943,7.0648000 30.103867,12.135142 z "
     id="path867"
     sodipodi:nodetypes="cscsc" />
  <path
     style="fill:url(#linearGradient868);fill-rule:evenodd;stroke:none;stroke-opacity:1.0000000;stroke-width:1pt;stroke-linejoin:miter;stroke-linecap:butt;opacity:0.50000000;"
     d="M 25.894385,35.870912 C 24.477623,43.792142 24.226271,49.609611 22.241118,48.991611 C 12.777609,45.984709 11.833817,47.640902 8.6965849,47.049482 C 15.424141,46.055257 16.706410,46.206091 21.706109,47.141581 C 23.419345,47.458292 26.022461,30.800571 25.894385,35.870912 z "
     id="path869"
     sodipodi:nodetypes="cscsc" />
</svg>
