<?xml version="1.0" encoding="UTF-8" standalone="no"?>
<!DOCTYPE svg PUBLIC "-//W3C//DTD SVG 20010904//EN"
"http://www.w3.org/TR/2001/REC-SVG-20010904/DTD/svg10.dtd">
<!-- Created with Inkscape (http://www.inkscape.org/) -->
<svg
   width="48pt"
   height="48pt"
   id="svg2735"
   sodipodi:version="0.32"
   inkscape:version="0.40"
   sodipodi:docbase="/home/pinuz/lila-inkscape/icon theme"
   sodipodi:docname="skype.svg"
   xmlns="http://www.w3.org/2000/svg"
   xmlns:cc="http://web.resource.org/cc/"
   xmlns:inkscape="http://www.inkscape.org/namespaces/inkscape"
   xmlns:sodipodi="http://sodipodi.sourceforge.net/DTD/sodipodi-0.dtd"
   xmlns:rdf="http://www.w3.org/1999/02/22-rdf-syntax-ns#"
   xmlns:dc="http://purl.org/dc/elements/1.1/"
   xmlns:xlink="http://www.w3.org/1999/xlink">
  <defs
     id="defs3">
    <linearGradient
       id="linearGradient3399">
      <stop
         offset="0.0000000"
         style="stop-color:#ffffff;stop-opacity:1.0000000;"
         id="stop3401" />
      <stop
         offset="1.0000000"
         style="stop-color:#ffffff;stop-opacity:0.0000000;"
         id="stop3400" />
    </linearGradient>
    <linearGradient
       id="linearGradient3420">
      <stop
         offset="0.0000000"
         style="stop-color:#ffffff;stop-opacity:1.0000000;"
         id="stop3422" />
      <stop
         offset="1.0000000"
         style="stop-color:#d9cce6;stop-opacity:1.0000000;"
         id="stop3421" />
    </linearGradient>
    <linearGradient
       id="linearGradient3411">
      <stop
         offset="0.0000000"
         style="stop-color:#d9cce6;stop-opacity:1.0000000;"
         id="stop3413" />
      <stop
         offset="1.0000000"
         style="stop-color:#73667f;stop-opacity:1.0000000;"
         id="stop3412" />
    </linearGradient>
    <linearGradient
       inkscape:collect="always"
       xlink:href="#linearGradient3392"
       id="linearGradient3401"
       gradientUnits="userSpaceOnUse"
       gradientTransform="matrix(1.283481,0.000000,0.000000,1.050593,-5.401330,-5.419502)"
       x1="9.9828625"
       y1="11.063726"
       x2="38.205387"
       y2="46.586163" />
    <linearGradient
       inkscape:collect="always"
       xlink:href="#linearGradient3397"
       id="linearGradient3402"
       gradientUnits="userSpaceOnUse"
       gradientTransform="matrix(1.304875,0.000000,0.000000,1.033369,-5.401330,-5.419502)"
       x1="13.032163"
       y1="16.689814"
       x2="36.678867"
       y2="38.833889" />
    <linearGradient
       inkscape:collect="always"
       xlink:href="#linearGradient3392"
       id="linearGradient3403"
       gradientUnits="userSpaceOnUse"
       gradientTransform="matrix(1.203424,0.000000,0.000000,0.988781,-2.458488,-4.156636)"
       x1="20.508265"
       y1="28.434414"
       x2="37.985611"
       y2="28.434414" />
    <linearGradient
       inkscape:collect="always"
       xlink:href="#linearGradient3414"
       id="linearGradient3405"
       gradientUnits="userSpaceOnUse"
       gradientTransform="scale(1.764892,0.566607)"
       x1="-5.3388405"
       y1="37.674553"
       x2="33.237923"
       y2="1.1146827" />
    <linearGradient
       inkscape:collect="always"
       xlink:href="#linearGradient3414"
       id="linearGradient3406"
       gradientUnits="userSpaceOnUse"
       gradientTransform="scale(0.580160,1.723663)"
       x1="31.079140"
       y1="10.680266"
       x2="57.341888"
       y2="15.124421" />
    <defs
       id="defs3370">
      <linearGradient
         id="linearGradient3414"
         x1="0.0000000"
         y1="0.50000000"
         x2="1.0000000"
         y2="0.50000000"
         gradientUnits="objectBoundingBox"
         spreadMethod="pad"
         xlink:href="#linearGradient3399" />
      <linearGradient
         id="linearGradient3397"
         x1="0.0000000"
         y1="0.50000000"
         x2="1.0000000"
         y2="0.50000000"
         gradientUnits="objectBoundingBox"
         spreadMethod="pad"
         xlink:href="#linearGradient3420" />
      <linearGradient
         id="linearGradient3392"
         x1="0.0000000"
         y1="0.50000000"
         x2="1.0000000"
         y2="0.50000000"
         gradientUnits="objectBoundingBox"
         spreadMethod="pad"
         xlink:href="#linearGradient3411" />
      <linearGradient
         inkscape:collect="always"
         xlink:href="#linearGradient3392"
         id="linearGradient3395"
         gradientTransform="scale(1.105293,0.904737)"
         x1="9.9828625"
         y1="11.063726"
         x2="38.205387"
         y2="46.586163"
         gradientUnits="userSpaceOnUse" />
    </defs>
    <sodipodi:namedview
       id="namedview3386"
       pagecolor="#ffffff"
       bordercolor="#666666"
       borderopacity="1.0"
       inkscape:pageopacity="0.0"
       inkscape:pageshadow="2"
       inkscape:zoom="3.9375000"
       inkscape:cx="22.500000"
       inkscape:cy="12.000000"
       inkscape:current-layer="svg2735"
       showgrid="false"
       inkscape:grid-bbox="false"
       gridspacingy="1.0000000pt"
       gridspacingx="1.0000000pt"
       gridoriginy="0.0000000pt"
       gridoriginx="0.0000000pt"
       inkscape:window-width="640"
       inkscape:window-height="542"
       inkscape:window-x="179"
       inkscape:window-y="334" />
    <metadata
       id="metadata3387">
      <rdf:RDF
         id="RDF3388">
        <cc:Work
           rdf:about=""
           id="Work3389">
          <dc:format
             id="format3390">image/svg+xml</dc:format>
          <dc:type
             id="type3392"
             rdf:resource="http://purl.org/dc/dcmitype/StillImage" />
        </cc:Work>
      </rdf:RDF>
    </metadata>
    <linearGradient
       inkscape:collect="always"
       xlink:href="#linearGradient3411"
       id="linearGradient3415"
       gradientUnits="userSpaceOnUse"
       gradientTransform="matrix(1.016210,0.000000,0.000000,0.984049,-50.00000,1.691352e-17)"
       x1="5.3995824"
       y1="27.830217"
       x2="51.512684"
       y2="27.830217" />
    <linearGradient
       inkscape:collect="always"
       xlink:href="#linearGradient3420"
       id="linearGradient3416"
       gradientUnits="userSpaceOnUse"
       gradientTransform="matrix(0.878289,0.000000,0.000000,1.138578,-50.00000,1.691352e-17)"
       x1="21.468258"
       y1="23.905151"
       x2="44.963661"
       y2="23.905151" />
    <linearGradient
       inkscape:collect="always"
       xlink:href="#linearGradient3399"
       id="linearGradient3417"
       gradientUnits="userSpaceOnUse"
       gradientTransform="scale(0.876652,1.140704)"
       x1="-53.276806"
       y1="3.3717203"
       x2="-4.1626110"
       y2="46.261536" />
  </defs>
  <sodipodi:namedview
     id="base"
     pagecolor="#ffffff"
     bordercolor="#666666"
     borderopacity="1.0"
     inkscape:pageopacity="0.0"
     inkscape:pageshadow="2"
     inkscape:zoom="2.0000000"
     inkscape:cx="60.500000"
     inkscape:cy="56.929565"
     inkscape:current-layer="svg2735"
     showgrid="false"
     inkscape:grid-bbox="false"
     gridspacingy="1.0000000pt"
     gridspacingx="1.0000000pt"
     gridoriginy="0.0000000pt"
     gridoriginx="0.0000000pt"
     inkscape:window-width="1400"
     inkscape:window-height="1002"
     inkscape:window-x="0"
     inkscape:window-y="27"
     showguides="true"
     inkscape:guide-bbox="true" />
  <metadata
     id="metadata4">
    <rdf:RDF
       id="RDF5">
      <cc:Work
         rdf:about=""
         id="Work6">
        <dc:format
           id="format7">image/svg+xml</dc:format>
        <dc:type
           id="type9"
           rdf:resource="http://purl.org/dc/dcmitype/StillImage" />
      </cc:Work>
    </rdf:RDF>
  </metadata>
  <g
     id="layer1"
     inkscape:label="Layer 1"
     inkscape:groupmode="layer" />
  <g
     id="g3393"
     inkscape:label="Layer 1"
     inkscape:groupmode="layer"
     transform="translate(81.25000,2.500000)" />
  <g
     id="g3410"
     transform="matrix(1.147803,0.000000,0.000000,1.147803,53.38503,-3.033269)">
    <path
       style="opacity:0.29999998;fill:#000000;fill-opacity:1.0000000;fill-rule:evenodd;stroke:none;stroke-width:1.6250000;stroke-linecap:butt;stroke-linejoin:round;stroke-miterlimit:4.0000000;stroke-opacity:1.0000000"
       d="M -39.493184,27.656893 C -42.982767,22.761060 -41.941101,15.833976 -38.243184,12.031893 C -34.649434,8.2818930 -27.461934,8.1256430 -23.868184,10.625643 C -14.284851,10.469393 -8.9258609,11.945377 -3.7760749,17.801956 C 0.46032717,24.281794 0.68457017,28.833678 0.19431617,32.813143 C 5.1422331,38.124773 4.0773211,46.519637 0.97556617,49.063143 C -2.7817679,53.490226 -10.174991,53.466982 -14.133324,51.175315 C -24.966657,50.966982 -28.026647,50.111273 -32.763247,46.267424 C -38.001289,41.065554 -39.701517,37.917310 -39.493184,27.656893 z "
       id="path3402"
       sodipodi:nodetypes="ccccccccc" />
    <path
       style="fill:url(#linearGradient3415);fill-opacity:1.0000000;fill-rule:evenodd;stroke:#261933;stroke-width:1.4157482;stroke-linecap:butt;stroke-linejoin:round;stroke-miterlimit:4.0000000;stroke-opacity:1.0000000"
       d="M -41.562500,24.218750 C -45.052083,19.322917 -44.010417,12.395833 -40.312500,8.5937500 C -36.718750,4.8437500 -29.531250,4.6875000 -25.937500,7.1875000 C -16.354167,7.0312500 -10.995177,8.5072345 -5.8453910,14.363813 C -1.6089890,20.843651 -1.3847460,25.395535 -1.8750000,29.375000 C 3.0729170,34.686630 2.0080050,43.081494 -1.0937500,45.625000 C -4.8510840,50.052083 -12.244307,50.028839 -16.202640,47.737172 C -27.035973,47.528839 -30.095963,46.673130 -34.832563,42.829281 C -40.070605,37.627411 -41.770833,34.479167 -41.562500,24.218750 z "
       id="path2746"
       sodipodi:nodetypes="ccccccccc" />
    <path
       style="fill:url(#linearGradient3416);fill-opacity:1.0000000;fill-rule:evenodd;stroke:#261933;stroke-width:1.1979408;stroke-linecap:butt;stroke-linejoin:round;stroke-miterlimit:4.0000000;stroke-opacity:1.0000000;stroke-dasharray:none;"
       d="M -14.718079,22.614111 C -13.521759,22.388256 -12.458437,21.627484 -11.600510,20.647967 C -12.334470,18.001088 -14.572062,16.282605 -17.274695,14.756165 C -20.307449,13.309038 -23.541681,13.224455 -25.805210,14.321366 C -27.555495,15.057559 -29.302528,16.865445 -30.161467,18.729863 C -31.122290,20.533551 -31.269804,23.559493 -29.850462,25.365453 C -26.137041,29.688999 -21.396046,28.748743 -17.064812,30.139842 C -14.739901,30.527754 -14.474018,34.968179 -17.388499,35.804371 C -19.465493,36.505694 -21.461565,36.559641 -23.619481,35.723449 C -28.023949,33.542416 -26.293797,32.484627 -27.584651,31.758279 C -29.310984,31.245774 -31.361003,33.160923 -30.659681,35.076074 C -29.203088,37.503729 -27.341886,39.072075 -24.671465,40.043136 C -21.590016,41.470193 -16.012828,40.389941 -14.637157,39.526775 C -12.910825,38.466423 -11.820006,37.746534 -11.006605,34.916140 C -10.440152,33.131675 -10.690958,30.293318 -12.433008,28.396813 C -14.788724,25.283263 -25.355943,26.110266 -26.221532,22.672243 C -27.856644,18.958736 -22.247441,16.725336 -19.086846,18.555336 C -16.979247,19.760111 -15.630900,21.475044 -14.718079,22.614111 z "
       id="path3368"
       sodipodi:nodetypes="cccccccccccccccccc" />
    <path
       style="fill:url(#linearGradient3417);fill-opacity:1.0000000;fill-rule:evenodd;stroke:none;stroke-width:0.25000000pt;stroke-linecap:butt;stroke-linejoin:miter;stroke-opacity:1.0000000"
       d="M -13.422619,10.565476 C -14.732304,9.1345077 -20.044465,8.0370791 -26.190476,8.2738095 C -30.617304,4.9714200 -37.879220,6.8388963 -40.415989,9.9849415 C -42.514037,12.978749 -44.278545,19.196773 -40.650828,23.691509 C -40.366558,31.783329 -40.424415,36.534027 -32.246372,43.958767 C -42.328844,29.539957 -36.781952,26.522812 -38.303571,20.386905 C -43.491752,10.615229 -33.003566,7.4031686 -26.517857,9.5833333 C -22.152778,9.9107142 -17.787698,10.238095 -13.422619,10.565476 z "
       id="path2772"
       sodipodi:nodetypes="cccccccc" />
  </g>
</svg>
