<?xml version="1.0" encoding="UTF-8" standalone="no"?>
<!DOCTYPE svg PUBLIC "-//W3C//DTD SVG 20010904//EN"
"http://www.w3.org/TR/2001/REC-SVG-20010904/DTD/svg10.dtd">
<!-- Created with Inkscape (http://www.inkscape.org/) -->
<svg
   id="svg1"
   sodipodi:version="0.32"
   inkscape:version="0.38.1"
   width="48pt"
   height="48pt"
   sodipodi:docbase="/home/freaknl/Projecten/Icons"
   sodipodi:docname="straw2.svg"
   xmlns="http://www.w3.org/2000/svg"
   xmlns:inkscape="http://www.inkscape.org/namespaces/inkscape"
   xmlns:sodipodi="http://sodipodi.sourceforge.net/DTD/sodipodi-0.dtd"
   xmlns:xlink="http://www.w3.org/1999/xlink">
  <defs
     id="defs3">
    <linearGradient
       id="linearGradient642">
      <stop
         style="stop-color:#d9cce6;stop-opacity:1;"
         offset="0.00000000"
         id="stop643" />
      <stop
         style="stop-color:#73667f;stop-opacity:1;"
         offset="1.00000000"
         id="stop644" />
    </linearGradient>
    <linearGradient
       id="linearGradient866">
      <stop
         style="stop-color:#ffffff;stop-opacity:1;"
         offset="0.00000000"
         id="stop867" />
      <stop
         style="stop-color:#d9cce6;stop-opacity:1;"
         offset="1.00000000"
         id="stop868" />
    </linearGradient>
    <linearGradient
       id="linearGradient584">
      <stop
         style="stop-color:#ffffff;stop-opacity:1;"
         offset="0.00000000"
         id="stop585" />
      <stop
         style="stop-color:#ffffff;stop-opacity:0;"
         offset="1.00000000"
         id="stop586" />
    </linearGradient>
    <linearGradient
       xlink:href="#linearGradient642"
       id="linearGradient586"
       x1="2.1684043e-19"
       y1="0.50000000"
       x2="1.0000000"
       y2="0.50000000" />
    <linearGradient
       xlink:href="#linearGradient584"
       id="linearGradient587"
       x1="0.00000000"
       y1="-0.00000000"
       x2="1.00000000"
       y2="1.00000000" />
    <linearGradient
       xlink:href="#linearGradient642"
       id="linearGradient638"
       x1="-8.6736174e-19"
       y1="0.50000000"
       x2="1.0000000"
       y2="0.50000000" />
    <radialGradient
       xlink:href="#linearGradient866"
       id="radialGradient639" />
    <linearGradient
       xlink:href="#linearGradient584"
       id="linearGradient640"
       x1="-0.00000000"
       y1="0.00000000"
       x2="0.98275864"
       y2="1.00000000" />
    <linearGradient
       xlink:href="#linearGradient584"
       id="linearGradient641"
       x1="0.54513890"
       y1="0.052631579"
       x2="0.63888890"
       y2="1.2894737" />
    <linearGradient
       xlink:href="#linearGradient642"
       id="linearGradient645"
       x1="0.01428571"
       y1="0.01562500"
       x2="1.00000000"
       y2="1.00781250" />
  </defs>
  <sodipodi:namedview
     id="base"
     pagecolor="#ffffff"
     bordercolor="#666666"
     borderopacity="1.0"
     inkscape:pageopacity="0.0"
     inkscape:pageshadow="2"
     inkscape:zoom="12.166667"
     inkscape:cx="25.150685"
     inkscape:cy="24.134525"
     inkscape:window-width="1024"
     inkscape:window-height="722"
     inkscape:window-x="800"
     inkscape:window-y="0"
     showguides="true"
     snaptoguides="true"
     showgrid="true"
     snaptogrid="false"
     gridspacingy="1.0000000pt"
     gridspacingx="1.0000000pt"
     horizgrid="false"
     vertgrid="false"
     gridtolerance="17.000000px"
     gridcolor="#ff3fff"
     gridhicolor="0.18431373"
     guidetolerance="1.0000000px" />
  <path
     style="fill:none;fill-rule:evenodd;stroke:#000000;stroke-opacity:0.30000001;stroke-width:2.5000000;stroke-linejoin:round;stroke-linecap:butt;fill-opacity:0.75;stroke-dasharray:none;"
     d="M 30.410960,2.6742303 C 15.285701,2.6742303 3.0047089,14.999821 3.0047089,30.205480 C 3.0047089,45.411138 15.285701,57.736729 30.410960,57.736730 C 45.536217,57.736730 57.817210,45.411137 57.817209,30.205480 C 57.817209,14.999822 45.536217,2.6742303 30.410960,2.6742303 z M 30.410960,8.3304804 C 36.310903,8.3304804 41.635728,10.720777 45.535959,14.580480 L 27.285960,14.580480 C 14.785959,14.580480 14.785959,33.330480 27.285960,33.330480 L 33.535960,33.330480 C 37.285960,33.330480 37.285960,39.580480 33.535960,39.580480 L 11.129709,39.580480 C 9.6984459,36.682344 8.8172089,33.471153 8.8172089,30.017980 C 8.8172089,18.042196 18.498498,8.3304804 30.410960,8.3304804 z M 27.285960,20.830480 L 49.910959,20.830480 C 51.224046,23.629735 52.004709,26.719655 52.004709,30.017980 C 52.004710,41.993762 42.323420,51.705480 30.410960,51.705480 C 24.718769,51.705480 19.583956,49.452806 15.723459,45.830480 L 33.535960,45.830480 C 46.035959,45.830480 46.035959,27.080480 33.535960,27.080480 L 27.285960,27.080480 C 23.535960,27.080480 23.535960,20.830480 27.285960,20.830480 z "
     id="path871" />
  <path
     style="fill:url(#linearGradient586);fill-rule:evenodd;stroke:#000000;stroke-opacity:1.0000000;stroke-width:1pt;stroke-linejoin:round;stroke-linecap:butt;fill-opacity:0.75;"
     d="M 29.160959,1.5269692 C 14.035701,1.5269692 1.7547089,13.852560 1.7547089,29.058219 C 1.7547089,44.263877 14.035701,56.589468 29.160959,56.589469 C 44.286217,56.589469 56.567210,44.263876 56.567209,29.058219 C 56.567209,13.852561 44.286217,1.5269692 29.160959,1.5269692 z M 29.160959,7.1832192 C 35.060902,7.1832192 40.385728,9.5735164 44.285959,13.433219 L 26.035959,13.433219 C 13.535959,13.433219 13.535959,32.183219 26.035959,32.183219 L 32.285959,32.183219 C 36.035959,32.183219 36.035959,38.433219 32.285959,38.433219 L 9.8797089,38.433219 C 8.4484450,35.535083 7.5672089,32.323892 7.5672089,28.870719 C 7.5672088,16.894935 17.248498,7.1832192 29.160959,7.1832192 z M 26.035959,19.683219 L 48.660959,19.683219 C 49.974046,22.482474 50.754709,25.572394 50.754709,28.870719 C 50.754710,40.846501 41.073420,50.558219 29.160959,50.558219 C 23.468768,50.558219 18.333955,48.305545 14.473459,44.683219 L 32.285959,44.683219 C 44.785959,44.683219 44.785959,25.933219 32.285959,25.933219 L 26.035959,25.933219 C 22.285959,25.933219 22.285959,19.683219 26.035959,19.683219 z "
     id="path870" />
  <path
     d="M 18.212839,26.307035 C 17.380319,24.771421 17.054429,19.831879 19.449327,17.272118 C 21.844225,14.609616 23.763532,14.291738 28.025945,14.291738 C 20.363348,15.682513 18.203111,19.871465 18.212839,26.307035 z "
     style="font-size:12;opacity:0.699936;fill:url(#linearGradient587);fill-rule:evenodd;stroke:none;stroke-width:0.100121pt;"
     id="path640"
     sodipodi:nodetypes="czcc" />
  <path
     d="M 2.5072557,29.971295 C 2.2827301,20.409315 7.3260461,13.521941 9.7209446,10.962180 C 12.115842,8.2996778 18.796498,2.6444723 27.650395,2.4442334 C 14.288263,4.8168056 3.2167058,15.316547 2.5072557,29.971295 z "
     style="font-size:12;opacity:0.699936;fill:url(#linearGradient587);fill-rule:evenodd;stroke:none;stroke-width:0.100121pt;"
     id="path886"
     sodipodi:nodetypes="czcc" />
  <path
     d="M 9.3560403,39.325304 C 10.281056,39.314373 31.578469,39.284410 32.579433,39.276317 C 34.936981,39.257595 35.730988,37.237985 35.767545,36.422878 C 35.960833,39.039977 34.425667,39.937827 33.087688,39.984540 C 32.197788,40.016244 9.3754943,40.062764 9.3560403,39.325304 z "
     style="font-size:12;opacity:0.699936;fill:url(#linearGradient641);fill-rule:evenodd;stroke:none;stroke-width:0.100121pt;"
     id="path887"
     sodipodi:nodetypes="cscsc" />
</svg>
