<?xml version="1.0" encoding="UTF-8" standalone="no"?>
<!DOCTYPE svg PUBLIC "-//W3C//DTD SVG 20010904//EN"
"http://www.w3.org/TR/2001/REC-SVG-20010904/DTD/svg10.dtd">
<!-- Created with Inkscape (http://www.inkscape.org/) -->
<svg
   id="svg1"
   sodipodi:version="0.32"
   inkscape:version="0.38.1"
   width="48pt"
   height="48pt"
   sodipodi:docbase="/home/dan/svg-icons/lila/gnome/scalable/apps"
   sodipodi:docname="thunderbird.svg"
   xmlns="http://www.w3.org/2000/svg"
   xmlns:inkscape="http://www.inkscape.org/namespaces/inkscape"
   xmlns:sodipodi="http://sodipodi.sourceforge.net/DTD/sodipodi-0.dtd"
   xmlns:xlink="http://www.w3.org/1999/xlink">
  <defs
     id="defs3">
    <linearGradient
       id="linearGradient599">
      <stop
         style="stop-color:#ffffff;stop-opacity:1;"
         offset="0.00000000"
         id="stop600" />
      <stop
         style="stop-color:#d9cce6;stop-opacity:1;"
         offset="1.00000000"
         id="stop601" />
    </linearGradient>
    <linearGradient
       id="linearGradient584">
      <stop
         style="stop-color:#ffffff;stop-opacity:1;"
         offset="0.00000000"
         id="stop585" />
      <stop
         style="stop-color:#ffffff;stop-opacity:0;"
         offset="1.00000000"
         id="stop586" />
    </linearGradient>
    <linearGradient
       id="linearGradient578">
      <stop
         style="stop-color:#d9cce6;stop-opacity:1;"
         offset="0.0000000"
         id="stop579" />
      <stop
         style="stop-color:#73667f;stop-opacity:1;"
         offset="1.0000000"
         id="stop580" />
    </linearGradient>
    <linearGradient
       xlink:href="#linearGradient599"
       id="linearGradient581"
       x1="0.00000000"
       y1="-0.00000000"
       x2="0.98888886"
       y2="0.98437500" />
    <linearGradient
       xlink:href="#linearGradient599"
       id="linearGradient583"
       x1="-0.00000000"
       y1="0.00000000"
       x2="0.97500002"
       y2="0.98437500" />
    <linearGradient
       xlink:href="#linearGradient599"
       id="linearGradient860"
       x1="0.00000000"
       y1="0.00000000"
       x2="0.98905110"
       y2="0.97457629" />
    <linearGradient
       xlink:href="#linearGradient578"
       id="linearGradient861"
       x1="0.017857144"
       y1="0.015625000"
       x2="0.97321427"
       y2="0.93750000" />
    <linearGradient
       xlink:href="#linearGradient584"
       id="linearGradient862"
       x1="-0.08500000"
       y1="-0.13281250"
       x2="0.99500000"
       y2="0.96875000" />
    <radialGradient
       xlink:href="#linearGradient578"
       id="radialGradient595"
       cx="0.33846155"
       cy="0.34375000"
       r="0.66501766"
       fx="0.33076921"
       fy="0.33593750" />
    <linearGradient
       xlink:href="#linearGradient584"
       id="linearGradient849"
       x1="-0.12500000"
       y1="-0.29838711"
       x2="0.62500000"
       y2="0.75806451" />
    <linearGradient
       xlink:href="#linearGradient584"
       id="linearGradient1069"
       x1="-0.30399999"
       y1="-0.33593750"
       x2="0.98000002"
       y2="1.0000000" />
    <linearGradient
       xlink:href="#linearGradient584"
       id="linearGradient1071"
       x1="0.0051020407"
       y1="0.031250000"
       x2="0.97959185"
       y2="1.0156250" />
    <linearGradient
       xlink:href="#linearGradient584"
       id="linearGradient1073"
       x1="-0.059999999"
       y1="-0.046875000"
       x2="1.0000000"
       y2="1.0000000" />
  </defs>
  <sodipodi:namedview
     id="base"
     pagecolor="#ffffff"
     bordercolor="#666666"
     borderopacity="1.0"
     inkscape:pageopacity="0.0"
     inkscape:pageshadow="2"
     inkscape:zoom="5.6568544"
     inkscape:cx="25.541742"
     inkscape:cy="25.628240"
     inkscape:window-width="561"
     inkscape:window-height="556"
     inkscape:window-x="44"
     inkscape:window-y="259"
     showborder="true" />
  <path
     style="fill-rule:evenodd;stroke:none;stroke-width:1.5000000;fill:#000000;fill-opacity:0.29600000;"
     d="M 37.755399,4.3136155 C 32.258208,3.4719845 21.057256,11.139133 14.849149,16.751115 C 14.748639,15.892954 14.498077,15.094187 13.942899,14.626115 C 13.072733,14.159730 11.818839,13.622772 11.317899,13.219865 C 11.207345,12.757362 14.446213,11.539507 15.786649,10.376115 C 13.516450,10.682735 11.275597,10.975746 9.0053993,11.282365 C 7.3082583,11.940935 5.4857643,14.314571 5.7241493,15.876115 C 6.4453243,15.366536 7.3174313,14.115991 7.9116493,14.344865 C 9.7754343,15.904820 11.043741,17.364528 12.255399,19.126115 C 11.084953,20.401855 10.422703,21.386313 10.505399,21.907365 C 10.499356,21.909446 10.448679,21.905235 10.442899,21.907365 C 7.4119463,22.913879 3.4183643,50.489400 5.2241493,52.407365 C 6.9687013,54.467696 50.738553,61.535501 53.255399,59.751115 C 55.831993,58.113660 61.100819,31.831533 58.661649,29.532365 C 58.636079,29.506181 58.477172,29.465610 58.442899,29.438615 C 60.164195,27.529353 45.699088,5.5298095 37.755399,4.3136155 z "
     id="path1141" />
  <path
     style="font-size:12.000000;fill:url(#linearGradient581);fill-rule:evenodd;stroke:#261933;stroke-width:1.8750000;"
     d="M 3.3349152,49.881262 C 5.0794675,51.941593 48.855326,59.020244 51.372172,57.235858 C 53.948766,55.598402 59.211874,29.293258 56.772704,26.994090 C 54.328288,24.490975 11.700240,18.228451 8.5393001,19.393559 C 5.5083469,20.400073 1.5291300,47.963297 3.3349152,49.881262 z "
     id="path596"
     sodipodi:nodetypes="cssss" />
  <path
     style="font-size:12.000000;fill:url(#linearGradient583);fill-rule:evenodd;stroke:#261933;stroke-width:1.8750000;"
     d="M 8.2723449,19.562422 C 6.2783601,21.164872 20.967779,43.537590 28.973989,44.763356 C 36.980198,45.989122 57.844536,29.012656 56.309602,26.917019 C 54.942674,24.759629 10.278101,17.459346 8.2723449,19.562422 z "
     id="path598"
     sodipodi:nodetypes="csss" />
  <path
     style="fill:url(#linearGradient862);fill-rule:evenodd;stroke-width:1.0000000pt;"
     d="M 5.7891906,46.663755 C 5.2289867,46.005798 8.3386285,23.334048 10.536173,21.645506 C 12.522133,20.335997 53.747951,28.281109 54.299301,28.928667 C 54.805870,29.523626 17.667049,23.330607 13.709930,25.373060 C 9.8903811,27.372607 6.2869052,47.248317 5.7891906,46.663755 z "
     id="path603"
     sodipodi:nodetypes="cssss" />
  <path
     style="font-size:12.000000;fill:url(#linearGradient583);fill-rule:evenodd;stroke:#261933;stroke-width:1.8750000;"
     d="M 56.558309,27.001983 C 58.552294,25.399532 43.862875,3.0268149 35.856665,1.8010489 C 27.850456,0.57528287 6.9861180,17.551748 8.5210520,19.647385 C 9.8879801,21.804775 54.552553,29.105059 56.558309,27.001983 z "
     id="path1056"
     sodipodi:nodetypes="csss" />
  <path
     style="fill-rule:evenodd;stroke:#000000;stroke-width:1.5000000;"
     d="M 13.903376,7.8439846 C 11.633177,8.1506041 9.3629794,8.4572244 7.0927809,8.7638438 C 5.3956403,9.4224128 3.5974568,11.774240 3.8358416,13.335784 C 4.5570175,12.826205 5.4051511,11.578174 5.9993687,11.807048 C 8.3809943,13.800425 9.8712924,15.450489 11.387507,18.055361 C 13.258681,17.490069 13.638683,13.437218 12.033947,12.084262 C 11.163781,11.617876 9.9243878,11.088010 9.4234480,10.685103 C 9.3128938,10.222600 12.562940,9.0073769 13.903376,7.8439846 z "
     id="path846"
     sodipodi:nodetypes="cccccccc" />
  <path
     style="fill:url(#linearGradient1071);fill-rule:evenodd;stroke:none;stroke-opacity:1;stroke-width:1pt;stroke-linejoin:miter;stroke-linecap:butt;fill-opacity:1;"
     d="M 10.717087,18.678448 C 10.622503,18.319029 17.801106,12.205821 21.765630,9.6186433 C 25.645571,7.0866628 34.160370,2.9785413 34.250484,3.3209735 C 34.344513,3.6782823 26.388398,9.0616346 22.318057,11.717866 C 18.543932,14.180793 10.806645,19.018770 10.717087,18.678448 z "
     id="path1070"
     sodipodi:nodetypes="cssss" />
  <path
     style="fill:url(#linearGradient861);fill-opacity:1.00000000;fill-rule:evenodd;stroke:#261933;stroke-width:1.6831070;"
     d="M 11.648557,18.195277 C 13.582577,20.396803 12.026422,18.577025 13.960442,20.778551 C 15.362219,23.680532 22.321526,35.538665 20.031041,37.805853 C 18.707445,38.687036 35.306248,48.475047 41.405518,40.050728 C 42.708151,35.237828 42.225033,24.972688 39.529654,19.092293 C 34.170441,11.201681 29.399425,8.7341519 20.898582,6.9558639 C 16.905328,6.9662476 13.803400,7.3199430 11.211924,10.232307 C 10.194076,11.546194 12.666404,16.881389 11.648557,18.195277 z "
     id="path847"
     sodipodi:nodetypes="cccccccc" />
  <path
     style="fill-rule:evenodd;stroke:#000000;stroke-width:1.1988586pt;"
     d="M 18.512570,12.486712 C 20.685607,13.113738 22.679856,12.569604 24.573062,13.718729 C 26.530620,16.336121 25.929510,19.463964 23.990101,19.320603 C 22.263162,19.783979 20.663183,19.508903 19.190160,18.495374 C 20.288328,16.530050 20.431692,14.590643 18.512570,12.486712 z "
     id="path848"
     sodipodi:nodetypes="ccccc" />
  <path
     sodipodi:type="arc"
     style="fill-opacity:1.00000000;fill-rule:evenodd;stroke:#d9cce6;stroke-width:1.0000000pt;"
     id="path850"
     sodipodi:cx="32.924660"
     sodipodi:cy="40.554562"
     sodipodi:rx="1.8782524"
     sodipodi:ry="1.7677670"
     d="M 34.802912 40.554562 A 1.8782524 1.7677670 0 1 0 31.046407,40.554562 A 1.8782524 1.7677670 0 1 0 34.802912 40.554562 z"
     transform="matrix(0.691827,0.979101,-0.979101,0.691827,39.54889,-44.05927)" />
  <path
     style="fill:url(#linearGradient849);fill-opacity:1.00000000;fill-rule:evenodd;stroke-width:1.0000000pt;"
     d="M 16.239557,11.335645 C 19.307804,11.546370 23.051025,12.253279 25.253861,13.075497 C 27.060051,14.177984 28.802761,15.649697 30.672430,16.382957 C 28.621594,13.939599 27.029379,12.145298 24.788107,10.809618 C 22.065549,10.246508 18.783327,10.727598 16.239557,11.335645 z "
     id="path851"
     sodipodi:nodetypes="ccccc" />
  <path
     style="font-size:12.000000;fill:url(#linearGradient860);fill-rule:evenodd;stroke:#261933;stroke-width:1.8750000;"
     d="M 3.1033638,49.842727 C 1.5389762,48.058978 23.019693,35.314506 31.316352,36.621523 C 39.020311,37.835170 53.527824,55.983648 51.105217,57.404722 C 48.905345,58.870205 3.6108224,51.571047 3.1033638,49.842727 z "
     id="path597"
     sodipodi:nodetypes="csss" />
  <path
     style="fill:url(#linearGradient1069);fill-rule:evenodd;stroke:none;stroke-opacity:1;stroke-width:1pt;stroke-linejoin:miter;stroke-linecap:butt;fill-opacity:1.0000000;"
     d="M 13.700194,18.015536 C 13.441519,17.836453 12.090703,12.922289 12.705825,11.054953 C 13.121900,9.7918683 15.317507,9.0383524 16.793786,8.6242742 C 18.337442,8.1912976 20.182200,8.1238396 21.765630,8.5137888 C 25.117216,9.3391793 31.580046,12.101201 31.598834,12.270293 C 31.616875,12.432657 25.157571,10.079926 21.876116,9.5081577 C 20.296212,9.2328715 18.480528,9.2475180 17.014757,9.7291283 C 15.902534,10.094573 14.563811,10.995132 14.142135,12.049322 C 13.458957,13.757268 13.920289,18.167909 13.700194,18.015536 z "
     id="path1068"
     sodipodi:nodetypes="cssssssss" />
  <path
     style="fill:url(#linearGradient1073);fill-rule:evenodd;stroke:none;stroke-opacity:1;stroke-width:1pt;stroke-linejoin:miter;stroke-linecap:butt;fill-opacity:1;"
     d="M 21.599902,16.910681 C 21.537340,16.806410 21.038054,15.774306 21.931358,15.198157 C 22.764537,14.634321 23.582564,15.427416 23.643882,15.529613 C 23.693049,15.611558 23.147857,14.963307 22.126095,15.477147 C 21.248660,15.928113 21.647825,16.990553 21.599902,16.910681 z "
     id="path1072"
     sodipodi:nodetypes="cssss" />
</svg>
