<?xml version="1.0" encoding="UTF-8" standalone="no"?>
<!DOCTYPE svg PUBLIC "-//W3C//DTD SVG 20010904//EN"
"http://www.w3.org/TR/2001/REC-SVG-20010904/DTD/svg10.dtd">
<!-- Created with Inkscape (http://www.inkscape.org/) -->
<svg
   id="svg1"
   sodipodi:version="0.32"
   inkscape:version="0.37"
   width="48pt"
   height="48pt"
   sodipodi:docbase="/home/dan/Projects/Lila-icons/scalable/apps"
   sodipodi:docname="xchat.svg"
   xmlns="http://www.w3.org/2000/svg"
   xmlns:inkscape="http://www.inkscape.org/namespaces/inkscape"
   xmlns:sodipodi="http://sodipodi.sourceforge.net/DTD/sodipodi-0.dtd"
   xmlns:xlink="http://www.w3.org/1999/xlink">
  <defs
     id="defs3">
    <linearGradient
       id="linearGradient854">
      <stop
         style="stop-color:#ffffff;stop-opacity:1;"
         offset="0.00000000"
         id="stop855" />
      <stop
         style="stop-color:#d9cce6;stop-opacity:1;"
         offset="1.00000000"
         id="stop856" />
    </linearGradient>
    <linearGradient
       id="linearGradient584">
      <stop
         style="stop-color:#ffffff;stop-opacity:1;"
         offset="0.00000000"
         id="stop585" />
      <stop
         style="stop-color:#ffffff;stop-opacity:0;"
         offset="1.00000000"
         id="stop586" />
    </linearGradient>
    <linearGradient
       id="linearGradient578">
      <stop
         style="stop-color:#d9cce6;stop-opacity:1;"
         offset="0.00000000"
         id="stop579" />
      <stop
         style="stop-color:#73667f;stop-opacity:1;"
         offset="1.00000000"
         id="stop580" />
    </linearGradient>
    <linearGradient
       xlink:href="#linearGradient578"
       id="linearGradient581"
       x1="-0.00000000"
       y1="-0.00000000"
       x2="0.98461539"
       y2="1.00781250" />
    <linearGradient
       xlink:href="#linearGradient584"
       id="linearGradient583"
       x1="0.00000000"
       y1="-0.00000000"
       x2="0.98611110"
       y2="0.99218750" />
    <linearGradient
       xlink:href="#linearGradient584"
       id="linearGradient860"
       x1="-0.00000000"
       y1="-0.00000000"
       x2="0.98989898"
       y2="1.01562500" />
    <linearGradient
       xlink:href="#linearGradient584"
       id="linearGradient861"
       x1="-0.00000000"
       y1="0.00000000"
       x2="1.00000000"
       y2="0.97656250" />
    <linearGradient
       xlink:href="#linearGradient854"
       id="linearGradient862"
       x1="0.00000000"
       y1="0.00000000"
       x2="0.97435898"
       y2="0.96875000" />
    <linearGradient
       xlink:href="#linearGradient854"
       id="linearGradient863"
       x1="0.00000000"
       y1="0.00000000"
       x2="0.98181820"
       y2="0.99218750" />
    <linearGradient
       xlink:href="#linearGradient854"
       id="linearGradient864"
       x1="0.00000000"
       y1="0.00000000"
       x2="0.97826087"
       y2="0.96875000" />
    <linearGradient
       xlink:href="#linearGradient854"
       id="linearGradient865"
       x1="0.00000000"
       y1="0.00000000"
       x2="0.99193549"
       y2="0.96093750" />
    <linearGradient
       xlink:href="#linearGradient584"
       id="linearGradient867"
       x1="0.00000000"
       y1="0.00000000"
       x2="0.98113209"
       y2="0.96875000" />
    <linearGradient
       xlink:href="#linearGradient584"
       id="linearGradient869"
       x1="-0.00000000"
       y1="0.00000000"
       x2="1.03333330"
       y2="0.99218750" />
    <linearGradient
       xlink:href="#linearGradient584"
       id="linearGradient871"
       x1="0.00000000"
       y1="0.00000000"
       x2="1.48181820"
       y2="1.46093750" />
    <linearGradient
       xlink:href="#linearGradient584"
       id="linearGradient873"
       x1="0.00000000"
       y1="-0.00000000"
       x2="1.00000000"
       y2="1.02343750" />
    <linearGradient
       xlink:href="#linearGradient584"
       id="linearGradient875"
       x1="0.00000000"
       y1="0.00781250"
       x2="1.73170733"
       y2="1.75000000" />
    <linearGradient
       xlink:href="#linearGradient584"
       id="linearGradient877"
       x1="0.00000000"
       y1="0.00000000"
       x2="0.99270076"
       y2="0.91304350" />
  </defs>
  <sodipodi:namedview
     id="base"
     pagecolor="#ffffff"
     bordercolor="#666666"
     borderopacity="1.0"
     inkscape:pageopacity="0.0"
     inkscape:pageshadow="2"
     inkscape:zoom="7.97947193"
     inkscape:cx="27.4567697"
     inkscape:cy="22.6036402"
     inkscape:window-width="640"
     inkscape:window-height="535"
     inkscape:window-x="230"
     inkscape:window-y="320" />
  <path
     style="font-size:12;fill:#000000;fill-rule:evenodd;stroke:none;stroke-width:1.875;stroke-dasharray:none;fill-opacity:1;opacity:0.296369;"
     d="M 5.5860791 15.954472 C 4.4954741 13.008211 11.278955 5.7455336 14.283354 6.6773787 C 20.314457 8.547989 30.960669 24.281712 32.692586 24.361837 C 34.465903 24.233981 43.321045 9.0714875 49.072452 6.8223335 C 51.970002 5.6892141 59.47308 11.405393 58.639455 14.215017 C 56.863897 20.199305 41.26985 31.146834 41.244904 33.204065 C 41.220925 34.984742 56.770349 43.980442 58.494501 49.583934 C 59.476167 52.774354 52.433609 60.552988 49.362361 59.585799 C 43.688015 57.798852 33.908995 41.394878 32.257721 41.321523 C 30.562383 41.254528 20.566546 57.575703 14.718218 59.440846 C 11.62768 60.426477 4.369727 52.93737 5.4411245 49.873844 C 7.4620916 44.095142 23.903275 34.660347 23.995311 32.914157 C 24.078028 31.160506 7.732793 21.753803 5.5860791 15.954472 z "
     id="path852"
     sodipodi:nodetypes="cssssssssssss" />
  <path
     style="font-size:12;fill:url(#linearGradient581);fill-rule:evenodd;stroke:#261933;stroke-width:1.875;stroke-dasharray:none;"
     d="M 3.3833938 13.311249 C 2.2927888 10.364989 9.0762707 3.1023107 12.080668 4.0341571 C 18.111772 5.9047661 28.757985 21.63849 30.4899 21.718614 C 32.263219 21.590759 41.11836 6.4282646 46.869767 4.1791106 C 49.767317 3.0459912 57.270394 8.7621716 56.43677 11.571794 C 54.661213 17.556083 39.067165 28.503612 39.042219 30.560844 C 39.018239 32.341519 54.567664 41.337219 56.291815 46.940713 C 57.273483 50.131131 50.230924 57.909766 47.159676 56.942578 C 41.485331 55.155629 31.70631 38.751656 30.055037 38.678301 C 28.359699 38.611305 18.363861 54.932481 12.515533 56.797624 C 9.4249949 57.783254 2.1670417 50.294148 3.2384391 47.230621 C 5.2594063 41.451919 21.700591 32.017124 21.792627 30.270935 C 21.875343 28.517285 5.5301077 19.11058 3.3833938 13.311249 z "
     id="path848"
     sodipodi:nodetypes="cssssssssssss" />
  <path
     style="fill:url(#linearGradient583);fill-rule:evenodd;stroke:none;stroke-opacity:1;stroke-width:1pt;stroke-linejoin:miter;stroke-linecap:butt;fill-opacity:1;"
     d="M 4.6905642 48.005089 C 9.4337073 41.968678 23.293553 31.829518 23.692475 31.962491 C 24.07232 32.089106 11.050859 41.91529 7.0268649 48.783855 C 6.650168 49.467896 4.2353522 48.551527 4.6905642 48.005089 z "
     id="path849"
     sodipodi:nodetypes="csss" />
  <path
     style="fill:url(#linearGradient860);fill-rule:evenodd;stroke:none;stroke-opacity:1;stroke-width:1pt;stroke-linejoin:miter;stroke-linecap:butt;fill-opacity:1;"
     d="M 5.1578243 12.181813 C 5.1578243 11.875288 8.7967698 7.0823502 10.920699 6.1074312 C 11.963755 5.6286523 14.65878 7.5215698 14.65878 7.8207185 C 14.65878 8.0926647 12.000347 7.3251426 10.920699 7.8207185 C 8.8333614 8.7788405 5.1578243 12.446383 5.1578243 12.181813 z "
     id="path850"
     sodipodi:nodetypes="cssss" />
  <path
     style="fill:url(#linearGradient861);fill-rule:evenodd;stroke:none;stroke-opacity:1;stroke-width:1pt;stroke-linejoin:miter;stroke-linecap:butt;fill-opacity:1;"
     d="M 32.414664 23.396056 C 32.387856 23.020745 41.539932 9.8777358 47.834248 5.9516778 C 48.728131 5.3572944 50.921141 7.2705209 50.949316 7.6649651 C 50.973058 7.9973704 48.830396 7.6304406 47.990001 8.1322253 C 41.156256 11.963781 32.439774 23.747595 32.414664 23.396056 z "
     id="path851"
     sodipodi:nodetypes="cssss" />
  <g
     id="g882"
     style="opacity:0.302675;"
     transform="translate(2.036476,1.723172)">
    <path
       style="font-size:12;fill:#000000;fill-rule:evenodd;stroke:none;stroke-width:1.875;stroke-dasharray:none;fill-opacity:1;"
       d="M 16.633565 23.613852 C 15.000556 22.732546 9.9657943 22.082551 9.0898613 23.735525 C 7.4512278 26.827784 7.4343188 34.853811 9.0898613 37.849553 C 9.9894443 39.477372 15.14521 38.602893 16.755237 37.606208 C 17.700334 37.021148 17.494712 33.823252 16.755237 33.10432 C 16.034639 32.403739 13.00886 34.139961 12.375022 33.347665 C 11.548787 32.31487 11.548787 28.661843 12.375022 27.62905 C 13.00886 26.836755 16.035082 28.551401 16.755237 27.872395 C 17.454595 27.213 17.555682 24.111503 16.633565 23.613852 z "
       id="path878"
       sodipodi:nodetypes="cssssssss" />
    <path
       style="font-size:12;fill:#000000;fill-rule:evenodd;stroke:none;stroke-width:1.875;stroke-dasharray:none;fill-opacity:1;"
       d="M 18.017935 23.915052 C 17.059665 27.399678 17.082633 33.824795 18.017935 37.332184 C 18.265409 38.260211 21.047648 37.901988 21.566269 37.2213 C 22.230426 36.349592 20.902111 33.978684 21.566269 33.106976 C 22.084889 32.426286 24.599171 32.313902 25.114602 32.996091 C 25.855871 33.977183 24.548261 36.731553 25.336372 37.664842 C 25.952811 38.394834 29.035263 38.59196 29.328246 37.553956 C 30.328924 34.008696 30.318557 27.35982 29.217361 23.915052 C 28.877047 22.850481 25.67233 23.240317 25.003716 24.025938 C 24.193858 24.977521 25.470816 27.770741 24.781946 28.781083 C 24.361961 29.397058 22.080253 29.221547 21.677154 28.559312 C 21.045323 27.521303 22.37401 24.976196 21.677154 24.025938 C 21.154271 23.312916 18.279403 22.964264 18.017935 23.915052 z "
       id="path879"
       sodipodi:nodetypes="cssssssssssss" />
    <path
       style="font-size:12;fill:#000000;fill-rule:evenodd;stroke:none;stroke-width:1.875;stroke-dasharray:none;fill-opacity:1;"
       d="M 40.952314 23.734505 C 39.945691 24.070047 40.223511 27.076984 40.952314 27.62803 C 41.88637 28.334268 45.400045 26.411142 45.940892 27.506357 C 47.022347 29.696303 44.832756 35.172371 45.81922 37.483516 C 46.252269 38.49809 49.758921 38.490408 50.199436 37.483516 C 51.178435 35.245804 49.060362 29.94949 50.077763 27.749703 C 50.560991 26.704886 53.971793 28.519764 54.701324 27.749703 C 55.431865 26.978576 55.627121 23.467574 54.457978 23.126144 C 51.044117 22.129175 44.44758 22.569418 40.952314 23.734505 z "
       id="path880"
       sodipodi:nodetypes="cssssssss" />
    <path
       style="font-size:12;fill:#000000;fill-rule:evenodd;stroke:none;stroke-width:1.875;stroke-dasharray:none;fill-opacity:1;"
       d="M 35.331182 23.160011 C 33.498467 23.207653 31.67141 23.707717 31.125898 24.573263 C 29.468425 27.203119 30.44559 33.970607 31.332716 37.430401 C 31.544988 38.258265 34.105187 38.114397 34.434974 37.430401 C 35.094648 36.062188 33.818657 35.650122 34.331566 34.111406 C 34.514946 33.561266 36.29776 33.479867 36.503146 34.007997 C 37.067342 35.458784 35.891001 35.900014 36.641024 37.189113 C 37.063694 37.915578 39.811882 38.086791 40.019038 37.189113 C 40.801342 33.799134 41.395786 26.873875 39.605405 24.331975 C 39.016406 23.495745 37.163897 23.11237 35.331182 23.160011 z M 36.244846 27.040716 C 36.620329 27.649257 36.490905 29.922916 36.140994 30.557939 C 35.941086 30.920735 34.637955 30.915202 34.417518 30.557939 C 34.047411 29.958112 34.177114 27.803354 34.52137 27.178595 C 34.726934 26.805536 36.029784 26.692166 36.244846 27.040716 z "
       id="path881"
       sodipodi:nodetypes="ccccccccccccccc" />
  </g>
  <path
     style="font-size:12;fill:url(#linearGradient862);fill-rule:evenodd;stroke:#000000;stroke-width:1.875;stroke-dasharray:none;"
     d="M 16.633565 23.613852 C 15.000556 22.732546 9.9657943 22.082551 9.0898613 23.735525 C 7.4512278 26.827784 7.4343188 34.853811 9.0898613 37.849553 C 9.9894443 39.477372 15.14521 38.602893 16.755237 37.606208 C 17.700334 37.021148 17.494712 33.823252 16.755237 33.10432 C 16.034639 32.403739 13.00886 34.139961 12.375022 33.347665 C 11.548787 32.31487 11.548787 28.661843 12.375022 27.62905 C 13.00886 26.836755 16.035082 28.551401 16.755237 27.872395 C 17.454595 27.213 17.555682 24.111503 16.633565 23.613852 z "
     id="path857"
     sodipodi:nodetypes="cssssssss" />
  <path
     style="font-size:12;fill:url(#linearGradient863);fill-rule:evenodd;stroke:#000000;stroke-width:1.875;stroke-dasharray:none;"
     d="M 18.017935 23.915052 C 17.059665 27.399678 17.082633 33.824795 18.017935 37.332184 C 18.265409 38.260211 21.047648 37.901988 21.566269 37.2213 C 22.230426 36.349592 20.902111 33.978684 21.566269 33.106976 C 22.084889 32.426286 24.599171 32.313902 25.114602 32.996091 C 25.855871 33.977183 24.548261 36.731553 25.336372 37.664842 C 25.952811 38.394834 29.035263 38.59196 29.328246 37.553956 C 30.328924 34.008696 30.318557 27.35982 29.217361 23.915052 C 28.877047 22.850481 25.67233 23.240317 25.003716 24.025938 C 24.193858 24.977521 25.470816 27.770741 24.781946 28.781083 C 24.361961 29.397058 22.080253 29.221547 21.677154 28.559312 C 21.045323 27.521303 22.37401 24.976196 21.677154 24.025938 C 21.154271 23.312916 18.279403 22.964264 18.017935 23.915052 z "
     id="path858"
     sodipodi:nodetypes="cssssssssssss" />
  <path
     style="font-size:12;fill:url(#linearGradient865);fill-rule:evenodd;stroke:#000000;stroke-width:1.875;stroke-dasharray:none;"
     d="M 40.952314 23.734505 C 39.945691 24.070047 40.223511 27.076984 40.952314 27.62803 C 41.88637 28.334268 45.400045 26.411142 45.940892 27.506357 C 47.022347 29.696303 44.832756 35.172371 45.81922 37.483516 C 46.252269 38.49809 49.758921 38.490408 50.199436 37.483516 C 51.178435 35.245804 49.060362 29.94949 50.077763 27.749703 C 50.560991 26.704886 53.971793 28.519764 54.701324 27.749703 C 55.431865 26.978576 55.627121 23.467574 54.457978 23.126144 C 51.044117 22.129175 44.44758 22.569418 40.952314 23.734505 z "
     id="path860"
     sodipodi:nodetypes="cssssssss" />
  <path
     style="font-size:12;fill:url(#linearGradient864);fill-rule:evenodd;stroke:#000000;stroke-width:1.875;stroke-dasharray:none;"
     d="M 35.331182 23.160011 C 33.498467 23.207653 31.67141 23.707717 31.125898 24.573263 C 29.468425 27.203119 30.44559 33.970607 31.332716 37.430401 C 31.544988 38.258265 34.418491 38.114397 34.748278 37.430401 C 35.407952 36.062188 34.366939 35.49347 34.879848 33.954754 C 35.063228 33.404614 36.219434 33.479867 36.42482 34.007997 C 36.989016 35.458784 35.891001 35.900014 36.641024 37.189113 C 37.063694 37.915578 39.811882 38.086791 40.019038 37.189113 C 40.801342 33.799134 41.395786 26.873875 39.605405 24.331975 C 39.016406 23.495745 37.163897 23.11237 35.331182 23.160011 z M 36.244846 27.040716 C 36.620329 27.649257 36.490905 29.922916 36.140994 30.557939 C 35.941086 30.920735 34.637955 30.915202 34.417518 30.557939 C 34.047411 29.958112 34.177114 27.803354 34.52137 27.178595 C 34.726934 26.805536 36.029784 26.692166 36.244846 27.040716 z "
     id="path862"
     sodipodi:nodetypes="ccccccccccccccc" />
  <path
     style="fill:url(#linearGradient867);fill-rule:evenodd;stroke:none;stroke-opacity:1;stroke-width:1pt;stroke-linejoin:miter;stroke-linecap:butt;fill-opacity:1;"
     d="M 9.083113 32.196813 C 8.9476664 32.042017 8.7873906 25.797169 10.08004 24.332166 C 11.002784 23.286389 15.590841 24.506244 15.729293 24.664475 C 15.849303 24.80163 11.753138 24.200918 10.855428 25.218323 C 9.5377451 26.711697 9.206129 32.337403 9.083113 32.196813 z "
     id="path866"
     sodipodi:nodetypes="cssss" />
  <path
     style="fill:url(#linearGradient869);fill-rule:evenodd;stroke:none;stroke-opacity:1;stroke-width:1pt;stroke-linejoin:miter;stroke-linecap:butt;fill-opacity:1;"
     d="M 18.387765 32.196813 C 18.223411 32.196813 18.641112 26.88315 19.163153 24.664475 C 19.231883 24.372371 20.189579 24.377918 20.16008 24.664475 C 19.931116 26.888697 18.55572 32.196813 18.387765 32.196813 z "
     id="path868"
     sodipodi:nodetypes="csss" />
  <path
     style="fill:url(#linearGradient871);fill-rule:evenodd;stroke:none;stroke-opacity:1;stroke-width:1pt;stroke-linejoin:miter;stroke-linecap:butt;fill-opacity:1;"
     d="M 22.043164 30.313728 C 21.909314 30.179878 25.403765 30.479603 26.030872 29.64911 C 26.769925 28.670365 26.007183 24.751555 26.141642 24.886014 C 26.302569 25.04694 27.65326 29.560259 26.91703 30.535267 C 26.287101 31.369497 22.2047 30.475263 22.043164 30.313728 z "
     id="path870"
     sodipodi:nodetypes="cssss" />
  <path
     style="fill:url(#linearGradient873);fill-rule:evenodd;stroke:none;stroke-opacity:1;stroke-width:1pt;stroke-linejoin:miter;stroke-linecap:butt;fill-opacity:1;"
     d="M 31.790895 33.08297 C 31.654692 32.92731 30.963251 26.807888 32.123204 25.218323 C 32.957106 24.075569 37.635543 24.72954 37.772458 24.886014 C 37.894006 25.024926 33.727135 24.96907 32.898592 26.104481 C 31.733281 27.701389 31.913155 33.222696 31.790895 33.08297 z "
     id="path872"
     sodipodi:nodetypes="cssss" />
  <path
     style="fill:url(#linearGradient875);fill-rule:evenodd;stroke:none;stroke-opacity:1;stroke-width:1pt;stroke-linejoin:miter;stroke-linecap:butt;fill-opacity:1;"
     d="M 34.781677 31.975273 C 34.712293 31.888543 37.204263 31.975078 37.550919 31.310655 C 38.090421 30.27661 37.370861 26.793258 37.440149 26.879869 C 37.518553 26.977875 38.534046 30.82941 37.993997 31.864504 C 37.647889 32.527878 34.859986 32.07316 34.781677 31.975273 z "
     id="path874"
     sodipodi:nodetypes="cssss" />
  <path
     style="fill:url(#linearGradient877);fill-rule:evenodd;stroke:none;stroke-opacity:1;stroke-width:1pt;stroke-linejoin:miter;stroke-linecap:butt;fill-opacity:1;"
     d="M 41.538626 25.993711 C 41.476024 25.910241 41.390589 24.879602 41.760166 24.775245 C 45.220376 23.687418 53.334869 24.146581 53.390981 24.221396 C 53.445639 24.294273 45.515537 24.119487 42.092475 25.218323 C 41.795031 25.30418 41.586793 26.057934 41.538626 25.993711 z "
     id="path876"
     sodipodi:nodetypes="cssss" />
</svg>
