<?xml version="1.0" encoding="UTF-8" standalone="no"?>
<!DOCTYPE svg PUBLIC "-//W3C//DTD SVG 20010904//EN"
"http://www.w3.org/TR/2001/REC-SVG-20010904/DTD/svg10.dtd">
<!-- Created with Inkscape (http://www.inkscape.org/) -->
<svg
   id="svg1"
   sodipodi:version="0.32"
   inkscape:version="0.40"
   width="48pt"
   height="48pt"
   sodipodi:docbase="/home/stefan/software/Lila-themes/new-lila-icons"
   sodipodi:docname="xfcalendar2.svg"
   xmlns="http://www.w3.org/2000/svg"
   xmlns:cc="http://web.resource.org/cc/"
   xmlns:inkscape="http://www.inkscape.org/namespaces/inkscape"
   xmlns:sodipodi="http://sodipodi.sourceforge.net/DTD/sodipodi-0.dtd"
   xmlns:rdf="http://www.w3.org/1999/02/22-rdf-syntax-ns#"
   xmlns:dc="http://purl.org/dc/elements/1.1/"
   xmlns:xlink="http://www.w3.org/1999/xlink">
  <metadata
     id="metadata1845">
    <rdf:RDF
       id="RDF1846">
      <cc:Work
         rdf:about=""
         id="Work1847">
        <dc:format
           id="format1848">image/svg+xml</dc:format>
        <dc:type
           id="type1850"
           rdf:resource="http://purl.org/dc/dcmitype/StillImage" />
      </cc:Work>
    </rdf:RDF>
  </metadata>
  <defs
     id="defs3">
    <linearGradient
       id="linearGradient635">
      <stop
         style="stop-color:#ffffff;stop-opacity:1.0000000;"
         offset="0.0000000"
         id="stop636" />
      <stop
         style="stop-color:#d9cce6;stop-opacity:1.0000000;"
         offset="1.0000000"
         id="stop637" />
    </linearGradient>
    <linearGradient
       id="linearGradient1535">
      <stop
         style="stop-color:#ffffff;stop-opacity:1;"
         offset="0"
         id="stop1537" />
      <stop
         style="stop-color:#ffffff;stop-opacity:0;"
         offset="1"
         id="stop1536" />
    </linearGradient>
    <linearGradient
       inkscape:collect="always"
       xlink:href="#linearGradient1528"
       id="linearGradient3588"
       gradientUnits="userSpaceOnUse"
       gradientTransform="matrix(1.189411,0.318702,-0.165456,0.617489,4.676304,6.157418)"
       x1="0.31789720"
       y1="21.111998"
       x2="42.499680"
       y2="62.222683" />
    <linearGradient
       id="linearGradient1528">
      <stop
         style="stop-color:#d9cce6;stop-opacity:1;"
         offset="0.00000000"
         id="stop1530" />
      <stop
         style="stop-color:#73667f;stop-opacity:1;"
         offset="1.00000000"
         id="stop1529" />
    </linearGradient>
    <linearGradient
       id="linearGradient703">
      <stop
         style="stop-color:#d9cce6;stop-opacity:1;"
         offset="0.00000000"
         id="stop704" />
      <stop
         style="stop-color:#73667f;stop-opacity:1;"
         offset="1.00000000"
         id="stop705" />
    </linearGradient>
    <linearGradient
       id="linearGradient866">
      <stop
         style="stop-color:#ffffff;stop-opacity:1;"
         offset="0.00000000"
         id="stop867" />
      <stop
         style="stop-color:#d9cce6;stop-opacity:1;"
         offset="1.00000000"
         id="stop868" />
    </linearGradient>
    <linearGradient
       id="linearGradient584">
      <stop
         style="stop-color:#ffffff;stop-opacity:1;"
         offset="0.00000000"
         id="stop585" />
      <stop
         style="stop-color:#ffffff;stop-opacity:0;"
         offset="1.00000000"
         id="stop586" />
    </linearGradient>
    <linearGradient
       xlink:href="#linearGradient866"
       id="linearGradient586"
       x1="-0.00000000"
       y1="0.01562500"
       x2="0.99122804"
       y2="0.98437500" />
    <linearGradient
       xlink:href="#linearGradient703"
       id="linearGradient587"
       x1="0.50177938"
       y1="-0.32394367"
       x2="0.48398575"
       y2="0.76760566" />
    <linearGradient
       xlink:href="#linearGradient703"
       id="linearGradient700" />
    <linearGradient
       xlink:href="#linearGradient584"
       id="linearGradient701" />
    <linearGradient
       xlink:href="#linearGradient584"
       id="linearGradient702" />
    <linearGradient
       xlink:href="#linearGradient703"
       id="linearGradient845" />
    <radialGradient
       xlink:href="#linearGradient703"
       id="radialGradient846" />
    <linearGradient
       xlink:href="#linearGradient703"
       id="linearGradient847"
       x1="0.00000000"
       y1="-0.00000000"
       x2="1.00000000"
       y2="-0.00000000" />
    <linearGradient
       xlink:href="#linearGradient703"
       id="linearGradient848"
       x1="0.01219511"
       y1="0.01562503"
       x2="0.99999994"
       y2="1.00000012" />
    <linearGradient
       xlink:href="#linearGradient584"
       id="linearGradient849"
       x1="0.00000000"
       y1="-0.00000000"
       x2="0.98514849"
       y2="1.02343750" />
    <linearGradient
       xlink:href="#linearGradient703"
       id="linearGradient850"
       x1="-0.00000000"
       y1="0.00000000"
       x2="1.00000000"
       y2="0.95652175" />
    <linearGradient
       xlink:href="#linearGradient584"
       id="linearGradient863"
       x1="-0.00000000"
       y1="-0.00000000"
       x2="0.99635035"
       y2="0.82142860" />
    <linearGradient
       inkscape:collect="always"
       xlink:href="#linearGradient866"
       id="linearGradient1865"
       x1="4.7026321"
       y1="11.873440"
       x2="46.509282"
       y2="52.732042"
       gradientTransform="scale(1.122320,0.891012)"
       gradientUnits="userSpaceOnUse" />
    <linearGradient
       inkscape:collect="always"
       xlink:href="#linearGradient703"
       id="linearGradient1866"
       x1="33.760528"
       y1="19.542143"
       x2="33.551956"
       y2="32.337027"
       gradientTransform="scale(0.993311,1.006734)"
       gradientUnits="userSpaceOnUse" />
    <linearGradient
       inkscape:collect="always"
       xlink:href="#linearGradient866"
       id="linearGradient4243"
       gradientUnits="userSpaceOnUse"
       gradientTransform="scale(1.122320,0.891012)"
       x1="4.7026321"
       y1="11.873440"
       x2="46.509282"
       y2="52.732042" />
    <linearGradient
       inkscape:collect="always"
       xlink:href="#linearGradient703"
       id="linearGradient4244"
       gradientUnits="userSpaceOnUse"
       gradientTransform="matrix(1.041983,0.000000,0.000000,1.056064,2.558897,-9.715549)"
       x1="33.760528"
       y1="19.542143"
       x2="33.551956"
       y2="32.337027" />
    <linearGradient
       inkscape:collect="always"
       xlink:href="#linearGradient1535"
       id="linearGradient1888"
       gradientUnits="userSpaceOnUse"
       gradientTransform="matrix(0.460486,0.313805,-1.010573,1.482946,4.874122,3.646631)"
       x1="85.100677"
       y1="9.9667797"
       x2="88.649323"
       y2="11.340681" />
    <linearGradient
       inkscape:collect="always"
       xlink:href="#linearGradient1535"
       id="linearGradient1889"
       gradientUnits="userSpaceOnUse"
       gradientTransform="matrix(0.405391,0.276260,-1.147916,1.684486,4.874122,3.646631)"
       x1="87.684067"
       y1="9.6562166"
       x2="90.928749"
       y2="10.483172" />
    <linearGradient
       inkscape:collect="always"
       xlink:href="#linearGradient1535"
       id="linearGradient1890"
       gradientUnits="userSpaceOnUse"
       gradientTransform="matrix(1.144337,0.779824,-0.406660,0.596744,0.000000,0.000000)"
       x1="21.151884"
       y1="27.744453"
       x2="35.526291"
       y2="28.244625" />
    <linearGradient
       inkscape:collect="always"
       xlink:href="#linearGradient635"
       id="linearGradient1891"
       gradientUnits="userSpaceOnUse"
       gradientTransform="matrix(1.070509,0.729514,-0.384287,0.563914,-8.028988,-5.102652)"
       x1="51.308346"
       y1="41.828663"
       x2="55.511063"
       y2="49.427254" />
    <linearGradient
       inkscape:collect="always"
       xlink:href="#linearGradient635"
       id="linearGradient1892"
       gradientUnits="userSpaceOnUse"
       gradientTransform="matrix(1.070509,0.729514,-0.384287,0.563914,-23.96450,-11.96012)"
       x1="62.744781"
       y1="29.903538"
       x2="66.546616"
       y2="37.299068" />
    <linearGradient
       inkscape:collect="always"
       xlink:href="#linearGradient1528"
       id="linearGradient1893"
       gradientUnits="userSpaceOnUse"
       gradientTransform="matrix(0.905529,1.051771,-0.546033,0.470110,0.000000,0.000000)"
       x1="9.0189877"
       y1="12.345951"
       x2="56.797558"
       y2="-4.4820733" />
  </defs>
  <sodipodi:namedview
     id="base"
     pagecolor="#ffffff"
     bordercolor="#666666"
     borderopacity="1.0"
     inkscape:pageopacity="0.0"
     inkscape:pageshadow="2"
     inkscape:zoom="7.9444444"
     inkscape:cx="17.909789"
     inkscape:cy="17.936487"
     inkscape:window-width="1022"
     inkscape:window-height="695"
     inkscape:window-x="0"
     inkscape:window-y="26"
     inkscape:current-layer="svg1"
     showguides="true"
     inkscape:guide-bbox="true" />
  <path
     d="M 7.2081722,48.167484 C 10.011414,49.315507 50.839668,49.399571 53.483411,48.785163 C 55.453240,47.704646 54.795554,13.294821 53.808656,12.019318 C 52.782810,10.613077 11.023166,11.461660 9.4090566,12.423489 C 7.4208206,13.615197 6.3581090,46.351023 7.2081722,48.167484 z "
     style="font-size:12.000000;opacity:0.30267498;fill-rule:evenodd;stroke-width:12.500000;"
     id="path639"
     sodipodi:nodetypes="ccccc"
     transform="matrix(1.049000,0.000000,0.000000,1.049000,2.558897,-9.715549)" />
  <path
     d="M 7.0927670,45.698612 C 9.7212683,46.549059 47.944170,47.400659 51.061201,46.302902 C 52.459154,45.057982 51.873599,12.145400 50.523576,11.169277 C 48.869990,10.506850 9.0607238,10.656087 7.0563915,11.320513 C 5.6815245,12.666083 5.6732710,44.225792 7.0927670,45.698612 z "
     style="font-size:12.000000;fill:url(#linearGradient4243);fill-rule:evenodd;stroke:#261933;stroke-width:1.4976200;"
     id="path634"
     sodipodi:nodetypes="ccccc"
     transform="matrix(1.049000,0.000000,0.000000,1.049000,2.558897,-9.715549)" />
  <path
     style="font-size:12.000000;fill:none;fill-opacity:0.75000000;fill-rule:evenodd;stroke:#261933;stroke-width:1.0015579pt;stroke-linecap:round"
     d="M 11.245314,14.625563 L 53.890726,14.372692"
     id="path637" />
  <rect
     style="font-size:12.000000;fill:url(#linearGradient4244);fill-opacity:0.75000000;fill-rule:evenodd;stroke:none;stroke-width:1.0000000pt"
     id="rect637"
     width="12.213881"
     height="12.378934"
     x="31.608126"
     y="14.932282" />
  <path
     style="font-size:12.000000;fill:none;fill-opacity:0.75000000;fill-rule:evenodd;stroke:#261933;stroke-width:0.99851370pt;stroke-linecap:round"
     d="M 54.574071,26.510501 L 11.156512,26.889808"
     id="path638" />
  <path
     style="font-size:12.000000;fill:none;fill-opacity:0.75000000;fill-rule:evenodd;stroke:#261933;stroke-width:0.75490499pt;stroke-linecap:round;"
     d="M 15.598765,12.879668 L 16.321943,43.995161 L 16.321943,43.926473"
     id="path642"
     transform="matrix(1.049000,0.000000,0.000000,1.049000,2.558897,-9.715549)" />
  <path
     style="font-size:12.000000;fill:none;fill-opacity:0.75000000;fill-rule:evenodd;stroke:#261933;stroke-width:0.74867501pt;stroke-linecap:round;"
     d="M 27.420753,12.994543 L 28.384989,44.071504"
     id="path643"
     transform="matrix(1.049000,0.000000,0.000000,1.049000,2.558897,-9.715549)" />
  <path
     style="font-size:12.000000;fill:none;fill-opacity:0.75000000;fill-rule:evenodd;stroke:#261933;stroke-width:0.74861798pt;stroke-linecap:round;"
     d="M 39.714768,44.138107 L 38.871061,12.728128"
     id="path644"
     transform="matrix(1.049000,0.000000,0.000000,1.049000,2.558897,-9.715549)" />
  <path
     d="M 9.5009051,51.549086 C 9.6123791,50.220968 11.856256,49.017843 11.318851,47.895929 C 10.093215,48.219750 7.2000386,47.853120 9.4013151,46.436521 C 11.199395,45.777026 12.151525,44.393922 12.298110,42.486823 C 13.012991,40.030334 14.446113,37.788705 16.451618,36.206730 C 16.865830,34.442536 14.937554,32.819106 14.138717,31.309878 C 11.842658,27.933937 8.8241176,25.189012 5.8490726,22.448584 C 4.9545656,21.436496 2.8656246,19.754678 2.9404706,18.852225 C 5.2662306,21.025039 7.6302796,23.163405 10.254575,24.968429 C 13.572943,27.606763 16.003671,31.195648 18.004715,34.915279 C 19.761551,35.023060 21.952220,34.622527 23.607034,35.884564 C 26.394290,37.245312 28.778432,39.492627 32.089936,39.583462 C 34.072288,39.122039 35.446155,37.302301 35.328631,35.235918 C 35.281827,32.872713 38.627269,32.301158 38.533676,34.970754 C 38.829246,35.837770 38.599388,39.014154 39.846173,37.871269 C 40.072893,36.221878 39.895240,33.949870 41.507102,33.001273 C 43.659952,32.411037 43.831762,35.239438 43.318032,36.664340 C 42.864062,37.981045 42.294022,39.287378 44.074932,39.872506 C 46.898132,41.117817 49.978602,42.892935 51.356642,45.911765 C 52.114082,47.387605 51.176282,49.076621 49.611552,49.432445 C 46.699752,50.609823 43.519992,50.639023 40.487912,51.285921 C 38.768776,52.290822 40.224229,54.223909 40.662452,55.535616 C 41.549482,56.835827 40.645352,58.430727 39.384985,56.920663 C 38.418475,56.566232 36.914857,54.337544 36.091006,55.283327 C 36.261443,56.727948 38.261322,58.868562 36.511357,59.888971 C 34.267829,58.690244 32.672193,56.556434 30.586362,55.133383 C 25.404478,54.132539 20.165739,52.681252 15.710110,49.743189 C 14.045315,49.869542 12.551431,50.983998 10.944304,51.467249 C 10.553938,51.543061 9.6804201,52.186252 9.5009051,51.549086 z M 51.118092,43.350153 C 51.725832,42.539846 53.383572,40.775131 53.933212,41.023588 C 53.181522,41.669508 51.797512,43.614299 51.118092,43.350153 z M 50.379822,42.093374 C 50.576222,41.480728 52.247512,38.461400 51.462532,40.590440 C 51.412982,40.990366 49.726762,44.019762 50.379822,42.093374 z "
     id="path1881"
     style="opacity:0.30303028;fill:#000000;fill-opacity:1.0000000;stroke:none;stroke-width:1.7629158;stroke-linecap:round;stroke-linejoin:round;stroke-miterlimit:4.0000000;stroke-opacity:1.0000000"
     sodipodi:nodetypes="ccccccccccccccccccccccccccccccccccc" />
  <path
     d="M 8.2613536,48.409617 C 8.3728286,47.081499 10.616703,45.878374 10.079300,44.756460 C 8.8536636,45.080281 5.9604866,44.713651 8.1617646,43.297052 C 9.9598431,42.637557 10.911973,41.254453 11.058558,39.347353 C 11.773439,36.890865 13.206561,34.649237 15.212066,33.067260 C 15.626278,31.303067 13.698002,29.679637 12.899165,28.170409 C 10.603106,24.794468 7.5845646,22.049544 4.6095216,19.309114 C 3.7150136,18.297027 1.6260716,16.615209 1.7009186,15.712755 C 4.0266786,17.885569 6.3907276,20.023935 9.0150236,21.828960 C 12.333391,24.467294 14.764120,28.056180 16.765164,31.775810 C 18.521999,31.883591 20.712668,31.483058 22.367482,32.745095 C 25.154739,34.105844 27.538880,36.353158 30.850384,36.443993 C 32.832736,35.982570 34.206603,34.162832 34.089079,32.096449 C 34.042275,29.733244 37.387717,29.161688 37.294125,31.831284 C 37.589694,32.698299 37.359836,35.874686 38.606621,34.731801 C 38.833341,33.082409 38.655688,30.810401 40.267550,29.861803 C 42.420402,29.271569 42.592212,32.099967 42.078482,33.524871 C 41.624512,34.841578 41.054472,36.147907 42.835382,36.733036 C 45.658582,37.978348 48.739052,39.753466 50.117092,42.772296 C 50.874522,44.248136 49.936732,45.937151 48.372002,46.292975 C 45.460202,47.470354 42.280442,47.499554 39.248362,48.146452 C 37.529225,49.151353 38.984677,51.084439 39.422903,52.396147 C 40.309929,53.696358 39.405800,55.291258 38.145433,53.781194 C 37.178923,53.426763 35.675306,51.198075 34.851455,52.143858 C 35.021891,53.588479 37.021770,55.729093 35.271807,56.749502 C 33.028277,55.550775 31.432642,53.416965 29.346810,51.993914 C 24.164926,50.993070 18.926187,49.541783 14.470559,46.603719 C 12.805763,46.730073 11.311879,47.844529 9.7047521,48.327779 C 9.3143871,48.403591 8.4408686,49.046783 8.2613536,48.409617 z M 49.878542,40.210683 C 50.486282,39.400377 52.144012,37.635662 52.693662,37.884118 C 51.941972,38.530039 50.557962,40.474830 49.878542,40.210683 z M 49.140272,38.953904 C 49.336672,38.341259 51.007962,35.321932 50.222982,37.450971 C 50.173432,37.850897 48.487212,40.880292 49.140272,38.953904 z "
     id="path3020"
     style="fill:url(#linearGradient1893);fill-opacity:1.0;stroke:#261933;stroke-width:1.7629158;stroke-linecap:round;stroke-linejoin:round;stroke-miterlimit:4.0000000;stroke-opacity:1.0000000;"
     sodipodi:nodetypes="ccccccccccccccccccccccccccccccccccc" />
  <path
     d="M 40.827442,41.400476 C 42.323922,40.951129 39.150955,40.236633 39.770015,38.968732 C 39.018003,37.697038 38.864231,41.109552 40.011415,41.261744 C 40.240186,41.449886 40.555942,41.413252 40.827442,41.400476 z M 41.818562,40.238884 C 44.105022,38.774752 39.975258,37.116974 40.746912,39.832849 C 40.948192,40.203590 41.423362,40.368290 41.818562,40.238884 z "
     id="path1883"
     style="fill:url(#linearGradient1892);fill-opacity:1.0000000;stroke:#261933;stroke-width:0.58763862;stroke-linecap:round;stroke-linejoin:round;stroke-miterlimit:4.0000000;stroke-opacity:1.0000000"
     sodipodi:nodetypes="ccccccc" />
  <path
     d="M 40.983352,46.747719 C 41.777812,46.779151 44.604372,45.428136 42.918132,45.110016 C 42.504032,45.089692 39.085701,46.961242 40.983352,46.747719 z M 40.600312,44.661197 C 41.392292,44.810736 44.804532,44.283364 42.595202,43.804110 C 41.914082,43.946560 39.445011,43.870737 39.841380,44.658016 C 40.093898,44.679297 40.347378,44.662039 40.600312,44.661197 z "
     id="path1884"
     style="fill:url(#linearGradient1891);fill-opacity:1.0000000;stroke:#261933;stroke-width:0.58763862;stroke-linecap:round;stroke-linejoin:round;stroke-miterlimit:4.0000000;stroke-opacity:1.0000000"
     sodipodi:nodetypes="ccccccc" />
  <path
     style="fill:url(#linearGradient1890);fill-opacity:1.0;fill-rule:evenodd;stroke:none;stroke-width:0.25000000pt;stroke-linecap:butt;stroke-linejoin:miter;stroke-opacity:1.0000000;"
     d="M 12.733263,38.209813 C 12.427499,37.749229 15.495684,33.038347 17.295656,32.837808 C 18.860412,32.663475 20.641349,32.851878 24.315602,35.035906 C 29.469689,38.099567 31.152153,37.465834 31.248742,37.749130 C 31.818860,39.421311 21.327064,35.178457 18.388437,35.505857 C 16.397580,35.727664 13.019695,38.641276 12.733263,38.209813 z "
     id="path1885"
     sodipodi:nodetypes="csssss" />
  <path
     style="fill:url(#linearGradient1889);fill-opacity:1.0000000;fill-rule:evenodd;stroke:none;stroke-width:0.25000000pt;stroke-linecap:butt;stroke-linejoin:miter;stroke-opacity:1.0000000"
     d="M 34.939023,33.199298 C 34.922031,33.055833 34.936491,31.994037 35.193176,31.454803 C 35.449863,30.915569 36.118522,30.991217 36.200123,31.068946 C 36.281723,31.146674 36.036187,31.413878 35.582915,31.833794 C 35.133290,32.250330 34.954929,33.333585 34.939023,33.199298 z "
     id="path1886"
     sodipodi:nodetypes="czzzz" />
  <path
     style="fill:url(#linearGradient1888);fill-opacity:1.0000000;fill-rule:evenodd;stroke:none;stroke-width:0.25000000pt;stroke-linecap:butt;stroke-linejoin:miter;stroke-opacity:1.0000000"
     d="M 39.654032,33.732917 C 39.600384,33.657160 39.793474,31.761905 40.199687,31.170460 C 40.611512,30.570851 41.014242,30.739223 41.067892,30.814980 C 41.121532,30.890736 40.808342,31.102953 40.547492,31.546492 C 40.286651,31.990029 39.707681,33.808673 39.654032,33.732917 z "
     id="path1887"
     sodipodi:nodetypes="czzzz" />
</svg>
