<?xml version="1.0" encoding="UTF-8" standalone="no"?>
<!DOCTYPE svg PUBLIC "-//W3C//DTD SVG 20010904//EN"
"http://www.w3.org/TR/2001/REC-SVG-20010904/DTD/svg10.dtd">
<!-- Created with Inkscape (http://www.inkscape.org/) -->
<svg
   version="1.0"
   x="0"
   y="0"
   width="48pt"
   height="48pt"
   id="svg611"
   sodipodi:version="0.32"
   inkscape:version="0.38.1"
   sodipodi:docname="gnome-settings-background.svg"
   sodipodi:docbase="/home/scaba/files/lila-artwork/devel/lila-gnome-0.5.1_pre2/lila-gnome/Lila/scalable/apps"
   xmlns="http://www.w3.org/2000/svg"
   xmlns:inkscape="http://www.inkscape.org/namespaces/inkscape"
   xmlns:sodipodi="http://sodipodi.sourceforge.net/DTD/sodipodi-0.dtd"
   xmlns:xlink="http://www.w3.org/1999/xlink">
  <sodipodi:namedview
     id="base"
     pagecolor="#ffffff"
     bordercolor="#666666"
     borderopacity="1.0"
     inkscape:pageopacity="0.0"
     inkscape:pageshadow="2"
     inkscape:zoom="5.6568542"
     inkscape:cx="34.493998"
     inkscape:cy="21.777704"
     inkscape:window-width="671"
     inkscape:window-height="525"
     inkscape:window-x="46"
     inkscape:window-y="85" />
  <defs
     id="defs613">
    <linearGradient
       x1="0.96277922"
       y1="0.00000272"
       x2="0.00531922"
       y2="0.98437500"
       id="linearGradient585"
       xlink:href="#linearGradient558"
       gradientUnits="objectBoundingBox"
       spreadMethod="pad" />
    <linearGradient
       x1="0.57826090"
       y1="0.97656250"
       x2="0.29130435"
       y2="0.51562500"
       id="linearGradient583"
       xlink:href="#linearGradient564"
       gradientUnits="objectBoundingBox"
       spreadMethod="pad" />
    <linearGradient
       x1="0.03246462"
       y1="0.98445034"
       x2="0.69480515"
       y2="0.24218844"
       id="linearGradient575"
       xlink:href="#linearGradient564"
       gradientUnits="objectBoundingBox"
       spreadMethod="pad" />
    <linearGradient
       x1="0.00000000"
       y1="0.00000000"
       x2="1.00000000"
       y2="0.00000000"
       id="linearGradient576"
       gradientUnits="objectBoundingBox"
       spreadMethod="pad">
      <stop
         style="stop-color:#000000;stop-opacity:1;"
         offset="0.00000000"
         id="stop577" />
      <stop
         style="stop-color:#000000;stop-opacity:0;"
         offset="1.00000000"
         id="stop578" />
    </linearGradient>
    <radialGradient
       cx="0.48876417"
       cy="0.98437452"
       fx="0.49438202"
       fy="0.86718750"
       r="0.79719150"
       id="radialGradient579"
       xlink:href="#linearGradient576"
       gradientUnits="objectBoundingBox"
       spreadMethod="pad" />
    <linearGradient
       x1="0.00000000"
       y1="0.00000000"
       x2="1.00000000"
       y2="0.00000000"
       id="linearGradient564"
       gradientUnits="objectBoundingBox"
       spreadMethod="pad">
      <stop
         style="stop-color:#7f7366;stop-opacity:1;"
         offset="0.00000000"
         id="stop565" />
      <stop
         style="stop-color:#7f7366;stop-opacity:0;"
         offset="1.00000000"
         id="stop566" />
    </linearGradient>
    <linearGradient
       x1="0.49351925"
       y1="0.99222833"
       x2="0.49350709"
       y2="0.01562530"
       id="linearGradient563"
       xlink:href="#linearGradient564"
       gradientUnits="objectBoundingBox"
       spreadMethod="pad" />
    <linearGradient
       x1="0.00000000"
       y1="0.00000000"
       x2="1.00000000"
       y2="0.00000000"
       id="linearGradient569"
       gradientUnits="objectBoundingBox"
       spreadMethod="pad">
      <stop
         style="stop-color:#736b7f;stop-opacity:1;"
         offset="0.00000000"
         id="stop570" />
      <stop
         style="stop-color:#f3ebff;stop-opacity:1;"
         offset="1.00000000"
         id="stop571" />
    </linearGradient>
    <linearGradient
       x1="0.12337894"
       y1="0.99219656"
       x2="0.82467574"
       y2="0.00000038"
       id="linearGradient572"
       xlink:href="#linearGradient569"
       gradientUnits="objectBoundingBox"
       spreadMethod="pad" />
    <radialGradient
       cx="0.14615387"
       cy="0.39062509"
       fx="0.14615387"
       fy="0.39062509"
       r="0.52400964"
       id="radialGradient587"
       xlink:href="#linearGradient558"
       gradientUnits="objectBoundingBox"
       spreadMethod="pad" />
    <linearGradient
       x1="0.00000000"
       y1="0.00000000"
       x2="1.00000000"
       y2="0.00000000"
       id="linearGradient558"
       gradientUnits="objectBoundingBox"
       spreadMethod="pad">
      <stop
         style="stop-color:#ffffff;stop-opacity:1;"
         offset="0.00000000"
         id="stop559" />
      <stop
         style="stop-color:#ffffff;stop-opacity:0;"
         offset="1.00000000"
         id="stop560" />
    </linearGradient>
    <radialGradient
       cx="0.13076705"
       cy="0.41407111"
       fx="0.13076705"
       fy="0.41407111"
       r="0.75421256"
       id="radialGradient592"
       xlink:href="#linearGradient558"
       gradientUnits="objectBoundingBox"
       spreadMethod="pad" />
    <linearGradient
       id="linearGradient1535">
      <stop
         style="stop-color:#ffffff;stop-opacity:1;"
         offset="0"
         id="stop1537" />
      <stop
         style="stop-color:#ffffff;stop-opacity:0;"
         offset="1"
         id="stop1536" />
    </linearGradient>
    <linearGradient
       id="linearGradient1528">
      <stop
         style="stop-color:#d9cce6;stop-opacity:1.0000000;"
         offset="0.0000000"
         id="stop1530" />
      <stop
         style="stop-color:#73667f;stop-opacity:1.0000000;"
         offset="1.0000000"
         id="stop1529" />
    </linearGradient>
    <linearGradient
       id="linearGradient642">
      <stop
         style="stop-color:#ffffff;stop-opacity:1;"
         offset="0"
         id="stop643" />
      <stop
         style="stop-color:#ffffff;stop-opacity:0;"
         offset="1"
         id="stop644" />
    </linearGradient>
    <linearGradient
       id="linearGradient635">
      <stop
         style="stop-color:#ffffff;stop-opacity:1.0000000;"
         offset="0.0000000"
         id="stop636" />
      <stop
         style="stop-color:#d9cce6;stop-opacity:1.0000000;"
         offset="1.0000000"
         id="stop637" />
    </linearGradient>
    <linearGradient
       x1="0.00833333"
       y1="0.00000000"
       x2="0.94166666"
       y2="0.95312500"
       id="linearGradient638"
       xlink:href="#linearGradient1528" />
    <linearGradient
       x1="0.027523"
       y1="0.023438"
       x2="1.000000"
       y2="1.015625"
       id="linearGradient641"
       xlink:href="#linearGradient642" />
    <linearGradient
       x1="-0.000009"
       y1="0.015624"
       x2="0.727272"
       y2="0.984375"
       id="linearGradient1522"
       xlink:href="#linearGradient642" />
    <linearGradient
       x1="0.027523"
       y1="0.007813"
       x2="1.009174"
       y2="0.992188"
       id="linearGradient1527"
       xlink:href="#linearGradient1535" />
    <linearGradient
       id="linearGradient1532"
       xlink:href="#linearGradient635" />
    <linearGradient
       id="linearGradient1534"
       xlink:href="#linearGradient1528"
       x1="0.00000000"
       y1="0.00000000"
       x2="1.00000000"
       y2="0.00000000" />
    <linearGradient
       id="linearGradient1539"
       xlink:href="#linearGradient1528"
       x1="0.00000000"
       y1="-0.00000000"
       x2="1.00000000"
       y2="-0.00000000" />
    <linearGradient
       id="linearGradient1567"
       xlink:href="#linearGradient635"
       x1="0.66521740"
       y1="0.21093750"
       x2="0.32608697"
       y2="0.73437500" />
  </defs>
  <path
     d="M 11.323296 57.160451 C 11.951521 57.577304 14.621051 58.71284 15.942291 58.429631 C 17.047672 58.07211 55.203686 45.61152 56.142616 44.148515 C 57.124721 42.551005 55.856932 11.468189 54.696814 10.413698 C 53.445181 9.265018 12.788123 5.1677725 11.53798 5.1310154 C 10.405014 4.9884573 7.6400123 5.9645902 7.1064044 6.5581759 C 6.0443342 7.7273842 10.152592 56.301396 11.323296 57.160451 z "
     style="font-size:12;opacity:0.3;fill-rule:evenodd;stroke-width:12.5;"
     id="path839" />
  <path
     d="M 10.710824 54.464037 C 11.309499 54.860979 13.851862 55.942451 15.110416 55.672891 C 16.163471 55.332261 52.506055 43.463828 53.400251 42.070343 C 54.335686 40.548752 53.128257 10.943036 52.023269 9.9385553 C 50.831206 8.844563 12.106038 4.9420868 10.915404 4.907046 C 9.8362807 4.7712615 7.2027255 5.7009364 6.6944162 6.2663239 C 5.6828474 7.3800001 9.5957511 53.645804 10.710824 54.464037 z "
     style="font-size:12;fill:url(#linearGradient638);fill-rule:evenodd;stroke:#261933;stroke-width:1.875;stroke-dasharray:none;"
     id="path834" />
  <path
     d="M 14.383126 53.660677 C 14.070498 53.348051 10.313979 7.7669659 10.825691 6.4958449 C 11.139641 6.1159772 50.332629 10.543036 50.646074 10.856477 C 50.944548 11.155154 14.326404 6.3756002 12.77671 8.676233 C 11.094427 11.058617 14.682413 53.959959 14.383126 53.660677 z "
     style="font-size:12;opacity:0.7;fill:url(#linearGradient641);fill-rule:evenodd;stroke:none;stroke-width:0.105188pt;"
     id="path835" />
  <path
     d="M 11.514286 52.972175 C 11.398196 52.797942 8.00685 21.776137 7.8420129 7.1843481 C 7.8321255 6.6661201 9.7765052 6.2993477 9.9075644 6.4958449 C 10.006036 6.6436043 8.5226851 7.8148987 8.5305678 8.2171495 C 8.701402 22.810149 11.627626 53.142245 11.514286 52.972175 z "
     style="font-size:12;opacity:0.699936;fill:url(#linearGradient1522);fill-rule:evenodd;stroke:none;stroke-width:0.105188pt;"
     id="path836" />
  <path
     d="M 15.177322 10.961774 C 14.558788 11.749148 16.374674 48.355066 17.31663 49.041019 C 18.289339 49.671571 48.857076 39.875433 49.619702 38.879506 C 50.338948 38.047123 49.355237 14.69976 48.871027 13.849962 C 48.247804 12.943851 15.852983 10.20882 15.177322 10.961774 z "
     style="font-size:12;fill:#261933;fill-rule:evenodd;stroke:#261933;stroke-width:0.613348;fill-opacity:0.50000000;"
     id="path837" />
  <path
     d="M 17.744431 47.008737 C 17.506854 46.716067 15.346975 12.931632 15.926202 12.138455 C 16.692801 11.234891 45.424386 13.9854 45.661957 14.277763 C 45.888033 14.555666 19.622945 11.623281 17.31663 13.84986 C 15.744634 15.369718 17.970295 47.286535 17.744431 47.008737 z "
     style="font-size:12;opacity:0.699936;fill:url(#linearGradient1527);fill-rule:evenodd;stroke:none;stroke-width:0.0980447pt;"
     id="path838" />
  <path
     d="M 81.641970,62.736937 C 81.308066,61.740636 74.817708,60.033840 74.248290,55.362262 C 73.676386,50.597120 80.533246,43.521555 87.368473,43.384719 C 96.536198,43.128003 108.41199,54.012759 109.23681,60.179300 C 110.16542,67.039380 87.321105,81.782735 80.861741,80.975018 C 74.584240,80.263359 72.994250,75.022654 73.795824,71.396058 C 74.620495,67.811567 81.801028,63.660287 81.641970,62.736937 z "
     style="font-size:12.000000;opacity:0.29636899;fill-rule:evenodd;stroke-width:1.0000000pt;"
     id="path1256"
     transform="matrix(0.735204,0.000000,0.000000,0.735204,-31.97807,-16.79437)" />
  <path
     d="M 81.442312,62.019860 C 81.136201,61.106487 75.186069,59.541756 74.664045,55.259018 C 74.139742,50.890504 80.425873,44.403873 86.692168,44.278427 C 95.096817,44.043080 105.98413,54.021842 106.74029,59.675110 C 107.59161,65.964189 86.648744,79.480380 80.727025,78.739898 C 74.972032,78.087469 73.514386,73.282975 74.249240,69.958240 C 75.005270,66.672103 81.588129,62.866356 81.442312,62.019860 z "
     style="font-size:12.000000;fill:#bfb8cc;fill-rule:evenodd;stroke:#261e2e;stroke-width:1.4058000;"
     id="path1257"
     transform="matrix(0.735204,0.000000,0.000000,0.735204,-31.97807,-16.79437)" />
  <path
     d="M 85.353570,60.335037 C 85.056519,59.448695 77.960186,57.924551 76.887081,55.142099 C 75.756751,52.395803 80.933692,46.473631 86.996067,45.984614 C 93.784162,45.430570 104.47190,53.676350 105.73437,59.297308 C 106.63125,63.420914 86.177094,76.551139 80.490975,75.453062 C 75.622790,74.624466 75.439020,72.014079 76.093729,70.057623 C 76.956792,67.573524 85.495071,61.156482 85.353570,60.335037 z "
     style="font-size:12.000000;fill:url(#radialGradient592);fill-rule:evenodd;stroke-width:1.0000000pt;"
     id="path557"
     transform="matrix(0.735204,0.000000,0.000000,0.735204,-31.97807,-16.79437)" />
  <path
     d="M 85.422730,60.386489 C 85.126685,59.503149 78.054399,57.984169 76.984932,55.211146 C 75.858430,52.474156 81.017829,46.572052 87.059661,46.084692 C 93.824755,45.532526 104.47628,53.750363 105.73447,59.352275 C 106.62831,63.461907 86.243464,76.547637 80.576613,75.453282 C 75.724926,74.627494 75.541777,72.025952 76.194268,70.076127 C 77.054405,67.600445 85.563753,61.205148 85.422730,60.386489 z "
     style="font-size:12.000000;fill:url(#radialGradient587);fill-rule:evenodd;stroke-width:1.0000000pt;"
     id="path1259"
     transform="matrix(0.735204,0.000000,0.000000,0.735204,-31.97807,-16.79437)" />
  <path
     d="M 86.258766,51.907724 C 89.544915,48.856415 95.117625,53.892480 93.478387,56.798463 C 91.555015,59.974864 83.023772,54.911597 86.258766,51.907724 z "
     style="font-size:12.000000;fill:url(#linearGradient572);fill-rule:evenodd;stroke-width:1.0000000pt;"
     id="path1260"
     transform="matrix(0.735204,0.000000,0.000000,0.735204,-31.97807,-16.79437)" />
  <path
     d="M 87.696915,52.956521 C 89.591078,51.197723 92.803232,54.100550 91.858363,55.775583 C 90.749715,57.606485 85.832238,54.687978 87.696915,52.956521 z "
     style="font-size:12.000000;fill:#bfb8cc;fill-rule:evenodd;stroke-width:1.0000000pt;"
     id="path1261"
     transform="matrix(0.735204,0.000000,0.000000,0.735204,-31.97807,-16.79437)" />
  <path
     d="M 87.696915,52.956521 C 89.591078,51.197723 92.803232,54.100550 91.858363,55.775583 C 90.749715,57.606485 85.832238,54.687978 87.696915,52.956521 z "
     style="font-size:12.000000;fill:url(#linearGradient563);fill-rule:evenodd;stroke-width:1.0000000pt;"
     id="path567"
     transform="matrix(0.735204,0.000000,0.000000,0.735204,-31.97807,-16.79437)" />
  <path
     d="M 91.859331,54.900740 C 91.835876,55.588039 91.404990,56.519745 90.435594,56.327442 C 89.477992,56.170858 87.922642,55.508001 87.467229,54.324366 C 87.333742,53.967421 89.390474,52.977971 90.167546,53.210829 C 90.766767,53.390241 91.890826,54.363578 91.859331,54.900740 z "
     style="font-size:12.000000;fill:url(#radialGradient579);fill-rule:evenodd;stroke-width:1.0000000pt;"
     id="path1263"
     sodipodi:nodetypes="ccccc"
     transform="matrix(0.735204,0.000000,0.000000,0.735204,-31.97807,-16.79437)" />
  <path
     d="M 76.098122,54.709964 C 76.318028,58.375491 80.129700,59.402788 82.328993,61.088927 C 83.190399,61.235496 84.035870,60.479190 83.773394,59.950100 C 80.657691,58.557207 77.179434,57.422412 76.098122,54.709964 z "
     style="font-size:12.000000;fill:url(#linearGradient575);fill-rule:evenodd;stroke-width:1.0000000pt;"
     id="path580"
     sodipodi:nodetypes="cccc"
     transform="matrix(0.735204,0.000000,0.000000,0.735204,-31.97807,-16.79437)" />
  <path
     d="M 75.582652,73.267875 C 76.580297,75.899950 79.169903,77.385736 81.632099,77.470674 C 87.893894,77.258456 104.21682,66.093376 105.32064,60.786758 C 102.28524,64.437712 89.761776,74.329225 81.377412,75.305634 C 79.254840,75.348104 77.832631,75.072182 75.582652,73.267875 z "
     style="font-size:12.000000;fill:url(#linearGradient583);fill-rule:evenodd;stroke-width:1.0000000pt;"
     id="path1265"
     transform="matrix(0.735204,0.000000,0.000000,0.735204,-31.97807,-16.79437)" />
  <path
     d="M 104.98192,59.043740 C 104.07512,57.869152 96.191687,69.081739 81.758503,74.883909 C 94.705226,71.011418 105.64132,59.909936 104.98192,59.043740 z "
     style="font-size:12.000000;opacity:0.80437499;fill:url(#linearGradient585);fill-rule:evenodd;stroke-width:1.0000000pt;"
     id="path584"
     transform="matrix(0.735204,0.000000,0.000000,0.735204,-31.97807,-16.79437)" />
</svg>
