<?xml version="1.0" encoding="UTF-8" standalone="no"?>
<!DOCTYPE svg PUBLIC "-//W3C//DTD SVG 20010904//EN"
"http://www.w3.org/TR/2001/REC-SVG-20010904/DTD/svg10.dtd">
<!-- Created with Inkscape (http://www.inkscape.org/) -->
<svg
   width="48pt"
   height="48pt"
   id="svg1061"
   sodipodi:version="0.32"
   inkscape:version="0.40"
   sodipodi:docbase="/home/stefan/software/Lila-themes/new-lila-icons"
   sodipodi:docname="xfce-mouse.svg"
   xmlns="http://www.w3.org/2000/svg"
   xmlns:cc="http://web.resource.org/cc/"
   xmlns:inkscape="http://www.inkscape.org/namespaces/inkscape"
   xmlns:sodipodi="http://sodipodi.sourceforge.net/DTD/sodipodi-0.dtd"
   xmlns:rdf="http://www.w3.org/1999/02/22-rdf-syntax-ns#"
   xmlns:dc="http://purl.org/dc/elements/1.1/"
   xmlns:xlink="http://www.w3.org/1999/xlink">
  <defs
     id="defs3">
    <linearGradient
       id="linearGradient1738">
      <stop
         offset="0.0000000"
         style="stop-color:#a673f3;stop-opacity:1.0000000;"
         id="stop1740" />
      <stop
         offset="1.0000000"
         style="stop-color:#4c3f8c;stop-opacity:1.0000000;"
         id="stop1739" />
    </linearGradient>
    <linearGradient
       x1="0.978904"
       y1="0.968750"
       x2="0.008439"
       y2="0.023437"
       id="linearGradient899"
       xlink:href="#linearGradient642" />
    <defs
       id="defs839">
      <linearGradient
         id="linearGradient983">
        <stop
           style="stop-color:#2ad700;stop-opacity:1;"
           offset="0"
           id="stop984" />
        <stop
           style="stop-color:#e5ffe5;stop-opacity:1;"
           offset="1"
           id="stop985" />
      </linearGradient>
      <linearGradient
         id="linearGradient843">
        <stop
           style="stop-color:#ffffff;stop-opacity:1;"
           offset="0"
           id="stop844" />
        <stop
           style="stop-color:#ffffff;stop-opacity:0;"
           offset="1"
           id="stop845" />
      </linearGradient>
      <linearGradient
         id="linearGradient846"
         x1="0.0000000"
         y1="0.50000000"
         x2="1.0000000"
         y2="0.50000000"
         gradientUnits="objectBoundingBox"
         spreadMethod="pad"
         xlink:href="#linearGradient1738" />
      <linearGradient
         id="linearGradient849">
        <stop
           style="stop-color:#ffffff;stop-opacity:1;"
           offset="0"
           id="stop850" />
        <stop
           style="stop-color:#ffffff;stop-opacity:0;"
           offset="1"
           id="stop851" />
      </linearGradient>
      <linearGradient
         x1="0.000000"
         y1="0.000000"
         x2="1.000000"
         y2="0.000000"
         id="linearGradient852"
         xlink:href="#linearGradient923"
         gradientUnits="objectBoundingBox"
         spreadMethod="pad" />
      <linearGradient
         x1="0.015504"
         y1="0.015625"
         x2="1.015504"
         y2="0.984375"
         id="linearGradient855"
         xlink:href="#linearGradient635" />
      <linearGradient
         x1="-0.006803"
         y1="0.023438"
         x2="0.986395"
         y2="0.992188"
         id="linearGradient856"
         xlink:href="#linearGradient642" />
      <linearGradient
         x1="-0.000000"
         y1="0.000000"
         x2="1.000000"
         y2="0.000000"
         id="linearGradient857"
         xlink:href="#linearGradient642" />
      <linearGradient
         x1="0.010309"
         y1="0.023436"
         x2="1.000000"
         y2="0.992188"
         id="linearGradient858"
         xlink:href="#linearGradient642" />
      <linearGradient
         id="linearGradient859"
         xlink:href="#linearGradient1535" />
      <linearGradient
         x1="0.014564"
         y1="-0.000001"
         x2="0.989091"
         y2="1.000000"
         id="linearGradient860"
         xlink:href="#linearGradient1535" />
      <linearGradient
         x1="0.003631"
         y1="0.000003"
         x2="1.003636"
         y2="1.041666"
         id="linearGradient861"
         xlink:href="#linearGradient1535" />
      <linearGradient
         x1="0.003633"
         y1="0.008073"
         x2="0.996364"
         y2="0.975806"
         id="linearGradient862"
         xlink:href="#linearGradient1535" />
    </defs>
    <linearGradient
       x1="0.950420"
       y1="0.945312"
       x2="0.024794"
       y2="0.015625"
       id="linearGradient1044"
       xlink:href="#linearGradient1535" />
    <linearGradient
       x1="0.973546"
       y1="0.953124"
       x2="0.005291"
       y2="-0.015625"
       id="linearGradient1042"
       xlink:href="#linearGradient1535" />
    <linearGradient
       x1="16.539005"
       y1="16.847510"
       x2="26.711875"
       y2="26.670341"
       id="linearGradient1567"
       xlink:href="#linearGradient1535"
       gradientTransform="scale(1.570885,0.636584)"
       gradientUnits="userSpaceOnUse" />
    <linearGradient
       x1="14.578597"
       y1="37.898814"
       x2="18.661955"
       y2="41.991643"
       id="linearGradient1539"
       xlink:href="#linearGradient1535"
       gradientTransform="scale(1.526671,0.655020)"
       gradientUnits="userSpaceOnUse" />
    <linearGradient
       x1="11.082776"
       y1="60.489706"
       x2="19.306320"
       y2="68.618916"
       id="linearGradient1534"
       xlink:href="#linearGradient642"
       gradientTransform="scale(1.473889,0.678477)"
       gradientUnits="userSpaceOnUse" />
    <linearGradient
       x1="9.1640074"
       y1="7.6621731"
       x2="31.414017"
       y2="29.793094"
       id="linearGradient1532"
       xlink:href="#linearGradient1535"
       gradientTransform="scale(1.467927,0.681233)"
       gradientUnits="userSpaceOnUse" />
    <linearGradient
       x1="16.879886"
       y1="12.164606"
       x2="33.519533"
       y2="28.304611"
       id="linearGradient1527"
       xlink:href="#linearGradient1528"
       gradientTransform="scale(1.327778,0.753138)"
       gradientUnits="userSpaceOnUse" />
    <linearGradient
       x1="21.859951"
       y1="23.407687"
       x2="34.605811"
       y2="36.131417"
       id="linearGradient1522"
       xlink:href="#linearGradient1528"
       gradientTransform="scale(0.967689,1.033390)"
       gradientUnits="userSpaceOnUse" />
    <linearGradient
       x1="11.626931"
       y1="47.879241"
       x2="26.721321"
       y2="62.170475"
       id="linearGradient641"
       xlink:href="#linearGradient1528"
       gradientTransform="scale(1.194392,0.837246)"
       gradientUnits="userSpaceOnUse" />
    <linearGradient
       x1="0.87692308"
       y1="0.91406256"
       x2="0.00000000"
       y2="0.00781250"
       id="linearGradient638"
       xlink:href="#linearGradient923" />
    <linearGradient
       id="linearGradient635">
      <stop
         style="stop-color:#ffffff;stop-opacity:1.0000000;"
         offset="0.0000000"
         id="stop636" />
      <stop
         style="stop-color:#d9cce6;stop-opacity:1.0000000;"
         offset="1.0000000"
         id="stop637" />
    </linearGradient>
    <linearGradient
       id="linearGradient642">
      <stop
         style="stop-color:#ffffff;stop-opacity:1;"
         offset="0"
         id="stop643" />
      <stop
         style="stop-color:#ffffff;stop-opacity:0;"
         offset="1"
         id="stop644" />
    </linearGradient>
    <linearGradient
       id="linearGradient1528">
      <stop
         style="stop-color:#d9cce6;stop-opacity:1;"
         offset="0.00000000"
         id="stop1530" />
      <stop
         style="stop-color:#73667f;stop-opacity:1;"
         offset="1.00000000"
         id="stop1529" />
    </linearGradient>
    <linearGradient
       id="linearGradient1535">
      <stop
         style="stop-color:#ffffff;stop-opacity:1;"
         offset="0"
         id="stop1537" />
      <stop
         style="stop-color:#ffffff;stop-opacity:0;"
         offset="1"
         id="stop1536" />
    </linearGradient>
    <linearGradient
       id="linearGradient923">
      <stop
         style="stop-color:#d9cce6;stop-opacity:1;"
         offset="0.00000000"
         id="stop925" />
      <stop
         style="stop-color:#f3e6ff;stop-opacity:1;"
         offset="1.00000000"
         id="stop924" />
    </linearGradient>
    <linearGradient
       inkscape:collect="always"
       xlink:href="#linearGradient1528"
       id="linearGradient4279"
       gradientTransform="matrix(1.295447,0.000000,0.000000,0.682404,0.453609,-1.375387)"
       x1="-0.43160963"
       y1="18.962606"
       x2="43.538681"
       y2="64.070404"
       gradientUnits="userSpaceOnUse" />
    <linearGradient
       inkscape:collect="always"
       xlink:href="#linearGradient635"
       id="linearGradient1737"
       gradientUnits="userSpaceOnUse"
       gradientTransform="matrix(1.295447,0.000000,0.000000,0.682404,-38.41438,0.195486)"
       x1="62.744781"
       y1="29.903538"
       x2="66.546616"
       y2="37.299068" />
    <linearGradient
       inkscape:collect="always"
       xlink:href="#linearGradient635"
       id="linearGradient1742"
       gradientUnits="userSpaceOnUse"
       gradientTransform="matrix(1.295447,0.000000,0.000000,0.682404,-21.38417,-3.111615)"
       x1="51.308346"
       y1="41.828663"
       x2="55.511063"
       y2="49.427254" />
    <linearGradient
       inkscape:collect="always"
       xlink:href="#linearGradient1535"
       id="linearGradient2991"
       gradientTransform="matrix(1.302006,0.000000,0.000000,0.678965,0.453609,-1.375387)"
       x1="13.727962"
       y1="36.868343"
       x2="24.198307"
       y2="47.310738"
       gradientUnits="userSpaceOnUse" />
    <linearGradient
       inkscape:collect="always"
       xlink:href="#linearGradient1535"
       id="linearGradient2997"
       gradientTransform="matrix(0.523934,0.000000,0.000000,1.687269,0.453609,-1.375387)"
       x1="79.668472"
       y1="9.5031128"
       x2="81.436897"
       y2="11.285252"
       gradientUnits="userSpaceOnUse" />
    <linearGradient
       inkscape:collect="always"
       xlink:href="#linearGradient1535"
       id="linearGradient3001"
       gradientTransform="matrix(0.461247,0.000000,0.000000,1.916578,0.453609,-1.375387)"
       x1="80.319077"
       y1="9.1933622"
       x2="82.066483"
       y2="11.008551"
       gradientUnits="userSpaceOnUse" />
  </defs>
  <sodipodi:namedview
     id="base"
     pagecolor="#ffffff"
     bordercolor="#666666"
     borderopacity="1.0"
     inkscape:pageopacity="0.0"
     inkscape:pageshadow="2"
     inkscape:zoom="10.125000"
     inkscape:cx="35.465950"
     inkscape:cy="25.285313"
     inkscape:current-layer="svg1061"
     showgrid="false"
     inkscape:grid-bbox="false"
     gridspacingy="1.0000000pt"
     gridspacingx="1.0000000pt"
     gridoriginy="0.0000000pt"
     gridoriginx="0.0000000pt"
     inkscape:window-width="1053"
     inkscape:window-height="837"
     inkscape:window-x="64"
     inkscape:window-y="0" />
  <metadata
     id="metadata4">
    <rdf:RDF
       id="RDF5">
      <cc:Work
         rdf:about=""
         id="Work6">
        <dc:format
           id="format7">image/svg+xml</dc:format>
        <dc:type
           id="type9"
           rdf:resource="http://purl.org/dc/dcmitype/StillImage" />
      </cc:Work>
    </rdf:RDF>
  </metadata>
  <path
     d="M 19.411175,44.037013 C 19.100659,42.740902 20.854228,40.894965 19.992191,39.998089 C 18.929863,40.689828 16.067600,41.248705 17.713793,39.213411 C 19.214471,38.023457 19.684992,36.411583 19.226302,34.554672 C 19.135023,31.997904 19.793136,29.419993 21.201580,27.289035 C 21.041827,25.483922 18.701809,24.546858 17.470094,23.364154 C 14.231414,20.878231 10.504501,19.218014 6.8203023,17.548429 C 5.6535953,16.867796 3.1427066,15.925657 2.9308564,15.045235 C 5.8205543,16.379373 8.7358123,17.668797 11.793692,18.560095 C 15.771899,20.025098 19.205219,22.671012 22.271505,25.575787 C 23.973562,25.127358 25.928223,24.060232 27.895268,24.739854 C 30.968610,25.158186 33.937102,26.544767 37.110140,25.592850 C 38.847896,24.533212 39.582006,22.374500 38.822586,20.449134 C 38.037266,18.219739 41.034868,16.628187 41.782924,19.192541 C 42.335407,19.923185 43.112948,23.011500 43.938578,21.535359 C 43.636777,19.898041 42.755796,17.796267 43.989008,16.390165 C 45.848286,15.154757 46.898149,17.786704 46.857030,19.300831 C 46.838746,20.693478 46.706979,22.112664 48.581549,22.109969 C 51.652830,22.407416 55.134517,23.127303 57.389499,25.561920 C 58.571433,26.725900 58.210434,28.623769 56.836129,29.452206 C 54.440243,31.483091 51.429940,32.507687 48.753519,34.072545 C 47.436094,35.565743 49.424200,36.945085 50.251565,38.053280 C 51.501493,39.009856 51.142950,40.807800 49.472716,39.768994 C 48.443814,39.735436 46.317294,38.090495 45.831484,39.246879 C 46.446222,40.565240 49.016377,41.970967 47.674535,43.488555 C 45.168302,43.053617 42.984149,41.527618 40.557338,40.830226 C 35.322920,41.504382 29.893299,41.768628 24.741197,40.375542 C 23.199941,41.017447 22.130756,42.544059 20.756152,43.506789 C 20.409233,43.701160 19.781395,44.585778 19.411175,44.037013 z M 56.359903,23.204233 C 56.682962,22.244250 57.703882,20.048792 58.303711,20.112406 C 57.792417,20.961423 57.087878,23.242062 56.359903,23.204233 z M 55.264846,22.242265 C 55.259276,21.598933 55.899731,18.207863 55.821793,20.475665 C 55.900118,20.870962 55.248630,24.276276 55.264846,22.242265 z "
     id="path1124"
     style="opacity:0.30303028;fill:#000000;fill-opacity:1.0000000;stroke:none;stroke-width:1.7629158;stroke-linecap:round;stroke-linejoin:round;stroke-miterlimit:4.0000000;stroke-opacity:1.0000000"
     sodipodi:nodetypes="ccccccccccccccccccccccccccccccccccc" />
  <g
     id="layer1"
     inkscape:label="Layer 1"
     inkscape:groupmode="layer" />
  <path
     d="M 17.249875,41.444420 C 16.939359,40.148309 18.692928,38.302372 17.830891,37.405496 C 16.768563,38.097235 13.906300,38.656112 15.552493,36.620818 C 17.053171,35.430864 17.523692,33.818990 17.065002,31.962079 C 16.973723,29.405311 17.631836,26.827400 19.040280,24.696442 C 18.880527,22.891329 16.540509,21.954265 15.308794,20.771561 C 12.070114,18.285638 8.3432003,16.625421 4.6590015,14.955836 C 3.4922948,14.275203 0.98140601,13.333064 0.76955586,12.452642 C 3.6592539,13.786780 6.5745121,15.076204 9.6323918,15.967502 C 13.610599,17.432505 17.043919,20.078419 20.110205,22.983194 C 21.812262,22.534765 23.766923,21.467639 25.733968,22.147261 C 28.807310,22.565593 31.775802,23.952174 34.948840,23.000257 C 36.686596,21.940619 37.420706,19.781907 36.661286,17.856541 C 35.875966,15.627146 38.873568,14.035594 39.621624,16.599948 C 40.174107,17.330592 40.951648,20.418907 41.777278,18.942766 C 41.475477,17.305448 40.594496,15.203674 41.827708,13.797572 C 43.686986,12.562164 44.736849,15.194111 44.695730,16.708238 C 44.677446,18.100885 44.545679,19.520071 46.420249,19.517376 C 49.491530,19.814823 52.973217,20.534710 55.228199,22.969327 C 56.410133,24.133307 56.049134,26.031176 54.674829,26.859613 C 52.278943,28.890498 49.268640,29.915094 46.592219,31.479952 C 45.274794,32.973150 47.262900,34.352492 48.090265,35.460687 C 49.340193,36.417263 48.981650,38.215207 47.311416,37.176401 C 46.282514,37.142843 44.155994,35.497902 43.670184,36.654286 C 44.284922,37.972647 46.855077,39.378374 45.513235,40.895962 C 43.007002,40.461024 40.822849,38.935025 38.396038,38.237633 C 33.161620,38.911789 27.731999,39.176035 22.579897,37.782949 C 21.038641,38.424854 19.969456,39.951466 18.594852,40.914196 C 18.247933,41.108567 17.620095,41.993185 17.249875,41.444420 z M 54.198603,20.611640 C 54.521662,19.651657 55.542582,17.456199 56.142411,17.519813 C 55.631117,18.368830 54.926578,20.649469 54.198603,20.611640 z M 53.103546,19.649672 C 53.097976,19.006340 53.738431,15.615270 53.660493,17.883072 C 53.738818,18.278369 53.087330,21.683683 53.103546,19.649672 z "
     id="path3020"
     style="fill:url(#linearGradient4279);fill-opacity:1.0000000;stroke:#261933;stroke-width:1.7629158;stroke-linecap:round;stroke-linejoin:round;stroke-miterlimit:4.0000000;stroke-opacity:1.0000000"
     sodipodi:nodetypes="ccccccccccccccccccccccccccccccccccc" />
  <path
     d="M 45.976804,24.579013 C 47.256966,23.683168 44.019961,23.999431 44.210320,22.601371 C 43.097537,21.629546 44.021357,24.918232 45.158420,24.703104 C 45.434641,24.810041 45.722996,24.676263 45.976804,24.579013 z M 46.553792,23.165260 C 48.265971,21.058125 43.824681,20.778621 45.408872,23.115663 C 45.716235,23.404612 46.219083,23.412041 46.553792,23.165260 z "
     id="path1113"
     style="fill:url(#linearGradient1737);fill-opacity:1.0000000;stroke:#261933;stroke-width:0.58763862;stroke-linecap:round;stroke-linejoin:round;stroke-miterlimit:4.0000000;stroke-opacity:1.0000000"
     sodipodi:nodetypes="ccccccc" />
  <path
     d="M 47.801228,29.607808 C 48.565506,29.388585 50.826009,27.219542 49.125051,27.446102 C 48.725455,27.556627 46.066192,30.405487 47.801228,29.607808 z M 46.783377,27.746558 C 47.582313,27.640267 50.657192,26.069730 48.408988,26.307272 C 47.806872,26.656074 45.438502,27.358140 46.061702,27.981466 C 46.308159,27.922508 46.543449,27.826653 46.783377,27.746558 z "
     id="path1741"
     style="fill:url(#linearGradient1742);fill-opacity:1.0000000;stroke:#261933;stroke-width:0.58763862;stroke-linecap:round;stroke-linejoin:round;stroke-miterlimit:4.0000000;stroke-opacity:1.0000000"
     sodipodi:nodetypes="ccccccc" />
  <path
     style="fill:url(#linearGradient2991);fill-opacity:1.0000000;fill-rule:evenodd;stroke:none;stroke-width:0.25000000pt;stroke-linecap:butt;stroke-linejoin:miter;stroke-opacity:1.0000000"
     d="M 18.298656,30.356858 C 17.863911,30.015352 19.300535,24.580070 20.946894,23.825341 C 22.378112,23.169238 24.128331,22.789811 28.302056,23.711840 C 34.156781,25.005223 35.555748,23.875978 35.736282,24.114711 C 36.801895,25.523858 25.508870,24.784125 22.821031,26.016293 C 21.000077,26.851061 18.705914,30.676771 18.298656,30.356858 z "
     id="path2987"
     sodipodi:nodetypes="csssss" />
  <path
     style="fill:url(#linearGradient3001);fill-opacity:1.0000000;fill-rule:evenodd;stroke:none;stroke-width:0.25000000pt;stroke-linecap:butt;stroke-linejoin:miter;stroke-opacity:1.0000000"
     d="M 37.814130,18.637331 C 37.753017,18.506425 37.433871,17.493625 37.508564,16.901104 C 37.583258,16.308582 38.241923,16.170788 38.343778,16.219016 C 38.445633,16.267244 38.296245,16.597954 37.997470,17.138803 C 37.701097,17.675300 37.871333,18.759861 37.814130,18.637331 z "
     id="path2992"
     sodipodi:nodetypes="czzzz" />
  <path
     style="fill:url(#linearGradient2997);fill-opacity:1.0000000;fill-rule:evenodd;stroke:none;stroke-width:0.25000000pt;stroke-linecap:butt;stroke-linejoin:miter;stroke-opacity:1.0000000"
     d="M 42.458731,17.665871 C 42.384038,17.610753 41.973222,15.750510 42.173537,15.061531 C 42.376617,14.363041 42.811830,14.396668 42.886524,14.451786 C 42.961217,14.506904 42.730345,14.806610 42.621699,15.309565 C 42.513055,15.812519 42.533425,17.720989 42.458731,17.665871 z "
     id="path2993"
     sodipodi:nodetypes="czzzz" />
</svg>
