<?xml version="1.0" encoding="UTF-8" standalone="no"?>
<!DOCTYPE svg PUBLIC "-//W3C//DTD SVG 20010904//EN"
"http://www.w3.org/TR/2001/REC-SVG-20010904/DTD/svg10.dtd">
<!-- Created with Inkscape (http://www.inkscape.org/) -->
<svg
   id="svg1"
   sodipodi:version="0.32"
   inkscape:version="0.39"
   width="48pt"
   height="48pt"
   sodipodi:docbase="/home/scaba/files/pre-release/lila-gnome"
   sodipodi:docname="gnome-fs-desktop.svg"
   xmlns="http://www.w3.org/2000/svg"
   xmlns:cc="http://web.resource.org/cc/"
   xmlns:inkscape="http://www.inkscape.org/namespaces/inkscape"
   xmlns:sodipodi="http://sodipodi.sourceforge.net/DTD/sodipodi-0.dtd"
   xmlns:rdf="http://www.w3.org/1999/02/22-rdf-syntax-ns#"
   xmlns:dc="http://purl.org/dc/elements/1.1/"
   xmlns:xlink="http://www.w3.org/1999/xlink">
  <defs
     id="defs3">
    <linearGradient
       id="linearGradient1304">
      <stop
         style="stop-color:#d9cce6;stop-opacity:1;"
         offset="0.00000000"
         id="stop1305" />
      <stop
         style="stop-color:#73667f;stop-opacity:1;"
         offset="1.00000000"
         id="stop1306" />
    </linearGradient>
    <linearGradient
       id="linearGradient1299">
      <stop
         style="stop-color:#c7b397;stop-opacity:1;"
         offset="0.00000000"
         id="stop1300" />
      <stop
         style="stop-color:#faebdc;stop-opacity:1;"
         offset="1.00000000"
         id="stop1301" />
    </linearGradient>
    <linearGradient
       id="linearGradient866">
      <stop
         style="stop-color:#ffffff;stop-opacity:1;"
         offset="0.00000000"
         id="stop867" />
      <stop
         style="stop-color:#d9cce6;stop-opacity:1;"
         offset="1.00000000"
         id="stop868" />
    </linearGradient>
    <linearGradient
       id="linearGradient584">
      <stop
         style="stop-color:#ffffff;stop-opacity:1;"
         offset="0.00000000"
         id="stop585" />
      <stop
         style="stop-color:#ffffff;stop-opacity:0;"
         offset="1.00000000"
         id="stop586" />
    </linearGradient>
    <linearGradient
       xlink:href="#linearGradient866"
       id="linearGradient586"
       x1="-0.00000000"
       y1="0.01562500"
       x2="0.99122804"
       y2="0.98437500" />
    <linearGradient
       xlink:href="#linearGradient584"
       id="linearGradient587"
       x1="0.00000000"
       y1="-0.00000000"
       x2="1.00000000"
       y2="1.00000000" />
    <linearGradient
       xlink:href="#linearGradient1299"
       id="linearGradient1298"
       x1="0.98734176"
       y1="0.98437500"
       x2="-0.00632911"
       y2="0.00781250" />
    <linearGradient
       xlink:href="#linearGradient1304"
       id="linearGradient1303"
       x1="0.00000000"
       y1="0.00000000"
       x2="0.96551722"
       y2="0.99218750" />
    <linearGradient
       xlink:href="#linearGradient584"
       id="linearGradient1323"
       x1="0.00000000"
       y1="0.00000000"
       x2="1.00000000"
       y2="1.03906250" />
    <linearGradient
       xlink:href="#linearGradient584"
       id="linearGradient1325"
       x1="-0.00000000"
       y1="-0.00000000"
       x2="0.93750000"
       y2="0.99218750" />
    <linearGradient
       xlink:href="#linearGradient584"
       id="linearGradient1327"
       x1="0.00877193"
       y1="0.00781250"
       x2="1.00000000"
       y2="0.98437500" />
    <radialGradient
       xlink:href="#linearGradient1304"
       id="radialGradient1329" />
    <linearGradient
       xlink:href="#linearGradient584"
       id="linearGradient1330"
       x1="-0.00000000"
       y1="-0.00000000"
       x2="0.99270076"
       y2="0.95714283" />
  </defs>
  <sodipodi:namedview
     id="base"
     pagecolor="#ffffff"
     bordercolor="#666666"
     borderopacity="1.0"
     inkscape:pageopacity="0.0"
     inkscape:pageshadow="2"
     inkscape:zoom="5.6568543"
     inkscape:cx="25.573592"
     inkscape:cy="20.152543"
     inkscape:window-width="528"
     inkscape:window-height="526"
     inkscape:window-x="87"
     inkscape:window-y="146" />
  <g
     id="g632"
     style="opacity:0.29999998;"
     transform="translate(62.47410,-35.21964)">
    <path
       style="font-size:12.000000;fill:#000000;fill-opacity:1.0000000;fill-rule:evenodd;stroke:none;stroke-width:1.8242500;"
       d="M -54.485256,47.213579 C -55.932300,47.977082 -56.219927,85.294270 -54.883367,86.825600 C -53.496589,88.186400 -6.9969087,88.485940 -5.7166887,87.223710 C -4.4002347,85.929170 -4.3084167,48.215442 -5.5176317,47.213579 C -6.7976157,45.988162 -52.863475,46.252852 -54.485256,47.213579 z "
       id="path627" />
    <path
       style="font-size:12.000000;fill:#000000;fill-opacity:1.0000000;fill-rule:evenodd;stroke:none;stroke-width:1.8242500;"
       d="M -55.472439,46.405297 C -57.611447,48.815066 -57.320466,59.969996 -55.624852,59.969996 C -53.357746,59.969996 -43.614967,49.136638 -43.584278,46.405297 C -43.564163,44.615071 -53.597923,44.293499 -55.472439,46.405297 z "
       id="path628" />
    <path
       style="font-size:12.000000;fill:#000000;fill-opacity:1.0000000;fill-rule:evenodd;stroke:none;stroke-width:1.8242500;"
       d="M -4.7922577,46.620841 C -2.6532497,49.030609 -2.9442307,60.185539 -4.6398447,60.185539 C -6.9069507,60.185539 -16.649730,49.352181 -16.680419,46.620841 C -16.700534,44.830615 -6.6667737,44.509043 -4.7922577,46.620841 z "
       id="path629" />
    <path
       style="font-size:12.000000;fill:#000000;fill-opacity:1.0000000;fill-rule:evenodd;stroke:none;stroke-width:1.8242500;"
       d="M -4.7922577,87.602640 C -2.6532497,85.192880 -2.9442307,74.037945 -4.6398447,74.037945 C -6.9069507,74.037945 -16.649730,84.871300 -16.680419,87.602640 C -16.700534,89.392870 -6.6667747,89.714440 -4.7922577,87.602640 z "
       id="path630" />
    <path
       style="font-size:12.000000;fill:#000000;fill-opacity:1.0000000;fill-rule:evenodd;stroke:none;stroke-width:1.8242500;"
       d="M -55.687983,87.387100 C -57.826990,84.977330 -57.536010,73.822402 -55.840395,73.822402 C -53.573289,73.822402 -43.830511,84.655760 -43.799822,87.387100 C -43.779708,89.177330 -53.813466,89.498900 -55.687983,87.387100 z "
       id="path631" />
  </g>
  <path
     style="font-size:12.000000;fill:url(#linearGradient1298);fill-rule:evenodd;stroke:#333300;stroke-width:1.8242548;stroke-opacity:1.0000000;"
     d="M 5.5519051,8.6708501 C 4.1048617,9.4343531 3.8172345,46.751545 5.1537943,48.282872 C 6.5405726,49.643673 53.040253,49.943206 54.320473,48.680983 C 55.636927,47.386445 55.728745,9.6727131 54.519530,8.6708501 C 53.239546,7.4454327 7.1736869,7.7101233 5.5519051,8.6708501 z "
     id="path1208"
     sodipodi:nodetypes="cssss" />
  <metadata
     id="metadata48">
    <rdf:RDF
       id="RDF49">
      <cc:Work
         rdf:about=""
         id="Work50">
        <dc:format
           id="format51">image/svg+xml</dc:format>
        <dc:type
           id="type53"
           rdf:resource="http://purl.org/dc/dcmitype/StillImage" />
      </cc:Work>
    </rdf:RDF>
  </metadata>
  <path
     style="fill:url(#linearGradient1303);fill-opacity:1.0000000;fill-rule:evenodd;stroke:#261933;stroke-width:1.8242548;stroke-linecap:butt;stroke-linejoin:miter;stroke-opacity:1.0000000;"
     d="M 4.5647223,7.8625682 C 2.4257149,10.272337 2.7166957,21.427267 4.4123099,21.427267 C 6.6794159,21.427267 16.422195,10.593909 16.452884,7.8625682 C 16.472999,6.0723418 6.4392389,5.7507700 4.5647223,7.8625682 z "
     id="path952"
     sodipodi:nodetypes="csss" />
  <path
     style="fill:url(#linearGradient1323);fill-opacity:1.0000000;fill-rule:evenodd;stroke:none;stroke-width:1.0000000pt;stroke-linecap:butt;stroke-linejoin:miter;stroke-opacity:1.0000000;"
     d="M 4.7171336,18.531432 C 4.4750185,18.289317 4.0995772,10.749741 5.7840201,8.9294541 C 7.2494318,7.3458643 13.921772,8.0748781 14.166699,8.3198051 C 14.379009,8.5321151 8.6018049,8.7384731 7.1557313,10.301166 C 5.4519503,12.142349 4.9322556,18.746554 4.7171336,18.531432 z "
     id="path953"
     sodipodi:nodetypes="cssss" />
  <path
     style="fill:url(#linearGradient1303);fill-opacity:1.0000000;fill-rule:evenodd;stroke:#261933;stroke-width:1.8242548;stroke-linecap:butt;stroke-linejoin:miter;stroke-opacity:1.0000000;"
     d="M 55.244904,8.0781121 C 57.383912,10.487880 57.092931,21.642810 55.397317,21.642810 C 53.130211,21.642810 43.387432,10.809452 43.356743,8.0781121 C 43.336628,6.2878855 53.370388,5.9663139 55.244904,8.0781121 z "
     id="path954"
     sodipodi:nodetypes="csss" />
  <path
     style="fill:url(#linearGradient1323);fill-opacity:1.0000000;fill-rule:evenodd;stroke:none;stroke-width:1.0000000pt;stroke-linecap:butt;stroke-linejoin:miter;stroke-opacity:1.0000000;"
     d="M 55.092492,18.746975 C 55.334607,18.504860 55.710049,10.965284 54.025606,9.1449991 C 52.560195,7.5614083 45.887855,8.2904221 45.642928,8.5353491 C 45.430618,8.7476591 51.207822,8.9540171 52.653895,10.516709 C 54.357676,12.357892 54.877371,18.962097 55.092492,18.746975 z "
     id="path955"
     sodipodi:nodetypes="cssss" />
  <path
     style="fill:url(#linearGradient1303);fill-opacity:1.0000000;fill-rule:evenodd;stroke:#261933;stroke-width:1.8242548;stroke-linecap:butt;stroke-linejoin:miter;stroke-opacity:1.0000000;"
     d="M 55.244904,8.0781121 C 57.383912,10.487880 57.092931,21.642810 55.397317,21.642810 C 53.130211,21.642810 43.387432,10.809452 43.356743,8.0781121 C 43.336628,6.2878855 53.370388,5.9663139 55.244904,8.0781121 z "
     id="path956"
     sodipodi:nodetypes="csss" />
  <path
     style="fill:url(#linearGradient1303);fill-opacity:1.0000000;fill-rule:evenodd;stroke:#261933;stroke-width:1.8242548;stroke-linecap:butt;stroke-linejoin:miter;stroke-opacity:1.0000000;"
     d="M 55.244904,49.059915 C 57.383912,46.650146 57.092931,35.495216 55.397317,35.495216 C 53.130211,35.495216 43.387432,46.328574 43.356743,49.059915 C 43.336628,50.850141 53.370387,51.171712 55.244904,49.059915 z "
     id="path958"
     sodipodi:nodetypes="csss" />
  <path
     style="fill:url(#linearGradient1303);fill-opacity:1.0000000;fill-rule:evenodd;stroke:#261933;stroke-width:1.8242548;stroke-linecap:butt;stroke-linejoin:miter;stroke-opacity:1.0000000;"
     d="M 4.3491785,48.844371 C 2.2101713,46.434603 2.5011520,35.279673 4.1967662,35.279673 C 6.4638722,35.279673 16.206651,46.113031 16.237340,48.844371 C 16.257454,50.634598 6.2236952,50.956169 4.3491785,48.844371 z "
     id="path960"
     sodipodi:nodetypes="csss" />
  <path
     style="fill:url(#linearGradient1325);fill-opacity:1.0000000;fill-rule:evenodd;stroke:none;stroke-width:1.0000000pt;stroke-linecap:butt;stroke-linejoin:miter;stroke-opacity:1.0000000;"
     d="M 5.1555974,47.634332 C 4.9360612,47.359911 4.3752931,39.854549 4.5459480,37.422706 C 4.5785093,36.958715 5.7280408,38.323626 5.7652468,38.946830 C 5.9312569,41.727501 5.3424935,47.867952 5.1555974,47.634332 z "
     id="path1324"
     sodipodi:nodetypes="csss" />
  <path
     style="fill:url(#linearGradient1330);fill-opacity:1.0000000;fill-rule:evenodd;stroke:none;stroke-width:1.0000000pt;stroke-linecap:butt;stroke-linejoin:miter;stroke-opacity:1.0000000;"
     d="M 44.887402,8.5644771 C 45.317650,8.2202791 51.978910,8.2228911 53.574905,8.7168901 C 54.112682,8.8833451 52.169241,10.561284 51.288719,10.545837 C 49.273406,10.510481 44.555589,8.8299281 44.887402,8.5644771 z "
     id="path1328"
     sodipodi:nodetypes="csss" />
  <path
     style="fill:url(#linearGradient1327);fill-opacity:1.0000000;fill-rule:evenodd;stroke:none;stroke-width:1.0000000pt;stroke-linecap:butt;stroke-linejoin:miter;stroke-opacity:1.0000000;"
     d="M 45.203057,48.459526 C 45.527672,47.692254 52.658774,39.397528 54.652621,37.638250 C 55.249783,37.111342 53.900012,40.542926 52.976086,41.600971 C 50.750158,44.150018 44.968827,49.013160 45.203057,48.459526 z "
     id="path1326"
     sodipodi:nodetypes="csss" />
  <g
     id="g1311"
     transform="matrix(0.808429,0.000000,0.000000,0.808429,8.548453,7.425307)">
    <path
       d="M 6.2874640,40.371727 C 6.7473646,41.745720 25.792255,47.923879 27.042690,46.887122 C 28.161962,45.949358 36.536950,18.036760 35.976187,16.929770 C 35.393294,15.709316 16.070941,12.669374 15.153791,13.504131 C 14.024060,14.538395 5.8044512,38.795248 6.2874640,40.371727 z "
       style="font-size:12.000000;opacity:0.30267498;fill-rule:evenodd;stroke-width:12.500000;"
       id="path1312" />
    <path
       d="M 6.3529336,39.234524 C 6.7832283,40.519998 24.601163,46.300143 25.771037,45.330176 C 26.818202,44.452826 34.653650,18.338447 34.129015,17.302751 C 33.583672,16.160922 15.506128,13.316847 14.648063,14.097825 C 13.591114,15.065459 5.9010372,37.759608 6.3529336,39.234524 z "
       style="font-size:12.000000;fill:url(#linearGradient586);fill-rule:evenodd;stroke:#261933;stroke-width:1.8750000;"
       id="path1313" />
    <path
       d="M 7.5652085,38.030402 C 7.3792541,37.559299 14.767872,15.655215 15.458626,15.203494 C 16.321922,14.614341 30.277712,17.222412 30.463230,17.692410 C 30.633271,18.123177 19.574863,16.111713 17.114621,18.312334 C 12.396093,22.414409 7.7348134,38.460087 7.5652085,38.030402 z "
       style="font-size:12.000000;opacity:0.69993597;fill:url(#linearGradient587);fill-rule:evenodd;stroke:none;stroke-width:0.10012100pt;"
       id="path1314" />
  </g>
  <g
     id="g1315"
     transform="matrix(0.808429,0.000000,0.000000,0.808429,17.05892,2.992842)">
    <path
       d="M 6.2874640,40.371727 C 6.7473646,41.745720 25.792255,47.923879 27.042690,46.887122 C 28.161962,45.949358 36.536950,18.036760 35.976187,16.929770 C 35.393294,15.709316 16.070941,12.669374 15.153791,13.504131 C 14.024060,14.538395 5.8044512,38.795248 6.2874640,40.371727 z "
       style="font-size:12.000000;opacity:0.30267498;fill-rule:evenodd;stroke-width:12.500000;"
       id="path1316" />
    <path
       d="M 6.3529336,39.234524 C 6.7832283,40.519998 24.601163,46.300143 25.771037,45.330176 C 26.818202,44.452826 34.653650,18.338447 34.129015,17.302751 C 33.583672,16.160922 15.506128,13.316847 14.648063,14.097825 C 13.591114,15.065459 5.9010372,37.759608 6.3529336,39.234524 z "
       style="font-size:12.000000;fill:url(#linearGradient586);fill-rule:evenodd;stroke:#261933;stroke-width:1.8750000;"
       id="path1317" />
    <path
       d="M 7.5652085,38.030402 C 7.3792541,37.559299 14.767872,15.655215 15.458626,15.203494 C 16.321922,14.614341 30.277712,17.222412 30.463230,17.692410 C 30.633271,18.123177 19.574863,16.111713 17.114621,18.312334 C 12.396093,22.414409 7.7348134,38.460087 7.5652085,38.030402 z "
       style="font-size:12.000000;opacity:0.69993597;fill:url(#linearGradient587);fill-rule:evenodd;stroke:none;stroke-width:0.10012100pt;"
       id="path1318" />
  </g>
</svg>
