<?xml version="1.0" encoding="UTF-8" standalone="no"?>
<!DOCTYPE svg PUBLIC "-//W3C//DTD SVG 20010904//EN"
"http://www.w3.org/TR/2001/REC-SVG-20010904/DTD/svg10.dtd">
<!-- Created with Inkscape (http://www.inkscape.org/) -->
<svg
   id="svg1"
   sodipodi:version="0.32"
   inkscape:version="0.39"
   width="48pt"
   height="48pt"
   sodipodi:docbase="/home/scaba/files/pre-release/lila-gnome/Lila/scalable/apps"
   sodipodi:docname="gnome-mixer_alt.svg"
   xmlns="http://www.w3.org/2000/svg"
   xmlns:inkscape="http://www.inkscape.org/namespaces/inkscape"
   xmlns:sodipodi="http://sodipodi.sourceforge.net/DTD/sodipodi-0.dtd"
   xmlns:xlink="http://www.w3.org/1999/xlink"
   xmlns:rdf="http://www.w3.org/1999/02/22-rdf-syntax-ns#"
   xmlns:cc="http://web.resource.org/cc/"
   xmlns:dc="http://purl.org/dc/elements/1.1/">
  <defs
     id="defs3">
    <linearGradient
       id="linearGradient911">
      <stop
         offset="0.0000000"
         style="stop-color:#d9cce6;stop-opacity:1.0000000;"
         id="stop913" />
      <stop
         offset="1.0000000"
         style="stop-color:#73667f;stop-opacity:1.0000000;"
         id="stop912" />
    </linearGradient>
    <linearGradient
       id="linearGradient563"
       x1="0.0000000"
       y1="0.50000000"
       x2="1.0000000"
       y2="0.50000000"
       gradientUnits="objectBoundingBox"
       spreadMethod="pad"
       xlink:href="#linearGradient911" />
    <linearGradient
       id="linearGradient566"
       xlink:href="#linearGradient563"
       x1="-0.00000000"
       y1="-0.00000000"
       x2="0.98214287"
       y2="0.99218750" />
    <linearGradient
       id="linearGradient570">
      <stop
         style="stop-color:#ffffff;stop-opacity:1;"
         offset="0"
         id="stop571" />
      <stop
         style="stop-color:#ffffff;stop-opacity:0;"
         offset="1"
         id="stop572" />
    </linearGradient>
    <linearGradient
       id="linearGradient569"
       xlink:href="#linearGradient570"
       x1="-0.00000000"
       y1="0.00000000"
       x2="1.04999995"
       y2="0.99218750" />
    <linearGradient
       id="linearGradient599">
      <stop
         style="stop-color:#ffffff;stop-opacity:1;"
         offset="0.00000000"
         id="stop600" />
      <stop
         style="stop-color:#d9cce6;stop-opacity:1;"
         offset="1.00000000"
         id="stop601" />
    </linearGradient>
    <linearGradient
       id="linearGradient584">
      <stop
         style="stop-color:#ffffff;stop-opacity:1;"
         offset="0.00000000"
         id="stop585" />
      <stop
         style="stop-color:#ffffff;stop-opacity:0;"
         offset="1.00000000"
         id="stop586" />
    </linearGradient>
    <linearGradient
       id="linearGradient578">
      <stop
         style="stop-color:#d9cce6;stop-opacity:1;"
         offset="0.00000000"
         id="stop579" />
      <stop
         style="stop-color:#73667f;stop-opacity:1;"
         offset="1.00000000"
         id="stop580" />
    </linearGradient>
    <linearGradient
       xlink:href="#linearGradient578"
       id="linearGradient581"
       x1="-0.00000000"
       y1="0.00000000"
       x2="0.97916669"
       y2="0.97656250" />
    <linearGradient
       xlink:href="#linearGradient578"
       id="linearGradient583"
       x1="0.98979592"
       y1="0.99218750"
       x2="0.03061225"
       y2="-0.00000000" />
    <linearGradient
       xlink:href="#linearGradient578"
       id="linearGradient860"
       x1="-0.00000000"
       y1="-0.00000000"
       x2="0.98076922"
       y2="1.00781250" />
    <linearGradient
       xlink:href="#linearGradient599"
       id="linearGradient861"
       x1="0.98979592"
       y1="0.99218750"
       x2="0.03061225"
       y2="0.00000000" />
    <linearGradient
       xlink:href="#linearGradient584"
       id="linearGradient862"
       x1="-0.00000000"
       y1="0.00000000"
       x2="0.97457629"
       y2="0.99218750" />
    <radialGradient
       xlink:href="#linearGradient578"
       id="radialGradient595"
       cx="0.33846155"
       cy="0.34375000"
       r="0.66501766"
       fx="0.33076921"
       fy="0.33593750" />
    <linearGradient
       xlink:href="#linearGradient584"
       id="linearGradient652"
       x1="-0.00000000"
       y1="-0.00000000"
       x2="0.99637681"
       y2="0.96052629" />
    <linearGradient
       xlink:href="#linearGradient599"
       id="linearGradient654" />
    <linearGradient
       xlink:href="#linearGradient599"
       id="linearGradient661" />
    <linearGradient
       xlink:href="#linearGradient584"
       id="linearGradient616"
       x1="-0.00000000"
       y1="-0.00000000"
       x2="0.99637681"
       y2="0.92500001" />
    <linearGradient
       xlink:href="#linearGradient584"
       id="linearGradient618"
       x1="0.00000000"
       y1="-0.00000000"
       x2="1.00000000"
       y2="1.00781250" />
    <linearGradient
       xlink:href="#linearGradient584"
       id="linearGradient620"
       x1="-0.00000000"
       y1="0.00000000"
       x2="1.00000000"
       y2="0.99218750" />
    <linearGradient
       xlink:href="#linearGradient584"
       id="linearGradient633"
       x1="0.00000000"
       y1="0.00000000"
       x2="1.00000000"
       y2="0.00000000" />
  </defs>
  <sodipodi:namedview
     id="base"
     pagecolor="#ffffff"
     bordercolor="#666666"
     borderopacity="1.0"
     inkscape:pageopacity="0.0"
     inkscape:pageshadow="2"
     inkscape:zoom="8.0000000"
     inkscape:cx="26.646973"
     inkscape:cy="21.097458"
     inkscape:window-width="788"
     inkscape:window-height="714"
     inkscape:window-x="7"
     inkscape:window-y="26"
     showborder="true"
     showgrid="false" />
  <g
     id="g650"
     style="font-size:12.000000;opacity:0.29636899;"
     transform="matrix(-0.648056,0.272569,0.308017,0.732338,49.79541,6.384501)">
    <path
       style="fill-rule:evenodd;stroke-width:1.8750000;"
       d="M 40.181906,49.683924 C 43.741420,46.987630 55.413093,36.819956 56.782923,33.597578 C 58.501012,29.555960 56.258798,19.433555 53.192815,16.716700 C 50.944448,14.724357 36.640091,12.559718 32.521925,12.563247 C 28.414485,12.566766 34.838722,53.731330 40.181906,49.683924 z "
       id="path643"
       sodipodi:nodetypes="cssss" />
    <path
       style="fill-rule:evenodd;stroke-width:1.8750000;"
       d="M 46.995589,33.682468 C 46.995589,44.404983 40.468842,53.107313 32.426956,53.107313 C 24.385071,53.107313 17.858323,44.404983 17.858323,33.682468 C 17.858323,22.959954 24.385071,14.257624 32.426956,14.257624 C 40.468842,14.257624 46.995589,22.959954 46.995589,33.682468 z "
       id="path644"
       transform="matrix(1.373487,0.000000,0.000000,1.373487,-17.61598,-13.82184)" />
  </g>
  <path
     style="font-size:12.000000;fill:url(#linearGradient860);fill-rule:evenodd;stroke:#000000;stroke-width:1.4013087;"
     d="M 37.379166,52.612041 C 34.439061,51.577588 24.435864,47.260423 22.707256,45.338559 C 20.539178,42.928091 19.160261,35.335170 20.315343,32.711496 C 21.162396,30.787487 29.424330,25.877598 31.974207,24.901173 C 34.517441,23.927289 41.792556,54.164861 37.379166,52.612041 z "
     id="path637"
     sodipodi:nodetypes="cssss" />
  <path
     style="font-size:12.000000;fill:url(#linearGradient652);fill-rule:evenodd;stroke-width:1.0000000pt;"
     d="M 21.740888,33.450692 C 21.822014,33.192890 27.717264,28.219625 30.323751,27.353121 C 31.005612,27.126443 31.694312,29.890288 31.605931,30.171142 C 31.540865,30.377907 30.447622,28.621768 29.863414,28.815984 C 27.159274,29.714952 21.668568,33.680511 21.740888,33.450692 z "
     id="path642"
     sodipodi:nodetypes="cssss" />
  <path
     style="font-size:12.000000;fill:url(#linearGradient581);fill-rule:evenodd;stroke:#261933;stroke-width:1.4013087;"
     d="M 28.533897,42.223265 C 32.811422,52.393455 41.761137,58.343463 48.510940,55.504533 C 55.260741,52.665603 57.267227,42.107478 52.989702,31.937289 C 48.712176,21.767099 39.762461,15.817091 33.012659,18.656021 C 26.262856,21.494951 24.256371,32.053076 28.533897,42.223265 z "
     id="path635" />
  <path
     style="font-size:12.000000;fill:url(#linearGradient583);fill-rule:evenodd;stroke-width:0.37500000;"
     d="M 33.267278,40.232432 C 35.888988,46.465774 41.374296,50.112553 45.511274,48.372563 C 49.648249,46.632574 50.878031,40.161465 48.256322,33.928122 C 45.634611,27.694779 40.149302,24.048001 36.012326,25.787990 C 31.875349,27.527980 30.645569,33.999089 33.267278,40.232432 z "
     id="path636" />
  <path
     style="font-size:12.000000;fill:url(#linearGradient861);fill-rule:evenodd;stroke:#261933;stroke-width:0.36298034;"
     d="M 38.296496,38.117170 C 39.158901,40.167611 40.963277,41.367210 42.324124,40.794845 C 43.684973,40.222478 44.089506,38.093824 43.227101,36.043385 C 42.364696,33.992940 40.560319,32.793344 39.199470,33.365709 C 37.838624,33.938074 37.434090,36.066727 38.296496,38.117170 z "
     id="path638" />
  <path
     style="font-size:12.000000;fill:url(#linearGradient862);fill-rule:evenodd;stroke-width:1.0000000pt;"
     d="M 32.239209,45.807158 C 31.883575,45.460718 25.121850,33.641251 29.740102,23.735790 C 32.731527,17.479944 41.301039,19.984023 41.657196,20.330971 C 41.980722,20.646133 34.703844,19.047939 31.779153,25.722119 C 27.452354,35.905219 32.563259,46.122827 32.239209,45.807158 z "
     id="path639"
     sodipodi:nodetypes="cssss" />
  <path
     style="font-size:12.000000;fill:url(#linearGradient862);fill-rule:evenodd;stroke-width:1.0000000pt;"
     d="M 39.199786,38.955882 C 39.128101,38.886050 37.765125,36.503578 38.696038,34.506917 C 39.299023,33.245915 41.026396,33.750666 41.098187,33.820601 C 41.163401,33.884129 39.696587,33.561977 39.107053,34.907304 C 38.234891,36.959932 39.265105,39.019513 39.199786,38.955882 z "
     id="path640"
     sodipodi:nodetypes="cssss" />
  <path
     style="font-size:12.000000;fill:url(#linearGradient862);fill-rule:evenodd;stroke-width:1.0000000pt;"
     d="M 46.119261,32.189503 C 46.331168,32.395930 50.360192,39.438647 47.608372,45.340890 C 45.825909,49.068480 40.719702,47.576408 40.507483,47.369675 C 40.314708,47.181883 44.650690,48.134179 46.393389,44.157321 C 48.971545,38.089645 45.926174,32.001407 46.119261,32.189503 z "
     id="path641"
     sodipodi:nodetypes="cssss" />
  <metadata
     id="metadata944">
    <rdf:RDF
       id="RDF945">
      <cc:Work
         rdf:about=""
         id="Work946">
        <dc:format
           id="format947">image/svg+xml</dc:format>
        <dc:type
           id="type949"
           rdf:resource="http://purl.org/dc/dcmitype/StillImage" />
      </cc:Work>
    </rdf:RDF>
  </metadata>
  <g
     id="g804"
     style="opacity:0.29636899;"
     transform="matrix(-1.124860e-17,1.000000,-1.000000,-1.124860e-17,48.33808,-0.340860)">
    <rect
       style="font-size:12.000000;fill-rule:evenodd;stroke-width:1.8750000;stroke-linejoin:round;"
       id="rect800"
       width="50.132931"
       height="3.4355054"
       x="5.0896378"
       y="10.576260"
       transform="translate(1.619513,21.95340)" />
    <path
       style="font-size:12.000000;fill-rule:evenodd;stroke-width:1.8750000;"
       d="M 16.866969,41.128024 C 17.564696,42.401376 22.070811,42.398300 22.754132,41.128024 C 24.008358,38.796449 23.334142,33.754771 22.679611,30.322472 C 22.315688,28.414098 20.688330,25.118524 19.698769,25.105998 C 18.725943,25.093684 17.124572,28.368824 16.792447,30.247950 C 16.180639,33.709498 15.577467,38.774685 16.866969,41.128024 z "
       id="path801"
       sodipodi:nodetypes="csssss" />
  </g>
  <rect
     style="font-size:12.000000;fill:#261933;fill-opacity:1.0000000;fill-rule:evenodd;stroke:#261933;stroke-width:1.8750000;stroke-linejoin:round;stroke-opacity:1.0000000;"
     id="rect788"
     width="50.132931"
     height="3.4355054"
     x="4.1237793"
     y="-13.218807"
     transform="matrix(-1.124860e-17,1.000000,-1.000000,-1.124860e-17,0.000000,0.000000)" />
  <path
     style="font-size:12.000000;fill:url(#linearGradient566);fill-rule:evenodd;stroke:#261933;stroke-width:1.8750000;"
     d="M 4.4404950,15.001378 C 3.1671430,15.699105 3.1702190,20.205220 4.4404950,20.888541 C 6.7720700,22.142767 11.813748,21.468551 15.246047,20.814020 C 17.154422,20.450097 20.449995,18.822739 20.462521,17.833178 C 20.474835,16.860352 17.199696,15.258981 15.320569,14.926856 C 11.859021,14.315048 6.7938340,13.711876 4.4404950,15.001378 z "
     id="path789"
     sodipodi:nodetypes="csssss" />
  <path
     style="fill:url(#linearGradient569);fill-opacity:1.0000000;fill-rule:evenodd;stroke:none;stroke-width:1.0000000pt;stroke-linecap:butt;stroke-linejoin:miter;stroke-opacity:1.0000000;"
     d="M 8.1611400,15.830930 C 8.4809970,15.611029 15.621718,15.443527 18.561384,17.620219 C 18.986121,17.918560 17.350928,19.199847 16.772095,18.850356 C 14.307208,17.250265 7.8845670,16.021074 8.1611400,15.830930 z "
     id="path790"
     sodipodi:nodetypes="csss" />
</svg>
