<?xml version="1.0" encoding="UTF-8" standalone="no"?>
<!DOCTYPE svg PUBLIC "-//W3C//DTD SVG 20010904//EN"
"http://www.w3.org/TR/2001/REC-SVG-20010904/DTD/svg10.dtd">
<!-- Created with Inkscape (http://www.inkscape.org/) -->
<svg
   version="1.0"
   x="0"
   y="0"
   width="48pt"
   height="48pt"
   id="svg1"
   sodipodi:version="0.32"
   inkscape:version="0.39"
   sodipodi:docname="gdm-setup.svg"
   sodipodi:docbase="/home/scaba/files/pre-release/lila-gnome/Lila/scalable/apps"
   xmlns="http://www.w3.org/2000/svg"
   xmlns:inkscape="http://www.inkscape.org/namespaces/inkscape"
   xmlns:sodipodi="http://sodipodi.sourceforge.net/DTD/sodipodi-0.dtd"
   xmlns:xlink="http://www.w3.org/1999/xlink"
   xmlns:rdf="http://www.w3.org/1999/02/22-rdf-syntax-ns#"
   xmlns:cc="http://web.resource.org/cc/"
   xmlns:dc="http://purl.org/dc/elements/1.1/">
  <sodipodi:namedview
     id="base"
     pagecolor="#ffffff"
     bordercolor="#666666"
     borderopacity="1.0"
     inkscape:pageopacity="0.0"
     inkscape:pageshadow="2"
     inkscape:zoom="4.9119411"
     inkscape:cx="21.735756"
     inkscape:cy="34.578427"
     inkscape:window-width="514"
     inkscape:window-height="621"
     inkscape:window-x="101"
     inkscape:window-y="38" />
  <defs
     id="defs3">
    <linearGradient
       id="linearGradient1152">
      <stop
         offset="0.00000000"
         style="stop-color:#ffffff;stop-opacity:1;"
         id="stop1154" />
      <stop
         offset="1.00000000"
         style="stop-color:#ffffff;stop-opacity:0;"
         id="stop1153" />
    </linearGradient>
    <linearGradient
       id="linearGradient1149">
      <stop
         offset="0.00000000"
         style="stop-color:#ffffff;stop-opacity:1;"
         id="stop1151" />
      <stop
         offset="1.00000000"
         style="stop-color:#ffffff;stop-opacity:0;"
         id="stop1150" />
    </linearGradient>
    <linearGradient
       id="linearGradient1146">
      <stop
         offset="0.00000000"
         style="stop-color:#ffffff;stop-opacity:1;"
         id="stop1148" />
      <stop
         offset="1.00000000"
         style="stop-color:#d9cce6;stop-opacity:1;"
         id="stop1147" />
    </linearGradient>
    <linearGradient
       id="linearGradient778">
      <stop
         style="stop-color:#d9cce6;stop-opacity:1;"
         offset="0.00000000"
         id="stop780" />
      <stop
         style="stop-color:#73667f;stop-opacity:1;"
         offset="1.00000000"
         id="stop779" />
    </linearGradient>
    <linearGradient
       id="linearGradient570">
      <stop
         style="stop-color:#ffffff;stop-opacity:1;"
         offset="0"
         id="stop571" />
      <stop
         style="stop-color:#ffffff;stop-opacity:0;"
         offset="1"
         id="stop572" />
    </linearGradient>
    <linearGradient
       id="linearGradient563">
      <stop
         style="stop-color:#cac5fa;stop-opacity:1;"
         offset="0"
         id="stop564" />
      <stop
         style="stop-color:#9500ed;stop-opacity:1;"
         offset="1"
         id="stop565" />
    </linearGradient>
    <linearGradient
       x1="0.02542373"
       y1="0.00781250"
       x2="0.97457629"
       y2="0.98437500"
       id="linearGradient566"
       xlink:href="#linearGradient778" />
    <linearGradient
       x1="0.000005"
       y1="0.000006"
       x2="0.981818"
       y2="0.850001"
       id="linearGradient569"
       xlink:href="#linearGradient570" />
    <linearGradient
       x1="0.007752"
       y1="0.015627"
       x2="0.976744"
       y2="0.992188"
       id="linearGradient573"
       xlink:href="#linearGradient570" />
    <linearGradient
       x1="-0.146345"
       y1="0.000002"
       x2="0.975610"
       y2="0.703125"
       id="linearGradient575"
       xlink:href="#linearGradient570" />
    <linearGradient
       x1="0.00520833"
       y1="0.03125007"
       x2="1.00520825"
       y2="0.98437488"
       id="linearGradient578"
       xlink:href="#linearGradient778" />
    <linearGradient
       x1="0.018434"
       y1="0.031280"
       x2="1.009217"
       y2="1.007813"
       id="linearGradient583"
       xlink:href="#linearGradient570" />
    <linearGradient
       id="linearGradient637"
       xlink:href="#linearGradient778"
       x1="0.00833333"
       y1="0.00781250"
       x2="0.98333329"
       y2="0.96875006" />
    <linearGradient
       id="linearGradient640"
       xlink:href="#linearGradient1146"
       x1="0.03378378"
       y1="0.02580645"
       x2="0.98648649"
       y2="0.95483869" />
    <linearGradient
       x1="0.010877"
       y1="0.038449"
       x2="0.989090"
       y2="0.987177"
       id="linearGradient645"
       xlink:href="#linearGradient570" />
    <linearGradient
       x1="0.056578"
       y1="0.023450"
       x2="0.867923"
       y2="0.976563"
       id="linearGradient646"
       xlink:href="#linearGradient570" />
    <linearGradient
       x1="0.000007"
       y1="0.000000"
       x2="0.951807"
       y2="0.984375"
       id="linearGradient647"
       xlink:href="#linearGradient570" />
    <linearGradient
       x1="0.056605"
       y1="0.015625"
       x2="0.943396"
       y2="0.984375"
       id="linearGradient675"
       xlink:href="#linearGradient570" />
    <linearGradient
       x1="0.011765"
       y1="-0.000000"
       x2="1.011765"
       y2="1.015625"
       id="linearGradient676"
       xlink:href="#linearGradient570" />
    <defs
       id="defs613">
      <linearGradient
         id="linearGradient1535"
         x1="0.00000000"
         y1="0.00000000"
         x2="1.00000000"
         y2="0.00000000"
         gradientUnits="objectBoundingBox"
         spreadMethod="pad"
         xlink:href="#linearGradient1149" />
      <linearGradient
         x1="0.000000"
         y1="0.000000"
         x2="1.000000"
         y2="0.000000"
         id="linearGradient1528"
         xlink:href="#linearGradient778"
         gradientUnits="objectBoundingBox"
         spreadMethod="pad" />
      <linearGradient
         id="linearGradient642"
         x1="0.00000000"
         y1="0.00000000"
         x2="1.00000000"
         y2="0.00000000"
         gradientUnits="objectBoundingBox"
         spreadMethod="pad"
         xlink:href="#linearGradient1152" />
      <linearGradient
         id="linearGradient635"
         x1="0.00000000"
         y1="0.00000000"
         x2="1.00000000"
         y2="0.00000000"
         gradientUnits="objectBoundingBox"
         spreadMethod="pad"
         xlink:href="#linearGradient1146" />
      <linearGradient
         x1="0.984000"
         y1="0.960938"
         x2="-0.008000"
         y2="0.007813"
         id="linearGradient638"
         xlink:href="#linearGradient1528" />
      <linearGradient
         x1="0.027523"
         y1="0.023438"
         x2="1.000000"
         y2="1.015625"
         id="linearGradient641"
         xlink:href="#linearGradient642" />
      <linearGradient
         x1="-0.000009"
         y1="0.015624"
         x2="0.727272"
         y2="0.984375"
         id="linearGradient1522"
         xlink:href="#linearGradient642" />
      <linearGradient
         x1="0.027523"
         y1="0.007813"
         x2="1.009174"
         y2="0.992188"
         id="linearGradient1527"
         xlink:href="#linearGradient1535" />
      <linearGradient
         x1="0.010743"
         y1="0.031251"
         x2="0.967741"
         y2="0.992187"
         id="linearGradient1532"
         xlink:href="#linearGradient635" />
      <linearGradient
         x1="0.007275"
         y1="-0.012819"
         x2="0.996364"
         y2="0.974359"
         id="linearGradient1534"
         xlink:href="#linearGradient635" />
      <linearGradient
         x1="0.017094"
         y1="0.000000"
         x2="0.974359"
         y2="0.984375"
         id="linearGradient1539"
         xlink:href="#linearGradient1535" />
      <linearGradient
         id="linearGradient1567"
         xlink:href="#linearGradient1535" />
    </defs>
  </defs>
  <metadata
     id="metadata1216">
    <rdf:RDF
       id="RDF1217">
      <cc:Work
         rdf:about=""
         id="Work1218">
        <dc:format
           id="format1219">image/svg+xml</dc:format>
        <dc:type
           id="type1221"
           rdf:resource="http://purl.org/dc/dcmitype/StillImage" />
      </cc:Work>
    </rdf:RDF>
  </metadata>
  <path
     d="M 11.099234,56.528556 C 11.725252,56.943950 14.385402,58.075493 15.702001,57.793272 C 16.803500,57.437011 54.825478,45.020200 55.761095,43.562331 C 56.739756,41.970439 55.476427,10.996809 54.320380,9.9460241 C 53.073139,8.8013783 12.558913,4.7185273 11.313163,4.6818993 C 10.184178,4.5398423 7.4288880,5.5125473 6.8971550,6.1040463 C 5.8388170,7.2691483 9.9326410,55.672525 11.099234,56.528556 z "
     style="font-size:12.000000;opacity:0.29999998;fill-rule:evenodd;stroke-width:12.500000;"
     id="path1113" />
  <path
     d="M 10.925061,53.879818 C 11.515931,54.271588 14.025144,55.338952 15.267288,55.072914 C 16.306611,54.736724 52.175311,43.023045 53.057848,41.647732 C 53.981087,40.145982 52.789397,10.926303 51.698816,9.9349211 C 50.522301,8.8551943 12.302084,5.0036033 11.126976,4.9690193 C 10.061923,4.8350053 7.4627080,5.7525573 6.9610260,6.3105733 C 5.9626450,7.4097283 9.8245310,53.072257 10.925061,53.879818 z "
     style="font-size:12.000000;fill:url(#linearGradient637);fill-rule:evenodd;stroke:#261933;stroke-width:2.6491566;stroke-opacity:1.0000000;"
     id="path1114" />
  <path
     d="M 14.549480,53.086930 C 14.240929,52.778381 10.533392,7.7916473 11.038431,6.5371023 C 11.348288,6.1621863 50.030229,10.531519 50.339582,10.840873 C 50.634165,11.135658 14.493498,6.4184263 12.964008,8.6890593 C 11.303665,11.040377 14.844863,53.382316 14.549480,53.086930 z "
     style="font-size:12.000000;opacity:0.69999999;fill:url(#linearGradient641);fill-rule:evenodd;stroke:none;stroke-width:1.0329400pt;"
     id="path1115" />
  <path
     d="M 11.718046,52.407416 C 11.603471,52.235451 8.2563450,21.618150 8.0936580,7.2166283 C 8.0839000,6.7051553 10.002926,6.3431673 10.132275,6.5371023 C 10.229467,6.6829343 8.7654570,7.8389553 8.7732340,8.2359613 C 8.9418420,22.638678 11.829909,52.575260 11.718046,52.407416 z "
     style="font-size:12.000000;opacity:0.69993597;fill:url(#linearGradient1522);fill-rule:evenodd;stroke:none;stroke-width:1.0329400pt;"
     id="path1116" />
  <path
     d="M 15.333320,10.944797 C 14.722850,11.721904 16.515057,47.850510 17.444733,48.527513 C 18.404759,49.149839 48.573908,39.481442 49.326590,38.498500 C 50.036460,37.676972 49.065579,14.634042 48.587675,13.795325 C 47.972584,12.901031 16.000171,10.201662 15.333320,10.944797 z "
     style="font-size:12.000000;fill:#261933;fill-opacity:1.0000000;fill-rule:evenodd;stroke:#261933;stroke-width:0.65345865;stroke-opacity:1.0000000;"
     id="path1117" />
  <path
     d="M 17.866955,46.521731 C 17.632478,46.232881 15.500760,12.888970 16.072433,12.106134 C 16.829037,11.214351 45.185978,13.928998 45.420456,14.217548 C 45.643578,14.491827 19.720975,11.597678 17.444733,13.795226 C 15.893234,15.295266 18.089875,46.795909 17.866955,46.521731 z "
     style="font-size:12.000000;opacity:0.69993597;fill:url(#linearGradient1527);fill-rule:evenodd;stroke:none;stroke-width:0.96279802pt;"
     id="path1118" />
  <g
     id="g1228"
     style="opacity:0.64999998;"
     transform="matrix(1.412883,0.000000,0.000000,1.412883,3.197811,-8.456838)">
    <path
       d="M 17.272691,27.252745 C 17.079373,26.841056 14.203512,26.431351 13.725357,24.451189 C 13.241459,22.430942 15.836261,19.046230 18.768315,18.646001 C 22.697259,18.077730 28.347052,22.164601 29.009715,24.774806 C 29.751611,27.677994 20.665797,35.158075 17.848149,35.133412 C 15.113523,35.140955 14.168131,32.967056 14.331646,31.367743 C 14.507193,29.785358 17.387213,27.641809 17.272691,27.252745 z M 19.712331,22.661292 C 20.504876,21.733204 22.169508,22.919646 21.817621,23.756714 C 21.397421,24.675809 18.932136,23.574926 19.712331,22.661292 z "
       style="font-size:12.000000;opacity:0.20000000;fill:none;fill-rule:evenodd;stroke:url(#linearGradient640);stroke-width:0.53754902;stroke-linejoin:round;"
       id="path1229"
       transform="translate(0.000000,-0.179946)" />
    <path
       d="M 17.091377,27.225119 C 16.887315,26.790549 13.851613,26.358072 13.346882,24.267853 C 12.836090,22.135320 15.575111,18.562485 18.670129,18.140012 C 22.817444,17.540156 28.781253,21.854176 29.480746,24.609456 C 30.263877,27.674003 20.673073,35.569828 17.698820,35.543794 C 14.812203,35.551756 13.814267,33.257032 13.986869,31.568829 C 14.172173,29.898494 17.212265,27.635807 17.091377,27.225119 z M 19.666613,22.378473 C 20.503208,21.398802 22.260360,22.651186 21.888915,23.534778 C 21.445361,24.504956 18.843055,23.342886 19.666613,22.378473 z "
       style="font-size:12.000000;opacity:0.20178296;fill:none;fill-rule:evenodd;stroke:url(#linearGradient640);stroke-width:1.2500000;stroke-linejoin:round;"
       id="path1230"
       transform="translate(0.000000,-0.179946)" />
    <path
       d="M 17.091377,27.225119 C 16.887315,26.790549 13.851613,26.358072 13.346882,24.267853 C 12.836090,22.135320 15.575111,18.562485 18.670129,18.140012 C 22.817444,17.540156 28.781253,21.854176 29.480746,24.609456 C 30.263877,27.674003 20.673073,35.569828 17.698820,35.543794 C 14.812203,35.551756 13.814267,33.257032 13.986869,31.568829 C 14.172173,29.898494 17.212265,27.635807 17.091377,27.225119 z M 19.666613,22.378473 C 20.503208,21.398802 22.260360,22.651186 21.888915,23.534778 C 21.445361,24.504956 18.843055,23.342886 19.666613,22.378473 z "
       style="font-size:12.000000;opacity:0.14999999;fill:none;fill-rule:evenodd;stroke:url(#linearGradient640);stroke-width:3.7500000;stroke-linejoin:round;"
       id="path1231"
       transform="translate(0.000000,-0.179946)" />
    <path
       d="M 17.091377,27.225119 C 16.887315,26.790549 13.851613,26.358072 13.346882,24.267853 C 12.836090,22.135320 15.575111,18.562485 18.670129,18.140012 C 22.817444,17.540156 28.781253,21.854176 29.480746,24.609456 C 30.263877,27.674003 20.673073,35.569828 17.698820,35.543794 C 14.812203,35.551756 13.814267,33.257032 13.986869,31.568829 C 14.172173,29.898494 17.212265,27.635807 17.091377,27.225119 z M 19.666613,22.378473 C 20.503208,21.398802 22.260360,22.651186 21.888915,23.534778 C 21.445361,24.504956 18.843055,23.342886 19.666613,22.378473 z "
       style="font-size:12.000000;opacity:0.049999956;fill:none;fill-rule:evenodd;stroke:url(#linearGradient640);stroke-width:5.0000000;stroke-linejoin:round;"
       id="path1232"
       transform="translate(0.000000,-0.179946)" />
  </g>
  <path
     d="M 19.672592,38.595906 C 21.012390,39.302284 22.191767,36.048654 24.666452,38.882648 C 27.458774,42.082672 23.581144,42.462089 23.974189,43.833654 C 24.281706,44.748338 28.031654,43.854250 28.878860,42.852588 C 29.739390,41.835301 28.083139,39.004457 29.097339,37.776988 C 32.459814,33.707770 37.383927,29.643340 42.009001,26.962772 C 43.514799,26.090125 46.295188,27.950562 47.490006,27.117229 C 48.649397,26.308485 49.909516,22.507356 49.071452,22.036597 C 47.783417,21.284850 46.004627,25.497923 43.645510,22.711419 C 41.270705,19.905774 45.368202,18.460791 45.086794,17.304310 C 44.829853,16.366413 40.745916,17.225630 39.725901,18.283985 C 38.719880,19.327806 40.105804,22.308259 39.008684,23.610836 C 35.604837,27.651950 30.771154,31.662834 26.222945,34.315055 C 24.903770,35.084305 22.476875,33.175836 21.406466,33.875369 C 20.293444,34.602768 18.810238,38.092623 19.672592,38.595906 z "
     style="font-size:12.000000;opacity:0.30267498;fill-rule:evenodd;stroke-width:12.500000;"
     id="path1233" />
  <path
     d="M 18.747454,37.538580 C 20.087248,38.244958 21.266608,34.991327 23.741294,37.825322 C 26.533613,41.025345 22.655983,41.404761 23.049028,42.776331 C 23.356547,43.691011 27.106493,42.796925 27.953699,41.795261 C 28.814228,40.777974 27.157978,37.947131 28.172179,36.719661 C 31.534654,32.650444 36.458767,28.586015 41.083843,25.905443 C 42.589635,25.032800 45.370022,26.893237 46.564847,26.059899 C 47.724231,25.251159 48.984349,21.450029 48.146296,20.979271 C 46.858251,20.227524 45.079464,24.440598 42.720346,21.654092 C 40.345542,18.848445 44.443044,17.403464 44.161629,16.247014 C 43.904693,15.309111 39.820758,16.168351 38.800743,17.226658 C 37.794720,18.270478 39.180644,21.250930 38.083520,22.553510 C 34.679676,26.594621 29.845996,30.605509 25.297785,33.257728 C 23.978610,34.026981 21.551714,32.118510 20.481323,32.818043 C 19.368306,33.545439 17.885102,37.035295 18.747454,37.538580 z "
     style="font-size:12.000000;fill:url(#linearGradient566);fill-rule:evenodd;stroke:#261933;stroke-width:0.52983117;stroke-opacity:1.0000000;"
     id="path1234" />
  <path
     d="M 19.282011,36.636313 C 19.245432,36.465564 20.057799,34.040003 20.867989,33.662645 C 21.665770,33.291042 24.071465,34.228741 24.105930,34.389495 C 24.137547,34.537107 21.916168,34.191852 21.066177,34.587745 C 20.308179,34.940814 19.311497,36.773931 19.282011,36.636313 z "
     style="font-size:12.000000;opacity:0.69993597;fill:url(#linearGradient578);fill-rule:evenodd;stroke:#ffffff;stroke-width:0.060570729pt;"
     id="path1235" />
  <path
     d="M 24.105930,42.121013 C 24.042573,42.089335 25.251931,41.235222 25.493671,40.667251 C 25.692524,40.200006 25.366230,38.984530 25.427589,39.015238 C 25.498396,39.050610 26.095684,40.382625 25.890167,40.865501 C 25.655092,41.417906 24.174740,42.155416 24.105930,42.121013 z "
     style="font-size:12.000000;opacity:0.69993597;fill:url(#linearGradient583);fill-rule:evenodd;stroke:#ffffff;stroke-width:0.060570729pt;"
     id="path1236" />
  <path
     d="M 25.896346,33.987972 C 25.842198,33.887910 30.745412,30.817688 32.956495,28.977000 C 35.080598,27.208630 38.848715,23.062306 38.902017,23.160795 C 38.956712,23.261766 35.438754,27.778422 33.280307,29.575319 C 31.103509,31.387478 25.950131,34.087371 25.896346,33.987972 z "
     style="font-size:12.000000;opacity:0.69999999;fill:url(#linearGradient575);fill-rule:evenodd;stroke:#ffffff;stroke-width:0.060570729pt;"
     id="path1237" />
  <path
     d="M 39.304692,20.380285 C 39.169135,20.244727 38.949989,18.382533 39.436797,17.869196 C 40.161467,17.104973 42.813023,16.421454 42.939129,16.547545 C 43.055306,16.663736 40.933384,17.784395 40.163710,18.596046 C 39.721907,19.061959 39.411419,20.487012 39.304692,20.380285 z "
     style="font-size:12.000000;opacity:0.69999999;fill:url(#linearGradient573);fill-rule:evenodd;stroke:#ffffff;stroke-width:0.060570729pt;"
     id="path1238" />
  <path
     d="M 43.864289,23.353957 C 43.853993,23.251044 44.894238,23.537850 45.318051,23.353957 C 46.061684,23.031233 47.356323,21.731864 47.366561,21.834049 C 47.378374,21.952101 46.131338,23.690427 45.384136,24.014724 C 44.963955,24.197101 43.876044,23.471281 43.864289,23.353957 z "
     style="font-size:12.000000;opacity:0.69993597;fill:url(#linearGradient569);fill-rule:evenodd;stroke:#ffffff;stroke-width:0.060570729pt;"
     id="path1239" />
</svg>
