<?xml version="1.0" encoding="UTF-8" standalone="no"?>
<!DOCTYPE svg PUBLIC "-//W3C//DTD SVG 20010904//EN"
"http://www.w3.org/TR/2001/REC-SVG-20010904/DTD/svg10.dtd">
<!-- Created with Inkscape (http://www.inkscape.org/) -->
<svg
   version="1.0"
   x="0"
   y="0"
   width="48pt"
   height="48pt"
   id="svg1"
   sodipodi:version="0.32"
   inkscape:version="0.38.1"
   sodipodi:docname="gnome-dev-mouse-optical.svg"
   sodipodi:docbase="/home/scaba/files/lila-artwork/devel"
   xmlns="http://www.w3.org/2000/svg"
   xmlns:inkscape="http://www.inkscape.org/namespaces/inkscape"
   xmlns:sodipodi="http://sodipodi.sourceforge.net/DTD/sodipodi-0.dtd"
   xmlns:xlink="http://www.w3.org/1999/xlink">
  <sodipodi:namedview
     id="base"
     pagecolor="#ffffff"
     bordercolor="#666666"
     borderopacity="1.0"
     inkscape:pageopacity="0.0"
     inkscape:pageshadow="2"
     inkscape:zoom="10.605436"
     inkscape:cx="13.258900"
     inkscape:cy="23.893829"
     inkscape:window-width="1018"
     inkscape:window-height="695"
     inkscape:window-x="0"
     inkscape:window-y="26"
     showguides="true"
     snaptoguides="true" />
  <defs
     id="defs3">
    <linearGradient
       id="linearGradient945">
      <stop
         style="stop-color:#73667f;stop-opacity:1.0000000;"
         offset="0.0000000"
         id="stop946" />
      <stop
         style="stop-color:#261933;stop-opacity:1.0000000;"
         offset="1.0000000"
         id="stop947" />
    </linearGradient>
    <linearGradient
       id="linearGradient1152">
      <stop
         offset="0.00000000"
         style="stop-color:#ffffff;stop-opacity:1;"
         id="stop1154" />
      <stop
         offset="1.00000000"
         style="stop-color:#ffffff;stop-opacity:0;"
         id="stop1153" />
    </linearGradient>
    <linearGradient
       id="linearGradient1149">
      <stop
         offset="0.00000000"
         style="stop-color:#ffffff;stop-opacity:1;"
         id="stop1151" />
      <stop
         offset="1.00000000"
         style="stop-color:#ffffff;stop-opacity:0;"
         id="stop1150" />
    </linearGradient>
    <linearGradient
       id="linearGradient1146">
      <stop
         offset="0.00000000"
         style="stop-color:#ffffff;stop-opacity:1;"
         id="stop1148" />
      <stop
         offset="1.00000000"
         style="stop-color:#d9cce6;stop-opacity:1;"
         id="stop1147" />
    </linearGradient>
    <linearGradient
       id="linearGradient778">
      <stop
         style="stop-color:#d9cce6;stop-opacity:1.0000000;"
         offset="0.0000000"
         id="stop780" />
      <stop
         style="stop-color:#73667f;stop-opacity:1;"
         offset="1.00000000"
         id="stop779" />
    </linearGradient>
    <linearGradient
       id="linearGradient570">
      <stop
         style="stop-color:#ffffff;stop-opacity:1;"
         offset="0"
         id="stop571" />
      <stop
         style="stop-color:#ffffff;stop-opacity:0;"
         offset="1"
         id="stop572" />
    </linearGradient>
    <linearGradient
       id="linearGradient563">
      <stop
         style="stop-color:#cac5fa;stop-opacity:1;"
         offset="0"
         id="stop564" />
      <stop
         style="stop-color:#9500ed;stop-opacity:1;"
         offset="1"
         id="stop565" />
    </linearGradient>
    <linearGradient
       id="linearGradient566"
       xlink:href="#linearGradient778"
       x1="1.0654762"
       y1="0.47999999"
       x2="0.093750000"
       y2="0.47999999" />
    <linearGradient
       x1="0.000005"
       y1="0.000006"
       x2="0.981818"
       y2="0.850001"
       id="linearGradient569"
       xlink:href="#linearGradient570" />
    <linearGradient
       x1="0.007752"
       y1="0.015627"
       x2="0.976744"
       y2="0.992188"
       id="linearGradient573"
       xlink:href="#linearGradient570" />
    <linearGradient
       x1="-0.146345"
       y1="0.000002"
       x2="0.975610"
       y2="0.703125"
       id="linearGradient575"
       xlink:href="#linearGradient570" />
    <linearGradient
       x1="0.00520833"
       y1="0.03125007"
       x2="1.00520825"
       y2="0.98437488"
       id="linearGradient578"
       xlink:href="#linearGradient778" />
    <linearGradient
       x1="0.018434"
       y1="0.031280"
       x2="1.009217"
       y2="1.007813"
       id="linearGradient583"
       xlink:href="#linearGradient570" />
    <linearGradient
       id="linearGradient637"
       xlink:href="#linearGradient778"
       x1="0.00833333"
       y1="0.00781250"
       x2="0.98333329"
       y2="0.96875006" />
    <linearGradient
       id="linearGradient640"
       xlink:href="#linearGradient1146"
       x1="0.03378378"
       y1="0.02580645"
       x2="0.98648649"
       y2="0.95483869" />
    <linearGradient
       id="linearGradient645"
       xlink:href="#linearGradient778"
       x1="-1.8268807e-16"
       y1="0.50000000"
       x2="1.0000000"
       y2="0.50000000" />
    <linearGradient
       id="linearGradient646"
       xlink:href="#linearGradient778"
       x1="-2.3581397e-18"
       y1="0.50000000"
       x2="1.0000000"
       y2="0.50000000" />
    <linearGradient
       id="linearGradient647"
       xlink:href="#linearGradient1149"
       x1="-0.0034482758"
       y1="-0.020000000"
       x2="1.0000000"
       y2="0.50000000" />
    <linearGradient
       id="linearGradient675"
       xlink:href="#linearGradient570" />
    <linearGradient
       id="linearGradient676"
       xlink:href="#linearGradient570" />
    <defs
       id="defs613">
      <linearGradient
         id="linearGradient1535"
         x1="0.00000000"
         y1="0.00000000"
         x2="1.00000000"
         y2="0.00000000"
         gradientUnits="objectBoundingBox"
         spreadMethod="pad"
         xlink:href="#linearGradient1149" />
      <linearGradient
         x1="0.000000"
         y1="0.000000"
         x2="1.000000"
         y2="0.000000"
         id="linearGradient1528"
         xlink:href="#linearGradient778"
         gradientUnits="objectBoundingBox"
         spreadMethod="pad" />
      <linearGradient
         id="linearGradient642"
         x1="0.00000000"
         y1="0.00000000"
         x2="1.00000000"
         y2="0.00000000"
         gradientUnits="objectBoundingBox"
         spreadMethod="pad"
         xlink:href="#linearGradient1152" />
      <linearGradient
         id="linearGradient635"
         x1="0.00000000"
         y1="0.00000000"
         x2="1.00000000"
         y2="0.00000000"
         gradientUnits="objectBoundingBox"
         spreadMethod="pad"
         xlink:href="#linearGradient1146" />
      <linearGradient
         x1="0.984000"
         y1="0.960938"
         x2="-0.008000"
         y2="0.007813"
         id="linearGradient638"
         xlink:href="#linearGradient1528" />
      <linearGradient
         x1="0.027523"
         y1="0.023438"
         x2="1.000000"
         y2="1.015625"
         id="linearGradient641"
         xlink:href="#linearGradient642" />
      <linearGradient
         x1="-0.000009"
         y1="0.015624"
         x2="0.727272"
         y2="0.984375"
         id="linearGradient1522"
         xlink:href="#linearGradient642" />
      <linearGradient
         x1="0.027523"
         y1="0.007813"
         x2="1.009174"
         y2="0.992188"
         id="linearGradient1527"
         xlink:href="#linearGradient1535" />
      <linearGradient
         x1="0.010743"
         y1="0.031251"
         x2="0.967741"
         y2="0.992187"
         id="linearGradient1532"
         xlink:href="#linearGradient635" />
      <linearGradient
         x1="0.007275"
         y1="-0.012819"
         x2="0.996364"
         y2="0.974359"
         id="linearGradient1534"
         xlink:href="#linearGradient635" />
      <linearGradient
         x1="0.017094"
         y1="0.000000"
         x2="0.974359"
         y2="0.984375"
         id="linearGradient1539"
         xlink:href="#linearGradient1535" />
      <linearGradient
         id="linearGradient1567"
         xlink:href="#linearGradient1535" />
    </defs>
    <linearGradient
       xlink:href="#linearGradient570"
       id="linearGradient952"
       x1="-3.8814438e-17"
       y1="0.50000000"
       x2="1.0000000"
       y2="0.50000000" />
    <linearGradient
       xlink:href="#linearGradient945"
       id="linearGradient956" />
  </defs>
  <path
     style="fill:#000000;fill-opacity:0.30000001;fill-rule:evenodd;stroke:none;stroke-width:1.8750000;stroke-dasharray:none;stroke-opacity:1.0000000;"
     d="M 10.804827,13.478558 C 6.5542456,16.151845 1.5894561,20.413692 3.8056419,27.711365 C 5.1105602,31.229540 7.8930353,32.581965 10.944812,33.347417 C 26.183225,40.666991 18.233579,52.408673 34.717793,56.457504 C 37.444099,57.736729 40.200390,56.368234 42.715631,55.194788 C 48.884969,52.446374 55.174355,47.951668 57.506358,40.664861 C 58.101270,36.386282 47.750277,28.185207 44.995307,25.785061 C 41.548558,22.877630 39.398069,18.293628 37.420163,13.830323 C 34.189077,9.0882643 26.257600,7.9516621 21.422183,9.2545779 C 18.178860,9.9747018 15.055409,10.596892 10.804827,13.478558 z "
     id="path955"
     sodipodi:nodetypes="cccccccccz" />
  <path
     style="fill:url(#linearGradient646);fill-opacity:1.00000000;fill-rule:evenodd;stroke:#261933;stroke-width:1.9072020;"
     d="M 10.354905,9.4171755 C 6.1043229,12.090463 1.1395333,16.352310 3.3557192,23.649983 C 4.6606375,27.168158 7.4431122,28.520583 10.494890,29.286035 C 25.733303,36.605609 17.783656,48.347291 34.267871,52.396122 C 37.465633,53.321755 39.750468,52.306852 42.265709,51.133406 C 48.435047,48.384992 54.724433,43.890286 57.056436,36.603479 C 57.651347,32.324900 47.300355,24.123825 44.545385,21.723679 C 41.098636,18.816248 38.948147,14.232246 36.970241,9.7689409 C 33.739155,5.0268823 25.807678,3.8902801 20.972261,5.1931959 C 17.728938,5.9133198 14.605487,6.5355096 10.354905,9.4171755 z "
     id="path906"
     sodipodi:nodetypes="cccccccccz" />
  <path
     style="font-size:12.000000;fill:#f50000;fill-rule:evenodd;stroke:#3f0000;stroke-width:0.88657558;stroke-linecap:round;stroke-linejoin:round;"
     d="M 50.869338,47.578577 C 50.869338,48.480795 49.945051,49.213032 49.011576,49.213032 C 48.078100,49.213032 46.838425,49.091223 46.838425,48.189005 C 47.505165,47.654552 49.384841,46.539532 50.101606,45.706108 C 51.035081,45.706108 50.869338,46.676357 50.869338,47.578577 z "
     id="path954"
     sodipodi:nodetypes="ccccc" />
  <path
     style="fill:url(#linearGradient566);fill-rule:evenodd;stroke:#261933;stroke-width:1.9072020;"
     d="M 13.673677,30.543540 C 11.413491,29.945458 8.4708518,29.240114 5.8737724,27.392048 C 3.2766929,25.543981 2.9665280,22.317567 2.9718613,20.814845 C 3.3835462,19.315181 2.9378934,18.662279 7.5287111,18.626021 C 10.491289,18.849637 12.151770,18.864392 15.477276,20.330389 C 15.480595,23.870674 16.601989,28.854544 13.673677,30.543540 z "
     id="path938"
     sodipodi:nodetypes="cscccc" />
  <path
     style="fill:none;fill-opacity:1.00000000;fill-rule:evenodd;stroke:#261933;stroke-width:1.9072020;"
     d="M 16.032283,20.593204 C 19.417975,20.837061 23.337779,19.477417 23.638566,15.459743 C 24.400428,12.211472 26.053067,11.235949 29.312632,11.795667 C 33.075628,12.698611 36.230333,10.071953 36.193666,9.0993994"
     id="path943"
     sodipodi:nodetypes="cccc" />
  <path
     style="fill:none;fill-opacity:1.0000000;fill-rule:evenodd;stroke:#261933;stroke-width:1.4750000;stroke-dasharray:none;stroke-opacity:1.0000000;"
     d="M 26.434287,12.734303 C 25.321946,11.319934 24.371928,10.568467 22.220067,10.332738"
     id="path910"
     sodipodi:nodetypes="cc" />
  <path
     style="fill:url(#linearGradient645);fill-opacity:1.00000000;fill-rule:evenodd;stroke:#261933;stroke-width:1.4750000;stroke-opacity:1.0000000;stroke-dasharray:none;"
     d="M 21.008600,10.739819 C 21.641838,10.520944 22.345436,10.484841 22.767596,10.263793 C 22.626876,7.5266011 21.174511,6.6358796 19.120505,5.7518294 C 17.207220,4.8677786 14.540665,5.7572155 13.696348,7.1206416 C 14.780632,7.8137814 14.596692,8.2854985 16.578516,9.3622738 C 18.560342,10.303041 19.390326,10.550672 21.008600,10.739819 z "
     id="path944"
     sodipodi:nodetypes="cczczc" />
  <path
     style="fill:url(#linearGradient647);fill-rule:evenodd;stroke:none;stroke-opacity:1;stroke-width:1pt;stroke-linejoin:miter;stroke-linecap:butt;fill-opacity:0.75;"
     d="M 4.1759501,20.058430 C 5.2671218,19.235635 12.044817,19.802908 14.137218,20.611843 C 16.229618,21.420779 7.5988488,21.735365 6.1574178,21.510662 C 4.7159856,21.285957 3.8039678,21.361714 4.1759501,20.058430 z "
     id="path948"
     sodipodi:nodetypes="cccc" />
  <path
     style="fill:url(#linearGradient675);fill-rule:evenodd;stroke:none;stroke-opacity:1;stroke-width:1pt;stroke-linejoin:miter;stroke-linecap:butt;fill-opacity:0.75;"
     d="M 33.201309,49.868346 C 33.573292,43.936153 34.875230,41.599228 33.573292,38.902776 C 30.597433,34.408689 25.761665,30.274131 20.367921,27.218151 C 28.365540,29.914603 31.978966,35.127743 36.628746,36.925378 C 39.976586,37.824194 44.148794,34.574309 51.056460,34.228926 C 45.357636,36.819301 38.900538,39.737947 37.412609,41.176055 C 36.110670,42.614163 33.201309,49.868346 33.201309,49.868346 z "
     id="path949"
     sodipodi:nodetypes="ccccccc" />
  <path
     style="fill:url(#linearGradient676);fill-rule:evenodd;stroke:none;stroke-opacity:1;stroke-width:1pt;stroke-linejoin:miter;stroke-linecap:butt;fill-opacity:1.0000000;"
     d="M 4.7306925,17.175031 C 6.4583211,13.147912 9.2022015,11.379910 13.775336,8.9243494 C 10.828204,11.085242 12.352582,9.9065735 9.3038268,12.853246 C 6.2550706,15.799918 5.4420689,16.880364 4.7306925,17.175031 z "
     id="path950"
     sodipodi:nodetypes="cccc" />
  <path
     style="fill:url(#linearGradient952);fill-rule:evenodd;stroke:none;stroke-opacity:1;stroke-width:1pt;stroke-linejoin:miter;stroke-linecap:butt;fill-opacity:0.75;"
     d="M 15.198089,6.8616789 C 17.128967,6.2723445 18.246845,6.1741221 20.279349,7.4510134 C 22.311853,8.7279046 19.364722,6.9599013 17.637093,6.9599013 C 15.909465,6.9599013 15.198089,6.8616789 15.198089,6.8616789 z "
     id="path951" />
</svg>
