<?xml version="1.0" encoding="UTF-8" standalone="no"?>
<!DOCTYPE svg PUBLIC "-//W3C//DTD SVG 20010904//EN"
"http://www.w3.org/TR/2001/REC-SVG-20010904/DTD/svg10.dtd">
<!-- Created with Inkscape (http://www.inkscape.org/) -->
<svg
   version="1.0"
   x="0"
   y="0"
   width="48pt"
   height="48pt"
   id="svg1418"
   sodipodi:version="0.32"
   inkscape:version="0.40"
   sodipodi:docname="xfce4-menueditor.svg"
   sodipodi:docbase="/home/stefan/software/Lila-themes/new-lila-icons"
   xmlns="http://www.w3.org/2000/svg"
   xmlns:cc="http://web.resource.org/cc/"
   xmlns:inkscape="http://www.inkscape.org/namespaces/inkscape"
   xmlns:sodipodi="http://sodipodi.sourceforge.net/DTD/sodipodi-0.dtd"
   xmlns:rdf="http://www.w3.org/1999/02/22-rdf-syntax-ns#"
   xmlns:dc="http://purl.org/dc/elements/1.1/"
   xmlns:xlink="http://www.w3.org/1999/xlink">
  <metadata
     id="metadata23440">
    <rdf:RDF
       id="RDF23441">
      <cc:Work
         rdf:about=""
         id="Work23442">
        <dc:format
           id="format23443">image/svg+xml</dc:format>
        <dc:type
           id="type23445"
           rdf:resource="http://purl.org/dc/dcmitype/StillImage" />
      </cc:Work>
    </rdf:RDF>
  </metadata>
  <sodipodi:namedview
     id="base"
     pagecolor="#ffffff"
     bordercolor="#666666"
     borderopacity="1.0"
     inkscape:pageopacity="0.0"
     inkscape:pageshadow="2"
     inkscape:zoom="4.9119411"
     inkscape:cx="17.457656"
     inkscape:cy="24.037603"
     inkscape:window-width="640"
     inkscape:window-height="538"
     inkscape:window-x="155"
     inkscape:window-y="70"
     inkscape:current-layer="svg1418" />
  <defs
     id="defs1420">
    <linearGradient
       id="linearGradient1528">
      <stop
         style="stop-color:#d9cce6;stop-opacity:1;"
         offset="0.00000000"
         id="stop1530" />
      <stop
         style="stop-color:#73667f;stop-opacity:1;"
         offset="1.00000000"
         id="stop1529" />
    </linearGradient>
    <linearGradient
       inkscape:collect="always"
       xlink:href="#linearGradient1528"
       id="linearGradient4279"
       gradientTransform="matrix(0.865368,0.265526,-0.139872,0.455851,9.332952,-1.305465)"
       x1="-0.43160963"
       y1="18.962606"
       x2="43.538681"
       y2="64.070404"
       gradientUnits="userSpaceOnUse" />
    <linearGradient
       inkscape:collect="always"
       xlink:href="#linearGradient635"
       id="linearGradient1737"
       gradientUnits="userSpaceOnUse"
       gradientTransform="matrix(0.865368,0.265526,-0.139872,0.455851,-16.95314,-8.222801)"
       x1="62.744781"
       y1="29.903538"
       x2="66.546616"
       y2="37.299068" />
    <linearGradient
       id="linearGradient635">
      <stop
         style="stop-color:#e6cfff;stop-opacity:1;"
         offset="0"
         id="stop636" />
      <stop
         style="stop-color:#ffffff;stop-opacity:1;"
         offset="1"
         id="stop637" />
    </linearGradient>
    <linearGradient
       inkscape:collect="always"
       xlink:href="#linearGradient635"
       id="linearGradient1742"
       gradientUnits="userSpaceOnUse"
       gradientTransform="matrix(0.865368,0.265526,-0.139872,0.455851,-4.898992,-6.941335)"
       x1="51.308346"
       y1="41.828663"
       x2="55.511063"
       y2="49.427254" />
    <linearGradient
       inkscape:collect="always"
       xlink:href="#linearGradient1535"
       id="linearGradient2991"
       gradientTransform="matrix(0.869751,0.266870,-0.139166,0.453553,9.332952,-1.305465)"
       x1="13.727962"
       y1="36.868343"
       x2="24.198307"
       y2="47.310738"
       gradientUnits="userSpaceOnUse" />
    <linearGradient
       inkscape:collect="always"
       xlink:href="#linearGradient1535"
       id="linearGradient3001"
       gradientTransform="matrix(0.308116,9.454075e-2,-0.392837,1.280289,9.332952,-1.305465)"
       x1="80.319077"
       y1="9.1933622"
       x2="82.066483"
       y2="11.008551"
       gradientUnits="userSpaceOnUse" />
    <linearGradient
       id="linearGradient1535">
      <stop
         style="stop-color:#ffffff;stop-opacity:1;"
         offset="0"
         id="stop1537" />
      <stop
         style="stop-color:#ffffff;stop-opacity:0;"
         offset="1"
         id="stop1536" />
    </linearGradient>
    <linearGradient
       inkscape:collect="always"
       xlink:href="#linearGradient1535"
       id="linearGradient2997"
       gradientTransform="matrix(0.349991,0.107389,-0.345836,1.127108,9.332952,-1.305465)"
       x1="79.668472"
       y1="9.5031128"
       x2="81.436897"
       y2="11.285252"
       gradientUnits="userSpaceOnUse" />
    <linearGradient
       id="linearGradient621">
      <stop
         style="stop-color:#ffffff;stop-opacity:1;"
         offset="0.00000000"
         id="stop622" />
      <stop
         style="stop-color:#d9cce6;stop-opacity:1;"
         offset="1.00000000"
         id="stop623" />
    </linearGradient>
    <linearGradient
       id="linearGradient1439">
      <stop
         style="stop-color:#ffffff;stop-opacity:1;"
         offset="0"
         id="stop1440" />
      <stop
         style="stop-color:#ffffff;stop-opacity:0;"
         offset="1"
         id="stop1441" />
    </linearGradient>
    <linearGradient
       id="linearGradient1432">
      <stop
         style="stop-color:#7f7f7f;stop-opacity:1;"
         offset="0"
         id="stop1433" />
      <stop
         style="stop-color:#e6e6e6;stop-opacity:1;"
         offset="1"
         id="stop1434" />
    </linearGradient>
    <linearGradient
       id="linearGradient1428">
      <stop
         style="stop-color:#f50000;stop-opacity:1;"
         offset="0.00000000"
         id="stop1429" />
      <stop
         style="stop-color:#a90000;stop-opacity:1;"
         offset="1.00000000"
         id="stop1430" />
    </linearGradient>
    <linearGradient
       id="linearGradient1422">
      <stop
         style="stop-color:#d7a600;stop-opacity:1;"
         offset="0.00000000"
         id="stop1423" />
      <stop
         style="stop-color:#fff300;stop-opacity:1;"
         offset="1.00000000"
         id="stop1424" />
    </linearGradient>
    <linearGradient
       x1="46.900311"
       y1="25.839272"
       x2="35.574115"
       y2="13.769793"
       id="linearGradient1425"
       xlink:href="#linearGradient1422"
       gradientTransform="matrix(0.980436,0.000000,0.000000,1.019954,1.017927,12.97858)"
       gradientUnits="userSpaceOnUse" />
    <linearGradient
       x1="43.707467"
       y1="4.3865030"
       x2="51.636496"
       y2="12.439423"
       id="linearGradient1427"
       xlink:href="#linearGradient1428"
       gradientTransform="matrix(1.097184,0.000000,0.000000,0.911424,1.017927,12.97858)"
       gradientUnits="userSpaceOnUse" />
    <linearGradient
       x1="49.752802"
       y1="15.538123"
       x2="40.870128"
       y2="7.2425753"
       id="linearGradient1435"
       xlink:href="#linearGradient1432"
       gradientTransform="matrix(1.095210,0.000000,0.000000,0.913067,1.017927,12.97858)"
       gradientUnits="userSpaceOnUse" />
    <linearGradient
       x1="26.916558"
       y1="5.2246840"
       x2="55.448879"
       y2="33.534111"
       id="linearGradient1438"
       xlink:href="#linearGradient1439"
       gradientTransform="matrix(0.994299,0.000000,0.000000,1.005734,1.017927,12.97858)"
       gradientUnits="userSpaceOnUse" />
    <linearGradient
       id="linearGradient1443"
       xlink:href="#linearGradient1439"
       x1="0.00000000"
       y1="0.00000000"
       x2="0.98437500"
       y2="1.00781250" />
    <linearGradient
       xlink:href="#linearGradient621"
       id="linearGradient620"
       x1="0.00000000"
       y1="-0.00000000"
       x2="1.00877190"
       y2="0.99218750" />
  </defs>
  <path
     d="M 3.9230986 47.466839 C 4.6364073 49.597913 34.175178 59.180286 36.114614 57.572268 C 37.850615 56.117789 50.840287 12.82513 49.970538 11.108181 C 49.066465 9.215247 19.097346 4.5002744 17.67484 5.7949886 C 15.922617 7.3991396 3.1739413 45.021709 3.9230986 47.466839 z "
     style="font-size:12;opacity:0.302675;fill-rule:evenodd;stroke-width:12.5;"
     id="path639" />
  <path
     d="M 4.0246422 45.703028 C 4.6920321 47.696809 32.327786 56.661857 34.14227 55.157431 C 35.76643 53.796656 47.919274 13.293049 47.105561 11.686678 C 46.259728 9.9156919 18.221315 5.5045082 16.890452 6.7158123 C 15.251114 8.2166194 3.3237473 43.415422 4.0246422 45.703028 z "
     style="font-size:12;fill:url(#linearGradient620);fill-rule:evenodd;stroke:#261933;stroke-width:1.875;stroke-dasharray:none;"
     id="path634" />
  <path
     d="M 11.776270,30.741176 C 11.834505,29.811719 13.384259,28.938045 12.992243,28.162234 C 12.140816,28.406578 10.114250,28.193240 11.631090,27.171065 C 12.877456,26.683758 13.522151,25.703456 13.596349,24.369008 C 14.059430,22.642358 15.027444,21.055188 16.405073,19.920376 C 16.668347,18.681803 15.297266,17.576209 14.716887,16.533691 C 13.062959,14.209249 10.913644,12.336314 8.7947827,10.465876 C 8.1549219,9.7720701 6.6707379,8.6280631 6.7096789,7.9965131 C 8.3665629,9.4800211 10.049686,10.938901 11.909686,12.161061 C 14.266881,13.955100 16.018036,16.426311 17.470952,18.995214 C 18.699853,19.044528 20.224308,18.732321 21.399008,19.589495 C 23.366279,20.498882 25.065049,22.033574 27.379776,22.048057 C 28.757801,21.696395 29.690659,20.404829 29.577999,18.963013 C 29.510355,17.312795 31.838992,16.864037 31.813089,18.730374 C 32.032394,19.331690 31.918791,21.554079 32.772879,20.737234 C 32.906871,19.581633 32.749165,17.997061 33.861166,17.310542 C 35.356398,16.866373 35.518249,18.839722 35.180434,19.842741 C 34.882772,20.769292 34.503862,21.690313 35.756642,22.072738 C 37.747313,22.900949 39.925554,24.095474 40.932879,26.184015 C 41.483842,27.203820 40.853690,28.397618 39.765840,28.669332 C 37.749104,29.534899 35.528190,29.602322 33.419575,30.099078 C 32.233467,30.826515 33.278816,32.155424 33.604357,33.065290 C 34.243252,33.960485 33.635220,35.088036 32.732413,34.051761 C 32.051978,33.818452 30.968607,32.283750 30.407060,32.956649 C 30.547488,33.963325 31.976243,35.429161 30.768824,36.167887 C 29.183791,35.363646 28.037540,33.896586 26.559355,32.933305 C 22.924545,32.310758 19.243354,31.374378 16.087248,29.387770 C 14.926110,29.500659 13.898977,30.301300 12.783403,30.662660 C 12.511819,30.721394 11.911101,31.183639 11.776270,30.741176 z M 40.728352,24.398029 C 41.140924,23.822969 42.272905,22.565642 42.660556,22.731083 C 42.144988,23.193433 41.206891,24.572510 40.728352,24.398029 z M 40.194018,23.530974 C 40.322160,23.100083 41.445050,20.966095 40.928159,22.465029 C 40.899457,22.745145 39.766280,24.886386 40.194018,23.530974 z "
     id="path3020"
     style="fill:url(#linearGradient4279);fill-opacity:1.0000000;stroke:#261933;stroke-width:1.2318304;stroke-linecap:round;stroke-linejoin:round;stroke-miterlimit:4.0000000;stroke-opacity:1.0000000"
     sodipodi:nodetypes="ccccccccccccccccccccccccccccccccccc" />
  <path
     d="M 5.9048899 43.835426 C 5.6164728 43.104741 17.076275 9.1313354 18.147639 8.430714 C 19.486619 7.516933 41.132159 11.56207 41.419898 12.29104 C 41.683634 12.959164 24.531955 9.839367 20.716101 13.252549 C 13.397627 19.614898 6.1679485 44.501871 5.9048899 43.835426 z "
     style="font-size:12;opacity:0.699936;fill:url(#linearGradient1443);fill-rule:evenodd;stroke:none;stroke-width:0.100121pt;"
     id="path640" />
  <path
     d="M 34.422943,25.363059 C 35.461722,25.027018 33.234554,24.574802 33.648273,23.679906 C 33.104118,22.802635 33.047162,25.188855 33.850822,25.278209 C 34.013422,25.406260 34.233464,25.376000 34.422943,25.363059 z M 35.098150,24.536924 C 36.673793,23.480284 33.764269,22.383251 34.343501,24.269121 C 34.489596,24.525140 34.823979,24.633172 35.098150,24.536924 z "
     id="path1113"
     style="fill:url(#linearGradient1737);fill-opacity:1.0000000;stroke:#261933;stroke-width:0.41061011;stroke-linecap:round;stroke-linejoin:round;stroke-miterlimit:4.0000000;stroke-opacity:1.0000000"
     sodipodi:nodetypes="ccccccc" />
  <path
     d="M 27.490056,51.255194 C 28.333360,52.011258 32.166030,51.135874 33.706132,49.722428 C 42.866694,41.315053 54.063338,30.705521 59.592113,21.792812 C 60.648382,20.090020 55.153413,16.585646 53.461193,17.875850 C 44.878468,24.419609 36.196992,35.745646 28.767349,45.294592 C 27.539971,46.872093 26.687100,50.535310 27.490056,51.255194 z "
     style="font-size:12.000000;opacity:0.29999998;fill:#3f3f19;fill-rule:evenodd;stroke-width:12.500000"
     id="path1442" />
  <path
     d="M 34.610931,29.096279 C 35.166407,29.106490 37.121027,28.120883 35.938336,27.923584 C 35.648748,27.915513 33.288416,29.273508 34.610931,29.096279 z M 34.312495,27.644323 C 34.867977,27.737076 37.243928,27.318199 35.693423,27.016068 C 35.219712,27.125656 33.493722,27.109201 33.782263,27.653324 C 33.958982,27.664455 34.135804,27.648650 34.312495,27.644323 z "
     id="path1741"
     style="fill:url(#linearGradient1742);fill-opacity:1.0000000;stroke:#261933;stroke-width:0.41061011;stroke-linecap:round;stroke-linejoin:round;stroke-miterlimit:4.0000000;stroke-opacity:1.0000000"
     sodipodi:nodetypes="ccccccc" />
  <path
     d="M 26.042448,50.148217 C 26.885754,50.904282 30.718422,50.028898 32.258524,48.615451 C 41.419087,40.208077 52.615730,29.598545 58.144499,20.685836 C 59.200777,18.983042 53.705807,15.478676 52.013585,16.768879 C 43.430863,23.312632 34.749385,34.638668 27.319741,44.187615 C 26.092364,45.765117 25.239485,49.428334 26.042448,50.148217 z "
     style="font-size:12.000000;fill:url(#linearGradient1425);fill-rule:evenodd;stroke:#3f3f19;stroke-width:1.8750000"
     id="path1421" />
  <path
     d="M 48.799170,20.047225 C 48.861817,20.689000 54.272133,24.508363 54.972598,24.432484 C 55.207138,24.421335 57.869034,20.487542 57.846521,20.217541 C 57.698792,18.701677 54.729497,16.944776 52.865159,16.917884 C 51.805221,16.902420 48.779467,19.866696 48.799170,20.047225 z "
     style="font-size:12.000000;fill:url(#linearGradient1427);fill-rule:evenodd;stroke-width:1.0000000pt"
     id="path1426" />
  <path
     style="fill:url(#linearGradient2991);fill-opacity:1.0000000;fill-rule:evenodd;stroke:none;stroke-width:0.25000000pt;stroke-linecap:butt;stroke-linejoin:miter;stroke-opacity:1.0000000"
     d="M 14.749459,23.549568 C 14.529043,23.232330 16.602778,19.895983 17.857253,19.729269 C 18.947798,19.584341 20.194728,19.689620 22.793821,21.161023 C 26.439720,23.225043 27.605699,22.757443 27.677365,22.953922 C 28.100373,24.113658 20.708168,21.304803 18.660117,21.576980 C 17.272605,21.761374 14.955938,23.846748 14.749459,23.549568 z "
     id="path2987"
     sodipodi:nodetypes="csssss" />
  <path
     d="M 46.149937,22.612958 C 46.216324,23.293140 51.950723,27.341291 52.693119,27.260882 C 52.941688,27.249085 55.160961,24.524761 55.137013,24.238577 C 54.980438,22.631875 50.798576,19.869430 48.833769,19.958543 C 48.430345,19.970842 46.129076,22.421641 46.149937,22.612958 z "
     style="font-size:12.000000;fill:url(#linearGradient1435);fill-rule:evenodd;stroke:#3f3f19;stroke-width:1.1250000"
     id="path1431" />
  <path
     style="fill:url(#linearGradient3001);fill-opacity:1.0000000;fill-rule:evenodd;stroke:none;stroke-width:0.25000000pt;stroke-linecap:butt;stroke-linejoin:miter;stroke-opacity:1.0000000"
     d="M 30.188070,19.720882 C 30.174078,19.620911 30.168477,18.878937 30.339821,18.498438 C 30.511165,18.117940 30.979403,18.160898 31.037557,18.213990 C 31.095712,18.267085 30.928134,18.457381 30.617693,18.757433 C 30.309750,19.055071 30.201168,19.814458 30.188070,19.720882 z "
     id="path2992"
     sodipodi:nodetypes="czzzz" />
  <ellipse
     cx="152.36185"
     cy="565.56213"
     rx="26.788887"
     ry="26.788879"
     transform="matrix(8.379811e-2,0.000000,0.000000,8.379811e-2,13.53002,2.673906)"
     style="font-size:12.000000;fill:#3f3f19;fill-rule:evenodd;stroke-width:1.0000000pt"
     id="path1436"
     sodipodi:cx="152.36185"
     sodipodi:cy="565.56213"
     sodipodi:rx="26.788887"
     sodipodi:ry="26.788879" />
  <path
     style="fill:url(#linearGradient2997);fill-opacity:1.0000000;fill-rule:evenodd;stroke:none;stroke-width:0.25000000pt;stroke-linecap:butt;stroke-linejoin:miter;stroke-opacity:1.0000000"
     d="M 33.489817,20.023935 C 33.451219,19.971806 33.558082,18.644945 33.833112,18.225759 C 34.111940,17.800788 34.395772,17.912456 34.434371,17.964586 C 34.472969,18.016714 34.257315,18.169599 34.081649,18.483307 C 33.905984,18.797016 33.528416,20.076064 33.489817,20.023935 z "
     id="path2993"
     sodipodi:nodetypes="czzzz" />
  <path
     d="M 27.319741,47.167913 C 31.012807,40.595384 43.256734,25.604047 52.439445,17.790670 C 53.446450,16.833395 56.582393,18.881990 56.611809,19.323385 C 56.639135,19.733493 53.593535,19.410053 52.609757,20.345205 C 43.829463,28.691587 30.454030,42.771867 27.319741,47.167913 z "
     style="font-size:12.000000;opacity:0.99000001;fill:url(#linearGradient1438);fill-rule:evenodd;stroke:none;stroke-width:0.10687400pt"
     id="path1437" />
</svg>
