<?xml version="1.0" encoding="UTF-8" standalone="no"?>
<!DOCTYPE svg PUBLIC "-//W3C//DTD SVG 20010904//EN"
"http://www.w3.org/TR/2001/REC-SVG-20010904/DTD/svg10.dtd">
<!-- Created with Inkscape (http://www.inkscape.org/) -->
<svg
   width="48pt"
   height="48pt"
   id="svg1061"
   sodipodi:version="0.32"
   inkscape:version="0.40"
   sodipodi:docbase="/home/stefan/software/Lila-themes/svg-icons/lila/gnome/scalable/apps"
   sodipodi:docname="xfmedia.svg"
   inkscape:export-filename="/home/andrew/images/xfmedia.png"
   inkscape:export-xdpi="72.000000"
   inkscape:export-ydpi="72.000000"
   xmlns="http://www.w3.org/2000/svg"
   xmlns:cc="http://web.resource.org/cc/"
   xmlns:inkscape="http://www.inkscape.org/namespaces/inkscape"
   xmlns:sodipodi="http://sodipodi.sourceforge.net/DTD/sodipodi-0.dtd"
   xmlns:rdf="http://www.w3.org/1999/02/22-rdf-syntax-ns#"
   xmlns:dc="http://purl.org/dc/elements/1.1/"
   xmlns:xlink="http://www.w3.org/1999/xlink">
  <defs
     id="defs3">
    <linearGradient
       inkscape:collect="always"
       xlink:href="#linearGradient635"
       id="linearGradient1737"
       gradientUnits="userSpaceOnUse"
       gradientTransform="matrix(1.295447,0.000000,0.000000,0.682404,-37.17697,14.83243)"
       x1="62.744781"
       y1="29.903538"
       x2="66.546616"
       y2="37.299068" />
    <linearGradient
       inkscape:collect="always"
       xlink:href="#linearGradient635"
       id="linearGradient1742"
       gradientUnits="userSpaceOnUse"
       gradientTransform="matrix(1.295447,0.000000,0.000000,0.682404,-20.14676,11.52533)"
       x1="51.308346"
       y1="41.828663"
       x2="55.511063"
       y2="49.427254" />
    <linearGradient
       inkscape:collect="always"
       xlink:href="#linearGradient1535"
       id="linearGradient2991"
       gradientTransform="matrix(1.302006,0.000000,0.000000,0.678965,1.691016,13.26156)"
       x1="13.727962"
       y1="36.868343"
       x2="24.198307"
       y2="47.310738"
       gradientUnits="userSpaceOnUse" />
    <linearGradient
       inkscape:collect="always"
       xlink:href="#linearGradient1535"
       id="linearGradient3001"
       gradientTransform="matrix(0.461247,0.000000,0.000000,1.916578,1.691016,13.26156)"
       x1="80.319077"
       y1="9.1933622"
       x2="82.066483"
       y2="11.008551"
       gradientUnits="userSpaceOnUse" />
    <linearGradient
       inkscape:collect="always"
       xlink:href="#linearGradient1535"
       id="linearGradient2997"
       gradientTransform="matrix(0.523934,0.000000,0.000000,1.687269,1.691016,13.26156)"
       x1="79.668472"
       y1="9.5031128"
       x2="81.436897"
       y2="11.285252"
       gradientUnits="userSpaceOnUse" />
    <linearGradient
       x1="0.978904"
       y1="0.968750"
       x2="0.008439"
       y2="0.023437"
       id="linearGradient899"
       xlink:href="#linearGradient642" />
    <defs
       id="defs839">
      <linearGradient
         id="linearGradient983">
        <stop
           style="stop-color:#2ad700;stop-opacity:1;"
           offset="0"
           id="stop984" />
        <stop
           style="stop-color:#e5ffe5;stop-opacity:1;"
           offset="1"
           id="stop985" />
      </linearGradient>
      <linearGradient
         id="linearGradient843">
        <stop
           style="stop-color:#ffffff;stop-opacity:1;"
           offset="0"
           id="stop844" />
        <stop
           style="stop-color:#ffffff;stop-opacity:0;"
           offset="1"
           id="stop845" />
      </linearGradient>
      <linearGradient
         id="linearGradient846">
        <stop
           style="stop-color:#a673f3;stop-opacity:1;"
           offset="0"
           id="stop847" />
        <stop
           style="stop-color:#4c3f8c;stop-opacity:1;"
           offset="1"
           id="stop848" />
      </linearGradient>
      <linearGradient
         id="linearGradient849">
        <stop
           style="stop-color:#ffffff;stop-opacity:1;"
           offset="0"
           id="stop850" />
        <stop
           style="stop-color:#ffffff;stop-opacity:0;"
           offset="1"
           id="stop851" />
      </linearGradient>
      <linearGradient
         x1="0.000000"
         y1="0.000000"
         x2="1.000000"
         y2="0.000000"
         id="linearGradient852"
         xlink:href="#linearGradient923"
         gradientUnits="objectBoundingBox"
         spreadMethod="pad" />
      <linearGradient
         x1="0.015504"
         y1="0.015625"
         x2="1.015504"
         y2="0.984375"
         id="linearGradient855"
         xlink:href="#linearGradient635" />
      <linearGradient
         x1="-0.006803"
         y1="0.023438"
         x2="0.986395"
         y2="0.992188"
         id="linearGradient856"
         xlink:href="#linearGradient642" />
      <linearGradient
         x1="-0.000000"
         y1="0.000000"
         x2="1.000000"
         y2="0.000000"
         id="linearGradient857"
         xlink:href="#linearGradient642" />
      <linearGradient
         x1="0.010309"
         y1="0.023436"
         x2="1.000000"
         y2="0.992188"
         id="linearGradient858"
         xlink:href="#linearGradient642" />
      <linearGradient
         id="linearGradient859"
         xlink:href="#linearGradient1535" />
      <linearGradient
         x1="0.014564"
         y1="-0.000001"
         x2="0.989091"
         y2="1.000000"
         id="linearGradient860"
         xlink:href="#linearGradient1535" />
      <linearGradient
         x1="0.003631"
         y1="0.000003"
         x2="1.003636"
         y2="1.041666"
         id="linearGradient861"
         xlink:href="#linearGradient1535" />
      <linearGradient
         x1="0.003633"
         y1="0.008073"
         x2="0.996364"
         y2="0.975806"
         id="linearGradient862"
         xlink:href="#linearGradient1535" />
    </defs>
    <linearGradient
       x1="0.950420"
       y1="0.945312"
       x2="0.024794"
       y2="0.015625"
       id="linearGradient1044"
       xlink:href="#linearGradient1535" />
    <linearGradient
       x1="0.973546"
       y1="0.953124"
       x2="0.005291"
       y2="-0.015625"
       id="linearGradient1042"
       xlink:href="#linearGradient1535" />
    <linearGradient
       x1="16.539005"
       y1="16.847510"
       x2="26.711875"
       y2="26.670341"
       id="linearGradient1567"
       xlink:href="#linearGradient1535"
       gradientTransform="scale(1.570885,0.636584)"
       gradientUnits="userSpaceOnUse" />
    <linearGradient
       x1="14.578597"
       y1="37.898814"
       x2="18.661955"
       y2="41.991643"
       id="linearGradient1539"
       xlink:href="#linearGradient1535"
       gradientTransform="scale(1.526671,0.655020)"
       gradientUnits="userSpaceOnUse" />
    <linearGradient
       x1="11.082776"
       y1="60.489706"
       x2="19.306320"
       y2="68.618916"
       id="linearGradient1534"
       xlink:href="#linearGradient642"
       gradientTransform="scale(1.473889,0.678477)"
       gradientUnits="userSpaceOnUse" />
    <linearGradient
       x1="9.1640074"
       y1="7.6621731"
       x2="31.414017"
       y2="29.793094"
       id="linearGradient1532"
       xlink:href="#linearGradient1535"
       gradientTransform="scale(1.467927,0.681233)"
       gradientUnits="userSpaceOnUse" />
    <linearGradient
       x1="16.879886"
       y1="12.164606"
       x2="33.519533"
       y2="28.304611"
       id="linearGradient1527"
       xlink:href="#linearGradient1528"
       gradientTransform="scale(1.327778,0.753138)"
       gradientUnits="userSpaceOnUse" />
    <linearGradient
       x1="21.859951"
       y1="23.407687"
       x2="34.605811"
       y2="36.131417"
       id="linearGradient1522"
       xlink:href="#linearGradient1528"
       gradientTransform="scale(0.967689,1.033390)"
       gradientUnits="userSpaceOnUse" />
    <linearGradient
       x1="11.626931"
       y1="47.879241"
       x2="26.721321"
       y2="62.170475"
       id="linearGradient641"
       xlink:href="#linearGradient1528"
       gradientTransform="scale(1.194392,0.837246)"
       gradientUnits="userSpaceOnUse" />
    <linearGradient
       x1="0.87692308"
       y1="0.91406256"
       x2="0.00000000"
       y2="0.00781250"
       id="linearGradient638"
       xlink:href="#linearGradient923" />
    <linearGradient
       id="linearGradient635">
      <stop
         style="stop-color:#e6cfff;stop-opacity:1;"
         offset="0"
         id="stop636" />
      <stop
         style="stop-color:#ffffff;stop-opacity:1;"
         offset="1"
         id="stop637" />
    </linearGradient>
    <linearGradient
       id="linearGradient642">
      <stop
         style="stop-color:#ffffff;stop-opacity:1;"
         offset="0"
         id="stop643" />
      <stop
         style="stop-color:#ffffff;stop-opacity:0;"
         offset="1"
         id="stop644" />
    </linearGradient>
    <linearGradient
       id="linearGradient1528">
      <stop
         style="stop-color:#d9cce6;stop-opacity:1;"
         offset="0.00000000"
         id="stop1530" />
      <stop
         style="stop-color:#73667f;stop-opacity:1;"
         offset="1.00000000"
         id="stop1529" />
    </linearGradient>
    <linearGradient
       id="linearGradient1535">
      <stop
         style="stop-color:#ffffff;stop-opacity:1;"
         offset="0"
         id="stop1537" />
      <stop
         style="stop-color:#ffffff;stop-opacity:0;"
         offset="1"
         id="stop1536" />
    </linearGradient>
    <linearGradient
       id="linearGradient923">
      <stop
         style="stop-color:#d9cce6;stop-opacity:1;"
         offset="0.00000000"
         id="stop925" />
      <stop
         style="stop-color:#f3e6ff;stop-opacity:1;"
         offset="1.00000000"
         id="stop924" />
    </linearGradient>
    <linearGradient
       inkscape:collect="always"
       xlink:href="#linearGradient1528"
       id="linearGradient4279"
       gradientTransform="matrix(1.387861,0.000000,0.000000,0.720533,1.134696,14.61424)"
       x1="0.31789720"
       y1="21.111998"
       x2="42.499680"
       y2="62.222683"
       gradientUnits="userSpaceOnUse" />
    <linearGradient
       id="linearGradient1498">
      <stop
         style="stop-color:#d9cce6;stop-opacity:1;"
         offset="0.00000000"
         id="stop1499" />
      <stop
         style="stop-color:#f3e6ff;stop-opacity:1;"
         offset="1.00000000"
         id="stop1500" />
    </linearGradient>
    <linearGradient
       id="linearGradient1495">
      <stop
         style="stop-color:#ffffff;stop-opacity:1;"
         offset="0"
         id="stop1496" />
      <stop
         style="stop-color:#ffffff;stop-opacity:0;"
         offset="1"
         id="stop1497" />
    </linearGradient>
    <linearGradient
       id="linearGradient1492">
      <stop
         style="stop-color:#d9cce6;stop-opacity:1;"
         offset="0.00000000"
         id="stop1493" />
      <stop
         style="stop-color:#73667f;stop-opacity:1;"
         offset="1.00000000"
         id="stop1494" />
    </linearGradient>
    <linearGradient
       id="linearGradient1489">
      <stop
         style="stop-color:#ffffff;stop-opacity:1;"
         offset="0"
         id="stop1490" />
      <stop
         style="stop-color:#ffffff;stop-opacity:0;"
         offset="1"
         id="stop1491" />
    </linearGradient>
    <linearGradient
       id="linearGradient1486">
      <stop
         style="stop-color:#e6cfff;stop-opacity:1;"
         offset="0"
         id="stop1487" />
      <stop
         style="stop-color:#ffffff;stop-opacity:1;"
         offset="1"
         id="stop1488" />
    </linearGradient>
    <linearGradient
       x1="0.87692308"
       y1="0.91406256"
       x2="0.00000000"
       y2="0.00781250"
       id="linearGradient1485"
       xlink:href="#linearGradient923" />
    <linearGradient
       x1="11.626931"
       y1="47.879241"
       x2="26.721321"
       y2="62.170475"
       id="linearGradient1484"
       xlink:href="#linearGradient1528"
       gradientTransform="scale(1.194392,0.837246)"
       gradientUnits="userSpaceOnUse" />
    <linearGradient
       x1="21.859951"
       y1="23.407687"
       x2="34.605811"
       y2="36.131417"
       id="linearGradient1483"
       xlink:href="#linearGradient1528"
       gradientTransform="scale(0.967689,1.033390)"
       gradientUnits="userSpaceOnUse" />
    <linearGradient
       x1="16.879886"
       y1="12.164606"
       x2="33.519533"
       y2="28.304611"
       id="linearGradient1482"
       xlink:href="#linearGradient1528"
       gradientTransform="scale(1.327778,0.753138)"
       gradientUnits="userSpaceOnUse" />
    <linearGradient
       x1="9.1640074"
       y1="7.6621731"
       x2="31.414017"
       y2="29.793094"
       id="linearGradient1481"
       xlink:href="#linearGradient1535"
       gradientTransform="scale(1.467927,0.681233)"
       gradientUnits="userSpaceOnUse" />
    <linearGradient
       x1="11.082776"
       y1="60.489706"
       x2="19.306320"
       y2="68.618916"
       id="linearGradient1480"
       xlink:href="#linearGradient642"
       gradientTransform="scale(1.473889,0.678477)"
       gradientUnits="userSpaceOnUse" />
    <linearGradient
       x1="14.578597"
       y1="37.898814"
       x2="18.661955"
       y2="41.991643"
       id="linearGradient1479"
       xlink:href="#linearGradient1535"
       gradientTransform="scale(1.526671,0.655020)"
       gradientUnits="userSpaceOnUse" />
    <linearGradient
       x1="16.539005"
       y1="16.847510"
       x2="26.711875"
       y2="26.670341"
       id="linearGradient1478"
       xlink:href="#linearGradient1535"
       gradientTransform="scale(1.570885,0.636584)"
       gradientUnits="userSpaceOnUse" />
    <linearGradient
       x1="0.973546"
       y1="0.953124"
       x2="0.005291"
       y2="-0.015625"
       id="linearGradient1477"
       xlink:href="#linearGradient1535" />
    <linearGradient
       x1="0.950420"
       y1="0.945312"
       x2="0.024794"
       y2="0.015625"
       id="linearGradient1476"
       xlink:href="#linearGradient1535" />
    <defs
       id="defs1454">
      <linearGradient
         id="linearGradient1455">
        <stop
           style="stop-color:#2ad700;stop-opacity:1;"
           offset="0"
           id="stop1456" />
        <stop
           style="stop-color:#e5ffe5;stop-opacity:1;"
           offset="1"
           id="stop1457" />
      </linearGradient>
      <linearGradient
         id="linearGradient1458">
        <stop
           style="stop-color:#ffffff;stop-opacity:1;"
           offset="0"
           id="stop1459" />
        <stop
           style="stop-color:#ffffff;stop-opacity:0;"
           offset="1"
           id="stop1460" />
      </linearGradient>
      <linearGradient
         id="linearGradient1461">
        <stop
           style="stop-color:#a673f3;stop-opacity:1;"
           offset="0"
           id="stop1462" />
        <stop
           style="stop-color:#4c3f8c;stop-opacity:1;"
           offset="1"
           id="stop1463" />
      </linearGradient>
      <linearGradient
         id="linearGradient1464">
        <stop
           style="stop-color:#ffffff;stop-opacity:1;"
           offset="0"
           id="stop1465" />
        <stop
           style="stop-color:#ffffff;stop-opacity:0;"
           offset="1"
           id="stop1466" />
      </linearGradient>
      <linearGradient
         x1="0.000000"
         y1="0.000000"
         x2="1.000000"
         y2="0.000000"
         id="linearGradient1467"
         xlink:href="#linearGradient923"
         gradientUnits="objectBoundingBox"
         spreadMethod="pad" />
      <linearGradient
         x1="0.015504"
         y1="0.015625"
         x2="1.015504"
         y2="0.984375"
         id="linearGradient1468"
         xlink:href="#linearGradient635" />
      <linearGradient
         x1="-0.006803"
         y1="0.023438"
         x2="0.986395"
         y2="0.992188"
         id="linearGradient1469"
         xlink:href="#linearGradient642" />
      <linearGradient
         x1="-0.000000"
         y1="0.000000"
         x2="1.000000"
         y2="0.000000"
         id="linearGradient1470"
         xlink:href="#linearGradient642" />
      <linearGradient
         x1="0.010309"
         y1="0.023436"
         x2="1.000000"
         y2="0.992188"
         id="linearGradient1471"
         xlink:href="#linearGradient642" />
      <linearGradient
         id="linearGradient1472"
         xlink:href="#linearGradient1535" />
      <linearGradient
         x1="0.014564"
         y1="-0.000001"
         x2="0.989091"
         y2="1.000000"
         id="linearGradient1473"
         xlink:href="#linearGradient1535" />
      <linearGradient
         x1="0.003631"
         y1="0.000003"
         x2="1.003636"
         y2="1.041666"
         id="linearGradient1474"
         xlink:href="#linearGradient1535" />
      <linearGradient
         x1="0.003633"
         y1="0.008073"
         x2="0.996364"
         y2="0.975806"
         id="linearGradient1475"
         xlink:href="#linearGradient1535" />
    </defs>
    <linearGradient
       x1="0.978904"
       y1="0.968750"
       x2="0.008439"
       y2="0.023437"
       id="linearGradient1453"
       xlink:href="#linearGradient642" />
    <linearGradient
       inkscape:collect="always"
       xlink:href="#linearGradient1528"
       id="linearGradient1191"
       gradientUnits="userSpaceOnUse"
       gradientTransform="scale(1.194392,0.837246)"
       x1="11.626931"
       y1="47.879241"
       x2="26.721321"
       y2="62.170475" />
    <linearGradient
       inkscape:collect="always"
       xlink:href="#linearGradient1528"
       id="linearGradient1192"
       gradientUnits="userSpaceOnUse"
       gradientTransform="scale(0.967689,1.033390)"
       x1="21.859951"
       y1="23.407687"
       x2="34.605811"
       y2="36.131417" />
    <linearGradient
       inkscape:collect="always"
       xlink:href="#linearGradient1528"
       id="linearGradient1193"
       gradientUnits="userSpaceOnUse"
       gradientTransform="scale(1.327778,0.753138)"
       x1="16.879886"
       y1="12.164606"
       x2="33.519533"
       y2="28.304611" />
    <linearGradient
       inkscape:collect="always"
       xlink:href="#linearGradient642"
       id="linearGradient1194"
       gradientUnits="userSpaceOnUse"
       gradientTransform="scale(1.473889,0.678477)"
       x1="11.082776"
       y1="60.489706"
       x2="19.306320"
       y2="68.618916" />
    <linearGradient
       inkscape:collect="always"
       xlink:href="#linearGradient1535"
       id="linearGradient1195"
       gradientUnits="userSpaceOnUse"
       gradientTransform="scale(1.526671,0.655020)"
       x1="14.578597"
       y1="37.898814"
       x2="18.661955"
       y2="41.991643" />
    <linearGradient
       inkscape:collect="always"
       xlink:href="#linearGradient1535"
       id="linearGradient1196"
       gradientUnits="userSpaceOnUse"
       gradientTransform="scale(1.570885,0.636584)"
       x1="16.539005"
       y1="16.847510"
       x2="26.711875"
       y2="26.670341" />
    <linearGradient
       inkscape:collect="always"
       xlink:href="#linearGradient1535"
       id="linearGradient1197"
       gradientUnits="userSpaceOnUse"
       gradientTransform="scale(1.467927,0.681233)"
       x1="9.1640074"
       y1="7.6621731"
       x2="31.414017"
       y2="29.793094" />
    <linearGradient
       inkscape:collect="always"
       xlink:href="#linearGradient1528"
       id="linearGradient3853"
       gradientUnits="userSpaceOnUse"
       gradientTransform="matrix(1.335075,0.000000,0.000000,0.693128,1.580057,15.45704)"
       x1="0.31789720"
       y1="21.111998"
       x2="42.499680"
       y2="62.222683" />
    <linearGradient
       inkscape:collect="always"
       xlink:href="#linearGradient1528"
       id="linearGradient3867"
       gradientUnits="userSpaceOnUse"
       gradientTransform="scale(1.194392,0.837246)"
       x1="11.626931"
       y1="47.879241"
       x2="26.721321"
       y2="62.170475" />
    <linearGradient
       inkscape:collect="always"
       xlink:href="#linearGradient1528"
       id="linearGradient3868"
       gradientUnits="userSpaceOnUse"
       gradientTransform="scale(0.967689,1.033390)"
       x1="21.859951"
       y1="23.407687"
       x2="34.605811"
       y2="36.131417" />
    <linearGradient
       inkscape:collect="always"
       xlink:href="#linearGradient1528"
       id="linearGradient3869"
       gradientUnits="userSpaceOnUse"
       gradientTransform="scale(1.327778,0.753138)"
       x1="16.879886"
       y1="12.164606"
       x2="33.519533"
       y2="28.304611" />
    <linearGradient
       inkscape:collect="always"
       xlink:href="#linearGradient642"
       id="linearGradient3870"
       gradientUnits="userSpaceOnUse"
       gradientTransform="scale(1.473889,0.678477)"
       x1="11.082776"
       y1="60.489706"
       x2="19.306320"
       y2="68.618916" />
    <linearGradient
       inkscape:collect="always"
       xlink:href="#linearGradient1535"
       id="linearGradient3871"
       gradientUnits="userSpaceOnUse"
       gradientTransform="scale(1.526671,0.655020)"
       x1="14.578597"
       y1="37.898814"
       x2="18.661955"
       y2="41.991643" />
    <linearGradient
       inkscape:collect="always"
       xlink:href="#linearGradient1535"
       id="linearGradient3872"
       gradientUnits="userSpaceOnUse"
       gradientTransform="scale(1.570885,0.636584)"
       x1="16.539005"
       y1="16.847510"
       x2="26.711875"
       y2="26.670341" />
    <linearGradient
       inkscape:collect="always"
       xlink:href="#linearGradient1535"
       id="linearGradient3873"
       gradientUnits="userSpaceOnUse"
       gradientTransform="scale(1.467927,0.681233)"
       x1="9.1640074"
       y1="7.6621731"
       x2="31.414017"
       y2="29.793094" />
    <linearGradient
       inkscape:collect="always"
       xlink:href="#linearGradient1528"
       id="linearGradient3874"
       gradientUnits="userSpaceOnUse"
       gradientTransform="matrix(1.370989,0.000000,0.000000,0.711773,-2.977253,20.69362)"
       x1="0.31789720"
       y1="21.111998"
       x2="42.499680"
       y2="62.222683" />
  </defs>
  <sodipodi:namedview
     id="base"
     pagecolor="#ffffff"
     bordercolor="#666666"
     borderopacity="1.0"
     inkscape:pageopacity="0.0"
     inkscape:pageshadow="2"
     inkscape:zoom="6.5109927"
     inkscape:cx="23.130541"
     inkscape:cy="32.534643"
     inkscape:current-layer="svg1061"
     showgrid="false"
     inkscape:grid-bbox="false"
     gridspacingy="1.0000000pt"
     gridspacingx="1.0000000pt"
     gridoriginy="0.0000000pt"
     gridoriginx="0.0000000pt"
     inkscape:window-width="827"
     inkscape:window-height="682"
     inkscape:window-x="64"
     inkscape:window-y="26" />
  <metadata
     id="metadata4">
    <rdf:RDF
       id="RDF5">
      <cc:Work
         rdf:about=""
         id="Work6">
        <dc:format
           id="format7">image/svg+xml</dc:format>
        <dc:type
           id="type9"
           rdf:resource="http://purl.org/dc/dcmitype/StillImage" />
      </cc:Work>
    </rdf:RDF>
  </metadata>
  <g
     id="layer1"
     inkscape:label="Layer 1"
     inkscape:groupmode="layer" />
  <g
     id="g1916"
     transform="matrix(0.561215,0.000000,0.000000,0.561215,7.584333,-1.652548)">
    <path
       d="M 6.0680171,49.032042 C 5.1152082,45.743587 17.164167,41.501736 18.493286,36.675363 C 19.799709,31.931469 11.751107,24.542645 13.974928,20.321149 C 17.398897,13.821535 27.818844,6.7521529 35.436917,4.5118164 C 37.403885,3.8779724 59.249325,11.363582 59.523584,12.893479 C 59.723381,16.872129 43.303024,22.290366 39.944317,28.339304 C 38.157189,31.557803 45.572724,37.160474 44.085976,40.695793 C 41.242714,47.457628 33.032289,56.211967 26.954292,59.230667 C 25.702763,59.945811 6.4688280,50.233573 6.0680171,49.032042 z M 46.994698,16.856084 C 46.883059,17.293350 48.485651,18.158880 49.172810,18.034129 C 50.149009,17.857031 51.817254,16.607167 51.985061,15.950727 C 52.095035,15.520607 50.647231,14.658494 50.006351,14.774832 C 48.983973,14.960250 47.160740,16.206984 46.994698,16.856084 z M 41.019041,20.548636 C 40.871198,20.975042 42.395712,21.971687 43.090897,21.904858 C 44.078539,21.810046 45.845515,20.704110 46.067621,20.064012 C 46.213211,19.644650 44.842605,18.664444 44.194192,18.726675 C 43.159877,18.825888 41.238801,19.915778 41.019041,20.548636 z M 35.157278,25.349472 C 35.137412,25.800339 36.883252,26.319598 37.530300,26.056889 C 38.449646,25.683709 39.826805,24.118881 39.856649,23.441994 C 39.876315,22.998562 38.282721,22.451024 37.679122,22.695931 C 36.716333,23.086720 35.186925,24.680215 35.157278,25.349472 z M 35.697084,33.453636 C 36.097172,33.662340 37.306430,32.300344 37.342242,31.602911 C 37.393315,30.612037 36.558309,28.702113 35.957644,28.388619 C 35.564214,28.183144 34.393601,29.395146 34.360135,30.045713 C 34.306716,31.083452 35.103168,33.143469 35.697084,33.453636 z M 38.856579,39.308064 C 39.256666,39.516764 40.465930,38.154772 40.501737,37.457336 C 40.552810,36.466464 39.717806,34.556541 39.117142,34.243047 C 38.723707,34.037573 37.553095,35.249574 37.519635,35.900142 C 37.466211,36.937877 38.262665,38.997897 38.856579,39.308064 z M 35.675462,44.791070 C 35.719102,45.240276 37.520514,45.509347 38.124312,45.158378 C 38.982214,44.659961 40.126016,42.917350 40.060559,42.242911 C 40.017799,41.801140 38.363153,41.482558 37.799860,41.809847 C 36.901452,42.331946 35.610886,44.124162 35.675462,44.791070 z M 31.037633,49.609616 C 30.995558,50.059016 32.713710,50.663600 33.372887,50.433078 C 34.309552,50.105691 35.761955,48.610624 35.825263,47.935890 C 35.866647,47.494024 34.302021,46.868507 33.687067,47.083567 C 32.706175,47.426411 31.100156,48.942515 31.037633,49.609616 z M 25.377624,54.206548 C 25.270780,54.645084 26.883060,55.492615 27.568751,55.360131 C 28.542988,55.172174 30.196953,53.903618 30.357419,53.245227 C 30.462505,52.814027 29.005210,51.968158 28.365500,52.091637 C 27.345276,52.288600 25.536327,53.555589 25.377624,54.206548 z M 31.020806,8.7948036 C 30.861511,9.2170491 32.359218,10.253881 33.055871,10.205604 C 34.045765,10.137209 35.841307,9.0783654 36.080244,8.4442770 C 36.236793,8.0290412 34.893000,7.0127036 34.242922,7.0577294 C 33.206259,7.1294514 31.257100,8.1678827 31.020806,8.7948036 z M 25.480553,12.672547 C 25.431536,13.121165 27.140390,13.752062 27.802989,13.531719 C 28.744649,13.218813 30.219651,11.745959 30.293134,11.072300 C 30.341275,10.631119 28.786528,9.9817932 28.168244,10.187363 C 27.182169,10.515124 25.553156,12.006521 25.480553,12.672547 z M 19.997841,17.226032 C 19.948822,17.674648 21.657674,18.305552 22.320275,18.085204 C 23.261934,17.772299 24.736937,16.299445 24.810418,15.625785 C 24.858560,15.184607 23.303809,14.535210 22.685530,14.740783 C 21.699455,15.068561 20.070441,16.560006 19.997841,17.226032 z M 17.111429,23.637878 C 17.274635,24.058613 19.081917,23.831221 19.568499,23.330353 C 20.260062,22.618732 20.890572,20.631998 20.645477,20.000220 C 20.484908,19.586434 18.805803,19.726449 18.351804,20.193753 C 17.627657,20.939035 16.868973,23.013237 17.111429,23.637878 z M 19.803326,31.058990 C 20.213587,31.246951 21.351128,29.824290 21.350931,29.125977 C 21.350834,28.133636 20.418278,26.269506 19.802250,25.987319 C 19.398642,25.802493 18.292215,27.073199 18.292314,27.724745 C 18.292509,28.763852 19.194147,30.780037 19.803326,31.058990 z M 21.421872,37.733744 C 21.764031,38.028059 23.251172,36.976234 23.444508,36.305217 C 23.719356,35.351722 23.339817,33.565079 22.826132,33.123216 C 22.489549,32.833790 21.074324,33.485338 20.893900,34.111345 C 20.606141,35.109849 20.913862,37.296871 21.421872,37.733744 z M 16.939617,42.003777 C 16.832768,42.442314 18.445048,43.289840 19.130744,43.157363 C 20.104981,42.969404 21.758944,41.700849 21.919409,41.042455 C 22.024495,40.611254 20.567198,39.765387 19.927491,39.888866 C 18.907266,40.085830 17.098318,41.352815 16.939617,42.003777 z M 11.456997,46.371357 C 11.350150,46.809898 12.962432,47.657424 13.648126,47.524944 C 14.622266,47.336982 16.276233,46.068433 16.436693,45.410033 C 16.541779,44.978836 15.084483,44.132966 14.444777,44.256449 C 13.424649,44.453409 11.615700,45.720398 11.456997,46.371357 z "
       style="font-size:12.000000;opacity:0.30267498;fill-rule:evenodd;stroke-width:1.2500000"
       id="path738" />
    <path
       d="M 4.1653790,47.648322 C 3.2125686,44.359872 15.261583,40.118021 16.590702,35.291645 C 17.897119,30.547754 9.8484722,23.158929 12.072341,18.937428 C 15.496310,12.437817 25.916260,5.3684148 33.534331,3.1280830 C 35.501298,2.4942343 57.346741,9.9798662 57.620998,11.509764 C 57.820796,15.488414 41.400440,20.906645 38.041734,26.955588 C 36.254603,30.174085 43.670136,35.776757 42.183389,39.312074 C 39.340127,46.073910 31.129704,54.828249 25.051706,57.846947 C 23.800178,58.562093 4.5661930,48.849856 4.1653790,47.648322 z M 45.092111,15.472364 C 44.980472,15.909635 46.583067,16.775165 47.270226,16.650415 C 48.246420,16.473316 49.914672,15.223449 50.082471,14.567010 C 50.192449,14.136886 48.744645,13.274781 48.103761,13.391116 C 47.081388,13.576530 45.258151,14.823265 45.092111,15.472364 z M 39.116455,19.164918 C 38.968614,19.591325 40.493128,20.587969 41.188311,20.521139 C 42.175954,20.426331 43.942928,19.320392 44.165036,18.680295 C 44.310627,18.260935 42.940021,17.280729 42.291606,17.342957 C 41.257292,17.442172 39.336216,18.532061 39.116455,19.164918 z M 33.254693,23.965758 C 33.234830,24.416624 34.980665,24.935883 35.627709,24.673170 C 36.547059,24.299990 37.924219,22.735167 37.954063,22.058276 C 37.973730,21.614847 36.380137,21.067309 35.776535,21.312216 C 34.813746,21.703005 33.284336,23.296499 33.254693,23.965758 z M 33.794500,32.069921 C 34.194587,32.278622 35.403843,30.916629 35.439655,30.219190 C 35.490730,29.228320 34.655725,27.318398 34.055060,27.004904 C 33.661627,26.799430 32.491016,28.011428 32.457551,28.661999 C 32.404131,29.699734 33.200584,31.759754 33.794500,32.069921 z M 36.953993,37.924346 C 37.354082,38.133048 38.563338,36.771052 38.599153,36.073616 C 38.650226,35.082746 37.815222,33.172823 37.214553,32.859327 C 36.821122,32.653856 35.650512,33.865855 35.617048,34.516424 C 35.563624,35.554162 36.360079,37.614179 36.953993,37.924346 z M 33.772875,43.407355 C 33.816511,43.856557 35.617928,44.125630 36.221728,43.774663 C 37.079629,43.276244 38.223426,41.533635 38.157971,40.859191 C 38.115214,40.417425 36.460566,40.098842 35.897274,40.426133 C 34.998865,40.948229 33.708297,42.740446 33.772875,43.407355 z M 29.135051,48.225901 C 29.092974,48.675302 30.811123,49.279885 31.470303,49.049360 C 32.406965,48.721974 33.859370,47.226909 33.922677,46.552175 C 33.964064,46.110306 32.399434,45.484787 31.784481,45.699849 C 30.803590,46.042698 29.197572,47.558798 29.135051,48.225901 z M 23.475038,52.822832 C 23.368192,53.261369 24.980472,54.108899 25.666166,53.976417 C 26.640403,53.788456 28.294367,52.519904 28.454834,51.861506 C 28.559916,51.430309 27.102622,50.584444 26.462914,50.707922 C 25.442689,50.904882 23.633741,52.171869 23.475038,52.822832 z M 29.118220,7.4110686 C 28.958928,7.8333141 30.456631,8.8701442 31.153284,8.8218664 C 32.143179,8.7534737 33.938723,7.6946289 34.177659,7.0605405 C 34.334208,6.6453078 32.990412,5.6289671 32.340336,5.6739960 C 31.303671,5.7457165 29.354512,6.7841508 29.118220,7.4110686 z M 23.577971,11.288829 C 23.528949,11.737447 25.237805,12.368347 25.900407,12.148000 C 26.842063,11.835098 28.317067,10.362271 28.390547,9.6886122 C 28.438690,9.2474320 26.883939,8.5980570 26.265660,8.8036281 C 25.279585,9.1313865 23.650572,10.622800 23.577971,11.288829 z M 18.095255,15.842316 C 18.046233,16.290933 19.755089,16.921834 20.417691,16.701489 C 21.359343,16.388581 22.834352,14.915730 22.907834,14.242071 C 22.955971,13.800889 21.401223,13.151495 20.782946,13.357067 C 19.796867,13.684844 18.167856,15.176290 18.095255,15.842316 z M 15.208844,22.254164 C 15.372047,22.674894 17.179333,22.447500 17.665913,21.946638 C 18.357477,21.235014 18.987988,19.248282 18.742887,18.616499 C 18.582324,18.202717 16.903217,18.342730 16.449217,18.810040 C 15.725072,19.555317 14.966383,21.629524 15.208844,22.254164 z M 17.900741,29.675275 C 18.311001,29.863235 19.448545,28.440574 19.448346,27.742259 C 19.448250,26.749923 18.515694,24.885786 17.899667,24.603606 C 17.496053,24.418773 16.389631,25.689483 16.389729,26.341028 C 16.389925,27.380136 17.291559,29.396321 17.900741,29.675275 z M 19.519282,36.350027 C 19.861447,36.644344 21.348588,35.592517 21.541924,34.921499 C 21.816770,33.968003 21.437233,32.181365 20.923548,31.739500 C 20.586967,31.450076 19.171741,32.101620 18.991315,32.727631 C 18.703554,33.726133 19.011273,35.913153 19.519282,36.350027 z M 15.037026,40.620060 C 14.930181,41.058599 16.542463,41.906128 17.228160,41.773647 C 18.202396,41.585687 19.856358,40.317133 20.016825,39.658737 C 20.121909,39.227536 18.664614,38.381671 18.024904,38.505150 C 17.004680,38.702112 15.195731,39.969099 15.037026,40.620060 z M 9.5543622,44.987642 C 9.4475159,45.426178 11.059797,46.273711 11.745491,46.141226 C 12.719682,45.953270 14.373643,44.684714 14.534108,44.026318 C 14.639194,43.595118 13.181899,42.749253 12.542190,42.872731 C 11.522012,43.069696 9.7130652,44.336683 9.5543622,44.987642 z "
       style="font-size:12.000000;fill:#261e2e;fill-rule:evenodd;stroke:#261e2e;stroke-width:0.096691698"
       id="path737" />
    <path
       d="M 14.109760,47.311545 C 14.189205,45.740259 21.791234,39.949140 23.296765,39.813427 C 24.844860,39.655901 31.277744,40.146984 31.393199,41.834408 C 31.711197,43.379178 22.950787,51.055370 21.274709,51.471989 C 19.655189,52.060428 14.025706,48.781267 14.109760,47.311545 z "
       style="font-size:12.000000;fill:url(#linearGradient3867);fill-rule:evenodd;stroke:#261933;stroke-width:1.2230600;stroke-opacity:1.0000000"
       id="path648" />
    <path
       d="M 24.582343,35.140375 C 25.815476,35.991232 32.320670,37.599014 33.284829,36.896097 C 34.328631,35.989959 30.001264,31.358690 29.874750,24.860642 C 29.843833,23.241021 21.946023,23.354031 21.017675,24.618181 C 20.538237,25.350157 23.507327,34.255864 24.582343,35.140375 z "
       style="font-size:12.000000;fill:url(#linearGradient3868);fill-rule:evenodd;stroke:#261933;stroke-width:1.2230600;stroke-opacity:1.0000000"
       id="path649" />
    <path
       d="M 22.835233,18.431575 C 22.977010,19.591913 31.242617,21.247439 32.784059,20.845006 C 34.534010,20.336213 44.438901,14.187181 44.277262,12.881251 C 44.098498,11.224644 35.742581,9.0250319 33.864655,9.2932236 C 31.961286,9.5389112 22.638273,17.013614 22.835233,18.431575 z "
       style="font-size:12.000000;fill:url(#linearGradient3869);fill-rule:evenodd;stroke:#261933;stroke-width:1.2230600;stroke-opacity:1.0000000"
       id="path650" />
    <path
       d="M 16.353331,46.394448 C 16.353331,46.150129 20.357419,42.163554 22.727607,41.215443 C 24.341258,40.569962 28.305034,41.382855 28.305034,41.613767 C 28.305034,41.847714 24.453386,41.919530 22.727607,42.609825 C 20.469549,43.513028 16.353331,46.614989 16.353331,46.394448 z "
       style="font-size:12.000000;opacity:0.69993597;fill:url(#linearGradient3870);fill-rule:evenodd;stroke:#ffffff;stroke-width:0.097844499pt"
       id="path656" />
    <path
       d="M 22.849910,27.417318 C 22.510195,27.836678 21.946710,25.424422 22.451485,25.226093 C 23.805851,24.694012 28.361001,24.861425 28.427338,25.226093 C 28.493871,25.591832 24.501331,25.425398 22.849910,27.417318 z "
       style="font-size:12.000000;opacity:0.69999999;fill:url(#linearGradient3871);fill-rule:evenodd;stroke:#ffffff;stroke-width:0.097844499pt"
       id="path657" />
    <path
       d="M 25.923791,17.135917 C 25.959115,16.782306 31.071293,11.645375 34.090769,10.761642 C 36.515944,10.051843 42.290821,12.024324 42.257752,12.355237 C 42.224485,12.688299 36.502052,11.989593 33.891561,12.753658 C 31.057397,13.583183 25.892772,17.446281 25.923791,17.135917 z "
       style="font-size:12.000000;opacity:0.69993597;fill:url(#linearGradient3872);fill-rule:evenodd;stroke:#ffffff;stroke-width:0.097844499pt"
       id="path658" />
    <path
       d="M 13.331403,20.526328 C 13.263598,17.530231 24.923823,8.0653416 32.254915,5.3875164 C 36.012340,4.0150425 46.528567,7.9645827 46.597057,8.3754418 C 46.661341,8.7613730 36.357143,6.4249823 32.653339,7.7778580 C 25.268624,10.475263 13.312811,20.921520 13.331403,20.526328 z "
       style="font-size:12.000000;opacity:0.69999999;fill:url(#linearGradient3873);fill-rule:evenodd;stroke:none;stroke-width:0.097844499pt"
       id="path655" />
  </g>
  <path
     d="M 20.648587,58.673955 C 20.338071,57.377844 22.091640,55.531907 21.229603,54.635031 C 20.167275,55.326770 17.305012,55.885647 18.951205,53.850353 C 20.451883,52.660399 20.922404,51.048525 20.463714,49.191614 C 20.372435,46.634846 21.030548,44.056935 22.438992,41.925977 C 22.279239,40.120864 19.939221,39.183800 18.707506,38.001096 C 15.468826,35.515173 11.741913,33.854956 8.0577142,32.185371 C 6.8910072,31.504738 4.3801182,30.562599 4.1682682,29.682177 C 7.0579662,31.016315 9.9732242,32.305739 13.031104,33.197037 C 17.009311,34.662040 20.442631,37.307954 23.508917,40.212729 C 25.210974,39.764300 27.165635,38.697174 29.132680,39.376796 C 32.206022,39.795128 35.174514,41.181709 38.347552,40.229792 C 40.085308,39.170154 40.819418,37.011442 40.059998,35.086076 C 39.274678,32.856681 42.272280,31.265129 43.020336,33.829483 C 43.572819,34.560127 44.350360,37.648442 45.175990,36.172301 C 44.874189,34.534983 43.993208,32.433209 45.226420,31.027107 C 47.085698,29.791699 48.135561,32.423646 48.094442,33.937773 C 48.076158,35.330420 47.944391,36.749606 49.818961,36.746911 C 52.890242,37.044358 56.371929,37.764245 58.626909,40.198862 C 59.808849,41.362842 59.447849,43.260711 58.073539,44.089148 C 55.677659,46.120033 52.667352,47.144629 49.990931,48.709487 C 48.673506,50.202685 50.661612,51.582027 51.488977,52.690222 C 52.738905,53.646798 52.380362,55.444742 50.710128,54.405936 C 49.681226,54.372378 47.554706,52.727437 47.068896,53.883821 C 47.683634,55.202182 50.253789,56.607909 48.911947,58.125497 C 46.405714,57.690559 44.221561,56.164560 41.794750,55.467168 C 36.560332,56.141324 31.130711,56.405570 25.978609,55.012484 C 24.437353,55.654389 23.368168,57.181001 21.993564,58.143731 C 21.646645,58.338102 21.018807,59.222720 20.648587,58.673955 z M 57.597319,37.841175 C 57.920369,36.881192 58.941289,34.685734 59.541119,34.749348 C 59.029829,35.598365 58.325289,37.879004 57.597319,37.841175 z M 56.502259,36.879207 C 56.496689,36.235875 57.137139,32.844805 57.059209,35.112607 C 57.137529,35.507904 56.486039,38.913218 56.502259,36.879207 z "
     id="path1124"
     style="opacity:0.30303028;fill:#000000;fill-opacity:1.0000000;stroke:none;stroke-width:1.7629158;stroke-linecap:round;stroke-linejoin:round;stroke-miterlimit:4.0000000;stroke-opacity:1.0000000"
     sodipodi:nodetypes="ccccccccccccccccccccccccccccccccccc" />
  <path
     d="M 18.487287,56.081362 C 18.176771,54.785251 19.930340,52.939314 19.068303,52.042438 C 18.005975,52.734177 15.143712,53.293054 16.789905,51.257760 C 18.290583,50.067806 18.761104,48.455932 18.302414,46.599021 C 18.211135,44.042253 18.869248,41.464342 20.277692,39.333384 C 20.117939,37.528271 17.777921,36.591207 16.546206,35.408503 C 13.307526,32.922580 9.5806122,31.262363 5.8964132,29.592778 C 4.7297072,28.912145 2.2188182,27.970006 2.0069682,27.089584 C 4.8966662,28.423722 7.8119242,29.713146 10.869804,30.604444 C 14.848011,32.069447 18.281331,34.715361 21.347617,37.620136 C 23.049674,37.171707 25.004335,36.104581 26.971380,36.784203 C 30.044722,37.202535 33.013214,38.589116 36.186252,37.637199 C 37.924008,36.577561 38.658118,34.418849 37.898698,32.493483 C 37.113378,30.264088 40.110980,28.672536 40.859036,31.236890 C 41.411519,31.967534 42.189060,35.055849 43.014690,33.579708 C 42.712889,31.942390 41.831908,29.840616 43.065120,28.434514 C 44.924398,27.199106 45.974261,29.831053 45.933142,31.345180 C 45.914858,32.737827 45.783091,34.157013 47.657661,34.154318 C 50.728942,34.451765 54.210629,35.171652 56.465609,37.606269 C 57.647549,38.770249 57.286549,40.668118 55.912239,41.496555 C 53.516355,43.527440 50.506052,44.552036 47.829631,46.116894 C 46.512206,47.610092 48.500312,48.989434 49.327677,50.097629 C 50.577605,51.054205 50.219062,52.852149 48.548828,51.813343 C 47.519926,51.779785 45.393406,50.134844 44.907596,51.291228 C 45.522334,52.609589 48.092489,54.015316 46.750647,55.532904 C 44.244414,55.097966 42.060261,53.571967 39.633450,52.874575 C 34.399032,53.548731 28.969411,53.812977 23.817309,52.419891 C 22.276053,53.061796 21.206868,54.588408 19.832264,55.551138 C 19.485345,55.745509 18.857507,56.630127 18.487287,56.081362 z M 55.436019,35.248582 C 55.759069,34.288599 56.779989,32.093141 57.379819,32.156755 C 56.868529,33.005772 56.163989,35.286411 55.436019,35.248582 z M 54.340958,34.286614 C 54.335388,33.643282 54.975839,30.252212 54.897909,32.520014 C 54.976229,32.915311 54.324742,36.320625 54.340958,34.286614 z "
     id="path3020"
     style="fill:url(#linearGradient4279);fill-opacity:1.0000000;stroke:#261933;stroke-width:1.7629158;stroke-linecap:round;stroke-linejoin:round;stroke-miterlimit:4.0000000;stroke-opacity:1.0000000"
     sodipodi:nodetypes="ccccccccccccccccccccccccccccccccccc" />
  <path
     d="M 47.214216,39.215955 C 48.494378,38.320110 45.257373,38.636373 45.447732,37.238313 C 44.334949,36.266488 45.258769,39.555174 46.395832,39.340046 C 46.672053,39.446983 46.960408,39.313205 47.214216,39.215955 z M 47.791204,37.802202 C 49.503383,35.695067 45.062093,35.415563 46.646284,37.752605 C 46.953647,38.041554 47.456495,38.048983 47.791204,37.802202 z "
     id="path1113"
     style="fill:url(#linearGradient1737);fill-opacity:1.0000000;stroke:#261933;stroke-width:0.58763862;stroke-linecap:round;stroke-linejoin:round;stroke-miterlimit:4.0000000;stroke-opacity:1.0000000"
     sodipodi:nodetypes="ccccccc" />
  <path
     d="M 49.038640,44.244750 C 49.802918,44.025527 52.063421,41.856484 50.362463,42.083044 C 49.962867,42.193569 47.303604,45.042429 49.038640,44.244750 z M 48.020789,42.383500 C 48.819725,42.277209 51.894604,40.706672 49.646400,40.944214 C 49.044284,41.293016 46.675914,41.995082 47.299114,42.618408 C 47.545571,42.559450 47.780861,42.463595 48.020789,42.383500 z "
     id="path1741"
     style="fill:url(#linearGradient1742);fill-opacity:1.0000000;stroke:#261933;stroke-width:0.58763862;stroke-linecap:round;stroke-linejoin:round;stroke-miterlimit:4.0000000;stroke-opacity:1.0000000"
     sodipodi:nodetypes="ccccccc" />
  <path
     style="fill:url(#linearGradient2991);fill-opacity:1.0000000;fill-rule:evenodd;stroke:none;stroke-width:0.25000000pt;stroke-linecap:butt;stroke-linejoin:miter;stroke-opacity:1.0000000"
     d="M 19.536068,44.993800 C 19.101323,44.652294 20.537947,39.217012 22.184306,38.462283 C 23.615524,37.806180 25.365743,37.426753 29.539468,38.348782 C 35.394193,39.642165 36.793160,38.512920 36.973694,38.751653 C 38.039307,40.160800 26.746282,39.421067 24.058443,40.653235 C 22.237489,41.488003 19.943326,45.313713 19.536068,44.993800 z "
     id="path2987"
     sodipodi:nodetypes="csssss" />
  <path
     style="fill:url(#linearGradient3001);fill-opacity:1.0000000;fill-rule:evenodd;stroke:none;stroke-width:0.25000000pt;stroke-linecap:butt;stroke-linejoin:miter;stroke-opacity:1.0000000"
     d="M 39.051542,33.274273 C 38.990429,33.143367 38.671283,32.130567 38.745976,31.538046 C 38.820670,30.945524 39.479335,30.807730 39.581190,30.855958 C 39.683045,30.904186 39.533657,31.234896 39.234882,31.775745 C 38.938509,32.312242 39.108745,33.396803 39.051542,33.274273 z "
     id="path2992"
     sodipodi:nodetypes="czzzz" />
  <path
     style="fill:url(#linearGradient2997);fill-opacity:1.0000000;fill-rule:evenodd;stroke:none;stroke-width:0.25000000pt;stroke-linecap:butt;stroke-linejoin:miter;stroke-opacity:1.0000000"
     d="M 43.696143,32.302813 C 43.621450,32.247695 43.210634,30.387452 43.410949,29.698473 C 43.614029,28.999983 44.049242,29.033610 44.123936,29.088728 C 44.198629,29.143846 43.967757,29.443552 43.859111,29.946507 C 43.750467,30.449461 43.770837,32.357931 43.696143,32.302813 z "
     id="path2993"
     sodipodi:nodetypes="czzzz" />
</svg>
