<?xml version="1.0" encoding="UTF-8" standalone="no"?>
<!DOCTYPE svg PUBLIC "-//W3C//DTD SVG 20010904//EN"
"http://www.w3.org/TR/2001/REC-SVG-20010904/DTD/svg10.dtd">
<!-- Created with Inkscape (http://www.inkscape.org/) -->
<svg
   version="1.0"
   x="0"
   y="0"
   width="48pt"
   height="48pt"
   id="svg611"
   sodipodi:version="0.32"
   inkscape:version="0.38.1"
   sodipodi:docname="xscreensaver.svg"
   sodipodi:docbase="/home/ed/Desktop/Lila"
   xmlns="http://www.w3.org/2000/svg"
   xmlns:inkscape="http://www.inkscape.org/namespaces/inkscape"
   xmlns:sodipodi="http://sodipodi.sourceforge.net/DTD/sodipodi-0.dtd"
   xmlns:xlink="http://www.w3.org/1999/xlink">
  <sodipodi:namedview
     id="base"
     pagecolor="#ffffff"
     bordercolor="#666666"
     borderopacity="1.0"
     inkscape:pageopacity="0.0"
     inkscape:pageshadow="2"
     inkscape:zoom="16.000000"
     inkscape:cx="28.720006"
     inkscape:cy="33.424877"
     inkscape:window-width="671"
     inkscape:window-height="525"
     inkscape:window-x="569"
     inkscape:window-y="376" />
  <defs
     id="defs613">
    <linearGradient
       id="linearGradient868">
      <stop
         style="stop-color:#ffff00;stop-opacity:1.0000000;"
         offset="0.0000000"
         id="stop869" />
      <stop
         style="stop-color:#ffffff;stop-opacity:0;"
         offset="1"
         id="stop870" />
    </linearGradient>
    <linearGradient
       id="linearGradient860">
      <stop
         style="stop-color:#f50000;stop-opacity:1.0000000;"
         offset="0.0000000"
         id="stop861" />
      <stop
         style="stop-color:#a80000;stop-opacity:1.0000000;"
         offset="1.0000000"
         id="stop862" />
    </linearGradient>
    <linearGradient
       id="linearGradient1535">
      <stop
         style="stop-color:#ffffff;stop-opacity:1;"
         offset="0"
         id="stop1537" />
      <stop
         style="stop-color:#ffffff;stop-opacity:0;"
         offset="1"
         id="stop1536" />
    </linearGradient>
    <linearGradient
       id="linearGradient1528">
      <stop
         style="stop-color:#d9cce6;stop-opacity:1.0000000;"
         offset="0.0000000"
         id="stop1530" />
      <stop
         style="stop-color:#73667f;stop-opacity:1.0000000;"
         offset="1.0000000"
         id="stop1529" />
    </linearGradient>
    <linearGradient
       id="linearGradient642">
      <stop
         style="stop-color:#ffffff;stop-opacity:1;"
         offset="0"
         id="stop643" />
      <stop
         style="stop-color:#ffffff;stop-opacity:0;"
         offset="1"
         id="stop644" />
    </linearGradient>
    <linearGradient
       id="linearGradient635">
      <stop
         style="stop-color:#ffffff;stop-opacity:1.0000000;"
         offset="0.0000000"
         id="stop636" />
      <stop
         style="stop-color:#d9cce6;stop-opacity:1.0000000;"
         offset="1.0000000"
         id="stop637" />
    </linearGradient>
    <linearGradient
       x1="0.00833333"
       y1="0.00000000"
       x2="0.94166666"
       y2="0.95312500"
       id="linearGradient638"
       xlink:href="#linearGradient1528" />
    <linearGradient
       x1="0.027523"
       y1="0.023438"
       x2="1.000000"
       y2="1.015625"
       id="linearGradient641"
       xlink:href="#linearGradient642" />
    <linearGradient
       x1="-0.000009"
       y1="0.015624"
       x2="0.727272"
       y2="0.984375"
       id="linearGradient1522"
       xlink:href="#linearGradient642" />
    <linearGradient
       x1="0.027523"
       y1="0.007813"
       x2="1.009174"
       y2="0.992188"
       id="linearGradient1527"
       xlink:href="#linearGradient1535" />
    <linearGradient
       id="linearGradient1532"
       xlink:href="#linearGradient860"
       x1="0.059523810"
       y1="0.039062500"
       x2="0.94047618"
       y2="0.96093750" />
    <linearGradient
       id="linearGradient1534"
       xlink:href="#linearGradient868"
       x1="0.10714286"
       y1="0.031250000"
       x2="0.96428573"
       y2="0.96875000" />
    <linearGradient
       id="linearGradient1539"
       xlink:href="#linearGradient868"
       x1="0.41176471"
       y1="0.023437500"
       x2="0.55882353"
       y2="0.97656250" />
    <linearGradient
       id="linearGradient1567"
       xlink:href="#linearGradient868"
       x1="0.043478262"
       y1="0.046875000"
       x2="0.86956519"
       y2="0.98437500" />
  </defs>
  <path
     d="M 11.323296 57.160451 C 11.951521 57.577304 14.621051 58.71284 15.942291 58.429631 C 17.047672 58.07211 55.203686 45.61152 56.142616 44.148515 C 57.124721 42.551005 55.856932 11.468189 54.696814 10.413698 C 53.445181 9.265018 12.788123 5.1677725 11.53798 5.1310154 C 10.405014 4.9884573 7.6400123 5.9645902 7.1064044 6.5581759 C 6.0443342 7.7273842 10.152592 56.301396 11.323296 57.160451 z "
     style="font-size:12;opacity:0.3;fill-rule:evenodd;stroke-width:12.5;"
     id="path839" />
  <path
     d="M 10.710824 54.464037 C 11.309499 54.860979 13.851862 55.942451 15.110416 55.672891 C 16.163471 55.332261 52.506055 43.463828 53.400251 42.070343 C 54.335686 40.548752 53.128257 10.943036 52.023269 9.9385553 C 50.831206 8.844563 12.106038 4.9420868 10.915404 4.907046 C 9.8362807 4.7712615 7.2027255 5.7009364 6.6944162 6.2663239 C 5.6828474 7.3800001 9.5957511 53.645804 10.710824 54.464037 z "
     style="font-size:12;fill:url(#linearGradient638);fill-rule:evenodd;stroke:#261933;stroke-width:1.875;stroke-dasharray:none;"
     id="path834" />
  <path
     d="M 14.383126 53.660677 C 14.070498 53.348051 10.313979 7.7669659 10.825691 6.4958449 C 11.139641 6.1159772 50.332629 10.543036 50.646074 10.856477 C 50.944548 11.155154 14.326404 6.3756002 12.77671 8.676233 C 11.094427 11.058617 14.682413 53.959959 14.383126 53.660677 z "
     style="font-size:12;opacity:0.7;fill:url(#linearGradient641);fill-rule:evenodd;stroke:none;stroke-width:0.105188pt;"
     id="path835" />
  <path
     d="M 11.514286 52.972175 C 11.398196 52.797942 8.00685 21.776137 7.8420129 7.1843481 C 7.8321255 6.6661201 9.7765052 6.2993477 9.9075644 6.4958449 C 10.006036 6.6436043 8.5226851 7.8148987 8.5305678 8.2171495 C 8.701402 22.810149 11.627626 53.142245 11.514286 52.972175 z "
     style="font-size:12;opacity:0.699936;fill:url(#linearGradient1522);fill-rule:evenodd;stroke:none;stroke-width:0.105188pt;"
     id="path836" />
  <path
     d="M 15.177322 10.961774 C 14.558788 11.749148 16.374674 48.355066 17.31663 49.041019 C 18.289339 49.671571 48.857076 39.875433 49.619702 38.879506 C 50.338948 38.047123 49.355237 14.69976 48.871027 13.849962 C 48.247804 12.943851 15.852983 10.20882 15.177322 10.961774 z "
     style="font-size:12;fill:#261933;fill-rule:evenodd;stroke:#261933;stroke-width:0.613348;fill-opacity:0.50000000;"
     id="path837" />
  <path
     d="M 17.744431 47.008737 C 17.506854 46.716067 15.346975 12.931632 15.926202 12.138455 C 16.692801 11.234891 45.424386 13.9854 45.661957 14.277763 C 45.888033 14.555666 19.622945 11.623281 17.31663 13.84986 C 15.744634 15.369718 17.970295 47.286535 17.744431 47.008737 z "
     style="font-size:12;opacity:0.699936;fill:url(#linearGradient1527);fill-rule:evenodd;stroke:none;stroke-width:0.0980447pt;"
     id="path838" />
  <path
     style="fill:#000000;fill-rule:evenodd;stroke:none;stroke-width:1.8750000;stroke-dasharray:none;stroke-opacity:1.0000000;fill-opacity:0.29804131;"
     d="M 34.650946,44.044527 C 39.434582,44.109312 43.198615,41.453121 46.208679,38.861713 C 49.218742,36.270306 48.789229,32.512767 47.231474,27.718665 C 45.673719,22.924562 41.871471,19.569307 41.185237,16.446046 C 40.504968,13.349930 40.140829,7.6300843 39.504396,15.539054 C 38.868796,23.437665 38.053986,23.572415 38.889165,26.422962 C 39.724344,29.273510 37.974122,26.422962 36.587806,21.369719 C 35.201490,16.316476 34.653798,12.947646 35.832916,11.263233 C 37.012035,9.5788180 34.732473,5.9816900 34.273443,4.3578354 C 33.396673,1.0352242 33.987425,6.9731178 32.690516,9.3196770 C 31.481019,11.508079 30.115075,9.7084520 29.426558,17.741749 C 28.749136,25.645604 31.219829,30.180501 32.155701,31.605775 C 33.091573,33.031048 26.399356,26.773503 25.535294,22.497681 C 24.671232,18.221860 26.166484,10.895101 23.554256,20.988020 C 21.701788,27.291668 22.344212,33.260870 24.750291,37.047729 C 27.119113,40.775950 29.867311,43.979742 34.650946,44.044527 z "
     id="path863"
     sodipodi:nodetypes="csssssssssssssss" />
  <path
     style="fill:url(#linearGradient1532);fill-rule:evenodd;stroke:#330000;stroke-width:1.8750000;stroke-dasharray:none;stroke-opacity:1.0000000;"
     d="M 32.654435,42.710929 C 37.438071,42.775714 41.202104,40.119523 44.212168,37.528115 C 47.222231,34.936708 46.792718,31.179169 45.234963,26.385067 C 43.677208,21.590964 39.874960,18.235709 39.188726,15.112448 C 38.508457,12.016332 38.144318,6.2964859 37.507885,14.205456 C 36.872285,22.104067 36.057475,22.238817 36.892654,25.089364 C 37.727833,27.939912 35.977611,25.089364 34.591295,20.036121 C 33.204979,14.982878 32.657287,11.614048 33.836405,9.9296345 C 35.015524,8.2452197 32.735962,4.6480916 32.276932,3.0242370 C 31.400162,-0.29837421 31.990914,5.6395194 30.694005,7.9860788 C 29.484508,10.174481 28.118564,8.3748537 27.430047,16.408151 C 26.752625,24.312006 29.223318,28.846903 30.159190,30.272177 C 31.095062,31.697450 24.402845,25.439905 23.538783,21.164083 C 22.674721,16.888262 24.169973,9.5615025 21.557745,19.654422 C 19.705277,25.958070 20.347701,31.927272 22.753780,35.714131 C 25.122602,39.442352 27.870800,42.646144 32.654435,42.710929 z "
     id="path859"
     sodipodi:nodetypes="csssssssssssssss" />
  <path
     style="fill:url(#linearGradient1534);fill-rule:evenodd;stroke:none;stroke-opacity:1.0000000;stroke-width:0.12500000;stroke-linejoin:miter;stroke-linecap:butt;stroke-dasharray:none;fill-opacity:1.0000000;"
     d="M 22.428544,20.170001 C 20.936991,25.086603 20.936990,31.329030 23.920097,35.969418 C 23.036214,29.708577 21.213203,25.657444 24.196310,24.920875 C 23.091455,23.337250 22.483786,21.864111 22.428544,20.170001 z "
     id="path867"
     sodipodi:nodetypes="cccc" />
  <path
     style="fill:url(#linearGradient1539);fill-rule:evenodd;stroke:none;stroke-opacity:1.0000000;stroke-width:0.12500000;stroke-linejoin:miter;stroke-linecap:butt;stroke-dasharray:none;fill-opacity:1.0000000;"
     d="M 28.449999,22.711166 C 27.787088,16.026797 28.891942,12.215049 29.444369,10.889224 C 29.996796,9.5633986 32.482718,8.1823307 32.261748,5.3097094 C 33.200874,8.5137870 33.200873,7.4641754 33.200873,8.7900006 C 33.200873,10.115826 32.372232,9.6264929 30.935922,11.339018 C 28.726214,13.327756 29.554854,15.419127 28.449999,22.711166 z "
     id="path871"
     sodipodi:nodetypes="cccccc" />
  <path
     style="fill:url(#linearGradient1567);fill-rule:evenodd;stroke:none;stroke-opacity:1.0000000;stroke-width:0.12500000;stroke-linejoin:miter;stroke-linecap:butt;stroke-dasharray:none;fill-opacity:1.0000000;"
     d="M 38.283203,15.474369 C 39.388058,18.346991 39.553786,18.512719 40.106213,19.396602 C 38.062232,19.009903 38.275352,20.726354 38.006990,25.418059 C 36.736408,23.374078 38.283204,19.120389 38.283203,15.474369 z "
     id="path873"
     sodipodi:nodetypes="cccc" />
</svg>
