<?xml version="1.0" encoding="UTF-8" standalone="no"?>
<!DOCTYPE svg PUBLIC "-//W3C//DTD SVG 20010904//EN"
"http://www.w3.org/TR/2001/REC-SVG-20010904/DTD/svg10.dtd">
<!-- Created with Inkscape (http://www.inkscape.org/) -->
<svg
   version="1"
   x="0.00000000"
   y="0.00000000"
   width="48pt"
   height="48pt"
   id="svg548"
   sodipodi:version="0.32"
   sodipodi:docname="gentoo-g.svg"
   sodipodi:docbase="/home/scaba/files/lila/work/lila-gnome/Lila/scalable/misc"
   inkscape:version="0.39"
   xmlns="http://www.w3.org/2000/svg"
   xmlns:inkscape="http://www.inkscape.org/namespaces/inkscape"
   xmlns:sodipodi="http://sodipodi.sourceforge.net/DTD/sodipodi-0.dtd"
   xmlns:xlink="http://www.w3.org/1999/xlink"
   xmlns:rdf="http://www.w3.org/1999/02/22-rdf-syntax-ns#"
   xmlns:cc="http://web.resource.org/cc/"
   xmlns:dc="http://purl.org/dc/elements/1.1/">
  <sodipodi:namedview
     id="base"
     inkscape:zoom="6.9918719"
     inkscape:cx="19.282786"
     inkscape:cy="26.231670"
     inkscape:window-width="787"
     inkscape:window-height="557"
     inkscape:window-x="79"
     inkscape:window-y="69" />
  <defs
     id="defs550">
    <linearGradient
       x1="0.00000000"
       y1="0.00000000"
       x2="1.00000000"
       y2="0.00000000"
       id="linearGradient1129"
       gradientUnits="objectBoundingBox"
       spreadMethod="pad">
      <stop
         style="stop-color:#d9cce6;stop-opacity:1;"
         offset="0.00000000"
         id="stop1130" />
      <stop
         style="stop-color:#73667f;stop-opacity:1;"
         offset="1.00000000"
         id="stop1131" />
    </linearGradient>
    <linearGradient
       x1="0.00000000"
       y1="0.00000000"
       x2="1.00000000"
       y2="0.00000000"
       id="linearGradient588"
       gradientUnits="objectBoundingBox"
       spreadMethod="pad">
      <stop
         style="stop-color:#a673f3;stop-opacity:1;"
         offset="0.00000000"
         id="stop589" />
      <stop
         style="stop-color:#4c3f8c;stop-opacity:1;"
         offset="1.00000000"
         id="stop590" />
    </linearGradient>
    <linearGradient
       x1="0.00000000"
       y1="0.00000000"
       x2="1.00000000"
       y2="0.00000000"
       id="linearGradient576"
       gradientUnits="objectBoundingBox"
       spreadMethod="pad">
      <stop
         style="stop-color:#000000;stop-opacity:1;"
         offset="0.00000000"
         id="stop577" />
      <stop
         style="stop-color:#000000;stop-opacity:0;"
         offset="1.00000000"
         id="stop578" />
    </linearGradient>
    <linearGradient
       x1="0.00000000"
       y1="0.00000000"
       x2="1.00000000"
       y2="0.00000000"
       id="linearGradient569"
       gradientUnits="objectBoundingBox"
       spreadMethod="pad">
      <stop
         style="stop-color:#73667f;stop-opacity:1.0000000;"
         offset="0.0000000"
         id="stop570" />
      <stop
         style="stop-color:#f3e6ff;stop-opacity:1.0000000;"
         offset="1.0000000"
         id="stop571" />
    </linearGradient>
    <linearGradient
       x1="0.00000000"
       y1="0.00000000"
       x2="1.00000000"
       y2="0.00000000"
       id="linearGradient564"
       gradientUnits="objectBoundingBox"
       spreadMethod="pad">
      <stop
         style="stop-color:#7f7366;stop-opacity:1;"
         offset="0.00000000"
         id="stop565" />
      <stop
         style="stop-color:#7f7366;stop-opacity:0;"
         offset="1.00000000"
         id="stop566" />
    </linearGradient>
    <linearGradient
       x1="0.00000000"
       y1="0.00000000"
       x2="1.00000000"
       y2="0.00000000"
       id="linearGradient558"
       gradientUnits="objectBoundingBox"
       spreadMethod="pad">
      <stop
         style="stop-color:#ffffff;stop-opacity:1;"
         offset="0.00000000"
         id="stop559" />
      <stop
         style="stop-color:#ffffff;stop-opacity:0;"
         offset="1.00000000"
         id="stop560" />
    </linearGradient>
    <linearGradient
       id="linearGradient561"
       xlink:href="#linearGradient1129"
       x1="-0.01351351"
       y1="-0.00000000"
       x2="0.98648649"
       y2="0.98437500" />
    <linearGradient
       x1="0.49351925"
       y1="0.99222833"
       x2="0.49350709"
       y2="0.01562530"
       id="linearGradient563"
       xlink:href="#linearGradient564"
       gradientUnits="objectBoundingBox"
       spreadMethod="pad" />
    <linearGradient
       x1="0.12337894"
       y1="0.99219656"
       x2="0.82467574"
       y2="0.00000038"
       id="linearGradient572"
       xlink:href="#linearGradient569"
       gradientUnits="objectBoundingBox"
       spreadMethod="pad" />
    <linearGradient
       x1="0.03246462"
       y1="0.98445034"
       x2="0.69480515"
       y2="0.24218844"
       id="linearGradient575"
       xlink:href="#linearGradient564"
       gradientUnits="objectBoundingBox"
       spreadMethod="pad" />
    <radialGradient
       cx="0.48876417"
       cy="0.98437452"
       fx="0.48804680"
       fy="0.96095657"
       r="0.79719150"
       id="radialGradient579"
       xlink:href="#linearGradient576"
       gradientUnits="objectBoundingBox"
       spreadMethod="pad" />
    <linearGradient
       x1="0.57826090"
       y1="0.97656250"
       x2="0.29130435"
       y2="0.51562500"
       id="linearGradient583"
       xlink:href="#linearGradient564"
       gradientUnits="objectBoundingBox"
       spreadMethod="pad" />
    <linearGradient
       x1="0.96277922"
       y1="0.00000272"
       x2="0.00531922"
       y2="0.98437500"
       id="linearGradient585"
       xlink:href="#linearGradient558"
       gradientUnits="objectBoundingBox"
       spreadMethod="pad" />
    <radialGradient
       cx="0.14615387"
       cy="0.39062509"
       fx="0.14615387"
       fy="0.39062509"
       r="0.52400964"
       id="radialGradient587"
       xlink:href="#linearGradient558"
       gradientUnits="objectBoundingBox"
       spreadMethod="pad" />
    <radialGradient
       cx="0.13076705"
       cy="0.41407111"
       fx="0.13076705"
       fy="0.41407111"
       r="0.75421256"
       id="radialGradient592"
       xlink:href="#linearGradient558"
       gradientUnits="objectBoundingBox"
       spreadMethod="pad" />
    <linearGradient
       xlink:href="#linearGradient558"
       id="linearGradient1132"
       x1="0.01315789"
       y1="0.01562500"
       x2="0.96052629"
       y2="0.96875000" />
    <linearGradient
       xlink:href="#linearGradient1129"
       id="linearGradient1133"
       x1="0.01515152"
       y1="0.00000000"
       x2="0.97727275"
       y2="1.00000000" />
    <linearGradient
       xlink:href="#linearGradient558"
       id="linearGradient1134"
       x1="0.01094890"
       y1="0.02040816"
       x2="0.98905110"
       y2="0.97959185" />
    <linearGradient
       xlink:href="#linearGradient558"
       id="linearGradient1135"
       x1="-0.00000000"
       y1="0.01562500"
       x2="1.00000000"
       y2="0.99218750" />
  </defs>
  <path
     d="M 17.504851,31.744830 C 17.016320,30.287152 7.5203515,27.789957 6.6872431,20.955026 C 5.8504963,13.983201 15.882690,3.6310235 25.883232,3.4308204 C 39.296424,3.0552232 56.671761,18.980583 57.878543,28.002780 C 59.237187,38.039684 25.813929,59.610516 16.363307,58.428756 C 7.1787670,57.387534 4.8524719,49.719921 6.0252452,44.413889 C 7.2318121,39.169462 17.737567,33.095771 17.504851,31.744830 z "
     style="font-size:12.000000;opacity:0.29636899;fill:#000000;fill-opacity:1.0000000;fill-rule:evenodd;stroke-width:1.0000000pt;"
     id="path581" />
  <path
     d="M 17.212734,30.695683 C 16.764866,29.359336 8.0592951,27.069996 7.2955292,20.803970 C 6.5284288,14.412448 15.725594,4.9219332 24.893738,4.7383935 C 37.190482,4.3940614 53.119581,18.993873 54.225916,27.265105 C 55.471472,36.466583 24.830204,56.241966 16.166205,55.158577 C 7.7461430,54.204016 5.6134761,47.174615 6.6886322,42.310233 C 7.7947709,37.502325 17.426077,31.934180 17.212734,30.695683 z "
     style="font-size:12.000000;fill:#bfb8cc;fill-rule:evenodd;stroke:#261e2e;stroke-width:2.8013916;"
     id="path552" />
  <path
     d="M 22.935250,28.230636 C 22.500638,26.933840 12.118076,24.703881 10.548027,20.632907 C 8.8942540,16.614834 16.468578,7.9501724 25.338368,7.2346965 C 35.269953,6.4240814 50.907067,18.488388 52.754169,26.712347 C 54.066381,32.745548 24.140140,51.956229 15.820844,50.349644 C 8.6982588,49.137336 8.4293864,45.318110 9.3872839,42.455642 C 10.650020,38.821183 23.142279,29.432484 22.935250,28.230636 z "
     style="font-size:12.000000;fill:url(#radialGradient592);fill-rule:evenodd;stroke-width:1.0000000pt;"
     id="path557" />
  <path
     d="M 23.036437,28.305914 C 22.603299,27.013510 12.255917,24.791109 10.691192,20.733931 C 9.0430209,16.729470 16.591679,8.0941711 25.431412,7.3811207 C 35.329344,6.5732514 50.913466,18.596677 52.754312,26.792769 C 54.062076,32.805525 24.237244,51.951105 15.946140,50.349969 C 8.8476915,49.141765 8.5797284,45.335481 9.5343799,42.482712 C 10.792837,38.860571 23.242766,29.503686 23.036437,28.305914 z "
     style="font-size:12.000000;fill:url(#radialGradient587);fill-rule:evenodd;stroke-width:1.0000000pt;"
     id="path596" />
  <path
     d="M 24.259633,15.900731 C 29.067559,11.436396 37.220926,18.804605 34.822577,23.056316 C 32.008512,27.703672 19.526550,20.295664 24.259633,15.900731 z "
     style="font-size:12.000000;fill:url(#linearGradient572);fill-rule:evenodd;stroke-width:1.0000000pt;"
     id="path568" />
  <path
     d="M 26.363772,17.435214 C 29.135099,14.861938 33.834765,19.109029 32.452338,21.559752 C 30.830288,24.238523 23.635584,19.968489 26.363772,17.435214 z "
     style="font-size:12.000000;fill:#bfb8cc;fill-opacity:1.0000000;fill-rule:evenodd;stroke-width:1.0000000pt;"
     id="path562" />
  <path
     d="M 26.363772,17.435214 C 29.135099,14.861938 33.834765,19.109029 32.452338,21.559752 C 30.830288,24.238523 23.635584,19.968489 26.363772,17.435214 z "
     style="font-size:12.000000;fill:url(#linearGradient563);fill-rule:evenodd;stroke-width:1.0000000pt;"
     id="path567" />
  <path
     d="M 32.453754,20.279779 C 32.419438,21.285357 31.789013,22.648528 30.370702,22.367170 C 28.969645,22.138074 26.694030,21.168256 26.027720,19.436493 C 25.832417,18.914250 28.841598,17.466597 29.978523,17.807290 C 30.855237,18.069786 32.499835,19.493864 32.453754,20.279779 z "
     style="font-size:12.000000;fill:url(#radialGradient579);fill-rule:evenodd;stroke-width:1.0000000pt;"
     id="path574"
     sodipodi:nodetypes="ccccc" />
  <path
     d="M 9.3937109,20.000657 C 9.7154539,25.363647 15.292265,26.866673 18.510026,29.333645 C 19.770340,29.548088 21.007338,28.441544 20.623314,27.667440 C 16.064764,25.629514 10.975766,23.969209 9.3937109,20.000657 z "
     style="font-size:12.000000;fill:url(#linearGradient575);fill-rule:evenodd;stroke-width:1.0000000pt;"
     id="path580"
     sodipodi:nodetypes="cccc" />
  <path
     d="M 8.6395321,47.152524 C 10.099175,51.003481 13.887997,53.177320 17.490409,53.301591 C 26.651969,52.991096 50.533858,36.655596 52.148842,28.891544 C 47.707775,34.233212 29.384846,48.705372 17.117779,50.133945 C 14.012268,50.196083 11.931450,49.792383 8.6395321,47.152524 z "
     style="font-size:12.000000;fill:url(#linearGradient583);fill-rule:evenodd;stroke-width:1.0000000pt;"
     id="path582" />
  <path
     d="M 51.653269,26.341355 C 50.326531,24.622828 38.792375,41.027836 17.675350,49.516923 C 36.617551,43.851127 52.618027,27.608676 51.653269,26.341355 z "
     style="font-size:12.000000;opacity:0.80437499;fill:url(#linearGradient585);fill-rule:evenodd;stroke-width:1.0000000pt;"
     id="path584" />
  <metadata
     id="metadata52">
    <rdf:RDF
       id="RDF53">
      <cc:Work
         rdf:about=""
         id="Work54">
        <dc:format
           id="format55">image/svg+xml</dc:format>
        <dc:type
           id="type57"
           rdf:resource="http://purl.org/dc/dcmitype/StillImage" />
      </cc:Work>
    </rdf:RDF>
  </metadata>
</svg>
