<?xml version="1.0" encoding="UTF-8" standalone="no"?>
<!DOCTYPE svg PUBLIC "-//W3C//DTD SVG 20010904//EN"
"http://www.w3.org/TR/2001/REC-SVG-20010904/DTD/svg10.dtd">
<!-- Created with Inkscape (http://www.inkscape.org/) -->
<svg
   version="1.0"
   x="0"
   y="0"
   width="48pt"
   height="48pt"
   id="svg1418"
   xmlns="http://www.w3.org/2000/svg"
   xmlns:xlink="http://www.w3.org/1999/xlink"
   xmlns:sodipodi="http://sodipodi.sourceforge.net/DTD/sodipodi-0.dtd"
   xmlns:inkscape="http://www.inkscape.org/namespaces/inkscape"
   sodipodi:version="0.32"
   inkscape:version="0.37"
   sodipodi:docname="pen.svg"
   sodipodi:docbase="/usr/share/icons/Lila/scalable/misc">
  <sodipodi:namedview
     id="base"
     pagecolor="#ffffff"
     bordercolor="#666666"
     borderopacity="1.0"
     inkscape:pageopacity="0.0"
     inkscape:pageshadow="2"
     inkscape:zoom="6.94653375"
     inkscape:cx="25.5516764"
     inkscape:cy="23.2641839"
     inkscape:window-width="640"
     inkscape:window-height="500"
     inkscape:window-x="163"
     inkscape:window-y="150" />
  <defs
     id="defs1420">
    <linearGradient
       id="linearGradient1439">
      <stop
         style="stop-color:#ffffff;stop-opacity:1;"
         offset="0"
         id="stop1440" />
      <stop
         style="stop-color:#ffffff;stop-opacity:0;"
         offset="1"
         id="stop1441" />
    </linearGradient>
    <linearGradient
       id="linearGradient1432">
      <stop
         style="stop-color:#7f7f7f;stop-opacity:1;"
         offset="0"
         id="stop1433" />
      <stop
         style="stop-color:#e6e6e6;stop-opacity:1;"
         offset="1"
         id="stop1434" />
    </linearGradient>
    <linearGradient
       id="linearGradient1428">
      <stop
         style="stop-color:#f50000;stop-opacity:1;"
         offset="0.00000000"
         id="stop1429" />
      <stop
         style="stop-color:#a90000;stop-opacity:1;"
         offset="1.00000000"
         id="stop1430" />
    </linearGradient>
    <linearGradient
       id="linearGradient1422">
      <stop
         style="stop-color:#d7a600;stop-opacity:1;"
         offset="0.00000000"
         id="stop1423" />
      <stop
         style="stop-color:#fff300;stop-opacity:1;"
         offset="1.00000000"
         id="stop1424" />
    </linearGradient>
    <linearGradient
       x1="0.64516127"
       y1="0.66406250"
       x2="0.32258064"
       y2="0.32031250"
       id="linearGradient1425"
       xlink:href="#linearGradient1422" />
    <linearGradient
       x1="0.01923077"
       y1="0.00781250"
       x2="0.98076922"
       y2="0.98437500"
       id="linearGradient1427"
       xlink:href="#linearGradient1428" />
    <linearGradient
       x1="0.98101264"
       y1="0.92187500"
       x2="0.01898734"
       y2="0.02343750"
       id="linearGradient1435"
       xlink:href="#linearGradient1432" />
    <linearGradient
       x1="0.015748"
       y1="0.023437"
       x2="0.984252"
       y2="0.984375"
       id="linearGradient1438"
       xlink:href="#linearGradient1439" />
    <linearGradient
       id="linearGradient1443"
       xlink:href="#linearGradient1439" />
  </defs>
  <path
     d="M 9.6825261 55.573998 C 10.935623 56.69746 16.630724 55.396696 18.919217 53.296405 C 32.531226 40.803584 49.168722 25.0385 57.384129 11.794783 C 58.953677 9.2645422 50.788505 4.0572676 48.273973 5.9744273 C 35.520595 15.698035 22.620476 32.527802 11.580501 46.716925 C 9.7566964 49.06099 8.4893852 54.504297 9.6825261 55.573998 z "
     style="font-size:12;opacity:0.3;fill:#3f3f19;fill-rule:evenodd;stroke-width:12.5;"
     id="path1442" />
  <path
     d="M 7.5314734 53.929102 C 8.7845708 55.052565 14.479671 53.7518 16.768164 51.651509 C 30.380174 39.158689 47.01767 23.393603 55.233067 10.149887 C 56.802626 7.6196444 48.637454 2.4123812 46.122921 4.3295397 C 33.369544 14.053138 20.469423 30.882904 9.4294481 45.072029 C 7.6056437 47.416094 6.3383211 52.859401 7.5314734 53.929102 z "
     style="font-size:12;fill:url(#linearGradient1425);fill-rule:evenodd;stroke:#3f3f19;stroke-width:1.875;stroke-dasharray:none;"
     id="path1421" />
  <path
     d="M 41.346506 9.2009518 C 41.439595 10.154589 49.478978 15.829917 50.519825 15.717165 C 50.868337 15.7006 54.823742 9.8552351 54.79029 9.4540298 C 54.570773 7.2015545 50.158592 4.5909111 47.388305 4.5509508 C 45.813304 4.5279734 41.317229 8.9326982 41.346506 9.2009518 z "
     style="font-size:12;fill:url(#linearGradient1427);fill-rule:evenodd;stroke-width:1pt;"
     id="path1426" />
  <path
     d="M 37.409915 13.013467 C 37.508561 14.024174 46.029512 20.039469 47.132666 19.919984 C 47.502023 19.902457 50.799721 15.854284 50.764135 15.429033 C 50.531474 13.041576 44.317495 8.93676 41.397917 9.0691765 C 40.798455 9.0874521 37.378916 12.729182 37.409915 13.013467 z "
     style="font-size:12;fill:url(#linearGradient1435);fill-rule:evenodd;stroke-width:1pt;stroke:#3f3f19;stroke-opacity:1;"
     id="path1431" />
  <ellipse
     cx="152.361847"
     cy="565.562134"
     rx="26.788887"
     ry="26.788879"
     transform="matrix(0.106874,0.000000,0.000000,0.106874,-8.278306,-7.108241)"
     style="font-size:12;fill:#3f3f19;fill-rule:evenodd;stroke-width:1pt;"
     id="path1436" />
  <path
     d="M 9.4294481 49.50056 C 14.917107 39.734202 33.110801 17.458035 46.755722 5.8478558 C 48.252067 4.4254061 52.911878 7.4694875 52.955587 8.1253725 C 52.996193 8.7347676 48.470625 8.2541551 47.008794 9.6437308 C 33.961841 22.045921 14.086803 42.968316 9.4294481 49.50056 z "
     style="font-size:12;opacity:0.990000;fill:url(#linearGradient1438);fill-rule:evenodd;stroke:none;stroke-width:0.106874pt;"
     id="path1437" />
</svg>
