<?xml version="1.0" encoding="UTF-8" standalone="no"?>
<!DOCTYPE svg PUBLIC "-//W3C//DTD SVG 20010904//EN"
"http://www.w3.org/TR/2001/REC-SVG-20010904/DTD/svg10.dtd">
<!-- Created with Sodipodi ("http://www.sodipodi.com/") -->
<svg
   version="1"
   x="0.00000000"
   y="0.00000000"
   width="48.000000pt"
   height="48.000000pt"
   id="svg548"
   sodipodi:version="0.32"
   sodipodi:docname="gentoo-penguin.svg"
   sodipodi:docbase="/home/dan/svg-icons/lila/gnome/scalable/misc"
   xmlns="http://www.w3.org/2000/svg"
   xmlns:sodipodi="http://sodipodi.sourceforge.net/DTD/sodipodi-0.dtd"
   xmlns:xlink="http://www.w3.org/1999/xlink"
   xmlns:inkscape="http://www.inkscape.org/namespaces/inkscape"
   inkscape:version="0.38.1">
  <sodipodi:namedview
     id="base"
     showguides="true"
     snaptoguides="true"
     inkscape:zoom="6.1600000"
     inkscape:cx="27.122080"
     inkscape:cy="24.839322"
     inkscape:window-width="637"
     inkscape:window-height="525"
     inkscape:window-x="240"
     inkscape:window-y="343" />
  <defs
     id="defs550">
    <linearGradient
       x1="0.00000000"
       y1="0.00000000"
       x2="1.00000000"
       y2="0.00000000"
       id="linearGradient884"
       gradientUnits="objectBoundingBox"
       spreadMethod="pad">
      <stop
         style="stop-color:#ffffff;stop-opacity:1.0000000;"
         offset="0.0000000"
         id="stop885" />
      <stop
         style="stop-color:#ffffff;stop-opacity:0.0000000;"
         offset="1.0000000"
         id="stop886" />
    </linearGradient>
    <linearGradient
       x1="0.00000000"
       y1="0.00000000"
       x2="1.00000000"
       y2="0.00000000"
       id="linearGradient600"
       gradientUnits="objectBoundingBox"
       spreadMethod="pad">
      <stop
         style="stop-color:#73667f;stop-opacity:1.0000000;"
         offset="0.0000000"
         id="stop601" />
      <stop
         style="stop-color:#d9cce6;stop-opacity:1.0000000;"
         offset="1.0000000"
         id="stop602" />
    </linearGradient>
    <linearGradient
       x1="0.00000000"
       y1="0.00000000"
       x2="1.00000000"
       y2="0.00000000"
       id="linearGradient596"
       gradientUnits="objectBoundingBox"
       spreadMethod="pad">
      <stop
         style="stop-color:#ff8200;stop-opacity:1;"
         offset="0.00000000"
         id="stop597" />
      <stop
         style="stop-color:#af5500;stop-opacity:1;"
         offset="1.00000000"
         id="stop598" />
    </linearGradient>
    <linearGradient
       x1="0.00000000"
       y1="0.00000000"
       x2="1.00000000"
       y2="0.00000000"
       id="linearGradient589"
       gradientUnits="objectBoundingBox"
       spreadMethod="pad">
      <stop
         style="stop-color:#d9cce6;stop-opacity:1.0000000;"
         offset="0.0000000"
         id="stop590" />
      <stop
         style="stop-color:#ffffff;stop-opacity:1.0000000;"
         offset="1.0000000"
         id="stop591" />
    </linearGradient>
    <linearGradient
       x1="0.88461542"
       y1="0.94531244"
       x2="0.057692330"
       y2="0.054687522"
       id="linearGradient592"
       xlink:href="#linearGradient589"
       gradientUnits="objectBoundingBox"
       spreadMethod="pad" />
    <linearGradient
       x1="1.70834410"
       y1="0.41406876"
       x2="-0.66666609"
       y2="0.22656265"
       id="linearGradient593"
       xlink:href="#linearGradient589"
       gradientUnits="objectBoundingBox"
       spreadMethod="pad" />
    <linearGradient
       x1="0.98649454"
       y1="0.96094131"
       x2="-0.01351294"
       y2="-0.02343744"
       id="linearGradient594"
       xlink:href="#linearGradient589"
       gradientUnits="objectBoundingBox"
       spreadMethod="pad" />
    <linearGradient
       x1="0.01503374"
       y1="0.01184360"
       x2="0.99248099"
       y2="0.99999934"
       id="linearGradient595"
       xlink:href="#linearGradient596"
       gradientUnits="objectBoundingBox"
       spreadMethod="pad" />
    <linearGradient
       x1="0.60416669"
       y1="0.48437500"
       x2="-0.0098039303"
       y2="0.015625000"
       id="linearGradient599"
       xlink:href="#linearGradient600"
       gradientUnits="objectBoundingBox"
       spreadMethod="pad" />
    <linearGradient
       x1="0.00375644"
       y1="0.01589328"
       x2="0.99624056"
       y2="0.98437726"
       id="linearGradient604"
       xlink:href="#linearGradient596"
       gradientUnits="objectBoundingBox"
       gradientTransform="translate(-2.621323e-8,1.126018e-6)"
       spreadMethod="pad" />
    <radialGradient
       xlink:href="#linearGradient884"
       id="radialGradient882" />
    <linearGradient
       xlink:href="#linearGradient884"
       id="linearGradient883"
       x1="-0.24358974"
       y1="-0.14843750"
       x2="0.64102566"
       y2="0.50000000" />
    <linearGradient
       xlink:href="#linearGradient884"
       id="linearGradient888"
       x1="-0.83333331"
       y1="-0.21093750"
       x2="0.75000000"
       y2="0.75000000" />
  </defs>
  <path
     style="font-size:12.000000;fill:#000000;fill-rule:evenodd;stroke:none;stroke-width:0.53939503;stroke-linejoin:round;fill-opacity:0.30000001;"
     d="M 40.468278,2.8677491 C 38.174301,2.9379947 34.905603,3.7681685 33.599271,5.1361189 C 28.352447,13.023606 25.152139,15.953493 22.385218,25.551446 C 20.281445,32.848802 20.779820,41.579148 17.976274,48.969968 C 17.225031,50.938026 12.718627,51.834510 13.215892,52.676037 C 13.947747,53.914643 17.661874,54.403722 20.883621,54.912458 C 23.051194,55.254719 24.423516,54.766265 26.634418,54.912458 C 28.035289,55.005078 29.552590,55.558163 31.043362,55.998719 C 31.122924,57.029874 31.255264,58.026083 33.375629,58.394885 C 36.249593,58.917457 39.954209,57.738150 40.084892,57.084981 C 40.106637,56.954510 39.928808,56.851230 39.861250,56.733543 C 42.266825,56.950328 43.639957,55.986748 43.759012,55.391691 C 43.909840,54.486645 41.928297,53.930793 40.532176,53.410861 C 42.601178,50.948241 44.106929,47.673971 44.781376,44.561024 C 46.849681,35.015045 46.223510,24.656973 45.931535,14.497137 C 45.781918,13.445127 45.453097,12.951568 45.068916,12.388512 C 44.702094,11.151246 46.070332,8.5851717 48.487445,7.4044886 C 49.744746,6.2575017 53.055580,5.2471813 52.896389,4.8805279 C 52.724641,4.6102732 49.349742,5.0501340 47.497030,4.7207836 C 45.095005,4.2937759 42.807349,2.7961622 40.468278,2.8677491 z "
     id="path986" />
  <path
     d="M 33.264952,52.607570 C 33.534296,53.882464 34.023710,54.950573 36.714932,55.418666 C 39.526028,55.929803 41.059443,54.779783 41.187266,54.140902 C 41.380927,52.978830 37.562810,52.367826 36.842756,51.713201 C 35.437164,50.563182 33.022177,51.330463 33.264952,52.607570 z "
     style="font-size:12.000000;fill:url(#linearGradient604);fill-rule:evenodd;stroke:#803f00;stroke-width:0.53939503;stroke-linejoin:round;"
     id="path606" />
  <path
     d="M 15.967847,47.859127 C 18.710066,40.629977 18.221316,32.075344 20.279070,24.937615 C 22.985465,15.549615 26.116237,12.708592 31.248289,4.9936404 C 32.526044,3.6556135 35.727096,2.8317579 37.970893,2.7630480 C 40.258795,2.6930275 42.493732,4.1597823 44.843213,4.5774491 C 46.655398,4.8995959 49.968534,4.4628239 50.136525,4.7271664 C 50.292234,5.0857996 47.044037,6.0912662 45.814239,7.2131631 C 43.450002,8.3680197 42.126074,10.858280 42.484871,12.068481 C 42.860650,12.619221 43.170826,13.120357 43.317170,14.149355 C 43.602758,24.086948 44.230480,34.221566 42.207418,43.558730 C 41.224824,48.093952 38.540001,53.120307 34.716384,55.072782 C 32.019993,56.449672 27.883492,53.912513 24.450827,53.685560 C 22.288287,53.542565 20.947636,53.998851 18.827478,53.664077 C 15.676205,53.166469 12.042150,52.698867 11.326304,51.487355 C 10.839917,50.664237 15.233037,49.784135 15.967847,47.859127 z "
     style="font-size:12.000000;fill:url(#linearGradient599);fill-rule:evenodd;stroke:#261933;stroke-width:1.0188574;stroke-linejoin:round;"
     id="path552" />
  <path
     d="M 28.121357,54.252453 C 28.618314,54.387985 31.057815,55.517342 33.497328,55.246277 C 36.117544,54.613791 40.770581,50.502795 42.171090,42.687319 C 44.203997,33.110082 43.029379,15.129979 43.074641,14.000540 C 42.713223,13.458492 39.686401,13.774651 39.053917,14.226428 C 38.421518,14.678204 37.608318,15.401045 37.517967,16.033449 C 37.427616,16.665935 38.331167,23.803747 35.078454,28.863471 C 34.897751,30.941558 35.259169,32.116176 35.439884,32.748662 C 35.530236,33.923197 35.168818,47.747044 26.946739,49.102372 C 28.934471,50.096196 27.850290,53.936208 28.121357,54.252453 z "
     style="font-size:12.000000;fill:url(#linearGradient592);fill-rule:evenodd;stroke:#804000;stroke-width:0.17979835;"
     id="path580" />
  <path
     d="M 30.922288,23.080987 C 32.819656,25.430139 29.566955,24.345878 28.844119,26.152899 C 28.121357,27.960003 28.753842,30.580138 29.115186,31.935466 C 29.566955,33.471421 29.838022,35.368798 29.476604,38.440791 C 29.386252,43.139096 27.217806,47.114641 27.217806,47.114641 C 27.217806,47.114641 29.115260,42.235543 28.302072,36.814480 C 27.940642,33.200356 27.037091,26.423964 27.850290,24.888009 C 28.663490,23.351972 29.386252,21.273884 30.922288,23.080987 z "
     style="font-size:12.000000;fill:url(#linearGradient593);fill-rule:evenodd;stroke:#7f4000;stroke-width:0.17979835;"
     id="path582" />
  <path
     d="M 40.475001,7.5749527 C 41.635935,6.9914120 40.024228,4.5741154 38.609346,3.8438206 C 37.467573,3.2454891 35.594695,3.4214689 36.351016,4.7274630 C 36.765609,5.4606091 39.789526,7.9092702 40.475001,7.5749527 z "
     style="font-size:12.000000;fill:url(#linearGradient594);fill-rule:evenodd;stroke:#7f3f00;stroke-width:0.17979835;"
     id="path584" />
  <path
     d="M 49.987055,4.7872670 C 50.092752,4.9002518 47.539026,5.9285943 46.542243,6.5355819 C 45.595399,7.1273169 43.357276,6.8558418 43.146300,6.4826139 C 42.965757,6.1631733 44.570018,4.6421411 45.511361,4.7447949 C 47.438337,4.9389520 49.882760,4.6588675 49.987055,4.7872670 z "
     style="font-size:12.000000;fill:url(#linearGradient595);fill-rule:evenodd;stroke:#804000;stroke-width:0.17979835;"
     id="path586" />
  <path
     d="M 39.549705,5.7736666 C 38.822316,5.9468184 38.530673,6.5380689 39.142065,6.7418220 C 39.753593,6.9457059 40.364972,6.6399459 40.364972,6.2831812 C 40.364972,5.9265478 39.892344,5.6920611 39.549705,5.7736666 z "
     style="font-size:12;fill-rule:evenodd;stroke-width:1pt;"
     id="path588" />
  <path
     d="M 28.630448,53.846018 C 28.899792,55.120911 28.332480,56.611690 31.023703,57.079782 C 33.834799,57.590920 37.481639,56.440899 37.609463,55.802018 C 37.803136,54.639946 33.985007,54.028942 33.264965,53.374317 C 31.859373,52.224298 28.387661,52.568911 28.630448,53.846018 z "
     style="font-size:12.000000;fill:url(#linearGradient604);fill-rule:evenodd;stroke:#804000;stroke-width:0.53939503;stroke-linejoin:round;"
     id="path603" />
  <path
     d="M 38.976130,6.4213935 C 38.921995,6.1152410 39.426398,5.8450518 39.786696,5.8629683 C 39.894854,6.1871689 39.120247,5.9350279 38.976130,6.4213935 z "
     style="font-size:12;opacity:0.754807;fill:#ffffff;fill-rule:evenodd;stroke-width:1pt;"
     id="path607" />
  <path
     d="M 44.315306,6.1577266 C 44.347326,6.2089052 45.776324,5.8463452 46.519674,5.6720415 C 47.582072,5.4229327 49.781937,4.9084600 49.751344,4.8594484 C 49.719705,4.8088371 47.507657,5.3393620 46.407479,5.5973127 C 45.701810,5.7627744 44.284996,6.1092725 44.315306,6.1577266 z "
     style="font-size:12.000000;opacity:0.49773499;fill-rule:evenodd;stroke:#7f4000;stroke-width:0.17979835;"
     id="path608" />
  <path
     style="fill:url(#linearGradient883);fill-rule:evenodd;stroke:none;stroke-opacity:1;stroke-width:1pt;stroke-linejoin:miter;stroke-linecap:butt;fill-opacity:1;"
     d="M 12.748963,51.519456 C 12.580800,51.399349 15.974923,50.568075 16.640696,49.340082 C 18.309957,46.261216 19.062303,42.244058 19.754091,38.598882 C 20.411434,35.135148 19.925971,31.442953 20.688100,28.013352 C 21.482668,24.437822 22.747404,20.846397 24.424172,17.583491 C 26.587253,13.374257 29.084211,8.9085346 32.207649,5.5969349 C 33.391065,4.3422277 35.606386,4.0613520 37.344746,3.8845698 C 38.667886,3.7500136 41.489209,4.4688219 41.392163,4.6629175 C 41.281642,4.8839413 38.222725,4.7547616 36.722070,5.1299268 C 35.316897,5.4812194 34.216657,5.7675972 33.297342,6.8422915 C 30.532480,10.074454 28.275774,14.140865 26.292214,18.050499 C 24.695374,21.197885 23.332153,24.583899 22.556142,28.013352 C 21.723560,31.692809 22.174173,35.655118 21.466449,39.377230 C 20.773147,43.023477 20.197763,47.351380 18.353066,50.118430 C 17.499490,51.398788 12.944040,51.658797 12.748963,51.519456 z "
     id="path881"
     sodipodi:nodetypes="cssssssssssssss" />
  <path
     style="fill:url(#linearGradient888);fill-rule:evenodd;stroke:none;stroke-opacity:1;stroke-width:1pt;stroke-linejoin:miter;stroke-linecap:butt;fill-opacity:1;"
     d="M 28.004572,46.693699 C 27.924545,46.586987 29.746797,41.439921 30.183946,38.754552 C 30.473251,36.977394 30.426894,35.087709 30.183946,33.306116 C 29.959889,31.662978 29.120170,30.148976 29.016429,28.558195 C 28.964497,27.762043 29.046272,26.914083 29.561270,26.300987 C 30.135953,25.616838 31.860247,24.479058 32.051989,24.588621 C 32.223474,24.686617 31.168558,26.016292 30.806623,26.767995 C 30.493986,27.417318 30.011686,28.094563 30.028274,28.791700 C 30.063568,30.273936 30.872781,31.784333 30.962295,33.306116 C 31.080335,35.312843 31.083400,37.419858 30.650963,39.377230 C 30.097496,41.882385 28.080205,46.794547 28.004572,46.693699 z "
     id="path887"
     sodipodi:nodetypes="cssssssssss" />
</svg>
