<?xml version="1.0" encoding="UTF-8" standalone="no"?>
<!DOCTYPE svg PUBLIC "-//W3C//DTD SVG 20010904//EN"
"http://www.w3.org/TR/2001/REC-SVG-20010904/DTD/svg10.dtd">
<!-- Created with Inkscape (http://www.inkscape.org/) -->
<svg
   id="svg1"
   sodipodi:version="0.32"
   inkscape:version="0.37"
   width="48pt"
   height="48pt"
   sodipodi:docbase="/home/dan/Projects/Lila-gtk/gtk-2.0"
   sodipodi:docname="stock_ephy_history.svg"
   xmlns="http://www.w3.org/2000/svg"
   xmlns:inkscape="http://www.inkscape.org/namespaces/inkscape"
   xmlns:sodipodi="http://sodipodi.sourceforge.net/DTD/sodipodi-0.dtd"
   xmlns:xlink="http://www.w3.org/1999/xlink">
  <defs
     id="defs3">
    <linearGradient
       id="linearGradient609">
      <stop
         style="stop-color:#d9cce6;stop-opacity:1;"
         offset="0.000000"
         id="stop610" />
      <stop
         style="stop-color:#73667f;stop-opacity:1;"
         offset="1.000000"
         id="stop611" />
    </linearGradient>
    <linearGradient
       id="linearGradient866">
      <stop
         style="stop-color:#ffffff;stop-opacity:1;"
         offset="0.00000000"
         id="stop867" />
      <stop
         style="stop-color:#d9cce6;stop-opacity:1;"
         offset="1.00000000"
         id="stop868" />
    </linearGradient>
    <linearGradient
       id="linearGradient584">
      <stop
         style="stop-color:#ffffff;stop-opacity:1;"
         offset="0.00000000"
         id="stop585" />
      <stop
         style="stop-color:#ffffff;stop-opacity:0;"
         offset="1.00000000"
         id="stop586" />
    </linearGradient>
    <linearGradient
       xlink:href="#linearGradient866"
       id="linearGradient586"
       x1="-0.00000000"
       y1="0.01562500"
       x2="0.99122804"
       y2="0.98437500" />
    <linearGradient
       xlink:href="#linearGradient584"
       id="linearGradient587"
       x1="0.00000000"
       y1="-0.00000000"
       x2="1.00000000"
       y2="1.00000000" />
    <linearGradient
       xlink:href="#linearGradient584"
       id="linearGradient601"
       x1="0.01369772"
       y1="0.01563241"
       x2="0.98630136"
       y2="0.97656256"
       gradientUnits="objectBoundingBox"
       spreadMethod="pad" />
    <linearGradient
       xlink:href="#linearGradient584"
       id="linearGradient602"
       x1="0.02123131"
       y1="0.01616501"
       x2="0.94246721"
       y2="1.03763735"
       gradientUnits="objectBoundingBox"
       gradientTransform="scale(1.037639,0.963727)"
       spreadMethod="pad" />
    <linearGradient
       xlink:href="#linearGradient609"
       id="linearGradient603"
       x1="0.01250261"
       y1="0.44727036"
       x2="1.10669148"
       y2="0.44726482"
       gradientUnits="objectBoundingBox"
       gradientTransform="scale(0.908728,1.100439)"
       spreadMethod="pad" />
    <linearGradient
       xlink:href="#linearGradient609"
       id="linearGradient604"
       x1="0.00000446"
       y1="0.67239469"
       x2="0.72039127"
       y2="0.67237818"
       gradientUnits="objectBoundingBox"
       gradientTransform="scale(1.388135,0.720391)"
       spreadMethod="pad" />
    <linearGradient
       xlink:href="#linearGradient584"
       id="linearGradient605"
       x1="0.91104960"
       y1="1.05556595"
       x2="0.01446114"
       y2="0.01662316"
       gradientUnits="objectBoundingBox"
       gradientTransform="scale(1.063868,0.939966)"
       spreadMethod="pad" />
    <linearGradient
       xlink:href="#linearGradient609"
       id="linearGradient606"
       x1="0.01497023"
       y1="0.02573857"
       x2="0.95062107"
       y2="1.08092833"
       gradientUnits="objectBoundingBox"
       gradientTransform="scale(1.063868,0.939966)"
       spreadMethod="pad" />
    <linearGradient
       xlink:href="#linearGradient609"
       id="linearGradient607" />
    <linearGradient
       xlink:href="#linearGradient609"
       id="linearGradient608"
       x1="-0.00316928"
       y1="-0.00847882"
       x2="0.93248117"
       y2="1.04671049"
       gradientUnits="objectBoundingBox"
       gradientTransform="scale(1.063868,0.939966)"
       spreadMethod="pad" />
  </defs>
  <sodipodi:namedview
     id="base"
     pagecolor="#ffffff"
     bordercolor="#666666"
     borderopacity="1.0"
     inkscape:pageopacity="0.0"
     inkscape:pageshadow="2"
     inkscape:zoom="7.97947191"
     inkscape:cx="29.9168788"
     inkscape:cy="24.2062978"
     inkscape:window-width="697"
     inkscape:window-height="603"
     inkscape:window-x="17"
     inkscape:window-y="50" />
  <path
     d="M 4.4389304 48.086315 C 5.2483181 50.50443 38.765774 61.377487 40.966438 59.55288 C 42.936267 57.902492 57.675565 8.7785888 56.688667 6.8303779 C 55.662821 4.6824777 21.657054 -0.6675724 20.042945 0.80153134 C 18.054709 2.621752 3.5888672 45.311841 4.4389304 48.086315 z "
     style="font-size:12;opacity:0.302675;fill-rule:evenodd;stroke-width:12.5;"
     id="path639" />
  <path
     d="M 4.5541516 46.08493 C 5.3114351 48.34726 36.66955 58.519843 38.728432 56.812781 C 40.571358 55.268717 54.36111 9.3095333 53.437795 7.4867937 C 52.478034 5.477268 20.663028 0.47192513 19.152904 1.8463842 C 17.292759 3.5493405 3.7588508 43.489198 4.5541516 46.08493 z "
     style="font-size:12;fill:url(#linearGradient586);fill-rule:evenodd;stroke:#261933;stroke-width:1.87726;"
     id="path634" />
  <path
     d="M 6.6876568 43.965773 C 6.360392 43.13667 19.363758 4.5872629 20.579427 3.7922731 C 22.09876 2.7554118 46.659814 7.3454032 46.98631 8.172561 C 47.28557 8.9306762 27.823671 5.3906629 23.493845 9.2635774 C 15.189619 16.482895 6.9861475 44.721984 6.6876568 43.965773 z "
     style="font-size:12;opacity:0.699936;fill:url(#linearGradient587);fill-rule:evenodd;stroke:none;stroke-width:0.100121pt;"
     id="path640" />
  <g
     id="g626"
     style="fill:#261933;fill-opacity:1;"
     transform="matrix(1.005217,-4.210047e-2,-3.563547e-3,1.096472,-0.353062,-0.388612)">
    <path
       d="M 17.007036 17.956608 C 26.200556 19.828531 36.291137 22.262589 45.172716 24.8357 C 45.549883 24.944998 45.17088 26.082883 44.783369 26.003928 C 35.60928 24.135963 25.3921 21.574639 16.487909 18.994955 C 16.133354 18.89223 16.63895 17.881616 17.007036 17.956608 z "
       style="font-size:12;fill:#261933;fill-rule:evenodd;stroke-width:1pt;fill-opacity:1;"
       id="path643" />
    <path
       d="M 21.679653 15.230906 C 30.873173 17.10283 37.459271 18.498539 46.340844 21.071651 C 46.718016 21.180948 46.339008 22.318828 45.951503 22.239878 C 36.777408 20.371913 30.064717 18.848937 21.160526 16.269253 C 20.805971 16.166529 21.311573 15.155914 21.679653 15.230906 z "
       style="font-size:12;fill:#261933;fill-rule:evenodd;stroke-width:1pt;fill-opacity:1;"
       id="path644" />
    <path
       d="M 15.579248 21.720657 C 24.772763 23.592581 34.863349 26.026638 43.744928 28.599756 C 44.122095 28.709047 43.743092 29.846933 43.355581 29.767977 C 34.181486 27.900018 23.964312 25.338689 15.060121 22.759005 C 14.705566 22.65628 15.211162 21.645666 15.579248 21.720657 z "
       style="font-size:12;fill:#261933;fill-rule:evenodd;stroke-width:1pt;fill-opacity:1;"
       id="path645" />
    <path
       d="M 12.645102 29.625444 C 21.795715 31.697116 17.373479 30.530047 26.196884 33.295949 C 26.571636 33.413456 26.167893 34.542839 25.782219 34.455382 C 16.650937 32.388153 20.949381 33.42515 12.103463 30.652196 C 11.751224 30.541835 12.278759 29.54243 12.645102 29.625444 z "
       style="font-size:12;fill:#261933;fill-rule:evenodd;stroke-width:1pt;fill-opacity:1;"
       id="path646" />
    <path
       d="M 20.137738 8.3243638 C 23.31927 8.783286 23.882942 8.7358283 26.791289 9.5225477 C 27.17145 9.6210194 26.856902 10.771562 26.466303 10.710199 C 23.434169 10.254272 23.179245 10.123234 19.676014 9.3894807 C 19.195444 9.2664634 19.765594 8.2727897 20.137738 8.3243638 z "
       style="font-size:12;fill:#261933;fill-rule:evenodd;stroke-width:1pt;fill-opacity:1;"
       id="path647" />
    <path
       d="M 14.055594 25.629661 C 23.233169 27.577833 33.303266 30.095477 42.163193 32.742229 C 42.5394 32.854713 42.151019 33.989407 41.764093 33.907264 C 32.605844 31.96315 22.410317 29.317176 13.527866 26.663658 C 13.174182 26.55794 13.688093 25.551577 14.055594 25.629661 z "
       style="font-size:12;fill:#261933;fill-rule:evenodd;stroke-width:1pt;fill-opacity:1;"
       id="path648" />
  </g>
  <g
     transform="matrix(0.659571,0.000000,0.000000,0.659571,17.12916,20.15748)"
     style="font-size:12;opacity:0.3;fill:url(#linearGradient608);stroke:#000000;"
     id="g677">
    <ellipse
       cx="47.59568024"
       cy="41.55554962"
       rx="28.88131142"
       ry="28.88131142"
       transform="matrix(0.917566,0.000000,0.000000,0.917566,-11.48724,-5.833475)"
       style="fill-rule:evenodd;stroke-width:2.05418;fill:url(#linearGradient608);"
       id="path675" />
    <ellipse
       cx="42.10733032"
       cy="34.26774216"
       rx="21.77344894"
       ry="21.77344894"
       transform="matrix(0.934849,0.000000,0.000000,0.934849,-7.035911,0.205833)"
       style="fill-rule:evenodd;stroke-width:1pt;fill:url(#linearGradient608);"
       id="path676" />
  </g>
  <ellipse
     cx="47.59568024"
     cy="41.55554962"
     rx="28.88131142"
     ry="28.88131142"
     transform="matrix(0.605200,0.000000,0.000000,0.605200,8.877895,15.18553)"
     style="font-size:12;fill:url(#linearGradient606);fill-opacity:0.75;fill-rule:evenodd;stroke:#261933;stroke-width:3.09815;stroke-dasharray:none;"
     id="path594" />
  <ellipse
     cx="42.10733032"
     cy="34.26774216"
     rx="21.77344894"
     ry="21.77344894"
     transform="matrix(0.616599,0.000000,0.000000,0.616599,11.81387,19.16889)"
     style="font-size:12;fill:url(#linearGradient605);fill-opacity:0.75;fill-rule:evenodd;stroke-width:1pt;"
     id="path623" />
  <path
     d="M 37.243944 41.328823 C 36.884942 41.145966 36.287185 40.228832 36.561449 39.851733 L 40.893532 33.895367 L 38.623003 40.901788 C 38.491595 41.307286 37.572126 41.495984 37.243944 41.328823 z "
     style="font-size:12;fill:url(#linearGradient604);fill-opacity:0.75;fill-rule:evenodd;stroke:#261933;stroke-width:1.07199;"
     id="path597" />
  <path
     d="M 38.69545 40.987206 C 38.464047 41.317012 37.32427 41.676476 36.864634 41.264515 L 29.604577 34.757497 L 38.193456 39.370618 C 38.690539 39.637603 38.906987 40.685713 38.69545 40.987206 z "
     style="font-size:12;fill:url(#linearGradient603);fill-opacity:0.75;fill-rule:evenodd;stroke:#261933;stroke-width:1.2367;"
     id="path598" />
  <path
     d="M 51.617351 45.286285 C 50.754835 47.356323 49.231893 49.572474 47.599041 51.100657 C 46.065953 52.53547 44.270744 53.464965 42.241295 54.205714 C 44.493984 54.124536 47.053675 53.371221 48.63406 51.892142 C 50.219615 50.408225 51.495584 47.802802 51.617351 45.286285 z "
     style="font-size:12;fill:url(#linearGradient602);fill-opacity:0.75;fill-rule:evenodd;stroke-width:1pt;"
     id="path596" />
  <path
     d="M 22.750884 41.592304 C 22.875811 37.069937 24.949436 31.747875 27.847916 28.92468 C 30.721075 26.126148 36.143085 24.927008 41.190147 25.401732 C 36.992591 26.81341 32.452712 28.408768 29.421999 31.360761 C 26.681073 34.030495 24.025142 37.831993 22.750884 41.592304 z "
     style="font-size:12;fill:url(#linearGradient601);fill-opacity:0.75;fill-rule:evenodd;stroke-width:1pt;"
     id="path593" />
</svg>
