<?xml version="1.0" encoding="UTF-8" standalone="no"?>
<!DOCTYPE svg PUBLIC "-//W3C//DTD SVG 20010904//EN"
"http://www.w3.org/TR/2001/REC-SVG-20010904/DTD/svg10.dtd">
<!-- Created with Inkscape (http://www.inkscape.org/) -->
<svg
   version="1.0"
   x="0"
   y="0"
   width="48pt"
   height="48pt"
   id="svg1"
   sodipodi:version="0.32"
   inkscape:version="0.37"
   sodipodi:docname="stock_fr_add.svg"
   sodipodi:docbase="/home/dan/Projects/Lila-gtk/gtk-2.0"
   xmlns="http://www.w3.org/2000/svg"
   xmlns:inkscape="http://www.inkscape.org/namespaces/inkscape"
   xmlns:sodipodi="http://sodipodi.sourceforge.net/DTD/sodipodi-0.dtd"
   xmlns:xlink="http://www.w3.org/1999/xlink">
  <sodipodi:namedview
     id="base"
     pagecolor="#ffffff"
     bordercolor="#666666"
     borderopacity="1.0"
     inkscape:pageopacity="0.0"
     inkscape:pageshadow="2"
     inkscape:zoom="6.94653375"
     inkscape:cx="24.1195297"
     inkscape:cy="23.1752741"
     inkscape:window-width="640"
     inkscape:window-height="503"
     inkscape:window-x="116"
     inkscape:window-y="199" />
  <defs
     id="defs3">
    <linearGradient
       id="linearGradient745">
      <stop
         style="stop-color:#d9cce6;stop-opacity:1;"
         offset="0.000000"
         id="stop746" />
      <stop
         style="stop-color:#73667f;stop-opacity:1;"
         offset="1.000000"
         id="stop747" />
    </linearGradient>
    <linearGradient
       id="linearGradient570">
      <stop
         style="stop-color:#ffffff;stop-opacity:1;"
         offset="0"
         id="stop571" />
      <stop
         style="stop-color:#ffffff;stop-opacity:0;"
         offset="1"
         id="stop572" />
    </linearGradient>
    <linearGradient
       id="linearGradient563">
      <stop
         style="stop-color:#d9cce6;stop-opacity:1;"
         offset="0.000000"
         id="stop564" />
      <stop
         style="stop-color:#73667f;stop-opacity:1;"
         offset="1.000000"
         id="stop565" />
    </linearGradient>
    <linearGradient
       x1="0.01973684"
       y1="0.00000000"
       x2="0.98026317"
       y2="0.96875000"
       id="linearGradient566"
       xlink:href="#linearGradient563" />
    <linearGradient
       x1="0.007275"
       y1="0.062497"
       x2="1.003636"
       y2="0.968750"
       id="linearGradient569"
       xlink:href="#linearGradient570" />
    <linearGradient
       x1="0.017699"
       y1="0.007811"
       x2="0.982301"
       y2="0.992187"
       id="linearGradient573"
       xlink:href="#linearGradient570" />
    <linearGradient
       x1="0.040005"
       y1="0.015624"
       x2="1.000000"
       y2="0.984375"
       id="linearGradient575"
       xlink:href="#linearGradient570" />
    <linearGradient
       id="linearGradient578"
       xlink:href="#linearGradient745"
       x1="0.00780697"
       y1="0.01561788"
       x2="0.99218708"
       y2="0.99218744"
       gradientUnits="objectBoundingBox"
       spreadMethod="pad" />
    <linearGradient
       xlink:href="#linearGradient570"
       id="linearGradient749"
       x1="0.01666118"
       y1="0.02343415"
       x2="0.95833319"
       y2="0.98437482"
       gradientUnits="objectBoundingBox"
       spreadMethod="pad" />
    <linearGradient
       xlink:href="#linearGradient570"
       id="linearGradient750"
       x1="0.01135486"
       y1="-0.64677995"
       x2="0.98863626"
       y2="0.52941400"
       gradientUnits="objectBoundingBox"
       gradientTransform="translate(-7.958619e-8,1.222231e-6)"
       spreadMethod="pad" />
  </defs>
  <path
     d="M 3.8848259 45.132936 C 4.9246881 46.18236 28.149246 52.041234 29.629398 51.718847 C 30.920841 51.557282 49.595062 43.124683 50.344836 42.259202 C 51.388518 40.887887 51.185763 16.3929 50.225113 15.317119 C 49.156778 13.950373 26.043152 11.208688 24.480447 11.245854 C 23.058865 11.388604 4.2871842 15.461495 3.5256377 16.514542 C 2.966284 17.376012 2.8417457 44.201052 3.8848259 45.132936 z "
     style="font-size:12;opacity:0.302675;fill-rule:evenodd;stroke-width:12.5;"
     id="path1168" />
  <path
     d="M 3.6071777 43.007656 C 4.602609 44.012247 26.834838 49.620791 28.251748 49.312185 C 29.48801 49.157512 47.364342 41.08521 48.08208 40.256709 C 49.081169 38.943978 48.887077 15.495595 47.967471 14.465778 C 46.944782 13.157429 24.81873 10.532895 23.322793 10.568466 C 21.961953 10.70513 3.9923435 14.603975 3.2633098 15.612035 C 2.7278539 16.436694 2.6086367 42.115585 3.6071777 43.007656 z "
     style="font-size:12;fill:url(#linearGradient566);fill-rule:evenodd;stroke:#261933;stroke-width:1.875;stroke-dasharray:none;"
     id="path1164" />
  <path
     d="M 4.5241958 42.090715 C 4.1153394 41.477423 3.5802785 17.378536 4.40957 16.64368 C 4.9779428 16.153146 26.012095 19.703246 26.41775 20.311767 C 26.776208 20.849503 10.21233 16.733142 6.7021167 20.082466 C 3.875587 22.774147 4.8795248 42.62368 4.5241958 42.090715 z "
     style="font-size:12;opacity:0.990000;fill:url(#linearGradient573);fill-rule:evenodd;stroke:none;stroke-width:0.105861pt;"
     id="path1165" />
  <path
     d="M 28.82497 47.019656 C 28.510141 46.74416 27.98933 21.097743 28.595662 20.42638 C 29.251112 19.688333 45.816268 16.13687 46.133474 16.414472 C 46.42754 16.671771 31.85846 19.399674 30.42966 22.031161 C 28.217996 25.96615 29.121411 47.279062 28.82497 47.019656 z "
     style="font-size:12;opacity:0.990000;fill:url(#linearGradient575);fill-rule:evenodd;stroke:none;stroke-width:0.105861pt;"
     id="path1166" />
  <path
     d="M 8.1921995 15.382811 C 8.1921995 15.151775 21.973203 11.854128 23.781408 11.829428 C 25.25713 11.807748 40.058259 13.662612 40.058259 13.892642 C 40.058259 14.121044 29.1837 12.95227 23.781408 13.204908 C 18.561681 13.449029 8.1921995 15.610301 8.1921995 15.382811 z "
     style="font-size:12;opacity:0.990000;fill:url(#linearGradient569);fill-rule:evenodd;stroke:none;stroke-width:0.105861pt;"
     id="path1167" />
  <path
     style="font-size:12;fill:#000000;fill-rule:evenodd;stroke:none;stroke-width:14.8479;fill-opacity:1;opacity:0.302675;"
     d="M 58.671197 45.757081 C 59.608235 45.171162 59.259816 30.978083 58.671197 30.194062 C 57.971178 29.300907 46.577389 30.776251 45.645626 30.194062 C 44.836767 29.746165 46.436411 22.678093 45.645626 22.92004 C 44.910452 23.171747 29.81599 34.349941 29.744279 37.468082 C 29.776601 40.403577 44.611827 52.632997 45.645626 52.861938 C 46.556696 53.042778 45.094058 45.945622 45.814789 45.418754 C 46.722284 44.720614 57.660669 46.463748 58.671197 45.757081 z "
     id="path617"
     sodipodi:nodetypes="csssssss" />
  <path
     style="font-size:12;fill:url(#linearGradient578);fill-rule:evenodd;stroke:#261933;stroke-width:1.875;stroke-dasharray:none;"
     d="M 56.708218 44.297093 C 57.547181 43.772499 57.235231 31.064927 56.708218 30.362964 C 56.081466 29.563291 45.880199 30.88422 45.045957 30.362964 C 44.321758 29.961947 45.753975 23.633648 45.045957 23.850272 C 44.38773 24.075634 30.873117 33.893984 30.808912 36.875656 C 30.837911 39.598859 44.120361 50.453347 45.045957 50.658327 C 45.861671 50.820239 44.55212 44.465901 45.197416 43.994178 C 46.009929 43.369108 55.803457 44.929798 56.708218 44.297093 z "
     id="path589"
     sodipodi:nodetypes="csssssss" />
  <path
     style="fill:#261e2e;fill-rule:evenodd;stroke:none;stroke-opacity:1;stroke-width:1pt;stroke-linejoin:miter;stroke-linecap:butt;fill-opacity:1;opacity:0.201783;"
     d="M 57.120471 37.175656 C 56.054976 37.055744 31.714336 36.384633 30.937455 37.108521 C 30.295348 37.639692 41.657515 48.745297 44.901731 50.334301 C 46.04373 50.893647 43.593485 44.509805 44.968867 43.822115 C 47.442613 42.585241 53.613184 45.218499 56.449112 44.090658 C 57.051748 43.879525 57.822998 37.262277 57.120471 37.175656 z "
     id="path644"
     sodipodi:nodetypes="csssss" />
  <path
     style="fill:url(#linearGradient749);fill-rule:evenodd;stroke:none;stroke-opacity:1;stroke-width:1pt;stroke-linejoin:miter;stroke-linecap:butt;fill-opacity:1;"
     d="M 31.879591 37.106761 C 35.053337 32.030985 44.647315 25.412498 44.79205 25.42858 C 44.932149 25.444146 36.727615 32.906158 33.398704 37.011816 C 32.929834 37.590089 33.528927 39.494844 33.398704 39.480375 C 33.244094 39.463196 31.443904 37.825043 31.879591 37.106761 z "
     id="path665"
     sodipodi:nodetypes="cssss" />
  <path
     style="fill:url(#linearGradient750);fill-rule:evenodd;stroke:none;stroke-opacity:1;stroke-width:1pt;stroke-linejoin:miter;stroke-linecap:butt;fill-opacity:1;"
     d="M 44.916824 31.959867 C 47.311876 31.975181 55.357106 31.483335 55.740503 31.675033 C 56.053365 31.831465 49.859244 32.929162 47.005604 33.004257 C 46.25135 33.024105 44.400244 32.038477 44.916824 31.959867 z "
     id="path666"
     sodipodi:nodetypes="csss" />
</svg>
