<?xml version="1.0" encoding="UTF-8" standalone="no"?>
<!DOCTYPE svg PUBLIC "-//W3C//DTD SVG 20010904//EN"
"http://www.w3.org/TR/2001/REC-SVG-20010904/DTD/svg10.dtd">
<!-- Created with Inkscape (http://www.inkscape.org/) -->
<svg
   version="1.0"
   x="0"
   y="0"
   width="48pt"
   height="48pt"
   id="svg1"
   sodipodi:version="0.32"
   inkscape:version="0.37"
   sodipodi:docname="stock_fr_extract.svg"
   sodipodi:docbase="/home/dan/Projects/Lila-gtk/gtk-2.0"
   xmlns="http://www.w3.org/2000/svg"
   xmlns:inkscape="http://www.inkscape.org/namespaces/inkscape"
   xmlns:sodipodi="http://sodipodi.sourceforge.net/DTD/sodipodi-0.dtd"
   xmlns:xlink="http://www.w3.org/1999/xlink">
  <sodipodi:namedview
     id="base"
     pagecolor="#ffffff"
     bordercolor="#666666"
     borderopacity="1.0"
     inkscape:pageopacity="0.0"
     inkscape:pageshadow="2"
     inkscape:zoom="6.94653375"
     inkscape:cx="24.1195297"
     inkscape:cy="23.1752741"
     inkscape:window-width="640"
     inkscape:window-height="503"
     inkscape:window-x="116"
     inkscape:window-y="199" />
  <defs
     id="defs3">
    <linearGradient
       id="linearGradient745">
      <stop
         style="stop-color:#d9cce6;stop-opacity:1;"
         offset="0.000000"
         id="stop746" />
      <stop
         style="stop-color:#73667f;stop-opacity:1;"
         offset="1.000000"
         id="stop747" />
    </linearGradient>
    <linearGradient
       id="linearGradient570">
      <stop
         style="stop-color:#ffffff;stop-opacity:1;"
         offset="0"
         id="stop571" />
      <stop
         style="stop-color:#ffffff;stop-opacity:0;"
         offset="1"
         id="stop572" />
    </linearGradient>
    <linearGradient
       id="linearGradient563">
      <stop
         style="stop-color:#d9cce6;stop-opacity:1;"
         offset="0.000000"
         id="stop564" />
      <stop
         style="stop-color:#73667f;stop-opacity:1;"
         offset="1.000000"
         id="stop565" />
    </linearGradient>
    <linearGradient
       x1="0.01973684"
       y1="0.00000000"
       x2="0.98026317"
       y2="0.96875000"
       id="linearGradient566"
       xlink:href="#linearGradient563" />
    <linearGradient
       x1="0.007275"
       y1="0.062497"
       x2="1.003636"
       y2="0.968750"
       id="linearGradient569"
       xlink:href="#linearGradient570" />
    <linearGradient
       x1="0.017699"
       y1="0.007811"
       x2="0.982301"
       y2="0.992187"
       id="linearGradient573"
       xlink:href="#linearGradient570" />
    <linearGradient
       x1="0.040005"
       y1="0.015624"
       x2="1.000000"
       y2="0.984375"
       id="linearGradient575"
       xlink:href="#linearGradient570" />
    <linearGradient
       id="linearGradient578"
       xlink:href="#linearGradient745"
       x1="0.00780697"
       y1="0.01561788"
       x2="0.99218708"
       y2="0.99218744"
       gradientUnits="objectBoundingBox"
       spreadMethod="pad" />
    <linearGradient
       xlink:href="#linearGradient570"
       id="linearGradient749"
       x1="0.01666118"
       y1="0.02343415"
       x2="0.95833319"
       y2="0.98437482"
       gradientUnits="objectBoundingBox"
       spreadMethod="pad" />
    <linearGradient
       xlink:href="#linearGradient570"
       id="linearGradient750"
       x1="0.01135486"
       y1="-0.64677995"
       x2="0.98863626"
       y2="0.52941400"
       gradientUnits="objectBoundingBox"
       gradientTransform="translate(-7.958619e-8,1.222231e-6)"
       spreadMethod="pad" />
  </defs>
  <path
     d="M 3.8848259 45.132936 C 4.9246881 46.18236 28.149246 52.041234 29.629398 51.718847 C 30.920841 51.557282 49.595062 43.124683 50.344836 42.259202 C 51.388518 40.887887 51.185763 16.3929 50.225113 15.317119 C 49.156778 13.950373 26.043152 11.208688 24.480447 11.245854 C 23.058865 11.388604 4.2871842 15.461495 3.5256377 16.514542 C 2.966284 17.376012 2.8417457 44.201052 3.8848259 45.132936 z "
     style="font-size:12;opacity:0.302675;fill-rule:evenodd;stroke-width:12.5;"
     id="path1168" />
  <path
     d="M 3.6071777 43.007656 C 4.602609 44.012247 26.834838 49.620791 28.251748 49.312185 C 29.48801 49.157512 47.364342 41.08521 48.08208 40.256709 C 49.081169 38.943978 48.887077 15.495595 47.967471 14.465778 C 46.944782 13.157429 24.81873 10.532895 23.322793 10.568466 C 21.961953 10.70513 3.9923435 14.603975 3.2633098 15.612035 C 2.7278539 16.436694 2.6086367 42.115585 3.6071777 43.007656 z "
     style="font-size:12;fill:url(#linearGradient566);fill-rule:evenodd;stroke:#261933;stroke-width:1.875;stroke-dasharray:none;"
     id="path1164" />
  <path
     d="M 4.5241958 42.090715 C 4.1153394 41.477423 3.5802785 17.378536 4.40957 16.64368 C 4.9779428 16.153146 26.012095 19.703246 26.41775 20.311767 C 26.776208 20.849503 10.21233 16.733142 6.7021167 20.082466 C 3.875587 22.774147 4.8795248 42.62368 4.5241958 42.090715 z "
     style="font-size:12;opacity:0.990000;fill:url(#linearGradient573);fill-rule:evenodd;stroke:none;stroke-width:0.105861pt;"
     id="path1165" />
  <path
     d="M 28.82497 47.019656 C 28.510141 46.74416 27.98933 21.097743 28.595662 20.42638 C 29.251112 19.688333 45.816268 16.13687 46.133474 16.414472 C 46.42754 16.671771 31.85846 19.399674 30.42966 22.031161 C 28.217996 25.96615 29.121411 47.279062 28.82497 47.019656 z "
     style="font-size:12;opacity:0.990000;fill:url(#linearGradient575);fill-rule:evenodd;stroke:none;stroke-width:0.105861pt;"
     id="path1166" />
  <path
     d="M 8.1921995 15.382811 C 8.1921995 15.151775 21.973203 11.854128 23.781408 11.829428 C 25.25713 11.807748 40.058259 13.662612 40.058259 13.892642 C 40.058259 14.121044 29.1837 12.95227 23.781408 13.204908 C 18.561681 13.449029 8.1921995 15.610301 8.1921995 15.382811 z "
     style="font-size:12;opacity:0.990000;fill:url(#linearGradient569);fill-rule:evenodd;stroke:none;stroke-width:0.105861pt;"
     id="path1167" />
  <path
     style="font-size:12;fill:#000000;fill-rule:evenodd;stroke:none;stroke-width:14.8479;fill-opacity:1;opacity:0.302675;"
     d="M 30.686685 46.36202 C 29.744673 45.772991 30.094941 31.504562 30.686685 30.716379 C 31.390421 29.818482 42.844698 31.301659 43.781408 30.716379 C 44.594559 30.266105 42.986426 23.160508 43.781408 23.40374 C 44.520485 23.656783 59.69508 34.894322 59.767176 38.029016 C 59.734678 40.980095 44.820696 53.27444 43.781408 53.504597 C 42.8655 53.686396 44.335904 46.551562 43.611346 46.021898 C 42.699033 45.320051 31.702578 47.072439 30.686685 46.36202 z "
     id="path856"
     sodipodi:nodetypes="csssssss" />
  <path
     style="font-size:12;fill:url(#linearGradient578);fill-rule:evenodd;stroke:#261933;stroke-width:1.875;stroke-dasharray:none;"
     d="M 31.705599 45.085179 C 30.862182 44.5578 31.175789 31.782764 31.705599 31.077074 C 32.335679 30.273156 42.591103 31.601097 43.429773 31.077074 C 44.157818 30.673929 42.717997 24.312033 43.429773 24.529807 C 44.091495 24.756366 57.677856 34.62684 57.742402 37.624341 C 57.713248 40.362003 44.360286 51.274116 43.429773 51.480184 C 42.609729 51.642955 43.926233 45.254882 43.277511 44.780655 C 42.460686 44.152267 32.615164 45.721243 31.705599 45.085179 z "
     id="path857"
     sodipodi:nodetypes="csssssss" />
  <path
     style="fill:url(#linearGradient749);fill-rule:evenodd;stroke:none;stroke-opacity:1;stroke-width:1pt;stroke-linejoin:miter;stroke-linecap:butt;fill-opacity:1;"
     d="M 32.865912 44.877547 C 32.624913 44.564249 32.601235 33.415475 33.135881 32.593938 C 33.789916 31.723933 42.360919 33.868069 44.879551 32.593938 C 46.185486 31.933289 44.539845 27.093718 44.609581 26.789595 C 44.697744 26.234453 47.139789 28.233671 47.309276 28.544396 C 47.409759 28.728615 45.565809 27.838194 45.419489 28.274427 C 45.356607 28.864342 47.128274 33.024457 45.959428 33.673816 C 43.483686 35.049228 36.519681 32.169217 34.485729 34.34874 C 33.19624 35.740177 33.074862 45.149183 32.865912 44.877547 z "
     id="path618"
     sodipodi:nodetypes="cssssssss" />
  <path
     style="fill:#261e2e;fill-rule:evenodd;stroke:none;stroke-opacity:1;stroke-width:1pt;stroke-linejoin:miter;stroke-linecap:butt;fill-opacity:1;opacity:0.201783;"
     d="M 31.291157 37.925936 C 32.362308 37.805385 56.832174 37.130713 57.613175 37.858443 C 58.258691 38.392434 46.836205 49.556996 43.574766 51.154437 C 42.426704 51.716753 44.889956 45.29902 43.507274 44.607679 C 41.020394 43.364238 34.817065 46.011477 31.966081 44.877648 C 31.360245 44.665393 30.584901 38.013015 31.291157 37.925936 z "
     id="path859"
     sodipodi:nodetypes="csssss" />
</svg>
