<?xml version="1.0" encoding="UTF-8" standalone="no"?>
<!DOCTYPE svg PUBLIC "-//W3C//DTD SVG 20010904//EN"
"http://www.w3.org/TR/2001/REC-SVG-20010904/DTD/svg10.dtd">
<!-- Created with Inkscape (http://www.inkscape.org/) -->
<svg
   id="svg1"
   sodipodi:version="0.32"
   inkscape:version="0.39"
   width="48pt"
   height="48pt"
   sodipodi:docbase="/home/scaba/files/pre-release/lila-gnome"
   sodipodi:docname="gaim-text-normal.svg"
   xmlns="http://www.w3.org/2000/svg"
   xmlns:cc="http://web.resource.org/cc/"
   xmlns:inkscape="http://www.inkscape.org/namespaces/inkscape"
   xmlns:sodipodi="http://sodipodi.sourceforge.net/DTD/sodipodi-0.dtd"
   xmlns:rdf="http://www.w3.org/1999/02/22-rdf-syntax-ns#"
   xmlns:dc="http://purl.org/dc/elements/1.1/"
   xmlns:xlink="http://www.w3.org/1999/xlink">
  <defs
     id="defs3">
    <linearGradient
       id="linearGradient584">
      <stop
         style="stop-color:#ffffff;stop-opacity:1;"
         offset="0.00000000"
         id="stop585" />
      <stop
         style="stop-color:#ffffff;stop-opacity:0;"
         offset="1.00000000"
         id="stop586" />
    </linearGradient>
    <linearGradient
       id="linearGradient578">
      <stop
         style="stop-color:#faf8fd;stop-opacity:1;"
         offset="0.00000000"
         id="stop579" />
      <stop
         style="stop-color:#d9cce6;stop-opacity:1;"
         offset="1.00000000"
         id="stop580" />
    </linearGradient>
    <linearGradient
       xlink:href="#linearGradient578"
       id="linearGradient581"
       x1="0.00000000"
       y1="0.00000000"
       x2="1.00000000"
       y2="0.99218750" />
    <linearGradient
       xlink:href="#linearGradient584"
       id="linearGradient583"
       x1="-0.00000000"
       y1="0.00000000"
       x2="0.99264705"
       y2="0.97656250" />
    <linearGradient
       xlink:href="#linearGradient584"
       id="linearGradient654"
       x1="-0.00000000"
       y1="-0.00000000"
       x2="0.96341461"
       y2="0.99218750" />
    <linearGradient
       xlink:href="#linearGradient584"
       id="linearGradient655"
       x1="-0.00000000"
       y1="-0.00000000"
       x2="0.98148149"
       y2="0.95312500" />
    <linearGradient
       xlink:href="#linearGradient584"
       id="linearGradient713"
       x1="-0.07299270"
       y1="-0.30000001"
       x2="1.00364959"
       y2="0.81250000" />
  </defs>
  <sodipodi:namedview
     id="base"
     pagecolor="#ffffff"
     bordercolor="#666666"
     borderopacity="1.0"
     inkscape:pageopacity="0.0"
     inkscape:pageshadow="2"
     inkscape:zoom="7.9794719"
     inkscape:cx="34.661302"
     inkscape:cy="22.206820"
     inkscape:window-width="1022"
     inkscape:window-height="695"
     inkscape:window-x="0"
     inkscape:window-y="26" />
  <path
     style="opacity:0.29636899;fill:#000000;fill-opacity:1.0000000;fill-rule:evenodd;stroke:none;stroke-width:1.8750000;stroke-linecap:butt;stroke-linejoin:miter;stroke-opacity:1.0000000;"
     d="M 7.3730586,7.5354647 C 9.5678693,5.6377882 55.655724,5.6404925 57.562595,7.5354647 C 59.488755,9.2783114 58.822781,54.538329 57.048710,56.354640 C 55.554264,57.888745 9.2331468,58.334197 7.3730586,56.525935 C 5.3742023,54.411476 4.9927170,9.6168864 7.3730586,7.5354647 z "
     id="path712"
     sodipodi:nodetypes="cssss" />
  <path
     style="font-size:12.000000;fill:url(#linearGradient581);fill-rule:evenodd;stroke:#261933;stroke-width:1.8750000;"
     d="M 5.9004566,6.4642494 C 8.0258180,4.6266193 52.655346,4.6292381 54.501879,6.4642493 C 56.367090,8.1519470 55.722189,51.979831 54.004254,53.738671 C 52.557096,55.224232 7.7016870,55.655589 5.9004566,53.904545 C 3.9648487,51.856992 3.5954344,8.4798091 5.9004566,6.4642494 z "
     id="path684"
     sodipodi:nodetypes="cssss" />
  <path
     style="fill:#261933;fill-opacity:1.0000000;fill-rule:evenodd;stroke:none;stroke-width:1.0000000pt;stroke-linecap:butt;stroke-linejoin:miter;stroke-opacity:1.0000000;"
     d="M 27.527186,12.243520 L 17.648300,46.620010 L 25.068013,46.628859 L 26.939041,37.314832 L 33.024799,37.157262 L 35.024591,46.611161 L 42.121288,46.786429 L 36.141281,12.243520 L 27.527186,12.243520 z M 31.312642,18.315796 L 32.596646,31.941427 L 28.420668,31.941427 L 31.312642,18.315796 z "
     id="path690"
     sodipodi:nodetypes="ccccccccccccc" />
  <path
     style="fill:url(#linearGradient583);fill-opacity:1.0000000;fill-rule:evenodd;stroke:none;stroke-width:1.0000000pt;stroke-linecap:butt;stroke-linejoin:miter;stroke-opacity:1.0000000;"
     d="M 7.3933331,49.923541 C 6.6679984,49.198206 6.2074668,11.378047 7.7250834,8.7865020 C 9.0470550,6.6949230 50.294511,8.0625131 51.018500,8.7865020 C 51.676804,9.4448063 15.538383,9.5498902 11.871962,12.933380 C 7.7474953,16.573696 8.0502912,50.580499 7.3933331,49.923541 z "
     id="path691"
     sodipodi:nodetypes="cssss" />
  <path
     style="fill:url(#linearGradient654);fill-opacity:1.0000000;fill-rule:evenodd;stroke:none;stroke-width:1.0000000pt;stroke-linecap:butt;stroke-linejoin:miter;stroke-opacity:1.0000000;"
     d="M 19.656602,44.616451 L 28.342979,13.175771 L 35.331853,13.175771 C 33.127031,14.176854 29.920473,13.595693 29.216589,15.177936 C 26.212392,22.044676 24.593107,34.865146 19.656602,44.616451 z "
     id="path692"
     sodipodi:nodetypes="cccsc" />
  <metadata
     id="metadata1024">
    <rdf:RDF
       id="RDF1025">
      <cc:Work
         rdf:about=""
         id="Work1026">
        <dc:format
           id="format1027">image/svg+xml</dc:format>
        <dc:type
           id="type1029"
           rdf:resource="http://purl.org/dc/dcmitype/StillImage" />
      </cc:Work>
    </rdf:RDF>
  </metadata>
  <path
     style="fill:url(#linearGradient655);fill-opacity:1.0000000;fill-rule:evenodd;stroke:none;stroke-width:1.0000000pt;stroke-linecap:butt;stroke-linejoin:miter;stroke-opacity:1.0000000;"
     d="M 30.411418,32.781811 C 30.299054,32.656629 33.170407,32.970936 34.009573,32.450061 C 34.328433,32.252143 33.789359,30.518326 33.885499,30.625434 C 34.037508,30.794785 35.138562,33.040750 34.754020,33.279437 C 33.980535,33.759542 30.547204,32.933088 30.411418,32.781811 z "
     id="path1001"
     sodipodi:nodetypes="cssss" />
</svg>
