<?xml version="1.0" encoding="UTF-8" standalone="no"?>
<!DOCTYPE svg PUBLIC "-//W3C//DTD SVG 20010904//EN"
"http://www.w3.org/TR/2001/REC-SVG-20010904/DTD/svg10.dtd">
<!-- Created with Inkscape (http://www.inkscape.org/) -->
<svg
   version="1.0"
   x="0"
   y="0"
   width="60"
   height="60"
   id="svg1"
   sodipodi:version="0.32"
   inkscape:version="0.38.1"
   sodipodi:docname="gaim-dialog-auth.svg"
   sodipodi:docbase="/home/scaba/files/lila-artwork/devel/lila-gnome-0.5.1_pre1"
   xmlns="http://www.w3.org/2000/svg"
   xmlns:inkscape="http://www.inkscape.org/namespaces/inkscape"
   xmlns:sodipodi="http://sodipodi.sourceforge.net/DTD/sodipodi-0.dtd"
   xmlns:xlink="http://www.w3.org/1999/xlink">
  <sodipodi:namedview
     id="base"
     pagecolor="#ffffff"
     bordercolor="#666666"
     borderopacity="1.0"
     inkscape:pageopacity="0.0"
     inkscape:pageshadow="2"
     inkscape:zoom="4.9119411"
     inkscape:cx="43.908462"
     inkscape:cy="22.204320"
     inkscape:window-width="640"
     inkscape:window-height="500"
     inkscape:window-x="88"
     inkscape:window-y="59" />
  <defs
     id="defs3">
    <linearGradient
       id="linearGradient570">
      <stop
         style="stop-color:#ffffff;stop-opacity:1;"
         offset="0"
         id="stop571" />
      <stop
         style="stop-color:#ffffff;stop-opacity:0;"
         offset="1"
         id="stop572" />
    </linearGradient>
    <linearGradient
       id="linearGradient563">
      <stop
         style="stop-color:#d9cce6;stop-opacity:1;"
         offset="0"
         id="stop564" />
      <stop
         style="stop-color:#73667f;stop-opacity:1;"
         offset="1"
         id="stop565" />
    </linearGradient>
    <linearGradient
       x1="0.00000000"
       y1="-0.00000000"
       x2="0.99218744"
       y2="0.98437500"
       id="linearGradient566"
       xlink:href="#linearGradient563" />
    <linearGradient
       x1="0.00000000"
       y1="0.00000000"
       x2="0.97826087"
       y2="0.98437500"
       id="linearGradient569"
       xlink:href="#linearGradient563" />
    <linearGradient
       id="linearGradient573"
       xlink:href="#linearGradient570"
       x1="-0.00000000"
       y1="0.00000000"
       x2="1.01428568"
       y2="1.00000000" />
    <linearGradient
       x1="0.00000000"
       y1="0.00000000"
       x2="0.98837209"
       y2="1.00781250"
       id="linearGradient575"
       xlink:href="#linearGradient570" />
    <linearGradient
       id="linearGradient578"
       xlink:href="#linearGradient570" />
    <radialGradient
       id="radialGradient614"
       xlink:href="#linearGradient570" />
    <linearGradient
       id="linearGradient620"
       xlink:href="#linearGradient570" />
    <sodipodi:namedview
       id="namedview2964"
       inkscape:zoom="4.94399999"
       inkscape:cx="24.4443710"
       inkscape:cy="24.9155162"
       inkscape:window-width="400"
       inkscape:window-height="500"
       inkscape:window-x="342"
       inkscape:window-y="300" />
    <defs
       id="defs599">
      <linearGradient
         id="linearGradient595">
        <stop
           style="stop-color:#7f7f7f;stop-opacity:1;"
           offset="0"
           id="stop596" />
        <stop
           style="stop-color:#e6e6e6;stop-opacity:1;"
           offset="1"
           id="stop597" />
      </linearGradient>
      <linearGradient
         id="linearGradient590">
        <stop
           style="stop-color:#ffffff;stop-opacity:1;"
           offset="0"
           id="stop591" />
        <stop
           style="stop-color:#ffffff;stop-opacity:0;"
           offset="1"
           id="stop592" />
      </linearGradient>
      <linearGradient
         id="linearGradient584">
        <stop
           style="stop-color:#d9cce6;stop-opacity:1;"
           offset="0.00000000"
           id="stop585" />
        <stop
           style="stop-color:#73667f;stop-opacity:1;"
           offset="1.00000000"
           id="stop586" />
      </linearGradient>
      <linearGradient
         x1="0.01204819"
         y1="0.01562500"
         x2="0.98795182"
         y2="1.00000000"
         id="linearGradient587"
         xlink:href="#linearGradient584" />
      <linearGradient
         x1="0.011696"
         y1="0.000001"
         x2="0.842105"
         y2="0.906250"
         id="linearGradient589"
         xlink:href="#linearGradient590" />
      <linearGradient
         x1="0.99218750"
         y1="0.98437500"
         x2="0.01562500"
         y2="0.00781250"
         id="linearGradient594"
         xlink:href="#linearGradient595" />
      <linearGradient
         x1="0.000001"
         y1="0.023434"
         x2="0.952381"
         y2="0.976562"
         id="linearGradient599"
         xlink:href="#linearGradient590" />
      <linearGradient
         id="linearGradient601"
         xlink:href="#linearGradient595" />
    </defs>
  </defs>
  <g
     transform="matrix(0.955388,0.000000,0.000000,0.955388,-7.272623,0.190406)"
     style="font-size:12;opacity:0.300759;"
     id="g621">
    <ellipse
       cx="33.55990219"
       cy="15.82329082"
       rx="11.42656231"
       ry="11.42656231"
       transform="translate(-1.079675,0.179946)"
       style="fill-rule:evenodd;stroke:#000000;stroke-width:1.875;"
       id="path618" />
    <path
       d="M 22.313287 26.889961 C 28.429738 30.095886 34.06975 30.428896 41.927386 27.78969 C 46.126123 32.588247 48.705347 35.227453 53.623867 39.306226 C 49.605076 37.266839 42.685031 32.285612 42.467223 36.786983 C 42.107332 44.404691 44.626574 51.842454 46.785924 59.280216 C 41.44753 54.121768 36.814399 52.455443 31.31058 52.262327 C 26.557485 52.095552 22.913106 55.381389 20.513828 59.640108 C 17.274803 49.923031 17.956317 24.478083 22.313287 26.889961 z "
       style="fill-rule:evenodd;stroke:#000000;stroke-width:1.875;"
       id="path619" />
  </g>
  <ellipse
     cx="33.55990219"
     cy="15.82329082"
     rx="11.42656231"
     ry="11.42656231"
     transform="matrix(0.955388,0.000000,0.000000,0.955388,-9.851394,-1.528773)"
     style="font-size:12;fill:url(#linearGradient566);fill-opacity:0.75;fill-rule:evenodd;stroke:#261933;stroke-width:1.875;"
     id="path613" />
  <path
     d="M 12.497951,23.989643 C 18.341533,27.052544 23.729930,27.370698 31.237018,24.849233 C 35.248439,29.433715 37.712598,31.955180 42.411691,35.851989 C 38.572188,33.903584 31.960863,29.144581 31.752772,33.445135 C 31.408936,40.722999 33.815789,47.828945 35.878805,54.934891 C 30.778569,50.006574 26.352134,48.414587 21.093853,48.230087 C 16.552805,48.070752 13.071011,51.210000 10.778771,55.278727 C 7.6842464,45.995153 8.3353564,21.685365 12.497951,23.989643 z "
     style="font-size:12;fill:url(#linearGradient569);fill-opacity:0.75;fill-rule:evenodd;stroke:#261933;stroke-width:1.79135;"
     id="path615" />
  <path
     d="M 20.750017,4.7348226 C 17.712799,5.5371069 15.191334,6.8551452 13.701378,10.236200 C 12.727176,13.330725 12.956399,16.081413 14.904804,19.004020 C 14.331743,16.253332 14.783885,12.973633 15.764395,10.580036 C 16.732289,8.2172329 17.884717,6.5686152 20.750017,4.7348226 z "
     style="font-size:12;fill:url(#linearGradient573);fill-opacity:0.75;fill-rule:evenodd;stroke-width:1pt;"
     id="path616" />
  <path
     d="M 11.818307,50.988805 C 9.8699031,42.736739 10.204282,25.748721 14.225160,26.920278 C 17.764706,28.102929 20.184986,28.467540 26.775177,28.123705 C 21.674942,31.619371 18.942164,29.612951 16.803931,30.014804 C 11.821546,31.351769 11.875613,43.997470 11.818307,50.988805 z "
     style="font-size:12;fill:url(#linearGradient575);fill-opacity:0.75;fill-rule:evenodd;stroke-width:1pt;"
     id="path617" />
  <path
     d="M 21.763724 27.047083 C 21.649109 18.710047 24.204701 6.359931 33.257556 6.4422007 C 42.940157 6.5314589 45.130056 20.079421 44.89166 27.467605 C 44.773132 31.072644 38.215478 30.350853 38.303701 27.467605 C 38.23279 23.530476 39.27471 14.151618 32.977207 14.151618 C 26.706188 14.011445 28.121115 23.666115 28.071336 27.467605 C 28.180691 29.679772 21.754753 30.001965 21.763724 27.047083 z "
     style="font-size:12.000000;opacity:0.30267498;fill-rule:evenodd;stroke-width:12.500000;"
     id="path602"
     transform="matrix(0.488271,0.000000,0.000000,0.483635,28.55887,31.31003)" />
  <path
     d="M 14.479347 55.521662 C 15.839626 56.624533 49.46983 57.213241 50.506427 56.105115 C 51.658313 54.711584 51.335586 29.643749 50.214699 28.39201 C 49.113648 27.177165 15.699121 26.979284 14.625209 28.246146 C 13.599123 29.311805 13.139123 54.316896 14.479347 55.521662 z "
     style="font-size:12.000000;opacity:0.29636899;fill-rule:evenodd;stroke-width:12.500000;"
     id="path600"
     transform="matrix(0.488271,0.000000,0.000000,0.483635,28.55887,31.31003)" />
  <path
     d="M 19.92149 25.317825 C 19.808517 17.099678 22.327666 4.9256819 31.251414 5.0067783 C 40.795937 5.0947629 42.954615 18.449525 42.719611 25.73235 C 42.602773 29.285979 36.138635 28.574482 36.2256 25.73235 C 36.155699 21.851366 37.182771 12.606256 30.975063 12.606256 C 24.793472 12.468083 26.188222 21.985071 26.139152 25.73235 C 26.246948 27.912971 19.912656 28.23057 19.92149 25.317825 z "
     style="font-size:12.000000;fill:url(#linearGradient594);fill-rule:evenodd;stroke:#333333;stroke-width:1.8750000;"
     id="path593"
     transform="matrix(0.488271,0.000000,0.000000,0.483635,28.55887,31.31003)" />
  <path
     d="M 13.841903 52.813781 C 15.130484 53.858532 46.988098 54.416209 47.970047 53.366481 C 49.061222 52.046411 48.755513 28.29986 47.693698 27.114096 C 46.650682 25.963283 14.997394 25.775834 13.980078 26.975922 C 13.008083 27.985411 12.572321 51.672526 13.841903 52.813781 z "
     style="font-size:12.000000;fill:url(#linearGradient587);fill-rule:evenodd;stroke:#261933;stroke-width:1.8750000;"
     id="path583"
     transform="matrix(0.488271,0.000000,0.000000,0.483635,28.55887,31.31003)" />
  <path
     d="M 15.776355 51.432138 C 15.277096 50.758229 14.636609 29.744496 15.914529 28.772193 C 17.629515 27.500479 45.692806 28.675267 46.17388 29.32479 C 46.613907 29.918841 24.666778 28.147157 18.677923 32.502709 C 14.534305 35.51624 16.198296 52.001705 15.776355 51.432138 z "
     style="font-size:12.000000;opacity:0.69999999;fill:url(#linearGradient589);fill-rule:evenodd;stroke-width:0.11004601pt;"
     id="path588"
     transform="matrix(0.488271,0.000000,0.000000,0.483635,28.55887,31.31003)" />
  <path
     d="M 21.579483 19.652864 C 22.473556 13.898699 24.676127 9.6907693 27.797145 7.2175029 C 29.558162 5.8219987 34.358411 6.171815 36.640125 8.4610345 C 33.667544 7.4153465 30.319346 7.4242768 28.48802 8.875539 C 25.437301 11.293089 23.164431 15.142272 21.579483 19.652864 z "
     style="font-size:12.000000;opacity:0.69999999;fill:url(#linearGradient599);fill-rule:evenodd;stroke-width:0.11004601pt;"
     id="path598"
     transform="matrix(0.488271,0.000000,0.000000,0.483635,28.55887,31.31003)" />
  <path
     d="M 31.496165 32.785356 C 33.132315 32.918045 36.144118 35.851715 36.144118 37.312409 C 36.144118 38.61826 31.926544 39.571565 31.496165 41.084987 C 30.734684 43.76344 33.294067 47.719198 32.568548 49.887732 C 32.340554 50.569566 28.868715 50.353668 28.635544 49.636277 C 27.915203 47.419488 30.085968 43.849194 29.708326 41.084987 C 29.490196 39.489778 26.551031 37.935822 26.847805 36.557938 C 27.147019 35.169277 30.033447 32.666588 31.496165 32.785356 z "
     style="font-size:12.000000;fill:#261933;fill-rule:evenodd;stroke-width:1.2871100pt;"
     id="path603"
     transform="matrix(0.488271,0.000000,0.000000,0.483635,28.55887,31.31003)" />
</svg>
