<?xml version="1.0" encoding="UTF-8" standalone="no"?>
<!DOCTYPE svg PUBLIC "-//W3C//DTD SVG 20010904//EN"
"http://www.w3.org/TR/2001/REC-SVG-20010904/DTD/svg10.dtd">
<!-- Created with Inkscape (http://www.inkscape.org/) -->
<svg
   version="1.0"
   x="0"
   y="0"
   width="60"
   height="60"
   id="svg1"
   sodipodi:version="0.32"
   inkscape:version="0.38.1"
   sodipodi:docname="gaim-dialog-error.svg"
   sodipodi:docbase="/home/scaba/files/lila-artwork/devel/lila-gnome-0.5.1_pre1"
   xmlns="http://www.w3.org/2000/svg"
   xmlns:inkscape="http://www.inkscape.org/namespaces/inkscape"
   xmlns:sodipodi="http://sodipodi.sourceforge.net/DTD/sodipodi-0.dtd"
   xmlns:xlink="http://www.w3.org/1999/xlink">
  <sodipodi:namedview
     id="base"
     pagecolor="#ffffff"
     bordercolor="#666666"
     borderopacity="1.0"
     inkscape:pageopacity="0.0"
     inkscape:pageshadow="2"
     inkscape:zoom="5.6568543"
     inkscape:cx="32.481752"
     inkscape:cy="18.169826"
     inkscape:window-width="737"
     inkscape:window-height="628"
     inkscape:window-x="272"
     inkscape:window-y="33" />
  <defs
     id="defs3">
    <linearGradient
       id="linearGradient3537">
      <stop
         offset="0.0000000"
         style="stop-color:#ffffff;stop-opacity:1.0000000;"
         id="stop3539" />
      <stop
         offset="1.0000000"
         style="stop-color:#ffffff;stop-opacity:0.0000000;"
         id="stop3538" />
    </linearGradient>
    <linearGradient
       id="linearGradient3534">
      <stop
         offset="0.0000000"
         style="stop-color:#ffffff;stop-opacity:1.0000000;"
         id="stop3536" />
      <stop
         offset="1.0000000"
         style="stop-color:#ffffff;stop-opacity:0.0000000;"
         id="stop3535" />
    </linearGradient>
    <linearGradient
       id="linearGradient3531">
      <stop
         offset="0.0000000"
         style="stop-color:#7f7f7f;stop-opacity:1.0000000;"
         id="stop3533" />
      <stop
         offset="1.0000000"
         style="stop-color:#e6e6e6;stop-opacity:1.0000000;"
         id="stop3532" />
    </linearGradient>
    <linearGradient
       id="linearGradient3528">
      <stop
         offset="0.0000000"
         style="stop-color:#d9cce6;stop-opacity:1.0000000;"
         id="stop3530" />
      <stop
         offset="1.0000000"
         style="stop-color:#73667f;stop-opacity:1.0000000;"
         id="stop3529" />
    </linearGradient>
    <linearGradient
       id="linearGradient3525">
      <stop
         offset="0.0000000"
         style="stop-color:#f50000;stop-opacity:1.0000000;"
         id="stop3527" />
      <stop
         offset="1.0000000"
         style="stop-color:#a80000;stop-opacity:1.0000000;"
         id="stop3526" />
    </linearGradient>
    <linearGradient
       id="linearGradient914">
      <stop
         style="stop-color:#ffffff;stop-opacity:1;"
         offset="0.00000000"
         id="stop915" />
      <stop
         style="stop-color:#7f7f7f;stop-opacity:1;"
         offset="1.00000000"
         id="stop916" />
    </linearGradient>
    <linearGradient
       id="linearGradient570">
      <stop
         style="stop-color:#ffffff;stop-opacity:1;"
         offset="0"
         id="stop571" />
      <stop
         style="stop-color:#ffffff;stop-opacity:0;"
         offset="1"
         id="stop572" />
    </linearGradient>
    <linearGradient
       id="linearGradient563">
      <stop
         style="stop-color:#d9cce6;stop-opacity:1;"
         offset="0"
         id="stop564" />
      <stop
         style="stop-color:#73667f;stop-opacity:1;"
         offset="1"
         id="stop565" />
    </linearGradient>
    <linearGradient
       x1="0.00000000"
       y1="-0.00000000"
       x2="0.99218744"
       y2="0.98437500"
       id="linearGradient566"
       xlink:href="#linearGradient563" />
    <linearGradient
       x1="0.00000000"
       y1="0.00000000"
       x2="0.97826087"
       y2="0.98437500"
       id="linearGradient569"
       xlink:href="#linearGradient563" />
    <linearGradient
       id="linearGradient573"
       xlink:href="#linearGradient570"
       x1="-0.00000000"
       y1="0.00000000"
       x2="1.01428568"
       y2="1.00000000" />
    <linearGradient
       x1="0.00000000"
       y1="0.00000000"
       x2="0.98837209"
       y2="1.00781250"
       id="linearGradient575"
       xlink:href="#linearGradient570" />
    <linearGradient
       id="linearGradient578"
       xlink:href="#linearGradient914"
       x1="1.0000000e-06"
       y1="0.023434000"
       x2="0.95238101"
       y2="0.97656202" />
    <radialGradient
       id="radialGradient614"
       xlink:href="#linearGradient570" />
    <linearGradient
       id="linearGradient620"
       xlink:href="#linearGradient570" />
    <sodipodi:namedview
       id="namedview2964"
       inkscape:zoom="4.94399999"
       inkscape:cx="24.4443710"
       inkscape:cy="24.9155162"
       inkscape:window-width="400"
       inkscape:window-height="500"
       inkscape:window-x="342"
       inkscape:window-y="300" />
    <defs
       id="defs599">
      <linearGradient
         id="linearGradient595"
         x1="0.0000000"
         y1="0.50000000"
         x2="1.0000000"
         y2="0.50000000"
         gradientUnits="objectBoundingBox"
         spreadMethod="pad"
         xlink:href="#linearGradient3531" />
      <linearGradient
         id="linearGradient590"
         x1="0.0000000"
         y1="0.50000000"
         x2="1.0000000"
         y2="0.50000000"
         gradientUnits="objectBoundingBox"
         spreadMethod="pad"
         xlink:href="#linearGradient3537" />
      <linearGradient
         id="linearGradient584"
         x1="0.0000000"
         y1="0.50000000"
         x2="1.0000000"
         y2="0.50000000"
         gradientUnits="objectBoundingBox"
         spreadMethod="pad"
         xlink:href="#linearGradient3528" />
      <linearGradient
         x1="0.01204819"
         y1="0.01562500"
         x2="0.98795182"
         y2="1.00000000"
         id="linearGradient587"
         xlink:href="#linearGradient584" />
      <linearGradient
         x1="0.011696"
         y1="0.000001"
         x2="0.842105"
         y2="0.906250"
         id="linearGradient589"
         xlink:href="#linearGradient590" />
      <linearGradient
         x1="0.99218750"
         y1="0.98437500"
         x2="0.01562500"
         y2="0.00781250"
         id="linearGradient594"
         xlink:href="#linearGradient595" />
      <linearGradient
         x1="0.000001"
         y1="0.023434"
         x2="0.952381"
         y2="0.976562"
         id="linearGradient599"
         xlink:href="#linearGradient590" />
      <linearGradient
         id="linearGradient601"
         xlink:href="#linearGradient595" />
    </defs>
    <sodipodi:namedview
       id="namedview598"
       pagecolor="#ffffff"
       bordercolor="#666666"
       borderopacity="1.0"
       inkscape:pageopacity="0.0"
       inkscape:pageshadow="2"
       inkscape:zoom="6.94653375"
       inkscape:cx="32.5246697"
       inkscape:cy="21.8121754"
       inkscape:window-width="640"
       inkscape:window-height="500"
       inkscape:window-x="178"
       inkscape:window-y="108" />
    <defs
       id="defs613">
      <linearGradient
         id="linearGradient881"
         x1="0.0000000"
         y1="0.50000000"
         x2="1.0000000"
         y2="0.50000000"
         gradientUnits="objectBoundingBox"
         spreadMethod="pad"
         xlink:href="#linearGradient3525" />
      <linearGradient
         id="linearGradient1535">
        <stop
           style="stop-color:#ffffff;stop-opacity:1;"
           offset="0"
           id="stop1537" />
        <stop
           style="stop-color:#ffffff;stop-opacity:0;"
           offset="1"
           id="stop1536" />
      </linearGradient>
      <linearGradient
         id="linearGradient1528">
        <stop
           style="stop-color:#a673f3;stop-opacity:1;"
           offset="0"
           id="stop1530" />
        <stop
           style="stop-color:#4c3f8c;stop-opacity:1;"
           offset="1"
           id="stop1529" />
      </linearGradient>
      <linearGradient
         id="linearGradient642"
         x1="0.0000000"
         y1="0.50000000"
         x2="1.0000000"
         y2="0.50000000"
         gradientUnits="objectBoundingBox"
         spreadMethod="pad"
         xlink:href="#linearGradient3534" />
      <linearGradient
         id="linearGradient635">
        <stop
           style="stop-color:#ffffff;stop-opacity:1;"
           offset="0.00000000"
           id="stop636" />
        <stop
           style="stop-color:#d9cce6;stop-opacity:1;"
           offset="1.00000000"
           id="stop637" />
      </linearGradient>
      <linearGradient
         x1="0.000000"
         y1="0.039063"
         x2="0.994475"
         y2="0.976562"
         id="linearGradient638"
         xlink:href="#linearGradient642" />
      <linearGradient
         x1="-0.020404"
         y1="0.023441"
         x2="1.000000"
         y2="1.015625"
         id="linearGradient641"
         xlink:href="#linearGradient642" />
      <linearGradient
         x1="-0.007752"
         y1="0.007813"
         x2="0.984496"
         y2="0.984375"
         id="linearGradient1522"
         xlink:href="#linearGradient635" />
      <linearGradient
         x1="0.023622"
         y1="0.023437"
         x2="1.000000"
         y2="0.992187"
         id="linearGradient1527"
         xlink:href="#linearGradient881" />
      <linearGradient
         x1="0.012903"
         y1="0.023437"
         x2="0.993548"
         y2="1.000000"
         id="linearGradient1532"
         xlink:href="#linearGradient642" />
      <linearGradient
         x1="0.003746"
         y1="0.023425"
         x2="0.996255"
         y2="0.992187"
         id="linearGradient1534"
         xlink:href="#linearGradient1535" />
      <linearGradient
         x1="0.024767"
         y1="0.031250"
         x2="0.983470"
         y2="1.000000"
         id="linearGradient1539"
         xlink:href="#linearGradient1535" />
      <linearGradient
         x1="0.010912"
         y1="0.009552"
         x2="1.003636"
         y2="0.980767"
         id="linearGradient1567"
         xlink:href="#linearGradient1535" />
    </defs>
    <radialGradient
       xlink:href="#linearGradient3525"
       id="radialGradient917"
       cx="0.23076925"
       cy="0.28125000"
       r="0.67854416"
       fx="0.23076928"
       fy="0.27343750" />
    <linearGradient
       xlink:href="#linearGradient570"
       id="linearGradient581"
       x1="-4.2717566e-16"
       y1="-2.6630716e-17"
       x2="0.98684210"
       y2="0.99218750" />
    <linearGradient
       xlink:href="#linearGradient570"
       id="linearGradient583"
       x1="0.023076920"
       y1="0.015625000"
       x2="0.99230766"
       y2="1.0078125" />
  </defs>
  <g
     transform="matrix(0.955388,0.000000,0.000000,0.955388,-7.272623,0.190406)"
     style="font-size:12;opacity:0.300759;"
     id="g621">
    <ellipse
       cx="33.55990219"
       cy="15.82329082"
       rx="11.42656231"
       ry="11.42656231"
       transform="translate(-1.079675,0.179946)"
       style="fill-rule:evenodd;stroke:#000000;stroke-width:1.875;"
       id="path618" />
    <path
       d="M 22.313287 26.889961 C 28.429738 30.095886 34.06975 30.428896 41.927386 27.78969 C 46.126123 32.588247 48.705347 35.227453 53.623867 39.306226 C 49.605076 37.266839 42.685031 32.285612 42.467223 36.786983 C 42.107332 44.404691 44.626574 51.842454 46.785924 59.280216 C 41.44753 54.121768 36.814399 52.455443 31.31058 52.262327 C 26.557485 52.095552 22.913106 55.381389 20.513828 59.640108 C 17.274803 49.923031 17.956317 24.478083 22.313287 26.889961 z "
       style="fill-rule:evenodd;stroke:#000000;stroke-width:1.875;"
       id="path619" />
  </g>
  <ellipse
     cx="33.55990219"
     cy="15.82329082"
     rx="11.42656231"
     ry="11.42656231"
     transform="matrix(0.955388,0.000000,0.000000,0.955388,-9.851394,-1.528773)"
     style="font-size:12;fill:url(#linearGradient566);fill-opacity:0.75;fill-rule:evenodd;stroke:#261933;stroke-width:1.875;"
     id="path613" />
  <path
     d="M 12.497951,23.989643 C 18.341533,27.052544 23.729930,27.370698 31.237018,24.849233 C 35.248439,29.433715 37.712598,31.955180 42.411691,35.851989 C 38.572188,33.903584 31.960863,29.144581 31.752772,33.445135 C 31.408936,40.722999 33.815789,47.828945 35.878805,54.934891 C 30.778569,50.006574 26.352134,48.414587 21.093853,48.230087 C 16.552805,48.070752 13.071011,51.210000 10.778771,55.278727 C 7.6842464,45.995153 8.3353564,21.685365 12.497951,23.989643 z "
     style="font-size:12;fill:url(#linearGradient569);fill-opacity:0.75;fill-rule:evenodd;stroke:#261933;stroke-width:1.79135;"
     id="path615" />
  <path
     d="M 20.750017,4.7348226 C 17.712799,5.5371069 15.191334,6.8551452 13.701378,10.236200 C 12.727176,13.330725 12.956399,16.081413 14.904804,19.004020 C 14.331743,16.253332 14.783885,12.973633 15.764395,10.580036 C 16.732289,8.2172329 17.884717,6.5686152 20.750017,4.7348226 z "
     style="font-size:12;fill:url(#linearGradient573);fill-opacity:0.75;fill-rule:evenodd;stroke-width:1pt;"
     id="path616" />
  <path
     d="M 11.818307,50.988805 C 9.8699031,42.736739 10.204282,25.748721 14.225160,26.920278 C 17.764706,28.102929 20.184986,28.467540 26.775177,28.123705 C 21.674942,31.619371 18.942164,29.612951 16.803931,30.014804 C 11.821546,31.351769 11.875613,43.997470 11.818307,50.988805 z "
     style="font-size:12;fill:url(#linearGradient575);fill-opacity:0.75;fill-rule:evenodd;stroke-width:1pt;"
     id="path617" />
  <path
     style="font-size:12.000000;opacity:0.29999998;fill-rule:evenodd;stroke-width:2.0736699;"
     d="M 54.950835,47.492378 C 54.950835,54.213920 49.495671,59.669083 42.774127,59.669083 C 36.052586,59.669083 30.597422,54.213920 30.597422,47.492378 C 30.597422,40.770837 36.052586,35.315673 42.774127,35.315673 C 49.495671,35.315673 54.950835,40.770837 54.950835,47.492378 z "
     id="path952" />
  <path
     style="font-size:12.000000;fill:url(#radialGradient917);fill-rule:evenodd;stroke:#330000;stroke-width:0.87012053;"
     d="M 53.424212,46.874463 C 53.424212,52.933884 48.506422,57.851676 42.446999,57.851676 C 36.387575,57.851676 31.469785,52.933884 31.469785,46.874463 C 31.469785,40.815040 36.387575,35.897248 42.446999,35.897248 C 48.506422,35.897248 53.424212,40.815040 53.424212,46.874463 z "
     id="path951" />
  <path
     style="opacity:0.80000001;fill:url(#linearGradient581);fill-rule:evenodd;stroke-width:1.0000000pt;"
     d="M 33.581902,51.669782 C 33.017289,50.837668 30.148233,42.930721 37.077398,38.304648 C 43.046509,34.216721 49.467065,39.220905 50.134106,40.669249 C 50.304278,41.064958 44.612278,36.456893 38.516721,40.669249 C 31.734939,45.436224 33.805488,52.037103 33.581902,51.669782 z "
     id="path3522"
     sodipodi:nodetypes="cssss" />
  <path
     style="font-size:12.000000;fill:url(#linearGradient578);fill-rule:evenodd;stroke:#261933;stroke-width:0.87012249;"
     d="M 35.488318,46.351073 C 39.300365,45.758156 45.708576,45.670055 49.538434,46.351073 C 50.394557,46.514983 50.402010,48.435205 49.538434,48.567779 C 45.651789,49.112196 39.243606,49.214542 35.488318,48.641669 C 34.617004,48.462958 34.616993,46.534367 35.488318,46.351073 z "
     id="path657"
     sodipodi:nodetypes="cssss" />
  <path
     style="fill:url(#linearGradient583);fill-rule:evenodd;stroke-width:1.0000000pt;"
     d="M 35.508777,47.849354 C 35.434148,47.770857 35.359561,46.966585 35.679091,46.908886 C 40.161363,46.047224 48.839538,46.681453 48.906744,46.752138 C 48.972004,46.820781 40.222993,46.669157 36.076487,47.326869 C 35.815995,47.364907 35.566614,47.910185 35.508777,47.849354 z "
     id="path658"
     sodipodi:nodetypes="cssss" />
</svg>
