<?xml version="1.0" encoding="UTF-8" standalone="no"?>
<!DOCTYPE svg PUBLIC "-//W3C//DTD SVG 20010904//EN"
"http://www.w3.org/TR/2001/REC-SVG-20010904/DTD/svg10.dtd">
<!-- Created with Inkscape (http://www.inkscape.org/) -->
<svg
   id="svg1"
   sodipodi:version="0.32"
   inkscape:version="0.39"
   width="48pt"
   height="48pt"
   sodipodi:docbase="/home/scaba/files/pre-release/lila-gnome"
   sodipodi:docname="gaim-text-bigger.svg"
   xmlns="http://www.w3.org/2000/svg"
   xmlns:cc="http://web.resource.org/cc/"
   xmlns:inkscape="http://www.inkscape.org/namespaces/inkscape"
   xmlns:sodipodi="http://sodipodi.sourceforge.net/DTD/sodipodi-0.dtd"
   xmlns:rdf="http://www.w3.org/1999/02/22-rdf-syntax-ns#"
   xmlns:dc="http://purl.org/dc/elements/1.1/"
   xmlns:xlink="http://www.w3.org/1999/xlink">
  <defs
     id="defs3">
    <linearGradient
       xlink:href="#linearGradient584"
       id="linearGradient654"
       x1="-0.00000000"
       y1="-0.00000000"
       x2="0.96341461"
       y2="0.99218750" />
    <linearGradient
       xlink:href="#linearGradient584"
       id="linearGradient655"
       x1="-0.00000000"
       y1="-0.00000000"
       x2="0.98148149"
       y2="0.95312500" />
    <linearGradient
       xlink:href="#linearGradient584"
       id="linearGradient713"
       x1="-0.00000000"
       y1="-0.00000000"
       x2="0.95454544"
       y2="0.99218750" />
    <linearGradient
       xlink:href="#linearGradient584"
       id="linearGradient1245"
       x1="0.00000000"
       y1="0.00000000"
       x2="0.97692305"
       y2="0.99218750" />
    <linearGradient
       id="linearGradient599">
      <stop
         style="stop-color:#ffffff;stop-opacity:1;"
         offset="0.00000000"
         id="stop600" />
      <stop
         style="stop-color:#d9cce6;stop-opacity:1;"
         offset="1.00000000"
         id="stop601" />
    </linearGradient>
    <linearGradient
       id="linearGradient584">
      <stop
         style="stop-color:#ffffff;stop-opacity:1;"
         offset="0.00000000"
         id="stop585" />
      <stop
         style="stop-color:#ffffff;stop-opacity:0;"
         offset="1.00000000"
         id="stop586" />
    </linearGradient>
    <linearGradient
       id="linearGradient578">
      <stop
         style="stop-color:#d9cce6;stop-opacity:1;"
         offset="0.00000000"
         id="stop579" />
      <stop
         style="stop-color:#73667f;stop-opacity:1;"
         offset="1.00000000"
         id="stop580" />
    </linearGradient>
    <linearGradient
       xlink:href="#linearGradient599"
       id="linearGradient581"
       x1="0.00000000"
       y1="-0.00000000"
       x2="0.98888886"
       y2="0.98437500" />
    <linearGradient
       xlink:href="#linearGradient599"
       id="linearGradient583"
       x1="-0.00000000"
       y1="0.00000000"
       x2="0.97500002"
       y2="0.98437500" />
    <linearGradient
       xlink:href="#linearGradient599"
       id="linearGradient860"
       x1="0.00000000"
       y1="0.00000000"
       x2="0.98905110"
       y2="0.97457629" />
    <linearGradient
       xlink:href="#linearGradient578"
       id="linearGradient861"
       x1="0.00000000"
       y1="-0.00000000"
       x2="0.98888886"
       y2="0.98437500" />
    <linearGradient
       xlink:href="#linearGradient584"
       id="linearGradient862"
       x1="-0.08500000"
       y1="-0.13281250"
       x2="0.99500000"
       y2="0.96875000" />
    <radialGradient
       xlink:href="#linearGradient599"
       id="radialGradient595" />
    <radialGradient
       xlink:href="#linearGradient578"
       id="radialGradient670"
       cx="0.47656250"
       cy="0.48437500"
       r="0.51939911"
       fx="0.47656250"
       fy="0.48437500" />
  </defs>
  <sodipodi:namedview
     id="base"
     pagecolor="#ffffff"
     bordercolor="#666666"
     borderopacity="1.0"
     inkscape:pageopacity="0.0"
     inkscape:pageshadow="2"
     inkscape:zoom="8.0000000"
     inkscape:cx="15.280716"
     inkscape:cy="21.808838"
     inkscape:window-width="1022"
     inkscape:window-height="695"
     inkscape:window-x="0"
     inkscape:window-y="26" />
  <path
     style="opacity:0.29636899;fill:#000000;fill-opacity:1.0000000;fill-rule:evenodd;stroke:none;stroke-width:1.8750000;stroke-linecap:butt;stroke-linejoin:miter;stroke-opacity:1.0000000;"
     d="M 6.8912270,7.5721446 C 9.0920890,5.6692356 55.307017,5.6719486 57.219153,7.5721446 C 59.150618,9.3197966 58.482811,54.704608 56.703850,56.525928 C 55.205286,58.064262 8.7564440,58.510943 6.8912270,56.697695 C 4.8868590,54.577406 4.5043220,9.6593056 6.8912270,7.5721446 z "
     id="path712"
     sodipodi:nodetypes="cssss" />
  <metadata
     id="metadata1236">
    <rdf:RDF
       id="RDF1237">
      <cc:Work
         rdf:about=""
         id="Work1238">
        <dc:format
           id="format1239">image/svg+xml</dc:format>
        <dc:type
           id="type1241"
           rdf:resource="http://purl.org/dc/dcmitype/StillImage" />
      </cc:Work>
    </rdf:RDF>
  </metadata>
  <path
     style="font-size:12.000000;fill:url(#linearGradient581);fill-rule:evenodd;stroke:#261933;stroke-width:1.8750000;"
     d="M 5.6356269,6.4407710 C 7.7609889,4.6031406 52.390512,4.6057596 54.237052,6.4407710 C 56.102262,8.1284690 55.457362,51.956352 53.739422,53.715192 C 52.292262,55.200753 7.4368579,55.632110 5.6356269,53.881066 C 3.7000199,51.833513 3.3306049,8.4563310 5.6356269,6.4407710 z "
     id="path684"
     sodipodi:nodetypes="cssss" />
  <path
     style="fill:url(#linearGradient583);fill-opacity:1.0000000;fill-rule:evenodd;stroke:none;stroke-width:1.0000000pt;stroke-linecap:butt;stroke-linejoin:miter;stroke-opacity:1.0000000;"
     d="M 6.8160039,48.962562 C 6.0906689,48.237227 5.6301379,10.417069 7.1477539,7.8255240 C 8.4697259,5.7339450 49.717182,7.1015350 50.441172,7.8255240 C 51.099472,8.4838280 14.961054,8.5889120 11.294633,11.972402 C 7.1701659,15.612718 7.4729619,49.619520 6.8160039,48.962562 z "
     id="path691"
     sodipodi:nodetypes="cssss" />
  <path
     style="fill:#261933;fill-opacity:1.0000000;fill-rule:evenodd;stroke:none;stroke-width:1.0000000pt;stroke-linecap:butt;stroke-linejoin:miter;stroke-opacity:1.0000000;"
     d="M 35.176262,26.096096 L 27.680169,49.542199 L 35.068202,49.652140 L 36.605392,43.143639 L 40.588642,43.143639 L 41.356812,49.432259 L 49.294552,49.652140 L 42.784172,26.096096 L 35.176262,26.096096 z M 39.158002,31.138094 L 40.258252,39.845130 L 37.265882,39.845130 L 39.158002,31.138094 z "
     id="path690"
     sodipodi:nodetypes="ccccccccccccc" />
  <path
     style="fill:url(#linearGradient654);fill-opacity:1.0000000;fill-rule:evenodd;stroke:none;stroke-width:1.0000000pt;stroke-linecap:butt;stroke-linejoin:miter;stroke-opacity:1.0000000;"
     d="M 28.750017,48.218593 L 35.914562,26.945413 L 42.087092,26.945413 C 40.139802,27.606757 37.307792,27.222825 36.686122,28.268098 C 34.032842,32.804453 31.579093,41.568428 28.750017,48.218593 z "
     id="path692"
     sodipodi:nodetypes="cccsc" />
  <path
     style="fill:url(#linearGradient655);fill-opacity:1.0000000;fill-rule:evenodd;stroke:none;stroke-width:1.0000000pt;stroke-linecap:butt;stroke-linejoin:miter;stroke-opacity:1.0000000;"
     d="M 37.494682,40.502932 C 37.394862,40.419749 39.945682,40.628606 40.691172,40.282485 C 40.974432,40.150969 40.495532,38.998850 40.580942,39.070023 C 40.715982,39.182557 41.694122,40.674996 41.352512,40.833603 C 40.665372,41.152633 37.615312,40.603455 37.494682,40.502932 z "
     id="path693"
     sodipodi:nodetypes="cssss" />
  <g
     transform="matrix(0.418467,0.000000,0.000000,0.423364,5.920560,7.093894)"
     style="font-size:12.000000;opacity:0.29999998;stroke:#000000;"
     id="g1303">
    <ellipse
       cx="47.595680"
       cy="41.555550"
       rx="28.881311"
       ry="28.881311"
       transform="matrix(0.917566,0.000000,0.000000,0.917566,-11.48724,-5.833475)"
       style="fill-rule:evenodd;stroke-width:2.0541799;"
       id="ellipse1304"
       d="M 76.476992 41.555550 A 28.881311 28.881311 0 1 0 18.714369,41.555550 A 28.881311 28.881311 0 1 0 76.476992 41.555550 z"
       sodipodi:cx="47.595680"
       sodipodi:cy="41.555550"
       sodipodi:rx="28.881311"
       sodipodi:ry="28.881311" />
    <ellipse
       cx="42.107330"
       cy="34.267742"
       rx="21.773449"
       ry="21.773449"
       transform="matrix(0.934849,0.000000,0.000000,0.934849,-7.035911,0.205833)"
       style="fill-rule:evenodd;stroke-width:1.0000000pt;"
       id="ellipse1305"
       d="M 63.880779 34.267742 A 21.773449 21.773449 0 1 0 20.333881,34.267742 A 21.773449 21.773449 0 1 0 63.880779 34.267742 z"
       sodipodi:cx="42.107330"
       sodipodi:cy="34.267742"
       sodipodi:rx="21.773449"
       sodipodi:ry="21.773449" />
  </g>
  <ellipse
     cx="47.595680"
     cy="41.555550"
     rx="28.881311"
     ry="28.881311"
     transform="matrix(0.383971,0.000000,0.000000,0.388463,0.685540,3.902512)"
     style="font-size:12.000000;fill:url(#radialGradient670);fill-opacity:1.00000000;fill-rule:evenodd;stroke:#261933;stroke-width:2.0434501;"
     id="ellipse1306"
     d="M 76.476992 41.555550 A 28.881311 28.881311 0 1 0 18.714369,41.555550 A 28.881311 28.881311 0 1 0 76.476992 41.555550 z"
     sodipodi:cx="47.595680"
     sodipodi:cy="41.555550"
     sodipodi:rx="28.881311"
     sodipodi:ry="28.881311" />
  <path
     style="font-size:12.000000;fill:url(#linearGradient581);fill-rule:evenodd;stroke:#261933;stroke-width:0.61212528;"
     d="M 15.039894,28.609022 C 15.336370,29.160334 22.518079,28.955340 22.914795,28.609022 C 23.366731,28.197163 22.620206,21.493574 22.914795,20.945366 C 23.141429,20.469471 26.717880,21.410628 26.595456,20.945366 C 26.468091,20.512824 20.919232,11.631926 19.234136,11.589736 C 17.695111,11.608792 11.560676,20.337127 11.444831,20.945366 C 11.353327,21.481398 14.944493,20.620850 15.211089,21.044894 C 15.564348,21.578824 14.682320,28.014474 15.039894,28.609022 z "
     id="path1307"
     sodipodi:nodetypes="csssssss" />
</svg>
