<?xml version="1.0" encoding="UTF-8" standalone="no"?>
<!DOCTYPE svg PUBLIC "-//W3C//DTD SVG 20010904//EN"
"http://www.w3.org/TR/2001/REC-SVG-20010904/DTD/svg10.dtd">
<!-- Created with Inkscape (http://www.inkscape.org/) -->
<svg
   version="1.0"
   x="0"
   y="0"
   width="60"
   height="60"
   id="svg1"
   sodipodi:version="0.32"
   inkscape:version="0.39"
   sodipodi:docname="gaim-smiley.svg"
   sodipodi:docbase="/home/scaba/files/lila/lila-gnome/Lila/scalable/stock"
   xmlns="http://www.w3.org/2000/svg"
   xmlns:cc="http://web.resource.org/cc/"
   xmlns:inkscape="http://www.inkscape.org/namespaces/inkscape"
   xmlns:sodipodi="http://sodipodi.sourceforge.net/DTD/sodipodi-0.dtd"
   xmlns:rdf="http://www.w3.org/1999/02/22-rdf-syntax-ns#"
   xmlns:dc="http://purl.org/dc/elements/1.1/"
   xmlns:xlink="http://www.w3.org/1999/xlink">
  <sodipodi:namedview
     id="base"
     pagecolor="#ffffff"
     bordercolor="#666666"
     borderopacity="1.0"
     inkscape:pageopacity="0.0"
     inkscape:pageshadow="2"
     inkscape:zoom="7.9999999"
     inkscape:cx="28.128945"
     inkscape:cy="21.855484"
     inkscape:window-width="1019"
     inkscape:window-height="695"
     inkscape:window-x="3"
     inkscape:window-y="26" />
  <defs
     id="defs3">
    <linearGradient
       id="linearGradient826">
      <stop
         style="stop-color:#d9cce6;stop-opacity:1.0000000;"
         offset="0.0000000"
         id="stop827" />
      <stop
         style="stop-color:#73667f;stop-opacity:1.0000000;"
         offset="1.0000000"
         id="stop828" />
    </linearGradient>
    <radialGradient
       xlink:href="#linearGradient826"
       id="radialGradient830"
       cx="0.50000000"
       cy="0.50000000"
       r="0.50000000"
       fx="0.50000000"
       fy="0.50000000" />
    <linearGradient
       id="linearGradient1018">
      <stop
         offset="0.0000000"
         style="stop-color:#ffffff;stop-opacity:1.0000000;"
         id="stop1020" />
      <stop
         offset="1.0000000"
         style="stop-color:#ffffff;stop-opacity:0.0000000;"
         id="stop1019" />
    </linearGradient>
    <linearGradient
       id="linearGradient834">
      <stop
         style="stop-color:#d9cce6;stop-opacity:1.0000000;"
         offset="0.0000000"
         id="stop835" />
      <stop
         style="stop-color:#ffffff;stop-opacity:1.0000000;"
         offset="1.0000000"
         id="stop836" />
    </linearGradient>
    <linearGradient
       xlink:href="#linearGradient834"
       id="linearGradient829"
       x1="0.53125000"
       y1="0.98067635"
       x2="0.53125000"
       y2="-9.8346187e-05" />
    <linearGradient
       id="linearGradient570">
      <stop
         style="stop-color:#ffffff;stop-opacity:1;"
         offset="0"
         id="stop571" />
      <stop
         style="stop-color:#ffffff;stop-opacity:0;"
         offset="1"
         id="stop572" />
    </linearGradient>
    <linearGradient
       id="linearGradient563">
      <stop
         style="stop-color:#d9cce6;stop-opacity:1;"
         offset="0"
         id="stop564" />
      <stop
         style="stop-color:#73667f;stop-opacity:1;"
         offset="1"
         id="stop565" />
    </linearGradient>
    <linearGradient
       x1="0.00000000"
       y1="0.00000000"
       x2="0.98461539"
       y2="0.99218750"
       id="linearGradient566"
       xlink:href="#linearGradient563" />
    <linearGradient
       x1="0.97692311"
       y1="0.99218750"
       x2="0.01538463"
       y2="0.00781249"
       id="linearGradient569"
       xlink:href="#linearGradient570" />
    <linearGradient
       x1="0.00000000"
       y1="-0.00000000"
       x2="0.99285716"
       y2="0.97656250"
       id="linearGradient573"
       xlink:href="#linearGradient570" />
    <linearGradient
       x1="0.00000000"
       y1="-0.00000000"
       x2="0.97826087"
       y2="0.99218750"
       id="linearGradient575"
       xlink:href="#linearGradient570" />
    <linearGradient
       x1="0.00000000"
       y1="0.00000000"
       x2="1.00000000"
       y2="0.00000000"
       id="linearGradient578"
       xlink:href="#linearGradient563" />
  </defs>
  <g
     transform="matrix(1.000880,0.000000,0.000000,1.000880,-1.132756,-0.459196)"
     style="font-size:12.000000;opacity:0.29999998;stroke:#000000;"
     id="g982">
    <ellipse
       cx="47.595680"
       cy="41.555550"
       rx="28.881311"
       ry="28.881311"
       transform="matrix(0.917566,0.000000,0.000000,0.917566,-11.48724,-5.833475)"
       style="fill-rule:evenodd;stroke-width:2.0541799;"
       id="ellipse983"
       d="M 76.476992 41.555550 A 28.881311 28.881311 0 1 0 18.714369,41.555550 A 28.881311 28.881311 0 1 0 76.476992 41.555550 z"
       sodipodi:cx="47.595680"
       sodipodi:cy="41.555550"
       sodipodi:rx="28.881311"
       sodipodi:ry="28.881311" />
    <ellipse
       cx="42.107330"
       cy="34.267742"
       rx="21.773449"
       ry="21.773449"
       transform="matrix(0.934849,0.000000,0.000000,0.934849,-7.035911,0.205833)"
       style="fill-rule:evenodd;stroke-width:1.0000000pt;"
       id="ellipse984"
       d="M 63.880779 34.267742 A 21.773449 21.773449 0 1 0 20.333881,34.267742 A 21.773449 21.773449 0 1 0 63.880779 34.267742 z"
       sodipodi:cx="42.107330"
       sodipodi:cy="34.267742"
       sodipodi:rx="21.773449"
       sodipodi:ry="21.773449" />
  </g>
  <ellipse
     cx="47.595680"
     cy="41.555550"
     rx="28.881311"
     ry="28.881311"
     transform="matrix(0.918374,0.000000,0.000000,0.918374,-13.65380,-8.003973)"
     style="font-size:12.000000;fill:url(#linearGradient566);fill-opacity:1.00000000;fill-rule:evenodd;stroke:#261933;stroke-width:2.0541799;"
     id="ellipse985"
     d="M 76.476992 41.555550 A 28.881311 28.881311 0 1 0 18.714369,41.555550 A 28.881311 28.881311 0 1 0 76.476992 41.555550 z"
     sodipodi:cx="47.595680"
     sodipodi:cy="41.555550"
     sodipodi:rx="28.881311"
     sodipodi:ry="28.881311" />
  <path
     sodipodi:type="arc"
     style="fill:url(#radialGradient830);fill-rule:evenodd;stroke-width:1.8750000;"
     id="path986"
     sodipodi:cx="30.937500"
     sodipodi:cy="30.000000"
     sodipodi:rx="21.250000"
     sodipodi:ry="21.250000"
     d="M 52.187500 30.000000 A 21.250000 21.250000 0 1 0 9.6875000,30.000000 A 21.250000 21.250000 0 1 0 52.187500 30.000000 z"
     transform="matrix(1.208787,0.000000,0.000000,1.208787,-7.344576,-6.139420)" />
  <path
     d="M 51.202097,37.673031 C 49.893254,40.814254 47.582233,44.177203 45.104427,46.496173 C 42.778011,48.673462 40.053832,50.083946 36.974204,51.208009 C 40.392592,51.084826 44.276850,49.941688 46.675038,47.697231 C 49.081081,45.445431 51.017323,41.491773 51.202097,37.673031 z "
     style="font-size:12.000000;fill:url(#linearGradient575);fill-opacity:1.00000000;fill-rule:evenodd;stroke-width:1.0000000pt;"
     id="path987" />
  <path
     sodipodi:type="arc"
     style="fill:#d9cce6;fill-opacity:1.0000000;fill-rule:evenodd;stroke:#261933;stroke-width:1.0000000pt;"
     id="path1839"
     sodipodi:cx="19.687500"
     sodipodi:cy="23.750000"
     sodipodi:rx="2.1875000"
     sodipodi:ry="4.3750000"
     d="M 21.875000 23.750000 A 2.1875000 4.3750000 0 1 0 17.500000,23.750000 A 2.1875000 4.3750000 0 1 0 21.875000 23.750000 z"
     transform="matrix(1.628602,0.000000,0.000000,1.628539,-12.84685,-17.74358)" />
  <path
     d="M 7.3980586,32.067521 C 7.5876310,25.204961 10.734300,17.128881 15.132661,12.844765 C 19.492600,8.5980735 27.720345,6.7784136 35.379112,7.4987922 C 29.009440,9.6409737 22.120307,12.061884 17.521287,16.541449 C 13.362009,20.592692 9.3317104,26.361354 7.3980586,32.067521 z "
     style="font-size:12.000000;fill:url(#linearGradient573);fill-opacity:1.00000000;fill-rule:evenodd;stroke-width:1.0000000pt;"
     id="path989" />
  <path
     sodipodi:type="arc"
     style="fill:#d9cce6;fill-opacity:1.0000000;fill-rule:evenodd;stroke:#261933;stroke-width:1.0000000pt;"
     id="path1840"
     sodipodi:cx="19.687500"
     sodipodi:cy="23.750000"
     sodipodi:rx="2.1875000"
     sodipodi:ry="4.3750000"
     d="M 21.875000 23.750000 A 2.1875000 4.3750000 0 1 0 17.500000,23.750000 A 2.1875000 4.3750000 0 1 0 21.875000 23.750000 z"
     transform="matrix(1.628602,0.000000,0.000000,1.628539,7.982027,-17.72860)" />
  <path
     style="fill:#d9cce6;fill-rule:evenodd;stroke:#261933;stroke-width:1.9540721;stroke-linejoin:round;"
     d="M 30.015742,47.613126 C 21.912842,47.613126 14.774062,36.506820 17.716569,36.506820 C 20.659076,36.506820 22.967903,37.847874 29.789570,37.847874 C 36.330654,37.847874 39.832537,36.506820 42.189865,36.506820 C 44.547190,36.506820 38.246199,47.613126 30.015742,47.613126 z "
     id="path991"
     sodipodi:nodetypes="czzzz" />
  <metadata
     id="metadata967">
    <rdf:RDF
       id="RDF968">
      <cc:Work
         rdf:about=""
         id="Work969">
        <dc:format
           id="format970">image/svg+xml</dc:format>
        <dc:type
           id="type972"
           rdf:resource="http://purl.org/dc/dcmitype/StillImage" />
      </cc:Work>
    </rdf:RDF>
  </metadata>
</svg>
