<?xml version="1.0" encoding="UTF-8" standalone="no"?>
<!DOCTYPE svg PUBLIC "-//W3C//DTD SVG 20010904//EN"
"http://www.w3.org/TR/2001/REC-SVG-20010904/DTD/svg10.dtd">
<!-- Created with Inkscape (http://www.inkscape.org/) -->
<svg
   version="1.0"
   x="0"
   y="0"
   width="60"
   height="60"
   id="svg1"
   sodipodi:version="0.32"
   inkscape:version="0.38.1"
   sodipodi:docname="gaim-dialog-info.svg"
   sodipodi:docbase="/home/scaba/files/lila-artwork/devel/lila-gnome-0.5.1_pre1"
   xmlns="http://www.w3.org/2000/svg"
   xmlns:inkscape="http://www.inkscape.org/namespaces/inkscape"
   xmlns:sodipodi="http://sodipodi.sourceforge.net/DTD/sodipodi-0.dtd"
   xmlns:xlink="http://www.w3.org/1999/xlink">
  <sodipodi:namedview
     id="base"
     pagecolor="#ffffff"
     bordercolor="#666666"
     borderopacity="1.0"
     inkscape:pageopacity="0.0"
     inkscape:pageshadow="2"
     inkscape:zoom="5.6568543"
     inkscape:cx="37.136631"
     inkscape:cy="29.638273"
     inkscape:window-width="899"
     inkscape:window-height="628"
     inkscape:window-x="110"
     inkscape:window-y="33" />
  <defs
     id="defs3">
    <linearGradient
       id="linearGradient570">
      <stop
         style="stop-color:#ffffff;stop-opacity:1;"
         offset="0"
         id="stop571" />
      <stop
         style="stop-color:#ffffff;stop-opacity:0;"
         offset="1"
         id="stop572" />
    </linearGradient>
    <linearGradient
       id="linearGradient563">
      <stop
         style="stop-color:#d9cce6;stop-opacity:1;"
         offset="0"
         id="stop564" />
      <stop
         style="stop-color:#73667f;stop-opacity:1;"
         offset="1"
         id="stop565" />
    </linearGradient>
    <linearGradient
       x1="0.00000000"
       y1="-0.00000000"
       x2="0.99218744"
       y2="0.98437500"
       id="linearGradient566"
       xlink:href="#linearGradient563" />
    <linearGradient
       x1="0.00000000"
       y1="0.00000000"
       x2="0.97826087"
       y2="0.98437500"
       id="linearGradient569"
       xlink:href="#linearGradient563" />
    <linearGradient
       id="linearGradient573"
       xlink:href="#linearGradient570"
       x1="-0.00000000"
       y1="0.00000000"
       x2="1.01428568"
       y2="1.00000000" />
    <linearGradient
       x1="0.00000000"
       y1="0.00000000"
       x2="0.98837209"
       y2="1.00781250"
       id="linearGradient575"
       xlink:href="#linearGradient570" />
    <linearGradient
       id="linearGradient578"
       xlink:href="#linearGradient570" />
    <radialGradient
       id="radialGradient614"
       xlink:href="#linearGradient570" />
    <linearGradient
       id="linearGradient620"
       xlink:href="#linearGradient570" />
    <sodipodi:namedview
       id="namedview2964"
       inkscape:zoom="4.94399999"
       inkscape:cx="24.4443710"
       inkscape:cy="24.9155162"
       inkscape:window-width="400"
       inkscape:window-height="500"
       inkscape:window-x="342"
       inkscape:window-y="300" />
    <defs
       id="defs599">
      <linearGradient
         id="linearGradient595">
        <stop
           style="stop-color:#7f7f7f;stop-opacity:1;"
           offset="0"
           id="stop596" />
        <stop
           style="stop-color:#e6e6e6;stop-opacity:1;"
           offset="1"
           id="stop597" />
      </linearGradient>
      <linearGradient
         id="linearGradient590">
        <stop
           style="stop-color:#ffffff;stop-opacity:1;"
           offset="0"
           id="stop591" />
        <stop
           style="stop-color:#ffffff;stop-opacity:0;"
           offset="1"
           id="stop592" />
      </linearGradient>
      <linearGradient
         id="linearGradient584">
        <stop
           style="stop-color:#d9cce6;stop-opacity:1;"
           offset="0.00000000"
           id="stop585" />
        <stop
           style="stop-color:#73667f;stop-opacity:1;"
           offset="1.00000000"
           id="stop586" />
      </linearGradient>
      <linearGradient
         x1="0.01204819"
         y1="0.01562500"
         x2="0.98795182"
         y2="1.00000000"
         id="linearGradient587"
         xlink:href="#linearGradient584" />
      <linearGradient
         x1="0.011696"
         y1="0.000001"
         x2="0.842105"
         y2="0.906250"
         id="linearGradient589"
         xlink:href="#linearGradient590" />
      <linearGradient
         x1="0.99218750"
         y1="0.98437500"
         x2="0.01562500"
         y2="0.00781250"
         id="linearGradient594"
         xlink:href="#linearGradient595" />
      <linearGradient
         x1="0.000001"
         y1="0.023434"
         x2="0.952381"
         y2="0.976562"
         id="linearGradient599"
         xlink:href="#linearGradient590" />
      <linearGradient
         id="linearGradient601"
         xlink:href="#linearGradient595" />
    </defs>
    <sodipodi:namedview
       id="namedview598"
       pagecolor="#ffffff"
       bordercolor="#666666"
       borderopacity="1.0"
       inkscape:pageopacity="0.0"
       inkscape:pageshadow="2"
       inkscape:zoom="6.94653375"
       inkscape:cx="32.5246697"
       inkscape:cy="21.8121754"
       inkscape:window-width="640"
       inkscape:window-height="500"
       inkscape:window-x="178"
       inkscape:window-y="108" />
    <defs
       id="defs613">
      <linearGradient
         id="linearGradient881">
        <stop
           style="stop-color:#f50000;stop-opacity:1;"
           offset="0.00000000"
           id="stop882" />
        <stop
           style="stop-color:#a80000;stop-opacity:1;"
           offset="1.00000000"
           id="stop883" />
      </linearGradient>
      <linearGradient
         id="linearGradient1535">
        <stop
           style="stop-color:#ffffff;stop-opacity:1;"
           offset="0"
           id="stop1537" />
        <stop
           style="stop-color:#ffffff;stop-opacity:0;"
           offset="1"
           id="stop1536" />
      </linearGradient>
      <linearGradient
         id="linearGradient1528">
        <stop
           style="stop-color:#a673f3;stop-opacity:1;"
           offset="0"
           id="stop1530" />
        <stop
           style="stop-color:#4c3f8c;stop-opacity:1;"
           offset="1"
           id="stop1529" />
      </linearGradient>
      <linearGradient
         id="linearGradient642">
        <stop
           style="stop-color:#ffffff;stop-opacity:1;"
           offset="0"
           id="stop643" />
        <stop
           style="stop-color:#ffffff;stop-opacity:0;"
           offset="1"
           id="stop644" />
      </linearGradient>
      <linearGradient
         id="linearGradient635">
        <stop
           style="stop-color:#ffffff;stop-opacity:1;"
           offset="0.00000000"
           id="stop636" />
        <stop
           style="stop-color:#d9cce6;stop-opacity:1;"
           offset="1.00000000"
           id="stop637" />
      </linearGradient>
      <linearGradient
         x1="0.000000"
         y1="0.039063"
         x2="0.994475"
         y2="0.976562"
         id="linearGradient638"
         xlink:href="#linearGradient642" />
      <linearGradient
         x1="-0.020404"
         y1="0.023441"
         x2="1.000000"
         y2="1.015625"
         id="linearGradient641"
         xlink:href="#linearGradient642" />
      <linearGradient
         x1="-0.007752"
         y1="0.007813"
         x2="0.984496"
         y2="0.984375"
         id="linearGradient1522"
         xlink:href="#linearGradient635" />
      <linearGradient
         x1="0.023622"
         y1="0.023437"
         x2="1.000000"
         y2="0.992187"
         id="linearGradient1527"
         xlink:href="#linearGradient881" />
      <linearGradient
         x1="0.012903"
         y1="0.023437"
         x2="0.993548"
         y2="1.000000"
         id="linearGradient1532"
         xlink:href="#linearGradient642" />
      <linearGradient
         x1="0.003746"
         y1="0.023425"
         x2="0.996255"
         y2="0.992187"
         id="linearGradient1534"
         xlink:href="#linearGradient1535" />
      <linearGradient
         x1="0.024767"
         y1="0.031250"
         x2="0.983470"
         y2="1.000000"
         id="linearGradient1539"
         xlink:href="#linearGradient1535" />
      <linearGradient
         x1="0.010912"
         y1="0.009552"
         x2="1.003636"
         y2="0.980767"
         id="linearGradient1567"
         xlink:href="#linearGradient1535" />
    </defs>
  </defs>
  <g
     transform="matrix(0.955388,0.000000,0.000000,0.955388,-7.272623,0.190406)"
     style="font-size:12;opacity:0.300759;"
     id="g621">
    <ellipse
       cx="33.55990219"
       cy="15.82329082"
       rx="11.42656231"
       ry="11.42656231"
       transform="translate(-1.079675,0.179946)"
       style="fill-rule:evenodd;stroke:#000000;stroke-width:1.875;"
       id="path618" />
    <path
       d="M 22.313287 26.889961 C 28.429738 30.095886 34.06975 30.428896 41.927386 27.78969 C 46.126123 32.588247 48.705347 35.227453 53.623867 39.306226 C 49.605076 37.266839 42.685031 32.285612 42.467223 36.786983 C 42.107332 44.404691 44.626574 51.842454 46.785924 59.280216 C 41.44753 54.121768 36.814399 52.455443 31.31058 52.262327 C 26.557485 52.095552 22.913106 55.381389 20.513828 59.640108 C 17.274803 49.923031 17.956317 24.478083 22.313287 26.889961 z "
       style="fill-rule:evenodd;stroke:#000000;stroke-width:1.875;"
       id="path619" />
  </g>
  <ellipse
     cx="33.55990219"
     cy="15.82329082"
     rx="11.42656231"
     ry="11.42656231"
     transform="matrix(0.955388,0.000000,0.000000,0.955388,-9.851394,-1.528773)"
     style="font-size:12;fill:url(#linearGradient566);fill-opacity:0.75;fill-rule:evenodd;stroke:#261933;stroke-width:1.875;"
     id="path613" />
  <path
     d="M 12.497951,23.989643 C 18.341533,27.052544 23.729930,27.370698 31.237018,24.849233 C 35.248439,29.433715 37.712598,31.955180 42.411691,35.851989 C 38.572188,33.903584 31.960863,29.144581 31.752772,33.445135 C 31.408936,40.722999 33.815789,47.828945 35.878805,54.934891 C 30.778569,50.006574 26.352134,48.414587 21.093853,48.230087 C 16.552805,48.070752 13.071011,51.210000 10.778771,55.278727 C 7.6842464,45.995153 8.3353564,21.685365 12.497951,23.989643 z "
     style="font-size:12;fill:url(#linearGradient569);fill-opacity:0.75;fill-rule:evenodd;stroke:#261933;stroke-width:1.79135;"
     id="path615" />
  <path
     d="M 20.750017,4.7348226 C 17.712799,5.5371069 15.191334,6.8551452 13.701378,10.236200 C 12.727176,13.330725 12.956399,16.081413 14.904804,19.004020 C 14.331743,16.253332 14.783885,12.973633 15.764395,10.580036 C 16.732289,8.2172329 17.884717,6.5686152 20.750017,4.7348226 z "
     style="font-size:12;fill:url(#linearGradient573);fill-opacity:0.75;fill-rule:evenodd;stroke-width:1pt;"
     id="path616" />
  <path
     d="M 11.818307,50.988805 C 9.8699031,42.736739 10.204282,25.748721 14.225160,26.920278 C 17.764706,28.102929 20.184986,28.467540 26.775177,28.123705 C 21.674942,31.619371 18.942164,29.612951 16.803931,30.014804 C 11.821546,31.351769 11.875613,43.997470 11.818307,50.988805 z "
     style="font-size:12;fill:url(#linearGradient575);fill-opacity:0.75;fill-rule:evenodd;stroke-width:1pt;"
     id="path617" />
  <path
     d="M 423.169 545.928 C 427.801 566.877 533.116 597.329 558.217 572.828 C 583.963 547.665 558.205 423.372 539.395 415.552 C 522.785 408.647 418.648 525.489 423.169 545.928 z "
     style="fill:none;fill-rule:evenodd;stroke:#000000;stroke-width:12.500000;"
     id="path929"
     transform="matrix(4.404863e-2,0.000000,0.000000,4.145689e-2,28.12457,32.91845)" />
  <path
     d="M 219.104 545.928 C 214.472 566.877 109.158 597.329 84.0561 572.828 C 58.3103 547.665 84.0684 423.372 102.879 415.552 C 119.488 408.647 223.625 525.489 219.104 545.928 z "
     style="fill:none;fill-rule:evenodd;stroke:#000000;stroke-width:12.500000;"
     id="path930"
     transform="matrix(4.404863e-2,0.000000,0.000000,4.145689e-2,28.12457,32.91845)" />
  <path
     d="M 423.169 101.445 C 427.801 80.4962 533.116 50.0438 558.217 74.5451 C 583.963 99.7084 558.205 224.001 539.395 231.821 C 522.785 238.726 418.648 121.884 423.169 101.445 z "
     style="fill:none;fill-rule:evenodd;stroke:#000000;stroke-width:12.500000;"
     id="path931"
     transform="matrix(4.404863e-2,0.000000,0.000000,4.145689e-2,28.12457,32.91845)" />
  <path
     d="M 219.104 101.445 C 214.472 80.4962 109.158 50.0438 84.0561 74.5451 C 58.3103 99.7084 84.0684 224.001 102.879 231.821 C 119.488 238.726 223.625 121.884 219.104 101.445 z "
     style="fill:none;fill-rule:evenodd;stroke:#000000;stroke-width:12.500000;"
     id="path932"
     transform="matrix(4.404863e-2,0.000000,0.000000,4.145689e-2,28.12457,32.91845)" />
  <path
     d="M 40.333346 52.190599 C 40.797442 54.289551 51.349309 57.340638 53.864267 54.885803 C 56.443843 52.364637 53.863061 39.911302 51.978429 39.127785 C 50.31421 38.435952 39.880378 50.142749 40.333346 52.190599 z "
     style="font-size:12.000000;fill:none;fill-rule:evenodd;stroke:#261933;stroke-width:1.8786300;"
     id="path927"
     transform="matrix(0.436367,0.000000,0.000000,0.410692,28.69055,33.63042)" />
  <path
     d="M 19.887384 52.190599 C 19.423288 54.289551 8.8715118 57.340638 6.3564875 54.885803 C 3.7769281 52.364637 6.3577194 39.911302 8.2423674 39.127785 C 9.9065188 38.435952 20.340358 50.142749 19.887384 52.190599 z "
     style="font-size:12.000000;fill:none;fill-rule:evenodd;stroke:#261933;stroke-width:1.8786300;"
     id="path928"
     transform="matrix(0.436367,0.000000,0.000000,0.410692,28.69055,33.63042)" />
  <path
     d="M 40.333346 7.6563706 C 40.797442 5.5574193 51.349309 2.5062901 53.864267 4.9611583 C 56.443843 7.482355 53.863061 19.935642 51.978429 20.719154 C 50.31421 21.410989 39.880378 9.7041933 40.333346 7.6563706 z "
     style="font-size:12.000000;fill:none;fill-rule:evenodd;stroke:#261933;stroke-width:1.8786300;"
     id="path926"
     transform="matrix(0.436367,0.000000,0.000000,0.410692,28.69055,33.63042)" />
  <path
     d="M 19.887384 7.6563706 C 19.423288 5.5574193 8.8715118 2.5062901 6.3564875 4.9611583 C 3.7769281 7.482355 6.3577194 19.935642 8.2423674 20.719154 C 9.9065188 21.410989 20.340358 9.7041933 19.887384 7.6563706 z "
     style="font-size:12.000000;fill:none;fill-rule:evenodd;stroke:#261933;stroke-width:1.8786300;"
     id="path922"
     transform="matrix(0.436367,0.000000,0.000000,0.410692,28.69055,33.63042)" />
  <path
     d="M 44.063735 33.189379 C 44.063735 40.044415 38.500195 45.607946 31.645167 45.607946 C 24.790036 45.607946 19.226598 40.044415 19.226598 33.189379 C 19.226598 26.334447 24.790036 20.770809 31.645167 20.770809 C 38.500195 20.770809 44.063735 26.334447 44.063735 33.189379 z M 55.942364 33.009431 C 55.942364 46.520808 44.976597 57.486475 31.46502 57.486475 C 17.953841 57.486475 6.9878229 46.520808 6.9878229 33.009431 C 6.9878229 19.497953 17.953841 8.5321869 31.46502 8.5321869 C 44.976597 8.5321869 55.942364 19.497953 55.942364 33.009431 z "
     style="font-size:12.000000;opacity:0.30267498;fill-rule:evenodd;stroke-width:12.500000;"
     id="path879"
     transform="matrix(0.436367,0.000000,0.000000,0.410692,28.69055,33.63042)" />
  <path
     d="M 42.547418 30.094249 C 42.547418 36.949282 36.983887 42.512817 30.128852 42.512817 C 23.273721 42.512817 17.710282 36.949282 17.710282 30.094249 C 17.710282 23.239319 23.273721 17.675679 30.128852 17.675679 C 36.983887 17.675679 42.547418 23.239319 42.547418 30.094249 z M 54.426048 29.914301 C 54.426048 43.425678 43.460287 54.391346 29.948704 54.391346 C 16.437526 54.391346 5.4715094 43.425678 5.4715094 29.914301 C 5.4715094 16.402822 16.437526 5.4371367 29.948704 5.4371367 C 43.460287 5.4371367 54.426048 16.402822 54.426048 29.914301 z "
     style="font-size:12.000000;fill:url(#linearGradient1522);fill-rule:evenodd;stroke:#261933;stroke-width:1.8763200;"
     id="path876"
     transform="matrix(0.436367,0.000000,0.000000,0.410692,28.69055,33.63042)" />
  <path
     d="M 29.132929 43.988666 C 28.813113 43.636886 36.836498 45.233373 40.759573 40.725071 C 44.954671 36.142423 44.319642 30.383108 44.635151 30.730176 C 44.999555 31.13095 44.543575 39.929436 41.983433 42.152923 C 38.186705 45.47704 29.493024 44.38473 29.132929 43.988666 z "
     style="font-size:12.000000;opacity:0.69999999;fill:url(#linearGradient641);fill-rule:evenodd;stroke:#ffffff;stroke-width:0.10019300pt;"
     id="path878"
     transform="matrix(0.436367,0.000000,0.000000,0.410692,28.69055,33.63042)" />
  <path
     d="M 19.105575 24.056095 C 16.27451 23.953498 8.9996689 20.12671 8.8881838 17.879573 C 11.538169 13.638487 13.211799 11.722991 17.353193 9.1085443 C 19.561956 9.1885982 23.640628 16.235099 23.784705 19.137 C 21.210238 20.992482 20.49726 21.743631 19.105575 24.056095 z "
     style="font-size:12.000000;fill:url(#linearGradient1527);fill-rule:evenodd;stroke:#330000;stroke-width:1.8786300;"
     id="path880"
     transform="matrix(0.436367,0.000000,0.000000,0.410692,28.69055,33.63042)" />
  <path
     d="M 7.3073122 33.177902 C 6.441912 30.137533 8.0233344 16.730155 18.73005 10.128511 C 27.099004 4.8902114 41.535066 8.9525422 43.003299 11.556267 C 43.401969 12.207825 32.974745 6.1921541 20.157806 14.615973 C 8.4958367 22.484661 7.4739334 33.89238 7.3073122 33.177902 z "
     style="font-size:12.000000;opacity:0.69999999;fill:url(#linearGradient638);fill-rule:evenodd;stroke-width:1.2500000;"
     id="path877"
     transform="matrix(0.436367,0.000000,0.000000,0.410692,28.69055,33.63042)" />
  <path
     d="M 41.002241 24.056095 C 43.833306 23.953498 51.108147 20.12671 51.219665 17.879573 C 48.569645 13.638487 46.896014 11.722991 42.754622 9.1085443 C 40.545859 9.1885982 36.467182 16.235099 36.323206 19.137 C 38.897581 20.992482 39.610553 21.743631 41.002241 24.056095 z "
     style="font-size:12.000000;fill:url(#linearGradient1527);fill-rule:evenodd;stroke:#330000;stroke-width:1.8786300;"
     id="path915"
     transform="matrix(0.436367,0.000000,0.000000,0.410692,28.69055,33.63042)" />
  <path
     d="M 19.105575 35.82962 C 16.27451 35.932218 8.9996689 39.759003 8.8881838 42.006142 C 11.538169 46.24723 13.211799 48.162722 17.353193 50.777172 C 19.561956 50.697114 23.640628 43.650618 23.784705 40.748717 C 21.210238 38.893232 20.49726 38.142083 19.105575 35.82962 z "
     style="font-size:12.000000;fill:url(#linearGradient1527);fill-rule:evenodd;stroke:#330000;stroke-width:1.8786300;"
     id="path916"
     transform="matrix(0.436367,0.000000,0.000000,0.410692,28.69055,33.63042)" />
  <path
     d="M 41.002241 35.82962 C 43.833306 35.932218 51.108147 39.759003 51.219665 42.006142 C 48.569645 46.24723 46.896014 48.162722 42.754622 50.777172 C 40.545859 50.697114 36.467182 43.650618 36.323206 40.748717 C 38.897581 38.893232 39.610553 38.142083 41.002241 35.82962 z "
     style="font-size:12.000000;fill:url(#linearGradient1527);fill-rule:evenodd;stroke:#330000;stroke-width:1.8786300;"
     id="path917"
     transform="matrix(0.436367,0.000000,0.000000,0.410692,28.69055,33.63042)" />
  <path
     d="M 10.367007 18.083466 C 10.064023 17.763649 15.057963 12.094607 17.404292 10.638297 C 18.015671 10.258864 19.934375 12.6088 19.240035 12.576036 C 15.637982 12.410817 10.675904 18.409496 10.367007 18.083466 z "
     style="font-size:12.000000;opacity:0.69993597;fill:url(#linearGradient1532);fill-rule:evenodd;stroke-width:1.0000000pt;"
     id="path918"
     transform="matrix(0.436367,0.000000,0.000000,0.410692,28.69055,33.63042)" />
  <path
     d="M 10.163014 42.050827 C 9.8857794 41.708368 15.630668 38.013936 18.118169 37.359372 C 18.860401 37.164097 20.49676 39.660112 19.852016 39.501104 C 16.140452 38.483842 10.463796 42.422348 10.163014 42.050827 z "
     style="font-size:12.000000;opacity:0.69999999;fill:url(#linearGradient1534);fill-rule:evenodd;stroke-width:1.0000000pt;"
     id="path919"
     transform="matrix(0.436367,0.000000,0.000000,0.410692,28.69055,33.63042)" />
  <path
     d="M 37.700063 18.593351 C 37.31252 18.290066 40.839022 12.186985 42.697512 10.638297 C 43.286748 10.147248 45.785469 12.42224 45.043241 12.474039 C 40.815478 12.659898 38.094429 18.901947 37.700063 18.593351 z "
     style="font-size:12.000000;opacity:0.69993597;fill:url(#linearGradient1539);fill-rule:evenodd;stroke-width:1.0000000pt;"
     id="path920"
     transform="matrix(0.436367,0.000000,0.000000,0.410692,28.69055,33.63042)" />
  <path
     d="M 37.904063 41.948831 C 37.904063 41.711472 40.556879 38.173243 42.187524 37.971355 C 44.12657 37.731291 48.612831 40.39563 48.612831 40.622975 C 48.612831 40.837587 44.206625 39.047229 42.187524 39.297213 C 40.637036 39.489186 37.904063 42.153429 37.904063 41.948831 z "
     style="font-size:12.000000;opacity:0.69999999;fill:url(#linearGradient1567);fill-rule:evenodd;stroke-width:1.0000000pt;"
     id="path921"
     transform="matrix(0.436367,0.000000,0.000000,0.410692,28.69055,33.63042)" />
</svg>
