<?xml version="1.0" encoding="UTF-8" standalone="no"?>
<!DOCTYPE svg PUBLIC "-//W3C//DTD SVG 20010904//EN"
"http://www.w3.org/TR/2001/REC-SVG-20010904/DTD/svg10.dtd">
<!-- Created with Inkscape (http://www.inkscape.org/) -->
<svg
   id="svg1"
   sodipodi:version="0.32"
   inkscape:version="0.39"
   width="48pt"
   height="48pt"
   sodipodi:docbase="/home/scaba/files/pre-release/lila-gnome"
   sodipodi:docname="gaim-text-normal.svg"
   xmlns="http://www.w3.org/2000/svg"
   xmlns:cc="http://web.resource.org/cc/"
   xmlns:inkscape="http://www.inkscape.org/namespaces/inkscape"
   xmlns:sodipodi="http://sodipodi.sourceforge.net/DTD/sodipodi-0.dtd"
   xmlns:rdf="http://www.w3.org/1999/02/22-rdf-syntax-ns#"
   xmlns:dc="http://purl.org/dc/elements/1.1/"
   xmlns:xlink="http://www.w3.org/1999/xlink">
  <defs
     id="defs3">
    <linearGradient
       id="linearGradient584">
      <stop
         style="stop-color:#ffffff;stop-opacity:1;"
         offset="0.00000000"
         id="stop585" />
      <stop
         style="stop-color:#ffffff;stop-opacity:0;"
         offset="1.00000000"
         id="stop586" />
    </linearGradient>
    <linearGradient
       id="linearGradient578">
      <stop
         style="stop-color:#faf8fd;stop-opacity:1;"
         offset="0.00000000"
         id="stop579" />
      <stop
         style="stop-color:#d9cce6;stop-opacity:1;"
         offset="1.00000000"
         id="stop580" />
    </linearGradient>
    <linearGradient
       xlink:href="#linearGradient578"
       id="linearGradient581"
       x1="0.00000000"
       y1="0.00000000"
       x2="1.00000000"
       y2="0.99218750" />
    <linearGradient
       xlink:href="#linearGradient584"
       id="linearGradient583"
       x1="-0.00000000"
       y1="0.00000000"
       x2="0.99264705"
       y2="0.97656250" />
    <linearGradient
       xlink:href="#linearGradient584"
       id="linearGradient654"
       x1="-0.00000000"
       y1="-0.00000000"
       x2="0.96341461"
       y2="0.99218750" />
    <linearGradient
       xlink:href="#linearGradient584"
       id="linearGradient655"
       x1="-0.00000000"
       y1="-0.00000000"
       x2="0.98148149"
       y2="0.95312500" />
    <linearGradient
       xlink:href="#linearGradient584"
       id="linearGradient713"
       x1="-0.00000000"
       y1="-0.00000000"
       x2="0.95454544"
       y2="0.99218750" />
    <linearGradient
       xlink:href="#linearGradient584"
       id="linearGradient1245"
       x1="0.00000000"
       y1="0.00000000"
       x2="0.97692305"
       y2="0.99218750" />
  </defs>
  <sodipodi:namedview
     id="base"
     pagecolor="#ffffff"
     bordercolor="#666666"
     borderopacity="1.0"
     inkscape:pageopacity="0.0"
     inkscape:pageshadow="2"
     inkscape:zoom="5.6423387"
     inkscape:cx="25.336047"
     inkscape:cy="28.029573"
     inkscape:window-width="637"
     inkscape:window-height="526"
     inkscape:window-x="-5"
     inkscape:window-y="61" />
  <path
     style="opacity:0.29636899;fill:#000000;fill-opacity:1.0000000;fill-rule:evenodd;stroke:none;stroke-width:1.8750000;stroke-linecap:butt;stroke-linejoin:miter;stroke-opacity:1.0000000;"
     d="M 7.1256754,7.8882970 C 9.3157126,5.9947476 55.303335,5.9974460 57.206059,7.8882970 C 59.128030,9.6273533 58.463504,54.788938 56.693291,56.601299 C 55.202096,58.132068 8.9817181,58.576552 7.1256754,56.772222 C 5.1311663,54.662361 4.7505106,9.9651917 7.1256754,7.8882970 z "
     id="path712"
     sodipodi:nodetypes="cssss" />
  <path
     style="font-size:12.000000;fill:url(#linearGradient581);fill-rule:evenodd;stroke:#261933;stroke-width:1.8750000;"
     d="M 5.6789173,6.3993621 C 7.8042787,4.5617320 52.433807,4.5643508 54.280340,6.3993620 C 56.145551,8.0870597 55.500650,51.914944 53.782715,53.673784 C 52.335557,55.159345 7.4801477,55.590702 5.6789173,53.839658 C 3.7433094,51.792105 3.3738951,8.4149218 5.6789173,6.3993621 z "
     id="path684"
     sodipodi:nodetypes="cssss" />
  <path
     style="fill:#261933;fill-opacity:1.0000000;fill-rule:evenodd;stroke:none;stroke-width:1.0000000pt;stroke-linecap:butt;stroke-linejoin:miter;stroke-opacity:1.0000000;"
     d="M 9.8804997,34.336348 C 9.1686249,33.426221 16.583014,10.815173 20.063368,10.576326 C 23.371593,10.349289 30.941280,31.415535 29.909566,34.622035 C 29.560605,36.229760 26.065228,26.445071 23.257991,24.752473 C 21.539508,23.716330 16.991181,25.433303 16.669078,24.079139 C 16.381264,22.700811 22.031398,23.034556 22.659000,21.557850 C 23.162828,20.372369 20.964586,15.864694 20.063368,16.765912 C 16.705084,20.124192 10.890500,35.244082 9.8804997,34.336348 z "
     id="path663"
     sodipodi:nodetypes="csssssss" />
  <path
     style="fill:url(#linearGradient583);fill-opacity:1.0000000;fill-rule:evenodd;stroke:none;stroke-width:1.0000000pt;stroke-linecap:butt;stroke-linejoin:miter;stroke-opacity:1.0000000;"
     d="M 6.9502545,48.972497 C 6.2249198,48.247162 5.7643882,10.427003 7.2820048,7.8354573 C 8.6039764,5.7438783 49.851433,7.1114684 50.575422,7.8354573 C 51.233726,8.4937616 15.095305,8.5988455 11.428884,11.982336 C 7.3044167,15.622652 7.6072126,49.629455 6.9502545,48.972497 z "
     id="path691"
     sodipodi:nodetypes="cssss" />
  <path
     style="fill:#261933;fill-opacity:1.0000000;fill-rule:evenodd;stroke:none;stroke-width:1.0000000pt;stroke-linecap:butt;stroke-linejoin:miter;stroke-opacity:1.0000000;"
     d="M 35.219555,26.054688 L 27.723459,49.500791 L 35.111488,49.610732 L 36.648681,43.102231 L 40.631935,43.102231 L 41.400107,49.390851 L 49.337840,49.610732 L 42.827465,26.054688 L 35.219555,26.054688 z M 39.201289,31.096686 L 40.301547,39.803722 L 37.309174,39.803722 L 39.201289,31.096686 z "
     id="path690"
     sodipodi:nodetypes="ccccccccccccc" />
  <path
     style="fill:url(#linearGradient654);fill-opacity:1.0000000;fill-rule:evenodd;stroke:none;stroke-width:1.0000000pt;stroke-linecap:butt;stroke-linejoin:miter;stroke-opacity:1.0000000;"
     d="M 28.793307,48.177185 L 35.957849,26.904005 L 42.130378,26.904005 C 40.183093,27.565349 37.351082,27.181417 36.729416,28.226690 C 34.076129,32.763045 31.622383,41.527020 28.793307,48.177185 z "
     id="path692"
     sodipodi:nodetypes="cccsc" />
  <path
     style="fill:url(#linearGradient655);fill-opacity:1.0000000;fill-rule:evenodd;stroke:none;stroke-width:1.0000000pt;stroke-linecap:butt;stroke-linejoin:miter;stroke-opacity:1.0000000;"
     d="M 37.537971,40.461524 C 37.438150,40.378341 39.988970,40.587198 40.734459,40.241077 C 41.017723,40.109561 40.538827,38.957442 40.624234,39.028615 C 40.759275,39.141149 41.737417,40.633588 41.395801,40.792195 C 40.708662,41.111225 37.658598,40.562047 37.537971,40.461524 z "
     id="path693"
     sodipodi:nodetypes="cssss" />
  <path
     style="fill:url(#linearGradient713);fill-opacity:1.0000000;fill-rule:evenodd;stroke:none;stroke-width:1.0000000pt;stroke-linecap:butt;stroke-linejoin:miter;stroke-opacity:1.0000000;"
     d="M 11.057403,30.484542 C 10.799589,30.458761 15.411361,16.750569 19.203305,11.451328 C 19.487469,11.039840 21.091510,11.256518 20.769825,11.607980 C 15.500581,17.279385 11.321762,30.510978 11.057403,30.484542 z "
     id="path1243"
     sodipodi:nodetypes="csss" />
  <path
     style="fill:url(#linearGradient1245);fill-opacity:1.0000000;fill-rule:evenodd;stroke:none;stroke-width:1.0000000pt;stroke-linecap:butt;stroke-linejoin:miter;stroke-opacity:1.0000000;"
     d="M 17.871764,23.591856 C 17.680955,23.484526 22.512057,23.020952 23.197931,21.868684 C 23.817490,20.827825 21.599837,16.906596 21.788063,17.012473 C 22.017575,17.141574 25.078830,21.519109 24.451146,22.573618 C 23.773397,23.712237 18.098694,23.719504 17.871764,23.591856 z "
     id="path1244"
     sodipodi:nodetypes="cssss" />
  <metadata
     id="metadata1192">
    <rdf:RDF
       id="RDF1193">
      <cc:Work
         rdf:about=""
         id="Work1194">
        <dc:format
           id="format1195">image/svg+xml</dc:format>
        <dc:type
           id="type1197"
           rdf:resource="http://purl.org/dc/dcmitype/StillImage" />
      </cc:Work>
    </rdf:RDF>
  </metadata>
</svg>
