<?xml version="1.0" encoding="UTF-8" standalone="no"?>
<!DOCTYPE svg PUBLIC "-//W3C//DTD SVG 20010904//EN"
"http://www.w3.org/TR/2001/REC-SVG-20010904/DTD/svg10.dtd">
<!-- Created with Inkscape (http://www.inkscape.org/) -->
<svg
   id="svg1"
   sodipodi:version="0.32"
   inkscape:version="0.39"
   width="48pt"
   height="48pt"
   sodipodi:docbase="/home/scaba/files/lila/work/lila-gnome/Lila/scalable/stock"
   sodipodi:docname="gtk-missing-image.svg"
   xmlns="http://www.w3.org/2000/svg"
   xmlns:inkscape="http://www.inkscape.org/namespaces/inkscape"
   xmlns:sodipodi="http://sodipodi.sourceforge.net/DTD/sodipodi-0.dtd"
   xmlns:xlink="http://www.w3.org/1999/xlink"
   xmlns:rdf="http://www.w3.org/1999/02/22-rdf-syntax-ns#"
   xmlns:cc="http://web.resource.org/cc/"
   xmlns:dc="http://purl.org/dc/elements/1.1/">
  <defs
     id="defs3">
    <linearGradient
       id="linearGradient837">
      <stop
         style="stop-color:#f50000;stop-opacity:1;"
         offset="0.00000000"
         id="stop838" />
      <stop
         style="stop-color:#a90000;stop-opacity:1;"
         offset="1.00000000"
         id="stop839" />
    </linearGradient>
    <linearGradient
       id="linearGradient584">
      <stop
         style="stop-color:#ffffff;stop-opacity:1;"
         offset="0.00000000"
         id="stop585" />
      <stop
         style="stop-color:#ffffff;stop-opacity:0;"
         offset="1.00000000"
         id="stop586" />
    </linearGradient>
    <linearGradient
       id="linearGradient578">
      <stop
         style="stop-color:#faf8fd;stop-opacity:1;"
         offset="0.00000000"
         id="stop579" />
      <stop
         style="stop-color:#d9cce6;stop-opacity:1;"
         offset="1.00000000"
         id="stop580" />
    </linearGradient>
    <linearGradient
       xlink:href="#linearGradient578"
       id="linearGradient581"
       x1="0.01724138"
       y1="0.02325581"
       x2="0.97413790"
       y2="0.98449612" />
    <linearGradient
       xlink:href="#linearGradient584"
       id="linearGradient583"
       x1="0.01538462"
       y1="0.02325581"
       x2="0.97692305"
       y2="0.93798447" />
    <linearGradient
       xlink:href="#linearGradient584"
       id="linearGradient654"
       x1="0.00675676"
       y1="0.02343750"
       x2="0.97972971"
       y2="0.99218750" />
    <linearGradient
       xlink:href="#linearGradient584"
       id="linearGradient655"
       x1="-0.00961538"
       y1="0.00781250"
       x2="0.94230771"
       y2="0.97656250" />
    <linearGradient
       xlink:href="#linearGradient837"
       id="linearGradient840"
       x1="0.01724138"
       y1="0.02325581"
       x2="0.97413790"
       y2="0.98449612" />
  </defs>
  <sodipodi:namedview
     id="base"
     pagecolor="#ffffff"
     bordercolor="#666666"
     borderopacity="1.0"
     inkscape:pageopacity="0.0"
     inkscape:pageshadow="2"
     inkscape:zoom="7.9794719"
     inkscape:cx="21.798179"
     inkscape:cy="21.356953"
     inkscape:window-width="1022"
     inkscape:window-height="695"
     inkscape:window-x="0"
     inkscape:window-y="26" />
  <path
     d="M 5.7992505,48.162685 C 6.6006407,50.556908 39.786924,61.322533 41.965840,59.515953 C 43.916204,57.881872 58.509863,9.2433473 57.532725,7.3143860 C 56.517015,5.1877082 22.847249,-0.10948029 21.249086,1.3451071 C 19.280497,3.1473425 4.9575849,45.415625 5.7992505,48.162685 z "
     style="font-size:12.000000;opacity:0.30267498;fill-rule:evenodd;stroke-width:12.500000;"
     id="path639" />
  <path
     d="M 5.9133324,46.181076 C 6.6631337,48.421054 37.711411,58.493121 39.749952,56.802928 C 41.574669,55.274121 55.228163,9.7690459 54.313973,7.9643146 C 53.363696,5.9746448 21.863042,1.0187587 20.367840,2.3796373 C 18.526074,4.0657660 5.1258898,43.610990 5.9133324,46.181076 z "
     style="font-size:12.000000;fill:url(#linearGradient581);fill-rule:evenodd;stroke:#261933;stroke-width:1.8475013;"
     id="path634" />
  <path
     d="M 8.0257578,44.082856 C 7.7017263,43.261947 20.576611,5.0934335 21.780267,4.3062998 C 23.284589,3.2796818 47.602961,7.8243216 47.926228,8.6433069 C 48.222533,9.3939314 28.952934,5.8888958 24.665889,9.7235442 C 16.443715,16.871527 8.3212985,44.831598 8.0257578,44.082856 z "
     style="font-size:12.000000;opacity:0.69993597;fill:url(#linearGradient583);fill-rule:evenodd;stroke:#ffffff;stroke-width:0.099131501pt;"
     id="path640" />
  <path
     style="opacity:0.29999998;fill:#000000;fill-opacity:1.0000000;fill-rule:evenodd;stroke:none;stroke-width:18.750000;stroke-linecap:butt;stroke-linejoin:miter;stroke-opacity:1.0000000;"
     d="M 12.347990,39.037485 C 13.017281,40.264226 27.436058,34.690800 29.000564,35.045499 C 30.271874,35.414329 38.745545,47.656443 39.839314,47.013236 C 40.951020,46.359488 35.257564,32.388826 35.616984,31.154638 C 35.967944,29.949890 48.435355,20.954637 47.856727,19.749196 C 47.295235,18.579464 33.363889,24.369207 32.196624,24.029117 C 30.934605,23.551801 21.660643,10.991781 20.493439,11.702992 C 19.307936,12.425354 25.561180,26.860685 25.138496,28.329832 C 24.662059,29.612058 11.735288,37.761359 12.347990,39.037485 z "
     id="path601"
     sodipodi:nodetypes="cssssssss" />
  <path
     style="font-size:12.000000;fill:url(#linearGradient840);fill-rule:evenodd;stroke:#330000;stroke-width:1.8475013;"
     d="M 14.025747,36.806845 C 14.613000,37.883217 27.264401,32.992953 28.637136,33.304176 C 29.752614,33.627796 37.187632,44.369336 38.147335,43.804973 C 39.122769,43.231354 34.127191,30.973144 34.442550,29.890233 C 34.750494,28.833158 45.689720,20.940497 45.182022,19.882815 C 44.689352,18.856461 32.465633,23.936526 31.441440,23.638121 C 30.334115,23.219314 22.196906,12.198834 21.172773,12.822869 C 20.132580,13.456687 25.619335,26.122612 25.248460,27.411679 C 24.830425,28.536736 13.488149,35.687139 14.025747,36.806845 z "
     id="path589"
     sodipodi:nodetypes="cssssssss" />
  <path
     style="font-size:12.000000;fill:url(#linearGradient655);fill-rule:evenodd;stroke:none;stroke-width:1.0000000pt;"
     d="M 16.899065,35.473969 C 17.149625,35.104962 25.430046,29.114165 27.987993,27.693235 C 28.479957,27.419952 26.984665,30.305846 26.321340,30.753628 C 23.477594,32.673331 16.692469,35.778229 16.899065,35.473969 z "
     id="path596"
     sodipodi:nodetypes="csss" />
  <path
     style="opacity:0.75038201;fill:url(#linearGradient654);fill-opacity:1.0000000;fill-rule:evenodd;stroke:none;stroke-width:1.0000000pt;stroke-linecap:butt;stroke-linejoin:miter;stroke-opacity:1.0000000;"
     d="M 25.634381,23.785772 C 25.258473,23.130108 22.592061,16.083585 22.974680,16.024855 C 23.417714,15.956853 28.599856,22.457777 28.959572,23.085202 C 29.142379,23.404059 24.630960,18.418992 24.442068,18.439582 C 24.332273,18.456435 25.800998,24.076392 25.634381,23.785772 z "
     id="path597"
     sodipodi:nodetypes="cssss" />
  <path
     style="fill:url(#linearGradient583);fill-opacity:1.0000000;fill-rule:evenodd;stroke:none;stroke-width:1.0000000pt;stroke-linecap:butt;stroke-linejoin:miter;stroke-opacity:1.0000000;"
     d="M 30.601140,25.786907 C 32.897270,24.583844 41.656178,21.697139 42.055875,21.847196 C 42.394037,21.974149 36.945021,25.117622 34.129870,26.062080 C 33.423778,26.298967 30.113894,26.042201 30.601140,25.786907 z "
     id="path598"
     sodipodi:nodetypes="csss" />
  <metadata
     id="metadata1788">
    <rdf:RDF
       id="RDF1789">
      <cc:Work
         rdf:about=""
         id="Work1790">
        <dc:format
           id="format1791">image/svg+xml</dc:format>
        <dc:type
           id="type1793"
           rdf:resource="http://purl.org/dc/dcmitype/StillImage" />
      </cc:Work>
    </rdf:RDF>
  </metadata>
</svg>
