<?xml version="1.0" encoding="UTF-8" standalone="no"?>
<!DOCTYPE svg PUBLIC "-//W3C//DTD SVG 20010904//EN"
"http://www.w3.org/TR/2001/REC-SVG-20010904/DTD/svg10.dtd">
<!-- Created with Inkscape (http://www.inkscape.org/) -->
<svg
   id="svg1"
   sodipodi:version="0.32"
   inkscape:version="0.37"
   width="48pt"
   height="48pt"
   sodipodi:docbase="/home/dan/Projects/Lila-gtk/gtk-2.0"
   sodipodi:docname="stock_clear.svg"
   xmlns="http://www.w3.org/2000/svg"
   xmlns:inkscape="http://www.inkscape.org/namespaces/inkscape"
   xmlns:sodipodi="http://sodipodi.sourceforge.net/DTD/sodipodi-0.dtd"
   xmlns:xlink="http://www.w3.org/1999/xlink">
  <defs
     id="defs3">
    <linearGradient
       id="linearGradient878">
      <stop
         style="stop-color:#fff300;stop-opacity:1;"
         offset="0.00000000"
         id="stop879" />
      <stop
         style="stop-color:#997f00;stop-opacity:1;"
         offset="1.00000000"
         id="stop880" />
    </linearGradient>
    <linearGradient
       id="linearGradient874">
      <stop
         style="stop-color:#ffffff;stop-opacity:1;"
         offset="0.00000000"
         id="stop875" />
      <stop
         style="stop-color:#4c4c4c;stop-opacity:1;"
         offset="1.00000000"
         id="stop876" />
    </linearGradient>
    <linearGradient
       id="linearGradient584">
      <stop
         style="stop-color:#ffffff;stop-opacity:1;"
         offset="0.00000000"
         id="stop585" />
      <stop
         style="stop-color:#ffffff;stop-opacity:0;"
         offset="1.00000000"
         id="stop586" />
    </linearGradient>
    <linearGradient
       id="linearGradient578">
      <stop
         style="stop-color:#d9cce6;stop-opacity:1;"
         offset="0.00000000"
         id="stop579" />
      <stop
         style="stop-color:#73667f;stop-opacity:1;"
         offset="1.00000000"
         id="stop580" />
    </linearGradient>
    <linearGradient
       xlink:href="#linearGradient578"
       id="linearGradient581"
       x1="0.00000000"
       y1="-0.00000000"
       x2="0.96666664"
       y2="0.98437500" />
    <linearGradient
       xlink:href="#linearGradient878"
       id="linearGradient583"
       x1="-0.00000000"
       y1="0.00000000"
       x2="1.00000000"
       y2="1.02343750" />
    <linearGradient
       xlink:href="#linearGradient874"
       id="linearGradient877"
       x1="-0.00000000"
       y1="-0.00000000"
       x2="1.00446427"
       y2="1.03906250" />
    <linearGradient
       xlink:href="#linearGradient584"
       id="linearGradient882"
       x1="0.00000000"
       y1="0.00000000"
       x2="0.97142857"
       y2="0.99218750" />
    <linearGradient
       xlink:href="#linearGradient584"
       id="linearGradient884"
       x1="0.00431034"
       y1="0.00781250"
       x2="1.00862074"
       y2="0.98437500" />
  </defs>
  <sodipodi:namedview
     id="base"
     pagecolor="#ffffff"
     bordercolor="#666666"
     borderopacity="1.0"
     inkscape:pageopacity="0.0"
     inkscape:pageshadow="2"
     inkscape:zoom="7.97947193"
     inkscape:cx="25.8912960"
     inkscape:cy="23.8425370"
     inkscape:window-width="640"
     inkscape:window-height="516"
     inkscape:window-x="139"
     inkscape:window-y="169" />
  <g
     id="g948"
     style="opacity:0.296369;"
     transform="matrix(1.040309,0.000000,0.000000,1.040309,-0.721415,-1.490543)">
    <path
       style="font-size:12;fill-rule:evenodd;stroke-width:1.875;"
       d="M 12.532158 4.8585064 C 11.228595 5.2094655 8.6045898 8.9633792 9.0858142 10.811281 C 11.215456 18.989106 15.185947 27.433344 19.11154 34.622381 C 19.519985 35.370377 23.097266 33.590541 23.02784 32.742557 C 22.366223 24.661379 21.917569 15.509993 19.111541 7.6782419 C 18.419009 5.7453532 13.943896 4.4784231 12.532158 4.8585064 z "
       id="path913"
       sodipodi:nodetypes="csssss"
       transform="translate(0.939912,1.096564)" />
    <path
       style="font-size:12;fill-rule:evenodd;stroke-width:1.875;"
       d="M 11.899875 44.399487 C 10.974365 47.739368 19.498965 54.202298 26.769035 55.303538 C 28.417373 55.547955 28.425249 50.795761 30.061492 49.532888 C 31.941924 48.081549 35.330598 48.541428 37.319059 47.160903 C 39.036086 45.968826 39.503318 43.107593 41.177959 41.815085 C 43.019993 40.393381 49.166267 39.205103 47.869081 39.018267 C 36.336198 37.334604 38.03153 31.085715 33.283143 31.796104 C 26.041794 32.879455 13.145735 39.903557 11.899875 44.399487 z "
       id="path914"
       sodipodi:nodetypes="csssssss"
       transform="translate(0.939912,1.096564)" />
    <path
       style="font-size:12;fill-rule:evenodd;stroke-width:1.875;"
       d="M 10.182378 44.021499 C 9.8057459 43.133723 16.924994 36.226047 21.148016 33.839121 C 25.331983 31.47427 35.042332 28.915211 35.403345 29.76617 C 35.773375 30.638382 28.17465 36.38563 23.8111 38.851984 C 19.767661 41.137406 10.536789 44.856895 10.182378 44.021499 z "
       id="path915"
       sodipodi:nodetypes="cssss"
       transform="translate(0.939912,1.096564)" />
  </g>
  <g
     id="g941"
     style="opacity:0.302675;"
     transform="translate(-1.253216,-0.469956)">
    <path
       sodipodi:type="arc"
       style="font-size:12;fill-rule:evenodd;stroke-width:1pt;"
       id="path916"
       sodipodi:cx="47.30889511"
       sodipodi:cy="46.52793121"
       sodipodi:rx="2.81973553"
       sodipodi:ry="2.81973553"
       d="M 50.128631 46.527931 A 2.819736 2.819736 0 1 0 44.489160,46.527931 A 2.81974 2.81974 0 1 0 50.1286 46.5279 L 47.308895 46.527931 z"
       transform="matrix(0.842865,0.000000,0.000000,0.842865,9.924563,8.850802)" />
    <path
       sodipodi:type="arc"
       style="font-size:12;fill-rule:evenodd;stroke-width:1pt;"
       id="path917"
       sodipodi:cx="46.76061249"
       sodipodi:cy="30.47110367"
       sodipodi:rx="3.21136546"
       sodipodi:ry="3.21136546"
       d="M 49.971978 30.471104 A 3.211365 3.211365 0 1 0 43.549247,30.471104 A 3.21137 3.21137 0 1 0 49.972 30.4711 L 46.760612 30.471104 z"
       transform="translate(0.939912,1.096564)" />
    <path
       sodipodi:type="arc"
       style="font-size:12;fill-rule:evenodd;stroke-width:1pt;"
       id="path918"
       sodipodi:cx="54.82818985"
       sodipodi:cy="23.97004700"
       sodipodi:rx="1.40986776"
       sodipodi:ry="1.40986776"
       d="M 56.238058 23.970047 A 1.409868 1.409868 0 1 0 53.418322,23.970047 A 1.40987 1.40987 0 1 0 56.2381 23.97 L 54.828190 23.970047 z"
       transform="translate(0.939912,1.096564)" />
    <path
       sodipodi:type="arc"
       style="font-size:12;fill-rule:evenodd;stroke-width:1pt;"
       id="path919"
       sodipodi:cx="55.76810074"
       sodipodi:cy="36.65885544"
       sodipodi:rx="1.40986776"
       sodipodi:ry="1.40986776"
       d="M 57.177969 36.658855 A 1.409868 1.409868 0 1 0 54.358233,36.658855 A 1.40987 1.40987 0 1 0 57.178 36.6589 L 55.768101 36.658855 z"
       transform="translate(0.939912,1.096564)" />
    <path
       sodipodi:type="arc"
       style="font-size:12;fill-rule:evenodd;stroke-width:1pt;"
       id="path920"
       sodipodi:cx="38.06642914"
       sodipodi:cy="52.63735580"
       sodipodi:rx="1.56651974"
       sodipodi:ry="1.56651974"
       d="M 39.632949 52.637356 A 1.566520 1.566520 0 1 0 36.499909,52.637356 A 1.56652 1.56652 0 1 0 39.6329 52.6374 L 38.066429 52.637356 z"
       transform="translate(0.939912,1.096564)" />
    <path
       sodipodi:type="arc"
       style="font-size:12;fill-rule:evenodd;stroke-width:1pt;"
       id="path921"
       sodipodi:cx="41.66942596"
       sodipodi:cy="24.12669945"
       sodipodi:rx="1.40986776"
       sodipodi:ry="1.40986776"
       d="M 43.079294 24.126699 A 1.409868 1.409868 0 1 0 40.259558,24.126699 A 1.40987 1.40987 0 1 0 43.0793 24.1267 L 41.669426 24.126699 z"
       transform="translate(0.939912,1.096564)" />
  </g>
  <path
     style="fill:url(#linearGradient581);fill-rule:evenodd;stroke:#261933;stroke-opacity:1;stroke-width:1.875;stroke-linejoin:miter;stroke-linecap:butt;fill-opacity:1;stroke-dasharray:none;"
     d="M 11.278942 4.3885505 C 9.9753792 4.7395096 7.351374 8.4934233 7.8325984 10.341325 C 9.9622402 18.51915 13.932731 26.963388 17.858324 34.152425 C 18.266769 34.900421 21.84405 33.120585 21.774624 32.272601 C 21.113007 24.191423 20.664353 15.040037 17.858325 7.208286 C 17.165793 5.2753973 12.69068 4.0084672 11.278942 4.3885505 z "
     id="path871"
     sodipodi:nodetypes="csssss" />
  <path
     style="font-size:12;fill:url(#linearGradient583);fill-rule:evenodd;stroke:#333300;stroke-width:1.875;stroke-opacity:1;stroke-dasharray:none;"
     d="M 10.646659 43.929531 C 9.7211492 47.269412 18.245749 53.732342 25.515819 54.833582 C 27.164157 55.077999 27.172033 50.325805 28.808276 49.062932 C 30.688708 47.611593 34.077382 48.071472 36.065843 46.690947 C 37.78287 45.49887 38.250102 42.637637 39.924743 41.345129 C 41.766777 39.923425 47.913051 38.735147 46.615865 38.548311 C 35.082982 36.864648 36.778314 30.615759 32.029927 31.326148 C 24.788578 32.409499 11.892519 39.433601 10.646659 43.929531 z "
     id="path873"
     sodipodi:nodetypes="csssssss" />
  <path
     style="fill:url(#linearGradient877);fill-rule:evenodd;stroke:#333333;stroke-opacity:1;stroke-width:1.875;stroke-linejoin:miter;stroke-linecap:butt;fill-opacity:1;stroke-dasharray:none;"
     d="M 8.9291622 43.551543 C 8.5525301 42.663767 15.671778 35.756091 19.8948 33.369165 C 24.078767 31.004314 33.789116 28.445255 34.150129 29.296214 C 34.520159 30.168426 26.921434 35.915674 22.557884 38.382028 C 18.514445 40.66745 9.2835732 44.386939 8.9291622 43.551543 z "
     id="path872"
     sodipodi:nodetypes="cssss" />
  <path
     style="fill:url(#linearGradient882);fill-rule:evenodd;stroke:none;stroke-opacity:1;stroke-width:1pt;stroke-linejoin:miter;stroke-linecap:butt;fill-opacity:1;"
     d="M 11.435594 15.824144 C 11.272725 15.769855 9.4909202 11.444177 9.5557702 9.4014136 C 9.5953552 8.1544861 10.757376 6.4508312 11.748898 5.9550702 C 12.532765 5.5631367 14.826223 6.5711878 14.881937 6.7383301 C 14.930657 6.8844918 12.744718 6.4318459 12.062201 6.8949821 C 11.282633 7.4239749 10.567303 8.69411 10.495682 9.7147171 C 10.358434 11.670497 11.586029 15.874289 11.435594 15.824144 z "
     id="path881"
     sodipodi:nodetypes="cssssss" />
  <path
     style="fill:url(#linearGradient884);fill-rule:evenodd;stroke:none;stroke-opacity:1;stroke-width:1pt;stroke-linejoin:miter;stroke-linecap:butt;fill-opacity:1;"
     d="M 12.375505 41.201763 C 12.321913 40.960597 17.801248 35.921733 20.991364 34.152425 C 24.015109 32.47539 30.965455 30.630376 31.01709 30.862733 C 31.06989 31.100332 24.444883 33.820661 21.304668 35.562293 C 18.231021 37.267005 12.426347 41.430553 12.375505 41.201763 z "
     id="path883"
     sodipodi:nodetypes="cssss" />
  <g
     id="g889"
     style="opacity:0.500000;"
     transform="translate(-1.253216,-0.469956)">
    <path
       style="fill:#261933;fill-rule:evenodd;stroke:none;stroke-opacity:1;stroke-width:1pt;stroke-linejoin:miter;stroke-linecap:butt;fill-opacity:1;"
       d="M 40.259556 41.045112 C 39.412228 40.950964 31.984473 36.767645 30.703786 35.562293 C 30.209084 35.096691 33.761779 35.360014 34.933389 36.032249 C 36.947036 37.18762 40.822095 41.107616 40.259556 41.045112 z "
       id="path885"
       sodipodi:nodetypes="csss" />
    <path
       style="fill:#261933;fill-rule:evenodd;stroke:none;stroke-opacity:1;stroke-width:1pt;stroke-linejoin:miter;stroke-linecap:butt;fill-opacity:1;"
       d="M 26.317531 50.914186 C 25.470203 50.820038 18.042448 46.636719 16.761761 45.431367 C 16.267059 44.965765 19.819754 45.229088 20.991364 45.901323 C 23.005011 47.056694 26.88007 50.97669 26.317531 50.914186 z "
       id="path886"
       sodipodi:nodetypes="csss"
       transform="translate(-0.313304,-0.313304)" />
    <path
       style="fill:#261933;fill-rule:evenodd;stroke:none;stroke-opacity:1;stroke-width:1pt;stroke-linejoin:miter;stroke-linecap:butt;fill-opacity:1;"
       d="M 26.317531 50.914186 C 25.470203 50.820038 18.042448 46.636719 16.761761 45.431367 C 16.267059 44.965765 19.819754 45.229088 20.991364 45.901323 C 23.005011 47.056694 26.88007 50.97669 26.317531 50.914186 z "
       id="path887"
       sodipodi:nodetypes="csss"
       transform="translate(4.229603,-3.446343)" />
    <path
       style="fill:#261933;fill-rule:evenodd;stroke:none;stroke-opacity:1;stroke-width:1pt;stroke-linejoin:miter;stroke-linecap:butt;fill-opacity:1;"
       d="M 26.317531 50.914186 C 25.470203 50.820038 18.042448 46.636719 16.761761 45.431367 C 16.267059 44.965765 19.819754 45.229088 20.991364 45.901323 C 23.005011 47.056694 26.88007 50.97669 26.317531 50.914186 z "
       id="path888"
       sodipodi:nodetypes="csss"
       transform="translate(9.555770,-6.422731)" />
  </g>
  <path
     sodipodi:type="arc"
     style="font-size:12;fill:#261933;fill-rule:evenodd;stroke-width:1pt;"
     id="path894"
     sodipodi:cx="47.30889511"
     sodipodi:cy="46.52793121"
     sodipodi:rx="2.81973553"
     sodipodi:ry="2.81973553"
     d="M 50.128631 46.527931 A 2.819736 2.819736 0 1 0 44.489160,46.527931 A 2.81974 2.81974 0 1 0 50.1286 46.5279 L 47.308895 46.527931 z"
     transform="matrix(0.842865,0.000000,0.000000,0.842865,7.731435,7.284282)" />
  <path
     sodipodi:type="arc"
     style="font-size:12;fill:#261933;fill-rule:evenodd;stroke-width:1pt;"
     id="path895"
     sodipodi:cx="46.76061249"
     sodipodi:cy="30.47110367"
     sodipodi:rx="3.21136546"
     sodipodi:ry="3.21136546"
     d="M 49.971978 30.471104 A 3.211365 3.211365 0 1 0 43.549247,30.471104 A 3.21137 3.21137 0 1 0 49.972 30.4711 L 46.760612 30.471104 z"
     transform="translate(-1.253216,-0.469956)" />
  <path
     sodipodi:type="arc"
     style="font-size:12;fill:#261933;fill-rule:evenodd;stroke-width:1pt;"
     id="path896"
     sodipodi:cx="54.82818985"
     sodipodi:cy="23.97004700"
     sodipodi:rx="1.40986776"
     sodipodi:ry="1.40986776"
     d="M 56.238058 23.970047 A 1.409868 1.409868 0 1 0 53.418322,23.970047 A 1.40987 1.40987 0 1 0 56.2381 23.97 L 54.828190 23.970047 z"
     transform="translate(-1.253216,-0.469956)" />
  <path
     sodipodi:type="arc"
     style="font-size:12;fill:#261933;fill-rule:evenodd;stroke-width:1pt;"
     id="path897"
     sodipodi:cx="55.76810074"
     sodipodi:cy="36.65885544"
     sodipodi:rx="1.40986776"
     sodipodi:ry="1.40986776"
     d="M 57.177969 36.658855 A 1.409868 1.409868 0 1 0 54.358233,36.658855 A 1.40987 1.40987 0 1 0 57.178 36.6589 L 55.768101 36.658855 z"
     transform="translate(-1.253216,-0.469956)" />
  <path
     sodipodi:type="arc"
     style="font-size:12;fill:#261933;fill-rule:evenodd;stroke-width:1pt;"
     id="path898"
     sodipodi:cx="38.06642914"
     sodipodi:cy="52.63735580"
     sodipodi:rx="1.56651974"
     sodipodi:ry="1.56651974"
     d="M 39.632949 52.637356 A 1.566520 1.566520 0 1 0 36.499909,52.637356 A 1.56652 1.56652 0 1 0 39.6329 52.6374 L 38.066429 52.637356 z"
     transform="translate(-1.253216,-0.469956)" />
  <path
     sodipodi:type="arc"
     style="font-size:12;fill:#261933;fill-rule:evenodd;stroke-width:1pt;"
     id="path899"
     sodipodi:cx="41.66942596"
     sodipodi:cy="24.12669945"
     sodipodi:rx="1.40986776"
     sodipodi:ry="1.40986776"
     d="M 43.079294 24.126699 A 1.409868 1.409868 0 1 0 40.259558,24.126699 A 1.40987 1.40987 0 1 0 43.0793 24.1267 L 41.669426 24.126699 z"
     transform="translate(-1.253216,-0.469956)" />
</svg>
