<?xml version="1.0" encoding="UTF-8" standalone="no"?>
<!DOCTYPE svg PUBLIC "-//W3C//DTD SVG 20010904//EN"
"http://www.w3.org/TR/2001/REC-SVG-20010904/DTD/svg10.dtd">
<!-- Created with Inkscape (http://www.inkscape.org/) -->
<svg
   version="1.0"
   x="0"
   y="0"
   width="48pt"
   height="48pt"
   id="svg1418"
   sodipodi:version="0.32"
   inkscape:version="0.37"
   sodipodi:docname="stock_replace.svg"
   sodipodi:docbase="/usr/share/themes/Lila/gtk-2.0"
   xmlns="http://www.w3.org/2000/svg"
   xmlns:inkscape="http://www.inkscape.org/namespaces/inkscape"
   xmlns:sodipodi="http://sodipodi.sourceforge.net/DTD/sodipodi-0.dtd"
   xmlns:xlink="http://www.w3.org/1999/xlink">
  <sodipodi:namedview
     id="base"
     pagecolor="#ffffff"
     bordercolor="#666666"
     borderopacity="1.0"
     inkscape:pageopacity="0.0"
     inkscape:pageshadow="2"
     inkscape:zoom="6.94653375"
     inkscape:cx="25.5516764"
     inkscape:cy="23.2641838"
     inkscape:window-width="640"
     inkscape:window-height="500"
     inkscape:window-x="167"
     inkscape:window-y="61" />
  <defs
     id="defs1420">
    <linearGradient
       id="linearGradient760">
      <stop
         style="stop-color:#d9cce6;stop-opacity:1;"
         offset="0.00000000"
         id="stop761" />
      <stop
         style="stop-color:#73667f;stop-opacity:1;"
         offset="1.00000000"
         id="stop762" />
    </linearGradient>
    <linearGradient
       id="linearGradient756">
      <stop
         style="stop-color:#ffffff;stop-opacity:1;"
         offset="0.00000000"
         id="stop757" />
      <stop
         style="stop-color:#d9cce6;stop-opacity:1;"
         offset="1.00000000"
         id="stop758" />
    </linearGradient>
    <linearGradient
       id="linearGradient1439">
      <stop
         style="stop-color:#ffffff;stop-opacity:1;"
         offset="0"
         id="stop1440" />
      <stop
         style="stop-color:#ffffff;stop-opacity:0;"
         offset="1"
         id="stop1441" />
    </linearGradient>
    <linearGradient
       id="linearGradient1432">
      <stop
         style="stop-color:#7f7f7f;stop-opacity:1;"
         offset="0"
         id="stop1433" />
      <stop
         style="stop-color:#e6e6e6;stop-opacity:1;"
         offset="1"
         id="stop1434" />
    </linearGradient>
    <linearGradient
       id="linearGradient1428">
      <stop
         style="stop-color:#f50000;stop-opacity:1;"
         offset="0.00000000"
         id="stop1429" />
      <stop
         style="stop-color:#a90000;stop-opacity:1;"
         offset="1.00000000"
         id="stop1430" />
    </linearGradient>
    <linearGradient
       id="linearGradient1422">
      <stop
         style="stop-color:#d7a600;stop-opacity:1;"
         offset="0.00000000"
         id="stop1423" />
      <stop
         style="stop-color:#fff300;stop-opacity:1;"
         offset="1.00000000"
         id="stop1424" />
    </linearGradient>
    <linearGradient
       x1="0.64516127"
       y1="0.66406250"
       x2="0.32258064"
       y2="0.32031250"
       id="linearGradient1425"
       xlink:href="#linearGradient1422" />
    <linearGradient
       x1="0.01923077"
       y1="0.00781250"
       x2="0.98076922"
       y2="0.98437500"
       id="linearGradient1427"
       xlink:href="#linearGradient1428" />
    <linearGradient
       x1="0.98101264"
       y1="0.92187500"
       x2="0.01898734"
       y2="0.02343750"
       id="linearGradient1435"
       xlink:href="#linearGradient1432" />
    <linearGradient
       x1="0.015748"
       y1="0.023437"
       x2="0.984252"
       y2="0.984375"
       id="linearGradient1438"
       xlink:href="#linearGradient1439" />
    <linearGradient
       id="linearGradient1443"
       xlink:href="#linearGradient1439"
       x1="0.00781250"
       y1="0.01562500"
       x2="0.97656250"
       y2="0.98437500" />
    <linearGradient
       xlink:href="#linearGradient756"
       id="linearGradient755"
       x1="0.00000000"
       y1="-0.00000000"
       x2="0.97368419"
       y2="0.97656250" />
    <linearGradient
       xlink:href="#linearGradient760"
       id="linearGradient759"
       x1="0.00704225"
       y1="0.02343750"
       x2="0.99295777"
       y2="0.98437500" />
    <linearGradient
       xlink:href="#linearGradient760"
       id="linearGradient763"
       x1="0.00000000"
       y1="0.00000000"
       x2="0.96923077"
       y2="0.97656250" />
    <linearGradient
       xlink:href="#linearGradient1439"
       id="linearGradient764"
       x1="-0.00000000"
       y1="-0.00000000"
       x2="0.97413790"
       y2="0.96875000" />
    <radialGradient
       xlink:href="#linearGradient1439"
       id="radialGradient765"
       cx="0.31818178"
       cy="0.34375000"
       r="0.70471871"
       fx="0.32575750"
       fy="0.33593750" />
    <linearGradient
       xlink:href="#linearGradient1439"
       id="linearGradient766"
       x1="-0.00000000"
       y1="-0.00000000"
       x2="0.99315071"
       y2="0.98437500" />
  </defs>
  <path
     d="M 2.95564 47.418858 C 3.7438824 49.773803 36.38575 60.362819 38.528922 58.585878 C 40.44729 56.978605 54.801545 9.1379843 53.840439 7.2406671 C 52.841391 5.1488773 19.723967 -0.061411985 18.152023 1.3693138 C 16.215728 3.1419847 2.1277824 44.716863 2.95564 47.418858 z "
     style="font-size:12;opacity:0.302675;fill-rule:evenodd;stroke-width:12.5;"
     id="path639" />
  <path
     d="M 3.0678505 45.469756 C 3.8053512 47.672987 34.344284 57.579825 36.349387 55.917359 C 38.144168 54.413632 51.573678 9.6550592 50.674485 7.8799353 C 49.739798 5.9229046 18.755907 1.0483181 17.285233 2.3868725 C 15.473681 4.0453416 2.293326 42.941832 3.0678505 45.469756 z "
     style="font-size:12;fill:url(#linearGradient755);fill-rule:evenodd;stroke:#261933;stroke-width:1.875;stroke-dasharray:none;"
     id="path634" />
  <path
     d="M 5.1456214 43.405958 C 4.826906 42.598516 17.490581 5.0561494 18.67449 4.2819284 C 20.154135 3.2721531 44.073567 7.7422381 44.391532 8.5477886 C 44.682974 9.2860993 25.729491 5.8385629 21.512774 9.6103042 C 13.425484 16.641027 5.4363141 44.142415 5.1456214 43.405958 z "
     style="font-size:12;opacity:0.699936;fill:url(#linearGradient1443);fill-rule:evenodd;stroke:none;stroke-width:0.10011pt;"
     id="path640" />
  <path
     d="M 37.351954 32.749503 C 38.028597 39.39661 33.182977 45.340557 26.53587 46.017201 C 19.888666 46.693854 13.944718 41.848234 13.268074 35.201127 C 12.59143 28.554018 17.437052 22.61007 24.084255 21.933417 C 30.731362 21.256773 36.675309 26.102394 37.351954 32.749503 z M 34.368107 33.053243 C 34.865113 37.935652 31.210412 42.311263 26.210434 42.820237 C 21.210359 43.329221 16.749022 39.779783 16.252016 34.897375 C 15.755011 30.014965 19.409606 25.639266 24.409681 25.130283 C 29.40966 24.621309 33.871101 28.170834 34.368107 33.053243 z "
     style="font-size:12;opacity:0.3;fill-rule:evenodd;stroke-width:13.4904;"
     id="path1566" />
  <path
     d="M 36.166744 31.310922 C 36.843387 37.958028 31.68904 44.28068 25.041931 44.957324 C 18.394728 45.633977 12.072076 40.479629 11.395432 33.832523 C 10.718788 27.185416 15.873136 20.862762 22.52034 20.186109 C 29.167447 19.509464 35.4901 24.663815 36.166744 31.310922 z M 32.151753 31.719629 C 32.64876 36.602038 29.611509 40.220242 24.61153 40.729216 C 19.611456 41.2382 15.907528 38.306215 15.410521 33.423806 C 14.913515 28.541395 17.950657 24.923105 22.950732 24.414122 C 27.95071 23.905148 31.654747 26.837218 32.151753 31.719629 z "
     style="font-size:12;fill:url(#linearGradient763);fill-rule:evenodd;stroke:#261933;stroke-width:1.875;stroke-dasharray:none;"
     id="path1525"
     sodipodi:nodetypes="cccccccccs" />
  <path
     d="M 33.220249 42.789881 C 32.926067 42.33279 34.698044 39.928204 35.205593 40.131816 C 37.023315 40.86039 38.851912 43.362786 40.948138 44.527265 C 45.237204 46.909896 51.048862 48.000412 54.361724 50.773554 C 55.425937 51.664317 54.845466 54.889131 53.982065 55.773784 C 53.035446 56.744018 49.517815 58.247373 48.179698 57.397271 C 44.459816 55.03468 41.603669 50.309538 38.152733 46.939698 C 36.617176 45.440301 34.159107 44.249067 33.220249 42.789881 z "
     style="font-size:12;opacity:0.3;fill-rule:evenodd;stroke-width:13.4904;"
     id="path1565"
     sodipodi:nodetypes="ccsccccc" />
  <ellipse
     cx="373.574921"
     cy="328.786621"
     rx="115.024445"
     ry="115.024429"
     transform="matrix(6.956511e-2,-7.081397e-3,6.914781e-3,6.792835e-2,-4.480225,12.88328)"
     style="font-size:12;fill-rule:evenodd;stroke-width:1pt;fill:url(#radialGradient765);"
     id="path1521" />
  <path
     d="M 32.013038 40.254851 C 31.718854 39.797761 33.394017 37.648683 33.901565 37.852295 C 35.719286 38.580869 37.547891 41.083251 39.644109 42.247745 C 43.933186 44.630363 49.74483 45.720892 53.057703 48.494032 C 54.121915 49.384796 53.298304 52.634358 52.434903 53.519012 C 51.488285 54.489246 48.310605 55.712343 46.972487 54.862239 C 43.252604 52.499649 40.39646 47.774508 36.945523 44.404669 C 35.409965 42.905272 32.951896 41.714036 32.013038 40.254851 z "
     style="font-size:12;fill:url(#linearGradient759);fill-rule:evenodd;stroke:#261933;stroke-width:1.875;stroke-dasharray:none;"
     id="path1531"
     sodipodi:nodetypes="cccccccc" />
  <path
     d="M 14.295915 38.067285 C 13.263932 36.439728 11.830569 30.868171 15.072278 26.120119 C 19.12057 21.636521 23.81166 21.765276 25.724091 21.830521 C 22.740631 22.307502 19.610327 22.19305 15.982072 26.547348 C 12.584777 30.618115 14.172198 36.000809 14.295915 38.067285 z "
     style="font-size:12;opacity:0.7;fill-rule:evenodd;stroke:none;stroke-width:1pt;fill:url(#linearGradient764);"
     id="path1533" />
  <path
     d="M 32.965738 39.985823 C 32.951267 39.930162 33.096974 39.616559 33.195444 39.677628 C 34.093406 40.234994 35.941471 41.789139 35.954916 41.841037 C 35.967461 41.889377 34.184074 40.543331 33.273512 39.978227 C 33.187643 39.924895 32.977363 40.03039 32.965738 39.985823 z "
     style="font-size:12;opacity:0.7;fill-rule:evenodd;stroke:none;stroke-width:1pt;fill:url(#linearGradient766);"
     id="path1538" />
  <path
     d="M 24.372318 33.927134 C 24.980144 34.780901 28.617931 34.768718 30.295263 33.805349 C 40.27211 28.075069 52.534157 20.770075 59.334883 13.846271 C 60.634162 12.523461 56.384843 8.2441974 54.595202 9.0654211 C 45.518366 13.230572 35.381498 21.693037 26.735541 28.805317 C 25.307226 29.980278 23.793571 33.114221 24.372318 33.927134 z "
     style="font-size:12;opacity:0.3;fill:#3f3f19;fill-rule:evenodd;stroke-width:12.5;"
     id="path1442" />
  <path
     d="M 23.290177 32.633884 C 23.898003 33.487652 27.53579 33.475469 29.213122 32.512101 C 39.18997 26.781821 51.452028 19.476828 58.252743 12.553023 C 59.552022 11.23021 55.302712 6.9509562 53.513061 7.7721768 C 44.436236 11.937326 34.299358 20.399786 25.6534 27.512068 C 24.225084 28.687029 22.711424 31.82097 23.290177 32.633884 z "
     style="font-size:12;fill:url(#linearGradient1425);fill-rule:evenodd;stroke:#3f3f19;stroke-width:1.875;stroke-dasharray:none;"
     id="path1421" />
  <path
     d="M 49.945579 10.07923 C 49.871851 10.671333 53.980796 15.217777 54.628566 15.29148 C 54.842563 15.329031 58.044305 12.31808 58.078793 12.069756 C 58.253177 10.671271 55.929225 8.4823491 54.251601 8.0795807 C 53.297845 7.8504358 49.964447 9.9122532 49.945579 10.07923 z "
     style="font-size:12;fill:url(#linearGradient1427);fill-rule:evenodd;stroke-width:1pt;"
     id="path1426" />
  <path
     d="M 47.033013 11.85769 C 46.954851 12.485224 51.309928 17.30401 51.996478 17.382136 C 52.223275 17.421952 54.779875 15.413026 54.816364 15.149804 C 55.0012 13.667513 51.786704 10.324634 49.99482 10.006194 C 49.62812 9.9353962 47.053016 11.680736 47.033013 11.85769 z "
     style="font-size:12;fill:url(#linearGradient1435);fill-rule:evenodd;stroke:#3f3f19;stroke-width:1.125;stroke-dasharray:none;"
     id="path1431" />
  <ellipse
     cx="152.361847"
     cy="565.562134"
     rx="26.788887"
     ry="26.788879"
     transform="matrix(6.493149e-2,1.460176e-2,-1.460176e-2,6.493149e-2,22.02420,-6.609479)"
     style="font-size:12;fill:#3f3f19;fill-rule:evenodd;stroke-width:1pt;"
     id="path1436" />
  <path
     d="M 25.048348 30.202629 C 29.716722 25.018818 43.813829 13.970624 53.690077 8.78109 C 54.793528 8.1213162 57.208702 10.607404 57.145649 11.011862 C 57.087065 11.387649 54.403215 10.477342 53.325224 11.121857 C 43.704059 16.874277 28.770406 26.870269 25.048348 30.202629 z "
     style="font-size:12;opacity:0.990000;fill:url(#linearGradient1438);fill-rule:evenodd;stroke:none;stroke-width:0.106874pt;"
     id="path1437" />
</svg>
