<?xml version="1.0" encoding="UTF-8" standalone="no"?>
<!DOCTYPE svg PUBLIC "-//W3C//DTD SVG 20010904//EN"
"http://www.w3.org/TR/2001/REC-SVG-20010904/DTD/svg10.dtd">
<!-- Created with Inkscape (http://www.inkscape.org/) -->
<svg
   id="svg1"
   sodipodi:version="0.32"
   inkscape:version="0.37"
   width="48pt"
   height="48pt"
   sodipodi:docbase="/usr/share/themes/Lila/gtk-2.0"
   sodipodi:docname="stock_save.svg"
   xmlns="http://www.w3.org/2000/svg"
   xmlns:inkscape="http://www.inkscape.org/namespaces/inkscape"
   xmlns:sodipodi="http://sodipodi.sourceforge.net/DTD/sodipodi-0.dtd"
   xmlns:xlink="http://www.w3.org/1999/xlink">
  <defs
     id="defs3">
    <linearGradient
       id="linearGradient916">
      <stop
         style="stop-color:#cccccc;stop-opacity:1;"
         offset="0.00000000"
         id="stop917" />
      <stop
         style="stop-color:#7f7f7f;stop-opacity:1;"
         offset="1.00000000"
         id="stop918" />
    </linearGradient>
    <linearGradient
       id="linearGradient866">
      <stop
         style="stop-color:#ffffff;stop-opacity:1;"
         offset="0.00000000"
         id="stop867" />
      <stop
         style="stop-color:#d9d1e1;stop-opacity:1;"
         offset="1.00000000"
         id="stop868" />
    </linearGradient>
    <linearGradient
       id="linearGradient584">
      <stop
         style="stop-color:#ffffff;stop-opacity:1;"
         offset="0.00000000"
         id="stop585" />
      <stop
         style="stop-color:#ffffff;stop-opacity:0;"
         offset="1.00000000"
         id="stop586" />
    </linearGradient>
    <linearGradient
       id="linearGradient578">
      <stop
         style="stop-color:#d9cce6;stop-opacity:1;"
         offset="0.00000000"
         id="stop579" />
      <stop
         style="stop-color:#73667f;stop-opacity:1;"
         offset="1.00000000"
         id="stop580" />
    </linearGradient>
    <linearGradient
       xlink:href="#linearGradient584"
       id="linearGradient581"
       x1="0.00649351"
       y1="0.00000000"
       x2="0.96753246"
       y2="0.97674417" />
    <linearGradient
       xlink:href="#linearGradient584"
       id="linearGradient583"
       x1="-0.03076923"
       y1="0.02325581"
       x2="0.97692305"
       y2="1.03100777" />
    <linearGradient
       xlink:href="#linearGradient584"
       id="linearGradient860"
       x1="-0.01219512"
       y1="0.00775194"
       x2="0.98780489"
       y2="0.99224806" />
    <linearGradient
       xlink:href="#linearGradient578"
       id="linearGradient861"
       x1="0.01562500"
       y1="0.01550388"
       x2="0.98437500"
       y2="0.97674417" />
    <linearGradient
       xlink:href="#linearGradient866"
       id="linearGradient862"
       x1="0.00617284"
       y1="0.01550388"
       x2="1.00000000"
       y2="0.96899223" />
    <linearGradient
       xlink:href="#linearGradient916"
       id="linearGradient869"
       x1="0.00641026"
       y1="0.01550388"
       x2="0.97435898"
       y2="0.95348835" />
    <linearGradient
       xlink:href="#linearGradient578"
       id="linearGradient915"
       x1="0.97727275"
       y1="0.98449612"
       x2="-0.01136364"
       y2="0.01550388" />
  </defs>
  <sodipodi:namedview
     id="base"
     pagecolor="#ffffff"
     bordercolor="#666666"
     borderopacity="1.0"
     inkscape:pageopacity="0.0"
     inkscape:pageshadow="2"
     inkscape:zoom="7.97947193"
     inkscape:cx="26.4570195"
     inkscape:cy="23.7684983"
     inkscape:window-width="640"
     inkscape:window-height="516"
     inkscape:window-x="156"
     inkscape:window-y="122" />
  <path
     d="M 6.5957754 48.029272 C 7.897839 49.834454 46.730744 59.997026 48.448343 59.06577 C 50.085315 58.04166 60.198879 12.904766 59.054834 11.19328 C 58.162465 9.7950239 16.750181 4.428659 15.482296 5.6034291 C 14.161082 6.9769061 5.5131417 46.329592 6.5957754 48.029272 z "
     style="font-size:12;opacity:0.302675;fill-rule:evenodd;stroke-width:12.5;"
     id="path1382" />
  <path
     d="M 3.6974536 44.603983 C 4.9995159 46.409163 43.832423 56.571737 45.550021 55.640479 C 47.186992 54.61637 57.300557 9.4794762 56.15651 7.7679903 C 55.264143 6.3697341 13.851859 1.0033693 12.583974 2.178138 C 11.26276 3.5516377 2.6148185 42.904301 3.6974536 44.603983 z "
     style="font-size:12;fill:url(#linearGradient861);fill-rule:evenodd;stroke:#261933;stroke-width:1.875;stroke-dasharray:none;"
     id="path1289" />
  <path
     d="M 11.007285 46.610677 C 11.676113 41.1163 12.918387 36.195265 14.303891 31.274229 C 23.477029 33.13748 32.363602 35.28751 41.393404 37.724103 C 40.342315 43.122888 39.147889 48.665113 37.666794 53.777226 C 28.302578 52.152796 19.941602 49.525019 11.007285 46.610677 z "
     style="font-size:12;fill:#595161;fill-rule:evenodd;stroke:#261933;stroke-width:1.25;stroke-dasharray:none;"
     id="path1294" />
  <path
     d="M 19.463853 2.8947939 C 17.648344 9.2969353 15.832835 16.558972 15.020567 23.391108 C 24.050369 25.923293 34.513525 28.168808 43.686768 29.840982 C 45.693356 22.340018 47.413273 14.409048 48.703289 6.7647488 C 39.625638 5.1880827 28.541399 3.3247883 19.463853 2.8947939 z "
     style="font-size:12;fill:url(#linearGradient862);fill-rule:evenodd;stroke:#261933;stroke-width:1.25;stroke-dasharray:none;"
     id="path1295" />
  <path
     d="M 16.721197 35.501881 C 16.04552 38.13693 15.369841 40.772084 14.694162 43.407133 C 15.707628 43.677363 16.506195 43.947698 17.519658 44.217927 C 18.060222 41.650435 18.959124 38.796166 19.571355 36.228673 C 18.693005 35.890887 17.742882 35.696331 16.721197 35.501881 z M 11.684969 46.259794 C 12.335986 41.171814 13.660252 36.749764 14.741273 32.020123 C 21.633062 33.350927 29.384864 35.122991 36.204985 37.098804 C 35.195631 41.959552 33.690126 47.074591 32.394101 52.078676 C 25.430644 50.616869 18.57676 48.796616 11.684969 46.259794 z "
     style="font-size:12;fill:url(#linearGradient869);fill-rule:evenodd;stroke:none;stroke-width:6.25;stroke-dasharray:none;stroke-opacity:1;"
     id="path1306"
     sodipodi:nodetypes="cccccccccc" />
  <path
     d="M 5.9907637 43.313966 C 5.582575 42.267936 12.259889 6.4493066 14.590666 4.4712705 C 16.914804 2.4771924 52.320924 8.6171469 52.716676 9.6312432 C 53.085342 10.575992 25.225297 4.0715333 17.31393 9.7744719 C 9.6499217 15.299096 6.3469935 44.22678 5.9907637 43.313966 z "
     style="font-size:12;opacity:0.7;fill:url(#linearGradient581);fill-rule:evenodd;stroke:none;stroke-width:1pt;"
     id="path1310" />
  <path
     d="M 12.489796 45.022735 C 12.402743 44.823752 14.595032 33.369371 15.356501 32.982892 C 16.49317 32.357804 24.514779 34.505091 24.601306 34.702915 C 24.681933 34.887249 18.231111 33.404677 16.468298 34.72821 C 14.678821 36.089156 12.570001 45.206014 12.489796 45.022735 z "
     style="font-size:12;opacity:0.7;fill:url(#linearGradient583);fill-rule:evenodd;stroke:none;stroke-width:1pt;"
     id="path1315"
     sodipodi:nodetypes="ccccc" />
  <path
     d="M 15.522239 44.173978 C 15.479661 44.06753 17.299175 45.244249 17.672269 44.818985 C 18.493601 43.88267 19.060617 39.976679 19.105515 40.089028 C 19.156104 40.215607 18.952062 44.826363 18.156552 45.733275 C 17.757639 46.188048 15.575253 44.306351 15.522239 44.173978 z "
     style="font-size:12;opacity:0.990000;fill:url(#linearGradient860);fill-rule:evenodd;stroke:none;stroke-width:1pt;"
     id="path1316" />
  <path
     d="M 21.328475 9.5736994 C 28.526013 10.698881 36.827861 12.408153 43.688139 14.340753 C 44.131002 14.46554 43.698046 15.817951 43.23779 15.746071 C 36.096745 14.629953 27.800482 12.724859 20.884559 10.776555 C 20.497448 10.667474 20.924819 9.5106721 21.328475 9.5736994 z "
     style="font-size:12;opacity:0.25;fill-rule:evenodd;stroke-width:1pt;"
     id="path1379" />
  <path
     d="M 20.517473 13.582025 C 27.71501 14.707101 36.016752 16.416373 42.877134 18.349081 C 43.319893 18.473867 42.887041 19.826277 42.426788 19.754399 C 35.285743 18.638175 26.989373 16.733187 20.073556 14.784882 C 19.686339 14.6758 20.113814 13.518895 20.517473 13.582025 z "
     style="font-size:12;opacity:0.25;fill-rule:evenodd;stroke-width:1pt;"
     id="path1380" />
  <path
     d="M 19.632694 17.804513 C 26.83023 18.929483 35.13208 20.638756 41.992356 22.571463 C 42.43522 22.696248 42.002157 24.048658 41.542114 23.976781 C 34.401069 22.860556 26.104702 20.955569 19.188777 19.007263 C 18.801665 18.898181 19.229141 17.741276 19.632694 17.804513 z "
     style="font-size:12;opacity:0.25;fill-rule:evenodd;stroke-width:1pt;"
     id="path1381" />
</svg>
