<?xml version="1.0" encoding="UTF-8" standalone="no"?>
<!DOCTYPE svg PUBLIC "-//W3C//DTD SVG 20010904//EN"
"http://www.w3.org/TR/2001/REC-SVG-20010904/DTD/svg10.dtd">
<!-- Created with Inkscape (http://www.inkscape.org/) -->
<svg
   id="svg1"
   sodipodi:version="0.32"
   inkscape:version="0.37"
   width="48pt"
   height="48pt"
   sodipodi:docbase="/home/dan/Projects/Lila-gtk/gtk-2.0"
   sodipodi:docname="stock_align_left.svg"
   xmlns="http://www.w3.org/2000/svg"
   xmlns:inkscape="http://www.inkscape.org/namespaces/inkscape"
   xmlns:sodipodi="http://sodipodi.sourceforge.net/DTD/sodipodi-0.dtd"
   xmlns:xlink="http://www.w3.org/1999/xlink">
  <defs
     id="defs3">
    <linearGradient
       id="linearGradient584">
      <stop
         style="stop-color:#ffffff;stop-opacity:1;"
         offset="0.00000000"
         id="stop585" />
      <stop
         style="stop-color:#ffffff;stop-opacity:0;"
         offset="1.00000000"
         id="stop586" />
    </linearGradient>
    <linearGradient
       id="linearGradient578">
      <stop
         style="stop-color:#faf8fd;stop-opacity:1;"
         offset="0.00000000"
         id="stop579" />
      <stop
         style="stop-color:#d9cce6;stop-opacity:1;"
         offset="1.00000000"
         id="stop580" />
    </linearGradient>
    <linearGradient
       xlink:href="#linearGradient578"
       id="linearGradient581"
       x1="0.00000000"
       y1="0.00000000"
       x2="1.00000000"
       y2="0.99218750" />
    <linearGradient
       xlink:href="#linearGradient584"
       id="linearGradient583"
       x1="-0.00000000"
       y1="0.00000000"
       x2="0.99264705"
       y2="0.97656250" />
    <linearGradient
       xlink:href="#linearGradient584"
       id="linearGradient654"
       x1="-0.00000000"
       y1="-0.00000000"
       x2="0.96341461"
       y2="0.99218750" />
    <linearGradient
       xlink:href="#linearGradient584"
       id="linearGradient655"
       x1="-0.00000000"
       y1="-0.00000000"
       x2="0.98148149"
       y2="0.95312500" />
    <linearGradient
       xlink:href="#linearGradient584"
       id="linearGradient713" />
  </defs>
  <sodipodi:namedview
     id="base"
     pagecolor="#ffffff"
     bordercolor="#666666"
     borderopacity="1.0"
     inkscape:pageopacity="0.0"
     inkscape:pageshadow="2"
     inkscape:zoom="5.64233870"
     inkscape:cx="26.8166098"
     inkscape:cy="23.8130291"
     inkscape:window-width="640"
     inkscape:window-height="516"
     inkscape:window-x="96"
     inkscape:window-y="127" />
  <path
     style="fill:#000000;fill-rule:evenodd;stroke:none;stroke-opacity:1;stroke-width:1.875;stroke-linejoin:miter;stroke-linecap:butt;fill-opacity:1;stroke-dasharray:none;opacity:0.296369;"
     d="M 7.1868452 7.9441926 C 9.42878 6.0057716 56.506175 6.008534 58.453988 7.9441926 C 60.421504 9.7244595 59.741231 55.956242 57.929069 57.811551 C 56.402537 59.378594 9.0868708 59.833611 7.1868452 57.986524 C 5.145072 55.826666 4.7553959 10.070304 7.1868452 7.9441926 z "
     id="path712"
     sodipodi:nodetypes="cssss" />
  <path
     style="font-size:12;fill:url(#linearGradient581);fill-rule:evenodd;stroke:#261933;stroke-width:1.875;stroke-dasharray:none;"
     d="M 5.9004566 6.6209014 C 8.025818 4.7832713 52.655346 4.7858901 54.501879 6.6209013 C 56.36709 8.308599 55.722189 52.136483 54.004254 53.895323 C 52.557096 55.380884 7.701687 55.812241 5.9004566 54.061197 C 3.9648487 52.013644 3.5954344 8.6364611 5.9004566 6.6209014 z "
     id="path684"
     sodipodi:nodetypes="cssss" />
  <path
     style="fill:url(#linearGradient583);fill-rule:evenodd;stroke:none;stroke-opacity:1;stroke-width:1pt;stroke-linejoin:miter;stroke-linecap:butt;fill-opacity:1;"
     d="M 7.3933331 50.080193 C 6.6679984 49.354858 6.2074668 11.534699 7.7250834 8.943154 C 9.047055 6.851575 50.294511 8.2191651 51.0185 8.943154 C 51.676804 9.6014583 15.538383 9.7065422 11.871962 13.090032 C 7.7474953 16.730348 8.0502912 50.737151 7.3933331 50.080193 z "
     id="path691"
     sodipodi:nodetypes="cssss" />
  <path
     style="fill:#261933;fill-rule:evenodd;stroke:none;stroke-opacity:1;stroke-width:1pt;stroke-linejoin:miter;stroke-linecap:butt;fill-opacity:1;"
     d="M 13.002114 13.846078 C 23.592561 12.975275 37.237142 12.97536 47.778852 13.846078 C 48.777171 13.928536 48.62918 16.622808 47.6222 16.705608 C 37.036934 17.575985 23.540735 17.576071 13.002114 16.705608 C 12.000705 16.622894 12.000314 13.928451 13.002114 13.846078 z "
     id="path852"
     sodipodi:nodetypes="cssss" />
  <path
     style="fill:#261933;fill-rule:evenodd;stroke:none;stroke-opacity:1;stroke-width:1pt;stroke-linejoin:miter;stroke-linecap:butt;fill-opacity:1;"
     d="M 13.174388 24.249995 C 19.595067 23.379192 27.867379 23.379277 34.258512 24.249995 C 34.863761 24.332454 34.774039 27.026725 34.163536 27.109525 C 27.746 27.979902 19.563646 27.979988 13.174388 27.109525 C 12.567263 27.026812 12.567027 24.332368 13.174388 24.249995 z "
     id="path853"
     sodipodi:nodetypes="cssss" />
  <path
     style="fill:#261933;fill-rule:evenodd;stroke:none;stroke-opacity:1;stroke-width:1pt;stroke-linejoin:miter;stroke-linecap:butt;fill-opacity:1;"
     d="M 13.081753 33.989295 C 23.12234 33.118492 36.05849 33.118577 46.052871 33.989295 C 46.999357 34.071754 46.85905 36.766025 45.904353 36.848825 C 35.868677 37.719202 23.073205 37.719288 13.081753 36.848825 C 12.132337 36.766111 12.131967 34.071668 13.081753 33.989295 z "
     id="path854"
     sodipodi:nodetypes="cssss" />
  <path
     style="fill:#261933;fill-rule:evenodd;stroke:none;stroke-opacity:1;stroke-width:1pt;stroke-linejoin:miter;stroke-linecap:butt;fill-opacity:1;"
     d="M 12.844582 43.923256 C 20.548268 43.052453 30.473584 43.052538 38.141816 43.923256 C 38.868012 44.005715 38.760361 46.699986 38.027865 46.782786 C 30.32795 47.653163 20.510568 47.653249 12.844582 46.782786 C 12.11614 46.700072 12.115855 44.005629 12.844582 43.923256 z "
     id="path855"
     sodipodi:nodetypes="cssss" />
</svg>
