<?xml version="1.0" encoding="UTF-8" standalone="no"?>
<!DOCTYPE svg PUBLIC "-//W3C//DTD SVG 20010904//EN"
"http://www.w3.org/TR/2001/REC-SVG-20010904/DTD/svg10.dtd">
<!-- Created with Inkscape (http://www.inkscape.org/) -->
<svg
   id="svg1"
   sodipodi:version="0.32"
   inkscape:version="0.37"
   width="48pt"
   height="48pt"
   sodipodi:docbase="/home/dan/Projects/Lila-gtk/gtk-2.0"
   sodipodi:docname="stock_zoom_in.svg"
   xmlns="http://www.w3.org/2000/svg"
   xmlns:inkscape="http://www.inkscape.org/namespaces/inkscape"
   xmlns:sodipodi="http://sodipodi.sourceforge.net/DTD/sodipodi-0.dtd"
   xmlns:xlink="http://www.w3.org/1999/xlink">
  <defs
     id="defs3">
    <linearGradient
       id="linearGradient584">
      <stop
         style="stop-color:#ffffff;stop-opacity:1;"
         offset="0.00000000"
         id="stop585" />
      <stop
         style="stop-color:#ffffff;stop-opacity:0;"
         offset="1.00000000"
         id="stop586" />
    </linearGradient>
    <linearGradient
       id="linearGradient578">
      <stop
         style="stop-color:#d9cce6;stop-opacity:1;"
         offset="0.00000000"
         id="stop579" />
      <stop
         style="stop-color:#73667f;stop-opacity:1;"
         offset="1.00000000"
         id="stop580" />
    </linearGradient>
    <linearGradient
       xlink:href="#linearGradient578"
       id="linearGradient581"
       x1="0.00000000"
       y1="-0.00000000"
       x2="1.00704229"
       y2="1.01562500" />
    <linearGradient
       xlink:href="#linearGradient578"
       id="linearGradient583"
       x1="0.02307692"
       y1="0.01562500"
       x2="0.96923077"
       y2="0.97656250" />
    <linearGradient
       xlink:href="#linearGradient584"
       id="linearGradient654"
       x1="0.00000002"
       y1="-0.00000001"
       x2="0.99242425"
       y2="1.00000012" />
    <linearGradient
       xlink:href="#linearGradient584"
       id="linearGradient655"
       x1="0.00000000"
       y1="-0.00000000"
       x2="0.96551722"
       y2="0.98437500" />
    <linearGradient
       xlink:href="#linearGradient584"
       id="linearGradient653"
       x1="0.00000000"
       y1="-0.00000000"
       x2="0.97945207"
       y2="0.97656250" />
    <linearGradient
       xlink:href="#linearGradient584"
       id="linearGradient682"
       x1="0.02307692"
       y1="0.01562500"
       x2="0.96923077"
       y2="0.97656250" />
  </defs>
  <sodipodi:namedview
     id="base"
     pagecolor="#ffffff"
     bordercolor="#666666"
     borderopacity="1.0"
     inkscape:pageopacity="0.0"
     inkscape:pageshadow="2"
     inkscape:zoom="5.64233875"
     inkscape:cx="19.7350662"
     inkscape:cy="25.4986317"
     inkscape:window-width="640"
     inkscape:window-height="516"
     inkscape:window-x="59"
     inkscape:window-y="258" />
  <path
     d="M 50.761394 29.850076 C 50.761394 42.22776 40.715686 52.273466 28.338007 52.273466 C 15.960147 52.273466 5.9144335 42.22776 5.9144335 29.850076 C 5.9144335 17.472398 15.960147 7.426687 28.338007 7.426687 C 40.715686 7.426687 50.761394 17.472398 50.761394 29.850076 z M 45.205129 29.850076 C 45.205129 38.941685 37.648542 46.320356 28.338007 46.320356 C 19.027289 46.320356 11.470879 38.941685 11.470879 29.850076 C 11.470879 20.758468 19.027289 13.379619 28.338007 13.379619 C 37.648542 13.379619 45.205129 20.758468 45.205129 29.850076 z "
     style="font-size:12;opacity:0.3;fill-rule:evenodd;stroke-width:13.4904;"
     id="path1566" />
  <path
     d="M 48.846925 26.976392 C 48.846925 39.354071 38.161177 50.039818 25.783494 50.039818 C 13.405636 50.039818 2.7198871 39.354071 2.7198871 26.976392 C 2.7198871 14.598711 13.405636 3.9129603 25.783494 3.9129603 C 38.161177 3.9129603 48.846925 14.598711 48.846925 26.976392 z M 41.37055 26.976392 C 41.37055 36.068 35.09403 42.166593 25.783494 42.166593 C 16.472781 42.166593 10.196445 36.068 10.196445 26.976392 C 10.196445 17.884781 16.472781 11.786008 25.783494 11.786008 C 35.09403 11.786008 41.37055 17.884781 41.37055 26.976392 z "
     style="font-size:12;fill:url(#linearGradient583);fill-rule:evenodd;stroke:#261933;stroke-width:1.875;stroke-dasharray:none;"
     id="path1525"
     sodipodi:nodetypes="cccccccccs" />
  <path
     d="M 39.944131 44.540075 C 39.72299 44.105174 41.523852 42.119064 41.958561 42.347013 C 43.515473 43.162825 44.920858 45.563559 46.686837 46.793925 C 50.300188 49.311367 55.39059 50.813414 58.09674 53.590827 C 58.966064 54.482972 58.154601 57.30981 57.303214 58.021281 C 56.369736 58.801606 53.092008 59.824282 51.974409 58.943551 C 48.867489 56.495742 46.746596 52.016801 43.97139 48.694013 C 42.736504 47.215546 40.64985 45.928397 39.944131 44.540075 z "
     style="font-size:12;opacity:0.3;fill-rule:evenodd;stroke-width:13.4904;"
     id="path1565"
     sodipodi:nodetypes="ccsccccc" />
  <ellipse
     cx="373.574921"
     cy="328.786621"
     rx="115.024445"
     ry="115.024429"
     transform="matrix(0.129538,0.000000,0.000000,0.126491,-22.60893,-14.61187)"
     style="font-size:12;fill-rule:evenodd;stroke-width:1pt;fill:url(#linearGradient654);"
     id="path1521" />
  <path
     d="M 39.09658 42.166681 C 38.875438 41.731781 40.566624 39.965029 41.001331 40.192979 C 42.558243 41.008788 43.963635 43.40951 45.729607 44.639888 C 49.342968 47.157321 54.433357 48.659379 57.139519 51.436792 C 58.00884 52.328936 56.978014 55.155772 56.126627 55.867243 C 55.19315 56.647571 52.24446 57.45089 51.126858 56.570158 C 48.019937 54.122349 45.899046 49.643408 43.12384 46.320621 C 41.888953 44.842153 39.802297 43.555004 39.09658 42.166681 z "
     style="font-size:12;fill:url(#linearGradient581);fill-rule:evenodd;stroke:#261933;stroke-width:1.875;stroke-dasharray:none;"
     id="path1531"
     sodipodi:nodetypes="cccccccc" />
  <path
     d="M 7.2710428 35.325294 C 5.6744278 32.132066 4.0779956 21.594675 10.943306 13.452108 C 19.245546 5.9482635 27.867151 7.065659 31.379556 7.5446962 C 25.7915 7.8640547 20.043767 7.0658394 12.539918 14.410189 C 5.5149282 21.275315 7.4307212 31.493531 7.2710428 35.325294 z "
     style="font-size:12;opacity:0.7;fill-rule:evenodd;stroke:none;stroke-width:1pt;fill:url(#linearGradient655);"
     id="path1533" />
  <path
     d="M 39.971751 42.013051 C 39.963887 41.962033 40.122502 41.695244 40.204882 41.758727 C 40.956054 42.338052 42.465016 43.893813 42.472305 43.941378 C 42.479113 43.985683 41.008988 42.621624 40.247267 42.034244 C 40.175439 41.978815 39.978079 42.053903 39.971751 42.013051 z "
     style="font-size:12;opacity:0.7;fill-rule:evenodd;stroke:none;stroke-width:1pt;fill:url(#linearGradient653);"
     id="path1538" />
  <path
     style="font-size:12;fill:#000000;fill-rule:evenodd;stroke:none;stroke-width:18.75;stroke-dasharray:none;fill-opacity:1;opacity:0.296369;"
     d="M 24.195871 17.336295 C 23.647774 18.151551 24.691705 24.852768 24.119165 25.467254 C 23.624692 26.080055 16.564892 25.00424 15.758083 25.467254 C 14.895228 26.044469 14.761969 29.158047 15.681376 29.60944 C 16.553425 30.075245 23.597723 28.947839 24.119165 29.609442 C 24.666006 30.129239 23.420315 36.990138 24.042457 37.970521 C 24.622529 38.847947 27.744116 38.792074 28.33806 37.893813 C 28.928034 36.924848 27.990008 30.267051 28.491473 29.686148 C 29.011817 29.160084 35.928831 30.236387 36.545725 29.686148 C 37.381088 29.023448 37.50631 25.963288 36.622432 25.390547 C 35.840554 24.834198 29.00722 25.868061 28.414765 25.390547 C 27.784839 24.897715 28.886155 18.040966 28.33806 17.259589 C 27.78739 16.397477 24.73946 16.45167 24.195871 17.336295 z "
     id="path656"
     sodipodi:nodetypes="cssssssssssss" />
  <path
     style="font-size:12;fill:url(#linearGradient581);fill-rule:evenodd;stroke:#261933;stroke-width:1.875;stroke-dasharray:none;"
     d="M 23.664439 17.598057 C 23.164193 18.342138 24.116987 24.458318 23.594429 25.019158 C 23.143125 25.578459 16.699667 24.596567 15.963295 25.019158 C 15.17577 25.54598 15.054145 28.387735 15.893284 28.79972 C 16.689199 29.224857 23.118512 28.195878 23.594429 28.799721 C 24.09353 29.274139 22.956589 35.53606 23.524419 36.430853 C 24.05385 37.231681 26.902913 37.180682 27.445001 36.360844 C 27.983471 35.476471 27.127336 29.399919 27.585022 28.869732 C 28.059939 28.389595 34.373078 29.371932 34.936116 28.869732 C 35.698548 28.264887 35.812838 25.471887 35.006125 24.949149 C 34.29251 24.441369 28.055744 25.384973 27.515011 24.949149 C 26.940079 24.499341 27.945247 18.241208 27.445001 17.528047 C 26.942409 16.7412 24.160571 16.790662 23.664439 17.598057 z "
     id="path650"
     sodipodi:nodetypes="cssssssssssss" />
  <path
     style="fill:url(#linearGradient682);fill-rule:evenodd;stroke:none;stroke-opacity:1;stroke-width:1pt;stroke-linejoin:miter;stroke-linecap:butt;fill-opacity:1;"
     d="M 16.200522 28.05286 C 16.057424 27.883744 15.86971 26.017972 16.467633 25.849201 C 18.629846 25.2389 22.760985 26.776843 24.147044 25.448538 C 25.432086 24.217039 23.856055 20.198374 24.414154 18.236568 C 24.590607 17.616311 26.565016 17.790101 26.684588 17.969459 C 26.787609 18.123989 25.072677 18.48316 24.948374 19.104677 C 24.516198 21.265556 25.935433 24.791824 24.681265 25.982757 C 23.286593 27.307109 19.447545 26.168805 17.001852 26.650532 C 16.509335 26.747544 16.302275 28.173112 16.200522 28.05286 z "
     id="path651"
     sodipodi:nodetypes="cssssssss" />
  <path
     style="fill:url(#linearGradient655);fill-rule:evenodd;stroke:none;stroke-opacity:1;stroke-width:1pt;stroke-linejoin:miter;stroke-linecap:butt;fill-opacity:1;opacity:0.800828;"
     d="M 24.213822 35.932602 C 24.103398 35.366687 24.290852 30.036595 24.480931 29.054522 C 24.557962 28.656527 25.050599 30.879612 25.01515 31.792398 C 24.961562 33.172305 24.281472 36.279312 24.213822 35.932602 z "
     id="path652"
     sodipodi:nodetypes="csss" />
  <path
     style="fill:url(#linearGradient654);fill-rule:evenodd;stroke:none;stroke-opacity:1;stroke-width:1pt;stroke-linejoin:miter;stroke-linecap:butt;fill-opacity:1;opacity:0.800828;"
     d="M 27.753029 25.915981 C 29.130287 25.598151 34.250797 25.456678 34.564332 25.582092 C 34.807274 25.67927 31.138088 26.316948 29.422465 26.4502 C 28.845393 26.495021 27.394073 25.998817 27.753029 25.915981 z "
     id="path653"
     sodipodi:nodetypes="csss" />
</svg>
