<?xml version="1.0" encoding="UTF-8" standalone="no"?>
<!DOCTYPE svg PUBLIC "-//W3C//DTD SVG 20010904//EN"
"http://www.w3.org/TR/2001/REC-SVG-20010904/DTD/svg10.dtd">
<!-- Created with Inkscape (http://www.inkscape.org/) -->
<svg
   id="svg1"
   sodipodi:version="0.32"
   inkscape:version="0.39"
   width="48pt"
   height="48pt"
   sodipodi:docbase="/home/scaba/files/lila/lila-gnome/Lila/scalable"
   sodipodi:docname="gtk-print-preview.svg"
   xmlns="http://www.w3.org/2000/svg"
   xmlns:cc="http://web.resource.org/cc/"
   xmlns:inkscape="http://www.inkscape.org/namespaces/inkscape"
   xmlns:sodipodi="http://sodipodi.sourceforge.net/DTD/sodipodi-0.dtd"
   xmlns:rdf="http://www.w3.org/1999/02/22-rdf-syntax-ns#"
   xmlns:dc="http://purl.org/dc/elements/1.1/"
   xmlns:xlink="http://www.w3.org/1999/xlink">
  <defs
     id="defs3">
    <linearGradient
       xlink:href="#linearGradient578"
       id="linearGradient1461"
       x1="-0.00000000"
       y1="0.00000000"
       x2="0.99295777"
       y2="1.00781250" />
    <linearGradient
       id="linearGradient916">
      <stop
         style="stop-color:#cccccc;stop-opacity:1;"
         offset="0.00000000"
         id="stop917" />
      <stop
         style="stop-color:#7f7f7f;stop-opacity:1;"
         offset="1.00000000"
         id="stop918" />
    </linearGradient>
    <linearGradient
       id="linearGradient866">
      <stop
         style="stop-color:#ffffff;stop-opacity:1;"
         offset="0.00000000"
         id="stop867" />
      <stop
         style="stop-color:#d9cce6;stop-opacity:1;"
         offset="1.00000000"
         id="stop868" />
    </linearGradient>
    <linearGradient
       id="linearGradient584">
      <stop
         style="stop-color:#ffffff;stop-opacity:1;"
         offset="0.00000000"
         id="stop585" />
      <stop
         style="stop-color:#ffffff;stop-opacity:0;"
         offset="1.00000000"
         id="stop586" />
    </linearGradient>
    <linearGradient
       id="linearGradient578">
      <stop
         style="stop-color:#d9cce6;stop-opacity:1;"
         offset="0.00000000"
         id="stop579" />
      <stop
         style="stop-color:#73667f;stop-opacity:1;"
         offset="1.00000000"
         id="stop580" />
    </linearGradient>
    <linearGradient
       xlink:href="#linearGradient584"
       id="linearGradient581"
       x1="0.01515152"
       y1="0.00775194"
       x2="1.00000000"
       y2="0.98449612" />
    <linearGradient
       xlink:href="#linearGradient584"
       id="linearGradient583" />
    <linearGradient
       xlink:href="#linearGradient584"
       id="linearGradient860"
       x1="0.00724638"
       y1="0.02739726"
       x2="0.99637681"
       y2="0.95890409" />
    <linearGradient
       xlink:href="#linearGradient584"
       id="linearGradient861"
       x1="-0.00000000"
       y1="-0.01818182"
       x2="1.00362325"
       y2="0.92727274" />
    <linearGradient
       xlink:href="#linearGradient584"
       id="linearGradient862"
       x1="0.00362319"
       y1="-0.00000000"
       x2="0.98913044"
       y2="0.96103895" />
    <linearGradient
       xlink:href="#linearGradient578"
       id="linearGradient869"
       x1="-0.00000000"
       y1="0.00917431"
       x2="0.99275362"
       y2="0.96330273" />
    <linearGradient
       xlink:href="#linearGradient578"
       id="linearGradient915"
       x1="0.00362319"
       y1="-0.00000000"
       x2="1.01086962"
       y2="1.02362204" />
    <linearGradient
       xlink:href="#linearGradient578"
       id="linearGradient1046"
       x1="-0.00000000"
       y1="0.00775194"
       x2="0.97549021"
       y2="0.96899223" />
    <linearGradient
       xlink:href="#linearGradient578"
       id="linearGradient1047"
       x1="0.00362319"
       y1="0.01626016"
       x2="1.00000000"
       y2="0.97560978" />
    <linearGradient
       xlink:href="#linearGradient584"
       id="linearGradient1106"
       x1="0.01677185"
       y1="0.00454466"
       x2="0.97643667"
       y2="1.00106704" />
    <linearGradient
       xlink:href="#linearGradient866"
       id="linearGradient1107"
       x1="0.01683684"
       y1="0.00517791"
       x2="0.98230928"
       y2="0.98697507" />
    <linearGradient
       xlink:href="#linearGradient866"
       id="linearGradient1113"
       x1="0.30833334"
       y1="0.25000000"
       x2="0.69166666"
       y2="0.50000000" />
  </defs>
  <sodipodi:namedview
     id="base"
     pagecolor="#ffffff"
     bordercolor="#666666"
     borderopacity="1.0"
     inkscape:pageopacity="0.0"
     inkscape:pageshadow="2"
     inkscape:zoom="10.685169"
     inkscape:cx="27.838378"
     inkscape:cy="24.147319"
     inkscape:window-width="1018"
     inkscape:window-height="711"
     inkscape:window-x="0"
     inkscape:window-y="30" />
  <metadata
     id="metadata1002">
    <rdf:RDF
       id="RDF1003">
      <cc:Work
         rdf:about=""
         id="Work1004">
        <dc:format
           id="format1005">image/svg+xml</dc:format>
        <dc:type
           id="type1007"
           rdf:resource="http://purl.org/dc/dcmitype/StillImage" />
      </cc:Work>
    </rdf:RDF>
  </metadata>
  <path
     style="font-size:12.000000;opacity:0.29999998;fill:#000000;fill-opacity:1.0000000;fill-rule:evenodd;stroke:none;stroke-width:1.8750000;"
     d="M 30.011295,8.9721325 C 29.376749,9.5384695 26.132014,18.341973 24.042545,24.815883 C 22.690441,24.535546 18.782295,23.564248 18.605045,23.597133 C 17.138445,23.732699 6.8792665,31.355665 6.1987955,32.472133 C 5.6241605,33.506464 5.7322605,44.587887 6.7612955,45.284633 C 6.8637935,45.357187 10.170212,46.383100 11.042546,46.690883 L 6.8237955,50.034633 L 27.667545,57.097133 L 32.198795,53.440883 C 39.409601,55.607104 45.830617,57.425447 46.355045,57.190883 C 47.856151,56.457252 57.740915,47.453197 58.136295,46.503383 C 58.377105,45.773266 59.097025,33.894189 57.823795,33.190883 C 57.208145,32.877494 49.541689,30.928059 42.542545,29.159633 C 44.983061,21.916409 47.823277,12.701591 47.511295,12.065883 C 47.033265,11.031544 30.792812,8.2786965 30.011295,8.9721325 z "
     id="path947" />
  <path
     d="M 4.6422038,42.014196 C 5.5831198,42.680236 42.902155,54.546633 44.241839,53.947425 C 45.742944,53.213793 55.632134,44.205219 56.027514,43.255405 C 56.268324,42.525290 56.999584,30.652949 55.726354,29.949643 C 54.137784,29.141003 17.751128,20.092916 16.479320,20.328872 C 15.012721,20.464438 4.7684668,28.104540 4.0879958,29.221008 C 3.5133628,30.255337 3.6131688,41.317450 4.6422038,42.014196 z "
     style="font-size:12.000000;fill:url(#linearGradient1046);fill-rule:evenodd;stroke:#261933;stroke-width:1.8750000;"
     id="path562"
     sodipodi:nodetypes="ccccccc" />
  <path
     d="M 5.5962358,40.678135 C 5.3660688,40.275336 4.6035228,30.424156 5.5477758,30.207594 C 6.6595658,29.917544 40.271270,39.643296 40.482794,40.013582 C 40.680249,40.359055 10.309695,31.723152 6.6184608,32.354682 C 5.1638208,32.593680 5.7750478,40.991000 5.5962358,40.678135 z "
     style="font-size:12.000000;opacity:0.69993597;fill:url(#linearGradient862);fill-rule:evenodd;stroke:none;stroke-width:0.96353598pt;"
     id="path587"
     sodipodi:nodetypes="ccccc" />
  <path
     d="M 5.7224668,29.579633 C 5.6604348,29.318268 14.743361,21.765036 16.888007,21.730759 C 23.077872,22.195124 53.167794,30.356021 53.229094,30.614404 C 53.289284,30.868167 28.576568,23.836059 17.252885,23.267025 C 13.008405,23.418446 5.7820368,29.830419 5.7224668,29.579633 z "
     style="font-size:12.000000;opacity:0.69993597;fill:url(#linearGradient861);fill-rule:evenodd;stroke:none;stroke-width:0.96353598pt;"
     id="path592"
     sodipodi:nodetypes="ccccc" />
  <path
     d="M 43.831635,52.347275 C 43.566304,52.214562 42.752785,41.735804 43.270426,40.454016 C 43.916025,38.629014 54.454704,30.893200 54.715094,31.023440 C 54.965884,31.148835 46.645454,37.308247 44.960394,41.220920 C 43.629263,44.312025 44.077478,52.470197 43.831635,52.347275 z "
     style="font-size:12.000000;opacity:0.69993597;fill:url(#linearGradient581);fill-rule:evenodd;stroke:none;stroke-width:0.96353598pt;"
     id="path594"
     sodipodi:nodetypes="ccccc" />
  <path
     d="M 34.721136,48.043342 L 11.890112,41.002296 L 11.873949,39.537349 L 34.704913,46.552235 L 34.721136,48.043342 z "
     style="font-size:12.000000;opacity:0.99000001;fill:#1e262e;fill-rule:evenodd;stroke:#000000;stroke-width:0.59416902;stroke-linecap:round;stroke-linejoin:round;"
     id="path596"
     sodipodi:nodetypes="ccccc" />
  <path
     d="M 12.210415,40.836457 L 33.554100,47.371541 L 25.544232,53.826629 L 4.7240958,46.774086 L 12.210415,40.836457 z "
     style="font-size:12.000000;fill:url(#linearGradient1047);fill-rule:evenodd;stroke:#261933;stroke-width:1.8554713;stroke-linecap:round;stroke-linejoin:round;"
     id="path718" />
  <ellipse
     cx="410.20490"
     cy="422.40900"
     rx="11.720139"
     ry="11.720139"
     transform="matrix(0.138281,0.000000,0.000000,0.138281,-17.59977,-14.24609)"
     style="font-size:12.000000;fill:#80ff80;fill-rule:evenodd;stroke:#003f00;stroke-width:6.8748899;stroke-linecap:round;stroke-linejoin:round;"
     id="path722"
     d="M 421.92503 422.40900 A 11.720139 11.720139 0 1 0 398.48476,422.40900 A 11.720139 11.720139 0 1 0 421.92503 422.40900 z"
     sodipodi:cx="410.20490"
     sodipodi:cy="422.40900"
     sodipodi:rx="11.720139"
     sodipodi:ry="11.720139" />
  <path
     d="M 45.011094,25.639527 C 44.041156,25.222887 24.411573,19.728850 23.073197,19.643828 C 22.101873,19.310308 17.964985,22.714188 17.481021,23.596841 C 16.825777,24.524068 16.314403,29.428193 17.692954,29.301639 C 18.823849,29.076219 22.184604,25.615335 22.871798,25.636600 C 24.362489,25.512973 42.774224,31.023894 44.454114,30.990888 C 45.669544,30.503647 45.891084,26.613000 45.011094,25.639527 z "
     style="font-size:12.000000;fill:url(#linearGradient915);fill-rule:evenodd;stroke:#261933;stroke-width:1.6434103;"
     id="path955"
     sodipodi:nodetypes="ccccccc" />
  <path
     d="M 20.136658,28.257166 C 20.509460,29.419538 36.487266,34.827078 37.551695,33.967027 C 38.504581,33.188974 45.857274,9.7642825 45.396674,8.8257445 C 44.918644,7.7914045 28.673638,5.0246029 27.892121,5.7180395 C 26.929400,6.5772754 19.746563,26.923972 20.136658,28.257166 z "
     style="font-size:12.000000;fill:url(#linearGradient1107);fill-rule:evenodd;stroke:#261933;stroke-width:1.9875723;"
     id="path634" />
  <path
     d="M 21.241933,27.186758 C 21.079862,26.760450 27.982259,7.1217095 28.609372,6.7228411 C 29.393416,6.2021896 41.929798,8.7095315 42.091485,9.1348425 C 42.239689,9.5246505 32.305377,7.5875115 30.065051,9.5409705 C 25.769660,13.180815 21.389755,27.575589 21.241933,27.186758 z "
     style="font-size:12.000000;opacity:0.69993597;fill:url(#linearGradient1106);fill-rule:evenodd;stroke:none;stroke-width:1.0000000pt;"
     id="path640" />
  <path
     d="M 17.306308,29.236500 C 18.276248,29.653140 37.905832,35.147178 39.244209,35.232199 C 40.976699,35.020267 44.352418,32.161839 44.836384,31.279185 C 45.491624,30.351958 46.003004,25.447832 44.624454,25.574386 C 43.493556,25.799808 40.132800,29.260692 39.445607,29.239427 C 37.954916,29.363055 19.455661,23.569237 17.775769,23.602242 C 16.560342,24.089483 16.426325,28.263027 17.306308,29.236500 z "
     style="font-size:12.000000;fill:url(#linearGradient915);fill-rule:evenodd;stroke:#261933;stroke-width:1.6434103;"
     id="path951"
     sodipodi:nodetypes="ccccccc" />
  <path
     d="M 17.975879,28.317822 C 17.864459,28.111011 17.634595,25.028161 18.248205,24.849572 C 18.993179,24.714308 38.726391,30.442444 38.825591,30.626731 C 38.496953,30.887121 24.735370,26.411941 18.833125,25.789710 C 17.746626,25.694645 18.058454,28.471158 17.975879,28.317822 z "
     style="font-size:12.000000;opacity:0.69993597;fill:url(#linearGradient860);fill-rule:evenodd;stroke:none;stroke-width:1.0000000pt;"
     id="path719"
     sodipodi:nodetypes="ccccc" />
  <path
     d="M 39.552249,34.311728 C 39.476191,34.263832 39.542290,31.080122 39.736456,30.709023 C 39.985348,30.177936 44.277154,27.085018 44.351796,27.132024 C 44.423684,27.177286 40.847566,29.860809 40.223220,30.990478 C 39.730007,31.882942 39.622722,34.356098 39.552249,34.311728 z "
     style="font-size:12.000000;opacity:0.69993597;fill:url(#linearGradient581);fill-rule:evenodd;stroke:none;stroke-width:0.96353598pt;"
     id="path954"
     sodipodi:nodetypes="ccccc" />
  <path
     d="M 43.253664,28.341012 C 43.253664,35.200972 37.686129,40.768506 30.826170,40.768506 C 23.966111,40.768506 18.398575,35.200972 18.398575,28.341012 C 18.398575,21.481053 23.966111,15.913517 30.826170,15.913517 C 37.686129,15.913517 43.253664,21.481053 43.253664,28.341012 z M 40.174269,28.341012 C 40.174269,33.379764 35.986256,37.469171 30.826170,37.469171 C 25.665983,37.469171 21.478069,33.379764 21.478069,28.341012 C 21.478069,23.302259 25.665983,19.212752 30.826170,19.212752 C 35.986256,19.212752 40.174269,23.302259 40.174269,28.341012 z "
     style="font-size:12.000000;opacity:0.29999998;fill-rule:evenodd;stroke-width:13.490400;"
     id="path1566" />
  <path
     d="M 42.192624,26.748357 C 42.192624,33.608316 36.270369,39.530573 29.410408,39.530573 C 22.550350,39.530573 16.628093,33.608316 16.628093,26.748357 C 16.628093,19.888397 22.550350,13.966139 29.410408,13.966139 C 36.270369,13.966139 42.192624,19.888397 42.192624,26.748357 z M 38.049068,26.748357 C 38.049068,31.787110 34.570495,35.167073 29.410408,35.167073 C 24.250224,35.167073 20.771752,31.787110 20.771752,26.748357 C 20.771752,21.709604 24.250224,18.329540 29.410408,18.329540 C 34.570495,18.329540 38.049068,21.709604 38.049068,26.748357 z "
     style="font-size:12.000000;fill:url(#linearGradient869);fill-rule:evenodd;stroke:#261933;stroke-width:1.8770700;"
     id="path1525"
     sodipodi:nodetypes="cccccccccs" />
  <path
     d="M 37.989413,38.167027 C 37.736451,37.669549 39.796438,35.397660 40.293696,35.658410 C 42.074634,36.591606 43.682234,39.337779 45.702324,40.745182 C 49.835594,43.624856 55.658440,45.343032 58.753980,48.520084 C 59.748390,49.540598 58.820170,52.774187 57.846280,53.588030 C 56.778480,54.480637 53.029124,55.650465 51.750714,54.643005 C 48.196744,51.842984 45.770674,46.719572 42.596154,42.918672 C 41.183577,41.227469 38.796675,39.755113 37.989413,38.167027 z "
     style="font-size:12.000000;opacity:0.29999998;fill-rule:evenodd;stroke-width:13.490400;"
     id="path1565"
     sodipodi:nodetypes="ccsccccc" />
  <path
     d="M 37.019908,35.452129 C 36.766946,34.954652 38.701474,32.933683 39.198731,33.194433 C 40.979666,34.127628 42.587284,36.873789 44.607354,38.281204 C 48.740634,41.160867 54.563470,42.879055 57.659030,46.056107 C 58.653430,47.076621 57.474290,50.310208 56.500390,51.124052 C 55.432590,52.016659 52.059624,52.935568 50.781214,51.928107 C 47.227234,49.128086 44.801174,44.004674 41.626645,40.203775 C 40.214073,38.512572 37.827170,37.040216 37.019908,35.452129 z "
     style="font-size:12.000000;fill:url(#linearGradient1461);fill-rule:evenodd;stroke:#261933;stroke-width:1.8750000;"
     id="path1531"
     sodipodi:nodetypes="cccccccc" />
  <path
     d="M 19.150435,31.375487 C 18.265559,29.605736 17.380784,23.765702 21.185677,19.252927 C 25.786946,15.094145 30.565213,15.713428 32.511858,15.978920 C 29.414845,16.155915 26.229336,15.713528 22.070552,19.783914 C 18.177161,23.588706 19.238932,29.251847 19.150435,31.375487 z "
     style="font-size:12.000000;opacity:0.69999999;fill:url(#linearGradient860);fill-rule:evenodd;stroke:none;stroke-width:1.0000000pt;"
     id="path1533" />
  <path
     d="M 38.021005,35.276393 C 38.012010,35.218035 38.193449,34.912858 38.287680,34.985476 C 39.146939,35.648158 40.873025,37.427776 40.881362,37.482186 C 40.889150,37.532866 39.207491,35.972532 38.336166,35.300636 C 38.254003,35.237231 38.028245,35.323124 38.021005,35.276393 z "
     style="font-size:12.000000;opacity:0.69999999;fill:url(#linearGradient861);fill-rule:evenodd;stroke:none;stroke-width:1.0000000pt;"
     id="path1538" />
  <ellipse
     cx="373.57492"
     cy="328.78662"
     rx="115.02444"
     ry="115.02443"
     transform="matrix(7.179272e-2,0.000000,0.000000,7.010354e-2,2.590350,3.699306)"
     style="font-size:12.000000;fill:url(#linearGradient862);fill-rule:evenodd;stroke-width:1.0000000pt;"
     id="path1521"
     d="M 488.59936 328.78662 A 115.02444 115.02443 0 1 0 258.55048,328.78662 A 115.02444 115.02443 0 1 0 488.59936 328.78662 z"
     sodipodi:cx="373.57492"
     sodipodi:cy="328.78662"
     sodipodi:rx="115.02444"
     sodipodi:ry="115.02443" />
</svg>
