<?xml version="1.0" encoding="UTF-8" standalone="no"?>
<!DOCTYPE svg PUBLIC "-//W3C//DTD SVG 20010904//EN"
"http://www.w3.org/TR/2001/REC-SVG-20010904/DTD/svg10.dtd">
<!-- Created with Inkscape (http://www.inkscape.org/) -->
<svg
   id="svg1"
   sodipodi:version="0.32"
   inkscape:version="0.37"
   width="48pt"
   height="48pt"
   sodipodi:docbase="/home/dan/Projects/Lila-gtk/gtk-2.0"
   sodipodi:docname="stock_unindent.svg"
   xmlns="http://www.w3.org/2000/svg"
   xmlns:inkscape="http://www.inkscape.org/namespaces/inkscape"
   xmlns:sodipodi="http://sodipodi.sourceforge.net/DTD/sodipodi-0.dtd"
   xmlns:xlink="http://www.w3.org/1999/xlink">
  <defs
     id="defs3">
    <linearGradient
       id="linearGradient1085">
      <stop
         style="stop-color:#faf8fd;stop-opacity:1;"
         offset="0.00000000"
         id="stop1086" />
      <stop
         style="stop-color:#ffffff;stop-opacity:0;"
         offset="1.00000000"
         id="stop1087" />
    </linearGradient>
    <linearGradient
       id="linearGradient584">
      <stop
         style="stop-color:#d9cce6;stop-opacity:1;"
         offset="0.00000000"
         id="stop585" />
      <stop
         style="stop-color:#73667f;stop-opacity:1;"
         offset="1.00000000"
         id="stop586" />
    </linearGradient>
    <linearGradient
       id="linearGradient578">
      <stop
         style="stop-color:#faf8fd;stop-opacity:1;"
         offset="0.00000000"
         id="stop579" />
      <stop
         style="stop-color:#d9cce6;stop-opacity:1;"
         offset="1.00000000"
         id="stop580" />
    </linearGradient>
    <linearGradient
       xlink:href="#linearGradient578"
       id="linearGradient581"
       x1="0.00000000"
       y1="0.00000000"
       x2="1.00000000"
       y2="0.99218750" />
    <linearGradient
       xlink:href="#linearGradient1085"
       id="linearGradient583"
       x1="0.00000000"
       y1="-0.00000000"
       x2="0.99264705"
       y2="0.97656250" />
    <linearGradient
       xlink:href="#linearGradient1085"
       id="linearGradient654"
       x1="0.00000000"
       y1="0.00000000"
       x2="0.99635035"
       y2="0.94444442" />
    <linearGradient
       xlink:href="#linearGradient584"
       id="linearGradient655"
       x1="-0.00000000"
       y1="-0.00000000"
       x2="1.00000000"
       y2="0.99218750" />
    <linearGradient
       xlink:href="#linearGradient1085"
       id="linearGradient713"
       x1="-0.00000000"
       y1="-0.00000000"
       x2="0.99264705"
       y2="0.97656250" />
  </defs>
  <sodipodi:namedview
     id="base"
     pagecolor="#ffffff"
     bordercolor="#666666"
     borderopacity="1.0"
     inkscape:pageopacity="0.0"
     inkscape:pageshadow="2"
     inkscape:zoom="5.64233870"
     inkscape:cx="13.2008511"
     inkscape:cy="24.8477736"
     inkscape:window-width="640"
     inkscape:window-height="516"
     inkscape:window-x="147"
     inkscape:window-y="86" />
  <path
     style="fill:#000000;fill-rule:evenodd;stroke:none;stroke-opacity:1;stroke-width:1.875;stroke-linejoin:miter;stroke-linecap:butt;fill-opacity:1;stroke-dasharray:none;opacity:0.296369;"
     d="M 7.1868452 7.9441926 C 9.42878 6.0057716 56.506175 6.008534 58.453988 7.9441926 C 60.421504 9.7244595 59.741231 55.956242 57.929069 57.811551 C 56.402537 59.378594 9.0868708 59.833611 7.1868452 57.986524 C 5.145072 55.826666 4.7553959 10.070304 7.1868452 7.9441926 z "
     id="path712"
     sodipodi:nodetypes="cssss" />
  <path
     style="font-size:12;fill:url(#linearGradient581);fill-rule:evenodd;stroke:#261933;stroke-width:1.875;stroke-dasharray:none;"
     d="M 5.9004566 6.6209014 C 8.025818 4.7832713 52.655346 4.7858901 54.501879 6.6209013 C 56.36709 8.308599 55.722189 52.136483 54.004254 53.895323 C 52.557096 55.380884 7.701687 55.812241 5.9004566 54.061197 C 3.9648487 52.013644 3.5954344 8.6364611 5.9004566 6.6209014 z "
     id="path684"
     sodipodi:nodetypes="cssss" />
  <path
     style="fill:url(#linearGradient583);fill-rule:evenodd;stroke:none;stroke-opacity:1;stroke-width:1pt;stroke-linejoin:miter;stroke-linecap:butt;fill-opacity:1;"
     d="M 7.3933331 50.080193 C 6.6679984 49.354858 6.2074668 11.534699 7.7250834 8.943154 C 9.047055 6.851575 50.294511 8.2191651 51.0185 8.943154 C 51.676804 9.6014583 15.538383 9.7065422 11.871962 13.090032 C 7.7474953 16.730348 8.0502912 50.737151 7.3933331 50.080193 z "
     id="path691"
     sodipodi:nodetypes="cssss" />
  <path
     style="fill:#261933;fill-rule:evenodd;stroke:none;stroke-opacity:1;stroke-width:1pt;stroke-linejoin:miter;stroke-linecap:butt;fill-opacity:1;"
     d="M 13.002114 13.846078 C 23.592561 12.975275 37.237142 12.97536 47.778852 13.846078 C 48.777171 13.928536 48.62918 16.622808 47.6222 16.705608 C 37.036934 17.575985 23.540735 17.576071 13.002114 16.705608 C 12.000705 16.622894 12.000314 13.928451 13.002114 13.846078 z "
     id="path852"
     sodipodi:nodetypes="cssss" />
  <path
     style="fill:#261933;fill-rule:evenodd;stroke:none;stroke-opacity:1;stroke-width:1pt;stroke-linejoin:miter;stroke-linecap:butt;fill-opacity:1;"
     d="M 25.802131 23.806917 C 32.22281 22.936114 40.495122 22.936199 46.886255 23.806917 C 47.491504 23.889376 47.401782 26.583647 46.791279 26.666447 C 40.373743 27.536824 32.191389 27.53691 25.802131 26.666447 C 25.195006 26.583734 25.19477 23.88929 25.802131 23.806917 z "
     id="path853"
     sodipodi:nodetypes="cssss" />
  <path
     style="fill:#261933;fill-rule:evenodd;stroke:none;stroke-opacity:1;stroke-width:1pt;stroke-linejoin:miter;stroke-linecap:butt;fill-opacity:1;"
     d="M 13.524832 42.850868 C 23.565419 41.980065 36.501569 41.98015 46.49595 42.850868 C 47.442436 42.933327 47.302129 45.627598 46.347432 45.710398 C 36.311756 46.580775 23.516284 46.580861 13.524832 45.710398 C 12.575416 45.627684 12.575046 42.933241 13.524832 42.850868 z "
     id="path854"
     sodipodi:nodetypes="cssss" />
  <path
     style="fill:#261933;fill-rule:evenodd;stroke:none;stroke-opacity:1;stroke-width:1pt;stroke-linejoin:miter;stroke-linecap:butt;fill-opacity:1;"
     d="M 25.802131 33.333109 C 32.22281 32.462306 40.495122 32.462391 46.886255 33.333109 C 47.491504 33.415568 47.401782 36.109839 46.791279 36.192639 C 40.373743 37.063016 32.191389 37.063102 25.802131 36.192639 C 25.195006 36.109926 25.19477 33.415482 25.802131 33.333109 z "
     id="path1079"
     sodipodi:nodetypes="cssss" />
  <path
     style="font-size:12;fill:#000000;fill-rule:evenodd;stroke:none;stroke-width:14.8479;fill-opacity:1;opacity:0.302675;"
     d="M 22.712794 34.405439 C 23.164312 34.12311 22.996424 27.284075 22.712794 26.906289 C 22.375484 26.475916 16.885307 27.186821 16.43633 26.906289 C 16.046576 26.690467 16.817375 23.284667 16.43633 23.40125 C 16.082082 23.522537 8.80871 28.908829 8.7741554 30.411326 C 8.7897296 31.825816 15.938187 37.718648 16.43633 37.828964 C 16.875336 37.916103 16.170554 34.496289 16.517843 34.242414 C 16.955126 33.906011 22.225863 34.745951 22.712794 34.405439 z "
     id="path617"
     sodipodi:nodetypes="csssssss" />
  <path
     style="font-size:12;fill:url(#linearGradient655);fill-rule:evenodd;stroke:#261933;stroke-width:1.875;stroke-dasharray:none;"
     d="M 21.766919 33.701934 C 22.171179 33.449154 22.020863 27.325921 21.766919 26.987676 C 21.464914 26.602347 16.549361 27.238847 16.147376 26.987676 C 15.798415 26.794443 16.48854 23.745107 16.147376 23.849489 C 15.830205 23.958082 9.3180937 28.689122 9.2871563 30.125862 C 9.3011298 31.438056 15.701371 36.668368 16.147376 36.767139 C 16.540433 36.845157 15.909417 33.783275 16.220357 33.555972 C 16.611872 33.254777 21.330953 34.006807 21.766919 33.701934 z "
     id="path589"
     sodipodi:nodetypes="csssssss" />
  <path
     style="fill:#261e2e;fill-rule:evenodd;stroke:none;stroke-opacity:1;stroke-width:1pt;stroke-linejoin:miter;stroke-linecap:butt;fill-opacity:1;opacity:0.201783;"
     d="M 21.965565 30.27042 C 21.452149 30.212639 9.7234411 29.889259 9.349096 30.238069 C 9.0396917 30.494018 14.514631 35.845331 16.077879 36.611005 C 16.62816 36.880529 15.447492 33.80443 16.11023 33.473062 C 17.302221 32.877066 20.275554 34.14592 21.642066 33.602461 C 21.932451 33.500726 22.304083 30.312158 21.965565 30.27042 z "
     id="path644"
     sodipodi:nodetypes="csssss" />
  <path
     style="fill:url(#linearGradient713);fill-rule:evenodd;stroke:none;stroke-opacity:1;stroke-width:1pt;stroke-linejoin:miter;stroke-linecap:butt;fill-opacity:1;"
     d="M 10.813065 29.950159 C 11.827835 28.327237 14.895404 26.211048 14.941681 26.216189 C 14.986476 26.221167 12.363167 28.607063 11.298785 29.919802 C 11.148869 30.104698 11.340422 30.713723 11.298785 30.709096 C 11.24935 30.703604 10.673759 30.179822 10.813065 29.950159 z "
     id="path665"
     sodipodi:nodetypes="cssss" />
  <path
     style="fill:url(#linearGradient654);fill-rule:evenodd;stroke:none;stroke-opacity:1;stroke-width:1pt;stroke-linejoin:miter;stroke-linecap:butt;fill-opacity:1;"
     d="M 15.86726 28.283206 C 16.924786 28.289968 20.477123 28.072796 20.64641 28.157439 C 20.784553 28.226511 18.049564 28.711194 16.789552 28.744352 C 16.456514 28.753117 15.639166 28.317916 15.86726 28.283206 z "
     id="path666"
     sodipodi:nodetypes="csss" />
</svg>
