<?xml version="1.0" encoding="UTF-8" standalone="no"?>
<!DOCTYPE svg PUBLIC "-//W3C//DTD SVG 20010904//EN"
"http://www.w3.org/TR/2001/REC-SVG-20010904/DTD/svg10.dtd">
<!-- Created with Inkscape (http://www.inkscape.org/) -->
<svg
   id="svg1"
   sodipodi:version="0.32"
   inkscape:version="0.37"
   width="48pt"
   height="48pt"
   sodipodi:docbase="/usr/share/themes/Lila/gtk-2.0"
   sodipodi:docname="stock_top.svg"
   xmlns="http://www.w3.org/2000/svg"
   xmlns:inkscape="http://www.inkscape.org/namespaces/inkscape"
   xmlns:sodipodi="http://sodipodi.sourceforge.net/DTD/sodipodi-0.dtd"
   xmlns:xlink="http://www.w3.org/1999/xlink">
  <defs
     id="defs3">
    <linearGradient
       id="linearGradient584">
      <stop
         style="stop-color:#ffffff;stop-opacity:1;"
         offset="0.00000000"
         id="stop585" />
      <stop
         style="stop-color:#ffffff;stop-opacity:0;"
         offset="1.00000000"
         id="stop586" />
    </linearGradient>
    <linearGradient
       id="linearGradient578">
      <stop
         style="stop-color:#d9cce6;stop-opacity:1;"
         offset="0.00000000"
         id="stop579" />
      <stop
         style="stop-color:#73667f;stop-opacity:1;"
         offset="1.00000000"
         id="stop580" />
    </linearGradient>
    <linearGradient
       xlink:href="#linearGradient578"
       id="linearGradient581"
       x1="0.00694444"
       y1="0.02142857"
       x2="0.98611110"
       y2="0.97857141" />
    <linearGradient
       xlink:href="#linearGradient578"
       id="linearGradient583"
       x1="0.00342466"
       y1="0.03125000"
       x2="0.99657536"
       y2="0.96875000" />
    <linearGradient
       xlink:href="#linearGradient584"
       id="linearGradient612"
       x1="0.00000000"
       y1="0.01923077"
       x2="0.98287672"
       y2="0.94230771" />
    <linearGradient
       xlink:href="#linearGradient584"
       id="linearGradient614"
       x1="0.00342466"
       y1="0.03125000"
       x2="0.99657536"
       y2="0.96875000" />
    <linearGradient
       xlink:href="#linearGradient584"
       id="linearGradient844"
       x1="0.00342466"
       y1="0.02380952"
       x2="1.02054799"
       y2="0.95238096" />
  </defs>
  <sodipodi:namedview
     id="base"
     pagecolor="#ffffff"
     bordercolor="#666666"
     borderopacity="1.0"
     inkscape:pageopacity="0.0"
     inkscape:pageshadow="2"
     inkscape:zoom="7.97947198"
     inkscape:cx="26.6197580"
     inkscape:cy="24.0844104"
     inkscape:window-width="640"
     inkscape:window-height="516"
     inkscape:window-x="181"
     inkscape:window-y="116" />
  <path
     style="font-size:12;fill-rule:evenodd;stroke-width:12.5;opacity:0.302675;"
     d="M 18.253037 58.683248 C 19.173178 60.154792 41.462311 59.607629 42.693549 58.683248 C 44.096183 57.583921 41.779263 39.690861 42.693549 38.227599 C 43.39694 36.95735 54.496793 39.469465 54.116832 38.227599 C 53.721548 37.073066 36.032195 13.44516 31.270268 13.255768 C 26.296569 13.255768 7.454947 36.604096 7.0954116 38.227599 C 6.8114181 39.658363 17.956952 37.361405 18.784354 38.493256 C 19.880728 39.918406 17.143272 57.096293 18.253037 58.683248 z "
     id="path591"
     sodipodi:nodetypes="csssssss" />
  <path
     style="font-size:12;fill-rule:evenodd;stroke-width:12.5;opacity:0.302675;"
     d="M 8.53416 12.550284 C 10.358455 13.468645 50.791043 13.781309 52.661663 12.697585 C 54.492988 11.75924 54.210826 2.8703472 52.661663 2.004048 C 50.859036 0.87935624 9.9325335 1.0296106 8.5184089 2.004048 C 7.1110162 2.8676938 6.9619982 11.827793 8.53416 12.550284 z "
     id="path592"
     sodipodi:nodetypes="cssss" />
  <path
     style="font-size:12;fill:url(#linearGradient581);fill-rule:evenodd;stroke:#261933;stroke-width:1.87419;"
     d="M 18.785692 55.40325 C 19.609736 56.721109 39.571042 56.23109 40.673688 55.40325 C 41.929832 54.418734 39.854902 38.394384 40.673688 37.083942 C 41.303622 35.946355 51.244228 38.196111 50.903959 37.083942 C 50.549956 36.049986 35.065715 14.720114 30.44343 14.720114 C 25.634866 14.54296 9.1153295 35.629995 8.7933423 37.083942 C 8.5390097 38.365281 18.520529 36.308212 19.261518 37.321856 C 20.243391 38.598166 17.791828 53.982032 18.785692 55.40325 z "
     id="path589"
     sodipodi:nodetypes="csssssss" />
  <path
     style="font-size:12;fill:url(#linearGradient583);fill-rule:evenodd;stroke:#261933;stroke-width:1.87419;"
     d="M 9.7594264 11.035964 C 11.430896 11.740352 48.476313 11.980168 50.190217 11.148943 C 51.868124 10.429226 51.609608 3.6113771 50.190217 2.9469189 C 48.538597 2.0842725 11.040654 2.1995182 9.7449952 2.9469189 C 8.4555058 3.6093412 8.3189721 10.481806 9.7594264 11.035964 z "
     id="path590"
     sodipodi:nodetypes="cssss" />
  <path
     style="fill:#261e2e;fill-rule:evenodd;stroke:none;stroke-opacity:1;stroke-width:1pt;stroke-linejoin:miter;stroke-linecap:butt;fill-opacity:1;opacity:0.201783;"
     d="M 30.474621 56.059728 C 30.285264 54.377183 29.225501 15.940318 30.368605 14.713528 C 31.207381 13.699562 48.744508 31.64182 51.25373 36.764835 C 52.137005 38.568192 42.056139 34.698956 40.970198 36.870851 C 39.017016 40.777202 43.175256 50.521291 41.394262 54.99957 C 41.060852 55.951206 30.611402 57.169105 30.474621 56.059728 z "
     id="path644"
     sodipodi:nodetypes="csssss" />
  <path
     style="fill:#261e2e;fill-rule:evenodd;stroke:none;stroke-opacity:1;stroke-width:1pt;stroke-linejoin:miter;stroke-linecap:butt;fill-opacity:1;opacity:0.195478;"
     d="M 30.26656 10.866749 C 30.026091 10.856489 30.127368 3.00944 30.391828 2.9749091 C 34.663778 2.2918422 45.454345 1.422676 50.184055 3.3507119 C 52.01 4.0950441 51.908214 10.294122 50.058789 10.992016 C 45.26904 12.79947 35.325723 11.008679 30.26656 10.866749 z "
     id="path646"
     sodipodi:nodetypes="cssss" />
  <path
     style="fill:url(#linearGradient614);fill-rule:evenodd;stroke:none;stroke-opacity:1;stroke-width:1pt;stroke-linejoin:miter;stroke-linecap:butt;fill-opacity:1;"
     d="M 20.414868 53.797037 C 20.215295 52.799171 20.806335 39.759801 21.291742 36.697988 C 21.439632 35.765151 22.402643 40.099442 22.314762 41.81309 C 22.110352 45.799124 20.556301 54.504203 20.414868 53.797037 z "
     id="path706"
     sodipodi:nodetypes="csss" />
  <path
     style="fill:url(#linearGradient612);fill-rule:evenodd;stroke:none;stroke-opacity:1;stroke-width:1pt;stroke-linejoin:miter;stroke-linecap:butt;fill-opacity:1;"
     d="M 11.854289 36.259552 C 11.879405 35.907935 22.615449 21.219117 29.391773 16.383736 C 30.274447 15.740007 32.486583 17.923096 32.460842 18.283631 C 32.437866 18.605109 30.031663 18.036381 29.245628 18.722067 C 23.162812 24.028355 11.83069 36.589948 11.854289 36.259552 z "
     id="path707"
     sodipodi:nodetypes="cssss" />
  <path
     style="fill:url(#linearGradient844);fill-rule:evenodd;stroke:none;stroke-opacity:1;stroke-width:1pt;stroke-linejoin:miter;stroke-linecap:butt;fill-opacity:1;"
     d="M 10.922873 9.3225853 C 10.657192 9.0569062 9.6760815 4.723994 11.100028 4.5394088 C 22.43122 3.0705494 48.947723 4.121679 49.188289 4.3622528 C 49.420132 4.5940927 24.097388 4.4555189 12.517265 5.9566458 C 11.342249 6.1089622 11.129605 9.5293183 10.922873 9.3225853 z "
     id="path843"
     sodipodi:nodetypes="cssss" />
</svg>
