<?xml version="1.0" encoding="UTF-8" standalone="no"?>
<!DOCTYPE svg PUBLIC "-//W3C//DTD SVG 20010904//EN"
"http://www.w3.org/TR/2001/REC-SVG-20010904/DTD/svg10.dtd">
<!-- Created with Inkscape (http://www.inkscape.org/) -->
<svg
   id="svg1"
   sodipodi:version="0.32"
   inkscape:version="0.39"
   width="48pt"
   height="48pt"
   sodipodi:docbase="/home/scaba/files/pre-release/lila-gnome/Lila"
   sodipodi:docname="gtk-color-picker.svg"
   xmlns="http://www.w3.org/2000/svg"
   xmlns:cc="http://web.resource.org/cc/"
   xmlns:inkscape="http://www.inkscape.org/namespaces/inkscape"
   xmlns:sodipodi="http://sodipodi.sourceforge.net/DTD/sodipodi-0.dtd"
   xmlns:rdf="http://www.w3.org/1999/02/22-rdf-syntax-ns#"
   xmlns:dc="http://purl.org/dc/elements/1.1/"
   xmlns:xlink="http://www.w3.org/1999/xlink">
  <defs
     id="defs3">
    <linearGradient
       id="linearGradient584">
      <stop
         style="stop-color:#ffffff;stop-opacity:1;"
         offset="0.00000000"
         id="stop585" />
      <stop
         style="stop-color:#ffffff;stop-opacity:0;"
         offset="1.00000000"
         id="stop586" />
    </linearGradient>
    <linearGradient
       id="linearGradient578">
      <stop
         style="stop-color:#faf8fd;stop-opacity:1;"
         offset="0.00000000"
         id="stop579" />
      <stop
         style="stop-color:#d9cce6;stop-opacity:1;"
         offset="1.00000000"
         id="stop580" />
    </linearGradient>
    <linearGradient
       xlink:href="#linearGradient578"
       id="linearGradient581"
       x1="0.33606556"
       y1="0.35156250"
       x2="0.59016395"
       y2="0.58593750" />
    <linearGradient
       xlink:href="#linearGradient584"
       id="linearGradient583"
       x1="-0.00000000"
       y1="-0.00000000"
       x2="0.98245615"
       y2="1.01562500" />
    <linearGradient
       xlink:href="#linearGradient584"
       id="linearGradient654"
       x1="0.00000000"
       y1="-0.00000000"
       x2="0.99009901"
       y2="1.00000000" />
    <linearGradient
       xlink:href="#linearGradient584"
       id="linearGradient655" />
  </defs>
  <sodipodi:namedview
     id="base"
     pagecolor="#ffffff"
     bordercolor="#666666"
     borderopacity="1.0"
     inkscape:pageopacity="0.0"
     inkscape:pageshadow="2"
     inkscape:zoom="7.9794719"
     inkscape:cx="18.601947"
     inkscape:cy="22.500948"
     inkscape:window-width="1022"
     inkscape:window-height="695"
     inkscape:window-x="0"
     inkscape:window-y="26" />
  <metadata
     id="metadata21">
    <rdf:RDF
       id="RDF22">
      <cc:Work
         rdf:about=""
         id="Work23">
        <dc:format
           id="format24">image/svg+xml</dc:format>
        <dc:type
           id="type26"
           rdf:resource="http://purl.org/dc/dcmitype/StillImage" />
      </cc:Work>
    </rdf:RDF>
  </metadata>
  <path
     style="font-size:12.000000;opacity:0.29591838;fill:#000000;fill-opacity:1.0000000;fill-rule:evenodd;stroke:none;stroke-width:1.8500000;stroke-miterlimit:4.0000000;stroke-opacity:1.0000000;"
     d="M 47.590288,5.8235525 C 45.649786,5.6929955 43.724241,5.9670296 42.609491,6.7151768 C 40.359792,8.2250232 41.172710,13.986426 39.227468,16.307823 C 38.018797,17.750214 32.622465,16.919760 33.139826,17.998835 C 33.384889,18.509969 34.023968,19.207556 34.707855,19.935812 C 30.293573,24.541748 13.230132,43.320628 12.294267,44.686070 C 11.409668,45.976715 9.2624519,48.254431 7.5901805,51.942047 C 6.5101871,54.323597 5.2934716,58.578690 5.8991691,58.952057 C 6.5741352,59.368122 11.412912,57.312203 13.708567,55.877491 C 16.362922,54.218607 19.142329,51.402500 19.826955,50.650729 C 20.171378,50.272524 33.731290,35.218647 41.933086,25.685251 C 42.826016,26.204727 43.679191,26.658090 44.269756,26.792095 C 45.469189,27.064255 43.691098,21.908904 45.038398,20.704453 C 47.725497,18.302258 54.947149,18.495692 56.383547,15.969621 C 57.490476,14.022958 54.884525,8.7656187 52.663323,7.2685987 C 51.480216,6.4712223 49.530789,5.9541096 47.590288,5.8235525 z "
     id="path931" />
  <path
     style="font-size:12.000000;fill:url(#linearGradient581);fill-rule:evenodd;stroke:#261933;stroke-width:1.8199943;"
     d="M 34.324958,15.481096 C 31.299477,18.511507 11.653633,40.153586 10.666525,41.593791 C 9.7819249,42.884436 7.6254102,45.161593 5.9531383,48.849209 C 4.8731448,51.230759 3.6816472,55.459985 4.2873446,55.833352 C 4.9623097,56.249419 9.8002433,54.214446 12.095900,52.779734 C 14.750253,51.120849 17.517956,48.306884 18.202582,47.555113 C 18.569053,47.152699 33.794963,30.317620 41.723987,20.990721 C 43.296286,19.141227 36.092931,13.710242 34.324958,15.481096 z "
     id="path925"
     sodipodi:nodetypes="csssssss" />
  <path
     style="fill:url(#linearGradient583);fill-opacity:1.0000000;fill-rule:evenodd;stroke:none;stroke-width:1.0000000pt;stroke-linecap:butt;stroke-linejoin:miter;stroke-opacity:1.0000000;"
     d="M 8.0996400,48.196615 C 7.7944808,47.866028 22.812739,28.276102 32.884830,19.610016 C 33.514169,19.060231 35.379466,21.068712 34.709507,21.586750 C 23.538983,29.954574 8.4027065,48.524938 8.0996400,48.196615 z "
     id="path896"
     sodipodi:nodetypes="csss" />
  <path
     style="font-size:12.000000;fill:#261933;fill-rule:evenodd;stroke:#261933;stroke-width:1.9728546;"
     d="M 31.518745,14.891013 C 32.680314,17.313732 39.875090,23.067631 42.639530,23.694902 C 43.838963,23.967063 42.063065,18.793762 43.410364,17.589311 C 46.097464,15.187116 53.306330,15.401036 54.742728,12.874964 C 55.849656,10.928301 53.261548,5.6681243 51.040346,4.1711043 C 48.674132,2.5763515 43.209984,2.1033528 40.980481,3.5996471 C 38.730782,5.1094935 39.547982,10.868129 37.602740,13.189525 C 36.394069,14.631916 31.001384,13.811938 31.518745,14.891013 z "
     id="path889"
     sodipodi:nodetypes="csssssss" />
  <path
     style="fill:url(#linearGradient654);fill-opacity:1.0000000;fill-rule:evenodd;stroke:none;stroke-width:1.0000000pt;stroke-linecap:butt;stroke-linejoin:miter;stroke-opacity:1.0000000;"
     d="M 32.506233,14.717553 C 32.376444,14.513874 36.808259,15.045950 37.773319,13.847371 C 39.526008,11.670584 38.509026,6.1747814 40.659477,4.5914553 C 43.040289,2.8385180 51.070654,3.5764245 51.367109,3.8385819 C 51.624380,4.0660894 44.390250,4.2241188 42.320649,6.0604500 C 40.137528,7.9975064 40.625035,13.380393 38.608946,15.158745 C 37.353563,16.266093 32.654986,14.950999 32.506233,14.717553 z "
     id="path897"
     sodipodi:nodetypes="cssssss" />
</svg>
