<?xml version="1.0" encoding="UTF-8" standalone="no"?>
<!DOCTYPE svg PUBLIC "-//W3C//DTD SVG 20010904//EN"
"http://www.w3.org/TR/2001/REC-SVG-20010904/DTD/svg10.dtd">
<!-- Created with Inkscape (http://www.inkscape.org/) -->
<svg
   version="1.0"
   x="0"
   y="0"
   width="48pt"
   height="48pt"
   id="svg1"
   sodipodi:version="0.32"
   inkscape:version="0.37"
   sodipodi:docname="stock_network.svg"
   sodipodi:docbase="/home/dan/Projects/Lila-gtk/gtk-2.0"
   xmlns="http://www.w3.org/2000/svg"
   xmlns:inkscape="http://www.inkscape.org/namespaces/inkscape"
   xmlns:sodipodi="http://sodipodi.sourceforge.net/DTD/sodipodi-0.dtd"
   xmlns:xlink="http://www.w3.org/1999/xlink">
  <sodipodi:namedview
     id="base"
     inkscape:zoom="6.99187184"
     inkscape:cx="26.6988378"
     inkscape:cy="22.4514457"
     inkscape:window-width="501"
     inkscape:window-height="533"
     inkscape:window-x="342"
     inkscape:window-y="287" />
  <defs
     id="defs3">
    <linearGradient
       id="linearGradient570">
      <stop
         style="stop-color:#ffffff;stop-opacity:1;"
         offset="0"
         id="stop571" />
      <stop
         style="stop-color:#ffffff;stop-opacity:0;"
         offset="1"
         id="stop572" />
    </linearGradient>
    <linearGradient
       id="linearGradient563">
      <stop
         style="stop-color:#d9cce6;stop-opacity:1;"
         offset="0.00000000"
         id="stop564" />
      <stop
         style="stop-color:#73667f;stop-opacity:1;"
         offset="1.00000000"
         id="stop565" />
    </linearGradient>
    <linearGradient
       x1="0.00980392"
       y1="0.01562500"
       x2="0.98529410"
       y2="0.97656250"
       id="linearGradient566"
       xlink:href="#linearGradient563" />
    <linearGradient
       x1="0.007273"
       y1="-0.030301"
       x2="0.985455"
       y2="1.045454"
       id="linearGradient569"
       xlink:href="#linearGradient570" />
    <linearGradient
       x1="0.007273"
       y1="0.013158"
       x2="0.978182"
       y2="0.973684"
       id="linearGradient573"
       xlink:href="#linearGradient570" />
    <linearGradient
       x1="0.006712"
       y1="0.046874"
       x2="1.020134"
       y2="0.984375"
       id="linearGradient575"
       xlink:href="#linearGradient570" />
    <linearGradient
       id="linearGradient578"
       xlink:href="#linearGradient570" />
  </defs>
  <path
     d="M 2.2716739 49.584741 C 3.2366079 50.169766 31.15176 57.199234 32.925376 56.857308 C 34.719984 56.536068 58.148996 36.925505 59.06311 35.20507 C 59.839068 33.909806 59.981398 26.648142 59.06311 25.949307 C 57.85893 25.198114 31.753698 19.808284 30.051501 20.329629 C 28.294898 20.825812 2.7664896 37.587864 1.8611271 38.841354 C 0.99313677 40.022918 1.5187626 48.999415 2.2716739 49.584741 z "
     style="font-size:12;opacity:0.302675;fill-rule:evenodd;stroke-width:12.5;"
     id="path776" />
  <path
     d="M 2.7672668 47.03299 C 3.6866921 47.590419 30.2853 54.288359 31.975269 53.962464 C 33.685237 53.656563 56.009282 34.970794 56.880286 33.331498 C 57.619647 32.097321 57.755266 25.178031 56.880286 24.512165 C 55.732895 23.796487 30.858848 18.660757 29.236932 19.157612 C 27.563173 19.630396 3.2387457 35.601905 2.3760825 36.796189 C 1.5490287 37.922025 2.0498648 46.475169 2.7672668 47.03299 z "
     style="font-size:12;fill:url(#linearGradient566);fill-rule:evenodd;stroke:#261933;stroke-width:1.875;stroke-dasharray:none;"
     id="path679" />
  <path
     d="M 3.6800136 45.615619 C 3.4201497 45.081972 2.519936 37.923675 3.4192272 37.898625 C 4.7963271 37.856493 29.795432 43.841964 30.0193 44.301643 C 30.23006 44.734426 12.416064 40.170205 4.9075616 40.798601 C 3.6363659 40.905099 3.8547967 45.974524 3.6800136 45.615619 z "
     style="font-size:12;opacity:0.7;fill:url(#linearGradient569);fill-rule:evenodd;stroke:none;stroke-width:0.106691pt;"
     id="path680" />
  <path
     d="M 4.8535561 36.953647 C 4.897844 36.579212 28.15983 20.877579 29.758543 20.732446 C 31.412981 20.594104 54.707051 25.404713 54.663655 25.772069 C 54.620164 26.139713 35.719356 22.297863 29.682141 23.605535 C 24.186535 24.824083 4.8109187 37.314107 4.8535561 36.953647 z "
     style="font-size:12;opacity:0.7;fill:url(#linearGradient573);fill-rule:evenodd;stroke:none;stroke-width:0.106691pt;"
     id="path682" />
  <path
     d="M 31.975269 51.442557 C 31.644322 51.157142 30.748566 45.32758 31.507635 43.8674 C 32.392325 42.258781 54.223784 26.765003 54.533278 27.031975 C 54.832283 27.289912 39.167057 38.038713 33.148675 44.551431 C 31.647818 46.175675 32.252823 51.682249 31.975269 51.442557 z "
     style="font-size:12;opacity:0.7;fill:url(#linearGradient575);fill-rule:evenodd;stroke:none;stroke-width:0.106691pt;"
     id="path683" />
  <ellipse
     cx="410.204895"
     cy="422.408997"
     rx="11.720139"
     ry="11.720139"
     transform="matrix(0.141210,0.000000,0.000000,0.170551,-31.18802,-23.93649)"
     style="font-size:12;fill:#80ff80;fill-rule:evenodd;stroke:#003f00;stroke-width:6.25;stroke-linecap:round;stroke-linejoin:round;"
     id="path722" />
  <ellipse
     cx="286.926392"
     cy="278.069977"
     rx="278.198608"
     ry="278.198578"
     transform="matrix(5.180418e-2,0.000000,0.000000,5.180418e-2,17.29701,6.787613)"
     style="font-size:12;opacity:0.302675;fill-rule:evenodd;stroke-width:13.2536;"
     id="path1023" />
  <ellipse
     cx="286.926392"
     cy="278.069977"
     rx="278.198608"
     ry="278.198578"
     transform="matrix(5.180418e-2,0.000000,0.000000,5.180418e-2,14.89717,5.355983)"
     style="font-size:12;fill:url(#linearGradient566);fill-rule:evenodd;stroke:#261933;stroke-width:36.194;stroke-opacity:1;stroke-dasharray:none;"
     id="path983" />
  <path
     d="M 19.413194 10.096374 C 19.938193 9.8054771 20.515043 10.833778 21.224983 10.932098 C 21.859068 11.019818 23.400832 10.024473 24.229251 10.49795 C 24.778197 10.733095 24.311093 12.799804 24.143948 14.037158 C 23.933521 15.030251 23.26159 16.452713 22.841284 17.684082 C 22.622782 18.22358 21.104416 20.178181 21.042347 20.302318 C 20.980389 20.426345 21.637378 22.082743 21.228497 22.287294 C 20.802313 22.539522 20.275997 20.115125 19.367549 19.433801 C 18.975529 19.198546 18.071581 19.307633 17.754736 19.557994 C 17.377245 19.762708 17.702115 21.908128 18.250907 22.535457 C 18.813494 23.379091 19.660697 24.028061 20.173996 24.892514 C 20.839225 26.013037 21.249151 27.291148 21.786728 28.490438 C 21.786728 28.490438 21.343076 30.021328 21.405145 30.021328 C 21.467213 30.021328 22.345013 31.778024 22.345013 31.778024 C 20.542616 30.409009 19.091647 29.073223 17.878789 27.435885 C 17.023966 26.281799 16.342193 24.698068 16.1419 23.403808 C 16.073394 22.961201 16.901341 22.695627 17.072391 22.225281 C 17.386017 21.441134 15.741384 19.494937 15.674922 18.859149 C 15.593293 18.174531 16.007426 15.435562 16.948315 13.789051 C 17.62197 12.50292 18.408128 10.653176 19.413194 10.096374 z "
     style="font-size:12;opacity:0.504459;fill:#261933;fill-rule:evenodd;stroke:#000000;stroke-width:0.0627263pt;"
     id="path565" />
  <path
     d="M 30.098986 14.781538 C 29.763653 15.26309 29.404755 16.125069 29.602659 16.580255 C 29.818305 17.076087 30.751087 17.624759 31.339581 17.634865 C 31.950432 17.645412 32.574025 16.961124 33.20053 16.642378 C 33.75261 16.361533 34.285187 15.931119 34.875384 15.83593 C 35.567199 15.724373 36.547163 15.689218 37.046455 16.022135 C 37.415568 16.268266 37.5625 17.084875 37.480712 17.572907 C 37.307307 17.945042 36.727051 18.265436 36.922372 18.503382 C 37.093365 18.648337 38.28002 17.773998 38.473148 17.262786 C 38.631558 16.843578 37.879872 16.245965 37.97693 15.711959 C 38.055367 15.359213 39.344245 15.448415 39.775867 15.525918 C 40.131909 15.61254 40.477622 16.495502 40.830478 16.456337 C 41.153728 16.456337 41.960671 15.413262 42.048113 15.41815 C 42.384657 15.473737 42.629305 16.456337 42.629305 16.456337 C 42.050257 16.99397 41.583152 17.731923 40.892435 18.06918 C 39.804922 18.600275 38.521428 18.920063 37.294618 19.061667 C 35.295856 19.292308 32.926167 18.480642 31.215501 19.185694 C 29.865927 19.742 28.133618 21.573894 28.113955 22.845578 C 28.092258 24.24118 28.997576 26.613013 30.621018 26.756483 C 32.58633 26.972735 34.640129 27.415284 35.348255 28.320659 C 35.901487 29.02807 35.256746 31.69371 35.34584 32.575081 C 35.379348 32.867296 36.229846 32.349601 36.736336 32.088201 C 37.511911 31.687997 38.450078 30.897699 38.721257 30.041156 C 39.235819 28.416454 39.293709 26.401376 39.093556 24.644458 C 38.921521 23.134499 37.422327 20.401244 37.604849 20.24025 C 37.773808 20.091176 39.101245 23.112088 40.148001 23.71404 C 40.755392 24.063215 42.14918 23.548488 42.567289 23.093633 C 42.85231 22.783511 42.055307 21.599435 42.257113 21.418832 C 42.448206 21.247842 43.662328 22.446254 43.745875 22.039241 C 44.411484 18.948735 43.785858 16.666711 42.697797 13.805365 C 41.807421 11.621386 39.283441 8.6149202 36.58847 7.1411991 C 36.208973 6.9318262 34.564384 7.8584661 33.295335 8.6701771 C 32.571884 9.0322611 31.820143 10.122574 32.191674 10.384195 C 32.519208 10.64263 33.49011 9.7708181 34.177199 9.6160321 C 35.408897 9.3216191 35.981189 9.4812401 36.922372 9.9430161 C 36.922372 9.9430161 38.256348 11.046897 37.666751 11.865923 C 37.292478 12.361701 36.053967 12.362195 36.053967 12.362195 C 35.785151 12.21757 35.50469 11.873394 35.247518 11.927991 C 34.822436 12.018237 34.463593 12.591903 34.006925 12.796507 C 33.078152 13.212365 31.992672 13.297339 31.091418 13.789051 C 30.581799 13.906651 30.307821 14.464441 30.098986 14.781538 z "
     style="font-size:12;opacity:0.5;fill:#261933;fill-rule:evenodd;stroke:#000000;stroke-width:0.0627263pt;"
     id="path566" />
  <path
     d="M 19.024191 27.068083 C 18.841369 26.519722 11.916846 14.117991 25.078646 7.762291 C 31.04614 4.8530758 39.862411 10.246361 40.843122 13.474081 C 40.994162 13.962392 34.878715 6.9916039 26.163906 10.846658 C 14.817573 15.833131 19.184083 27.547812 19.024191 27.068083 z "
     style="font-size:12;opacity:0.7;fill:url(#linearGradient569);fill-rule:evenodd;stroke:none;stroke-width:0.0998909pt;"
     id="path984" />
</svg>
