<?xml version="1.0" encoding="UTF-8" standalone="no"?>
<!DOCTYPE svg PUBLIC "-//W3C//DTD SVG 20010904//EN"
"http://www.w3.org/TR/2001/REC-SVG-20010904/DTD/svg10.dtd">
<!-- Created with Inkscape (http://www.inkscape.org/) -->
<svg
   id="svg1"
   sodipodi:version="0.32"
   inkscape:version="0.37"
   width="48pt"
   height="48pt"
   sodipodi:docbase="/usr/share/themes/Lila/gtk-2.0"
   sodipodi:docname="stock_undo.svg"
   xmlns="http://www.w3.org/2000/svg"
   xmlns:inkscape="http://www.inkscape.org/namespaces/inkscape"
   xmlns:sodipodi="http://sodipodi.sourceforge.net/DTD/sodipodi-0.dtd"
   xmlns:xlink="http://www.w3.org/1999/xlink">
  <defs
     id="defs3">
    <linearGradient
       id="linearGradient584">
      <stop
         style="stop-color:#ffffff;stop-opacity:1;"
         offset="0.00000000"
         id="stop585" />
      <stop
         style="stop-color:#ffffff;stop-opacity:0;"
         offset="1.00000000"
         id="stop586" />
    </linearGradient>
    <linearGradient
       id="linearGradient578">
      <stop
         style="stop-color:#d9cce6;stop-opacity:1;"
         offset="0.00000000"
         id="stop579" />
      <stop
         style="stop-color:#73667f;stop-opacity:1;"
         offset="1.00000000"
         id="stop580" />
    </linearGradient>
    <linearGradient
       xlink:href="#linearGradient578"
       id="linearGradient581"
       x1="0.04000000"
       y1="0.00781250"
       x2="0.98000002"
       y2="0.98437500" />
    <linearGradient
       xlink:href="#linearGradient584"
       id="linearGradient583"
       x1="0.02777778"
       y1="-0.00000000"
       x2="1.00925922"
       y2="0.98449612" />
    <linearGradient
       xlink:href="#linearGradient584"
       id="linearGradient744"
       x1="-0.00833333"
       y1="0.00781250"
       x2="0.99166667"
       y2="0.97656250" />
    <linearGradient
       xlink:href="#linearGradient584"
       id="linearGradient746"
       x1="0.01219512"
       y1="0.02343750"
       x2="0.97560978"
       y2="0.96875000" />
  </defs>
  <sodipodi:namedview
     id="base"
     pagecolor="#ffffff"
     bordercolor="#666666"
     borderopacity="1.0"
     inkscape:pageopacity="0.0"
     inkscape:pageshadow="2"
     inkscape:zoom="7.97947198"
     inkscape:cx="26.0349282"
     inkscape:cy="23.9614523"
     inkscape:window-width="640"
     inkscape:window-height="516"
     inkscape:window-x="183"
     inkscape:window-y="132" />
  <path
     style="fill:#000000;fill-rule:evenodd;stroke:none;stroke-opacity:1;stroke-width:18.75;stroke-linejoin:miter;stroke-linecap:butt;fill-opacity:1;stroke-dasharray:none;opacity:0.296369;"
     d="M 32.199266 59.230426 C 38.994723 60.077211 52.282925 49.500174 50.631514 34.574299 C 48.21347 18.540383 26.816018 15.128391 26.454147 13.987634 C 24.422217 11.298311 27.778856 0.12679934 25.975395 1.0611234 C 21.156011 3.5579108 6.7856971 19.839336 6.5856218 23.323448 C 6.6261119 26.781351 21.841536 43.234591 26.454147 45.346391 C 28.464371 46.266737 25.899622 32.374044 26.693534 31.941124 C 27.97425 31.256936 36.181064 30.533667 39.620038 38.404376 C 41.463574 42.863018 40.130612 54.979568 32.199266 59.230426 z "
     id="path739"
     sodipodi:nodetypes="cccccccsc" />
  <path
     style="font-size:12;fill:url(#linearGradient581);fill-rule:evenodd;stroke:#261933;stroke-width:1.87744;"
     d="M 33.062398 54.75655 C 39.056877 55.503525 50.778799 46.173201 49.322036 33.006637 C 47.189006 18.862636 28.313672 15.852813 27.994451 14.846519 C 26.20203 12.474186 29.16302 2.6194564 27.572127 3.4436516 C 23.320807 5.6461432 10.644323 20.00848 10.467825 23.081921 C 10.503544 26.13224 23.925525 40.646141 27.994451 42.509025 C 29.767737 43.320887 27.505297 31.065724 28.205616 30.683831 C 29.335381 30.080292 36.574861 29.442273 39.608482 36.385264 C 41.234723 40.318364 40.05888 51.006739 33.062398 54.75655 z "
     id="path735"
     sodipodi:nodetypes="cccccccsc" />
  <path
     style="font-size:12;opacity:0.201783;fill-rule:evenodd;stroke:none;stroke-width:0.96523pt;"
     d="M 36.0187 53.489564 C 40.269569 46.312689 42.280682 41.310338 40.875471 37.018757 C 39.676321 33.356487 30.102844 28.911354 27.783289 29.839175 C 25.879565 30.600667 30.05409 42.771316 28.205626 42.086695 C 24.352656 40.659676 7.9824714 23.624773 10.678989 23.50425 C 28.527797 22.504762 41.31317 25.869965 43.620603 32.795471 C 47.583877 44.328085 40.621513 50.958303 36.0187 53.489564 z "
     id="path737"
     sodipodi:nodetypes="csssssc" />
  <path
     style="fill:url(#linearGradient583);fill-rule:evenodd;stroke:none;stroke-opacity:1;stroke-width:1pt;stroke-linejoin:miter;stroke-linecap:butt;fill-opacity:1;"
     d="M 12.686358 23.37853 C 12.77825 22.551503 22.135328 10.6444 25.485889 7.5673587 C 26.234523 6.8798352 25.89688 10.957095 24.98394 12.084836 C 21.630372 16.227486 12.610939 24.05733 12.686358 23.37853 z "
     id="path941"
     sodipodi:nodetypes="csss" />
</svg>
