<?xml version="1.0" encoding="UTF-8" standalone="no"?>
<!DOCTYPE svg PUBLIC "-//W3C//DTD SVG 20010904//EN"
"http://www.w3.org/TR/2001/REC-SVG-20010904/DTD/svg10.dtd">
<!-- Created with Inkscape (http://www.inkscape.org/) -->
<svg
   id="svg1"
   sodipodi:version="0.32"
   inkscape:version="0.37"
   width="48pt"
   height="48pt"
   sodipodi:docbase="/usr/share/themes/Lila/gtk-2.0"
   sodipodi:docname="stock_right.svg"
   xmlns="http://www.w3.org/2000/svg"
   xmlns:inkscape="http://www.inkscape.org/namespaces/inkscape"
   xmlns:sodipodi="http://sodipodi.sourceforge.net/DTD/sodipodi-0.dtd"
   xmlns:xlink="http://www.w3.org/1999/xlink">
  <defs
     id="defs3">
    <linearGradient
       id="linearGradient584">
      <stop
         style="stop-color:#ffffff;stop-opacity:1;"
         offset="0.00000000"
         id="stop585" />
      <stop
         style="stop-color:#ffffff;stop-opacity:0;"
         offset="1.00000000"
         id="stop586" />
    </linearGradient>
    <linearGradient
       id="linearGradient578">
      <stop
         style="stop-color:#d9cce6;stop-opacity:1;"
         offset="0.00000000"
         id="stop579" />
      <stop
         style="stop-color:#73667f;stop-opacity:1;"
         offset="1.00000000"
         id="stop580" />
    </linearGradient>
    <linearGradient
       xlink:href="#linearGradient578"
       id="linearGradient581"
       x1="0.00694444"
       y1="0.02142857"
       x2="0.98611110"
       y2="0.97857141" />
    <linearGradient
       xlink:href="#linearGradient584"
       id="linearGradient583"
       x1="0.01754386"
       y1="0.01428571"
       x2="0.98245615"
       y2="0.97142857" />
    <linearGradient
       xlink:href="#linearGradient584"
       id="linearGradient612"
       x1="0.00000000"
       y1="0.01923077"
       x2="0.98287672"
       y2="0.94230771" />
    <linearGradient
       xlink:href="#linearGradient584"
       id="linearGradient614"
       x1="0.01052632"
       y1="0.02857143"
       x2="0.97894734"
       y2="0.95714283" />
  </defs>
  <sodipodi:namedview
     id="base"
     pagecolor="#ffffff"
     bordercolor="#666666"
     borderopacity="1.0"
     inkscape:pageopacity="0.0"
     inkscape:pageshadow="2"
     inkscape:zoom="5.64233871"
     inkscape:cx="28.4935898"
     inkscape:cy="23.3169778"
     inkscape:window-width="640"
     inkscape:window-height="516"
     inkscape:window-x="167"
     inkscape:window-y="92" />
  <path
     style="font-size:12;fill:#000000;fill-rule:evenodd;stroke:none;stroke-width:14.8479;fill-opacity:1;opacity:0.302675;"
     d="M 4.5734139 45.764412 C 2.828947 44.673617 3.477591 18.250601 4.5734139 16.791002 C 5.8766288 15.128231 27.088254 17.874854 28.822901 16.791002 C 30.328737 15.957161 27.350712 2.798649 28.822901 3.2490781 C 30.191562 3.717677 58.292664 24.527934 58.426174 30.332923 C 58.365993 35.797884 30.747508 58.56519 28.822901 58.991406 C 27.126776 59.328072 29.849746 46.115416 28.507972 45.134556 C 26.818504 43.834839 6.4546969 47.080002 4.5734139 45.764412 z "
     id="path617"
     sodipodi:nodetypes="csssssss" />
  <path
     style="font-size:12;fill:url(#linearGradient581);fill-rule:evenodd;stroke:#261933;stroke-width:1.86997;"
     d="M 6.4602909 43.399891 C 4.8984078 42.423264 5.4791619 18.765789 6.4602909 17.458957 C 7.6271059 15.97022 26.618633 18.42937 28.171725 17.458957 C 29.519956 16.712391 26.853622 4.9311019 28.171725 5.3343869 C 29.397137 5.753941 54.557064 24.032597 54.676593 29.583525 C 54.622605 34.653269 29.894897 54.860886 28.171725 55.242494 C 26.653125 55.543922 29.091095 43.714157 27.889759 42.835959 C 26.377119 41.672276 8.144671 44.577787 6.4602909 43.399891 z "
     id="path589"
     sodipodi:nodetypes="csssssss" />
  <path
     style="fill:url(#linearGradient583);fill-rule:evenodd;stroke:none;stroke-opacity:1;stroke-width:1pt;stroke-linejoin:miter;stroke-linecap:butt;fill-opacity:1;"
     d="M 7.9425519 42.015688 C 7.4962579 41.435506 7.4524099 20.789629 8.4424949 19.268264 C 9.6536712 17.657144 25.5259 21.627766 30.190034 19.268264 C 32.608432 18.044839 29.560949 9.0826719 29.690089 8.5194809 C 29.853354 7.491439 34.375659 11.193696 34.689524 11.769112 C 34.875603 12.110259 31.460882 10.46133 31.189919 11.269169 C 31.07347 12.361604 34.354335 20.065522 32.189806 21.268037 C 27.605099 23.815097 14.708793 18.481744 10.942213 22.517897 C 8.5542719 25.094632 8.3294979 42.518717 7.9425519 42.015688 z "
     id="path618"
     sodipodi:nodetypes="cssssssss" />
  <path
     style="fill:#261e2e;fill-rule:evenodd;stroke:none;stroke-opacity:1;stroke-width:1pt;stroke-linejoin:miter;stroke-linecap:butt;fill-opacity:1;opacity:0.201783;"
     d="M 5.6928069 30.142034 C 7.6764188 29.918792 52.990985 28.669398 54.437284 30.017047 C 55.632684 31.00592 34.479933 51.681035 28.440231 54.639258 C 26.314191 55.680584 30.875768 43.795893 28.315246 42.515632 C 23.709913 40.212964 12.222265 45.115258 6.9426659 43.015575 C 5.8207479 42.62251 4.3849239 30.303291 5.6928069 30.142034 z "
     id="path644"
     sodipodi:nodetypes="csssss" />
</svg>
