<?xml version="1.0" encoding="UTF-8" standalone="no"?>
<!DOCTYPE svg PUBLIC "-//W3C//DTD SVG 20010904//EN"
"http://www.w3.org/TR/2001/REC-SVG-20010904/DTD/svg10.dtd">
<!-- Created with Inkscape (http://www.inkscape.org/) -->
<svg
   id="svg1"
   sodipodi:version="0.32"
   inkscape:version="0.37"
   width="48pt"
   height="48pt"
   sodipodi:docbase="/home/dan/Projects/Lila-gtk/gtk-2.0"
   sodipodi:docname="stock_zoom_one_to_one.svg"
   xmlns="http://www.w3.org/2000/svg"
   xmlns:inkscape="http://www.inkscape.org/namespaces/inkscape"
   xmlns:sodipodi="http://sodipodi.sourceforge.net/DTD/sodipodi-0.dtd"
   xmlns:xlink="http://www.w3.org/1999/xlink">
  <defs
     id="defs3">
    <linearGradient
       id="linearGradient584">
      <stop
         style="stop-color:#ffffff;stop-opacity:1;"
         offset="0.00000000"
         id="stop585" />
      <stop
         style="stop-color:#ffffff;stop-opacity:0;"
         offset="1.00000000"
         id="stop586" />
    </linearGradient>
    <linearGradient
       id="linearGradient578">
      <stop
         style="stop-color:#d9cce6;stop-opacity:1;"
         offset="0.00000000"
         id="stop579" />
      <stop
         style="stop-color:#73667f;stop-opacity:1;"
         offset="1.00000000"
         id="stop580" />
    </linearGradient>
    <linearGradient
       xlink:href="#linearGradient578"
       id="linearGradient581"
       x1="0.00000000"
       y1="-0.00000000"
       x2="1.00704229"
       y2="1.01562500" />
    <linearGradient
       xlink:href="#linearGradient578"
       id="linearGradient583"
       x1="0.02307692"
       y1="0.01562500"
       x2="0.96923077"
       y2="0.97656250" />
    <linearGradient
       xlink:href="#linearGradient584"
       id="linearGradient654"
       x1="0.00000002"
       y1="-0.00000001"
       x2="0.99242425"
       y2="1.00000012" />
    <linearGradient
       xlink:href="#linearGradient584"
       id="linearGradient655"
       x1="0.00000000"
       y1="-0.00000000"
       x2="0.96551722"
       y2="0.98437500" />
    <linearGradient
       xlink:href="#linearGradient584"
       id="linearGradient653"
       x1="0.00000000"
       y1="-0.00000000"
       x2="0.97945207"
       y2="0.97656250" />
  </defs>
  <sodipodi:namedview
     id="base"
     pagecolor="#ffffff"
     bordercolor="#666666"
     borderopacity="1.0"
     inkscape:pageopacity="0.0"
     inkscape:pageshadow="2"
     inkscape:zoom="5.64233875"
     inkscape:cx="26.3898894"
     inkscape:cy="25.2380417"
     inkscape:window-width="640"
     inkscape:window-height="516"
     inkscape:window-x="59"
     inkscape:window-y="258" />
  <path
     d="M 50.761394 29.850076 C 50.761394 42.22776 40.715686 52.273466 28.338007 52.273466 C 15.960147 52.273466 5.9144335 42.22776 5.9144335 29.850076 C 5.9144335 17.472398 15.960147 7.426687 28.338007 7.426687 C 40.715686 7.426687 50.761394 17.472398 50.761394 29.850076 z M 45.205129 29.850076 C 45.205129 38.941685 37.648542 46.320356 28.338007 46.320356 C 19.027289 46.320356 11.470879 38.941685 11.470879 29.850076 C 11.470879 20.758468 19.027289 13.379619 28.338007 13.379619 C 37.648542 13.379619 45.205129 20.758468 45.205129 29.850076 z "
     style="font-size:12;opacity:0.3;fill-rule:evenodd;stroke-width:13.4904;"
     id="path1566" />
  <path
     d="M 48.846925 26.976392 C 48.846925 39.354071 38.161177 50.039818 25.783494 50.039818 C 13.405636 50.039818 2.7198871 39.354071 2.7198871 26.976392 C 2.7198871 14.598711 13.405636 3.9129603 25.783494 3.9129603 C 38.161177 3.9129603 48.846925 14.598711 48.846925 26.976392 z M 41.37055 26.976392 C 41.37055 36.068 35.09403 42.166593 25.783494 42.166593 C 16.472781 42.166593 10.196445 36.068 10.196445 26.976392 C 10.196445 17.884781 16.472781 11.786008 25.783494 11.786008 C 35.09403 11.786008 41.37055 17.884781 41.37055 26.976392 z "
     style="font-size:12;fill:url(#linearGradient583);fill-rule:evenodd;stroke:#261933;stroke-width:1.875;stroke-dasharray:none;"
     id="path1525"
     sodipodi:nodetypes="cccccccccs" />
  <path
     d="M 39.944131 44.540075 C 39.72299 44.105174 41.523852 42.119064 41.958561 42.347013 C 43.515473 43.162825 44.920858 45.563559 46.686837 46.793925 C 50.300188 49.311367 55.39059 50.813414 58.09674 53.590827 C 58.966064 54.482972 58.154601 57.30981 57.303214 58.021281 C 56.369736 58.801606 53.092008 59.824282 51.974409 58.943551 C 48.867489 56.495742 46.746596 52.016801 43.97139 48.694013 C 42.736504 47.215546 40.64985 45.928397 39.944131 44.540075 z "
     style="font-size:12;opacity:0.3;fill-rule:evenodd;stroke-width:13.4904;"
     id="path1565"
     sodipodi:nodetypes="ccsccccc" />
  <ellipse
     cx="373.574921"
     cy="328.786621"
     rx="115.024445"
     ry="115.024429"
     transform="matrix(0.129538,0.000000,0.000000,0.126491,-22.60893,-14.61187)"
     style="font-size:12;fill-rule:evenodd;stroke-width:1pt;fill:url(#linearGradient654);"
     id="path1521" />
  <path
     d="M 39.09658 42.166681 C 38.875438 41.731781 40.566624 39.965029 41.001331 40.192979 C 42.558243 41.008788 43.963635 43.40951 45.729607 44.639888 C 49.342968 47.157321 54.433357 48.659379 57.139519 51.436792 C 58.00884 52.328936 56.978014 55.155772 56.126627 55.867243 C 55.19315 56.647571 52.24446 57.45089 51.126858 56.570158 C 48.019937 54.122349 45.899046 49.643408 43.12384 46.320621 C 41.888953 44.842153 39.802297 43.555004 39.09658 42.166681 z "
     style="font-size:12;fill:url(#linearGradient581);fill-rule:evenodd;stroke:#261933;stroke-width:1.875;stroke-dasharray:none;"
     id="path1531"
     sodipodi:nodetypes="cccccccc" />
  <path
     d="M 7.2710428 35.325294 C 5.6744278 32.132066 4.0779956 21.594675 10.943306 13.452108 C 19.245546 5.9482635 27.867151 7.065659 31.379556 7.5446962 C 25.7915 7.8640547 20.043767 7.0658394 12.539918 14.410189 C 5.5149282 21.275315 7.4307212 31.493531 7.2710428 35.325294 z "
     style="font-size:12;opacity:0.7;fill-rule:evenodd;stroke:none;stroke-width:1pt;fill:url(#linearGradient655);"
     id="path1533" />
  <path
     d="M 39.971751 42.013051 C 39.963887 41.962033 40.122502 41.695244 40.204882 41.758727 C 40.956054 42.338052 42.465016 43.893813 42.472305 43.941378 C 42.479113 43.985683 41.008988 42.621624 40.247267 42.034244 C 40.175439 41.978815 39.978079 42.053903 39.971751 42.013051 z "
     style="font-size:12;opacity:0.7;fill-rule:evenodd;stroke:none;stroke-width:1pt;fill:url(#linearGradient653);"
     id="path1538" />
  <path
     style="fill:#261933;fill-rule:evenodd;stroke:none;stroke-opacity:1;stroke-width:1pt;stroke-linejoin:miter;stroke-linecap:butt;fill-opacity:1;"
     d="M 15.249824 22.543163 C 15.29832 21.961212 17.003585 20.227536 18.127316 19.66567 C 18.921914 19.268372 20.860295 18.864269 21.004809 19.66567 C 21.739528 23.74002 21.687 30.341569 20.765018 34.292924 C 20.567976 35.137391 17.852586 34.889611 17.647736 34.053133 C 16.893423 30.973026 18.537833 27.360216 17.887526 24.238744 C 17.738529 23.52356 15.218389 22.920374 15.249824 22.543163 z "
     id="path654"
     sodipodi:nodetypes="cssssss" />
  <path
     style="font-size:12;fill:#261933;fill-rule:evenodd;stroke-width:1pt;fill-opacity:1;"
     d="M 27.590541 30.061465 C 27.590541 30.963929 26.858106 31.696364 25.955642 31.696364 C 25.053178 31.696364 24.320741 30.963929 24.320741 30.061465 C 24.320741 29.159001 25.053178 28.426563 25.955642 28.426563 C 26.858106 28.426563 27.590541 29.159001 27.590541 30.061465 z "
     id="path656" />
  <path
     style="font-size:12;fill:#261933;fill-rule:evenodd;stroke-width:1pt;fill-opacity:1;"
     d="M 27.420983 24.081234 C 27.420983 25.030497 26.650567 25.800913 25.701306 25.800913 C 24.752042 25.800913 23.981626 25.030497 23.981626 24.081234 C 23.981626 23.131973 24.752042 22.361556 25.701306 22.361556 C 26.650567 22.361556 27.420983 23.131973 27.420983 24.081234 z "
     id="path657" />
  <path
     style="fill:#261933;fill-rule:evenodd;stroke:none;stroke-opacity:1;stroke-width:1pt;stroke-linejoin:miter;stroke-linecap:butt;fill-opacity:1;"
     d="M 29.157704 22.303372 C 29.2062 21.721421 30.911467 19.987745 32.035199 19.42588 C 32.829796 19.028582 34.768174 18.624477 34.91269 19.42588 C 35.647409 23.500227 35.594882 30.101779 34.672898 34.053134 C 34.475857 34.8976 31.760466 34.649821 31.555616 33.813341 C 30.801304 30.733234 32.445714 27.120425 31.795407 23.998952 C 31.646409 23.283768 29.12627 22.680583 29.157704 22.303372 z "
     id="path658"
     sodipodi:nodetypes="cssssss" />
</svg>
