<?xml version="1.0" encoding="UTF-8" standalone="no"?>
<!DOCTYPE svg PUBLIC "-//W3C//DTD SVG 20010904//EN"
"http://www.w3.org/TR/2001/REC-SVG-20010904/DTD/svg10.dtd">
<!-- Created with Inkscape (http://www.inkscape.org/) -->
<svg
   id="svg1"
   sodipodi:version="0.32"
   inkscape:version="0.37"
   width="48pt"
   height="48pt"
   sodipodi:docbase="/usr/share/themes/Lila/gtk-2.0"
   sodipodi:docname="stock_last.svg"
   xmlns="http://www.w3.org/2000/svg"
   xmlns:inkscape="http://www.inkscape.org/namespaces/inkscape"
   xmlns:sodipodi="http://sodipodi.sourceforge.net/DTD/sodipodi-0.dtd"
   xmlns:xlink="http://www.w3.org/1999/xlink">
  <defs
     id="defs3">
    <linearGradient
       id="linearGradient584">
      <stop
         style="stop-color:#ffffff;stop-opacity:1;"
         offset="0.00000000"
         id="stop585" />
      <stop
         style="stop-color:#ffffff;stop-opacity:0;"
         offset="1.00000000"
         id="stop586" />
    </linearGradient>
    <linearGradient
       id="linearGradient578">
      <stop
         style="stop-color:#d9cce6;stop-opacity:1;"
         offset="0.00000000"
         id="stop579" />
      <stop
         style="stop-color:#73667f;stop-opacity:1;"
         offset="1.00000000"
         id="stop580" />
    </linearGradient>
    <linearGradient
       xlink:href="#linearGradient578"
       id="linearGradient581"
       x1="0.00694444"
       y1="0.02142857"
       x2="0.98611110"
       y2="0.97857141" />
    <linearGradient
       xlink:href="#linearGradient578"
       id="linearGradient583"
       x1="0.00342466"
       y1="0.03125000"
       x2="0.99657536"
       y2="0.96875000" />
    <linearGradient
       xlink:href="#linearGradient584"
       id="linearGradient612"
       x1="0.00000000"
       y1="0.01923077"
       x2="0.98287672"
       y2="0.94230771" />
    <linearGradient
       xlink:href="#linearGradient584"
       id="linearGradient614"
       x1="0.01052632"
       y1="0.02857143"
       x2="0.97894734"
       y2="0.95714283" />
  </defs>
  <sodipodi:namedview
     id="base"
     pagecolor="#ffffff"
     bordercolor="#666666"
     borderopacity="1.0"
     inkscape:pageopacity="0.0"
     inkscape:pageshadow="2"
     inkscape:zoom="5.64233875"
     inkscape:cx="31.2475356"
     inkscape:cy="23.9056362"
     inkscape:window-width="640"
     inkscape:window-height="516"
     inkscape:window-x="206"
     inkscape:window-y="81" />
  <path
     style="font-size:12;fill-rule:evenodd;stroke-width:12.5;opacity:0.302675;"
     d="M 2.0766809 18.334396 C 0.60153178 19.256792 1.1500355 41.600511 2.0766809 42.834768 C 3.1787009 44.240841 21.115587 41.91825 22.582434 42.834768 C 23.855794 43.539886 21.337524 54.666924 22.582434 54.286036 C 23.739793 53.889784 47.425572 36.157104 47.615429 31.383511 C 47.615429 26.397629 24.209911 7.5098573 22.582434 7.1494414 C 21.148163 6.8647524 23.450749 18.037584 22.316124 18.867014 C 20.887485 19.966074 3.6675239 17.221914 2.0766809 18.334396 z "
     id="path591"
     sodipodi:nodetypes="csssssss" />
  <path
     style="font-size:12;fill-rule:evenodd;stroke-width:12.5;opacity:0.302675;"
     d="M 47.716314 9.0940093 C 46.795704 10.922774 46.482273 51.454405 47.568654 53.329602 C 48.509294 55.165411 57.419962 54.882561 58.288382 53.329602 C 59.41583 51.522551 59.265207 10.49581 58.288382 9.0782206 C 57.422622 7.6673803 48.440575 7.5179973 47.716314 9.0940093 z "
     id="path592"
     sodipodi:nodetypes="cssss" />
  <path
     style="font-size:12;fill:url(#linearGradient581);fill-rule:evenodd;stroke:#261933;stroke-width:1.87878;"
     d="M 3.692857 19.193063 C 2.3717689 20.019125 2.8629881 40.029322 3.692857 41.13468 C 4.6797836 42.393896 20.743383 40.313875 22.057033 41.13468 C 23.197405 41.766137 20.942141 51.731105 22.057033 51.389997 C 23.093523 51.035127 44.475637 35.512966 44.475637 30.879353 C 44.653227 26.05901 23.514542 9.499014 22.057033 9.1762394 C 20.772555 8.9212822 22.834664 18.927249 21.818538 19.670054 C 20.539101 20.654331 5.117555 18.196765 3.692857 19.193063 z "
     id="path589"
     sodipodi:nodetypes="csssssss" />
  <path
     style="font-size:12;fill:url(#linearGradient583);fill-rule:evenodd;stroke:#261933;stroke-width:1.87878;"
     d="M 48.168813 10.144689 C 47.462699 11.820251 47.222295 48.956404 48.055557 50.674512 C 48.777037 52.356526 55.611585 52.097369 56.277672 50.674512 C 57.14243 49.018848 57.026903 11.429055 56.277672 10.130223 C 55.613626 8.8375731 48.724328 8.7007061 48.168813 10.144689 z "
     id="path590"
     sodipodi:nodetypes="cssss" />
  <path
     style="fill:url(#linearGradient612);fill-rule:evenodd;stroke:none;stroke-opacity:1;stroke-width:1pt;stroke-linejoin:miter;stroke-linecap:butt;fill-opacity:1;"
     d="M 54.576223 11.488574 C 54.270886 11.149311 49.996153 9.9345202 49.781329 11.310985 C 48.397855 20.175464 49.507266 41.906887 49.781329 42.211403 C 50.040031 42.498854 49.955789 22.20999 51.379628 13.086872 C 51.554087 11.969046 54.803653 11.741273 54.576223 11.488574 z "
     id="path611"
     sodipodi:nodetypes="cssss" />
  <path
     style="fill:url(#linearGradient614);fill-rule:evenodd;stroke:none;stroke-opacity:1;stroke-width:1pt;stroke-linejoin:miter;stroke-linecap:butt;fill-opacity:1;"
     d="M 25.629276 13.26446 C 25.435361 12.837844 23.25847 10.821629 23.143036 11.488574 C 22.725704 13.899833 24.822573 21.037739 23.143036 21.611126 C 18.959714 22.502688 6.0234284 19.269249 5.0289974 20.545593 C 3.9233847 21.524494 4.6235149 39.528456 5.0289974 39.90275 C 5.3930664 40.238821 5.5453149 24.485812 7.3376498 22.676657 C 8.8311304 21.30506 20.869597 24.79958 24.386156 22.854245 C 26.434041 21.721374 23.979598 16.524945 24.030978 13.442049 C 24.038794 12.973173 25.731342 13.489004 25.629276 13.26446 z "
     id="path613"
     sodipodi:nodetypes="cssssssss" />
  <path
     style="fill:#261e2e;fill-rule:evenodd;stroke:none;stroke-opacity:1;stroke-width:1pt;stroke-linejoin:miter;stroke-linecap:butt;fill-opacity:1;opacity:0.201783;"
     d="M 3.0347688 30.910617 C 4.7214361 30.720801 43.252447 29.658436 44.48224 30.804341 C 45.49869 31.645183 27.512485 49.225252 22.376922 51.740629 C 20.569149 52.626071 24.447861 42.520509 22.270647 41.431895 C 18.354727 39.473947 8.5867719 43.642362 4.0975243 41.857009 C 3.1435566 41.522778 1.9226738 31.047731 3.0347688 30.910617 z "
     id="path644"
     sodipodi:nodetypes="csssss" />
  <path
     style="fill:#261e2e;fill-rule:evenodd;stroke:none;stroke-opacity:1;stroke-width:1pt;stroke-linejoin:miter;stroke-linecap:butt;fill-opacity:1;opacity:0.195478;"
     d="M 48.338441 30.702044 C 48.348727 30.460989 56.214996 30.562509 56.249612 30.827628 C 56.934353 35.110036 57.805648 45.927031 55.87289 50.668332 C 55.126733 52.498752 48.912471 52.396713 48.212867 50.542757 C 46.400987 45.741277 48.196163 35.773598 48.338441 30.702044 z "
     id="path646"
     sodipodi:nodetypes="cssss" />
</svg>
