<?xml version="1.0" encoding="UTF-8" standalone="no"?>
<!DOCTYPE svg PUBLIC "-//W3C//DTD SVG 20010904//EN"
"http://www.w3.org/TR/2001/REC-SVG-20010904/DTD/svg10.dtd">
<!-- Created with Inkscape (http://www.inkscape.org/) -->
<svg
   id="svg1"
   sodipodi:version="0.32"
   inkscape:version="0.39"
   width="48pt"
   height="48pt"
   sodipodi:docbase="/home/scaba/files/pre-release/lila-gnome/Lila/scalable/stock"
   sodipodi:docname="gtk-italic.svg"
   xmlns="http://www.w3.org/2000/svg"
   xmlns:cc="http://web.resource.org/cc/"
   xmlns:inkscape="http://www.inkscape.org/namespaces/inkscape"
   xmlns:sodipodi="http://sodipodi.sourceforge.net/DTD/sodipodi-0.dtd"
   xmlns:rdf="http://www.w3.org/1999/02/22-rdf-syntax-ns#"
   xmlns:dc="http://purl.org/dc/elements/1.1/"
   xmlns:xlink="http://www.w3.org/1999/xlink">
  <defs
     id="defs3">
    <linearGradient
       id="linearGradient584">
      <stop
         style="stop-color:#ffffff;stop-opacity:1;"
         offset="0.00000000"
         id="stop585" />
      <stop
         style="stop-color:#ffffff;stop-opacity:0;"
         offset="1.00000000"
         id="stop586" />
    </linearGradient>
    <linearGradient
       id="linearGradient578">
      <stop
         style="stop-color:#faf8fd;stop-opacity:1;"
         offset="0.00000000"
         id="stop579" />
      <stop
         style="stop-color:#d9cce6;stop-opacity:1;"
         offset="1.00000000"
         id="stop580" />
    </linearGradient>
    <linearGradient
       xlink:href="#linearGradient578"
       id="linearGradient581"
       x1="0.00000000"
       y1="0.00000000"
       x2="1.00000000"
       y2="0.99218750" />
    <linearGradient
       xlink:href="#linearGradient584"
       id="linearGradient583"
       x1="-0.00000000"
       y1="0.00000000"
       x2="0.99264705"
       y2="0.97656250" />
    <linearGradient
       xlink:href="#linearGradient584"
       id="linearGradient654"
       x1="-0.00000000"
       y1="-0.00000000"
       x2="0.96341461"
       y2="0.99218750" />
    <linearGradient
       xlink:href="#linearGradient584"
       id="linearGradient655"
       x1="-0.00000000"
       y1="-0.00000000"
       x2="0.98148149"
       y2="0.95312500" />
    <linearGradient
       xlink:href="#linearGradient584"
       id="linearGradient713"
       x1="-0.00000000"
       y1="-0.00000000"
       x2="0.95454544"
       y2="0.99218750" />
    <linearGradient
       xlink:href="#linearGradient584"
       id="linearGradient1245"
       x1="0.00000000"
       y1="0.00000000"
       x2="0.97692305"
       y2="0.99218750" />
  </defs>
  <sodipodi:namedview
     id="base"
     pagecolor="#ffffff"
     bordercolor="#666666"
     borderopacity="1.0"
     inkscape:pageopacity="0.0"
     inkscape:pageshadow="2"
     inkscape:zoom="5.6423387"
     inkscape:cx="34.764247"
     inkscape:cy="25.577371"
     inkscape:window-width="637"
     inkscape:window-height="526"
     inkscape:window-x="474"
     inkscape:window-y="88" />
  <path
     style="opacity:0.29636899;fill:#000000;fill-opacity:1.0000000;fill-rule:evenodd;stroke:none;stroke-width:1.8750000;stroke-linecap:butt;stroke-linejoin:miter;stroke-opacity:1.0000000;"
     d="M 7.1256754,7.8882970 C 9.3157126,5.9947476 55.303335,5.9974460 57.206059,7.8882970 C 59.128030,9.6273533 58.463504,54.788938 56.693291,56.601299 C 55.202096,58.132068 8.9817181,58.576552 7.1256754,56.772222 C 5.1311663,54.662361 4.7505106,9.9651917 7.1256754,7.8882970 z "
     id="path712"
     sodipodi:nodetypes="cssss" />
  <path
     style="font-size:12.000000;fill:url(#linearGradient581);fill-rule:evenodd;stroke:#261933;stroke-width:1.8750000;"
     d="M 5.6789173,6.3993621 C 7.8042787,4.5617320 52.433807,4.5643508 54.280340,6.3993620 C 56.145551,8.0870597 55.500650,51.914944 53.782715,53.673784 C 52.335557,55.159345 7.4801477,55.590702 5.6789173,53.839658 C 3.7433094,51.792105 3.3738951,8.4149218 5.6789173,6.3993621 z "
     id="path684"
     sodipodi:nodetypes="cssss" />
  <path
     style="fill:url(#linearGradient583);fill-opacity:1.0000000;fill-rule:evenodd;stroke:none;stroke-width:1.0000000pt;stroke-linecap:butt;stroke-linejoin:miter;stroke-opacity:1.0000000;"
     d="M 6.9502545,48.972497 C 6.2249198,48.247162 5.7643882,10.427003 7.2820048,7.8354573 C 8.6039764,5.7438783 49.851433,7.1114684 50.575422,7.8354573 C 51.233726,8.4937616 15.095305,8.5988455 11.428884,11.982336 C 7.3044167,15.622652 7.6072126,49.629455 6.9502545,48.972497 z "
     id="path691"
     sodipodi:nodetypes="cssss" />
  <metadata
     id="metadata1192">
    <rdf:RDF
       id="RDF1193">
      <cc:Work
         rdf:about=""
         id="Work1194">
        <dc:format
           id="format1195">image/svg+xml</dc:format>
        <dc:type
           id="type1197"
           rdf:resource="http://purl.org/dc/dcmitype/StillImage" />
      </cc:Work>
    </rdf:RDF>
  </metadata>
  <path
     style="fill:#261933;fill-opacity:1.0000000;fill-rule:evenodd;stroke:none;stroke-width:1.0000000pt;stroke-linecap:butt;stroke-linejoin:miter;stroke-opacity:1.0000000;"
     d="M 36.293780,19.290560 L 34.911833,31.950658 L 30.760182,31.950658 L 36.293780,19.290560 z M 32.973456,12.145961 L 16.949017,46.986810 L 24.325506,46.995608 L 28.622568,37.514300 L 34.672874,37.357648 L 34.224082,46.978013 L 41.279439,47.152260 L 41.537369,12.145961 L 32.973456,12.145961 z "
     id="path964"
     sodipodi:nodetypes="ccccccccccccc" />
  <path
     style="fill:url(#linearGradient654);fill-opacity:1.0000000;fill-rule:evenodd;stroke:none;stroke-width:1.0000000pt;stroke-linecap:butt;stroke-linejoin:miter;stroke-opacity:1.0000000;"
     d="M 18.945620,44.994922 L 33.119878,13.294319 L 40.068040,13.294319 C 37.876061,14.289571 34.688183,13.711795 33.988399,15.284821 C 31.001703,22.111560 23.853366,35.300424 18.945620,44.994922 z "
     id="path965"
     sodipodi:nodetypes="cccsc" />
  <path
     style="fill:url(#linearGradient655);fill-opacity:1.0000000;fill-rule:evenodd;stroke:none;stroke-width:1.0000000pt;stroke-linecap:butt;stroke-linejoin:miter;stroke-opacity:1.0000000;"
     d="M 32.853021,32.757052 C 32.740657,32.631870 35.612010,32.946177 36.451176,32.425302 C 36.770036,32.227384 36.230962,30.493567 36.327102,30.600675 C 36.479111,30.770026 37.580165,33.015991 37.195623,33.254678 C 36.422138,33.734783 32.988807,32.908329 32.853021,32.757052 z "
     id="path966"
     sodipodi:nodetypes="cssss" />
</svg>
