<?xml version="1.0" encoding="UTF-8" standalone="no"?>
<!DOCTYPE svg PUBLIC "-//W3C//DTD SVG 20010904//EN"
"http://www.w3.org/TR/2001/REC-SVG-20010904/DTD/svg10.dtd">
<!-- Created with Inkscape (http://www.inkscape.org/) -->
<svg
   id="svg1"
   sodipodi:version="0.32"
   inkscape:version="0.39"
   width="48pt"
   height="48pt"
   sodipodi:docbase="/home/scaba/files/lila/work/lila-gnome/Lila/scalable/stock"
   sodipodi:docname="gtk-revert-to-saved2.svg"
   xmlns="http://www.w3.org/2000/svg"
   xmlns:inkscape="http://www.inkscape.org/namespaces/inkscape"
   xmlns:sodipodi="http://sodipodi.sourceforge.net/DTD/sodipodi-0.dtd"
   xmlns:xlink="http://www.w3.org/1999/xlink"
   xmlns:rdf="http://www.w3.org/1999/02/22-rdf-syntax-ns#"
   xmlns:cc="http://web.resource.org/cc/"
   xmlns:dc="http://purl.org/dc/elements/1.1/">
  <defs
     id="defs3">
    <linearGradient
       id="linearGradient884">
      <stop
         style="stop-color:#7fff7f;stop-opacity:1.0000000;"
         offset="0.0000000"
         id="stop885" />
      <stop
         style="stop-color:#3fbf3f;stop-opacity:1.0000000;"
         offset="1.0000000"
         id="stop886" />
    </linearGradient>
    <linearGradient
       xlink:href="#linearGradient884"
       id="linearGradient883"
       x1="-0.16999437"
       y1="-0.22656719"
       x2="0.78999752"
       y2="0.81250203"
       gradientUnits="objectBoundingBox"
       spreadMethod="pad" />
    <linearGradient
       id="linearGradient916">
      <stop
         style="stop-color:#cccccc;stop-opacity:1;"
         offset="0.00000000"
         id="stop917" />
      <stop
         style="stop-color:#7f7f7f;stop-opacity:1;"
         offset="1.00000000"
         id="stop918" />
    </linearGradient>
    <linearGradient
       id="linearGradient866">
      <stop
         style="stop-color:#ffffff;stop-opacity:1;"
         offset="0.00000000"
         id="stop867" />
      <stop
         style="stop-color:#d9d1e1;stop-opacity:1;"
         offset="1.00000000"
         id="stop868" />
    </linearGradient>
    <linearGradient
       id="linearGradient584">
      <stop
         style="stop-color:#ffffff;stop-opacity:1;"
         offset="0.00000000"
         id="stop585" />
      <stop
         style="stop-color:#ffffff;stop-opacity:0;"
         offset="1.00000000"
         id="stop586" />
    </linearGradient>
    <linearGradient
       id="linearGradient578">
      <stop
         style="stop-color:#d9cce6;stop-opacity:1;"
         offset="0.00000000"
         id="stop579" />
      <stop
         style="stop-color:#73667f;stop-opacity:1;"
         offset="1.00000000"
         id="stop580" />
    </linearGradient>
    <linearGradient
       xlink:href="#linearGradient584"
       id="linearGradient581"
       x1="0.00649351"
       y1="0.00000000"
       x2="0.96753246"
       y2="0.97674417" />
    <linearGradient
       xlink:href="#linearGradient584"
       id="linearGradient583"
       x1="-0.03076923"
       y1="0.02325581"
       x2="0.97692305"
       y2="1.03100777" />
    <linearGradient
       xlink:href="#linearGradient584"
       id="linearGradient860"
       x1="-0.01219512"
       y1="0.00775194"
       x2="0.98780489"
       y2="0.99224806" />
    <linearGradient
       xlink:href="#linearGradient578"
       id="linearGradient861"
       x1="0.01562500"
       y1="0.01550388"
       x2="0.98437500"
       y2="0.97674417" />
    <linearGradient
       xlink:href="#linearGradient866"
       id="linearGradient862"
       x1="0.00617284"
       y1="0.01550388"
       x2="1.00000000"
       y2="0.96899223" />
    <linearGradient
       xlink:href="#linearGradient916"
       id="linearGradient869"
       x1="0.00641026"
       y1="0.01550388"
       x2="0.97435898"
       y2="0.95348835" />
    <linearGradient
       xlink:href="#linearGradient578"
       id="linearGradient915"
       x1="0.00649351"
       y1="-0.00000000"
       x2="0.96753246"
       y2="0.97674417" />
  </defs>
  <sodipodi:namedview
     id="base"
     pagecolor="#ffffff"
     bordercolor="#666666"
     borderopacity="1.0"
     inkscape:pageopacity="0.0"
     inkscape:pageshadow="2"
     inkscape:zoom="7.9794719"
     inkscape:cx="46.162171"
     inkscape:cy="19.057557"
     inkscape:window-width="1022"
     inkscape:window-height="695"
     inkscape:window-x="0"
     inkscape:window-y="26" />
  <path
     d="M 12.261344 50.034427 C 13.438413 51.666317 48.543483 60.853315 50.096198 60.011457 C 51.576026 59.085658 60.718721 18.281761 59.6845 16.734572 C 58.877796 15.470544 21.440959 10.619333 20.294787 11.681329 C 19.100405 12.922957 11.282639 48.497911 12.261344 50.034427 z "
     style="font-size:12;opacity:0.302675;fill-rule:evenodd;stroke-width:12.5;"
     id="path1382" />
  <path
     d="M 9.6412512 46.937955 C 10.81832 48.569843 45.923392 57.756843 47.476106 56.914983 C 48.955933 55.989185 58.098628 15.185288 57.064406 13.6381 C 56.257703 12.374072 18.820866 7.5228604 17.674694 8.5848551 C 16.480312 9.8265032 8.6625456 45.401437 9.6412512 46.937955 z "
     style="font-size:12;fill:url(#linearGradient861);fill-rule:evenodd;stroke:#261933;stroke-width:1.875;stroke-dasharray:none;"
     id="path1289" />
  <path
     d="M 16.249362 48.752013 C 16.853985 43.785078 17.977005 39.336447 19.229505 34.887815 C 27.522051 36.572199 35.555541 38.515833 43.718511 40.718521 C 42.768323 45.59904 41.688558 50.609229 40.349644 55.230596 C 31.884362 53.762106 24.326013 51.386587 16.249362 48.752013 z "
     style="font-size:12;fill:#595161;fill-rule:evenodd;stroke:#261933;stroke-width:1.13;"
     id="path1294" />
  <path
     d="M 23.894127 9.2327143 C 22.252901 15.020271 20.611675 21.585175 19.877382 27.761448 C 28.040352 30.050551 37.499078 32.080504 45.791719 33.592155 C 47.605681 26.811259 49.160492 19.641637 50.32667 12.731166 C 42.120445 11.305855 32.100257 9.6214306 23.894127 9.2327143 z "
     style="font-size:12;fill:url(#linearGradient862);fill-rule:evenodd;stroke:#261933;stroke-width:1.13;"
     id="path1295" />
  <path
     d="M 21.414757 38.709626 C 20.803943 41.091718 20.193127 43.473906 19.582311 45.855999 C 20.498487 46.100287 21.220395 46.344671 22.136568 46.588959 C 22.62524 44.267938 23.43785 41.68767 23.991309 39.366648 C 23.197278 39.061288 22.338364 38.885409 21.414757 38.709626 z M 16.861991 48.434813 C 17.450512 43.835263 18.647653 39.837716 19.624899 35.562105 C 25.855099 36.765156 32.862752 38.367108 39.028164 40.153249 C 38.115704 44.547381 36.754723 49.171392 35.583112 53.695101 C 29.288125 52.373623 23.092192 50.728109 16.861991 48.434813 z "
     style="font-size:12;fill:url(#linearGradient869);fill-rule:evenodd;stroke:none;stroke-width:6.25;stroke-dasharray:none;stroke-opacity:1;"
     id="path1306"
     sodipodi:nodetypes="cccccccccc" />
  <path
     d="M 11.714411 45.771775 C 11.345407 44.826161 17.38172 12.446005 19.48875 10.657854 C 21.589778 8.8552012 53.597024 14.40574 53.954785 15.322486 C 54.28806 16.176542 29.102491 10.296491 21.95059 15.451965 C 15.022302 20.446243 12.036444 46.596962 11.714411 45.771775 z "
     style="font-size:12;opacity:0.7;fill:url(#linearGradient581);fill-rule:evenodd;stroke:none;stroke-width:1pt;"
     id="path1310" />
  <path
     d="M 17.589557 47.316508 C 17.510861 47.136627 19.492697 36.78183 20.181067 36.432451 C 21.20862 35.86737 28.46018 37.808524 28.538401 37.987358 C 28.611288 38.153996 22.779724 36.813746 21.186136 38.010225 C 19.568443 39.240524 17.662063 47.482193 17.589557 47.316508 z "
     style="font-size:12;opacity:0.7;fill:url(#linearGradient583);fill-rule:evenodd;stroke:none;stroke-width:1pt;"
     id="path1315"
     sodipodi:nodetypes="ccccc" />
  <path
     d="M 25.579751 15.270466 C 32.086348 16.287634 39.591246 17.832822 45.792959 19.579898 C 46.193308 19.692706 45.801915 20.91529 45.385842 20.85031 C 38.930314 19.841336 31.430466 18.119125 25.17845 16.357852 C 24.8285 16.259242 25.214845 15.21349 25.579751 15.270466 z "
     style="font-size:12;opacity:0.25;fill-rule:evenodd;stroke-width:1pt;"
     id="path1379" />
  <path
     d="M 24.846603 18.894006 C 31.353199 19.911078 38.858 21.456265 45.059808 23.203439 C 45.460063 23.316246 45.068764 24.538829 44.652694 24.473851 C 38.197166 23.464781 30.697221 21.742666 24.4453 19.981392 C 24.095255 19.882782 24.481694 18.836936 24.846603 18.894006 z "
     style="font-size:12;opacity:0.25;fill-rule:evenodd;stroke-width:1pt;"
     id="path1380" />
  <path
     d="M 24.04676 22.711148 C 30.553355 23.728125 38.058254 25.273313 44.259966 27.020486 C 44.660316 27.133292 44.268826 28.355875 43.852945 28.290898 C 37.397418 27.281827 29.897476 25.559713 23.645457 23.798438 C 23.295507 23.699828 23.681946 22.653982 24.04676 22.711148 z "
     style="font-size:12;opacity:0.25;fill-rule:evenodd;stroke-width:1pt;"
     id="path1381" />
  <metadata
     id="metadata38">
    <rdf:RDF
       id="RDF39">
      <cc:Work
         rdf:about=""
         id="Work40">
        <dc:format
           id="format41">image/svg+xml</dc:format>
        <dc:type
           id="type43"
           rdf:resource="http://purl.org/dc/dcmitype/StillImage" />
      </cc:Work>
    </rdf:RDF>
  </metadata>
  <path
     style="font-size:12.000000;opacity:0.29636899;fill-rule:evenodd;stroke-width:18.750000;"
     d="M 20.951709,45.861998 C 25.854753,46.472748 37.760233,37.647828 36.568713,26.882491 C 34.824053,15.317978 20.216183,13.023221 19.955095,12.200446 C 18.489013,10.260764 20.910886,2.2032755 19.609658,2.8771585 C 16.132389,4.6779741 5.7639621,16.421004 5.6196021,18.933935 C 5.6488181,21.427957 16.627008,33.294914 19.955095,34.818058 C 21.405503,35.481858 19.554995,25.461705 20.127806,25.149459 C 21.051867,24.655988 26.973223,24.134326 29.454503,29.811100 C 30.784653,33.026902 26.674323,42.796058 20.951709,45.861998 z "
     id="path994"
     sodipodi:nodetypes="cccccccsc" />
  <path
     d="M 39.747113,1.8349125 C 39.716783,1.7590975 41.012683,2.5971835 41.278413,2.2943005 C 41.863383,1.6274355 42.267223,-1.1545005 42.299203,-1.0744815 C 42.335233,-0.98432953 42.189903,2.2995555 41.623323,2.9454775 C 41.339213,3.2693785 39.784873,1.9291905 39.747113,1.8349125 z "
     style="font-size:12.000000;opacity:0.99000001;fill:url(#linearGradient860);fill-rule:evenodd;stroke:none;stroke-width:1.0000000pt;"
     id="path1316" />
  <path
     style="font-size:12.000000;fill:url(#linearGradient883);fill-rule:evenodd;stroke:#261933;stroke-width:1.6741899;"
     d="M 21.113578,43.596238 C 25.908483,44.193508 35.284663,36.733058 34.119423,26.205176 C 32.413243,14.895740 17.315145,12.489110 17.059814,11.684483 C 15.626073,9.7875841 17.994525,1.9078215 16.721994,2.5668405 C 13.321429,4.3279355 3.1816967,15.811950 3.0405267,18.269448 C 3.0690887,20.708461 13.805130,32.313669 17.059814,33.803219 C 18.478229,34.452369 16.668538,24.653237 17.228720,24.347878 C 18.132403,23.865294 23.923143,23.355137 26.349703,28.906699 C 27.650513,32.051579 26.709963,40.597908 21.113578,43.596238 z "
     id="path995"
     sodipodi:nodetypes="cccccccsc" />
  <path
     style="font-size:12.000000;opacity:0.20178296;fill-rule:evenodd;stroke-width:0.96522999pt;"
     d="M 23.478283,42.583158 C 26.878483,36.844588 28.487153,32.844759 27.363143,29.413234 C 26.403953,26.484913 18.746277,22.930620 16.890910,23.672497 C 15.368138,24.281380 18.707289,34.012939 17.228720,33.465519 C 14.146796,32.324489 1.0525197,18.703508 3.2094327,18.607139 C 17.486418,17.807957 27.713243,20.498747 29.558933,26.036329 C 32.729093,35.257718 27.159993,40.559188 23.478283,42.583158 z "
     id="path996"
     sodipodi:nodetypes="csssssc" />
  <path
     style="font-size:12.000000;fill:url(#linearGradient583);fill-rule:evenodd;stroke-width:1.0000000pt;"
     d="M 32.452303,31.052483 C 32.616673,30.847097 33.610253,24.081000 28.630373,19.352104 C 24.023613,15.050490 18.624979,15.568945 15.381540,12.497330 C 14.086441,11.270844 15.512695,7.2542411 15.014745,6.4578081 C 14.716457,5.9807311 12.358365,8.3731581 12.148292,8.8456411 C 12.039871,9.0895071 13.899268,8.1727641 14.059258,8.6068581 C 14.456634,9.6850601 12.755222,12.448513 13.820395,13.382524 C 17.293769,16.428234 22.466183,15.952452 27.674903,20.546021 C 33.144923,25.380008 32.298173,31.245067 32.452303,31.052483 z "
     id="path742"
     sodipodi:nodetypes="cssssssss" />
</svg>
