<?xml version="1.0" encoding="UTF-8" standalone="no"?>
<!DOCTYPE svg PUBLIC "-//W3C//DTD SVG 20010904//EN"
"http://www.w3.org/TR/2001/REC-SVG-20010904/DTD/svg10.dtd">
<!-- Created with Inkscape (http://www.inkscape.org/) -->
<svg
   id="svg1"
   sodipodi:version="0.32"
   inkscape:version="0.37"
   width="48pt"
   height="48pt"
   sodipodi:docbase="/usr/share/themes/Lila/gtk-2.0"
   sodipodi:docname="stock_stop.svg"
   xmlns="http://www.w3.org/2000/svg"
   xmlns:inkscape="http://www.inkscape.org/namespaces/inkscape"
   xmlns:sodipodi="http://sodipodi.sourceforge.net/DTD/sodipodi-0.dtd"
   xmlns:xlink="http://www.w3.org/1999/xlink">
  <defs
     id="defs3">
    <linearGradient
       id="linearGradient914">
      <stop
         style="stop-color:#ffffff;stop-opacity:1;"
         offset="0.00000000"
         id="stop915" />
      <stop
         style="stop-color:#7f7f7f;stop-opacity:1;"
         offset="1.00000000"
         id="stop916" />
    </linearGradient>
    <linearGradient
       id="linearGradient584">
      <stop
         style="stop-color:#ffffff;stop-opacity:1;"
         offset="0.00000000"
         id="stop585" />
      <stop
         style="stop-color:#ffffff;stop-opacity:0;"
         offset="1.00000000"
         id="stop586" />
    </linearGradient>
    <linearGradient
       id="linearGradient578">
      <stop
         style="stop-color:#f50000;stop-opacity:1;"
         offset="0.00000000"
         id="stop579" />
      <stop
         style="stop-color:#a90000;stop-opacity:1;"
         offset="1.00000000"
         id="stop580" />
    </linearGradient>
    <linearGradient
       xlink:href="#linearGradient584"
       id="linearGradient581"
       x1="-0.00000000"
       y1="0.00000000"
       x2="0.98684210"
       y2="0.99218750" />
    <linearGradient
       xlink:href="#linearGradient914"
       id="linearGradient583"
       x1="0.02307692"
       y1="0.01562500"
       x2="0.99230766"
       y2="1.00781250" />
    <linearGradient
       xlink:href="#linearGradient584"
       id="linearGradient599"
       x1="0.00675676"
       y1="0.01562500"
       x2="1.36486483"
       y2="1.32031250" />
    <linearGradient
       xlink:href="#linearGradient584"
       id="linearGradient600"
       x1="-0.00000000"
       y1="0.01562500"
       x2="1.00000000"
       y2="1.00781250" />
    <radialGradient
       xlink:href="#linearGradient578"
       id="radialGradient917"
       cx="0.23076925"
       cy="0.28125000"
       r="0.67854416"
       fx="0.23076928"
       fy="0.27343750" />
    <linearGradient
       xlink:href="#linearGradient584"
       id="linearGradient922"
       x1="0.02307692"
       y1="0.01562500"
       x2="0.99230766"
       y2="1.00781250" />
    <radialGradient
       xlink:href="#linearGradient914"
       id="radialGradient924" />
  </defs>
  <sodipodi:namedview
     id="base"
     pagecolor="#ffffff"
     bordercolor="#666666"
     borderopacity="1.0"
     inkscape:pageopacity="0.0"
     inkscape:pageshadow="2"
     inkscape:zoom="7.97947194"
     inkscape:cx="24.0926638"
     inkscape:cy="23.0418909"
     inkscape:window-width="508"
     inkscape:window-height="527"
     inkscape:window-x="183"
     inkscape:window-y="84" />
  <path
     transform="matrix(1.002994,0.000000,0.000000,1.002994,-4.024134,-3.787326)"
     style="font-size:12;opacity:0.3;fill-rule:evenodd;stroke-width:2.07367;"
     d="M 61.407572 35.40564 C 61.407572 49.846445 49.687498 61.566519 35.246693 61.566519 C 20.805887 61.566519 9.0858135 49.846445 9.0858135 35.40564 C 9.0858135 20.964834 20.805887 9.2447605 35.246693 9.2447605 C 49.687498 9.2447605 61.407572 20.964834 61.407572 35.40564 z "
     id="path952" />
  <path
     transform="matrix(0.904192,0.000000,0.000000,0.904192,-1.246610,-1.620705)"
     style="font-size:12;fill:url(#radialGradient917);fill-rule:evenodd;stroke:#330000;stroke-width:2.07367;"
     d="M 61.407572 35.40564 C 61.407572 49.846445 49.687498 61.566519 35.246693 61.566519 C 20.805887 61.566519 9.0858135 49.846445 9.0858135 35.40564 C 9.0858135 20.964834 20.805887 9.2447605 35.246693 9.2447605 C 49.687498 9.2447605 61.407572 20.964834 61.407572 35.40564 z "
     id="path951" />
  <path
     style="font-size:12;fill:url(#linearGradient583);fill-rule:evenodd;stroke:#333333;stroke-width:1.875;stroke-dasharray:none;"
     d="M 19.3338 42.407023 C 20.108543 43.187333 29.782908 35.814262 31.042972 35.7393 C 32.084567 35.739303 41.172144 43.132895 41.857695 42.407023 C 42.554477 41.669247 35.188946 32.359842 35.189972 31.348362 C 35.191058 30.360985 42.640567 20.829855 41.939007 20.045758 C 41.258232 19.284893 31.999642 26.714571 31.042972 26.713483 C 29.984615 26.629462 20.222559 19.171081 19.496429 19.964445 C 18.758914 20.770248 26.649356 30.308081 26.652035 31.510989 C 26.573109 32.584427 18.591 41.576984 19.3338 42.407023 z "
     id="path589"
     sodipodi:nodetypes="cssssssss" />
  <path
     style="fill:url(#linearGradient581);fill-rule:evenodd;stroke:none;stroke-opacity:1;stroke-width:1pt;stroke-linejoin:miter;stroke-linecap:butt;fill-opacity:1;opacity:0.800000;"
     d="M 11.520046 40.726077 C 10.303378 38.93298 4.1209392 21.894544 19.052383 11.925963 C 31.915034 3.117017 45.750489 13.900377 47.18788 17.021368 C 47.554568 17.874071 35.289059 7.9442935 22.153934 17.021368 C 7.5400833 27.293574 12.001846 41.517605 11.520046 40.726077 z "
     id="path918"
     sodipodi:nodetypes="cssss" />
  <path
     style="font-size:12;fill:url(#linearGradient600);fill-rule:evenodd;stroke:none;stroke-width:1pt;"
     d="M 23.259432 38.609954 C 23.351711 38.325923 27.558679 32.928876 28.938442 31.53797 C 29.203809 31.27046 28.780666 33.405142 28.437664 33.816831 C 26.967172 35.58178 23.183346 38.844143 23.259432 38.609954 z "
     id="path596"
     sodipodi:nodetypes="csss" />
  <path
     style="fill:url(#linearGradient599);fill-rule:evenodd;stroke:none;stroke-opacity:1;stroke-width:1pt;stroke-linejoin:miter;stroke-linecap:butt;fill-opacity:1;opacity:0.750382;"
     d="M 26.464851 28.245395 C 26.100812 27.893908 23.071647 23.860192 23.306728 23.751047 C 23.578927 23.62467 28.124006 26.838221 28.472366 27.17457 C 28.649403 27.345501 24.818413 24.981568 24.700787 25.030047 C 24.633332 25.061368 26.626209 28.401188 26.464851 28.245395 z "
     id="path597"
     sodipodi:nodetypes="cssss" />
  <path
     style="fill:url(#linearGradient922);fill-rule:evenodd;stroke:none;stroke-opacity:1;stroke-width:1pt;stroke-linejoin:miter;stroke-linecap:butt;fill-opacity:1;"
     d="M 31.309223 28.786241 C 32.561272 27.584272 37.655011 24.093998 37.940029 24.115923 C 38.181159 24.134472 35.263691 27.172376 33.629653 28.304879 C 33.219803 28.588933 31.043536 29.041301 31.309223 28.786241 z "
     id="path598"
     sodipodi:nodetypes="csss" />
</svg>
