<?xml version="1.0" encoding="UTF-8" standalone="no"?>
<!DOCTYPE svg PUBLIC "-//W3C//DTD SVG 20010904//EN"
"http://www.w3.org/TR/2001/REC-SVG-20010904/DTD/svg10.dtd">
<!-- Created with Inkscape (http://www.inkscape.org/) -->
<svg
   id="svg1"
   sodipodi:version="0.32"
   inkscape:version="0.37"
   width="48pt"
   height="48pt"
   sodipodi:docbase="/usr/share/themes/Lila/gtk-2.0"
   sodipodi:docname="stock_find.svg"
   xmlns="http://www.w3.org/2000/svg"
   xmlns:inkscape="http://www.inkscape.org/namespaces/inkscape"
   xmlns:sodipodi="http://sodipodi.sourceforge.net/DTD/sodipodi-0.dtd"
   xmlns:xlink="http://www.w3.org/1999/xlink">
  <defs
     id="defs3">
    <linearGradient
       id="linearGradient866">
      <stop
         style="stop-color:#ffffff;stop-opacity:1;"
         offset="0.00000000"
         id="stop867" />
      <stop
         style="stop-color:#d9cce6;stop-opacity:1;"
         offset="1.00000000"
         id="stop868" />
    </linearGradient>
    <linearGradient
       id="linearGradient584">
      <stop
         style="stop-color:#ffffff;stop-opacity:1;"
         offset="0.00000000"
         id="stop585" />
      <stop
         style="stop-color:#ffffff;stop-opacity:0;"
         offset="1.00000000"
         id="stop586" />
    </linearGradient>
    <linearGradient
       id="linearGradient578">
      <stop
         style="stop-color:#d9cce6;stop-opacity:1;"
         offset="0.00000000"
         id="stop579" />
      <stop
         style="stop-color:#73667f;stop-opacity:1;"
         offset="1.00000000"
         id="stop580" />
    </linearGradient>
    <linearGradient
       xlink:href="#linearGradient866"
       id="linearGradient581"
       x1="-0.00684932"
       y1="0.00775194"
       x2="0.97945207"
       y2="1.00000000" />
    <linearGradient
       xlink:href="#linearGradient584"
       id="linearGradient583"
       x1="0.01094890"
       y1="0.01030928"
       x2="1.01459849"
       y2="0.96907216" />
    <linearGradient
       xlink:href="#linearGradient584"
       id="linearGradient860"
       x1="0.01724138"
       y1="0.01562503"
       x2="0.97413802"
       y2="0.98437494" />
    <linearGradient
       xlink:href="#linearGradient584"
       id="linearGradient861"
       x1="-0.00000059"
       y1="0.01562460"
       x2="0.99315012"
       y2="0.97656339" />
    <linearGradient
       xlink:href="#linearGradient584"
       id="linearGradient862"
       x1="0.01515152"
       y1="0.00000004"
       x2="0.97727269"
       y2="1.00000012" />
    <linearGradient
       xlink:href="#linearGradient578"
       id="linearGradient869"
       x1="0.00000000"
       y1="-0.00000000"
       x2="1.00000000"
       y2="-0.00000000" />
    <linearGradient
       xlink:href="#linearGradient578"
       id="linearGradient797"
       x1="0.00000000"
       y1="-0.00000000"
       x2="1.00000000"
       y2="-0.00000000" />
  </defs>
  <sodipodi:namedview
     id="base"
     pagecolor="#ffffff"
     bordercolor="#666666"
     borderopacity="1.0"
     inkscape:pageopacity="0.0"
     inkscape:pageshadow="2"
     inkscape:zoom="7.97947193"
     inkscape:cx="26.9249810"
     inkscape:cy="24.5872611"
     inkscape:window-width="640"
     inkscape:window-height="606"
     inkscape:window-x="168"
     inkscape:window-y="87" />
  <path
     d="M 3.6269439 48.15419 C 4.436245 50.57205 37.95017 61.443961 40.150598 59.619547 C 42.120218 57.969334 56.85796 8.850607 55.871176 6.9026013 C 54.845438 4.7549275 20.843253 -0.59455964 19.229312 0.87438943 C 17.241288 2.6944189 2.7769694 45.380009 3.6269439 48.15419 z "
     style="font-size:12;opacity:0.302675;fill-rule:evenodd;stroke-width:12.5;"
     id="path639" />
  <path
     d="M 3.7421522 46.153016 C 4.4993559 48.415109 35.854165 58.586617 37.912835 56.879736 C 39.755565 55.335836 53.543858 9.3814957 52.620642 7.5589481 C 51.660984 5.5496336 19.849329 0.54481796 18.339365 1.9191331 C 16.479416 3.6219098 2.9469356 43.557556 3.7421522 46.153016 z "
     style="font-size:12;fill:url(#linearGradient581);fill-rule:evenodd;stroke:#261933;stroke-width:1.87707;"
     id="path634" />
  <path
     d="M 5.8754327 44.034081 C 5.5482024 43.205067 18.550199 4.6597222 19.765737 3.8648171 C 21.284911 2.8280648 45.843374 7.4175721 46.169834 8.2446434 C 46.469062 9.0026785 27.009219 5.4630386 22.679849 9.3355456 C 14.376499 16.554101 6.1738915 44.790214 5.8754327 44.034081 z "
     style="font-size:12;opacity:0.699936;fill:url(#linearGradient583);fill-rule:evenodd;stroke:#ffffff;stroke-width:0.10011pt;"
     id="path640" />
  <path
     d="M 41.75166 30.399776 C 41.75166 37.259736 36.184126 42.82727 29.324167 42.82727 C 22.464108 42.82727 16.896572 37.259736 16.896572 30.399776 C 16.896572 23.539817 22.464108 17.972282 29.324167 17.972282 C 36.184126 17.972282 41.75166 23.539817 41.75166 30.399776 z M 38.672266 30.399776 C 38.672266 35.438528 34.484253 39.527935 29.324167 39.527935 C 24.16398 39.527935 19.976066 35.438528 19.976066 30.399776 C 19.976066 25.361023 24.16398 21.271517 29.324167 21.271517 C 34.484253 21.271517 38.672266 25.361023 38.672266 30.399776 z "
     style="font-size:12;opacity:0.3;fill-rule:evenodd;stroke-width:13.4904;"
     id="path1566" />
  <path
     d="M 40.690622 28.807121 C 40.690622 35.66708 34.768366 41.589337 27.908405 41.589337 C 21.048347 41.589337 15.12609 35.66708 15.12609 28.807121 C 15.12609 21.947162 21.048347 16.024904 27.908405 16.024904 C 34.768366 16.024904 40.690622 21.947162 40.690622 28.807121 z M 36.547065 28.807121 C 36.547065 33.845874 33.068492 37.225837 27.908405 37.225837 C 22.748221 37.225837 19.269749 33.845874 19.269749 28.807121 C 19.269749 23.768368 22.748221 20.388305 27.908405 20.388305 C 33.068492 20.388305 36.547065 23.768368 36.547065 28.807121 z "
     style="font-size:12;fill:url(#linearGradient869);fill-rule:evenodd;stroke:#261933;stroke-width:1.87707;"
     id="path1525"
     sodipodi:nodetypes="cccccccccs" />
  <path
     d="M 36.48741 40.225791 C 36.234448 39.728313 38.294435 37.456424 38.791693 37.717174 C 40.572628 38.65037 42.180232 41.396543 44.200316 42.803946 C 48.333589 45.68362 54.156444 47.401796 57.25198 50.578848 C 58.246387 51.599362 57.318165 54.832951 56.344272 55.646794 C 55.276477 56.539401 51.527122 57.709229 50.248711 56.701769 C 46.69474 53.901748 44.268674 48.778336 41.094146 44.977436 C 39.681574 43.286233 37.294672 41.813877 36.48741 40.225791 z "
     style="font-size:12;opacity:0.3;fill-rule:evenodd;stroke-width:13.4904;"
     id="path1565"
     sodipodi:nodetypes="ccsccccc" />
  <ellipse
     cx="373.574921"
     cy="328.786621"
     rx="115.024445"
     ry="115.024429"
     transform="matrix(7.179272e-2,0.000000,0.000000,7.010354e-2,1.088349,5.758071)"
     style="font-size:12;fill-rule:evenodd;stroke-width:1pt;fill:url(#linearGradient862);"
     id="path1521" />
  <path
     d="M 35.517905 37.510893 C 35.264943 37.013416 37.199471 34.992447 37.696728 35.253197 C 39.477663 36.186392 41.085276 38.932553 43.105351 40.339968 C 47.238635 43.219631 53.061475 44.937819 56.157024 48.114871 C 57.15143 49.135385 55.972282 52.368972 54.998388 53.182816 C 53.930593 54.075423 50.557619 54.994332 49.279207 53.986871 C 45.725235 51.18685 43.299171 46.063438 40.124642 42.262539 C 38.71207 40.571336 36.325167 39.09898 35.517905 37.510893 z "
     style="font-size:12;fill:url(#linearGradient797);fill-rule:evenodd;stroke:#261933;stroke-width:1.87707;"
     id="path1531"
     sodipodi:nodetypes="cccccccc" />
  <path
     d="M 17.648432 33.434251 C 16.763556 31.6645 15.878781 25.824466 19.683674 21.311692 C 24.284943 17.15291 29.06321 17.772193 31.009855 18.037685 C 27.912842 18.21468 24.727333 17.772293 20.568549 21.842679 C 16.675158 25.64747 17.736929 31.310611 17.648432 33.434251 z "
     style="font-size:12;opacity:0.7;fill-rule:evenodd;stroke:none;stroke-width:1pt;fill:url(#linearGradient860);"
     id="path1533" />
  <path
     d="M 36.519002 37.335157 C 36.510007 37.276799 36.691446 36.971622 36.785677 37.04424 C 37.644936 37.706922 39.371022 39.48654 39.379359 39.54095 C 39.387147 39.59163 37.705488 38.031296 36.834163 37.3594 C 36.752 37.295995 36.526242 37.381888 36.519002 37.335157 z "
     style="font-size:12;opacity:0.7;fill-rule:evenodd;stroke:none;stroke-width:1pt;fill:url(#linearGradient861);"
     id="path1538" />
</svg>
