<?xml version="1.0" encoding="UTF-8" standalone="no"?>
<!DOCTYPE svg PUBLIC "-//W3C//DTD SVG 20010904//EN"
"http://www.w3.org/TR/2001/REC-SVG-20010904/DTD/svg10.dtd">
<!-- Created with Inkscape (http://www.inkscape.org/) -->
<svg
   id="svg1"
   sodipodi:version="0.32"
   inkscape:version="0.37"
   width="48pt"
   height="48pt"
   sodipodi:docbase="/home/dan/Projects/Lila-gtk/gtk-2.0"
   sodipodi:docname="stock_info.svg"
   xmlns="http://www.w3.org/2000/svg"
   xmlns:inkscape="http://www.inkscape.org/namespaces/inkscape"
   xmlns:sodipodi="http://sodipodi.sourceforge.net/DTD/sodipodi-0.dtd"
   xmlns:xlink="http://www.w3.org/1999/xlink">
  <defs
     id="defs3">
    <linearGradient
       id="linearGradient615">
      <stop
         style="stop-color:#ffffff;stop-opacity:1;"
         offset="0.00000000"
         id="stop616" />
      <stop
         style="stop-color:#ffffff;stop-opacity:0;"
         offset="1.00000000"
         id="stop617" />
    </linearGradient>
    <linearGradient
       id="linearGradient592">
      <stop
         style="stop-color:#ffff87;stop-opacity:1;"
         offset="0.00000000"
         id="stop593" />
      <stop
         style="stop-color:#ffffdb;stop-opacity:0;"
         offset="1.00000000"
         id="stop594" />
    </linearGradient>
    <linearGradient
       id="linearGradient581">
      <stop
         style="stop-color:#ffffe6;stop-opacity:1;"
         offset="0.00000000"
         id="stop582" />
      <stop
         style="stop-color:#dbb73a;stop-opacity:1;"
         offset="1.00000000"
         id="stop583" />
    </linearGradient>
    <linearGradient
       id="linearGradient576">
      <stop
         style="stop-color:#7b7d7f;stop-opacity:1;"
         offset="0.00000000"
         id="stop577" />
      <stop
         style="stop-color:#f3f3f3;stop-opacity:1;"
         offset="1.00000000"
         id="stop578" />
    </linearGradient>
    <linearGradient
       xlink:href="#linearGradient576"
       id="linearGradient579"
       x1="0.98275864"
       y1="0.94531250"
       x2="-0.00862069"
       y2="0.00781250" />
    <linearGradient
       xlink:href="#linearGradient581"
       id="linearGradient580"
       x1="0.04716981"
       y1="0.02343750"
       x2="0.94339621"
       y2="0.96093750" />
    <radialGradient
       xlink:href="#linearGradient581"
       id="radialGradient586" />
    <linearGradient
       xlink:href="#linearGradient592"
       id="linearGradient587"
       x1="0.01234568"
       y1="-0.00000000"
       x2="1.00617290"
       y2="0.99218750" />
    <linearGradient
       xlink:href="#linearGradient592"
       id="linearGradient596"
       x1="0.00000000"
       y1="0.49218750"
       x2="0.99484539"
       y2="0.50000000" />
    <linearGradient
       xlink:href="#linearGradient592"
       id="linearGradient599"
       x1="0.18604651"
       y1="0.98437500"
       x2="0.80232561"
       y2="0.00000000" />
    <linearGradient
       xlink:href="#linearGradient592"
       id="linearGradient603"
       x1="0.65116280"
       y1="0.96875000"
       x2="0.02325581"
       y2="-0.01562500" />
    <linearGradient
       xlink:href="#linearGradient592"
       id="linearGradient604"
       x1="0.98969072"
       y1="0.50781250"
       x2="0.00515464"
       y2="0.50000000" />
    <linearGradient
       xlink:href="#linearGradient592"
       id="linearGradient605"
       x1="1.00000000"
       y1="0.02343750"
       x2="0.00617284"
       y2="0.89062500" />
    <linearGradient
       xlink:href="#linearGradient615"
       id="linearGradient614"
       x1="0.00694444"
       y1="0.02343750"
       x2="0.97916669"
       y2="0.97656250" />
    <linearGradient
       xlink:href="#linearGradient615"
       id="linearGradient619"
       x1="0.00000000"
       y1="0.00781250"
       x2="0.98275864"
       y2="1.00000000" />
    <linearGradient
       xlink:href="#linearGradient592"
       id="linearGradient622"
       x1="0.01428571"
       y1="0.02343750"
       x2="0.99285716"
       y2="1.00000000" />
    <linearGradient
       xlink:href="#linearGradient592"
       id="linearGradient624"
       x1="0.00625000"
       y1="0.96875000"
       x2="1.00000000"
       y2="0.01562500" />
    <linearGradient
       xlink:href="#linearGradient592"
       id="linearGradient626"
       x1="0.47872341"
       y1="0.97656250"
       x2="0.50000000"
       y2="0.00781250" />
  </defs>
  <sodipodi:namedview
     id="base"
     pagecolor="#ffffff"
     bordercolor="#666666"
     borderopacity="1.0"
     inkscape:pageopacity="0.0"
     inkscape:pageshadow="2"
     inkscape:zoom="6.48134519"
     inkscape:cx="25.9310663"
     inkscape:cy="20.9953381"
     inkscape:window-width="723"
     inkscape:window-height="730"
     inkscape:window-x="44"
     inkscape:window-y="131" />
  <path
     style="font-size:12;fill:url(#linearGradient580);fill-rule:evenodd;stroke:#3f3f00;stroke-width:1.875;stroke-dasharray:none;"
     d="M 24.44091 40.824639 C 25.047064 41.611617 35.890943 41.61545 36.444479 40.824639 C 36.945263 40.250403 36.542045 34.413969 36.585695 33.057625 C 36.671598 30.247471 45.990556 28.210841 46.188552 17.24116 C 46.309797 10.382526 39.829847 3.2019906 30.654522 3.2605328 C 20.012022 3.3293399 14.599414 10.94871 14.696839 17.099942 C 14.617965 28.178555 24.436941 29.862452 24.44091 33.057625 C 24.376037 34.567919 23.765113 40.113026 24.44091 40.824639 z "
     id="path574"
     sodipodi:nodetypes="csssssss" />
  <path
     style="fill:#000000;fill-rule:evenodd;stroke:none;stroke-opacity:1;stroke-width:1pt;stroke-linejoin:miter;stroke-linecap:butt;fill-opacity:1;"
     d="M 28.694599 37.521059 C 28.28105 35.205189 28.796113 32.486264 28.129724 30.177701 C 27.478075 27.920202 24.336522 25.663131 24.740482 23.822871 C 25.183831 21.803161 28.674881 18.749443 30.671659 18.59779 C 32.393632 18.467006 35.364932 21.148915 35.896739 22.975562 C 36.447605 24.867669 34.307871 27.446456 33.919681 29.754043 C 33.460562 32.483249 33.88549 35.718268 33.354805 38.085933 C 33.273544 38.448493 32.116037 38.318201 32.083841 37.944714 C 31.880675 35.587978 32.262394 32.547999 32.648715 29.895264 C 32.968486 27.6995 34.609335 25.27242 34.202116 23.399216 C 33.903245 22.024397 31.756311 20.026526 30.530438 20.151191 C 28.979012 20.308962 26.077661 22.679248 25.870229 24.246526 C 25.654008 25.880202 28.72482 27.738824 29.25947 29.754043 C 29.948715 32.351959 29.709702 35.778756 29.541907 38.085933 C 29.521411 38.367761 28.751778 37.841265 28.694599 37.521059 z "
     id="path584"
     sodipodi:nodetypes="cssssssssssssss" />
  <path
     style="font-size:12;fill:url(#linearGradient579);fill-rule:evenodd;stroke:#3f3f3f;stroke-width:1.875;stroke-dasharray:none;"
     d="M 23.452381 35.458338 C 24.200784 34.420575 36.377358 34.527287 37.29179 35.599557 C 38.087561 36.655579 38.36146 50.174823 37.574227 51.133584 C 36.850433 51.881005 24.021777 52.040026 23.311164 51.133582 C 22.499086 50.269441 22.839067 36.363938 23.452381 35.458338 z "
     id="path575"
     sodipodi:nodetypes="cssss" />
  <path
     style="fill:#000000;fill-rule:evenodd;stroke:none;stroke-opacity:1;stroke-width:1pt;stroke-linejoin:miter;stroke-linecap:butt;fill-opacity:1;opacity:0.302675;"
     d="M 25.005786 37.435394 C 25.363979 37.102788 33.600851 37.047245 36.020823 37.576613 C 36.613511 37.706266 34.87275 39.423084 34.043765 39.412455 C 31.20107 39.376012 24.704956 37.714734 25.005786 37.435394 z "
     id="path585"
     sodipodi:nodetypes="csss" />
  <path
     style="fill:#000000;fill-rule:evenodd;stroke:none;stroke-opacity:1;stroke-width:1pt;stroke-linejoin:miter;stroke-linecap:butt;fill-opacity:1;opacity:0.296369;"
     d="M 25.005786 40.824639 C 25.363979 40.492031 33.600851 40.436488 36.020823 40.96586 C 36.613511 41.095507 34.87275 42.812327 34.043765 42.801698 C 31.20107 42.765253 24.704956 41.103977 25.005786 40.824639 z "
     id="path588"
     sodipodi:nodetypes="csss" />
  <path
     style="fill:#000000;fill-rule:evenodd;stroke:none;stroke-opacity:1;stroke-width:1pt;stroke-linejoin:miter;stroke-linecap:butt;fill-opacity:1;opacity:0.296369;"
     d="M 24.864568 44.355099 C 25.222762 44.022491 33.459633 43.966947 35.879605 44.496317 C 36.472292 44.625965 34.731533 46.342784 33.902547 46.332156 C 31.059851 46.295711 24.563742 44.634436 24.864568 44.355099 z "
     id="path589"
     sodipodi:nodetypes="csss" />
  <path
     style="fill:#000000;fill-rule:evenodd;stroke:none;stroke-opacity:1;stroke-width:1pt;stroke-linejoin:miter;stroke-linecap:butt;fill-opacity:1;opacity:0.300000;"
     d="M 25.005786 47.88556 C 25.363979 47.552952 33.600851 47.497409 36.020823 48.026778 C 36.613511 48.15643 34.87275 49.87325 34.043765 49.862619 C 31.20107 49.826173 24.704956 48.164898 25.005786 47.88556 z "
     id="path590"
     sodipodi:nodetypes="csss" />
  <path
     style="fill:url(#linearGradient614);fill-rule:evenodd;stroke:none;stroke-opacity:1;stroke-width:1pt;stroke-linejoin:miter;stroke-linecap:butt;fill-opacity:1;opacity:0.699936;"
     d="M 18.780713 24.691172 C 18.348263 24.150612 14.907449 14.786309 20.777842 9.3132705 C 26.961877 3.5343043 37.93288 6.7915061 38.352588 7.3161419 C 38.731733 7.7900704 31.322013 4.6166514 23.174397 12.308967 C 16.556874 18.40722 19.147114 25.149179 18.780713 24.691172 z "
     id="path613"
     sodipodi:nodetypes="cssss" />
  <path
     style="fill:url(#linearGradient619);fill-rule:evenodd;stroke:none;stroke-opacity:1;stroke-width:1pt;stroke-linejoin:miter;stroke-linecap:butt;fill-opacity:1;"
     d="M 36.355457 28.88515 C 36.557109 29.019585 40.809563 27.365614 42.57079 23.093472 C 44.334145 18.494653 42.95272 13.44516 42.746275 13.307533 C 42.553292 13.178879 43.155261 16.163298 40.948859 22.29462 C 39.023462 28.177559 36.157681 28.7533 36.355457 28.88515 z "
     id="path618"
     sodipodi:nodetypes="cssss" />
  <path
     style="fill:#000000;fill-rule:evenodd;stroke:none;stroke-opacity:1;stroke-width:1pt;stroke-linejoin:miter;stroke-linecap:butt;fill-opacity:1;opacity:0.296369;"
     d="M 22.375544 55.24727 C 22.477424 54.737882 27.848313 54.347845 30.563779 54.448418 C 33.240566 54.547558 38.648452 55.365655 38.552302 55.846408 C 38.448739 56.364219 32.795988 57.548976 29.964643 57.444113 C 27.40374 57.349265 22.277711 55.736446 22.375544 55.24727 z "
     id="path629"
     sodipodi:nodetypes="cssss" />
  <path
     style="font-size:12;opacity:0.145032;fill-rule:evenodd;stroke:none;stroke-width:0.129441pt;"
     d="M 14.78645 55.846408 C 14.888173 56.999261 25.17702 59.274568 30.364067 59.241532 C 35.628668 59.207999 46.239719 56.761063 46.141399 55.646695 C 46.040008 54.497648 35.207143 52.416624 29.764927 52.451286 C 24.755496 52.483193 14.68846 54.735846 14.78645 55.846408 z "
     id="path630"
     sodipodi:nodetypes="cssss" />
</svg>
