<?xml version="1.0" encoding="UTF-8" standalone="no"?>
<!DOCTYPE svg PUBLIC "-//W3C//DTD SVG 20010904//EN"
"http://www.w3.org/TR/2001/REC-SVG-20010904/DTD/svg10.dtd">
<!-- Created with Inkscape (http://www.inkscape.org/) -->
<svg
   id="svg1"
   sodipodi:version="0.32"
   inkscape:version="0.37"
   width="48pt"
   height="48pt"
   sodipodi:docbase="/usr/share/themes/Lila/gtk-2.0"
   sodipodi:docname="stock_properties.svg"
   xmlns="http://www.w3.org/2000/svg"
   xmlns:inkscape="http://www.inkscape.org/namespaces/inkscape"
   xmlns:sodipodi="http://sodipodi.sourceforge.net/DTD/sodipodi-0.dtd"
   xmlns:xlink="http://www.w3.org/1999/xlink">
  <defs
     id="defs3">
    <linearGradient
       id="linearGradient866">
      <stop
         style="stop-color:#faf8fd;stop-opacity:1;"
         offset="0.00000000"
         id="stop867" />
      <stop
         style="stop-color:#d9cce6;stop-opacity:1;"
         offset="1.00000000"
         id="stop868" />
    </linearGradient>
    <linearGradient
       id="linearGradient584">
      <stop
         style="stop-color:#ffffff;stop-opacity:1;"
         offset="0.00000000"
         id="stop585" />
      <stop
         style="stop-color:#ffffff;stop-opacity:0;"
         offset="1.00000000"
         id="stop586" />
    </linearGradient>
    <linearGradient
       id="linearGradient578">
      <stop
         style="stop-color:#d9cce6;stop-opacity:1;"
         offset="0.00000000"
         id="stop579" />
      <stop
         style="stop-color:#73667f;stop-opacity:1;"
         offset="1.00000000"
         id="stop580" />
    </linearGradient>
    <linearGradient
       xlink:href="#linearGradient866"
       id="linearGradient581"
       x1="-0.00684932"
       y1="0.00775194"
       x2="0.97945207"
       y2="1.00000000" />
    <linearGradient
       xlink:href="#linearGradient584"
       id="linearGradient583"
       x1="0.01094890"
       y1="0.01030928"
       x2="1.01459849"
       y2="0.96907216" />
    <linearGradient
       xlink:href="#linearGradient584"
       id="linearGradient860"
       x1="0.00495049"
       y1="0.01562500"
       x2="0.99504948"
       y2="0.97656250" />
    <linearGradient
       xlink:href="#linearGradient584"
       id="linearGradient861"
       x1="-0.00000000"
       y1="0.01562500"
       x2="1.07894742"
       y2="1.10156250" />
    <linearGradient
       xlink:href="#linearGradient584"
       id="linearGradient862"
       x1="0.09740259"
       y1="0.10156250"
       x2="0.98051947"
       y2="0.98437500" />
    <linearGradient
       xlink:href="#linearGradient584"
       id="linearGradient869"
       x1="0.02450980"
       y1="0.04687500"
       x2="1.08823526"
       y2="1.08593750" />
    <linearGradient
       xlink:href="#linearGradient584"
       id="linearGradient797"
       x1="0.02343750"
       y1="0.03125000"
       x2="1.02343750"
       y2="1.03906250" />
    <linearGradient
       xlink:href="#linearGradient578"
       id="linearGradient901"
       x1="0.01408451"
       y1="0.03125000"
       x2="0.97887325"
       y2="0.97656250" />
  </defs>
  <sodipodi:namedview
     id="base"
     pagecolor="#ffffff"
     bordercolor="#666666"
     borderopacity="1.0"
     inkscape:pageopacity="0.0"
     inkscape:pageshadow="2"
     inkscape:zoom="7.97947191"
     inkscape:cx="24.9511413"
     inkscape:cy="25.6151979"
     inkscape:window-width="640"
     inkscape:window-height="606"
     inkscape:window-x="212"
     inkscape:window-y="89" />
  <path
     d="M 5.0988242 48.107872 C 5.9114706 50.535723 39.563887 61.452562 41.773408 59.620607 C 43.751167 57.963574 58.549815 8.6418728 57.558948 6.6858176 C 56.528969 4.5292695 22.386277 -0.84232328 20.765669 0.63269595 C 18.769428 2.4602451 4.2453375 45.322226 5.0988242 48.107872 z "
     style="font-size:12;opacity:0.302675;fill-rule:evenodd;stroke-width:12.5;"
     id="path639" />
  <path
     d="M 5.2145084 46.098428 C 5.9748418 48.369868 37.459221 58.58341 39.526396 56.869475 C 41.376743 55.319193 55.222014 9.1749554 54.294981 7.3448762 C 53.331358 5.3272593 21.388247 0.30176177 19.872044 1.681756 C 18.004408 3.3915688 4.4160067 43.492243 5.2145084 46.098428 z "
     style="font-size:12;fill:url(#linearGradient581);fill-rule:evenodd;stroke:#261933;stroke-width:1.875;stroke-dasharray:none;"
     id="path634" />
  <path
     d="M 7.3566055 43.970737 C 7.0280224 43.138299 20.083748 4.4336704 21.30431 3.6354795 C 22.829762 2.5944431 47.489707 7.2029165 47.817516 8.0334049 C 48.117983 8.7945727 28.577724 5.2403053 24.230464 9.1288152 C 15.892801 16.3772 7.6562972 44.729995 7.3566055 43.970737 z "
     style="font-size:12;opacity:0.699936;fill:url(#linearGradient583);fill-rule:evenodd;stroke:#ffffff;stroke-width:0.100524pt;"
     id="path640" />
  <path
     d="M 15.152337 41.757088 C 16.919801 42.313258 17.625315 38.13868 21.225464 41.006467 C 25.288204 44.245087 20.704648 45.552525 21.478628 47.116997 C 22.049424 48.15036 26.366387 46.251518 27.166236 44.860111 C 27.978696 43.446971 25.364239 40.403399 26.315527 38.703587 C 29.469489 33.068433 34.503967 27.096392 39.482185 22.855473 C 41.102968 21.474836 44.857422 23.103852 46.112571 21.838758 C 47.330468 20.611035 48.013026 15.759814 46.901114 15.37713 C 45.185989 14.755002 43.969589 20.215808 40.518949 17.379814 C 37.045227 14.524229 41.659604 11.886118 41.067172 10.556016 C 40.552149 9.4836133 35.825577 11.413769 34.830186 12.911326 C 33.848446 14.388318 36.170385 17.671263 35.13578 19.479664 C 31.92586 25.09007 26.988469 30.977826 22.096541 35.167764 C 20.677673 36.383016 17.338111 34.618629 16.20334 35.695396 C 15.023398 36.815043 14.00405 41.340588 15.152337 41.757088 z "
     style="font-size:12;opacity:0.302675;fill-rule:evenodd;stroke-width:12.5;"
     id="path636" />
  <path
     d="M 13.806925 40.687561 C 15.574383 41.243733 16.279873 37.069159 19.880023 39.936947 C 23.942764 43.175566 19.359211 44.483005 20.133187 46.047474 C 20.703984 47.080839 25.020946 45.181999 25.820796 43.79059 C 26.633256 42.37745 24.018799 39.33388 24.970085 37.634064 C 28.124049 31.998911 33.158527 26.026872 38.136743 21.785952 C 39.757526 20.405316 43.511983 22.034334 44.767132 20.769237 C 45.985028 19.541514 46.667585 14.690293 45.555675 14.307609 C 43.840549 13.68548 42.624149 19.146287 39.17351 16.310295 C 35.699787 13.454708 40.314165 10.816599 39.721737 9.4865325 C 39.206714 8.4141234 34.480148 10.344307 33.484746 11.841805 C 32.503006 13.318797 34.824944 16.601742 33.790339 18.410143 C 30.58042 24.020549 25.643029 29.908304 20.751101 34.098243 C 19.332232 35.313495 15.992671 33.54911 14.85792 34.62587 C 13.677987 35.745516 12.658638 40.271061 13.806925 40.687561 z "
     style="font-size:12;fill:url(#linearGradient901);fill-rule:evenodd;stroke:#261933;stroke-width:1.875;stroke-dasharray:none;"
     id="path630" />
  <path
     d="M 14.487284 39.719358 C 14.405797 39.521883 14.851293 36.424427 15.743576 35.792503 C 16.622185 35.170227 19.723232 35.770924 19.799983 35.956834 C 19.870425 36.127551 17.121197 36.199429 16.185079 36.862394 C 15.350283 37.453631 14.552967 39.878511 14.487284 39.719358 z "
     style="font-size:12;opacity:0.699936;fill:url(#linearGradient860);fill-rule:evenodd;stroke-width:1pt;"
     id="path631" />
  <path
     d="M 21.49638 45.02689 C 21.41318 45.002665 22.681263 43.709376 22.847581 42.972768 C 22.984386 42.366799 22.324991 40.975542 22.405574 40.999039 C 22.498555 41.026075 23.509667 42.49813 23.368272 43.124369 C 23.206559 43.84078 21.586743 45.053198 21.49638 45.02689 z "
     style="font-size:12;opacity:0.699936;fill:url(#linearGradient861);fill-rule:evenodd;stroke-width:1pt;"
     id="path632" />
  <path
     d="M 21.710034 35.002424 C 21.622907 34.893877 26.850378 30.122976 29.107585 27.422528 C 31.275982 24.828205 34.901227 19.011248 34.986987 19.118085 C 35.074969 19.227607 31.832049 25.435375 29.62858 28.071568 C 27.406373 30.730161 21.796575 35.110249 21.710034 35.002424 z "
     style="font-size:12;opacity:0.7;fill:url(#linearGradient862);fill-rule:evenodd;stroke-width:1pt;"
     id="path633" />
  <path
     d="M 34.939859 15.683335 C 34.74697 15.549932 34.074635 13.356829 34.547884 12.632204 C 35.252359 11.553444 38.293583 10.149028 38.473023 10.273112 C 38.638335 10.38746 36.33045 12.201775 35.582218 13.347489 C 35.152724 14.005161 35.091723 15.788365 34.939859 15.683335 z "
     style="font-size:12;opacity:0.7;fill:url(#linearGradient797);fill-rule:evenodd;stroke-width:1pt;"
     id="path899" />
  <path
     d="M 41.001564 18.340094 C 40.966592 18.218499 42.281476 18.33543 42.751198 18.021119 C 43.57536 17.469555 44.848389 15.621678 44.883129 15.742412 C 44.923248 15.881899 43.803828 18.247622 42.97571 18.801867 C 42.510031 19.113558 41.041449 18.47872 41.001564 18.340094 z "
     style="font-size:12;opacity:0.699936;fill:url(#linearGradient869);fill-rule:evenodd;stroke-width:1pt;"
     id="path635" />
</svg>
