<?xml version="1.0" encoding="UTF-8" standalone="no"?>
<!DOCTYPE svg PUBLIC "-//W3C//DTD SVG 20010904//EN"
"http://www.w3.org/TR/2001/REC-SVG-20010904/DTD/svg10.dtd">
<!-- Created with Inkscape (http://www.inkscape.org/) -->
<svg
   version="1"
   x="0.00000000"
   y="0.00000000"
   width="48pt"
   height="48pt"
   id="svg548"
   sodipodi:version="0.32"
   sodipodi:docname="stock_home.svg"
   sodipodi:docbase="/usr/share/themes/Lila/gtk-2.0"
   inkscape:version="0.37"
   xmlns="http://www.w3.org/2000/svg"
   xmlns:inkscape="http://www.inkscape.org/namespaces/inkscape"
   xmlns:sodipodi="http://sodipodi.sourceforge.net/DTD/sodipodi-0.dtd"
   xmlns:xlink="http://www.w3.org/1999/xlink">
  <sodipodi:namedview
     id="base"
     inkscape:zoom="4.94399998"
     inkscape:cx="25.6781255"
     inkscape:cy="22.1585827"
     inkscape:window-width="514"
     inkscape:window-height="557"
     inkscape:window-x="79"
     inkscape:window-y="69" />
  <defs
     id="defs550">
    <linearGradient
       x1="0.00000000"
       y1="0.00000000"
       x2="1.00000000"
       y2="0.00000000"
       id="linearGradient1129"
       gradientUnits="objectBoundingBox"
       spreadMethod="pad">
      <stop
         style="stop-color:#d9cce6;stop-opacity:1;"
         offset="0.00000000"
         id="stop1130" />
      <stop
         style="stop-color:#73667f;stop-opacity:1;"
         offset="1.00000000"
         id="stop1131" />
    </linearGradient>
    <linearGradient
       x1="0.00000000"
       y1="0.00000000"
       x2="1.00000000"
       y2="0.00000000"
       id="linearGradient588"
       gradientUnits="objectBoundingBox"
       spreadMethod="pad">
      <stop
         style="stop-color:#a673f3;stop-opacity:1;"
         offset="0.00000000"
         id="stop589" />
      <stop
         style="stop-color:#4c3f8c;stop-opacity:1;"
         offset="1.00000000"
         id="stop590" />
    </linearGradient>
    <linearGradient
       x1="0.00000000"
       y1="0.00000000"
       x2="1.00000000"
       y2="0.00000000"
       id="linearGradient576"
       gradientUnits="objectBoundingBox"
       spreadMethod="pad">
      <stop
         style="stop-color:#000000;stop-opacity:1;"
         offset="0.00000000"
         id="stop577" />
      <stop
         style="stop-color:#000000;stop-opacity:0;"
         offset="1.00000000"
         id="stop578" />
    </linearGradient>
    <linearGradient
       x1="0.00000000"
       y1="0.00000000"
       x2="1.00000000"
       y2="0.00000000"
       id="linearGradient569"
       gradientUnits="objectBoundingBox"
       spreadMethod="pad">
      <stop
         style="stop-color:#736b7f;stop-opacity:1;"
         offset="0.00000000"
         id="stop570" />
      <stop
         style="stop-color:#f3ebff;stop-opacity:1;"
         offset="1.00000000"
         id="stop571" />
    </linearGradient>
    <linearGradient
       x1="0.00000000"
       y1="0.00000000"
       x2="1.00000000"
       y2="0.00000000"
       id="linearGradient564"
       gradientUnits="objectBoundingBox"
       spreadMethod="pad">
      <stop
         style="stop-color:#7f7366;stop-opacity:1;"
         offset="0.00000000"
         id="stop565" />
      <stop
         style="stop-color:#7f7366;stop-opacity:0;"
         offset="1.00000000"
         id="stop566" />
    </linearGradient>
    <linearGradient
       x1="0.00000000"
       y1="0.00000000"
       x2="1.00000000"
       y2="0.00000000"
       id="linearGradient558"
       gradientUnits="objectBoundingBox"
       spreadMethod="pad">
      <stop
         style="stop-color:#ffffff;stop-opacity:1;"
         offset="0.00000000"
         id="stop559" />
      <stop
         style="stop-color:#ffffff;stop-opacity:0;"
         offset="1.00000000"
         id="stop560" />
    </linearGradient>
    <linearGradient
       id="linearGradient561"
       xlink:href="#linearGradient1129"
       x1="-0.01351351"
       y1="-0.00000000"
       x2="0.98648649"
       y2="0.98437500" />
    <linearGradient
       x1="0.49351925"
       y1="0.99222833"
       x2="0.49350709"
       y2="0.01562530"
       id="linearGradient563"
       xlink:href="#linearGradient564"
       gradientUnits="objectBoundingBox"
       spreadMethod="pad" />
    <linearGradient
       x1="0.12337894"
       y1="0.99219656"
       x2="0.82467574"
       y2="0.00000038"
       id="linearGradient572"
       xlink:href="#linearGradient569"
       gradientUnits="objectBoundingBox"
       spreadMethod="pad" />
    <linearGradient
       x1="0.03246462"
       y1="0.98445034"
       x2="0.69480515"
       y2="0.24218844"
       id="linearGradient575"
       xlink:href="#linearGradient564"
       gradientUnits="objectBoundingBox"
       spreadMethod="pad" />
    <radialGradient
       cx="0.48876417"
       cy="0.98437452"
       fx="0.48804680"
       fy="0.96095657"
       r="0.79719150"
       id="radialGradient579"
       xlink:href="#linearGradient576"
       gradientUnits="objectBoundingBox"
       spreadMethod="pad" />
    <linearGradient
       x1="0.57826090"
       y1="0.97656250"
       x2="0.29130435"
       y2="0.51562500"
       id="linearGradient583"
       xlink:href="#linearGradient564"
       gradientUnits="objectBoundingBox"
       spreadMethod="pad" />
    <linearGradient
       x1="0.96277922"
       y1="0.00000272"
       x2="0.00531922"
       y2="0.98437500"
       id="linearGradient585"
       xlink:href="#linearGradient558"
       gradientUnits="objectBoundingBox"
       spreadMethod="pad" />
    <radialGradient
       cx="0.14615387"
       cy="0.39062509"
       fx="0.14615387"
       fy="0.39062509"
       r="0.52400964"
       id="radialGradient587"
       xlink:href="#linearGradient558"
       gradientUnits="objectBoundingBox"
       spreadMethod="pad" />
    <radialGradient
       cx="0.13076705"
       cy="0.41407111"
       fx="0.13076705"
       fy="0.41407111"
       r="0.75421256"
       id="radialGradient592"
       xlink:href="#linearGradient558"
       gradientUnits="objectBoundingBox"
       spreadMethod="pad" />
    <linearGradient
       xlink:href="#linearGradient558"
       id="linearGradient1132"
       x1="0.01315789"
       y1="0.01562500"
       x2="0.96052629"
       y2="0.96875000" />
    <linearGradient
       xlink:href="#linearGradient1129"
       id="linearGradient1133"
       x1="0.01515152"
       y1="0.00000000"
       x2="0.97727275"
       y2="1.00000000" />
    <linearGradient
       xlink:href="#linearGradient558"
       id="linearGradient1134"
       x1="0.01094890"
       y1="0.02040816"
       x2="0.98905110"
       y2="0.97959185" />
    <linearGradient
       xlink:href="#linearGradient558"
       id="linearGradient1135"
       x1="-0.00000000"
       y1="0.01562500"
       x2="1.00000000"
       y2="0.99218750" />
  </defs>
  <path
     d="M 10.044544 54.871626 C 1.6418008 51.279342 0.39646187 20.679217 2.1313955 7.7816841 C 2.6881654 3.6421438 14.661702 2.3334236 18.476767 2.8522612 C 20.066983 3.0685804 20.039031 10.275579 21.84956 10.246455 C 30.806137 10.102593 42.825125 -0.34038515 49.221338 3.2414468 C 54.716573 6.3187693 58.714486 29.00962 54.150761 35.024047 C 45.655594 46.219681 18.938294 58.673771 10.044544 54.871626 z "
     style="font-size:12;opacity:0.302675;fill-rule:evenodd;stroke-width:18.75;stroke-linecap:round;stroke-linejoin:round;"
     id="path1123" />
  <path
     d="M 10.906626 51.347415 C 3.2914096 48.091826 2.1627826 20.35978 3.735137 8.671102 C 4.239775 4.9195497 15.091029 3.7334932 18.548515 4.2037017 C 19.989684 4.3997455 19.964354 10.931249 21.605186 10.904857 C 29.722284 10.774478 40.61476 1.3102838 46.411471 4.5564101 C 51.391652 7.3453026 55.01485 27.909393 50.878872 33.360101 C 43.179936 43.506396 18.966785 54.793194 10.906626 51.347415 z "
     style="font-size:12;fill:url(#linearGradient1133);fill-rule:evenodd;stroke:#261933;stroke-width:1.875;stroke-linecap:round;stroke-linejoin:round;stroke-dasharray:none;"
     id="path1124" />
  <path
     d="M 11.024125 48.878663 C 6.2301975 45.02877 3.7888526 18.767907 5.9689123 9.6116245 C 6.7279711 6.4235129 17.376401 5.8629452 17.725493 7.0252682 C 14.764395 7.1521328 10.31445 9.9592247 9.6133962 12.903505 C 7.3752781 22.303618 10.365111 46.312742 11.024125 48.878663 z "
     style="font-size:12;opacity:0.7;fill:url(#linearGradient1135);fill-rule:evenodd;stroke:none;stroke-width:1pt;"
     id="path1125" />
  <path
     d="M 23.486123 13.021111 C 34.290367 11.068651 42.305614 4.6233552 44.530427 6.437455 C 45.132502 6.9556629 36.723571 11.675196 31.598221 13.373926 C 29.86554 13.948115 22.969407 13.113492 23.486123 13.021111 z "
     style="font-size:12;opacity:0.699936;fill:url(#linearGradient1134);fill-rule:evenodd;stroke:none;stroke-width:1pt;"
     id="path1126" />
  <path
     d="M 11.54063 51.576346 C 9.4802519 51.246518 8.4368112 28.895031 13.702011 23.778407 C 22.181186 15.53838 43.775944 10.462947 52.773858 12.638588 C 57.298732 13.732796 54.799221 28.725499 50.612477 33.786141 C 41.695983 44.68149 20.024806 52.833284 11.54063 51.576346 z "
     style="font-size:12;fill:url(#linearGradient561);fill-rule:evenodd;stroke:#261933;stroke-width:1.875;stroke-linecap:round;stroke-linejoin:round;stroke-dasharray:none;"
     id="path576"
     sodipodi:nodetypes="ccccc" />
  <path
     d="M 13.14187 47.914621 C 10.389269 42.753829 13.017878 28.190157 15.137114 25.609016 C 24.411281 15.688732 49.056431 14.225387 51.002823 15.146007 C 35.614744 17.438829 28.361716 19.564064 19.369517 28.430582 C 15.372323 33.015694 12.623661 40.837769 13.14187 47.914621 z "
     style="font-size:12;opacity:0.7;fill:url(#linearGradient1132);fill-rule:evenodd;stroke:none;stroke-width:1.25;"
     id="path577"
     sodipodi:nodetypes="ccccc" />
  <path
     d="M 32.687894 41.120698 C 32.360915 40.14506 26.005167 38.473662 25.447559 33.898973 C 24.887516 29.23266 31.602165 22.303842 38.295629 22.169844 C 47.273215 21.918453 58.902705 32.577458 59.710416 38.616106 C 60.61977 45.333908 38.249244 59.771485 31.923847 58.980521 C 25.776541 58.283621 24.219528 53.151609 25.004477 49.600228 C 25.812045 46.09008 32.843653 42.024897 32.687894 41.120698 z "
     style="font-size:12;opacity:0.296369;fill:#000000;fill-rule:evenodd;stroke-width:1pt;fill-opacity:1;"
     id="path581" />
  <path
     d="M 32.492377 40.418493 C 32.192614 39.524063 26.365888 37.991784 25.854691 33.79787 C 25.341263 29.519959 31.497019 23.167861 37.633351 23.045016 C 45.863687 22.814551 56.525194 32.586353 57.265675 38.122373 C 58.099339 44.281016 37.590827 57.516881 31.791925 56.791757 C 26.156291 56.152859 24.728876 51.44801 25.448489 48.19223 C 26.188839 44.974248 32.63517 41.247433 32.492377 40.418493 z "
     style="font-size:12;fill:#bfb8cc;fill-rule:evenodd;stroke:#261e2e;stroke-width:1.875;stroke-dasharray:none;"
     id="path552" />
  <path
     d="M 36.322515 38.768613 C 36.031625 37.900654 29.08247 36.40812 28.031621 33.683376 C 26.924734 30.994038 31.994306 25.194692 37.930947 24.715817 C 44.578257 24.173264 55.044336 32.248027 56.280621 37.752406 C 57.158897 41.790489 37.12896 54.648393 31.560771 53.57309 C 26.793552 52.761679 26.613593 50.205432 27.254724 48.289553 C 28.099886 45.856973 36.461082 39.573021 36.322515 38.768613 z "
     style="font-size:12;fill:url(#radialGradient592);fill-rule:evenodd;stroke-width:1pt;"
     id="path557" />
  <path
     d="M 36.390241 38.818997 C 36.100336 37.953978 29.174729 36.466502 28.127443 33.750991 C 27.024305 31.070766 32.076698 25.291072 37.993222 24.81382 C 44.618008 24.273105 55.04862 32.320505 56.280716 37.806233 C 57.156016 41.830632 37.193953 54.644964 31.644633 53.573306 C 26.893569 52.764644 26.714219 50.217059 27.353177 48.307672 C 28.195475 45.883336 36.528339 39.620678 36.390241 38.818997 z "
     style="font-size:12;fill:url(#radialGradient587);fill-rule:evenodd;stroke-width:1pt;"
     id="path596" />
  <path
     d="M 37.208938 30.516082 C 40.426932 27.528058 45.884064 32.459674 44.278824 35.305388 C 42.395342 38.41591 34.041037 33.457655 37.208938 30.516082 z "
     style="font-size:12;fill:url(#linearGradient572);fill-rule:evenodd;stroke-width:1pt;"
     id="path568" />
  <path
     d="M 38.617259 31.543127 C 40.472137 29.820807 43.617671 32.663429 42.692399 34.303722 C 41.606744 36.096651 36.791256 33.238674 38.617259 31.543127 z "
     style="font-size:12;fill:#bfb8cc;fill-rule:evenodd;stroke-width:1pt;fill-opacity:1;"
     id="path562" />
  <path
     d="M 38.617259 31.543127 C 40.472137 29.820807 43.617671 32.663429 42.692399 34.303722 C 41.606744 36.096651 36.791256 33.238674 38.617259 31.543127 z "
     style="font-size:12;fill:url(#linearGradient563);fill-rule:evenodd;stroke-width:1pt;"
     id="path567" />
  <path
     d="M 42.693347 33.447023 C 42.670379 34.120067 42.248429 35.03245 41.299138 34.844135 C 40.361397 34.690799 38.838305 34.04169 38.392337 32.882603 C 38.261618 32.533061 40.275694 31.564132 41.036649 31.792161 C 41.623443 31.967852 42.724189 32.921002 42.693347 33.447023 z "
     style="font-size:12;fill:url(#radialGradient579);fill-rule:evenodd;stroke-width:1pt;"
     id="path574"
     sodipodi:nodetypes="ccccc" />
  <path
     d="M 27.259025 33.260204 C 27.474371 36.849708 31.206988 37.855698 33.360668 39.506867 C 34.204209 39.650396 35.032144 38.909776 34.775113 38.39166 C 31.724029 37.027655 28.317911 35.916396 27.259025 33.260204 z "
     style="font-size:12;fill:url(#linearGradient575);fill-rule:evenodd;stroke-width:1pt;"
     id="path580"
     sodipodi:nodetypes="cccc" />
  <path
     d="M 26.754246 51.433224 C 27.7312 54.010709 30.267097 55.465681 32.678228 55.548857 C 38.810153 55.34104 54.794544 44.407524 55.875469 39.210965 C 52.903018 42.786198 40.639295 52.472561 32.428823 53.42872 C 30.350273 53.470309 28.95756 53.200109 26.754246 51.433224 z "
     style="font-size:12;fill:url(#linearGradient583);fill-rule:evenodd;stroke-width:1pt;"
     id="path582" />
  <path
     d="M 55.543776 37.504097 C 54.655777 36.35387 46.93585 47.333908 32.80201 53.015741 C 45.480218 49.223566 56.189499 38.352328 55.543776 37.504097 z "
     style="font-size:12;opacity:0.804375;fill:url(#linearGradient585);fill-rule:evenodd;stroke-width:1pt;"
     id="path584" />
</svg>
