<?xml version="1.0" encoding="UTF-8" standalone="no"?>
<!DOCTYPE svg PUBLIC "-//W3C//DTD SVG 20010904//EN"
"http://www.w3.org/TR/2001/REC-SVG-20010904/DTD/svg10.dtd">
<!-- Created with Inkscape (http://www.inkscape.org/) -->
<svg
   id="svg1"
   sodipodi:version="0.32"
   inkscape:version="0.39"
   width="48pt"
   height="48pt"
   sodipodi:docbase="/home/scaba/files/lila/devel/lila-gnome/Lila/scalable/stock"
   sodipodi:docname="media-ffwd.svg"
   xmlns="http://www.w3.org/2000/svg"
   xmlns:cc="http://web.resource.org/cc/"
   xmlns:inkscape="http://www.inkscape.org/namespaces/inkscape"
   xmlns:sodipodi="http://sodipodi.sourceforge.net/DTD/sodipodi-0.dtd"
   xmlns:rdf="http://www.w3.org/1999/02/22-rdf-syntax-ns#"
   xmlns:dc="http://purl.org/dc/elements/1.1/"
   xmlns:xlink="http://www.w3.org/1999/xlink">
  <defs
     id="defs3">
    <linearGradient
       id="linearGradient599">
      <stop
         style="stop-color:#ffffff;stop-opacity:1;"
         offset="0.00000000"
         id="stop600" />
      <stop
         style="stop-color:#d9cce6;stop-opacity:1;"
         offset="1.00000000"
         id="stop601" />
    </linearGradient>
    <linearGradient
       id="linearGradient584">
      <stop
         style="stop-color:#ffffff;stop-opacity:1;"
         offset="0.00000000"
         id="stop585" />
      <stop
         style="stop-color:#ffffff;stop-opacity:0;"
         offset="1.00000000"
         id="stop586" />
    </linearGradient>
    <linearGradient
       id="linearGradient578">
      <stop
         style="stop-color:#d9cce6;stop-opacity:1;"
         offset="0.00000000"
         id="stop579" />
      <stop
         style="stop-color:#73667f;stop-opacity:1;"
         offset="1.00000000"
         id="stop580" />
    </linearGradient>
    <linearGradient
       xlink:href="#linearGradient599"
       id="linearGradient581"
       x1="0.00000000"
       y1="-0.00000000"
       x2="0.98888886"
       y2="0.98437500" />
    <linearGradient
       xlink:href="#linearGradient578"
       id="linearGradient583"
       x1="0.00000000"
       y1="0.00000000"
       x2="1.00000000"
       y2="0.00000000" />
    <linearGradient
       xlink:href="#linearGradient599"
       id="linearGradient860"
       x1="0.00000000"
       y1="0.00000000"
       x2="0.98905110"
       y2="0.97457629" />
    <linearGradient
       xlink:href="#linearGradient578"
       id="linearGradient861"
       x1="0.00000000"
       y1="-0.00000000"
       x2="0.98888886"
       y2="0.98437500" />
    <linearGradient
       xlink:href="#linearGradient584"
       id="linearGradient862"
       x1="-0.08500000"
       y1="-0.13281250"
       x2="0.99500000"
       y2="0.96875000" />
    <radialGradient
       xlink:href="#linearGradient599"
       id="radialGradient595"
       cx="0.50000000"
       cy="0.49218750"
       r="0.54896194"
       fx="0.50000000"
       fy="0.49218750" />
    <radialGradient
       xlink:href="#linearGradient578"
       id="radialGradient670"
       cx="0.47656250"
       cy="0.48437500"
       r="0.51939911"
       fx="0.47656250"
       fy="0.48437500" />
  </defs>
  <sodipodi:namedview
     id="base"
     pagecolor="#ffffff"
     bordercolor="#666666"
     borderopacity="1.0"
     inkscape:pageopacity="0.0"
     inkscape:pageshadow="2"
     inkscape:zoom="11.313708"
     inkscape:cx="24.645265"
     inkscape:cy="20.626828"
     inkscape:window-width="1022"
     inkscape:window-height="695"
     inkscape:window-x="0"
     inkscape:window-y="26"
     showguides="true"
     inkscape:guide-bbox="true" />
  <g
     transform="matrix(0.939009,0.000000,0.000000,0.950000,1.035344,1.240930)"
     style="font-size:12.000000;opacity:0.29999998;stroke:#000000;"
     id="g677">
    <ellipse
       cx="47.595680"
       cy="41.555550"
       rx="28.881311"
       ry="28.881311"
       transform="matrix(0.917566,0.000000,0.000000,0.917566,-11.48724,-5.833475)"
       style="fill-rule:evenodd;stroke-width:2.0541799;"
       id="path675"
       d="M 76.476992 41.555550 A 28.881311 28.881311 0 1 0 18.714369,41.555550 A 28.881311 28.881311 0 1 0 76.476992 41.555550 z"
       sodipodi:cx="47.595680"
       sodipodi:cy="41.555550"
       sodipodi:rx="28.881311"
       sodipodi:ry="28.881311" />
    <ellipse
       cx="42.107330"
       cy="34.267742"
       rx="21.773449"
       ry="21.773449"
       transform="matrix(0.934849,0.000000,0.000000,0.934849,-7.035911,0.205833)"
       style="fill-rule:evenodd;stroke-width:1.0000000pt;"
       id="path676"
       d="M 63.880779 34.267742 A 21.773449 21.773449 0 1 0 20.333881,34.267742 A 21.773449 21.773449 0 1 0 63.880779 34.267742 z"
       sodipodi:cx="42.107330"
       sodipodi:cy="34.267742"
       sodipodi:rx="21.773449"
       sodipodi:ry="21.773449" />
  </g>
  <metadata
     id="metadata933">
    <rdf:RDF
       id="RDF934">
      <cc:Work
         rdf:about=""
         id="Work935">
        <dc:format
           id="format936">image/svg+xml</dc:format>
        <dc:type
           id="type938"
           rdf:resource="http://purl.org/dc/dcmitype/StillImage" />
      </cc:Work>
    </rdf:RDF>
  </metadata>
  <ellipse
     cx="47.595680"
     cy="41.555550"
     rx="28.881311"
     ry="28.881311"
     transform="matrix(0.861603,0.000000,0.000000,0.871687,-11.00858,-6.223432)"
     style="font-size:12.000000;fill:url(#radialGradient670);fill-opacity:1.00000000;fill-rule:evenodd;stroke:#261933;stroke-width:2.0434501;"
     id="path594"
     d="M 76.476992 41.555550 A 28.881311 28.881311 0 1 0 18.714369,41.555550 A 28.881311 28.881311 0 1 0 76.476992 41.555550 z"
     sodipodi:cx="47.595680"
     sodipodi:cy="41.555550"
     sodipodi:rx="28.881311"
     sodipodi:ry="28.881311" />
  <path
     style="font-size:12.000000;fill:url(#linearGradient581);fill-rule:evenodd;stroke:#261933;stroke-width:1.3735670;"
     d="M 26.033156,12.921548 C 25.467154,11.652680 51.845656,26.872007 51.845656,29.859048 C 51.845656,32.873243 25.623895,47.815634 26.033156,46.890298 C 27.142317,44.382492 27.846371,42.037542 28.408156,39.827798 C 21.856284,43.864073 15.327041,47.418820 15.533156,46.952798 C 19.386120,38.241268 19.376907,30.367266 19.376906,29.952798 C 19.376906,29.520197 19.392873,21.605544 15.533156,12.952798 C 15.247207,12.311756 21.846784,15.876987 28.439406,19.952798 C 27.877340,17.742665 27.145236,15.414619 26.033156,12.921548 z "
     id="path968" />
</svg>
