<?xml version="1.0" encoding="UTF-8" standalone="no"?>
<!DOCTYPE svg PUBLIC "-//W3C//DTD SVG 20010904//EN"
"http://www.w3.org/TR/2001/REC-SVG-20010904/DTD/svg10.dtd">
<!-- Created with Inkscape (http://www.inkscape.org/) -->
<svg
   id="svg1"
   sodipodi:version="0.32"
   inkscape:version="0.37"
   width="48pt"
   height="48pt"
   sodipodi:docbase="/usr/share/icons/Lila/scalable/apps"
   sodipodi:docname="gnome-logout.svg"
   xmlns="http://www.w3.org/2000/svg"
   xmlns:inkscape="http://www.inkscape.org/namespaces/inkscape"
   xmlns:sodipodi="http://sodipodi.sourceforge.net/DTD/sodipodi-0.dtd"
   xmlns:xlink="http://www.w3.org/1999/xlink">
  <defs
     id="defs3">
    <linearGradient
       id="linearGradient679">
      <stop
         style="stop-color:#736b7a;stop-opacity:1;"
         offset="0.00000000"
         id="stop680" />
      <stop
         style="stop-color:#000000;stop-opacity:1;"
         offset="1.00000000"
         id="stop681" />
    </linearGradient>
    <linearGradient
       id="linearGradient584">
      <stop
         style="stop-color:#ffffff;stop-opacity:1;"
         offset="0.00000000"
         id="stop585" />
      <stop
         style="stop-color:#ffffff;stop-opacity:0;"
         offset="1.00000000"
         id="stop586" />
    </linearGradient>
    <linearGradient
       id="linearGradient578">
      <stop
         style="stop-color:#d9cce6;stop-opacity:1;"
         offset="0.00000000"
         id="stop579" />
      <stop
         style="stop-color:#73667f;stop-opacity:1;"
         offset="1.00000000"
         id="stop580" />
    </linearGradient>
    <linearGradient
       xlink:href="#linearGradient578"
       id="linearGradient581"
       x1="0.00694444"
       y1="0.02142857"
       x2="0.98611110"
       y2="0.97857141" />
    <linearGradient
       xlink:href="#linearGradient584"
       id="linearGradient583"
       x1="0.01754386"
       y1="0.01428571"
       x2="0.98245615"
       y2="0.97142857" />
    <linearGradient
       xlink:href="#linearGradient679"
       id="linearGradient612"
       x1="0.58999997"
       y1="0.98449612"
       x2="0.58999997"
       y2="0.02325581" />
    <linearGradient
       xlink:href="#linearGradient578"
       id="linearGradient614"
       x1="0.00000000"
       y1="0.00000000"
       x2="1.00000000"
       y2="0.00000000" />
    <linearGradient
       xlink:href="#linearGradient584"
       id="linearGradient685"
       x1="0.01136364"
       y1="0.02325581"
       x2="0.97727275"
       y2="0.96899223" />
    <linearGradient
       xlink:href="#linearGradient679"
       id="linearGradient1698" />
  </defs>
  <sodipodi:namedview
     id="base"
     pagecolor="#ffffff"
     bordercolor="#666666"
     borderopacity="1.0"
     inkscape:pageopacity="0.0"
     inkscape:pageshadow="2"
     inkscape:zoom="7.97947198"
     inkscape:cx="29.4696660"
     inkscape:cy="24.6422459"
     inkscape:window-width="640"
     inkscape:window-height="516"
     inkscape:window-x="222"
     inkscape:window-y="376" />
  <path
     style="font-size:12;fill:#000000;fill-rule:evenodd;stroke:none;stroke-width:1.72272;fill-opacity:1;opacity:0.302675;"
     d="M 17.05214 4.3151184 L 17.215347 57.683991 L 58.017238 57.847201 L 57.952327 4.3151184 L 17.05214 4.3151184 z "
     id="path1697"
     sodipodi:nodetypes="ccccc" />
  <path
     style="font-size:12;fill:url(#linearGradient612);fill-rule:evenodd;stroke:#261933;stroke-width:1.875;stroke-dasharray:none;"
     d="M 16.326012 4.3151185 L 16.481772 55.248671 L 55.421797 55.404433 L 55.359848 4.3151185 L 16.326012 4.3151185 z "
     id="path678"
     sodipodi:nodetypes="ccccc" />
  <path
     style="font-size:12;fill:url(#linearGradient614);fill-rule:evenodd;stroke:#261933;stroke-width:1.875;stroke-dasharray:none;"
     d="M 17.416331 54.625631 L 43.116748 40.451462 L 43.428269 5.7169593 L 17.727852 6.0284803 L 17.416331 54.625631 z "
     id="path682"
     sodipodi:nodetypes="ccccc" />
  <path
     style="font-size:12;fill:#000000;fill-rule:evenodd;stroke:none;stroke-width:14.8479;fill-opacity:1;opacity:0.302675;"
     d="M 4.1607546 40.049167 C 3.0291228 39.34157 3.4498963 22.201018 4.1607546 21.254178 C 5.006146 20.175541 18.76608 21.957271 19.891345 21.254178 C 20.868178 20.713266 18.936338 12.177368 19.891345 12.469561 C 20.779191 12.77354 39.00832 26.273109 39.094922 30.038792 C 39.055887 33.583902 21.139833 48.353003 19.891345 48.629489 C 18.791072 48.847885 20.557457 40.276863 19.68705 39.640581 C 18.591097 38.79746 5.3811387 40.902589 4.1607546 40.049167 z "
     id="path617"
     sodipodi:nodetypes="csssssss" />
  <path
     style="font-size:12;fill:url(#linearGradient581);fill-rule:evenodd;stroke:#261933;stroke-width:1.875;stroke-dasharray:none;"
     d="M 5.3847674 38.515307 C 4.3715764 37.88177 4.7483109 22.535219 5.3847674 21.687481 C 6.1416775 20.721738 18.461442 22.316983 19.46893 21.687481 C 20.343522 21.203183 18.613877 13.560687 19.46893 13.822297 C 20.26385 14.09446 36.585041 25.951785 36.662578 29.552662 C 36.62756 32.84139 20.586746 45.950031 19.46893 46.197578 C 18.483815 46.393114 20.065321 38.71917 19.286016 38.149485 C 18.30477 37.394608 6.4774217 39.279406 5.3847674 38.515307 z "
     id="path589"
     sodipodi:nodetypes="csssssss" />
  <path
     style="fill:url(#linearGradient583);fill-rule:evenodd;stroke:none;stroke-opacity:1;stroke-width:1pt;stroke-linejoin:miter;stroke-linecap:butt;fill-opacity:1;"
     d="M 6.3463075 37.617379 C 6.0567965 37.241017 6.0283535 23.848078 6.6706188 22.861171 C 7.4563059 21.816043 17.752587 24.391776 20.778201 22.861171 C 22.34701 22.067538 20.370116 16.253801 20.453888 15.88846 C 20.559797 15.221573 23.493406 17.623217 23.697009 17.996489 C 23.817718 18.21779 21.602598 17.148135 21.426824 17.672177 C 21.351284 18.380837 23.479573 23.378353 22.075449 24.158422 C 19.101359 25.810693 10.735554 22.350958 8.2921813 24.9692 C 6.7431289 26.640725 6.5973173 37.94369 6.3463075 37.617379 z "
     id="path618"
     sodipodi:nodetypes="cssssssss" />
  <path
     style="fill:#261e2e;fill-rule:evenodd;stroke:none;stroke-opacity:1;stroke-width:1pt;stroke-linejoin:miter;stroke-linecap:butt;fill-opacity:1;opacity:0.201783;"
     d="M 4.8869015 29.914961 C 6.1736672 29.770146 35.569127 28.959669 36.507341 29.833885 C 37.282794 30.475363 23.561049 43.887268 19.643108 45.806261 C 18.26395 46.481767 21.223035 38.772194 19.562029 37.941691 C 16.574561 36.447956 9.1225474 39.628062 5.6976835 38.266002 C 4.9698972 38.011023 4.0384819 30.019571 4.8869015 29.914961 z "
     id="path644"
     sodipodi:nodetypes="csssss" />
  <path
     style="fill:#000000;fill-rule:evenodd;stroke:none;stroke-opacity:1;stroke-width:1pt;stroke-linejoin:miter;stroke-linecap:butt;fill-opacity:1;opacity:0.498153;"
     d="M 40.601481 21.364459 C 40.41555 21.178531 40.664359 23.12552 40.1652 23.545865 C 39.2828 24.288936 36.238584 24.636484 36.456808 24.854707 C 36.747578 25.145481 40.897132 25.742367 41.692185 25.07285 C 42.278687 24.578948 40.924546 21.687526 40.601481 21.364459 z "
     id="path683"
     sodipodi:nodetypes="cssss" />
  <path
     style="fill:url(#linearGradient685);fill-rule:evenodd;stroke:none;stroke-opacity:1;stroke-width:1pt;stroke-linejoin:miter;stroke-linecap:butt;fill-opacity:1;"
     d="M 37.353053 24.781442 C 37.290759 24.719151 39.661336 24.492594 40.449356 23.863012 C 40.887947 23.512603 40.698273 22.167695 40.757535 22.226957 C 40.828072 22.297494 41.304094 23.880634 40.838756 24.252411 C 40.077481 24.860626 37.420558 24.848951 37.353053 24.781442 z "
     id="path684"
     sodipodi:nodetypes="cssss" />
</svg>
