<?xml version="1.0" encoding="UTF-8" standalone="no"?>
<!DOCTYPE svg PUBLIC "-//W3C//DTD SVG 20010904//EN"
"http://www.w3.org/TR/2001/REC-SVG-20010904/DTD/svg10.dtd">
<!-- Created with Inkscape (http://www.inkscape.org/) -->
<svg
   version="1.0"
   x="0"
   y="0"
   width="48pt"
   height="48pt"
   id="svg1"
   sodipodi:version="0.32"
   inkscape:version="0.39"
   sodipodi:docname="gnome-globe.svg"
   sodipodi:docbase="/home/scaba/files/lila/work/lila-gnome/Lila/scalable/apps"
   xmlns="http://www.w3.org/2000/svg"
   xmlns:inkscape="http://www.inkscape.org/namespaces/inkscape"
   xmlns:sodipodi="http://sodipodi.sourceforge.net/DTD/sodipodi-0.dtd"
   xmlns:xlink="http://www.w3.org/1999/xlink"
   xmlns:rdf="http://www.w3.org/1999/02/22-rdf-syntax-ns#"
   xmlns:cc="http://web.resource.org/cc/"
   xmlns:dc="http://purl.org/dc/elements/1.1/">
  <sodipodi:namedview
     id="base"
     pagecolor="#ffffff"
     bordercolor="#666666"
     borderopacity="1.0"
     inkscape:pageopacity="0.0"
     inkscape:pageshadow="2"
     inkscape:zoom="6.9465337"
     inkscape:cx="31.296452"
     inkscape:cy="22.294062"
     inkscape:window-width="640"
     inkscape:window-height="526"
     inkscape:window-x="98"
     inkscape:window-y="205" />
  <defs
     id="defs3">
    <linearGradient
       id="linearGradient570">
      <stop
         style="stop-color:#ffffff;stop-opacity:1;"
         offset="0"
         id="stop571" />
      <stop
         style="stop-color:#ffffff;stop-opacity:0;"
         offset="1"
         id="stop572" />
    </linearGradient>
    <linearGradient
       id="linearGradient563">
      <stop
         style="stop-color:#d9cce6;stop-opacity:1;"
         offset="0.00000000"
         id="stop564" />
      <stop
         style="stop-color:#73667f;stop-opacity:1;"
         offset="1.00000000"
         id="stop565" />
    </linearGradient>
    <linearGradient
       x1="0.03846154"
       y1="0.07031250"
       x2="0.98461539"
       y2="0.96875000"
       id="linearGradient566"
       xlink:href="#linearGradient563" />
    <linearGradient
       x1="0.006536"
       y1="0.015625"
       x2="0.849673"
       y2="0.867188"
       id="linearGradient569"
       xlink:href="#linearGradient570" />
    <linearGradient
       x1="0.007280"
       y1="0.021274"
       x2="0.960000"
       y2="0.946808"
       id="linearGradient573"
       xlink:href="#linearGradient570" />
    <linearGradient
       x1="0.980392"
       y1="0.976562"
       x2="0.006536"
       y2="0.007812"
       id="linearGradient575"
       xlink:href="#linearGradient563" />
    <linearGradient
       x1="-0.006622"
       y1="0.007813"
       x2="0.920530"
       y2="0.921875"
       id="linearGradient578"
       xlink:href="#linearGradient570" />
  </defs>
  <ellipse
     cx="286.92639"
     cy="278.06998"
     rx="278.19861"
     ry="278.19858"
     transform="matrix(9.421097e-2,0.000000,0.000000,9.421097e-2,5.371111,6.801767)"
     style="font-size:12.000000;opacity:0.30267498;fill-rule:evenodd;stroke-width:13.253600;"
     id="path1023"
     d="M 565.12500 278.06998 A 278.19861 278.19858 0 1 0 8.7277832,278.06998 A 278.19861 278.19858 0 1 0 565.12500 278.06998 z"
     sodipodi:cx="286.92639"
     sodipodi:cy="278.06998"
     sodipodi:rx="278.19861"
     sodipodi:ry="278.19858" />
  <ellipse
     cx="286.92639"
     cy="278.06998"
     rx="278.19861"
     ry="278.19858"
     transform="matrix(9.421097e-2,0.000000,0.000000,9.421097e-2,3.082544,3.968308)"
     style="font-size:12.000000;fill:url(#linearGradient566);fill-rule:evenodd;stroke:#261933;stroke-width:19.880501;stroke-opacity:1.0000000;"
     id="path983"
     d="M 565.12500 278.06998 A 278.19861 278.19858 0 1 0 8.7277832,278.06998 A 278.19861 278.19858 0 1 0 565.12500 278.06998 z"
     sodipodi:cx="286.92639"
     sodipodi:cy="278.06998"
     sodipodi:rx="278.19861"
     sodipodi:ry="278.19858" />
  <path
     d="M 11.295376,12.589173 C 12.250138,12.060148 13.299196,13.930215 14.590292,14.109020 C 15.743436,14.268547 18.547286,12.458415 20.053847,13.319478 C 21.052161,13.747113 20.202685,17.505625 19.898715,19.755876 C 19.516033,21.561911 18.294062,24.148798 17.529693,26.388162 C 17.132325,27.369294 14.371030,30.923927 14.258151,31.149682 C 14.145474,31.375237 15.340274,34.387559 14.596683,34.759555 C 13.821626,35.218257 12.864468,30.809252 11.212366,29.570200 C 10.499441,29.142365 8.8555206,29.340750 8.2793066,29.796056 C 7.5928025,30.168349 8.1836106,34.070005 9.1816446,35.210864 C 10.204763,36.745094 11.745485,37.925311 12.678969,39.497402 C 13.888754,41.535183 14.634244,43.859554 15.611879,46.040579 C 15.611879,46.040579 14.805056,48.824654 14.917934,48.824654 C 15.030811,48.824654 16.627176,52.019377 16.627176,52.019377 C 13.349340,49.529689 10.710611,47.100430 8.5049106,44.122772 C 6.9503316,42.023954 5.7104608,39.143784 5.3462077,36.790046 C 5.2216224,35.985121 6.7273247,35.502147 7.0383963,34.646777 C 7.6087559,33.220729 4.6178293,29.681380 4.4969618,28.525137 C 4.3485125,27.280092 5.1016534,22.299010 6.8127522,19.304668 C 8.0378596,16.965713 9.4675636,13.601772 11.295376,12.589173 z "
     style="font-size:12.000000;opacity:0.50445902;fill:#261933;fill-rule:evenodd;stroke:#000000;stroke-width:0.11407400pt;"
     id="path565" />
  <path
     d="M 30.728535,21.109603 C 30.118699,21.985352 29.466008,23.552945 29.825916,24.380745 C 30.218089,25.282466 31.914445,26.280278 32.984680,26.298658 C 34.095571,26.317838 35.229637,25.073393 36.368998,24.493723 C 37.373007,23.982979 38.341552,23.200229 39.414883,23.027118 C 40.673016,22.824240 42.455177,22.760308 43.363189,23.365750 C 44.034457,23.813363 44.301666,25.298448 44.152927,26.185981 C 43.837573,26.862745 42.782320,27.445412 43.137532,27.878141 C 43.448498,28.141754 45.606546,26.551684 45.957769,25.621994 C 46.245853,24.859625 44.878838,23.772807 45.055348,22.801663 C 45.197993,22.160162 47.541943,22.322384 48.326891,22.463331 C 48.974387,22.620861 49.603102,24.226614 50.244805,24.155390 C 50.832665,24.155390 52.300170,22.258455 52.459193,22.267344 C 53.071231,22.368434 53.516147,24.155390 53.516147,24.155390 C 52.463092,25.133127 51.613616,26.475167 50.357480,27.088501 C 48.379730,28.054349 46.045570,28.635916 43.814496,28.893436 C 40.179551,29.312880 35.870041,27.836786 32.759027,29.118991 C 30.304695,30.130689 27.154322,33.462166 27.118562,35.774850 C 27.079104,38.312888 28.725513,42.626298 31.677902,42.887212 C 35.252014,43.280487 38.987049,44.085307 40.274846,45.731820 C 41.280952,47.018317 40.108427,51.866043 40.270452,53.468903 C 40.331390,54.000324 41.878103,53.058846 42.799206,52.583465 C 44.209665,51.855654 45.915813,50.418420 46.408979,48.860712 C 47.344761,45.906032 47.450041,42.241416 47.086041,39.046289 C 46.773179,36.300279 44.046748,31.329588 44.378683,31.036805 C 44.685950,30.765699 47.100024,36.259523 49.003654,37.354232 C 50.108253,37.989241 52.642994,37.053160 53.403365,36.225961 C 53.921704,35.661974 52.472277,33.508615 52.839279,33.180173 C 53.186802,32.869211 55.394800,35.048639 55.546739,34.308446 C 56.757214,28.688059 55.619451,24.537974 53.640707,19.334337 C 52.021472,15.362557 47.431366,9.8950044 42.530298,7.2148983 C 41.840145,6.8341331 38.849299,8.5193184 36.541409,9.9954944 C 35.225742,10.653979 33.858628,12.636821 34.534294,13.112604 C 35.129946,13.582592 36.895626,11.997118 38.145165,11.715624 C 40.385128,11.180206 41.425897,11.470491 43.137532,12.310277 C 43.137532,12.310277 45.563497,14.317793 44.491258,15.807273 C 43.810605,16.708891 41.558251,16.709790 41.558251,16.709790 C 41.069383,16.446776 40.559338,15.820858 40.091646,15.920148 C 39.318592,16.084270 38.666000,17.127537 37.835504,17.499630 C 36.146441,18.255908 34.172388,18.410441 32.533371,19.304668 C 31.606579,19.518535 31.108321,20.532931 30.728535,21.109603 z "
     style="font-size:12.000000;opacity:0.49999997;fill:#261933;fill-rule:evenodd;stroke:#000000;stroke-width:0.11407400pt;"
     id="path566" />
  <path
     d="M 9.7897126,44.278397 C 9.4408926,43.232139 -3.7709049,19.569979 21.341446,7.4434802 C 32.727260,1.8927782 49.548460,12.183016 51.419628,18.341416 C 51.707810,19.273101 40.039706,5.9730305 23.412093,13.328368 C 1.7636042,22.842420 10.094783,45.193706 9.7897126,44.278397 z "
     style="font-size:12.000000;opacity:0.69999999;fill:url(#linearGradient569);fill-rule:evenodd;stroke:none;stroke-width:0.099890900pt;"
     id="path984" />
  <metadata
     id="metadata1683">
    <rdf:RDF
       id="RDF1684">
      <cc:Work
         rdf:about=""
         id="Work1685">
        <dc:format
           id="format1686">image/svg+xml</dc:format>
        <dc:type
           id="type1688"
           rdf:resource="http://purl.org/dc/dcmitype/StillImage" />
      </cc:Work>
    </rdf:RDF>
  </metadata>
</svg>
