<?xml version="1.0" encoding="UTF-8" standalone="no"?>
<!DOCTYPE svg PUBLIC "-//W3C//DTD SVG 20010904//EN"
"http://www.w3.org/TR/2001/REC-SVG-20010904/DTD/svg10.dtd">
<!-- Created with Inkscape (http://www.inkscape.org/) -->
<svg
   id="svg1"
   sodipodi:version="0.32"
   inkscape:version="0.38.1"
   width="48pt"
   height="48pt"
   sodipodi:docbase="/home/scaba/files/lila-artwork/devel/icons"
   sodipodi:docname="search1.svg"
   xmlns="http://www.w3.org/2000/svg"
   xmlns:inkscape="http://www.inkscape.org/namespaces/inkscape"
   xmlns:sodipodi="http://sodipodi.sourceforge.net/DTD/sodipodi-0.dtd"
   xmlns:xlink="http://www.w3.org/1999/xlink">
  <defs
     id="defs3">
    <linearGradient
       id="linearGradient584">
      <stop
         style="stop-color:#ffffff;stop-opacity:1;"
         offset="0.00000000"
         id="stop585" />
      <stop
         style="stop-color:#ffffff;stop-opacity:0;"
         offset="1.00000000"
         id="stop586" />
    </linearGradient>
    <linearGradient
       id="linearGradient578">
      <stop
         style="stop-color:#d9cce6;stop-opacity:1;"
         offset="0.00000000"
         id="stop579" />
      <stop
         style="stop-color:#73667f;stop-opacity:1;"
         offset="1.00000000"
         id="stop580" />
    </linearGradient>
    <linearGradient
       xlink:href="#linearGradient584"
       id="linearGradient581"
       x1="-0.00684932"
       y1="0.00775194"
       x2="0.97945207"
       y2="1.00000000" />
    <linearGradient
       xlink:href="#linearGradient584"
       id="linearGradient583"
       x1="0.01094890"
       y1="0.01030928"
       x2="1.01459849"
       y2="0.96907216" />
    <linearGradient
       xlink:href="#linearGradient584"
       id="linearGradient860"
       x1="-0.02500000"
       y1="0.03100775"
       x2="0.97500002"
       y2="0.97674417" />
    <linearGradient
       xlink:href="#linearGradient578"
       id="linearGradient861"
       x1="0.00000000"
       y1="0.02325581"
       x2="0.98611110"
       y2="0.97674417" />
    <linearGradient
       xlink:href="#linearGradient578"
       id="linearGradient862"
       x1="-0.00000000"
       y1="0.00775194"
       x2="1.00000000"
       y2="0.99224806" />
    <linearGradient
       xlink:href="#linearGradient578"
       id="linearGradient873"
       x1="0.01538462"
       y1="0.00000000"
       x2="0.97692305"
       y2="0.98437500" />
    <linearGradient
       xlink:href="#linearGradient578"
       id="linearGradient874"
       x1="0.00000000"
       y1="0.00000000"
       x2="0.98591548"
       y2="0.96875000" />
    <linearGradient
       xlink:href="#linearGradient584"
       id="linearGradient875"
       x1="-0.00000000"
       y1="0.00775194"
       x2="1.00000000"
       y2="0.99224806" />
  </defs>
  <sodipodi:namedview
     id="base"
     pagecolor="#ffffff"
     bordercolor="#666666"
     borderopacity="1.0"
     inkscape:pageopacity="0.0"
     inkscape:pageshadow="2"
     inkscape:zoom="3.9897360"
     inkscape:cx="25.514288"
     inkscape:cy="22.746034"
     inkscape:window-width="640"
     inkscape:window-height="535"
     inkscape:window-x="167"
     inkscape:window-y="108" />
  <path
     d="M 11.267699 56.622671 C 2.7670491 52.988532 1.5072003 22.031864 3.2623489 8.9840518 C 3.8256059 4.7962807 15.938655 3.472312 19.798169 3.9971948 C 21.406915 4.2160343 21.378639 11.507009 23.210262 11.477541 C 32.2712 11.332006 44.430229 0.76734911 50.900965 4.3909154 C 56.460229 7.5040954 60.504727 30.459332 55.887824 36.543835 C 47.293672 47.869915 20.265076 60.469119 11.267699 56.622671 z "
     style="font-size:12;opacity:0.302675;fill-rule:evenodd;stroke-width:18.75;stroke-linecap:round;stroke-linejoin:round;"
     id="path574" />
  <path
     d="M 12.139826 53.057395 C 4.4358786 49.763875 3.2941018 21.708704 4.8847766 9.8838331 C 5.3952944 6.0885706 16.372984 4.8886949 19.870756 5.3643818 C 21.328716 5.5627101 21.303091 12.170315 22.963041 12.143616 C 31.174718 12.011721 42.194107 2.4372512 48.058362 5.7212004 C 53.096567 8.5425896 56.761979 29.346283 52.577815 34.860499 C 44.789173 45.125018 20.293899 56.543325 12.139826 53.057395 z "
     style="font-size:12;fill:url(#linearGradient862);fill-rule:evenodd;stroke:#261933;stroke-width:1.875;stroke-linecap:round;stroke-linejoin:round;stroke-dasharray:none;"
     id="path562" />
  <path
     d="M 12.258693 50.559882 C 7.4089087 46.66513 4.939118 20.098282 7.1445784 10.835314 C 7.9124818 7.6100593 18.684985 7.0429585 19.038143 8.218823 C 16.042544 8.3471655 11.54075 11.186964 10.831526 14.165551 C 8.5673316 23.675193 11.592 47.964062 12.258693 50.559882 z "
     style="font-size:12;opacity:0.7;fill:url(#linearGradient860);fill-rule:evenodd;stroke:none;stroke-width:1pt;"
     id="path567" />
  <path
     d="M 24.865895 14.284529 C 35.796025 12.309317 43.904665 5.7889249 46.155401 7.6241632 C 46.764487 8.1484053 38.257583 12.922933 33.072508 14.641453 C 31.319639 15.222337 24.343156 14.377984 24.865895 14.284529 z "
     style="font-size:12;opacity:0.699936;fill:url(#linearGradient583);fill-rule:evenodd;stroke:none;stroke-width:1pt;"
     id="path568" />
  <path
     d="M 12.781217 53.288995 C 10.696831 52.955325 9.6412329 30.343407 14.967781 25.167164 C 23.545752 16.83113 45.392125 11.696557 54.494881 13.897547 C 59.072474 15.004506 56.543842 30.171901 52.308313 35.291506 C 43.287927 46.313802 21.364248 54.560575 12.781217 53.288995 z "
     style="font-size:12;fill:url(#linearGradient861);fill-rule:evenodd;stroke:#261933;stroke-width:1.875;stroke-linecap:round;stroke-linejoin:round;stroke-dasharray:none;"
     id="path576"
     sodipodi:nodetypes="ccccc" />
  <path
     d="M 14.401113 49.584604 C 11.616441 44.363682 14.275678 29.630321 16.419605 27.019102 C 25.801832 16.983232 50.734136 15.502838 52.703206 16.434182 C 37.135833 18.753718 29.798296 20.903717 20.701323 29.873544 C 16.657556 34.512083 13.876868 42.425293 14.401113 49.584604 z "
     style="font-size:12;opacity:0.7;fill:url(#linearGradient581);fill-rule:evenodd;stroke:none;stroke-width:1.25;"
     id="path577"
     sodipodi:nodetypes="ccccc" />
  <path
     d="M 34.389017,29.616515 C 34.389017,36.476475 28.821483,42.044009 21.961524,42.044009 C 15.101465,42.044009 9.5339290,36.476475 9.5339290,29.616515 C 9.5339290,22.756556 15.101465,17.189021 21.961524,17.189021 C 28.821483,17.189021 34.389017,22.756556 34.389017,29.616515 z M 31.309623,29.616515 C 31.309623,34.655267 27.121610,38.744674 21.961524,38.744674 C 16.801337,38.744674 12.613423,34.655267 12.613423,29.616515 C 12.613423,24.577762 16.801337,20.488256 21.961524,20.488256 C 27.121610,20.488256 31.309623,24.577762 31.309623,29.616515 z "
     style="font-size:12;opacity:0.3;fill-rule:evenodd;stroke-width:13.4904;"
     id="path1566" />
  <path
     d="M 33.327979,28.023860 C 33.327979,34.883819 27.405723,40.806076 20.545762,40.806076 C 13.685704,40.806076 7.7634470,34.883819 7.7634470,28.023860 C 7.7634470,21.163901 13.685704,15.241643 20.545762,15.241643 C 27.405723,15.241643 33.327979,21.163901 33.327979,28.023860 z M 29.184422,28.023860 C 29.184422,33.062613 25.705849,36.442576 20.545762,36.442576 C 15.385578,36.442576 11.907106,33.062613 11.907106,28.023860 C 11.907106,22.985107 15.385578,19.605044 20.545762,19.605044 C 25.705849,19.605044 29.184422,22.985107 29.184422,28.023860 z "
     style="font-size:12;fill:url(#linearGradient873);fill-rule:evenodd;stroke:#261933;stroke-width:1.87707;"
     id="path1525"
     sodipodi:nodetypes="cccccccccs" />
  <path
     d="M 29.124767,39.442530 C 28.871805,38.945052 30.931792,36.673163 31.429050,36.933913 C 33.209985,37.867109 34.817589,40.613282 36.837673,42.020685 C 40.970946,44.900359 46.793801,46.618535 49.889337,49.795587 C 50.883744,50.816101 49.955522,54.049690 48.981629,54.863533 C 47.913834,55.756140 44.164479,56.925968 42.886068,55.918508 C 39.332097,53.118487 36.906031,47.995075 33.731503,44.194175 C 32.318931,42.502972 29.932029,41.030616 29.124767,39.442530 z "
     style="font-size:12;opacity:0.3;fill-rule:evenodd;stroke-width:13.4904;"
     id="path1565"
     sodipodi:nodetypes="ccsccccc" />
  <ellipse
     cx="373.574921"
     cy="328.786621"
     rx="115.024445"
     ry="115.024429"
     transform="matrix(7.179272e-2,0.000000,0.000000,7.010354e-2,-6.274295,4.974813)"
     style="font-size:12;fill-rule:evenodd;stroke-width:1pt;fill:url(#linearGradient875);"
     id="path1521" />
  <path
     d="M 28.155262,36.727632 C 27.902300,36.230155 29.836828,34.209186 30.334085,34.469936 C 32.115020,35.403131 33.722633,38.149292 35.742708,39.556707 C 39.875992,42.436370 45.698832,44.154558 48.794381,47.331610 C 49.788787,48.352124 48.609639,51.585711 47.635745,52.399555 C 46.567950,53.292162 43.194976,54.211071 41.916564,53.203610 C 38.362592,50.403589 35.936528,45.280177 32.761999,41.479278 C 31.349427,39.788075 28.962524,38.315719 28.155262,36.727632 z "
     style="font-size:12;fill:url(#linearGradient874);fill-rule:evenodd;stroke:#261933;stroke-width:1.875;stroke-dasharray:none;"
     id="path1531"
     sodipodi:nodetypes="cccccccc" />
  <path
     d="M 10.285789,32.650990 C 9.4009130,30.881239 8.5161380,25.041205 12.321031,20.528431 C 16.922300,16.369649 21.700567,16.988932 23.647212,17.254424 C 20.550199,17.431419 17.364690,16.989032 13.205906,21.059418 C 9.3125150,24.864209 10.374286,30.527350 10.285789,32.650990 z "
     style="font-size:12;opacity:0.7;fill-rule:evenodd;stroke:none;stroke-width:1pt;fill:url(#linearGradient860);"
     id="path1533" />
  <path
     d="M 29.156359,36.551896 C 29.147364,36.493538 29.328803,36.188361 29.423034,36.260979 C 30.282293,36.923661 32.008379,38.703279 32.016716,38.757689 C 32.024504,38.808369 30.342845,37.248035 29.471520,36.576139 C 29.389357,36.512734 29.163599,36.598627 29.156359,36.551896 z "
     style="font-size:12;opacity:0.7;fill-rule:evenodd;stroke:none;stroke-width:1pt;fill:url(#linearGradient861);"
     id="path1538" />
</svg>
