<?xml version="1.0" encoding="UTF-8" standalone="no"?>
<!DOCTYPE svg PUBLIC "-//W3C//DTD SVG 20010904//EN"
"http://www.w3.org/TR/2001/REC-SVG-20010904/DTD/svg10.dtd">
<!-- Created with Inkscape (http://www.inkscape.org/) -->
<svg
   id="svg1"
   sodipodi:version="0.32"
   inkscape:version="0.37"
   width="48pt"
   height="48pt"
   sodipodi:docbase="/home/dan/Projects/Lila-icons/scalable/apps"
   sodipodi:docname="gnome-util.svg"
   xmlns="http://www.w3.org/2000/svg"
   xmlns:inkscape="http://www.inkscape.org/namespaces/inkscape"
   xmlns:sodipodi="http://sodipodi.sourceforge.net/DTD/sodipodi-0.dtd"
   xmlns:xlink="http://www.w3.org/1999/xlink">
  <defs
     id="defs3">
    <linearGradient
       id="linearGradient584">
      <stop
         style="stop-color:#ffffff;stop-opacity:1;"
         offset="0.00000000"
         id="stop585" />
      <stop
         style="stop-color:#ffffff;stop-opacity:0;"
         offset="1.00000000"
         id="stop586" />
    </linearGradient>
    <linearGradient
       id="linearGradient578">
      <stop
         style="stop-color:#d9cce6;stop-opacity:1;"
         offset="0.00000000"
         id="stop579" />
      <stop
         style="stop-color:#73667f;stop-opacity:1;"
         offset="1.00000000"
         id="stop580" />
    </linearGradient>
    <linearGradient
       xlink:href="#linearGradient578"
       id="linearGradient581"
       x1="0.00000000"
       y1="-0.00000000"
       x2="0.99218750"
       y2="0.99218750" />
    <linearGradient
       xlink:href="#linearGradient584"
       id="linearGradient583"
       x1="0.00000000"
       y1="0.00000000"
       x2="0.97619045"
       y2="0.97656250" />
    <linearGradient
       xlink:href="#linearGradient584"
       id="linearGradient860"
       x1="-0.00000000"
       y1="-0.00000000"
       x2="1.14084506"
       y2="1.19531250" />
    <linearGradient
       xlink:href="#linearGradient584"
       id="linearGradient861"
       x1="0.00000000"
       y1="0.00000000"
       x2="1.00000000"
       y2="1.02343750" />
    <linearGradient
       xlink:href="#linearGradient578"
       id="linearGradient862"
       x1="-0.00000000"
       y1="0.00775194"
       x2="1.00000000"
       y2="0.99224806" />
  </defs>
  <sodipodi:namedview
     id="base"
     pagecolor="#ffffff"
     bordercolor="#666666"
     borderopacity="1.0"
     inkscape:pageopacity="0.0"
     inkscape:pageshadow="2"
     inkscape:zoom="7.97947193"
     inkscape:cx="25.5143063"
     inkscape:cy="23.6062243"
     inkscape:window-width="722"
     inkscape:window-height="699"
     inkscape:window-x="76"
     inkscape:window-y="87" />
  <path
     style="font-size:12;fill:#000000;fill-rule:evenodd;stroke:none;stroke-width:1.875;stroke-opacity:1;stroke-dasharray:none;stroke-linejoin:round;stroke-linecap:round;fill-opacity:1;opacity:0.296369;"
     d="M 48.071931 29.881574 C 49.078617 30.019283 49.270799 46.523692 48.250085 47.454829 C 47.28955 48.463863 30.38102 48.827547 30.364417 47.632982 C 30.177196 45.912312 46.745221 29.72512 48.071931 29.881574 z M 57.069474 6.2319551 C 55.157348 6.2417815 6.7686461 55.249386 6.8169275 57.352033 C 6.6983224 59.201253 56.363846 58.409604 57.165867 57.255641 C 58.180601 56.214 59.024366 6.2227367 57.069474 6.2319551 z "
     id="path618"
     sodipodi:nodetypes="cssscsss" />
  <path
     style="font-size:12;fill:url(#linearGradient581);fill-rule:evenodd;stroke:#261933;stroke-width:1.875;stroke-opacity:1;stroke-dasharray:none;stroke-linejoin:round;stroke-linecap:round;"
     d="M 45.217852 27.845075 C 46.196942 27.979009 46.383856 44.030991 45.391122 44.936603 C 44.456918 45.917977 28.011893 46.271691 27.995745 45.109872 C 27.813656 43.43637 43.92751 27.692909 45.217852 27.845075 z M 53.96875 4.84375 C 52.10904 4.853307 5.0467921 52.517492 5.09375 54.5625 C 4.9783962 56.361028 53.282465 55.59108 54.0625 54.46875 C 55.049418 53.455663 55.870053 4.8347843 53.96875 4.84375 z "
     id="path596"
     sodipodi:nodetypes="cssscsss" />
  <path
     style="fill:url(#linearGradient583);fill-rule:evenodd;stroke:none;stroke-opacity:1;stroke-width:1pt;stroke-linejoin:miter;stroke-linecap:butt;fill-opacity:1;"
     d="M 9.5557701 52.010749 C 9.6633871 51.257432 39.011153 21.729206 51.068542 9.4014136 C 52.013266 8.5182233 51.592714 12.897954 50.441934 13.787669 C 36.209546 25.069074 9.4545175 52.719517 9.5557701 52.010749 z "
     id="path597"
     sodipodi:nodetypes="csss" />
  <path
     style="fill:url(#linearGradient860);fill-rule:evenodd;stroke:none;stroke-opacity:1;stroke-width:1pt;stroke-linejoin:miter;stroke-linecap:butt;fill-opacity:1;"
     d="M 29.615094 47.678249 C 29.389008 47.527525 46.039206 48.222127 47.003463 46.894989 C 47.947663 45.752107 47.715136 30.764329 47.943375 30.916488 C 48.185092 31.077633 49.177897 46.571177 48.413331 47.834901 C 47.864918 48.853718 29.858964 47.840829 29.615094 47.678249 z "
     id="path598"
     sodipodi:nodetypes="cssss" />
  <g
     id="g608"
     style="opacity:0.990000;"
     transform="translate(-0.332309,-0.775388)">
    <path
       style="fill:url(#linearGradient861);fill-rule:evenodd;stroke:none;stroke-opacity:1;stroke-width:1pt;stroke-linejoin:miter;stroke-linecap:butt;fill-opacity:1;"
       d="M 13.40313 48.369185 C 13.218596 48.60908 15.271112 50.871943 16.393911 51.803045 C 16.784964 52.127333 17.7731 52.358416 17.944686 52.135354 C 18.142332 51.878414 17.934775 50.722251 17.501608 50.363039 C 16.420923 49.466861 13.587828 48.129078 13.40313 48.369185 z "
       id="path599"
       sodipodi:nodetypes="cssss" />
    <path
       style="fill:url(#linearGradient861);fill-rule:evenodd;stroke:none;stroke-opacity:1;stroke-width:1pt;stroke-linejoin:miter;stroke-linecap:butt;fill-opacity:1;"
       d="M 46.301722 14.252126 C 46.117188 14.492021 48.169704 16.754884 49.292503 17.685986 C 49.683556 18.010274 50.671692 18.241357 50.843278 18.018295 C 51.040924 17.761355 50.833367 16.605192 50.4002 16.24598 C 49.319515 15.349802 46.48642 14.012019 46.301722 14.252126 z "
       id="path600"
       sodipodi:nodetypes="cssss" />
    <path
       style="fill:url(#linearGradient861);fill-rule:evenodd;stroke:none;stroke-opacity:1;stroke-width:1pt;stroke-linejoin:miter;stroke-linecap:butt;fill-opacity:1;"
       d="M 46.301722 14.252126 C 46.117188 14.492021 48.169704 16.754884 49.292503 17.685986 C 49.683556 18.010274 50.671692 18.241357 50.843278 18.018295 C 51.040924 17.761355 50.833367 16.605192 50.4002 16.24598 C 49.319515 15.349802 46.48642 14.012019 46.301722 14.252126 z "
       id="path601"
       sodipodi:nodetypes="cssss"
       transform="translate(-3.433860,3.655399)" />
    <path
       style="fill:url(#linearGradient861);fill-rule:evenodd;stroke:none;stroke-opacity:1;stroke-width:1pt;stroke-linejoin:miter;stroke-linecap:butt;fill-opacity:1;"
       d="M 46.301722 14.252126 C 46.117188 14.492021 48.169704 16.754884 49.292503 17.685986 C 49.683556 18.010274 50.671692 18.241357 50.843278 18.018295 C 51.040924 17.761355 50.833367 16.605192 50.4002 16.24598 C 49.319515 15.349802 46.48642 14.012019 46.301722 14.252126 z "
       id="path602"
       sodipodi:nodetypes="cssss"
       transform="translate(-6.978489,7.532338)" />
    <path
       style="fill:url(#linearGradient861);fill-rule:evenodd;stroke:none;stroke-opacity:1;stroke-width:1pt;stroke-linejoin:miter;stroke-linecap:butt;fill-opacity:1;"
       d="M 46.301722 14.252126 C 46.117188 14.492021 48.169704 16.754884 49.292503 17.685986 C 49.683556 18.010274 50.671692 18.241357 50.843278 18.018295 C 51.040924 17.761355 50.833367 16.605192 50.4002 16.24598 C 49.319515 15.349802 46.48642 14.012019 46.301722 14.252126 z "
       id="path603"
       sodipodi:nodetypes="cssss"
       transform="translate(-11.18774,11.96312)" />
    <path
       style="fill:url(#linearGradient861);fill-rule:evenodd;stroke:none;stroke-opacity:1;stroke-width:1pt;stroke-linejoin:miter;stroke-linecap:butt;fill-opacity:1;"
       d="M 46.301722 14.252126 C 46.117188 14.492021 48.169704 16.754884 49.292503 17.685986 C 49.683556 18.010274 50.671692 18.241357 50.843278 18.018295 C 51.040924 17.761355 50.833367 16.605192 50.4002 16.24598 C 49.319515 15.349802 46.48642 14.012019 46.301722 14.252126 z "
       id="path604"
       sodipodi:nodetypes="cssss"
       transform="translate(-15.39698,16.39391)" />
    <path
       style="fill:url(#linearGradient861);fill-rule:evenodd;stroke:none;stroke-opacity:1;stroke-width:1pt;stroke-linejoin:miter;stroke-linecap:butt;fill-opacity:1;"
       d="M 26.47395 35.076828 C 26.289416 35.316723 28.341932 37.579586 29.464731 38.510688 C 29.855784 38.834976 30.84392 39.066059 31.015506 38.842997 C 31.213152 38.586057 31.005595 37.429894 30.572428 37.070682 C 29.491743 36.174504 26.658648 34.836721 26.47395 35.076828 z "
       id="path605"
       sodipodi:nodetypes="cssss" />
    <path
       style="fill:url(#linearGradient861);fill-rule:evenodd;stroke:none;stroke-opacity:1;stroke-width:1pt;stroke-linejoin:miter;stroke-linecap:butt;fill-opacity:1;"
       d="M 22.043161 39.839917 C 21.858627 40.079812 23.911143 42.342675 25.033942 43.273777 C 25.424995 43.598065 26.413131 43.829148 26.584717 43.606086 C 26.782363 43.349146 26.574806 42.192983 26.141639 41.833771 C 25.060954 40.937593 22.227859 39.59981 22.043161 39.839917 z "
       id="path606"
       sodipodi:nodetypes="cssss" />
    <path
       style="fill:url(#linearGradient861);fill-rule:evenodd;stroke:none;stroke-opacity:1;stroke-width:1pt;stroke-linejoin:miter;stroke-linecap:butt;fill-opacity:1;"
       d="M 17.612382 44.270707 C 17.427848 44.510602 19.480364 46.773465 20.603163 47.704567 C 20.994216 48.028855 21.982352 48.259938 22.153938 48.036876 C 22.351584 47.779936 22.144027 46.623773 21.71086 46.264561 C 20.630175 45.368383 17.79708 44.0306 17.612382 44.270707 z "
       id="path607"
       sodipodi:nodetypes="cssss" />
  </g>
</svg>
