<?xml version="1.0" encoding="UTF-8" standalone="no"?>
<!DOCTYPE svg PUBLIC "-//W3C//DTD SVG 20010904//EN"
"http://www.w3.org/TR/2001/REC-SVG-20010904/DTD/svg10.dtd">
<!-- Created with Inkscape (http://www.inkscape.org/) -->
<svg
   version="1"
   x="0.00000000"
   y="0.00000000"
   width="48pt"
   height="48pt"
   id="svg548"
   sodipodi:version="0.32"
   inkscape:version="0.39"
   sodipodi:docname="gnome-amusements.svg"
   sodipodi:docbase="/home/scaba/files/lila/work/lila-gnome/Lila/scalable/apps"
   xmlns="http://www.w3.org/2000/svg"
   xmlns:inkscape="http://www.inkscape.org/namespaces/inkscape"
   xmlns:sodipodi="http://sodipodi.sourceforge.net/DTD/sodipodi-0.dtd"
   xmlns:xlink="http://www.w3.org/1999/xlink"
   xmlns:rdf="http://www.w3.org/1999/02/22-rdf-syntax-ns#"
   xmlns:cc="http://web.resource.org/cc/"
   xmlns:dc="http://purl.org/dc/elements/1.1/">
  <sodipodi:namedview
     id="base"
     inkscape:zoom="8.3092437"
     inkscape:cx="25.401019"
     inkscape:cy="23.348796"
     inkscape:window-width="723"
     inkscape:window-height="585"
     inkscape:window-x="85"
     inkscape:window-y="95" />
  <defs
     id="defs550">
    <linearGradient
       x1="0.00000000"
       y1="0.00000000"
       x2="1.00000000"
       y2="0.00000000"
       id="linearGradient596"
       gradientUnits="objectBoundingBox"
       spreadMethod="pad">
      <stop
         style="stop-color:#ffffff;stop-opacity:1;"
         offset="0.00000000"
         id="stop597" />
      <stop
         style="stop-color:#ffffff;stop-opacity:0;"
         offset="1.00000000"
         id="stop598" />
    </linearGradient>
    <linearGradient
       x1="0.00000000"
       y1="0.00000000"
       x2="1.00000000"
       y2="0.00000000"
       id="linearGradient613"
       gradientUnits="objectBoundingBox"
       spreadMethod="pad">
      <stop
         style="stop-color:#ffffff;stop-opacity:1;"
         offset="0.00000000"
         id="stop614" />
      <stop
         style="stop-color:#d9cce6;stop-opacity:1;"
         offset="1.00000000"
         id="stop615" />
    </linearGradient>
    <linearGradient
       x1="0.00000000"
       y1="0.00000000"
       x2="1.00000000"
       y2="0.00000000"
       id="linearGradient576"
       gradientUnits="objectBoundingBox"
       spreadMethod="pad">
      <stop
         style="stop-color:#f3ffb7;stop-opacity:0.854902;"
         offset="0.00000000"
         id="stop577" />
      <stop
         style="stop-color:#edca2a;stop-opacity:0.952941;"
         offset="1.00000000"
         id="stop578" />
    </linearGradient>
    <linearGradient
       x1="0.00000000"
       y1="0.00000000"
       x2="1.00000000"
       y2="0.00000000"
       id="linearGradient553"
       gradientUnits="objectBoundingBox"
       spreadMethod="pad">
      <stop
         style="stop-color:#d9cce6;stop-opacity:1;"
         offset="0.00000000"
         id="stop554" />
      <stop
         style="stop-color:#73667f;stop-opacity:1;"
         offset="1.00000000"
         id="stop555" />
    </linearGradient>
    <linearGradient
       x1="-0.14718680"
       y1="0.15963815"
       x2="1.06099808"
       y2="0.80974162"
       id="linearGradient556"
       xlink:href="#linearGradient613"
       gradientUnits="objectBoundingBox"
       spreadMethod="pad" />
    <linearGradient
       x1="0.00000320"
       y1="-0.00000338"
       x2="0.77868861"
       y2="0.83593744"
       id="linearGradient558"
       xlink:href="#linearGradient596"
       gradientUnits="objectBoundingBox"
       spreadMethod="pad" />
    <linearGradient
       x1="0.01012245"
       y1="0.01567149"
       x2="0.87000453"
       y2="0.90625161"
       id="linearGradient560"
       xlink:href="#linearGradient596"
       gradientUnits="objectBoundingBox"
       gradientTransform="translate(1.608839e-6,6.124947e-7)"
       spreadMethod="pad" />
    <linearGradient
       x1="0.02271967"
       y1="0.01562500"
       x2="0.96590889"
       y2="0.96093738"
       id="linearGradient562"
       xlink:href="#linearGradient613"
       gradientUnits="objectBoundingBox"
       spreadMethod="pad" />
    <linearGradient
       x1="-0.12717241"
       y1="0.29160193"
       x2="1.28247404"
       y2="0.70541745"
       id="linearGradient564"
       xlink:href="#linearGradient553"
       gradientUnits="objectBoundingBox"
       spreadMethod="pad" />
    <linearGradient
       x1="0.01136383"
       y1="0.00781196"
       x2="0.97727299"
       y2="0.97656238"
       id="linearGradient575"
       xlink:href="#linearGradient613"
       gradientUnits="objectBoundingBox"
       spreadMethod="pad" />
    <linearGradient
       x1="0.00000093"
       y1="0.02343896"
       x2="0.59259260"
       y2="0.53125006"
       id="linearGradient623"
       xlink:href="#linearGradient596"
       gradientUnits="objectBoundingBox"
       spreadMethod="pad" />
    <radialGradient
       cx="0.54163635"
       cy="0.48528421"
       fx="0.54163635"
       fy="0.48528421"
       r="0.44431308"
       id="radialGradient599"
       xlink:href="#linearGradient613"
       gradientUnits="objectBoundingBox"
       spreadMethod="pad" />
    <linearGradient
       x1="0.00791449"
       y1="0.02343800"
       x2="0.49206322"
       y2="0.57812494"
       id="linearGradient600"
       xlink:href="#linearGradient596"
       gradientUnits="objectBoundingBox"
       spreadMethod="pad" />
    <linearGradient
       x1="-0.00000316"
       y1="0.01563059"
       x2="0.65306103"
       y2="0.78906244"
       id="linearGradient601"
       xlink:href="#linearGradient596"
       gradientUnits="objectBoundingBox"
       spreadMethod="pad" />
    <linearGradient
       x1="0.00000000"
       y1="0.00000000"
       x2="1.00000000"
       y2="0.00000000"
       id="linearGradient605"
       xlink:href="#linearGradient596"
       gradientUnits="objectBoundingBox"
       spreadMethod="pad" />
  </defs>
  <path
     d="M 38.712283,44.253199 C 43.091192,46.462979 42.617203,48.661301 42.298304,50.276718 C 41.200876,53.102656 31.610067,62.016224 22.685604,56.924608 C 12.137396,50.348877 8.7211307,30.005984 12.444737,19.643782 C 16.163758,9.5062440 27.846248,3.9636035 43.526493,12.884267 C 51.092521,17.568845 52.743251,23.273194 50.654575,27.174755 C 48.566136,31.075743 45.320912,33.448479 35.418215,34.325844 C 26.593304,35.205437 23.013917,29.112692 22.218432,31.221284 C 21.564308,33.419519 22.490146,44.758384 25.517562,48.042183 C 28.752147,49.979249 31.005154,46.703196 32.264171,44.026989 C 33.201209,41.440331 38.783645,44.298453 38.712283,44.253199 z "
     style="font-size:12.000000;opacity:0.30267498;fill:#000000;fill-opacity:1.0000000;fill-rule:evenodd;stroke-width:2.6529500;"
     id="path577"
     sodipodi:nodetypes="ccccccccccc" />
  <path
     d="M 37.093313,41.889438 C 41.472221,44.099217 40.998234,46.297539 40.679335,47.912955 C 39.581907,50.738895 29.991098,59.652464 21.066634,54.560844 C 10.518426,47.985116 7.1021597,27.642223 10.825767,17.280020 C 14.544787,7.1424823 26.227279,1.5998422 41.907522,10.520502 C 49.473550,15.205084 51.124283,20.909433 49.035604,24.810994 C 46.947167,28.711981 43.701943,31.084717 33.799243,31.962083 C 24.974336,32.841674 21.075024,25.308598 20.279541,27.417190 C 19.625416,29.615425 20.871177,42.394623 23.898592,45.678421 C 27.133177,47.615486 29.386182,44.339434 30.645203,41.663228 C 31.582239,39.076568 37.164674,41.934691 37.093313,41.889438 z "
     style="font-size:12.000000;fill:url(#linearGradient564);fill-rule:evenodd;stroke:#261933;stroke-width:1.9862962;stroke-opacity:1.0000000;"
     id="path563"
     sodipodi:nodetypes="ccccccccccc" />
  <path
     d="M 12.719615,37.585463 C 11.188093,32.799451 10.156361,22.398021 14.251147,15.378385 C 19.802940,6.1892197 34.735303,6.3806648 36.649676,8.8693890 C 29.566353,8.9970090 22.173212,13.033978 17.888568,17.867086 C 14.196521,22.031676 12.464369,31.778414 12.719615,37.585463 z "
     style="font-size:12.000000;opacity:0.64949000;fill:url(#linearGradient623);fill-rule:evenodd;stroke:#ffffff;stroke-width:0.081338030pt;"
     id="path595" />
  <ellipse
     cx="345.16455"
     cy="198.05354"
     rx="90.430557"
     ry="134.37218"
     transform="matrix(8.133802e-2,0.000000,0.000000,8.133802e-2,14.80027,-2.101212)"
     style="font-size:12.000000;fill:url(#linearGradient562);fill-rule:evenodd;stroke:#261933;stroke-width:24.420300;stroke-opacity:1.0000000;"
     id="path581"
     d="M 435.59511 198.05354 A 90.430557 134.37218 0 1 0 254.73399,198.05354 A 90.430557 134.37218 0 1 0 435.59511 198.05354 z"
     sodipodi:cx="345.16455"
     sodipodi:cy="198.05354"
     sodipodi:rx="90.430557"
     sodipodi:ry="134.37218" />
  <path
     d="M 37.798370,13.463937 C 37.373298,12.920111 38.134784,7.2596022 40.669928,5.8063034 C 43.209139,4.1592394 45.838881,6.1891844 45.838881,6.1891844 C 45.838881,6.1891844 43.526846,6.3301198 40.957621,8.7264036 C 38.604754,10.768640 38.023675,14.188417 37.798370,13.463937 z "
     style="font-size:12.000000;opacity:0.85000002;fill:url(#linearGradient600);fill-rule:evenodd;stroke:#ffffff;stroke-width:0.081338030pt;"
     id="path602" />
  <ellipse
     cx="354.71704"
     cy="257.91602"
     rx="41.394272"
     ry="40.120605"
     transform="matrix(8.133802e-2,0.000000,0.000000,8.133802e-2,14.55049,-4.927634)"
     style="font-size:12.000000;fill-rule:evenodd;stroke-width:1.0000000pt;"
     id="path582"
     d="M 396.11131 257.91602 A 41.394272 40.120605 0 1 0 313.32277,257.91602 A 41.394272 40.120605 0 1 0 396.11131 257.91602 z"
     sodipodi:cx="354.71704"
     sodipodi:cy="257.91602"
     sodipodi:rx="41.394272"
     sodipodi:ry="40.120605" />
  <ellipse
     cx="345.16455"
     cy="198.05354"
     rx="90.430557"
     ry="134.37218"
     transform="matrix(8.133802e-2,0.000000,0.000000,8.133802e-2,1.954167,-1.583217)"
     style="font-size:12.000000;fill:url(#linearGradient575);fill-rule:evenodd;stroke:#261933;stroke-width:24.420300;stroke-opacity:1.0000000;"
     id="path587"
     d="M 435.59511 198.05354 A 90.430557 134.37218 0 1 0 254.73399,198.05354 A 90.430557 134.37218 0 1 0 435.59511 198.05354 z"
     sodipodi:cx="345.16455"
     sodipodi:cy="198.05354"
     sodipodi:rx="90.430557"
     sodipodi:ry="134.37218" />
  <ellipse
     cx="354.71704"
     cy="257.91602"
     rx="41.394272"
     ry="40.120605"
     transform="matrix(8.133802e-2,0.000000,0.000000,8.133802e-2,1.332581,-4.409639)"
     style="font-size:12.000000;fill-rule:evenodd;stroke-width:1.0000000pt;"
     id="path588"
     d="M 396.11131 257.91602 A 41.394272 40.120605 0 1 0 313.32277,257.91602 A 41.394272 40.120605 0 1 0 396.11131 257.91602 z"
     sodipodi:cx="354.71704"
     sodipodi:cy="257.91602"
     sodipodi:rx="41.394272"
     sodipodi:ry="40.120605" />
  <path
     d="M 24.971840,14.038260 C 24.546767,13.494434 25.308253,7.8339229 27.843398,6.3806241 C 30.382608,4.7335619 33.012349,6.7635070 33.012349,6.7635070 C 33.012349,6.7635070 30.844040,6.7606595 28.274815,9.1570000 C 25.921949,11.199237 25.197147,14.762738 24.971840,14.038260 z "
     style="font-size:12.000000;opacity:0.85000002;fill:url(#linearGradient600);fill-rule:evenodd;stroke:#ffffff;stroke-width:0.081338030pt;"
     id="path599" />
  <path
     d="M 26.886211,47.923285 C 30.045463,46.850680 31.042586,43.583574 32.438021,42.754332 C 32.929873,42.394574 35.374976,42.997372 34.926802,43.137191 C 32.079727,43.966025 29.185719,48.484273 26.886211,47.923285 z "
     style="font-size:12.000000;opacity:0.64949000;fill:url(#linearGradient601);fill-rule:evenodd;stroke:#ffffff;stroke-width:0.081338030pt;"
     id="path603" />
  <path
     sodipodi:type="arc"
     style="fill:#ffffff;fill-opacity:1.0000000;fill-rule:evenodd;stroke:none;stroke-width:1.0000000pt;stroke-linecap:butt;stroke-linejoin:miter;stroke-opacity:1.0000000;"
     id="path647"
     d="M 273.52351 183.91235 A 12.790665 12.790680 0 1 0 247.94218,183.91235 A 12.790665 12.790680 0 1 0 273.52351 183.91235 z"
     sodipodi:cx="260.73285"
     sodipodi:cy="183.91235"
     sodipodi:rx="12.790665"
     sodipodi:ry="12.790680"
     transform="matrix(7.508131e-2,0.000000,0.000000,7.508124e-2,9.496809,1.708173)" />
  <path
     sodipodi:type="arc"
     style="fill:#ffffff;fill-opacity:1.0000000;fill-rule:evenodd;stroke:none;stroke-width:1.0000000pt;stroke-linecap:butt;stroke-linejoin:miter;stroke-opacity:1.0000000;"
     id="path648"
     d="M 273.52351 183.91235 A 12.790665 12.790680 0 1 0 247.94218,183.91235 A 12.790665 12.790680 0 1 0 273.52351 183.91235 z"
     sodipodi:cx="260.73285"
     sodipodi:cy="183.91235"
     sodipodi:rx="12.790665"
     sodipodi:ry="12.790680"
     transform="matrix(7.508131e-2,0.000000,0.000000,7.508124e-2,22.78151,1.228014)" />
  <metadata
     id="metadata45">
    <rdf:RDF
       id="RDF46">
      <cc:Work
         rdf:about=""
         id="Work47">
        <dc:format
           id="format48">image/svg+xml</dc:format>
        <dc:type
           id="type50"
           rdf:resource="http://purl.org/dc/dcmitype/StillImage" />
      </cc:Work>
    </rdf:RDF>
  </metadata>
</svg>
