<?xml version="1.0" encoding="UTF-8" standalone="no"?>
<!DOCTYPE svg PUBLIC "-//W3C//DTD SVG 20010904//EN"
"http://www.w3.org/TR/2001/REC-SVG-20010904/DTD/svg10.dtd">
<!-- Created with Inkscape (http://www.inkscape.org/) -->
<svg
   id="svg1"
   sodipodi:version="0.32"
   inkscape:version="0.38.1"
   width="48pt"
   height="48pt"
   sodipodi:docbase="/home/dan/svg-icons/lila/gnome/scalable/apps"
   sodipodi:docname="stock_bluetooth.svg"
   xmlns="http://www.w3.org/2000/svg"
   xmlns:inkscape="http://www.inkscape.org/namespaces/inkscape"
   xmlns:sodipodi="http://sodipodi.sourceforge.net/DTD/sodipodi-0.dtd"
   xmlns:xlink="http://www.w3.org/1999/xlink">
  <defs
     id="defs3">
    <linearGradient
       id="linearGradient916">
      <stop
         style="stop-color:#cccccc;stop-opacity:1;"
         offset="0.00000000"
         id="stop917" />
      <stop
         style="stop-color:#7f7f7f;stop-opacity:1;"
         offset="1.00000000"
         id="stop918" />
    </linearGradient>
    <linearGradient
       id="linearGradient866">
      <stop
         style="stop-color:#ffffff;stop-opacity:1;"
         offset="0.00000000"
         id="stop867" />
      <stop
         style="stop-color:#d9cce6;stop-opacity:1;"
         offset="1.00000000"
         id="stop868" />
    </linearGradient>
    <linearGradient
       id="linearGradient584">
      <stop
         style="stop-color:#ffffff;stop-opacity:1;"
         offset="0.00000000"
         id="stop585" />
      <stop
         style="stop-color:#ffffff;stop-opacity:0;"
         offset="1.00000000"
         id="stop586" />
    </linearGradient>
    <linearGradient
       id="linearGradient578">
      <stop
         style="stop-color:#d9cce6;stop-opacity:1.0000000;"
         offset="0.0000000"
         id="stop579" />
      <stop
         style="stop-color:#73667f;stop-opacity:1.0000000;"
         offset="1.0000000"
         id="stop580" />
    </linearGradient>
    <linearGradient
       xlink:href="#linearGradient584"
       id="linearGradient581"
       x1="0.01515152"
       y1="0.00775194"
       x2="1.00000000"
       y2="0.98449612" />
    <linearGradient
       xlink:href="#linearGradient584"
       id="linearGradient583"
       x1="-0.00000000"
       y1="-0.00000000"
       x2="0.94444442"
       y2="0.96899223" />
    <linearGradient
       xlink:href="#linearGradient584"
       id="linearGradient860"
       x1="0.00724638"
       y1="0.02739726"
       x2="0.99637681"
       y2="0.95890409" />
    <linearGradient
       xlink:href="#linearGradient584"
       id="linearGradient861"
       x1="-0.00000000"
       y1="-0.01818182"
       x2="1.00362325"
       y2="0.92727274" />
    <linearGradient
       xlink:href="#linearGradient584"
       id="linearGradient862"
       x1="0.00362319"
       y1="-0.00000000"
       x2="0.98913044"
       y2="0.96103895" />
    <linearGradient
       xlink:href="#linearGradient578"
       id="linearGradient869"
       x1="-0.00000000"
       y1="0.00917431"
       x2="0.99275362"
       y2="0.96330273" />
    <linearGradient
       xlink:href="#linearGradient578"
       id="linearGradient915"
       x1="0.00362319"
       y1="-0.00000000"
       x2="1.01086962"
       y2="1.02362204" />
    <linearGradient
       xlink:href="#linearGradient578"
       id="linearGradient1046"
       x1="-0.00000000"
       y1="0.00775194"
       x2="0.97549021"
       y2="0.96899223" />
    <linearGradient
       xlink:href="#linearGradient578"
       id="linearGradient1047"
       x1="0.00362319"
       y1="0.01626016"
       x2="1.00000000"
       y2="0.97560978" />
    <linearGradient
       xlink:href="#linearGradient584"
       id="linearGradient1106"
       x1="0.01677185"
       y1="0.00454466"
       x2="0.97643667"
       y2="1.00106704" />
    <linearGradient
       xlink:href="#linearGradient866"
       id="linearGradient1107"
       x1="0.01683684"
       y1="0.00517791"
       x2="0.98230928"
       y2="0.98697507" />
    <linearGradient
       xlink:href="#linearGradient584"
       id="linearGradient1113"
       x1="0.02027027"
       y1="0.03100775"
       x2="0.99324322"
       y2="0.98449612" />
    <linearGradient
       xlink:href="#linearGradient578"
       id="linearGradient872"
       x1="0.010309278"
       y1="0.011904762"
       x2="0.96907216"
       y2="0.98809522" />
    <linearGradient
       xlink:href="#linearGradient584"
       id="linearGradient879"
       x1="-0.10447761"
       y1="0.0059523811"
       x2="0.97014928"
       y2="0.91071427" />
  </defs>
  <sodipodi:namedview
     id="base"
     pagecolor="#ffffff"
     bordercolor="#666666"
     borderopacity="1.0"
     inkscape:pageopacity="0.0"
     inkscape:pageshadow="2"
     inkscape:zoom="5.6568543"
     inkscape:cx="33.718159"
     inkscape:cy="26.225115"
     inkscape:window-width="850"
     inkscape:window-height="553"
     inkscape:window-x="84"
     inkscape:window-y="206" />
  <path
     style="fill:#000000;fill-rule:evenodd;stroke:none;stroke-width:1.8750000;stroke-dasharray:none;fill-opacity:0.29838711;"
     d="M 47.815284,20.741716 C 47.815284,29.021501 47.815284,36.761300 47.815284,45.041086 C 47.815284,53.320871 41.095459,60.040696 32.815674,60.040696 C 24.535888,60.040696 17.816063,53.320871 17.816063,45.041086 C 17.816063,36.761300 17.816063,29.021501 17.816063,20.741716 C 17.816063,12.461932 24.535888,5.8921021 32.815674,5.8921021 C 41.095459,5.8921021 47.815284,12.461932 47.815284,20.741716 z "
     id="path858"
     sodipodi:nodetypes="ccccccc" />
  <path
     sodipodi:type="arc"
     style="fill:none;fill-rule:evenodd;stroke-width:3.0000000pt;"
     id="path866"
     sodipodi:cx="27.884050"
     sodipodi:cy="10.654630"
     sodipodi:rx="24.281055"
     sodipodi:ry="48.562111"
     d="M 52.165106 10.654630 A 24.281055 48.562111 0 1 0 3.6029949,10.654630 A 24.281055 48.562111 0 1 0 52.165106 10.654630 z" />
  <path
     style="fill:url(#linearGradient872);fill-rule:evenodd;stroke:#000000;stroke-width:1.8750000;stroke-dasharray:none;"
     d="M 44.584477,17.667159 C 44.584477,25.946944 44.584477,33.686743 44.584477,41.966529 C 44.584477,50.246314 37.864652,56.966139 29.584867,56.966139 C 21.305081,56.966139 14.585256,50.246314 14.585256,41.966529 C 14.585256,33.686743 14.585256,25.946944 14.585256,17.667159 C 14.585256,9.3873750 21.305081,2.8175450 29.584867,2.8175450 C 37.864652,2.8175450 44.584477,9.3873750 44.584477,17.667159 z "
     id="path871"
     sodipodi:nodetypes="ccccccc" />
  <path
     style="fill:none;fill-rule:evenodd;stroke:#ffffff;stroke-width:2.8308022;"
     d="M 19.551949,19.449065 L 30.264639,30.161755 L 40.977330,19.449065 L 30.264639,8.7363750 L 30.264639,51.587135 L 40.977330,40.874445 L 30.264639,30.161755 L 19.551949,40.874445"
     id="path877"
     sodipodi:nodetypes="cccccccc" />
  <path
     style="fill:url(#linearGradient879);fill-rule:evenodd;stroke:none;stroke-opacity:1;stroke-width:1pt;stroke-linejoin:miter;stroke-linecap:butt;fill-opacity:0.75;"
     d="M 16.103979,39.285360 C 16.103979,30.585586 16.103979,21.735816 16.103979,17.385929 C 16.103979,13.036042 21.203846,4.4862638 29.753624,4.3362677 C 22.853803,6.8862015 21.570116,10.558048 18.997682,15.154749 C 17.726447,17.500451 16.103979,39.285360 16.103979,39.285360 z "
     id="path878"
     sodipodi:nodetypes="cccsc" />
</svg>
