<?xml version="1.0" encoding="UTF-8" standalone="no"?>
<!DOCTYPE svg PUBLIC "-//W3C//DTD SVG 20010904//EN"
"http://www.w3.org/TR/2001/REC-SVG-20010904/DTD/svg10.dtd">
<!-- Created with Inkscape (http://www.inkscape.org/) -->
<svg
   id="svg1"
   sodipodi:version="0.32"
   inkscape:version="0.37"
   width="48pt"
   height="48pt"
   sodipodi:docbase="/home/dan/Projects/Lila-icons/scalable/apps"
   sodipodi:docname="xmms_mini.svg"
   xmlns="http://www.w3.org/2000/svg"
   xmlns:inkscape="http://www.inkscape.org/namespaces/inkscape"
   xmlns:sodipodi="http://sodipodi.sourceforge.net/DTD/sodipodi-0.dtd"
   xmlns:xlink="http://www.w3.org/1999/xlink">
  <defs
     id="defs3">
    <linearGradient
       id="linearGradient584">
      <stop
         style="stop-color:#ffffff;stop-opacity:1;"
         offset="0.00000000"
         id="stop585" />
      <stop
         style="stop-color:#ffffff;stop-opacity:0;"
         offset="1.00000000"
         id="stop586" />
    </linearGradient>
    <linearGradient
       id="linearGradient578">
      <stop
         style="stop-color:#d9cce6;stop-opacity:1;"
         offset="0.00000000"
         id="stop579" />
      <stop
         style="stop-color:#73667f;stop-opacity:1;"
         offset="1.00000000"
         id="stop580" />
    </linearGradient>
    <linearGradient
       xlink:href="#linearGradient578"
       id="linearGradient581"
       x1="-0.00000000"
       y1="0.00000000"
       x2="1.00000000"
       y2="0.99218750" />
    <linearGradient
       xlink:href="#linearGradient584"
       id="linearGradient583"
       x1="0.00000000"
       y1="-0.00000000"
       x2="0.98863637"
       y2="1.00781250" />
    <linearGradient
       xlink:href="#linearGradient584"
       id="linearGradient860"
       x1="0.00000000"
       y1="-0.00000000"
       x2="0.98770493"
       y2="0.95312500" />
    <linearGradient
       xlink:href="#linearGradient584"
       id="linearGradient861"
       x1="0.00000000"
       y1="-0.00000000"
       x2="1.09090912"
       y2="0.99218750" />
    <linearGradient
       xlink:href="#linearGradient578"
       id="linearGradient862"
       x1="-0.00000000"
       y1="0.00000000"
       x2="1.00000000"
       y2="1.00781250" />
    <linearGradient
       xlink:href="#linearGradient584"
       id="linearGradient607"
       x1="-0.00000000"
       y1="-0.00000000"
       x2="0.98809522"
       y2="0.98437500" />
    <linearGradient
       xlink:href="#linearGradient584"
       id="linearGradient643"
       x1="0.00000000"
       y1="-0.00000000"
       x2="1.01315784"
       y2="0.98437500" />
    <linearGradient
       xlink:href="#linearGradient584"
       id="linearGradient646"
       x1="-0.00000000"
       y1="0.02272727"
       x2="1.00362325"
       y2="1.00000000" />
  </defs>
  <sodipodi:namedview
     id="base"
     pagecolor="#ffffff"
     bordercolor="#666666"
     borderopacity="1.0"
     inkscape:pageopacity="0.0"
     inkscape:pageshadow="2"
     inkscape:zoom="5.64233871"
     inkscape:cx="24.7163833"
     inkscape:cy="17.0671345"
     inkscape:window-width="645"
     inkscape:window-height="535"
     inkscape:window-x="43"
     inkscape:window-y="105" />
  <g
     id="g638"
     style="opacity:0.302675;"
     transform="matrix(1.010075,0.000000,0.000000,1.010075,1.464575,1.967018)">
    <path
       style="fill:#000000;fill-rule:evenodd;stroke:none;stroke-opacity:1;stroke-width:1.875;stroke-linejoin:miter;stroke-linecap:butt;fill-opacity:1;stroke-dasharray:none;"
       d="M 16.291805 26.163174 C 16.062668 18.395423 19.429147 6.7908921 31.80035 6.894982 C 42.872131 6.9858379 45.163923 19.035258 44.959115 26.789782 C 44.906519 27.918154 41.047958 28.914546 41.042816 27.729694 C 41.173688 21.63246 39.836777 12.555951 32.113654 12.377801 C 23.949482 12.196819 20.202489 18.911049 20.208104 27.41639 C 20.191555 28.34834 16.33598 27.070554 16.291805 26.163174 z "
       id="path635"
       sodipodi:nodetypes="cssssss" />
    <path
       style="font-size:12;fill:#000000;fill-rule:evenodd;stroke:none;stroke-width:1.875;stroke-dasharray:none;fill-opacity:1;"
       d="M 19.580529 26.357927 C 21.956384 29.578531 21.27074 50.419688 18.810803 53.298337 C 17.251059 55.123569 7.6961927 46.214731 7.0083367 42.009022 C 6.5047267 39.766356 3.8807379 41.219673 3.9294337 38.930118 C 3.9773311 36.421524 6.7546737 37.881907 7.5214877 35.851215 C 8.9503517 31.387806 18.107754 24.361499 19.580529 26.357927 z "
       id="path636"
       sodipodi:nodetypes="csssss" />
    <path
       style="font-size:12;fill:#000000;fill-rule:evenodd;stroke:none;stroke-width:1.875;stroke-dasharray:none;fill-opacity:1;"
       d="M 41.114503 26.357927 C 38.738648 29.578531 39.424292 50.419688 41.884229 53.298337 C 43.443973 55.123569 52.998839 46.214731 53.686695 42.009022 C 54.190305 39.766356 56.814294 41.219673 56.765598 38.930118 C 56.717701 36.421524 53.940358 37.881907 53.173544 35.851215 C 51.74468 31.387806 42.587278 24.361499 41.114503 26.357927 z "
       id="path637"
       sodipodi:nodetypes="csssss" />
  </g>
  <path
     style="fill:url(#linearGradient862);fill-rule:evenodd;stroke:#261933;stroke-opacity:1;stroke-width:1.875;stroke-linejoin:miter;stroke-linecap:butt;fill-opacity:1;stroke-dasharray:none;"
     d="M 16.291805 26.163174 C 16.062668 18.395423 19.429147 6.7908921 31.80035 6.894982 C 42.872131 6.9858379 45.163923 19.035258 44.959115 26.789782 C 44.906519 27.918154 41.047958 28.914546 41.042816 27.729694 C 41.173688 21.63246 39.836777 12.555951 32.113654 12.377801 C 23.949482 12.196819 20.202489 18.911049 20.208104 27.41639 C 20.191555 28.34834 16.33598 27.070554 16.291805 26.163174 z "
     id="path605"
     sodipodi:nodetypes="cssssss" />
  <path
     style="font-size:12;fill:url(#linearGradient581);fill-rule:evenodd;stroke:#261933;stroke-width:1.875;stroke-dasharray:none;"
     d="M 19.580529 26.357927 C 21.956384 29.578531 21.27074 50.419688 18.810803 53.298337 C 17.251059 55.123569 7.6961927 46.214731 7.0083367 42.009022 C 6.5047267 39.766356 3.8807379 41.219673 3.9294337 38.930118 C 3.9773311 36.421524 6.7546737 37.881907 7.5214877 35.851215 C 8.9503517 31.387806 18.107754 24.361499 19.580529 26.357927 z "
     id="path600"
     sodipodi:nodetypes="csssss" />
  <path
     style="fill:url(#linearGradient583);fill-rule:evenodd;stroke:none;stroke-opacity:1;stroke-width:1pt;stroke-linejoin:miter;stroke-linecap:butt;fill-opacity:1;"
     d="M 8.9291623 43.551543 C 7.3313633 39.760616 8.2456756 36.370349 11.90555 32.115949 C 13.568789 30.253717 18.300379 27.545141 18.484932 27.729694 C 18.665901 27.910663 15.66392 29.921088 13.002114 33.212513 C 8.5519834 38.453371 8.3234926 39.812834 8.9291623 43.551543 z "
     id="path601"
     sodipodi:nodetypes="csssc" />
  <path
     style="fill:url(#linearGradient860);fill-rule:evenodd;stroke:none;stroke-opacity:1;stroke-width:1pt;stroke-linejoin:miter;stroke-linecap:butt;fill-opacity:1;"
     d="M 5.1323177 39.273328 C 5.1045059 39.199163 5.1016883 38.60421 5.3161948 38.49185 C 6.0670428 38.098548 8.0053578 37.694946 8.0283811 37.756342 C 8.0513271 37.817532 6.2672789 38.433654 5.4541026 38.859604 C 5.3019244 38.939316 5.1504751 39.321748 5.1323177 39.273328 z "
     id="path602"
     sodipodi:nodetypes="cssss" />
  <path
     style="font-size:12;fill:url(#linearGradient581);fill-rule:evenodd;stroke:#261933;stroke-width:1.875;stroke-dasharray:none;"
     d="M 41.114503 26.357927 C 38.738648 29.578531 39.424292 50.419688 41.884229 53.298337 C 43.443973 55.123569 52.998839 46.214731 53.686695 42.009022 C 54.190305 39.766356 56.814294 41.219673 56.765598 38.930118 C 56.717701 36.421524 53.940358 37.881907 53.173544 35.851215 C 51.74468 31.387806 42.587278 24.361499 41.114503 26.357927 z "
     id="path603"
     sodipodi:nodetypes="csssss" />
  <path
     style="fill:url(#linearGradient861);fill-rule:evenodd;stroke:none;stroke-opacity:1;stroke-width:1pt;stroke-linejoin:miter;stroke-linecap:butt;fill-opacity:1;"
     d="M 42.563454 49.099249 C 40.958906 44.422723 40.892311 33.822142 42.25015 27.951233 C 42.450356 27.026495 45.189741 29.255268 45.383189 29.674405 C 45.503045 29.934093 43.402684 29.342516 43.190062 29.987709 C 41.461582 35.568839 41.715288 45.323087 42.563454 49.099249 z "
     id="path604"
     sodipodi:nodetypes="csssc" />
  <path
     style="fill:url(#linearGradient607);fill-rule:evenodd;stroke:none;stroke-opacity:1;stroke-width:1pt;stroke-linejoin:miter;stroke-linecap:butt;fill-opacity:1;"
     d="M 17.388369 24.753307 C 17.334379 24.483356 18.459163 13.177058 26.317531 9.5580656 C 31.877645 7.0696241 38.326698 10.546105 38.379733 10.811281 C 38.431132 11.068278 32.375937 8.5877236 26.630835 11.124585 C 19.670407 14.110618 17.438813 25.005529 17.388369 24.753307 z "
     id="path606"
     sodipodi:nodetypes="cssss" />
  <path
     style="fill:#000000;fill-rule:evenodd;stroke:none;stroke-opacity:1;stroke-width:1.875;stroke-linejoin:miter;stroke-linecap:butt;fill-opacity:1;stroke-dasharray:none;opacity:0.300000;"
     d="M 25.792729 28.87257 C 27.578834 33.951165 30.881514 38.855069 32.37448 43.992488 C 32.854038 45.690937 27.245798 45.806148 28.028699 50.660662 C 28.631035 54.184396 32.627479 55.739639 36.484162 52.802268 C 40.259377 49.927361 36.007318 45.189154 35.104699 43.209197 C 32.899281 38.554825 32.411358 37.37727 31.26271 34.41501 C 30.902825 33.418273 31.941124 32.801161 33.299623 32.299491 C 34.975976 31.680442 37.655614 27.336398 37.537941 27.088269 C 37.429892 26.860429 33.737961 29.459918 32.001155 29.572339 C 30.925819 29.580472 28.689852 28.123247 27.039673 27.777837 C 26.647019 27.695649 25.652639 28.474234 25.792729 28.87257 z "
     id="path646"
     sodipodi:nodetypes="cssssssssss" />
  <path
     style="font-size:12;fill:url(#linearGradient581);fill-rule:evenodd;stroke:#261933;stroke-width:1.875;stroke-dasharray:none;"
     d="M 23.924308 29.213833 C 25.673032 34.186145 28.906596 38.98742 30.368316 44.017323 C 30.837838 45.680229 25.346967 45.793028 26.113483 50.545948 C 26.703214 53.995936 30.61602 55.518632 34.391991 52.642732 C 38.0882 49.827992 33.925126 45.188948 33.041396 43.250427 C 30.882135 38.693462 30.169606 36.812443 29.044998 33.912176 C 28.692646 32.936298 29.691974 32.570593 31.02204 32.079421 C 32.663313 31.473328 35.538927 27.709812 35.423716 27.466873 C 35.317927 27.243803 32.047532 29.531607 30.347071 29.641675 C 29.294242 29.649638 26.7608 28.480194 25.145155 28.142012 C 24.760717 28.061543 23.787148 28.823836 23.924308 29.213833 z "
     id="path644"
     sodipodi:nodetypes="cssssssssss" />
  <path
     style="fill:url(#linearGradient643);fill-rule:evenodd;stroke:none;stroke-opacity:1;stroke-width:1pt;stroke-linejoin:miter;stroke-linecap:butt;fill-opacity:1;"
     d="M 27.874495 52.000694 C 27.776575 51.902774 27.108923 50.008274 27.78382 48.555062 C 28.393189 47.324816 31.229343 45.562696 31.320125 45.653479 C 31.410691 45.744046 29.157205 47.150752 28.327867 49.099109 C 27.629442 50.66355 27.957925 52.084123 27.874495 52.000694 z "
     id="path642"
     sodipodi:nodetypes="cssss" />
  <path
     style="fill:url(#linearGradient646);fill-rule:evenodd;stroke:none;stroke-opacity:1;stroke-width:1pt;stroke-linejoin:miter;stroke-linecap:butt;fill-opacity:1;"
     d="M 25.85956 30.762766 C 25.608942 30.553919 24.903585 29.311976 25.224839 29.311976 C 26.173028 29.311976 28.170581 30.570804 29.667889 30.762766 C 30.528119 30.873052 32.325397 30.092952 32.29745 30.218719 C 32.264948 30.364975 30.433887 31.578837 29.486539 31.578837 C 28.439048 31.578837 27.316157 30.444445 26.312933 30.218719 C 26.107163 30.172421 25.971639 30.856166 25.85956 30.762766 z "
     id="path645"
     sodipodi:nodetypes="cssssss" />
</svg>
