<?xml version="1.0" encoding="UTF-8" standalone="no"?>
<!DOCTYPE svg PUBLIC "-//W3C//DTD SVG 20010904//EN"
"http://www.w3.org/TR/2001/REC-SVG-20010904/DTD/svg10.dtd">
<!-- Created with Inkscape (http://www.inkscape.org/) -->
<svg
   id="svg1"
   sodipodi:version="0.32"
   inkscape:version="0.39"
   width="48pt"
   height="48pt"
   sodipodi:docbase="/home/scaba/files/lila/lila-gnome/Lila/scalable"
   sodipodi:docname="stock_print-setup.svg"
   xmlns="http://www.w3.org/2000/svg"
   xmlns:cc="http://web.resource.org/cc/"
   xmlns:inkscape="http://www.inkscape.org/namespaces/inkscape"
   xmlns:sodipodi="http://sodipodi.sourceforge.net/DTD/sodipodi-0.dtd"
   xmlns:rdf="http://www.w3.org/1999/02/22-rdf-syntax-ns#"
   xmlns:dc="http://purl.org/dc/elements/1.1/"
   xmlns:xlink="http://www.w3.org/1999/xlink">
  <defs
     id="defs3">
    <linearGradient
       id="linearGradient916">
      <stop
         style="stop-color:#cccccc;stop-opacity:1;"
         offset="0.00000000"
         id="stop917" />
      <stop
         style="stop-color:#7f7f7f;stop-opacity:1;"
         offset="1.00000000"
         id="stop918" />
    </linearGradient>
    <linearGradient
       id="linearGradient866">
      <stop
         style="stop-color:#ffffff;stop-opacity:1;"
         offset="0.00000000"
         id="stop867" />
      <stop
         style="stop-color:#d9cce6;stop-opacity:1;"
         offset="1.00000000"
         id="stop868" />
    </linearGradient>
    <linearGradient
       id="linearGradient584">
      <stop
         style="stop-color:#ffffff;stop-opacity:1;"
         offset="0.00000000"
         id="stop585" />
      <stop
         style="stop-color:#ffffff;stop-opacity:0;"
         offset="1.00000000"
         id="stop586" />
    </linearGradient>
    <linearGradient
       id="linearGradient578">
      <stop
         style="stop-color:#d9cce6;stop-opacity:1;"
         offset="0.00000000"
         id="stop579" />
      <stop
         style="stop-color:#73667f;stop-opacity:1;"
         offset="1.00000000"
         id="stop580" />
    </linearGradient>
    <linearGradient
       xlink:href="#linearGradient584"
       id="linearGradient581"
       x1="0.01515152"
       y1="0.00775194"
       x2="1.00000000"
       y2="0.98449612" />
    <linearGradient
       xlink:href="#linearGradient584"
       id="linearGradient583" />
    <linearGradient
       xlink:href="#linearGradient584"
       id="linearGradient860"
       x1="0.00724638"
       y1="0.02739726"
       x2="0.99637681"
       y2="0.95890409" />
    <linearGradient
       xlink:href="#linearGradient584"
       id="linearGradient861"
       x1="-0.00000000"
       y1="-0.01818182"
       x2="1.00362325"
       y2="0.92727274" />
    <linearGradient
       xlink:href="#linearGradient584"
       id="linearGradient862"
       x1="0.00362319"
       y1="-0.00000000"
       x2="0.98913044"
       y2="0.96103895" />
    <linearGradient
       xlink:href="#linearGradient578"
       id="linearGradient869"
       x1="-0.00000000"
       y1="0.00917431"
       x2="0.99275362"
       y2="0.96330273" />
    <linearGradient
       xlink:href="#linearGradient578"
       id="linearGradient915"
       x1="0.00362319"
       y1="-0.00000000"
       x2="1.01086962"
       y2="1.02362204" />
    <linearGradient
       xlink:href="#linearGradient578"
       id="linearGradient1046"
       x1="-0.00000000"
       y1="0.00775194"
       x2="0.97549021"
       y2="0.96899223" />
    <linearGradient
       xlink:href="#linearGradient578"
       id="linearGradient1047"
       x1="0.00362319"
       y1="0.01626016"
       x2="1.00000000"
       y2="0.97560978" />
    <linearGradient
       xlink:href="#linearGradient584"
       id="linearGradient1106"
       x1="0.01677185"
       y1="0.00454466"
       x2="0.97643667"
       y2="1.00106704" />
    <linearGradient
       xlink:href="#linearGradient866"
       id="linearGradient1107"
       x1="0.01683684"
       y1="0.00517791"
       x2="0.98230928"
       y2="0.98697507" />
    <linearGradient
       xlink:href="#linearGradient866"
       id="linearGradient1113"
       x1="0.30833334"
       y1="0.25000000"
       x2="0.69166666"
       y2="0.50000000" />
  </defs>
  <sodipodi:namedview
     id="base"
     pagecolor="#ffffff"
     bordercolor="#666666"
     borderopacity="1.0"
     inkscape:pageopacity="0.0"
     inkscape:pageshadow="2"
     inkscape:zoom="8.0000000"
     inkscape:cx="33.447592"
     inkscape:cy="19.966423"
     inkscape:window-width="1018"
     inkscape:window-height="711"
     inkscape:window-x="0"
     inkscape:window-y="30" />
  <metadata
     id="metadata1002">
    <rdf:RDF
       id="RDF1003">
      <cc:Work
         rdf:about=""
         id="Work1004">
        <dc:format
           id="format1005">image/svg+xml</dc:format>
        <dc:type
           id="type1007"
           rdf:resource="http://purl.org/dc/dcmitype/StillImage" />
      </cc:Work>
    </rdf:RDF>
  </metadata>
  <path
     style="font-size:12.000000;opacity:0.29999998;fill:#000000;fill-opacity:1.0000000;fill-rule:evenodd;stroke:none;stroke-width:1.8750000;"
     d="M 30.245264,8.9721325 C 29.610718,9.5384695 26.365983,18.341973 24.276514,24.815883 C 22.924410,24.535546 19.016264,23.564248 18.839014,23.597133 C 17.372414,23.732699 7.1132357,31.355665 6.4327647,32.472133 C 5.8581297,33.506464 5.9662297,44.587887 6.9952647,45.284633 C 7.0977627,45.357187 10.404181,46.383100 11.276515,46.690883 L 7.0577647,50.034633 L 27.901514,57.097133 L 32.432764,53.440883 C 39.643570,55.607104 46.064586,57.425447 46.589014,57.190883 C 48.090120,56.457252 57.974884,47.453197 58.370264,46.503383 C 58.611074,45.773266 59.330994,33.894189 58.057764,33.190883 C 57.442114,32.877494 49.775658,30.928059 42.776514,29.159633 C 45.217030,21.916409 48.057246,12.701591 47.745264,12.065883 C 47.267234,11.031544 31.026781,8.2786965 30.245264,8.9721325 z "
     id="path947" />
  <path
     d="M 4.8761730,42.014196 C 5.8170890,42.680236 43.136124,54.546633 44.475808,53.947425 C 45.976913,53.213793 55.866103,44.205219 56.261483,43.255405 C 56.502293,42.525290 57.233553,30.652949 55.960323,29.949643 C 54.371753,29.141003 17.985097,20.092916 16.713289,20.328872 C 15.246690,20.464438 5.0024360,28.104540 4.3219650,29.221008 C 3.7473320,30.255337 3.8471380,41.317450 4.8761730,42.014196 z "
     style="font-size:12.000000;fill:url(#linearGradient1046);fill-rule:evenodd;stroke:#261933;stroke-width:1.8750000;"
     id="path562"
     sodipodi:nodetypes="ccccccc" />
  <path
     d="M 5.8302050,40.678135 C 5.6000380,40.275336 4.8374920,30.424156 5.7817450,30.207594 C 6.8935350,29.917544 40.505239,39.643296 40.716763,40.013582 C 40.914218,40.359055 10.543664,31.723152 6.8524300,32.354682 C 5.3977900,32.593680 6.0090170,40.991000 5.8302050,40.678135 z "
     style="font-size:12.000000;opacity:0.69993597;fill:url(#linearGradient862);fill-rule:evenodd;stroke:none;stroke-width:0.96353598pt;"
     id="path587"
     sodipodi:nodetypes="ccccc" />
  <path
     d="M 5.9564360,29.579633 C 5.8944040,29.318268 14.977330,21.765036 17.121976,21.730759 C 23.311841,22.195124 53.401763,30.356021 53.463063,30.614404 C 53.523253,30.868167 28.810537,23.836059 17.486854,23.267025 C 13.242374,23.418446 6.0160060,29.830419 5.9564360,29.579633 z "
     style="font-size:12.000000;opacity:0.69993597;fill:url(#linearGradient861);fill-rule:evenodd;stroke:none;stroke-width:0.96353598pt;"
     id="path592"
     sodipodi:nodetypes="ccccc" />
  <path
     d="M 44.065604,52.347275 C 43.800273,52.214562 42.986754,41.735804 43.504395,40.454016 C 44.149994,38.629014 54.688673,30.893200 54.949063,31.023440 C 55.199853,31.148835 46.879423,37.308247 45.194363,41.220920 C 43.863232,44.312025 44.311447,52.470197 44.065604,52.347275 z "
     style="font-size:12.000000;opacity:0.69993597;fill:url(#linearGradient581);fill-rule:evenodd;stroke:none;stroke-width:0.96353598pt;"
     id="path594"
     sodipodi:nodetypes="ccccc" />
  <path
     d="M 34.955105,48.043342 L 12.124081,41.002296 L 12.107918,39.537349 L 34.938882,46.552235 L 34.955105,48.043342 z "
     style="font-size:12.000000;opacity:0.99000001;fill:#1e262e;fill-rule:evenodd;stroke:#000000;stroke-width:0.59416902;stroke-linecap:round;stroke-linejoin:round;"
     id="path596"
     sodipodi:nodetypes="ccccc" />
  <path
     d="M 12.444384,40.836457 L 33.788069,47.371541 L 25.778201,53.826629 L 4.9580650,46.774086 L 12.444384,40.836457 z "
     style="font-size:12.000000;fill:url(#linearGradient1047);fill-rule:evenodd;stroke:#261933;stroke-width:1.8554713;stroke-linecap:round;stroke-linejoin:round;"
     id="path718" />
  <ellipse
     cx="410.20490"
     cy="422.40900"
     rx="11.720139"
     ry="11.720139"
     transform="matrix(0.138281,0.000000,0.000000,0.138281,-17.36580,-14.24609)"
     style="font-size:12.000000;fill:#80ff80;fill-rule:evenodd;stroke:#003f00;stroke-width:6.8748899;stroke-linecap:round;stroke-linejoin:round;"
     id="path722"
     d="M 421.92503 422.40900 A 11.720139 11.720139 0 1 0 398.48476,422.40900 A 11.720139 11.720139 0 1 0 421.92503 422.40900 z"
     sodipodi:cx="410.20490"
     sodipodi:cy="422.40900"
     sodipodi:rx="11.720139"
     sodipodi:ry="11.720139" />
  <path
     d="M 45.245063,25.639527 C 44.275125,25.222887 24.645542,19.728850 23.307166,19.643828 C 22.335842,19.310308 18.198954,22.714188 17.714990,23.596841 C 17.059746,24.524068 16.548372,29.428193 17.926923,29.301639 C 19.057818,29.076219 22.418573,25.615335 23.105767,25.636600 C 24.596458,25.512973 43.008193,31.023894 44.688083,30.990888 C 45.903513,30.503647 46.125053,26.613000 45.245063,25.639527 z "
     style="font-size:12.000000;fill:url(#linearGradient915);fill-rule:evenodd;stroke:#261933;stroke-width:1.6434103;"
     id="path955"
     sodipodi:nodetypes="ccccccc" />
  <path
     d="M 20.370627,28.257166 C 20.743429,29.419538 36.721235,34.827078 37.785664,33.967027 C 38.738550,33.188974 46.091243,9.7642825 45.630643,8.8257445 C 45.152613,7.7914045 28.907607,5.0246029 28.126090,5.7180395 C 27.163369,6.5772754 19.980532,26.923972 20.370627,28.257166 z "
     style="font-size:12.000000;fill:url(#linearGradient1107);fill-rule:evenodd;stroke:#261933;stroke-width:1.9875723;"
     id="path634" />
  <path
     d="M 21.475902,27.186758 C 21.313831,26.760450 28.216228,7.1217095 28.843341,6.7228411 C 29.627385,6.2021896 42.163767,8.7095315 42.325454,9.1348425 C 42.473658,9.5246505 32.539346,7.5875115 30.299020,9.5409705 C 26.003629,13.180815 21.623724,27.575589 21.475902,27.186758 z "
     style="font-size:12.000000;opacity:0.69993597;fill:url(#linearGradient1106);fill-rule:evenodd;stroke:none;stroke-width:1.0000000pt;"
     id="path640" />
  <path
     d="M 17.540277,29.236500 C 18.510217,29.653140 38.139801,35.147178 39.478178,35.232199 C 41.210668,35.020267 44.586387,32.161839 45.070353,31.279185 C 45.725593,30.351958 46.236973,25.447832 44.858423,25.574386 C 43.727525,25.799808 40.366769,29.260692 39.679576,29.239427 C 38.188885,29.363055 19.689630,23.569237 18.009738,23.602242 C 16.794311,24.089483 16.660294,28.263027 17.540277,29.236500 z "
     style="font-size:12.000000;fill:url(#linearGradient915);fill-rule:evenodd;stroke:#261933;stroke-width:1.6434103;"
     id="path951"
     sodipodi:nodetypes="ccccccc" />
  <path
     d="M 18.209848,28.317822 C 18.098428,28.111011 17.868564,25.028161 18.482174,24.849572 C 19.227148,24.714308 38.960360,30.442444 39.059560,30.626731 C 38.730922,30.887121 24.969339,26.411941 19.067094,25.789710 C 17.980595,25.694645 18.292423,28.471158 18.209848,28.317822 z "
     style="font-size:12.000000;opacity:0.69993597;fill:url(#linearGradient860);fill-rule:evenodd;stroke:none;stroke-width:1.0000000pt;"
     id="path719"
     sodipodi:nodetypes="ccccc" />
  <path
     d="M 39.786218,34.311728 C 39.710160,34.263832 39.776259,31.080122 39.970425,30.709023 C 40.219317,30.177936 44.511123,27.085018 44.585765,27.132024 C 44.657653,27.177286 41.081535,29.860809 40.457189,30.990478 C 39.963976,31.882942 39.856691,34.356098 39.786218,34.311728 z "
     style="font-size:12.000000;opacity:0.69993597;fill:url(#linearGradient581);fill-rule:evenodd;stroke:none;stroke-width:0.96353598pt;"
     id="path954"
     sodipodi:nodetypes="ccccc" />
  <path
     d="M 39.598048,53.282931 C 40.562837,51.208544 35.673427,49.622942 39.719974,45.696564 C 44.289282,41.266080 45.086137,47.119389 47.093316,46.438614 C 48.429124,45.915807 46.877887,40.287936 45.343292,39.066069 C 43.784749,37.824974 39.693260,40.510758 37.814173,39.049804 C 31.584735,34.206149 25.267731,26.995410 21.018059,20.152039 C 19.634594,17.924026 22.220980,13.594728 20.914573,11.835575 C 19.646728,10.128605 13.941693,8.4546000 13.295397,9.7539460 C 12.260290,11.752702 18.606761,14.187236 14.623528,17.935516 C 10.612904,21.708762 8.2248460,15.588320 6.5294020,16.086561 C 5.1561490,16.534159 6.6759930,22.670374 8.3050140,24.150632 C 9.9116620,25.610585 14.241075,23.325220 16.236411,24.907189 C 22.426737,29.815290 28.658970,36.892295 32.862008,43.620928 C 34.081057,45.572518 31.402116,49.369054 32.502856,50.947946 C 33.647433,52.589691 38.905059,54.621116 39.598048,53.282931 z "
     style="font-size:12.000000;opacity:0.30267498;fill-rule:evenodd;stroke-width:12.500000;"
     id="path636" />
  <path
     d="M 38.088444,54.750637 C 39.053235,52.676257 34.163826,51.090686 38.210373,47.164306 C 42.779683,42.733822 43.576538,48.587126 45.583714,47.906355 C 46.919525,47.383547 45.368289,41.755679 43.833691,40.533809 C 42.275147,39.292715 38.183662,41.978501 36.304568,40.517548 C 30.075132,35.673889 23.758131,28.463151 19.508459,21.619783 C 18.124994,19.391769 20.711384,15.062468 19.404972,13.303315 C 18.137127,11.596344 12.432092,9.9223410 11.785796,11.221685 C 10.750687,13.220443 17.097160,15.654977 13.113928,19.403256 C 9.1033040,23.176502 6.7152490,17.056059 5.0198470,17.554302 C 3.6465840,18.001900 5.1664650,24.138111 6.7954150,25.618372 C 8.4020620,27.078325 12.731474,24.792962 14.726810,26.374930 C 20.917137,31.283030 27.149369,38.360035 31.352406,45.088669 C 32.571456,47.040259 29.892518,50.836796 30.993253,52.415661 C 32.137831,54.057395 37.395456,56.088820 38.088444,54.750637 z "
     style="font-size:12.000000;fill:url(#linearGradient1113);fill-rule:evenodd;stroke:#261933;stroke-width:2.2979829;"
     id="path630" />
  <path
     d="M 32.255174,44.124253 C 32.110284,44.212532 27.266764,36.971790 24.407082,33.734912 C 21.659766,30.625370 15.291564,25.171712 15.434173,25.084818 C 15.580377,24.995659 22.481795,30.047211 25.273438,33.207034 C 28.088799,36.393721 32.399102,44.036572 32.255174,44.124253 z "
     style="font-size:12.000000;opacity:0.69999999;fill:url(#linearGradient862);fill-rule:evenodd;stroke-width:1.0000000pt;"
     id="path633" />
</svg>
