<?xml version="1.0" encoding="UTF-8" standalone="no"?>
<!DOCTYPE svg PUBLIC "-//W3C//DTD SVG 20010904//EN"
"http://www.w3.org/TR/2001/REC-SVG-20010904/DTD/svg10.dtd">
<!-- Created with Inkscape (http://www.inkscape.org/) -->
<svg
   version="1.0"
   x="0"
   y="0"
   width="48pt"
   height="48pt"
   id="svg1"
   sodipodi:version="0.32"
   inkscape:version="0.38.1"
   sodipodi:docname="stock_proxy.svg"
   sodipodi:docbase="/home/ed"
   xmlns="http://www.w3.org/2000/svg"
   xmlns:inkscape="http://www.inkscape.org/namespaces/inkscape"
   xmlns:sodipodi="http://sodipodi.sourceforge.net/DTD/sodipodi-0.dtd"
   xmlns:xlink="http://www.w3.org/1999/xlink">
  <sodipodi:namedview
     id="base"
     pagecolor="#ffffff"
     bordercolor="#666666"
     borderopacity="1.0"
     inkscape:pageopacity="0.0"
     inkscape:pageshadow="2"
     inkscape:zoom="8.0000000"
     inkscape:cx="35.398433"
     inkscape:cy="16.579224"
     inkscape:window-width="793"
     inkscape:window-height="612"
     inkscape:window-x="335"
     inkscape:window-y="314" />
  <defs
     id="defs3">
    <linearGradient
       id="linearGradient1526">
      <stop
         offset="0.0000000"
         style="stop-color:#7fff7f;stop-opacity:1.0000000;"
         id="stop1528" />
      <stop
         offset="1.0000000"
         style="stop-color:#3fbf3f;stop-opacity:1.0000000;"
         id="stop1527" />
    </linearGradient>
    <linearGradient
       id="linearGradient570">
      <stop
         style="stop-color:#ffffff;stop-opacity:1;"
         offset="0"
         id="stop571" />
      <stop
         style="stop-color:#ffffff;stop-opacity:0;"
         offset="1"
         id="stop572" />
    </linearGradient>
    <linearGradient
       id="linearGradient563">
      <stop
         style="stop-color:#d9cce6;stop-opacity:1;"
         offset="0.00000000"
         id="stop564" />
      <stop
         style="stop-color:#73667f;stop-opacity:1;"
         offset="1.00000000"
         id="stop565" />
    </linearGradient>
    <linearGradient
       x1="0.00000000"
       y1="0.01562500"
       x2="0.98275864"
       y2="0.99218750"
       id="linearGradient566"
       xlink:href="#linearGradient563" />
    <linearGradient
       x1="-0.000000"
       y1="0.027779"
       x2="0.992727"
       y2="0.972222"
       id="linearGradient569"
       xlink:href="#linearGradient570" />
    <linearGradient
       x1="0.027027"
       y1="0.015625"
       x2="0.864865"
       y2="0.984375"
       id="linearGradient573"
       xlink:href="#linearGradient570" />
    <linearGradient
       x1="-0.023529"
       y1="0.000000"
       x2="0.917647"
       y2="0.960938"
       id="linearGradient575"
       xlink:href="#linearGradient570" />
    <linearGradient
       id="linearGradient578"
       xlink:href="#linearGradient570" />
    <linearGradient
       xlink:href="#linearGradient570"
       id="linearGradient1192"
       x1="-0.00000000"
       y1="0.00000000"
       x2="0.94230771"
       y2="0.99218750" />
    <linearGradient
       xlink:href="#linearGradient570"
       id="linearGradient1193" />
    <defs
       id="defs917">
      <linearGradient
         id="linearGradient918">
        <stop
           style="stop-color:#7f7f7f;stop-opacity:1;"
           offset="0.000000"
           id="stop919" />
        <stop
           style="stop-color:#e6e6e6;stop-opacity:1;"
           offset="1.000000"
           id="stop920" />
      </linearGradient>
      <linearGradient
         id="linearGradient921">
        <stop
           style="stop-color:#ffff32;stop-opacity:1;"
           offset="0.000000"
           id="stop922" />
        <stop
           style="stop-color:#ffc500;stop-opacity:1;"
           offset="1.000000"
           id="stop923" />
      </linearGradient>
      <linearGradient
         id="linearGradient924">
        <stop
           style="stop-color:#7fff7f;stop-opacity:1.0000000;"
           offset="0.0000000"
           id="stop925" />
        <stop
           style="stop-color:#3fbf3f;stop-opacity:1.0000000;"
           offset="1.0000000"
           id="stop926" />
      </linearGradient>
      <linearGradient
         id="linearGradient927">
        <stop
           style="stop-color:#ffffff;stop-opacity:1;"
           offset="0.00000000"
           id="stop928" />
        <stop
           style="stop-color:#d9cce6;stop-opacity:1;"
           offset="1.00000000"
           id="stop929" />
      </linearGradient>
      <linearGradient
         id="linearGradient930">
        <stop
           style="stop-color:#ffffff;stop-opacity:1;"
           offset="0.00000000"
           id="stop931" />
        <stop
           style="stop-color:#ffffff;stop-opacity:0;"
           offset="1.00000000"
           id="stop932" />
      </linearGradient>
      <linearGradient
         id="linearGradient933">
        <stop
           style="stop-color:#d9cce6;stop-opacity:1;"
           offset="0.00000000"
           id="stop934" />
        <stop
           style="stop-color:#73667f;stop-opacity:1;"
           offset="1.00000000"
           id="stop935" />
      </linearGradient>
      <linearGradient
         xlink:href="#linearGradient584"
         id="linearGradient936"
         x1="-0.00684932"
         y1="0.00775194"
         x2="0.97945207"
         y2="1.00000000" />
      <linearGradient
         xlink:href="#linearGradient584"
         id="linearGradient937"
         x1="0.01094890"
         y1="0.01030928"
         x2="1.01459849"
         y2="0.96907216" />
      <linearGradient
         xlink:href="#linearGradient584"
         id="linearGradient938"
         x1="-0.02500000"
         y1="0.03100775"
         x2="0.97500002"
         y2="0.97674417" />
      <linearGradient
         xlink:href="#linearGradient578"
         id="linearGradient939"
         x1="0.00000000"
         y1="0.02325581"
         x2="0.98611110"
         y2="0.97674417" />
      <linearGradient
         xlink:href="#linearGradient578"
         id="linearGradient940"
         x1="-0.00000000"
         y1="0.00775194"
         x2="1.00000000"
         y2="0.99224806" />
      <linearGradient
         xlink:href="#linearGradient866"
         id="linearGradient941"
         x1="-0.00684932"
         y1="0.00775194"
         x2="0.97945207"
         y2="1.00000000" />
      <linearGradient
         xlink:href="#linearGradient884"
         id="linearGradient942"
         x1="-0.16999437"
         y1="-0.22656719"
         x2="0.78999752"
         y2="0.81250203"
         gradientUnits="objectBoundingBox"
         spreadMethod="pad" />
      <linearGradient
         xlink:href="#linearGradient964"
         id="linearGradient943"
         x1="-0.00001396"
         y1="0.03123664"
         x2="0.98192781"
         y2="0.99218798"
         gradientUnits="objectBoundingBox"
         spreadMethod="pad" />
      <linearGradient
         xlink:href="#linearGradient584"
         id="linearGradient944"
         x1="-0.00578947"
         y1="0.03114940"
         x2="0.84302366"
         y2="0.84374923"
         gradientUnits="objectBoundingBox"
         spreadMethod="pad" />
      <linearGradient
         xlink:href="#linearGradient969"
         id="linearGradient945"
         x1="0.01561102"
         y1="-0.00001780"
         x2="0.98437500"
         y2="0.99218690"
         gradientUnits="objectBoundingBox"
         spreadMethod="pad" />
      <linearGradient
         xlink:href="#linearGradient584"
         id="linearGradient946"
         x1="-0.00000030"
         y1="0.00000010"
         x2="0.99999970"
         y2="0.00000010"
         gradientUnits="objectBoundingBox"
         spreadMethod="pad" />
      <linearGradient
         xlink:href="#linearGradient884"
         id="linearGradient947"
         x1="-0.01466661"
         y1="0.05835330"
         x2="1.02921987"
         y2="0.95953709"
         gradientUnits="objectBoundingBox"
         spreadMethod="pad" />
      <linearGradient
         xlink:href="#linearGradient584"
         id="linearGradient948"
         x1="0.00624930"
         y1="0.02343486"
         x2="1.48749995"
         y2="1.35937512"
         gradientUnits="objectBoundingBox"
         spreadMethod="pad" />
      <linearGradient
         xlink:href="#linearGradient584"
         id="linearGradient949"
         x1="0.00413379"
         y1="0.01517161"
         x2="0.98347086"
         y2="1.01515150"
         gradientUnits="objectBoundingBox"
         spreadMethod="pad" />
      <linearGradient
         xlink:href="#linearGradient584"
         id="linearGradient950"
         x1="-0.03225702"
         y1="0.00781346"
         x2="0.96774155"
         y2="0.99999982"
         gradientUnits="objectBoundingBox"
         spreadMethod="pad" />
      <linearGradient
         xlink:href="#linearGradient584"
         id="linearGradient951"
         x1="-0.00000289"
         y1="0.00782308"
         x2="1.00000000"
         y2="0.99218750"
         gradientUnits="objectBoundingBox"
         spreadMethod="pad" />
    </defs>
    <sodipodi:namedview
       id="namedview952"
       pagecolor="#ffffff"
       bordercolor="#666666"
       borderopacity="1.0"
       inkscape:pageopacity="0.0"
       inkscape:pageshadow="2"
       inkscape:zoom="11.284677"
       inkscape:cx="14.021707"
       inkscape:cy="10.973442"
       inkscape:window-width="640"
       inkscape:window-height="525"
       inkscape:window-x="154"
       inkscape:window-y="386" />
    <defs
       id="defs875">
      <linearGradient
         id="linearGradient969">
        <stop
           style="stop-color:#7f7f7f;stop-opacity:1;"
           offset="0.000000"
           id="stop970" />
        <stop
           style="stop-color:#e6e6e6;stop-opacity:1;"
           offset="1.000000"
           id="stop971" />
      </linearGradient>
      <linearGradient
         id="linearGradient964">
        <stop
           style="stop-color:#ffff32;stop-opacity:1;"
           offset="0.000000"
           id="stop965" />
        <stop
           style="stop-color:#ffc500;stop-opacity:1;"
           offset="1.000000"
           id="stop966" />
      </linearGradient>
      <linearGradient
         id="linearGradient884"
         x1="0.0000000"
         y1="0.50000000"
         x2="1.0000000"
         y2="0.50000000"
         gradientUnits="objectBoundingBox"
         spreadMethod="pad"
         xlink:href="#linearGradient1526" />
      <linearGradient
         id="linearGradient885">
        <stop
           style="stop-color:#ffffff;stop-opacity:1;"
           offset="0.00000000"
           id="stop867" />
        <stop
           style="stop-color:#d9cce6;stop-opacity:1;"
           offset="1.00000000"
           id="stop868" />
      </linearGradient>
      <linearGradient
         id="linearGradient584">
        <stop
           style="stop-color:#ffffff;stop-opacity:1;"
           offset="0.00000000"
           id="stop585" />
        <stop
           style="stop-color:#ffffff;stop-opacity:0;"
           offset="1.00000000"
           id="stop586" />
      </linearGradient>
      <linearGradient
         id="linearGradient891">
        <stop
           style="stop-color:#d9cce6;stop-opacity:1;"
           offset="0.00000000"
           id="stop579" />
        <stop
           style="stop-color:#73667f;stop-opacity:1;"
           offset="1.00000000"
           id="stop580" />
      </linearGradient>
      <linearGradient
         xlink:href="#linearGradient584"
         id="linearGradient581"
         x1="-0.00684932"
         y1="0.00775194"
         x2="0.97945207"
         y2="1.00000000" />
      <linearGradient
         xlink:href="#linearGradient584"
         id="linearGradient583"
         x1="0.01094890"
         y1="0.01030928"
         x2="1.01459849"
         y2="0.96907216" />
      <linearGradient
         xlink:href="#linearGradient584"
         id="linearGradient860"
         x1="-0.02500000"
         y1="0.03100775"
         x2="0.97500002"
         y2="0.97674417" />
      <linearGradient
         xlink:href="#linearGradient578"
         id="linearGradient897"
         x1="0.00000000"
         y1="0.02325581"
         x2="0.98611110"
         y2="0.97674417" />
      <linearGradient
         xlink:href="#linearGradient578"
         id="linearGradient862"
         x1="-0.00000000"
         y1="0.00775194"
         x2="1.00000000"
         y2="0.99224806" />
      <linearGradient
         xlink:href="#linearGradient866"
         id="linearGradient869"
         x1="-0.00684932"
         y1="0.00775194"
         x2="0.97945207"
         y2="1.00000000" />
      <linearGradient
         xlink:href="#linearGradient884"
         id="linearGradient883"
         x1="-0.16999437"
         y1="-0.22656719"
         x2="0.78999752"
         y2="0.81250203"
         gradientUnits="objectBoundingBox"
         spreadMethod="pad" />
      <linearGradient
         xlink:href="#linearGradient964"
         id="linearGradient963"
         x1="-0.00001396"
         y1="0.03123664"
         x2="0.98192781"
         y2="0.99218798"
         gradientUnits="objectBoundingBox"
         spreadMethod="pad" />
      <linearGradient
         xlink:href="#linearGradient584"
         id="linearGradient967"
         x1="-0.00578947"
         y1="0.03114940"
         x2="0.84302366"
         y2="0.84374923"
         gradientUnits="objectBoundingBox"
         spreadMethod="pad" />
      <linearGradient
         xlink:href="#linearGradient969"
         id="linearGradient968"
         x1="0.01561102"
         y1="-0.00001780"
         x2="0.98437500"
         y2="0.99218690"
         gradientUnits="objectBoundingBox"
         spreadMethod="pad" />
      <linearGradient
         xlink:href="#linearGradient584"
         id="linearGradient972"
         x1="-0.00000030"
         y1="0.00000010"
         x2="0.99999970"
         y2="0.00000010"
         gradientUnits="objectBoundingBox"
         spreadMethod="pad" />
      <linearGradient
         xlink:href="#linearGradient884"
         id="linearGradient1815"
         x1="-0.01466661"
         y1="0.05835330"
         x2="1.02921987"
         y2="0.95953709"
         gradientUnits="objectBoundingBox"
         spreadMethod="pad" />
      <linearGradient
         xlink:href="#linearGradient584"
         id="linearGradient1816"
         x1="0.00624930"
         y1="0.02343486"
         x2="1.48749995"
         y2="1.35937512"
         gradientUnits="objectBoundingBox"
         spreadMethod="pad" />
      <linearGradient
         xlink:href="#linearGradient584"
         id="linearGradient1817"
         x1="0.00413379"
         y1="0.01517161"
         x2="0.98347086"
         y2="1.01515150"
         gradientUnits="objectBoundingBox"
         spreadMethod="pad" />
      <linearGradient
         xlink:href="#linearGradient584"
         id="linearGradient1818"
         x1="-0.03225702"
         y1="0.00781346"
         x2="0.96774155"
         y2="0.99999982"
         gradientUnits="objectBoundingBox"
         spreadMethod="pad" />
      <linearGradient
         xlink:href="#linearGradient584"
         id="linearGradient1819"
         x1="-0.00000289"
         y1="0.00782308"
         x2="1.00000000"
         y2="0.99218750"
         gradientUnits="objectBoundingBox"
         spreadMethod="pad" />
    </defs>
    <sodipodi:namedview
       id="namedview910"
       pagecolor="#ffffff"
       bordercolor="#666666"
       borderopacity="1.0"
       inkscape:pageopacity="0.0"
       inkscape:pageshadow="2"
       inkscape:zoom="11.284677"
       inkscape:cx="14.021707"
       inkscape:cy="10.973442"
       inkscape:window-width="640"
       inkscape:window-height="525"
       inkscape:window-x="154"
       inkscape:window-y="386" />
    <sodipodi:namedview
       id="namedview856"
       pagecolor="#ffffff"
       bordercolor="#666666"
       borderopacity="1.0"
       inkscape:pageopacity="0.0"
       inkscape:pageshadow="2"
       inkscape:zoom="6.94653374"
       inkscape:cx="31.2964525"
       inkscape:cy="22.2940622"
       inkscape:window-width="640"
       inkscape:window-height="500"
       inkscape:window-x="69"
       inkscape:window-y="340" />
    <defs
       id="defs857">
      <linearGradient
         id="linearGradient858">
        <stop
           style="stop-color:#ffffff;stop-opacity:1;"
           offset="0"
           id="stop859" />
        <stop
           style="stop-color:#ffffff;stop-opacity:0;"
           offset="1"
           id="stop860" />
      </linearGradient>
      <linearGradient
         id="linearGradient861">
        <stop
           style="stop-color:#d9cce6;stop-opacity:1;"
           offset="0.00000000"
           id="stop862" />
        <stop
           style="stop-color:#73667f;stop-opacity:1;"
           offset="1.00000000"
           id="stop863" />
      </linearGradient>
      <linearGradient
         x1="0.03846154"
         y1="0.07031250"
         x2="0.98461539"
         y2="0.96875000"
         id="linearGradient864"
         xlink:href="#linearGradient563" />
      <linearGradient
         x1="0.006536"
         y1="0.015625"
         x2="0.849673"
         y2="0.867188"
         id="linearGradient865"
         xlink:href="#linearGradient570" />
      <linearGradient
         x1="0.007280"
         y1="0.021274"
         x2="0.960000"
         y2="0.946808"
         id="linearGradient866"
         xlink:href="#linearGradient570" />
      <linearGradient
         x1="0.980392"
         y1="0.976562"
         x2="0.006536"
         y2="0.007812"
         id="linearGradient867"
         xlink:href="#linearGradient563" />
      <linearGradient
         x1="-0.006622"
         y1="0.007813"
         x2="0.920530"
         y2="0.921875"
         id="linearGradient868"
         xlink:href="#linearGradient570" />
    </defs>
  </defs>
  <ellipse
     cx="286.926392"
     cy="278.069977"
     rx="278.198608"
     ry="278.198578"
     transform="matrix(8.842227e-2,0.000000,0.000000,8.842227e-2,3.603960,4.949861)"
     style="font-size:12.000000;opacity:0.30267498;fill-rule:evenodd;stroke-width:13.253600;"
     id="path1023" />
  <ellipse
     cx="286.926392"
     cy="278.069977"
     rx="278.198608"
     ry="278.198578"
     transform="matrix(8.842227e-2,0.000000,0.000000,8.842227e-2,1.456012,2.290501)"
     style="font-size:12.000000;fill:url(#linearGradient566);fill-rule:evenodd;stroke:#261933;stroke-width:21.205065;stroke-dasharray:none;"
     id="path983" />
  <path
     d="M 12.015159 12.409227 C 12.969921 11.880202 14.018979 13.750269 15.310075 13.929074 C 16.463219 14.088601 19.267069 12.278469 20.77363 13.139532 C 21.771944 13.567167 20.922468 17.325679 20.618498 19.57593 C 20.235816 21.381965 19.013845 23.968852 18.249476 26.208216 C 17.852108 27.189348 15.090813 30.743981 14.977934 30.969736 C 14.865257 31.195291 16.060057 34.207613 15.316466 34.579609 C 14.541409 35.038311 13.584251 30.629306 11.932149 29.390254 C 11.219224 28.962419 9.575304 29.160804 8.99909 29.61611 C 8.3125859 29.988403 8.903394 33.890059 9.901428 35.030918 C 10.924546 36.565148 12.465268 37.745365 13.398752 39.317456 C 14.608537 41.355237 15.354027 43.679608 16.331662 45.860633 C 16.331662 45.860633 15.524839 48.644708 15.637717 48.644708 C 15.750594 48.644708 17.346959 51.839431 17.346959 51.839431 C 14.069123 49.349743 11.430394 46.920484 9.224694 43.942826 C 7.670115 41.844008 6.4302442 38.963838 6.0659911 36.6101 C 5.9414058 35.805175 7.4471081 35.322201 7.7581797 34.466831 C 8.3285393 33.040783 5.3376127 29.501434 5.2167452 28.345191 C 5.0682959 27.100146 5.8214368 22.119064 7.5325356 19.124722 C 8.757643 16.785767 10.187347 13.421826 12.015159 12.409227 z "
     style="font-size:12.000000;opacity:0.50445902;fill:#261933;fill-rule:evenodd;stroke:#000000;stroke-width:0.11407400pt;"
     id="path565"
     transform="matrix(0.938556,0.000000,0.000000,0.938556,-2.112685,-1.265089)" />
  <path
     d="M 31.448318 20.929657 C 30.838482 21.805406 30.185791 23.372999 30.545699 24.200799 C 30.937872 25.10252 32.634228 26.100332 33.704463 26.118712 C 34.815354 26.137892 35.94942 24.893447 37.088781 24.313777 C 38.09279 23.803033 39.061335 23.020283 40.134666 22.847172 C 41.392799 22.644294 43.17496 22.580362 44.082972 23.185804 C 44.75424 23.633417 45.021449 25.118502 44.87271 26.006035 C 44.557356 26.682799 43.502103 27.265466 43.857315 27.698195 C 44.168281 27.961808 46.326329 26.371738 46.677552 25.442048 C 46.965636 24.679679 45.598621 23.592861 45.775131 22.621717 C 45.917776 21.980216 48.261726 22.142438 49.046674 22.283385 C 49.69417 22.440915 50.322885 24.046668 50.964588 23.975444 C 51.552448 23.975444 53.019953 22.078509 53.178976 22.087398 C 53.791014 22.188488 54.23593 23.975444 54.23593 23.975444 C 53.182875 24.953181 52.333399 26.295221 51.077263 26.908555 C 49.099513 27.874403 46.765353 28.45597 44.534279 28.71349 C 40.899334 29.132934 36.589824 27.65684 33.47881 28.939045 C 31.024478 29.950743 27.874105 33.28222 27.838345 35.594904 C 27.798887 38.132942 29.445296 42.446352 32.397685 42.707266 C 35.971797 43.100541 39.706832 43.905361 40.994629 45.551874 C 42.000735 46.838371 40.82821 51.686097 40.990235 53.288957 C 41.051173 53.820378 42.597886 52.8789 43.518989 52.403519 C 44.929448 51.675708 46.635596 50.238474 47.128762 48.680766 C 48.064544 45.726086 48.169824 42.06147 47.805824 38.866343 C 47.492962 36.120333 44.766531 31.149642 45.098466 30.856859 C 45.405733 30.585753 47.819807 36.079577 49.723437 37.174286 C 50.828036 37.809295 53.362777 36.873214 54.123148 36.046015 C 54.641487 35.482028 53.19206 33.328669 53.559062 33.000227 C 53.906585 32.689265 56.114583 34.868693 56.266522 34.1285 C 57.476997 28.508113 56.339234 24.358028 54.36049 19.154391 C 52.741255 15.182611 48.151149 9.7150585 43.250081 7.0349524 C 42.559928 6.6541872 39.569082 8.3393725 37.261192 9.8155485 C 35.945525 10.474033 34.578411 12.456875 35.254077 12.932658 C 35.849729 13.402646 37.615409 11.817172 38.864948 11.535678 C 41.104911 11.00026 42.14568 11.290545 43.857315 12.130331 C 43.857315 12.130331 46.28328 14.137847 45.211041 15.627327 C 44.530388 16.528945 42.278034 16.529844 42.278034 16.529844 C 41.789166 16.26683 41.279121 15.640912 40.811429 15.740202 C 40.038375 15.904324 39.385783 16.947591 38.555287 17.319684 C 36.866224 18.075962 34.892171 18.230495 33.253154 19.124722 C 32.326362 19.338589 31.828104 20.352985 31.448318 20.929657 z "
     style="font-size:12.000000;opacity:0.49999997;fill:#261933;fill-rule:evenodd;stroke:#000000;stroke-width:0.11407400pt;"
     id="path566"
     transform="matrix(0.938556,0.000000,0.000000,0.938556,-2.112685,-1.265089)" />
  <path
     d="M 10.509496 44.098451 C 10.160676 43.052193 -3.0511215 19.390033 22.061229 7.2635343 C 33.447043 1.7128323 50.268243 12.00307 52.139411 18.16147 C 52.427593 19.093155 40.759489 5.7930846 24.131876 13.148422 C 2.4833876 22.662474 10.814566 45.01376 10.509496 44.098451 z "
     style="font-size:12.000000;opacity:0.69999999;fill:url(#linearGradient569);fill-rule:evenodd;stroke-width:0.099890900pt;"
     id="path984"
     transform="matrix(0.938556,0.000000,0.000000,0.938556,-2.112685,-1.265089)" />
  <path
     d="M 22.315776,56.500125 C 22.939136,57.416586 28.980368,60.290117 32.222545,59.663628 C 40.468851,58.070164 56.044540,50.939330 56.781296,49.840113 C 57.473109,48.891145 57.623203,22.640640 57.114308,21.701593 C 56.733681,20.861801 46.037200,19.668404 45.126311,19.786804 C 43.955440,19.954300 22.450155,23.441800 21.899514,24.282332 C 21.326487,25.210621 21.842513,55.765357 22.315776,56.500125 z "
     style="font-size:12;opacity:0.302675;fill-rule:evenodd;stroke-width:12.5;"
     id="path716" />
  <path
     d="M 21.414749,54.667844 C 22.015637,55.551264 27.839098,58.321198 30.964387,57.717296 C 38.913394,56.181278 53.927554,49.307527 54.637739,48.247939 C 55.304611,47.333184 55.449292,22.029098 54.958745,21.123877 C 54.591840,20.314396 44.280994,19.164025 43.402944,19.278155 C 42.274286,19.439613 21.544283,22.801403 21.013474,23.611574 C 20.461179,24.506395 20.958594,53.959564 21.414749,54.667844 z "
     style="font-size:12.000000;fill:url(#linearGradient566);fill-rule:evenodd;stroke:#261933;stroke-width:1.8750000;stroke-dasharray:none;"
     id="path616" />
  <path
     d="M 31.285390,56.353109 C 31.039488,56.134497 31.395430,28.218228 31.847143,27.383281 C 32.246631,26.576803 52.785944,22.509410 53.032802,22.728839 C 53.267454,22.937424 34.352861,26.554736 33.291582,28.667219 C 31.923201,31.295630 31.520992,56.562525 31.285390,56.353109 z "
     style="font-size:12;opacity:0.990000;fill:url(#linearGradient575);fill-rule:evenodd;stroke:none;stroke-width:0.102641pt;"
     id="path618" />
  <path
     style="font-size:12.000000;opacity:0.29636899;fill-rule:evenodd;stroke-width:18.750000;"
     d="M 49.076252,33.725384 C 51.348414,33.442353 55.791521,36.977645 55.239346,41.966502 C 54.430840,47.325715 47.276286,48.466146 47.155292,48.847436 C 46.475883,49.746321 47.598224,53.480313 46.995210,53.168022 C 45.383778,52.333490 40.578856,46.891550 40.511956,45.727012 C 40.525495,44.571235 45.612994,39.071867 47.155292,38.366014 C 47.827439,38.058396 46.969878,42.701921 47.235330,42.846621 C 47.663556,43.075305 50.407626,43.317053 51.557501,40.686329 C 52.173914,39.196062 51.728218,35.146199 49.076252,33.725384 z "
     id="path1515"
     sodipodi:nodetypes="cccccccsc" />
  <path
     d="M 23.340721,24.173329 C 23.394786,24.010988 36.863656,21.040669 43.643697,20.481871 C 46.600540,20.238170 52.604113,21.607418 52.551303,21.765853 C 52.497086,21.928414 46.380751,21.192822 43.322694,21.444857 C 36.643867,21.995313 23.287834,24.331991 23.340721,24.173329 z "
     style="font-size:12;opacity:0.990000;fill:url(#linearGradient569);fill-rule:evenodd;stroke:none;stroke-width:0.102641pt;"
     id="path619" />
  <ellipse
     cx="410.204895"
     cy="422.408997"
     rx="11.720139"
     ry="11.720139"
     transform="matrix(0.106994,0.000000,0.000000,0.106994,-18.05485,5.490446)"
     style="font-size:12;fill:#80ff80;fill-rule:evenodd;stroke:#003f00;stroke-width:6.25;stroke-linecap:round;stroke-linejoin:round;"
     id="path722" />
  <path
     d="M 23.180220,28.667219 C 22.689712,28.711795 22.758959,30.396984 23.260471,30.673412 C 24.845477,31.547195 27.874625,32.260183 29.439624,32.117924 C 29.934368,32.072980 29.936133,30.385436 29.439624,30.111731 C 27.849690,29.235226 24.749485,28.524592 23.180220,28.667219 z "
     style="font-size:12.000000;opacity:0.49815300;fill:none;fill-rule:evenodd;stroke:#261933;stroke-width:1.2500000;stroke-dasharray:none;"
     id="path712" />
  <path
     d="M 23.019719,33.642685 C 22.529211,33.687261 22.598428,35.372452 23.099970,35.648879 C 24.684975,36.522663 27.714124,37.235650 29.279122,37.093391 C 29.773866,37.048447 29.775631,35.360903 29.279122,35.087198 C 27.689188,34.210693 24.588983,33.500060 23.019719,33.642685 z "
     style="font-size:12.000000;opacity:0.49815300;fill:none;fill-rule:evenodd;stroke:#261933;stroke-width:1.2500000;stroke-dasharray:none;"
     id="path713" />
  <path
     d="M 22.939467,38.377328 C 22.448960,38.421904 22.518178,40.107093 23.019719,40.383521 C 24.604724,41.257304 27.633874,41.970291 29.198872,41.828033 C 29.693616,41.783090 29.695381,40.095546 29.198872,39.821840 C 27.608937,38.945335 24.508732,38.234701 22.939467,38.377328 z "
     style="font-size:12.000000;opacity:0.49815300;fill:none;fill-rule:evenodd;stroke:#261933;stroke-width:1.2500000;stroke-dasharray:none;"
     id="path714" />
  <path
     d="M 22.778966,43.352795 C 22.288459,43.397371 22.357676,45.082561 22.859217,45.358989 C 24.444223,46.232771 27.473373,46.945759 29.038371,46.803500 C 29.533115,46.758557 29.534880,45.071012 29.038371,44.797308 C 27.448437,43.920802 24.348231,43.210168 22.778966,43.352795 z "
     style="font-size:12.000000;opacity:0.49815300;fill:none;fill-rule:evenodd;stroke:#261933;stroke-width:1.2500000;stroke-dasharray:none;"
     id="path715" />
  <path
     d="M 22.297434,53.945589 C 22.115233,53.469086 21.508902,25.456898 21.976504,24.815334 C 22.283678,24.283737 29.972177,27.127818 30.161880,27.624033 C 30.319880,28.037278 23.583239,25.578487 23.019719,27.543783 C 22.069039,30.939467 22.463010,54.378544 22.297434,53.945589 z "
     style="font-size:12;opacity:0.990000;fill:url(#linearGradient573);fill-rule:evenodd;stroke:none;stroke-width:0.102641pt;"
     id="path617" />
  <path
     style="font-size:12.000000;opacity:0.29636899;fill-rule:evenodd;stroke-width:18.750000;"
     d="M 39.098622,44.994737 C 36.826460,45.277768 32.383353,41.742476 32.935528,36.753619 C 33.744034,31.394406 40.898588,30.253975 41.019582,29.872685 C 41.698991,28.973800 40.576650,25.239808 41.179664,25.552099 C 42.791096,26.386631 47.596018,31.828571 47.662918,32.993109 C 47.649379,34.148886 42.561880,39.648254 41.019582,40.354107 C 40.347435,40.661725 41.204996,36.018200 40.939544,35.873500 C 40.511318,35.644816 37.767248,35.403068 36.617373,38.033792 C 36.000960,39.524059 36.446656,43.573922 39.098622,44.994737 z "
     id="path739"
     sodipodi:nodetypes="cccccccsc" />
  <path
     style="font-size:12.000000;fill:url(#linearGradient583);fill-rule:evenodd;stroke-width:1.0000000pt;"
     d="M 34.070258,37.813945 C 34.001549,37.728090 33.586216,34.899754 35.667887,32.923001 C 37.593581,31.124858 39.850298,31.341581 41.206107,30.057597 C 41.747480,29.544907 41.151283,27.865903 41.359433,27.532981 C 41.484123,27.333555 42.469843,28.333627 42.557657,28.531133 C 42.602978,28.633073 41.825720,28.249860 41.758842,28.431318 C 41.592733,28.882024 42.303950,30.037190 41.858691,30.427622 C 40.406765,31.700777 38.244613,31.501893 36.067291,33.422077 C 33.780729,35.442761 34.134685,37.894448 34.070258,37.813945 z "
     id="path956"
     sodipodi:nodetypes="cssssssss" />
  <path
     style="font-size:12.000000;fill:url(#linearGradient883);fill-rule:evenodd;stroke:#261933;stroke-width:1.8977608;stroke-dasharray:none;"
     d="M 13.810496,27.626336 C 10.767486,28.005388 4.8170220,23.270721 5.5565244,16.589355 C 6.6393265,9.4119881 16.221116,7.8846559 16.383159,7.3740120 C 17.293061,6.1701729 15.789958,1.1693959 16.597551,1.5876333 C 18.755670,2.7052864 25.190701,9.9934471 25.280293,11.553063 C 25.262166,13.100946 18.448696,20.466018 16.383159,21.411337 C 15.482982,21.823315 16.631476,15.604440 16.275965,15.410648 C 15.702455,15.104383 12.027446,14.780620 10.487466,18.303837 C 9.6619303,20.299687 10.258829,25.723496 13.810496,27.626336 z "
     id="path735"
     sodipodi:nodetypes="cccccccsc"
     transform="matrix(0.658671,0.000000,0.000000,0.658671,29.71345,24.30835)" />
  <path
     style="font-size:12.000000;opacity:0.20178296;fill-rule:evenodd;stroke-width:0.96522999pt;"
     d="M 12.309773,26.983405 C 10.151881,23.341504 9.1309703,20.803063 9.8443033,18.625302 C 10.453035,16.766886 15.312869,14.511206 16.490351,14.982028 C 17.456756,15.368446 15.337613,21.544436 16.275965,21.197026 C 18.231862,20.472885 26.541952,11.828532 25.173099,11.767373 C 16.112420,11.260184 9.6221123,12.967854 8.4507733,16.482199 C 6.4388813,22.334418 9.9732223,25.698919 12.309773,26.983405 z "
     id="path737"
     sodipodi:nodetypes="csssssc"
     transform="matrix(0.658671,0.000000,0.000000,0.658671,29.71345,24.30835)" />
  <path
     style="font-size:12.000000;fill:url(#linearGradient583);fill-rule:evenodd;stroke-width:1.0000000pt;"
     d="M 6.6145423,19.665627 C 6.5102280,19.535282 5.8796658,15.241278 9.0400753,12.240154 C 11.963681,9.5101981 15.389849,9.8392281 17.448250,7.8898727 C 18.270166,7.1115018 17.365015,4.5624237 17.681031,4.0569793 C 17.870335,3.7542090 19.366864,5.2725273 19.500184,5.5723825 C 19.568991,5.7271482 18.388952,5.1453509 18.287417,5.4208420 C 18.035228,6.1051074 19.115004,7.8588914 18.439008,8.4516484 C 16.234682,10.384563 12.952083,10.082616 9.6464553,12.997856 C 6.1749771,16.065675 6.7123560,19.787848 6.6145423,19.665627 z "
     id="path742"
     sodipodi:nodetypes="cssssssss"
     transform="matrix(0.658671,0.000000,0.000000,0.658671,29.71345,24.30835)" />
  <rect
     style="font-size:12.000000;fill:#808080;fill-rule:evenodd;stroke-width:1.0000000pt;"
     id="rect630"
     width="0.0000000"
     height="4.5257583"
     x="62.140921"
     y="-58.160852"
     transform="matrix(0.658671,0.000000,0.000000,0.658671,29.71345,24.30835)" />
  <rect
     style="font-size:12.000000;fill:#808080;fill-rule:evenodd;stroke-width:1.0000000pt;"
     id="rect957"
     width="0.0000000"
     height="2.9809857"
     x="70.643875"
     y="-13.448099"
     transform="translate(-28.72621,-6.187184)" />
  <path
     style="font-size:12.000000;fill:url(#linearGradient883);fill-rule:evenodd;stroke:#261933;stroke-width:1.8977608;stroke-dasharray:none;"
     d="M 13.810496,27.626336 C 10.767486,28.005388 4.8170220,23.270721 5.5565244,16.589355 C 6.6393265,9.4119881 16.221116,7.8846559 16.383159,7.3740120 C 17.293061,6.1701729 15.789958,1.1693959 16.597551,1.5876333 C 18.755670,2.7052864 25.190701,9.9934471 25.280293,11.553063 C 25.262166,13.100946 18.448696,20.466018 16.383159,21.411337 C 15.482982,21.823315 16.631476,15.604440 16.275965,15.410648 C 15.702455,15.104383 12.027446,14.780620 10.487466,18.303837 C 9.6619303,20.299687 10.258829,25.723496 13.810496,27.626336 z "
     id="path1510"
     sodipodi:nodetypes="cccccccsc"
     transform="matrix(-0.658671,0.000000,0.000000,-0.658671,57.05434,51.94532)" />
  <path
     style="font-size:12.000000;opacity:0.20178296;fill-rule:evenodd;stroke-width:0.96522999pt;"
     d="M 12.309773,26.983405 C 10.151881,23.341504 9.1309703,20.803063 9.8443033,18.625302 C 10.453035,16.766886 15.312869,14.511206 16.490351,14.982028 C 17.456756,15.368446 15.337613,21.544436 16.275965,21.197026 C 18.231862,20.472885 26.541952,11.828532 25.173099,11.767373 C 16.112420,11.260184 9.6221123,12.967854 8.4507733,16.482199 C 6.4388813,22.334418 9.9732223,25.698919 12.309773,26.983405 z "
     id="path1511"
     sodipodi:nodetypes="csssssc"
     transform="matrix(-0.658671,0.000000,0.000000,-0.658671,57.05434,51.94532)" />
  <path
     style="font-size:12.000000;fill:url(#linearGradient583);fill-rule:evenodd;stroke-width:1.0000000pt;"
     d="M 6.6145423,19.665627 C 6.5102280,19.535282 5.8796658,15.241278 9.0400753,12.240154 C 11.963681,9.5101981 15.389849,9.8392281 17.448250,7.8898727 C 18.270166,7.1115018 17.365015,4.5624237 17.681031,4.0569793 C 17.870335,3.7542090 19.366864,5.2725273 19.500184,5.5723825 C 19.568991,5.7271482 18.388952,5.1453509 18.287417,5.4208420 C 18.035228,6.1051074 19.115004,7.8588914 18.439008,8.4516484 C 16.234682,10.384563 12.952083,10.082616 9.6464553,12.997856 C 6.1749771,16.065675 6.7123560,19.787848 6.6145423,19.665627 z "
     id="path1512"
     sodipodi:nodetypes="cssssssss"
     transform="matrix(-0.658671,0.000000,0.000000,-0.658671,57.05434,51.94532)" />
  <rect
     style="font-size:12.000000;fill:#808080;fill-rule:evenodd;stroke-width:1.0000000pt;"
     id="rect1513"
     width="0.0000000"
     height="4.5257583"
     x="62.140921"
     y="-58.160852"
     transform="matrix(-0.658671,0.000000,0.000000,-0.658671,57.05434,51.94532)" />
  <rect
     style="font-size:12.000000;fill:#808080;fill-rule:evenodd;stroke-width:1.0000000pt;"
     id="rect1514"
     width="0.0000000"
     height="2.9809857"
     x="70.643875"
     y="-13.448099"
     transform="matrix(-1.000000,0.000000,0.000000,-1.000000,115.4940,82.44085)" />
</svg>
