<?xml version="1.0" encoding="UTF-8" standalone="no"?>
<!DOCTYPE svg PUBLIC "-//W3C//DTD SVG 20010904//EN"
"http://www.w3.org/TR/2001/REC-SVG-20010904/DTD/svg10.dtd">
<!-- Created with Inkscape (http://www.inkscape.org/) -->
<svg
   id="svg1"
   sodipodi:version="0.32"
   inkscape:version="0.37"
   width="48pt"
   height="48pt"
   sodipodi:docbase="/home/dan/Projects/Lila-gtk/gtk-2.0"
   sodipodi:docname="stock_ephy_bookmark_new.svg"
   xmlns="http://www.w3.org/2000/svg"
   xmlns:inkscape="http://www.inkscape.org/namespaces/inkscape"
   xmlns:sodipodi="http://sodipodi.sourceforge.net/DTD/sodipodi-0.dtd"
   xmlns:xlink="http://www.w3.org/1999/xlink">
  <defs
     id="defs3">
    <linearGradient
       id="linearGradient781">
      <stop
         style="stop-color:#d9cce6;stop-opacity:1;"
         offset="0.00000000"
         id="stop782" />
      <stop
         style="stop-color:#73667f;stop-opacity:1;"
         offset="1.00000000"
         id="stop783" />
    </linearGradient>
    <linearGradient
       id="linearGradient599">
      <stop
         style="stop-color:#ffffff;stop-opacity:1;"
         offset="0.00000000"
         id="stop600" />
      <stop
         style="stop-color:#d9cce6;stop-opacity:1;"
         offset="1.00000000"
         id="stop601" />
    </linearGradient>
    <linearGradient
       id="linearGradient584">
      <stop
         style="stop-color:#ffffff;stop-opacity:1;"
         offset="0.00000000"
         id="stop585" />
      <stop
         style="stop-color:#ffffff;stop-opacity:0;"
         offset="1.00000000"
         id="stop586" />
    </linearGradient>
    <linearGradient
       id="linearGradient578">
      <stop
         style="stop-color:#c7b397;stop-opacity:1;"
         offset="0.00000000"
         id="stop579" />
      <stop
         style="stop-color:#faebdc;stop-opacity:1;"
         offset="1.00000000"
         id="stop580" />
    </linearGradient>
    <linearGradient
       xlink:href="#linearGradient584"
       id="linearGradient581"
       x1="-0.00000000"
       y1="-0.00000000"
       x2="0.97979796"
       y2="0.96875000" />
    <linearGradient
       xlink:href="#linearGradient599"
       id="linearGradient583"
       x1="0.00000000"
       y1="-0.00000000"
       x2="0.97802198"
       y2="0.98437500" />
    <linearGradient
       xlink:href="#linearGradient578"
       id="linearGradient860"
       x1="0.00000000"
       y1="-0.00000000"
       x2="0.98412699"
       y2="0.96875000" />
    <linearGradient
       xlink:href="#linearGradient578"
       id="linearGradient861"
       x1="-0.00000000"
       y1="-0.00000000"
       x2="0.99658704"
       y2="0.97656250" />
    <linearGradient
       xlink:href="#linearGradient584"
       id="linearGradient862"
       x1="-0.00000000"
       y1="0.00000000"
       x2="0.99663299"
       y2="0.92500001" />
    <radialGradient
       xlink:href="#linearGradient578"
       id="radialGradient595"
       cx="0.33846155"
       cy="0.34375000"
       r="0.66501766"
       fx="0.33076921"
       fy="0.33593750" />
    <linearGradient
       xlink:href="#linearGradient584"
       id="linearGradient779"
       x1="0.00000000"
       y1="-0.00000000"
       x2="0.97802198"
       y2="0.98437500" />
    <linearGradient
       xlink:href="#linearGradient584"
       id="linearGradient780"
       x1="-0.00000000"
       y1="0.00000000"
       x2="1.05882359"
       y2="1.01562500" />
    <linearGradient
       xlink:href="#linearGradient781"
       id="linearGradient784"
       x1="-0.00000000"
       y1="-0.00000000"
       x2="0.97979796"
       y2="0.96875000" />
    <linearGradient
       xlink:href="#linearGradient584"
       id="linearGradient786"
       x1="-0.00000000"
       y1="0.00000000"
       x2="0.96470588"
       y2="0.98437500" />
  </defs>
  <sodipodi:namedview
     id="base"
     pagecolor="#ffffff"
     bordercolor="#666666"
     borderopacity="1.0"
     inkscape:pageopacity="0.0"
     inkscape:pageshadow="2"
     inkscape:zoom="7.97947193"
     inkscape:cx="24.6467848"
     inkscape:cy="23.6154949"
     inkscape:window-width="692"
     inkscape:window-height="701"
     inkscape:window-x="43"
     inkscape:window-y="102" />
  <g
     id="g791"
     transform="translate(1.106374,1.438683)"
     style="opacity:0.300000;">
    <path
       style="font-size:12;fill-rule:evenodd;stroke:none;stroke-width:1.875;stroke-opacity:1;stroke-dasharray:none;fill:#000000;fill-opacity:1;"
       d="M 26.583165 18.821355 C 27.902987 17.801467 29.95067 17.824729 32.438078 12.635268 C 34.499414 8.2229503 37.046326 3.013785 41.054395 2.4503981 C 44.532191 2.0797456 53.463991 6.1407855 53.621427 6.1482931 C 54.552593 6.8211815 54.565938 8.5777575 54.495922 8.1977989 C 51.709525 10.653077 46.577977 6.5656434 42.055143 7.0034692 C 39.012781 7.2904764 37.000739 11.296848 35.678173 15.211306 C 34.236563 19.596372 29.507615 19.106255 28.862738 19.781201 C 28.757781 20.381069 28.397897 21.760935 27.54301 21.341007 C 26.763106 20.981031 26.55319 19.55625 26.583165 18.821355 z "
       id="path789"
       sodipodi:nodetypes="cssccssccc" />
    <path
       style="font-size:12;fill-rule:evenodd;stroke:none;stroke-width:1.875;stroke-dasharray:none;stroke-opacity:1;fill:#000000;fill-opacity:1;"
       d="M 24.783467 17.178311 C 24.783467 17.178311 22.701084 7.5040747 28.340161 5.8242748 C 33.979333 4.1445798 42.175374 12.363011 46.134747 11.523159 C 50.094213 10.683305 51.514673 6.3392878 51.67211 6.3467861 C 51.83711 6.364279 54.767009 7.4163344 54.582914 8.4849863 C 54.487179 9.5060761 49.734141 15.97047 46.614716 15.850571 C 40.615662 15.970565 33.314253 8.619412 29.594865 10.419223 C 27.583041 11.646532 28.718773 17.703196 28.613815 18.138156 C 28.508858 18.738024 26.5982 20.117889 25.743313 19.697963 C 24.963409 19.337986 24.753494 17.913205 24.783467 17.178311 z "
       id="path790"
       sodipodi:nodetypes="cccccccccc" />
  </g>
  <path
     style="font-size:12;fill:#000000;fill-rule:evenodd;stroke:none;stroke-width:12.5;stroke-dasharray:none;fill-opacity:1;opacity:0.296369;"
     d="M 10.209889 52.259477 C 10.993064 53.545258 25.770611 58.814713 26.96231 57.955193 C 28.104459 56.943815 40.176607 22.529718 39.582223 21.211881 C 39.133363 19.9452 24.077195 15.409789 22.606745 16.186193 C 21.232457 17.076444 9.5411942 50.654187 10.209889 52.259477 z "
     id="path679"
     sodipodi:nodetypes="ccccc" />
  <path
     style="font-size:12;fill-rule:evenodd;stroke:#333300;stroke-width:1.875;stroke-opacity:1;stroke-dasharray:none;fill:url(#linearGradient860);"
     d="M 26.583165 18.821355 C 27.902987 17.801467 29.95067 17.824729 32.438078 12.635268 C 34.499414 8.2229503 37.046326 3.013785 41.054395 2.4503981 C 44.532191 2.0797456 53.463991 6.1407855 53.621427 6.1482931 C 54.552593 6.8211815 54.565938 8.5777575 54.495922 8.1977989 C 51.709525 10.653077 46.577977 6.5656434 42.055143 7.0034692 C 39.012781 7.2904764 37.000739 11.296848 35.678173 15.211306 C 34.236563 19.596372 29.507615 19.106255 28.862738 19.781201 C 28.757781 20.381069 28.397897 21.760935 27.54301 21.341007 C 26.763106 20.981031 26.55319 19.55625 26.583165 18.821355 z "
     id="path678"
     sodipodi:nodetypes="cssccssccc" />
  <path
     style="font-size:12;fill:url(#linearGradient583);fill-rule:evenodd;stroke:#261933;stroke-width:1.875;stroke-dasharray:none;"
     d="M 8.3816928 49.605989 C 9.1648674 50.891771 23.942386 56.161226 25.134084 55.301705 C 26.276234 54.290327 38.348382 19.876231 37.753998 18.558394 C 37.305138 17.291713 22.248969 12.756301 20.778519 13.532705 C 19.404232 14.422957 7.7129969 48.0007 8.3816928 49.605989 z "
     id="path668"
     sodipodi:nodetypes="ccccc" />
  <path
     style="fill:url(#linearGradient786);fill-rule:evenodd;stroke:none;stroke-opacity:1;stroke-width:1pt;stroke-linejoin:miter;stroke-linecap:butt;fill-opacity:1;"
     d="M 33.120131 14.584435 C 32.968353 14.451629 36.238064 6.8450299 39.766312 4.3936253 C 41.461906 3.292499 44.368002 4.2523946 44.529408 4.3936253 C 44.663387 4.5108571 42.262469 3.9074424 40.652469 5.169013 C 36.914279 8.0114022 33.263738 14.710091 33.120131 14.584435 z "
     id="path787"
     sodipodi:nodetypes="cssss" />
  <path
     style="font-size:12;opacity:0.990000;fill-rule:evenodd;stroke:none;stroke-width:0.0820435pt;fill:url(#linearGradient581);"
     d="M 9.8352082 48.413251 C 9.6514852 47.882504 20.668833 15.814831 21.772972 15.081923 C 23.071141 14.141746 35.295902 18.557921 35.483787 19.100583 C 35.650585 19.582253 25.213795 15.438495 22.836829 18.155016 C 16.664263 25.209323 10.006111 48.90693 9.8352082 48.413251 z "
     id="path707"
     sodipodi:nodetypes="cssss" />
  <path
     style="font-size:12;fill-rule:evenodd;stroke:#333300;stroke-width:1.875;stroke-dasharray:none;stroke-opacity:1;fill:url(#linearGradient861);"
     d="M 24.783467 17.178311 C 24.783467 17.178311 22.701084 7.5040747 28.340161 5.8242748 C 33.979333 4.1445798 42.175374 12.363011 46.134747 11.523159 C 50.094213 10.683305 51.514673 6.3392878 51.67211 6.3467861 C 51.83711 6.364279 54.767009 7.4163344 54.582914 8.4849863 C 54.487179 9.5060761 49.734141 15.97047 46.614716 15.850571 C 40.615662 15.970565 33.314253 8.619412 29.594865 10.419223 C 27.583041 11.646532 28.718773 17.703196 28.613815 18.138156 C 28.508858 18.738024 26.5982 20.117889 25.743313 19.697963 C 24.963409 19.337986 24.753494 17.913205 24.783467 17.178311 z "
     id="path669"
     sodipodi:nodetypes="cccccccccc" />
  <path
     style="font-size:12;fill:#000000;fill-rule:evenodd;stroke:none;stroke-width:18.75;stroke-dasharray:none;fill-opacity:1;opacity:0.296369;"
     d="M 24.153945 28.006765 C 23.66446 28.382051 22.942945 32.578682 22.479141 32.829607 C 22.062128 33.095171 18.07685 31.040484 17.503998 31.154336 C 16.874915 31.324913 16.171768 33.150904 16.628405 33.603716 C 17.053973 34.055614 21.471475 34.796201 21.64919 35.294357 C 21.870432 35.713223 19.754514 39.54611 19.928277 40.254127 C 20.097635 40.892455 21.966285 41.484665 22.499683 41.069174 C 23.044886 40.610815 23.820718 36.461239 24.235501 36.216059 C 24.650529 36.00729 28.550746 38.033659 29.02807 37.829852 C 29.657922 37.602899 30.345584 35.807084 29.934402 35.289184 C 29.58063 34.801476 25.307401 34.047498 25.050547 33.644652 C 24.774464 33.225184 26.803641 29.365839 26.634065 28.791072 C 26.479135 28.16775 24.654647 27.589297 24.153945 28.006765 z "
     id="path656"
     sodipodi:nodetypes="cssssssssssss" />
  <path
     style="font-size:12;fill:url(#linearGradient784);fill-rule:evenodd;stroke:#261933;stroke-width:1.25;stroke-dasharray:none;"
     d="M 23.785277 28.056041 C 23.338524 28.398564 22.680001 32.228818 22.256686 32.457835 C 21.87608 32.700214 18.23873 30.824908 17.715889 30.928821 C 17.141727 31.084506 16.499966 32.751082 16.916737 33.164363 C 17.305152 33.576808 21.336994 34.25274 21.499194 34.707405 C 21.70112 35.089704 19.769928 38.587967 19.928522 39.234175 C 20.083094 39.816775 21.788605 40.357282 22.275435 39.978066 C 22.773042 39.559722 23.48114 35.772416 23.859712 35.548639 C 24.238507 35.358097 27.798224 37.207558 28.233875 37.021543 C 28.80874 36.814404 29.436367 35.17537 29.061082 34.702684 C 28.738196 34.257553 24.838033 33.5694 24.603602 33.201725 C 24.351623 32.818878 26.203645 29.296465 26.048875 28.771876 C 25.90747 28.202973 24.242266 27.67502 23.785277 28.056041 z "
     id="path650"
     sodipodi:nodetypes="cssssssssssss" />
  <path
     style="fill:url(#linearGradient779);fill-rule:evenodd;stroke:none;stroke-opacity:1;stroke-width:1pt;stroke-linejoin:miter;stroke-linecap:butt;fill-opacity:1;"
     d="M 17.628149 32.867145 C 17.579581 32.744642 17.827935 31.657189 18.197048 31.67555 C 19.531838 31.741945 21.5688 33.393161 22.602334 32.90745 C 23.560543 32.457137 23.434922 29.892458 24.121955 28.892445 C 24.339172 28.576274 25.419244 29.049047 25.452605 29.172857 C 25.481349 29.279528 24.446384 29.156465 24.258327 29.483246 C 23.604491 30.619391 23.735191 32.876719 22.802087 33.310023 C 21.764449 33.791871 19.816288 32.421396 18.346097 32.228705 C 18.050026 32.189901 17.662683 32.954253 17.628149 32.867145 z "
     id="path651"
     sodipodi:nodetypes="cssssssss" />
  <path
     style="fill:url(#linearGradient780);fill-rule:evenodd;stroke:none;stroke-opacity:1;stroke-width:1pt;stroke-linejoin:miter;stroke-linecap:butt;fill-opacity:1;opacity:0.800828;"
     d="M 20.604728 39.131215 C 20.652412 38.772348 21.831918 35.638313 22.141796 35.09203 C 22.267377 34.870643 22.115085 36.292166 21.9111 36.828203 C 21.602727 37.638561 20.575513 39.351073 20.604728 39.131215 z "
     id="path652"
     sodipodi:nodetypes="csss" />
  <path
     style="fill:url(#linearGradient862);fill-rule:evenodd;stroke:none;stroke-opacity:1;stroke-width:1pt;stroke-linejoin:miter;stroke-linecap:butt;fill-opacity:1;opacity:0.800828;"
     d="M 24.496125 34.046254 C 25.379325 34.133089 28.454558 35.074879 28.615995 35.212326 C 28.741083 35.318829 26.430016 34.963092 25.38246 34.69863 C 25.030102 34.609676 24.265936 34.023622 24.496125 34.046254 z "
     id="path653"
     sodipodi:nodetypes="csss" />
  <path
     style="fill:url(#linearGradient786);fill-rule:evenodd;stroke:none;stroke-opacity:1;stroke-width:1pt;stroke-linejoin:miter;stroke-linecap:butt;fill-opacity:1;"
     d="M 26.141642 17.796756 C 25.989864 17.66395 24.385709 9.9465807 27.913957 7.4951761 C 29.609551 6.3940498 32.515647 7.3539454 32.677053 7.4951761 C 32.811032 7.6124079 30.410114 7.0089932 28.800114 8.2705638 C 25.061924 11.112953 26.285249 17.922412 26.141642 17.796756 z "
     id="path785"
     sodipodi:nodetypes="cssss" />
  <path
     style="fill:url(#linearGradient786);fill-rule:evenodd;stroke:none;stroke-opacity:1;stroke-width:1pt;stroke-linejoin:miter;stroke-linecap:butt;fill-opacity:1;"
     d="M 52.413776 8.3511481 C 52.559266 8.4908138 51.822175 11.286168 48.184606 13.572215 C 46.440025 14.593956 42.695143 12.614874 42.540423 12.466349 C 42.411995 12.343062 45.66868 13.94274 47.335159 12.756777 C 51.200482 10.089846 52.276118 8.2190017 52.413776 8.3511481 z "
     id="path788"
     sodipodi:nodetypes="cssss" />
</svg>
