<?xml version="1.0" encoding="UTF-8" standalone="no"?>
<!DOCTYPE svg PUBLIC "-//W3C//DTD SVG 20010904//EN"
"http://www.w3.org/TR/2001/REC-SVG-20010904/DTD/svg10.dtd">
<!-- Created with Inkscape (http://www.inkscape.org/) -->
<svg
   id="svg1"
   sodipodi:version="0.32"
   inkscape:version="0.37"
   width="48pt"
   height="48pt"
   sodipodi:docbase="/home/dan/Projects/Lila-gtk/gtk-2.0"
   sodipodi:docname="stock_mail_send.svg"
   xmlns="http://www.w3.org/2000/svg"
   xmlns:inkscape="http://www.inkscape.org/namespaces/inkscape"
   xmlns:sodipodi="http://sodipodi.sourceforge.net/DTD/sodipodi-0.dtd"
   xmlns:xlink="http://www.w3.org/1999/xlink">
  <defs
     id="defs3">
    <linearGradient
       id="linearGradient599">
      <stop
         style="stop-color:#ffffff;stop-opacity:1;"
         offset="0.00000000"
         id="stop600" />
      <stop
         style="stop-color:#d9cce6;stop-opacity:1;"
         offset="1.00000000"
         id="stop601" />
    </linearGradient>
    <linearGradient
       id="linearGradient584">
      <stop
         style="stop-color:#ffffff;stop-opacity:1;"
         offset="0.00000000"
         id="stop585" />
      <stop
         style="stop-color:#ffffff;stop-opacity:0;"
         offset="1.00000000"
         id="stop586" />
    </linearGradient>
    <linearGradient
       id="linearGradient578">
      <stop
         style="stop-color:#d9cce6;stop-opacity:1;"
         offset="0.00000000"
         id="stop579" />
      <stop
         style="stop-color:#73667f;stop-opacity:1;"
         offset="1.00000000"
         id="stop580" />
    </linearGradient>
    <linearGradient
       xlink:href="#linearGradient599"
       id="linearGradient581"
       x1="0.00000000"
       y1="-0.00000000"
       x2="0.98888886"
       y2="0.98437500" />
    <linearGradient
       xlink:href="#linearGradient599"
       id="linearGradient583"
       x1="-0.00000000"
       y1="0.00000000"
       x2="0.97500002"
       y2="0.98437500" />
    <linearGradient
       xlink:href="#linearGradient599"
       id="linearGradient860"
       x1="0.00000000"
       y1="0.00000000"
       x2="0.98905110"
       y2="0.97457629" />
    <linearGradient
       xlink:href="#linearGradient578"
       id="linearGradient861"
       x1="0.00000000"
       y1="0.00000000"
       x2="0.98888886"
       y2="0.98437500" />
    <linearGradient
       xlink:href="#linearGradient584"
       id="linearGradient862"
       x1="-0.08500000"
       y1="-0.13281250"
       x2="0.99500000"
       y2="0.96875000" />
    <radialGradient
       xlink:href="#linearGradient578"
       id="radialGradient595"
       cx="0.33846155"
       cy="0.34375000"
       r="0.66501766"
       fx="0.33076921"
       fy="0.33593750" />
    <linearGradient
       xlink:href="#linearGradient584"
       id="linearGradient713"
       x1="0.00000000"
       y1="0.00000000"
       x2="0.97500002"
       y2="0.98437500" />
  </defs>
  <sodipodi:namedview
     id="base"
     pagecolor="#ffffff"
     bordercolor="#666666"
     borderopacity="1.0"
     inkscape:pageopacity="0.0"
     inkscape:pageshadow="2"
     inkscape:zoom="7.97947193"
     inkscape:cx="24.4725573"
     inkscape:cy="22.4834702"
     inkscape:window-width="640"
     inkscape:window-height="535"
     inkscape:window-x="160"
     inkscape:window-y="106" />
  <path
     style="font-size:12;fill:#000000;fill-rule:evenodd;stroke:none;stroke-width:1.34627;stroke-dasharray:none;fill-opacity:1;opacity:0.297961;"
     d="M 4.941671 45.067586 C 6.0486934 47.230305 41.856939 59.76295 44.310048 58.433808 C 46.787326 57.250165 55.979445 33.356404 54.326999 30.876485 C 52.706811 28.205095 17.723996 16.590819 14.836726 17.253739 C 12.088107 17.785872 3.7571593 43.029758 4.941671 45.067586 z "
     id="path718"
     sodipodi:nodetypes="cssss" />
  <path
     style="font-size:12;fill:url(#linearGradient581);fill-rule:evenodd;stroke:#261933;stroke-width:1.34627;stroke-dasharray:none;"
     d="M -32.510926 50.442911 C -31.289577 51.594259 -5.0803113 51.459852 -3.7913862 50.026685 C -2.4530372 48.682625 -2.0028341 31.001903 -3.6526445 29.770391 C -5.3257956 28.406784 -30.785139 28.94781 -32.510926 30.047875 C -34.176752 31.030706 -33.753792 49.390797 -32.510926 50.442911 z "
     id="path596"
     sodipodi:nodetypes="cssss"
     transform="matrix(1.312171,0.466818,-0.466818,1.312171,70.98824,-8.725838)" />
  <path
     style="font-size:12;fill:url(#linearGradient860);fill-rule:evenodd;stroke:#261933;stroke-width:1.34627;stroke-dasharray:none;"
     d="M -32.649668 50.442911 C -33.738539 49.45197 -22.490714 38.836565 -17.526818 38.788604 C -12.917534 38.74407 -2.6599755 48.978789 -3.930128 50.165427 C -5.066091 51.35684 -32.182111 51.512214 -32.649668 50.442911 z "
     id="path597"
     sodipodi:nodetypes="csss"
     transform="matrix(1.312171,0.466818,-0.466818,1.312171,70.98824,-8.725838)" />
  <path
     style="font-size:12;fill:url(#linearGradient583);fill-rule:evenodd;stroke:#261933;stroke-width:1.34627;stroke-dasharray:none;"
     d="M -32.649668 30.186616 C -33.652052 31.444835 -22.868375 44.407645 -18.081785 44.338274 C -13.295195 44.268903 -2.8273979 30.967397 -3.930128 29.770391 C -4.9411143 28.515028 -31.690217 28.601475 -32.649668 30.186616 z "
     id="path598"
     sodipodi:nodetypes="csss"
     transform="matrix(1.312171,0.466818,-0.466818,1.312171,70.98824,-8.725838)" />
  <path
     style="font-size:12;fill:url(#linearGradient862);fill-rule:evenodd;stroke-width:1pt;"
     d="M -31.400992 48.084301 C -31.792824 47.716958 -32.235931 32.632807 -31.123509 31.296551 C -30.096665 30.229753 -5.2869599 30.935014 -4.9013203 31.296551 C -4.5470033 31.628722 -26.801232 31.620727 -28.90364 33.377677 C -30.930163 35.091825 -31.052868 48.410667 -31.400992 48.084301 z "
     id="path603"
     sodipodi:nodetypes="cssss"
     transform="matrix(1.312171,0.466818,-0.466818,1.312171,70.98824,-8.725838)" />
  <path
     style="font-size:12;fill:#000000;fill-rule:evenodd;stroke:none;stroke-width:14.8479;fill-opacity:1;opacity:0.302675;"
     d="M 23.386213 25.944629 C 22.387505 25.320149 22.758854 10.192968 23.386213 9.3573469 C 24.132303 8.4054099 36.275963 9.9778529 37.269048 9.3573469 C 38.13114 8.8799729 36.42622 1.3467229 37.269048 1.6045929 C 38.052607 1.8728659 54.140493 13.786742 54.216927 17.110099 C 54.182473 20.23879 38.370886 33.273077 37.269048 33.517086 C 36.298016 33.709827 37.856917 26.145579 37.088751 25.584037 C 36.121531 24.839949 24.463248 26.697805 23.386213 25.944629 z "
     id="path617"
     sodipodi:nodetypes="csssssss" />
  <path
     style="font-size:12;fill:url(#linearGradient861);fill-rule:evenodd;stroke:#261933;stroke-width:1.875;stroke-dasharray:none;"
     d="M 24.46645 24.590941 C 23.572271 24.031822 23.904754 10.487913 24.46645 9.7397519 C 25.134452 8.8874489 36.007104 10.295313 36.89625 9.7397519 C 37.668112 9.3123419 36.141636 2.5675519 36.89625 2.7984329 C 37.597798 3.0386279 52.001861 13.503162 52.070291 16.681069 C 52.039383 19.583498 37.882766 31.152362 36.89625 31.370833 C 36.026851 31.543401 37.422589 24.770858 36.734824 24.26809 C 35.868838 23.601881 25.430758 25.265286 24.46645 24.590941 z "
     id="path589"
     sodipodi:nodetypes="csssssss" />
  <path
     style="fill:url(#linearGradient713);fill-rule:evenodd;stroke:none;stroke-opacity:1;stroke-width:1pt;stroke-linejoin:miter;stroke-linecap:butt;fill-opacity:1;"
     d="M 25.471697 24.111788 C 25.216193 23.779634 25.19109 11.959866 25.757914 11.088884 C 26.451313 10.166518 35.538167 12.439699 38.208384 11.088884 C 39.592917 10.388473 37.848233 5.2576308 37.922166 4.9352038 C 38.015635 4.3466498 40.604655 6.4661928 40.784343 6.7956178 C 40.890873 6.9909248 38.935945 6.0469128 38.780818 6.5094008 C 38.714151 7.1348198 40.592447 11.545314 39.353254 12.233754 C 36.728508 13.691947 29.345371 10.638601 27.189003 12.9493 C 25.821907 14.424481 25.693224 24.399772 25.471697 24.111788 z "
     id="path618"
     sodipodi:nodetypes="cssssssss" />
  <path
     style="fill:#261e2e;fill-rule:evenodd;stroke:none;stroke-opacity:1;stroke-width:1pt;stroke-linejoin:miter;stroke-linecap:butt;fill-opacity:1;opacity:0.201783;"
     d="M 24.027065 17.000815 C 25.162683 16.873009 51.10528 16.157731 51.933287 16.92926 C 52.617654 17.49539 40.5077 29.331897 37.04997 31.02548 C 35.832811 31.62164 38.444315 24.817652 36.978416 24.084702 C 34.341862 22.766424 27.765181 25.572989 24.74261 24.37092 C 24.100312 24.14589 23.278302 17.093135 24.027065 17.000815 z "
     id="path644"
     sodipodi:nodetypes="csssss" />
</svg>
