<?xml version="1.0" encoding="UTF-8" standalone="no"?>
<!DOCTYPE svg PUBLIC "-//W3C//DTD SVG 20010904//EN"
"http://www.w3.org/TR/2001/REC-SVG-20010904/DTD/svg10.dtd">
<!-- Created with Inkscape (http://www.inkscape.org/) -->
<svg
   version="1.0"
   x="0"
   y="0"
   width="48pt"
   height="48pt"
   id="svg611"
   sodipodi:version="0.32"
   inkscape:version="0.37"
   sodipodi:docname="media-player-48.svg"
   sodipodi:docbase="/usr/share/icons/Lila/scalable/apps"
   xmlns="http://www.w3.org/2000/svg"
   xmlns:inkscape="http://www.inkscape.org/namespaces/inkscape"
   xmlns:sodipodi="http://sodipodi.sourceforge.net/DTD/sodipodi-0.dtd"
   xmlns:xlink="http://www.w3.org/1999/xlink">
  <sodipodi:namedview
     id="base"
     pagecolor="#ffffff"
     bordercolor="#666666"
     borderopacity="1.0"
     inkscape:pageopacity="0.0"
     inkscape:pageshadow="2"
     inkscape:zoom="4.91194111"
     inkscape:cx="27.7856064"
     inkscape:cy="24.9692388"
     inkscape:window-width="640"
     inkscape:window-height="500"
     inkscape:window-x="132"
     inkscape:window-y="207" />
  <defs
     id="defs613">
    <linearGradient
       id="linearGradient923">
      <stop
         style="stop-color:#d9cce6;stop-opacity:1;"
         offset="0.00000000"
         id="stop925" />
      <stop
         style="stop-color:#f3e6ff;stop-opacity:1;"
         offset="1.00000000"
         id="stop924" />
    </linearGradient>
    <linearGradient
       id="linearGradient1535">
      <stop
         style="stop-color:#ffffff;stop-opacity:1;"
         offset="0"
         id="stop1537" />
      <stop
         style="stop-color:#ffffff;stop-opacity:0;"
         offset="1"
         id="stop1536" />
    </linearGradient>
    <linearGradient
       id="linearGradient1528">
      <stop
         style="stop-color:#d9cce6;stop-opacity:1;"
         offset="0.00000000"
         id="stop1530" />
      <stop
         style="stop-color:#73667f;stop-opacity:1;"
         offset="1.00000000"
         id="stop1529" />
    </linearGradient>
    <linearGradient
       id="linearGradient642">
      <stop
         style="stop-color:#ffffff;stop-opacity:1;"
         offset="0"
         id="stop643" />
      <stop
         style="stop-color:#ffffff;stop-opacity:0;"
         offset="1"
         id="stop644" />
    </linearGradient>
    <linearGradient
       id="linearGradient635">
      <stop
         style="stop-color:#e6cfff;stop-opacity:1;"
         offset="0"
         id="stop636" />
      <stop
         style="stop-color:#ffffff;stop-opacity:1;"
         offset="1"
         id="stop637" />
    </linearGradient>
    <linearGradient
       x1="0.87692308"
       y1="0.91406256"
       x2="0.00000000"
       y2="0.00781250"
       id="linearGradient638"
       xlink:href="#linearGradient923" />
    <linearGradient
       x1="0.02105273"
       y1="0.07031248"
       x2="0.99473679"
       y2="0.99218792"
       id="linearGradient641"
       xlink:href="#linearGradient1528" />
    <linearGradient
       x1="0.05833339"
       y1="0.07812505"
       x2="0.95833349"
       y2="0.97656256"
       id="linearGradient1522"
       xlink:href="#linearGradient1528" />
    <linearGradient
       x1="0.00847454"
       y1="0.03906249"
       x2="0.98305082"
       y2="0.98437500"
       id="linearGradient1527"
       xlink:href="#linearGradient1528" />
    <linearGradient
       x1="0.003637"
       y1="0.007812"
       x2="0.985455"
       y2="0.984375"
       id="linearGradient1532"
       xlink:href="#linearGradient1535" />
    <linearGradient
       x1="0.003639"
       y1="0.023751"
       x2="1.007273"
       y2="1.015872"
       id="linearGradient1534"
       xlink:href="#linearGradient642" />
    <linearGradient
       x1="0.010934"
       y1="0.000020"
       x2="1.000000"
       y2="0.991380"
       id="linearGradient1539"
       xlink:href="#linearGradient1535" />
    <linearGradient
       x1="0.007274"
       y1="0.026786"
       x2="0.978182"
       y2="0.964286"
       id="linearGradient1567"
       xlink:href="#linearGradient1535" />
    <linearGradient
       x1="0.973546"
       y1="0.953124"
       x2="0.005291"
       y2="-0.015625"
       id="linearGradient1042"
       xlink:href="#linearGradient1535" />
    <linearGradient
       x1="0.950420"
       y1="0.945312"
       x2="0.024794"
       y2="0.015625"
       id="linearGradient1044"
       xlink:href="#linearGradient1535" />
    <defs
       id="defs839">
      <linearGradient
         id="linearGradient983">
        <stop
           style="stop-color:#2ad700;stop-opacity:1;"
           offset="0"
           id="stop984" />
        <stop
           style="stop-color:#e5ffe5;stop-opacity:1;"
           offset="1"
           id="stop985" />
      </linearGradient>
      <linearGradient
         id="linearGradient843">
        <stop
           style="stop-color:#ffffff;stop-opacity:1;"
           offset="0"
           id="stop844" />
        <stop
           style="stop-color:#ffffff;stop-opacity:0;"
           offset="1"
           id="stop845" />
      </linearGradient>
      <linearGradient
         id="linearGradient846">
        <stop
           style="stop-color:#a673f3;stop-opacity:1;"
           offset="0"
           id="stop847" />
        <stop
           style="stop-color:#4c3f8c;stop-opacity:1;"
           offset="1"
           id="stop848" />
      </linearGradient>
      <linearGradient
         id="linearGradient849">
        <stop
           style="stop-color:#ffffff;stop-opacity:1;"
           offset="0"
           id="stop850" />
        <stop
           style="stop-color:#ffffff;stop-opacity:0;"
           offset="1"
           id="stop851" />
      </linearGradient>
      <linearGradient
         x1="0.000000"
         y1="0.000000"
         x2="1.000000"
         y2="0.000000"
         id="linearGradient852"
         xlink:href="#linearGradient923"
         gradientUnits="objectBoundingBox"
         spreadMethod="pad" />
      <linearGradient
         x1="0.015504"
         y1="0.015625"
         x2="1.015504"
         y2="0.984375"
         id="linearGradient855"
         xlink:href="#linearGradient635" />
      <linearGradient
         x1="-0.006803"
         y1="0.023438"
         x2="0.986395"
         y2="0.992188"
         id="linearGradient856"
         xlink:href="#linearGradient642" />
      <linearGradient
         x1="-0.000000"
         y1="0.000000"
         x2="1.000000"
         y2="0.000000"
         id="linearGradient857"
         xlink:href="#linearGradient642" />
      <linearGradient
         x1="0.010309"
         y1="0.023436"
         x2="1.000000"
         y2="0.992188"
         id="linearGradient858"
         xlink:href="#linearGradient642" />
      <linearGradient
         id="linearGradient859"
         xlink:href="#linearGradient1535" />
      <linearGradient
         x1="0.014564"
         y1="-0.000001"
         x2="0.989091"
         y2="1.000000"
         id="linearGradient860"
         xlink:href="#linearGradient1535" />
      <linearGradient
         x1="0.003631"
         y1="0.000003"
         x2="1.003636"
         y2="1.041666"
         id="linearGradient861"
         xlink:href="#linearGradient1535" />
      <linearGradient
         x1="0.003633"
         y1="0.008073"
         x2="0.996364"
         y2="0.975806"
         id="linearGradient862"
         xlink:href="#linearGradient1535" />
    </defs>
    <linearGradient
       x1="0.978904"
       y1="0.968750"
       x2="0.008439"
       y2="0.023437"
       id="linearGradient899"
       xlink:href="#linearGradient642" />
  </defs>
  <path
     d="M 6.0680171 49.032042 C 5.1152082 45.743587 17.164167 41.501736 18.493286 36.675363 C 19.799709 31.931469 11.751107 24.542645 13.974928 20.321149 C 17.398897 13.821535 27.818844 6.7521529 35.436917 4.5118164 C 37.403885 3.8779724 59.249325 11.363582 59.523584 12.893479 C 59.723381 16.872129 43.303024 22.290366 39.944317 28.339304 C 38.157189 31.557803 45.572724 37.160474 44.085976 40.695793 C 41.242714 47.457628 33.032289 56.211967 26.954292 59.230667 C 25.702763 59.945811 6.468828 50.233573 6.0680171 49.032042 z M 46.994698 16.856084 C 46.883059 17.29335 48.485651 18.15888 49.17281 18.034129 C 50.149009 17.857031 51.817254 16.607167 51.985061 15.950727 C 52.095035 15.520607 50.647231 14.658494 50.006351 14.774832 C 48.983973 14.96025 47.16074 16.206984 46.994698 16.856084 z M 41.019041 20.548636 C 40.871198 20.975042 42.395712 21.971687 43.090897 21.904858 C 44.078539 21.810046 45.845515 20.70411 46.067621 20.064012 C 46.213211 19.64465 44.842605 18.664444 44.194192 18.726675 C 43.159877 18.825888 41.238801 19.915778 41.019041 20.548636 z M 35.157278 25.349472 C 35.137412 25.800339 36.883252 26.319598 37.5303 26.056889 C 38.449646 25.683709 39.826805 24.118881 39.856649 23.441994 C 39.876315 22.998562 38.282721 22.451024 37.679122 22.695931 C 36.716333 23.08672 35.186925 24.680215 35.157278 25.349472 z M 35.697084 33.453636 C 36.097172 33.66234 37.30643 32.300344 37.342242 31.602911 C 37.393315 30.612037 36.558309 28.702113 35.957644 28.388619 C 35.564214 28.183144 34.393601 29.395146 34.360135 30.045713 C 34.306716 31.083452 35.103168 33.143469 35.697084 33.453636 z M 38.856579 39.308064 C 39.256666 39.516764 40.46593 38.154772 40.501737 37.457336 C 40.55281 36.466464 39.717806 34.556541 39.117142 34.243047 C 38.723707 34.037573 37.553095 35.249574 37.519635 35.900142 C 37.466211 36.937877 38.262665 38.997897 38.856579 39.308064 z M 35.675462 44.79107 C 35.719102 45.240276 37.520514 45.509347 38.124312 45.158378 C 38.982214 44.659961 40.126016 42.91735 40.060559 42.242911 C 40.017799 41.80114 38.363153 41.482558 37.79986 41.809847 C 36.901452 42.331946 35.610886 44.124162 35.675462 44.79107 z M 31.037633 49.609616 C 30.995558 50.059016 32.71371 50.6636 33.372887 50.433078 C 34.309552 50.105691 35.761955 48.610624 35.825263 47.93589 C 35.866647 47.494024 34.302021 46.868507 33.687067 47.083567 C 32.706175 47.426411 31.100156 48.942515 31.037633 49.609616 z M 25.377624 54.206548 C 25.27078 54.645084 26.88306 55.492615 27.568751 55.360131 C 28.542988 55.172174 30.196953 53.903618 30.357419 53.245227 C 30.462505 52.814027 29.00521 51.968158 28.3655 52.091637 C 27.345276 52.2886 25.536327 53.555589 25.377624 54.206548 z M 31.020806 8.7948036 C 30.861511 9.2170491 32.359218 10.253881 33.055871 10.205604 C 34.045765 10.137209 35.841307 9.0783654 36.080244 8.444277 C 36.236793 8.0290412 34.893 7.0127036 34.242922 7.0577294 C 33.206259 7.1294514 31.2571 8.1678827 31.020806 8.7948036 z M 25.480553 12.672547 C 25.431536 13.121165 27.14039 13.752062 27.802989 13.531719 C 28.744649 13.218813 30.219651 11.745959 30.293134 11.0723 C 30.341275 10.631119 28.786528 9.9817932 28.168244 10.187363 C 27.182169 10.515124 25.553156 12.006521 25.480553 12.672547 z M 19.997841 17.226032 C 19.948822 17.674648 21.657674 18.305552 22.320275 18.085204 C 23.261934 17.772299 24.736937 16.299445 24.810418 15.625785 C 24.85856 15.184607 23.303809 14.53521 22.68553 14.740783 C 21.699455 15.068561 20.070441 16.560006 19.997841 17.226032 z M 17.111429 23.637878 C 17.274635 24.058613 19.081917 23.831221 19.568499 23.330353 C 20.260062 22.618732 20.890572 20.631998 20.645477 20.00022 C 20.484908 19.586434 18.805803 19.726449 18.351804 20.193753 C 17.627657 20.939035 16.868973 23.013237 17.111429 23.637878 z M 19.803326 31.05899 C 20.213587 31.246951 21.351128 29.82429 21.350931 29.125977 C 21.350834 28.133636 20.418278 26.269506 19.80225 25.987319 C 19.398642 25.802493 18.292215 27.073199 18.292314 27.724745 C 18.292509 28.763852 19.194147 30.780037 19.803326 31.05899 z M 21.421872 37.733744 C 21.764031 38.028059 23.251172 36.976234 23.444508 36.305217 C 23.719356 35.351722 23.339817 33.565079 22.826132 33.123216 C 22.489549 32.83379 21.074324 33.485338 20.8939 34.111345 C 20.606141 35.109849 20.913862 37.296871 21.421872 37.733744 z M 16.939617 42.003777 C 16.832768 42.442314 18.445048 43.28984 19.130744 43.157363 C 20.104981 42.969404 21.758944 41.700849 21.919409 41.042455 C 22.024495 40.611254 20.567198 39.765387 19.927491 39.888866 C 18.907266 40.08583 17.098318 41.352815 16.939617 42.003777 z M 11.456997 46.371357 C 11.35015 46.809898 12.962432 47.657424 13.648126 47.524944 C 14.622266 47.336982 16.276233 46.068433 16.436693 45.410033 C 16.541779 44.978836 15.084483 44.132966 14.444777 44.256449 C 13.424649 44.453409 11.6157 45.720398 11.456997 46.371357 z "
     style="font-size:12;opacity:0.302675;fill-rule:evenodd;stroke-width:1.25;"
     id="path738" />
  <path
     d="M 4.165379 47.648322 C 3.2125686 44.359872 15.261583 40.118021 16.590702 35.291645 C 17.897119 30.547754 9.8484722 23.158929 12.072341 18.937428 C 15.49631 12.437817 25.91626 5.3684148 33.534331 3.128083 C 35.501298 2.4942343 57.346741 9.9798662 57.620998 11.509764 C 57.820796 15.488414 41.40044 20.906645 38.041734 26.955588 C 36.254603 30.174085 43.670136 35.776757 42.183389 39.312074 C 39.340127 46.07391 31.129704 54.828249 25.051706 57.846947 C 23.800178 58.562093 4.566193 48.849856 4.165379 47.648322 z M 45.092111 15.472364 C 44.980472 15.909635 46.583067 16.775165 47.270226 16.650415 C 48.24642 16.473316 49.914672 15.223449 50.082471 14.56701 C 50.192449 14.136886 48.744645 13.274781 48.103761 13.391116 C 47.081388 13.57653 45.258151 14.823265 45.092111 15.472364 z M 39.116455 19.164918 C 38.968614 19.591325 40.493128 20.587969 41.188311 20.521139 C 42.175954 20.426331 43.942928 19.320392 44.165036 18.680295 C 44.310627 18.260935 42.940021 17.280729 42.291606 17.342957 C 41.257292 17.442172 39.336216 18.532061 39.116455 19.164918 z M 33.254693 23.965758 C 33.23483 24.416624 34.980665 24.935883 35.627709 24.67317 C 36.547059 24.29999 37.924219 22.735167 37.954063 22.058276 C 37.97373 21.614847 36.380137 21.067309 35.776535 21.312216 C 34.813746 21.703005 33.284336 23.296499 33.254693 23.965758 z M 33.7945 32.069921 C 34.194587 32.278622 35.403843 30.916629 35.439655 30.21919 C 35.49073 29.22832 34.655725 27.318398 34.05506 27.004904 C 33.661627 26.79943 32.491016 28.011428 32.457551 28.661999 C 32.404131 29.699734 33.200584 31.759754 33.7945 32.069921 z M 36.953993 37.924346 C 37.354082 38.133048 38.563338 36.771052 38.599153 36.073616 C 38.650226 35.082746 37.815222 33.172823 37.214553 32.859327 C 36.821122 32.653856 35.650512 33.865855 35.617048 34.516424 C 35.563624 35.554162 36.360079 37.614179 36.953993 37.924346 z M 33.772875 43.407355 C 33.816511 43.856557 35.617928 44.12563 36.221728 43.774663 C 37.079629 43.276244 38.223426 41.533635 38.157971 40.859191 C 38.115214 40.417425 36.460566 40.098842 35.897274 40.426133 C 34.998865 40.948229 33.708297 42.740446 33.772875 43.407355 z M 29.135051 48.225901 C 29.092974 48.675302 30.811123 49.279885 31.470303 49.04936 C 32.406965 48.721974 33.85937 47.226909 33.922677 46.552175 C 33.964064 46.110306 32.399434 45.484787 31.784481 45.699849 C 30.80359 46.042698 29.197572 47.558798 29.135051 48.225901 z M 23.475038 52.822832 C 23.368192 53.261369 24.980472 54.108899 25.666166 53.976417 C 26.640403 53.788456 28.294367 52.519904 28.454834 51.861506 C 28.559916 51.430309 27.102622 50.584444 26.462914 50.707922 C 25.442689 50.904882 23.633741 52.171869 23.475038 52.822832 z M 29.11822 7.4110686 C 28.958928 7.8333141 30.456631 8.8701442 31.153284 8.8218664 C 32.143179 8.7534737 33.938723 7.6946289 34.177659 7.0605405 C 34.334208 6.6453078 32.990412 5.6289671 32.340336 5.673996 C 31.303671 5.7457165 29.354512 6.7841508 29.11822 7.4110686 z M 23.577971 11.288829 C 23.528949 11.737447 25.237805 12.368347 25.900407 12.148 C 26.842063 11.835098 28.317067 10.362271 28.390547 9.6886122 C 28.43869 9.247432 26.883939 8.598057 26.26566 8.8036281 C 25.279585 9.1313865 23.650572 10.6228 23.577971 11.288829 z M 18.095255 15.842316 C 18.046233 16.290933 19.755089 16.921834 20.417691 16.701489 C 21.359343 16.388581 22.834352 14.91573 22.907834 14.242071 C 22.955971 13.800889 21.401223 13.151495 20.782946 13.357067 C 19.796867 13.684844 18.167856 15.17629 18.095255 15.842316 z M 15.208844 22.254164 C 15.372047 22.674894 17.179333 22.4475 17.665913 21.946638 C 18.357477 21.235014 18.987988 19.248282 18.742887 18.616499 C 18.582324 18.202717 16.903217 18.34273 16.449217 18.81004 C 15.725072 19.555317 14.966383 21.629524 15.208844 22.254164 z M 17.900741 29.675275 C 18.311001 29.863235 19.448545 28.440574 19.448346 27.742259 C 19.44825 26.749923 18.515694 24.885786 17.899667 24.603606 C 17.496053 24.418773 16.389631 25.689483 16.389729 26.341028 C 16.389925 27.380136 17.291559 29.396321 17.900741 29.675275 z M 19.519282 36.350027 C 19.861447 36.644344 21.348588 35.592517 21.541924 34.921499 C 21.81677 33.968003 21.437233 32.181365 20.923548 31.7395 C 20.586967 31.450076 19.171741 32.10162 18.991315 32.727631 C 18.703554 33.726133 19.011273 35.913153 19.519282 36.350027 z M 15.037026 40.62006 C 14.930181 41.058599 16.542463 41.906128 17.22816 41.773647 C 18.202396 41.585687 19.856358 40.317133 20.016825 39.658737 C 20.121909 39.227536 18.664614 38.381671 18.024904 38.50515 C 17.00468 38.702112 15.195731 39.969099 15.037026 40.62006 z M 9.5543622 44.987642 C 9.4475159 45.426178 11.059797 46.273711 11.745491 46.141226 C 12.719682 45.95327 14.373643 44.684714 14.534108 44.026318 C 14.639194 43.595118 13.181899 42.749253 12.54219 42.872731 C 11.522012 43.069696 9.7130652 44.336683 9.5543622 44.987642 z "
     style="font-size:12;fill:#261e2e;fill-rule:evenodd;stroke:#261e2e;stroke-width:0.0966917;"
     id="path737" />
  <path
     d="M 14.10976 47.311545 C 14.189205 45.740259 21.791234 39.94914 23.296765 39.813427 C 24.84486 39.655901 31.277744 40.146984 31.393199 41.834408 C 31.711197 43.379178 22.950787 51.05537 21.274709 51.471989 C 19.655189 52.060428 14.025706 48.781267 14.10976 47.311545 z "
     style="font-size:12;fill:url(#linearGradient641);fill-rule:evenodd;stroke:#261933;stroke-width:1.22306;stroke-opacity:1;"
     id="path648" />
  <path
     d="M 24.582343 35.140375 C 25.815476 35.991232 32.32067 37.599014 33.284829 36.896097 C 34.328631 35.989959 30.001264 31.35869 29.87475 24.860642 C 29.843833 23.241021 21.946023 23.354031 21.017675 24.618181 C 20.538237 25.350157 23.507327 34.255864 24.582343 35.140375 z "
     style="font-size:12;fill:url(#linearGradient1522);fill-rule:evenodd;stroke:#261933;stroke-width:1.22306;stroke-opacity:1;"
     id="path649" />
  <path
     d="M 22.835233 18.431575 C 22.97701 19.591913 31.242617 21.247439 32.784059 20.845006 C 34.53401 20.336213 44.438901 14.187181 44.277262 12.881251 C 44.098498 11.224644 35.742581 9.0250319 33.864655 9.2932236 C 31.961286 9.5389112 22.638273 17.013614 22.835233 18.431575 z "
     style="font-size:12;fill:url(#linearGradient1527);fill-rule:evenodd;stroke:#261933;stroke-width:1.22306;stroke-opacity:1;"
     id="path650" />
  <path
     d="M 16.353331 46.394448 C 16.353331 46.150129 20.357419 42.163554 22.727607 41.215443 C 24.341258 40.569962 28.305034 41.382855 28.305034 41.613767 C 28.305034 41.847714 24.453386 41.91953 22.727607 42.609825 C 20.469549 43.513028 16.353331 46.614989 16.353331 46.394448 z "
     style="font-size:12;opacity:0.699936;fill:url(#linearGradient1534);fill-rule:evenodd;stroke:#ffffff;stroke-width:0.0978445pt;"
     id="path656" />
  <path
     d="M 22.84991 27.417318 C 22.510195 27.836678 21.94671 25.424422 22.451485 25.226093 C 23.805851 24.694012 28.361001 24.861425 28.427338 25.226093 C 28.493871 25.591832 24.501331 25.425398 22.84991 27.417318 z "
     style="font-size:12;opacity:0.7;fill:url(#linearGradient1539);fill-rule:evenodd;stroke:#ffffff;stroke-width:0.0978445pt;"
     id="path657" />
  <path
     d="M 25.923791 17.135917 C 25.959115 16.782306 31.071293 11.645375 34.090769 10.761642 C 36.515944 10.051843 42.290821 12.024324 42.257752 12.355237 C 42.224485 12.688299 36.502052 11.989593 33.891561 12.753658 C 31.057397 13.583183 25.892772 17.446281 25.923791 17.135917 z "
     style="font-size:12;opacity:0.699936;fill:url(#linearGradient1567);fill-rule:evenodd;stroke:#ffffff;stroke-width:0.0978445pt;"
     id="path658" />
  <path
     d="M 13.331403 20.526328 C 13.263598 17.530231 24.923823 8.0653416 32.254915 5.3875164 C 36.01234 4.0150425 46.528567 7.9645827 46.597057 8.3754418 C 46.661341 8.761373 36.357143 6.4249823 32.653339 7.777858 C 25.268624 10.475263 13.312811 20.92152 13.331403 20.526328 z "
     style="font-size:12;opacity:0.7;fill:url(#linearGradient1532);fill-rule:evenodd;stroke:none;stroke-width:0.0978445pt;"
     id="path655" />
</svg>
