<?xml version="1.0" encoding="UTF-8" standalone="no"?>
<!DOCTYPE svg PUBLIC "-//W3C//DTD SVG 20010904//EN"
"http://www.w3.org/TR/2001/REC-SVG-20010904/DTD/svg10.dtd">
<!-- Created with Inkscape (http://www.inkscape.org/) -->
<svg
   id="svg1"
   sodipodi:version="0.32"
   inkscape:version="0.39"
   width="48pt"
   height="48pt"
   sodipodi:docbase="/home/scaba/files/lila/work/lila-gnome/Lila/scalable/apps"
   sodipodi:docname="gnome-settings-sound3.svg"
   xmlns="http://www.w3.org/2000/svg"
   xmlns:cc="http://web.resource.org/cc/"
   xmlns:inkscape="http://www.inkscape.org/namespaces/inkscape"
   xmlns:sodipodi="http://sodipodi.sourceforge.net/DTD/sodipodi-0.dtd"
   xmlns:rdf="http://www.w3.org/1999/02/22-rdf-syntax-ns#"
   xmlns:dc="http://purl.org/dc/elements/1.1/"
   xmlns:xlink="http://www.w3.org/1999/xlink">
  <defs
     id="defs3">
    <linearGradient
       id="linearGradient758">
      <stop
         style="stop-color:#d9cce6;stop-opacity:1;"
         offset="0.00000000"
         id="stop759" />
      <stop
         style="stop-color:#73667f;stop-opacity:1;"
         offset="1.00000000"
         id="stop760" />
    </linearGradient>
    <linearGradient
       id="linearGradient745">
      <stop
         style="stop-color:#d9cce6;stop-opacity:1;"
         offset="0.00000000"
         id="stop746" />
      <stop
         style="stop-color:#73667f;stop-opacity:1;"
         offset="1.00000000"
         id="stop747" />
    </linearGradient>
    <linearGradient
       id="linearGradient742">
      <stop
         offset="0.00000000"
         style="stop-color:#d9cce6;stop-opacity:1;"
         id="stop744" />
      <stop
         offset="1.00000000"
         style="stop-color:#73667f;stop-opacity:1;"
         id="stop743" />
    </linearGradient>
    <linearGradient
       id="linearGradient711">
      <stop
         offset="0.00000000"
         style="stop-color:#ffffff;stop-opacity:1;"
         id="stop713" />
      <stop
         offset="1.00000000"
         style="stop-color:#ffffff;stop-opacity:0;"
         id="stop712" />
    </linearGradient>
    <linearGradient
       id="linearGradient599">
      <stop
         style="stop-color:#ffffff;stop-opacity:1;"
         offset="0.00000000"
         id="stop600" />
      <stop
         style="stop-color:#d9cce6;stop-opacity:1;"
         offset="1.00000000"
         id="stop601" />
    </linearGradient>
    <linearGradient
       id="linearGradient584">
      <stop
         style="stop-color:#ffffff;stop-opacity:1;"
         offset="0.00000000"
         id="stop585" />
      <stop
         style="stop-color:#ffffff;stop-opacity:0;"
         offset="1.00000000"
         id="stop586" />
    </linearGradient>
    <linearGradient
       id="linearGradient578">
      <stop
         style="stop-color:#d9cce6;stop-opacity:1;"
         offset="0.00000000"
         id="stop579" />
      <stop
         style="stop-color:#73667f;stop-opacity:1;"
         offset="1.00000000"
         id="stop580" />
    </linearGradient>
    <linearGradient
       xlink:href="#linearGradient578"
       id="linearGradient581"
       x1="-0.00000000"
       y1="0.00000000"
       x2="0.97916669"
       y2="0.97656250" />
    <linearGradient
       xlink:href="#linearGradient578"
       id="linearGradient583"
       x1="0.98979592"
       y1="0.99218750"
       x2="0.03061225"
       y2="-0.00000000" />
    <linearGradient
       xlink:href="#linearGradient578"
       id="linearGradient860"
       x1="-0.00000000"
       y1="-0.00000000"
       x2="0.98076922"
       y2="1.00781250" />
    <linearGradient
       xlink:href="#linearGradient599"
       id="linearGradient861"
       x1="0.98979592"
       y1="0.99218750"
       x2="0.03061225"
       y2="0.00000000" />
    <linearGradient
       xlink:href="#linearGradient584"
       id="linearGradient862"
       x1="-0.00000000"
       y1="0.00000000"
       x2="0.97457629"
       y2="0.99218750" />
    <radialGradient
       xlink:href="#linearGradient578"
       id="radialGradient595"
       cx="0.33846155"
       cy="0.34375000"
       r="0.66501766"
       fx="0.33076921"
       fy="0.33593750" />
    <linearGradient
       xlink:href="#linearGradient584"
       id="linearGradient652"
       x1="-0.00000000"
       y1="-0.00000000"
       x2="0.99637681"
       y2="0.96052629" />
    <linearGradient
       xlink:href="#linearGradient584"
       id="linearGradient654"
       x1="0.01098901"
       y1="0.01562500"
       x2="0.97802198"
       y2="0.98437500" />
    <linearGradient
       xlink:href="#linearGradient758"
       id="linearGradient661"
       x1="0.00000000"
       y1="0.03125000"
       x2="0.96629214"
       y2="0.95312500" />
    <linearGradient
       xlink:href="#linearGradient578"
       id="linearGradient616"
       x1="0.02439024"
       y1="0.03125000"
       x2="0.96747965"
       y2="0.96875000" />
    <linearGradient
       xlink:href="#linearGradient584"
       id="linearGradient618"
       x1="0.00000000"
       y1="-0.00000000"
       x2="1.00000000"
       y2="1.00781250" />
    <linearGradient
       xlink:href="#linearGradient584"
       id="linearGradient620"
       x1="-0.00000000"
       y1="0.00000000"
       x2="1.00000000"
       y2="0.99218750" />
    <linearGradient
       xlink:href="#linearGradient584"
       id="linearGradient633"
       x1="0.00000000"
       y1="0.00000000"
       x2="1.00000000"
       y2="0.00000000" />
  </defs>
  <sodipodi:namedview
     id="base"
     pagecolor="#ffffff"
     bordercolor="#666666"
     borderopacity="1.0"
     inkscape:pageopacity="0.0"
     inkscape:pageshadow="2"
     inkscape:zoom="8.0000000"
     inkscape:cx="33.254866"
     inkscape:cy="26.040630"
     inkscape:window-width="1022"
     inkscape:window-height="695"
     inkscape:window-x="0"
     inkscape:window-y="26"
     showborder="true"
     showgrid="false"
     gridspacingx="1pt"
     gridspacingy="1pt"
     snaptogrid="false"
     inkscape:grid-bbox="false" />
  <g
     id="g650"
     style="font-size:12.000000;opacity:0.29636899;"
     transform="matrix(-0.648056,0.272569,0.308017,0.732338,32.55609,7.691037)">
    <path
       style="fill-rule:evenodd;stroke-width:1.8750000;"
       d="M 40.181906,49.683924 C 43.741420,46.987630 55.413093,36.819956 56.782923,33.597578 C 58.501012,29.555960 56.258798,19.433555 53.192815,16.716700 C 50.944448,14.724357 36.640091,12.559718 32.521925,12.563247 C 28.414485,12.566766 34.838722,53.731330 40.181906,49.683924 z "
       id="path643"
       sodipodi:nodetypes="cssss" />
    <path
       style="fill-rule:evenodd;stroke-width:1.8750000;"
       d="M 46.995589,33.682468 C 46.995589,44.404983 40.468842,53.107313 32.426956,53.107313 C 24.385071,53.107313 17.858323,44.404983 17.858323,33.682468 C 17.858323,22.959954 24.385071,14.257624 32.426956,14.257624 C 40.468842,14.257624 46.995589,22.959954 46.995589,33.682468 z "
       id="path644"
       transform="matrix(1.373487,0.000000,0.000000,1.373487,-17.61598,-13.82184)" />
  </g>
  <path
     style="font-size:12.000000;fill:url(#linearGradient860);fill-rule:evenodd;stroke:#000000;stroke-width:1.4013087;"
     d="M 20.139796,53.918557 C 17.199686,52.884107 7.1964959,48.566937 5.4678859,46.645077 C 3.2998059,44.234607 1.9208959,36.641687 3.0759759,34.018007 C 3.9230259,32.094007 12.184956,27.184117 14.734836,26.207687 C 17.278076,25.233807 24.553186,55.471377 20.139796,53.918557 z "
     id="path637"
     sodipodi:nodetypes="cssss" />
  <path
     style="font-size:12.000000;fill:url(#linearGradient652);fill-rule:evenodd;stroke-width:1.0000000pt;"
     d="M 4.5015159,34.757207 C 4.5826459,34.499407 10.477896,29.526137 13.084386,28.659637 C 13.766246,28.432957 14.454946,31.196807 14.366566,31.477657 C 14.301496,31.684427 13.208256,29.928287 12.624046,30.122497 C 9.9199059,31.021467 4.4291959,34.987027 4.5015159,34.757207 z "
     id="path642"
     sodipodi:nodetypes="cssss" />
  <path
     style="font-size:12.000000;fill:url(#linearGradient581);fill-rule:evenodd;stroke:#261933;stroke-width:1.4013087;"
     d="M 11.294526,43.529777 C 15.572056,53.699967 24.521766,59.649977 31.271566,56.811047 C 38.021376,53.972117 40.027856,43.413997 35.750336,33.243807 C 31.472806,23.073617 22.523086,17.123607 15.773286,19.962537 C 9.0234859,22.801467 7.0170059,33.359597 11.294526,43.529777 z "
     id="path635" />
  <path
     style="font-size:12.000000;fill:url(#linearGradient583);fill-rule:evenodd;stroke-width:0.37500000;"
     d="M 16.027906,41.538947 C 18.649616,47.772287 24.134926,51.419067 28.271906,49.679077 C 32.408876,47.939087 33.638666,41.467977 31.016956,35.234637 C 28.395236,29.001297 22.909936,25.354517 18.772956,27.094507 C 14.635976,28.834497 13.406196,35.305607 16.027906,41.538947 z "
     id="path636" />
  <path
     style="font-size:12.000000;fill:url(#linearGradient861);fill-rule:evenodd;stroke:#261933;stroke-width:0.36298034;"
     d="M 21.057126,39.423687 C 21.919536,41.474127 23.723906,42.673727 25.084756,42.101357 C 26.445606,41.528997 26.850136,39.400337 25.987726,37.349897 C 25.125326,35.299457 23.320946,34.099857 21.960096,34.672227 C 20.599256,35.244587 20.194716,37.373247 21.057126,39.423687 z "
     id="path638" />
  <path
     style="font-size:12.000000;fill:url(#linearGradient862);fill-rule:evenodd;stroke-width:1.0000000pt;"
     d="M 14.999836,47.113677 C 14.644206,46.767237 7.8824759,34.947767 12.500736,25.042307 C 15.492156,18.786457 24.061666,21.290537 24.417826,21.637487 C 24.741356,21.952647 17.464476,20.354457 14.539786,27.028637 C 10.212986,37.211737 15.323886,47.429347 14.999836,47.113677 z "
     id="path639"
     sodipodi:nodetypes="cssss" />
  <path
     style="font-size:12.000000;fill:url(#linearGradient862);fill-rule:evenodd;stroke-width:1.0000000pt;"
     d="M 21.960416,40.262397 C 21.888736,40.192567 20.525756,37.810097 21.456666,35.813437 C 22.059656,34.552427 23.787026,35.057187 23.858816,35.127117 C 23.924036,35.190647 22.457216,34.868497 21.867686,36.213817 C 20.995516,38.266447 22.025736,40.326027 21.960416,40.262397 z "
     id="path640"
     sodipodi:nodetypes="cssss" />
  <path
     style="font-size:12.000000;fill:url(#linearGradient862);fill-rule:evenodd;stroke-width:1.0000000pt;"
     d="M 28.879896,33.496017 C 29.091796,33.702447 33.120826,40.745167 30.369006,46.647407 C 28.586536,50.374997 23.480336,48.882927 23.268116,48.676187 C 23.075336,48.488397 27.411316,49.440697 29.154016,45.463837 C 31.732176,39.396157 28.686806,33.307927 28.879896,33.496017 z "
     id="path641"
     sodipodi:nodetypes="cssss" />
  <path
     style="fill:#000000;fill-opacity:1.00000000;fill-rule:nonzero;stroke:none;stroke-width:1.0000000pt;stroke-linecap:butt;stroke-linejoin:miter;stroke-opacity:1.0000000;"
     id="path683"
     d="M -9.5078241,-0.25638252 C -9.5095341,-0.25658252 -9.5112341,-0.25678252 -9.5129441,-0.25698252 L -9.5129441,-1.5988825 C -9.5112341,-1.5990825 -9.5095341,-1.5992825 -9.5078241,-1.5994825 L -9.5078241,-0.25638252 z " />
  <g
     id="g1637"
     transform="matrix(0.899452,0.000000,0.000000,0.899452,9.186040,-24.64403)">
    <path
       style="font-size:12.000000;fill:#000000;fill-opacity:0.30081299;fill-rule:evenodd;stroke:none;stroke-width:1.2500000;"
       d="M 42.603029,36.526934 C 41.901578,36.499775 41.399237,36.606999 41.228029,36.964434 C 40.543196,38.394176 40.925209,50.676388 40.446779,50.683184 C 39.327606,50.697899 36.977184,50.797336 36.290529,51.339434 C 35.603873,51.881530 35.165529,52.637812 35.165529,53.464434 C 35.165529,54.291057 35.603873,55.016089 36.290529,55.558184 C 36.977184,56.100280 37.899723,56.433185 38.946779,56.433184 C 39.993834,56.433184 40.947623,56.100281 41.634279,55.558184 C 42.320934,55.016088 42.759280,53.072305 42.759279,52.245684 C 42.759279,51.832373 42.933084,44.693136 43.040529,41.589434 C 43.094252,40.037583 47.912630,42.305239 51.367791,41.151934 C 51.191372,45.257428 51.414957,50.678309 51.071779,50.683184 C 49.952606,50.697899 47.602182,50.797336 46.915529,51.339434 C 46.228873,51.881530 45.790529,52.637812 45.790529,53.464434 C 45.790529,54.291057 46.228871,55.016089 46.915529,55.558184 C 47.602184,56.100280 48.555973,56.433185 49.603029,56.433184 C 50.650084,56.433184 51.572623,56.100281 52.259279,55.558184 C 52.945934,55.016088 53.384280,53.072305 53.384279,52.245684 C 53.384279,51.832373 53.393238,44.816409 53.768915,41.733706 C 54.054679,39.316671 55.410601,35.566210 52.112665,36.774592 C 49.101404,37.877934 44.707381,36.608412 42.603029,36.526934 z "
       id="path1632"
       sodipodi:nodetypes="ccccccccccccccccccssc" />
    <path
       style="font-size:12.000000;fill:url(#linearGradient616);fill-opacity:1.00000000;fill-rule:evenodd;stroke:#261934;stroke-width:1.2500000;"
       d="M 36.718750,36.125000 C 36.017299,36.097841 35.514958,36.205065 35.343750,36.562500 C 34.658917,37.992242 35.040930,50.274454 34.562500,50.281250 C 33.443327,50.295965 31.092905,50.395402 30.406250,50.937500 C 29.719594,51.479596 29.281250,52.235878 29.281250,53.062500 C 29.281250,53.889123 29.719594,54.614155 30.406250,55.156250 C 31.092905,55.698346 32.015444,56.031251 33.062500,56.031250 C 34.109555,56.031250 35.063344,55.698347 35.750000,55.156250 C 36.436655,54.614154 36.875001,52.670371 36.875000,51.843750 C 36.875000,51.430439 37.048805,44.291202 37.156250,41.187500 C 37.209973,39.635649 42.028351,41.903305 45.483512,40.750000 C 45.307093,44.855494 45.530678,50.276375 45.187500,50.281250 C 44.068327,50.295965 41.717903,50.395402 41.031250,50.937500 C 40.344594,51.479596 39.906250,52.235878 39.906250,53.062500 C 39.906250,53.889123 40.344592,54.614155 41.031250,55.156250 C 41.717905,55.698346 42.671694,56.031251 43.718750,56.031250 C 44.765805,56.031250 45.688344,55.698347 46.375000,55.156250 C 47.061655,54.614154 47.500001,52.670371 47.500000,51.843750 C 47.500000,51.430439 47.508959,44.414475 47.884636,41.331772 C 48.170400,38.914737 49.526322,35.164276 46.228386,36.372658 C 43.217125,37.476000 38.823102,36.206478 36.718750,36.125000 z "
       id="path1615"
       sodipodi:nodetypes="ccccccccccccccccccssc"
       transform="translate(4.328167,-1.154178)" />
    <path
       style="font-size:12.000000;fill-opacity:1.00000000;stroke-width:1.0000000pt;"
       id="path682"
       d="M 34.340968,41.503501 C 34.339260,41.503299 34.337552,41.503098 34.335844,41.502896 L 34.335844,40.160997 C 34.337552,40.160796 34.339260,40.160594 34.340968,40.160392 L 34.340968,41.503501 z "
       transform="translate(4.328167,-1.154178)" />
    <path
       style="font-size:12.000000;fill:url(#linearGradient654);fill-rule:evenodd;stroke-width:1.0000000pt;"
       d="M 31.495146,51.540450 C 30.337742,51.978326 30.272239,52.583398 30.230790,53.520306 C 30.671573,53.160079 30.492121,52.314908 32.027796,52.022954 C 34.633312,51.499244 35.528639,52.232627 35.671646,51.224285 C 36.161145,47.186399 35.925009,42.170366 36.337305,38.495424 C 36.434839,37.772002 36.475173,37.889484 37.729574,37.902052 C 39.935115,37.852014 46.453114,38.155551 46.555886,37.380435 C 41.999024,38.088665 37.186990,36.888945 36.021140,36.964743 C 35.621256,40.783372 35.663003,47.942169 35.471979,50.658613 C 35.384567,51.939718 33.532376,50.801177 31.495146,51.540450 z "
       id="path1610"
       sodipodi:nodetypes="ccssssccss"
       transform="translate(4.328167,-1.154178)" />
    <path
       style="font-size:12.000000;fill:url(#linearGradient654);fill-rule:evenodd;stroke-width:1.0000000pt;"
       d="M 42.125067,51.540450 C 40.967663,51.978326 40.902160,52.583398 40.860711,53.520306 C 41.301494,53.160079 41.122042,52.314908 42.657717,52.022954 C 45.263233,51.499244 46.432928,52.242636 46.445839,51.224285 C 46.502522,46.681446 46.563163,42.914703 46.606546,41.380869 C 46.550472,40.812999 46.734868,40.423614 46.434653,40.355141 C 46.179041,41.865414 46.292924,47.942169 46.101900,50.658613 C 46.014488,51.939718 44.162297,50.801177 42.125067,51.540450 z "
       id="path1616"
       sodipodi:nodetypes="ccssscss"
       transform="translate(4.328167,-1.154178)" />
  </g>
  <g
     id="g1643"
     transform="matrix(0.767276,0.000000,0.000000,0.767276,17.55076,2.091753)">
    <path
       style="font-size:12.000000;fill:#000000;fill-opacity:0.30081299;fill-rule:evenodd;stroke:none;stroke-width:1.2500000;"
       d="M 42.603029,36.526934 C 41.901578,36.499775 41.399237,36.606999 41.228029,36.964434 C 40.543196,38.394176 40.925209,50.676388 40.446779,50.683184 C 39.327606,50.697899 36.977184,50.797336 36.290529,51.339434 C 35.603873,51.881530 35.165529,52.637812 35.165529,53.464434 C 35.165529,54.291057 35.603873,55.016089 36.290529,55.558184 C 36.977184,56.100280 37.899723,56.433185 38.946779,56.433184 C 39.993834,56.433184 40.947623,56.100281 41.634279,55.558184 C 42.320934,55.016088 42.759280,53.072305 42.759279,52.245684 C 42.759279,51.832373 42.933084,44.693136 43.040529,41.589434 C 43.094252,40.037583 47.912630,42.305239 51.367791,41.151934 C 51.191372,45.257428 51.414957,50.678309 51.071779,50.683184 C 49.952606,50.697899 47.602182,50.797336 46.915529,51.339434 C 46.228873,51.881530 45.790529,52.637812 45.790529,53.464434 C 45.790529,54.291057 46.228871,55.016089 46.915529,55.558184 C 47.602184,56.100280 48.555973,56.433185 49.603029,56.433184 C 50.650084,56.433184 51.572623,56.100281 52.259279,55.558184 C 52.945934,55.016088 53.384280,53.072305 53.384279,52.245684 C 53.384279,51.832373 53.393238,44.816409 53.768915,41.733706 C 54.054679,39.316671 55.410601,35.566210 52.112665,36.774592 C 49.101404,37.877934 44.707381,36.608412 42.603029,36.526934 z "
       id="path1644"
       sodipodi:nodetypes="ccccccccccccccccccssc" />
    <path
       style="font-size:12.000000;fill:url(#linearGradient616);fill-opacity:1.00000000;fill-rule:evenodd;stroke:#261934;stroke-width:1.2500000;"
       d="M 36.718750,36.125000 C 36.017299,36.097841 35.514958,36.205065 35.343750,36.562500 C 34.658917,37.992242 35.040930,50.274454 34.562500,50.281250 C 33.443327,50.295965 31.092905,50.395402 30.406250,50.937500 C 29.719594,51.479596 29.281250,52.235878 29.281250,53.062500 C 29.281250,53.889123 29.719594,54.614155 30.406250,55.156250 C 31.092905,55.698346 32.015444,56.031251 33.062500,56.031250 C 34.109555,56.031250 35.063344,55.698347 35.750000,55.156250 C 36.436655,54.614154 36.875001,52.670371 36.875000,51.843750 C 36.875000,51.430439 37.048805,44.291202 37.156250,41.187500 C 37.209973,39.635649 42.028351,41.903305 45.483512,40.750000 C 45.307093,44.855494 45.530678,50.276375 45.187500,50.281250 C 44.068327,50.295965 41.717903,50.395402 41.031250,50.937500 C 40.344594,51.479596 39.906250,52.235878 39.906250,53.062500 C 39.906250,53.889123 40.344592,54.614155 41.031250,55.156250 C 41.717905,55.698346 42.671694,56.031251 43.718750,56.031250 C 44.765805,56.031250 45.688344,55.698347 46.375000,55.156250 C 47.061655,54.614154 47.500001,52.670371 47.500000,51.843750 C 47.500000,51.430439 47.508959,44.414475 47.884636,41.331772 C 48.170400,38.914737 49.526322,35.164276 46.228386,36.372658 C 43.217125,37.476000 38.823102,36.206478 36.718750,36.125000 z "
       id="path1645"
       sodipodi:nodetypes="ccccccccccccccccccssc"
       transform="translate(4.328167,-1.154178)" />
    <path
       style="font-size:12.000000;fill-opacity:1.00000000;stroke-width:1.0000000pt;"
       id="path1646"
       d="M 34.340968,41.503501 C 34.339260,41.503299 34.337552,41.503098 34.335844,41.502896 L 34.335844,40.160997 C 34.337552,40.160796 34.339260,40.160594 34.340968,40.160392 L 34.340968,41.503501 z "
       transform="translate(4.328167,-1.154178)" />
    <path
       style="font-size:12.000000;fill:url(#linearGradient654);fill-rule:evenodd;stroke-width:1.0000000pt;"
       d="M 31.495146,51.540450 C 30.337742,51.978326 30.272239,52.583398 30.230790,53.520306 C 30.671573,53.160079 30.492121,52.314908 32.027796,52.022954 C 34.633312,51.499244 35.528639,52.232627 35.671646,51.224285 C 36.161145,47.186399 35.925009,42.170366 36.337305,38.495424 C 36.434839,37.772002 36.475173,37.889484 37.729574,37.902052 C 39.935115,37.852014 46.453114,38.155551 46.555886,37.380435 C 41.999024,38.088665 37.186990,36.888945 36.021140,36.964743 C 35.621256,40.783372 35.663003,47.942169 35.471979,50.658613 C 35.384567,51.939718 33.532376,50.801177 31.495146,51.540450 z "
       id="path1647"
       sodipodi:nodetypes="ccssssccss"
       transform="translate(4.328167,-1.154178)" />
    <path
       style="font-size:12.000000;fill:url(#linearGradient654);fill-rule:evenodd;stroke-width:1.0000000pt;"
       d="M 42.125067,51.540450 C 40.967663,51.978326 40.902160,52.583398 40.860711,53.520306 C 41.301494,53.160079 41.122042,52.314908 42.657717,52.022954 C 45.263233,51.499244 46.432928,52.242636 46.445839,51.224285 C 46.502522,46.681446 46.563163,42.914703 46.606546,41.380869 C 46.550472,40.812999 46.734868,40.423614 46.434653,40.355141 C 46.179041,41.865414 46.292924,47.942169 46.101900,50.658613 C 46.014488,51.939718 44.162297,50.801177 42.125067,51.540450 z "
       id="path1648"
       sodipodi:nodetypes="ccssscss"
       transform="translate(4.328167,-1.154178)" />
  </g>
  <metadata
     id="metadata1142">
    <rdf:RDF
       id="RDF1143">
      <cc:Work
         rdf:about=""
         id="Work1144">
        <dc:format
           id="format1145">image/svg+xml</dc:format>
        <dc:type
           id="type1147"
           rdf:resource="http://purl.org/dc/dcmitype/StillImage" />
      </cc:Work>
    </rdf:RDF>
  </metadata>
  <g
     id="g1215"
     transform="matrix(0.654313,0.000000,0.000000,0.654313,3.756788,-20.76691)">
    <path
       style="font-size:12.000000;fill:#000000;fill-opacity:0.30081299;fill-rule:evenodd;stroke:none;stroke-width:1.2500000;"
       d="M 42.603029,36.526934 C 41.901578,36.499775 41.399237,36.606999 41.228029,36.964434 C 40.543196,38.394176 40.925209,50.676388 40.446779,50.683184 C 39.327606,50.697899 36.977184,50.797336 36.290529,51.339434 C 35.603873,51.881530 35.165529,52.637812 35.165529,53.464434 C 35.165529,54.291057 35.603873,55.016089 36.290529,55.558184 C 36.977184,56.100280 37.899723,56.433185 38.946779,56.433184 C 39.993834,56.433184 40.947623,56.100281 41.634279,55.558184 C 42.320934,55.016088 42.759280,53.072305 42.759279,52.245684 C 42.759279,51.832373 42.933084,44.693136 43.040529,41.589434 C 43.094252,40.037583 47.912630,42.305239 51.367791,41.151934 C 51.191372,45.257428 51.414957,50.678309 51.071779,50.683184 C 49.952606,50.697899 47.602182,50.797336 46.915529,51.339434 C 46.228873,51.881530 45.790529,52.637812 45.790529,53.464434 C 45.790529,54.291057 46.228871,55.016089 46.915529,55.558184 C 47.602184,56.100280 48.555973,56.433185 49.603029,56.433184 C 50.650084,56.433184 51.572623,56.100281 52.259279,55.558184 C 52.945934,55.016088 53.384280,53.072305 53.384279,52.245684 C 53.384279,51.832373 53.393238,44.816409 53.768915,41.733706 C 54.054679,39.316671 55.410601,35.566210 52.112665,36.774592 C 49.101404,37.877934 44.707381,36.608412 42.603029,36.526934 z "
       id="path1216"
       sodipodi:nodetypes="ccccccccccccccccccssc" />
    <path
       style="font-size:12.000000;fill:url(#linearGradient616);fill-opacity:1.00000000;fill-rule:evenodd;stroke:#261934;stroke-width:1.2500000;"
       d="M 36.718750,36.125000 C 36.017299,36.097841 35.514958,36.205065 35.343750,36.562500 C 34.658917,37.992242 35.040930,50.274454 34.562500,50.281250 C 33.443327,50.295965 31.092905,50.395402 30.406250,50.937500 C 29.719594,51.479596 29.281250,52.235878 29.281250,53.062500 C 29.281250,53.889123 29.719594,54.614155 30.406250,55.156250 C 31.092905,55.698346 32.015444,56.031251 33.062500,56.031250 C 34.109555,56.031250 35.063344,55.698347 35.750000,55.156250 C 36.436655,54.614154 36.875001,52.670371 36.875000,51.843750 C 36.875000,51.430439 37.048805,44.291202 37.156250,41.187500 C 37.209973,39.635649 42.028351,41.903305 45.483512,40.750000 C 45.307093,44.855494 45.530678,50.276375 45.187500,50.281250 C 44.068327,50.295965 41.717903,50.395402 41.031250,50.937500 C 40.344594,51.479596 39.906250,52.235878 39.906250,53.062500 C 39.906250,53.889123 40.344592,54.614155 41.031250,55.156250 C 41.717905,55.698346 42.671694,56.031251 43.718750,56.031250 C 44.765805,56.031250 45.688344,55.698347 46.375000,55.156250 C 47.061655,54.614154 47.500001,52.670371 47.500000,51.843750 C 47.500000,51.430439 47.508959,44.414475 47.884636,41.331772 C 48.170400,38.914737 49.526322,35.164276 46.228386,36.372658 C 43.217125,37.476000 38.823102,36.206478 36.718750,36.125000 z "
       id="path1217"
       sodipodi:nodetypes="ccccccccccccccccccssc"
       transform="translate(4.328167,-1.154178)" />
    <path
       style="font-size:12.000000;fill-opacity:1.00000000;stroke-width:1.0000000pt;"
       id="path1218"
       d="M 34.340968,41.503501 C 34.339260,41.503299 34.337552,41.503098 34.335844,41.502896 L 34.335844,40.160997 C 34.337552,40.160796 34.339260,40.160594 34.340968,40.160392 L 34.340968,41.503501 z "
       transform="translate(4.328167,-1.154178)" />
    <path
       style="font-size:12.000000;fill:url(#linearGradient654);fill-rule:evenodd;stroke-width:1.0000000pt;"
       d="M 31.495146,51.540450 C 30.337742,51.978326 30.272239,52.583398 30.230790,53.520306 C 30.671573,53.160079 30.492121,52.314908 32.027796,52.022954 C 34.633312,51.499244 35.528639,52.232627 35.671646,51.224285 C 36.161145,47.186399 35.925009,42.170366 36.337305,38.495424 C 36.434839,37.772002 36.475173,37.889484 37.729574,37.902052 C 39.935115,37.852014 46.453114,38.155551 46.555886,37.380435 C 41.999024,38.088665 37.186990,36.888945 36.021140,36.964743 C 35.621256,40.783372 35.663003,47.942169 35.471979,50.658613 C 35.384567,51.939718 33.532376,50.801177 31.495146,51.540450 z "
       id="path1219"
       sodipodi:nodetypes="ccssssccss"
       transform="translate(4.328167,-1.154178)" />
    <path
       style="font-size:12.000000;fill:url(#linearGradient654);fill-rule:evenodd;stroke-width:1.0000000pt;"
       d="M 42.125067,51.540450 C 40.967663,51.978326 40.902160,52.583398 40.860711,53.520306 C 41.301494,53.160079 41.122042,52.314908 42.657717,52.022954 C 45.263233,51.499244 46.432928,52.242636 46.445839,51.224285 C 46.502522,46.681446 46.563163,42.914703 46.606546,41.380869 C 46.550472,40.812999 46.734868,40.423614 46.434653,40.355141 C 46.179041,41.865414 46.292924,47.942169 46.101900,50.658613 C 46.014488,51.939718 44.162297,50.801177 42.125067,51.540450 z "
       id="path1220"
       sodipodi:nodetypes="ccssscss"
       transform="translate(4.328167,-1.154178)" />
  </g>
</svg>
