<?xml version="1.0" encoding="UTF-8" standalone="no"?>
<!DOCTYPE svg PUBLIC "-//W3C//DTD SVG 20010904//EN"
"http://www.w3.org/TR/2001/REC-SVG-20010904/DTD/svg10.dtd">
<!-- Created with Inkscape (http://www.inkscape.org/) -->
<svg
   id="svg1"
   sodipodi:version="0.32"
   inkscape:version="0.39"
   width="48pt"
   height="48pt"
   sodipodi:docbase="/home/scaba/files/lila/devel/lila-gnome/Lila/scalable/stock"
   sodipodi:docname="stock_music-library.svg"
   xmlns="http://www.w3.org/2000/svg"
   xmlns:inkscape="http://www.inkscape.org/namespaces/inkscape"
   xmlns:sodipodi="http://sodipodi.sourceforge.net/DTD/sodipodi-0.dtd"
   xmlns:xlink="http://www.w3.org/1999/xlink"
   xmlns:rdf="http://www.w3.org/1999/02/22-rdf-syntax-ns#"
   xmlns:cc="http://web.resource.org/cc/"
   xmlns:dc="http://purl.org/dc/elements/1.1/">
  <defs
     id="defs3">
    <linearGradient
       id="linearGradient2888">
      <stop
         offset="0.0000000"
         style="stop-color:#d9cce6;stop-opacity:1.0000000;"
         id="stop2890" />
      <stop
         offset="1.0000000"
         style="stop-color:#73667f;stop-opacity:1.0000000;"
         id="stop2889" />
    </linearGradient>
    <linearGradient
       id="linearGradient584">
      <stop
         style="stop-color:#ffffff;stop-opacity:1;"
         offset="0.00000000"
         id="stop585" />
      <stop
         style="stop-color:#ffffff;stop-opacity:0;"
         offset="1.00000000"
         id="stop586" />
    </linearGradient>
    <linearGradient
       id="linearGradient578">
      <stop
         style="stop-color:#ffffff;stop-opacity:1;"
         offset="0.00000000"
         id="stop579" />
      <stop
         style="stop-color:#d9cce6;stop-opacity:1;"
         offset="1.00000000"
         id="stop580" />
    </linearGradient>
    <linearGradient
       xlink:href="#linearGradient584"
       id="linearGradient581"
       x1="0.01351351"
       y1="0.04687500"
       x2="0.99324322"
       y2="0.96875000" />
    <linearGradient
       xlink:href="#linearGradient584"
       id="linearGradient583" />
    <linearGradient
       xlink:href="#linearGradient584"
       id="linearGradient654" />
    <linearGradient
       xlink:href="#linearGradient578"
       id="linearGradient655"
       x1="0.00000000"
       y1="-0.00000000"
       x2="0.96923077"
       y2="0.99218750" />
    <linearGradient
       xlink:href="#linearGradient2888"
       id="linearGradient713"
       x1="0.013513510"
       y1="0.046875000"
       x2="0.99324322"
       y2="0.96875000" />
    <defs
       id="defs2842">
      <linearGradient
         id="linearGradient2843">
        <stop
           style="stop-color:#ffffff;stop-opacity:1;"
           offset="0.00000000"
           id="stop2844" />
        <stop
           style="stop-color:#ffffff;stop-opacity:0;"
           offset="1.00000000"
           id="stop2845" />
      </linearGradient>
      <linearGradient
         id="linearGradient2846"
         x1="0.0000000"
         y1="0.50000000"
         x2="1.0000000"
         y2="0.50000000"
         gradientUnits="objectBoundingBox"
         spreadMethod="pad"
         xlink:href="#linearGradient2888" />
      <linearGradient
         xlink:href="#linearGradient578"
         id="linearGradient2849"
         x1="-0.00000000"
         y1="-0.00000000"
         x2="0.96428573"
         y2="0.98437500" />
      <linearGradient
         xlink:href="#linearGradient584"
         id="linearGradient2850"
         x1="0.00000000"
         y1="-0.00000000"
         x2="0.98717946"
         y2="1.00000000" />
      <linearGradient
         xlink:href="#linearGradient584"
         id="linearGradient860"
         x1="0.01086957"
         y1="0.05555556"
         x2="0.99637681"
         y2="0.94444442" />
      <linearGradient
         xlink:href="#linearGradient584"
         id="linearGradient861"
         x1="0.01811594"
         y1="0.00833333"
         x2="0.98913044"
         y2="1.00000000" />
      <linearGradient
         xlink:href="#linearGradient584"
         id="linearGradient862"
         x1="-0.28676471"
         y1="-0.21875000"
         x2="0.97887325"
         y2="1.03906250" />
      <radialGradient
         xlink:href="#linearGradient584"
         id="radialGradient595" />
      <linearGradient
         xlink:href="#linearGradient584"
         id="linearGradient612"
         x1="0.00000000"
         y1="0.00000000"
         x2="1.03389835"
         y2="1.02343750" />
      <linearGradient
         xlink:href="#linearGradient578"
         id="linearGradient613"
         x1="0.00000000"
         y1="0.00000000"
         x2="0.96874988"
         y2="1.00000012" />
    </defs>
    <sodipodi:namedview
       id="namedview2857"
       pagecolor="#ffffff"
       bordercolor="#666666"
       borderopacity="1.0"
       inkscape:pageopacity="0.0"
       inkscape:pageshadow="2"
       inkscape:zoom="5.64233871"
       inkscape:cx="25.7884720"
       inkscape:cy="24.7998202"
       inkscape:window-width="640"
       inkscape:window-height="535"
       inkscape:window-x="65"
       inkscape:window-y="68" />
    <linearGradient
       xlink:href="#linearGradient2888"
       id="linearGradient2891"
       x1="0.013513510"
       y1="0.046875000"
       x2="0.99324322"
       y2="0.96875000" />
  </defs>
  <sodipodi:namedview
     id="base"
     pagecolor="#ffffff"
     bordercolor="#666666"
     borderopacity="1.0"
     inkscape:pageopacity="0.0"
     inkscape:pageshadow="2"
     inkscape:zoom="11.000000"
     inkscape:cx="24.000000"
     inkscape:cy="23.745456"
     inkscape:window-width="1022"
     inkscape:window-height="695"
     inkscape:window-x="0"
     inkscape:window-y="26"
     showguides="true"
     inkscape:guide-bbox="true" />
  <metadata
     id="metadata43">
    <rdf:RDF
       id="RDF44">
      <cc:Work
         rdf:about=""
         id="Work45">
        <dc:format
           id="format46">image/svg+xml</dc:format>
        <dc:type
           id="type48"
           rdf:resource="http://purl.org/dc/dcmitype/StillImage" />
      </cc:Work>
    </rdf:RDF>
  </metadata>
  <path
     d="M 44.657106,31.207837 C 44.657106,32.659600 43.478907,33.837800 42.027144,33.837800 C 40.575380,33.837800 39.397118,32.659600 39.397118,31.207837 C 39.397118,29.756074 40.575380,28.577812 42.027144,28.577812 C 43.478907,28.577812 44.657106,29.756074 44.657106,31.207837 z M 58.740361,30.953285 C 58.740361,40.272641 51.176777,47.836160 41.857422,47.836160 C 32.538067,47.836160 24.974540,40.272641 24.974540,30.953285 C 24.974540,21.633930 32.538067,14.070347 41.857422,14.070347 C 51.176777,14.070347 58.740361,21.633930 58.740361,30.953285 z "
     style="font-size:12.000000;opacity:0.30267498;fill-rule:evenodd;stroke-width:12.500000;"
     id="path782" />
  <path
     d="M 43.422942,29.674056 C 43.422942,31.095655 42.269221,32.249377 40.847621,32.249377 C 39.426020,32.249377 38.272238,31.095655 38.272238,29.674056 C 38.272238,28.252457 39.426020,27.098675 40.847621,27.098675 C 42.269221,27.098675 43.422942,28.252457 43.422942,29.674056 z M 57.213587,29.424795 C 57.213587,38.550521 49.807152,45.956893 40.681426,45.956893 C 31.555698,45.956893 24.149319,38.550521 24.149319,29.424795 C 24.149319,20.299067 31.555698,12.892664 40.681426,12.892664 C 49.807152,12.892664 57.213587,20.299067 57.213587,29.424795 z "
     style="font-size:12.000000;fill:url(#linearGradient655);fill-rule:evenodd;stroke:#261933;stroke-width:1.1709703;"
     id="path773" />
  <path
     d="M 27.721571,37.981610 C 24.673494,34.602278 22.738302,20.575853 34.035333,15.384917 C 43.201388,11.209858 52.169826,17.900581 52.810547,19.787925 C 52.999505,20.319974 45.163881,13.695215 35.779985,18.541798 C 22.009674,25.591472 28.096516,38.408943 27.721571,37.981610 z "
     style="font-size:12.000000;opacity:0.69999999;fill:url(#linearGradient581);fill-rule:evenodd;stroke:none;stroke-width:0.077858597pt;"
     id="path774" />
  <path
     d="M 46.969209,29.791451 C 46.969209,33.030379 43.942929,35.773131 40.823314,35.878650 C 37.349473,35.878650 34.444484,32.971681 34.559899,29.732754 C 34.679458,26.376494 37.349473,23.410579 40.823314,23.410579 C 44.062179,23.410579 47.090872,26.437294 46.969209,29.791451 z M 45.333726,29.757062 C 45.333726,32.279251 43.286743,34.326234 40.764554,34.326234 C 38.242363,34.326234 36.195382,32.279251 36.195382,29.757062 C 36.195382,27.234872 38.242363,25.187888 40.764554,25.187888 C 43.286743,25.187888 45.333726,27.234872 45.333726,29.757062 z "
     style="font-size:12.000000;opacity:0.10089196;fill:#3f003f;fill-rule:evenodd;stroke-width:1.0000000pt;"
     id="path779" />
  <path
     d="M 41.595284,26.641714 C 41.592006,26.877184 43.013111,27.803475 43.215305,27.680142 C 46.374072,25.103956 52.566296,21.244720 52.644414,18.624865 C 52.698411,16.773581 43.387500,12.998907 43.090674,13.474132 C 41.811643,15.700880 41.666229,22.446992 41.595284,26.641714 z "
     style="font-size:12.000000;fill:url(#linearGradient583);fill-rule:evenodd;stroke-width:1.0000000pt;"
     id="path780" />
  <path
     d="M 40.506632,32.564017 C 40.485479,32.329475 38.976111,31.555401 38.787773,31.699020 C 35.912904,34.588547 30.153767,39.068529 30.347424,41.682321 C 30.485477,43.529275 40.137315,46.319035 40.383300,45.815687 C 41.424759,43.468414 40.870630,36.743523 40.506632,32.564017 z "
     style="font-size:12.000000;fill:url(#linearGradient654);fill-rule:evenodd;stroke-width:1.0000000pt;"
     id="path781" />
  <path
     d="M 34.403137,31.207837 C 34.403137,32.659600 33.224938,33.837800 31.773175,33.837800 C 30.321411,33.837800 29.143149,32.659600 29.143149,31.207837 C 29.143149,29.756074 30.321411,28.577812 31.773175,28.577812 C 33.224938,28.577812 34.403137,29.756074 34.403137,31.207837 z M 48.486392,30.953285 C 48.486392,40.272641 40.922808,47.836160 31.603453,47.836160 C 22.284098,47.836160 14.720570,40.272641 14.720570,30.953285 C 14.720570,21.633930 22.284098,14.070347 31.603453,14.070347 C 40.922808,14.070347 48.486392,21.633930 48.486392,30.953285 z "
     style="font-size:12.000000;opacity:0.30267498;fill-rule:evenodd;stroke-width:12.500000;"
     id="path991" />
  <path
     d="M 33.168973,29.674056 C 33.168973,31.095655 32.015252,32.249377 30.593652,32.249377 C 29.172052,32.249377 28.018270,31.095655 28.018270,29.674056 C 28.018270,28.252457 29.172052,27.098675 30.593652,27.098675 C 32.015252,27.098675 33.168973,28.252457 33.168973,29.674056 z M 46.959618,29.424795 C 46.959618,38.550521 39.553183,45.956893 30.427457,45.956893 C 21.301728,45.956893 13.895350,38.550521 13.895350,29.424795 C 13.895350,20.299067 21.301728,12.892664 30.427457,12.892664 C 39.553183,12.892664 46.959618,20.299067 46.959618,29.424795 z "
     style="font-size:12.000000;fill:url(#linearGradient655);fill-rule:evenodd;stroke:#261933;stroke-width:1.1709703;"
     id="path992" />
  <path
     d="M 17.467601,37.981610 C 14.419524,34.602278 12.484333,20.575853 23.781364,15.384917 C 32.947419,11.209858 41.915857,17.900581 42.556579,19.787925 C 42.745537,20.319974 34.909913,13.695215 25.526017,18.541798 C 11.755706,25.591472 17.842546,38.408943 17.467601,37.981610 z "
     style="font-size:12.000000;opacity:0.69999999;fill:url(#linearGradient581);fill-rule:evenodd;stroke:none;stroke-width:0.077858597pt;"
     id="path993" />
  <path
     d="M 36.948688,29.791451 C 36.948688,33.030379 33.922408,35.773131 30.802792,35.878650 C 27.328951,35.878650 24.423962,32.971681 24.539377,29.732754 C 24.658936,26.376494 27.328951,23.410579 30.802792,23.410579 C 34.041657,23.410579 37.070351,26.437294 36.948688,29.791451 z M 35.313204,29.757062 C 35.313204,32.279251 33.266222,34.326234 30.744032,34.326234 C 28.221842,34.326234 26.174860,32.279251 26.174860,29.757062 C 26.174860,27.234872 28.221842,25.187888 30.744032,25.187888 C 33.266222,25.187888 35.313204,27.234872 35.313204,29.757062 z "
     style="font-size:12.000000;opacity:0.10089196;fill:#3f003f;fill-rule:evenodd;stroke-width:1.0000000pt;"
     id="path994" />
  <path
     d="M 31.341315,26.641714 C 31.338037,26.877184 32.759143,27.803475 32.961336,27.680142 C 36.120103,25.103956 42.312327,21.244720 42.390446,18.624865 C 42.444442,16.773581 33.133531,12.998907 32.836705,13.474132 C 31.557674,15.700880 31.412260,22.446992 31.341315,26.641714 z "
     style="font-size:12.000000;fill:url(#linearGradient583);fill-rule:evenodd;stroke-width:1.0000000pt;"
     id="path995" />
  <path
     d="M 30.486110,32.564017 C 30.464957,32.329475 28.955589,31.555401 28.767251,31.699020 C 25.892383,34.588547 20.133245,39.068529 20.326903,41.682321 C 20.464956,43.529275 30.116794,46.319035 30.362778,45.815687 C 31.404238,43.468414 30.850108,36.743523 30.486110,32.564017 z "
     style="font-size:12.000000;fill:url(#linearGradient654);fill-rule:evenodd;stroke-width:1.0000000pt;"
     id="path996" />
  <path
     d="M 23.676522,31.207837 C 23.676522,32.659600 22.498322,33.837800 21.046559,33.837800 C 19.594796,33.837800 18.416534,32.659600 18.416534,31.207837 C 18.416534,29.756074 19.594796,28.577812 21.046559,28.577812 C 22.498322,28.577812 23.676522,29.756074 23.676522,31.207837 z M 37.759777,30.953285 C 37.759777,40.272641 30.196193,47.836160 20.876838,47.836160 C 11.557482,47.836160 3.9939551,40.272641 3.9939551,30.953285 C 3.9939551,21.633930 11.557482,14.070347 20.876838,14.070347 C 30.196193,14.070347 37.759777,21.633930 37.759777,30.953285 z "
     style="font-size:12.000000;opacity:0.30267498;fill-rule:evenodd;stroke-width:12.500000;"
     id="path1000" />
  <path
     d="M 22.442357,29.674056 C 22.442357,31.095655 21.288637,32.249377 19.867036,32.249377 C 18.445436,32.249377 17.291654,31.095655 17.291654,29.674056 C 17.291654,28.252457 18.445436,27.098675 19.867036,27.098675 C 21.288637,27.098675 22.442357,28.252457 22.442357,29.674056 z M 36.233002,29.424795 C 36.233002,38.550521 28.826567,45.956893 19.700841,45.956893 C 10.575114,45.956893 3.1687345,38.550521 3.1687345,29.424795 C 3.1687345,20.299067 10.575114,12.892664 19.700841,12.892664 C 28.826567,12.892664 36.233002,20.299067 36.233002,29.424795 z "
     style="font-size:12.000000;fill:url(#linearGradient655);fill-rule:evenodd;stroke:#261933;stroke-width:1.1709703;"
     id="path1001" />
  <path
     d="M 6.7409862,37.981610 C 3.6929091,34.602278 1.7577177,20.575853 13.054749,15.384917 C 22.220804,11.209858 31.189241,17.900581 31.829963,19.787925 C 32.018921,20.319974 24.183297,13.695215 14.799401,18.541798 C 1.0290892,25.591472 7.1159311,38.408943 6.7409862,37.981610 z "
     style="font-size:12.000000;opacity:0.69999999;fill:url(#linearGradient581);fill-rule:evenodd;stroke:none;stroke-width:0.077858597pt;"
     id="path1002" />
  <path
     d="M 25.988625,29.791451 C 25.988625,33.030379 22.962345,35.773131 19.842729,35.878650 C 16.368888,35.878650 13.463899,32.971681 13.579314,29.732754 C 13.698873,26.376494 16.368888,23.410579 19.842729,23.410579 C 23.081594,23.410579 26.110288,26.437294 25.988625,29.791451 z M 24.353142,29.757062 C 24.353142,32.279251 22.306159,34.326234 19.783969,34.326234 C 17.261779,34.326234 15.214797,32.279251 15.214797,29.757062 C 15.214797,27.234872 17.261779,25.187888 19.783969,25.187888 C 22.306159,25.187888 24.353142,27.234872 24.353142,29.757062 z "
     style="font-size:12.000000;opacity:0.10089196;fill:#3f003f;fill-rule:evenodd;stroke-width:1.0000000pt;"
     id="path1003" />
  <path
     d="M 20.614700,26.641714 C 20.611422,26.877184 22.032527,27.803475 22.234721,27.680142 C 25.393488,25.103956 31.585711,21.244720 31.663830,18.624865 C 31.717827,16.773581 22.406916,12.998907 22.110090,13.474132 C 20.831059,15.700880 20.685645,22.446992 20.614700,26.641714 z "
     style="font-size:12.000000;fill:url(#linearGradient583);fill-rule:evenodd;stroke-width:1.0000000pt;"
     id="path1004" />
  <path
     d="M 19.526047,32.564017 C 19.504895,32.329475 17.995527,31.555401 17.807188,31.699020 C 14.932320,34.588547 9.1731822,39.068529 9.3668398,41.682321 C 9.5048927,43.529275 19.156731,46.319035 19.402715,45.815687 C 20.444175,43.468414 19.890046,36.743523 19.526047,32.564017 z "
     style="font-size:12.000000;fill:url(#linearGradient654);fill-rule:evenodd;stroke-width:1.0000000pt;"
     id="path1005" />
</svg>
