<?xml version="1.0" encoding="UTF-8" standalone="no"?>
<!DOCTYPE svg PUBLIC "-//W3C//DTD SVG 20010904//EN"
"http://www.w3.org/TR/2001/REC-SVG-20010904/DTD/svg10.dtd">
<!-- Created with Inkscape (http://www.inkscape.org/) -->
<svg
   id="svg1"
   sodipodi:version="0.32"
   inkscape:version="0.39"
   width="48pt"
   height="48pt"
   sodipodi:docbase="/home/scaba/files/lila/devel/lila-gnome/Lila/scalable/stock"
   sodipodi:docname="stock_effects-sound3.svg"
   xmlns="http://www.w3.org/2000/svg"
   xmlns:inkscape="http://www.inkscape.org/namespaces/inkscape"
   xmlns:sodipodi="http://sodipodi.sourceforge.net/DTD/sodipodi-0.dtd"
   xmlns:xlink="http://www.w3.org/1999/xlink"
   xmlns:rdf="http://www.w3.org/1999/02/22-rdf-syntax-ns#"
   xmlns:cc="http://web.resource.org/cc/"
   xmlns:dc="http://purl.org/dc/elements/1.1/">
  <defs
     id="defs3">
    <linearGradient
       id="linearGradient584">
      <stop
         style="stop-color:#ffffff;stop-opacity:1;"
         offset="0.00000000"
         id="stop585" />
      <stop
         style="stop-color:#ffffff;stop-opacity:0;"
         offset="1.00000000"
         id="stop586" />
    </linearGradient>
    <linearGradient
       id="linearGradient578">
      <stop
         style="stop-color:#d9cce6;stop-opacity:1;"
         offset="0.00000000"
         id="stop579" />
      <stop
         style="stop-color:#73667f;stop-opacity:1;"
         offset="1.00000000"
         id="stop580" />
    </linearGradient>
    <linearGradient
       xlink:href="#linearGradient578"
       id="linearGradient581"
       x1="-0.00000000"
       y1="-0.00000000"
       x2="0.96428573"
       y2="0.98437500" />
    <linearGradient
       xlink:href="#linearGradient584"
       id="linearGradient583"
       x1="0.00000000"
       y1="-0.00000000"
       x2="0.98717946"
       y2="1.00000000" />
    <linearGradient
       xlink:href="#linearGradient584"
       id="linearGradient860"
       x1="0.01086957"
       y1="0.05555556"
       x2="0.99637681"
       y2="0.94444442" />
    <linearGradient
       xlink:href="#linearGradient584"
       id="linearGradient861"
       x1="0.01811594"
       y1="0.00833333"
       x2="0.98913044"
       y2="1.00000000" />
    <linearGradient
       xlink:href="#linearGradient584"
       id="linearGradient862"
       x1="-0.28676471"
       y1="-0.21875000"
       x2="0.97887325"
       y2="1.03906250" />
    <radialGradient
       xlink:href="#linearGradient584"
       id="radialGradient595" />
    <linearGradient
       xlink:href="#linearGradient584"
       id="linearGradient612"
       x1="0.00000000"
       y1="0.00000000"
       x2="1.03389835"
       y2="1.02343750" />
    <linearGradient
       xlink:href="#linearGradient578"
       id="linearGradient613"
       x1="0.00000000"
       y1="0.00000000"
       x2="0.96874988"
       y2="1.00000012" />
  </defs>
  <sodipodi:namedview
     id="base"
     pagecolor="#ffffff"
     bordercolor="#666666"
     borderopacity="1.0"
     inkscape:pageopacity="0.0"
     inkscape:pageshadow="2"
     inkscape:zoom="5.6423387"
     inkscape:cx="25.788472"
     inkscape:cy="24.799820"
     inkscape:window-width="640"
     inkscape:window-height="535"
     inkscape:window-x="65"
     inkscape:window-y="68" />
  <path
     style="opacity:0.29999998;fill:#000000;fill-opacity:1.0000000;fill-rule:evenodd;stroke:none;stroke-width:1.8750000;stroke-linecap:butt;stroke-linejoin:miter;stroke-opacity:1.0000000;"
     d="M 37.035074,7.1646902 C 32.659488,17.490655 30.864194,29.675541 25.954706,39.680777 C 24.310025,42.968872 15.512959,35.277344 9.9070783,43.850679 C 5.8903883,50.121562 9.8618383,58.123695 19.921678,59.012123 C 29.768430,59.882430 29.869405,46.620607 31.257656,42.305462 C 34.392367,32.044365 35.293302,29.546593 37.680998,23.373719 C 38.525380,21.334018 40.989992,21.840643 43.785662,22.974295 C 47.235455,24.373194 57.456615,21.444156 57.623576,20.896985 C 57.776884,20.394561 48.444809,19.217032 45.612786,16.953221 C 43.945603,15.456941 42.547355,10.075860 40.491100,7.2286386 C 40.001822,6.5511522 37.378269,6.3547834 37.035074,7.1646902 z "
     id="path646"
     sodipodi:nodetypes="cssssssssss" />
  <path
     style="font-size:12.000000;fill:url(#linearGradient581);fill-rule:evenodd;stroke:#261933;stroke-width:2.4903131;"
     d="M 33.679302,5.0685770 C 29.395287,15.178438 27.637566,27.108322 22.830821,36.904169 C 21.220559,40.123452 12.607599,32.592890 7.1190369,40.986803 C 3.1864073,47.126450 7.0747440,54.961115 16.924054,55.830950 C 26.564733,56.683045 26.663595,43.698764 28.022793,39.473924 C 31.091901,29.427572 32.634026,25.531483 34.971750,19.487795 C 35.798461,17.490781 37.850323,18.329836 40.587485,19.439761 C 43.965082,20.809384 53.673460,19.049203 53.836929,18.513482 C 53.987029,18.021573 45.741345,16.955574 42.968587,14.739141 C 41.336297,13.274173 39.076223,7.9188213 37.063001,5.1311869 C 36.583961,4.4678790 34.015314,4.2756201 33.679302,5.0685770 z "
     id="path644"
     sodipodi:nodetypes="cssssssssss" />
  <path
     style="fill:url(#linearGradient583);fill-opacity:1.0000000;fill-rule:evenodd;stroke:none;stroke-width:1.0000000pt;stroke-linecap:butt;stroke-linejoin:miter;stroke-opacity:1.0000000;"
     d="M 7.1515445,46.786305 C 6.9297203,46.399307 7.4054789,42.855768 11.394627,40.118662 C 16.123542,36.996324 21.627262,42.209268 23.307404,39.057636 C 28.117216,30.346376 31.119612,16.461887 35.029731,6.5074980 C 35.268855,5.8987307 36.573002,7.7941857 36.149812,8.3603815 C 32.250513,13.351605 28.643434,31.263362 24.032814,39.918300 C 22.329568,43.066237 18.501878,39.077055 12.369627,41.799413 C 7.4728072,43.907974 7.3469339,47.127181 7.1515445,46.786305 z "
     id="path645"
     sodipodi:nodetypes="csssssss" />
  <metadata
     id="metadata25">
    <rdf:RDF
       id="RDF26">
      <cc:Work
         rdf:about=""
         id="Work27">
        <dc:format
           id="format28">image/svg+xml</dc:format>
        <dc:type
           id="type30"
           rdf:resource="http://purl.org/dc/dcmitype/StillImage" />
      </cc:Work>
    </rdf:RDF>
  </metadata>
</svg>
