<?xml version="1.0" encoding="UTF-8" standalone="no"?>
<!DOCTYPE svg PUBLIC "-//W3C//DTD SVG 20010904//EN"
"http://www.w3.org/TR/2001/REC-SVG-20010904/DTD/svg10.dtd">
<!-- Created with Inkscape (http://www.inkscape.org/) -->
<svg
   id="svg1"
   sodipodi:version="0.32"
   inkscape:version="0.38.1"
   width="48pt"
   height="48pt"
   sodipodi:docbase="/home/ed"
   sodipodi:docname="vim-session-load.svg"
   xmlns="http://www.w3.org/2000/svg"
   xmlns:inkscape="http://www.inkscape.org/namespaces/inkscape"
   xmlns:sodipodi="http://sodipodi.sourceforge.net/DTD/sodipodi-0.dtd"
   xmlns:xlink="http://www.w3.org/1999/xlink">
  <defs
     id="defs3">
    <linearGradient
       id="linearGradient866">
      <stop
         style="stop-color:#faf8fd;stop-opacity:1;"
         offset="0.00000000"
         id="stop867" />
      <stop
         style="stop-color:#d9cce6;stop-opacity:1;"
         offset="1.00000000"
         id="stop868" />
    </linearGradient>
    <linearGradient
       id="linearGradient584">
      <stop
         style="stop-color:#ffffff;stop-opacity:1;"
         offset="0.00000000"
         id="stop585" />
      <stop
         style="stop-color:#ffffff;stop-opacity:0;"
         offset="1.00000000"
         id="stop586" />
    </linearGradient>
    <linearGradient
       id="linearGradient578">
      <stop
         style="stop-color:#d9cce6;stop-opacity:1;"
         offset="0.00000000"
         id="stop579" />
      <stop
         style="stop-color:#73667f;stop-opacity:1;"
         offset="1.00000000"
         id="stop580" />
    </linearGradient>
    <linearGradient
       xlink:href="#linearGradient584"
       id="linearGradient581"
       x1="-0.00684932"
       y1="0.00775194"
       x2="0.97945207"
       y2="1.00000000" />
    <linearGradient
       xlink:href="#linearGradient584"
       id="linearGradient583"
       x1="0.01094890"
       y1="0.01030928"
       x2="1.01459849"
       y2="0.96907216" />
    <linearGradient
       xlink:href="#linearGradient584"
       id="linearGradient860"
       x1="-0.02500000"
       y1="0.03100775"
       x2="0.97500002"
       y2="0.97674417" />
    <linearGradient
       xlink:href="#linearGradient578"
       id="linearGradient861"
       x1="0.00000000"
       y1="0.02325581"
       x2="0.98611110"
       y2="0.97674417" />
    <linearGradient
       xlink:href="#linearGradient578"
       id="linearGradient862"
       x1="-0.00000000"
       y1="0.00775194"
       x2="1.00000000"
       y2="0.99224806" />
    <linearGradient
       xlink:href="#linearGradient866"
       id="linearGradient869"
       x1="-0.00684932"
       y1="0.00775194"
       x2="0.97945207"
       y2="1.00000000" />
    <defs
       id="defs850">
      <linearGradient
         id="linearGradient851">
        <stop
           style="stop-color:#ffffff;stop-opacity:1;"
           offset="0.00000000"
           id="stop852" />
        <stop
           style="stop-color:#d9cce6;stop-opacity:1;"
           offset="1.00000000"
           id="stop853" />
      </linearGradient>
      <linearGradient
         id="linearGradient854">
        <stop
           style="stop-color:#ffffff;stop-opacity:1;"
           offset="0.00000000"
           id="stop855" />
        <stop
           style="stop-color:#ffffff;stop-opacity:0;"
           offset="1.00000000"
           id="stop856" />
      </linearGradient>
      <linearGradient
         id="linearGradient857">
        <stop
           style="stop-color:#d9cce6;stop-opacity:1;"
           offset="0.00000000"
           id="stop858" />
        <stop
           style="stop-color:#73667f;stop-opacity:1;"
           offset="1.00000000"
           id="stop859" />
      </linearGradient>
      <linearGradient
         xlink:href="#linearGradient584"
         id="linearGradient863"
         x1="0.010948900"
         y1="0.010309280"
         x2="0.68695652"
         y2="0.72656250" />
      <linearGradient
         xlink:href="#linearGradient584"
         id="linearGradient864"
         x1="0.01094890"
         y1="0.01030928"
         x2="1.01459849"
         y2="0.96907216" />
      <linearGradient
         xlink:href="#linearGradient584"
         id="linearGradient865"
         x1="0.010948900"
         y1="0.010309280"
         x2="0.83277589"
         y2="0.71875000" />
      <linearGradient
         xlink:href="#linearGradient578"
         id="linearGradient867"
         x1="0.00000000"
         y1="0.02325581"
         x2="0.98611110"
         y2="0.97674417" />
      <linearGradient
         xlink:href="#linearGradient578"
         id="linearGradient868"
         x1="-0.00000000"
         y1="0.00775194"
         x2="1.00000000"
         y2="0.99224806" />
      <linearGradient
         xlink:href="#linearGradient578"
         id="linearGradient870"
         x1="-0.00684932"
         y1="0.00775194"
         x2="0.97945207"
         y2="1.00000000" />
    </defs>
    <sodipodi:namedview
       id="namedview871"
       pagecolor="#ffffff"
       bordercolor="#666666"
       borderopacity="1.0"
       inkscape:pageopacity="0.0"
       inkscape:pageshadow="2"
       inkscape:zoom="15.958944"
       inkscape:cx="12.882328"
       inkscape:cy="12.067810"
       inkscape:window-width="640"
       inkscape:window-height="525"
       inkscape:window-x="204"
       inkscape:window-y="142" />
  </defs>
  <sodipodi:namedview
     id="base"
     pagecolor="#ffffff"
     bordercolor="#666666"
     borderopacity="1.0"
     inkscape:pageopacity="0.0"
     inkscape:pageshadow="2"
     inkscape:zoom="3.9897360"
     inkscape:cx="51.187269"
     inkscape:cy="18.120709"
     inkscape:window-width="640"
     inkscape:window-height="516"
     inkscape:window-x="318"
     inkscape:window-y="351" />
  <path
     d="M 10.991627,56.860918 C 2.4994270,53.230391 1.2408370,22.304498 2.9942370,9.2696582 C 3.5569370,5.0860485 15.657947,3.7633965 19.513617,4.2877571 C 21.120767,4.5063794 21.092517,11.790104 22.922327,11.760671 C 31.974247,11.615277 44.121187,1.0611230 50.585497,4.6810877 C 56.139237,7.7911705 60.179707,30.723586 55.567397,36.802042 C 46.981797,48.116865 19.980067,60.703540 10.991627,56.860918 z "
     style="font-size:12;opacity:0.302675;fill-rule:evenodd;stroke-width:18.75;stroke-linecap:round;stroke-linejoin:round;"
     id="path574" />
  <path
     d="M 11.862887,53.299187 C 4.1666070,50.008941 3.0259570,21.981660 4.6150570,10.168546 C 5.1250670,6.3770548 16.091837,5.1783713 19.586137,5.6535857 C 21.042647,5.8517162 21.017047,12.452755 22.675347,12.426080 C 30.878857,12.294315 41.887297,2.7293654 47.745717,6.0100494 C 52.778917,8.8286322 56.440687,29.611647 52.260677,35.120383 C 44.479777,45.374693 20.008857,56.781650 11.862887,53.299187 z "
     style="font-size:12;fill:url(#linearGradient862);fill-rule:evenodd;stroke:#261933;stroke-width:1.875;stroke-linecap:round;stroke-linejoin:round;stroke-dasharray:none;"
     id="path562" />
  <path
     d="M 11.981637,50.804154 C 7.1366770,46.913276 4.6693470,20.372840 6.8726070,11.119080 C 7.6397470,7.8970279 18.401547,7.3304942 18.754347,8.5051893 C 15.761727,8.6334053 11.264407,11.470382 10.555897,14.446006 C 8.2939470,23.946193 11.315607,48.210917 11.981637,50.804154 z "
     style="font-size:12;opacity:0.7;fill:url(#linearGradient860);fill-rule:evenodd;stroke:none;stroke-width:1pt;"
     id="path567" />
  <path
     d="M 24.576307,14.564865 C 35.495577,12.591619 43.596147,6.0777061 45.844647,7.9111187 C 46.453137,8.4348443 37.954677,13.204621 32.774767,14.921436 C 31.023637,15.501738 24.054087,14.658229 24.576307,14.564865 z "
     style="font-size:12;opacity:0.699936;fill:url(#linearGradient583);fill-rule:evenodd;stroke:none;stroke-width:1pt;"
     id="path568" />
  <path
     d="M 12.503647,53.530557 C 10.421337,53.197217 9.3667870,30.607777 14.688037,25.436682 C 23.257477,17.108933 45.082137,11.979466 54.175837,14.178270 C 58.748887,15.284126 56.222767,30.436442 51.991447,35.550958 C 42.980027,46.562298 21.078147,54.800876 12.503647,53.530557 z "
     style="font-size:12;fill:url(#linearGradient861);fill-rule:evenodd;stroke:#261933;stroke-width:1.875;stroke-linecap:round;stroke-linejoin:round;stroke-dasharray:none;"
     id="path576"
     sodipodi:nodetypes="ccccc" />
  <path
     d="M 14.121927,49.829848 C 11.340027,44.614115 13.996617,29.895400 16.138417,27.286780 C 25.511317,17.260884 50.418837,15.781961 52.385947,16.712382 C 36.834047,19.029612 29.503807,21.177473 20.415877,30.138383 C 16.376127,34.772309 13.598207,42.677657 14.121927,49.829848 z "
     style="font-size:12;opacity:0.7;fill:url(#linearGradient581);fill-rule:evenodd;stroke:none;stroke-width:1.25;"
     id="path577"
     sodipodi:nodetypes="ccccc" />
  <path
     d="M 39.489467,33.921648 C 47.051827,32.555042 52.662057,28.043695 54.219297,29.313462 C 54.640717,29.676179 48.754947,32.979585 45.167477,34.168603 C 43.954697,34.570503 39.127797,33.986313 39.489467,33.921648 z "
     style="font-size:12.000000;opacity:0.69993597;fill:url(#linearGradient583);fill-rule:evenodd;stroke-width:1.0000000pt;"
     id="path872" />
  <path
     d="M 43.197047,34.823147 C 41.502197,31.320158 38.496927,29.158320 34.555637,28.912418 C 29.490417,29.180342 27.607647,34.110373 28.220907,39.551318 C 30.590667,49.722603 35.518887,53.060392 43.130347,58.505707 C 51.577387,53.004598 56.529987,49.866477 58.736947,39.703264 C 58.632247,34.292419 57.778727,29.264762 51.683527,29.026939 C 46.608267,29.043075 44.465847,31.294466 43.197047,34.823147 z "
     style="font-size:12.000000;fill-opacity:0.29999998;fill-rule:evenodd;stroke-width:1.8750000;stroke-opacity:0.24999996;"
     id="path623" />
  <path
     d="M 41.393017,31.203028 C 39.698177,27.700037 36.692897,25.538201 32.751627,25.292299 C 27.686397,25.560223 25.803617,30.490253 26.416877,35.931200 C 28.786657,46.102485 33.714867,49.440274 41.326317,54.885590 C 49.773377,49.384482 54.725977,46.246359 56.932917,36.083145 C 57.585967,30.672300 55.974707,25.644643 49.879517,25.406820 C 44.804247,25.422956 42.661827,27.674347 41.393017,31.203028 z "
     style="font-size:12.000000;fill:url(#linearGradient869);fill-rule:evenodd;stroke:#261933;stroke-width:1.8750000;stroke-linecap:round;stroke-linejoin:round;stroke-dasharray:none;"
     id="path618" />
  <path
     d="M 33.407127,26.338015 C 31.657987,26.441171 29.246987,27.266870 28.247957,29.944089 C 27.040847,32.992833 27.245717,35.860942 28.200697,38.412936 C 28.206967,35.701594 29.190247,32.381268 30.655747,30.147968 C 32.073957,28.792296 33.535827,27.906739 38.150027,28.804213 C 36.145797,26.722183 34.822167,26.547336 33.407127,26.338015 z "
     style="font-size:12.000000;fill:url(#linearGradient581);fill-opacity:1.00000000;fill-rule:evenodd;stroke-width:1.0000000pt;"
     id="path619" />
  <path
     d="M 41.475127,31.681491 C 41.475127,38.685295 41.367297,47.827963 41.367297,54.831766 C 46.255387,51.340509 48.102787,51.062491 52.117257,46.357808 C 53.989287,44.463162 56.165757,39.471035 56.852177,36.490695 C 56.519357,34.383166 56.922987,30.099233 53.969347,26.714416 C 49.663687,25.351975 45.369077,23.595417 41.475127,31.681491 z "
     style="font-size:12.000000;fill:#261e2e;fill-opacity:0.20000000;fill-rule:evenodd;stroke-width:1.0000000pt;"
     id="path622" />
  <path
     d="M 54.592747,40.145209 C 52.022577,45.931934 50.997457,46.200541 49.291827,48.190984 C 46.837387,50.362374 45.381767,51.441287 42.552927,53.101764 C 45.152957,50.930373 46.148427,49.915739 47.974777,48.191609 C 50.472957,45.309151 51.720567,44.749504 54.592747,40.145209 z "
     style="font-size:12.000000;fill:url(#linearGradient612);fill-opacity:1.00000000;fill-rule:evenodd;stroke-width:1.0000000pt;"
     id="path620" />
  <path
     d="M 49.362607,26.453013 C 47.613477,26.556168 43.404667,27.841858 42.517997,31.669055 C 45.693037,28.852912 46.662617,28.586340 48.521397,27.963009 C 50.445227,27.642319 51.457667,27.676744 54.667337,28.746714 C 52.663087,26.664684 51.002377,26.374839 49.362607,26.453013 z "
     style="font-size:12.000000;fill:url(#linearGradient860);fill-opacity:1.00000000;fill-rule:evenodd;stroke-width:1.0000000pt;"
     id="path591" />
</svg>
