<?xml version="1.0" encoding="UTF-8" standalone="no"?>
<!DOCTYPE svg PUBLIC "-//W3C//DTD SVG 20010904//EN"
"http://www.w3.org/TR/2001/REC-SVG-20010904/DTD/svg10.dtd">
<!-- Created with Inkscape (http://www.inkscape.org/) -->
<svg
   id="svg1"
   sodipodi:version="0.32"
   inkscape:version="0.38.1"
   width="48pt"
   height="48pt"
   sodipodi:docbase="/home/ed"
   sodipodi:docname="vim-session-save.svg"
   xmlns="http://www.w3.org/2000/svg"
   xmlns:inkscape="http://www.inkscape.org/namespaces/inkscape"
   xmlns:sodipodi="http://sodipodi.sourceforge.net/DTD/sodipodi-0.dtd"
   xmlns:xlink="http://www.w3.org/1999/xlink">
  <defs
     id="defs3">
    <linearGradient
       id="linearGradient1034">
      <stop
         offset="0.0000000"
         style="stop-color:#cccccc;stop-opacity:1.0000000;"
         id="stop1036" />
      <stop
         offset="1.0000000"
         style="stop-color:#7f7f7f;stop-opacity:1.0000000;"
         id="stop1035" />
    </linearGradient>
    <linearGradient
       id="linearGradient866">
      <stop
         style="stop-color:#faf8fd;stop-opacity:1;"
         offset="0.00000000"
         id="stop867" />
      <stop
         style="stop-color:#d9cce6;stop-opacity:1;"
         offset="1.00000000"
         id="stop868" />
    </linearGradient>
    <linearGradient
       id="linearGradient584">
      <stop
         style="stop-color:#ffffff;stop-opacity:1;"
         offset="0.00000000"
         id="stop585" />
      <stop
         style="stop-color:#ffffff;stop-opacity:0;"
         offset="1.00000000"
         id="stop586" />
    </linearGradient>
    <linearGradient
       id="linearGradient578">
      <stop
         style="stop-color:#d9cce6;stop-opacity:1;"
         offset="0.00000000"
         id="stop579" />
      <stop
         style="stop-color:#73667f;stop-opacity:1;"
         offset="1.00000000"
         id="stop580" />
    </linearGradient>
    <linearGradient
       xlink:href="#linearGradient584"
       id="linearGradient581"
       x1="-0.00684932"
       y1="0.00775194"
       x2="0.97945207"
       y2="1.00000000" />
    <linearGradient
       xlink:href="#linearGradient584"
       id="linearGradient583"
       x1="0.01094890"
       y1="0.01030928"
       x2="1.01459849"
       y2="0.96907216" />
    <linearGradient
       xlink:href="#linearGradient584"
       id="linearGradient860"
       x1="-0.02500000"
       y1="0.03100775"
       x2="0.97500002"
       y2="0.97674417" />
    <linearGradient
       xlink:href="#linearGradient578"
       id="linearGradient861"
       x1="0.00000000"
       y1="0.02325581"
       x2="0.98611110"
       y2="0.97674417" />
    <linearGradient
       xlink:href="#linearGradient866"
       id="linearGradient862"
       x1="1.2078012e-16"
       y1="0.0077519398"
       x2="1.0000000"
       y2="0.99224806" />
    <linearGradient
       xlink:href="#linearGradient866"
       id="linearGradient869"
       x1="-0.00684932"
       y1="0.00775194"
       x2="0.97945207"
       y2="1.00000000" />
    <defs
       id="defs850">
      <linearGradient
         id="linearGradient851">
        <stop
           style="stop-color:#ffffff;stop-opacity:1;"
           offset="0.00000000"
           id="stop852" />
        <stop
           style="stop-color:#d9cce6;stop-opacity:1;"
           offset="1.00000000"
           id="stop853" />
      </linearGradient>
      <linearGradient
         id="linearGradient854">
        <stop
           style="stop-color:#ffffff;stop-opacity:1;"
           offset="0.00000000"
           id="stop855" />
        <stop
           style="stop-color:#ffffff;stop-opacity:0;"
           offset="1.00000000"
           id="stop856" />
      </linearGradient>
      <linearGradient
         id="linearGradient857">
        <stop
           style="stop-color:#d9cce6;stop-opacity:1;"
           offset="0.00000000"
           id="stop858" />
        <stop
           style="stop-color:#73667f;stop-opacity:1;"
           offset="1.00000000"
           id="stop859" />
      </linearGradient>
      <linearGradient
         xlink:href="#linearGradient584"
         id="linearGradient863"
         x1="0.010948900"
         y1="0.010309280"
         x2="0.68695652"
         y2="0.72656250" />
      <linearGradient
         xlink:href="#linearGradient584"
         id="linearGradient864"
         x1="0.01094890"
         y1="0.01030928"
         x2="1.01459849"
         y2="0.96907216" />
      <linearGradient
         xlink:href="#linearGradient584"
         id="linearGradient865"
         x1="0.010948900"
         y1="0.010309280"
         x2="0.83277589"
         y2="0.71875000" />
      <linearGradient
         xlink:href="#linearGradient578"
         id="linearGradient867"
         x1="0.00000000"
         y1="0.02325581"
         x2="0.98611110"
         y2="0.97674417" />
      <linearGradient
         xlink:href="#linearGradient578"
         id="linearGradient868"
         x1="-0.00000000"
         y1="0.00775194"
         x2="1.00000000"
         y2="0.99224806" />
      <linearGradient
         xlink:href="#linearGradient578"
         id="linearGradient870"
         x1="-0.00684932"
         y1="0.00775194"
         x2="0.97945207"
         y2="1.00000000" />
    </defs>
    <sodipodi:namedview
       id="namedview871"
       pagecolor="#ffffff"
       bordercolor="#666666"
       borderopacity="1.0"
       inkscape:pageopacity="0.0"
       inkscape:pageshadow="2"
       inkscape:zoom="15.958944"
       inkscape:cx="12.882328"
       inkscape:cy="12.067810"
       inkscape:window-width="640"
       inkscape:window-height="525"
       inkscape:window-x="204"
       inkscape:window-y="142" />
    <defs
       id="defs904">
      <linearGradient
         id="linearGradient916"
         x1="0.0000000"
         y1="0.50000000"
         x2="1.0000000"
         y2="0.50000000"
         gradientUnits="objectBoundingBox"
         spreadMethod="pad"
         xlink:href="#linearGradient1034" />
      <linearGradient
         id="linearGradient908">
        <stop
           style="stop-color:#ffffff;stop-opacity:1;"
           offset="0.00000000"
           id="stop909" />
        <stop
           style="stop-color:#d9d1e1;stop-opacity:1;"
           offset="1.00000000"
           id="stop910" />
      </linearGradient>
      <linearGradient
         id="linearGradient911">
        <stop
           style="stop-color:#ffffff;stop-opacity:1;"
           offset="0.00000000"
           id="stop912" />
        <stop
           style="stop-color:#ffffff;stop-opacity:0;"
           offset="1.00000000"
           id="stop913" />
      </linearGradient>
      <linearGradient
         id="linearGradient914">
        <stop
           style="stop-color:#d9cce6;stop-opacity:1;"
           offset="0.00000000"
           id="stop915" />
        <stop
           style="stop-color:#73667f;stop-opacity:1;"
           offset="1.00000000"
           id="stop916" />
      </linearGradient>
      <linearGradient
         xlink:href="#linearGradient584"
         id="linearGradient917"
         x1="0.00649351"
         y1="0.00000000"
         x2="0.96753246"
         y2="0.97674417" />
      <linearGradient
         xlink:href="#linearGradient584"
         id="linearGradient918"
         x1="-0.03076923"
         y1="0.02325581"
         x2="0.97692305"
         y2="1.03100777" />
      <linearGradient
         xlink:href="#linearGradient584"
         id="linearGradient919"
         x1="-0.01219512"
         y1="0.00775194"
         x2="0.98780489"
         y2="0.99224806" />
      <linearGradient
         xlink:href="#linearGradient578"
         id="linearGradient920"
         x1="0.01562500"
         y1="0.01550388"
         x2="0.98437500"
         y2="0.97674417" />
      <linearGradient
         xlink:href="#linearGradient866"
         id="linearGradient921"
         x1="0.00617284"
         y1="0.01550388"
         x2="1.00000000"
         y2="0.96899223" />
      <linearGradient
         xlink:href="#linearGradient916"
         id="linearGradient922"
         x1="0.00641026"
         y1="0.01550388"
         x2="0.97435898"
         y2="0.95348835" />
      <linearGradient
         xlink:href="#linearGradient578"
         id="linearGradient915"
         x1="0.97727275"
         y1="0.98449612"
         x2="-0.01136364"
         y2="0.01550388" />
    </defs>
    <sodipodi:namedview
       id="namedview924"
       pagecolor="#ffffff"
       bordercolor="#666666"
       borderopacity="1.0"
       inkscape:pageopacity="0.0"
       inkscape:pageshadow="2"
       inkscape:zoom="7.97947193"
       inkscape:cx="26.4570195"
       inkscape:cy="23.7684983"
       inkscape:window-width="640"
       inkscape:window-height="516"
       inkscape:window-x="156"
       inkscape:window-y="122" />
    <linearGradient
       xlink:href="#linearGradient1034"
       id="linearGradient1037"
       x1="-0.0068493201"
       y1="0.0077519398"
       x2="0.97945207"
       y2="1.0000000" />
  </defs>
  <sodipodi:namedview
     id="base"
     pagecolor="#ffffff"
     bordercolor="#666666"
     borderopacity="1.0"
     inkscape:pageopacity="0.0"
     inkscape:pageshadow="2"
     inkscape:zoom="7.9794719"
     inkscape:cx="36.533349"
     inkscape:cy="23.131362"
     inkscape:window-width="640"
     inkscape:window-height="516"
     inkscape:window-x="886"
     inkscape:window-y="475" />
  <path
     d="M 6.5957754 48.029272 C 7.897839 49.834454 46.730744 59.997026 48.448343 59.06577 C 50.085315 58.04166 60.198879 12.904766 59.054834 11.19328 C 58.162465 9.7950239 16.750181 4.428659 15.482296 5.6034291 C 14.161082 6.9769061 5.5131417 46.329592 6.5957754 48.029272 z "
     style="font-size:12.000000;opacity:0.30267498;fill-rule:evenodd;stroke-width:12.500000;"
     id="path1382" />
  <path
     d="M 3.6974536 44.603983 C 4.9995159 46.409163 43.832423 56.571737 45.550021 55.640479 C 47.186992 54.61637 57.300557 9.4794762 56.15651 7.7679903 C 55.264143 6.3697341 13.851859 1.0033693 12.583974 2.178138 C 11.26276 3.5516377 2.6148185 42.904301 3.6974536 44.603983 z "
     style="font-size:12.000000;fill:url(#linearGradient861);fill-rule:evenodd;stroke:#261933;stroke-width:1.8750000;"
     id="path1289" />
  <path
     d="M 11.007285 46.610677 C 11.676113 41.1163 12.918387 36.195265 14.303891 31.274229 C 23.477029 33.13748 32.363602 35.28751 41.393404 37.724103 C 40.342315 43.122888 39.147889 48.665113 37.666794 53.777226 C 28.302578 52.152796 19.941602 49.525019 11.007285 46.610677 z "
     style="font-size:12.000000;fill:#595161;fill-rule:evenodd;stroke:#261933;stroke-width:1.2500000;"
     id="path1294" />
  <path
     d="M 19.463853 2.8947939 C 17.648344 9.2969353 15.832835 16.558972 15.020567 23.391108 C 24.050369 25.923293 34.513525 28.168808 43.686768 29.840982 C 45.693356 22.340018 47.413273 14.409048 48.703289 6.7647488 C 39.625638 5.1880827 28.541399 3.3247883 19.463853 2.8947939 z "
     style="font-size:12.000000;fill:url(#linearGradient862);fill-rule:evenodd;stroke:#261933;stroke-width:1.2500000;"
     id="path1295" />
  <path
     d="M 16.721197 35.501881 C 16.04552 38.13693 15.369841 40.772084 14.694162 43.407133 C 15.707628 43.677363 16.506195 43.947698 17.519658 44.217927 C 18.060222 41.650435 18.959124 38.796166 19.571355 36.228673 C 18.693005 35.890887 17.742882 35.696331 16.721197 35.501881 z M 11.684969 46.259794 C 12.335986 41.171814 13.660252 36.749764 14.741273 32.020123 C 21.633062 33.350927 29.384864 35.122991 36.204985 37.098804 C 35.195631 41.959552 33.690126 47.074591 32.394101 52.078676 C 25.430644 50.616869 18.57676 48.796616 11.684969 46.259794 z "
     style="font-size:12.000000;fill:url(#linearGradient1037);fill-rule:evenodd;stroke-width:6.2500000;"
     id="path1306"
     sodipodi:nodetypes="cccccccccc" />
  <path
     d="M 5.9907637 43.313966 C 5.582575 42.267936 12.259889 6.4493066 14.590666 4.4712705 C 16.914804 2.4771924 52.320924 8.6171469 52.716676 9.6312432 C 53.085342 10.575992 25.225297 4.0715333 17.31393 9.7744719 C 9.6499217 15.299096 6.3469935 44.22678 5.9907637 43.313966 z "
     style="font-size:12.000000;opacity:0.69999999;fill:url(#linearGradient581);fill-rule:evenodd;stroke-width:1.0000000pt;"
     id="path1310" />
  <path
     d="M 12.489796 45.022735 C 12.402743 44.823752 14.595032 33.369371 15.356501 32.982892 C 16.49317 32.357804 24.514779 34.505091 24.601306 34.702915 C 24.681933 34.887249 18.231111 33.404677 16.468298 34.72821 C 14.678821 36.089156 12.570001 45.206014 12.489796 45.022735 z "
     style="font-size:12.000000;opacity:0.69999999;fill:url(#linearGradient583);fill-rule:evenodd;stroke-width:1.0000000pt;"
     id="path1315"
     sodipodi:nodetypes="ccccc" />
  <path
     d="M 15.522239 44.173978 C 15.479661 44.06753 17.299175 45.244249 17.672269 44.818985 C 18.493601 43.88267 19.060617 39.976679 19.105515 40.089028 C 19.156104 40.215607 18.952062 44.826363 18.156552 45.733275 C 17.757639 46.188048 15.575253 44.306351 15.522239 44.173978 z "
     style="font-size:12.000000;opacity:0.99000001;fill:url(#linearGradient860);fill-rule:evenodd;stroke-width:1.0000000pt;"
     id="path1316" />
  <path
     d="M 21.328475 9.5736994 C 28.526013 10.698881 36.827861 12.408153 43.688139 14.340753 C 44.131002 14.46554 43.698046 15.817951 43.23779 15.746071 C 36.096745 14.629953 27.800482 12.724859 20.884559 10.776555 C 20.497448 10.667474 20.924819 9.5106721 21.328475 9.5736994 z "
     style="font-size:12.000000;opacity:0.24999996;fill-rule:evenodd;stroke-width:1.0000000pt;"
     id="path1379" />
  <path
     d="M 19.632694 17.804513 C 26.83023 18.929483 35.13208 20.638756 41.992356 22.571463 C 42.43522 22.696248 42.002157 24.048658 41.542114 23.976781 C 34.401069 22.860556 26.104702 20.955569 19.188777 19.007263 C 18.801665 18.898181 19.229141 17.741276 19.632694 17.804513 z "
     style="font-size:12.000000;opacity:0.24999996;fill-rule:evenodd;stroke-width:1.0000000pt;"
     id="path1381" />
  <path
     d="M 20.517473 13.582025 C 27.71501 14.707101 36.016752 16.416373 42.877134 18.349081 C 43.319893 18.473867 42.887041 19.826277 42.426788 19.754399 C 35.285743 18.638175 26.989373 16.733187 20.073556 14.784882 C 19.686339 14.6758 20.113814 13.518895 20.517473 13.582025 z "
     style="font-size:12.000000;opacity:0.24999996;fill-rule:evenodd;stroke-width:1.0000000pt;fill:#000000;fill-opacity:1.0000000;"
     id="path1380" />
  <path
     d="M 40.116072,33.608344 C 47.678432,32.241738 53.288662,27.730391 54.845902,29.000158 C 55.267322,29.362875 49.381552,32.666281 45.794082,33.855299 C 44.581302,34.257199 39.754402,33.673009 40.116072,33.608344 z "
     style="font-size:12.000000;opacity:0.69993597;fill:url(#linearGradient583);fill-rule:evenodd;stroke-width:1.0000000pt;"
     id="path872" />
  <path
     d="M 43.823652,34.509843 C 42.128802,31.006854 39.123532,28.845016 35.182242,28.599114 C 30.117026,28.867038 28.234256,33.797069 28.847516,39.238014 C 31.217272,49.409299 36.145492,52.747088 43.756952,58.192403 C 52.203992,52.691294 57.156592,49.553173 59.363552,39.389960 C 59.258852,33.979115 58.405332,28.951458 52.310132,28.713635 C 47.234872,28.729771 45.092452,30.981162 43.823652,34.509843 z "
     style="font-size:12.000000;fill-opacity:0.29999998;fill-rule:evenodd;stroke-width:1.8750000;stroke-opacity:0.24999996;"
     id="path623" />
  <path
     d="M 42.019622,30.889724 C 40.324782,27.386733 37.319502,25.224897 33.378232,24.978995 C 28.313006,25.246919 26.430226,30.176949 27.043486,35.617896 C 29.413266,45.789181 34.341472,49.126970 41.952922,54.572286 C 50.399982,49.071178 55.352582,45.933055 57.559522,35.769841 C 58.212572,30.358996 56.601312,25.331339 50.506122,25.093516 C 45.430852,25.109652 43.288432,27.361043 42.019622,30.889724 z "
     style="font-size:12.000000;fill:url(#linearGradient869);fill-rule:evenodd;stroke:#261933;stroke-width:1.8750000;stroke-linecap:round;stroke-linejoin:round;stroke-dasharray:none;"
     id="path618" />
  <path
     d="M 34.033732,26.024711 C 32.284592,26.127867 29.873596,26.953566 28.874566,29.630785 C 27.667456,32.679529 27.872326,35.547638 28.827306,38.099632 C 28.833576,35.388290 29.816856,32.067964 31.282352,29.834664 C 32.700562,28.478992 34.162432,27.593435 38.776632,28.490909 C 36.772402,26.408879 35.448772,26.234032 34.033732,26.024711 z "
     style="font-size:12.000000;fill:url(#linearGradient581);fill-opacity:1.00000000;fill-rule:evenodd;stroke-width:1.0000000pt;"
     id="path619" />
  <path
     d="M 42.101732,31.368187 C 42.101732,38.371991 41.993902,47.514659 41.993902,54.518462 C 46.881992,51.027205 48.729392,50.749187 52.743862,46.044504 C 54.615892,44.149858 56.792362,39.157731 57.478782,36.177391 C 57.145962,34.069862 57.549592,29.785929 54.595952,26.401112 C 50.290292,25.038671 45.995682,23.282113 42.101732,31.368187 z "
     style="font-size:12.000000;fill:#261e2e;fill-opacity:0.20000000;fill-rule:evenodd;stroke-width:1.0000000pt;"
     id="path622" />
  <path
     d="M 55.219352,39.831905 C 52.649182,45.618630 51.624062,45.887237 49.918432,47.877680 C 47.463992,50.049070 46.008372,51.127983 43.179532,52.788460 C 45.779562,50.617069 46.775032,49.602435 48.601382,47.878305 C 51.099562,44.995847 52.347172,44.436200 55.219352,39.831905 z "
     style="font-size:12.000000;fill:url(#linearGradient612);fill-opacity:1.00000000;fill-rule:evenodd;stroke-width:1.0000000pt;"
     id="path620" />
  <path
     d="M 49.989212,26.139709 C 48.240082,26.242864 44.031272,27.528554 43.144602,31.355751 C 46.319642,28.539608 47.289222,28.273036 49.148002,27.649705 C 51.071832,27.329015 52.084272,27.363440 55.293942,28.433410 C 53.289692,26.351380 51.628982,26.061535 49.989212,26.139709 z "
     style="font-size:12.000000;fill:url(#linearGradient860);fill-opacity:1.00000000;fill-rule:evenodd;stroke-width:1.0000000pt;"
     id="path591" />
</svg>
