<?xml version="1.0" encoding="UTF-8" standalone="no"?>
<!DOCTYPE svg PUBLIC "-//W3C//DTD SVG 20010904//EN"
"http://www.w3.org/TR/2001/REC-SVG-20010904/DTD/svg10.dtd">
<!-- Created with Inkscape (http://www.inkscape.org/) -->
<svg
   version="1.0"
   x="0"
   y="0"
   width="48pt"
   height="48pt"
   id="svg611"
   sodipodi:version="0.32"
   inkscape:version="0.40"
   sodipodi:docname="vim-find-help.svg"
   sodipodi:docbase="/home/scaba"
   xmlns="http://www.w3.org/2000/svg"
   xmlns:cc="http://web.resource.org/cc/"
   xmlns:inkscape="http://www.inkscape.org/namespaces/inkscape"
   xmlns:sodipodi="http://sodipodi.sourceforge.net/DTD/sodipodi-0.dtd"
   xmlns:rdf="http://www.w3.org/1999/02/22-rdf-syntax-ns#"
   xmlns:dc="http://purl.org/dc/elements/1.1/"
   xmlns:xlink="http://www.w3.org/1999/xlink">
  <metadata
     id="metadata1178">
    <rdf:RDF
       id="RDF1179">
      <cc:Work
         rdf:about=""
         id="Work1180">
        <dc:format
           id="format1181">image/svg+xml</dc:format>
        <dc:type
           id="type1183"
           rdf:resource="http://purl.org/dc/dcmitype/StillImage" />
      </cc:Work>
    </rdf:RDF>
  </metadata>
  <sodipodi:namedview
     id="base"
     pagecolor="#ffffff"
     bordercolor="#666666"
     borderopacity="1.0"
     inkscape:pageopacity="0.0"
     inkscape:pageshadow="2"
     inkscape:zoom="6.9465338"
     inkscape:cx="32.524669"
     inkscape:cy="21.812175"
     inkscape:window-width="1022"
     inkscape:window-height="695"
     inkscape:window-x="0"
     inkscape:window-y="26"
     inkscape:current-layer="svg611" />
  <defs
     id="defs613">
    <linearGradient
       xlink:href="#linearGradient584"
       id="linearGradient653"
       x1="37.433931"
       y1="44.579067"
       x2="39.727901"
       y2="46.866270"
       gradientTransform="matrix(0.667821,0.000000,0.000000,0.585721,5.631053,10.55117)"
       gradientUnits="userSpaceOnUse" />
    <linearGradient
       xlink:href="#linearGradient584"
       id="linearGradient655"
       x1="6.1810676"
       y1="6.8453907"
       x2="32.039986"
       y2="33.209367"
       gradientTransform="matrix(0.595373,0.000000,0.000000,0.656996,5.631053,10.55117)"
       gradientUnits="userSpaceOnUse" />
    <linearGradient
       xlink:href="#linearGradient578"
       id="linearGradient581"
       x1="36.592544"
       y1="40.893670"
       x2="56.174880"
       y2="60.642901"
       gradientTransform="matrix(0.651860,0.000000,0.000000,0.600062,5.631053,10.55117)"
       gradientUnits="userSpaceOnUse" />
    <linearGradient
       id="linearGradient584">
      <stop
         style="stop-color:#ffffff;stop-opacity:1;"
         offset="0.00000000"
         id="stop585" />
      <stop
         style="stop-color:#ffffff;stop-opacity:0;"
         offset="1.00000000"
         id="stop586" />
    </linearGradient>
    <linearGradient
       xlink:href="#linearGradient584"
       id="linearGradient654"
       x1="258.55046"
       y1="213.76220"
       x2="486.85654"
       y2="443.81111"
       gradientUnits="userSpaceOnUse" />
    <linearGradient
       id="linearGradient578">
      <stop
         style="stop-color:#d9cce6;stop-opacity:1;"
         offset="0.00000000"
         id="stop579" />
      <stop
         style="stop-color:#73667f;stop-opacity:1;"
         offset="1.00000000"
         id="stop580" />
    </linearGradient>
    <linearGradient
       xlink:href="#linearGradient578"
       id="linearGradient583"
       x1="2.8901209"
       y1="3.7254963"
       x2="48.307349"
       y2="49.852368"
       gradientTransform="matrix(0.625426,0.000000,0.000000,0.625424,5.631053,10.55117)"
       gradientUnits="userSpaceOnUse" />
    <linearGradient
       id="linearGradient881">
      <stop
         style="stop-color:#f50000;stop-opacity:1;"
         offset="0.00000000"
         id="stop882" />
      <stop
         style="stop-color:#a80000;stop-opacity:1;"
         offset="1.00000000"
         id="stop883" />
    </linearGradient>
    <linearGradient
       id="linearGradient1535">
      <stop
         style="stop-color:#ffffff;stop-opacity:1;"
         offset="0"
         id="stop1537" />
      <stop
         style="stop-color:#ffffff;stop-opacity:0;"
         offset="1"
         id="stop1536" />
    </linearGradient>
    <linearGradient
       id="linearGradient1528">
      <stop
         style="stop-color:#a673f3;stop-opacity:1;"
         offset="0"
         id="stop1530" />
      <stop
         style="stop-color:#4c3f8c;stop-opacity:1;"
         offset="1"
         id="stop1529" />
    </linearGradient>
    <linearGradient
       id="linearGradient642">
      <stop
         style="stop-color:#ffffff;stop-opacity:1;"
         offset="0"
         id="stop643" />
      <stop
         style="stop-color:#ffffff;stop-opacity:0;"
         offset="1"
         id="stop644" />
    </linearGradient>
    <linearGradient
       id="linearGradient635">
      <stop
         style="stop-color:#ffffff;stop-opacity:1;"
         offset="0.00000000"
         id="stop636" />
      <stop
         style="stop-color:#d9cce6;stop-opacity:1;"
         offset="1.00000000"
         id="stop637" />
    </linearGradient>
    <linearGradient
       x1="0.000000"
       y1="0.039063"
       x2="0.994475"
       y2="0.976562"
       id="linearGradient638"
       xlink:href="#linearGradient642" />
    <linearGradient
       x1="-0.020404"
       y1="0.023441"
       x2="1.000000"
       y2="1.015625"
       id="linearGradient641"
       xlink:href="#linearGradient642" />
    <linearGradient
       x1="-0.007752"
       y1="0.007813"
       x2="0.984496"
       y2="0.984375"
       id="linearGradient1522"
       xlink:href="#linearGradient635" />
    <linearGradient
       x1="0.023622"
       y1="0.023437"
       x2="1.000000"
       y2="0.992187"
       id="linearGradient1527"
       xlink:href="#linearGradient881" />
    <linearGradient
       x1="0.012903"
       y1="0.023437"
       x2="0.993548"
       y2="1.000000"
       id="linearGradient1532"
       xlink:href="#linearGradient642" />
    <linearGradient
       x1="0.003746"
       y1="0.023425"
       x2="0.996255"
       y2="0.992187"
       id="linearGradient1534"
       xlink:href="#linearGradient1535" />
    <linearGradient
       x1="0.024767"
       y1="0.031250"
       x2="0.983470"
       y2="1.000000"
       id="linearGradient1539"
       xlink:href="#linearGradient1535" />
    <linearGradient
       x1="0.010912"
       y1="0.009552"
       x2="1.003636"
       y2="0.980767"
       id="linearGradient1567"
       xlink:href="#linearGradient1535" />
    <linearGradient
       inkscape:collect="always"
       xlink:href="#linearGradient635"
       id="linearGradient1151"
       x1="4.1392952"
       y1="4.8961315"
       x2="54.575949"
       y2="54.535456"
       gradientTransform="scale(1.000003,0.999997)"
       gradientUnits="userSpaceOnUse" />
    <linearGradient
       inkscape:collect="always"
       xlink:href="#linearGradient642"
       id="linearGradient1152"
       x1="26.992650"
       y1="32.983235"
       x2="42.084005"
       y2="47.657228"
       gradientTransform="scale(1.064724,0.939210)"
       gradientUnits="userSpaceOnUse" />
    <linearGradient
       inkscape:collect="always"
       xlink:href="#linearGradient881"
       id="linearGradient1153"
       x1="8.3578146"
       y1="8.5505891"
       x2="24.761596"
       y2="24.826216"
       gradientTransform="scale(0.998482,1.001520)"
       gradientUnits="userSpaceOnUse" />
    <linearGradient
       inkscape:collect="always"
       xlink:href="#linearGradient642"
       id="linearGradient1154"
       x1="6.0024399"
       y1="10.163474"
       x2="36.169179"
       y2="38.601885"
       gradientTransform="scale(1.183769,0.844759)"
       gradientUnits="userSpaceOnUse" />
    <linearGradient
       inkscape:collect="always"
       xlink:href="#linearGradient881"
       id="linearGradient1155"
       x1="35.834598"
       y1="8.5505732"
       x2="52.238350"
       y2="24.826170"
       gradientTransform="scale(0.998481,1.001522)"
       gradientUnits="userSpaceOnUse" />
    <linearGradient
       inkscape:collect="always"
       xlink:href="#linearGradient881"
       id="linearGradient1156"
       x1="8.3578149"
       y1="35.231114"
       x2="24.761597"
       y2="51.506741"
       gradientTransform="scale(0.998482,1.001520)"
       gradientUnits="userSpaceOnUse" />
    <linearGradient
       inkscape:collect="always"
       xlink:href="#linearGradient881"
       id="linearGradient1157"
       x1="35.834600"
       y1="35.231048"
       x2="52.238352"
       y2="51.506645"
       gradientTransform="scale(0.998481,1.001522)"
       gradientUnits="userSpaceOnUse" />
    <linearGradient
       inkscape:collect="always"
       xlink:href="#linearGradient642"
       id="linearGradient1158"
       x1="9.5389802"
       y1="11.824467"
       x2="17.611399"
       y2="19.863284"
       gradientTransform="scale(1.097644,0.911042)"
       gradientUnits="userSpaceOnUse" />
    <linearGradient
       inkscape:collect="always"
       xlink:href="#linearGradient1535"
       id="linearGradient1159"
       x1="7.0608003"
       y1="54.061458"
       x2="13.831986"
       y2="60.670635"
       gradientTransform="scale(1.443209,0.692900)"
       gradientUnits="userSpaceOnUse" />
    <linearGradient
       inkscape:collect="always"
       xlink:href="#linearGradient1535"
       id="linearGradient1160"
       x1="39.160735"
       y1="10.459690"
       x2="46.607835"
       y2="17.984834"
       gradientTransform="scale(0.966697,1.034451)"
       gradientUnits="userSpaceOnUse" />
    <linearGradient
       inkscape:collect="always"
       xlink:href="#linearGradient1535"
       id="linearGradient1161"
       x1="23.248639"
       y1="62.136061"
       x2="29.749082"
       y2="68.495662"
       gradientTransform="scale(1.635404,0.611470)"
       gradientUnits="userSpaceOnUse" />
    <linearGradient
       inkscape:collect="always"
       xlink:href="#linearGradient578"
       id="linearGradient1162"
       gradientUnits="userSpaceOnUse"
       gradientTransform="matrix(0.625426,0.000000,0.000000,0.625424,5.631053,10.55117)"
       x1="2.8901209"
       y1="3.7254963"
       x2="48.307349"
       y2="49.852368" />
    <linearGradient
       inkscape:collect="always"
       xlink:href="#linearGradient584"
       id="linearGradient1163"
       gradientUnits="userSpaceOnUse"
       x1="258.55046"
       y1="213.76220"
       x2="486.85654"
       y2="443.81111" />
    <linearGradient
       inkscape:collect="always"
       xlink:href="#linearGradient578"
       id="linearGradient1164"
       gradientUnits="userSpaceOnUse"
       gradientTransform="matrix(0.651860,0.000000,0.000000,0.600062,5.631053,10.55117)"
       x1="36.592544"
       y1="40.893670"
       x2="56.174880"
       y2="60.642901" />
    <linearGradient
       inkscape:collect="always"
       xlink:href="#linearGradient584"
       id="linearGradient1165"
       gradientUnits="userSpaceOnUse"
       gradientTransform="matrix(0.595373,0.000000,0.000000,0.656996,5.631053,10.55117)"
       x1="6.1810676"
       y1="6.8453907"
       x2="32.039986"
       y2="33.209367" />
  </defs>
  <g
     style="font-size:12.000000;opacity:0.29999998;"
     id="g933"
     transform="matrix(0.111069,0.000000,0.000000,0.111071,-5.045608,-5.329492)">
    <path
       d="M 423.16900,545.92800 C 427.80100,566.87700 533.11600,597.32900 558.21700,572.82800 C 583.96300,547.66500 558.20500,423.37200 539.39500,415.55200 C 522.78500,408.64700 418.64800,525.48900 423.16900,545.92800 z "
       style="fill:none;fill-rule:evenodd;stroke:#000000;stroke-width:12.500000"
       id="path929" />
    <path
       d="M 219.10400,545.92800 C 214.47200,566.87700 109.15800,597.32900 84.056100,572.82800 C 58.310300,547.66500 84.068400,423.37200 102.87900,415.55200 C 119.48800,408.64700 223.62500,525.48900 219.10400,545.92800 z "
       style="fill:none;fill-rule:evenodd;stroke:#000000;stroke-width:12.500000"
       id="path930" />
    <path
       d="M 423.16900,101.44500 C 427.80100,80.496200 533.11600,50.043800 558.21700,74.545100 C 583.96300,99.708400 558.20500,224.00100 539.39500,231.82100 C 522.78500,238.72600 418.64800,121.88400 423.16900,101.44500 z "
       style="fill:none;fill-rule:evenodd;stroke:#000000;stroke-width:12.500000"
       id="path931" />
    <path
       d="M 219.10400,101.44500 C 214.47200,80.496200 109.15800,50.043800 84.056100,74.545100 C 58.310300,99.708400 84.068400,224.00100 102.87900,231.82100 C 119.48800,238.72600 223.62500,121.88400 219.10400,101.44500 z "
       style="fill:none;fill-rule:evenodd;stroke:#000000;stroke-width:12.500000"
       id="path932" />
  </g>
  <path
     d="M 40.333346,52.190599 C 40.797442,54.289551 51.349309,57.340638 53.864267,54.885803 C 56.443843,52.364637 53.863061,39.911302 51.978429,39.127785 C 50.314210,38.435952 39.880378,50.142749 40.333346,52.190599 z "
     style="font-size:12.000000;fill:none;fill-rule:evenodd;stroke:#261933;stroke-width:1.8786300;"
     id="path927"
     transform="matrix(1.100300,0.000000,0.000000,1.100321,-3.618483,-3.421992)" />
  <path
     d="M 19.887384,52.190599 C 19.423288,54.289551 8.8715118,57.340638 6.3564875,54.885803 C 3.7769281,52.364637 6.3577194,39.911302 8.2423674,39.127785 C 9.9065188,38.435952 20.340358,50.142749 19.887384,52.190599 z "
     style="font-size:12.000000;fill:none;fill-rule:evenodd;stroke:#261933;stroke-width:1.8786300;"
     id="path928"
     transform="matrix(1.100300,0.000000,0.000000,1.100321,-3.618483,-3.421992)" />
  <path
     d="M 40.333346,7.6563706 C 40.797442,5.5574193 51.349309,2.5062901 53.864267,4.9611583 C 56.443843,7.4823550 53.863061,19.935642 51.978429,20.719154 C 50.314210,21.410989 39.880378,9.7041933 40.333346,7.6563706 z "
     style="font-size:12.000000;fill:none;fill-rule:evenodd;stroke:#261933;stroke-width:1.8786300;"
     id="path926"
     transform="matrix(1.100300,0.000000,0.000000,1.100321,-3.618483,-3.421992)" />
  <path
     d="M 19.887384,7.6563706 C 19.423288,5.5574193 8.8715118,2.5062901 6.3564875,4.9611583 C 3.7769281,7.4823550 6.3577194,19.935642 8.2423674,20.719154 C 9.9065188,21.410989 20.340358,9.7041933 19.887384,7.6563706 z "
     style="font-size:12.000000;fill:none;fill-rule:evenodd;stroke:#261933;stroke-width:1.8786300;"
     id="path922"
     transform="matrix(1.100300,0.000000,0.000000,1.100321,-3.618483,-3.421992)" />
  <path
     d="M 44.063735,33.189379 C 44.063735,40.044415 38.500195,45.607946 31.645167,45.607946 C 24.790036,45.607946 19.226598,40.044415 19.226598,33.189379 C 19.226598,26.334447 24.790036,20.770809 31.645167,20.770809 C 38.500195,20.770809 44.063735,26.334447 44.063735,33.189379 z M 55.942364,33.009431 C 55.942364,46.520808 44.976597,57.486475 31.465020,57.486475 C 17.953841,57.486475 6.9878229,46.520808 6.9878229,33.009431 C 6.9878229,19.497953 17.953841,8.5321869 31.465020,8.5321869 C 44.976597,8.5321869 55.942364,19.497953 55.942364,33.009431 z "
     style="font-size:12.000000;opacity:0.30267498;fill-rule:evenodd;stroke-width:12.500000;"
     id="path879"
     transform="matrix(1.100300,0.000000,0.000000,1.100321,-3.618483,-3.421992)" />
  <path
     d="M 42.547418,30.094249 C 42.547418,36.949282 36.983887,42.512817 30.128852,42.512817 C 23.273721,42.512817 17.710282,36.949282 17.710282,30.094249 C 17.710282,23.239319 23.273721,17.675679 30.128852,17.675679 C 36.983887,17.675679 42.547418,23.239319 42.547418,30.094249 z M 54.426048,29.914301 C 54.426048,43.425678 43.460287,54.391346 29.948704,54.391346 C 16.437526,54.391346 5.4715094,43.425678 5.4715094,29.914301 C 5.4715094,16.402822 16.437526,5.4371367 29.948704,5.4371367 C 43.460287,5.4371367 54.426048,16.402822 54.426048,29.914301 z "
     style="font-size:12.000000;fill:url(#linearGradient1151);fill-rule:evenodd;stroke:#261933;stroke-width:1.8763200;"
     id="path876"
     transform="matrix(1.100300,0.000000,0.000000,1.100321,-3.618483,-3.421992)" />
  <path
     d="M 29.132929,43.988666 C 28.813113,43.636886 36.836498,45.233373 40.759573,40.725071 C 44.954671,36.142423 44.319642,30.383108 44.635151,30.730176 C 44.999555,31.130950 44.543575,39.929436 41.983433,42.152923 C 38.186705,45.477040 29.493024,44.384730 29.132929,43.988666 z "
     style="font-size:12.000000;opacity:0.69999999;fill:url(#linearGradient1152);fill-rule:evenodd;stroke:#ffffff;stroke-width:0.10019300pt;"
     id="path878"
     transform="matrix(1.100300,0.000000,0.000000,1.100321,-3.618483,-3.421992)" />
  <path
     d="M 19.105575,24.056095 C 16.274510,23.953498 8.9996689,20.126710 8.8881838,17.879573 C 11.538169,13.638487 13.211799,11.722991 17.353193,9.1085443 C 19.561956,9.1885982 23.640628,16.235099 23.784705,19.137000 C 21.210238,20.992482 20.497260,21.743631 19.105575,24.056095 z "
     style="font-size:12.000000;fill:url(#linearGradient1153);fill-rule:evenodd;stroke:#330000;stroke-width:1.8786300;"
     id="path880"
     transform="matrix(1.100300,0.000000,0.000000,1.100321,-3.618483,-3.421992)" />
  <path
     d="M 7.3073122,33.177902 C 6.4419120,30.137533 8.0233344,16.730155 18.730050,10.128511 C 27.099004,4.8902114 41.535066,8.9525422 43.003299,11.556267 C 43.401969,12.207825 32.974745,6.1921541 20.157806,14.615973 C 8.4958367,22.484661 7.4739334,33.892380 7.3073122,33.177902 z "
     style="font-size:12.000000;opacity:0.69999999;fill:url(#linearGradient1154);fill-rule:evenodd;stroke:none;stroke-width:1.2500000;"
     id="path877"
     transform="matrix(1.100300,0.000000,0.000000,1.100321,-3.618483,-3.421992)" />
  <path
     d="M 41.002241,24.056095 C 43.833306,23.953498 51.108147,20.126710 51.219665,17.879573 C 48.569645,13.638487 46.896014,11.722991 42.754622,9.1085443 C 40.545859,9.1885982 36.467182,16.235099 36.323206,19.137000 C 38.897581,20.992482 39.610553,21.743631 41.002241,24.056095 z "
     style="font-size:12.000000;fill:url(#linearGradient1155);fill-rule:evenodd;stroke:#330000;stroke-width:1.8786300;"
     id="path915"
     transform="matrix(1.100300,0.000000,0.000000,1.100321,-3.618483,-3.421992)" />
  <path
     d="M 19.105575,35.829620 C 16.274510,35.932218 8.9996689,39.759003 8.8881838,42.006142 C 11.538169,46.247230 13.211799,48.162722 17.353193,50.777172 C 19.561956,50.697114 23.640628,43.650618 23.784705,40.748717 C 21.210238,38.893232 20.497260,38.142083 19.105575,35.829620 z "
     style="font-size:12.000000;fill:url(#linearGradient1156);fill-rule:evenodd;stroke:#330000;stroke-width:1.8786300;"
     id="path916"
     transform="matrix(1.100300,0.000000,0.000000,1.100321,-3.618483,-3.421992)" />
  <path
     d="M 41.002241,35.829620 C 43.833306,35.932218 51.108147,39.759003 51.219665,42.006142 C 48.569645,46.247230 46.896014,48.162722 42.754622,50.777172 C 40.545859,50.697114 36.467182,43.650618 36.323206,40.748717 C 38.897581,38.893232 39.610553,38.142083 41.002241,35.829620 z "
     style="font-size:12.000000;fill:url(#linearGradient1157);fill-rule:evenodd;stroke:#330000;stroke-width:1.8786300;"
     id="path917"
     transform="matrix(1.100300,0.000000,0.000000,1.100321,-3.618483,-3.421992)" />
  <path
     d="M 10.367007,18.083466 C 10.064023,17.763649 15.057963,12.094607 17.404292,10.638297 C 18.015671,10.258864 19.934375,12.608800 19.240035,12.576036 C 15.637982,12.410817 10.675904,18.409496 10.367007,18.083466 z "
     style="font-size:12.000000;opacity:0.69993597;fill:url(#linearGradient1158);fill-rule:evenodd;stroke:none;stroke-width:1.0000000pt;"
     id="path918"
     transform="matrix(1.100300,0.000000,0.000000,1.100321,-3.618483,-3.421992)" />
  <path
     d="M 10.163014,42.050827 C 9.8857794,41.708368 15.630668,38.013936 18.118169,37.359372 C 18.860401,37.164097 20.496760,39.660112 19.852016,39.501104 C 16.140452,38.483842 10.463796,42.422348 10.163014,42.050827 z "
     style="font-size:12.000000;opacity:0.69999999;fill:url(#linearGradient1159);fill-rule:evenodd;stroke:none;stroke-width:1.0000000pt;"
     id="path919"
     transform="matrix(1.100300,0.000000,0.000000,1.100321,-3.618483,-3.421992)" />
  <path
     d="M 37.700063,18.593351 C 37.312520,18.290066 40.839022,12.186985 42.697512,10.638297 C 43.286748,10.147248 45.785469,12.422240 45.043241,12.474039 C 40.815478,12.659898 38.094429,18.901947 37.700063,18.593351 z "
     style="font-size:12.000000;opacity:0.69993597;fill:url(#linearGradient1160);fill-rule:evenodd;stroke:none;stroke-width:1.0000000pt;"
     id="path920"
     transform="matrix(1.100300,0.000000,0.000000,1.100321,-3.618483,-3.421992)" />
  <path
     d="M 37.904063,41.948831 C 37.904063,41.711472 40.556879,38.173243 42.187524,37.971355 C 44.126570,37.731291 48.612831,40.395630 48.612831,40.622975 C 48.612831,40.837587 44.206625,39.047229 42.187524,39.297213 C 40.637036,39.489186 37.904063,42.153429 37.904063,41.948831 z "
     style="font-size:12.000000;opacity:0.69999999;fill:url(#linearGradient1161);fill-rule:evenodd;stroke:none;stroke-width:1.0000000pt;"
     id="path921"
     transform="matrix(1.100300,0.000000,0.000000,1.100321,-3.618483,-3.421992)" />
  <path
     d="M 37.378521,29.220170 C 37.378521,36.961489 31.095679,43.244329 23.354363,43.244329 C 15.612935,43.244329 9.3300893,36.961489 9.3300893,29.220170 C 9.3300893,21.478855 15.612935,15.196012 23.354363,15.196012 C 31.095679,15.196012 37.378521,21.478855 37.378521,29.220170 z M 33.903491,29.220170 C 33.903491,34.906293 29.177409,39.521103 23.354363,39.521103 C 17.531203,39.521103 12.805232,34.906293 12.805232,29.220170 C 12.805232,23.534046 17.531203,18.919127 23.354363,18.919127 C 29.177409,18.919127 33.903491,23.534046 33.903491,29.220170 z "
     style="font-size:12.000000;opacity:0.29999998;fill-rule:evenodd;stroke-width:13.490400;"
     id="path1566"
     transform="matrix(1.100300,0.000000,0.000000,1.100321,-3.618483,-3.421992)" />
  <path
     d="M 36.181163,27.422894 C 36.181163,35.164210 29.498024,41.847349 21.756706,41.847349 C 14.015278,41.847349 7.3321389,35.164210 7.3321389,27.422894 C 7.3321389,19.681578 14.015278,12.998437 21.756706,12.998437 C 29.498024,12.998437 36.181163,19.681578 36.181163,27.422894 z M 31.505248,27.422894 C 31.505248,33.109018 27.579752,36.923234 21.756706,36.923234 C 15.933549,36.923234 12.008169,33.109018 12.008169,27.422894 C 12.008169,21.736770 15.933549,17.922442 21.756706,17.922442 C 27.579752,17.922442 31.505248,21.736770 31.505248,27.422894 z "
     style="font-size:12.000000;fill:url(#linearGradient1162);fill-rule:evenodd;stroke:#261933;stroke-width:1.1726727;"
     id="path1525"
     sodipodi:nodetypes="cccccccccs"
     transform="matrix(1.100300,0.000000,0.000000,1.100321,-3.618483,-3.421992)" />
  <path
     d="M 30.613129,38.407670 C 30.474822,38.135672 31.601127,36.893508 31.873005,37.036073 C 32.846737,37.546303 33.725701,39.047783 34.830189,39.817285 C 37.090071,41.391757 40.273738,42.331176 41.966233,44.068241 C 42.509930,44.626211 42.002421,46.394187 41.469941,46.839159 C 40.886121,47.327195 38.836146,47.966802 38.137171,47.415971 C 36.194024,45.885048 34.867564,43.083805 33.131879,41.005648 C 32.359550,40.080977 31.054503,39.275962 30.613129,38.407670 z "
     style="font-size:12.000000;opacity:0.29999998;fill-rule:evenodd;stroke-width:13.490400;"
     id="path1565"
     sodipodi:nodetypes="ccsccccc"
     transform="matrix(1.100300,0.000000,0.000000,1.100321,-3.618483,-3.421992)" />
  <ellipse
     cx="373.57492"
     cy="328.78662"
     rx="115.02444"
     ry="115.02443"
     transform="matrix(8.914230e-2,0.000000,0.000000,8.704715e-2,-12.98110,-1.867748)"
     style="font-size:12.000000;fill:url(#linearGradient1163);fill-rule:evenodd;stroke-width:1.0000000pt;"
     id="path1521"
     sodipodi:cx="373.57492"
     sodipodi:cy="328.78662"
     sodipodi:rx="115.02444"
     sodipodi:ry="115.02443" />
  <path
     d="M 30.083049,36.923289 C 29.944741,36.651291 31.002452,35.546319 31.274329,35.688885 C 32.248061,36.199113 33.127029,37.700586 34.231513,38.470095 C 36.491401,40.044562 39.675060,40.983987 41.367562,42.721052 C 41.911258,43.279022 41.266553,45.046997 40.734074,45.491969 C 40.150254,45.980006 38.306068,46.482422 37.607091,45.931590 C 35.663944,44.400668 34.337484,41.599424 32.601800,39.521269 C 31.829470,38.596597 30.524422,37.791581 30.083049,36.923289 z "
     style="font-size:12.000000;fill:url(#linearGradient1164);fill-rule:evenodd;stroke:#261933;stroke-width:1.1726727;"
     id="path1531"
     sodipodi:nodetypes="cccccccc"
     transform="matrix(1.100300,0.000000,0.000000,1.100321,-3.618483,-3.421992)" />
  <path
     d="M 10.178548,32.644510 C 9.1799841,30.647384 8.1815342,24.057032 12.475275,18.964463 C 17.667707,14.271368 23.059878,14.970216 25.256625,15.269818 C 21.761713,15.469552 18.166934,14.970328 13.473836,19.563672 C 9.0802287,23.857296 10.278414,30.248028 10.178548,32.644510 z "
     style="font-size:12.000000;opacity:0.69999999;fill:url(#linearGradient1165);fill-rule:evenodd;stroke:none;stroke-width:1.0000000pt;"
     id="path1533"
     transform="matrix(1.100300,0.000000,0.000000,1.100321,-3.618483,-3.421992)" />
  <path
     d="M 30.630403,36.827205 C 30.625485,36.795297 30.724687,36.628440 30.776209,36.668144 C 31.246011,37.030468 32.189754,38.003481 32.194313,38.033229 C 32.198571,38.060939 31.279117,37.207822 30.802718,36.840459 C 30.757795,36.805793 30.634361,36.852754 30.630403,36.827205 z "
     style="font-size:12.000000;opacity:0.69999999;fill:url(#linearGradient653);fill-rule:evenodd;stroke:none;stroke-width:1.0000000pt;"
     id="path1538"
     transform="matrix(1.100300,0.000000,0.000000,1.100321,-3.618483,-3.421992)" />
</svg>
