<?xml version="1.0" encoding="UTF-8" standalone="no"?>
<!DOCTYPE svg PUBLIC "-//W3C//DTD SVG 20010904//EN"
"http://www.w3.org/TR/2001/REC-SVG-20010904/DTD/svg10.dtd">
<!-- Created with Inkscape (http://www.inkscape.org/) -->
<svg
   id="svg1"
   sodipodi:version="0.32"
   inkscape:version="0.39"
   width="48pt"
   height="48pt"
   sodipodi:docbase="/home/stefan/software/Lila-themes/lila-gnome/Lila/scalable/stock"
   sodipodi:docname="vim-save-all.svg"
   xmlns="http://www.w3.org/2000/svg"
   xmlns:inkscape="http://www.inkscape.org/namespaces/inkscape"
   xmlns:sodipodi="http://sodipodi.sourceforge.net/DTD/sodipodi-0.dtd"
   xmlns:xlink="http://www.w3.org/1999/xlink"
   xmlns:rdf="http://www.w3.org/1999/02/22-rdf-syntax-ns#"
   xmlns:cc="http://web.resource.org/cc/"
   xmlns:dc="http://purl.org/dc/elements/1.1/">
  <defs
     id="defs3">
    <linearGradient
       id="linearGradient916">
      <stop
         style="stop-color:#cccccc;stop-opacity:1;"
         offset="0.00000000"
         id="stop917" />
      <stop
         style="stop-color:#7f7f7f;stop-opacity:1;"
         offset="1.00000000"
         id="stop918" />
    </linearGradient>
    <linearGradient
       id="linearGradient866">
      <stop
         style="stop-color:#ffffff;stop-opacity:1.0000000;"
         offset="0.0000000"
         id="stop867" />
      <stop
         style="stop-color:#d9cce6;stop-opacity:1.0000000;"
         offset="1.0000000"
         id="stop868" />
    </linearGradient>
    <linearGradient
       id="linearGradient584">
      <stop
         style="stop-color:#ffffff;stop-opacity:1;"
         offset="0.00000000"
         id="stop585" />
      <stop
         style="stop-color:#ffffff;stop-opacity:0;"
         offset="1.00000000"
         id="stop586" />
    </linearGradient>
    <linearGradient
       id="linearGradient578">
      <stop
         style="stop-color:#d9cce6;stop-opacity:1;"
         offset="0.00000000"
         id="stop579" />
      <stop
         style="stop-color:#73667f;stop-opacity:1;"
         offset="1.00000000"
         id="stop580" />
    </linearGradient>
    <linearGradient
       xlink:href="#linearGradient584"
       id="linearGradient581"
       x1="0.00649351"
       y1="0.00000000"
       x2="0.96753246"
       y2="0.97674417" />
    <linearGradient
       xlink:href="#linearGradient584"
       id="linearGradient583"
       x1="-0.03076923"
       y1="0.02325581"
       x2="0.97692305"
       y2="1.03100777" />
    <linearGradient
       xlink:href="#linearGradient584"
       id="linearGradient860"
       x1="-0.01219512"
       y1="0.00775194"
       x2="0.98780489"
       y2="0.99224806" />
    <linearGradient
       xlink:href="#linearGradient578"
       id="linearGradient861"
       x1="0.01562500"
       y1="0.01550388"
       x2="0.98437500"
       y2="0.97674417" />
    <linearGradient
       xlink:href="#linearGradient866"
       id="linearGradient862"
       x1="0.00617284"
       y1="0.01550388"
       x2="1.00000000"
       y2="0.96899223" />
    <linearGradient
       xlink:href="#linearGradient916"
       id="linearGradient869"
       x1="0.00641026"
       y1="0.01550388"
       x2="0.97435898"
       y2="0.95348835" />
    <linearGradient
       xlink:href="#linearGradient578"
       id="linearGradient915"
       x1="0.97727275"
       y1="0.98449612"
       x2="-0.01136364"
       y2="0.01550388" />
  </defs>
  <sodipodi:namedview
     id="base"
     pagecolor="#ffffff"
     bordercolor="#666666"
     borderopacity="1.0"
     inkscape:pageopacity="0.0"
     inkscape:pageshadow="2"
     inkscape:zoom="8.0000000"
     inkscape:cx="26.457032"
     inkscape:cy="23.768528"
     inkscape:window-width="747"
     inkscape:window-height="654"
     inkscape:window-x="437"
     inkscape:window-y="156" />
  <path
     d="M 5.9366443,40.219936 C 7.0223272,41.725128 39.401866,50.198855 40.834030,49.422357 C 42.198966,48.568437 50.631828,10.932524 49.677904,9.5054563 C 48.933832,8.3395670 14.403562,3.8650003 13.346377,4.8445437 C 12.244727,5.9897723 5.0339258,38.802715 5.9366443,40.219936 z "
     style="font-size:12;opacity:0.302675;fill-rule:evenodd;stroke-width:12.5;"
     id="path1382" />
  <path
     d="M 3.5199740,37.363872 C 4.6056559,38.869061 36.985197,47.342789 38.417359,46.566290 C 39.782295,45.712371 48.215158,8.0764580 47.261232,6.6493918 C 46.517161,5.4835019 11.986891,1.0089352 10.929707,1.9884774 C 9.8280555,3.1337250 2.6172544,35.946648 3.5199740,37.363872 z "
     style="font-size:12.000000;fill:url(#linearGradient861);fill-rule:evenodd;stroke:#261933;stroke-width:1.7695485;"
     id="path1289" />
  <path
     d="M 9.6150368,39.037089 C 10.172717,34.455782 11.208546,30.352540 12.363803,26.249296 C 20.012522,27.802905 27.422298,29.595638 34.951502,31.627309 C 34.075085,36.128909 33.079153,40.750112 31.844191,45.012680 C 24.036147,43.658201 17.064623,41.467116 9.6150368,39.037089 z "
     style="font-size:12.000000;fill:#595161;fill-rule:evenodd;stroke:#261933;stroke-width:1.1796991;"
     id="path1294" />
  <path
     d="M 16.666267,2.5860373 C 15.152465,7.9242523 13.638663,13.979462 12.961380,19.676215 C 20.490583,21.787594 29.214942,23.659942 36.863748,25.054229 C 38.536875,18.799797 39.970972,12.186819 41.046608,5.8128719 C 33.477508,4.4982208 24.235280,2.9445741 16.666267,2.5860373 z "
     style="font-size:12.000000;fill:url(#linearGradient862);fill-rule:evenodd;stroke:#261933;stroke-width:1.1796991;"
     id="path1295" />
  <path
     d="M 14.379394,29.774384 C 13.816004,31.971532 13.252610,34.168769 12.689217,36.365918 C 13.534263,36.591240 14.200122,36.816651 15.045164,37.041971 C 15.495896,34.901154 16.245415,32.521216 16.755904,30.380396 C 16.023521,30.098744 15.231292,29.936519 14.379394,29.774384 z M 10.180100,38.744516 C 10.722931,34.502071 11.827125,30.814889 12.728498,26.871234 C 18.474991,27.980882 24.938575,29.458458 30.625310,31.105926 C 29.783692,35.158901 28.528377,39.423908 27.447729,43.596399 C 21.641480,42.377519 15.926594,40.859761 10.180100,38.744516 z "
     style="font-size:12;fill:url(#linearGradient869);fill-rule:evenodd;stroke:none;stroke-width:6.25;stroke-dasharray:none;stroke-opacity:1;"
     id="path1306"
     sodipodi:nodetypes="cccccccccc" />
  <path
     d="M 5.4321752,36.288233 C 5.0918205,35.416036 10.659479,5.5498508 12.602920,3.9005305 C 14.540827,2.2378341 44.063055,7.3574331 44.393040,8.2030039 C 44.700440,8.9907515 21.470258,3.5672227 14.873625,8.3224304 C 8.4832436,12.928956 5.7292057,37.049353 5.4321752,36.288233 z "
     style="font-size:12;opacity:0.7;fill:url(#linearGradient581);fill-rule:evenodd;stroke:none;stroke-width:1pt;"
     id="path1310" />
  <path
     d="M 10.851179,37.713035 C 10.778594,37.547119 12.606561,27.996261 13.241487,27.674008 C 14.189261,27.152799 20.877815,28.943244 20.949963,29.108192 C 21.017191,29.261894 15.638386,28.025700 14.168522,29.129284 C 12.676426,30.264063 10.918056,37.865856 10.851179,37.713035 z "
     style="font-size:12;opacity:0.7;fill:url(#linearGradient583);fill-rule:evenodd;stroke:none;stroke-width:1pt;"
     id="path1315"
     sodipodi:nodetypes="ccccc" />
  <path
     d="M 13.379683,37.005327 C 13.344180,36.916569 14.861322,37.897737 15.172413,37.543144 C 15.857255,36.762429 16.330042,33.505547 16.367479,33.599225 C 16.409661,33.704768 16.239527,37.549297 15.576217,38.305495 C 15.243597,38.684693 13.423886,37.115703 13.379683,37.005327 z "
     style="font-size:12;opacity:0.990000;fill:url(#linearGradient860);fill-rule:evenodd;stroke:none;stroke-width:1pt;"
     id="path1316" />
  <path
     d="M 18.221020,8.1550228 C 24.222451,9.0932186 31.144674,10.518438 36.864892,12.129873 C 37.234158,12.233923 36.873151,13.361587 36.489382,13.301651 C 30.535057,12.371013 23.617490,10.782514 17.850876,9.1579844 C 17.528097,9.0670309 17.884446,8.1024696 18.221020,8.1550228 z "
     style="font-size:12;opacity:0.25;fill-rule:evenodd;stroke-width:1pt;"
     id="path1379" />
  <path
     d="M 17.544793,11.497233 C 23.546223,12.435340 30.468357,13.860562 36.188661,15.472086 C 36.557841,15.576135 36.196922,16.703798 35.813155,16.643864 C 29.858830,15.713137 22.941175,14.124726 17.174649,12.500196 C 16.851781,12.409242 17.208216,11.444595 17.544793,11.497233 z "
     style="font-size:12;opacity:0.25;fill-rule:evenodd;stroke-width:1pt;"
     id="path1380" />
  <path
     d="M 16.807050,15.018017 C 22.808478,15.956036 29.730702,17.381255 35.450918,18.992781 C 35.820185,19.096828 35.459090,20.224491 35.075499,20.164559 C 29.121173,19.233831 22.203521,17.645420 16.436904,16.020889 C 16.114124,15.929935 16.470560,14.965288 16.807050,15.018017 z "
     style="font-size:12;opacity:0.25;fill-rule:evenodd;stroke-width:1pt;"
     id="path1381" />
  <path
     d="M 5.9366443,40.219936 C 7.0223272,41.725128 39.401866,50.198855 40.834030,49.422357 C 42.198966,48.568437 50.631828,10.932524 49.677904,9.5054563 C 48.933832,8.3395670 14.403562,3.8650003 13.346377,4.8445437 C 12.244727,5.9897723 5.0339258,38.802715 5.9366443,40.219936 z "
     style="font-size:12;opacity:0.302675;fill-rule:evenodd;stroke-width:12.5;"
     id="path855" />
  <path
     d="M 3.5199740,37.363872 C 4.6056559,38.869061 36.985197,47.342789 38.417359,46.566290 C 39.782295,45.712371 48.215158,8.0764580 47.261232,6.6493918 C 46.517161,5.4835019 11.986891,1.0089352 10.929707,1.9884774 C 9.8280555,3.1337250 2.6172544,35.946648 3.5199740,37.363872 z "
     style="font-size:12.000000;fill:url(#linearGradient861);fill-rule:evenodd;stroke:#261933;stroke-width:1.8750000;stroke-dasharray:none;"
     id="path856" />
  <path
     d="M 9.6150368,39.037089 C 10.172717,34.455782 11.208546,30.352540 12.363803,26.249296 C 20.012522,27.802905 27.422298,29.595638 34.951502,31.627309 C 34.075085,36.128909 33.079153,40.750112 31.844191,45.012680 C 24.036147,43.658201 17.064623,41.467116 9.6150368,39.037089 z "
     style="font-size:12.000000;fill:#595161;fill-rule:evenodd;stroke:#261933;stroke-width:1.2500000;stroke-dasharray:none;"
     id="path857" />
  <path
     d="M 16.666267,2.5860373 C 15.152465,7.9242523 13.638663,13.979462 12.961380,19.676215 C 20.490583,21.787594 29.214942,23.659942 36.863748,25.054229 C 38.536875,18.799797 39.970972,12.186819 41.046608,5.8128719 C 33.477508,4.4982208 24.235280,2.9445741 16.666267,2.5860373 z "
     style="font-size:12.000000;fill:url(#linearGradient862);fill-rule:evenodd;stroke:#261933;stroke-width:1.2500000;stroke-dasharray:none;"
     id="path858" />
  <path
     d="M 14.379394,29.774384 C 13.816004,31.971532 13.252610,34.168769 12.689217,36.365918 C 13.534263,36.591240 14.200122,36.816651 15.045164,37.041971 C 15.495896,34.901154 16.245415,32.521216 16.755904,30.380396 C 16.023521,30.098744 15.231292,29.936519 14.379394,29.774384 z M 10.180100,38.744516 C 10.722931,34.502071 11.827125,30.814889 12.728498,26.871234 C 18.474991,27.980882 24.938575,29.458458 30.625310,31.105926 C 29.783692,35.158901 28.528377,39.423908 27.447729,43.596399 C 21.641480,42.377519 15.926594,40.859761 10.180100,38.744516 z "
     style="font-size:12;fill:url(#linearGradient869);fill-rule:evenodd;stroke:none;stroke-width:6.25;stroke-dasharray:none;stroke-opacity:1;"
     id="path859"
     sodipodi:nodetypes="cccccccccc" />
  <path
     d="M 5.4321752,36.288233 C 5.0918205,35.416036 10.659479,5.5498508 12.602920,3.9005305 C 14.540827,2.2378341 44.063055,7.3574331 44.393040,8.2030039 C 44.700440,8.9907515 21.470258,3.5672227 14.873625,8.3224304 C 8.4832436,12.928956 5.7292057,37.049353 5.4321752,36.288233 z "
     style="font-size:12;opacity:0.7;fill:url(#linearGradient581);fill-rule:evenodd;stroke:none;stroke-width:1pt;"
     id="path860" />
  <path
     d="M 10.851179,37.713035 C 10.778594,37.547119 12.606561,27.996261 13.241487,27.674008 C 14.189261,27.152799 20.877815,28.943244 20.949963,29.108192 C 21.017191,29.261894 15.638386,28.025700 14.168522,29.129284 C 12.676426,30.264063 10.918056,37.865856 10.851179,37.713035 z "
     style="font-size:12;opacity:0.7;fill:url(#linearGradient583);fill-rule:evenodd;stroke:none;stroke-width:1pt;"
     id="path861"
     sodipodi:nodetypes="ccccc" />
  <path
     d="M 13.379683,37.005327 C 13.344180,36.916569 14.861322,37.897737 15.172413,37.543144 C 15.857255,36.762429 16.330042,33.505547 16.367479,33.599225 C 16.409661,33.704768 16.239527,37.549297 15.576217,38.305495 C 15.243597,38.684693 13.423886,37.115703 13.379683,37.005327 z "
     style="font-size:12;opacity:0.990000;fill:url(#linearGradient860);fill-rule:evenodd;stroke:none;stroke-width:1pt;"
     id="path862" />
  <path
     d="M 18.221020,8.1550228 C 24.222451,9.0932186 31.144674,10.518438 36.864892,12.129873 C 37.234158,12.233923 36.873151,13.361587 36.489382,13.301651 C 30.535057,12.371013 23.617490,10.782514 17.850876,9.1579844 C 17.528097,9.0670309 17.884446,8.1024696 18.221020,8.1550228 z "
     style="font-size:12;opacity:0.25;fill-rule:evenodd;stroke-width:1pt;"
     id="path863" />
  <path
     d="M 17.544793,11.497233 C 23.546223,12.435340 30.468357,13.860562 36.188661,15.472086 C 36.557841,15.576135 36.196922,16.703798 35.813155,16.643864 C 29.858830,15.713137 22.941175,14.124726 17.174649,12.500196 C 16.851781,12.409242 17.208216,11.444595 17.544793,11.497233 z "
     style="font-size:12;opacity:0.25;fill-rule:evenodd;stroke-width:1pt;"
     id="path864" />
  <path
     d="M 16.807050,15.018017 C 22.808478,15.956036 29.730702,17.381255 35.450918,18.992781 C 35.820185,19.096828 35.459090,20.224491 35.075499,20.164559 C 29.121173,19.233831 22.203521,17.645420 16.436904,16.020889 C 16.114124,15.929935 16.470560,14.965288 16.807050,15.018017 z "
     style="font-size:12;opacity:0.25;fill-rule:evenodd;stroke-width:1pt;"
     id="path865" />
  <path
     d="M 14.686644,49.594936 C 15.772327,51.100128 48.151866,59.573855 49.584030,58.797357 C 50.948966,57.943437 59.381828,20.307524 58.427904,18.880456 C 57.683832,17.714567 23.153562,13.240000 22.096377,14.219544 C 20.994727,15.364772 13.783926,48.177715 14.686644,49.594936 z "
     style="font-size:12;opacity:0.302675;fill-rule:evenodd;stroke-width:12.5;"
     id="path866" />
  <path
     d="M 12.269974,46.738872 C 13.355656,48.244061 45.735197,56.717789 47.167359,55.941290 C 48.532295,55.087371 56.965158,17.451458 56.011232,16.024392 C 55.267161,14.858502 20.736891,10.383935 19.679707,11.363477 C 18.578056,12.508725 11.367254,45.321648 12.269974,46.738872 z "
     style="font-size:12.000000;fill:url(#linearGradient861);fill-rule:evenodd;stroke:#261933;stroke-width:1.7695485;"
     id="path867" />
  <path
     d="M 18.365037,48.412089 C 18.922717,43.830782 19.958546,39.727540 21.113803,35.624296 C 28.762522,37.177905 36.172298,38.970638 43.701502,41.002309 C 42.825085,45.503909 41.829153,50.125112 40.594191,54.387680 C 32.786147,53.033201 25.814623,50.842116 18.365037,48.412089 z "
     style="font-size:12.000000;fill:#595161;fill-rule:evenodd;stroke:#261933;stroke-width:1.1796991;"
     id="path868" />
  <path
     d="M 25.416267,11.961037 C 23.902465,17.299252 22.388663,23.354462 21.711380,29.051215 C 29.240583,31.162594 37.964942,33.034942 45.613748,34.429229 C 47.286875,28.174797 48.720972,21.561819 49.796608,15.187872 C 42.227508,13.873221 32.985280,12.319574 25.416267,11.961037 z "
     style="font-size:12.000000;fill:url(#linearGradient862);fill-rule:evenodd;stroke:#261933;stroke-width:1.1796991;"
     id="path869" />
  <path
     d="M 23.129394,39.149384 C 22.566004,41.346532 22.002610,43.543769 21.439217,45.740918 C 22.284263,45.966240 22.950122,46.191651 23.795164,46.416971 C 24.245896,44.276154 24.995415,41.896216 25.505904,39.755396 C 24.773521,39.473744 23.981292,39.311519 23.129394,39.149384 z M 18.930100,48.119516 C 19.472931,43.877071 20.577125,40.189889 21.478498,36.246234 C 27.224991,37.355882 33.688575,38.833458 39.375310,40.480926 C 38.533692,44.533901 37.278377,48.798908 36.197729,52.971399 C 30.391480,51.752519 24.676594,50.234761 18.930100,48.119516 z "
     style="font-size:12;fill:url(#linearGradient869);fill-rule:evenodd;stroke:none;stroke-width:6.25;stroke-dasharray:none;stroke-opacity:1;"
     id="path870"
     sodipodi:nodetypes="cccccccccc" />
  <path
     d="M 14.182175,45.663233 C 13.841821,44.791036 19.409479,14.924851 21.352920,13.275531 C 23.290827,11.612834 52.813055,16.732433 53.143040,17.578004 C 53.450440,18.365752 30.220258,12.942223 23.623625,17.697430 C 17.233244,22.303956 14.479206,46.424353 14.182175,45.663233 z "
     style="font-size:12;opacity:0.7;fill:url(#linearGradient581);fill-rule:evenodd;stroke:none;stroke-width:1pt;"
     id="path871" />
  <path
     d="M 19.601179,47.088035 C 19.528594,46.922119 21.356561,37.371261 21.991487,37.049008 C 22.939261,36.527799 29.627815,38.318244 29.699963,38.483192 C 29.767191,38.636894 24.388386,37.400700 22.918522,38.504284 C 21.426426,39.639063 19.668056,47.240856 19.601179,47.088035 z "
     style="font-size:12;opacity:0.7;fill:url(#linearGradient583);fill-rule:evenodd;stroke:none;stroke-width:1pt;"
     id="path872"
     sodipodi:nodetypes="ccccc" />
  <path
     d="M 22.129683,46.380327 C 22.094180,46.291569 23.611322,47.272737 23.922413,46.918144 C 24.607255,46.137429 25.080042,42.880547 25.117479,42.974225 C 25.159661,43.079768 24.989527,46.924297 24.326217,47.680495 C 23.993597,48.059693 22.173886,46.490703 22.129683,46.380327 z "
     style="font-size:12;opacity:0.990000;fill:url(#linearGradient860);fill-rule:evenodd;stroke:none;stroke-width:1pt;"
     id="path873" />
  <path
     d="M 26.971020,17.530023 C 32.972451,18.468219 39.894674,19.893438 45.614892,21.504873 C 45.984158,21.608923 45.623151,22.736587 45.239382,22.676651 C 39.285057,21.746013 32.367490,20.157514 26.600876,18.532984 C 26.278097,18.442031 26.634446,17.477470 26.971020,17.530023 z "
     style="font-size:12;opacity:0.25;fill-rule:evenodd;stroke-width:1pt;"
     id="path874" />
  <path
     d="M 26.294793,20.872233 C 32.296223,21.810340 39.218357,23.235562 44.938661,24.847086 C 45.307841,24.951135 44.946922,26.078798 44.563155,26.018864 C 38.608830,25.088137 31.691175,23.499726 25.924649,21.875196 C 25.601781,21.784242 25.958216,20.819595 26.294793,20.872233 z "
     style="font-size:12;opacity:0.25;fill-rule:evenodd;stroke-width:1pt;"
     id="path875" />
  <path
     d="M 25.557050,24.393017 C 31.558478,25.331036 38.480702,26.756255 44.200918,28.367781 C 44.570185,28.471828 44.209090,29.599491 43.825499,29.539559 C 37.871173,28.608831 30.953521,27.020420 25.186904,25.395889 C 24.864124,25.304935 25.220560,24.340288 25.557050,24.393017 z "
     style="font-size:12;opacity:0.25;fill-rule:evenodd;stroke-width:1pt;"
     id="path876" />
  <path
     d="M 14.686644,49.594936 C 15.772327,51.100128 48.151866,59.573855 49.584030,58.797357 C 50.948966,57.943437 59.381828,20.307524 58.427904,18.880456 C 57.683832,17.714567 23.153562,13.240000 22.096377,14.219544 C 20.994727,15.364772 13.783926,48.177715 14.686644,49.594936 z "
     style="font-size:12;opacity:0.302675;fill-rule:evenodd;stroke-width:12.5;"
     id="path877" />
  <path
     d="M 12.269974,46.738872 C 13.355656,48.244061 45.735197,56.717789 47.167359,55.941290 C 48.532295,55.087371 56.965158,17.451458 56.011232,16.024392 C 55.267161,14.858502 20.736891,10.383935 19.679707,11.363477 C 18.578056,12.508725 11.367254,45.321648 12.269974,46.738872 z "
     style="font-size:12.000000;fill:url(#linearGradient861);fill-rule:evenodd;stroke:#261933;stroke-width:1.8750000;stroke-dasharray:none;"
     id="path878" />
  <path
     d="M 18.365037,48.412089 C 18.922717,43.830782 19.958546,39.727540 21.113803,35.624296 C 28.762522,37.177905 36.172298,38.970638 43.701502,41.002309 C 42.825085,45.503909 41.829153,50.125112 40.594191,54.387680 C 32.786147,53.033201 25.814623,50.842116 18.365037,48.412089 z "
     style="font-size:12.000000;fill:#595161;fill-rule:evenodd;stroke:#261933;stroke-width:1.2500000;stroke-dasharray:none;"
     id="path879" />
  <path
     d="M 25.416267,11.961037 C 23.902465,17.299252 22.388663,23.354462 21.711380,29.051215 C 29.240583,31.162594 37.964942,33.034942 45.613748,34.429229 C 47.286875,28.174797 48.720972,21.561819 49.796608,15.187872 C 42.227508,13.873221 32.985280,12.319574 25.416267,11.961037 z "
     style="font-size:12.000000;fill:url(#linearGradient862);fill-rule:evenodd;stroke:#261933;stroke-width:1.2500000;stroke-dasharray:none;"
     id="path880" />
  <path
     d="M 23.129394,39.149384 C 22.566004,41.346532 22.002610,43.543769 21.439217,45.740918 C 22.284263,45.966240 22.950122,46.191651 23.795164,46.416971 C 24.245896,44.276154 24.995415,41.896216 25.505904,39.755396 C 24.773521,39.473744 23.981292,39.311519 23.129394,39.149384 z M 18.930100,48.119516 C 19.472931,43.877071 20.577125,40.189889 21.478498,36.246234 C 27.224991,37.355882 33.688575,38.833458 39.375310,40.480926 C 38.533692,44.533901 37.278377,48.798908 36.197729,52.971399 C 30.391480,51.752519 24.676594,50.234761 18.930100,48.119516 z "
     style="font-size:12;fill:url(#linearGradient869);fill-rule:evenodd;stroke:none;stroke-width:6.25;stroke-dasharray:none;stroke-opacity:1;"
     id="path881"
     sodipodi:nodetypes="cccccccccc" />
  <path
     d="M 14.182175,45.663233 C 13.841821,44.791036 19.409479,14.924851 21.352920,13.275531 C 23.290827,11.612834 52.813055,16.732433 53.143040,17.578004 C 53.450440,18.365752 30.220258,12.942223 23.623625,17.697430 C 17.233244,22.303956 14.479206,46.424353 14.182175,45.663233 z "
     style="font-size:12;opacity:0.7;fill:url(#linearGradient581);fill-rule:evenodd;stroke:none;stroke-width:1pt;"
     id="path882" />
  <path
     d="M 19.601179,47.088035 C 19.528594,46.922119 21.356561,37.371261 21.991487,37.049008 C 22.939261,36.527799 29.627815,38.318244 29.699963,38.483192 C 29.767191,38.636894 24.388386,37.400700 22.918522,38.504284 C 21.426426,39.639063 19.668056,47.240856 19.601179,47.088035 z "
     style="font-size:12;opacity:0.7;fill:url(#linearGradient583);fill-rule:evenodd;stroke:none;stroke-width:1pt;"
     id="path883"
     sodipodi:nodetypes="ccccc" />
  <path
     d="M 22.129683,46.380327 C 22.094180,46.291569 23.611322,47.272737 23.922413,46.918144 C 24.607255,46.137429 25.080042,42.880547 25.117479,42.974225 C 25.159661,43.079768 24.989527,46.924297 24.326217,47.680495 C 23.993597,48.059693 22.173886,46.490703 22.129683,46.380327 z "
     style="font-size:12;opacity:0.990000;fill:url(#linearGradient860);fill-rule:evenodd;stroke:none;stroke-width:1pt;"
     id="path884" />
  <path
     d="M 26.971020,17.530023 C 32.972451,18.468219 39.894674,19.893438 45.614892,21.504873 C 45.984158,21.608923 45.623151,22.736587 45.239382,22.676651 C 39.285057,21.746013 32.367490,20.157514 26.600876,18.532984 C 26.278097,18.442031 26.634446,17.477470 26.971020,17.530023 z "
     style="font-size:12;opacity:0.25;fill-rule:evenodd;stroke-width:1pt;"
     id="path885" />
  <path
     d="M 26.294793,20.872233 C 32.296223,21.810340 39.218357,23.235562 44.938661,24.847086 C 45.307841,24.951135 44.946922,26.078798 44.563155,26.018864 C 38.608830,25.088137 31.691175,23.499726 25.924649,21.875196 C 25.601781,21.784242 25.958216,20.819595 26.294793,20.872233 z "
     style="font-size:12;opacity:0.25;fill-rule:evenodd;stroke-width:1pt;"
     id="path886" />
  <path
     d="M 25.557050,24.393017 C 31.558478,25.331036 38.480702,26.756255 44.200918,28.367781 C 44.570185,28.471828 44.209090,29.599491 43.825499,29.539559 C 37.871173,28.608831 30.953521,27.020420 25.186904,25.395889 C 24.864124,25.304935 25.220560,24.340288 25.557050,24.393017 z "
     style="font-size:12;opacity:0.25;fill-rule:evenodd;stroke-width:1pt;"
     id="path887" />
  <metadata
     id="metadata67">
    <rdf:RDF
       id="RDF68">
      <cc:Work
         rdf:about=""
         id="Work69">
        <dc:format
           id="format70">image/svg+xml</dc:format>
        <dc:type
           id="type72"
           rdf:resource="http://purl.org/dc/dcmitype/StillImage" />
      </cc:Work>
    </rdf:RDF>
  </metadata>
</svg>
