<?xml version="1.0" encoding="UTF-8" standalone="no"?>
<!DOCTYPE svg PUBLIC "-//W3C//DTD SVG 20010904//EN"
"http://www.w3.org/TR/2001/REC-SVG-20010904/DTD/svg10.dtd">
<!-- Created with Inkscape (http://www.inkscape.org/) -->
<svg
   id="svg1"
   sodipodi:version="0.32"
   inkscape:version="0.39"
   width="48pt"
   height="48pt"
   sodipodi:docbase="/home/stefan/software/Lila-themes/lila-gnome/Lila/scalable/stock"
   sodipodi:docname="volume-max.svg"
   xmlns="http://www.w3.org/2000/svg"
   xmlns:cc="http://web.resource.org/cc/"
   xmlns:inkscape="http://www.inkscape.org/namespaces/inkscape"
   xmlns:sodipodi="http://sodipodi.sourceforge.net/DTD/sodipodi-0.dtd"
   xmlns:rdf="http://www.w3.org/1999/02/22-rdf-syntax-ns#"
   xmlns:dc="http://purl.org/dc/elements/1.1/"
   xmlns:xlink="http://www.w3.org/1999/xlink">
  <defs
     id="defs3">
    <linearGradient
       id="linearGradient758">
      <stop
         style="stop-color:#d9cce6;stop-opacity:1;"
         offset="0.00000000"
         id="stop759" />
      <stop
         style="stop-color:#73667f;stop-opacity:1;"
         offset="1.00000000"
         id="stop760" />
    </linearGradient>
    <linearGradient
       id="linearGradient745">
      <stop
         style="stop-color:#d9cce6;stop-opacity:1;"
         offset="0.00000000"
         id="stop746" />
      <stop
         style="stop-color:#73667f;stop-opacity:1;"
         offset="1.00000000"
         id="stop747" />
    </linearGradient>
    <linearGradient
       id="linearGradient742">
      <stop
         offset="0.00000000"
         style="stop-color:#d9cce6;stop-opacity:1;"
         id="stop744" />
      <stop
         offset="1.00000000"
         style="stop-color:#73667f;stop-opacity:1;"
         id="stop743" />
    </linearGradient>
    <linearGradient
       id="linearGradient711">
      <stop
         offset="0.00000000"
         style="stop-color:#ffffff;stop-opacity:1;"
         id="stop713" />
      <stop
         offset="1.00000000"
         style="stop-color:#ffffff;stop-opacity:0;"
         id="stop712" />
    </linearGradient>
    <linearGradient
       id="linearGradient599">
      <stop
         style="stop-color:#ffffff;stop-opacity:1;"
         offset="0.00000000"
         id="stop600" />
      <stop
         style="stop-color:#d9cce6;stop-opacity:1;"
         offset="1.00000000"
         id="stop601" />
    </linearGradient>
    <linearGradient
       id="linearGradient584">
      <stop
         style="stop-color:#ffffff;stop-opacity:1;"
         offset="0.00000000"
         id="stop585" />
      <stop
         style="stop-color:#ffffff;stop-opacity:0;"
         offset="1.00000000"
         id="stop586" />
    </linearGradient>
    <linearGradient
       id="linearGradient578">
      <stop
         style="stop-color:#d9cce6;stop-opacity:1;"
         offset="0.00000000"
         id="stop579" />
      <stop
         style="stop-color:#73667f;stop-opacity:1;"
         offset="1.00000000"
         id="stop580" />
    </linearGradient>
    <linearGradient
       xlink:href="#linearGradient578"
       id="linearGradient581"
       x1="-0.00000000"
       y1="0.00000000"
       x2="0.97916669"
       y2="0.97656250" />
    <linearGradient
       xlink:href="#linearGradient578"
       id="linearGradient583"
       x1="0.98979592"
       y1="0.99218750"
       x2="0.03061225"
       y2="-0.00000000" />
    <linearGradient
       xlink:href="#linearGradient578"
       id="linearGradient860"
       x1="-0.00000000"
       y1="-0.00000000"
       x2="0.98076922"
       y2="1.00781250" />
    <linearGradient
       xlink:href="#linearGradient599"
       id="linearGradient861"
       x1="0.98979592"
       y1="0.99218750"
       x2="0.03061225"
       y2="0.00000000" />
    <linearGradient
       xlink:href="#linearGradient584"
       id="linearGradient862"
       x1="-0.00000000"
       y1="0.00000000"
       x2="0.97457629"
       y2="0.99218750" />
    <radialGradient
       xlink:href="#linearGradient578"
       id="radialGradient595"
       cx="0.33846155"
       cy="0.34375000"
       r="0.66501766"
       fx="0.33076921"
       fy="0.33593750" />
    <linearGradient
       xlink:href="#linearGradient584"
       id="linearGradient652"
       x1="-0.00000000"
       y1="-0.00000000"
       x2="0.99637681"
       y2="0.96052629" />
    <linearGradient
       xlink:href="#linearGradient584"
       id="linearGradient654"
       x1="0.01098901"
       y1="0.01562500"
       x2="0.97802198"
       y2="0.98437500" />
    <linearGradient
       xlink:href="#linearGradient758"
       id="linearGradient661"
       x1="0.00000000"
       y1="0.03125000"
       x2="0.96629214"
       y2="0.95312500" />
    <linearGradient
       xlink:href="#linearGradient578"
       id="linearGradient616"
       x1="0.02439024"
       y1="0.03125000"
       x2="0.96747965"
       y2="0.96875000" />
    <linearGradient
       xlink:href="#linearGradient584"
       id="linearGradient618"
       x1="0.00000000"
       y1="-0.00000000"
       x2="1.00000000"
       y2="1.00781250" />
    <linearGradient
       xlink:href="#linearGradient584"
       id="linearGradient620"
       x1="-0.00000000"
       y1="0.00000000"
       x2="1.00000000"
       y2="0.99218750" />
    <linearGradient
       xlink:href="#linearGradient584"
       id="linearGradient633"
       x1="0.00000000"
       y1="0.00000000"
       x2="1.00000000"
       y2="0.00000000" />
  </defs>
  <sodipodi:namedview
     id="base"
     pagecolor="#ffffff"
     bordercolor="#666666"
     borderopacity="1.0"
     inkscape:pageopacity="0.0"
     inkscape:pageshadow="2"
     inkscape:zoom="5.6568543"
     inkscape:cx="36.502209"
     inkscape:cy="23.685266"
     inkscape:window-width="567"
     inkscape:window-height="526"
     inkscape:window-x="208"
     inkscape:window-y="108"
     showborder="true"
     showgrid="false"
     gridspacingx="1pt"
     gridspacingy="1pt"
     snaptogrid="false"
     inkscape:grid-bbox="false" />
  <path
     style="fill:black;fill-rule:nonzero;stroke:none;fill-opacity:0.75;stroke-opacity:1;stroke-width:1pt;stroke-linejoin:miter;stroke-linecap:butt;"
     id="path683"
     d="M -9.7854876 -2.0239531 C -9.7871958 -2.0241548 -9.7889041 -2.0243565 -9.7906123 -2.0245582 L -9.7906123 -3.3664568 C -9.7889041 -3.3666585 -9.7871958 -3.3668602 -9.7854876 -3.3670619 L -9.7854876 -2.0239531 z " />
  <path
     style="font-size:12.000000;fill:#000000;fill-opacity:0.30081299;fill-rule:evenodd;stroke:none;stroke-width:1.2500000;"
     d="M 42.603029,36.526934 C 41.901578,36.499775 41.399237,36.606999 41.228029,36.964434 C 40.543196,38.394176 40.925209,50.676388 40.446779,50.683184 C 39.327606,50.697899 36.977184,50.797336 36.290529,51.339434 C 35.603873,51.881530 35.165529,52.637812 35.165529,53.464434 C 35.165529,54.291057 35.603873,55.016089 36.290529,55.558184 C 36.977184,56.100280 37.899723,56.433185 38.946779,56.433184 C 39.993834,56.433184 40.947623,56.100281 41.634279,55.558184 C 42.320934,55.016088 42.759280,53.072305 42.759279,52.245684 C 42.759279,51.832373 42.933084,44.693136 43.040529,41.589434 C 43.094252,40.037583 47.912630,42.305239 51.367791,41.151934 C 51.191372,45.257428 51.414957,50.678309 51.071779,50.683184 C 49.952606,50.697899 47.602182,50.797336 46.915529,51.339434 C 46.228873,51.881530 45.790529,52.637812 45.790529,53.464434 C 45.790529,54.291057 46.228871,55.016089 46.915529,55.558184 C 47.602184,56.100280 48.555973,56.433185 49.603029,56.433184 C 50.650084,56.433184 51.572623,56.100281 52.259279,55.558184 C 52.945934,55.016088 53.384280,53.072305 53.384279,52.245684 C 53.384279,51.832373 53.393238,44.816409 53.768915,41.733706 C 54.054679,39.316671 55.410601,35.566210 52.112665,36.774592 C 49.101404,37.877934 44.707381,36.608412 42.603029,36.526934 z "
     id="path1632"
     sodipodi:nodetypes="ccccccccccccccccccssc"
     transform="matrix(0.850777,0.000000,0.000000,0.850777,2.440814,-23.34045)" />
  <path
     style="font-size:12.000000;fill:url(#linearGradient616);fill-opacity:1.00000000;fill-rule:evenodd;stroke:#261933;stroke-width:1.2500000;stroke-opacity:1.0000000;"
     d="M 36.718750,36.125000 C 36.017299,36.097841 35.514958,36.205065 35.343750,36.562500 C 34.658917,37.992242 35.040930,50.274454 34.562500,50.281250 C 33.443327,50.295965 31.092905,50.395402 30.406250,50.937500 C 29.719594,51.479596 29.281250,52.235878 29.281250,53.062500 C 29.281250,53.889123 29.719594,54.614155 30.406250,55.156250 C 31.092905,55.698346 32.015444,56.031251 33.062500,56.031250 C 34.109555,56.031250 35.063344,55.698347 35.750000,55.156250 C 36.436655,54.614154 36.875001,52.670371 36.875000,51.843750 C 36.875000,51.430439 37.048805,44.291202 37.156250,41.187500 C 37.209973,39.635649 42.028351,41.903305 45.483512,40.750000 C 45.307093,44.855494 45.530678,50.276375 45.187500,50.281250 C 44.068327,50.295965 41.717903,50.395402 41.031250,50.937500 C 40.344594,51.479596 39.906250,52.235878 39.906250,53.062500 C 39.906250,53.889123 40.344592,54.614155 41.031250,55.156250 C 41.717905,55.698346 42.671694,56.031251 43.718750,56.031250 C 44.765805,56.031250 45.688344,55.698347 46.375000,55.156250 C 47.061655,54.614154 47.500001,52.670371 47.500000,51.843750 C 47.500000,51.430439 47.508959,44.414475 47.884636,41.331772 C 48.170400,38.914737 49.526322,35.164276 46.228386,36.372658 C 43.217125,37.476000 38.823102,36.206478 36.718750,36.125000 z "
     id="path1615"
     sodipodi:nodetypes="ccccccccccccccccccssc"
     transform="matrix(0.850777,0.000000,0.000000,0.850777,6.123119,-24.32240)" />
  <path
     style="font-size:12.000000;fill-opacity:1.00000000;stroke-width:1.0000000pt;"
     id="path682"
     d="M 34.340968,41.503501 C 34.339260,41.503299 34.337552,41.503098 34.335844,41.502896 L 34.335844,40.160997 C 34.337552,40.160796 34.339260,40.160594 34.340968,40.160392 L 34.340968,41.503501 z "
     transform="matrix(0.850777,0.000000,0.000000,0.850777,6.123119,-24.32240)" />
  <path
     style="font-size:12.000000;fill:url(#linearGradient654);fill-rule:evenodd;stroke-width:1.0000000pt;"
     d="M 31.495146,51.540450 C 30.337742,51.978326 30.272239,52.583398 30.230790,53.520306 C 30.671573,53.160079 30.492121,52.314908 32.027796,52.022954 C 34.633312,51.499244 35.528639,52.232627 35.671646,51.224285 C 36.161145,47.186399 35.925009,42.170366 36.337305,38.495424 C 36.434839,37.772002 36.475173,37.889484 37.729574,37.902052 C 39.935115,37.852014 46.453114,38.155551 46.555886,37.380435 C 41.999024,38.088665 37.186990,36.888945 36.021140,36.964743 C 35.621256,40.783372 35.663003,47.942169 35.471979,50.658613 C 35.384567,51.939718 33.532376,50.801177 31.495146,51.540450 z "
     id="path1610"
     sodipodi:nodetypes="ccssssccss"
     transform="matrix(0.850777,0.000000,0.000000,0.850777,6.123119,-24.32240)" />
  <path
     style="font-size:12.000000;fill:url(#linearGradient654);fill-rule:evenodd;stroke-width:1.0000000pt;"
     d="M 42.125067,51.540450 C 40.967663,51.978326 40.902160,52.583398 40.860711,53.520306 C 41.301494,53.160079 41.122042,52.314908 42.657717,52.022954 C 45.263233,51.499244 46.432928,52.242636 46.445839,51.224285 C 46.502522,46.681446 46.563163,42.914703 46.606546,41.380869 C 46.550472,40.812999 46.734868,40.423614 46.434653,40.355141 C 46.179041,41.865414 46.292924,47.942169 46.101900,50.658613 C 46.014488,51.939718 44.162297,50.801177 42.125067,51.540450 z "
     id="path1616"
     sodipodi:nodetypes="ccssscss"
     transform="matrix(0.850777,0.000000,0.000000,0.850777,6.123119,-24.32240)" />
  <path
     style="font-size:12.000000;fill:#000000;fill-opacity:0.30081299;fill-rule:evenodd;stroke:none;stroke-width:1.2500000;"
     d="M 42.603029,36.526934 C 41.901578,36.499775 41.399237,36.606999 41.228029,36.964434 C 40.543196,38.394176 40.925209,50.676388 40.446779,50.683184 C 39.327606,50.697899 36.977184,50.797336 36.290529,51.339434 C 35.603873,51.881530 35.165529,52.637812 35.165529,53.464434 C 35.165529,54.291057 35.603873,55.016089 36.290529,55.558184 C 36.977184,56.100280 37.899723,56.433185 38.946779,56.433184 C 39.993834,56.433184 40.947623,56.100281 41.634279,55.558184 C 42.320934,55.016088 42.759280,53.072305 42.759279,52.245684 C 42.759279,51.832373 42.933084,44.693136 43.040529,41.589434 C 43.094252,40.037583 47.912630,42.305239 51.367791,41.151934 C 51.191372,45.257428 51.414957,50.678309 51.071779,50.683184 C 49.952606,50.697899 47.602182,50.797336 46.915529,51.339434 C 46.228873,51.881530 45.790529,52.637812 45.790529,53.464434 C 45.790529,54.291057 46.228871,55.016089 46.915529,55.558184 C 47.602184,56.100280 48.555973,56.433185 49.603029,56.433184 C 50.650084,56.433184 51.572623,56.100281 52.259279,55.558184 C 52.945934,55.016088 53.384280,53.072305 53.384279,52.245684 C 53.384279,51.832373 53.393238,44.816409 53.768915,41.733706 C 54.054679,39.316671 55.410601,35.566210 52.112665,36.774592 C 49.101404,37.877934 44.707381,36.608412 42.603029,36.526934 z "
     id="path1644"
     sodipodi:nodetypes="ccccccccccccccccccssc"
     transform="matrix(0.690655,0.000000,0.000000,0.690655,21.73949,-2.748425)" />
  <path
     style="font-size:12.000000;fill:url(#linearGradient616);fill-opacity:1.00000000;fill-rule:evenodd;stroke:#261933;stroke-width:1.2500000;stroke-opacity:1.0000000;"
     d="M 36.718750,36.125000 C 36.017299,36.097841 35.514958,36.205065 35.343750,36.562500 C 34.658917,37.992242 35.040930,50.274454 34.562500,50.281250 C 33.443327,50.295965 31.092905,50.395402 30.406250,50.937500 C 29.719594,51.479596 29.281250,52.235878 29.281250,53.062500 C 29.281250,53.889123 29.719594,54.614155 30.406250,55.156250 C 31.092905,55.698346 32.015444,56.031251 33.062500,56.031250 C 34.109555,56.031250 35.063344,55.698347 35.750000,55.156250 C 36.436655,54.614154 36.875001,52.670371 36.875000,51.843750 C 36.875000,51.430439 37.048805,44.291202 37.156250,41.187500 C 37.209973,39.635649 42.028351,41.903305 45.483512,40.750000 C 45.307093,44.855494 45.530678,50.276375 45.187500,50.281250 C 44.068327,50.295965 41.717903,50.395402 41.031250,50.937500 C 40.344594,51.479596 39.906250,52.235878 39.906250,53.062500 C 39.906250,53.889123 40.344592,54.614155 41.031250,55.156250 C 41.717905,55.698346 42.671694,56.031251 43.718750,56.031250 C 44.765805,56.031250 45.688344,55.698347 46.375000,55.156250 C 47.061655,54.614154 47.500001,52.670371 47.500000,51.843750 C 47.500000,51.430439 47.508959,44.414475 47.884636,41.331772 C 48.170400,38.914737 49.526322,35.164276 46.228386,36.372658 C 43.217125,37.476000 38.823102,36.206478 36.718750,36.125000 z "
     id="path1645"
     sodipodi:nodetypes="ccccccccccccccccccssc"
     transform="matrix(0.690655,0.000000,0.000000,0.690655,24.72876,-3.545564)" />
  <path
     style="font-size:12.000000;fill-opacity:1.00000000;stroke-width:1.0000000pt;"
     id="path1646"
     d="M 34.340968,41.503501 C 34.339260,41.503299 34.337552,41.503098 34.335844,41.502896 L 34.335844,40.160997 C 34.337552,40.160796 34.339260,40.160594 34.340968,40.160392 L 34.340968,41.503501 z "
     transform="matrix(0.690655,0.000000,0.000000,0.690655,24.72876,-3.545564)" />
  <path
     style="font-size:12.000000;fill:url(#linearGradient654);fill-rule:evenodd;stroke-width:1.0000000pt;"
     d="M 31.495146,51.540450 C 30.337742,51.978326 30.272239,52.583398 30.230790,53.520306 C 30.671573,53.160079 30.492121,52.314908 32.027796,52.022954 C 34.633312,51.499244 35.528639,52.232627 35.671646,51.224285 C 36.161145,47.186399 35.925009,42.170366 36.337305,38.495424 C 36.434839,37.772002 36.475173,37.889484 37.729574,37.902052 C 39.935115,37.852014 46.453114,38.155551 46.555886,37.380435 C 41.999024,38.088665 37.186990,36.888945 36.021140,36.964743 C 35.621256,40.783372 35.663003,47.942169 35.471979,50.658613 C 35.384567,51.939718 33.532376,50.801177 31.495146,51.540450 z "
     id="path1647"
     sodipodi:nodetypes="ccssssccss"
     transform="matrix(0.690655,0.000000,0.000000,0.690655,24.72876,-3.545564)" />
  <path
     style="font-size:12.000000;fill:url(#linearGradient654);fill-rule:evenodd;stroke-width:1.0000000pt;"
     d="M 42.125067,51.540450 C 40.967663,51.978326 40.902160,52.583398 40.860711,53.520306 C 41.301494,53.160079 41.122042,52.314908 42.657717,52.022954 C 45.263233,51.499244 46.432928,52.242636 46.445839,51.224285 C 46.502522,46.681446 46.563163,42.914703 46.606546,41.380869 C 46.550472,40.812999 46.734868,40.423614 46.434653,40.355141 C 46.179041,41.865414 46.292924,47.942169 46.101900,50.658613 C 46.014488,51.939718 44.162297,50.801177 42.125067,51.540450 z "
     id="path1648"
     sodipodi:nodetypes="ccssscss"
     transform="matrix(0.690655,0.000000,0.000000,0.690655,24.72876,-3.545564)" />
  <metadata
     id="metadata1142">
    <rdf:RDF
       id="RDF1143">
      <cc:Work
         rdf:about=""
         id="Work1144">
        <dc:format
           id="format1145">image/svg+xml</dc:format>
        <dc:type
           id="type1147"
           rdf:resource="http://purl.org/dc/dcmitype/StillImage" />
      </cc:Work>
    </rdf:RDF>
  </metadata>
  <g
     id="g1204"
     style="font-size:12.000000;opacity:0.29636899;"
     transform="matrix(-0.561939,0.236348,0.267086,0.635022,28.49622,7.529250)">
    <path
       style="fill-rule:evenodd;stroke-width:1.8750000;"
       d="M 40.181906,49.683924 C 43.741420,46.987630 55.413093,36.819956 56.782923,33.597578 C 58.501012,29.555960 56.258798,19.433555 53.192815,16.716700 C 50.944448,14.724357 36.640091,12.559718 32.521925,12.563247 C 28.414485,12.566766 34.838722,53.731330 40.181906,49.683924 z "
       id="path1205"
       sodipodi:nodetypes="cssss" />
    <path
       style="fill-rule:evenodd;stroke-width:1.8750000;"
       d="M 46.995589,33.682468 C 46.995589,44.404983 40.468842,53.107313 32.426956,53.107313 C 24.385071,53.107313 17.858323,44.404983 17.858323,33.682468 C 17.858323,22.959954 24.385071,14.257624 32.426956,14.257624 C 40.468842,14.257624 46.995589,22.959954 46.995589,33.682468 z "
       id="path1206"
       transform="matrix(1.373487,0.000000,0.000000,1.373487,-17.61598,-13.82184)" />
  </g>
  <path
     style="font-size:12.000000;fill:url(#linearGradient860);fill-rule:evenodd;stroke:#000000;stroke-width:1.2150946;"
     d="M 17.729912,47.613804 C 15.180506,46.716815 6.5065906,42.973340 5.0076905,41.306866 C 3.1277184,39.216715 1.9320394,32.632785 2.9336282,30.357760 C 3.6681197,28.689423 10.832161,24.431990 13.043196,23.585317 C 15.248469,22.740850 21.556825,48.960274 17.729912,47.613804 z "
     id="path1207"
     sodipodi:nodetypes="cssss" />
  <path
     style="font-size:12.000000;fill:url(#linearGradient652);fill-rule:evenodd;stroke-width:1.0000000pt;"
     d="M 4.1697382,30.998728 C 4.2400837,30.775184 9.3519385,26.462796 11.612062,25.711437 C 12.203312,25.514881 12.800493,27.911450 12.723857,28.154983 C 12.667439,28.334272 11.719472,26.811498 11.212898,26.979907 C 8.8680984,27.759415 4.1070283,31.198008 4.1697382,30.998728 z "
     id="path1208"
     sodipodi:nodetypes="cssss" />
  <path
     style="font-size:12.000000;fill:url(#linearGradient581);fill-rule:evenodd;stroke:#261933;stroke-width:1.2150946;"
     d="M 10.060054,38.605550 C 13.769157,47.424262 21.529582,52.583608 27.382432,50.121924 C 33.235281,47.660254 34.975132,38.505149 31.266028,29.686433 C 27.556926,20.867719 19.796502,15.708383 13.943653,18.170059 C 8.0908006,20.631735 6.3509485,29.786835 10.060054,38.605550 z "
     id="path1209" />
  <path
     style="font-size:12.000000;fill:url(#linearGradient583);fill-rule:evenodd;stroke-width:0.37500000;"
     d="M 14.164436,36.879270 C 16.437758,42.284290 21.194147,45.446463 24.781379,43.937694 C 28.368608,42.428924 29.434970,36.817735 27.161649,31.412714 C 24.888327,26.007694 20.131937,22.845521 16.544705,24.354289 C 12.957474,25.863060 11.891115,31.474251 14.164436,36.879270 z "
     id="path1210" />
  <path
     style="font-size:12.000000;fill:url(#linearGradient861);fill-rule:evenodd;stroke:#261933;stroke-width:0.31474543;"
     d="M 18.525342,35.045097 C 19.273146,36.823062 20.837746,37.863253 22.017756,37.366947 C 23.197767,36.870640 23.548543,35.024855 22.800740,33.246887 C 22.052937,31.468918 20.488336,30.428732 19.308324,30.925038 C 18.128314,31.421344 17.777537,33.267128 18.525342,35.045097 z "
     id="path1211" />
  <path
     style="font-size:12.000000;fill:url(#linearGradient862);fill-rule:evenodd;stroke-width:1.0000000pt;"
     d="M 13.272982,41.713194 C 12.964607,41.412793 7.1014185,31.163963 11.105972,22.574799 C 13.699878,17.150267 21.130623,19.321589 21.439452,19.622433 C 21.719987,19.895713 15.410103,18.509898 12.874062,24.297172 C 9.1222315,33.127083 13.553970,41.986916 13.272982,41.713194 z "
     id="path1212"
     sodipodi:nodetypes="cssss" />
  <path
     style="font-size:12.000000;fill:url(#linearGradient862);fill-rule:evenodd;stroke-width:1.0000000pt;"
     d="M 19.308599,35.772357 C 19.246439,35.711804 18.064583,33.645929 18.871791,31.914596 C 19.394647,30.821162 20.892477,31.258841 20.954728,31.319481 C 21.011276,31.374567 19.739381,31.095225 19.228187,32.261777 C 18.471924,34.041640 19.365236,35.827531 19.308599,35.772357 z "
     id="path1213"
     sodipodi:nodetypes="cssss" />
  <path
     style="font-size:12.000000;fill:url(#linearGradient862);fill-rule:evenodd;stroke-width:1.0000000pt;"
     d="M 25.308572,29.905132 C 25.492320,30.084128 28.985945,36.190969 26.599801,41.308886 C 25.054202,44.541134 20.626539,43.247336 20.442521,43.068075 C 20.275363,42.905238 24.035154,43.730988 25.546273,40.282598 C 27.781828,35.021229 25.141144,29.742031 25.308572,29.905132 z "
     id="path1214"
     sodipodi:nodetypes="cssss" />
  <path
     style="font-size:12.000000;fill:#000000;fill-opacity:0.30081299;fill-rule:evenodd;stroke:none;stroke-width:1.2500000;"
     d="M 42.603029,36.526934 C 41.901578,36.499775 41.399237,36.606999 41.228029,36.964434 C 40.543196,38.394176 40.925209,50.676388 40.446779,50.683184 C 39.327606,50.697899 36.977184,50.797336 36.290529,51.339434 C 35.603873,51.881530 35.165529,52.637812 35.165529,53.464434 C 35.165529,54.291057 35.603873,55.016089 36.290529,55.558184 C 36.977184,56.100280 37.899723,56.433185 38.946779,56.433184 C 39.993834,56.433184 40.947623,56.100281 41.634279,55.558184 C 42.320934,55.016088 42.759280,53.072305 42.759279,52.245684 C 42.759279,51.832373 42.933084,44.693136 43.040529,41.589434 C 43.094252,40.037583 47.912630,42.305239 51.367791,41.151934 C 51.191372,45.257428 51.414957,50.678309 51.071779,50.683184 C 49.952606,50.697899 47.602182,50.797336 46.915529,51.339434 C 46.228873,51.881530 45.790529,52.637812 45.790529,53.464434 C 45.790529,54.291057 46.228871,55.016089 46.915529,55.558184 C 47.602184,56.100280 48.555973,56.433185 49.603029,56.433184 C 50.650084,56.433184 51.572623,56.100281 52.259279,55.558184 C 52.945934,55.016088 53.384280,53.072305 53.384279,52.245684 C 53.384279,51.832373 53.393238,44.816409 53.768915,41.733706 C 54.054679,39.316671 55.410601,35.566210 52.112665,36.774592 C 49.101404,37.877934 44.707381,36.608412 42.603029,36.526934 z "
     id="path1216"
     sodipodi:nodetypes="ccccccccccccccccccssc"
     transform="matrix(0.581802,0.000000,0.000000,0.581802,17.71726,16.80182)" />
  <path
     style="font-size:12.000000;fill:url(#linearGradient616);fill-opacity:1.00000000;fill-rule:evenodd;stroke:#261933;stroke-width:1.2500000;stroke-opacity:1.0000000;"
     d="M 36.718750,36.125000 C 36.017299,36.097841 35.514958,36.205065 35.343750,36.562500 C 34.658917,37.992242 35.040930,50.274454 34.562500,50.281250 C 33.443327,50.295965 31.092905,50.395402 30.406250,50.937500 C 29.719594,51.479596 29.281250,52.235878 29.281250,53.062500 C 29.281250,53.889123 29.719594,54.614155 30.406250,55.156250 C 31.092905,55.698346 32.015444,56.031251 33.062500,56.031250 C 34.109555,56.031250 35.063344,55.698347 35.750000,55.156250 C 36.436655,54.614154 36.875001,52.670371 36.875000,51.843750 C 36.875000,51.430439 37.048805,44.291202 37.156250,41.187500 C 37.209973,39.635649 42.028351,41.903305 45.483512,40.750000 C 45.307093,44.855494 45.530678,50.276375 45.187500,50.281250 C 44.068327,50.295965 41.717903,50.395402 41.031250,50.937500 C 40.344594,51.479596 39.906250,52.235878 39.906250,53.062500 C 39.906250,53.889123 40.344592,54.614155 41.031250,55.156250 C 41.717905,55.698346 42.671694,56.031251 43.718750,56.031250 C 44.765805,56.031250 45.688344,55.698347 46.375000,55.156250 C 47.061655,54.614154 47.500001,52.670371 47.500000,51.843750 C 47.500000,51.430439 47.508959,44.414475 47.884636,41.331772 C 48.170400,38.914737 49.526322,35.164276 46.228386,36.372658 C 43.217125,37.476000 38.823102,36.206478 36.718750,36.125000 z "
     id="path1217"
     sodipodi:nodetypes="ccccccccccccccccccssc"
     transform="matrix(0.581802,0.000000,0.000000,0.581802,20.23540,16.13032)" />
  <path
     style="font-size:12.000000;fill-opacity:1.00000000;stroke-width:1.0000000pt;"
     id="path1218"
     d="M 34.340968,41.503501 C 34.339260,41.503299 34.337552,41.503098 34.335844,41.502896 L 34.335844,40.160997 C 34.337552,40.160796 34.339260,40.160594 34.340968,40.160392 L 34.340968,41.503501 z "
     transform="matrix(0.581802,0.000000,0.000000,0.581802,20.23540,16.13032)" />
  <path
     style="font-size:12.000000;fill:url(#linearGradient654);fill-rule:evenodd;stroke-width:1.0000000pt;"
     d="M 31.495146,51.540450 C 30.337742,51.978326 30.272239,52.583398 30.230790,53.520306 C 30.671573,53.160079 30.492121,52.314908 32.027796,52.022954 C 34.633312,51.499244 35.528639,52.232627 35.671646,51.224285 C 36.161145,47.186399 35.925009,42.170366 36.337305,38.495424 C 36.434839,37.772002 36.475173,37.889484 37.729574,37.902052 C 39.935115,37.852014 46.453114,38.155551 46.555886,37.380435 C 41.999024,38.088665 37.186990,36.888945 36.021140,36.964743 C 35.621256,40.783372 35.663003,47.942169 35.471979,50.658613 C 35.384567,51.939718 33.532376,50.801177 31.495146,51.540450 z "
     id="path1219"
     sodipodi:nodetypes="ccssssccss"
     transform="matrix(0.581802,0.000000,0.000000,0.581802,20.23540,16.13032)" />
  <path
     style="font-size:12.000000;fill:url(#linearGradient654);fill-rule:evenodd;stroke-width:1.0000000pt;"
     d="M 42.125067,51.540450 C 40.967663,51.978326 40.902160,52.583398 40.860711,53.520306 C 41.301494,53.160079 41.122042,52.314908 42.657717,52.022954 C 45.263233,51.499244 46.432928,52.242636 46.445839,51.224285 C 46.502522,46.681446 46.563163,42.914703 46.606546,41.380869 C 46.550472,40.812999 46.734868,40.423614 46.434653,40.355141 C 46.179041,41.865414 46.292924,47.942169 46.101900,50.658613 C 46.014488,51.939718 44.162297,50.801177 42.125067,51.540450 z "
     id="path1220"
     sodipodi:nodetypes="ccssscss"
     transform="matrix(0.581802,0.000000,0.000000,0.581802,20.23540,16.13032)" />
</svg>
