<?xml version="1.0" encoding="UTF-8" standalone="no"?>
<!DOCTYPE svg PUBLIC "-//W3C//DTD SVG 20010904//EN"
"http://www.w3.org/TR/2001/REC-SVG-20010904/DTD/svg10.dtd">
<!-- Created with Inkscape (http://www.inkscape.org/) -->
<svg
   version="1.0"
   x="0.0000000"
   y="0.0000000"
   width="60.000000"
   height="60.000000"
   id="svg1"
   xmlns="http://www.w3.org/2000/svg"
   xmlns:xlink="http://www.w3.org/1999/xlink"
   xmlns:sodipodi="http://sodipodi.sourceforge.net/DTD/sodipodi-0.dtd"
   xmlns:inkscape="http://www.inkscape.org/namespaces/inkscape"
   sodipodi:version="0.32"
   inkscape:version="0.38.1"
   sodipodi:docname="gnome-fs-ssh.svg"
   sodipodi:docbase="/home/dan/Projects/Lila-icons/scalable/filesystems">
  <sodipodi:namedview
     id="base"
     pagecolor="#ffffff"
     bordercolor="#666666"
     borderopacity="1.0"
     inkscape:pageopacity="0.0"
     inkscape:pageshadow="2"
     inkscape:zoom="7.9794719"
     inkscape:cx="23.360145"
     inkscape:cy="22.945609"
     inkscape:window-width="640"
     inkscape:window-height="525"
     inkscape:window-x="79"
     inkscape:window-y="97" />
  <defs
     id="defs3">
    <linearGradient
       id="linearGradient1231">
      <stop
         offset="0.0000000"
         style="stop-color:#ffffff;stop-opacity:1.0000000;"
         id="stop1233" />
      <stop
         offset="1.0000000"
         style="stop-color:#ffffff;stop-opacity:0.0000000;"
         id="stop1232" />
    </linearGradient>
    <linearGradient
       id="linearGradient1228">
      <stop
         offset="0.0000000"
         style="stop-color:#d9cce6;stop-opacity:1.0000000;"
         id="stop1230" />
      <stop
         offset="1.0000000"
         style="stop-color:#73667f;stop-opacity:1.0000000;"
         id="stop1229" />
    </linearGradient>
    <linearGradient
       id="linearGradient584">
      <stop
         style="stop-color:#ffffff;stop-opacity:1.0000000;"
         offset="0.0000000"
         id="stop585" />
      <stop
         style="stop-color:#ffffff;stop-opacity:0.0000000;"
         offset="1.0000000"
         id="stop586" />
    </linearGradient>
    <linearGradient
       id="linearGradient578">
      <stop
         style="stop-color:#d9cce6;stop-opacity:1.0000000;"
         offset="0.0000000"
         id="stop579" />
      <stop
         style="stop-color:#73667f;stop-opacity:1.0000000;"
         offset="1.0000000"
         id="stop580" />
    </linearGradient>
    <linearGradient
       x1="-0.0068493201"
       y1="0.0077519398"
       x2="0.97945207"
       y2="1.0000000"
       id="linearGradient581"
       xlink:href="#linearGradient584" />
    <linearGradient
       x1="0.010948900"
       y1="0.010309280"
       x2="1.0145985"
       y2="0.96907216"
       id="linearGradient583"
       xlink:href="#linearGradient584" />
    <linearGradient
       x1="-0.025000000"
       y1="0.031007750"
       x2="0.97500002"
       y2="0.97674417"
       id="linearGradient860"
       xlink:href="#linearGradient584" />
    <linearGradient
       x1="0.0000000"
       y1="0.023255810"
       x2="0.98611110"
       y2="0.97674417"
       id="linearGradient861"
       xlink:href="#linearGradient578" />
    <linearGradient
       x1="-0.0000000"
       y1="0.0077519398"
       x2="1.0000000"
       y2="0.99224806"
       id="linearGradient862"
       xlink:href="#linearGradient578" />
    <defs
       id="defs730">
      <linearGradient
         id="linearGradient570"
         x1="0.0000000"
         y1="0.50000000"
         x2="1.0000000"
         y2="0.50000000"
         gradientUnits="objectBoundingBox"
         spreadMethod="pad"
         xlink:href="#linearGradient1231" />
      <linearGradient
         id="linearGradient563"
         x1="0.0000000"
         y1="0.50000000"
         x2="1.0000000"
         y2="0.50000000"
         gradientUnits="objectBoundingBox"
         spreadMethod="pad"
         xlink:href="#linearGradient1228" />
      <linearGradient
         x1="0.038461540"
         y1="0.070312500"
         x2="0.98461539"
         y2="0.96875000"
         id="linearGradient566"
         xlink:href="#linearGradient563" />
      <linearGradient
         x1="0.0065359999"
         y1="0.015625000"
         x2="0.84967297"
         y2="0.86718798"
         id="linearGradient569"
         xlink:href="#linearGradient570" />
      <linearGradient
         x1="0.0072800000"
         y1="0.021274000"
         x2="0.95999998"
         y2="0.94680798"
         id="linearGradient573"
         xlink:href="#linearGradient570" />
      <linearGradient
         x1="0.98039198"
         y1="0.97656202"
         x2="0.0065359999"
         y2="0.0078119999"
         id="linearGradient575"
         xlink:href="#linearGradient563" />
      <linearGradient
         x1="-0.0066220001"
         y1="0.0078130001"
         x2="0.92053002"
         y2="0.92187500"
         id="linearGradient741"
         xlink:href="#linearGradient570" />
    </defs>
  </defs>
  <path
     d="M 12.520915,57.092626 C 4.0202651,53.458487 2.7604161,22.501820 4.5155641,9.4540075 C 5.0788211,5.2662365 17.191871,3.9422675 21.051385,4.4671505 C 22.660131,4.6859895 22.631855,11.976965 24.463478,11.947497 C 33.524416,11.801962 45.683445,1.2373046 52.154181,4.8608705 C 57.713445,7.9740505 61.757943,30.929288 57.141040,37.013791 C 48.546888,48.339871 21.518292,60.939074 12.520915,57.092626 z "
     style="opacity:0.30267498;fill-rule:evenodd;stroke-width:18.750000;stroke-linecap:round;stroke-linejoin:round;"
     id="path897" />
  <path
     d="M 13.393040,53.527351 C 5.6890917,50.233831 4.5473147,22.178661 6.1379897,10.353790 C 6.6485077,6.5585268 17.626198,5.3586508 21.123970,5.8343378 C 22.581930,6.0326668 22.556305,12.640272 24.216255,12.613573 C 32.427932,12.481678 43.447321,2.9072078 49.311576,6.1911568 C 54.349780,9.0125458 58.015192,29.816240 53.831028,35.330456 C 46.042387,45.594975 21.547113,57.013281 13.393040,53.527351 z "
     style="fill:url(#linearGradient862);fill-rule:evenodd;stroke:#261933;stroke-width:1.8750000;stroke-linecap:round;stroke-linejoin:round;"
     id="path894" />
  <path
     d="M 13.511909,51.029838 C 8.6621240,47.135086 6.1923340,20.568238 8.3977940,11.305270 C 9.1656970,8.0800156 19.938201,7.5129146 20.291359,8.6887786 C 17.295760,8.8171216 12.793966,11.656920 12.084742,14.635507 C 9.8205470,24.145149 12.845216,48.434018 13.511909,51.029838 z "
     style="opacity:0.69999999;fill:url(#linearGradient860);fill-rule:evenodd;stroke-width:1.0000000pt;"
     id="path895" />
  <path
     d="M 26.119113,14.754486 C 37.049242,12.779274 45.157881,6.2588831 47.408617,8.0941211 C 48.017703,8.6183631 39.510799,13.392890 34.325726,15.111410 C 32.572857,15.692294 25.596374,14.847941 26.119113,14.754486 z "
     style="opacity:0.69993597;fill:url(#linearGradient583);fill-rule:evenodd;stroke-width:1.0000000pt;"
     id="path896" />
  <g
     id="g1234"
     transform="translate(-0.626608,-0.313304)">
    <ellipse
       cx="286.92639"
       cy="278.06998"
       rx="278.19861"
       ry="278.19858"
       d="M 565.12500 278.06998 A 278.19861 278.19858 0 1 0 8.7277832,278.06998 A 278.19861 278.19858 0 1 0 565.12500 278.06998 z"
       transform="matrix(4.295483e-2,-1.052055e-17,1.052055e-17,4.295483e-2,2.973051,14.95119)"
       style="opacity:0.30267498;fill-rule:evenodd;stroke-width:13.253600;"
       id="path1023" />
    <path
       d="M 26.204443,25.603754 C 26.204443,32.200138 20.850855,37.553726 14.254469,37.553726 C 7.6580837,37.553726 2.3044953,32.200138 2.3044953,25.603754 C 2.3044953,19.007368 7.6580837,13.653781 14.254469,13.653781 C 20.850855,13.653781 26.204443,19.007368 26.204443,25.603754 z "
       style="fill:url(#linearGradient566);fill-rule:evenodd;stroke:#261933;stroke-width:1.8750000;"
       id="path878" />
    <path
       d="M 5.6741785,17.589925 C 6.1094956,17.348720 6.5878062,18.201364 7.1764724,18.282889 C 7.7022404,18.355624 8.9806361,17.530307 9.6675421,17.922902 C 10.122716,18.117880 9.7354037,19.831547 9.5968107,20.857533 C 9.4223295,21.680982 8.8651804,22.860455 8.5166717,23.881477 C 8.3354946,24.328818 7.0765014,25.949528 7.0250351,26.052459 C 6.9736608,26.155299 7.5184215,27.528747 7.1793864,27.698355 C 6.8260045,27.907497 6.3895950,25.897242 5.6363307,25.332305 C 5.3112775,25.137237 4.5617437,25.227689 4.2990230,25.435283 C 3.9860162,25.605027 4.2553911,27.383960 4.7104377,27.904127 C 5.1769212,28.603648 5.8794026,29.141760 6.3050181,29.858544 C 6.8566111,30.787656 7.1965120,31.847436 7.6422579,32.841859 C 7.6422579,32.841859 7.2743926,34.111239 7.3258585,34.111239 C 7.3773240,34.111239 8.1051754,35.567851 8.1051754,35.567851 C 6.6106690,34.432695 5.4075590,33.325091 4.4018855,31.967449 C 3.6930861,31.010507 3.1277757,29.697314 2.9616971,28.624144 C 2.9048933,28.257144 3.5914077,28.036935 3.7332386,27.646935 C 3.9932901,26.996739 2.6295980,25.382997 2.5744893,24.855816 C 2.5068049,24.288147 2.8501943,22.017057 3.6303578,20.651808 C 4.1889369,19.585378 4.8408004,18.051612 5.6741785,17.589925 z "
       style="opacity:0.50445902;fill:#261933;fill-rule:evenodd;stroke:#000000;stroke-width:0.052011245pt;"
       id="path876" />
    <path
       d="M 14.534591,21.474755 C 14.256541,21.874047 13.958951,22.588780 14.123049,22.966210 C 14.301857,23.377343 15.075299,23.832289 15.563265,23.840669 C 16.069768,23.849414 16.586837,23.282018 17.106321,23.017721 C 17.564092,22.784851 18.005693,22.427962 18.495071,22.349033 C 19.068708,22.256532 19.881272,22.227383 20.295273,22.503430 C 20.601333,22.707516 20.723165,23.384630 20.655349,23.789294 C 20.511565,24.097860 20.030430,24.363523 20.192387,24.560823 C 20.334169,24.681015 21.318116,23.956034 21.478254,23.532149 C 21.609604,23.184552 20.986323,22.689025 21.066801,22.246238 C 21.131839,21.953750 22.200547,22.027714 22.558439,22.091978 C 22.853660,22.163803 23.140318,22.895935 23.432898,22.863461 C 23.700929,22.863461 24.370027,21.998566 24.442533,22.002619 C 24.721587,22.048711 24.924444,22.863461 24.924444,22.863461 C 24.444310,23.309253 24.056998,23.921147 23.484271,24.200792 C 22.582530,24.641164 21.518286,24.906325 20.501044,25.023740 C 18.843716,25.214982 16.878825,24.541967 15.460380,25.126580 C 14.341344,25.587856 12.904954,27.106820 12.888649,28.161272 C 12.870659,29.318473 13.621327,31.285142 14.967449,31.404104 C 16.597040,31.583415 18.300003,31.950367 18.887165,32.701083 C 19.345892,33.287652 18.811287,35.497939 18.885162,36.228752 C 18.912946,36.471049 19.618159,36.041789 20.038129,35.825042 C 20.681218,35.493202 21.459124,34.837905 21.683980,34.127679 C 22.110643,32.780514 22.158645,31.109658 21.992682,29.652862 C 21.850034,28.400838 20.606937,26.134486 20.758281,26.000994 C 20.898377,25.877385 21.999057,28.382255 22.867004,28.881380 C 23.370638,29.170908 24.526336,28.744109 24.873021,28.366953 C 25.109354,28.109807 24.448498,27.127998 24.615830,26.978247 C 24.774281,26.836466 25.781002,27.830161 25.850278,27.492676 C 26.402185,24.930099 25.883430,23.037897 24.981236,20.665335 C 24.242957,18.854430 22.150130,16.361538 19.915523,15.139562 C 19.600852,14.965955 18.237197,15.734303 17.184931,16.407355 C 16.585061,16.707587 15.961735,17.611650 16.269801,17.828580 C 16.541384,18.042867 17.346433,17.319982 17.916152,17.191636 C 18.937447,16.947516 19.411979,17.079870 20.192387,17.462764 C 20.192387,17.462764 21.298488,18.378077 20.809609,19.057195 C 20.499270,19.468282 19.472325,19.468691 19.472325,19.468691 C 19.249429,19.348772 19.016877,19.063389 18.803636,19.108660 C 18.451168,19.183490 18.153623,19.659160 17.774964,19.828814 C 17.004848,20.173633 16.104792,20.244091 15.357494,20.651808 C 14.934929,20.749319 14.707752,21.211826 14.534591,21.474755 z "
       style="opacity:0.49999997;fill:#261933;fill-rule:evenodd;stroke:#000000;stroke-width:0.052011245pt;"
       id="path875" />
    <path
       d="M 5.3475738,32.398297 C 5.1885317,31.921263 -0.83529491,21.132667 10.614506,15.603674 C 15.805788,13.072871 23.475296,17.764632 24.328442,20.572512 C 24.459837,20.997307 19.139846,14.933233 11.558603,18.286848 C 1.6881258,22.624713 5.4866683,32.815625 5.3475738,32.398297 z "
       style="opacity:0.69999999;fill:url(#linearGradient569);fill-rule:evenodd;stroke-width:0.099890900pt;"
       id="path877" />
  </g>
  <path
     d="M 14.034432,53.758951 C 11.950046,53.425281 10.894448,30.813363 16.220996,25.637120 C 24.798967,17.301086 46.645340,12.166513 55.748096,14.367503 C 60.325689,15.474462 57.797057,30.641857 53.561528,35.761462 C 44.541142,46.783758 22.617463,55.030531 14.034432,53.758951 z "
     style="fill:url(#linearGradient861);fill-rule:evenodd;stroke:#261933;stroke-width:1.8750000;stroke-linecap:round;stroke-linejoin:round;"
     id="path871" />
  <path
     d="M 15.654330,50.054564 C 12.869658,44.833642 15.528895,30.100281 17.672822,27.489062 C 27.055049,17.453192 51.987353,15.972798 53.956423,16.904142 C 38.389050,19.223678 31.051513,21.373677 21.954540,30.343504 C 17.910773,34.982043 15.130085,42.895253 15.654330,50.054564 z "
     style="opacity:0.69999999;fill:url(#linearGradient581);fill-rule:evenodd;stroke-width:1.2500000;"
     id="path577" />
  <rect
     width="30.710464"
     height="12.888113"
     rx="0.70483023"
     x="28.477049"
     y="40.224141"
     style="fill-opacity:0.29999998;fill-rule:evenodd;stroke-width:1.0000000pt;"
     id="rect937" />
  <path
     d="M 27.300916,38.921732 C 26.913116,38.921732 26.600916,39.233932 26.600916,39.621732 L 26.600916,50.972255 C 26.600916,51.360055 26.913116,51.672255 27.300916,51.672255 L 56.400916,51.672255 C 56.788716,51.672255 57.100916,51.360055 57.100916,50.972255 L 57.100916,39.621732 C 57.100916,39.233932 56.788716,38.921732 56.400916,38.921732 L 27.300916,38.921732 z "
     style="fill:#d9cce6;fill-opacity:0.80000001;fill-rule:evenodd;stroke:#261933;stroke-width:1.2500000;"
     id="path870" />
  <path
     style="font-size:12.000000;stroke-width:1.0000000pt;font-family:Radio Stars;"
     d="M 55.362747,48.061708 C 55.362747,48.317708 55.282747,48.517708 55.122747,48.661708 C 54.962747,48.797708 54.770747,48.865708 54.546747,48.865708 C 54.330747,48.865708 54.142747,48.797708 53.982747,48.661708 C 53.822747,48.517708 53.742747,48.317708 53.742747,48.061708 L 53.742747,46.285708 L 48.882747,46.285708 L 48.882747,48.061708 C 48.882747,48.317708 48.802747,48.517708 48.642747,48.661708 C 48.482747,48.797708 48.290747,48.865708 48.066747,48.865708 C 47.850747,48.865708 47.662747,48.797708 47.502747,48.661708 C 47.342747,48.517708 47.262747,48.317708 47.262747,48.061708 L 47.262747,42.877708 C 47.262747,42.621708 47.342747,42.425708 47.502747,42.289708 C 47.662747,42.145708 47.850747,42.073708 48.066747,42.073708 C 48.290747,42.073708 48.482747,42.145708 48.642747,42.289708 C 48.802747,42.425708 48.882747,42.621708 48.882747,42.877708 L 48.882747,44.653708 L 53.742747,44.653708 L 53.742747,42.877708 C 53.742747,42.621708 53.822747,42.425708 53.982747,42.289708 C 54.142747,42.145708 54.330747,42.073708 54.546747,42.073708 C 54.770747,42.073708 54.962747,42.145708 55.122747,42.289708 C 55.282747,42.425708 55.362747,42.621708 55.362747,42.877708 L 55.362747,48.061708 z M 45.954747,48.061708 C 45.954747,48.605708 45.682747,48.877708 45.138747,48.877708 L 38.658747,48.877708 C 38.402747,48.877708 38.202747,48.797708 38.058747,48.637708 C 37.922747,48.477708 37.854747,48.285708 37.854747,48.061708 C 37.854747,47.837708 37.922747,47.645708 38.058747,47.485708 C 38.202747,47.325708 38.402747,47.245708 38.658747,47.245708 L 44.334747,47.245708 L 44.334747,46.285708 L 38.658747,46.285708 C 38.122747,46.285708 37.854747,46.013708 37.854747,45.469708 L 37.854747,42.877708 C 37.854747,42.333708 38.122747,42.061708 38.658747,42.061708 L 45.138747,42.061708 C 45.394747,42.061708 45.594747,42.141708 45.738747,42.301708 C 45.882747,42.461708 45.954747,42.653708 45.954747,42.877708 C 45.954747,43.101708 45.882747,43.293708 45.738747,43.453708 C 45.594747,43.613708 45.394747,43.693708 45.138747,43.693708 L 39.474747,43.693708 L 39.474747,44.653708 L 45.138747,44.653708 C 45.682747,44.653708 45.954747,44.925708 45.954747,45.469708 L 45.954747,48.061708 z M 36.546747,48.061708 C 36.546747,48.605708 36.274747,48.877708 35.730747,48.877708 L 29.250747,48.877708 C 28.994747,48.877708 28.794747,48.797708 28.650747,48.637708 C 28.514747,48.477708 28.446747,48.285708 28.446747,48.061708 C 28.446747,47.837708 28.514747,47.645708 28.650747,47.485708 C 28.794747,47.325708 28.994747,47.245708 29.250747,47.245708 L 34.926747,47.245708 L 34.926747,46.285708 L 29.250747,46.285708 C 28.714747,46.285708 28.446747,46.013708 28.446747,45.469708 L 28.446747,42.877708 C 28.446747,42.333708 28.714747,42.061708 29.250747,42.061708 L 35.730747,42.061708 C 35.986747,42.061708 36.186747,42.141708 36.330747,42.301708 C 36.474747,42.461708 36.546747,42.653708 36.546747,42.877708 C 36.546747,43.101708 36.474747,43.293708 36.330747,43.453708 C 36.186747,43.613708 35.986747,43.693708 35.730747,43.693708 L 30.066747,43.693708 L 30.066747,44.653708 L 35.730747,44.653708 C 36.274747,44.653708 36.546747,44.925708 36.546747,45.469708 L 36.546747,48.061708 z "
     id="path1290" />
</svg>
