<?xml version="1.0" encoding="UTF-8" standalone="no"?>
<!DOCTYPE svg PUBLIC "-//W3C//DTD SVG 20010904//EN"
"http://www.w3.org/TR/2001/REC-SVG-20010904/DTD/svg10.dtd">
<!-- Created with Inkscape (http://www.inkscape.org/) -->
<svg
   id="svg1"
   sodipodi:version="0.32"
   inkscape:version="0.37"
   width="48pt"
   height="48pt"
   sodipodi:docbase="/usr/share/icons/Lila/scalable/filesystems"
   sodipodi:docname="gnome-fs-directory-accept.svg"
   xmlns="http://www.w3.org/2000/svg"
   xmlns:inkscape="http://www.inkscape.org/namespaces/inkscape"
   xmlns:sodipodi="http://sodipodi.sourceforge.net/DTD/sodipodi-0.dtd"
   xmlns:xlink="http://www.w3.org/1999/xlink">
  <defs
     id="defs3">
    <linearGradient
       id="linearGradient866">
      <stop
         style="stop-color:#ffffff;stop-opacity:1;"
         offset="0.00000000"
         id="stop867" />
      <stop
         style="stop-color:#d9cce6;stop-opacity:1;"
         offset="1.00000000"
         id="stop868" />
    </linearGradient>
    <linearGradient
       id="linearGradient584">
      <stop
         style="stop-color:#ffffff;stop-opacity:1;"
         offset="0.00000000"
         id="stop585" />
      <stop
         style="stop-color:#ffffff;stop-opacity:0;"
         offset="1.00000000"
         id="stop586" />
    </linearGradient>
    <linearGradient
       id="linearGradient578">
      <stop
         style="stop-color:#d9cce6;stop-opacity:1;"
         offset="0.00000000"
         id="stop579" />
      <stop
         style="stop-color:#73667f;stop-opacity:1;"
         offset="1.00000000"
         id="stop580" />
    </linearGradient>
    <linearGradient
       xlink:href="#linearGradient584"
       id="linearGradient581"
       x1="-0.00684932"
       y1="0.00775194"
       x2="0.97945207"
       y2="1.00000000" />
    <linearGradient
       xlink:href="#linearGradient584"
       id="linearGradient583"
       x1="0.01094890"
       y1="0.01030928"
       x2="1.01459849"
       y2="0.96907216" />
    <linearGradient
       xlink:href="#linearGradient584"
       id="linearGradient860"
       x1="-0.02500000"
       y1="0.03100775"
       x2="0.97500002"
       y2="0.97674417" />
    <linearGradient
       xlink:href="#linearGradient578"
       id="linearGradient861"
       x1="0.00000000"
       y1="0.02325581"
       x2="0.98611110"
       y2="0.97674417" />
    <linearGradient
       xlink:href="#linearGradient578"
       id="linearGradient862"
       x1="-0.00000000"
       y1="0.00775194"
       x2="1.00000000"
       y2="0.99224806" />
    <linearGradient
       xlink:href="#linearGradient866"
       id="linearGradient869"
       x1="-0.00684932"
       y1="0.00775194"
       x2="0.97945207"
       y2="1.00000000" />
  </defs>
  <sodipodi:namedview
     id="base"
     pagecolor="#ffffff"
     bordercolor="#666666"
     borderopacity="1.0"
     inkscape:pageopacity="0.0"
     inkscape:pageshadow="2"
     inkscape:zoom="5.64233871"
     inkscape:cx="30.8991131"
     inkscape:cy="23.4072540"
     inkscape:window-width="640"
     inkscape:window-height="516"
     inkscape:window-x="121"
     inkscape:window-y="328" />
  <path
     d="M 9.8768697 57.910302 C 1.4237103 54.296461 0.17089942 23.512742 1.9162424 10.537822 C 2.4763527 6.3734464 14.52173 5.0568747 18.359683 5.5788254 C 19.959442 5.7964421 19.931323 13.04668 21.752715 13.017379 C 30.76303 12.87266 42.854131 2.3670243 49.288722 5.9703455 C 54.816925 9.0661294 58.838827 31.893125 54.24772 37.943636 C 45.701579 49.206441 18.823981 61.735257 9.8768697 57.910302 z "
     style="font-size:12;opacity:0.302675;fill-rule:evenodd;stroke-width:18.75;stroke-linecap:round;stroke-linejoin:round;"
     id="path574" />
  <path
     d="M 10.744124 54.364943 C 3.0832161 51.089821 1.9478176 23.191386 3.5296061 11.432576 C 4.0372719 7.6585187 14.953633 6.465347 18.431864 6.9383715 C 19.881679 7.1355945 19.856197 13.706286 21.506874 13.679735 C 29.672677 13.548572 40.630504 4.0275973 46.461991 7.293197 C 51.472056 10.098824 55.11699 30.786295 50.956197 36.269706 C 43.211067 46.476876 18.852644 57.831396 10.744124 54.364943 z "
     style="font-size:12;fill:url(#linearGradient862);fill-rule:evenodd;stroke:#261933;stroke-width:1.875;stroke-linecap:round;stroke-linejoin:round;stroke-dasharray:none;"
     id="path562" />
  <path
     d="M 10.862328 51.88138 C 6.039637 48.008385 3.5836441 21.58996 5.7767836 12.378743 C 6.5403971 9.1715044 17.252718 8.6075694 17.603902 9.7768704 C 14.62504 9.9044924 10.148394 12.728426 9.4431338 15.690372 C 7.1915879 25.146889 10.199359 49.300066 10.862328 51.88138 z "
     style="font-size:12;opacity:0.7;fill:url(#linearGradient860);fill-rule:evenodd;stroke:none;stroke-width:1pt;"
     id="path567" />
  <path
     d="M 23.399098 15.808682 C 34.268165 13.844515 42.3315 7.3605467 44.569665 9.1855304 C 45.175353 9.7068474 36.71597 14.454695 31.559867 16.163619 C 29.816788 16.741251 22.879279 15.901621 23.399098 15.808682 z "
     style="font-size:12;opacity:0.699936;fill:url(#linearGradient583);fill-rule:evenodd;stroke:none;stroke-width:1pt;"
     id="path568" />
  <path
     d="M 8.3275447 36.541607 C 8.4531394 38.262787 28.609168 51.007823 30.35786 50.180108 C 31.925992 49.427957 49.82084 19.686387 49.500123 18.243583 C 49.187328 16.663318 27.785786 7.4579592 26.48127 8.1508344 C 24.872609 9.0112634 8.2349826 34.579937 8.3275447 36.541607 z "
     style="font-size:12;opacity:0.302675;fill-rule:evenodd;stroke-width:12.5;"
     id="path639" />
  <path
     d="M 9.3326977 35.213402 C 9.4477082 36.7892 27.901065 48.457609 29.502029 47.699811 C 30.937701 47.011199 47.320901 19.782004 47.027286 18.461058 C 46.740911 17.014285 27.147232 8.5865604 25.952911 9.2209054 C 24.480141 10.008654 9.2479539 33.417451 9.3326977 35.213402 z "
     style="font-size:12;fill:url(#linearGradient869);fill-rule:evenodd;stroke:#261933;stroke-width:1.875;stroke-dasharray:none;"
     id="path634" />
  <path
     d="M 11.049107 34.203416 C 10.975045 33.617763 25.638845 11.014178 26.549224 10.703376 C 27.694102 10.287158 42.701336 17.259097 42.775219 17.843373 C 42.84295 18.378886 30.935485 12.916672 27.522269 14.691885 C 21.010215 17.962738 11.116655 34.737586 11.049107 34.203416 z "
     style="font-size:12;opacity:0.699936;fill:url(#linearGradient583);fill-rule:evenodd;stroke:#ffffff;stroke-width:0.0663071pt;"
     id="path640" />
  <path
     d="M 11.381933 54.595249 C 9.3091908 54.263444 12.813712 35.003755 18.110503 29.85643 C 26.640549 21.566968 48.364878 16.461082 57.416774 18.649773 C 61.968795 19.750546 54.900072 31.607302 50.688206 36.698301 C 41.718212 47.659024 19.917012 55.859727 11.381933 54.595249 z "
     style="font-size:12;fill:url(#linearGradient861);fill-rule:evenodd;stroke:#261933;stroke-width:1.875;stroke-linecap:round;stroke-linejoin:round;stroke-dasharray:none;"
     id="path576"
     sodipodi:nodetypes="ccccc" />
  <path
     d="M 13.751817 51.291072 C 12.121257 44.581242 17.612025 34.674172 19.743975 32.077541 C 29.832824 24.18509 52.728249 19.866576 54.686319 20.792718 C 39.205913 23.099298 32.099128 27.134875 22.483698 33.777483 C 18.462523 38.390104 13.989536 45.120555 13.751817 51.291072 z "
     style="font-size:12;opacity:0.7;fill:url(#linearGradient581);fill-rule:evenodd;stroke:none;stroke-width:1.25;"
     id="path577"
     sodipodi:nodetypes="ccccc" />
</svg>
